<svg xmlns="http://www.w3.org/2000/svg" width="121.001" height="29.54" viewBox="0 0 121.001 29.54"><g transform="translate(-622.942 -376.349)"><path d="M-9991.729-1610.459a14.178,14.178,0,0,1-10.091-4.18,14.174,14.174,0,0,1-4.181-10.092,14.171,14.171,0,0,1,4.181-10.089,14.179,14.179,0,0,1,10.091-4.179,14.179,14.179,0,0,1,10.091,4.179,14.175,14.175,0,0,1,4.18,10.089,14.179,14.179,0,0,1-4.18,10.092A14.178,14.178,0,0,1-9991.729-1610.459Zm-8.637-22.826a3.836,3.836,0,0,0-2.4,1.426l-.849.954a7.1,7.1,0,0,0-1.293,3.046,17.894,17.894,0,0,0,.51,6.908,1.637,1.637,0,0,0,.849,1.07,1.218,1.218,0,0,0,.453.087,2.632,2.632,0,0,0,1.174-.391l.131-.065.5-.226.492-.219.6-.261a4.219,4.219,0,0,0,1.224-.668,3.549,3.549,0,0,0,1.1-1.69,5.9,5.9,0,0,0,.209-1.145,5.375,5.375,0,0,0-.061-1.534,3.052,3.052,0,0,0-1.358-2.114,2.127,2.127,0,0,0-1.107-.3,2.492,2.492,0,0,0-.364.027,4.711,4.711,0,0,0,1.443-3.174c0-.084,0-.174-.012-.3a1.469,1.469,0,0,0-.85-1.366A1.158,1.158,0,0,0-10000.366-1633.286Zm9.329-3.9a7.577,7.577,0,0,0-1.312.115,6.951,6.951,0,0,0-4.38,2.652,6.545,6.545,0,0,0-1.178,5.093,6.376,6.376,0,0,0,2.7,4.3,7.509,7.509,0,0,0,4.231,1.207,10.251,10.251,0,0,0,2.111-.228,7.818,7.818,0,0,0,3.506-1.642,1.449,1.449,0,0,0,.487-1.118,4.475,4.475,0,0,0-.179-1.052c-.057-.208-.151-.251-.276-.251-.1,0-.218.13-.223.136a5.225,5.225,0,0,1-3,1.584,7.589,7.589,0,0,1-1.43.142,4.873,4.873,0,0,1-5.057-4.082,4.55,4.55,0,0,1,.638-3.551,4.629,4.629,0,0,1,3.175-1.848,5.882,5.882,0,0,1,.843-.061,5.723,5.723,0,0,1,2.2.432.484.484,0,0,0,.121.016.2.2,0,0,0,.167-.064.269.269,0,0,0,.025-.231c-.265-.911-.692-1.139-.863-1.2A7.539,7.539,0,0,0-9991.037-1637.183Zm-11.96,15.769a.166.166,0,0,1-.068-.015c-.06-.031-.081-.075-.118-.176a20.772,20.772,0,0,1-.647-7.5,1.194,1.194,0,0,1,.251-.588l.821-.881.1-.1a1.73,1.73,0,0,1,.978-.584.32.32,0,0,1,.119.021c.194.08.241.383.246.623.033,1.29-.687,2.608-2.2,4.028a.321.321,0,0,0-.1.264c0,.012.021.3.022.319a.172.172,0,0,0,.1.163.168.168,0,0,0,.061.011.168.168,0,0,0,.118-.049,2.673,2.673,0,0,1,1.59-.684,1.219,1.219,0,0,1,.4.064c.5.176.851.7,1.029,1.557a2.606,2.606,0,0,1-1.635,3.024l-.027.01-.984.487A.16.16,0,0,1-10003-1621.413Z" transform="translate(10629.443 2015.848)" fill="#df2534" stroke="rgba(0,0,0,0)" stroke-width="1"/><path d="M-10037.145-1623.231c-.759,0-4.545-.152-4.545-3.146v-13.75a2.729,2.729,0,0,1,1.854-2.635,7.233,7.233,0,0,1,2.563-.5h1.828v.005h0c2.8,0,4.917.585,6.3,1.736a4.428,4.428,0,0,1,1.655,3.447c0,2.133-1.212,3.582-3.506,4.188a5.94,5.94,0,0,1,2.966,1.682,4.773,4.773,0,0,1,1.3,3.308,4.93,4.93,0,0,1-1.862,3.891c-1.453,1.179-3.614,1.777-6.424,1.777h-2.131Zm-.19-17.615a.847.847,0,0,0-.859.718v13.757a.847.847,0,0,0,.859.716h2.014a6.144,6.144,0,0,0,3.258-.783,2.886,2.886,0,0,0,1.414-2.589c0-3.685-3.453-4.171-6.051-4.216a.208.208,0,0,1-.219-.2v-.527a.206.206,0,0,1,.219-.2,8.018,8.018,0,0,0,3.715-.812,3.226,3.226,0,0,0,1.746-3.008c0-1.79-1.464-2.858-3.916-2.858Zm21.521,17.51a9.486,9.486,0,0,1-9.914-9.914,9.484,9.484,0,0,1,9.914-9.912,11.557,11.557,0,0,1,5.5,1.358,2.311,2.311,0,0,1,.81,2.114v.8a.335.335,0,0,1-.333.335.265.265,0,0,1-.166-.045,8.184,8.184,0,0,0-4.713-1.7c-.135-.005-.272-.008-.408-.008a6.988,6.988,0,0,0-5.088,1.868,7.149,7.149,0,0,0-1.883,5.192,7.148,7.148,0,0,0,1.885,5.2,7,7,0,0,0,5.092,1.868c.133,0,.269,0,.4-.008a8.387,8.387,0,0,0,4.713-1.7.284.284,0,0,1,.166-.045.335.335,0,0,1,.333.335v.8a2.307,2.307,0,0,1-.81,2.112A11.529,11.529,0,0,1-10015.813-1623.335Zm15.552-.38a8.705,8.705,0,0,1-2.21-.272,6.479,6.479,0,0,1-5.1-6.532v-.005a6.475,6.475,0,0,1,5.1-6.532,8.7,8.7,0,0,1,2.21-.277,8.779,8.779,0,0,1,4.191,1.033,1.416,1.416,0,0,1,.595,1.242v1.066a.266.266,0,0,1-.27.262.236.236,0,0,1-.139-.038,6.784,6.784,0,0,0-3.369-1.1c-.146-.008-.294-.012-.438-.012a5.232,5.232,0,0,0-2.941.758,4.189,4.189,0,0,0-1.854,3.6,4.067,4.067,0,0,0,1.854,3.606,5.262,5.262,0,0,0,2.982.753c.134,0,.268,0,.4-.01a6.816,6.816,0,0,0,3.369-1.1.254.254,0,0,1,.139-.038.266.266,0,0,1,.27.262v1.066a1.4,1.4,0,0,1-.595,1.24A8.751,8.751,0,0,1-10000.262-1623.716Zm38.78-.151h-3.168a6.178,6.178,0,0,1-3.9-1.179c-1.581-1.314-1.8-3.494-1.8-5.653a14.3,14.3,0,0,1,.072-1.565,5.37,5.37,0,0,1,1.727-3.894,3.687,3.687,0,0,1,.721-.481,8.663,8.663,0,0,1,3.652-.743,6.615,6.615,0,0,1,3.7.925v-6.368h3.1v15.814C-9957.379-1624.181-9960.519-1623.889-9961.481-1623.867Zm-2.313-11.27c-2.944,0-3.342,2.325-3.342,4.6,0,2.256.4,4.561,3.342,4.561,2.263,0,3.316-.679,3.316-2.137v-2.424a6.943,6.943,0,0,0-.569-3.186A2.834,2.834,0,0,0-9963.795-1635.137Zm-21.953,11.27h-3.208a6.586,6.586,0,0,1-4.241-1.31,3.536,3.536,0,0,1-1.24-3.034c.137-1.666,1.371-3.692,6.475-3.883.289-.011.626-.016,1-.016,1.1,0,2.223.047,2.27.049v-.176c0-1.939-1.088-2.742-3.755-2.77h-.071a8.881,8.881,0,0,0-2.076.28,9.047,9.047,0,0,0-2.318.88.345.345,0,0,1-.166.047h-.028c-.141-.014-.212-.1-.212-.265v-.973a1.4,1.4,0,0,1,.588-1.222,8.279,8.279,0,0,1,4.407-1.094c.119,0,.238,0,.353,0a7.482,7.482,0,0,1,4.725,1.418,4.905,4.905,0,0,1,1.6,3.953v4.965a2.736,2.736,0,0,1-1.723,2.643A6.229,6.229,0,0,1-9985.748-1623.867Zm-1.058-6.119c-.435,0-.824.013-1.157.038-2.447.181-3.357.753-3.357,2.112,0,1.256.988,1.893,2.937,1.893.111,0,.229,0,.324-.009l.1,0c2.073-.115,3.273-.507,3.273-2.165v-1.784h0c-.006,0-1.014-.081-2.113-.081Zm10.11,5.8h-3.214v-8.715a3.8,3.8,0,0,1,2.194-3.323,10.257,10.257,0,0,1,4.971-1.147c.373,0,.75.016,1.121.048.5.042.837.179.837.706v1.28a.308.308,0,0,1-.3.325h-.01c-2.093.01-5.595.027-5.595,2.818v8.008Z" transform="translate(10700.822 2024.381)" fill="#333" stroke="rgba(0,0,0,0)" stroke-width="1"/></g></svg>