<svg id="Layer_1" data-name="Layer 1" xmlns="http://www.w3.org/2000/svg" xmlns:xlink="http://www.w3.org/1999/xlink" viewBox="0 0 719.995 826.509"><defs><style>.cls-1{fill:#adb3e2;}.cls-1,.cls-2,.cls-3,.cls-4{fill-rule:evenodd;}.cls-2{fill:url(#linear-gradient);}.cls-3{fill:url(#linear-gradient-2);}.cls-4{fill:url(#linear-gradient-3);}</style><linearGradient id="linear-gradient" x1="89.67" y1="820.328" x2="630.326" y2="279.672" gradientUnits="userSpaceOnUse"><stop offset="0" stop-color="#fff" stop-opacity="0"/><stop offset="1" stop-color="#85d7e1"/></linearGradient><linearGradient id="linear-gradient-2" x1="331.006" y1="480.493" x2="331.006" y2="192.988" gradientUnits="userSpaceOnUse"><stop offset="0" stop-color="#fff" stop-opacity="0"/><stop offset="1" stop-color="#f7e476"/></linearGradient><linearGradient id="linear-gradient-3" x1="514.998" x2="514.998" y2="200.001" gradientUnits="userSpaceOnUse"><stop offset="0" stop-color="#f4c4bd"/><stop offset="1" stop-color="#fed491"/></linearGradient></defs><title>main_pattern1</title><path class="cls-1" d="M456.5,45.251a1.509,1.509,0,0,0-2.066-.54L277.056,147.692a1.5,1.5,0,1,0,1.5,2.6L455.938,47.309A1.509,1.509,0,0,0,456.5,45.251Z"/><path class="cls-2" d="M698.05,355.351a163.7,163.7,0,0,1-59.881,223.568L245.424,804.555a163.647,163.647,0,0,1-163.6-283.473L474.571,295.446A163.563,163.563,0,0,1,698.05,355.351Z"/><path class="cls-3" d="M567,200.491a15,15,0,0,1-5.49,20.49l-446,257.5a15,15,0,0,1-15-25.981l446-257.5A15,15,0,0,1,567,200.491Z"/><path class="cls-4" d="M686.165,1.251a2.5,2.5,0,0,1-.916,3.415l-338,195a2.5,2.5,0,0,1-2.5-4.33l338-195A2.5,2.5,0,0,1,686.165,1.251Z"/></svg>