<svg id="Layer_1" data-name="Layer 1" xmlns="http://www.w3.org/2000/svg" xmlns:xlink="http://www.w3.org/1999/xlink" viewBox="0 0 823.34 693.261"><defs><style>.cls-1,.cls-2,.cls-3{fill-rule:evenodd;}.cls-1{fill:url(#linear-gradient);}.cls-2{fill:url(#linear-gradient-2);}.cls-3{fill:url(#linear-gradient-3);}</style><linearGradient id="linear-gradient" x1="195.004" x2="195.004" y2="238.505" gradientUnits="userSpaceOnUse"><stop offset="0" stop-color="#fff" stop-opacity="0"/><stop offset="1" stop-color="#85d7e1"/></linearGradient><linearGradient id="linear-gradient-2" x1="726.197" y1="99.505" x2="131.149" y2="694.554" gradientUnits="userSpaceOnUse"><stop offset="0" stop-color="#fff" stop-opacity="0"/><stop offset="1" stop-color="#f5c4bd"/></linearGradient><linearGradient id="linear-gradient-3" x1="266.004" y1="107.752" x2="266.004" y2="238.753" gradientUnits="userSpaceOnUse"><stop offset="0" stop-color="#f4c4bd"/><stop offset="1" stop-color="#fed491"/></linearGradient></defs><title>main_pattern2</title><path class="cls-1" d="M388,7.5a15,15,0,0,0-20.49-5.491l-360,208.5a15,15,0,0,0,15,25.981l360-208.5A15,15,0,0,0,388,7.5Z"/><path class="cls-2" d="M801.4,182.657a163.7,163.7,0,0,1-59.881,223.568L279.43,671.307a163.647,163.647,0,0,1-163.6-283.473L577.916,122.752A163.563,163.563,0,0,1,801.4,182.657Z"/><path class="cls-3" d="M377.171,109a2.5,2.5,0,0,1-.915,3.415l-218,126a2.5,2.5,0,1,1-2.5-4.329l218-126A2.5,2.5,0,0,1,377.171,109Z"/></svg>