<svg xmlns="http://www.w3.org/2000/svg" width="110" height="110" viewBox="0 0 110 110"><g transform="translate(-58 -458)"><g transform="translate(92.375 458)"><circle cx="36.094" cy="36.094" r="36.094" fill="#55f0c3"/></g><g transform="translate(58 464.876)"><g transform="translate(30.938 17.186)"><g transform="translate(0 50.071)"><path d="M79.438,537H76V524.968c0-13.767,7.642-16.672,15.73-19.745a62.934,62.934,0,0,0,9.2-4.091l1.705,2.984a66.727,66.727,0,0,1-9.682,4.319c-8.138,3.094-13.515,5.136-13.515,16.533Z" transform="translate(-76 -501.132)" fill="#1366ff"/></g><g transform="translate(52.429 50.071)"><path d="M133.138,537H129.7V524.968c0-11.4-5.376-13.439-13.515-16.533a66.727,66.727,0,0,1-9.682-4.319l1.705-2.984a62.934,62.934,0,0,0,9.2,4.091c8.088,3.073,15.73,5.978,15.73,19.745Z" transform="translate(-106.504 -501.132)" fill="#1366ff"/></g><g transform="translate(23.569 44.528)"><path d="M112.889,513.909l-7.214-3.608-7.214,3.608-8.748-8.748,4.835-7.253,11.127,1.855,11.127-1.855,4.835,7.253Zm-7.214-7.451,6.536,3.267,5-5-2.04-3.059-9.5,1.583-9.5-1.583-2.04,3.059,5,5Z" transform="translate(-89.713 -497.907)" fill="#1366ff"/></g><g transform="translate(46.406 39.531)"><rect width="3.438" height="6.875" fill="#1366ff"/></g><g transform="translate(29.219 39.531)"><rect width="3.438" height="6.875" fill="#1366ff"/></g><g transform="translate(37.813 68.75)"><rect width="3.438" height="3.438" fill="#1366ff"/></g><g transform="translate(37.813 61.875)"><rect width="3.438" height="3.438" fill="#1366ff"/></g><g transform="translate(22.344)"><path d="M106.188,514.969c-.227,0-5.6-.022-9.362-1.9l-.186-.108c-.235-.158-5.816-4.01-7.623-16.655L89,496.063v-6.875C89,477.782,94.782,472,106.188,472s17.188,5.782,17.188,17.188l-.017,7.119c-1.806,12.645-7.387,16.5-7.623,16.655l-.186.108C111.792,514.946,106.414,514.969,106.188,514.969Zm-7.7-4.914c3.01,1.442,7.6,1.476,7.7,1.476s4.689-.034,7.7-1.475c.538-.43,4.574-3.962,6.052-14.116v-6.753c0-9.508-4.24-13.75-13.75-13.75s-13.75,4.242-13.75,13.75v6.753C93.917,506.11,97.939,509.622,98.486,510.055Z" transform="translate(-89 -472)" fill="#1366ff"/></g><g transform="translate(23.294 11.867)"><path d="M114.462,489.546l-17.187-6.875-6.184,3.092-1.538-3.075,7.566-3.783,17.187,6.875,6.184-3.092,1.538,3.075Z" transform="translate(-89.553 -478.904)" fill="#1366ff"/></g><g transform="translate(13.75 75.625)"><rect width="3.438" height="10.313" fill="#1366ff"/></g><g transform="translate(61.875 75.625)"><rect width="3.438" height="10.313" fill="#1366ff"/></g></g><path d="M86.334,537.392C75.753,531.026,58,515.669,58,484.343V474.031a1.718,1.718,0,0,1,1.719-1.719h9.96l23.738-10.173a1.731,1.731,0,0,1,1.354,0l24.063,10.313-1.354,3.159L94.094,465.588,70.708,475.61a1.7,1.7,0,0,1-.677.139H61.438v8.594c0,29.635,16.71,44.112,26.67,50.105Z" transform="translate(-58 -462.001)" fill="#1366ff"/><g transform="translate(10.313 11.86)"><path d="M89.781,524.274l-.768-.383C88.762,523.763,64,511.057,64,482.821v-5.156h6.5L89.781,468.9l16.177,7.356-1.423,3.128-14.754-6.707L71.248,481.1h-3.81v1.719c0,23.341,18.341,35.25,22.347,37.57a50.2,50.2,0,0,0,13.368-11.37l2.662,2.176A51.813,51.813,0,0,1,90.55,523.891Z" transform="translate(-64 -468.901)" fill="#1366ff"/></g><g transform="translate(34.375 24.061)"><rect width="3.438" height="3.438" fill="#1366ff"/></g><g transform="translate(34.375 30.936)"><rect width="3.438" height="3.438" fill="#1366ff"/></g><g transform="translate(34.375 37.811)"><rect width="3.438" height="3.438" fill="#1366ff"/></g></g><g transform="translate(-742.293 49.865)"><g transform="translate(806.864 488)"><rect width="3.545" height="28.362" fill="#1366ff"/></g><g transform="translate(800.293 508.018)"><path d="M808.637,509.41a1.767,1.767,0,0,1-1.253-.519l-7.091-7.091,2.506-2.507,5.837,5.837,5.837-5.837,2.506,2.507-7.091,7.091A1.767,1.767,0,0,1,808.637,509.41Z" transform="translate(-800.293 -499.293)" fill="#1366ff"/></g></g></g></svg>