<svg xmlns="http://www.w3.org/2000/svg" width="112.88" height="107.829" viewBox="0 0 112.88 107.829"><g transform="translate(-670 -277)"><g transform="translate(684.096 327.991)"><path d="M691.891,316.7l-5.6-5.6-5.6,5.6-2.4-2.4,6.8-6.8a1.7,1.7,0,0,1,2.4,0l6.8,6.8Z" transform="translate(-678.293 -307)" fill="#1366ff"/></g><g transform="translate(707.394 277)"><ellipse cx="35.694" cy="35.694" rx="35.694" ry="35.694" fill="#55f0c3"/></g><g transform="translate(752.084 321.69)"><path d="M726.293,312.993a1.7,1.7,0,0,1-1.2-.5l-6.8-6.8,2.4-2.4,5.6,5.6,5.6-5.6,2.4,2.4-6.8,6.8A1.7,1.7,0,0,1,726.293,312.993Z" transform="translate(-718.293 -303.293)" fill="#1366ff"/></g><g transform="translate(717.592 327.991)"><rect width="3.399" height="3.399" fill="#1366ff"/></g><g transform="translate(724.391 327.991)"><rect width="3.399" height="3.399" fill="#1366ff"/></g><g transform="translate(731.19 327.991)"><rect width="3.399" height="3.399" fill="#1366ff"/></g><g transform="translate(670 280.399)"><path d="M673.4,290.9H670V280.7a1.7,1.7,0,0,1,1.7-1.7h20.4a1.7,1.7,0,0,1,1.7,1.7v3.4h-3.4v-1.7h-17Z" transform="translate(-670 -279)" fill="#1366ff"/><g transform="translate(0 3.399)"><path d="M719.292,314.994H671.7a1.7,1.7,0,0,1-1.7-1.7V289.5a1.7,1.7,0,0,1,1.7-1.7h12.894l6.3-6.3a1.693,1.693,0,0,1,1.2-.5h27.2a1.7,1.7,0,0,1,1.7,1.7v30.595A1.7,1.7,0,0,1,719.292,314.994Zm-45.892-3.4h44.193V284.4H692.8l-6.3,6.3a1.7,1.7,0,0,1-1.2.5H673.4Z" transform="translate(-670 -281)" fill="#1366ff"/></g></g><g transform="translate(727.79 293.997)"><path d="M737.994,322.694h-3.4V295.5a5.105,5.105,0,0,0-5.1-5.1H704V287h25.5a8.508,8.508,0,0,1,8.5,8.5Z" transform="translate(-704 -287)" fill="#1366ff"/></g><g transform="translate(690.397 329.691)"><path d="M712.595,343.694H690.5a8.508,8.508,0,0,1-8.5-8.5V308h3.4v27.2a5.105,5.105,0,0,0,5.1,5.1h22.1Z" transform="translate(-682 -308)" fill="#1366ff"/></g><g transform="translate(730.979 338.03)"><path d="M715.625,312.906h32.4v13.65h3.9a5.824,5.824,0,0,1,5.85,5.85v19.5h-9.75v7.8h-32.4v-7.8h-9.75v-19.5a5.824,5.824,0,0,1,5.851-5.85h3.9v-13.65Zm-3.9,17.549a1.724,1.724,0,0,0-1.95,1.951v15.6h5.849v-7.8h32.4v7.8h5.849v-15.6a1.725,1.725,0,0,0-1.95-1.951Zm.549,2.5a2.065,2.065,0,1,1-.549,1.4A1.891,1.891,0,0,1,712.275,332.954Zm7.251-16.149v9.751h24.6v-9.751Zm0,27.3v11.7h24.6v-11.7Z" transform="translate(-705.876 -312.906)" fill="#1366ff"/></g></g></svg>