<?xml version="1.0" encoding="utf-8"?>
<!-- Generator: Adobe Illustrator 22.0.1, SVG Export Plug-In . SVG Version: 6.00 Build 0)  -->
<svg version="1.1" id="Layer_1" xmlns="http://www.w3.org/2000/svg" xmlns:xlink="http://www.w3.org/1999/xlink" x="0px" y="0px"
	 viewBox="0 0 15.5 14.6" style="enable-background:new 0 0 15.5 14.6;" xml:space="preserve">
<style type="text/css">
	.st0{fill:#8C98A4;}
</style>
<title>Artboard 1</title>
<path class="st0" d="M15.1,12.9l-4.3-4c0.6-0.9,0.9-1.9,0.9-3C11.7,2.7,9.1,0,5.9,0C2.7,0,0.1,2.6,0.1,5.9c0,3.2,2.6,5.8,5.8,5.9
	c1.4,0,2.7-0.5,3.8-1.4l4.2,3.9c0.3,0.3,0.9,0.3,1.2,0l0.1-0.1C15.4,13.8,15.4,13.3,15.1,12.9z M5.9,10c-2.3,0-4.1-1.9-4.1-4.1
	c0-2.3,1.9-4.1,4.1-4.1c2.3,0,4.1,1.9,4.1,4.1C10,8.2,8.2,10,5.9,10z"/>
</svg>
