<svg xmlns="http://www.w3.org/2000/svg" viewBox="0 0 62.6 72">
  <defs>
    <style>
      .cls-1 {
        fill: #a2dfff;
      }

      .cls-2 {
        fill: #1977cc;
      }

      .cls-3 {
        fill: #fff;
      }

      .cls-4 {
        fill: #1366ff;
      }

      .cls-5 {
        fill: #6ebdff;
      }
    </style>
  </defs>
  <g id="symbol_chain_60px" data-name="symbol_chain 60px" transform="translate(-63 -473)">
    <g id="그룹_89" data-name="그룹 89" transform="translate(63 473)">
      <g id="그룹_48" data-name="그룹 48">
        <path id="패스_64" data-name="패스 64" class="cls-1" d="M.3,18.1V28.4l8.9,5.2,9-5.2V18.1L9.2,13Z"/>
        <path id="패스_65" data-name="패스 65" class="cls-2" d="M18.3,18,9.4,12.9H9.2L.2,18c-.1,0-.1.1-.1.2V28.5c0,.1,0,.1.1.2l8.9,5.1h.2l8.9-5.1c.1,0,.1-.1.1-.2V18.1S18.3,18,18.3,18ZM18,28.3l-8.7,5-8.7-5V18.2l8.7-5,8.7,5Z"/>
      </g>
      <g id="그룹_49" data-name="그룹 49">
        <path id="패스_66" data-name="패스 66" class="cls-3" d="M.3,18.1l8.9,5.2,9-5.2L9.2,13Z"/>
        <path id="패스_67" data-name="패스 67" class="cls-4" d="M18.3,18,9.4,12.9H9.2L.2,18c-.1,0-.1.1-.1.2s0,.1.1.2l8.9,5.1h.2l8.9-5.1c.1,0,.1-.1.1-.2S18.3,18,18.3,18ZM9.2,23.1.6,18.2l8.6-4.9,8.6,4.9Z"/>
      </g>
      <g id="그룹_52" data-name="그룹 52">
        <g id="그룹_50" data-name="그룹 50">
          <path id="패스_68" data-name="패스 68" class="cls-1" d="M22.3,5.5V15.7l9,5.2,8.9-5.2V5.5L31.3.3Z"/>
          <path id="패스_69" data-name="패스 69" class="cls-2" d="M40.3,5.3,31.4.2h-.2L22.3,5.3c-.1,0-.1.1-.1.2V15.8c0,.1,0,.1.1.2l8.9,5.1h.2L40.3,16c.1,0,.1-.1.1-.2V5.5A.349.349,0,0,0,40.3,5.3ZM40,15.6l-8.7,5-8.7-5V5.6l8.7-5,8.7,5Z"/>
        </g>
        <g id="그룹_51" data-name="그룹 51">
          <path id="패스_70" data-name="패스 70" class="cls-3" d="M22.3,5.5l9,5.1,8.9-5.1L31.3.3Z"/>
          <path id="패스_71" data-name="패스 71" class="cls-4" d="M40.3,5.3,31.4.2h-.2L22.3,5.3c-.1,0-.1.1-.1.2s0,.1.1.2l8.9,5.1h.2l8.9-5.1c.1,0,.1-.1.1-.2A.349.349,0,0,0,40.3,5.3Zm-9,5.1L22.7,5.5,31.3.6l8.6,4.9Z"/>
        </g>
      </g>
      <g id="그룹_55" data-name="그룹 55">
        <g id="그룹_53" data-name="그룹 53">
          <path id="패스_72" data-name="패스 72" class="cls-1" d="M22.3,56.2V66.5l9,5.1,8.9-5.1V56.2l-8.9-5.1Z"/>
          <path id="패스_73" data-name="패스 73" class="cls-2" d="M40.3,56l-8.9-5.1h-.2l-9,5.1c-.1,0-.1.1-.1.2V66.5c0,.1,0,.1.1.2l8.9,5.1h.2l8.9-5.1c.1,0,.1-.1.1-.2V56.2C40.4,56.1,40.3,56.1,40.3,56ZM40,66.4l-8.7,5-8.7-5V56.3l8.7-5,8.7,5Z"/>
        </g>
        <g id="그룹_54" data-name="그룹 54">
          <path id="패스_74" data-name="패스 74" class="cls-3" d="M22.3,56.2l9,5.1,8.9-5.1-8.9-5.1Z"/>
          <path id="패스_75" data-name="패스 75" class="cls-4" d="M40.3,56l-8.9-5.1h-.2l-9,5.1c-.1,0-.1.1-.1.2s0,.1.1.2l8.9,5.1h.2l8.9-5.1c.1,0,.1-.1.1-.2Zm-9,5.1-8.6-4.9,8.6-4.9,8.6,4.9Z"/>
        </g>
      </g>
      <g id="그룹_58" data-name="그룹 58">
        <g id="그룹_56" data-name="그룹 56">
          <path id="패스_76" data-name="패스 76" class="cls-1" d="M22.3,30.8V41.1l9,5.2,8.9-5.2V30.8l-8.9-5.1Z"/>
          <path id="패스_77" data-name="패스 77" class="cls-2" d="M40.3,30.7l-8.9-5.1h-.2l-8.9,5.1c-.1,0-.1.1-.1.2V41.2c0,.1,0,.1.1.2l8.9,5.1h.2l8.9-5.1c.1,0,.1-.1.1-.2V30.8ZM40,41l-8.7,5-8.7-5V30.9l8.7-5,8.7,5Z"/>
        </g>
        <g id="그룹_57" data-name="그룹 57">
          <path id="패스_78" data-name="패스 78" class="cls-3" d="M22.3,30.8l9,5.2,8.9-5.2-8.9-5.1Z"/>
          <path id="패스_79" data-name="패스 79" class="cls-4" d="M40.3,30.7l-8.9-5.1h-.2l-8.9,5.1c-.1,0-.1.1-.1.2s0,.1.1.2l8.9,5.1h.2l8.9-5.1c.1,0,.1-.1.1-.2A.349.349,0,0,0,40.3,30.7Zm-9,5.1-8.6-4.9L31.3,26l8.6,4.9Z"/>
        </g>
      </g>
      <g id="그룹_59" data-name="그룹 59">
        <path id="패스_80" data-name="패스 80" class="cls-1" d="M.3,43.5V53.8l8.9,5.1,9-5.1V43.5l-9-5.1Z"/>
        <path id="패스_81" data-name="패스 81" class="cls-2" d="M18.3,43.4,9.4,38.3H9.2L.3,43.4c-.1,0-.1.1-.1.2V53.9c0,.1,0,.1.1.2l8.9,5.1h.2l8.9-5.1c.1,0,.1-.1.1-.2V43.5ZM18,53.7l-8.7,5-8.7-5V43.6l8.7-5,8.7,5Z"/>
      </g>
      <g id="그룹_60" data-name="그룹 60">
        <path id="패스_82" data-name="패스 82" class="cls-5" d="M.3,53.8l8.9,5.1V48.7L.3,43.5Z"/>
        <path id="패스_83" data-name="패스 83" class="cls-2" d="M9.3,48.5.4,43.4H.2c-.1,0-.1.1-.1.2V53.9c0,.1,0,.1.1.2l8.9,5.1h.2c.1,0,.1-.1.1-.2V48.7C9.4,48.6,9.4,48.5,9.3,48.5ZM9.1,58.6.5,53.7V43.8l8.6,4.9Z"/>
      </g>
      <g id="그룹_61" data-name="그룹 61">
        <path id="패스_84" data-name="패스 84" class="cls-5" d="M.3,28.4l8.9,5.2V23.3L.3,18.1Z"/>
        <path id="패스_85" data-name="패스 85" class="cls-4" d="M9.3,23.1.4,18H.2c-.1,0-.1.1-.1.2V28.5c0,.1,0,.1.1.2l8.9,5.1h.2c.1,0,.1-.1.1-.2V23.3C9.4,23.2,9.4,23.2,9.3,23.1ZM9.1,33.3.5,28.4V18.5l8.6,4.9Z"/>
      </g>
      <g id="그룹_64" data-name="그룹 64">
        <g id="그룹_62" data-name="그룹 62">
          <path id="패스_86" data-name="패스 86" class="cls-5" d="M22.4,66.5l8.9,5.2V61.4l-8.9-5.1Z"/>
          <path id="패스_87" data-name="패스 87" class="cls-4" d="M31.4,61.2l-8.9-5.1h-.2c-.1,0-.1.1-.1.2V66.6c0,.1,0,.1.1.2l8.9,5.1h.2c.1,0,.1-.1.1-.2V61.4C31.5,61.3,31.5,61.3,31.4,61.2Zm-.2,10.2-8.6-4.9V56.6l8.6,4.9Z"/>
        </g>
        <g id="그룹_63" data-name="그룹 63">
          <path id="패스_88" data-name="패스 88" class="cls-5" d="M22.4,41.2l8.9,5.1V36l-8.9-5.1Z"/>
          <path id="패스_89" data-name="패스 89" class="cls-4" d="M31.4,35.9l-8.9-5.1h-.2c-.1,0-.1.1-.1.2V41.3c0,.1,0,.1.1.2l8.9,5.1h.2c.1,0,.1-.1.1-.2V36A.1.1,0,0,0,31.4,35.9ZM31.2,46l-8.6-4.9V31.2l8.6,4.9Z"/>
        </g>
      </g>
      <g id="그룹_65" data-name="그룹 65">
        <path id="패스_90" data-name="패스 90" class="cls-3" d="M.3,43.5l8.9,5.2,9-5.2-9-5.1Z"/>
        <path id="패스_91" data-name="패스 91" class="cls-4" d="M18.3,43.4,9.4,38.3H9.2L.3,43.4c-.1,0-.1.1-.1.2s0,.1.1.2l8.9,5.1h.2l8.9-5.1c.1,0,.1-.1.1-.2A.349.349,0,0,0,18.3,43.4Zm-9.1,5L.6,43.5l8.6-4.9,8.6,4.9Z"/>
      </g>
      <g id="그룹_66" data-name="그룹 66">
        <line id="선_13" data-name="선 13" class="cls-1" y1="10.2" transform="translate(9.2 48.7)"/>
        <path id="패스_92" data-name="패스 92" class="cls-4" d="M9.2,48.5a.215.215,0,0,0-.2.2V59a.2.2,0,1,0,.4,0V48.7A.215.215,0,0,0,9.2,48.5Z"/>
      </g>
      <path id="패스_93" data-name="패스 93" class="cls-4" d="M48.8,25.7l-8.7,5c-.1,0-.1.1-.1.2s.1.1.2.1h.1L49,26a.367.367,0,0,0,.1-.3C49,25.7,48.8,25.6,48.8,25.7Z"/>
      <g id="그룹_69" data-name="그룹 69">
        <g id="그룹_67" data-name="그룹 67">
          <path id="패스_94" data-name="패스 94" class="cls-1" d="M44.3,18.1V28.4l9,5.2,8.9-5.2V18.1L53.3,13Z"/>
          <path id="패스_95" data-name="패스 95" class="cls-2" d="M62.3,18l-8.9-5.1h-.2l-9,5.1c-.1,0-.1.1-.1.2V28.5c0,.1,0,.1.1.2l8.9,5.1h.2l8.9-5.1c.1,0,.1-.1.1-.2V18.1C62.4,18.1,62.3,18,62.3,18ZM62,28.3l-8.7,5-8.7-5V18.2l8.7-5,8.7,5Z"/>
        </g>
        <g id="그룹_68" data-name="그룹 68">
          <path id="패스_96" data-name="패스 96" class="cls-3" d="M44.3,18.1l9,5.2,8.9-5.2L53.3,13Z"/>
          <path id="패스_97" data-name="패스 97" class="cls-4" d="M62.3,18l-8.9-5.1h-.2l-9,5.1c-.1,0-.1.1-.1.2s0,.1.1.2l8.9,5.1h.2l8.9-5.1c.1,0,.1-.1.1-.2A.139.139,0,0,0,62.3,18Zm-9,5.1-8.6-4.9,8.6-4.9,8.6,4.9Z"/>
        </g>
      </g>
      <g id="그룹_72" data-name="그룹 72">
        <g id="그룹_70" data-name="그룹 70">
          <path id="패스_98" data-name="패스 98" class="cls-1" d="M44.3,43.5V53.8l9,5.1,8.9-5.1V43.5l-8.9-5.1Z"/>
          <path id="패스_99" data-name="패스 99" class="cls-2" d="M62.3,43.4l-8.9-5.1h-.2l-8.9,5.1c-.1,0-.1.1-.1.2V53.9c0,.1,0,.1.1.2l8.9,5.1h.2l8.9-5.1c.1,0,.1-.1.1-.2V43.5A.1.1,0,0,0,62.3,43.4ZM62,53.7l-8.7,5-8.7-5V43.6l8.7-5,8.7,5Z"/>
        </g>
        <g id="그룹_71" data-name="그룹 71">
          <path id="패스_100" data-name="패스 100" class="cls-3" d="M44.3,43.5l9,5.2,8.9-5.2-8.9-5.1Z"/>
          <path id="패스_101" data-name="패스 101" class="cls-4" d="M62.3,43.4l-8.9-5.1h-.2l-8.9,5.1c-.1,0-.1.1-.1.2s0,.1.1.2l8.9,5.1h.2l8.9-5.1c.1,0,.1-.1.1-.2A.349.349,0,0,0,62.3,43.4Zm-9,5-8.6-4.9,8.6-4.9,8.6,4.9Z"/>
        </g>
      </g>
      <g id="그룹_75" data-name="그룹 75">
        <g id="그룹_73" data-name="그룹 73">
          <path id="패스_102" data-name="패스 102" class="cls-5" d="M44.3,53.8l9,5.1V48.7l-9-5.2Z"/>
          <path id="패스_103" data-name="패스 103" class="cls-4" d="M53.4,48.5l-8.9-5.1h-.2c-.1,0-.1.1-.1.2V53.9c0,.1,0,.1.1.2l8.9,5.1h.2c.1,0,.1-.1.1-.2V48.7A.31.31,0,0,1,53.4,48.5Zm-.3,10.1-8.6-4.9V43.8l8.6,4.9Z"/>
        </g>
        <g id="그룹_74" data-name="그룹 74">
          <path id="패스_104" data-name="패스 104" class="cls-5" d="M44.3,28.4l9,5.2V23.3l-9-5.2Z"/>
          <path id="패스_105" data-name="패스 105" class="cls-4" d="M53.4,23.1l-9-5.1h-.2c-.1,0-.1.1-.1.2V28.5c0,.1,0,.1.1.2l8.9,5.1h.2c.1,0,.1-.1.1-.2V23.3C53.4,23.2,53.4,23.2,53.4,23.1Zm-.3,10.2-8.6-4.9V18.5l8.6,4.9Z"/>
        </g>
      </g>
      <g id="그룹_77" data-name="그룹 77">
        <g id="그룹_76" data-name="그룹 76">
          <path id="패스_106" data-name="패스 106" class="cls-5" d="M22.3,15.7l9,5.2V10.6l-9-5.1Z"/>
          <path id="패스_107" data-name="패스 107" class="cls-4" d="M31.3,10.4,22.4,5.3h-.2c-.1,0-.1.1-.1.2V15.8c0,.1,0,.1.1.2l8.9,5.1h.2c.1,0,.1-.1.1-.2V10.6C31.4,10.5,31.4,10.5,31.3,10.4Zm-.2,10.2-8.6-4.9V5.8l8.6,4.9Z"/>
        </g>
      </g>
      <g id="그룹_88" data-name="그룹 88">
        <g id="그룹_78" data-name="그룹 78">
          <path id="패스_108" data-name="패스 108" class="cls-4" d="M44.4,43.4l-8.7-5c-.1-.1-.2,0-.3.1s0,.2.1.3l8.7,5h.1c.1,0,.1,0,.2-.1C44.5,43.5,44.5,43.4,44.4,43.4Z"/>
        </g>
        <g id="그룹_86" data-name="그룹 86">
          <path id="패스_109" data-name="패스 109" class="cls-4" d="M31.3,46h0a.215.215,0,0,0-.2.2V56a.215.215,0,0,0,.2.2h0a.215.215,0,0,0,.2-.2l.1-9.8C31.5,46.1,31.5,46,31.3,46Z"/>
          <g id="그룹_85" data-name="그룹 85">
            <path id="패스_110" data-name="패스 110" class="cls-4" d="M22.5,56.1,13.8,51c-.1-.1-.2,0-.3.1s0,.2.1.3l8.7,5.1h.1c.1,0,.1,0,.2-.1C22.6,56.3,22.6,56.1,22.5,56.1Z"/>
            <g id="그룹_84" data-name="그룹 84">
              <g id="그룹_79" data-name="그룹 79">
                <path id="패스_111" data-name="패스 111" class="cls-4" d="M26.7,38.4l-8.7,5v.2c0,.1.1.1.2.1h.1l8.7-5a.367.367,0,0,0,.1-.3C26.9,38.3,26.8,38.3,26.7,38.4Z"/>
              </g>
              <g id="그룹_83" data-name="그룹 83">
                <g id="그룹_80" data-name="그룹 80">
                  <path id="패스_112" data-name="패스 112" class="cls-4" d="M31.3,20.8a.215.215,0,0,0-.2.2L31,30.8a.215.215,0,0,0,.2.2h0a.215.215,0,0,0,.2-.2l.1-9.8C31.5,20.8,31.5,20.8,31.3,20.8Z"/>
                </g>
                <g id="그룹_82" data-name="그룹 82">
                  <g id="그룹_81" data-name="그룹 81">
                    <path id="패스_113" data-name="패스 113" class="cls-4" d="M22.4,30.7l-8.7-5c-.1-.1-.2,0-.3.1s0,.2.1.3l8.7,5h.1c.1,0,.1,0,.2-.1C22.5,30.8,22.5,30.7,22.4,30.7Z"/>
                    <path id="패스_114" data-name="패스 114" class="cls-4" d="M9.2,33.4h0a.215.215,0,0,0-.2.2l.1,9.8a.215.215,0,0,0,.2.2h0a.215.215,0,0,0,.2-.2l-.1-9.8A.215.215,0,0,0,9.2,33.4Z"/>
                  </g>
                  <path id="패스_115" data-name="패스 115" class="cls-4" d="M26.8,13.1l-8.7,5a.367.367,0,0,0-.1.3c0,.1.1.1.2.1h.1l8.7-5a.367.367,0,0,0,.1-.3C27,13,26.9,13,26.8,13.1Z"/>
                </g>
              </g>
            </g>
          </g>
        </g>
        <g id="그룹_87" data-name="그룹 87">
          <path id="패스_116" data-name="패스 116" class="cls-4" d="M53.3,33.4a.215.215,0,0,0-.2.2L53,43.3a.215.215,0,0,0,.2.2h0a.215.215,0,0,0,.2-.2l.1-9.8C53.4,33.5,53.4,33.4,53.3,33.4Z"/>
          <path id="패스_117" data-name="패스 117" class="cls-4" d="M48.7,51l-8.6,5a.367.367,0,0,0-.1.3c0,.1.1.1.2.1h.1l8.6-5.1A.367.367,0,0,0,49,51C48.9,51,48.7,50.9,48.7,51Z"/>
          <path id="패스_118" data-name="패스 118" class="cls-4" d="M44.4,18.1l-8.7-5c-.1-.1-.2,0-.3.1s0,.2.1.3l8.7,5h.1c.1,0,.1,0,.2-.1C44.5,18.2,44.5,18.1,44.4,18.1Z"/>
        </g>
      </g>
      <path id="패스_119" data-name="패스 119" class="cls-4" d="M18.3,17.9,9.4,12.8a.187.187,0,0,0-.3,0L.2,17.9a.215.215,0,0,0-.2.2V28.4c0,.1.1.2.2.3l8.9,5.1h.4l8.9-5.1c.1-.1.2-.2.2-.3V18.1C18.5,18,18.4,17.9,18.3,17.9Zm-.4,10.4-8.6,5-8.6-5V18.4l8.6-5,8.6,5Z"/>
      <path id="패스_120" data-name="패스 120" class="cls-4" d="M18.3,43.2,9.4,38.1a.188.188,0,0,0-.3,0L.2,43.2c-.1.1-.2.2-.2.3V53.8c0,.1.1.2.2.3l8.9,5.1h.4l8.9-5.1c.1-.1.2-.2.2-.3V43.5Zm-.4,10.4-8.6,5-8.6-5V43.7l8.6-5,8.6,5Z"/>
      <path id="패스_121" data-name="패스 121" class="cls-4" d="M62.3,17.9l-8.9-5.1a.187.187,0,0,0-.3,0l-8.9,5.1a.215.215,0,0,0-.2.2V28.4c0,.1.1.2.2.3l8.9,5.1h.4l8.9-5.1c.1-.1.2-.2.2-.3V18.1C62.5,18,62.4,17.9,62.3,17.9Zm-.4,10.4-8.6,5-8.6-5V18.4l8.6-5,8.6,5Z"/>
      <path id="패스_122" data-name="패스 122" class="cls-4" d="M62.3,43.2l-8.9-5.1a.188.188,0,0,0-.3,0l-8.9,5.1c-.1.1-.2.2-.2.3V53.8c0,.1.1.2.2.3l8.9,5.1h.4l8.9-5.1c.1-.1.2-.2.2-.3V43.5Zm-.4,10.4-8.6,5-8.6-5V43.7l8.6-5,8.6,5Z"/>
      <path id="패스_123" data-name="패스 123" class="cls-4" d="M40.3,5.2,31.4,0h-.3L22.2,5.1a.52.52,0,0,0-.2.4V15.8c0,.1.1.2.2.3l8.9,5.1h.4l8.9-5.1c.1-.1.2-.2.2-.3V5.5Q40.45,5.2,40.3,5.2Zm-.4,10.4-8.6,5-8.6-5V5.6l8.6-5,8.6,5Z"/>
      <path id="패스_124" data-name="패스 124" class="cls-4" d="M40.3,30.6l-8.9-5.1a.187.187,0,0,0-.3,0l-8.9,5.1c-.1.1-.2.2-.2.3V41.2c0,.1.1.2.2.3l8.9,5.1h.4l8.9-5.1c.1-.1.2-.2.2-.3V30.8C40.5,30.7,40.4,30.6,40.3,30.6Zm-.4,10.3-8.6,5-8.6-5V31l8.6-5,8.6,5Z"/>
      <path id="패스_125" data-name="패스 125" class="cls-4" d="M40.4,56l-8.9-5.1a.188.188,0,0,0-.3,0L22.3,56c-.1.1-.2.2-.2.3V66.6c0,.1.1.2.2.3L31.2,72h.4l8.9-5.1c.1-.1.2-.2.2-.3V56.3Q40.55,56,40.4,56ZM40,66.4l-8.6,5-8.6-5V56.5l8.6-5,8.6,5Z"/>
    </g>
  </g>
</svg>
