<svg xmlns="http://www.w3.org/2000/svg" width="242.138" height="161.491" viewBox="0 0 242.138 161.491"><g transform="translate(-438.075 -756.982)"><path d="M515.521,793.04H493.51v14.1h14.565l3.74,3.74v-3.74h3.706Z" fill="#c3e8fa" stroke="#414042" stroke-miterlimit="10" stroke-width="1.5"/><path d="M481.225,780.845h27.426v19.478H491.513l-5.166,5.166v-5.166h-5.122Z" fill="#fff" stroke="#414042" stroke-miterlimit="10" stroke-width="1.5"/><line x1="17.49" transform="translate(486.194 787.07)" fill="#bae5f8" stroke="#414042" stroke-width="1.5"/><line x1="17.49" transform="translate(486.194 790.893)" fill="#bae5f8" stroke="#414042" stroke-width="1.5"/><line x1="17.49" transform="translate(486.194 794.716)" fill="#bae5f8" stroke="#414042" stroke-width="1.5"/><line x2="9.491" transform="translate(645.341 761.148)" fill="none" stroke="#414042" stroke-width="1.5"/><line x2="3.164" transform="translate(640.37 761.148)" fill="none" stroke="#414042" stroke-width="1.5"/><path d="M635.318,761.148l-2.483,1.433-2.483,1.434v-5.734l2.483,1.433Z" fill="none" stroke="#414042" stroke-width="1.5"/><line x2="0.858" transform="translate(657.624 770.493)" fill="none" stroke="#414042" stroke-miterlimit="10" stroke-width="1.5"/><line x2="9.55" transform="translate(660.218 770.493)" fill="none" stroke="#414042" stroke-miterlimit="10" stroke-width="1.5" stroke-dasharray="1.736 1.736"/><line x2="0.858" transform="translate(670.636 770.493)" fill="none" stroke="#414042" stroke-miterlimit="10" stroke-width="1.5"/><line x1="10.315" transform="translate(664.494 779.031)" fill="none" stroke="#414042" stroke-width="1.5"/><line x1="3.439" transform="translate(676.774 779.031)" fill="none" stroke="#414042" stroke-width="1.5"/><path d="M617.681,778.817l4.8,4.805-4.8,4.8" fill="none" stroke="#414042" stroke-width="1.5"/><line x2="22.872" transform="translate(598.719 783.655)" fill="none" stroke="#414042" stroke-width="1.5"/><path d="M603.52,800.435l-4.8-4.8,4.8-4.805" fill="none" stroke="#414042" stroke-width="1.5"/><line x1="22.872" transform="translate(599.609 795.598)" fill="none" stroke="#414042" stroke-width="1.5"/><path d="M635.085,802.625a7.514,7.514,0,0,1-1.6-14.855,11.766,11.766,0,0,1,23.239-1.867,8.094,8.094,0,0,1,1.322-.109,8.3,8.3,0,0,1,8.291,8.292c0,.046,0,.093,0,.14a4.261,4.261,0,0,1-.634,8.382l0,.017Z" fill="#e5e8ec" stroke="#414042" stroke-miterlimit="10" stroke-width="1.5"/><path d="M662.967,788.524a7.377,7.377,0,0,0-6.932-1.591,11.134,11.134,0,0,1,.1,1.493,10.952,10.952,0,0,1-.258,2.356,8.575,8.575,0,0,1,4,7.1,7.429,7.429,0,0,0,3.086-9.362Z" fill="#fff"/><path d="M642.137,795.526a9.145,9.145,0,1,0-7.814-7.1v.074a6.641,6.641,0,0,0-5.229,9.5,5.1,5.1,0,0,0,7.15-4.2A10.852,10.852,0,0,0,642.137,795.526Z" fill="#fff"/><rect width="112.205" height="86.005" transform="translate(553.772 816.482)" fill="#fff" stroke="#414042" stroke-miterlimit="10" stroke-width="1.5"/><rect width="56.672" height="38.847" transform="translate(561.842 834.804)" fill="#ffc400"/><rect width="112.205" height="10.822" transform="translate(553.772 816.482)" fill="#cdd5d7" stroke="#414042" stroke-miterlimit="10" stroke-width="1.5"/><line x2="3.521" transform="translate(557.759 821.797)" fill="none" stroke="#484f59" stroke-miterlimit="10" stroke-width="1.5"/><line x2="3.521" transform="translate(563.854 821.797)" fill="none" stroke="#484f59" stroke-miterlimit="10" stroke-width="1.5"/><line x2="3.522" transform="translate(569.948 821.797)" fill="none" stroke="#484f59" stroke-miterlimit="10" stroke-width="1.5"/><line x2="12.134" transform="translate(647.008 835.567)" fill="#fff" stroke="#414042" stroke-miterlimit="10" stroke-width="1.5"/><rect width="15.82" height="15.82" transform="translate(626.059 834.824)" fill="#ffc400"/><line x2="12.134" transform="translate(647.008 842.679)" fill="#fff" stroke="#414042" stroke-miterlimit="10" stroke-width="1.5"/><line x2="12.134" transform="translate(647.008 849.792)" fill="#fff" stroke="#414042" stroke-miterlimit="10" stroke-width="1.5"/><rect width="15.82" height="15.819" transform="translate(626.059 857.629)" fill="#ffc400"/><line x2="12.134" transform="translate(647.008 858.371)" fill="#fff" stroke="#414042" stroke-miterlimit="10" stroke-width="1.5"/><line x2="12.134" transform="translate(647.008 865.483)" fill="#fff" stroke="#414042" stroke-miterlimit="10" stroke-width="1.5"/><line x2="12.134" transform="translate(647.008 872.594)" fill="#fff" stroke="#414042" stroke-miterlimit="10" stroke-width="1.5"/><rect width="15.82" height="15.817" transform="translate(626.059 879.642)" fill="#ffc400"/><line x2="12.134" transform="translate(647.008 880.384)" fill="#fff" stroke="#414042" stroke-miterlimit="10" stroke-width="1.5"/><line x2="12.134" transform="translate(647.008 887.496)" fill="#fff" stroke="#414042" stroke-miterlimit="10" stroke-width="1.5"/><line x2="12.134" transform="translate(647.008 894.609)" fill="#fff" stroke="#414042" stroke-miterlimit="10" stroke-width="1.5"/><line x2="34.174" transform="translate(560.797 880.384)" fill="#fff" stroke="#414042" stroke-miterlimit="10" stroke-width="1.5"/><line x2="58.666" transform="translate(560.797 887.496)" fill="#fff" stroke="#414042" stroke-miterlimit="10" stroke-width="1.5"/><line x2="50.882" transform="translate(560.797 894.609)" fill="#fff" stroke="#414042" stroke-miterlimit="10" stroke-width="1.5"/><line x2="9.777" transform="translate(580.685 766.132)" fill="none" stroke="#414042" stroke-miterlimit="10" stroke-width="1.5"/><line x1="2.257" transform="translate(576.847 766.132)" fill="none" stroke="#414042" stroke-miterlimit="10" stroke-width="1.5"/><line x2="12.117" transform="translate(580.685 769.636)" fill="none" stroke="#414042" stroke-miterlimit="10" stroke-width="1.5"/><line x2="12.117" transform="translate(580.685 773.14)" fill="none" stroke="#414042" stroke-miterlimit="10" stroke-width="1.5"/><path d="M544.641,789.7c2.205,0,2.205,3.43,4.409,3.43s2.205-3.43,4.409-3.43,2.206,3.43,4.411,3.43,2.205-3.43,4.411-3.43,2.206,3.43,4.41,3.43,2.207-3.43,4.414-3.43,2.207,3.43,4.414,3.43" fill="none" stroke="#414042" stroke-miterlimit="10" stroke-width="1.5"/><line x1="2.015" transform="translate(500.265 771.128)" fill="none" stroke="#414042" stroke-miterlimit="10" stroke-width="1.5"/><line x1="2.016" transform="translate(506.199 771.128)" fill="none" stroke="#414042" stroke-miterlimit="10" stroke-width="1.5"/><line x1="2.015" transform="translate(512.136 771.128)" fill="none" stroke="#414042" stroke-miterlimit="10" stroke-width="1.5"/><line y2="6.671" transform="translate(521.824 767.792)" fill="none" stroke="#414042" stroke-width="1.5"/><line x1="6.671" transform="translate(518.488 771.128)" fill="none" stroke="#414042" stroke-width="1.5"/><path d="M526.965,821.742h0l-1.544,0h0l.011-5.076h0l1.544,0h0Z" fill="#f1fafc" stroke="#484f59" stroke-linecap="round" stroke-linejoin="round" stroke-width="1.5"/><path d="M526.935,835.064h0l-1.544,0h0l.019-8.564h0l1.545,0h0Z" fill="#f1fafc" stroke="#484f59" stroke-linecap="round" stroke-linejoin="round" stroke-width="1.5"/><path d="M526.912,845.214h0l-1.544,0h0l.019-8.168h0l1.544,0h0Z" fill="#f1fafc" stroke="#484f59" stroke-linecap="round" stroke-linejoin="round" stroke-width="1.5"/><path d="M581.95,909.493a8.271,8.271,0,0,1-8.265,8.23l-39.652-.091a8.27,8.27,0,0,1-8.226-8.264l.224-99.5a8.271,8.271,0,0,1,8.265-8.228l39.652.091A8.269,8.269,0,0,1,582.176,810Z" fill="#fff" stroke="#414042" stroke-linecap="round" stroke-width="1.5"/><rect width="87.072" height="48.852" stroke-width="1.5" fill="#88d8fb" stroke="#414042" stroke-linecap="round" transform="translate(529.466 903.348) rotate(-89.87)"/><path d="M546.307,809.068a1.111,1.111,0,1,1-1.109-1.113A1.11,1.11,0,0,1,546.307,809.068Z" fill="#f1fafc" stroke="#414042" stroke-linecap="round" stroke-linejoin="round" stroke-width="1.5"/><path d="M558.413,809.2" fill="#f1fafc" stroke="#414042" stroke-linecap="round" stroke-linejoin="round" stroke-width="1.5"/><line x2="11.489" transform="translate(548.837 809.065)" fill="none" stroke="#414042" stroke-width="1.5"/><path d="M558.316,910.6a.949.949,0,0,1-.953.95l-6.978-.014a.954.954,0,0,1-.951-.956l0-1.9a.953.953,0,0,1,.955-.948l6.978.016a.95.95,0,0,1,.949.953Z" fill="#f1fafc" stroke="#414042" stroke-linecap="round" stroke-linejoin="round" stroke-width="1.5"/><path d="M576.446,837.145l19.435,10.921-19.4,11.388-19.433-10.919Z" fill="#f5f6f8"/><path d="M576.446,837.145l19.435,10.921-19.4,11.388-19.433-10.919Z" fill="#fff"/><path d="M576.446,837.145l19.435,10.921-19.4,11.388-19.433-10.919Z" fill="none" stroke="#414042" stroke-linejoin="round" stroke-width="1.5"/><path d="M595.881,848.066l.389,22.476-19.4,11.392-.388-22.48Z" fill="#b7bec0"/><path d="M595.777,847.964l.389,22.475-19.4,11.392-.388-22.48Z" fill="#ffdc69"/><path d="M595.881,848.066l.389,22.476-19.4,11.392-.388-22.48Z" fill="none" stroke="#414042" stroke-linecap="round" stroke-linejoin="round" stroke-width="1.5"/><path d="M576.6,859.454l.389,22.48-19.555-10.919-.389-22.479Z" fill="#c6c6c6"/><path d="M576.6,859.454l.389,22.48-19.555-10.919-.389-22.479Z" fill="#ffc400"/><path d="M576.6,859.454l.389,22.48-19.555-10.919-.389-22.479Z" fill="none" stroke="#414042" stroke-linejoin="round" stroke-width="1.5"/><path d="M599.979,875.452a8.241,8.241,0,1,1-8.3-8.179A8.243,8.243,0,0,1,599.979,875.452Z" fill="#47b8eb" stroke="#414042" stroke-miterlimit="10" stroke-width="1.5"/><path d="M540,840.9a24.712,24.712,0,0,0-18.427-9.3c-.456-.02-.915-.035-1.379-.037h-.005a24.439,24.439,0,0,0-7.928,1.257c-.072.024-.141.052-.213.074.071-.022.138-.048.209-.072l2.446,7.529a17.677,17.677,0,0,1,5.486-.871h0a17.725,17.725,0,0,1,14.361,7.322l6.408-4.657C540.645,841.714,540.325,841.3,540,840.9Z" fill="#f7f8fc" stroke="#414042" stroke-linecap="round" stroke-linejoin="bevel" stroke-width="1.5"/><path d="M494.72,860.425c-.017-.147-.04-.294-.055-.442C494.68,860.13,494.7,860.278,494.72,860.425Z" fill="#b7bec0"/><path d="M494.856,861.392c0-.017-.007-.033-.011-.05C494.849,861.359,494.853,861.375,494.856,861.392Z" fill="#b7bec0"/><path d="M520.191,831.557h0Z" fill="#b7bec0"/><path d="M494.615,859.427c-.022-.267-.046-.532-.06-.8C494.569,858.893,494.593,859.16,494.615,859.427Z" fill="#b7bec0"/><path d="M494.522,856.911c0-.244,0-.487.014-.73C494.526,856.424,494.524,856.669,494.522,856.911Z" fill="#b7bec0"/><path d="M494.542,858.321c-.014-.341-.024-.684-.024-1.028C494.518,857.636,494.528,857.979,494.542,858.321Z" fill="#b7bec0"/><path d="M510.842,833.324l.265-.1Z" fill="#b7bec0"/><path d="M497.052,868.373A25.1,25.1,0,0,0,517.5,882.764,25.693,25.693,0,0,1,497.052,868.373Z" fill="#f0ca67"/><path d="M497.042,868.353c-.113-.24-.22-.483-.328-.724C496.821,867.87,496.93,868.113,497.042,868.353Z" fill="#f0ca67"/><path d="M545.739,859.732l-.012.142C545.731,859.827,545.734,859.78,545.739,859.732Z" fill="#f0ca67"/><path d="M521.57,831.594c-.456-.023-.915-.037-1.379-.037h0C520.655,831.559,521.114,831.574,521.57,831.594Z" fill="#f0ca67"/><path d="M534.548,846.8a17.66,17.66,0,0,1,3.394,10.433h7.917v0h0c0,.463-.014.923-.038,1.38,0,.018,0,.038,0,.058q.042-.716.043-1.443a25.551,25.551,0,0,0-4.713-14.83c-.366-.515-.5-.684-.192-.259Z" fill="#cdd5d7" stroke="#414042" stroke-linecap="round" stroke-linejoin="bevel" stroke-width="1.5"/><path d="M535.281,877.993c.4-.293.8-.594,1.182-.908C536.08,877.4,535.687,877.7,535.281,877.993Z" fill="#484f59"/><path d="M545.859,857.233c0,.464-.017.923-.038,1.38.024-.457.038-.917.038-1.38Z" fill="#484f59"/><path d="M530.622,871.592A17.754,17.754,0,1,1,514.7,840.345l-2.446-7.529c-.071.024-.138.05-.209.072q-.474.159-.938.331l-.265.1a25.193,25.193,0,0,0-16.306,22.857c-.01.243-.012.486-.014.73,0,.108-.007.214-.007.322,0,.02,0,.039,0,.06,0,.344.01.687.024,1.028.006.1.006.205.013.307.014.267.038.532.06.8.016.185.028.371.05.556.015.148.038.3.055.442.039.307.077.613.125.917,0,.017.008.033.011.05a25.5,25.5,0,0,0,1.858,6.237c.108.241.215.484.328.724a.092.092,0,0,1,.01.02A25.693,25.693,0,0,0,517.5,882.764c.052.005.1.008.154.014.3.03.608.052.913.072.157.007.311.018.468.025.2.009.41.011.618.015.178,0,.355.014.534.014A25.554,25.554,0,0,0,535.275,878Z" fill="#ffc400" stroke="#414042" stroke-linecap="round" stroke-linejoin="bevel" stroke-width="1.5"/><path d="M536.463,877.085a24.64,24.64,0,0,0,9.264-17.211l.012-.142c.031-.351.062-.7.079-1.061,0-.02,0-.04,0-.058.021-.457.038-.916.038-1.38v0h-7.917v0a17.73,17.73,0,0,1-7.32,14.361L535.275,878h0l.006-.005C535.687,877.7,536.08,877.4,536.463,877.085Z" fill="#88d8fb" stroke="#414042" stroke-linecap="round" stroke-linejoin="bevel" stroke-width="1.5"/><path d="M535.218,832.377l2.728-6.22h3.911" fill="none" stroke="#414042" stroke-miterlimit="10" stroke-width="1.5"/><line x2="3.912" transform="translate(543.536 826.157)" fill="none" stroke="#414042" stroke-miterlimit="10" stroke-width="1.5"/><path d="M546.166,845.189l2.728-6.221H552.8" fill="none" stroke="#414042" stroke-miterlimit="10" stroke-width="1.5"/><line x2="3.912" transform="translate(554.483 838.968)" fill="none" stroke="#414042" stroke-miterlimit="10" stroke-width="1.5"/><path d="M542.159,875.829l2.727,6.221H548.8" fill="none" stroke="#414042" stroke-miterlimit="10" stroke-width="1.5"/><line x2="3.911" transform="translate(550.476 882.05)" fill="none" stroke="#414042" stroke-miterlimit="10" stroke-width="1.5"/><path d="M503.839,881.255l-2.728,6.22H497.2" fill="none" stroke="#414042" stroke-miterlimit="10" stroke-width="1.5"/><line x1="3.912" transform="translate(491.609 887.476)" fill="none" stroke="#414042" stroke-miterlimit="10" stroke-width="1.5"/><line x1="5.045" y2="5.045" transform="translate(438.605 876.979)" fill="none" stroke="#414042" stroke-width="1.5"/><line x1="5.047" y1="5.048" transform="translate(438.605 876.977)" fill="none" stroke="#414042" stroke-width="1.5"/><line x1="5.045" y2="5.045" transform="translate(465.822 830.833)" fill="none" stroke="#414042" stroke-width="1.5"/><line x1="5.047" y1="5.047" transform="translate(465.822 830.832)" fill="none" stroke="#414042" stroke-width="1.5"/><path d="M450.464,863.2H449.1a4.383,4.383,0,0,1-4.377-4.379V848.51a4.383,4.383,0,0,1,4.377-4.379h1.363a4.384,4.384,0,0,1,4.377,4.379v10.31A4.384,4.384,0,0,1,450.464,863.2Z" fill="none" stroke="#414042" stroke-miterlimit="10" stroke-width="1.5"/><rect width="15.366" height="14.394" transform="translate(442.1 850.455)" fill="#ffc400" stroke="#414042" stroke-miterlimit="10" stroke-width="1.5"/><path d="M449.7,859.718l.079-.871.081.871Zm-.215-3.675a.572.572,0,0,1-.283-.493.577.577,0,1,1,1.155,0,.571.571,0,0,1-.282.493l-.3.176Z" fill="#cdd5d7"/><path d="M449.783,854a1.547,1.547,0,0,0-.794,2.875l-.35,3.813h2.288l-.351-3.813a1.546,1.546,0,0,0-.793-2.875Z" fill="#484f59"/><rect width="58.665" height="14.394" transform="translate(461.715 850.455)" fill="#fff" stroke="#414042" stroke-miterlimit="10" stroke-width="1.5"/><line x2="4.211" transform="translate(466.24 857.388)" fill="none" stroke="#414042" stroke-miterlimit="10" stroke-width="1.5"/><line x2="4.212" transform="translate(472.941 857.388)" fill="none" stroke="#414042" stroke-miterlimit="10" stroke-width="1.5"/><line x2="4.211" transform="translate(479.642 857.388)" fill="none" stroke="#414042" stroke-miterlimit="10" stroke-width="1.5"/><line x2="4.212" transform="translate(486.343 857.388)" fill="none" stroke="#414042" stroke-miterlimit="10" stroke-width="1.5"/><line x2="4.211" transform="translate(493.045 857.388)" fill="none" stroke="#414042" stroke-miterlimit="10" stroke-width="1.5"/><line x2="4.211" transform="translate(499.746 857.388)" fill="none" stroke="#414042" stroke-miterlimit="10" stroke-width="1.5"/><line x2="4.212" transform="translate(506.446 857.388)" fill="none" stroke="#414042" stroke-miterlimit="10" stroke-width="1.5"/><path d="M554.582,763.585a7.775,7.775,0,1,1,5.5,13.3,7.688,7.688,0,0,1-3.467-.867v2.6h-2.6v2.6h-2.6v2.6h-6.067v-6.392l.217-.325,6.825-6.77a11.27,11.27,0,0,1-.109-1.246A7.506,7.506,0,0,1,554.582,763.585Zm9.777,1.219a6.067,6.067,0,0,0-10.346,4.279,9.785,9.785,0,0,0,.163,1.408l.054.434-.325.325-6.825,6.878v3.954h2.6v-2.6h2.6v-2.6h2.6v-2.6h2.058l.217.108a6.053,6.053,0,0,0,7.2-9.587Zm-3.765,1.327a1.7,1.7,0,1,1-.514,1.219A1.665,1.665,0,0,1,560.594,766.131Z" fill="#3d3d3d"/><line y2="6.833" transform="translate(591.738 872.106)" fill="none" stroke="#414042" stroke-linecap="round" stroke-miterlimit="10" stroke-width="1.5"/></g></svg>