<svg xmlns="http://www.w3.org/2000/svg" width="250" height="197.807" viewBox="0 0 250 197.807"><g transform="translate(-21.593 -263.134)"><g transform="translate(110.622 394.052)"><g transform="translate(41.803 0.003)"><g transform="translate(5.5 1.109)"><path d="M118.17,372.584l9.466-10.106c2.271-2.968,7.1.1,4.541,2.9l-7.543,10.47,3.661-.015,8.724-9.318s.834-5.837,1.051-6.656l.208-7.454a2.544,2.544,0,0,1,4.634-2.1l.059,8.406c.3.664.225,10.7.225,10.7l-10.482,21.674H116.784l-.026-15.523A6.294,6.294,0,0,1,118.17,372.584Z" transform="translate(-116.758 -348.811)" fill="#fff"/></g><g transform="translate(4.73)"><path d="M133.468,392.247H116.286l-.028-16.29a7.085,7.085,0,0,1,1.62-3.51l9.466-10.106a3.77,3.77,0,0,1,6.448.857,3,3,0,0,1-.775,3.093l-6.6,9.172,1.817-.008,8.69-9.283c.126-1.345.516-5.414.73-6.441l-.143-7.26c.037-.376.057-.64.076-.892.089-1.187.19-2.529,1.641-3.191a3.323,3.323,0,0,1,4.389,1.65l.069.29.328,8.7c.243,1.307.259,6.486.227,10.781l-.076.33Zm-15.644-1.541H132.5l10.2-21.081c.032-4.6-.026-9.661-.18-10.269l-.063-.137.018-.089-.325-8.577a1.778,1.778,0,0,0-2.285-.761c-.57.26-.653.7-.743,1.9-.02.276-.042.559-.077.855l.153,7.355-.028.1c-.145.55-.529,4.319-.737,6.568l-.025.263-9.5,10.154-5.506.026,8.428-11.7a1.575,1.575,0,0,0,.515-1.615,2.237,2.237,0,0,0-3.819-.37L119,373.5a5.623,5.623,0,0,0-1.21,2.558Z" transform="translate(-116.258 -348.092)" fill="#414042"/></g><g transform="translate(0 44.331)"><rect width="25.006" height="21.784" fill="#47cbd7"/></g><g transform="translate(0 44.331)"><rect width="6.786" height="21.784" fill="#3598a1"/></g></g><g transform="translate(0.774 1.112)"><path d="M111.6,372.584l-9.466-10.106c-2.271-2.968-7.1.1-4.54,2.9l7.543,10.47-3.661-.015-8.725-9.318s-.834-5.837-1.051-6.656l-.208-7.454a2.544,2.544,0,0,0-4.634-2.1l-.059,8.406c-.3.664-.225,10.7-.225,10.7l10.482,21.674h15.931l.026-15.523A6.311,6.311,0,0,0,111.6,372.584Z" transform="translate(-86.565 -348.811)" fill="#fff"/></g><path d="M114.027,392.248H96.843L86.074,369.811c-.032-4.295-.015-9.473.228-10.781l.4-8.992a3.316,3.316,0,0,1,4.389-1.65c1.453.663,1.553,2,1.643,3.191.018.253.037.516.069.786l-.137,7.366c.214,1.026.6,5.1.729,6.441l8.69,9.283,1.817.008-6.659-9.242a2.943,2.943,0,0,1-.72-3.023,3.645,3.645,0,0,1,2.9-2.264,3.7,3.7,0,0,1,3.6,1.466l9.417,10.046a7.1,7.1,0,0,1,1.615,3.41Zm-16.218-1.541h14.68l.025-14.752a5.678,5.678,0,0,0-1.2-2.453v0l-9.466-10.1a2.216,2.216,0,0,0-2.182-.94,2.149,2.149,0,0,0-1.686,1.251,1.5,1.5,0,0,0,.458,1.546l8.483,11.767-5.506-.026-9.5-10.154-.025-.263c-.208-2.248-.59-6.018-.737-6.568l-.028-.1.148-7.463c-.029-.188-.051-.472-.072-.747-.089-1.2-.171-1.641-.743-1.9a1.776,1.776,0,0,0-2.285.76l-.391,8.869c-.133.547-.19,5.6-.159,10.206Z" transform="translate(-86.062 -348.09)" fill="#414042"/><g transform="translate(7.715 44.334)"><rect width="25.006" height="21.784" fill="#47cbd7"/></g><g transform="translate(25.935 44.334)"><rect width="6.786" height="21.784" fill="#3598a1"/></g></g><g transform="translate(46.593 459.4)"><rect width="250" height="1.541" transform="translate(-25)" fill="#414042"/></g><g transform="translate(119.885 296.963)"><g transform="translate(0.783 0.773)"><path d="M149.116,313.254s-2.255-3.817-5.771-3.817a9.318,9.318,0,0,0-7.232,3.4c-1.211,1.342-3.96-2.395-7.442-3.745-2.271-.883-4.552,4.158-7.22,4.158-2.429,0-4.594-4.141-6.834-4.141-2.883,0-5.033,3.4-7.5,3.393-2.578,0-5.454-3.41-7.331-3.41-3.722,0-7.21,4.6-7.21,4.6,0-15.276,13.595-28.111,28.871-28.111A27.669,27.669,0,0,1,149.116,313.254Z" transform="translate(-92.581 -285.588)" fill="#e7643e"/></g><g transform="translate(15.097 0.772)"><path d="M144.091,313.254s-2.255-3.817-5.771-3.817c-2.449,0-4.327.932-7.232,3.4-1.378,1.171-3.06-3.352-7.442-3.745-2.427-.217-4.552,4.158-7.22,4.158-2.429,0-4.594-4.141-6.834-4.141-2.883,0-5.081,3.894-7.5,3.393-1.388-.284,3.628-27.062,14.33-26.918A27.8,27.8,0,0,1,144.091,313.254Z" transform="translate(-101.87 -285.588)" fill="#fff"/></g><g transform="translate(29.654 0.773)"><path d="M138.98,313.254s-2.255-3.817-5.771-3.817c-2.449,0-3.925.684-7.287,2.452-1.6.843-3.9-1.442-7.386-2.792-2.271-.883-4.552,4.158-7.22,4.158V285.588A27.8,27.8,0,0,1,138.98,313.254Z" transform="translate(-111.316 -285.588)" fill="#e7643e"/></g><g transform="translate(29.654 0.773)"><path d="M140.168,313.254s-6.8-9.3-13.373-.595c-1.368,1.814-1.133-8.34-7.9-20.435-1.754-3.136-7.58-6.636-7.58-6.636C126.592,285.8,140.168,297.978,140.168,313.254Z" transform="translate(-111.316 -285.588)" fill="#fff"/></g><g transform="translate(0 0.002)"><path d="M136.168,317.36a.77.77,0,0,1-.771-.771,6.451,6.451,0,1,0-12.9,0,.771.771,0,0,1-1.541,0,6.449,6.449,0,1,0-12.9,0,.771.771,0,1,1-1.541,0,6.451,6.451,0,0,0-12.889-.4v.015a.965.965,0,0,1-.006.1c0,.094-.006.188-.006.284a.771.771,0,0,1-1.541,0c0-.149,0-.3.012-.442.032-16.843,13.593-31.059,29.64-31.059a29.687,29.687,0,0,1,29.652,29.654.777.777,0,0,1-.08.344,7.966,7.966,0,0,1,.052.928.771.771,0,0,1-1.541,0c0-3.4-2.7-5.876-6.421-5.876a6.457,6.457,0,0,0-6.449,6.452A.771.771,0,0,1,136.168,317.36ZM114.5,308.6a8,8,0,0,1,7.221,4.571,7.99,7.99,0,0,1,14.442,0,8,8,0,0,1,7.22-4.569,8.1,8.1,0,0,1,6.23,2.634,28.154,28.154,0,0,0-27.892-24.6c-13.669,0-25.434,10.909-27.7,24.736a7.986,7.986,0,0,1,13.265,1.8A8,8,0,0,1,114.5,308.6Z" transform="translate(-92.073 -285.088)" fill="#414042"/></g><g transform="translate(28.704 0.033)"><path d="M111.471,315.084a.771.771,0,0,1-.771-.771V285.879a.771.771,0,0,1,1.541,0v28.435A.771.771,0,0,1,111.471,315.084Z" transform="translate(-110.7 -285.108)" fill="#414042"/></g><g transform="translate(14.553)"><path d="M102.288,313.548h-.025a.772.772,0,0,1-.746-.8c.757-23.835,14.162-27.5,14.732-27.641a.77.77,0,0,1,.381,1.493c-.128.032-12.855,3.6-13.573,26.2A.77.77,0,0,1,102.288,313.548Z" transform="translate(-101.517 -285.087)" fill="#414042"/></g><g transform="translate(28.601 0.002)"><path d="M126.032,313.749a.771.771,0,0,1-.771-.771c0-16.275-14.157-26.39-14.3-26.492a.77.77,0,1,1,.883-1.262c.149.1,14.957,10.664,14.957,27.754A.77.77,0,0,1,126.032,313.749Z" transform="translate(-110.633 -285.088)" fill="#414042"/></g><g transform="translate(0 30.732)"><path d="M121.728,347.083a.774.774,0,0,1-.629-.324L92.216,306.248a.77.77,0,1,1,1.254-.894l28.883,40.512a.771.771,0,0,1-.626,1.217Z" transform="translate(-92.073 -305.029)" fill="#414042"/></g><g transform="translate(14.443 30.73)"><path d="M116.656,347.084a.773.773,0,0,1-.726-.512L101.49,306.06a.771.771,0,1,1,1.452-.518l14.441,40.512a.769.769,0,0,1-.467.983A.724.724,0,0,1,116.656,347.084Z" transform="translate(-101.445 -305.028)" fill="#414042"/></g><g transform="translate(28.965 30.353)"><path d="M111.639,347.216a.744.744,0,0,1-.254-.045.767.767,0,0,1-.472-.98L125.257,305.3a.77.77,0,1,1,1.453.509L112.367,346.7A.77.77,0,0,1,111.639,347.216Z" transform="translate(-110.869 -304.783)" fill="#414042"/></g><g transform="translate(29.048 29.752)"><path d="M111.693,347.427a.772.772,0,0,1-.632-1.211l28.882-41.492a.769.769,0,1,1,1.264.878L112.325,347.1A.767.767,0,0,1,111.693,347.427Z" transform="translate(-110.923 -304.393)" fill="#414042"/></g><g transform="translate(28.738 29.425)"><path d="M111.493,347.776h0a.77.77,0,0,1-.767-.774l.163-42.054a.771.771,0,0,1,.771-.767h0a.77.77,0,0,1,.767.774l-.163,42.054A.771.771,0,0,1,111.493,347.776Z" transform="translate(-110.722 -304.181)" fill="#414042"/></g><g transform="translate(7.981 61.762)"><rect width="42.782" height="42.782" fill="#f5ab35"/></g><g transform="translate(42.396 99.282)"><rect width="5.606" height="3.395" fill="#b88028"/></g><text transform="translate(24.782 99.171)" fill="#1b2733" font-size="26" font-family="LineAwesome"><tspan x="0" y="0"></tspan></text><g transform="translate(76.782 -312.829)"><g transform="translate(-64 388.812)"><path d="M-52.376,401.171H-64V391h11.624Zm-10.171-1.453h8.718v-7.265h-8.718Z" transform="translate(64 -391)" fill="#1b2733"/></g><g transform="translate(-62.547 383)"><path d="M-53.282,389.538h-1.453v-4.359a.727.727,0,0,0-.726-.726h-4.359a.727.727,0,0,0-.726.726v4.359H-62v-4.359A2.182,2.182,0,0,1-59.821,383h4.359a2.182,2.182,0,0,1,2.179,2.179Z" transform="translate(62 -383)" fill="#1b2733"/></g><rect width="1.453" height="1.453" transform="translate(-58.915 391.718)" fill="#1b2733"/></g><g transform="translate(-337.905 -208.08)"><path d="M371.249,285.822l-.585,0a1,1,0,0,1-1-1.007l0-.4a4.035,4.035,0,0,1-.537-.224l-.283.281a1,1,0,0,1-.707.292h0a1,1,0,0,1-.711-.3l-.408-.411a1,1,0,0,1,.005-1.419l.283-.282a4.111,4.111,0,0,1-.222-.536l-.4,0a1,1,0,0,1-1-1.01l0-.581a1,1,0,0,1,.3-.71,1.056,1.056,0,0,1,.712-.29l.4,0a3.818,3.818,0,0,1,.225-.536l-.282-.284a1.006,1.006,0,0,1,.008-1.419l.414-.409a.991.991,0,0,1,.705-.292h0a1,1,0,0,1,.714.3l.281.285a3.847,3.847,0,0,1,.517-.212v-.4a1,1,0,0,1,1-1h.582a1.006,1.006,0,0,1,1.005,1v.4a4.156,4.156,0,0,1,.535.221l.283-.282a1,1,0,0,1,1.418,0l.413.415a1,1,0,0,1,0,1.419l-.28.281a4.2,4.2,0,0,1,.223.538l.4,0a1,1,0,0,1,1,1v.583a1.009,1.009,0,0,1-1.005,1h-.4a4.01,4.01,0,0,1-.224.538l.281.284a1,1,0,0,1-.005,1.419l-.408.409a1.015,1.015,0,0,1-1.421,0l-.284-.286a4.084,4.084,0,0,1-.536.221l0,.4A1,1,0,0,1,371.249,285.822Zm-2.272-2.89.337.214a3.109,3.109,0,0,0,.966.4l.39.089-.006,1.179.587,0,.007-1.18.389-.088a3.1,3.1,0,0,0,.967-.4l.338-.212.831.838.416-.413-.827-.841.212-.337a3.073,3.073,0,0,0,.4-.965l.087-.391,1.178,0,0-.586,0,0-1.176-.005-.087-.387a3.078,3.078,0,0,0-.4-.965l-.215-.338.834-.835-.411-.418-.839.834-.338-.215a3.1,3.1,0,0,0-.964-.4l-.388-.089v-1.178l-.587,0,0,1.183-.391.088a3.078,3.078,0,0,0-.951.39l-.339.21-.827-.836-.42.411.829.842-.215.337a3.065,3.065,0,0,0-.4.962l-.09.39-1.177-.005-.006.588,1.177.008.087.387a3.1,3.1,0,0,0,.4.964l.215.339-.838.835.409.416Zm1.995-.3a2.1,2.1,0,1,1,2.1-2.1A2.1,2.1,0,0,1,370.972,282.634Zm0-3.194a1.1,1.1,0,1,0,1.1,1.094A1.1,1.1,0,0,0,370.972,279.44Z" fill="#414042"/></g><g transform="translate(-356.905 -186.08)"><g transform="translate(4)"><path d="M371.249,285.822l-.585,0a1,1,0,0,1-1-1.007l0-.4a4.035,4.035,0,0,1-.537-.224l-.283.281a1,1,0,0,1-.707.292h0a1,1,0,0,1-.711-.3l-.408-.411a1,1,0,0,1,.005-1.419l.283-.282a4.111,4.111,0,0,1-.222-.536l-.4,0a1,1,0,0,1-1-1.01l0-.581a1,1,0,0,1,.3-.71,1.056,1.056,0,0,1,.712-.29l.4,0a3.818,3.818,0,0,1,.225-.536l-.282-.284a1.006,1.006,0,0,1,.008-1.419l.414-.409a.991.991,0,0,1,.705-.292h0a1,1,0,0,1,.714.3l.281.285a3.847,3.847,0,0,1,.517-.212v-.4a1,1,0,0,1,1-1h.582a1.006,1.006,0,0,1,1.005,1v.4a4.156,4.156,0,0,1,.535.221l.283-.282a1,1,0,0,1,1.418,0l.413.415a1,1,0,0,1,0,1.419l-.28.281a4.2,4.2,0,0,1,.223.538l.4,0a1,1,0,0,1,1,1v.583a1.009,1.009,0,0,1-1.005,1h-.4a4.01,4.01,0,0,1-.224.538l.281.284a1,1,0,0,1-.005,1.419l-.408.409a1.015,1.015,0,0,1-1.421,0l-.284-.286a4.084,4.084,0,0,1-.536.221l0,.4A1,1,0,0,1,371.249,285.822Zm-2.272-2.89.337.214a3.109,3.109,0,0,0,.966.4l.39.089-.006,1.179.587,0,.007-1.18.389-.088a3.1,3.1,0,0,0,.967-.4l.338-.212.831.838.416-.413-.827-.841.212-.337a3.073,3.073,0,0,0,.4-.965l.087-.391,1.178,0,0-.586,0,0-1.176-.005-.087-.387a3.078,3.078,0,0,0-.4-.965l-.215-.338.834-.835-.411-.418-.839.834-.338-.215a3.1,3.1,0,0,0-.964-.4l-.388-.089v-1.178l-.587,0,0,1.183-.391.088a3.078,3.078,0,0,0-.951.39l-.339.21-.827-.836-.42.411.829.842-.215.337a3.065,3.065,0,0,0-.4.962l-.09.39-1.177-.005-.006.588,1.177.008.087.387a3.1,3.1,0,0,0,.4.964l.215.339-.838.835.409.416Zm1.995-.3a2.1,2.1,0,1,1,2.1-2.1A2.1,2.1,0,0,1,370.972,282.634Zm0-3.194a1.1,1.1,0,1,0,1.1,1.094A1.1,1.1,0,0,0,370.972,279.44Z" fill="#414042"/></g></g></g><g transform="translate(187.446 280.832)"><g transform="translate(26.371 25.9)"><path d="M158.026,294.385l-5-.42v-2.118l5-.42Z" transform="translate(-153.028 -291.426)" fill="#d1d3d4"/></g><g transform="translate(26.371 5.589)"><path d="M158.026,281.2l-5-.42v-2.119l5-.42Z" transform="translate(-153.028 -278.246)" fill="#d1d3d4"/></g><g transform="translate(20.291 0.771)"><path d="M153.465,290.09l-4.383-14.971H152.3c1.778,0,2.193,1.592,3.219,3.737L159.9,290.09Z" transform="translate(-149.082 -275.119)" fill="#47cbd7"/></g><g transform="translate(20.291 0.771)"><path d="M151.047,275.119h-1.965l4.383,14.971h1.965Z" transform="translate(-149.082 -275.119)" fill="#91e0e7"/></g><g transform="translate(20.291 19.331)"><path d="M153.465,287.163l-4.383,14.969H152.3c1.778,0,2.193-1.592,3.219-3.737l4.383-11.232Z" transform="translate(-149.082 -287.163)" fill="#47cbd7"/></g><g transform="translate(20.291 19.331)"><path d="M155.522,287.163h-2.057l-4.383,14.969h2.056Z" transform="translate(-149.082 -287.163)" fill="#91e0e7"/></g><g transform="translate(2.948 10.951)"><path d="M180.4,287.4l-5.8-3.378H152.132l-10.542,2.068-1.1-2.823c-.424-.886-.6-1.546-1.331-1.546h-1.33l1.768,6.038,0,.111-1.769,6.041h1.33c.735,0,.908-.66,1.331-1.546l1.17-3,10.473,1.5,21.587.505,6.682-3.319A.371.371,0,0,0,180.4,287.4Z" transform="translate(-137.828 -281.725)" fill="#e6e7e8"/></g><g transform="translate(1.079 16.275)"><rect width="6.216" height="1.541" fill="#414042"/></g><g transform="translate(35.504 14.496)"><path d="M161.671,288.383h-2.717a9.949,9.949,0,0,0,0-4.358h2.717A10,10,0,0,1,161.671,288.383Z" transform="translate(-158.954 -284.025)" fill="#414042"/></g><g transform="translate(30.834 19.038)"><path d="M156.993,287.508a.535.535,0,1,1-.535-.535A.534.534,0,0,1,156.993,287.508Z" transform="translate(-155.924 -286.973)" fill="#414042"/></g><g transform="translate(28.336 19.038)"><path d="M155.371,287.508a.534.534,0,1,1-.533-.535A.534.534,0,0,1,155.371,287.508Z" transform="translate(-154.303 -286.973)" fill="#414042"/></g><g transform="translate(25.837 18.797)"><path d="M153.75,287.351a.535.535,0,1,1-.535-.535A.535.535,0,0,1,153.75,287.351Z" transform="translate(-152.681 -286.816)" fill="#414042"/></g><g transform="translate(23.338 18.737)"><circle cx="0.534" cy="0.534" r="0.534" fill="#414042"/></g><g transform="translate(20.838 18.505)"><path d="M150.506,287.16a.535.535,0,1,1-.535-.533A.534.534,0,0,1,150.506,287.16Z" transform="translate(-149.437 -286.627)" fill="#414042"/></g><g transform="translate(18.34 18.276)"><path d="M148.884,287.013a.534.534,0,1,1-.535-.535A.535.535,0,0,1,148.884,287.013Z" transform="translate(-147.816 -286.478)" fill="#414042"/></g><g transform="translate(15.84 17.971)"><path d="M147.262,286.815a.534.534,0,1,1-.533-.535A.533.533,0,0,1,147.262,286.815Z" transform="translate(-146.194 -286.28)" fill="#414042"/></g><g transform="translate(13.341 17.669)"><path d="M145.641,286.617a.535.535,0,1,1-.535-.533A.535.535,0,0,1,145.641,286.617Z" transform="translate(-144.572 -286.084)" fill="#414042"/></g><g transform="translate(30.834 13.717)"><path d="M156.993,284.055a.535.535,0,1,0-.535.535A.534.534,0,0,0,156.993,284.055Z" transform="translate(-155.924 -283.52)" fill="#414042"/></g><g transform="translate(28.336 13.717)"><path d="M155.371,284.055a.534.534,0,1,0-.533.535A.534.534,0,0,0,155.371,284.055Z" transform="translate(-154.303 -283.52)" fill="#414042"/></g><g transform="translate(25.837 13.961)"><path d="M153.75,284.213a.535.535,0,1,0-.535.535A.535.535,0,0,0,153.75,284.213Z" transform="translate(-152.681 -283.678)" fill="#414042"/></g><g transform="translate(23.337 14.021)"><path d="M152.128,284.25a.535.535,0,1,0-.535.535A.534.534,0,0,0,152.128,284.25Z" transform="translate(-151.059 -283.717)" fill="#414042"/></g><g transform="translate(20.838 14.252)"><path d="M150.506,284.4a.535.535,0,1,0-.535.535A.534.534,0,0,0,150.506,284.4Z" transform="translate(-149.437 -283.867)" fill="#414042"/></g><g transform="translate(18.34 14.482)"><path d="M148.884,284.551a.534.534,0,1,0-.535.533A.534.534,0,0,0,148.884,284.551Z" transform="translate(-147.816 -284.016)" fill="#414042"/></g><g transform="translate(15.84 14.787)"><path d="M147.262,284.749a.534.534,0,1,0-.533.535A.534.534,0,0,0,147.262,284.749Z" transform="translate(-146.194 -284.214)" fill="#414042"/></g><g transform="translate(13.341 15.089)"><path d="M145.641,284.945a.535.535,0,1,0-.535.535A.535.535,0,0,0,145.641,284.945Z" transform="translate(-144.572 -284.41)" fill="#414042"/></g><rect width="17.258" height="1.541" fill="#414042"/><g transform="translate(4.597 3.121)"><rect width="13.91" height="1.541" fill="#414042"/></g><g transform="translate(9.719 6.242)"><rect width="9.719" height="1.541" fill="#414042"/></g><g transform="translate(0 33.217)"><rect width="17.258" height="1.541" fill="#414042"/></g><g transform="translate(4.597 30.096)"><rect width="13.91" height="1.541" fill="#414042"/></g><g transform="translate(9.719 26.975)"><rect width="9.719" height="1.541" fill="#414042"/></g></g><g transform="translate(55.062 337.738)"><g transform="translate(0 0.771)"><path d="M110,334.343a3.714,3.714,0,0,0-3.714-3.714,3.652,3.652,0,0,0-1.573.378,5.2,5.2,0,0,0-3.651-2.783,5.891,5.891,0,0,0,.223-1.106,6.133,6.133,0,0,0-10.339-4.511,11.294,11.294,0,0,0-22.167-2.236,7.752,7.752,0,0,0-9.06,5.657,7.034,7.034,0,0,0-9.71,6.559,6.9,6.9,0,0,0,1.1,3.558h58.36A3.612,3.612,0,0,0,110,334.343Z" transform="translate(-50.008 -312.046)" fill="#e6e7e8"/></g><g transform="translate(17.062 24.098)"><rect width="42.927" height="1.541" fill="#414042"/></g><g transform="translate(1.291 24.098)"><rect width="12.734" height="1.541" fill="#414042"/></g><g transform="translate(10.51 8.972)"><path d="M62.448,318.908a6.767,6.767,0,0,1,6.748,6.748,6.637,6.637,0,0,1-.393,2.176,6.7,6.7,0,0,0,1.128-3.715,6.768,6.768,0,0,0-6.748-6.748h0a6.751,6.751,0,0,0-6.355,4.572A6.75,6.75,0,0,1,62.448,318.908Z" transform="translate(-56.828 -317.368)" fill="#bcbec0"/></g><g transform="translate(43.903 14.704)"><path d="M84.166,324.222a3.655,3.655,0,0,1-5.668-1.983,3.668,3.668,0,0,0,.67,2.019,3.709,3.709,0,0,0,5.155.886h0a3.7,3.7,0,0,0,1.4-4.056A3.7,3.7,0,0,1,84.166,324.222Z" transform="translate(-78.498 -321.088)" fill="#bcbec0"/></g><g transform="translate(18.027)"><path d="M95.725,327.388H94.184a5.363,5.363,0,0,0-9.047-3.943l-1.177,1.088-.113-1.6a10.524,10.524,0,0,0-20.656-2.087l-1.486-.411a12.061,12.061,0,0,1,23.505,1.029,6.775,6.775,0,0,1,3.564-1.026A6.957,6.957,0,0,1,95.725,327.388Z" transform="translate(-61.706 -311.546)" fill="#414042"/></g></g><g transform="translate(91.763 279.047)"><g transform="translate(0 0.771)"><path d="M113.092,288.555a2.43,2.43,0,0,0-2.43-2.43,2.39,2.39,0,0,0-1.031.247,3.4,3.4,0,0,0-2.39-1.821,3.819,3.819,0,0,0,.146-.724,4.014,4.014,0,0,0-6.767-2.953,7.394,7.394,0,0,0-14.512-1.464,5.072,5.072,0,0,0-5.93,3.7,4.6,4.6,0,0,0-6.355,4.293,4.515,4.515,0,0,0,.717,2.33h38.2A2.365,2.365,0,0,0,113.092,288.555Z" transform="translate(-73.824 -273.96)" fill="#e6e7e8"/></g><g transform="translate(11.167 15.775)"><rect width="28.101" height="1.541" fill="#414042"/></g><g transform="translate(0.844 15.775)"><rect width="8.335" height="1.541" fill="#414042"/></g><g transform="translate(6.879 6.138)"><path d="M81.966,278.451a4.431,4.431,0,0,1,4.418,4.418,4.334,4.334,0,0,1-.259,1.424,4.374,4.374,0,0,0,.74-2.432,4.432,4.432,0,0,0-4.418-4.418h0a4.418,4.418,0,0,0-4.159,2.994A4.416,4.416,0,0,1,81.966,278.451Z" transform="translate(-78.288 -277.443)" fill="#bcbec0"/></g><g transform="translate(28.738 9.892)"><path d="M96.182,281.93a2.426,2.426,0,0,1-3.373-.579,2.355,2.355,0,0,1-.336-.72,2.393,2.393,0,0,0,.439,1.322,2.426,2.426,0,0,0,3.373.581h0a2.419,2.419,0,0,0,.915-2.655A2.418,2.418,0,0,1,96.182,281.93Z" transform="translate(-92.473 -279.879)" fill="#bcbec0"/></g><g transform="translate(11.542)"><path d="M104.106,284.1h-1.541a3.244,3.244,0,0,0-5.474-2.387L95.912,282.8l-.113-1.6a6.623,6.623,0,0,0-13-1.313l-1.486-.411a8.161,8.161,0,0,1,15.829.333,4.687,4.687,0,0,1,2.148-.526A4.821,4.821,0,0,1,104.106,284.1Z" transform="translate(-81.314 -273.46)" fill="#414042"/></g></g><g transform="translate(184.516 336.59)"><g transform="translate(0 0.771)"><path d="M175.589,326.753a2.573,2.573,0,0,0-2.573-2.572,2.543,2.543,0,0,0-1.09.26,3.6,3.6,0,0,0-2.53-1.928,4.1,4.1,0,0,0,.154-.767,4.282,4.282,0,0,0-4.281-4.283,4.236,4.236,0,0,0-2.883,1.157,7.828,7.828,0,0,0-15.364-1.55,5.378,5.378,0,0,0-6.278,3.92,4.874,4.874,0,0,0-6.73,4.546,4.773,4.773,0,0,0,.761,2.466h40.445A2.51,2.51,0,0,0,175.589,326.753Z" transform="translate(-134.014 -311.301)" fill="#e6e7e8"/></g><g transform="translate(11.825 16.702)"><rect width="29.75" height="1.541" fill="#414042"/></g><g transform="translate(0.895 16.702)"><rect width="8.825" height="1.541" fill="#414042"/></g><g transform="translate(7.284 6.454)"><path d="M142.635,316.057a4.69,4.69,0,0,1,4.677,4.677,4.582,4.582,0,0,1-.273,1.507,4.64,4.64,0,0,0,.783-2.575,4.691,4.691,0,0,0-4.677-4.677h0a4.68,4.68,0,0,0-4.4,3.17A4.679,4.679,0,0,1,142.635,316.057Z" transform="translate(-138.741 -314.989)" fill="#bcbec0"/></g><g transform="translate(30.427 10.428)"><path d="M157.687,319.741a2.532,2.532,0,0,1-3.928-1.376,2.544,2.544,0,0,0,.464,1.4,2.572,2.572,0,0,0,3.574.613h0a2.565,2.565,0,0,0,.969-2.811A2.568,2.568,0,0,1,157.687,319.741Z" transform="translate(-153.759 -317.568)" fill="#bcbec0"/></g><g transform="translate(12.265)"><path d="M166.014,322.015h-1.541a3.479,3.479,0,0,0-5.871-2.558l-1.179,1.088-.112-1.6a7.057,7.057,0,0,0-13.852-1.4l-1.486-.413a8.595,8.595,0,0,1,16.685.41,4.927,4.927,0,0,1,2.305-.579A5.058,5.058,0,0,1,166.014,322.015Z" transform="translate(-141.973 -310.801)" fill="#414042"/></g></g><g transform="translate(75.933 413.381)"><g transform="translate(0.771 0.771)"><path d="M80.769,369.493a8.358,8.358,0,1,1-8.358-8.36A8.359,8.359,0,0,1,80.769,369.493Z" transform="translate(-64.052 -361.133)" fill="#fff"/></g><g transform="translate(4.944 4.945)"><path d="M75.131,368.027a4.185,4.185,0,1,1-4.185-4.185A4.185,4.185,0,0,1,75.131,368.027Z" transform="translate(-66.76 -363.842)" fill="#e7643e"/></g><path d="M72.681,378.892a9.13,9.13,0,1,1,9.129-9.129A9.138,9.138,0,0,1,72.681,378.892Zm0-16.718a7.589,7.589,0,1,0,7.588,7.59A7.6,7.6,0,0,0,72.681,362.174Z" transform="translate(-63.552 -360.633)" fill="#414042"/><g transform="translate(8.358 9.13)"><rect width="1.541" height="37.659" fill="#414042"/></g><g transform="translate(3.867 24.461)"><rect width="1.541" height="6.663" transform="translate(0 1.09) rotate(-45)" fill="#414042"/></g><g transform="translate(8.601 30.772)"><rect width="6.664" height="1.541" transform="translate(0 4.712) rotate(-45)" fill="#414042"/></g></g><g transform="translate(55.42 424.87)"><g transform="translate(0.77 0.771)"><circle cx="6.272" cy="6.272" r="6.272" fill="#fff"/></g><g transform="translate(3.901 3.903)"><circle cx="3.141" cy="3.141" r="3.141" fill="#e7643e"/></g><path d="M57.282,382.174a7.043,7.043,0,1,1,7.042-7.044A7.051,7.051,0,0,1,57.282,382.174Zm0-12.545a5.5,5.5,0,1,0,5.5,5.5A5.508,5.508,0,0,0,57.282,369.629Z" transform="translate(-50.24 -368.088)" fill="#414042"/><g transform="translate(6.272 7.043)"><rect width="1.541" height="28.257" fill="#414042"/></g><g transform="translate(2.957 18.411)"><rect width="1.541" height="5" transform="matrix(0.707, -0.707, 0.707, 0.707, 0, 1.09)" fill="#414042"/></g><g transform="translate(6.51 23.147)"><rect width="5" height="1.541" transform="translate(0 3.535) rotate(-44.996)" fill="#414042"/></g></g><g transform="translate(224.265 424.87)"><g transform="translate(0.771 0.771)"><path d="M172.852,374.86a6.272,6.272,0,1,1-6.272-6.272A6.273,6.273,0,0,1,172.852,374.86Z" transform="translate(-160.308 -368.588)" fill="#fff"/></g><g transform="translate(3.902 3.903)"><path d="M168.621,373.76a3.141,3.141,0,1,1-3.141-3.139A3.141,3.141,0,0,1,168.621,373.76Z" transform="translate(-162.34 -370.621)" fill="#e7643e"/></g><path d="M166.85,382.174a7.043,7.043,0,1,1,7.044-7.044A7.051,7.051,0,0,1,166.85,382.174Zm0-12.545a5.5,5.5,0,1,0,5.5,5.5A5.509,5.509,0,0,0,166.85,369.629Z" transform="translate(-159.808 -368.088)" fill="#414042"/><g transform="translate(6.272 7.043)"><rect width="1.541" height="28.257" fill="#414042"/></g><g transform="translate(2.959 18.411)"><rect width="1.541" height="5" transform="matrix(0.707, -0.707, 0.707, 0.707, 0, 1.09)" fill="#414042"/></g><g transform="translate(6.511 23.147)"><rect width="5" height="1.541" transform="translate(0 3.535) rotate(-44.996)" fill="#414042"/></g></g><g transform="translate(199.017 413.381)"><g transform="translate(0.771 0.771)"><path d="M160.642,369.493a8.359,8.359,0,1,1-8.36-8.36A8.36,8.36,0,0,1,160.642,369.493Z" transform="translate(-143.924 -361.133)" fill="#fff"/></g><g transform="translate(4.944 4.945)"><circle cx="4.185" cy="4.185" r="4.185" fill="#e7643e"/></g><path d="M152.553,378.892a9.13,9.13,0,1,1,9.13-9.129A9.139,9.139,0,0,1,152.553,378.892Zm0-16.718a7.589,7.589,0,1,0,7.589,7.59A7.6,7.6,0,0,0,152.553,362.174Z" transform="translate(-143.424 -360.633)" fill="#414042"/><g transform="translate(8.359 9.13)"><rect width="1.541" height="37.659" fill="#414042"/></g><g transform="translate(3.867 24.461)"><rect width="1.541" height="6.664" transform="matrix(0.707, -0.707, 0.707, 0.707, 0, 1.09)" fill="#414042"/></g><g transform="translate(8.601 30.772)"><rect width="6.664" height="1.541" transform="translate(0 4.712) rotate(-45)" fill="#414042"/></g></g><g transform="translate(190.212 380.602)"><path d="M141.373,347.736h-1.541a3.628,3.628,0,0,0-.63-.353c-.595-.293-1.492-.733-1.492-1.734s.9-1.444,1.492-1.735a2.453,2.453,0,0,0,.641-.387l-.641-.313c-.593-.293-1.492-.734-1.492-1.734s.9-1.442,1.492-1.734a2.469,2.469,0,0,0,.641-.385l1.53.035c0,1-.9,1.442-1.492,1.734a2.424,2.424,0,0,0-.641.385l.641.313c.593.293,1.492.734,1.492,1.734s-.9,1.444-1.492,1.735a2.451,2.451,0,0,0-.641.387c.063.032.425.21.641.314C140.475,346.293,141.373,346.734,141.373,347.736Z" transform="translate(-137.71 -339.362)" fill="#414042"/></g><g transform="translate(110.247 338.377)"><path d="M89.484,320.336H87.943a3.808,3.808,0,0,0-.632-.354c-.593-.291-1.492-.732-1.492-1.734s.9-1.442,1.492-1.735a2.347,2.347,0,0,0,.641-.387c-.063-.029-.424-.207-.641-.313-.593-.291-1.492-.732-1.492-1.734s.9-1.441,1.492-1.734a2.36,2.36,0,0,0,.641-.385l1.532.037c0,1-.9,1.441-1.493,1.734a2.414,2.414,0,0,0-.641.385c.065.029.425.207.641.313.595.291,1.493.732,1.493,1.734s-.9,1.442-1.493,1.735a2.332,2.332,0,0,0-.64.387c.063.031.424.21.64.314C88.585,318.893,89.484,319.333,89.484,320.336Z" transform="translate(-85.819 -311.961)" fill="#414042"/></g><g transform="translate(138.118 274.165)"><path d="M107.57,278.667h-1.541a3.8,3.8,0,0,0-.632-.354c-.593-.291-1.492-.732-1.492-1.734s.9-1.442,1.492-1.735a2.344,2.344,0,0,0,.641-.387c-.063-.029-.424-.206-.641-.313-.593-.291-1.492-.732-1.492-1.734s.9-1.441,1.492-1.734a2.361,2.361,0,0,0,.641-.385l1.532.037c0,1-.9,1.441-1.493,1.734a2.411,2.411,0,0,0-.641.385c.065.029.425.208.641.313.595.291,1.493.732,1.493,1.734s-.9,1.442-1.493,1.735a2.335,2.335,0,0,0-.64.387c.063.031.424.21.64.314C106.671,277.224,107.57,277.666,107.57,278.667Z" transform="translate(-103.905 -270.292)" fill="#414042"/></g><g transform="translate(245.912 367.082)"><path d="M176.216,335.31a2.361,2.361,0,1,1,2.361-2.362A2.364,2.364,0,0,1,176.216,335.31Zm0-3.181a.82.82,0,1,0,.82.818A.821.821,0,0,0,176.216,332.129Z" transform="translate(-173.855 -330.588)" fill="#414042"/></g><g transform="translate(66.373 300.169)"><path d="M59.709,291.889a2.361,2.361,0,1,1,2.361-2.359A2.363,2.363,0,0,1,59.709,291.889Zm0-3.181a.82.82,0,1,0,.82.821A.822.822,0,0,0,59.709,288.708Z" transform="translate(-57.348 -287.167)" fill="#414042"/></g><g transform="translate(152.385 274.283)"><path d="M113.163,278.544v-8.175l7.081,4.087Zm1.541-5.506v2.837l2.458-1.419Z" transform="translate(-113.163 -270.369)" fill="#414042"/></g><g transform="translate(84.281 380.719)"><path d="M68.969,347.613v-8.175l7.079,4.087Zm1.541-5.506v2.835l2.456-1.418Z" transform="translate(-68.969 -339.438)" fill="#414042"/></g><g transform="translate(162.71 263.134)"><path d="M129.448,274.2l-9.585-5.535,9.585-5.534Zm-6.5-5.535,4.962,2.865V265.8Z" transform="translate(-119.863 -263.134)" fill="#414042"/></g><g transform="translate(194.285 368.671)"><rect width="39.03" height="1.541" fill="#414042"/><g transform="translate(40.695)"><rect width="3.372" height="1.541" fill="#414042"/></g><g transform="translate(45.69)"><rect width="3.372" height="1.541" fill="#414042"/></g></g><g transform="translate(58.171 316.612)"><rect width="39.03" height="1.541" fill="#414042"/><g transform="translate(40.695)"><rect width="3.372" height="1.541" fill="#414042"/></g><g transform="translate(45.689)"><rect width="3.372" height="1.541" fill="#414042"/></g></g><g transform="translate(109.208 314.513)"><g transform="translate(0 2.099)"><rect width="5.742" height="1.541" fill="#414042"/></g><g transform="translate(2.101)"><rect width="1.541" height="5.741" fill="#414042"/></g></g><g transform="translate(194.765 326.054)"><g transform="translate(0 1.446)"><rect width="4.433" height="1.541" fill="#414042"/></g><g transform="translate(1.446)"><rect width="1.541" height="4.432" fill="#414042"/></g></g><g transform="translate(210.929 385.344)"><g transform="translate(0 1.446)"><rect width="4.432" height="1.541" fill="#414042"/></g><g transform="translate(1.445)"><rect width="1.541" height="4.432" fill="#414042"/></g></g><g transform="translate(174.986 351.363)"><g transform="translate(0 1.445)"><rect width="4.433" height="1.541" fill="#414042"/></g><g transform="translate(1.446)"><rect width="1.541" height="4.432" fill="#414042"/></g></g><g transform="translate(80.485 279.387)"><g transform="translate(0 1.445)"><rect width="4.432" height="1.541" fill="#414042"/></g><g transform="translate(1.445)"><rect width="1.541" height="4.432" fill="#414042"/></g></g><g transform="translate(217.188 325.077)"><rect width="22.787" height="1.541" fill="#414042"/></g><g transform="translate(40.666 323.884)"><rect width="44.558" height="1.541" fill="#414042"/></g><g transform="translate(78.272 372.46)"><rect width="44.558" height="1.541" fill="#414042"/></g></g></svg>