<svg xmlns="http://www.w3.org/2000/svg" width="222.985" height="160.492" viewBox="0 0 222.985 160.492"><g transform="translate(-28.573 -439.813)"><path d="M239.562,600.18H41.31a6.555,6.555,0,0,1-6.548-6.549v-.568H246.114v.568A6.555,6.555,0,0,1,239.562,600.18ZM35.928,594.2a5.42,5.42,0,0,0,5.382,4.843H239.562a5.421,5.421,0,0,0,5.382-4.843Z" fill="#414042" stroke="#414042" stroke-miterlimit="10" stroke-width="0.25"/><path d="M41.215,593.066H238.484V490.808a10.166,10.166,0,0,0-10.156-10.156H51.376a10.168,10.168,0,0,0-10.157,10.156Z" fill="#fff" stroke="#414042" stroke-linecap="round" stroke-linejoin="round" stroke-width="1.5"/><path d="M192.024,572.767V567.09h-4.5a16.907,16.907,0,0,0-2.913-7.026l3.182-3.182-4.015-4.015-3.182,3.182a16.908,16.908,0,0,0-7.026-2.913v-4.5h-5.676v4.5a16.919,16.919,0,0,0-7.026,2.913l-3.182-3.182-4.015,4.014,3.182,3.182a16.934,16.934,0,0,0-2.913,7.026h-4.5v5.677h4.5a16.945,16.945,0,0,0,2.913,7.026l-3.182,3.182,4.015,4.015,3.182-3.182a16.945,16.945,0,0,0,7.026,2.913v4.5h5.677v-4.5a16.934,16.934,0,0,0,7.026-2.913l3.182,3.182,4.016-4.015-3.183-3.182a16.934,16.934,0,0,0,2.914-7.026Zm-21.289,8.611a11.449,11.449,0,1,1,11.45-11.45,11.448,11.448,0,0,1-11.45,11.45h0Z" fill="#d8d8d8" stroke="#414042" stroke-linecap="round" stroke-linejoin="round" stroke-width="1.5"/><path d="M89.205,583.875a5.1,5.1,0,0,0-3.138-9.12,5.095,5.095,0,0,0-4.009,8.234,5.092,5.092,0,0,0,7.147.886Z" fill="#fae173"/><path d="M86.075,585.516a5.661,5.661,0,1,1,3.477-1.2A5.662,5.662,0,0,1,86.075,585.516Zm-.01-10.2a4.529,4.529,0,1,0,3.58,1.747,4.525,4.525,0,0,0-3.58-1.747Z" fill="#2d2d2d"/><path d="M214.926,574.787a8.1,8.1,0,1,0-8.046,9.163,8.514,8.514,0,0,0,1.071-.07A8.112,8.112,0,0,0,214.926,574.787Z" fill="#fae173"/><path d="M206.88,584.518a8.679,8.679,0,1,1,1.145-.076A8.936,8.936,0,0,1,206.88,584.518Zm.023-16.209a7.537,7.537,0,1,0-.027,15.073,7.768,7.768,0,0,0,1-.065,7.536,7.536,0,0,0-.973-15.008Z" fill="#2d2d2d"/><path d="M217.825,575.837l3.479-.459-.371-2.814-3.48.459a10.9,10.9,0,0,0-2.84-4.909l2.14-2.789L214.5,563.6l-2.137,2.785a10.829,10.829,0,0,0-5.459-1.48h-.022l-.456-3.468-2.815.371.459,3.479a10.869,10.869,0,0,0-4.909,2.841l-2.788-2.139-1.728,2.252,2.788,2.139a10.882,10.882,0,0,0-1.472,5.477l-3.479.459.371,2.814,3.48-.459a10.933,10.933,0,0,0,2.84,4.909l-2.14,2.789,2.252,1.728,2.138-2.786a10.852,10.852,0,0,0,5.458,1.481h.022l.457,3.469,2.814-.371-.459-3.479a10.875,10.875,0,0,0,4.909-2.84l2.788,2.139,1.728-2.252-2.785-2.141A10.864,10.864,0,0,0,217.825,575.837Zm-9.873,8.043a8.513,8.513,0,0,1-1.071.07,8.11,8.11,0,1,1,1.071-.07Z" fill="#fae173"/><path d="M206.87,590.893l-.467-3.549a11.472,11.472,0,0,1-4.828-1.3l-2.185,2.849-3.153-2.419,2.188-2.852a11.548,11.548,0,0,1-2.5-4.323l-3.559.469-.52-3.94,3.559-.469a11.484,11.484,0,0,1,1.3-4.824l-2.852-2.188,2.419-3.153,2.851,2.188a11.47,11.47,0,0,1,4.324-2.5l-.469-3.559,3.941-.52.467,3.548a11.442,11.442,0,0,1,4.829,1.3L214.4,562.8l3.153,2.418-2.188,2.852a11.521,11.521,0,0,1,2.5,4.323l3.559-.469.52,3.94-3.559.47a11.454,11.454,0,0,1-1.3,4.824l2.852,2.188-2.419,3.153-2.851-2.187a11.481,11.481,0,0,1-4.324,2.5l.469,3.558Zm-5.594-6.327.432.251a10.316,10.316,0,0,0,5.172,1.4h.5l.087.493.383,2.906,1.691-.217-.45-3.41.482-.129a10.339,10.339,0,0,0,4.653-2.693l.352-.353,2.734,2.1,1.036-1.351-2.732-2.1.25-.431a10.347,10.347,0,0,0,1.4-5.191v-.5l3.411-.45-.235-1.692-3.411.45-.13-.481a10.348,10.348,0,0,0-2.693-4.654l-.353-.352,2.1-2.734-1.351-1.037-2.1,2.731-.432-.251a10.3,10.3,0,0,0-5.174-1.4h-.5l-.087-.493-.383-2.906-1.688.223.45,3.41-.481.129a10.329,10.329,0,0,0-4.653,2.692l-.352.354-2.734-2.1-1.036,1.351,2.733,2.1-.25.432a10.342,10.342,0,0,0-1.4,5.191v.5l-3.41.45.222,1.688,3.411-.45.129.481a10.4,10.4,0,0,0,2.693,4.654l.353.352-2.1,2.733,1.351,1.037Zm5.6-.049a8.681,8.681,0,1,1,1.145-.076,8.84,8.84,0,0,1-1.138.076Zm.023-16.209a7.537,7.537,0,1,0-.026,15.073,7.78,7.78,0,0,0,1-.065,7.536,7.536,0,0,0-.974-15.008Z" fill="#2d2d2d"/><path d="M93.1,576.176l1.592-1.24-1.745-2.24-1.6,1.243a7.835,7.835,0,0,0-2.91-1.655l.249-2-2.817-.35-.249,2a7.812,7.812,0,0,0-3.233.887l-1.236-1.587-2.24,1.744,1.24,1.592a7.892,7.892,0,0,0-1.653,2.913l-2-.249-.351,2.817,2,.249a7.9,7.9,0,0,0,.89,3.229l-1.592,1.24,1.745,2.24,1.6-1.243a7.88,7.88,0,0,0,2.91,1.656l-.249,2,2.817.35.249-2a7.834,7.834,0,0,0,3.232-.887l1.237,1.587,2.24-1.745-1.24-1.592a7.88,7.88,0,0,0,1.653-2.913l2,.249.351-2.817-2-.249A7.874,7.874,0,0,0,93.1,576.176Zm-11.051,6.808a5.1,5.1,0,1,1,7.156.889A5.1,5.1,0,0,1,82.049,582.984Z" fill="#fae173"/><path d="M86.763,590.4l-3.944-.49.262-2.11a8.343,8.343,0,0,1-2.3-1.311L79.1,587.8l-2.442-3.135,1.676-1.306a8.35,8.35,0,0,1-.705-2.558l-2.109-.262.491-3.944,2.108.262a8.341,8.341,0,0,1,1.31-2.307l-1.306-1.677,3.136-2.442,1.3,1.671a8.342,8.342,0,0,1,2.563-.7l.262-2.107,3.943.491-.261,2.109a8.363,8.363,0,0,1,2.3,1.311l1.679-1.308,2.442,3.135-1.676,1.306a8.4,8.4,0,0,1,.7,2.557l2.109.262L96.13,583.1l-2.109-.262a8.422,8.422,0,0,1-1.31,2.307l1.306,1.677-3.136,2.442-1.3-1.671a8.361,8.361,0,0,1-2.561.7Zm-2.677-1.477,1.69.211.237-1.909.474-.026a7.255,7.255,0,0,0,3-.822l.42-.221,1.179,1.514,1.344-1.046-1.182-1.518.316-.353a7.268,7.268,0,0,0,1.533-2.7l.141-.453,1.91.237.21-1.69-1.909-.237-.026-.474a7.252,7.252,0,0,0-.826-3l-.219-.42,1.518-1.182-1.047-1.344-1.521,1.185-.354-.317a7.232,7.232,0,0,0-2.7-1.536l-.453-.141.237-1.911-1.69-.21-.237,1.909-.474.026a7.226,7.226,0,0,0-3,.823l-.42.221-1.179-1.514-1.344,1.046,1.182,1.518-.316.353a7.269,7.269,0,0,0-1.534,2.7l-.141.453L77,577.861l-.21,1.69,1.91.238.026.474a7.274,7.274,0,0,0,.825,3l.22.42-1.518,1.183,1.046,1.343,1.522-1.186.354.317a7.259,7.259,0,0,0,2.7,1.536l.453.141Zm1.991-3.411a5.66,5.66,0,1,1,3.477-1.2,5.662,5.662,0,0,1-3.477,1.2Zm-.01-10.2a4.527,4.527,0,1,0,3.58,1.747,4.525,4.525,0,0,0-3.58-1.747Z" fill="#2d2d2d"/><circle cx="5.677" cy="5.677" r="5.677" transform="translate(228.007 474.558)" fill="#d8d8d8"/><path d="M126,583.915l2.492-3.708-2.937-1.975a13.307,13.307,0,0,0,1.181-5.867l3.475-.682-.86-4.385-3.475.682a13.309,13.309,0,0,0-3.311-4.986l1.975-2.938-3.708-2.492-1.975,2.937a13.324,13.324,0,0,0-5.868-1.182l-.681-3.475-4.385.86.682,3.475a13.328,13.328,0,0,0-4.987,3.311l-2.938-1.975-2.492,3.708,2.938,1.974a13.321,13.321,0,0,0-1.182,5.868l-3.475.681.86,4.385,3.475-.682a13.351,13.351,0,0,0,3.311,4.987l-1.975,2.938,3.708,2.492,1.975-2.938a13.325,13.325,0,0,0,5.868,1.182l.682,3.475,4.384-.86-.681-3.475a13.321,13.321,0,0,0,4.986-3.311Zm-17.685-3.721a9.01,9.01,0,1,1,12.5-2.457l0,.005A9.01,9.01,0,0,1,108.314,580.194Z" fill="#78d2f9" stroke="#414042" stroke-linecap="round" stroke-linejoin="round" stroke-width="1.5"/><path d="M239.361,460.394c-.144,0-.286-.005-.427-.016a.567.567,0,0,1-.524-.607h0a.557.557,0,0,1,.587-.526l.021,0a4.735,4.735,0,0,0,.5.01.582.582,0,0,1,.588.547.566.566,0,0,1-.545.587h0C239.5,460.393,239.429,460.394,239.361,460.394Zm3.3-1.2a.567.567,0,0,1-.366-1,4.824,4.824,0,0,0,.368-.346.568.568,0,0,1,.85.753.3.3,0,0,1-.03.032,5.644,5.644,0,0,1-.458.43.567.567,0,0,1-.36.129Zm-6.759-.133a.572.572,0,0,1-.381-.148,6.253,6.253,0,0,1-.443-.449.568.568,0,0,1,.852-.751,4.8,4.8,0,0,0,.354.359.568.568,0,0,1-.382.988Zm8.57-3.292h-.057a.568.568,0,0,1-.509-.62h0c.015-.152.023-.305.023-.459a4.4,4.4,0,0,0-.028-.5.568.568,0,0,1,1.129-.124,5.487,5.487,0,0,1,.035.629c0,.193-.01.382-.028.568a.568.568,0,0,1-.561.505Zm-10.246-.2a.568.568,0,0,1-.566-.534c-.007-.114-.011-.228-.011-.344,0-.094,0-.19.008-.286a.568.568,0,1,1,1.135.025l0,.034c0,.074-.006.149-.006.224,0,.1,0,.189.008.28a.566.566,0,0,1-.532.6h-.034Zm1.241-3.67a.569.569,0,0,1-.429-.939,5.857,5.857,0,0,1,.437-.454.568.568,0,0,1,.773.832,4.433,4.433,0,0,0-.349.363.571.571,0,0,1-.427.194Zm7.569-.229a.571.571,0,0,1-.406-.171,4.3,4.3,0,0,0-.372-.342.568.568,0,0,1,.721-.877,5.5,5.5,0,0,1,.464.426.566.566,0,0,1-.009.8.574.574,0,0,1-.4.162Zm-4.113-1.538a.568.568,0,0,1-.047-1.134c.16-.014.322-.02.486-.02h.144a.568.568,0,1,1,.007,1.136h-.147c-.135,0-.266.006-.4.016Z" fill="#414042" stroke="#414042" stroke-miterlimit="10" stroke-width="0.25"/><path d="M195.011,451.848a1.069,1.069,0,1,1-1.069-1.069h0A1.068,1.068,0,0,1,195.011,451.848Z" fill="#7ad7ff"/><path d="M130.2,583.091a.571.571,0,0,1-.489-.278l-.1-.168-.193-.276a.568.568,0,1,1,.93-.651h.035l.3.515a.567.567,0,0,1-.488.857Z" fill="#414042" stroke="#414042" stroke-linecap="round" stroke-linejoin="round" stroke-width="0.25"/><path d="M139.909,588.673h0c-.194,0-.39-.007-.585-.019a.568.568,0,0,1,.064-1.134c.177.01.353.016.53.017a.568.568,0,0,1,0,1.135Zm3.3-.455a.568.568,0,0,1-.159-1.113c.17-.05.338-.1.506-.16a.567.567,0,0,1,.369,1.073q-.276.1-.557.177a.6.6,0,0,1-.159.021Zm-7.124-.234a.588.588,0,0,1-.194-.034q-.275-.1-.546-.214a.568.568,0,0,1,.44-1.047q.246.1.493.194a.568.568,0,0,1-.194,1.1Zm10.614-1.472a.568.568,0,0,1-.334-1.028q.214-.156.422-.321a.568.568,0,1,1,.71.887q-.229.184-.465.354a.569.569,0,0,1-.331.112Zm-13.984-.462a.571.571,0,0,1-.362-.131q-.224-.186-.442-.384a.568.568,0,0,1,.766-.838q.2.18.4.348a.568.568,0,0,1-.363,1.005Z" fill="#414042" stroke="#414042" stroke-linecap="round" stroke-linejoin="round" stroke-width="0.25"/><path d="M149.42,583.726a.568.568,0,0,1-.467-.89c.052-.074.1-.149.15-.224l.174-.249a.569.569,0,0,1,.933.65l-.321.467A.569.569,0,0,1,149.42,583.726Z" fill="#414042" stroke="#414042" stroke-linecap="round" stroke-linejoin="round" stroke-width="0.25"/><path d="M151.68,580.469a.568.568,0,0,1-.466-.892l.323-.464a.568.568,0,0,1,.958.611c-.008.013-.017.025-.026.037l-.322.464A.567.567,0,0,1,151.68,580.469Zm-23.758-.673a.571.571,0,0,1-.467-.243l-.324-.465a.568.568,0,0,1,.933-.648l.323.464a.567.567,0,0,1-.142.79.576.576,0,0,1-.324.1Zm26.018-2.58a.569.569,0,0,1-.466-.891l.322-.465a.568.568,0,0,1,.933.648l-.323.464a.567.567,0,0,1-.466.242Zm-28.277-.671a.571.571,0,0,1-.467-.243l-.323-.465a.568.568,0,0,1,.907-.685c.009.012.017.024.025.037l.324.464a.567.567,0,0,1-.142.79.576.576,0,0,1-.324.1Zm30.542-2.582a.569.569,0,0,1-.466-.891l.323-.465a.568.568,0,0,1,.933.647l-.332.46a.571.571,0,0,1-.463.249Zm-32.8-.669a.568.568,0,0,1-.467-.244l-.323-.464a.568.568,0,0,1,.932-.648l.323.464a.567.567,0,0,1-.142.79.576.576,0,0,1-.324.1Zm35.058-2.58a.568.568,0,0,1-.466-.892l.323-.465a.568.568,0,0,1,.958.611c-.008.013-.017.025-.026.037l-.323.465A.572.572,0,0,1,158.463,570.714Zm-37.327-.668a.568.568,0,0,1-.467-.244l-.323-.464a.568.568,0,0,1,.907-.685c.009.012.017.024.025.037l.323.464a.567.567,0,0,1-.465.892Zm39.587-2.586a.569.569,0,0,1-.466-.892l.323-.465a.568.568,0,0,1,.933.648l-.323.465a.572.572,0,0,1-.47.24Zm-41.851-.666a.567.567,0,0,1-.466-.244l-.323-.464a.567.567,0,1,1,.931-.648l.324.464a.567.567,0,0,1-.466.892Zm44.111-2.587a.569.569,0,0,1-.466-.891l.323-.465a.567.567,0,1,1,.932.647l-.322.465a.568.568,0,0,1-.469.24Zm-46.374-.664a.57.57,0,0,1-.467-.244l-.323-.465a.568.568,0,0,1,.932-.648l.323.464a.568.568,0,0,1-.466.893Zm48.634-2.589a.569.569,0,0,1-.466-.891l.322-.465a.568.568,0,0,1,.933.647l-.323.465a.568.568,0,0,1-.468.24Zm-50.9-.662a.572.572,0,0,1-.467-.244l-.323-.465a.568.568,0,0,1,.933-.648l.323.464a.568.568,0,0,1-.143.791.575.575,0,0,1-.323.1ZM167.5,557.7a.568.568,0,0,1-.466-.891l.323-.465a.568.568,0,0,1,.958.611c-.008.013-.017.025-.026.037l-.322.464a.568.568,0,0,1-.465.24Zm-55.421-.661a.571.571,0,0,1-.467-.243l-.323-.465a.568.568,0,0,1,.932-.648l.324.464a.568.568,0,0,1-.142.79.575.575,0,0,1-.324.1Zm57.684-2.6a.569.569,0,0,1-.466-.891l.323-.465a.568.568,0,0,1,.933.647l-.323.465A.567.567,0,0,1,169.763,554.444Zm-59.943-.659a.57.57,0,0,1-.466-.243l-.324-.464a.568.568,0,1,1,.918-.67l.014.021.323.464a.567.567,0,0,1-.465.892Zm62.2-2.595a.569.569,0,0,1-.466-.892l.324-.464a.568.568,0,0,1,.958.611c-.008.013-.017.025-.026.037l-.323.465a.569.569,0,0,1-.465.243Zm-64.466-.657a.571.571,0,0,1-.467-.243l-.323-.464a.568.568,0,1,1,.918-.67l.014.021.323.464a.567.567,0,0,1-.465.892Zm66.726-2.6a.579.579,0,0,1-.324-.1.569.569,0,0,1-.142-.79l.323-.464a.568.568,0,0,1,.933.649h0l-.324.464a.57.57,0,0,1-.463.245Zm-68.99-.655a.57.57,0,0,1-.467-.244l-.323-.464a.568.568,0,0,1,.932-.649l.324.465a.567.567,0,0,1-.142.79.576.576,0,0,1-.324.1Zm71.25-2.6a.568.568,0,0,1-.466-.892l.323-.464a.568.568,0,0,1,.958.611c-.008.013-.017.025-.026.037l-.322.464a.57.57,0,0,1-.464.25Zm-73.513-.653a.57.57,0,0,1-.467-.244l-.324-.464a.568.568,0,1,1,.933-.649h0l.323.464a.568.568,0,0,1-.466.893Zm75.773-2.6a.568.568,0,0,1-.466-.892l.323-.464a.568.568,0,0,1,.94.638l-.007.01-.323.464a.569.569,0,0,1-.463.25Zm-78.036-.652a.57.57,0,0,1-.467-.244l-.323-.464a.568.568,0,0,1,.907-.685.3.3,0,0,1,.025.037l.323.464a.576.576,0,0,1-.466.9Zm80.3-2.6a.568.568,0,0,1-.466-.892l.323-.464a.568.568,0,1,1,.94.638l-.007.01-.323.464a.568.568,0,0,1-.468.249Zm-82.56-.65a.569.569,0,0,1-.466-.244l-.323-.464a.567.567,0,0,1,.931-.649h0l.324.464a.576.576,0,0,1-.466.9Zm84.82-2.6a.565.565,0,0,1-.466-.89h0l.323-.464a.568.568,0,0,1,.932.649l-.323.464a.568.568,0,0,1-.466.243Zm-87.082-.648a.568.568,0,0,1-.467-.244l-.324-.464a.568.568,0,1,1,.933-.649l.323.465a.567.567,0,0,1-.142.79.576.576,0,0,1-.324.1Zm89.353-2.6a.567.567,0,0,1-.455-.907c.111-.15.223-.3.332-.451a.568.568,0,1,1,.938.641l-.019.026c-.112.154-.226.308-.34.462a.566.566,0,0,1-.457.231Zm-91.641-.634a.569.569,0,0,1-.461-.235l-.332-.464a.568.568,0,0,1,.927-.656l.325.455a.567.567,0,0,1-.459.9Zm93.9-2.626a.567.567,0,0,1-.477-.874l.3-.475a.567.567,0,0,1,.988.558q-.012.021-.027.042l-.306.483a.565.565,0,0,1-.484.265Zm-96.1-.659a.571.571,0,0,1-.484-.269l-.3-.485a.568.568,0,1,1,.943-.634.336.336,0,0,1,.027.045l.293.477a.568.568,0,0,1-.483.867Zm98.119-2.751a.568.568,0,0,1-.5-.839l.266-.495a.568.568,0,0,1,1,.534l-.271.5a.569.569,0,0,1-.5.3Zm-100.088-.683a.571.571,0,0,1-.5-.3q-.134-.253-.264-.507A.568.568,0,0,1,90.032,523q.126.248.258.5a.568.568,0,0,1-.5.833Zm101.862-2.86a.568.568,0,0,1-.564-.572.556.556,0,0,1,.049-.228q.117-.255.23-.51a.568.568,0,0,1,1.038.461q-.115.261-.236.522a.568.568,0,0,1-.523.329Zm-103.585-.7a.569.569,0,0,1-.52-.339l-.228-.523a.568.568,0,1,1,1.044-.448h0l.223.513a.565.565,0,0,1-.29.747h0a.568.568,0,0,1-.234.049Zm105.1-2.956a.57.57,0,0,1-.567-.572.6.6,0,0,1,.036-.2c.066-.174.131-.35.194-.525a.568.568,0,1,1,1.072.376l0,.011c-.065.179-.131.359-.2.538A.567.567,0,0,1,193.163,517.806Zm-106.577-.72a.568.568,0,0,1-.534-.375l-.191-.538a.568.568,0,0,1,1.06-.41l.012.036.186.527a.567.567,0,0,1-.342.726.6.6,0,0,1-.192.034Zm107.838-3.036a.64.64,0,0,1-.162-.024.569.569,0,0,1-.382-.706l.157-.539a.568.568,0,0,1,1.091.314l-.16.548a.57.57,0,0,1-.545.407Zm-109.048-.736a.57.57,0,0,1-.546-.414l-.152-.55a.57.57,0,0,1,1.1-.3l.149.54a.568.568,0,0,1-.393.7A.6.6,0,0,1,85.376,513.314Zm110.043-3.1a.57.57,0,0,1-.568-.57.556.556,0,0,1,.013-.122l.12-.548a.568.568,0,1,1,1.11.237h0l-.121.558A.569.569,0,0,1,195.419,510.214Zm-110.985-.745a.57.57,0,0,1-.555-.452l-.114-.559a.568.568,0,0,1,1.115-.221h0l.112.55a.569.569,0,0,1-.443.671.538.538,0,0,1-.114.012Zm111.71-3.15a.618.618,0,0,1-.085-.006.569.569,0,0,1-.476-.647q.041-.276.08-.554a.568.568,0,0,1,1.125.157c-.026.189-.053.378-.083.567a.566.566,0,0,1-.561.485Zm-112.381-.751a.57.57,0,0,1-.563-.491l-.074-.566a.568.568,0,0,1,1.126-.144l.073.556a.569.569,0,0,1-.486.639h0Q83.8,505.566,83.763,505.568ZM196.6,502.386h-.045a.569.569,0,0,1-.521-.611l.042-.559a.567.567,0,1,1,1.132.08l-.042.569a.568.568,0,0,1-.569.521Zm-113.237-.757a.571.571,0,0,1-.567-.53c-.013-.19-.024-.381-.035-.571a.568.568,0,0,1,1.133-.064c.011.186.022.372.035.559a.567.567,0,0,1-.529.6Zm113.415-3.2h-.007a.568.568,0,0,1-.561-.573h0V497.3a.568.568,0,0,1,1.136,0v.572a.567.567,0,0,1-.57.562ZM83.237,497.67h0a.569.569,0,0,1-.566-.569v-.571a.568.568,0,0,1,.568-.562h.006a.567.567,0,0,1,.562.573v.563a.568.568,0,0,1-.57.566h0Zm113.444-3.2a.569.569,0,0,1-.566-.535l-.036-.56a.568.568,0,0,1,1.133-.076l.036.569a.566.566,0,0,1-.532.6h0Zm-113.3-.758h-.043a.567.567,0,0,1-.524-.607h0l.044-.57a.568.568,0,0,1,1.132.094l-.044.559a.568.568,0,0,1-.562.526Zm112.926-3.185a.569.569,0,0,1-.563-.5c-.023-.185-.048-.369-.074-.554a.568.568,0,0,1,1.118-.206.386.386,0,0,1,.006.049q.04.283.076.567a.568.568,0,0,1-.491.635c-.023,0-.046.008-.07.01Zm-112.5-.753a.552.552,0,0,1-.081-.006.57.57,0,0,1-.483-.642h0l.084-.565a.568.568,0,1,1,1.13.118.465.465,0,0,1-.008.052l-.082.555a.568.568,0,0,1-.561.488Zm111.856-3.154a.567.567,0,0,1-.556-.456l-.113-.548a.568.568,0,0,1,1.1-.271l.007.037.115.559a.567.567,0,0,1-.445.668A.592.592,0,0,1,195.663,486.62ZM84.5,485.875a.6.6,0,0,1-.119-.012.568.568,0,0,1-.436-.673h0c.04-.188.081-.374.123-.56a.568.568,0,0,1,1.113.23l0,.02q-.062.273-.12.547a.568.568,0,0,1-.553.448Zm110.253-3.107a.57.57,0,0,1-.547-.417l-.151-.54a.568.568,0,0,1,1.092-.311l.153.549a.567.567,0,0,1-.4.7A.551.551,0,0,1,194.751,482.768Zm-109.288-.735a.572.572,0,0,1-.546-.725q.078-.276.161-.55a.568.568,0,0,1,1.088.326c-.054.178-.106.357-.158.537A.568.568,0,0,1,85.463,482.033Zm108.109-3.044a.571.571,0,0,1-.536-.38c-.061-.176-.124-.351-.187-.526a.568.568,0,0,1,1.068-.387q.1.268.192.539a.568.568,0,0,1-.349.723.579.579,0,0,1-.185.031Zm-106.878-.722a.569.569,0,0,1-.567-.569.582.582,0,0,1,.034-.194l.2-.536a.567.567,0,1,1,1.062.4l-.2.526a.57.57,0,0,1-.526.374ZM192.131,475.3a.572.572,0,0,1-.521-.343l-.224-.513a.568.568,0,0,1,1.023-.5l.015.035.229.522a.568.568,0,0,1-.521.794ZM88.186,474.6a.6.6,0,0,1-.231-.05.567.567,0,0,1-.287-.749h0c.078-.174.158-.349.237-.522a.568.568,0,0,1,1.032.476h0c-.078.169-.156.339-.232.51a.568.568,0,0,1-.516.337Zm102.25-2.872a.57.57,0,0,1-.5-.307l-.26-.5a.568.568,0,0,1,.957-.613.492.492,0,0,1,.043.082l.265.5a.568.568,0,0,1-.5.829Zm-100.5-.685a.569.569,0,0,1-.5-.837l.273-.5a.57.57,0,0,1,1,.546l-.267.494a.567.567,0,0,1-.506.3Zm98.56-2.763a.568.568,0,0,1-.485-.272l-.294-.475a.567.567,0,0,1,.95-.621l.012.021.3.484a.568.568,0,0,1-.484.864Zm-96.567-.662a.57.57,0,0,1-.567-.57.579.579,0,0,1,.087-.3c.1-.162.2-.324.308-.484a.568.568,0,0,1,.98.575c-.008.014-.017.027-.026.04-.1.156-.2.314-.3.472A.568.568,0,0,1,91.929,467.614Zm94.389-2.64a.568.568,0,0,1-.463-.239c-.107-.152-.215-.3-.325-.452a.568.568,0,0,1,.891-.706c.009.012.018.024.026.037q.168.231.334.464a.569.569,0,0,1-.463.9Zm-92.16-.638a.568.568,0,0,1-.458-.9c.114-.154.227-.308.342-.462a.568.568,0,1,1,.937.643c-.009.013-.019.025-.029.038-.112.15-.224.3-.333.451a.57.57,0,0,1-.46.232Zm89.755-2.505a.569.569,0,0,1-.439-.207l-.358-.431a.567.567,0,1,1,.869-.73h0l.365.439a.567.567,0,0,1-.438.928Zm-87.3-.608a.567.567,0,0,1-.567-.567.561.561,0,0,1,.134-.367l.372-.436a.568.568,0,0,1,.861.74l-.366.428a.566.566,0,0,1-.437.2Zm84.684-2.361a.572.572,0,0,1-.413-.178l-.386-.4a.568.568,0,0,1,.818-.788l.393.413a.569.569,0,0,1-.412.958Zm-82.021-.576a.569.569,0,0,1-.407-.963l.4-.408a.568.568,0,1,1,.827.779l-.02.021-.393.4a.572.572,0,0,1-.41.172Zm79.2-2.206a.569.569,0,0,1-.385-.151c-.137-.127-.274-.252-.413-.377a.568.568,0,0,1,.741-.862l.02.019c.142.128.283.256.423.386a.567.567,0,0,1,.032.8.573.573,0,0,1-.417.183Zm-76.35-.538a.569.569,0,0,1-.379-.991l.426-.379a.568.568,0,1,1,.77.835l-.019.017-.42.373a.568.568,0,0,1-.376.146Zm73.346-2.047a.571.571,0,0,1-.354-.124l-.44-.35a.568.568,0,0,1,.7-.893l.448.357a.568.568,0,0,1-.354,1.011ZM105.163,453a.568.568,0,0,1-.348-1.017l.449-.346a.568.568,0,1,1,.743.859.533.533,0,0,1-.053.041l-.444.342A.573.573,0,0,1,105.163,453Zm67.132-1.876a.573.573,0,0,1-.323-.1l-.464-.318a.568.568,0,1,1,.638-.94h0l.472.324a.568.568,0,0,1-.324,1.034Zm-63.928-.445a.567.567,0,0,1-.316-1.039l.474-.315a.567.567,0,0,1,.624.948h0l-.466.31a.563.563,0,0,1-.314.1Zm60.593-1.7a.569.569,0,0,1-.29-.079c-.16-.1-.322-.191-.484-.284a.568.568,0,0,1,.57-.983h0c.166.1.33.192.494.29a.568.568,0,0,1-.291,1.056Zm-57.234-.4a.568.568,0,0,1-.284-1.059q.248-.143.5-.282a.568.568,0,1,1,.587.972l-.031.018c-.162.091-.323.183-.485.276a.572.572,0,0,1-.285.082Zm53.757-1.507a.575.575,0,0,1-.254-.06c-.167-.084-.333-.167-.5-.249a.568.568,0,0,1,.5-1.02l.513.254a.568.568,0,0,1-.255,1.075Zm-50.26-.344a.568.568,0,0,1-.249-1.078l.515-.247a.568.568,0,0,1,.485,1.027c-.168.078-.334.159-.5.241a.575.575,0,0,1-.248.065Zm46.659-1.309a.61.61,0,0,1-.218-.044l-.519-.213a.567.567,0,1,1,.426-1.052h0l.531.217a.568.568,0,0,1-.219,1.092Zm-43.04-.292a.568.568,0,0,1-.211-1.1l.531-.21a.568.568,0,0,1,.411,1.058l-.52.206a.571.571,0,0,1-.208.049Zm39.333-1.1a.593.593,0,0,1-.182-.03c-.178-.06-.355-.119-.533-.177a.569.569,0,0,1,.3-1.1.454.454,0,0,1,.052.018q.273.088.544.18a.568.568,0,0,1-.182,1.106Zm-35.609-.24a.568.568,0,0,1-.174-1.109l.543-.172a.568.568,0,1,1,.371,1.073l-.032.011-.534.169a.594.594,0,0,1-.172.032Zm31.813-.892a.638.638,0,0,1-.144-.019l-.543-.139a.568.568,0,0,1,.275-1.1c.186.046.37.093.554.141a.568.568,0,0,1-.143,1.117Zm-28-.188a.567.567,0,0,1-.136-1.118q.279-.069.555-.134a.568.568,0,1,1,.37,1.074.578.578,0,0,1-.109.026c-.182.043-.362.086-.543.131a.588.588,0,0,1-.139.026Zm24.139-.677a.621.621,0,0,1-.105-.01l-.552-.1a.568.568,0,0,1,.177-1.123l.023,0,.562.1a.568.568,0,0,1-.1,1.126Zm-20.264-.135a.568.568,0,0,1-.1-1.128l.563-.1a.568.568,0,1,1,.184,1.121l-.552.093a.789.789,0,0,1-.1.012Zm16.348-.458c-.021,0-.044,0-.065,0l-.557-.062a.568.568,0,0,1,.083-1.133l.037,0c.19.02.38.041.568.064a.568.568,0,0,1-.066,1.132Zm-12.426-.083a.567.567,0,0,1-.057-1.132l.568-.056a.568.568,0,1,1,.156,1.125l-.051.005-.558.055a.6.6,0,0,1-.061.006Zm8.478-.237h-.026l-.56-.023a.569.569,0,0,1-.547-.588.558.558,0,0,1,.569-.548h.02l.57.023a.568.568,0,0,1-.026,1.135Zm-4.526-.03a.568.568,0,0,1-.018-1.135l.571-.016h.014a.568.568,0,0,1,.013,1.135l-.56.016Z" fill="#414042" stroke="#414042" stroke-linecap="round" stroke-linejoin="round" stroke-width="0.25"/><path d="M140,582.845a6.17,6.17,0,1,1,6.17-6.17h0A6.176,6.176,0,0,1,140,582.845Zm0-11.2a5.034,5.034,0,1,0,5.034,5.034h0A5.039,5.039,0,0,0,140,571.641Z" fill="#414042" stroke="#414042" stroke-miterlimit="10" stroke-width="0.25"/><rect width="1.135" height="2.839" transform="translate(139.439 568.235)" fill="#414042" stroke="#414042" stroke-miterlimit="10" stroke-width="0.25"/><rect width="1.135" height="2.839" transform="translate(139.439 582.278)" fill="#414042" stroke="#414042" stroke-miterlimit="10" stroke-width="0.25"/><rect width="2.839" height="1.135" transform="translate(131.566 576.108)" fill="#414042" stroke="#414042" stroke-miterlimit="10" stroke-width="0.25"/><rect width="2.839" height="1.135" transform="translate(145.609 576.108)" fill="#414042" stroke="#414042" stroke-miterlimit="10" stroke-width="0.25"/><rect width="1.135" height="2.839" transform="translate(133.637 571.109) rotate(-45)" fill="#414042" stroke="#414042" stroke-miterlimit="10" stroke-width="0.25"/><rect width="1.135" height="2.839" transform="translate(143.567 581.039) rotate(-45)" fill="#414042" stroke="#414042" stroke-miterlimit="10" stroke-width="0.25"/><rect width="2.839" height="1.135" transform="translate(133.637 582.243) rotate(-45)" fill="#414042" stroke="#414042" stroke-miterlimit="10" stroke-width="0.25"/><rect width="2.839" height="1.135" transform="translate(143.567 572.313) rotate(-45)" fill="#414042" stroke="#414042" stroke-miterlimit="10" stroke-width="0.25"/><circle cx="51.097" cy="51.097" r="51.097" transform="translate(88.548 446.171)" fill="#78d2f9" stroke="#414042" stroke-miterlimit="10" stroke-width="1.5"/><path d="M81.742,543.809H81.72c.009-.146.022-.292.022-.441a7.433,7.433,0,0,0-10.443-6.8,13.982,13.982,0,0,0-27.526-3.237c-.15-.007-.3-.022-.453-.022a8.739,8.739,0,0,0-8.387,11.221,3.459,3.459,0,0,0-2.11-.724,3.5,3.5,0,1,0,0,7H81.742a3.5,3.5,0,0,0,0-7Z" fill="#78d2f9" stroke="#414042" stroke-linecap="round" stroke-linejoin="round" stroke-width="1.5"/><path d="M244.773,521.707c-.113,0-.223.011-.335.017A11.345,11.345,0,0,0,222.027,520a7.094,7.094,0,1,0-2.392,13.771h25.139a6.034,6.034,0,1,0,0-12.067Z" fill="#78d2f9" stroke="#414042" stroke-linecap="round" stroke-linejoin="round" stroke-width="1.5"/><path d="M69.639,462.486c.057,0,.114.005.17.008a5.791,5.791,0,0,1,11.439-.878,3.621,3.621,0,1,1,1.221,7.029H69.639a3.079,3.079,0,0,1,0-6.159Z" fill="#78d2f9"/><path d="M82.47,469.212H69.639a3.647,3.647,0,0,1-.342-7.278,6.359,6.359,0,0,1,12.352-1.016,4.128,4.128,0,0,1,.821-.083,4.19,4.19,0,1,1,.007,8.38H82.47Zm-12.831-6.159a2.512,2.512,0,0,0,0,5.023H82.47a3.054,3.054,0,1,0-1.029-5.927l-.61.219-.137-.632a5.223,5.223,0,0,0-10.318.792l-.034.563Z" fill="#2d2d2d"/><path d="M210.573,449.411l-2.437-2.437-2.433,2.437-.8-.8,3.24-3.24,3.24,3.24Z"/><rect width="1.135" height="28.387" transform="translate(207.568 446.171)"/><path d="M221.928,455.088l-2.437-2.437-2.433,2.437-.8-.8,3.24-3.24,3.24,3.24Z"/><rect width="1.135" height="22.71" transform="translate(218.923 451.848)"/><path d="M71.476,489.153l-2.437-2.437L66.6,489.153l-.8-.8,3.24-3.24,3.24,3.24Z"/><rect width="1.135" height="28.387" transform="translate(68.47 485.913)"/><path d="M60.121,494.83l-2.437-2.437-2.437,2.437-.8-.8,3.24-3.24,3.24,3.24Z"/><rect width="1.135" height="22.71" transform="translate(57.116 491.59)"/><path d="M57.684,571.641a6.245,6.245,0,1,1,6.245-6.245h0A6.253,6.253,0,0,1,57.684,571.641Zm0-11.355a5.11,5.11,0,1,0,5.11,5.11h0A5.113,5.113,0,0,0,57.684,560.286Z" fill="#414042" stroke="#414042" stroke-linecap="round" stroke-miterlimit="10" stroke-width="0.25"/><rect width="1.135" height="5.677" stroke-width="0.25" fill="#414042" stroke="#414042" stroke-linecap="round" stroke-miterlimit="10" transform="translate(57.116 556.88)"/><rect width="1.135" height="5.677" stroke-width="0.25" fill="#414042" stroke="#414042" stroke-linecap="round" stroke-miterlimit="10" transform="translate(57.116 568.235)"/><rect width="5.677" height="1.135" stroke-width="0.25" fill="#414042" stroke="#414042" stroke-linecap="round" stroke-miterlimit="10" transform="translate(49.168 564.828)"/><rect width="5.677" height="1.135" stroke-width="0.25" fill="#414042" stroke="#414042" stroke-linecap="round" stroke-miterlimit="10" transform="translate(60.523 564.828)"/><path d="M202.4,554.614a3.352,3.352,0,1,1,3.353-3.352A3.353,3.353,0,0,1,202.4,554.614Zm0-5.569a2.217,2.217,0,1,0,2.217,2.217h0a2.218,2.218,0,0,0-2.216-2.222h0Z"/><path d="M228.007,548.878a3.352,3.352,0,1,1,3.352-3.352h0A3.355,3.355,0,0,1,228.007,548.878Zm0-5.568a2.216,2.216,0,1,0,2.216,2.216,2.216,2.216,0,0,0-2.216-2.216Z"/><path d="M247.878,565.91a3.352,3.352,0,1,1,3.352-3.352h0A3.355,3.355,0,0,1,247.878,565.91Zm0-5.568a2.216,2.216,0,1,0,2.216,2.216,2.216,2.216,0,0,0-2.216-2.216Z"/><rect width="20.787" height="1.135" transform="translate(204.843 549.621) rotate(-12.939)"/><rect width="1.136" height="20.785" transform="matrix(0.677, -0.736, 0.736, 0.677, 230.219, 546.946)"/><path d="M217.928,497.835H212.25a3.406,3.406,0,0,1,0-6.813h5.678a3.406,3.406,0,0,1,0,6.813Zm-5.678-5.677a2.271,2.271,0,0,0,0,4.542h5.678a2.271,2.271,0,0,0,0-4.542Z" fill="#414042" stroke="#414042" stroke-linecap="round" stroke-linejoin="round" stroke-width="0.25"/><path d="M225.168,500.674h-5.677a3.407,3.407,0,0,1,0-6.813h5.677a3.407,3.407,0,1,1,0,6.813ZM219.491,495a2.271,2.271,0,1,0,0,4.542h5.677a2.271,2.271,0,1,0,.009-4.542h-5.686Z" fill="#414042" stroke="#414042" stroke-linecap="round" stroke-linejoin="round" stroke-width="0.25"/><circle cx="5.677" cy="5.677" r="5.677" transform="translate(34.974 463.203)" fill="#fadd61"/><circle cx="2.61" cy="2.61" r="2.61" transform="translate(55.073 449.237)" fill="#7ad7ff"/><text transform="translate(124.263 536.94)" fill="#fff" font-size="30" font-family="LineAwesome"><tspan x="0" y="0"></tspan></text><path d="M134.263,482.94h-16v-14h16Zm-14-2h12v-10h-12Z" fill="#363f40"/><path d="M132.263,469.94h-2v-6a1,1,0,0,0-1-1h-6a1,1,0,0,0-1,1v6h-2v-6a3,3,0,0,1,3-3h6a3,3,0,0,1,3,3Z" fill="#363f40"/><path d="M162.263,470.94h-26v-2h24v-6h-26v-2h28Z" fill="#363f40"/><path d="M162.263,482.94h-26v-2h24v-6h-24v-2h26Z" fill="#363f40"/><rect width="2" height="2" transform="translate(138.263 464.94)" fill="#363f40"/><rect width="2" height="2" transform="translate(142.263 464.94)" fill="#363f40"/><rect width="2" height="2" transform="translate(146.263 464.94)" fill="#363f40"/><rect width="2" height="2" transform="translate(150.263 464.94)" fill="#363f40"/><rect width="2" height="2" transform="translate(154.263 464.94)" fill="#363f40"/><rect width="2" height="2" transform="translate(138.263 476.94)" fill="#363f40"/><rect width="2" height="2" transform="translate(142.263 476.94)" fill="#363f40"/><rect width="2" height="2" transform="translate(146.263 476.94)" fill="#363f40"/><rect width="2" height="2" transform="translate(150.263 476.94)" fill="#363f40"/><rect width="2" height="2" transform="translate(154.263 476.94)" fill="#363f40"/><rect width="2" height="2" transform="translate(125.263 472.94)" fill="#363f40"/><path d="M133.259,508.94l-6.574-6.572,1.665-1.667,4.909,4.909,4.912-4.909,1.662,1.667Z" fill="#fff"/><rect width="2.355" height="15.925" transform="translate(132.083 489.79)" fill="#fff"/><path d="M141.442,497.178l-1.665-1.666,6.577-6.573,6.574,6.573-1.665,1.666-4.91-4.908Z" fill="#fff"/><rect width="2.355" height="15.925" transform="translate(145.175 492.165)" fill="#fff"/></g></svg>