<svg xmlns="http://www.w3.org/2000/svg" width="204" height="166.309" viewBox="0 0 204 166.309"><g transform="translate(-258.992 -270.194)"><g transform="translate(334.108 305.911)"><g transform="translate(0.686 0.686)"><rect width="110.283" height="129.221" fill="#fff"/></g><g transform="translate(0.686 0.686)"><rect width="110.283" height="11.551" fill="#d1d3d4"/></g><path d="M425.435,426.151h-1.371V297.616H315.151V426.151H313.78V296.245H425.435Z" transform="translate(-313.78 -296.245)" fill="#414042"/><g transform="translate(9.522 5.183)"><path d="M323.281,301.3A1.278,1.278,0,1,1,322,300.026,1.277,1.277,0,0,1,323.281,301.3Z" transform="translate(-320.725 -300.026)" fill="#e7643e"/></g><g transform="translate(14.375 5.183)"><path d="M326.82,301.3a1.278,1.278,0,1,1-1.278-1.278A1.277,1.277,0,0,1,326.82,301.3Z" transform="translate(-324.264 -300.026)" fill="#47cbd7"/></g><g transform="translate(19.227 5.183)"><path d="M330.359,301.3a1.278,1.278,0,1,1-1.278-1.278A1.277,1.277,0,0,1,330.359,301.3Z" transform="translate(-327.803 -300.026)" fill="#f5ab35"/></g><g transform="translate(30.088 5.122)"><rect width="66.821" height="2.888" fill="#fff"/></g><g transform="translate(1.437 11.551)"><rect width="109.533" height="1.371" fill="#414042"/></g><g transform="translate(20.761 23.798)"><rect width="70.133" height="27.081" fill="#47cbd7"/></g><g transform="translate(20.761 53.466)"><rect width="34.23" height="22.844" fill="#f5ab35"/></g><g transform="translate(57.415 53.466)"><rect width="33.479" height="22.844" fill="#e7643e"/></g><g transform="translate(35.381 81.575)"><rect width="41.018" height="2.709" fill="#e6e7e8"/></g><g transform="translate(22.044 90.294)"><rect width="70.218" height="1.947" fill="#f1f2f2"/></g><g transform="translate(22.044 93.829)"><rect width="70.218" height="1.947" fill="#f1f2f2"/></g><g transform="translate(33.668 97.365)"><rect width="46.97" height="1.947" fill="#f1f2f2"/></g><g transform="translate(21.697 108.967)"><rect width="69.197" height="17.671" fill="#e6e7e8"/></g></g><g transform="translate(273.203 361.749)"><g transform="translate(0.685 0.686)"><rect width="40.36" height="73.383" fill="#fff"/></g><path d="M311.087,411.725h-41.73V336.972h41.73Zm-40.359-1.371h38.988V338.343H270.728Z" transform="translate(-269.357 -336.972)" fill="#414042"/><g transform="translate(4.439 7.512)"><rect width="32.851" height="59.73" fill="#f7bc5d"/></g><g transform="translate(16.373 3.516)"><rect width="8.983" height="1.371" fill="#231f20"/></g><g transform="translate(26.367 3.516)"><rect width="0.716" height="1.371" fill="#231f20"/></g><g transform="translate(9.865 18.565)"><g transform="translate(1.855)"><path d="M296.195,359.658a9.145,9.145,0,1,1-9.145-9.145A9.145,9.145,0,0,1,296.195,359.658Z" transform="translate(-277.905 -350.513)" fill="#47cbd7"/></g><g transform="translate(0 20.475)"><rect width="22" height="3.887" rx="1.944" fill="#fffffe"/></g><g transform="translate(0 26.541)"><rect width="22" height="3.887" rx="1.944" fill="#fffffe"/></g><g transform="translate(5.293 32.799)"><rect width="11.413" height="4.825" fill="#e7643e"/></g><text transform="translate(3.925 13.352)" fill="#fff" font-size="14" font-family="LineAwesome"><tspan x="0" y="0"></tspan></text></g></g><g transform="translate(299.248 337.031)"><g transform="translate(0.686 0.689)"><path d="M332.16,417.29a1.488,1.488,0,0,1-1.638.015l-28.054-25.2a40.89,40.89,0,0,1-13.568-30.37l-.044-32.8a1.48,1.48,0,0,1,1.523-1.536c3.947.111,8.913.217,13.542.217a113.728,113.728,0,0,0,12.09-.452c6.872-.842,11.853-4.819,15.02-7.4a1.436,1.436,0,0,1,1.81-.008c3.238,2.589,8.214,6.488,15.19,7.5a83.353,83.353,0,0,0,10.824.5c4.659,0,9.723-.147,13.571-.292A1.47,1.47,0,0,1,373.952,329l-.04,33.1a40.893,40.893,0,0,1-13.875,30.65Z" transform="translate(-288.854 -319.446)" fill="#fff"/></g><g transform="translate(5.732 6.506)"><path d="M330.7,409.929a1.309,1.309,0,0,1-1.445.012l-24.727-22.209a36.046,36.046,0,0,1-11.958-26.768l-.04-28.906a1.308,1.308,0,0,1,1.344-1.355c3.48.1,7.855.192,11.936.192a100.247,100.247,0,0,0,10.656-.4c6.056-.743,10.446-4.247,13.239-6.521a1.262,1.262,0,0,1,1.593-.007c2.856,2.281,7.24,5.719,13.388,6.614a73.814,73.814,0,0,0,9.541.441c4.106,0,8.57-.129,11.961-.258a1.3,1.3,0,0,1,1.346,1.348l-.036,29.173A36.039,36.039,0,0,1,355.275,388.3Z" transform="translate(-292.534 -323.689)" fill="#47cbd7"/></g><path d="M331.514,418.413a2.19,2.19,0,0,1-1.179-.344L302.193,392.8A41.64,41.64,0,0,1,288.4,361.925l-.044-32.8a2.158,2.158,0,0,1,.628-1.584,2.2,2.2,0,0,1,1.6-.64c12.5.352,21.328.277,25.531-.229,6.785-.834,11.721-4.851,14.669-7.25a2.109,2.109,0,0,1,2.669-.012c2.974,2.377,7.951,6.355,14.861,7.361a82.7,82.7,0,0,0,10.724.495c4.789,0,10.01-.158,13.546-.292a2.291,2.291,0,0,1,1.608.629,2.163,2.163,0,0,1,.629,1.611l-.038,33.073a41.6,41.6,0,0,1-14.107,31.162l-27.95,24.594A2.178,2.178,0,0,1,331.514,418.413Zm-40.993-90.138a.795.795,0,0,0-.8.828l.044,32.819a40.272,40.272,0,0,0,13.339,29.861l28.054,25.2a.8.8,0,0,0,.769-.055l27.839-24.5a40.233,40.233,0,0,0,13.64-30.137l.038-33.1a.8.8,0,0,0-.228-.613.734.734,0,0,0-.587-.228c-3.548.133-8.788.292-13.6.292a84.089,84.089,0,0,1-10.922-.509c-7.277-1.061-12.437-5.183-15.52-7.646a.748.748,0,0,0-.946,0c-3.064,2.493-8.191,6.666-15.371,7.548-4.283.514-13.159.591-25.734.239Z" transform="translate(-288.354 -318.943)" fill="#414042"/><g transform="translate(-751.244 -260.295)"><g transform="translate(769.757 290.786)"><path d="M776.058,295.029A3.029,3.029,0,1,1,773.029,292a3.029,3.029,0,0,1,3.029,3.029Z" transform="translate(-770 -292)" fill="#fff"/></g><g transform="translate(772.786 290.786)"><rect width="45.433" height="6.058" transform="translate(0 0)" fill="#fff"/></g><g transform="translate(769.757 293.815)"><path d="M770,296a3.029,3.029,0,0,0,3.029,3.029h45.433v27.26H773.029A3.027,3.027,0,0,1,770,323.26V296Z" transform="translate(-770 -296)" fill="#f9e765"/></g><g transform="translate(772.029 290.029)"><path d="M819.19,292.514H773.757a.757.757,0,0,1,0-1.514H819.19a.757.757,0,1,1,0,1.514Z" transform="translate(-773 -291)" fill="#414042"/></g><g transform="translate(769 293.058)"><path d="M818.219,326.8H772.786A3.79,3.79,0,0,1,769,323.017v-27.26a.757.757,0,0,1,1.514,0,2.274,2.274,0,0,0,2.272,2.272h45.433a.757.757,0,0,1,.757.757v27.26A.757.757,0,0,1,818.219,326.8Zm-47.7-28.019v24.233a2.274,2.274,0,0,0,2.272,2.272h44.676V299.543H772.786A3.766,3.766,0,0,1,770.514,298.785Z" transform="translate(-769 -295)" fill="#414042"/></g><g transform="translate(808.375 305.173)"><path d="M830.844,321.6h-9.087a.756.756,0,0,1-.757-.757v-9.087a.756.756,0,0,1,.757-.757h9.087a.757.757,0,0,1,.757.757v9.087A.757.757,0,0,1,830.844,321.6Zm-8.329-1.514h7.572v-7.572h-7.572Z" transform="translate(-821 -311)" fill="#414042"/></g><g transform="translate(811.404 308.202)"><path d="M827.272,319.543a2.272,2.272,0,1,1,2.272-2.272A2.274,2.274,0,0,1,827.272,319.543Zm0-3.029a.757.757,0,1,0,.757.757A.758.758,0,0,0,827.272,316.514Z" transform="translate(-825 -315)" fill="#414042"/></g><g transform="translate(814.433 299.125)"><path d="M829.757,304.517a.8.8,0,0,1-.538-.22.768.768,0,0,1,0-1.075.76.76,0,1,1,.538,1.295Z" transform="translate(-829 -303.013)" fill="#020210"/></g><g transform="translate(775.058 299.116)"><path d="M813.347,303.757A.759.759,0,0,1,814.1,303h0a.759.759,0,0,1,.757.757h0a.759.759,0,0,1-.757.757h0A.759.759,0,0,1,813.347,303.757Zm-3.029,0a.759.759,0,0,1,.757-.757h0a.759.759,0,0,1,.757.757h0a.759.759,0,0,1-.757.757h0A.759.759,0,0,1,810.318,303.757Zm-3.029,0a.759.759,0,0,1,.757-.757h0a.759.759,0,0,1,.757.757h0a.759.759,0,0,1-.757.757h0A.759.759,0,0,1,807.289,303.757Zm-3.029,0a.759.759,0,0,1,.757-.757h0a.76.76,0,0,1,.757.757h0a.76.76,0,0,1-.757.757h0A.759.759,0,0,1,804.26,303.757Zm-3.029,0a.759.759,0,0,1,.757-.757h0a.759.759,0,0,1,.757.757h0a.759.759,0,0,1-.757.757h0A.759.759,0,0,1,801.231,303.757Zm-3.029,0a.759.759,0,0,1,.757-.757h0a.759.759,0,0,1,.757.757h0a.759.759,0,0,1-.757.757h0A.759.759,0,0,1,798.2,303.757Zm-3.029,0a.76.76,0,0,1,.757-.757h0a.759.759,0,0,1,.757.757h0a.759.759,0,0,1-.757.757h0A.76.76,0,0,1,795.173,303.757Zm-3.029,0A.759.759,0,0,1,792.9,303h0a.759.759,0,0,1,.757.757h0a.759.759,0,0,1-.757.757h0A.759.759,0,0,1,792.144,303.757Zm-3.029,0a.759.759,0,0,1,.757-.757h0a.76.76,0,0,1,.757.757h0a.76.76,0,0,1-.757.757h0A.759.759,0,0,1,789.115,303.757Zm-3.029,0a.759.759,0,0,1,.757-.757h0a.759.759,0,0,1,.757.757h0a.759.759,0,0,1-.757.757h0A.759.759,0,0,1,786.087,303.757Zm-3.029,0a.759.759,0,0,1,.757-.757h0a.759.759,0,0,1,.757.757h0a.759.759,0,0,1-.757.757h0A.759.759,0,0,1,783.058,303.757Zm-3.029,0a.76.76,0,0,1,.757-.757h0a.759.759,0,0,1,.757.757h0a.759.759,0,0,1-.757.757h0A.76.76,0,0,1,780.029,303.757Zm-3.029,0a.759.759,0,0,1,.757-.757h0a.759.759,0,0,1,.757.757h0a.759.759,0,0,1-.757.757h0A.759.759,0,0,1,777,303.757Z" transform="translate(-777 -303)" fill="#020210"/></g><g transform="translate(772.029 299.125)"><path d="M773.757,304.517a.75.75,0,1,1,.538-.22A.785.785,0,0,1,773.757,304.517Z" transform="translate(-773 -303.013)" fill="#020210"/></g><g transform="translate(772.029 320.327)"><path d="M773.757,332.517a.779.779,0,0,1-.538-.22.768.768,0,1,1,.538.22Z" transform="translate(-773 -331.013)" fill="#020210"/></g><g transform="translate(775.058 320.318)"><path d="M813.347,331.757A.759.759,0,0,1,814.1,331h0a.759.759,0,0,1,.757.757h0a.759.759,0,0,1-.757.757h0A.759.759,0,0,1,813.347,331.757Zm-3.029,0a.759.759,0,0,1,.757-.757h0a.759.759,0,0,1,.757.757h0a.759.759,0,0,1-.757.757h0A.759.759,0,0,1,810.318,331.757Zm-3.029,0a.759.759,0,0,1,.757-.757h0a.759.759,0,0,1,.757.757h0a.759.759,0,0,1-.757.757h0A.759.759,0,0,1,807.289,331.757Zm-3.029,0a.759.759,0,0,1,.757-.757h0a.76.76,0,0,1,.757.757h0a.76.76,0,0,1-.757.757h0A.759.759,0,0,1,804.26,331.757Zm-3.029,0a.759.759,0,0,1,.757-.757h0a.759.759,0,0,1,.757.757h0a.759.759,0,0,1-.757.757h0A.759.759,0,0,1,801.231,331.757Zm-3.029,0a.754.754,0,0,1,.757-.757h0a.759.759,0,0,1,.757.757h0a.759.759,0,0,1-.757.757h0A.754.754,0,0,1,798.2,331.757Zm-3.029,0a.76.76,0,0,1,.757-.757h0a.759.759,0,0,1,.757.757h0a.759.759,0,0,1-.757.757h0A.76.76,0,0,1,795.173,331.757Zm-3.029,0A.759.759,0,0,1,792.9,331h0a.759.759,0,0,1,.757.757h0a.759.759,0,0,1-.757.757h0A.759.759,0,0,1,792.144,331.757Zm-3.029,0a.759.759,0,0,1,.757-.757h0a.76.76,0,0,1,.757.757h0a.76.76,0,0,1-.757.757h0A.759.759,0,0,1,789.115,331.757Zm-3.029,0a.759.759,0,0,1,.757-.757h0a.759.759,0,0,1,.757.757h0a.759.759,0,0,1-.757.757h0A.759.759,0,0,1,786.087,331.757Zm-3.029,0a.759.759,0,0,1,.757-.757h0a.759.759,0,0,1,.757.757h0a.759.759,0,0,1-.757.757h0A.759.759,0,0,1,783.058,331.757Zm-3.029,0a.76.76,0,0,1,.757-.757h0a.759.759,0,0,1,.757.757h0a.759.759,0,0,1-.757.757h0A.76.76,0,0,1,780.029,331.757Zm-3.029,0a.759.759,0,0,1,.757-.757h0a.759.759,0,0,1,.757.757h0a.759.759,0,0,1-.757.757h0A.759.759,0,0,1,777,331.757Z" transform="translate(-777 -331)" fill="#020210"/></g><g transform="translate(814.433 320.327)"><path d="M829.757,332.517a.8.8,0,0,1-.538-.22.768.768,0,0,1,0-1.075.76.76,0,1,1,.538,1.295Z" transform="translate(-829 -331.013)" fill="#020210"/></g><g transform="translate(775.815 287.757)"><path d="M796.173,294.058v-3.029A3.038,3.038,0,0,0,793.144,288H781.029A3.038,3.038,0,0,0,778,291.029v3.029Z" transform="translate(-778 -288)" fill="#4482f5"/></g><g transform="translate(775.058 287)"><path d="M795.931,294.572a.757.757,0,0,1-.757-.757v-3.029a2.274,2.274,0,0,0-2.272-2.272H780.786a2.274,2.274,0,0,0-2.272,2.272v3.029a.757.757,0,1,1-1.514,0v-3.029A3.79,3.79,0,0,1,780.786,287H792.9a3.79,3.79,0,0,1,3.786,3.786v3.029A.757.757,0,0,1,795.931,294.572Z" transform="translate(-777 -287)" fill="#414042"/></g><g transform="translate(772.029 293.058)"><path d="M819.19,296.514H773.757a.757.757,0,0,1,0-1.514H819.19a.757.757,0,1,1,0,1.514Z" transform="translate(-773 -295)" fill="#414042"/></g><g transform="translate(769 290.029)"><path d="M769.757,295.543a.757.757,0,0,1-.757-.757A3.79,3.79,0,0,1,772.786,291a.757.757,0,1,1,0,1.514,2.274,2.274,0,0,0-2.272,2.272A.756.756,0,0,1,769.757,295.543Z" transform="translate(-769 -291)" fill="#414042"/></g></g></g><g transform="translate(389.099 402.204)"><rect width="65.528" height="33.614" fill="#47cbd7"/><g transform="translate(19.295 3.942)"><circle cx="10.042" cy="10.042" r="10.042" transform="translate(0 7.256) rotate(-21.179)" fill="#3598a1"/></g><g transform="translate(5.05 3.776)"><path d="M371.664,395.55h-6.316A2.066,2.066,0,0,1,363.4,393.9a5.28,5.28,0,0,0-4.153-4.019,1.994,1.994,0,0,1-1.678-1.906V377.031a2,2,0,0,1,1.678-1.907,5.332,5.332,0,0,0,4.213-4.213,2,2,0,0,1,1.907-1.678h6.593V370.6H365.37a.642.642,0,0,0-.559.562,6.712,6.712,0,0,1-5.3,5.3.645.645,0,0,0-.563.561v10.946a.645.645,0,0,0,.565.559,6.652,6.652,0,0,1,5.232,5.058.716.716,0,0,0,.607.584h6.316Z" transform="translate(-357.572 -369.233)" fill="#414042"/></g><g transform="translate(46.088 3.776)"><path d="M393.605,395.55h-6.1v-1.371h6.1a.716.716,0,0,0,.609-.585,6.649,6.649,0,0,1,5.232-5.056.646.646,0,0,0,.565-.559V377.031a.643.643,0,0,0-.562-.559,6.711,6.711,0,0,1-5.306-5.3.646.646,0,0,0-.559-.564h-4.756v-1.371h4.756a1.993,1.993,0,0,1,1.906,1.678,5.333,5.333,0,0,0,4.213,4.215,1.99,1.99,0,0,1,1.68,1.906v10.946a1.994,1.994,0,0,1-1.678,1.906,5.284,5.284,0,0,0-4.154,4.017A2.065,2.065,0,0,1,393.605,395.55Z" transform="translate(-387.504 -369.233)" fill="#414042"/></g><g transform="translate(12.298 14.304)"><path d="M367.542,379.254a2.342,2.342,0,1,1-2.342-2.342A2.342,2.342,0,0,1,367.542,379.254Z" transform="translate(-362.859 -376.912)" fill="#3598a1"/></g><g transform="translate(47.592 14.304)"><path d="M393.284,379.254a2.342,2.342,0,1,1-2.342-2.342A2.342,2.342,0,0,1,393.284,379.254Z" transform="translate(-388.601 -376.912)" fill="#3598a1"/></g><g transform="translate(28.874 11.838)"><path d="M377.847,385.305v-.9a5.653,5.653,0,0,1-2.9-1.424l1.152-1.4a5,5,0,0,0,1.747,1.078V380.81a4.408,4.408,0,0,1-1.907-.9,2.1,2.1,0,0,1-.607-1.622,2.351,2.351,0,0,1,.694-1.745,3.008,3.008,0,0,1,1.821-.824v-.607h1.312v.632a5.685,5.685,0,0,1,2.465,1.028l-1.016,1.46a4.747,4.747,0,0,0-1.449-.743v1.784a4.646,4.646,0,0,1,1.976.93,2.116,2.116,0,0,1,.638,1.647,2.352,2.352,0,0,1-.712,1.759,3.152,3.152,0,0,1-1.9.83v.866Zm0-7.864a.688.688,0,0,0-.532.681.816.816,0,0,0,.532.755Zm1.944,4.508a.684.684,0,0,0-.136-.433,1.227,1.227,0,0,0-.5-.322v1.523A.77.77,0,0,0,379.792,381.949Z" transform="translate(-374.949 -375.113)" fill="#414042"/></g></g><g transform="translate(263.699 435.132)"><rect width="197.118" height="1.371" fill="#414042"/></g><g transform="translate(280.352 295.946)"><g transform="translate(1.717 1.102)"><circle cx="16.933" cy="16.933" r="16.933" transform="translate(0 32.95) rotate(-76.646)" fill="#e7643e"/></g><g transform="translate(14.52 15.186)"><path d="M291.1,313.419l-5.941-5.94,2.608-2.608,3.3,3.3,7.929-8.12,2.639,2.577Z" transform="translate(-285.162 -300.053)" fill="#fff"/></g><g transform="translate(22.073 0.958)"><rect width="1.371" height="2.547" fill="#414042"/></g><g transform="translate(28.216 0)"><rect width="4.801" height="1.371" transform="translate(0 4.512) rotate(-70.006)" fill="#414042"/></g><g transform="translate(33.704 5.865)"><rect width="2.426" height="1.373" transform="translate(0 1.628) rotate(-42.154)" fill="#414042"/></g><g transform="translate(37.692 10.013)"><rect width="4.558" height="1.371" transform="translate(0 2.27) rotate(-29.867)" fill="#414042"/></g><g transform="translate(39.882 17.763)"><rect width="2.015" height="1.37" transform="matrix(0.985, -0.172, 0.172, 0.985, 0, 0.347)" fill="#414042"/></g><g transform="translate(39.592 24.362)"><rect width="1.371" height="4.214" transform="translate(0 1.291) rotate(-70.282)" fill="#414042"/></g><g transform="translate(37.18 30.199)"><path d="M303.693,313.354l-2-1.165.688-1.186,2,1.165Z" transform="translate(-301.69 -311.003)" fill="#414042"/></g><g transform="translate(32.857 35.002)"><rect width="1.373" height="4.031" transform="translate(0 0.878) rotate(-39.773)" fill="#414042"/></g><g transform="translate(27.256 38.158)"><rect width="1.371" height="1.725" transform="matrix(0.941, -0.338, 0.338, 0.941, 0, 0.463)" fill="#414042"/></g><g transform="translate(21.056 39.283)"><rect width="1.371" height="4.032" fill="#414042"/></g><g transform="translate(14.172 37.772)"><rect width="2.393" height="1.371" transform="translate(0 2.244) rotate(-69.657)" fill="#414042"/></g><g transform="translate(6.56 34.322)"><rect width="5.471" height="1.371" transform="matrix(0.594, -0.805, 0.805, 0.594, 0, 4.402)" fill="#414042"/></g><g transform="translate(4.306 29.219)"><rect width="2.126" height="1.372" transform="matrix(0.892, -0.453, 0.453, 0.892, 0, 0.962)" fill="#414042"/></g><g transform="translate(0 23.249)"><rect width="4.546" height="1.371" transform="translate(0 1.092) rotate(-13.899)" fill="#414042"/></g><g transform="translate(2.48 16.616)"><rect width="1.372" height="2.219" transform="matrix(0.181, -0.983, 0.983, 0.181, 0, 1.35)" fill="#414042"/></g><g transform="translate(3.292 9.284)"><rect width="1.371" height="4.031" transform="matrix(0.507, -0.862, 0.862, 0.507, 0, 1.182)" fill="#414042"/></g><g transform="translate(9.739 5.378)"><rect width="1.37" height="1.825" transform="matrix(0.852, -0.523, 0.523, 0.852, 0, 0.717)" fill="#414042"/></g><g transform="translate(14.206 0.255)"><rect width="1.371" height="4.278" transform="translate(0 0.628) rotate(-27.271)" fill="#414042"/></g></g><g transform="translate(384.801 290.521)"><path d="M352.931,289.374a2.177,2.177,0,1,1,2.179-2.177A2.179,2.179,0,0,1,352.931,289.374Zm0-2.983a.806.806,0,1,0,.808.806A.807.807,0,0,0,352.931,286.391Z" transform="translate(-350.754 -285.02)" fill="#414042"/></g><g transform="translate(458.638 298.14)"><path d="M406.788,294.931a2.177,2.177,0,1,1,2.176-2.177A2.18,2.18,0,0,1,406.788,294.931Zm0-2.983a.806.806,0,1,0,.8.806A.808.808,0,0,0,406.788,291.948Z" transform="translate(-404.609 -290.577)" fill="#414042"/></g><g transform="translate(290.408 344.95)"><path d="M284.085,329.075a2.178,2.178,0,1,1,2.177-2.177A2.18,2.18,0,0,1,284.085,329.075Zm0-2.985a.807.807,0,1,0,.806.808A.81.81,0,0,0,284.085,326.09Z" transform="translate(-281.906 -324.719)" fill="#414042"/></g><g transform="translate(332.674 292.012)"><rect width="36.618" height="1.371" fill="#414042"/><g transform="translate(38.179)"><rect width="3.164" height="1.371" fill="#414042"/></g><g transform="translate(42.865)"><rect width="3.163" height="1.371" fill="#414042"/></g></g><g transform="translate(258.992 346.441)"><rect width="22.052" height="1.371" fill="#414042"/><g transform="translate(22.993)"><rect width="1.905" height="1.371" fill="#414042"/></g><g transform="translate(25.814)"><rect width="1.905" height="1.371" fill="#414042"/></g></g><g transform="translate(371.257 299.632)"><rect width="19.512" height="1.371" fill="#414042"/></g><g transform="translate(420.486 300.006)"><rect width="32.748" height="1.371" fill="#414042"/></g><g transform="translate(398.361 270.194)"><g transform="translate(0 0.062)"><path d="M374.8,298.536a14.269,14.269,0,0,1-2.859-.288l.273-1.344a12.865,12.865,0,0,0,2.586.26Zm-5.606-1.15a14.284,14.284,0,0,1-2.512-1.4l.787-1.124a12.831,12.831,0,0,0,2.269,1.264Zm-4.689-3.275a14.275,14.275,0,0,1-1.758-2.276l1.165-.724a12.732,12.732,0,0,0,1.586,2.054Zm-3.018-4.862a14.022,14.022,0,0,1-.713-2.786l1.356-.2a12.779,12.779,0,0,0,.642,2.516Zm.522-5.587-1.368-.073a14.007,14.007,0,0,1,.443-2.841l1.326.348A12.788,12.788,0,0,0,362.012,283.661Zm1.313-5-1.23-.61a14.317,14.317,0,0,1,1.536-2.432l1.08.846A12.748,12.748,0,0,0,363.326,278.665Zm3.186-4.072-.888-1.043a14.221,14.221,0,0,1,2.368-1.632l.659,1.2A12.851,12.851,0,0,0,366.512,274.593Zm4.53-2.484-.4-1.312a14.209,14.209,0,0,1,2.82-.558l.129,1.366A12.57,12.57,0,0,0,371.042,272.109Z" transform="translate(-360.644 -270.239)" fill="#414042"/></g><g transform="translate(14.159)"><path d="M370.971,298.553v-1.371a12.808,12.808,0,0,0,0-25.616v-1.371a14.179,14.179,0,0,1,0,28.359Z" transform="translate(-370.971 -270.194)" fill="#414042"/></g><g transform="translate(6.913 6.933)"><path d="M373.313,289.744l-.8,0a1.376,1.376,0,0,1-1.371-1.381l0-.547a5.537,5.537,0,0,1-.736-.307l-.388.385a1.372,1.372,0,0,1-.969.4h0a1.365,1.365,0,0,1-.975-.409l-.559-.563a1.374,1.374,0,0,1,.007-1.945l.388-.387a5.632,5.632,0,0,1-.3-.735l-.546,0a1.376,1.376,0,0,1-1.37-1.385l.005-.8a1.364,1.364,0,0,1,.406-.973,1.447,1.447,0,0,1,.976-.4l.544,0a5.235,5.235,0,0,1,.309-.735l-.387-.389a1.379,1.379,0,0,1,.011-1.945l.568-.561a1.358,1.358,0,0,1,.967-.4h0a1.373,1.373,0,0,1,.979.407l.385.391a5.267,5.267,0,0,1,.709-.291v-.55a1.378,1.378,0,0,1,1.377-1.375h.8a1.379,1.379,0,0,1,1.378,1.375v.55a5.7,5.7,0,0,1,.733.3l.388-.387a1.376,1.376,0,0,1,1.944,0l.566.569a1.372,1.372,0,0,1-.005,1.946l-.384.385a5.751,5.751,0,0,1,.306.738l.55,0a1.375,1.375,0,0,1,1.37,1.374v.8a1.384,1.384,0,0,1-1.378,1.375h-.547a5.5,5.5,0,0,1-.307.738l.385.389a1.37,1.37,0,0,1-.007,1.945l-.559.561a1.391,1.391,0,0,1-1.948,0l-.389-.392a5.6,5.6,0,0,1-.735.3l0,.551A1.375,1.375,0,0,1,373.313,289.744Zm-3.115-3.962.462.293a4.263,4.263,0,0,0,1.324.554l.535.122-.008,1.616.8.005.01-1.618.533-.121a4.254,4.254,0,0,0,1.326-.547l.463-.291,1.139,1.149.57-.566-1.134-1.153.291-.462a4.214,4.214,0,0,0,.553-1.323l.119-.536,1.615,0,.005-.8,0,0-1.612-.007-.119-.531a4.221,4.221,0,0,0-.55-1.323l-.295-.463,1.143-1.145-.564-.573-1.15,1.143-.463-.295a4.253,4.253,0,0,0-1.322-.547l-.532-.122v-1.615l-.8,0-.005,1.622-.536.121a4.221,4.221,0,0,0-1.3.535l-.465.288-1.134-1.146-.576.564,1.137,1.154-.295.462a4.2,4.2,0,0,0-.554,1.319l-.123.535-1.614-.007-.008.806,1.614.011.119.531a4.252,4.252,0,0,0,.547,1.322l.295.465-1.149,1.145.561.57Zm2.735-.409a2.875,2.875,0,1,1,2.875-2.879A2.881,2.881,0,0,1,372.933,285.373Zm0-4.379a1.5,1.5,0,1,0,1.5,1.5A1.5,1.5,0,0,0,372.933,280.994Z" transform="translate(-365.686 -275.251)" fill="#414042"/></g></g><g transform="translate(261.005 323.483)"><g transform="translate(0 2.008)"><rect width="5.386" height="1.371" fill="#414042"/></g><g transform="translate(2.008)"><rect width="1.371" height="5.386" fill="#414042"/></g></g><g transform="translate(321.6 283.066)"><g transform="translate(0 2.007)"><rect width="5.388" height="1.371" fill="#414042"/></g><g transform="translate(2.008)"><rect width="1.371" height="5.386" fill="#414042"/></g></g><g transform="translate(451.551 332.166)"><g transform="translate(0 1.477)"><rect width="4.326" height="1.371" fill="#414042"/></g><g transform="translate(1.477)"><rect width="1.371" height="4.326" fill="#414042"/></g></g><g transform="translate(364.246 276.129)"><path d="M341.637,281.307l-5.875-3.393,5.875-3.391Zm-3.133-3.393,1.762,1.019V276.9Z" transform="translate(-335.762 -274.523)" fill="#414042"/></g><g transform="translate(284.793 280.983)"><path d="M283.686,284.847l-5.875-3.393,5.875-3.391Zm-3.133-3.393,1.762,1.019v-2.035Z" transform="translate(-277.811 -278.063)" fill="#414042"/></g><g transform="translate(267.424 287.861)"><path d="M265.142,289.865V283.08l5.875,3.392Zm1.371-4.409v2.033l1.762-1.017Z" transform="translate(-265.142 -283.08)" fill="#414042"/></g></g></svg>