<svg xmlns="http://www.w3.org/2000/svg" width="424" height="256" viewBox="0 0 424 256"><g transform="translate(-173.192 -541.804)"><g transform="translate(252.242 590.371)"><g transform="translate(273.466 204.005)"><path d="M774.235,964.475l-2.125-1.016q.5-1.051.989-2.114l2.141.98Q774.746,963.4,774.235,964.475Z" transform="translate(-772.11 -961.346)" fill="#282d33"/></g><g transform="translate(0 0)"><path d="M586.123,815.432l-2.173-.908c.6-1.439,1.188-2.91,1.743-4.372l2.2.835C587.33,812.473,586.735,813.968,586.123,815.432Zm-267.432-.148c-.612-1.468-1.206-2.964-1.767-4.448l2.2-.833c.552,1.459,1.137,2.932,1.739,4.375Zm270.825-8.8-2.228-.761c.5-1.475.991-2.981,1.448-4.479l2.252.688C590.524,803.454,590.029,804.986,589.516,806.485Zm-274.21-.155c-.512-1.5-1.006-3.036-1.467-4.556l2.253-.685c.454,1.5.94,3,1.443,4.482Zm277-9-2.274-.611c.405-1.507.791-3.043,1.146-4.565l2.293.536C593.112,794.241,592.72,795.8,592.307,797.333Zm-279.784-.162c-.411-1.534-.8-3.1-1.161-4.645l2.294-.533c.353,1.522.738,3.059,1.142,4.569Zm281.96-9.155-2.31-.459c.3-1.53.587-3.089.841-4.631l2.323.383C595.081,784.878,594.794,786.462,594.484,788.017Zm-284.126-.17c-.307-1.555-.593-3.141-.85-4.711l2.324-.38c.253,1.545.533,3.1.835,4.634Zm285.68-9.27-2.335-.3c.2-1.548.381-3.121.533-4.676l2.344.228C596.425,775.405,596.243,777,596.037,778.577ZM308.815,778.4c-.2-1.573-.384-3.173-.536-4.757l2.344-.226c.15,1.558.327,3.133.527,4.68Zm288.149-9.343-2.35-.151c.1-1.558.176-3.14.225-4.7l2.354.074C597.143,765.865,597.066,767.473,596.964,769.057ZM307.9,768.87c-.1-1.584-.175-3.193-.223-4.782l2.354-.071c.047,1.564.121,3.147.219,4.705ZM594.91,759.5c0-1.564-.029-3.147-.081-4.707l2.354-.078c.053,1.585.081,3.194.082,4.783Zm-284.945-.19-2.355-.005c0-1.59.034-3.2.088-4.782l2.353.082C310,756.16,309.968,757.743,309.965,759.307Zm284.63-9.218c-.1-1.557-.233-3.136-.387-4.69l2.343-.233c.157,1.58.29,3.184.394,4.768Zm-284.3-.19-2.35-.158c.107-1.585.241-3.189.4-4.767l2.343.235C310.53,746.763,310.4,748.34,310.292,749.9Zm283.374-9.176c-.206-1.55-.44-3.116-.7-4.654l2.323-.387c.261,1.564.5,3.156.708,4.732Zm-282.433-.188-2.334-.313c.211-1.573.451-3.165.714-4.731l2.323.39C311.678,737.422,311.441,738.988,311.234,740.535Zm280.887-9.1c-.308-1.533-.645-3.08-1-4.6l2.293-.54c.364,1.544.706,3.117,1.02,4.675Zm-279.328-.186-2.308-.466c.314-1.554.659-3.126,1.026-4.673l2.291.542C313.44,728.179,313.1,729.726,312.792,731.254Zm277.17-8.974c-.409-1.508-.848-3.029-1.306-4.522l2.251-.691c.466,1.518.913,3.064,1.328,4.6Zm-275-.184-2.272-.619c.418-1.534.867-3.08,1.335-4.6l2.25.695C315.815,719.067,315.374,720.588,314.963,722.1Zm272.232-8.828c-.509-1.481-1.051-2.974-1.61-4.438l2.2-.84c.568,1.489,1.119,3.007,1.637,4.511ZM317.737,713.1l-2.226-.769c.519-1.5,1.07-3.014,1.637-4.5l2.2.842C318.789,710.139,318.247,711.626,317.737,713.1Zm266.091-8.653c-.609-1.447-1.248-2.9-1.9-4.317l2.139-.985c.664,1.442,1.314,2.919,1.933,4.389Zm-262.73-.122-2.169-.915c.615-1.459,1.263-2.927,1.926-4.365l2.138.987C322.341,701.449,321.7,702.893,321.1,704.328Zm258.785-8.447c-.7-1.4-1.436-2.805-2.183-4.179l2.069-1.125c.759,1.4,1.506,2.827,2.219,4.249ZM325.03,695.8l-2.1-1.056c.711-1.417,1.455-2.84,2.212-4.231l2.068,1.126C326.462,693.011,325.729,694.411,325.03,695.8ZM575.381,687.6c-.793-1.351-1.619-2.705-2.454-4.024l1.99-1.259c.848,1.341,1.688,2.717,2.494,4.091Zm-245.862-.044-2.03-1.193c.8-1.366,1.64-2.738,2.487-4.078l1.99,1.259C331.132,684.861,330.309,686.21,329.519,687.554Zm240.823-7.921c-.88-1.294-1.792-2.59-2.713-3.852l1.9-1.388c.936,1.283,1.864,2.6,2.758,3.916Zm-235.8-.02-1.947-1.325c.893-1.312,1.819-2.626,2.752-3.907l1.9,1.388C336.334,677.029,335.423,678.323,334.545,679.614Zm230.247-7.592c-.961-1.23-1.956-2.463-2.96-3.664l1.807-1.51c1.02,1.222,2.032,2.474,3.008,3.724Zm-224.706,0-1.856-1.449c.976-1.25,1.986-2.5,3-3.72l1.807,1.51C342.041,669.557,341.046,670.787,340.086,672.017Zm6.03-7.22-1.757-1.569c1.059-1.185,2.149-2.367,3.243-3.515l1.7,1.625C348.231,662.467,347.158,663.631,346.117,664.8Zm212.639,0c-1.039-1.164-2.114-2.328-3.192-3.46l1.7-1.625c1.1,1.15,2.188,2.333,3.245,3.517Zm-206.144-6.808-1.65-1.68c1.134-1.114,2.3-2.223,3.468-3.3l1.594,1.733C354.875,655.8,353.727,656.89,352.611,657.987Zm199.648,0c-1.115-1.094-2.262-2.185-3.411-3.242l1.594-1.733c1.167,1.073,2.334,2.182,3.468,3.294Zm-192.718-6.368L358,649.829c1.2-1.036,2.441-2.066,3.679-3.063l1.477,1.834C361.942,649.581,360.724,650.6,359.541,651.614Zm185.792,0c-1.181-1.017-2.4-2.03-3.615-3.01l1.477-1.834c1.237,1,2.474,2.026,3.674,3.06Zm-7.326-5.9c-1.246-.937-2.526-1.867-3.8-2.764l1.353-1.927c1.3.912,2.6,1.857,3.866,2.81Zm-171.13-.006-1.415-1.882c1.271-.956,2.575-1.9,3.874-2.815l1.353,1.927C369.41,643.836,368.127,644.768,366.876,645.708Zm163.435-5.4c-1.3-.852-2.642-1.7-3.975-2.507l1.223-2.012c1.355.824,2.714,1.681,4.04,2.549ZM374.589,640.3l-1.289-1.971c1.328-.868,2.692-1.728,4.053-2.554l1.223,2.012C377.237,638.6,375.9,639.442,374.589,640.3Zm147.693-4.864c-1.356-.765-2.746-1.518-4.129-2.238l1.088-2.088c1.406.732,2.818,1.5,4.2,2.275ZM382.644,635.4l-1.156-2.052c1.388-.781,2.806-1.549,4.215-2.282l1.087,2.089C385.4,633.879,384.01,634.634,382.644,635.4Zm131.309-4.308c-1.4-.673-2.84-1.332-4.265-1.959l.947-2.156c1.449.637,2.908,1.306,4.336,1.992Zm-122.943-.042-1.017-2.124c1.435-.687,2.9-1.359,4.359-2l.945,2.156C393.865,629.714,392.422,630.376,391.01,631.052Zm114.351-3.732c-1.451-.58-2.93-1.145-4.4-1.677l.8-2.214c1.492.541,3,1.115,4.471,1.7Zm-105.711-.055-.872-2.187c1.48-.591,2.99-1.164,4.486-1.7l.8,2.215C402.591,626.12,401.107,626.684,399.65,627.265Zm96.862-3.151c-1.486-.483-3-.947-4.5-1.38l.653-2.262c1.525.44,3.064.913,4.574,1.4Zm-87.982-.054-.725-2.241c1.51-.489,3.05-.959,4.576-1.4l.649,2.264C411.53,623.117,410.015,623.579,408.53,624.06Zm78.939-2.556c-1.515-.383-3.056-.745-4.581-1.077l.5-2.3c1.551.337,3.118.706,4.658,1.1Zm-69.894-.043L417,619.178c1.537-.387,3.1-.754,4.659-1.09l.5,2.3C420.631,620.72,419.089,621.081,417.576,621.462Zm60.7-1.959c-1.534-.281-3.1-.54-4.643-.772l.347-2.329c1.572.234,3.16.5,4.72.784Zm-51.5-.032-.422-2.317c1.561-.284,3.149-.546,4.72-.778l.344,2.33C429.872,618.934,428.31,619.192,426.775,619.471Zm42.19-1.357c-1.552-.179-3.128-.335-4.684-.463l.193-2.347c1.582.129,3.184.288,4.761.47Zm-32.88-.02-.267-2.34c1.575-.18,3.177-.336,4.761-.465l.191,2.348C439.21,617.763,437.634,617.917,436.085,618.094Zm23.5-.752c-1.56-.077-3.143-.13-4.7-.155l.039-2.355c1.588.027,3.2.08,4.782.158Zm-14.118-.009-.114-2.352c1.582-.077,3.191-.128,4.781-.153l.037,2.355C448.606,617.208,447.023,617.259,445.466,617.333Z" transform="translate(-307.61 -614.829)" fill="#1366ff"/></g><g transform="translate(13.06 204.005)"><path d="M330.8,964.475q-.511-1.069-1-2.149l2.141-.98q.487,1.061.989,2.114Z" transform="translate(-329.793 -961.346)" fill="#282d33"/></g></g><g transform="translate(288.192 626.266)"><g transform="translate(196.195 169.098)"><path d="M703.786,965.335l-1.926-1.355c.223-.317.444-.636.663-.956l1.942,1.333Q704.128,964.848,703.786,965.335Z" transform="translate(-701.86 -963.024)" fill="#1366ff"/></g><g transform="translate(0 0)"><path d="M568.731,844.257l-1.971-1.289q.636-.972,1.252-1.959l2,1.246Q569.381,843.263,568.731,844.257Zm-182.463-.076q-.649-.994-1.278-2l2-1.245q.615.988,1.25,1.961Zm184.976-3.955-2.025-1.2q.593-1,1.165-2.011l2.051,1.157Q571.851,839.2,571.244,840.226Zm-187.487-.081q-.606-1.022-1.19-2.058l2.052-1.156q.571,1.014,1.164,2.014Zm189.823-4.056-2.075-1.113q.548-1.024,1.076-2.06l2.1,1.067Q574.141,835.043,573.58,836.089ZM381.423,836q-.561-1.047-1.1-2.109l2.1-1.065q.526,1.038,1.074,2.062Zm194.309-4.149-2.122-1.021q.5-1.046.984-2.105l2.144.974Q576.247,830.784,575.732,831.854Zm-196.46-.092q-.514-1.07-1.006-2.155l2.145-.972q.48,1.06.983,2.108ZM577.7,827.529l-2.165-.927q.457-1.068.891-2.146l2.185.879Q578.164,826.439,577.7,827.529Zm-200.387-.1q-.466-1.092-.91-2.2l2.185-.877q.435,1.081.89,2.15Zm202.16-4.308-2.2-.831q.41-1.086.8-2.182l2.221.782Q579.888,822.013,579.47,823.123Zm-203.931-.106q-.418-1.112-.812-2.235l2.221-.78q.387,1.1.795,2.187Zm205.509-4.373-2.238-.734q.361-1.1.7-2.215l2.254.684Q581.417,817.516,581.048,818.643Zm-207.084-.115q-.368-1.129-.713-2.268l2.254-.682q.337,1.115.7,2.22Zm208.464-4.43-2.268-.635q.312-1.116.6-2.244l2.281.585Q582.746,812.958,582.427,814.1Zm-209.84-.124q-.318-1.144-.612-2.3l2.282-.582q.288,1.129.6,2.248ZM583.605,809.5l-2.294-.534q.263-1.13.5-2.267l2.3.483Q583.875,808.344,583.605,809.5Zm-212.193-.134q-.268-1.157-.511-2.323l2.305-.482q.237,1.142.5,2.274Zm213.168-4.512-2.315-.433q.213-1.139.4-2.287l2.324.382Q584.8,803.688,584.58,804.853Zm-214.139-.146q-.216-1.168-.408-2.344l2.324-.379q.188,1.151.4,2.293Zm214.91-4.538-2.332-.331q.163-1.147.3-2.3l2.338.281Q585.517,799,585.351,800.169Zm-215.675-.158q-.166-1.176-.306-2.36l2.338-.277q.137,1.158.3,2.309Zm216.24-4.554-2.344-.23q.113-1.153.2-2.312l2.348.178Q586.032,794.28,585.916,795.457Zm-216.8-.172q-.114-1.182-.2-2.371l2.348-.174q.087,1.163.2,2.32Zm217.161-4.558-2.351-.128q.063-1.157.1-2.319l2.354.077Q586.341,789.544,586.276,790.726Zm-217.514-.188q-.062-1.185-.1-2.378l2.354-.073q.036,1.166.1,2.327Zm217.67-4.554-2.355-.026q.007-.622.007-1.243,0-.542-.005-1.082l2.355-.024q.005.552.005,1.106Q586.44,785.35,586.432,785.984Zm-217.818-.2q-.005-.533-.005-1.067,0-.657.008-1.313l2.355.028q-.008.642-.008,1.284,0,.524.005,1.045Zm215.417-4.474q-.037-1.165-.1-2.323l2.352-.124q.063,1.183.1,2.374Zm-213.008-.2-2.354-.078q.039-1.19.1-2.374l2.351.13Q371.062,779.943,371.024,781.108Zm212.762-4.444q-.087-1.162-.2-2.316l2.344-.226q.113,1.18.2,2.367Zm-212.507-.2-2.348-.18q.09-1.186.207-2.367l2.343.231Q371.367,775.3,371.278,776.465Zm212.06-4.428q-.137-1.157-.3-2.305l2.332-.328q.164,1.175.3,2.356Zm-211.6-.2-2.338-.281q.142-1.182.31-2.356l2.331.332Q371.873,770.682,371.734,771.839Zm210.957-4.4q-.188-1.15-.4-2.29l2.315-.43q.216,1.166.408,2.341Zm-210.3-.2-2.324-.384q.193-1.174.412-2.34l2.315.434Q372.579,766.088,372.39,767.237Zm209.452-4.374q-.238-1.139-.5-2.27l2.294-.531q.268,1.155.51,2.321Zm-208.6-.2-2.3-.484q.245-1.165.515-2.32l2.293.536Q373.487,761.528,373.247,762.667Zm207.547-4.334q-.287-1.128-.6-2.245l2.269-.631q.318,1.142.612,2.3Zm-206.49-.193-2.281-.586q.3-1.152.616-2.295l2.267.636Q374.594,757.013,374.3,758.141Zm205.245-4.285q-.338-1.119-.7-2.227l2.239-.731q.369,1.133.715,2.276Zm-203.991-.191-2.252-.686q.346-1.138.716-2.265l2.238.735Q375.9,752.551,375.558,753.665ZM578.1,749.419q-.386-1.1-.8-2.192l2.2-.828q.419,1.114.814,2.241Zm-201.092-.171-2.221-.784q.4-1.122.815-2.232l2.2.832Q377.4,748.151,377.008,749.248Zm199.452-4.194q-.435-1.084-.892-2.155l2.166-.924q.467,1.1.911,2.2ZM378.651,744.9l-2.184-.881q.443-1.1.909-2.186l2.164.928Q379.084,743.823,378.651,744.9Zm195.978-4.133q-.481-1.062-.985-2.112l2.123-1.019q.516,1.073,1.007,2.159Zm-194.153-.125-2.143-.975q.49-1.079,1-2.145l2.122,1.021Q380.956,739.586,380.476,740.641Zm192.137-4.076q-.527-1.039-1.077-2.066l2.076-1.112q.562,1.049,1.1,2.112Zm-190.126-.1-2.1-1.068q.538-1.056,1.1-2.1l2.076,1.113Q383.013,735.432,382.487,736.465Zm187.928-4.007q-.572-1.015-1.166-2.016l2.026-1.2q.606,1.023,1.191,2.06Zm-185.735-.079-2.05-1.159q.583-1.032,1.188-2.051l2.025,1.2Q385.25,731.37,384.679,732.38Zm183.36-3.927q-.616-.988-1.253-1.962l1.972-1.288q.651,1,1.28,2.006Zm-180.991-.062-2-1.246q.629-1.007,1.278-2l1.97,1.289Q387.663,727.406,387.048,728.391Zm178.444-3.834q-.658-.961-1.336-1.905l1.913-1.374q.693.966,1.366,1.948Zm-175.9-.049-1.942-1.332q.671-.978,1.363-1.942l1.913,1.374Q390.246,723.55,389.59,724.508Zm173.189-3.733q-.7-.93-1.418-1.844l1.852-1.455q.734.934,1.448,1.885Zm-170.48-.038-1.882-1.416q.714-.948,1.447-1.881l1.851,1.456Q393,719.809,392.3,720.737Zm167.605-3.62q-.738-.9-1.5-1.781L560.2,713.8q.775.9,1.529,1.82Zm-164.735-.031-1.819-1.5q.754-.917,1.528-1.817l1.786,1.535Q395.908,716.189,395.17,717.086Zm161.705-3.5q-.776-.865-1.571-1.714l1.719-1.61q.812.866,1.605,1.751ZM398.2,713.562l-1.753-1.573q.794-.884,1.605-1.75l1.718,1.611Q398.973,712.7,398.2,713.562ZM553.7,710.2q-.813-.831-1.644-1.644l1.647-1.683q.849.831,1.68,1.68Zm-152.321-.024-1.682-1.648q.831-.849,1.68-1.679l1.647,1.683Q402.19,709.341,401.375,710.172Zm149-3.228q-.848-.794-1.713-1.571l1.573-1.753q.884.793,1.75,1.6ZM404.7,706.921l-1.61-1.719q.868-.812,1.752-1.6l1.572,1.753Q405.548,706.127,404.7,706.921Zm142.215-3.08q-.881-.757-1.779-1.494l1.495-1.82q.918.753,1.818,1.527Zm-138.753-.024-1.534-1.787q.9-.774,1.82-1.528l1.495,1.82Q409.044,703.059,408.162,703.817Zm135.164-2.925q-.912-.717-1.841-1.415l1.414-1.883q.949.713,1.882,1.447Zm-131.569-.027-1.455-1.852q.934-.735,1.886-1.448l1.414,1.883Q412.671,700.146,411.757,700.864ZM539.614,698.1q-.941-.677-1.9-1.333l1.331-1.943q.979.671,1.942,1.364Zm-124.136-.031-1.373-1.913q.966-.693,1.948-1.366l1.331,1.943Q416.423,697.393,415.478,698.071Zm120.308-2.594q-.971-.635-1.956-1.25l1.246-2q1.007.629,2,1.277Zm-116.468-.036-1.289-1.972q1-.65,2.006-1.279l1.245,2Q420.292,694.8,419.318,695.44Zm112.53-2.419q-1-.592-2.007-1.162L531,689.808q1.032.583,2.051,1.188Zm-108.577-.042-1.2-2.026q1.023-.606,2.061-1.191l1.156,2.052Q424.271,692.386,423.271,692.979Zm104.539-2.238q-1.021-.547-2.055-1.074l1.067-2.1q1.057.538,2.1,1.1Zm-100.482-.048-1.11-2.077q1.048-.561,2.112-1.1l1.064,2.1Q428.354,690.144,427.328,690.693Zm96.349-2.054q-1.043-.5-2.1-.982l.974-2.144q1.079.49,2.145,1Zm-92.194-.054-1.019-2.124q1.074-.515,2.159-1.007l.971,2.145Q432.533,688.083,431.483,688.586Zm87.977-1.864q-1.064-.456-2.139-.889l.88-2.184q1.1.442,2.186.908Zm-83.731-.06L434.8,684.5q1.094-.467,2.2-.911l.876,2.186Q436.8,686.205,435.729,686.662Zm79.427-1.674q-1.086-.411-2.184-.8l.784-2.221q1.122.4,2.232.815Zm-75.1-.062-.828-2.2q1.115-.419,2.241-.814l.779,2.222Q441.147,684.517,440.057,684.927Zm70.714-1.484q-1.1-.362-2.217-.7l.685-2.253q1.137.346,2.265.716Zm-66.312-.059-.73-2.239q1.132-.369,2.276-.715l.68,2.255Q445.567,683.021,444.459,683.383Zm61.865-1.292q-1.117-.313-2.245-.6l.585-2.281q1.152.295,2.3.615Zm-57.405-.054-.631-2.268q1.144-.318,2.3-.611l.581,2.282Q450.036,681.726,448.918,682.037Zm52.9-1.1q-1.13-.264-2.27-.5l.485-2.3q1.164.245,2.32.515Zm-48.4-.045-.53-2.294q1.156-.267,2.321-.51l.48,2.305Q454.554,680.629,453.423,680.89Zm43.849-.911q-1.141-.214-2.29-.4l.383-2.324q1.174.193,2.34.412Zm-39.3-.036-.429-2.316q1.166-.216,2.34-.407l.379,2.324Q459.115,679.732,457.974,679.943Zm34.711-.719q-1.149-.163-2.3-.3l.281-2.339q1.182.142,2.356.309Zm-30.122-.028-.327-2.332q1.174-.164,2.356-.3l.277,2.338Q463.711,679.034,462.562,679.2Zm25.506-.526q-1.154-.114-2.315-.2l.179-2.348q1.187.09,2.367.207Zm-20.889-.019-.226-2.344q1.18-.114,2.367-.2l.175,2.348Q468.334,678.538,467.179,678.65Zm16.254-.335q-1.158-.063-2.323-.1l.078-2.354q1.19.04,2.373.1Zm-11.617-.011-.124-2.352q1.183-.062,2.373-.1l.074,2.354Q472.974,678.243,471.815,678.3Zm6.973-.143c-.774-.009-1.551-.009-2.326,0l-.023-2.355c.791-.008,1.585-.007,2.375,0Z" transform="translate(-368.609 -675.799)" fill="#1366ff"/></g><g transform="translate(19.031 169.098)"><path d="M401.613,965.335q-.343-.487-.679-.978l1.942-1.333c.219.32.44.639.662.956Z" transform="translate(-400.934 -963.024)" fill="#1366ff"/></g></g><circle cx="18.839" cy="18.839" r="18.839" transform="translate(237.706 690.812)" fill="#a1c5ff"/><circle cx="18.839" cy="18.839" r="18.839" transform="translate(520.442 695.105)" fill="#a1c5ff"/><path d="M305.326,745.163l-5.746,3.318-5.747,3.317V738.527l5.747,3.317Z" transform="translate(-49.616 -75.13)" fill="#a1c5ff"/><rect width="7.722" height="7.722" transform="translate(230.46 651.892)" fill="#a1c5ff"/><g transform="translate(233.229 637.561)"><g transform="translate(16.139 16.14)"><rect width="2.355" height="2.355" fill="#282d33"/></g><g transform="translate(5.112 16.139)"><path d="M292.122,724.344h-2.757v-2.355h2.757Zm-5.514,0h-2.756v-2.355h2.756Z" transform="translate(-283.852 -721.989)" fill="#282d33"/></g><g transform="translate(0 16.14)"><rect width="2.355" height="2.355" fill="#282d33"/></g><g transform="translate(0 5.112)"><path d="M277.524,711.529h-2.355v-2.757h2.355Zm0-5.514h-2.355v-2.757h2.355Z" transform="translate(-275.169 -703.258)" fill="#282d33"/></g><g transform="translate(0 0)"><rect width="2.355" height="2.355" fill="#282d33"/></g><g transform="translate(5.112)"><path d="M292.122,696.93h-2.757v-2.355h2.757Zm-5.514,0h-2.757v-2.355h2.757Z" transform="translate(-283.851 -694.575)" fill="#282d33"/></g><g transform="translate(16.139 0)"><rect width="2.355" height="2.355" fill="#282d33"/></g><g transform="translate(16.14 5.112)"><path d="M304.938,711.529h-2.355v-2.756h2.355Zm0-5.514h-2.355v-2.756h2.355Z" transform="translate(-302.583 -703.258)" fill="#282d33"/></g></g><g transform="translate(249.617 699.847)"><g transform="translate(5.548)"><line y1="3.395" transform="translate(1.177)" fill="#fff"/><rect width="2.355" height="3.395" fill="#282d33"/></g><g transform="translate(0 2.754)"><line x1="2.94" y1="1.697" transform="translate(0.589 1.02)" fill="#fff"/><rect width="2.355" height="3.395" transform="matrix(0.5, -0.866, 0.866, 0.5, 0, 2.04)" fill="#282d33"/></g><g transform="translate(0.199 8.259)"><line x1="2.941" y2="1.697" transform="translate(0.588 1.02)" fill="#fff"/><rect width="3.396" height="2.355" transform="translate(0 1.696) rotate(-29.969)" fill="#282d33"/></g><g transform="translate(5.948 11.008)"><line y2="3.397" transform="translate(1.177)" fill="#fff"/><rect width="2.355" height="3.397" fill="#282d33"/></g><g transform="translate(9.734 7.913)"><line x2="2.941" y2="1.698" transform="translate(0.589 1.02)" fill="#fff"/><rect width="2.355" height="3.396" transform="translate(0 2.04) rotate(-60.007)" fill="#282d33"/></g><g transform="translate(9.534 2.408)"><line y1="1.698" x2="2.941" transform="translate(0.589 1.02)" fill="#fff"/><rect width="3.396" height="2.355" transform="translate(0 1.698) rotate(-30.002)" fill="#282d33"/></g><g transform="translate(1.372 8.31)"><path d="M312.4,818.672l1.725,3.049,1.724,3.051-3.5-.031-3.5-.032,1.78-3.018Z" transform="translate(-306.795 -816.318)" fill="#fff"/><path d="M316.448,824.323l-11.085-.1,5.63-9.55Zm-6.985-2.418,2.929.027-1.441-2.549Z" transform="translate(-305.363 -814.673)" fill="#282d33"/><g transform="translate(4.339 8.351)"><rect width="4.121" height="2.355" transform="matrix(0.009, -1, 1, 0.009, 0, 4.121)" fill="#282d33"/></g></g></g><g transform="translate(320.513 665.743)"><g transform="translate(0 0)"><g transform="translate(0.086)"><path d="M576.261,837.075v-88.1a4.131,4.131,0,0,0-4.128-4.124H429.777a4.13,4.13,0,0,0-4.125,4.124v88.1Z" transform="translate(-424.475 -743.677)" fill="#a1c5ff"/><path d="M576.616,837.43H423.652V748.156a5.308,5.308,0,0,1,5.3-5.3H571.31a5.31,5.31,0,0,1,5.306,5.3Zm-150.609-2.355H574.261v-86.92a2.952,2.952,0,0,0-2.951-2.947H428.954a2.951,2.951,0,0,0-2.947,2.947Z" transform="translate(-423.652 -742.854)" fill="#1366ff"/></g><g transform="translate(8.03 8.129)"><rect width="134.564" height="75.868" transform="translate(1.178 1.178)" fill="#fff"/><path d="M574.065,834.885H437.146V756.662H574.065ZM439.5,832.53H571.71V759.017H439.5Z" transform="translate(-437.146 -756.662)" fill="#1366ff"/></g><g transform="translate(0 92.132)"><path d="M425.506,901.347v12.7c0,2.435,2.5,5.148,4.931,5.148H572.45c2.438,0,3.893-2.5,3.893-4.941V901.347Z" transform="translate(-424.329 -900.17)" fill="#fff"/><path d="M571.627,919.555H429.615c-3.026,0-6.109-3.193-6.109-6.326V899.347H576.7v14.09C576.7,916.444,574.8,919.555,571.627,919.555ZM425.861,901.7v11.527c0,1.819,2.035,3.971,3.754,3.971H571.627c1.7,0,2.715-1.913,2.715-3.763V901.7Z" transform="translate(-423.506 -899.347)" fill="#1366ff"/></g><g transform="translate(52.411 111.167)"><path d="M520.286,931.841c-.258,3.158.3,10.183-.377,13.616-.623,3.141-1.056,3.247-2.724,4.173-.942.516-2.529,1.235-3.86,1.811h0" transform="translate(-512.857 -931.745)" fill="#fff"/><path d="M513.465,952.455l-.935-2.162c1.642-.71,3.013-1.352,3.762-1.763l.216-.12c1.3-.714,1.431-.788,1.92-3.25a49.358,49.358,0,0,0,.3-8.328c-.027-1.986-.052-3.862.054-5.155l2.347.192c-.1,1.182-.072,3-.047,4.931a50.321,50.321,0,0,1-.349,8.817c-.633,3.189-1.186,3.8-3.093,4.855l-.215.119C516.315,951.2,514.467,952.021,513.465,952.455Z" transform="translate(-512.53 -931.678)" fill="#1366ff"/></g><g transform="translate(92.085 111.34)"><path d="M588.808,951.584c-1.337-.583-2.952-1.314-3.9-1.833-1.665-.926-1.992-1.032-2.613-4.173-.68-3.433-.122-10.285-.38-13.443" transform="translate(-580.738 -932.039)" fill="#fff"/><path d="M587.518,952.6c-1.258-.548-2.972-1.319-4-1.879l-.135-.075c-1.942-1.077-2.419-1.618-3.068-4.9a49.415,49.415,0,0,1-.351-8.7c.025-1.9.049-3.692-.048-4.874l2.347-.192c.106,1.293.081,3.141.055,5.1a48.308,48.308,0,0,0,.306,8.214c.5,2.523.552,2.552,1.9,3.3l.13.072c.941.515,2.587,1.254,3.8,1.783Z" transform="translate(-579.918 -931.972)" fill="#1366ff"/></g><g transform="translate(48.744 129.706)"><line x2="55.723" transform="translate(0 1.177)" fill="#fff"/><rect width="55.723" height="2.355" fill="#1366ff"/></g></g></g><g transform="translate(355.603 741.641)"><rect width="5.299" height="5.299" fill="#b7bec0"/><rect width="5.299" height="5.299" transform="translate(8.635)" fill="#b7bec0"/><rect width="5.299" height="5.299" transform="translate(17.27)" fill="#b7bec0"/><rect width="5.299" height="5.299" transform="translate(25.904)" fill="#b7bec0"/><rect width="5.299" height="5.299" transform="translate(34.539)" fill="#b7bec0"/><rect width="5.299" height="5.299" transform="translate(43.174)" fill="#b7bec0"/><rect width="5.299" height="5.299" transform="translate(51.809)" fill="#b7bec0"/><rect width="5.299" height="5.299" transform="translate(60.443)" fill="#b7bec0"/><rect width="5.299" height="5.299" transform="translate(69.078)" fill="#b7bec0"/><rect width="5.299" height="5.299" transform="translate(77.713)" fill="#b7bec0"/></g><g transform="translate(279.368 618.658)"><path d="M361.791,700.812h17.156a10.156,10.156,0,0,1,1.5-5.09c6.33-8.152,6.735-15.918,6.735-16.467a16.8,16.8,0,0,0-33.608,0c0,.549.4,8.31,6.732,16.467A10.066,10.066,0,0,1,361.791,700.812Z" transform="translate(-353.579 -662.451)" fill="#a1c5ff"/><g transform="translate(3.279 3.28)"><path d="M361.5,681.484h-2.355a13.51,13.51,0,0,1,13.524-13.461v2.355A11.152,11.152,0,0,0,361.5,681.484Z" transform="translate(-359.149 -668.022)" fill="#fff"/></g><g transform="translate(7.85 19.638)"><rect width="2.355" height="18.765" transform="matrix(0.984, -0.177, 0.177, 0.984, 0, 0.418)" fill="#282d33"/><g transform="translate(12.265 0)"><rect width="18.766" height="2.355" transform="translate(0 18.468) rotate(-79.79)" fill="#282d33"/></g></g><g transform="translate(8.622 20.002)"><path d="M382.022,699.744h-.982l-2.075-.952-2.074.952h-.983l-2.071-.951-2.069.951h-.983l-2.562-1.177.983-2.14,2.07.952,2.069-.952h.983l2.071.952,2.073-.952h.982l2.075.952,2.075-.952.982,2.141Z" transform="translate(-368.223 -696.426)" fill="#282d33"/></g><g transform="translate(5.878 37.382)"><rect width="21.853" height="2.355" fill="#282d33"/><g transform="translate(0 4.245)"><rect width="21.853" height="2.355" fill="#282d33"/></g><g transform="translate(0 8.491)"><rect width="21.853" height="2.355" fill="#282d33"/></g><g transform="translate(2.972 12.736)"><rect width="15.91" height="2.355" fill="#282d33"/></g><g transform="translate(1.359 1.403)"><rect width="2.355" height="8.067" fill="#282d33"/></g></g></g><g transform="translate(477.699 617.754)"><circle cx="18.839" cy="18.839" r="18.839" transform="translate(1.568 0)" fill="#a1c5ff"/><g transform="translate(3.377 4.779)"><path d="M697.76,691.975l-1.488-1.825,12.469-10.164,14.078,4.637,16.563-15.611L741,670.725,723.414,687.3l-14.185-4.672Z" transform="translate(-696.272 -669.012)" fill="#282d33"/></g><g transform="translate(11.969 12.952)"><path d="M718.753,687.838a2.944,2.944,0,1,1-2.944-2.944A2.944,2.944,0,0,1,718.753,687.838Z" transform="translate(-711.688 -683.716)" fill="#fff"/><path d="M714.986,691.136a4.121,4.121,0,1,1,4.122-4.121A4.126,4.126,0,0,1,714.986,691.136Zm0-5.887a1.766,1.766,0,1,0,1.767,1.766A1.768,1.768,0,0,0,714.986,685.249Z" transform="translate(-710.865 -682.894)" fill="#282d33"/></g><g transform="translate(26.1 17.606)"><path d="M742.756,695.744a2.944,2.944,0,1,1-2.944-2.944A2.944,2.944,0,0,1,742.756,695.744Z" transform="translate(-735.69 -691.622)" fill="#fff"/><path d="M738.989,699.042a4.121,4.121,0,1,1,4.122-4.121A4.126,4.126,0,0,1,738.989,699.042Zm0-5.887a1.766,1.766,0,1,0,1.767,1.766A1.768,1.768,0,0,0,738.989,693.155Z" transform="translate(-734.868 -690.8)" fill="#282d33"/></g><g transform="translate(0 22.709)"><path d="M698.423,704.411a2.944,2.944,0,1,1-2.944-2.944A2.944,2.944,0,0,1,698.423,704.411Z" transform="translate(-691.358 -700.289)" fill="#fff"/><path d="M694.656,707.709a4.121,4.121,0,1,1,4.122-4.121A4.126,4.126,0,0,1,694.656,707.709Zm0-5.887a1.766,1.766,0,1,0,1.767,1.766A1.768,1.768,0,0,0,694.656,701.822Z" transform="translate(-690.535 -699.467)" fill="#282d33"/></g><g transform="translate(41.211 4.262)"><path d="M767.6,675.2h-2.355v-4.71h-4.71v-2.355H767.6Z" transform="translate(-760.535 -668.134)" fill="#282d33"/></g></g><g transform="translate(243.631 795.449)"><line x2="120.1" transform="translate(0 1.177)" fill="#fff"/><rect width="120.1" height="2.355" fill="#282d33"/></g><g transform="translate(430.781 795.449)"><line x2="120.1" transform="translate(0 1.177)" fill="#fff"/><rect width="120.1" height="2.355" fill="#282d33"/></g><g transform="translate(384.422 654.546)"><g transform="translate(0 25.748)"><path d="M542.026,773.772l-6.574-6.572,1.665-1.666,4.909,4.908,4.912-4.909L548.6,767.2Z" transform="translate(-535.452 -765.534)" fill="#1366ff"/></g><g transform="translate(5.398 0)"><rect width="2.355" height="30.761" fill="#1366ff"/></g></g><g transform="translate(397.514 653.696)"><g transform="translate(0 0)"><path d="M550.867,708.208l-1.665-1.666,6.577-6.573,6.574,6.573-1.665,1.666-4.91-4.908Z" transform="translate(-549.202 -699.97)" fill="#1366ff"/></g><g transform="translate(5.398 3.225)"><rect width="2.355" height="30.762" fill="#1366ff"/></g></g><g transform="translate(571.352 678.278)"><g transform="translate(0 5.327)"><rect width="10.621" height="2.355" fill="#282d33"/><g transform="translate(12.643)"><rect width="3.54" height="2.355" fill="#282d33"/></g></g><g transform="translate(9.572 0)"><rect width="16.268" height="2.355" fill="#282d33"/></g></g><g transform="translate(256.576 609.345)"><g transform="translate(0 0)"><g transform="translate(6.737 5.327)"><rect width="12.863" height="2.355" fill="#282d33"/></g><g transform="translate(11.637)"><rect width="12.862" height="2.355" fill="#282d33"/></g><g transform="translate(4.901)"><rect width="4.286" height="2.355" fill="#282d33"/></g><g transform="translate(0 5.327)"><rect width="4.287" height="2.355" fill="#282d33"/></g></g></g><g transform="translate(566.801 622.284)"><path d="M858.187,679.15a1.084,1.084,0,0,1-1.085,1.084H855v4.071l-5.15-4.071h-6.856a1.084,1.084,0,0,1-1.085-1.084v-9.483a1.086,1.086,0,0,1,1.085-1.087H857.1a1.087,1.087,0,0,1,1.085,1.087Z" transform="translate(-841.909 -668.58)" fill="#a1c5ff"/></g><g transform="translate(556.596 627.181)"><g transform="translate(0)"><path d="M827.761,696.249v-5.324h-.924a2.265,2.265,0,0,1-2.262-2.263V679.18a2.266,2.266,0,0,1,2.262-2.264h14.108a2.266,2.266,0,0,1,2.262,2.264v9.483a2.265,2.265,0,0,1-2.262,2.263H834.5Zm-.831-7.679h3.186v2.816l3.564-2.816h7.173v-9.3H826.93Z" transform="translate(-824.575 -676.916)" fill="#282d33"/></g></g><g transform="translate(173.192 673.424)"><g transform="translate(0 8.981)"><path d="M177.394,779.264a4.2,4.2,0,1,1,4.2-4.2A4.206,4.206,0,0,1,177.394,779.264Zm0-6.046a1.846,1.846,0,1,0,1.846,1.845A1.848,1.848,0,0,0,177.394,773.218Z" transform="translate(-173.192 -770.863)" fill="#282d33"/></g><g transform="translate(16.737 0)"><path d="M205.821,764.009a4.2,4.2,0,1,1,4.2-4.2A4.205,4.205,0,0,1,205.821,764.009Zm0-6.046a1.846,1.846,0,1,0,1.846,1.846A1.848,1.848,0,0,0,205.821,757.963Z" transform="translate(-201.621 -755.608)" fill="#282d33"/><g transform="translate(0 17.963)"><path d="M205.821,794.521a4.2,4.2,0,1,1,4.2-4.2A4.206,4.206,0,0,1,205.821,794.521Zm0-6.046a1.846,1.846,0,1,0,1.846,1.844A1.847,1.847,0,0,0,205.821,788.475Z" transform="translate(-201.621 -786.12)" fill="#282d33"/></g></g><g transform="translate(6.505 4.776)"><g transform="translate(0 8.573)"><rect width="2.355" height="12.393" transform="translate(0 2.039) rotate(-59.996)" fill="#282d33"/></g><rect width="12.393" height="2.355" transform="matrix(0.866, -0.5, 0.5, 0.866, 0, 6.197)" fill="#282d33"/></g></g><path d="M833.1,902.487h-1.361a.846.846,0,0,1-.754-.543l-.255-.613a.858.858,0,0,1,.147-.918l.961-.961a.569.569,0,0,0,0-.809l-1.484-1.488a.577.577,0,0,0-.811,0l-.961.96a.853.853,0,0,1-.917.152l-.615-.254a.851.851,0,0,1-.543-.755V895.9a.575.575,0,0,0-.573-.574h-2.1a.576.576,0,0,0-.575.574v1.359a.851.851,0,0,1-.543.755l-.615.254a.852.852,0,0,1-.917-.152l-.96-.96a.575.575,0,0,0-.81,0l-1.486,1.488a.569.569,0,0,0,0,.809l.961.961a.859.859,0,0,1,.148.918l-.253.613a.852.852,0,0,1-.754.543h-1.361a.576.576,0,0,0-.573.574v2.1a.575.575,0,0,0,.573.571h1.361a.852.852,0,0,1,.754.543l.253.615a.858.858,0,0,1-.148.918l-.961.961a.57.57,0,0,0,0,.81l1.486,1.488a.577.577,0,0,0,.81,0l.96-.961a.85.85,0,0,1,.917-.149l.615.253a.854.854,0,0,1,.543.755v1.36a.575.575,0,0,0,.575.572h2.1a.574.574,0,0,0,.573-.572v-1.36a.853.853,0,0,1,.543-.755l.615-.253a.851.851,0,0,1,.917.149l.961.961a.579.579,0,0,0,.811,0l1.484-1.488a.57.57,0,0,0,0-.81l-.961-.961a.857.857,0,0,1-.147-.918l.255-.615a.846.846,0,0,1,.754-.543H833.1a.574.574,0,0,0,.572-.571v-2.1A.574.574,0,0,0,833.1,902.487Zm-8.216,4.394a2.77,2.77,0,1,1,2.771-2.771A2.771,2.771,0,0,1,824.88,906.881Z" transform="translate(-264.491 -139.816)" fill="#a1c5ff"/><g transform="translate(330.931 614.811)"><g transform="translate(11.01 5.549)"><rect width="3.395" height="2.355" fill="#282d33"/></g><g transform="translate(7.913 0)"><rect width="3.395" height="2.355" transform="translate(0 2.94) rotate(-60.005)" fill="#282d33"/></g><g transform="translate(2.409 0.2)"><rect width="2.355" height="3.395" transform="matrix(0.866, -0.5, 0.5, 0.866, 0, 1.177)" fill="#282d33"/></g><g transform="translate(0 5.949)"><rect width="3.396" height="2.355" fill="#282d33"/></g><g transform="translate(2.755 9.734)"><rect width="3.395" height="2.355" transform="translate(0 2.94) rotate(-59.998)" fill="#282d33"/></g><g transform="translate(8.259 9.534)"><rect width="2.355" height="3.396" transform="matrix(0.866, -0.5, 0.5, 0.866, 0, 1.178)" fill="#282d33"/></g></g><g transform="translate(582.808 716.028)"><g transform="translate(5.474)"><rect width="2.355" height="3.719" fill="#282d33"/></g><g transform="translate(0 2.48)"><rect width="2.355" height="3.719" transform="translate(0 2.039) rotate(-59.987)" fill="#282d33"/></g><g transform="translate(0 7.622)"><rect width="3.719" height="2.355" transform="translate(0 1.859) rotate(-30.002)" fill="#282d33"/></g><g transform="translate(5.474 10.281)"><rect width="2.355" height="3.719" fill="#282d33"/></g><g transform="translate(8.904 7.622)"><rect width="2.355" height="3.719" transform="translate(0 2.04) rotate(-60.003)" fill="#282d33"/></g><g transform="translate(8.904 2.48)"><rect width="3.72" height="2.355" transform="matrix(0.866, -0.5, 0.5, 0.866, 0, 1.86)" fill="#282d33"/></g></g><g transform="translate(211.993 752.339)"><g transform="translate(5.976)"><rect width="11.412" height="2.355" fill="#282d33"/></g><rect width="3.804" height="2.355" fill="#282d33"/></g><g transform="translate(181.639 745.937)"><g transform="translate(0 0)"><rect width="1.177" height="2.355" fill="#282d33"/></g><g transform="translate(3.454)"><path d="M223,881.289h-2.276v-2.355H223Zm-4.553,0h-2.276v-2.355h2.276Zm-4.553,0h-2.277v-2.355H213.9Zm-4.553,0h-2.276v-2.355h2.276Zm-4.553,0h-2.276v-2.355h2.276Zm-4.553,0h-2.277v-2.355h2.277Zm-4.553,0h-2.277v-2.355h2.277Z" transform="translate(-193.408 -878.934)" fill="#282d33"/></g><g transform="translate(35.324 0)"><rect width="1.177" height="2.355" fill="#282d33"/></g></g><g transform="translate(532.126 654.245)"><g transform="translate(0 0)"><rect width="1.177" height="2.355" fill="#282d33"/></g><g transform="translate(3.502 0)"><path d="M819.172,725.3h-2.324v-2.355h2.324Zm-4.648,0H812.2v-2.355h2.324Zm-4.648,0h-2.324v-2.355h2.324Zm-4.648,0H802.9v-2.355h2.324Zm-4.649,0h-2.324v-2.355h2.324Zm-4.648,0h-2.324v-2.355h2.324Zm-4.648,0h-2.324v-2.355h2.324Z" transform="translate(-788.959 -722.942)" fill="#282d33"/></g><g transform="translate(36.038 0)"><rect width="1.177" height="2.355" fill="#282d33"/></g></g><g transform="translate(485.523 602.168)"><g transform="translate(0 0)"><rect width="7.342" height="2.355" transform="translate(0 5.191) rotate(-44.995)" fill="#282d33"/></g><g transform="translate(0 0)"><rect width="2.355" height="7.342" transform="translate(0 1.665) rotate(-45.003)" fill="#282d33"/></g></g><g transform="translate(223.403 711.509)"><g transform="translate(0 0)"><rect width="7.342" height="2.355" transform="translate(0 5.192) rotate(-45)" fill="#282d33"/></g><g transform="translate(0 0)"><rect width="2.355" height="7.342" transform="translate(0 1.665) rotate(-45.003)" fill="#282d33"/></g></g><g transform="translate(535.557 602.107)"><rect width="2.389" height="2.355" transform="translate(0 0)" fill="#282d33"/></g><g transform="translate(209.117 727.921)"><rect width="2.389" height="2.355" fill="#282d33"/></g><g transform="translate(276.577 757.869)"><g transform="translate(0 0)"><line x1="6.182" y2="6.183" transform="translate(0.833 0.832)" fill="#fff"/><rect width="8.744" height="2.355" transform="translate(0 6.183) rotate(-44.999)" fill="#282d33"/></g><g transform="translate(0)"><line x1="6.183" y1="6.183" transform="translate(0.832 0.833)" fill="#fff"/><rect width="2.355" height="8.745" transform="translate(0 1.665) rotate(-45)" fill="#282d33"/></g></g><g transform="translate(533.807 710.742)"><path d="M790.164,826.846a1.154,1.154,0,0,1-.82-.34l-3.478-3.478,1.639-1.64,2.659,2.658,4.977-4.977,1.64,1.64-5.8,5.8A1.154,1.154,0,0,1,790.164,826.846Z" transform="translate(-785.866 -819.069)" fill="#222829"/></g><g transform="translate(528.829 703.444)"><path d="M787.846,827.546a10.434,10.434,0,1,1,10.435-10.435A10.447,10.447,0,0,1,787.846,827.546Zm0-18.55a8.116,8.116,0,1,0,8.116,8.116A8.125,8.125,0,0,0,787.846,809Z" transform="translate(-777.411 -806.677)" fill="#222829"/></g><path d="M50.574,0A50.574,50.574,0,1,1,0,50.574,50.574,50.574,0,0,1,50.574,0Z" transform="translate(346.572 541.804)" fill="#4482f5"/><g transform="translate(360.256 685.526)"><path d="M531.736,286.037a1.1,1.1,0,0,1-1.095-1.095c0-20.434-15.522-37.059-34.6-37.059s-34.6,16.625-34.6,37.059a1.095,1.095,0,1,1-2.19,0c0-21.641,16.5-39.249,36.79-39.249s36.79,17.608,36.79,39.249A1.1,1.1,0,0,1,531.736,286.037Z" transform="translate(-459.25 -232.385)" fill="#1366ff"/><path d="M504.334,282.167h-4.489a1.1,1.1,0,0,1-1.095-1.095V258.845a1.095,1.095,0,1,1,2.19,0v21.133h3.394a1.095,1.095,0,0,1,0,2.19Z" transform="translate(-464.15 -233.88)" fill="#1366ff"/><g transform="translate(16.627 34.984)"><path d="M481.9,277.774a3.668,3.668,0,1,1,3.668-3.668A3.673,3.673,0,0,1,481.9,277.774Zm0-5.146a1.478,1.478,0,1,0,1.478,1.478A1.479,1.479,0,0,0,481.9,272.628Z" transform="translate(-478.232 -270.438)" fill="#1366ff"/><path d="M517.047,277.774a3.668,3.668,0,1,1,3.669-3.668A3.673,3.673,0,0,1,517.047,277.774Zm0-5.146a1.478,1.478,0,1,0,1.479,1.478A1.479,1.479,0,0,0,517.047,272.628Z" transform="translate(-482.592 -270.438)" fill="#1366ff"/></g><g transform="translate(11.516)"><path d="M476.3,254.479a1.094,1.094,0,0,1-1.095-1.095V237.22a1.095,1.095,0,0,1,2.19,0v16.164A1.1,1.1,0,0,1,476.3,254.479Z" transform="translate(-472.746 -231.198)" fill="#1366ff"/><path d="M475.956,237.617a3.559,3.559,0,1,1,3.558-3.558A3.563,3.563,0,0,1,475.956,237.617Zm0-4.927a1.369,1.369,0,1,0,1.368,1.369A1.371,1.371,0,0,0,475.956,232.69Z" transform="translate(-472.397 -230.5)" fill="#1366ff"/><path d="M525.886,254.479a1.1,1.1,0,0,1-1.1-1.095V237.22a1.095,1.095,0,0,1,2.19,0v16.164A1.1,1.1,0,0,1,525.886,254.479Z" transform="translate(-478.896 -231.198)" fill="#1366ff"/><path d="M525.537,237.617a3.559,3.559,0,1,1,3.558-3.558A3.563,3.563,0,0,1,525.537,237.617Zm0-4.927a1.369,1.369,0,1,0,1.368,1.369A1.371,1.371,0,0,0,525.537,232.69Z" transform="translate(-478.547 -230.5)" fill="#1366ff"/></g></g><g transform="translate(365.989 564.394)"><g transform="translate(24.503 28.272)"><path d="M758.136,487.7a.941.941,0,0,1-.548-.175L744.395,478.1a.943.943,0,0,1-.395-.767V450.942a.943.943,0,0,1,1.274-.882l6.97,2.613,2.4-2.4a.938.938,0,0,1,.666-.276h5.654a.94.94,0,0,1,.666.276l2.4,2.4L771,450.06a.943.943,0,0,1,1.274.882V477.33a.943.943,0,0,1-.395.767l-13.194,9.424A.941.941,0,0,1,758.136,487.7Zm-12.251-10.852,12.251,8.751,12.251-8.751V452.3l-6.265,2.349a.947.947,0,0,1-1-.216l-2.551-2.551H755.7l-2.551,2.551a.945.945,0,0,1-1,.216l-6.265-2.349Z" transform="translate(-744 -450)" fill="#fff"/><g transform="translate(7.539 3.77)"><rect width="1.885" height="3.77" fill="#fff"/></g><g transform="translate(18.848 3.77)"><rect width="1.885" height="3.77" fill="#fff"/></g><g transform="translate(9.7 15.355)"><path d="M757.786,472.614a.94.94,0,0,1-.666-.276l-2.827-2.827,1.332-1.333,2.161,2.161,4.046-4.046,1.332,1.333-4.712,4.712A.94.94,0,0,1,757.786,472.614Z" transform="translate(-754.293 -466.293)" fill="#fff"/></g><g transform="translate(5.654 9.424)"><path d="M758.482,476.963a8.482,8.482,0,1,1,8.482-8.482A8.491,8.491,0,0,1,758.482,476.963Zm0-15.079a6.6,6.6,0,1,0,6.6,6.6A6.6,6.6,0,0,0,758.482,461.885Z" transform="translate(-750 -460)" fill="#fff"/></g></g><g transform="translate(3.77 49.005)"><rect width="18.848" height="1.885" fill="#fff"/></g><path d="M777.372,470.89H772.66v-1.885h3.77v-37.7h-50.89v35.665a3.866,3.866,0,0,1-2.982,3.837,3.776,3.776,0,0,1-4.557-3.69V420.942a.943.943,0,0,1,.942-.942h16.963a.941.941,0,0,1,.666.276l3.494,3.494H773.6a.943.943,0,0,1,.942.942v2.827H772.66v-1.885H739.675a.941.941,0,0,1-.666-.276l-3.494-3.494H719.885v45.151a1.936,1.936,0,0,0,1.265,1.87,1.891,1.891,0,0,0,2.5-1.785V430.367a.943.943,0,0,1,.942-.942h52.775a.943.943,0,0,1,.942.942v39.581A.943.943,0,0,1,777.372,470.89Z" transform="translate(-718 -420)" fill="#fff"/><g transform="translate(11.309 15.079)"><path d="M772.409,445.424H730.942a.943.943,0,0,1-.942-.942v-7.539a.943.943,0,0,1,.942-.942h41.466a.943.943,0,0,1,.942.942v7.539A.943.943,0,0,1,772.409,445.424Zm-40.524-1.885h39.581v-5.654H731.885Z" transform="translate(-730 -436)" fill="#fff"/></g><g transform="translate(15.079 18.848)"><rect width="1.885" height="1.885" fill="#fff"/></g><g transform="translate(18.848 18.848)"><rect width="1.885" height="1.885" fill="#fff"/></g><g transform="translate(22.618 18.848)"><rect width="1.885" height="1.885" fill="#fff"/></g><g transform="translate(26.388 18.848)"><rect width="1.885" height="1.885" fill="#fff"/></g><g transform="translate(30.157 18.848)"><rect width="1.885" height="1.885" fill="#fff"/></g><g transform="translate(33.927 18.848)"><rect width="1.885" height="1.885" fill="#fff"/></g><g transform="translate(37.697 18.848)"><rect width="1.885" height="1.885" fill="#fff"/></g><g transform="translate(11.309 28.272)"><rect width="11.309" height="1.885" fill="#fff"/></g><g transform="translate(11.309 32.042)"><rect width="11.309" height="1.885" fill="#fff"/></g></g></g></svg>