<svg xmlns="http://www.w3.org/2000/svg" width="188" height="64" viewBox="0 0 188 64"><g transform="translate(-911 -1004)"><g transform="translate(707 649)"><g transform="translate(267 355)"><circle cx="21" cy="21" r="21" fill="#a1c5ff"/></g><g transform="translate(267 359)"><g transform="translate(3 22)"><path d="M328,419H270V408h2v9h54V381h2Z" transform="translate(-270 -381)" fill="#363f40"/></g><g transform="translate(3)"><path d="M272,396h-2V359h58v10h-2v-8H272Z" transform="translate(-270 -359)" fill="#363f40"/></g><g transform="translate(0 12)"><g transform="translate(41.293 5.293)"><rect width="22.627" height="2" transform="translate(0 16) rotate(-45)" fill="#363f40"/></g><g transform="translate(26.293 11.293)"><rect width="2" height="14.142" transform="translate(0 1.414) rotate(-45)" fill="#363f40"/></g><g transform="translate(5.293 11.293)"><rect width="24.042" height="2" transform="translate(0 17) rotate(-45)" fill="#363f40"/></g><g transform="translate(0 27)"><path d="M271,406a4,4,0,1,1,4-4A4,4,0,0,1,271,406Zm0-6a2,2,0,1,0,2,2A2,2,0,0,0,271,400Z" transform="translate(-267 -398)" fill="#363f40"/></g><g transform="translate(21 6)"><path d="M292,385a4,4,0,1,1,4-4A4,4,0,0,1,292,385Zm0-6a2,2,0,1,0,2,2A2,2,0,0,0,292,379Z" transform="translate(-288 -377)" fill="#363f40"/></g><g transform="translate(36 20)"><path d="M307,399a4,4,0,1,1,4-4A4,4,0,0,1,307,399Zm0-6a2,2,0,1,0,2,2A2,2,0,0,0,307,393Z" transform="translate(-303 -391)" fill="#363f40"/></g><g transform="translate(56)"><path d="M327,379a4,4,0,1,1,4-4A4,4,0,0,1,327,379Zm0-6a2,2,0,1,0,2,2A2,2,0,0,0,327,373Z" transform="translate(-323 -371)" fill="#363f40"/></g></g><g transform="translate(9 6)"><rect width="2" height="2" fill="#363f40"/></g><g transform="translate(9 10)"><rect width="2" height="2" fill="#363f40"/></g><g transform="translate(7 48)"><rect width="2" height="8" fill="#363f40"/></g><g transform="translate(11 40)"><rect width="2" height="16" fill="#363f40"/></g><g transform="translate(35 41)"><rect width="2" height="15" fill="#363f40"/></g><g transform="translate(39 42)"><rect width="2" height="14" fill="#363f40"/></g><g transform="translate(43 41)"><rect width="2" height="15" fill="#363f40"/></g><g transform="translate(47 33)"><rect width="2" height="23" fill="#363f40"/></g><g transform="translate(51 29)"><rect width="2" height="27" fill="#363f40"/></g><g transform="translate(55 25)"><rect width="2" height="31" fill="#363f40"/></g><g transform="translate(15 36)"><rect width="2" height="20" fill="#363f40"/></g><g transform="translate(19 32)"><rect width="2" height="24" fill="#363f40"/></g><g transform="translate(31 34)"><rect width="2" height="22" fill="#363f40"/></g><g transform="translate(27 30)"><rect width="2" height="26" fill="#363f40"/></g><g transform="translate(23 28)"><rect width="2" height="28" fill="#363f40"/></g><g transform="translate(27 6)"><rect width="26" height="2" fill="#363f40"/></g><g transform="translate(13 6)"><rect width="12" height="2" fill="#363f40"/></g><g transform="translate(13 10)"><rect width="30" height="2" fill="#363f40"/></g></g></g><g transform="translate(1214 623)"><g transform="translate(-140 389)"><g transform="translate(0 8)"><path d="M-124,411h-16V397h16Zm-14-2h12V399h-12Z" transform="translate(140 -397)" fill="#222829"/></g><g transform="translate(2)"><path d="M-126,398h-2v-6a1,1,0,0,0-1-1h-6a1,1,0,0,0-1,1v6h-2v-6a3,3,0,0,1,3-3h6a3,3,0,0,1,3,3Z" transform="translate(138 -389)" fill="#222829"/></g><g transform="translate(7 12)"><rect width="2" height="2" fill="#222829"/></g></g><g transform="translate(-161 381)"><path d="M-154,430a.987.987,0,0,1-.383-.076A1,1,0,0,1-155,429v-9h-4a2,2,0,0,1-2-2V383a2,2,0,0,1,2-2h14v2h-14v35h5a1,1,0,0,1,1,1v7.586l8.293-8.293A1,1,0,0,1-144,418h27V383h-22v-2h22a2,2,0,0,1,2,2v35a2,2,0,0,1-2,2h-26.586l-9.707,9.707A1,1,0,0,1-154,430Z" transform="translate(161 -381)" fill="#222829"/><g transform="translate(6 6)"><rect width="2" height="2" fill="#222829"/></g><g transform="translate(10 6)"><rect width="2" height="2" fill="#222829"/></g><g transform="translate(14 6)"><rect width="2" height="2" fill="#222829"/></g></g></g><g transform="translate(986 709)"><g transform="translate(-75 309.999)"><path d="M-31,359H-45v-2h14V322h-5a1,1,0,0,1-1-1v-7.586l-8.293,8.293A1,1,0,0,1-46,322H-73v35h22v2H-73a2,2,0,0,1-2-2V322a2,2,0,0,1,2-2h26.586l9.707-9.707a.994.994,0,0,1,1.09-.217A1,1,0,0,1-35,311v9h4a2,2,0,0,1,2,2v35A2,2,0,0,1-31,359Z" transform="translate(75 -309.999)" fill="#222829"/><g transform="translate(30 41)"><rect width="2" height="2" fill="#222829"/></g><g transform="translate(34 41)"><rect width="2" height="2" fill="#222829"/></g><g transform="translate(38 41)"><rect width="2" height="2" fill="#222829"/></g></g><g transform="translate(-65 326.999)"><g transform="translate(0 8)"><path d="M-49,349H-65V335h16Zm-14-2h12V337H-63Z" transform="translate(65 -335)" fill="#222829"/></g><g transform="translate(2)"><path d="M-51,336h-2v-6a1,1,0,0,0-1-1h-6a1,1,0,0,0-1,1v6h-2v-6a3,3,0,0,1,3-3h6a3,3,0,0,1,3,3Z" transform="translate(63 -327)" fill="#222829"/></g><g transform="translate(7 12)"><rect width="2" height="2" fill="#222829"/></g></g></g></g></svg>