<svg xmlns="http://www.w3.org/2000/svg" width="121" height="24.88" viewBox="0 0 121 24.88"><path d="M-10015.683-2062.213h-2.17v-17.368a6.519,6.519,0,0,1,6.512-6.512h106.977a6.519,6.519,0,0,1,6.512,6.512v17.367h-2.172v-17.368a4.346,4.346,0,0,0-4.34-4.342h-106.977a4.346,4.346,0,0,0-4.342,4.342v17.368Zm25.88-.195h-.2c-.171,0-.262-.1-.262-.279v-4.365c0-.149-.067-.231-.188-.231a.407.407,0,0,0-.091.013l-2.972.84a2.223,2.223,0,0,1-.447.03,1.779,1.779,0,0,1-1.812-1.782v-6.76c0-.205.081-.3.264-.3h1.549c.166,0,.262.108.262.3v6.529c0,.2.088.279.294.279h2.833c.2,0,.31-.1.31-.279v-6.529c0-.205.081-.3.262-.3h1.549a.26.26,0,0,1,.279.3v9.858a1.693,1.693,0,0,1-.187.711l-1.051,1.717A.464.464,0,0,1-9989.8-2062.407Zm75.276-4.008h-.048a1.837,1.837,0,0,1-1.75-1.782v-3.9a2,2,0,0,1,1.1-1.873l1.642-.958a1.9,1.9,0,0,1,1.081-.312h1.426c.206,0,.294-.079.294-.264v-3.2c0-.181.089-.294.231-.294h1.579c.17,0,.264.1.264.294v11.919c0,.167-.074.231-.264.231h-1.579c-.162,0-.231-.074-.231-.247v-.249c0-.161-.058-.239-.176-.239a.443.443,0,0,0-.118.02l-2.989.807A1.591,1.591,0,0,1-9914.526-2066.415Zm.573-7.231c-.206,0-.294.1-.294.327v4.905c0,.188.082.261.294.261h2.863c.22,0,.31-.076.31-.261v-4.905c0-.223-.1-.327-.31-.327Zm-16.271,7.231a1.79,1.79,0,0,1-1.793-1.782v-3.9a2,2,0,0,1,1.084-1.873l1.654-.958a1.9,1.9,0,0,1,1.068-.312h3.545c.174,0,.262.1.262.3v8.156c0,.158-.083.231-.262.231h-1.579c-.175,0-.233-.062-.233-.247v-.249c0-.158-.063-.239-.188-.239a.46.46,0,0,0-.121.02l-2.969.807A1.64,1.64,0,0,1-9930.225-2066.415Zm.573-7.231c-.206,0-.294.1-.294.327v4.905c0,.188.082.261.294.261h2.863c.211,0,.31-.083.31-.261v-4.905c0-.217-.1-.327-.31-.327Zm-26.245,7.231a1.791,1.791,0,0,1-1.795-1.782v-3.9a2,2,0,0,1,1.086-1.873l1.657-.958a1.875,1.875,0,0,1,1.065-.312h3.545c.176,0,.262.1.262.3v8.156c0,.16-.081.231-.262.231h-1.581c-.169,0-.229-.064-.229-.247v-.249c0-.156-.066-.239-.191-.239a.46.46,0,0,0-.121.02l-2.972.807A1.574,1.574,0,0,1-9955.9-2066.415Zm.575-7.231c-.206,0-.294.1-.294.327v4.905c0,.191.08.261.294.261h2.861c.213,0,.313-.083.313-.261v-4.905c0-.217-.105-.327-.312-.327Zm-9.95,7.231h-.048a1.837,1.837,0,0,1-1.75-1.782v-3.9a1.992,1.992,0,0,1,1.1-1.873l1.639-.958a1.914,1.914,0,0,1,1.084-.312h1.425c.2,0,.295-.081.295-.264v-3.2c0-.184.087-.294.231-.294h1.578c.169,0,.262.1.262.294v11.919c0,.167-.073.231-.262.231h-1.578c-.164,0-.231-.072-.231-.247v-.249c0-.161-.058-.239-.177-.239a.438.438,0,0,0-.118.02l-2.989.807A1.558,1.558,0,0,1-9965.271-2066.415Zm.57-7.231c-.206,0-.294.1-.294.327v4.905c0,.188.082.261.294.261h2.863c.219,0,.313-.078.313-.261v-4.905c0-.223-.1-.327-.312-.327Zm-19.623,7.231a1.783,1.783,0,0,1-1.78-1.782v-6.745c0-.205.081-.3.262-.3h1.564c.154,0,.246.111.246.3v6.529c0,.183.093.261.312.261h2.834c.2,0,.309-.09.309-.261v-6.529c0-.211.071-.3.246-.3h1.547a.261.261,0,0,1,.281.3v8.156c0,.154-.095.231-.281.231h-1.547c-.184,0-.246-.062-.246-.247v-.249c0-.149-.07-.239-.188-.239a.329.329,0,0,0-.105.02l-2.972.807A1.649,1.649,0,0,1-9984.324-2066.415Zm63.807-.141h-1.563c-.184,0-.246-.058-.246-.231v-8.156c0-.214.069-.3.246-.3h1.563a.266.266,0,0,1,.276.3v.244c0,.175.084.249.279.249a.371.371,0,0,0,.171-.03l.9-.591a2.252,2.252,0,0,1,1.066-.259h.915a.245.245,0,0,1,.279.259v1.192c0,.151-.1.234-.279.234h-3.05c-.19,0-.279.1-.279.309v6.534C-9920.241-2066.6-9920.392-2066.555-9920.518-2066.555Zm-15.467,0h-3.342a2.2,2.2,0,0,1-2.26-2.228v-5.868a2.175,2.175,0,0,1,1.131-1.981l1.813-1.006a2.037,2.037,0,0,1,1.065-.294h3.837a.247.247,0,0,1,.279.279v1.131c0,.164-.092.244-.279.244h-5.37c-.176,0-.262.1-.262.312v7.459c0,.2.081.294.262.294h5.526c.179,0,.276.083.276.234a.437.437,0,0,1-.247.4l-1.332.742A2.177,2.177,0,0,1-9935.984-2066.555Zm-10.208,0h-1.546c-.2,0-.264-.058-.264-.231v-8.156c0-.217.071-.3.264-.3h1.546c.171,0,.265.105.265.3v8.156C-9945.928-2066.633-9946.017-2066.555-9946.192-2066.555Zm-22.916,0h-1.549c-.187,0-.249-.062-.249-.247v-6.534a.284.284,0,0,0-.309-.309h-2.834a.271.271,0,0,0-.307.309v6.534a.222.222,0,0,1-.249.247h-1.563c-.189,0-.264-.065-.264-.231v-8.156c0-.205.081-.3.264-.3h1.563c.156,0,.249.111.249.3v.261c0,.141.055.206.171.206a.574.574,0,0,0,.136-.02l2.957-.8.127-.029a1.406,1.406,0,0,1,.323-.049,1.812,1.812,0,0,1,1.81,1.81v6.781C-9968.832-2066.631-9968.923-2066.555-9969.108-2066.555Zm-29.038,0h-1.609c-.187,0-.249-.062-.249-.247v-4.382a.3.3,0,0,0-.337-.309h-4.229a.275.275,0,0,0-.294.309v4.382c0,.168-.088.247-.277.247h-1.642c-.155,0-.219-.067-.219-.231v-10.881c0-.178.071-.264.219-.264h1.642a.249.249,0,0,1,.277.264v4.211a.262.262,0,0,0,.294.292h4.229c.214,0,.337-.106.337-.292v-4.211c0-.183.077-.264.249-.264h1.609c.189,0,.294.094.294.264v10.881C-9997.853-2066.629-9997.946-2066.555-9998.146-2066.555Zm51.954-10.632h-1.546c-.2,0-.264-.061-.264-.249v-1.27c0-.2.086-.294.264-.294h1.546a.268.268,0,0,1,.265.294v1.27C-9945.928-2077.269-9946.015-2077.188-9946.192-2077.188Z" transform="translate(10018.353 2086.593)" fill="#1a1818" stroke="rgba(0,0,0,0)" stroke-width="1"/></svg>