<svg id="Layer_1" data-name="Layer 1" xmlns="http://www.w3.org/2000/svg" viewBox="0 0 23.25 23.25">
  <defs>
    <style>
      .cls-1 {
        fill: #d0d4d9;
      }

      .cls-2 {
        fill: #1366ff;
      }
    </style>
  </defs>
  <title>ico_check_2</title>
  <g>
    <path class="cls-1" d="M11.625,1A10.625,10.625,0,1,1,1,11.625,10.637,10.637,0,0,1,11.625,1m0-1A11.625,11.625,0,1,0,23.25,11.625,11.625,11.625,0,0,0,11.625,0Z"/>
    <path class="cls-2" d="M10.123,16.129a1,1,0,0,1-.707-.293l-4-4a1,1,0,0,1,1.416-1.415l3.295,3.3,6.3-6.3a1,1,0,0,1,1.415,1.415l-7.007,7.007A1,1,0,0,1,10.123,16.129Z"/>
  </g>
</svg>
