<svg id="Isolation_Mode" data-name="Isolation Mode" xmlns="http://www.w3.org/2000/svg" viewBox="0 0 65.86 59.565"><defs><style>.cls-1{fill:#fff;}</style></defs><title>ico_warning</title><ellipse class="cls-1" cx="32.93" cy="45.242" rx="2.938" ry="2.959"/><path class="cls-1" d="M32.93,39.04A2.434,2.434,0,0,1,30.505,36.6V20.32a2.426,2.426,0,1,1,4.851,0V36.6A2.435,2.435,0,0,1,32.93,39.04Z"/><path class="cls-1" d="M57.948,59.565H7.912a7.808,7.808,0,0,1-6.841-3.979,7.925,7.925,0,0,1,0-7.957L26.089,3.979h0a7.87,7.87,0,0,1,13.682,0l25.018,43.65a7.925,7.925,0,0,1,0,7.957A7.808,7.808,0,0,1,57.948,59.565ZM29.562,6,4.545,49.649a3.9,3.9,0,0,0,0,3.917,3.841,3.841,0,0,0,3.367,1.959H57.948a3.844,3.844,0,0,0,3.368-1.959,3.9,3.9,0,0,0,0-3.917L36.3,6a3.875,3.875,0,0,0-6.736,0Z"/></svg>