<?xml version="1.0" encoding="utf-8"?>
<!-- Generator: Adobe Illustrator 23.0.0, SVG Export Plug-In . SVG Version: 6.00 Build 0)  -->
<svg version="1.1" id="Layer_1" xmlns="http://www.w3.org/2000/svg" xmlns:xlink="http://www.w3.org/1999/xlink" x="0px" y="0px"
	 viewBox="0 0 15.9 15" style="enable-background:new 0 0 15.9 15;" xml:space="preserve">
<style type="text/css">
	.st0{fill:#8C98A4;}
</style>
<title>ico_edit</title>
<path class="st0" d="M9.7,9.1h5.2c0.1,0,0.2-0.1,0.4-0.2l0,0c0.1-0.1,0.1-0.3,0.2-0.4V7.3c0-0.1-0.1-0.2-0.2-0.4
	c-0.1-0.1-0.3-0.1-0.4-0.2L9.5,6.8H7.3H1C0.9,6.8,0.8,6.9,0.7,7l0,0C0.6,7.1,0.5,7.2,0.5,7.3v1.2c0,0.1,0.1,0.2,0.2,0.4S1,9,1.1,9.1
	h6.3H9.7z"/>
</svg>
