<?xml version="1.0" encoding="utf-8"?>
<!-- Generator: Adobe Illustrator 22.0.1, SVG Export Plug-In . SVG Version: 6.00 Build 0)  -->
<svg version="1.1" id="Layer_1" xmlns="http://www.w3.org/2000/svg" xmlns:xlink="http://www.w3.org/1999/xlink" x="0px" y="0px"
	 viewBox="0 0 12 9.2" style="enable-background:new 0 0 12 9.2;" xml:space="preserve">
<style type="text/css">
	.st0{fill:#8C98A4;}
</style>
<title>ico_fromto</title>
<path class="st0" d="M11.7,3.9C11.7,3.9,11.7,3.9,11.7,3.9L7.8,0.2c-0.3-0.2-0.6-0.2-0.9,0C6.7,0.4,6.7,0.8,6.9,1c0,0,0,0,0,0
	L10,3.9l-9.3,0C0.3,3.9,0,4.2,0,4.6C0,5,0.3,5.3,0.7,5.3l9.3,0L7,8.2C6.8,8.4,6.8,8.8,7,9c0,0,0,0,0,0c0.2,0.2,0.6,0.2,0.9,0
	l3.9-3.7C12.1,4.9,12.1,4.3,11.7,3.9z"/>
</svg>
