<?xml version="1.0" encoding="utf-8"?>
<!-- Generator: Adobe Illustrator 23.0.0, SVG Export Plug-In . SVG Version: 6.00 Build 0)  -->
<svg version="1.1" id="Layer_1" xmlns="http://www.w3.org/2000/svg" xmlns:xlink="http://www.w3.org/1999/xlink" x="0px" y="0px"
	 viewBox="0 0 15.9 15" style="enable-background:new 0 0 15.9 15;" xml:space="preserve">
<style type="text/css">
	.st0{fill:#8C98A4;}
</style>
<title>ico_edit</title>
<path class="st0" d="M9.6,7.8l4.3-4.3C14,3.4,14,3.3,14,3.1s0-0.2-0.1-0.3L13.1,2c-0.1-0.1-0.2-0.1-0.4-0.1l0,0
	c-0.1,0-0.3,0.1-0.4,0.1L8.1,6.3L3.8,2C3.7,1.9,3.6,1.9,3.5,1.9l0,0c-0.2,0-0.3,0-0.4,0.1L2.3,2.8C2.2,2.9,2.2,3,2.2,3.2
	s0.1,0.3,0.1,0.4l4.3,4.3l-4.3,4.3c-0.1,0.1-0.1,0.2-0.1,0.4s0.1,0.3,0.1,0.4l0.8,0.8c0.1,0.1,0.2,0.1,0.4,0.1l0,0
	c0.1,0,0.3-0.1,0.4-0.1l4.3-4.3l4.3,4.3c0.1,0.1,0.2,0.1,0.4,0.1l0,0c0.1,0,0.3-0.1,0.4-0.1l0.8-0.8c0.1-0.1,0.1-0.2,0.1-0.4
	s-0.1-0.3-0.1-0.4L9.6,7.8z"/>
</svg>
