<?xml version="1.0" encoding="utf-8"?>
<!-- Generator: Adobe Illustrator 17.0.0, SVG Export Plug-In . SVG Version: 6.00 Build 0)  -->
<!DOCTYPE svg PUBLIC "-//W3C//DTD SVG 1.1//EN" "http://www.w3.org/Graphics/SVG/1.1/DTD/svg11.dtd">
<svg version="1.1" id="Layer_1" xmlns="http://www.w3.org/2000/svg" xmlns:xlink="http://www.w3.org/1999/xlink" x="0px" y="0px"
	 width="19.87px" height="17.317px" viewBox="11.065 12.341 19.87 17.317" enable-background="new 11.065 12.341 19.87 17.317"
	 xml:space="preserve">
<g id="Icons">
	<g id="Icons_20_">
		<g>
			<path fill="#1366FF" d="M24.971,25.475h3.281c0.569,0,1.129-0.464,1.251-1.041c0.114-0.578-0.254-1.033-0.822-1.033h-3.281
				l0.98-4.804h3.29c0.569,0,1.129-0.464,1.242-1.041c0.122-0.569-0.254-1.032-0.822-1.032h-3.281l0.647-3.141
				c0.114-0.569-0.254-1.041-0.823-1.041c-0.569,0-1.129,0.472-1.251,1.041l-0.647,3.141h-5.504l0.639-3.141
				c0.122-0.569-0.245-1.041-0.814-1.041c-0.578,0-1.138,0.472-1.251,1.041l-0.647,3.141h-3.404c-0.569,0-1.137,0.464-1.251,1.032
				c-0.122,0.578,0.254,1.041,0.823,1.041h3.404l-0.988,4.801h-3.404c-0.57,0-1.13,0.457-1.249,1.039
				c-0.117,0.571,0.253,1.039,0.822,1.039h3.41 M17.384,25.475h5.512 M23.326,23.401h-5.513l0.989-4.804h5.513L23.326,23.401z"/>
			<g>
				<path fill="#1366FF" d="M22.895,25.476l-0.639,3.141c-0.122,0.569,0.245,1.041,0.814,1.041c0.577,0,1.137-0.472,1.251-1.041
					l0.647-3.141"/>
				<path fill="#1366FF" d="M15.317,25.476l-0.647,3.141c-0.114,0.569,0.254,1.041,0.823,1.041c0.569,0,1.129-0.472,1.251-1.041
					l0.648-3.141"/>
			</g>
		</g>
	</g>
</g>
</svg>
