<!-- Generated by IcoMoon.io -->
<svg version="1.1" xmlns="http://www.w3.org/2000/svg" width="1024" height="1024" viewBox="0 0 1024 1024">
<title></title>
<g id="icomoon-ignore">
</g>
<path fill="#fff" d="M512 0c-282.77 0-512 229.23-512 512s229.23 512 512 512c282.77 0 512-229.23 512-512v0c0-282.77-229.23-512-512-512v0z"></path>
<path fill="#4e8cff" d="M512 170.13c0.348-0.005 0.758-0.008 1.17-0.008 47.627 0 86.235 38.609 86.235 86.235s-38.609 86.235-86.235 86.235c-47.627 0-86.235-38.609-86.235-86.235 0-0.126 0-0.252 0.001-0.377v0.019c0.202-47.062 38.070-85.212 85.003-85.869l0.062-0.001z"></path>
<path fill="#4e8cff" d="M656.75 865.865h-260.608v-51.712h55.662v-351.086h-83.822v-44.471h205.458v395.557h83.31z"></path>
</svg>
