<!-- Generated by IcoMoon.io -->
<svg version="1.1" xmlns="http://www.w3.org/2000/svg" width="897" height="1024" viewBox="0 0 897 1024">
<title></title>
<g id="icomoon-ignore">
</g>
<path d="M446.443 525.115c-2.057 0-6.172 0-8.229-2.057l-429.984-244.824c-4.114-2.057-8.229-8.229-8.229-12.344s2.057-10.287 8.229-14.402l432.041-248.938c4.114-2.057 10.287-2.057 14.402 0l429.984 244.824c4.114 2.057 8.229 8.229 8.229 12.344s-2.057 10.287-8.229 14.402l-432.041 248.938c-2.057 2.057-4.114 2.057-6.172 2.057zM47.319 263.834l397.066 228.365 401.181-232.479-397.066-226.308-401.181 230.422z"></path>
<path d="M450.557 1022.992c-2.057 0-6.172 0-8.229-2.057-4.114-2.057-8.229-8.229-8.229-12.344l-4.114-499.934c0-6.172 2.057-10.287 8.229-14.402l432.041-248.938c4.114-2.057 10.287-2.057 14.402 0s8.229 8.229 8.229 12.344l4.114 497.876c0 6.172-2.057 10.287-8.229 14.402l-432.041 248.938c0 4.114-4.114 4.114-6.172 4.114zM460.844 518.944l4.114 462.902 401.181-232.479-4.114-462.902-401.181 232.479z"></path>
<path d="M450.557 1022.992c-2.057 0-6.172 0-8.229-2.057l-427.927-244.824c-4.114-2.057-8.229-8.229-8.229-12.344l-4.114-497.876c0-6.172 2.057-10.287 8.229-14.402 4.114-2.057 10.287-2.057 16.459 0l429.984 244.824c4.114 2.057 8.229 8.229 8.229 12.344l4.114 497.876c0 6.172-2.057 10.287-8.229 14.402-4.114 2.057-8.229 2.057-10.287 2.057zM37.032 753.48l397.066 228.365-4.114-462.902-397.066-228.365 4.114 462.902z"></path>
</svg>
