<svg xmlns="http://www.w3.org/2000/svg" width="121" height="142" viewBox="0 0 121 142"><g transform="translate(-352 -489)"><rect width="34.334" height="2" transform="translate(427.667 579)" fill="#c4c4c4"/><rect width="34.334" height="2" transform="translate(427.667 584)" fill="#c4c4c4"/><rect width="34.334" height="2" transform="translate(427.667 589)" fill="#c4c4c4"/><path d="M422,494.94a5.015,5.015,0,0,0-5-5H357a5.015,5.015,0,0,0-5,5V501h70Z" fill="#c4c4c4"/><rect width="70" height="113.939" transform="translate(352 501)" fill="#e4e5e7"/><path d="M352,624.94a5.015,5.015,0,0,0,5,5h60a5.015,5.015,0,0,0,5-5v-10H352Z" fill="#c4c4c4"/><rect width="15.999" height="2" transform="translate(379.001 494)"/><path d="M387,625.94a3.47,3.47,0,1,1,3.47-3.47A3.474,3.474,0,0,1,387,625.94Zm0-4.94a1.47,1.47,0,1,0,1.47,1.47A1.471,1.471,0,0,0,387,621Z"/><path d="M473,631H427v-2h44V491H427v-2h46Z"/><rect width="45" height="2" transform="translate(427 504)"/><path d="M463,500.828H427v-2h34v-2.655H427v-2h36Z"/><path d="M387,571a21,21,0,1,1,21-21A21.024,21.024,0,0,1,387,571Zm0-40a19,19,0,1,0,19,19A19.022,19.022,0,0,0,387,531Z"/><path d="M387,552.5a6.75,6.75,0,1,1,6.75-6.75A6.758,6.758,0,0,1,387,552.5Zm0-11.5a4.75,4.75,0,1,0,4.75,4.75A4.756,4.756,0,0,0,387,541Z"/><path d="M397.064,565.352,393.558,556H380.443l-3.506,9.352-1.873-.7L379.058,554h15.886l3.994,10.648Z"/><rect width="20" height="2" transform="translate(377 579)"/><rect width="20" height="2" transform="translate(377 583)"/><rect width="10" height="2" transform="translate(452 519)" fill="#c4c4c4"/><rect width="35" height="20" transform="translate(427 530)" fill="#6598f7"/><circle cx="5" cy="5" r="5" transform="translate(452 560)" fill="#6598f7"/><circle cx="5" cy="5" r="5" transform="translate(437 560)" fill="#6598f7"/><path d="M427,570a5,5,0,0,0,0-10Z" fill="#6598f7"/><path d="M462,611.25H441V599h21Zm-19-2h17V601H443Z" fill="#c4c4c4"/><path d="M438.167,611.25H427v-2h9.166V601H427v-2h11.166Z" fill="#c4c4c4"/><rect width="45" height="2" transform="translate(427 619)"/></g></svg>