<?xml version="1.0" encoding="utf-8"?>
<!-- Generator: Adobe Illustrator 22.0.1, SVG Export Plug-In . SVG Version: 6.00 Build 0)  -->
<svg version="1.1" id="Layer_1" xmlns="http://www.w3.org/2000/svg" xmlns:xlink="http://www.w3.org/1999/xlink" x="0px" y="0px"
	 viewBox="0 0 47.5 55.1" style="enable-background:new 0 0 47.5 55.1;" xml:space="preserve">
<style type="text/css">
	.st0{opacity:0.835;}
	.st1{fill:#1E3049;}
</style>
<g transform="translate(-234.056 -295.931)" class="st0">
	<g transform="translate(253.18 296.681)">
		<g>
			<path class="st1" d="M1,7.5C0.5,7.5,0.1,7.3-0.2,7c-0.3-0.3-0.5-0.8-0.5-1.2V1C-0.7,0,0-0.7,1-0.7h7.3C9.2-0.7,10,0,10,1l0,4.7
				c0,1-0.8,1.7-1.8,1.7H1C1,7.5,1,7.5,1,7.5z M1,0.8C0.9,0.8,0.8,0.9,0.8,1v4.7c0,0.1,0,0.2,0.1,0.2C0.9,5.9,0.9,6,1,6c0,0,0,0,0,0
				h7.3c0.1,0,0.2-0.1,0.2-0.2l0-4.7c0-0.1-0.1-0.2-0.2-0.2H1z"/>
		</g>
	</g>
	<g transform="translate(240.061 300.47)">
		<g transform="translate(0 0)">
			<g>
				<polygon class="st1" points="3.9,8.7 2.2,5.8 3.5,5 4.5,6.7 5.9,5.8 4.9,4.2 6.2,3.4 7.9,6.4 				"/>
			</g>
			<g>
				<path class="st1" d="M2.1,6.8c-0.5,0-0.9-0.2-1.2-0.7l-1.5-2.5c-0.4-0.7-0.2-1.5,0.5-1.9l3.9-2.3c0.7-0.4,1.5-0.1,1.9,0.5
					l1.5,2.5C7.6,3.1,7.3,4,6.7,4.4L2.8,6.6C2.6,6.7,2.3,6.8,2.1,6.8z M0.8,2.9l1.3,2.3l3.7-2.1L4.5,0.8L0.8,2.9z"/>
			</g>
		</g>
	</g>
	<g transform="translate(268.399 300.47)">
		<g transform="translate(0 0)">
			<g>
				<polygon class="st1" points="3,8.7 -1,6.4 0.5,3.5 1.8,4.1 1,5.8 2.4,6.6 3.2,5 4.6,5.7 				"/>
			</g>
			<g>
				<path class="st1" d="M4.8,6.8c-0.2,0-0.5-0.1-0.7-0.2L0.2,4.4C-0.4,4-0.7,3.1-0.3,2.5v0l1.5-2.5c0.4-0.7,1.2-0.9,1.9-0.5L7,1.7
					c0.7,0.4,0.9,1.2,0.5,1.9L6,6.1C5.8,6.5,5.3,6.8,4.8,6.8z M1.1,3.1l3.7,2.1l1.3-2.3L2.4,0.8L1.1,3.1z"/>
			</g>
		</g>
	</g>
	<g>
		<path class="st1" d="M257.8,351.1c-13.1,0-23.8-10.7-23.8-23.8s10.7-23.8,23.8-23.8s23.8,10.7,23.8,23.8S270.9,351.1,257.8,351.1z
			 M257.8,305.1c-12.3,0-22.2,10-22.2,22.2s10,22.2,22.2,22.2s22.2-10,22.2-22.2S270.1,305.1,257.8,305.1z"/>
	</g>
	<g>
		<path class="st1" d="M257.8,347.7c-5.5,0-10.6-2.1-14.4-6c-3.9-3.9-6-9-6-14.4c0-11.3,9.2-20.4,20.4-20.4h0
			c11.2,0,20.4,9.2,20.4,20.4C278.2,338.6,269.1,347.7,257.8,347.7C257.8,347.7,257.8,347.7,257.8,347.7z M257.8,308.4
			c-10.4,0-18.9,8.5-18.9,18.9c0,5.1,2,9.8,5.5,13.4c3.6,3.6,8.3,5.5,13.4,5.5c0,0,0,0,0,0c10.4,0,18.9-8.5,18.9-18.9
			C276.7,316.9,268.2,308.4,257.8,308.4L257.8,308.4z"/>
	</g>
	<g>
		<rect x="256.9" y="310.2" class="st1" width="1.5" height="2.9"/>
	</g>
	<g>
		
			<rect x="249.1" y="312.4" transform="matrix(0.8661 -0.4999 0.4999 0.8661 -123.4151 166.9028)" class="st1" width="1.5" height="2.9"/>
	</g>
	<g>
		
			<rect x="243.4" y="318.2" transform="matrix(0.5001 -0.8659 0.8659 0.5001 -154.7269 371.1792)" class="st1" width="1.5" height="2.9"/>
	</g>
	<g>
		<rect x="240.7" y="326.7" class="st1" width="2.9" height="1.5"/>
	</g>
	<g>
		
			<rect x="242.9" y="334.5" transform="matrix(0.866 -0.5001 0.5001 0.866 -134.9258 167.1012)" class="st1" width="2.9" height="1.5"/>
	</g>
	<g>
		
			<rect x="248.7" y="340.2" transform="matrix(0.5001 -0.866 0.866 0.5001 -170.2391 387.0555)" class="st1" width="2.9" height="1.5"/>
	</g>
	<g>
		<rect x="257.2" y="341.6" class="st1" width="1.5" height="2.9"/>
	</g>
	<g>
		
			<rect x="265" y="339.4" transform="matrix(0.8663 -0.4995 0.4995 0.8663 -134.6935 178.3025)" class="st1" width="1.5" height="2.9"/>
	</g>
	<g>
		
			<rect x="270.7" y="333.6" transform="matrix(0.5004 -0.8658 0.8658 0.5004 -154.4234 402.4008)" class="st1" width="1.5" height="2.9"/>
	</g>
	<g>
		<rect x="272" y="326.4" class="st1" width="2.9" height="1.5"/>
	</g>
	<g>
		
			<rect x="269.9" y="318.6" transform="matrix(0.8662 -0.4998 0.4998 0.8662 -123.2803 178.3329)" class="st1" width="2.9" height="1.5"/>
	</g>
	<g>
		
			<rect x="264.1" y="312.9" transform="matrix(0.5005 -0.8657 0.8657 0.5005 -138.9211 386.5016)" class="st1" width="2.9" height="1.5"/>
	</g>
	<g>
		
			<rect x="257.5" y="321" transform="matrix(0.6928 -0.7211 0.7211 0.6928 -151.1833 288.5625)" class="st1" width="11.2" height="1.5"/>
	</g>
	<g transform="translate(255.62 325.083)">
		<g>
			<path class="st1" d="M2.2,5.2c-1.6,0-3-1.3-3-2.9c0-1.6,1.3-3,3-3c1.6,0,2.9,1.3,2.9,3v0C5.2,3.8,3.8,5.1,2.2,5.2z M2.2,0.8
				c-0.8,0-1.5,0.7-1.5,1.5c0,0.8,0.7,1.4,1.5,1.4C3,3.7,3.7,3,3.7,2.2C3.7,1.4,3,0.8,2.2,0.8z"/>
		</g>
	</g>
</g>
</svg>
