<?xml version="1.0" encoding="utf-8"?>
<!-- Generator: Adobe Illustrator 22.0.1, SVG Export Plug-In . SVG Version: 6.00 Build 0)  -->
<svg version="1.1" id="Layer_1" xmlns="http://www.w3.org/2000/svg" xmlns:xlink="http://www.w3.org/1999/xlink" x="0px" y="0px"
	 viewBox="0 0 41 42" style="enable-background:new 0 0 41 42;" xml:space="preserve">
<style type="text/css">
	.st0{fill:none;}
	.st1{fill:#1E3049;}
	.st2{fill:#FBFCFC;}
</style>
<g transform="translate(-973 -819)">
	<g transform="translate(1078.222 494.766)">
		<g transform="translate(-105.222 324.234)">
			<g>
				<circle class="st0" cx="17" cy="17" r="17"/>
			</g>
			<g>
				<path class="st1" d="M17,34C7.6,34,0,26.4,0,17S7.6,0,17,0s17,7.6,17,17S26.4,34,17,34z M17,1.5C8.5,1.5,1.5,8.5,1.5,17
					s7,15.5,15.5,15.5s15.5-7,15.5-15.5S25.5,1.5,17,1.5z"/>
			</g>
		</g>
		<g transform="translate(-102.222 327.234)">
			<g>
				<circle class="st0" cx="14" cy="14" r="14"/>
			</g>
			<g>
				<path class="st1" d="M14,28C6.3,28,0,21.7,0,14S6.3,0,14,0s14,6.3,14,14S21.7,28,14,28z M14,1.5C7.1,1.5,1.5,7.1,1.5,14
					S7.1,26.5,14,26.5S26.5,20.9,26.5,14S20.9,1.5,14,1.5z"/>
			</g>
		</g>
	</g>
	<g transform="translate(1085.222 502.766)">
		<g transform="translate(-105.222 324.234)">
			<g>
				<circle class="st2" cx="17" cy="17" r="17"/>
			</g>
			<g>
				<path class="st1" d="M17,34C7.6,34,0,26.4,0,17S7.6,0,17,0s17,7.6,17,17S26.4,34,17,34z M17,1.5C8.5,1.5,1.5,8.5,1.5,17
					s7,15.5,15.5,15.5s15.5-7,15.5-15.5S25.5,1.5,17,1.5z"/>
			</g>
		</g>
		<g transform="translate(-102.222 327.234)">
			<g>
				<circle class="st0" cx="14" cy="14" r="14"/>
			</g>
			<g>
				<path class="st1" d="M14,28C6.3,28,0,21.7,0,14S6.3,0,14,0s14,6.3,14,14S21.7,28,14,28z M14,1.5C7.1,1.5,1.5,7.1,1.5,14
					S7.1,26.5,14,26.5S26.5,20.9,26.5,14S20.9,1.5,14,1.5z"/>
			</g>
		</g>
	</g>
</g>
</svg>
