<svg xmlns="http://www.w3.org/2000/svg" width="122" height="142" viewBox="0 0 122 142"><g transform="translate(-751 -489)"><rect width="50" height="10" transform="translate(752 540)" fill="#e295d3"/><rect width="30" height="40" transform="translate(752 490)" fill="#e295d3"/><path d="M775.052,522.316,768,501.162l-7.052,21.154-1.9-.633L768,494.838l8.948,26.846Z" fill="#fff"/><rect width="10.668" height="2" transform="translate(762.666 513)" fill="#fff"/><path d="M773.052,522.316,766,501.162l-7.052,21.154-1.9-.633L766,494.838l8.948,26.846Z"/><rect width="10.668" height="2" transform="translate(760.666 513)"/><path d="M869,497a4,4,0,1,1,4-4A4,4,0,0,1,869,497Zm0-6a2,2,0,1,0,2,2A2,2,0,0,0,869,491Z"/><path d="M857.062,497a4,4,0,1,1,4-4A4,4,0,0,1,857.062,497Zm0-6a2,2,0,1,0,2,2A2,2,0,0,0,857.062,491Z"/><path d="M845,497a4,4,0,1,1,4-4A4,4,0,0,1,845,497Zm0-6a2,2,0,1,0,2,2A2,2,0,0,0,845,491Z"/><rect width="60" height="30" transform="translate(812 500)" fill="#e4e5e7"/><path d="M825.814,516.389l-1.414-1.414a24.918,24.918,0,0,1,35.2,0l-1.415,1.414A22.916,22.916,0,0,0,825.814,516.389Z"/><rect width="21.932" height="1.999" transform="translate(840.315 524.269) rotate(-43.14)" fill="#6598f7"/><rect width="10" height="2" transform="translate(792 499)"/><rect width="5" height="2" transform="translate(792 504)"/><rect width="10" height="2" transform="translate(792 509)"/><rect width="5" height="2" transform="translate(792 514)"/><rect width="10" height="2" transform="translate(792 519)"/><rect width="5" height="2" transform="translate(792 524)"/><rect width="10" height="2" transform="translate(792 529)"/><path d="M873,551H751V539H873Zm-120-2H871v-8H753Z"/><rect width="2" height="30" transform="translate(756 560)"/><rect width="10" height="5" transform="translate(752 570)" fill="#e295d3"/><rect width="2" height="30" transform="translate(771 560)"/><rect width="10" height="5" transform="translate(767 577.5)" fill="#e295d3"/><rect width="2" height="30" transform="translate(786 560)"/><rect width="10" height="5" transform="translate(782 565.5)" fill="#e295d3"/><path d="M873,591H801V560h2v29h68V560h2Z"/><rect width="2" height="5" transform="translate(806 585)"/><rect width="2" height="10" transform="translate(811 580)"/><rect width="2" height="5" transform="translate(816 585)"/><rect width="2" height="10" transform="translate(821 580)"/><rect width="2" height="5" transform="translate(826 585)"/><rect width="2" height="15" transform="translate(831 575)"/><rect width="2" height="5" transform="translate(836 585)"/><rect width="2" height="10" transform="translate(841 580)"/><rect width="2" height="5" transform="translate(846 585)"/><rect width="2" height="24.5" transform="translate(851 565.5)"/><rect width="2" height="15" transform="translate(856 575)"/><rect width="2" height="5" transform="translate(866 585)"/><rect width="2" height="10" transform="translate(861 580)"/><rect width="15" height="15" transform="translate(752 600)" fill="#e295d3"/><rect width="15" height="2" transform="translate(752 619)"/><rect width="15" height="2" transform="translate(752 624)"/><rect width="15" height="2" transform="translate(752 629)"/><rect width="15" height="15" transform="translate(779 600)" fill="#e295d3"/><rect width="15" height="2" transform="translate(779 619)"/><rect width="15" height="2" transform="translate(779 624)"/><rect width="15" height="2" transform="translate(779 629)"/><rect width="15" height="15" transform="translate(830 600)" fill="#e295d3"/><rect width="15" height="2" transform="translate(830 619)"/><rect width="15" height="2" transform="translate(830 624)"/><rect width="15" height="2" transform="translate(830 629)"/><rect width="15" height="15" transform="translate(805.333 600)" fill="#e295d3"/><rect width="15" height="2" transform="translate(805.333 619)"/><rect width="15" height="2" transform="translate(805.333 624)"/><rect width="15" height="2" transform="translate(805.333 629)"/><rect width="15" height="15" transform="translate(857 600)" fill="#e295d3"/><rect width="15" height="2" transform="translate(857 619)"/><rect width="15" height="2" transform="translate(857 624)"/><rect width="15" height="2" transform="translate(857 629)"/></g></svg>