<?xml version="1.0" encoding="utf-8"?>
<!-- Generator: Adobe Illustrator 22.0.1, SVG Export Plug-In . SVG Version: 6.00 Build 0)  -->
<svg version="1.1" id="Layer_1" xmlns="http://www.w3.org/2000/svg" xmlns:xlink="http://www.w3.org/1999/xlink" x="0px" y="0px"
	 viewBox="0 0 86.7 39.5" style="enable-background:new 0 0 86.7 39.5;" xml:space="preserve">
<style type="text/css">
	.st0{fill:#273952;}
</style>
<g transform="translate(278.054 -552.593)">
	<g transform="translate(-251.029 553.343)">
		<g>
			<path class="st0" d="M16.4,19.7c-0.1,0-0.3,0-0.4-0.1l-16.4-9.4c-0.2-0.1-0.4-0.4-0.4-0.6S-0.6,9-0.4,8.9l16.5-9.5
				c0.2-0.1,0.5-0.1,0.7,0l16.4,9.4c0.2,0.1,0.4,0.4,0.4,0.6s-0.1,0.5-0.4,0.7l-16.5,9.5C16.7,19.6,16.6,19.7,16.4,19.7z M1.5,9.5
				l14.9,8.5l15-8.7L16.5,0.9L1.5,9.5z"/>
		</g>
		<g>
			<path class="st0" d="M16.6,38.7c-0.1,0-0.3,0-0.4-0.1c-0.2-0.1-0.4-0.4-0.4-0.6l-0.2-19.1c0-0.3,0.1-0.5,0.4-0.7l16.5-9.5
				c0.2-0.1,0.5-0.1,0.7,0c0.2,0.1,0.4,0.4,0.4,0.6l0.2,19.1c0,0.3-0.1,0.5-0.4,0.7L17,38.6C16.9,38.7,16.7,38.7,16.6,38.7z
				 M17.2,19.4l0.2,17.4l15-8.7l-0.2-17.3L17.2,19.4z"/>
		</g>
		<g>
			<path class="st0" d="M16.6,38.8c-0.1,0-0.3,0-0.4-0.1l-16.4-9.4c-0.2-0.1-0.4-0.4-0.4-0.6L-0.8,9.5c0-0.3,0.1-0.5,0.4-0.7
				c0.2-0.1,0.5-0.1,0.8,0l16.4,9.4c0.2,0.1,0.4,0.4,0.4,0.6L17.4,38c0,0.3-0.1,0.5-0.4,0.7C16.9,38.7,16.7,38.8,16.6,38.8z
				 M0.9,28.2l14.9,8.5l-0.2-17.3L0.8,10.8L0.9,28.2z"/>
		</g>
	</g>
	<g transform="translate(-208.234 562.876)">
		<g>
			<path class="st0" d="M11.8,9.4c-0.2,0-0.4-0.1-0.5-0.2c-0.3-0.3-0.3-0.8,0-1.1l3.8-3.8l-3.8-3.8c-0.3-0.3-0.3-0.8,0-1.1
				c0.3-0.3,0.8-0.3,1.1,0l4.3,4.3c0.3,0.3,0.3,0.8,0,1.1l-4.3,4.3C12.2,9.4,12,9.4,11.8,9.4z"/>
		</g>
		<g>
			<path class="st0" d="M0,5.1c-0.4,0-0.8-0.3-0.8-0.8S-0.4,3.6,0,3.6l15.7,0c0.4,0,0.8,0.3,0.8,0.8s-0.3,0.8-0.8,0.8L0,5.1z"/>
		</g>
	</g>
	<g transform="translate(-209.042 572.974)">
		<g>
			<path class="st0" d="M4.3,9.4C4.1,9.4,4,9.4,3.8,9.2l-4.3-4.3c-0.3-0.3-0.3-0.8,0-1.1l4.3-4.3c0.3-0.3,0.8-0.3,1.1,0
				c0.3,0.3,0.3,0.8,0,1.1L1.1,4.3l3.8,3.8c0.3,0.3,0.3,0.8,0,1.1C4.7,9.4,4.5,9.4,4.3,9.4z"/>
		</g>
		<g>
			<path class="st0" d="M0.4,5.1C0,5.1-0.4,4.8-0.4,4.3S0,3.6,0.4,3.6l15.7,0c0.4,0,0.8,0.3,0.8,0.8s-0.3,0.8-0.8,0.8L0.4,5.1z"/>
		</g>
	</g>
	<g transform="translate(-276.496 562.876)">
		<g>
			<path class="st0" d="M11.8,9.4c-0.2,0-0.4-0.1-0.5-0.2c-0.3-0.3-0.3-0.8,0-1.1l3.8-3.8l-3.8-3.8c-0.3-0.3-0.3-0.8,0-1.1
				c0.3-0.3,0.8-0.3,1.1,0l4.3,4.3c0.3,0.3,0.3,0.8,0,1.1l-4.3,4.3C12.2,9.4,12,9.4,11.8,9.4z"/>
		</g>
		<g>
			<path class="st0" d="M0,5.1c-0.4,0-0.8-0.3-0.8-0.8S-0.4,3.6,0,3.6l15.7,0c0.4,0,0.8,0.3,0.8,0.8s-0.3,0.8-0.8,0.8L0,5.1z"/>
		</g>
	</g>
	<g transform="translate(-277.304 572.974)">
		<g>
			<path class="st0" d="M4.3,9.4C4.1,9.4,4,9.4,3.8,9.2l-4.3-4.3c-0.3-0.3-0.3-0.8,0-1.1l4.3-4.3c0.3-0.3,0.8-0.3,1.1,0
				c0.3,0.3,0.3,0.8,0,1.1L1.1,4.3l3.8,3.8c0.3,0.3,0.3,0.8,0,1.1C4.7,9.4,4.5,9.4,4.3,9.4z"/>
		</g>
		<g>
			<path class="st0" d="M0.4,5.1C0,5.1-0.4,4.8-0.4,4.3S0,3.6,0.4,3.6l15.7,0c0.4,0,0.8,0.3,0.8,0.8s-0.3,0.8-0.8,0.8L0.4,5.1z"/>
		</g>
	</g>
</g>
</svg>
