<svg xmlns="http://www.w3.org/2000/svg" width="120.625" height="141" viewBox="0 0 120.625 141"><g transform="translate(-152 -489)"><rect width="25.625" height="2" transform="translate(247 589)" fill="#c4c4c4"/><rect width="25.625" height="2" transform="translate(247 595)" fill="#c4c4c4"/><rect width="25.625" height="2" transform="translate(247 600)" fill="#c4c4c4"/><rect width="15" height="2" transform="translate(247 605)" fill="#c4c4c4"/><rect width="120" height="80" transform="translate(152.001 500)" fill="#6598f7"/><path d="M212.667,552.834a9.417,9.417,0,1,1,9.417-9.417A9.428,9.428,0,0,1,212.667,552.834Zm0-16.834a7.417,7.417,0,1,0,7.417,7.417A7.425,7.425,0,0,0,212.667,536Z" fill="#fff"/><path d="M212.667,557.834a14.417,14.417,0,1,1,14.417-14.417A14.433,14.433,0,0,1,212.667,557.834Zm0-26.834a12.417,12.417,0,1,0,12.417,12.417A12.431,12.431,0,0,0,212.667,531Z" fill="#fff"/><path d="M182,611.167A11.167,11.167,0,1,1,193.167,600,11.18,11.18,0,0,1,182,611.167Zm0-20.334A9.167,9.167,0,1,0,191.167,600,9.178,9.178,0,0,0,182,590.833Z"/><path d="M182,606a6,6,0,1,1,6-6A6.007,6.007,0,0,1,182,606Zm0-10a4,4,0,1,0,4,4A4,4,0,0,0,182,596Z"/><path d="M182.016,616H182a16.148,16.148,0,0,1-3.1-.3l.387-1.963A14.059,14.059,0,0,0,182,614Zm3.119-.309-.388-1.961a13.967,13.967,0,0,0,2.623-.8l.766,1.847A15.856,15.856,0,0,1,185.135,615.691Zm-9.24-.9a16.091,16.091,0,0,1-2.767-1.477l1.111-1.664a13.881,13.881,0,0,0,2.42,1.291Zm15-1.495-1.114-1.66A14.22,14.22,0,0,0,191.9,609.9l1.415,1.414A16.13,16.13,0,0,1,190.9,613.3Zm-20.2-1.968a16.137,16.137,0,0,1-1.994-2.419l1.661-1.115a14.086,14.086,0,0,0,1.745,2.118Zm24.605-2.447-1.662-1.113a13.905,13.905,0,0,0,1.294-2.418l1.848.766A15.94,15.94,0,0,1,195.309,608.885Zm-28.083-2.734a15.934,15.934,0,0,1-.916-3l1.961-.392a14.027,14.027,0,0,0,.8,2.622Zm30.471-3.033-1.962-.387A14.172,14.172,0,0,0,196,600l1.444-.046.556.023A16.247,16.247,0,0,1,197.7,603.118Zm-31.432-3.091-.264,0a16.126,16.126,0,0,1,.3-3.111l1.963.385A14.067,14.067,0,0,0,168,600Zm29.458-2.816a13.956,13.956,0,0,0-.805-2.621l1.845-.774a15.925,15.925,0,0,1,.921,3Zm-26.674-2.539-1.849-.762a15.936,15.936,0,0,1,1.473-2.768l1.665,1.109A13.952,13.952,0,0,0,169.049,594.672Zm24.565-2.494a14.013,14.013,0,0,0-1.75-2.113l1.409-1.42a16.054,16.054,0,0,1,2,2.414Zm-21.54-2.052-1.418-1.41a16.074,16.074,0,0,1,2.417-2l1.116,1.66A14.115,14.115,0,0,0,172.074,590.126Zm17.663-1.8a14.052,14.052,0,0,0-2.422-1.286l.759-1.85a15.976,15.976,0,0,1,2.77,1.47ZM176.6,587.078l-.77-1.846a16.074,16.074,0,0,1,3-.917l.4,1.96A14.066,14.066,0,0,0,176.6,587.078Zm8.084-.821A14.191,14.191,0,0,0,182,586l-.041-1.728,0-.271h.015a16.169,16.169,0,0,1,3.092.293Z"/><path d="M242,511a6,6,0,1,1,6-6A6.008,6.008,0,0,1,242,511Zm0-10a4,4,0,1,0,4,4A4,4,0,0,0,242,501Z"/><path d="M182,516.75a6,6,0,1,1,6-6A6.007,6.007,0,0,1,182,516.75Zm0-10a4,4,0,1,0,4,4A4.005,4.005,0,0,0,182,506.749Z"/><path d="M242.016,521H242a16.148,16.148,0,0,1-3.1-.3l.387-1.963A14.059,14.059,0,0,0,242,519Zm3.119-.309-.388-1.961a13.967,13.967,0,0,0,2.623-.8l.766,1.847A15.856,15.856,0,0,1,245.135,520.691Zm-9.24-.9a16.091,16.091,0,0,1-2.767-1.477l1.111-1.664a13.881,13.881,0,0,0,2.42,1.291Zm15-1.495-1.114-1.66A14.22,14.22,0,0,0,251.9,514.9l1.415,1.414A16.13,16.13,0,0,1,250.9,518.3Zm-20.2-1.968a16.137,16.137,0,0,1-1.994-2.419l1.661-1.115a14.086,14.086,0,0,0,1.745,2.118Zm24.605-2.446-1.662-1.113a13.913,13.913,0,0,0,1.294-2.418l1.848.765A15.915,15.915,0,0,1,255.309,513.886Zm-28.083-2.734a15.952,15.952,0,0,1-.916-3l1.961-.391a14.026,14.026,0,0,0,.8,2.622Zm30.471-3.034-1.962-.387A14.172,14.172,0,0,0,256,505l1.438-.045.562.022A16.238,16.238,0,0,1,257.7,508.118Zm-31.433-3.091H226a16.128,16.128,0,0,1,.3-3.112l1.963.384A14.085,14.085,0,0,0,228,505Zm29.46-2.816a14.034,14.034,0,0,0-.806-2.621l1.845-.773a15.967,15.967,0,0,1,.921,3Zm-26.675-2.539-1.849-.761a15.973,15.973,0,0,1,1.473-2.768l1.665,1.108A13.988,13.988,0,0,0,229.049,499.672Zm24.564-2.495a13.985,13.985,0,0,0-1.749-2.113l1.409-1.42a15.972,15.972,0,0,1,2,2.415Zm-21.539-2.05-1.418-1.412a16.151,16.151,0,0,1,2.417-1.995l1.117,1.658A14.107,14.107,0,0,0,232.074,495.127Zm17.663-1.8a13.945,13.945,0,0,0-2.422-1.286l.759-1.851a15.979,15.979,0,0,1,2.77,1.471ZM236.6,492.077l-.772-1.846a16.021,16.021,0,0,1,3-.917l.394,1.96A14.013,14.013,0,0,0,236.6,492.077Zm8.083-.82A14.114,14.114,0,0,0,242,491l-.047-2H242a16.227,16.227,0,0,1,3.069.293Z"/><path d="M226.4,557.147l-1.414-1.415A17.418,17.418,0,0,0,212.667,526h0a17.418,17.418,0,0,0-12.316,29.733l-1.414,1.415A19.418,19.418,0,0,1,212.666,524h0A19.418,19.418,0,0,1,226.4,557.147Z" fill="#fff"/><path d="M229.9,560.647l-1.414-1.415a22.368,22.368,0,0,0-15.815-38.183h0a22.368,22.368,0,0,0-15.815,38.183l-1.414,1.415a24.368,24.368,0,0,1,17.229-41.6h0a24.368,24.368,0,0,1,17.229,41.6Z" fill="#fff"/><path d="M237.375,596.25h-2V562.5a2.375,2.375,0,0,0-4.75,0h-2a2.375,2.375,0,0,0-4.75,0h-2a2.375,2.375,0,0,0-4.75,0h-2V543.375a2.375,2.375,0,0,0-4.75,0v34.113l-7.2-7.2a2.435,2.435,0,0,0-3.359,0,2.373,2.373,0,0,0,0,3.358l10.554,10.556V596.25h-2V585.034l-9.968-9.969a4.375,4.375,0,1,1,6.187-6.187l3.781,3.782V543.375a4.375,4.375,0,0,1,8.75,0v15.452a4.369,4.369,0,0,1,5.75.892,4.37,4.37,0,0,1,6.75,0,4.373,4.373,0,0,1,7.75,2.781Z"/><rect width="31.5" height="11.25" transform="translate(207.125 596.25)" fill="#e4e5e7"/><rect width="36" height="22.5" transform="translate(204.875 607.5)" fill="#c4c4c4"/><rect width="2" height="69.25" transform="translate(161.001 510.75)" fill="#fff"/><rect width="2" height="69.25" transform="translate(261 500)" fill="#fff"/></g></svg>