<svg xmlns="http://www.w3.org/2000/svg" width="121" height="141" viewBox="0 0 121 141"><g transform="translate(-351 -729)"><circle cx="17.5" cy="17.5" r="17.5" transform="translate(357 790)" fill="#e4e5e7"/><circle cx="5" cy="5" r="5" transform="translate(397 835.333)" fill="#e4e5e7"/><rect width="110" height="10" transform="translate(352 730)" fill="#6598f7"/><path d="M472,755a5.015,5.015,0,0,0-5-5H417a5.015,5.015,0,0,0-5,5v6.06h60Z" fill="#c4c4c4"/><rect width="60" height="93.939" transform="translate(412 761.06)" fill="#e4e5e7"/><path d="M412,865a5.015,5.015,0,0,0,5,5h50a5.015,5.015,0,0,0,5-5V855H412Z" fill="#c4c4c4"/><rect width="15.999" height="2" transform="translate(434.001 754.06)"/><path d="M442,866a3.47,3.47,0,1,1,3.47-3.47A3.474,3.474,0,0,1,442,866Zm0-4.94a1.47,1.47,0,1,0,1.47,1.47A1.472,1.472,0,0,0,442,861.06Z"/><path d="M434.548,814.921l-9.729-4.865,9.729-4.864.895,1.789-6.152,3.075,6.152,3.076Z"/><path d="M443.383,814.921l-.895-1.789,6.152-3.076-6.152-3.075.895-1.789,9.729,4.864Z"/><rect width="12.554" height="2" transform="translate(436.652 815.976) rotate(-77.707)"/><path d="M463,831.686H351V729H463Zm-110-2H461V731H353Z"/><rect width="110" height="2" transform="translate(352 739)"/><rect width="3" height="2" transform="translate(359 734)"/><rect width="3" height="2" transform="translate(365 734)"/><rect width="3" height="2" transform="translate(371 734)"/><rect width="20" height="2" transform="translate(382 734)"/><rect width="49.625" height="2" transform="translate(402 734)" fill="#fff"/><rect width="6" height="2" transform="translate(362 749)"/><rect width="6" height="2" transform="translate(362 754)"/><rect width="6" height="2" transform="translate(362 759)"/><rect width="6" height="2" transform="translate(362 764)"/><rect width="6" height="2" transform="translate(362 769)"/><rect width="6" height="2" transform="translate(362 774)"/><rect width="6" height="2" transform="translate(362 779)"/><rect width="6" height="2" transform="translate(362 784)"/><rect width="6" height="2" transform="translate(362 789)"/><rect width="6" height="2" transform="translate(362 794)"/><rect width="6" height="2" transform="translate(362 799)"/><rect width="6" height="2" transform="translate(362 804)"/><rect width="6" height="2" transform="translate(362 809)"/><rect width="6" height="2" transform="translate(362 814)"/><rect width="6" height="2" transform="translate(372 749)"/><rect width="35" height="2" transform="translate(372 754)"/><rect width="35" height="2" transform="translate(372 759)"/><rect width="35" height="2" transform="translate(372 764)"/><rect width="50" height="2" transform="translate(372 769)"/><rect width="50" height="2" transform="translate(372 774)"/><rect width="23.124" height="2" transform="translate(426.876 769)"/><rect width="13.624" height="2" transform="translate(426.876 774)"/><rect width="25" height="2" transform="translate(372 779)"/><rect width="32.5" height="2" transform="translate(402 779)"/><rect width="30" height="2" transform="translate(372 784)"/><rect width="39.625" height="2" transform="translate(382 789)"/><rect width="25" height="2" transform="translate(382 794)"/><rect width="15" height="2" transform="translate(372 799)"/><rect width="15" height="2" transform="translate(372 804)"/><rect width="32.5" height="2" transform="translate(382 809)"/><rect width="20" height="2" transform="translate(382 814)"/><path d="M381.24,845.654,377,841.414l-4.239,4.24-1.414-1.414L377,838.586l5.653,5.654Z" fill="#6598f7"/><path d="M377,866.418l-5.653-5.654,1.414-1.414L377,863.59l4.239-4.24,1.414,1.414Z" fill="#6598f7"/><path d="M368.739,858.154l-5.655-5.652,5.655-5.654,1.414,1.414-4.24,4.24,4.24,4.238Z" fill="#c4c4c4"/><path d="M385.262,858.156l-1.414-1.414,4.24-4.24-4.24-4.238,1.414-1.414,5.655,5.652Z" fill="#c4c4c4"/><path d="M461.834,845.166A4.834,4.834,0,1,0,457,850,4.833,4.833,0,0,0,461.834,845.166Z" fill="#6598f7"/></g></svg>