<svg xmlns="http://www.w3.org/2000/svg" width="167.613" height="44.823" viewBox="0 0 167.613 44.823"><path d="M7.845,7.848,0,15.7,7.845,7.848,0,0,7.845,7.848,15.689,0,7.845,7.848,15.689,15.7Z" transform="translate(112.963 14.687)" fill="none" stroke="#d0d7de" stroke-width="1"/><path d="M0,18.722V6.063l10.5,6.064,3.227-1.865V14.47L10.5,16.335,3.637,12.372v4.25L10.5,20.585l6.861-3.963V8.164L10.5,4.2,7.293,6.053l-3.637-2.1L10.5,0,21,6.063V18.722L10.5,24.786Zm85.012-.528-.555-.09.071-1.63a26.558,26.558,0,0,0,3.1.286,2.868,2.868,0,0,0,1.352-.233.819.819,0,0,0,.4-.771.77.77,0,0,0-.385-.744,7.656,7.656,0,0,0-1.845-.448,4.9,4.9,0,0,1-2.14-.762,2.257,2.257,0,0,1-.681-1.9,2.376,2.376,0,0,1,.94-2.06,4.011,4.011,0,0,1,2.409-.681,17.132,17.132,0,0,1,2.811.286l.555.106-.035,1.63a25.76,25.76,0,0,0-3.062-.286,2.726,2.726,0,0,0-1.316.224.768.768,0,0,0-.368.708.7.7,0,0,0,.4.68,9.013,9.013,0,0,0,1.9.457,4.371,4.371,0,0,1,2.122.817,2.547,2.547,0,0,1,.626,1.97,2.4,2.4,0,0,1-.9,2.078,4.431,4.431,0,0,1-2.642.663A15.918,15.918,0,0,1,85.012,18.194Zm8.622-.79a5.621,5.621,0,0,1-.868-3.494q0-4.765,3.885-4.765,3.761,0,3.761,4.1l-.124,1.4H94.736a2.452,2.452,0,0,0,.484,1.63,2.284,2.284,0,0,0,1.737.52q1.272,0,2.614-.106l.5-.054.035,1.451a18.541,18.541,0,0,1-3.617.412A3.445,3.445,0,0,1,93.634,17.4Zm1.558-6.091a2.954,2.954,0,0,0-.474,1.827H98.5a3.059,3.059,0,0,0-.421-1.854,1.718,1.718,0,0,0-1.424-.53c-.053,0-.106-.007-.159-.007A1.786,1.786,0,0,0,95.191,11.313ZM37.306,17.5a6.965,6.965,0,0,1-.627-3.485V9.341h1.952v4.693A5.747,5.747,0,0,0,38.9,16.2q.269.556,1.254.556a4.326,4.326,0,0,0,1.773-.358l.268-.106V9.342h1.935V18.3H42.194v-.555a4.9,4.9,0,0,1-2.417.753A2.7,2.7,0,0,1,37.306,17.5Zm32.368-.1a5.621,5.621,0,0,1-.869-3.493q0-4.764,3.886-4.764,3.761,0,3.762,4.1l-.125,1.4H70.776a2.453,2.453,0,0,0,.484,1.63,2.285,2.285,0,0,0,1.737.52q1.272,0,2.615-.106l.5-.054.036,1.451a18.577,18.577,0,0,1-3.618.412A3.442,3.442,0,0,1,69.674,17.4Zm1.557-6.089a2.952,2.952,0,0,0-.474,1.827h3.778a3.059,3.059,0,0,0-.421-1.854,1.716,1.716,0,0,0-1.423-.53c-.054,0-.107-.007-.16-.007A1.783,1.783,0,0,0,71.23,11.313Zm7.1,6.987V9.342h1.934V9.92a5.452,5.452,0,0,1,3.044-.578v1.952a6.133,6.133,0,0,0-3.026.336V18.3Zm-16.278,0-2.31-8.957h2.041L63.5,16.634h.573l1.79-7.291h1.988L65.527,18.3Zm-5.784,0V9.342h1.952V18.3Zm-4.208,0V13.554a4.858,4.858,0,0,0-.314-2.061,1.3,1.3,0,0,0-1.28-.609,4.44,4.44,0,0,0-1.755.358l-.268.106V18.3H46.493V9.342h1.934V9.9A4.983,4.983,0,0,1,50.9,9.145a2.689,2.689,0,0,1,2.444,1.012A6.4,6.4,0,0,1,54,13.5v4.8ZM28.5,18.3V6.557h1.988v9.969h4.889V18.3ZM56.27,7.82V6.289h1.952V7.82Z" transform="translate(0 10.606)" fill="#1366ff"/><g transform="translate(140.065)"><path d="M255.056,86.628l13.774,19.34V94.762Z" transform="translate(-255.056 -61.145)" fill="#8c8c8c"/><path d="M277.423,105.968,291.2,86.628l-13.774,8.135Z" transform="translate(-263.65 -61.145)" fill="#343434"/><path d="M268.83,45.26,255.056,67.921l13.774-6.142Z" transform="translate(-255.056 -45.26)" fill="#8c8c8c"/><path d="M255.056,78.217h0l13.774,8.135V72.075Z" transform="translate(-255.056 -55.557)" fill="#393939"/><path d="M291.2,67.921,277.423,45.26V61.779Z" transform="translate(-263.65 -45.26)" fill="#343434"/><path d="M277.423,72.075V86.352L291.2,78.217h0Z" transform="translate(-263.65 -55.557)" fill="#151515"/></g></svg>