<svg xmlns="http://www.w3.org/2000/svg" xmlns:xlink="http://www.w3.org/1999/xlink" width="176.451" height="41.969" viewBox="0 0 176.451 41.969"><defs><linearGradient id="a" x1="-0.709" y1="1.4" x2="-0.709" y2="1.396" gradientUnits="objectBoundingBox"><stop offset="0" stop-color="#b2e198"/><stop offset="1" stop-color="#04a171"/></linearGradient></defs><g transform="translate(-765.296 -818.778)"><g transform="translate(765.296 824.216)"><path d="M20.21,28.993A11.485,11.485,0,0,1,16.9,26.712,33.475,33.475,0,0,1,10.38,17.59c-.234-.429-.448-.877-.643-1.306a26.545,26.545,0,0,0-2.024,5.5c-.584,2.553-.39,4.424.506,5.009.857.565,2.511.059,4.439-1.306a.838.838,0,0,1,.973,1.364A8.157,8.157,0,0,1,9.095,28.7a3.233,3.233,0,0,1-1.771-.507,3.719,3.719,0,0,1-1.538-2.767A11.505,11.505,0,0,1,6.1,21.411a30.362,30.362,0,0,1,2.765-7.095,32.5,32.5,0,0,1-1.3-3.8c-3.679.76-5.84,2.125-5.9,3.411-.039.916.973,1.969,2.764,2.9a.824.824,0,0,1-.759,1.462C.529,16.674-.055,14.979,0,13.829c.078-1.209.9-2.9,4.458-4.19a22.46,22.46,0,0,1,2.706-.76c-.136-.662-.253-1.325-.331-1.949a11.187,11.187,0,0,1,.117-4.016A3.675,3.675,0,0,1,8.764.321,3.25,3.25,0,0,1,9.913.009c1.324-.1,2.881.585,4.594,2.008A.831.831,0,0,1,13.455,3.3a5.461,5.461,0,0,0-3.406-1.637,1.274,1.274,0,0,0-.526.156c-.954.488-1.343,2.339-1.031,4.932.077.584.194,1.208.331,1.851a35.47,35.47,0,0,1,4.009-.37C16.356,3.713,20.21.77,22.955.672a3.142,3.142,0,0,1,1.908.487c1.031.682,2.121,2.319,1.343,6.237a.832.832,0,1,1-1.635-.311c.448-2.281.214-3.976-.623-4.523a1.657,1.657,0,0,0-.954-.214c-1.791.078-4.866,2.085-8.04,5.887l1.46.058a33.017,33.017,0,0,1,10.96,2.261A11,11,0,0,1,30.8,12.659a3.6,3.6,0,0,1,1.3,2.865c-.059,1.15-.818,2.787-4.108,4.074a.784.784,0,0,1-.292.059.841.841,0,0,1-.779-.527.82.82,0,0,1,.467-1.072c1.889-.741,3.018-1.7,3.056-2.612.059-1.072-1.343-2.32-3.738-3.352A32.212,32.212,0,0,0,16.317,9.969q-1.2-.058-2.278-.059h-.409c-.526.682-1.031,1.423-1.538,2.2-.486.76-.953,1.54-1.382,2.3.35.818.74,1.617,1.148,2.436a31.734,31.734,0,0,0,6.17,8.635c1.908,1.793,3.64,2.553,4.594,2.066.915-.468,1.324-2.2,1.071-4.62a30.782,30.782,0,0,0-2.979-9.551.832.832,0,1,1,1.5-.721,31.868,31.868,0,0,1,3.115,10.116,10.738,10.738,0,0,1-.176,3.8,3.714,3.714,0,0,1-1.791,2.475,3.1,3.1,0,0,1-1.4.331A4.681,4.681,0,0,1,20.21,28.993Zm-11-18.77c.214.721.448,1.462.72,2.221.254-.428.507-.838.779-1.247s.545-.818.817-1.208C10.711,10.028,9.932,10.125,9.212,10.223Zm4.522,4.4a2.187,2.187,0,1,1,2.188,2.187A2.184,2.184,0,0,1,13.733,14.628Z" transform="translate(135.499 0)" fill="#04a171"/><path d="M7.669,7.679,0,15.358,7.669,7.679,0,0,7.669,7.679,15.339,0,7.669,7.679l7.669,7.679Z" transform="translate(110.441 6.843)" fill="none" stroke="#d0d7de" stroke-width="1"/><path d="M0,18.32V5.933l10.264,5.933,3.155-1.825v4.117l-3.155,1.825L3.556,12.106v4.158l6.709,3.878,6.708-3.878V7.989L10.264,4.111,7.13,5.923,3.574,3.867,10.264,0,20.528,5.933V18.32L10.264,24.253ZM83.114,17.8l-.543-.088.069-1.6a25.944,25.944,0,0,0,3.029.28,2.8,2.8,0,0,0,1.321-.228.8.8,0,0,0,.394-.754.753.753,0,0,0-.377-.728,7.48,7.48,0,0,0-1.8-.438,4.79,4.79,0,0,1-2.092-.745,2.21,2.21,0,0,1-.665-1.858,2.326,2.326,0,0,1,.919-2.016,3.919,3.919,0,0,1,2.355-.666,16.736,16.736,0,0,1,2.748.28l.543.1-.034,1.6a25.164,25.164,0,0,0-2.993-.28,2.663,2.663,0,0,0-1.287.219.751.751,0,0,0-.359.693.681.681,0,0,0,.394.666,8.805,8.805,0,0,0,1.856.447,4.272,4.272,0,0,1,2.075.8,2.494,2.494,0,0,1,.612,1.927,2.351,2.351,0,0,1-.883,2.034,4.329,4.329,0,0,1-2.583.649A15.55,15.55,0,0,1,83.114,17.8Zm8.429-.773a5.5,5.5,0,0,1-.849-3.419q0-4.663,3.8-4.663,3.677,0,3.677,4.015l-.121,1.366H92.621a2.4,2.4,0,0,0,.473,1.595,2.232,2.232,0,0,0,1.7.509q1.243,0,2.556-.1l.49-.053.034,1.42a18.112,18.112,0,0,1-3.536.4A3.367,3.367,0,0,1,91.543,17.03Zm1.523-5.96a2.893,2.893,0,0,0-.464,1.788H96.3a3,3,0,0,0-.411-1.814,1.679,1.679,0,0,0-1.392-.518c-.052,0-.1-.007-.155-.007A1.745,1.745,0,0,0,93.066,11.07ZM36.473,17.127a6.82,6.82,0,0,1-.613-3.41V9.14h1.908v4.592a5.627,5.627,0,0,0,.262,2.121q.263.544,1.226.544a4.226,4.226,0,0,0,1.733-.351l.262-.1v-6.8h1.891v8.764H41.252v-.543a4.791,4.791,0,0,1-2.363.736A2.642,2.642,0,0,1,36.473,17.127Zm31.645-.1a5.5,5.5,0,0,1-.849-3.418q0-4.662,3.8-4.661,3.677,0,3.678,4.012l-.123,1.367H69.2a2.4,2.4,0,0,0,.473,1.595,2.233,2.233,0,0,0,1.7.509q1.243,0,2.556-.1l.49-.052.035,1.42a18.148,18.148,0,0,1-3.537.4A3.364,3.364,0,0,1,68.118,17.028ZM69.64,11.07a2.89,2.89,0,0,0-.464,1.788H72.87a3,3,0,0,0-.412-1.814,1.677,1.677,0,0,0-1.391-.518c-.052,0-.1-.007-.156-.007A1.742,1.742,0,0,0,69.64,11.07Zm6.943,6.837V9.142h1.891v.566a5.326,5.326,0,0,1,2.976-.566v1.91a5.991,5.991,0,0,0-2.959.329v6.526Zm-15.915,0L58.41,9.142h2l1.681,7.135h.56L64.4,9.142h1.944l-2.277,8.764Zm-5.655,0V9.142h1.908v8.764Zm-4.114,0V13.262a4.757,4.757,0,0,0-.307-2.016,1.27,1.27,0,0,0-1.252-.6,4.338,4.338,0,0,0-1.716.35l-.262.1v6.8H45.455V9.142h1.891v.543a4.869,4.869,0,0,1,2.416-.736,2.628,2.628,0,0,1,2.389.99,6.271,6.271,0,0,1,.639,3.269v4.7Zm-23.04,0V6.416H29.8v9.755h4.78v1.735ZM55.013,7.652v-1.5h1.908v1.5Z" transform="translate(0 2.849)" fill="#1366ff"/></g><g transform="translate(888.827 807.543)"><circle cx="20.984" cy="20.984" r="20.984" transform="translate(10.951 11.236)" fill="url(#a)"/><g transform="translate(17.157 18.673)"><path d="M55.383,62.981q-.37.571-.716,1.146c-.252-.693-.473-1.376-.661-2.042q1-.144,2.131-.224-.382.548-.754,1.121ZM73.9,64.322a10.48,10.48,0,0,0-3.152-1.939A30.82,30.82,0,0,0,60.64,60.3c-.463-.024-.915-.041-1.351-.05,2.93-3.5,5.759-5.357,7.407-5.42a1.468,1.468,0,0,1,.871.2c.771.5.985,2.056.572,4.158a.766.766,0,1,0,1.5.3c.71-3.615-.283-5.115-1.24-5.738a2.964,2.964,0,0,0-1.764-.451c-2.534.1-6.086,2.8-9.326,6.965a32.632,32.632,0,0,0-3.677.328c-.127-.59-.225-1.161-.292-1.709-.291-2.4.066-4.1.953-4.548a1.229,1.229,0,0,1,.476-.128,5.112,5.112,0,0,1,3.149,1.5.766.766,0,1,0,.979-1.178c-1.589-1.319-3.016-1.942-4.242-1.849a2.767,2.767,0,0,0-1.058.291,3.418,3.418,0,0,0-1.675,2.393,10.515,10.515,0,0,0-.1,3.7c.07.577.172,1.177.3,1.795a18.761,18.761,0,0,0-2.494.694c-3.288,1.188-4.047,2.753-4.1,3.857-.055,1.055.484,2.624,3.37,4.112a.766.766,0,1,0,.7-1.361c-1.66-.856-2.587-1.83-2.543-2.671.062-1.186,2.049-2.44,5.434-3.147a32.469,32.469,0,0,0,1.2,3.5,27.355,27.355,0,0,0-2.564,6.537,10.5,10.5,0,0,0-.286,3.692,3.415,3.415,0,0,0,1.415,2.554,2.928,2.928,0,0,0,1.63.458,7.51,7.51,0,0,0,4.19-1.712.766.766,0,0,0-.889-1.247c-1.782,1.271-3.312,1.726-4.1,1.217-.835-.543-1.011-2.269-.471-4.618a24.232,24.232,0,0,1,1.864-5.064q.282.6.589,1.208a30.862,30.862,0,0,0,6.012,8.394,10.493,10.493,0,0,0,3.053,2.093,4.315,4.315,0,0,0,1.624.354,2.813,2.813,0,0,0,1.3-.3A3.362,3.362,0,0,0,68.7,77.138a9.892,9.892,0,0,0,.169-3.5,29.5,29.5,0,0,0-2.886-9.314.766.766,0,1,0-1.381.664,27.954,27.954,0,0,1,2.743,8.806c.228,2.234-.14,3.825-.985,4.256-.887.452-2.469-.258-4.232-1.9a29.312,29.312,0,0,1-5.691-7.967c-.381-.748-.731-1.5-1.05-2.241.4-.708.824-1.419,1.282-2.125s.94-1.4,1.414-2.034l.38,0c.658,0,1.363.016,2.1.055a29.285,29.285,0,0,1,9.585,1.961c2.215.943,3.506,2.1,3.454,3.1-.044.845-1.071,1.719-2.817,2.4a.766.766,0,1,0,.554,1.428c3.034-1.178,3.737-2.687,3.793-3.744A3.416,3.416,0,0,0,73.9,64.322Z" transform="translate(-45.523 -52.673)" fill="#f2f8f6"/><path d="M119.194,121.477a1.673,1.673,0,1,0,1.673-1.675,1.674,1.674,0,0,0-1.673,1.675" transform="translate(-105.97 -107.753)" fill="#f1f8f3"/></g></g></g></svg>