<svg id="Layer_1" data-name="Layer 1" xmlns="http://www.w3.org/2000/svg" viewBox="0 0 443.071 411.717">
  <defs>
    <style>
      .cls-1 {
        fill: #85d7e1;
      }

      .cls-2 {
        fill: #d0d4d9;
      }

      .cls-3 {
        fill: #eff1f2;
        fill-rule: evenodd;
      }

      .cls-4 {
        fill: #abb1bc;
      }

      .cls-5 {
        fill: #0694ae;
      }

      .cls-6 {
        fill: #fff;
      }

      .cls-7 {
        fill: #90dac3;
      }

      .cls-8 {
        fill: #009465;
      }
    </style>
  </defs>
  <title>img_3_no</title>
  <g>
    <path class="cls-1" d="M221.536,167.1h-.055a1,1,0,1,0,0,2h.054a1,1,0,0,0,0-2Zm-7.966.318c-.026,0-.051,0-.077,0l-.063,0a1,1,0,0,0,.083,2,.732.732,0,0,0,.081,0l.054,0a1,1,0,0,0-.078-2Zm-7.914.959a1.064,1.064,0,0,0-.159.012l-.023,0-.035.006a1,1,0,0,0,.16,1.987.983.983,0,0,0,.162-.013l.054-.009a1,1,0,0,0-.159-1.987Zm-7.809,1.6a.992.992,0,0,0-.24.03l-.043.01-.012,0a1,1,0,1,0,.482,1.941l.052-.013a1,1,0,0,0-.239-1.971Zm-7.654,2.232a1,1,0,0,0-.316.051l-.047.016-.008,0a1,1,0,0,0,.319,1.948.984.984,0,0,0,.319-.053l.052-.017a1,1,0,0,0-.319-1.948Zm-7.445,2.849a1,1,0,0,0-.395.081l-.051.022a1,1,0,1,0,.792,1.837l.05-.021a1,1,0,0,0-.4-1.919Zm-7.188,3.447a.987.987,0,0,0-.468.117l-.049.025a1,1,0,1,0,.939,1.766l.048-.025a1,1,0,0,0-.47-1.883Zm-6.884,4.02a.992.992,0,0,0-.535.156l-.014.009-.015.01-.025.015a1,1,0,0,0,1.084,1.681l.045-.029a1,1,0,0,0-.54-1.842Zm-6.535,4.565a.994.994,0,0,0-.6.2l-.017.013-.032.024a1,1,0,0,0,1.217,1.588l.043-.033a1,1,0,0,0-.606-1.8ZM156,192.169a1,1,0,0,0-.668.255l-.036.033,0,0a1,1,0,0,0,1.336,1.488l.04-.036a1,1,0,0,0-.667-1.745Zm-5.716,5.557a1,1,0,0,0-.722.308l-.043.045a1,1,0,0,0,1.453,1.375l.037-.04a1,1,0,0,0-.725-1.688Zm-5.249,6a1,1,0,0,0-.779.372l-.037.046a1,1,0,0,0,1.56,1.252l.034-.042a1,1,0,0,0-.152-1.407.992.992,0,0,0-.626-.221Zm-4.748,6.4a1,1,0,0,0-.828.437l-.015.023-.018.027a1,1,0,0,0,1.656,1.12l.031-.044a1,1,0,0,0-.826-1.563Zm-4.214,6.766a1,1,0,0,0-.87.507v0l-.027.046a1,1,0,1,0,1.74.986l.027-.047a1,1,0,0,0-.869-1.494Zm-3.651,7.087a1,1,0,0,0-.906.578l-.016.033v0l-.01.021a1,1,0,0,0,1.817.837l.023-.049a1,1,0,0,0-.907-1.422Zm-3.061,7.36a1,1,0,0,0-.937.652l-.006.015-.008.023,0,.014v0a1,1,0,1,0,1.877.691l.019-.051a1,1,0,0,0-.939-1.346Zm-2.45,7.586a1,1,0,0,0-.962.732l-.007.025,0,.015,0,.013a1,1,0,0,0,.7,1.231.99.99,0,0,0,.268.037,1,1,0,0,0,.963-.733l.014-.052a1,1,0,0,0-.964-1.268Zm-1.821,7.76a1,1,0,0,0-.981.812l-.007.037,0,.021a1,1,0,0,0,1.965.372l.01-.053a1,1,0,0,0-.794-1.171,1.016,1.016,0,0,0-.189-.018Zm-1.183,7.883a1,1,0,0,0-.993.892h0l-.006.054a1,1,0,0,0,.886,1.1,1,1,0,0,0,1.1-.886l.006-.054a1,1,0,0,0-.995-1.108Zm-.542,7.955a1,1,0,0,0-1,.968l0,.064a1,1,0,0,0,.972,1.022h.028a1,1,0,0,0,1-.972l0-.054a1,1,0,0,0-.972-1.028Zm.1,7.974h-.052a1,1,0,0,0-.947,1.05l0,.059a1,1,0,0,0,1,.944h.053a1,1,0,0,0,.946-1.051l0-.054a1,1,0,0,0-1-.948Zm.736,7.939a1,1,0,0,0-.993,1.128l.005.041v0l0,.017a1,1,0,0,0,1.982-.269l-.007-.054a1,1,0,0,0-.99-.867Zm1.375,7.851a1.046,1.046,0,0,0-.214.023,1,1,0,0,0-.764,1.19l.012.054a1,1,0,0,0,.975.787,1.055,1.055,0,0,0,.215-.023,1,1,0,0,0,.764-1.191l-.012-.052a1,1,0,0,0-.976-.788Zm2.01,7.713a1,1,0,0,0-.957,1.289l.009.03.007.023v0a1,1,0,0,0,.956.707,1.024,1.024,0,0,0,.292-.044,1,1,0,0,0,.665-1.249l-.016-.051a1,1,0,0,0-.957-.709Zm2.635,7.523a1,1,0,0,0-.931,1.365l.011.028.008.018,0,.012a1,1,0,0,0,.929.628.979.979,0,0,0,.369-.071,1,1,0,0,0,.56-1.3l-.02-.05a1,1,0,0,0-.93-.632Zm3.24,7.283a1,1,0,0,0-.9,1.443l0,.01.019.04a1,1,0,0,0,1.792-.888l-.024-.049a1,1,0,0,0-.9-.556Zm3.823,7a1,1,0,0,0-.856,1.515l0,.009.023.039a1,1,0,0,0,1.714-1.031l-.028-.047a1,1,0,0,0-.858-.485Zm4.378,6.662a1,1,0,0,0-.814,1.58l.023.032.011.015a1,1,0,1,0,1.625-1.166l-.032-.043a1,1,0,0,0-.813-.418Zm4.9,6.287a1,1,0,0,0-.765,1.644l.024.028.014.016a1,1,0,1,0,1.525-1.293l-.035-.041a1,1,0,0,0-.763-.354Zm5.394,5.871a1,1,0,0,0-.712,1.7l.045.046a1,1,0,0,0,1.413-1.415l-.038-.038a1,1,0,0,0-.708-.294Zm5.85,5.416a1,1,0,0,0-.654,1.757l.049.042a1,1,0,0,0,1.294-1.524l-.041-.035a.994.994,0,0,0-.648-.24Zm6.267,4.928a1,1,0,0,0-.586,1.81l.02.014.026.02a1,1,0,0,0,1.169-1.623l-.044-.032a1,1,0,0,0-.585-.189Zm6.645,4.4a1,1,0,0,0-.519,1.855l0,0,.021.013.023.013a1,1,0,1,0,1.035-1.711l-.046-.028a.994.994,0,0,0-.517-.144Zm6.98,3.85a1,1,0,0,0-.448,1.895l.017.008.01,0,.022.011a1,1,0,0,0,.893-1.789l-.048-.024a.991.991,0,0,0-.446-.106Zm7.269,3.269a1,1,0,0,0-.373,1.929l.011,0,.016.006.024.01a1,1,0,0,0,.744-1.856l-.05-.02a1,1,0,0,0-.372-.073Zm7.512,2.665a1,1,0,0,0-.295,1.956l.018.006.029.009h0a.985.985,0,0,0,.3.045,1,1,0,0,0,.294-1.956l-.051-.016a1.018,1.018,0,0,0-.3-.045Zm7.705,2.043a1,1,0,0,0-.22,1.975l.028.006.01,0,.025,0a.962.962,0,0,0,.212.023,1,1,0,0,0,.215-1.977l-.053-.011a.95.95,0,0,0-.217-.024Zm7.845,1.406a1,1,0,0,0-.135,1.991l.054.008a1.066,1.066,0,0,0,.138.009,1,1,0,0,0,.134-1.991l-.054-.007a.912.912,0,0,0-.137-.01Zm7.936.766a1,1,0,0,0-.059,2l.049,0h.066a1,1,0,0,0,.054-2l-.054,0-.056,0Zm8.029.126h-.079a1,1,0,0,0,.023,2h.08a1,1,0,0,0-.024-2Zm7.957-.515c-.034,0-.07,0-.1,0l-.054.006a1,1,0,0,0,.1,1.995c.033,0,.067,0,.1,0l.031,0,.029,0a1,1,0,0,0-.1-1.994Zm7.888-1.156a.975.975,0,0,0-.186.017l-.053.01a1,1,0,0,0,.183,1.983.932.932,0,0,0,.181-.017l.06-.011a1,1,0,0,0-.185-1.982Zm7.765-1.8a1.007,1.007,0,0,0-.265.036l-.052.014a1,1,0,1,0,.528,1.929l.019-.005.012,0,.022-.006a1,1,0,0,0-.264-1.965Zm7.594-2.423a1,1,0,0,0-.343.061l-.05.018a1,1,0,0,0,.342,1.94.98.98,0,0,0,.342-.061l.012,0h0l.01,0,.006,0,.022-.007a1,1,0,0,0-.343-1.94Zm7.37-3.035a.99.99,0,0,0-.418.092l-.049.022a1,1,0,1,0,.836,1.817l.016-.007.023-.011.011,0a1,1,0,0,0-.419-1.908Zm7.1-3.626a1,1,0,0,0-.489.128l-.047.027a1,1,0,1,0,.98,1.743l.008,0,.043-.025a1,1,0,0,0-.5-1.869Zm6.782-4.191a.992.992,0,0,0-.559.171l-.045.03a1,1,0,0,0,1.116,1.66l.032-.021.009-.007.009,0a1,1,0,0,0-.562-1.828Zm6.42-4.726a.992.992,0,0,0-.624.219l-.042.034a1,1,0,1,0,1.249,1.562l.017-.014.023-.019,0,0a1,1,0,0,0-.625-1.78Zm6.018-5.229a1,1,0,0,0-.686.272l-.039.037a1,1,0,1,0,1.371,1.456l.013-.013.03-.028a1,1,0,0,0-.689-1.724Zm5.577-5.7a1,1,0,0,0-.743.33l-.036.04a1,1,0,1,0,1.484,1.341l.018-.02.022-.025a1,1,0,0,0-.745-1.666Zm5.1-6.128a1,1,0,0,0-.794.392l-.033.042a1,1,0,0,0,1.584,1.221l.029-.038.007-.009a1,1,0,0,0-.793-1.608Zm4.588-6.52a1,1,0,0,0-.842.458l-.029.045a1,1,0,1,0,1.68,1.085l.016-.025.017-.026a1,1,0,0,0-.842-1.537Zm4.043-6.87a1,1,0,0,0-.883.528l-.025.047a1,1,0,1,0,1.763.945l0-.007.024-.045a1,1,0,0,0-.883-1.468Zm3.471-7.176a1,1,0,0,0-.918.6l-.021.05a1,1,0,0,0,1.834.8l.007-.017.016-.037a1,1,0,0,0-.52-1.312.984.984,0,0,0-.4-.083Zm2.874-7.435a1,1,0,0,0-.947.678l-.017.051a1,1,0,0,0,.624,1.27,1.012,1.012,0,0,0,.323.053,1,1,0,0,0,.946-.677l.014-.04.005-.016a1,1,0,0,0-.625-1.265.986.986,0,0,0-.323-.054Zm2.257-7.645a1,1,0,0,0-.969.756l-.013.053a1,1,0,0,0,.725,1.214,1.033,1.033,0,0,0,.245.03,1,1,0,0,0,.968-.753l0-.015.01-.041a1,1,0,0,0-.725-1.214,1.033,1.033,0,0,0-.245-.03Zm1.625-7.8a1,1,0,0,0-.985.836l-.009.053a1,1,0,0,0,.822,1.151,1.043,1.043,0,0,0,.166.014,1,1,0,0,0,.984-.834v-.007l0-.017.006-.036a1,1,0,0,0-.823-1.146.919.919,0,0,0-.165-.014Zm.986-7.91a1,1,0,0,0-1,.916l0,.054a1,1,0,0,0,.912,1.08.825.825,0,0,0,.086,0,1,1,0,0,0,1-.916l0-.036,0-.023a1,1,0,0,0-.914-1.076q-.042,0-.084,0Zm.346-7.966a1,1,0,0,0-1,1v.054a1,1,0,0,0,1,1h0a1,1,0,0,0,1-1v-.055a1,1,0,0,0-1-1Zm-.29-7.97q-.039,0-.078,0a1,1,0,0,0-.921,1.074l0,.054a1,1,0,0,0,1,.924l.077,0a1,1,0,0,0,.921-1.071l-.005-.062a1,1,0,0,0-.995-.919Zm-.932-7.918a1.087,1.087,0,0,0-.159.013,1,1,0,0,0-.83,1.145l.008.053a1,1,0,0,0,.987.844,1.063,1.063,0,0,0,.158-.013,1,1,0,0,0,.831-1.14l-.007-.046,0-.012a1,1,0,0,0-.986-.844Zm-1.573-7.814a.981.981,0,0,0-.238.029,1,1,0,0,0-.734,1.208l.013.053a1,1,0,0,0,.971.763,1.016,1.016,0,0,0,.237-.028,1,1,0,0,0,.735-1.206l-.009-.039,0-.017a1,1,0,0,0-.971-.763Zm-2.2-7.66a1.024,1.024,0,0,0-.316.051,1,1,0,0,0-.633,1.265l.017.051a1,1,0,0,0,.949.685.989.989,0,0,0,.315-.051,1,1,0,0,0,.634-1.263L315.7,235l-.008-.024a1,1,0,0,0-.948-.685Zm-2.824-7.454a.989.989,0,0,0-.392.08,1,1,0,0,0-.528,1.312l.021.05a1,1,0,0,0,1.842-.779l-.01-.024,0-.01-.011-.026a1,1,0,0,0-.918-.6Zm-3.423-7.2a1,1,0,0,0-.884,1.466l.025.047a1,1,0,1,0,1.77-.93l-.009-.018-.019-.035a1,1,0,0,0-.883-.53Zm-4-6.9a1,1,0,0,0-.843,1.536l.029.046a1,1,0,1,0,1.689-1.071l-.006-.009-.026-.041a1,1,0,0,0-.843-.461Zm-4.542-6.551a1,1,0,0,0-.8,1.6l.033.043a1,1,0,0,0,1.6-1.2l-.007-.009-.03-.039a1,1,0,0,0-.8-.394Zm-5.057-6.163a1,1,0,0,0-.747,1.666l.036.04a1,1,0,0,0,1.5-1.327l-.027-.029-.012-.014a1,1,0,0,0-.747-.336Zm-5.538-5.734a1,1,0,0,0-.69,1.723l.039.037a1,1,0,0,0,1.384-1.443l-.035-.034-.007-.006a.993.993,0,0,0-.691-.277Zm-5.981-5.27a1,1,0,0,0-.631,1.776l.042.034a1,1,0,1,0,1.262-1.551l-.005,0-.023-.019-.02-.016a.994.994,0,0,0-.625-.22ZM277,184.25a1,1,0,0,0-.566,1.825l.045.03a.988.988,0,0,0,.564.176,1,1,0,0,0,.568-1.824l-.051-.035a1,1,0,0,0-.56-.172Zm-6.752-4.237a1,1,0,0,0-.5,1.868l.047.027a1,1,0,0,0,1-1.734l-.05-.029a.988.988,0,0,0-.5-.132Zm-7.075-3.675a1,1,0,0,0-.425,1.906l.049.023a1,1,0,1,0,.85-1.811h0l-.047-.022a1,1,0,0,0-.424-.095Zm-7.35-3.086a1,1,0,0,0-.349,1.938l.051.019a1,1,0,0,0,.7-1.874h0l-.049-.018a1,1,0,0,0-.35-.064Zm-7.577-2.475a1,1,0,0,0-.271,1.963l.052.015a.986.986,0,0,0,.272.038,1,1,0,0,0,.272-1.963l-.047-.013-.006,0a1.026,1.026,0,0,0-.272-.038Zm-7.755-1.847a1,1,0,0,0-.191,1.981l.053.011a1.061,1.061,0,0,0,.193.019,1,1,0,0,0,.2-1.981l-.021,0-.024,0-.018,0a1.024,1.024,0,0,0-.189-.018Zm-7.879-1.21a1,1,0,0,0-.11,1.994l.054.006a1.069,1.069,0,0,0,.113.006,1,1,0,0,0,.115-1.993l-.064-.007a.977.977,0,0,0-.108-.006Zm-7.951-.569a1,1,0,0,0-.031,2l.054,0h.032a1,1,0,0,0,.032-2h-.087Z"/>
    <path class="cls-2" d="M123.136.016a1,1,0,0,0-.822.969v.063a1,1,0,0,0,.989,1.006.978.978,0,0,0,.189-.015,1,1,0,0,0,.822-.973V1.012A1,1,0,0,0,123.325,0a.984.984,0,0,0-.189.016Zm.231,7.968a1,1,0,0,0-.819,1.05v.01l0,.048a1,1,0,0,0,1.067.928.937.937,0,0,0,.108-.014,1,1,0,0,0,.82-1.054l0-.054a1,1,0,0,0-1.068-.928.966.966,0,0,0-.108.014Zm.875,7.925a1,1,0,0,0-.811,1.129l0,.018,0,.023,0,.023a1,1,0,0,0,1.138.834l.028,0a1,1,0,0,0,.811-1.134l-.008-.054a1,1,0,0,0-1.139-.839l-.028.005Zm1.508,7.831-.052.01a1,1,0,0,0-.746,1.2l.013.055a1,1,0,0,0,1.149.755l.053-.011a1,1,0,0,0,.745-1.2L126.9,24.5a1,1,0,0,0-1.15-.756Zm2.129,7.683a1,1,0,0,0-.777,1.288l.009.03,0,.015,0,.013a1,1,0,0,0,1.127.675,1.032,1.032,0,0,0,.13-.033,1,1,0,0,0,.646-1.258l-.016-.051a1,1,0,0,0-1.128-.679Zm2.743,7.484a.984.984,0,0,0-.206.06,1,1,0,0,0-.542,1.307l.006.013.017.042a1,1,0,0,0,1.1.6.975.975,0,0,0,.207-.06,1,1,0,0,0,.541-1.307l-.021-.05a1,1,0,0,0-1.1-.6Zm3.344,7.235a.97.97,0,0,0-.279.095,1,1,0,0,0-.433,1.346l0,0,.018.036,0,.009a1,1,0,0,0,1.066.528,1.053,1.053,0,0,0,.28-.095,1,1,0,0,0,.433-1.347l-.025-.048a1,1,0,0,0-1.067-.528Zm3.925,6.938a1,1,0,0,0-.672,1.511l.025.04,0,.008a1,1,0,0,0,1.7-1.056l-.029-.046a1,1,0,0,0-1.027-.457Zm4.478,6.594a1,1,0,0,0-.628,1.576l.036.048a1,1,0,0,0,.98.388.989.989,0,0,0,.418-.181,1,1,0,0,0,.208-1.4l-.032-.043a1,1,0,0,0-.982-.389Zm5,6.208a1,1,0,0,0-.575,1.642l.04.045a1,1,0,0,0,1.5-1.321l-.035-.04a1,1,0,0,0-.931-.326Zm5.488,5.782a1,1,0,0,0-.522,1.7l.017.017.022.021,0,0a1,1,0,0,0,1.393-1.436l-.039-.037a1,1,0,0,0-.875-.267Zm5.939,5.319a1,1,0,0,0-.461,1.754l.046.038a1,1,0,0,0,1.27-1.544l-.041-.035a1,1,0,0,0-.814-.213Zm6.348,4.823a1,1,0,0,0-.4,1.8l.051.036A1,1,0,0,0,165.939,82l-.045-.031a1,1,0,0,0-.749-.164Zm6.716,4.3a1,1,0,0,0-.331,1.846l.026.015.01.006.016.009a1,1,0,0,0,1.007-1.728l-.047-.027a.994.994,0,0,0-.681-.121Zm7.041,3.74a1,1,0,0,0-.26,1.884l.013.006.04.019a1,1,0,0,0,.865-1.8l-.049-.023a.991.991,0,0,0-.609-.083ZM186.222,93a1,1,0,0,0-.183,1.918l.041.015.014.006a1,1,0,0,0,.713-1.869l-.051-.019a.993.993,0,0,0-.534-.051Zm7.551,2.554a1,1,0,0,0-.11,1.942l.061.018a.976.976,0,0,0,.454.024,1,1,0,0,0,.1-1.944l-.052-.015a.993.993,0,0,0-.458-.025Zm7.733,1.931a1,1,0,0,0-.025,1.963l.019,0,.037.008a1.013,1.013,0,0,0,.376.005,1,1,0,0,0,.025-1.964l-.053-.011a.988.988,0,0,0-.379,0Zm7.865,1.293a1,1,0,0,0,.056,1.977h.015l.033,0h.008a1.014,1.014,0,0,0,.3-.009,1,1,0,0,0-.056-1.977l-.054-.006a.964.964,0,0,0-.3.008Zm7.945.646a1,1,0,0,0,.138,1.983l.054,0a.979.979,0,0,0,.218-.015,1,1,0,0,0-.138-1.983l-.054,0a.983.983,0,0,0-.218.015Zm7.97-.005a1,1,0,0,0,.22,1.984h.055a1.01,1.01,0,0,0,.136-.015,1,1,0,0,0-.22-1.983l-.054,0a1.025,1.025,0,0,0-.137.015Zm7.946-.651a1,1,0,0,0,.3,1.977l.05-.006h.008l.056-.008a1,1,0,0,0-.3-1.977l-.054.007-.056.008Zm7.924-1.3-.024,0-.053.011a1,1,0,0,0,.377,1.964l.02,0,.026,0,.032-.007a1,1,0,0,0-.378-1.964Zm7.741-1.915a1.017,1.017,0,0,0-.1.024l-.052.015a1,1,0,0,0,.455,1.945c.033-.006.066-.014.1-.023l.024-.007.018,0,.02-.006a1,1,0,0,0-.461-1.943Zm7.558-2.535a1.1,1.1,0,0,0-.18.05l-.05.02a1,1,0,0,0,.531,1.919,1.012,1.012,0,0,0,.177-.049l.012,0,.043-.017a1,1,0,0,0-.533-1.919Zm7.325-3.14a.954.954,0,0,0-.254.082l-.049.023a1,1,0,0,0,.607,1.887.958.958,0,0,0,.25-.08l.027-.012.027-.014a1,1,0,0,0-.608-1.886Zm7.045-3.73a1.008,1.008,0,0,0-.326.121l-.047.027a1,1,0,0,0,.68,1.849.99.99,0,0,0,.327-.121l.027-.016L271.51,88a1,1,0,0,0-.685-1.846Zm6.716-4.292a.991.991,0,0,0-.394.165l-.044.03a1,1,0,1,0,1.143,1.641l.046-.031a1,1,0,0,0-.751-1.8Zm6.345-4.825a.991.991,0,0,0-.459.213l-.042.035a1,1,0,0,0,1.274,1.542l.006,0,.022-.018,0,0,0,0,.008-.007a1,1,0,0,0-.815-1.755Zm5.932-5.325a1,1,0,0,0-.519.267l-.039.038a1,1,0,1,0,1.394,1.434l.024-.024.016-.015a1,1,0,0,0-.876-1.7ZM295.3,65.92a.99.99,0,0,0-.575.326l-.036.041a1,1,0,0,0,1.5,1.319l.032-.036.007-.009a1,1,0,0,0-.931-1.641Zm5-6.212a1,1,0,0,0-.627.389l-.032.043a1,1,0,0,0,1.605,1.193l.037-.049a1,1,0,0,0-.983-1.576Zm4.48-6.595a1,1,0,0,0-.673.456l-.028.046a1,1,0,1,0,1.7,1.057l.01-.016.014-.023,0-.008a1,1,0,0,0-1.026-1.512Zm3.934-6.934a1,1,0,0,0-.713.526l-.025.048a1,1,0,0,0,1.776.921l.013-.027.014-.026a1,1,0,0,0-.431-1.347.989.989,0,0,0-.634-.095Zm3.36-7.23a1,1,0,0,0-.747.6l-.021.05a1,1,0,0,0,1.844.775l.016-.037,0-.011,0-.009a1,1,0,0,0-1.1-1.368Zm2.764-7.477a1,1,0,0,0-.775.676l-.017.052a1,1,0,1,0,1.9.617l0-.005.015-.048a1,1,0,0,0-1.127-1.292Zm2.146-7.677a1,1,0,0,0-.8.755l-.012.052a1,1,0,1,0,1.946.461l.006-.028.008-.03a1,1,0,0,0-1.151-1.21Zm1.512-7.826a1,1,0,0,0-.812.835l-.008.053a1,1,0,1,0,1.978.3l.006-.042,0-.016a1,1,0,0,0-1.166-1.13Zm.868-7.924a1,1,0,0,0-.82.916l0,.054a1,1,0,0,0,.929,1.066,1.011,1.011,0,0,0,.247-.013,1,1,0,0,0,.819-.911l0-.03,0-.029a1,1,0,0,0-1.175-1.053ZM319.58.078a1,1,0,0,0-.822,1v.054a1,1,0,0,0,2-.022V1.044a1,1,0,0,0-1.013-.982.982.982,0,0,0-.165.016Z"/>
    <path class="cls-3" d="M221.536,56.467a45,45,0,1,1-45,45A45,45,0,0,1,221.536,56.467Z"/>
    <g>
      <path class="cls-4" d="M216.564,93.95c.078.183.153.369.228.555.075-.192.153-.38.233-.568s.165-.365.256-.536l3.423-6.407a.886.886,0,0,1,.132-.193.384.384,0,0,1,.153-.1.626.626,0,0,1,.187-.04c.069-.006.152-.009.248-.009h1.624V98.217h-1.9V90.746c0-.139,0-.291.011-.456s.02-.334.037-.5l-3.5,6.559a.912.912,0,0,1-.312.348.8.8,0,0,1-.447.124h-.3a.8.8,0,0,1-.447-.124.914.914,0,0,1-.313-.348l-3.544-6.584c.022.176.036.348.044.516s.013.324.013.469v7.471h-1.9V86.649h1.624c.1,0,.179,0,.248.009a.633.633,0,0,1,.188.04.424.424,0,0,1,.156.1.8.8,0,0,1,.136.193l3.456,6.424Q216.448,93.673,216.564,93.95Z"/>
      <path class="cls-4" d="M233.536,86.649v1.769h-3.48v9.8h-2.151v-9.8h-3.5V86.649Z"/>
      <path class="cls-4" d="M192.069,108.757a8.665,8.665,0,0,0,.3,2.286,9.2,9.2,0,0,0,.875,2.115.443.443,0,0,1,.044.1.385.385,0,0,1,.011.088.2.2,0,0,1-.038.127.374.374,0,0,1-.1.088l-.434.264a10.173,10.173,0,0,1-.7-1.254,8.382,8.382,0,0,1-.467-1.248,8.693,8.693,0,0,1-.262-1.263,10.417,10.417,0,0,1,0-2.609,8.584,8.584,0,0,1,.262-1.263,8.486,8.486,0,0,1,.467-1.246,10.447,10.447,0,0,1,.7-1.259l.434.27a.371.371,0,0,1,.1.087.207.207,0,0,1,.038.126.4.4,0,0,1-.055.188,8.828,8.828,0,0,0-.877,2.112A8.73,8.73,0,0,0,192.069,108.757Z"/>
      <path class="cls-4" d="M198.748,109.646c.038.1.076.195.113.294.036-.1.075-.2.115-.294s.086-.187.138-.283l2.668-4.846a.3.3,0,0,1,.148-.153.655.655,0,0,1,.22-.029h.786v7.882H202v-5.791c0-.077,0-.16,0-.248s.01-.177.017-.269l-2.7,4.927a.424.424,0,0,1-.385.249h-.154a.423.423,0,0,1-.385-.249l-2.761-4.944c.011.1.019.19.024.28s.008.177.008.254v5.791h-.934v-7.882h.786a.666.666,0,0,1,.221.029.315.315,0,0,1,.148.153l2.723,4.852A2.286,2.286,0,0,1,198.748,109.646Z"/>
      <path class="cls-4" d="M208.793,112.217h-.433a.513.513,0,0,1-.232-.044.242.242,0,0,1-.115-.187l-.11-.517q-.22.2-.429.355a2.54,2.54,0,0,1-.44.264,2.338,2.338,0,0,1-.493.163,2.861,2.861,0,0,1-.58.054,1.954,1.954,0,0,1-.607-.091,1.343,1.343,0,0,1-.492-.273,1.282,1.282,0,0,1-.333-.461,1.6,1.6,0,0,1-.124-.659,1.233,1.233,0,0,1,.181-.638,1.6,1.6,0,0,1,.586-.543,3.809,3.809,0,0,1,1.059-.389,7.152,7.152,0,0,1,1.6-.152v-.437a1.515,1.515,0,0,0-.278-.989,1.01,1.01,0,0,0-.822-.335,1.754,1.754,0,0,0-.6.091,2.36,2.36,0,0,0-.424.2c-.119.076-.221.143-.307.2a.445.445,0,0,1-.256.091.3.3,0,0,1-.174-.051.417.417,0,0,1-.118-.13l-.176-.314a3.2,3.2,0,0,1,1-.665,3.084,3.084,0,0,1,1.182-.221,2.109,2.109,0,0,1,.831.155,1.707,1.707,0,0,1,.61.428,1.822,1.822,0,0,1,.374.666,2.783,2.783,0,0,1,.126.858Zm-2.541-.6a2.054,2.054,0,0,0,.474-.052,1.968,1.968,0,0,0,.4-.148,2.223,2.223,0,0,0,.363-.235,3.158,3.158,0,0,0,.338-.313v-1.15a6.57,6.57,0,0,0-1.149.086,3.288,3.288,0,0,0-.771.224,1.081,1.081,0,0,0-.431.327.7.7,0,0,0-.135.42.95.95,0,0,0,.071.382.728.728,0,0,0,.479.412A1.311,1.311,0,0,0,206.252,111.618Z"/>
      <path class="cls-4" d="M211.588,104.9a.634.634,0,0,1-.057.267.751.751,0,0,1-.155.219.692.692,0,0,1-.222.152.668.668,0,0,1-.27.054.636.636,0,0,1-.266-.054.7.7,0,0,1-.221-.152.742.742,0,0,1-.152-.219.664.664,0,0,1-.054-.267.691.691,0,0,1,.054-.272.716.716,0,0,1,.373-.377.637.637,0,0,1,.266-.055.669.669,0,0,1,.27.055.722.722,0,0,1,.222.151.745.745,0,0,1,.155.226A.66.66,0,0,1,211.588,104.9Zm-.22,1.749v5.571h-.979v-5.571Z"/>
      <path class="cls-4" d="M213.1,112.217v-5.571h.583a.25.25,0,0,1,.265.2l.076.606a3.141,3.141,0,0,1,.811-.65,2.113,2.113,0,0,1,1.038-.247,1.993,1.993,0,0,1,.805.152,1.549,1.549,0,0,1,.583.428,1.9,1.9,0,0,1,.355.668,2.9,2.9,0,0,1,.121.863v3.548h-.979v-3.548a1.5,1.5,0,0,0-.289-.981,1.082,1.082,0,0,0-.883-.35,1.658,1.658,0,0,0-.811.209,2.671,2.671,0,0,0-.7.568v4.1Z"/>
      <path class="cls-4" d="M226.857,104.335v.9H224.31v6.985h-1.067v-6.985h-2.557v-.9Z"/>
      <path class="cls-4" d="M228.924,106.558a2.88,2.88,0,0,1,1.1.2,2.341,2.341,0,0,1,.836.577,2.57,2.57,0,0,1,.527.906,3.9,3.9,0,0,1,0,2.373,2.57,2.57,0,0,1-.527.9,2.3,2.3,0,0,1-.836.574,3.127,3.127,0,0,1-2.206,0,2.308,2.308,0,0,1-.839-.574,2.581,2.581,0,0,1-.533-.9,3.858,3.858,0,0,1,0-2.373,2.581,2.581,0,0,1,.533-.906,2.353,2.353,0,0,1,.839-.577A2.873,2.873,0,0,1,228.924,106.558Zm0,4.972a1.433,1.433,0,0,0,1.233-.553,3.144,3.144,0,0,0,0-3.094,1.429,1.429,0,0,0-1.233-.555,1.711,1.711,0,0,0-.725.143,1.362,1.362,0,0,0-.515.412,1.849,1.849,0,0,0-.308.663,3.945,3.945,0,0,0,0,1.774,1.811,1.811,0,0,0,.308.657,1.366,1.366,0,0,0,.515.41A1.711,1.711,0,0,0,228.924,111.53Z"/>
      <path class="cls-4" d="M233.8,104.116v4.768h.253a.459.459,0,0,0,.182-.03.507.507,0,0,0,.159-.124l1.761-1.886a.927.927,0,0,1,.165-.143.392.392,0,0,1,.219-.055h.891l-2.051,2.184c-.052.062-.1.117-.151.165a.922.922,0,0,1-.168.126,1.038,1.038,0,0,1,.179.151,1.566,1.566,0,0,1,.151.195l2.178,2.75h-.88a.41.41,0,0,1-.206-.047.529.529,0,0,1-.162-.145l-1.832-2.282a.432.432,0,0,0-.165-.152.652.652,0,0,0-.248-.036H233.8v2.662h-.984v-8.1Z"/>
      <path class="cls-4" d="M240.425,106.558a2.5,2.5,0,0,1,.924.167,2.074,2.074,0,0,1,.731.485,2.211,2.211,0,0,1,.482.781,3.021,3.021,0,0,1,.173,1.058.633.633,0,0,1-.05.308.2.2,0,0,1-.187.077h-3.707a3.067,3.067,0,0,0,.143.919,1.883,1.883,0,0,0,.363.651,1.458,1.458,0,0,0,.55.391,1.9,1.9,0,0,0,.716.129,2.1,2.1,0,0,0,.635-.085,2.952,2.952,0,0,0,.459-.185,3.656,3.656,0,0,0,.322-.183.425.425,0,0,1,.223-.086.213.213,0,0,1,.186.094l.275.357a1.864,1.864,0,0,1-.434.383,2.754,2.754,0,0,1-.542.266,3.361,3.361,0,0,1-.6.157,3.624,3.624,0,0,1-.61.052,2.846,2.846,0,0,1-1.065-.195,2.33,2.33,0,0,1-.84-.572,2.6,2.6,0,0,1-.553-.932,3.77,3.77,0,0,1-.2-1.276A3.248,3.248,0,0,1,238,108.23a2.56,2.56,0,0,1,.514-.878,2.371,2.371,0,0,1,.82-.582A2.679,2.679,0,0,1,240.425,106.558Zm.022.72a1.506,1.506,0,0,0-1.117.41,1.921,1.921,0,0,0-.505,1.136h3.03a1.955,1.955,0,0,0-.094-.624,1.372,1.372,0,0,0-.274-.49,1.232,1.232,0,0,0-.444-.319A1.494,1.494,0,0,0,240.447,107.278Z"/>
      <path class="cls-4" d="M243.983,112.217v-5.571h.583a.249.249,0,0,1,.264.2l.077.606a3.125,3.125,0,0,1,.811-.65,2.112,2.112,0,0,1,1.037-.247,2,2,0,0,1,.806.152,1.557,1.557,0,0,1,.583.428,1.9,1.9,0,0,1,.354.668,2.9,2.9,0,0,1,.121.863v3.548h-.978v-3.548a1.5,1.5,0,0,0-.289-.981,1.082,1.082,0,0,0-.883-.35,1.658,1.658,0,0,0-.811.209,2.692,2.692,0,0,0-.7.568v4.1Z"/>
      <path class="cls-4" d="M250.935,108.757a8.753,8.753,0,0,0-1.177-4.4.417.417,0,0,1-.055-.188.2.2,0,0,1,.039-.126.352.352,0,0,1,.1-.087l.434-.27a10.458,10.458,0,0,1,.7,1.259,8.471,8.471,0,0,1,.728,2.509,10.417,10.417,0,0,1,0,2.609,8.69,8.69,0,0,1-.261,1.263,8.495,8.495,0,0,1-.467,1.248,10.184,10.184,0,0,1-.7,1.254l-.434-.264a.355.355,0,0,1-.1-.088.2.2,0,0,1-.039-.127.337.337,0,0,1,.011-.088.549.549,0,0,1,.044-.1,9.116,9.116,0,0,0,.875-2.115A8.666,8.666,0,0,0,250.935,108.757Z"/>
    </g>
    <path class="cls-3" d="M121.536,221.717a45,45,0,1,1-45,45A45,45,0,0,1,121.536,221.717Z"/>
    <g>
      <path class="cls-4" d="M115.167,259.4v4.072h-2.151V251.9h3.768a6.605,6.605,0,0,1,2.007.272,3.879,3.879,0,0,1,1.4.76,2.987,2.987,0,0,1,.816,1.168,4.075,4.075,0,0,1,.264,1.488,4.121,4.121,0,0,1-.28,1.54,3.2,3.2,0,0,1-.84,1.2,3.923,3.923,0,0,1-1.4.784,6.248,6.248,0,0,1-1.967.279Zm0-1.68h1.617a3.206,3.206,0,0,0,1.032-.148,1.9,1.9,0,0,0,.727-.424,1.733,1.733,0,0,0,.433-.672,2.566,2.566,0,0,0,.143-.884,2.326,2.326,0,0,0-.143-.839,1.671,1.671,0,0,0-.433-.641,1.893,1.893,0,0,0-.727-.4,3.393,3.393,0,0,0-1.032-.141h-1.617Z"/>
      <path class="cls-4" d="M131.1,251.9v1.769h-3.48v9.8h-2.152v-9.8h-3.5V251.9Z"/>
      <path class="cls-4" d="M84.994,274.007a8.666,8.666,0,0,0,.3,2.286,9.116,9.116,0,0,0,.875,2.115.49.49,0,0,1,.044.1.385.385,0,0,1,.011.088.2.2,0,0,1-.038.127.39.39,0,0,1-.1.088l-.434.264a10.317,10.317,0,0,1-.7-1.254,8.488,8.488,0,0,1-.466-1.248,8.693,8.693,0,0,1-.262-1.263,10.417,10.417,0,0,1,0-2.609,8.552,8.552,0,0,1,.728-2.509,10.6,10.6,0,0,1,.7-1.259l.434.27a.387.387,0,0,1,.1.087.207.207,0,0,1,.038.126.417.417,0,0,1-.055.188,8.753,8.753,0,0,0-1.177,4.4Z"/>
      <path class="cls-4" d="M88.833,274.519v2.948H87.772v-7.882H90.1a4.346,4.346,0,0,1,1.3.174,2.507,2.507,0,0,1,.916.493,1.98,1.98,0,0,1,.541.769,2.719,2.719,0,0,1,.179,1.007,2.56,2.56,0,0,1-.193,1.007,2.175,2.175,0,0,1-.563.786,2.621,2.621,0,0,1-.921.514,3.96,3.96,0,0,1-1.26.184Zm0-.847H90.1a2.449,2.449,0,0,0,.806-.121,1.675,1.675,0,0,0,.586-.338,1.415,1.415,0,0,0,.357-.52,1.785,1.785,0,0,0,.121-.665,1.512,1.512,0,0,0-.465-1.177,2.028,2.028,0,0,0-1.405-.424H88.833Z"/>
      <path class="cls-4" d="M94.228,277.467V271.9h.561a.3.3,0,0,1,.22.061.365.365,0,0,1,.082.209l.067.869a2.522,2.522,0,0,1,.707-.91,1.653,1.653,0,0,1,1.405-.276,1.464,1.464,0,0,1,.347.146l-.127.731a.166.166,0,0,1-.171.138.9.9,0,0,1-.237-.052,1.48,1.48,0,0,0-.445-.053,1.261,1.261,0,0,0-.855.3,2.242,2.242,0,0,0-.575.863v3.548Z"/>
      <path class="cls-4" d="M100.915,271.808a2.876,2.876,0,0,1,1.1.2,2.341,2.341,0,0,1,.836.577,2.57,2.57,0,0,1,.527.906,3.9,3.9,0,0,1,0,2.373,2.57,2.57,0,0,1-.527.9,2.3,2.3,0,0,1-.836.574,3.127,3.127,0,0,1-2.206,0,2.317,2.317,0,0,1-.839-.574,2.581,2.581,0,0,1-.533-.9,3.858,3.858,0,0,1,0-2.373,2.581,2.581,0,0,1,.533-.906,2.362,2.362,0,0,1,.839-.577A2.873,2.873,0,0,1,100.915,271.808Zm0,4.972a1.433,1.433,0,0,0,1.233-.553,3.144,3.144,0,0,0,0-3.094,1.429,1.429,0,0,0-1.233-.555,1.711,1.711,0,0,0-.725.143,1.37,1.37,0,0,0-.515.412,1.831,1.831,0,0,0-.307.663,3.908,3.908,0,0,0,0,1.774,1.793,1.793,0,0,0,.307.657,1.374,1.374,0,0,0,.515.41A1.711,1.711,0,0,0,100.915,276.78Z"/>
      <path class="cls-4" d="M108.7,277.467a.248.248,0,0,1-.264-.2l-.089-.677a2.92,2.92,0,0,1-.816.7,2.085,2.085,0,0,1-1.053.261,2.008,2.008,0,0,1-.869-.184,1.791,1.791,0,0,1-.666-.542,2.562,2.562,0,0,1-.423-.891,4.539,4.539,0,0,1-.149-1.226,3.85,3.85,0,0,1,.165-1.147,2.8,2.8,0,0,1,.476-.922,2.191,2.191,0,0,1,1.768-.836,2.028,2.028,0,0,1,.875.174,2.078,2.078,0,0,1,.648.487v-3.091h.98v8.1Zm-1.9-.715a1.583,1.583,0,0,0,.839-.219,2.441,2.441,0,0,0,.662-.622v-2.7a1.54,1.54,0,0,0-.591-.507,1.7,1.7,0,0,0-.712-.147,1.41,1.41,0,0,0-1.2.556,2.591,2.591,0,0,0-.418,1.584,3.984,3.984,0,0,0,.094.932,1.775,1.775,0,0,0,.274.638,1.081,1.081,0,0,0,.446.366A1.515,1.515,0,0,0,106.8,276.752Z"/>
      <path class="cls-4" d="M111.773,271.9v3.553a1.474,1.474,0,0,0,.291.979,1.084,1.084,0,0,0,.88.346,1.679,1.679,0,0,0,.808-.2,2.5,2.5,0,0,0,.7-.567V271.9h.979v5.571h-.583a.248.248,0,0,1-.264-.2l-.077-.6a3.065,3.065,0,0,1-.814.645,2.127,2.127,0,0,1-1.034.245,2.029,2.029,0,0,1-.806-.151,1.593,1.593,0,0,1-.586-.426,1.84,1.84,0,0,1-.355-.666,2.962,2.962,0,0,1-.118-.863V271.9Z"/>
      <path class="cls-4" d="M120.842,272.886a.4.4,0,0,1-.088.093.2.2,0,0,1-.127.033.312.312,0,0,1-.178-.068,2.373,2.373,0,0,0-.245-.151,1.988,1.988,0,0,0-.36-.152,1.924,1.924,0,0,0-1.24.077,1.4,1.4,0,0,0-.526.421,1.9,1.9,0,0,0-.319.665,3.329,3.329,0,0,0-.107.875,3.193,3.193,0,0,0,.116.9,1.939,1.939,0,0,0,.324.66,1.393,1.393,0,0,0,.509.407,1.563,1.563,0,0,0,.674.141,1.715,1.715,0,0,0,.588-.086,1.77,1.77,0,0,0,.385-.19,2.814,2.814,0,0,0,.253-.189.305.305,0,0,1,.2-.086.2.2,0,0,1,.186.094l.275.357a2.109,2.109,0,0,1-.908.652,3.223,3.223,0,0,1-1.149.206,2.442,2.442,0,0,1-.971-.192,2.216,2.216,0,0,1-.778-.559,2.655,2.655,0,0,1-.52-.9,3.955,3.955,0,0,1-.016-2.365,2.594,2.594,0,0,1,.506-.91,2.3,2.3,0,0,1,.822-.6,2.769,2.769,0,0,1,1.122-.214,2.637,2.637,0,0,1,1.034.19,2.492,2.492,0,0,1,.8.536Z"/>
      <path class="cls-4" d="M123.867,277.555a1.345,1.345,0,0,1-1.015-.368,1.474,1.474,0,0,1-.355-1.061v-3.411h-.67a.218.218,0,0,1-.149-.052.2.2,0,0,1-.06-.162v-.391l.913-.115.225-1.722a.2.2,0,0,1,.071-.135.234.234,0,0,1,.155-.052h.494v1.919h1.6v.71h-1.6v3.344a.716.716,0,0,0,.171.523.594.594,0,0,0,.44.17.765.765,0,0,0,.267-.041,1.324,1.324,0,0,0,.2-.09c.055-.034.1-.064.14-.091a.18.18,0,0,1,.1-.041.166.166,0,0,1,.138.093l.286.467a1.809,1.809,0,0,1-.61.371A2.072,2.072,0,0,1,123.867,277.555Z"/>
      <path class="cls-4" d="M133.926,269.585v.9h-2.547v6.985h-1.066v-6.985h-2.558v-.9Z"/>
      <path class="cls-4" d="M135.993,271.808a2.876,2.876,0,0,1,1.1.2,2.341,2.341,0,0,1,.836.577,2.57,2.57,0,0,1,.527.906,3.9,3.9,0,0,1,0,2.373,2.57,2.57,0,0,1-.527.9,2.3,2.3,0,0,1-.836.574,3.127,3.127,0,0,1-2.206,0,2.325,2.325,0,0,1-.839-.574,2.6,2.6,0,0,1-.533-.9,3.858,3.858,0,0,1,0-2.373,2.6,2.6,0,0,1,.533-.906,2.37,2.37,0,0,1,.839-.577A2.873,2.873,0,0,1,135.993,271.808Zm0,4.972a1.433,1.433,0,0,0,1.233-.553,3.144,3.144,0,0,0,0-3.094,1.429,1.429,0,0,0-1.233-.555,1.711,1.711,0,0,0-.725.143,1.37,1.37,0,0,0-.515.412,1.847,1.847,0,0,0-.307.663,3.908,3.908,0,0,0,0,1.774,1.81,1.81,0,0,0,.307.657,1.374,1.374,0,0,0,.515.41A1.711,1.711,0,0,0,135.993,276.78Z"/>
      <path class="cls-4" d="M140.872,269.366v4.768h.253a.456.456,0,0,0,.182-.03.486.486,0,0,0,.159-.124l1.761-1.886a.963.963,0,0,1,.165-.143.4.4,0,0,1,.22-.055h.89l-2.05,2.184c-.052.062-.1.117-.152.165a.888.888,0,0,1-.168.126,1,1,0,0,1,.179.151,1.476,1.476,0,0,1,.151.195l2.178,2.75h-.88a.413.413,0,0,1-.206-.047.541.541,0,0,1-.162-.145l-1.832-2.282a.425.425,0,0,0-.165-.152.65.65,0,0,0-.247-.036h-.276v2.662h-.984v-8.1Z"/>
      <path class="cls-4" d="M147.494,271.808a2.5,2.5,0,0,1,.924.167,2.07,2.07,0,0,1,.732.485,2.209,2.209,0,0,1,.481.781,3.021,3.021,0,0,1,.173,1.058.633.633,0,0,1-.05.308.2.2,0,0,1-.186.077h-3.707a3.069,3.069,0,0,0,.142.919,1.868,1.868,0,0,0,.364.651,1.447,1.447,0,0,0,.549.391,1.9,1.9,0,0,0,.716.129,2.1,2.1,0,0,0,.635-.085,2.912,2.912,0,0,0,.459-.185,3.515,3.515,0,0,0,.322-.183.425.425,0,0,1,.223-.086.213.213,0,0,1,.186.094l.276.357a1.87,1.87,0,0,1-.435.383,2.727,2.727,0,0,1-.542.266,3.328,3.328,0,0,1-.6.157,3.644,3.644,0,0,1-.611.052,2.837,2.837,0,0,1-1.064-.195,2.325,2.325,0,0,1-.841-.572,2.618,2.618,0,0,1-.553-.932,3.77,3.77,0,0,1-.2-1.276,3.223,3.223,0,0,1,.179-1.089,2.574,2.574,0,0,1,.513-.878,2.366,2.366,0,0,1,.821-.582A2.67,2.67,0,0,1,147.494,271.808Zm.022.72a1.5,1.5,0,0,0-1.116.41,1.916,1.916,0,0,0-.506,1.136h3.03a1.955,1.955,0,0,0-.094-.624,1.372,1.372,0,0,0-.274-.49,1.237,1.237,0,0,0-.443-.319A1.5,1.5,0,0,0,147.516,272.528Z"/>
      <path class="cls-4" d="M151.052,277.467V271.9h.583a.25.25,0,0,1,.265.2l.076.606a3.141,3.141,0,0,1,.811-.65,2.113,2.113,0,0,1,1.038-.247,1.993,1.993,0,0,1,.805.152,1.549,1.549,0,0,1,.583.428,1.9,1.9,0,0,1,.355.668,2.9,2.9,0,0,1,.121.863v3.548h-.979v-3.548a1.5,1.5,0,0,0-.289-.981,1.082,1.082,0,0,0-.883-.35,1.658,1.658,0,0,0-.811.209,2.671,2.671,0,0,0-.695.568v4.1Z"/>
      <path class="cls-4" d="M158,274.007a8.753,8.753,0,0,0-1.177-4.4.414.414,0,0,1-.054-.188.2.2,0,0,1,.038-.126.352.352,0,0,1,.1-.087l.434-.27a10.458,10.458,0,0,1,.7,1.259,8.486,8.486,0,0,1,.467,1.246,8.716,8.716,0,0,1,.262,1.263,10.417,10.417,0,0,1,0,2.609,8.828,8.828,0,0,1-.262,1.263,8.382,8.382,0,0,1-.467,1.248,10.184,10.184,0,0,1-.7,1.254l-.434-.264a.355.355,0,0,1-.1-.088.2.2,0,0,1-.038-.127.337.337,0,0,1,.011-.088.48.48,0,0,1,.043-.1,9.116,9.116,0,0,0,.875-2.115A8.625,8.625,0,0,0,158,274.007Z"/>
    </g>
    <path class="cls-3" d="M221.536,321.717a45,45,0,1,1-45,45A45,45,0,0,1,221.536,321.717Z"/>
    <g>
      <path class="cls-4" d="M215.168,359.4v4.072h-2.151V351.9h3.768a6.605,6.605,0,0,1,2.007.272,3.879,3.879,0,0,1,1.4.76,2.987,2.987,0,0,1,.816,1.168,4.075,4.075,0,0,1,.264,1.488,4.121,4.121,0,0,1-.28,1.54,3.2,3.2,0,0,1-.84,1.2,3.923,3.923,0,0,1-1.4.784,6.248,6.248,0,0,1-1.967.279Zm0-1.68h1.617a3.206,3.206,0,0,0,1.032-.148,1.9,1.9,0,0,0,.727-.424,1.733,1.733,0,0,0,.433-.672,2.566,2.566,0,0,0,.143-.884,2.326,2.326,0,0,0-.143-.839,1.671,1.671,0,0,0-.433-.641,1.893,1.893,0,0,0-.727-.4,3.393,3.393,0,0,0-1.032-.141h-1.617Z"/>
      <path class="cls-4" d="M231.1,351.9v1.769h-3.48v9.8h-2.152v-9.8h-3.5V351.9Z"/>
      <path class="cls-4" d="M185,374.007a8.666,8.666,0,0,0,.3,2.286,9.116,9.116,0,0,0,.875,2.115.49.49,0,0,1,.044.1.385.385,0,0,1,.011.088.2.2,0,0,1-.038.127.39.39,0,0,1-.1.088l-.434.264a10.317,10.317,0,0,1-.7-1.254,8.488,8.488,0,0,1-.466-1.248,8.693,8.693,0,0,1-.262-1.263,10.417,10.417,0,0,1,0-2.609,8.552,8.552,0,0,1,.728-2.509,10.6,10.6,0,0,1,.7-1.259l.434.27a.387.387,0,0,1,.1.087.207.207,0,0,1,.038.126.417.417,0,0,1-.055.188,8.753,8.753,0,0,0-1.177,4.4Z"/>
      <path class="cls-4" d="M188.834,374.519v2.948h-1.061v-7.882H190.1a4.346,4.346,0,0,1,1.3.174,2.507,2.507,0,0,1,.916.493,1.98,1.98,0,0,1,.541.769,2.719,2.719,0,0,1,.178,1.007,2.56,2.56,0,0,1-.192,1.007,2.175,2.175,0,0,1-.563.786,2.621,2.621,0,0,1-.921.514,3.96,3.96,0,0,1-1.26.184Zm0-.847H190.1a2.449,2.449,0,0,0,.806-.121,1.675,1.675,0,0,0,.586-.338,1.415,1.415,0,0,0,.357-.52,1.785,1.785,0,0,0,.121-.665,1.512,1.512,0,0,0-.465-1.177,2.028,2.028,0,0,0-1.405-.424h-1.265Z"/>
      <path class="cls-4" d="M194.229,377.467V371.9h.561a.3.3,0,0,1,.22.061.372.372,0,0,1,.082.209l.067.869a2.522,2.522,0,0,1,.707-.91,1.653,1.653,0,0,1,1.4-.276,1.464,1.464,0,0,1,.347.146l-.127.731a.166.166,0,0,1-.171.138.9.9,0,0,1-.237-.052,1.48,1.48,0,0,0-.445-.053,1.261,1.261,0,0,0-.855.3,2.242,2.242,0,0,0-.575.863v3.548Z"/>
      <path class="cls-4" d="M200.916,371.808a2.876,2.876,0,0,1,1.1.2,2.341,2.341,0,0,1,.836.577,2.57,2.57,0,0,1,.527.906,3.9,3.9,0,0,1,0,2.373,2.57,2.57,0,0,1-.527.9,2.3,2.3,0,0,1-.836.574,3.127,3.127,0,0,1-2.206,0,2.317,2.317,0,0,1-.839-.574,2.581,2.581,0,0,1-.533-.9,3.858,3.858,0,0,1,0-2.373,2.581,2.581,0,0,1,.533-.906,2.362,2.362,0,0,1,.839-.577A2.873,2.873,0,0,1,200.916,371.808Zm0,4.972a1.433,1.433,0,0,0,1.233-.553,3.144,3.144,0,0,0,0-3.094,1.429,1.429,0,0,0-1.233-.555,1.711,1.711,0,0,0-.725.143,1.37,1.37,0,0,0-.515.412,1.849,1.849,0,0,0-.308.663,3.945,3.945,0,0,0,0,1.774,1.811,1.811,0,0,0,.308.657,1.374,1.374,0,0,0,.515.41A1.711,1.711,0,0,0,200.916,376.78Z"/>
      <path class="cls-4" d="M208.7,377.467a.248.248,0,0,1-.264-.2l-.089-.677a2.92,2.92,0,0,1-.816.7,2.085,2.085,0,0,1-1.053.261,2,2,0,0,1-.869-.184,1.791,1.791,0,0,1-.666-.542,2.545,2.545,0,0,1-.423-.891,4.539,4.539,0,0,1-.149-1.226,3.883,3.883,0,0,1,.164-1.147,2.819,2.819,0,0,1,.477-.922,2.191,2.191,0,0,1,1.768-.836,2.028,2.028,0,0,1,.875.174,2.078,2.078,0,0,1,.648.487v-3.091h.98v8.1Zm-1.9-.715a1.583,1.583,0,0,0,.839-.219,2.441,2.441,0,0,0,.662-.622v-2.7a1.54,1.54,0,0,0-.591-.507,1.7,1.7,0,0,0-.712-.147,1.41,1.41,0,0,0-1.2.556,2.591,2.591,0,0,0-.418,1.584,3.984,3.984,0,0,0,.094.932,1.775,1.775,0,0,0,.274.638,1.081,1.081,0,0,0,.446.366A1.515,1.515,0,0,0,206.8,376.752Z"/>
      <path class="cls-4" d="M211.774,371.9v3.553a1.474,1.474,0,0,0,.291.979,1.084,1.084,0,0,0,.88.346,1.679,1.679,0,0,0,.808-.2,2.5,2.5,0,0,0,.7-.567V371.9h.979v5.571h-.583a.248.248,0,0,1-.264-.2l-.077-.6a3.081,3.081,0,0,1-.814.645,2.127,2.127,0,0,1-1.034.245,2.029,2.029,0,0,1-.806-.151,1.593,1.593,0,0,1-.586-.426,1.84,1.84,0,0,1-.355-.666,2.962,2.962,0,0,1-.118-.863V371.9Z"/>
      <path class="cls-4" d="M220.843,372.886a.4.4,0,0,1-.088.093.2.2,0,0,1-.127.033.312.312,0,0,1-.178-.068,2.373,2.373,0,0,0-.245-.151,1.988,1.988,0,0,0-.36-.152,1.924,1.924,0,0,0-1.24.077,1.4,1.4,0,0,0-.526.421,1.9,1.9,0,0,0-.319.665,3.329,3.329,0,0,0-.107.875,3.193,3.193,0,0,0,.116.9,1.939,1.939,0,0,0,.324.66,1.393,1.393,0,0,0,.509.407,1.563,1.563,0,0,0,.674.141,1.715,1.715,0,0,0,.588-.086,1.77,1.77,0,0,0,.385-.19,2.814,2.814,0,0,0,.253-.189.305.305,0,0,1,.2-.086.2.2,0,0,1,.186.094l.275.357a2.109,2.109,0,0,1-.908.652,3.223,3.223,0,0,1-1.149.206,2.442,2.442,0,0,1-.971-.192,2.216,2.216,0,0,1-.778-.559,2.655,2.655,0,0,1-.52-.9,3.955,3.955,0,0,1-.016-2.365,2.594,2.594,0,0,1,.506-.91,2.3,2.3,0,0,1,.822-.6,2.769,2.769,0,0,1,1.122-.214,2.637,2.637,0,0,1,1.034.19,2.492,2.492,0,0,1,.8.536Z"/>
      <path class="cls-4" d="M223.868,377.555a1.345,1.345,0,0,1-1.015-.368,1.474,1.474,0,0,1-.355-1.061v-3.411h-.671a.218.218,0,0,1-.148-.052.2.2,0,0,1-.061-.162v-.391l.914-.115.225-1.722a.2.2,0,0,1,.071-.135.232.232,0,0,1,.155-.052h.494v1.919h1.6v.71h-1.6v3.344a.716.716,0,0,0,.171.523.594.594,0,0,0,.44.17.765.765,0,0,0,.267-.041,1.324,1.324,0,0,0,.2-.09c.055-.034.1-.064.14-.091a.18.18,0,0,1,.1-.041.166.166,0,0,1,.138.093l.286.467a1.809,1.809,0,0,1-.61.371A2.072,2.072,0,0,1,223.868,377.555Z"/>
      <path class="cls-4" d="M233.927,369.585v.9H231.38v6.985h-1.066v-6.985h-2.558v-.9Z"/>
      <path class="cls-4" d="M235.994,371.808a2.876,2.876,0,0,1,1.1.2,2.341,2.341,0,0,1,.836.577,2.57,2.57,0,0,1,.527.906,3.9,3.9,0,0,1,0,2.373,2.57,2.57,0,0,1-.527.9,2.3,2.3,0,0,1-.836.574,3.127,3.127,0,0,1-2.206,0,2.325,2.325,0,0,1-.839-.574,2.6,2.6,0,0,1-.533-.9,3.858,3.858,0,0,1,0-2.373,2.6,2.6,0,0,1,.533-.906,2.37,2.37,0,0,1,.839-.577A2.873,2.873,0,0,1,235.994,371.808Zm0,4.972a1.433,1.433,0,0,0,1.233-.553,3.144,3.144,0,0,0,0-3.094,1.429,1.429,0,0,0-1.233-.555,1.711,1.711,0,0,0-.725.143,1.37,1.37,0,0,0-.515.412,1.847,1.847,0,0,0-.307.663,3.908,3.908,0,0,0,0,1.774,1.81,1.81,0,0,0,.307.657,1.374,1.374,0,0,0,.515.41A1.711,1.711,0,0,0,235.994,376.78Z"/>
      <path class="cls-4" d="M240.873,369.366v4.768h.253a.456.456,0,0,0,.182-.03.486.486,0,0,0,.159-.124l1.761-1.886a.963.963,0,0,1,.165-.143.4.4,0,0,1,.22-.055h.89l-2.051,2.184a2.089,2.089,0,0,1-.151.165.888.888,0,0,1-.168.126,1,1,0,0,1,.179.151,1.476,1.476,0,0,1,.151.195l2.178,2.75h-.88a.413.413,0,0,1-.206-.047.541.541,0,0,1-.162-.145l-1.832-2.282a.425.425,0,0,0-.165-.152.65.65,0,0,0-.247-.036h-.276v2.662h-.984v-8.1Z"/>
      <path class="cls-4" d="M247.5,371.808a2.5,2.5,0,0,1,.924.167,2.07,2.07,0,0,1,.732.485,2.209,2.209,0,0,1,.481.781,3.021,3.021,0,0,1,.173,1.058.633.633,0,0,1-.05.308.2.2,0,0,1-.186.077h-3.707a3.037,3.037,0,0,0,.142.919,1.868,1.868,0,0,0,.364.651,1.447,1.447,0,0,0,.549.391,1.9,1.9,0,0,0,.716.129,2.1,2.1,0,0,0,.635-.085,2.912,2.912,0,0,0,.459-.185,3.515,3.515,0,0,0,.322-.183.425.425,0,0,1,.223-.086.213.213,0,0,1,.186.094l.276.357a1.87,1.87,0,0,1-.435.383,2.727,2.727,0,0,1-.542.266,3.317,3.317,0,0,1-.6.157,3.624,3.624,0,0,1-.61.052,2.837,2.837,0,0,1-1.064-.195,2.325,2.325,0,0,1-.841-.572,2.618,2.618,0,0,1-.553-.932,3.77,3.77,0,0,1-.2-1.276,3.223,3.223,0,0,1,.179-1.089,2.574,2.574,0,0,1,.513-.878,2.366,2.366,0,0,1,.821-.582A2.67,2.67,0,0,1,247.5,371.808Zm.022.72a1.5,1.5,0,0,0-1.116.41,1.916,1.916,0,0,0-.506,1.136h3.03a1.955,1.955,0,0,0-.094-.624,1.372,1.372,0,0,0-.274-.49,1.237,1.237,0,0,0-.443-.319A1.5,1.5,0,0,0,247.517,372.528Z"/>
      <path class="cls-4" d="M251.053,377.467V371.9h.583a.25.25,0,0,1,.265.2l.076.606a3.141,3.141,0,0,1,.811-.65,2.113,2.113,0,0,1,1.038-.247,1.993,1.993,0,0,1,.805.152,1.549,1.549,0,0,1,.583.428,1.9,1.9,0,0,1,.355.668,2.9,2.9,0,0,1,.121.863v3.548h-.979v-3.548a1.5,1.5,0,0,0-.289-.981,1.082,1.082,0,0,0-.883-.35,1.658,1.658,0,0,0-.811.209,2.671,2.671,0,0,0-.7.568v4.1Z"/>
      <path class="cls-4" d="M258.005,374.007a8.753,8.753,0,0,0-1.177-4.4.414.414,0,0,1-.054-.188.2.2,0,0,1,.038-.126.352.352,0,0,1,.1-.087l.434-.27a10.458,10.458,0,0,1,.7,1.259,8.486,8.486,0,0,1,.467,1.246,8.716,8.716,0,0,1,.262,1.263,10.417,10.417,0,0,1,0,2.609,8.828,8.828,0,0,1-.262,1.263,8.382,8.382,0,0,1-.467,1.248,10.184,10.184,0,0,1-.7,1.254l-.434-.264a.355.355,0,0,1-.1-.088.2.2,0,0,1-.038-.127.337.337,0,0,1,.011-.088.48.48,0,0,1,.043-.1,9.116,9.116,0,0,0,.875-2.115A8.625,8.625,0,0,0,258.005,374.007Z"/>
    </g>
    <path class="cls-3" d="M321.536,221.717a45,45,0,1,1-45,45A45,45,0,0,1,321.536,221.717Z"/>
    <g>
      <path class="cls-4" d="M315.167,259.4v4.072h-2.151V251.9h3.768a6.605,6.605,0,0,1,2.007.272,3.879,3.879,0,0,1,1.4.76,2.987,2.987,0,0,1,.816,1.168,4.075,4.075,0,0,1,.264,1.488,4.121,4.121,0,0,1-.28,1.54,3.2,3.2,0,0,1-.84,1.2,3.923,3.923,0,0,1-1.4.784,6.248,6.248,0,0,1-1.967.279Zm0-1.68h1.617a3.206,3.206,0,0,0,1.032-.148,1.9,1.9,0,0,0,.727-.424,1.733,1.733,0,0,0,.433-.672,2.566,2.566,0,0,0,.143-.884,2.326,2.326,0,0,0-.143-.839,1.671,1.671,0,0,0-.433-.641,1.893,1.893,0,0,0-.727-.4,3.393,3.393,0,0,0-1.032-.141h-1.617Z"/>
      <path class="cls-4" d="M331.1,251.9v1.769h-3.48v9.8h-2.152v-9.8h-3.5V251.9Z"/>
      <path class="cls-4" d="M284.994,274.007a8.666,8.666,0,0,0,.3,2.286,9.116,9.116,0,0,0,.875,2.115.49.49,0,0,1,.044.1.385.385,0,0,1,.011.088.2.2,0,0,1-.038.127.39.39,0,0,1-.1.088l-.434.264a10.317,10.317,0,0,1-.7-1.254,8.488,8.488,0,0,1-.466-1.248,8.693,8.693,0,0,1-.262-1.263,10.417,10.417,0,0,1,0-2.609,8.552,8.552,0,0,1,.728-2.509,10.6,10.6,0,0,1,.7-1.259l.434.27a.387.387,0,0,1,.1.087.207.207,0,0,1,.038.126.417.417,0,0,1-.055.188,8.753,8.753,0,0,0-1.177,4.4Z"/>
      <path class="cls-4" d="M288.833,274.519v2.948h-1.061v-7.882H290.1a4.346,4.346,0,0,1,1.3.174,2.507,2.507,0,0,1,.916.493,1.98,1.98,0,0,1,.541.769,2.719,2.719,0,0,1,.179,1.007,2.56,2.56,0,0,1-.193,1.007,2.175,2.175,0,0,1-.563.786,2.621,2.621,0,0,1-.921.514,3.96,3.96,0,0,1-1.26.184Zm0-.847H290.1a2.449,2.449,0,0,0,.806-.121,1.675,1.675,0,0,0,.586-.338,1.415,1.415,0,0,0,.357-.52,1.785,1.785,0,0,0,.121-.665,1.512,1.512,0,0,0-.465-1.177,2.028,2.028,0,0,0-1.4-.424h-1.265Z"/>
      <path class="cls-4" d="M294.228,277.467V271.9h.561a.3.3,0,0,1,.22.061.365.365,0,0,1,.082.209l.067.869a2.522,2.522,0,0,1,.707-.91,1.653,1.653,0,0,1,1.4-.276,1.464,1.464,0,0,1,.347.146l-.127.731a.166.166,0,0,1-.171.138.9.9,0,0,1-.237-.052,1.48,1.48,0,0,0-.445-.053,1.261,1.261,0,0,0-.855.3,2.242,2.242,0,0,0-.575.863v3.548Z"/>
      <path class="cls-4" d="M300.915,271.808a2.876,2.876,0,0,1,1.1.2,2.341,2.341,0,0,1,.836.577,2.57,2.57,0,0,1,.527.906,3.9,3.9,0,0,1,0,2.373,2.57,2.57,0,0,1-.527.9,2.3,2.3,0,0,1-.836.574,3.127,3.127,0,0,1-2.206,0,2.317,2.317,0,0,1-.839-.574,2.581,2.581,0,0,1-.533-.9,3.858,3.858,0,0,1,0-2.373,2.581,2.581,0,0,1,.533-.906,2.362,2.362,0,0,1,.839-.577A2.873,2.873,0,0,1,300.915,271.808Zm0,4.972a1.433,1.433,0,0,0,1.233-.553,3.144,3.144,0,0,0,0-3.094,1.429,1.429,0,0,0-1.233-.555,1.711,1.711,0,0,0-.725.143,1.37,1.37,0,0,0-.515.412,1.831,1.831,0,0,0-.307.663,3.908,3.908,0,0,0,0,1.774,1.793,1.793,0,0,0,.307.657,1.374,1.374,0,0,0,.515.41A1.711,1.711,0,0,0,300.915,276.78Z"/>
      <path class="cls-4" d="M308.7,277.467a.248.248,0,0,1-.264-.2l-.089-.677a2.92,2.92,0,0,1-.816.7,2.085,2.085,0,0,1-1.053.261,2.008,2.008,0,0,1-.869-.184,1.791,1.791,0,0,1-.666-.542,2.562,2.562,0,0,1-.423-.891,4.539,4.539,0,0,1-.149-1.226,3.85,3.85,0,0,1,.165-1.147,2.8,2.8,0,0,1,.476-.922,2.191,2.191,0,0,1,1.768-.836,2.028,2.028,0,0,1,.875.174,2.078,2.078,0,0,1,.648.487v-3.091h.98v8.1Zm-1.9-.715a1.583,1.583,0,0,0,.839-.219,2.441,2.441,0,0,0,.662-.622v-2.7a1.54,1.54,0,0,0-.591-.507,1.7,1.7,0,0,0-.712-.147,1.41,1.41,0,0,0-1.2.556,2.591,2.591,0,0,0-.418,1.584,3.984,3.984,0,0,0,.094.932,1.775,1.775,0,0,0,.274.638,1.081,1.081,0,0,0,.446.366A1.515,1.515,0,0,0,306.8,276.752Z"/>
      <path class="cls-4" d="M311.773,271.9v3.553a1.474,1.474,0,0,0,.291.979,1.084,1.084,0,0,0,.88.346,1.679,1.679,0,0,0,.808-.2,2.5,2.5,0,0,0,.7-.567V271.9h.979v5.571h-.583a.248.248,0,0,1-.264-.2l-.077-.6a3.065,3.065,0,0,1-.814.645,2.127,2.127,0,0,1-1.034.245,2.029,2.029,0,0,1-.806-.151,1.593,1.593,0,0,1-.586-.426,1.84,1.84,0,0,1-.355-.666,2.962,2.962,0,0,1-.118-.863V271.9Z"/>
      <path class="cls-4" d="M320.842,272.886a.4.4,0,0,1-.088.093.2.2,0,0,1-.127.033.312.312,0,0,1-.178-.068,2.373,2.373,0,0,0-.245-.151,1.988,1.988,0,0,0-.36-.152,1.924,1.924,0,0,0-1.24.077,1.4,1.4,0,0,0-.526.421,1.9,1.9,0,0,0-.319.665,3.329,3.329,0,0,0-.107.875,3.193,3.193,0,0,0,.116.9,1.939,1.939,0,0,0,.324.66,1.393,1.393,0,0,0,.509.407,1.563,1.563,0,0,0,.674.141,1.715,1.715,0,0,0,.588-.086,1.77,1.77,0,0,0,.385-.19,2.814,2.814,0,0,0,.253-.189.305.305,0,0,1,.2-.086.2.2,0,0,1,.186.094l.275.357a2.109,2.109,0,0,1-.908.652,3.223,3.223,0,0,1-1.149.206,2.442,2.442,0,0,1-.971-.192,2.216,2.216,0,0,1-.778-.559,2.655,2.655,0,0,1-.52-.9,3.955,3.955,0,0,1-.016-2.365,2.594,2.594,0,0,1,.506-.91,2.3,2.3,0,0,1,.822-.6,2.769,2.769,0,0,1,1.122-.214,2.637,2.637,0,0,1,1.034.19,2.492,2.492,0,0,1,.8.536Z"/>
      <path class="cls-4" d="M323.867,277.555a1.345,1.345,0,0,1-1.015-.368,1.474,1.474,0,0,1-.355-1.061v-3.411h-.67a.218.218,0,0,1-.149-.052.2.2,0,0,1-.06-.162v-.391l.913-.115.225-1.722a.2.2,0,0,1,.071-.135.234.234,0,0,1,.155-.052h.494v1.919h1.6v.71h-1.6v3.344a.716.716,0,0,0,.171.523.594.594,0,0,0,.44.17.765.765,0,0,0,.267-.041,1.324,1.324,0,0,0,.195-.09c.055-.034.1-.064.14-.091a.18.18,0,0,1,.1-.041.166.166,0,0,1,.138.093l.286.467a1.809,1.809,0,0,1-.61.371A2.072,2.072,0,0,1,323.867,277.555Z"/>
      <path class="cls-4" d="M333.926,269.585v.9h-2.547v6.985h-1.066v-6.985h-2.558v-.9Z"/>
      <path class="cls-4" d="M335.993,271.808a2.876,2.876,0,0,1,1.1.2,2.341,2.341,0,0,1,.836.577,2.57,2.57,0,0,1,.527.906,3.9,3.9,0,0,1,0,2.373,2.57,2.57,0,0,1-.527.9,2.3,2.3,0,0,1-.836.574,3.127,3.127,0,0,1-2.206,0,2.325,2.325,0,0,1-.839-.574,2.6,2.6,0,0,1-.533-.9,3.858,3.858,0,0,1,0-2.373,2.6,2.6,0,0,1,.533-.906,2.37,2.37,0,0,1,.839-.577A2.873,2.873,0,0,1,335.993,271.808Zm0,4.972a1.433,1.433,0,0,0,1.233-.553,3.144,3.144,0,0,0,0-3.094,1.429,1.429,0,0,0-1.233-.555,1.711,1.711,0,0,0-.725.143,1.37,1.37,0,0,0-.515.412,1.847,1.847,0,0,0-.307.663,3.908,3.908,0,0,0,0,1.774,1.81,1.81,0,0,0,.307.657,1.374,1.374,0,0,0,.515.41A1.711,1.711,0,0,0,335.993,276.78Z"/>
      <path class="cls-4" d="M340.872,269.366v4.768h.253a.456.456,0,0,0,.182-.03.486.486,0,0,0,.159-.124l1.761-1.886a.963.963,0,0,1,.165-.143.4.4,0,0,1,.22-.055h.89l-2.05,2.184c-.052.062-.1.117-.152.165a.888.888,0,0,1-.168.126,1,1,0,0,1,.179.151,1.476,1.476,0,0,1,.151.195l2.178,2.75h-.88a.413.413,0,0,1-.206-.047.541.541,0,0,1-.162-.145l-1.832-2.282a.425.425,0,0,0-.165-.152.65.65,0,0,0-.247-.036h-.276v2.662h-.984v-8.1Z"/>
      <path class="cls-4" d="M347.494,271.808a2.5,2.5,0,0,1,.924.167,2.07,2.07,0,0,1,.732.485,2.209,2.209,0,0,1,.481.781,3.021,3.021,0,0,1,.173,1.058.633.633,0,0,1-.05.308.2.2,0,0,1-.186.077h-3.707a3.069,3.069,0,0,0,.142.919,1.868,1.868,0,0,0,.364.651,1.447,1.447,0,0,0,.549.391,1.9,1.9,0,0,0,.716.129,2.1,2.1,0,0,0,.635-.085,2.912,2.912,0,0,0,.459-.185,3.515,3.515,0,0,0,.322-.183.425.425,0,0,1,.223-.086.213.213,0,0,1,.186.094l.276.357a1.87,1.87,0,0,1-.435.383,2.727,2.727,0,0,1-.542.266,3.328,3.328,0,0,1-.6.157,3.644,3.644,0,0,1-.611.052,2.837,2.837,0,0,1-1.064-.195,2.325,2.325,0,0,1-.841-.572,2.618,2.618,0,0,1-.553-.932,3.77,3.77,0,0,1-.2-1.276,3.223,3.223,0,0,1,.179-1.089,2.574,2.574,0,0,1,.513-.878,2.366,2.366,0,0,1,.821-.582A2.67,2.67,0,0,1,347.494,271.808Zm.022.72a1.5,1.5,0,0,0-1.116.41,1.916,1.916,0,0,0-.506,1.136h3.03a1.955,1.955,0,0,0-.094-.624,1.372,1.372,0,0,0-.274-.49,1.237,1.237,0,0,0-.443-.319A1.5,1.5,0,0,0,347.516,272.528Z"/>
      <path class="cls-4" d="M351.052,277.467V271.9h.583a.25.25,0,0,1,.265.2l.076.606a3.141,3.141,0,0,1,.811-.65,2.113,2.113,0,0,1,1.038-.247,1.993,1.993,0,0,1,.805.152,1.549,1.549,0,0,1,.583.428,1.9,1.9,0,0,1,.355.668,2.9,2.9,0,0,1,.121.863v3.548h-.979v-3.548a1.5,1.5,0,0,0-.289-.981,1.082,1.082,0,0,0-.883-.35,1.658,1.658,0,0,0-.811.209,2.671,2.671,0,0,0-.695.568v4.1Z"/>
      <path class="cls-4" d="M358,274.007a8.753,8.753,0,0,0-1.177-4.4.414.414,0,0,1-.054-.188.2.2,0,0,1,.038-.126.352.352,0,0,1,.1-.087l.434-.27a10.458,10.458,0,0,1,.7,1.259,8.486,8.486,0,0,1,.467,1.246,8.716,8.716,0,0,1,.262,1.263,10.417,10.417,0,0,1,0,2.609,8.828,8.828,0,0,1-.262,1.263,8.382,8.382,0,0,1-.467,1.248,10.184,10.184,0,0,1-.7,1.254l-.434-.264a.355.355,0,0,1-.1-.088.2.2,0,0,1-.038-.127.337.337,0,0,1,.011-.088.48.48,0,0,1,.043-.1,9.116,9.116,0,0,0,.875-2.115A8.625,8.625,0,0,0,358,274.007Z"/>
    </g>
    <g>
      <path class="cls-5" d="M216.684,258.727c.057.142.111.284.164.429.054-.15.109-.292.168-.429s.126-.273.2-.412l3.88-7.048a.463.463,0,0,1,.217-.224,1,1,0,0,1,.319-.04h1.145v11.464h-1.361v-8.424c0-.112,0-.232.008-.36s.014-.259.025-.391l-3.928,7.168a.617.617,0,0,1-.561.359h-.223a.617.617,0,0,1-.561-.359l-4.016-7.193c.016.139.029.276.037.408s.011.256.011.368v8.424h-1.36V251h1.145a1.018,1.018,0,0,1,.32.04.471.471,0,0,1,.216.224l3.96,7.057A3.06,3.06,0,0,1,216.684,258.727Z"/>
      <path class="cls-5" d="M233.376,251v1.3h-3.7v10.16H228.12v-10.16H224.4V251Z"/>
      <path class="cls-5" d="M174.409,274.179v4.288h-1.544V267h3.383a6.354,6.354,0,0,1,1.893.252,3.647,3.647,0,0,1,1.332.716,2.9,2.9,0,0,1,.788,1.12,3.954,3.954,0,0,1,.26,1.464,3.742,3.742,0,0,1-.28,1.464,3.163,3.163,0,0,1-.82,1.145,3.829,3.829,0,0,1-1.341.748,5.774,5.774,0,0,1-1.832.267Zm0-1.231h1.839a3.585,3.585,0,0,0,1.173-.177,2.4,2.4,0,0,0,.852-.492,2.044,2.044,0,0,0,.52-.756,2.585,2.585,0,0,0,.176-.968,2.2,2.2,0,0,0-.676-1.712,2.957,2.957,0,0,0-2.045-.616h-1.839Z"/>
      <path class="cls-5" d="M182.257,278.467v-8.1h.817a.448.448,0,0,1,.319.088.529.529,0,0,1,.12.3l.1,1.264a3.7,3.7,0,0,1,1.028-1.324,2.422,2.422,0,0,1,2.044-.4,2.137,2.137,0,0,1,.5.212L187,271.571a.24.24,0,0,1-.248.2,1.22,1.22,0,0,1-.343-.076,2.212,2.212,0,0,0-.649-.075,1.836,1.836,0,0,0-1.244.431,3.26,3.26,0,0,0-.836,1.256v5.16Z"/>
      <path class="cls-5" d="M191.985,270.235a4.162,4.162,0,0,1,1.6.3,3.353,3.353,0,0,1,1.216.84,3.7,3.7,0,0,1,.769,1.315,5.712,5.712,0,0,1,0,3.452,3.738,3.738,0,0,1-.769,1.313,3.356,3.356,0,0,1-1.216.836,4.552,4.552,0,0,1-3.208,0,3.406,3.406,0,0,1-1.22-.836,3.782,3.782,0,0,1-.776-1.313,5.632,5.632,0,0,1,0-3.452,3.746,3.746,0,0,1,.776-1.315,3.4,3.4,0,0,1,1.22-.84A4.176,4.176,0,0,1,191.985,270.235Zm0,7.232a2.08,2.08,0,0,0,1.792-.8,4.578,4.578,0,0,0,0-4.5,2.077,2.077,0,0,0-1.792-.809,2.486,2.486,0,0,0-1.057.208,1.973,1.973,0,0,0-.748.6,2.657,2.657,0,0,0-.447.963,5.663,5.663,0,0,0,0,2.581,2.637,2.637,0,0,0,.447.956,1.987,1.987,0,0,0,.748.6A2.486,2.486,0,0,0,191.985,277.467Z"/>
      <path class="cls-5" d="M203.305,278.467a.362.362,0,0,1-.384-.3l-.128-.984a4.265,4.265,0,0,1-1.188,1.013,3.046,3.046,0,0,1-1.532.38,2.922,2.922,0,0,1-1.264-.269,2.621,2.621,0,0,1-.968-.788,3.744,3.744,0,0,1-.616-1.3,6.665,6.665,0,0,1-.216-1.784,5.6,5.6,0,0,1,.24-1.668,4.072,4.072,0,0,1,.692-1.34,3.174,3.174,0,0,1,2.572-1.216,2.932,2.932,0,0,1,1.272.252,3.062,3.062,0,0,1,.944.708v-4.5h1.424v11.784Zm-2.76-1.04a2.289,2.289,0,0,0,1.22-.32,3.514,3.514,0,0,0,.964-.9v-3.92a2.253,2.253,0,0,0-.861-.741,2.481,2.481,0,0,0-1.035-.211,2.052,2.052,0,0,0-1.744.807,3.777,3.777,0,0,0-.608,2.3,5.84,5.84,0,0,0,.136,1.356,2.592,2.592,0,0,0,.4.928,1.569,1.569,0,0,0,.648.532A2.159,2.159,0,0,0,200.545,277.427Z"/>
      <path class="cls-5" d="M207.777,270.364v5.168a2.144,2.144,0,0,0,.424,1.424,1.576,1.576,0,0,0,1.279.5,2.462,2.462,0,0,0,1.177-.3,3.665,3.665,0,0,0,1.015-.825v-5.975H213.1v8.1h-.848a.36.36,0,0,1-.383-.3l-.113-.872a4.463,4.463,0,0,1-1.183.941,3.123,3.123,0,0,1-1.5.355,2.94,2.94,0,0,1-1.173-.219,2.337,2.337,0,0,1-.852-.621,2.614,2.614,0,0,1-.515-.967,4.314,4.314,0,0,1-.173-1.256v-5.168Z"/>
      <path class="cls-5" d="M220.969,271.8a.629.629,0,0,1-.128.136.3.3,0,0,1-.184.048.454.454,0,0,1-.26-.1,3.938,3.938,0,0,0-.357-.219,2.828,2.828,0,0,0-.523-.22,2.427,2.427,0,0,0-.756-.1,2.464,2.464,0,0,0-1.048.212,2.043,2.043,0,0,0-.764.612,2.758,2.758,0,0,0-.464.968,4.807,4.807,0,0,0-.157,1.273,4.678,4.678,0,0,0,.168,1.307,2.845,2.845,0,0,0,.473.96,2.007,2.007,0,0,0,.739.592,2.278,2.278,0,0,0,.981.2,2.5,2.5,0,0,0,.856-.124,2.656,2.656,0,0,0,.56-.275,4.365,4.365,0,0,0,.368-.277.44.44,0,0,1,.288-.124.3.3,0,0,1,.272.136l.4.521a3.083,3.083,0,0,1-1.32.947,4.684,4.684,0,0,1-1.672.3,3.531,3.531,0,0,1-1.412-.281,3.2,3.2,0,0,1-1.132-.812,3.85,3.85,0,0,1-.756-1.308,5.227,5.227,0,0,1-.276-1.767,5.333,5.333,0,0,1,.252-1.672,3.768,3.768,0,0,1,.736-1.324,3.314,3.314,0,0,1,1.2-.869,4.033,4.033,0,0,1,1.632-.312,3.871,3.871,0,0,1,1.5.276,3.606,3.606,0,0,1,1.16.781Z"/>
      <path class="cls-5" d="M225.368,278.6a1.95,1.95,0,0,1-1.475-.536,2.134,2.134,0,0,1-.517-1.544v-4.96H222.4a.315.315,0,0,1-.216-.076.291.291,0,0,1-.089-.235v-.569l1.328-.168.328-2.5a.3.3,0,0,1,.1-.2.326.326,0,0,1,.223-.076h.72v2.792h2.32v1.032H224.8v4.864a1.036,1.036,0,0,0,.248.76.87.87,0,0,0,.641.248,1.139,1.139,0,0,0,.388-.059,1.6,1.6,0,0,0,.284-.133c.08-.048.147-.092.2-.132a.261.261,0,0,1,.147-.06.243.243,0,0,1,.2.136l.416.68a2.646,2.646,0,0,1-.887.54A3.011,3.011,0,0,1,225.368,278.6Z"/>
      <path class="cls-5" d="M240.272,276.1a.318.318,0,0,1,.232.105l.608.664a4.893,4.893,0,0,1-1.708,1.271,5.823,5.823,0,0,1-2.42.456,5.709,5.709,0,0,1-2.248-.427,4.937,4.937,0,0,1-1.72-1.2,5.413,5.413,0,0,1-1.1-1.851,6.934,6.934,0,0,1-.392-2.376,6.5,6.5,0,0,1,.42-2.376,5.44,5.44,0,0,1,1.18-1.857,5.28,5.28,0,0,1,1.82-1.2,6.206,6.206,0,0,1,2.341-.427,5.212,5.212,0,0,1,3.807,1.456l-.5.711a.537.537,0,0,1-.128.132.347.347,0,0,1-.208.052.4.4,0,0,1-.22-.076c-.077-.05-.169-.113-.276-.188s-.232-.154-.376-.24a3.359,3.359,0,0,0-.511-.24,4.378,4.378,0,0,0-.689-.188,4.845,4.845,0,0,0-.9-.076,4.359,4.359,0,0,0-1.684.317,3.758,3.758,0,0,0-1.316.9,4.111,4.111,0,0,0-.86,1.424,5.418,5.418,0,0,0-.308,1.881,5.512,5.512,0,0,0,.308,1.911,4.237,4.237,0,0,0,.84,1.42,3.55,3.55,0,0,0,1.26.885,4.038,4.038,0,0,0,1.568.3,6.38,6.38,0,0,0,.92-.059,3.8,3.8,0,0,0,.756-.189,3.14,3.14,0,0,0,.648-.324,4.958,4.958,0,0,0,.6-.468A.408.408,0,0,1,240.272,276.1Z"/>
      <path class="cls-5" d="M242.928,278.467V266.683h1.424v4.769a4.386,4.386,0,0,1,1.152-.885,3.086,3.086,0,0,1,1.456-.332,2.92,2.92,0,0,1,1.172.221,2.253,2.253,0,0,1,.848.624,2.767,2.767,0,0,1,.516.971,4.213,4.213,0,0,1,.176,1.256v5.16h-1.424v-5.16a2.182,2.182,0,0,0-.42-1.428,1.572,1.572,0,0,0-1.284-.507,2.4,2.4,0,0,0-1.18.3,3.874,3.874,0,0,0-1.012.825v5.967Z"/>
      <path class="cls-5" d="M257.776,278.467h-.632a.748.748,0,0,1-.336-.064.349.349,0,0,1-.168-.272l-.16-.752c-.214.192-.422.365-.624.516a3.556,3.556,0,0,1-.641.384,3.269,3.269,0,0,1-.716.236,4.051,4.051,0,0,1-.843.08,2.877,2.877,0,0,1-.884-.132,2,2,0,0,1-.716-.4,1.887,1.887,0,0,1-.484-.671,2.348,2.348,0,0,1-.18-.959,1.8,1.8,0,0,1,.264-.928,2.317,2.317,0,0,1,.851-.79,5.545,5.545,0,0,1,1.54-.566,10.493,10.493,0,0,1,2.328-.221V273.3a2.2,2.2,0,0,0-.4-1.436,1.465,1.465,0,0,0-1.2-.487,2.559,2.559,0,0,0-.876.131,3.276,3.276,0,0,0-.616.3c-.173.11-.323.208-.449.3a.645.645,0,0,1-.372.132.429.429,0,0,1-.252-.076.584.584,0,0,1-.172-.188l-.255-.456a4.611,4.611,0,0,1,1.448-.967,4.455,4.455,0,0,1,1.72-.321,3.076,3.076,0,0,1,1.208.224,2.457,2.457,0,0,1,.887.624,2.646,2.646,0,0,1,.544.969,4.015,4.015,0,0,1,.185,1.248Zm-3.7-.872a2.9,2.9,0,0,0,.689-.076,2.717,2.717,0,0,0,.588-.216,3.148,3.148,0,0,0,.527-.34,4.418,4.418,0,0,0,.492-.456v-1.672a9.572,9.572,0,0,0-1.672.125,4.662,4.662,0,0,0-1.12.326,1.574,1.574,0,0,0-.628.474,1.034,1.034,0,0,0-.2.613,1.342,1.342,0,0,0,.105.554,1.049,1.049,0,0,0,.28.383,1.109,1.109,0,0,0,.416.217A1.872,1.872,0,0,0,254.079,277.6Z"/>
      <path class="cls-5" d="M261.84,267.819a.909.909,0,0,1-.084.389,1.114,1.114,0,0,1-.224.319,1.047,1.047,0,0,1-.324.221,1,1,0,0,1-.392.08.965.965,0,0,1-.388-.08,1.066,1.066,0,0,1-.32-.221,1.046,1.046,0,0,1-.22-.319.937.937,0,0,1-.08-.389.987.987,0,0,1,.08-.4,1.037,1.037,0,0,1,.54-.547.933.933,0,0,1,.388-.081.966.966,0,0,1,.392.081,1.025,1.025,0,0,1,.324.219,1.1,1.1,0,0,1,.224.328A.958.958,0,0,1,261.84,267.819Zm-.32,2.545v8.1H260.1v-8.1Z"/>
      <path class="cls-5" d="M264.032,278.467v-8.1h.847a.364.364,0,0,1,.385.3l.111.88a4.544,4.544,0,0,1,1.181-.945,3.069,3.069,0,0,1,1.508-.36,2.924,2.924,0,0,1,1.172.221,2.242,2.242,0,0,1,.847.624,2.752,2.752,0,0,1,.517.971,4.246,4.246,0,0,1,.176,1.256v5.16h-1.424v-5.16a2.188,2.188,0,0,0-.42-1.428,1.572,1.572,0,0,0-1.284-.507,2.4,2.4,0,0,0-1.181.3,3.907,3.907,0,0,0-1.012.825v5.967Z"/>
    </g>
    <g>
      <path class="cls-4" d="M159.274,32.164h4.96v1.3h-6.513V22h1.553Z"/>
      <path class="cls-4" d="M166.953,25.364v5.168a2.149,2.149,0,0,0,.424,1.424,1.578,1.578,0,0,0,1.28.5,2.456,2.456,0,0,0,1.176-.3,3.669,3.669,0,0,0,1.016-.825V25.364h1.424v8.1h-.848a.362.362,0,0,1-.384-.3l-.112-.872a4.467,4.467,0,0,1-1.184.941,3.116,3.116,0,0,1-1.5.355,2.94,2.94,0,0,1-1.173-.219,2.337,2.337,0,0,1-.852-.621,2.614,2.614,0,0,1-.515-.967,4.281,4.281,0,0,1-.173-1.256V25.364Z"/>
      <path class="cls-4" d="M174.617,33.467v-8.1h.847a.364.364,0,0,1,.385.3l.111.88a4.544,4.544,0,0,1,1.181-.945,3.066,3.066,0,0,1,1.508-.36,2.924,2.924,0,0,1,1.172.221,2.242,2.242,0,0,1,.847.624,2.752,2.752,0,0,1,.517.971,4.246,4.246,0,0,1,.176,1.256v5.16h-1.424v-5.16a2.188,2.188,0,0,0-.42-1.428,1.572,1.572,0,0,0-1.284-.507,2.4,2.4,0,0,0-1.181.3,3.907,3.907,0,0,0-1.012.825v5.967Z"/>
      <path class="cls-4" d="M185.417,22.819a.909.909,0,0,1-.084.389,1.114,1.114,0,0,1-.224.319,1.036,1.036,0,0,1-.324.221,1,1,0,0,1-.392.08.965.965,0,0,1-.388-.08,1.066,1.066,0,0,1-.32-.221,1.046,1.046,0,0,1-.22-.319.937.937,0,0,1-.08-.389.987.987,0,0,1,.08-.4,1.037,1.037,0,0,1,.54-.547.933.933,0,0,1,.388-.081.962.962,0,0,1,.392.081,1.014,1.014,0,0,1,.324.219,1.1,1.1,0,0,1,.224.328A.958.958,0,0,1,185.417,22.819Zm-.32,2.545v8.1h-1.424v-8.1Z"/>
      <path class="cls-4" d="M186.584,25.364h1.168a.439.439,0,0,1,.281.088.5.5,0,0,1,.16.208l2.055,5.216a3.773,3.773,0,0,1,.177.576c.042.191.082.381.119.567.043-.186.089-.376.137-.567a4.634,4.634,0,0,1,.184-.576l2.08-5.216a.466.466,0,0,1,.156-.212.416.416,0,0,1,.267-.084h1.113l-3.3,8.1h-1.288Z"/>
      <path class="cls-4" d="M198.8,25.235a3.63,3.63,0,0,1,1.344.244,3.021,3.021,0,0,1,1.064.7,3.216,3.216,0,0,1,.7,1.136,4.395,4.395,0,0,1,.251,1.54.924.924,0,0,1-.072.448.3.3,0,0,1-.272.112h-5.392a4.481,4.481,0,0,0,.208,1.336,2.74,2.74,0,0,0,.528.949,2.116,2.116,0,0,0,.8.567,2.741,2.741,0,0,0,1.04.189,3.037,3.037,0,0,0,.924-.125,4.288,4.288,0,0,0,.668-.268,4.933,4.933,0,0,0,.468-.268.619.619,0,0,1,.324-.124.316.316,0,0,1,.273.136l.4.521a2.731,2.731,0,0,1-.632.555,3.926,3.926,0,0,1-.788.388,4.881,4.881,0,0,1-.868.228,5.275,5.275,0,0,1-.888.077,4.112,4.112,0,0,1-1.548-.285,3.385,3.385,0,0,1-1.224-.832,3.811,3.811,0,0,1-.8-1.356,5.533,5.533,0,0,1-.288-1.855,4.725,4.725,0,0,1,.26-1.584,3.751,3.751,0,0,1,.748-1.277,3.456,3.456,0,0,1,1.192-.848A3.92,3.92,0,0,1,198.8,25.235Zm.032,1.049a2.187,2.187,0,0,0-1.624.6,2.814,2.814,0,0,0-.736,1.653h4.408a2.9,2.9,0,0,0-.136-.908,2,2,0,0,0-.4-.712,1.782,1.782,0,0,0-.643-.464A2.165,2.165,0,0,0,198.832,26.284Z"/>
      <path class="cls-4" d="M203.976,33.467v-8.1h.816a.449.449,0,0,1,.32.088.543.543,0,0,1,.12.3l.095,1.264a3.716,3.716,0,0,1,1.029-1.324,2.422,2.422,0,0,1,2.044-.4,2.173,2.173,0,0,1,.5.212l-.184,1.064a.24.24,0,0,1-.248.2,1.232,1.232,0,0,1-.344-.076,2.2,2.2,0,0,0-.648-.075,1.836,1.836,0,0,0-1.244.431,3.249,3.249,0,0,0-.836,1.256v5.16Z"/>
      <path class="cls-4" d="M215.064,26.7a.316.316,0,0,1-.3.176.563.563,0,0,1-.272-.088c-.1-.059-.225-.124-.372-.2a3.524,3.524,0,0,0-.524-.2,2.5,2.5,0,0,0-.72-.092,2.135,2.135,0,0,0-.648.092,1.567,1.567,0,0,0-.491.252,1.132,1.132,0,0,0-.313.372,1,1,0,0,0-.107.46A.769.769,0,0,0,211.5,28a1.571,1.571,0,0,0,.476.359,4.161,4.161,0,0,0,.672.269c.251.077.509.16.772.248s.522.185.772.292a2.809,2.809,0,0,1,.673.4,1.831,1.831,0,0,1,.475.588,1.8,1.8,0,0,1,.18.836,2.668,2.668,0,0,1-.2,1.036,2.258,2.258,0,0,1-.593.824,2.826,2.826,0,0,1-.96.548,3.928,3.928,0,0,1-1.312.2,4.1,4.1,0,0,1-1.536-.276,3.9,3.9,0,0,1-1.168-.708l.336-.544a.477.477,0,0,1,.153-.159.416.416,0,0,1,.231-.057.534.534,0,0,1,.3.112q.161.112.388.248a3.051,3.051,0,0,0,.552.249,2.536,2.536,0,0,0,.813.111,2.2,2.2,0,0,0,.727-.108,1.527,1.527,0,0,0,.52-.292,1.156,1.156,0,0,0,.308-.423,1.318,1.318,0,0,0,.1-.513.85.85,0,0,0-.18-.556,1.543,1.543,0,0,0-.475-.376,3.978,3.978,0,0,0-.677-.271c-.253-.078-.512-.159-.775-.244s-.524-.183-.777-.292a2.777,2.777,0,0,1-.676-.412,1.878,1.878,0,0,1-.476-.613,1.99,1.99,0,0,1-.18-.884,2.175,2.175,0,0,1,.192-.892,2.2,2.2,0,0,1,.56-.752,2.758,2.758,0,0,1,.9-.516,3.619,3.619,0,0,1,1.224-.192,3.882,3.882,0,0,1,1.437.252,3.424,3.424,0,0,1,1.1.692Z"/>
      <path class="cls-4" d="M220.576,25.235a3.624,3.624,0,0,1,1.343.244,3.034,3.034,0,0,1,1.065.7,3.214,3.214,0,0,1,.7,1.136,4.394,4.394,0,0,1,.252,1.54.937.937,0,0,1-.072.448.3.3,0,0,1-.273.112H218.2a4.449,4.449,0,0,0,.208,1.336,2.708,2.708,0,0,0,.528.949,2.108,2.108,0,0,0,.8.567,2.733,2.733,0,0,0,1.04.189,3.042,3.042,0,0,0,.924-.125,4.369,4.369,0,0,0,.668-.268,5.032,5.032,0,0,0,.467-.268.621.621,0,0,1,.325-.124.313.313,0,0,1,.272.136l.4.521a2.705,2.705,0,0,1-.631.555,3.935,3.935,0,0,1-.789.388,4.881,4.881,0,0,1-.868.228,5.263,5.263,0,0,1-.887.077,4.1,4.1,0,0,1-1.548-.285,3.389,3.389,0,0,1-1.225-.832,3.826,3.826,0,0,1-.8-1.356,5.533,5.533,0,0,1-.288-1.855,4.725,4.725,0,0,1,.26-1.584,3.751,3.751,0,0,1,.748-1.277,3.46,3.46,0,0,1,1.193-.848A3.916,3.916,0,0,1,220.576,25.235Zm.032,1.049a2.184,2.184,0,0,0-1.624.6,2.809,2.809,0,0,0-.737,1.653h4.409a2.9,2.9,0,0,0-.136-.908,2.019,2.019,0,0,0-.4-.712,1.765,1.765,0,0,0-.643-.464A2.164,2.164,0,0,0,220.608,26.284Z"/>
      <path class="cls-4" d="M234.9,29.727c.056.142.111.284.164.429.054-.15.109-.292.168-.429s.126-.273.2-.412l3.88-7.048a.459.459,0,0,1,.217-.224,1,1,0,0,1,.319-.04h1.145V33.467h-1.361V25.043c0-.112,0-.232.008-.36s.014-.259.024-.391l-3.927,7.168a.618.618,0,0,1-.561.359h-.223a.617.617,0,0,1-.561-.359l-4.016-7.193c.016.139.029.276.036.408s.012.256.012.368v8.424h-1.36V22h1.144a1.025,1.025,0,0,1,.321.04.465.465,0,0,1,.215.224l3.96,7.057A2.944,2.944,0,0,1,234.9,29.727Z"/>
      <path class="cls-4" d="M249.511,33.467h-.632a.751.751,0,0,1-.336-.064.351.351,0,0,1-.168-.272l-.16-.752c-.214.192-.422.365-.624.516a3.583,3.583,0,0,1-.64.384,3.286,3.286,0,0,1-.716.236,4.054,4.054,0,0,1-.844.08,2.886,2.886,0,0,1-.884-.132,2.009,2.009,0,0,1-.716-.4,1.887,1.887,0,0,1-.484-.671,2.348,2.348,0,0,1-.18-.959,1.8,1.8,0,0,1,.264-.928,2.321,2.321,0,0,1,.852-.79,5.533,5.533,0,0,1,1.54-.566,10.486,10.486,0,0,1,2.328-.221V28.3a2.2,2.2,0,0,0-.4-1.436,1.463,1.463,0,0,0-1.2-.487,2.559,2.559,0,0,0-.876.131,3.337,3.337,0,0,0-.616.3c-.173.11-.322.208-.448.3a.645.645,0,0,1-.372.132.424.424,0,0,1-.252-.076.573.573,0,0,1-.172-.188l-.256-.456a4.622,4.622,0,0,1,1.448-.967,4.459,4.459,0,0,1,1.72-.321,3.076,3.076,0,0,1,1.208.224,2.469,2.469,0,0,1,.888.624,2.66,2.66,0,0,1,.544.969,4.016,4.016,0,0,1,.184,1.248Zm-3.7-.872a2.888,2.888,0,0,0,.688-.076,2.7,2.7,0,0,0,.588-.216,3.069,3.069,0,0,0,.527-.34,4.425,4.425,0,0,0,.493-.456V29.835a9.564,9.564,0,0,0-1.672.125,4.662,4.662,0,0,0-1.12.326,1.574,1.574,0,0,0-.628.474,1.028,1.028,0,0,0-.2.613,1.359,1.359,0,0,0,.1.554,1.049,1.049,0,0,0,.28.383,1.109,1.109,0,0,0,.416.217A1.874,1.874,0,0,0,245.815,32.6Z"/>
      <path class="cls-4" d="M253.575,22.819a.924.924,0,0,1-.084.389,1.118,1.118,0,0,1-.225.319,1.043,1.043,0,0,1-.323.221,1,1,0,0,1-.393.08.969.969,0,0,1-.388-.08,1.066,1.066,0,0,1-.32-.221,1.046,1.046,0,0,1-.22-.319.953.953,0,0,1-.08-.389,1,1,0,0,1,.08-.4,1.037,1.037,0,0,1,.54-.547.937.937,0,0,1,.388-.081.967.967,0,0,1,.393.081,1.02,1.02,0,0,1,.323.219,1.107,1.107,0,0,1,.225.328A.974.974,0,0,1,253.575,22.819Zm-.321,2.545v8.1H251.83v-8.1Z"/>
      <path class="cls-4" d="M255.766,33.467v-8.1h.848a.362.362,0,0,1,.384.3l.112.88a4.539,4.539,0,0,1,1.18-.945,3.069,3.069,0,0,1,1.508-.36,2.92,2.92,0,0,1,1.172.221,2.253,2.253,0,0,1,.848.624,2.767,2.767,0,0,1,.516.971,4.213,4.213,0,0,1,.176,1.256v5.16h-1.424v-5.16a2.182,2.182,0,0,0-.42-1.428,1.572,1.572,0,0,0-1.284-.507,2.4,2.4,0,0,0-1.18.3,3.874,3.874,0,0,0-1.012.825v5.967Z"/>
      <path class="cls-4" d="M264.662,33.467v-8.1h.848a.364.364,0,0,1,.385.3l.111.88a4.544,4.544,0,0,1,1.181-.945,3.064,3.064,0,0,1,1.508-.36,2.924,2.924,0,0,1,1.172.221,2.25,2.25,0,0,1,.847.624,2.752,2.752,0,0,1,.517.971,4.246,4.246,0,0,1,.176,1.256v5.16h-1.424v-5.16a2.188,2.188,0,0,0-.42-1.428,1.572,1.572,0,0,0-1.284-.507,2.4,2.4,0,0,0-1.181.3,3.907,3.907,0,0,0-1.012.825v5.967Z"/>
      <path class="cls-4" d="M276.767,25.235a3.63,3.63,0,0,1,1.344.244,3.03,3.03,0,0,1,1.064.7,3.214,3.214,0,0,1,.7,1.136,4.394,4.394,0,0,1,.252,1.54.924.924,0,0,1-.072.448.3.3,0,0,1-.272.112h-5.392a4.481,4.481,0,0,0,.208,1.336,2.74,2.74,0,0,0,.528.949,2.116,2.116,0,0,0,.8.567,2.737,2.737,0,0,0,1.04.189,3.037,3.037,0,0,0,.924-.125,4.328,4.328,0,0,0,.668-.268,5.063,5.063,0,0,0,.468-.268.619.619,0,0,1,.324-.124.313.313,0,0,1,.272.136l.4.521a2.731,2.731,0,0,1-.632.555,3.926,3.926,0,0,1-.788.388,4.881,4.881,0,0,1-.868.228,5.275,5.275,0,0,1-.888.077A4.108,4.108,0,0,1,275.3,33.3a3.385,3.385,0,0,1-1.224-.832,3.811,3.811,0,0,1-.8-1.356,5.508,5.508,0,0,1-.288-1.855,4.725,4.725,0,0,1,.26-1.584,3.719,3.719,0,0,1,.748-1.277,3.456,3.456,0,0,1,1.192-.848A3.92,3.92,0,0,1,276.767,25.235Zm.032,1.049a2.187,2.187,0,0,0-1.624.6,2.814,2.814,0,0,0-.736,1.653h4.408a2.9,2.9,0,0,0-.136-.908,2.017,2.017,0,0,0-.4-.712,1.777,1.777,0,0,0-.644-.464A2.164,2.164,0,0,0,276.8,26.284Z"/>
      <path class="cls-4" d="M284.4,33.6a1.951,1.951,0,0,1-1.476-.536,2.134,2.134,0,0,1-.516-1.544v-4.96h-.976a.317.317,0,0,1-.216-.076.294.294,0,0,1-.089-.235v-.569l1.328-.168.329-2.5a.3.3,0,0,1,.1-.2.329.329,0,0,1,.224-.076h.719v2.792h2.321v1.032H283.83v4.864a1.036,1.036,0,0,0,.248.76.87.87,0,0,0,.641.248,1.135,1.135,0,0,0,.388-.059,1.6,1.6,0,0,0,.284-.133c.08-.048.147-.092.2-.132a.266.266,0,0,1,.148-.06.244.244,0,0,1,.2.136l.416.68a2.641,2.641,0,0,1-.888.54A3.009,3.009,0,0,1,284.4,33.6Z"/>
    </g>
    <path class="cls-2" d="M221.536,167.6a.5.5,0,0,1-.5-.5V146.467a.5.5,0,0,1,1,0V167.1A.5.5,0,0,1,221.536,167.6Z"/>
    <g>
      <polygon class="cls-2" points="443.071 255.097 436.161 251.128 436.161 254.53 377.063 254.53 377.063 255.664 436.161 255.664 436.161 259.065 443.071 255.097"/>
      <polygon class="cls-2" points="375.04 269.837 381.949 265.868 381.949 269.27 441.048 269.27 441.048 270.404 381.949 270.404 381.949 273.805 375.04 269.837"/>
    </g>
    <g>
      <rect class="cls-6" x="387.904" y="251.628" width="42.303" height="21.677"/>
      <path class="cls-2" d="M429.707,252.128v20.677H388.4V252.128h41.3m1-1H387.4v22.677h43.3V251.128Z"/>
    </g>
    <g>
      <path class="cls-4" d="M408.558,258.227v.978H405.78v7.62h-1.164v-7.62h-2.79v-.978Z"/>
      <path class="cls-4" d="M411.78,262.409l-2.838-4.182H410.1a.324.324,0,0,1,.185.042.366.366,0,0,1,.109.12l2.244,3.444a1.483,1.483,0,0,1,.126-.276l2.117-3.144a.564.564,0,0,1,.117-.135.236.236,0,0,1,.154-.051h1.11l-2.851,4.128,2.947,4.47h-1.153a.3.3,0,0,1-.207-.07.662.662,0,0,1-.123-.152l-2.3-3.606a1.368,1.368,0,0,1-.109.24L410.22,266.6a.87.87,0,0,1-.123.152.266.266,0,0,1-.195.07h-1.08Z"/>
    </g>
    <g>
      <polygon class="cls-2" points="68.031 255.097 61.122 251.128 61.122 254.53 2.023 254.53 2.023 255.664 61.122 255.664 61.122 259.065 68.031 255.097"/>
      <polygon class="cls-2" points="0 269.837 6.91 265.868 6.91 269.27 66.008 269.27 66.008 270.404 6.91 270.404 6.91 273.805 0 269.837"/>
    </g>
    <g>
      <rect class="cls-6" x="12.864" y="251.628" width="42.303" height="21.677"/>
      <path class="cls-2" d="M54.667,252.128v20.677h-41.3V252.128h41.3m1-1h-43.3v22.677h43.3V251.128Z"/>
    </g>
    <g>
      <path class="cls-4" d="M33.517,258.227v.978H30.74v7.62H29.576v-7.62H26.785v-.978Z"/>
      <path class="cls-4" d="M36.74,262.409,33.9,258.227h1.157a.328.328,0,0,1,.186.042.364.364,0,0,1,.108.12l2.245,3.444a1.541,1.541,0,0,1,.125-.276l2.119-3.144a.564.564,0,0,1,.117-.135.235.235,0,0,1,.153-.051h1.11l-2.851,4.128,2.947,4.47H40.165a.292.292,0,0,1-.206-.07.613.613,0,0,1-.123-.152L37.532,263a1.3,1.3,0,0,1-.108.24L35.18,266.6a.923.923,0,0,1-.124.152.26.26,0,0,1-.194.07h-1.08Z"/>
    </g>
    <g>
      <polygon class="cls-2" points="342.891 356.097 335.982 352.128 335.982 355.53 276.883 355.53 276.883 356.664 335.982 356.664 335.982 360.065 342.891 356.097"/>
      <polygon class="cls-2" points="274.86 370.837 281.769 366.868 281.769 370.27 340.868 370.27 340.868 371.404 281.769 371.404 281.769 374.805 274.86 370.837"/>
    </g>
    <g>
      <rect class="cls-6" x="287.724" y="352.628" width="42.303" height="21.677"/>
      <path class="cls-2" d="M329.527,353.128v20.677h-41.3V353.128h41.3m1-1h-43.3v22.677h43.3V352.128Z"/>
    </g>
    <g>
      <path class="cls-4" d="M308.378,359.227v.978H305.6v7.62h-1.164v-7.62h-2.79v-.978Z"/>
      <path class="cls-4" d="M311.6,363.409l-2.838-4.182h1.158a.328.328,0,0,1,.186.042.375.375,0,0,1,.108.12l2.244,3.444a1.627,1.627,0,0,1,.126-.276l2.118-3.144a.564.564,0,0,1,.117-.135.234.234,0,0,1,.153-.051h1.11l-2.85,4.128,2.946,4.47h-1.152a.293.293,0,0,1-.207-.07.613.613,0,0,1-.123-.152l-2.3-3.606a1.364,1.364,0,0,1-.108.24L310.04,367.6a.87.87,0,0,1-.123.152.266.266,0,0,1-.195.07h-1.08Z"/>
    </g>
    <rect class="cls-7" x="183.869" y="198.756" width="75.333" height="28.474" rx="14.237" ry="14.237"/>
    <g>
      <path class="cls-8" d="M204.641,206.886a.573.573,0,0,1,.172.048.6.6,0,0,1,.148.1,1.632,1.632,0,0,1,.159.18l6.073,7.736c-.022-.187-.036-.369-.044-.548s-.012-.345-.012-.5v-7.032h1.9v11.568h-1.112a.983.983,0,0,1-.425-.08.957.957,0,0,1-.327-.288l-6.049-7.7c.017.171.029.34.037.507s.012.323.012.461v7.1h-1.9V206.874H204.4A1.812,1.812,0,0,1,204.641,206.886Z"/>
      <path class="cls-8" d="M218.76,210.106a4.5,4.5,0,0,1,1.668.3,3.576,3.576,0,0,1,1.276.84,3.721,3.721,0,0,1,.817,1.328,5.5,5.5,0,0,1,0,3.512,3.8,3.8,0,0,1-.817,1.336,3.529,3.529,0,0,1-1.276.848,4.859,4.859,0,0,1-3.34,0,3.587,3.587,0,0,1-1.284-.848,3.812,3.812,0,0,1-.823-1.336,5.426,5.426,0,0,1,0-3.512,3.733,3.733,0,0,1,.823-1.328,3.635,3.635,0,0,1,1.284-.84A4.54,4.54,0,0,1,218.76,210.106Zm0,6.936a1.739,1.739,0,0,0,1.517-.688,3.451,3.451,0,0,0,.492-2.016,3.49,3.49,0,0,0-.492-2.024,1.732,1.732,0,0,0-1.517-.7,1.751,1.751,0,0,0-1.535.7,3.469,3.469,0,0,0-.5,2.02,3.43,3.43,0,0,0,.5,2.012A1.761,1.761,0,0,0,218.76,217.042Z"/>
      <path class="cls-8" d="M230.128,218.442a.485.485,0,0,1-.5-.36l-.16-.792a4.937,4.937,0,0,1-.536.52,3.43,3.43,0,0,1-.6.4,3.158,3.158,0,0,1-.7.26,3.351,3.351,0,0,1-.8.092,2.725,2.725,0,0,1-1.233-.28,2.753,2.753,0,0,1-.964-.812,3.9,3.9,0,0,1-.624-1.316,6.676,6.676,0,0,1-.219-1.792,5.572,5.572,0,0,1,.248-1.7,4.121,4.121,0,0,1,.711-1.36,3.319,3.319,0,0,1,1.112-.9,3.213,3.213,0,0,1,1.456-.324,2.852,2.852,0,0,1,1.177.22,3.114,3.114,0,0,1,.872.588v-4.336h1.975v11.888Zm-2.632-1.448a2.017,2.017,0,0,0,1.048-.256,3.132,3.132,0,0,0,.817-.728v-3.68a1.968,1.968,0,0,0-.733-.577,2.172,2.172,0,0,0-.851-.168,1.931,1.931,0,0,0-.813.168,1.6,1.6,0,0,0-.616.509,2.5,2.5,0,0,0-.388.864,4.944,4.944,0,0,0-.135,1.236,5.511,5.511,0,0,0,.115,1.22,2.413,2.413,0,0,0,.332.816,1.268,1.268,0,0,0,.528.456A1.674,1.674,0,0,0,227.5,216.994Z"/>
      <path class="cls-8" d="M236.865,210.106a3.99,3.99,0,0,1,1.427.248,3.105,3.105,0,0,1,1.124.724,3.319,3.319,0,0,1,.737,1.168,4.436,4.436,0,0,1,.263,1.58,2.951,2.951,0,0,1-.019.372.623.623,0,0,1-.072.232.3.3,0,0,1-.141.12.6.6,0,0,1-.224.035h-5.072a2.824,2.824,0,0,0,.681,1.857,2.12,2.12,0,0,0,1.567.592,2.7,2.7,0,0,0,.828-.112,3.982,3.982,0,0,0,.609-.248c.172-.09.325-.173.456-.248a.756.756,0,0,1,.38-.112.429.429,0,0,1,.208.048.453.453,0,0,1,.151.136l.576.72a3.31,3.31,0,0,1-.735.644,4.126,4.126,0,0,1-.853.416,4.6,4.6,0,0,1-.9.22,6.425,6.425,0,0,1-.892.064,4.4,4.4,0,0,1-1.592-.284,3.568,3.568,0,0,1-1.28-.84,3.949,3.949,0,0,1-.855-1.376,5.326,5.326,0,0,1-.313-1.9,4.531,4.531,0,0,1,.273-1.58,3.785,3.785,0,0,1,.779-1.289,3.673,3.673,0,0,1,1.24-.867A4.079,4.079,0,0,1,236.865,210.106Zm.04,1.416a1.829,1.829,0,0,0-1.353.488,2.408,2.408,0,0,0-.624,1.384h3.712a2.454,2.454,0,0,0-.1-.725,1.653,1.653,0,0,0-.32-.595,1.517,1.517,0,0,0-.544-.405A1.861,1.861,0,0,0,236.905,211.522Z"/>
    </g>
  </g>
</svg>
