<?xml version="1.0" encoding="utf-8"?>
<!-- Generator: Adobe Illustrator 17.0.0, SVG Export Plug-In . SVG Version: 6.00 Build 0)  -->
<!DOCTYPE svg PUBLIC "-//W3C//DTD SVG 1.1//EN" "http://www.w3.org/Graphics/SVG/1.1/DTD/svg11.dtd">
<svg version="1.1" id="Isolation_Mode" xmlns="http://www.w3.org/2000/svg" xmlns:xlink="http://www.w3.org/1999/xlink" x="0px"
	 y="0px" width="600px" height="600px" viewBox="0 0 600 600" enable-background="new 0 0 600 600" xml:space="preserve">
<title>img_chain</title>
<path fill="#FFFFFF" d="M292.597,355.403L236.69,411.32c-13.058,13.457-34.553,13.781-48.01,0.723
	c-13.457-13.058-13.781-34.553-0.723-48.01c0.236-0.243,0.475-0.482,0.718-0.718l38.369-38.359l34.337-34.398
	c12.656-12.606,32.914-13.257,46.353-1.489c0.557,0.486,1.125,1.013,1.662,1.489c4.609,4.63,7.776,10.497,9.119,16.89
	c5.333-0.56,10.315-2.922,14.124-6.697l12.097-12.158c-3.197-7.401-7.758-14.134-13.445-19.848c-1.125-1.135-2.29-2.188-3.475-3.212
	c-25.697-22.156-64.13-20.756-88.147,3.212l-27.934,27.842l-44.874,44.894c-24.47,26.148-23.11,67.182,3.038,91.653
	c24.931,23.331,63.684,23.331,88.615,0l72.777-72.737c1.165-1.165,2.249-2.361,3.303-3.587
	C320.747,360.35,306.177,359.861,292.597,355.403z"/>
<path fill="#FFFFFF" d="M434.545,165.451c-25.317-25.29-66.335-25.29-91.653,0l-72.737,72.737c-1.216,1.216-2.351,2.472-3.445,3.749
	c13.85-3.525,28.414-3.068,42.017,1.317l55.999-55.989c13.212-13.306,34.709-13.381,48.015-0.169
	c13.306,13.212,13.381,34.709,0.169,48.015c-0.056,0.057-0.113,0.113-0.169,0.169l-34.195,34.195l-38.552,38.501
	c-12.432,12.371-32.237,13.249-45.715,2.026c-0.79-0.659-1.56-1.337-2.3-2.026c-4.616-4.636-7.784-10.515-9.119-16.92
	c-5.335,0.572-10.314,2.949-14.114,6.738l-12.097,12.158c3.206,7.435,7.789,14.196,13.506,19.929
	c0.729,0.74,1.479,1.439,2.229,2.128c25.605,23.254,64.954,22.318,89.424-2.128l37.832-37.832l34.904-34.904
	C459.833,231.827,459.811,190.789,434.545,165.451z"/>
</svg>
