<?xml version="1.0" encoding="utf-8"?>
<!-- Generator: Adobe Illustrator 17.0.0, SVG Export Plug-In . SVG Version: 6.00 Build 0)  -->
<!DOCTYPE svg PUBLIC "-//W3C//DTD SVG 1.1//EN" "http://www.w3.org/Graphics/SVG/1.1/DTD/svg11.dtd">
<svg version="1.1" id="Layer_1" xmlns="http://www.w3.org/2000/svg" xmlns:xlink="http://www.w3.org/1999/xlink" x="0px" y="0px"
	 width="800px" height="360px" viewBox="0 0 800 360" enable-background="new 0 0 800 360" xml:space="preserve">
<rect x="0.344" y="0.98" fill="#F2F9FF" width="800" height="360"/>
<circle fill="#FFFFFF" cx="534.45" cy="243.9" r="47.767"/>
<circle fill="#FFFFFF" cx="311.033" cy="243.9" r="87.767"/>
<circle fill="#FFFFFF" cx="708.658" cy="243.9" r="47.767"/>
<circle fill="#FFFFFF" cx="92.086" cy="243.9" r="47.767"/>
<g>
	<polygon fill="#1366FF" points="241.31,230.361 246.757,233.506 251.559,230.734 261.836,236.667 261.836,249.331 251.559,255.264 
		241.281,249.331 241.281,242.967 251.559,248.901 256.392,246.109 256.392,239.809 251.559,242.601 235.834,233.523 
		235.834,252.475 251.559,261.554 267.283,252.475 267.283,233.522 251.559,224.444 	"/>
	<polygon fill="#1366FF" points="281.492,234.262 278.515,234.262 278.515,251.843 288.815,251.843 288.815,249.187 
		281.492,249.187 	"/>
	<path fill="#1366FF" d="M299.034,248.838L298.632,249c-0.805,0.358-1.69,0.536-2.655,0.536c-0.984,0-1.609-0.277-1.878-0.832
		c-0.268-0.553-0.402-1.635-0.402-3.246v-7.027h-2.923v7.001c0,2.485,0.313,4.225,0.938,5.217c0.626,0.992,1.86,1.489,3.701,1.489
		c1.109,0,2.316-0.376,3.621-1.127v0.832h2.897v-13.411h-2.897V248.838z"/>
	<path fill="#1366FF" d="M312.069,238.137c-1.162,0-2.396,0.376-3.702,1.126v-0.832h-2.897v13.411h2.924v-10.407l0.402-0.16
		c0.84-0.358,1.717-0.537,2.628-0.537c0.966,0,1.605,0.305,1.918,0.912c0.313,0.608,0.469,1.636,0.469,3.085v7.107h2.897v-7.189
		c0-2.324-0.327-3.991-0.979-5.002C315.078,238.642,313.858,238.137,312.069,238.137z"/>
	<rect x="320.116" y="238.431" fill="#1366FF" width="2.924" height="13.411"/>
	<rect x="320.116" y="233.86" fill="#1366FF" width="2.924" height="2.292"/>
	<polygon fill="#1366FF" points="331.811,249.348 330.952,249.348 328.377,238.431 325.319,238.431 328.779,251.843 
		333.983,251.843 337.47,238.431 334.493,238.431 	"/>
	<path fill="#1366FF" d="M344.712,238.137c-3.88,0-5.82,2.378-5.82,7.135c0,2.397,0.433,4.14,1.301,5.231
		c0.867,1.091,2.293,1.636,4.278,1.636c1.573,0,3.38-0.206,5.418-0.617l-0.054-2.172l-0.751,0.08
		c-1.341,0.107-2.646,0.161-3.916,0.161c-1.27,0-2.137-0.259-2.602-0.778c-0.465-0.518-0.707-1.332-0.724-2.44h8.315l0.187-2.092
		C350.345,240.184,348.467,238.137,344.712,238.137z M341.815,244.118c0.018-1.27,0.255-2.181,0.711-2.736
		c0.456-0.554,1.184-0.832,2.186-0.832c1.001,0,1.712,0.264,2.132,0.792c0.42,0.527,0.63,1.453,0.63,2.776H341.815z"/>
	<path fill="#1366FF" d="M356.058,239.298v-0.866h-2.897v13.411h2.924v-9.983c0,0,1.604-0.779,4.533-0.504v-2.924
		C359.079,238.431,357.662,238.375,356.058,239.298z"/>
	<path fill="#1366FF" d="M368.49,243.863c-1.493-0.259-2.441-0.487-2.843-0.684c-0.402-0.196-0.604-0.536-0.604-1.019
		s0.183-0.836,0.55-1.059c0.366-0.223,1.023-0.336,1.971-0.336c0.947,0,2.477,0.143,4.586,0.429l0.054-2.441l-0.831-0.16
		c-1.663-0.286-3.067-0.429-4.211-0.429c-1.466,0-2.669,0.34-3.608,1.019c-0.939,0.679-1.408,1.708-1.408,3.084
		c0,1.378,0.34,2.325,1.02,2.843c0.679,0.519,1.748,0.899,3.205,1.14c1.457,0.241,2.378,0.465,2.763,0.67
		c0.384,0.206,0.577,0.577,0.577,1.113c0,0.537-0.201,0.922-0.604,1.153c-0.402,0.232-1.078,0.349-2.025,0.349
		c-0.948,0-2.495-0.142-4.64-0.429l-0.107,2.441l0.832,0.134c1.663,0.304,3.04,0.456,4.13,0.456c1.734,0,3.053-0.331,3.956-0.993
		c0.903-0.661,1.354-1.699,1.354-3.111c0-1.412-0.313-2.396-0.938-2.95C371.042,244.53,369.983,244.123,368.49,243.863z"/>
	<path fill="#1366FF" d="M386.232,244.279c0-4.095-1.877-6.142-5.632-6.142c-3.88,0-5.82,2.378-5.82,7.135
		c0,2.397,0.433,4.14,1.301,5.231c0.867,1.091,2.293,1.636,4.278,1.636c1.573,0,3.38-0.206,5.418-0.617l-0.054-2.172l-0.751,0.08
		c-1.341,0.107-2.646,0.161-3.916,0.161c-1.27,0-2.137-0.259-2.602-0.778c-0.465-0.518-0.707-1.332-0.724-2.44h8.315
		L386.232,244.279z M377.703,244.118c0.018-1.27,0.255-2.181,0.711-2.736c0.456-0.554,1.184-0.832,2.186-0.832
		c1.001,0,1.712,0.264,2.132,0.792c0.42,0.527,0.63,1.453,0.63,2.776H377.703z"/>
</g>
<g>
	<g opacity="0.5">
		<circle cx="702.855" cy="221.368" r="1.476"/>
	</g>
	<g opacity="0.5">
		<circle fill="#2622CE" cx="707.385" cy="221.368" r="1.476"/>
	</g>
	<g opacity="0.5">
		<g>
			<circle fill="#1B6DEF" cx="708.615" cy="266.786" r="2.62"/>
		</g>
	</g>
	<g opacity="0.5">
		<path d="M689.461,274.081c-0.995,0-1.802-0.807-1.802-1.802l0,0c0-0.997,0.807-1.802,1.802-1.802l0,0h38.338
			c0.995,0,1.802,0.805,1.802,1.802l0,0c0,0.995-0.807,1.802-1.802,1.802l0,0H689.461L689.461,274.081z"/>
	</g>
	<g opacity="0.5">
		<path d="M689.462,217.321c-0.996,0-1.802-0.806-1.802-1.801l0,0c0-0.996,0.806-1.802,1.802-1.802l0,0h38.337
			c0.995,0,1.802,0.806,1.802,1.802l0,0c0,0.995-0.807,1.801-1.802,1.801l0,0H689.462L689.462,217.321z"/>
	</g>
	<g opacity="0.5">
		<path d="M687.66,272.153v-56.614c0-0.995,0.807-1.802,1.802-1.802l0,0c0.995,0,1.802,0.807,1.802,1.802l0,0v56.614
			c0,0.995-0.807,1.802-1.802,1.802l0,0C688.467,273.955,687.66,273.148,687.66,272.153L687.66,272.153z"/>
	</g>
	<g opacity="0.5">
		<path d="M726.054,272.153v-56.614c0-0.995,0.807-1.802,1.802-1.802l0,0c0.995,0,1.802,0.807,1.802,1.802l0,0v56.614
			c0,0.995-0.807,1.802-1.802,1.802l0,0C726.861,273.955,726.054,273.148,726.054,272.153L726.054,272.153z"/>
	</g>
	<g opacity="0.5">
		<path d="M696.133,262.935c-0.746,0-1.351-0.606-1.351-1.353l0,0c0-0.746,0.604-1.351,1.351-1.351l0,0h25.017
			c0.745,0,1.351,0.605,1.351,1.351l0,0c0,0.746-0.607,1.353-1.351,1.353l0,0H696.133L696.133,262.935z"/>
	</g>
	<g opacity="0.5">
		<path d="M696.132,227.442c-0.747,0-1.35-0.605-1.35-1.352l0,0c0-0.747,0.604-1.352,1.35-1.352l0,0h25.017
			c0.746,0,1.352,0.605,1.352,1.352l0,0c0,0.746-0.605,1.352-1.352,1.352l0,0H696.132L696.132,227.442z"/>
	</g>
	<g opacity="0.5">
		<path d="M694.782,261.505v-35.401c0-0.746,0.604-1.351,1.351-1.351l0,0c0.746,0,1.351,0.605,1.351,1.351l0,0v35.401
			c0,0.746-0.605,1.352-1.351,1.352l0,0C695.386,262.858,694.782,262.251,694.782,261.505L694.782,261.505z"/>
	</g>
	<g opacity="0.5">
		<path d="M719.835,261.505v-35.401c0-0.746,0.604-1.351,1.351-1.351l0,0c0.746,0,1.351,0.605,1.351,1.351l0,0v35.401
			c0,0.746-0.605,1.352-1.351,1.352l0,0C720.44,262.858,719.835,262.251,719.835,261.505L719.835,261.505z"/>
	</g>
</g>
<text transform="matrix(1 0 0 1 149.0437 231.3635)" fill="#4C4E51" font-family="'Lato-Regular'" font-size="12">Tx Api Call</text>
<text transform="matrix(1 0 0 1 420.5825 219.1194)" fill="#4C4E51" font-family="'Lato-Regular'" font-size="12">Request </text>
<text transform="matrix(1 0 0 1 415.5302 278.0627)" fill="#4C4E51" font-family="'Lato-Regular'" font-size="12">Tx History</text>
<text transform="matrix(1 0 0 1 595.5845 219.1193)" fill="#4C4E51" font-family="'Lato-Regular'" font-size="12">Push Alarm</text>
<text transform="matrix(1 0 0 1 601.6562 278.0627)" fill="#4C4E51" font-family="'Lato-Regular'" font-size="12">Approval</text>
<text transform="matrix(1 0 0 1 77.2224 311.2907)" fill="#1B2733" font-family="'Lato-Regular'" font-size="12">DApp</text>
<text transform="matrix(1 0 0 1 488.2266 311.2907)" fill="#1B2733" font-family="'Lato-Regular'" font-size="12">Wallet Server</text>
<g>
	<g opacity="0.5">
		<circle cx="102.665" cy="251.501" r="1.222"/>
	</g>
	<g opacity="0.5">
		<path fill="#1366FF" d="M76.605,246.199v-7.25c0-0.995,0.806-1.802,1.802-1.802l0,0c0.994,0,1.802,0.806,1.802,1.802l0,0v7.25
			c0,0.994-0.808,1.802-1.802,1.802l0,0C77.411,248.001,76.605,247.193,76.605,246.199L76.605,246.199z"/>
	</g>
	<g opacity="0.5">
		<path fill="#1366FF" d="M85.396,246.199v-14.834c0-0.995,0.806-1.801,1.802-1.801l0,0c0.995,0,1.802,0.806,1.802,1.801l0,0v14.834
			c0,0.994-0.806,1.802-1.802,1.802l0,0C86.202,248.001,85.396,247.193,85.396,246.199L85.396,246.199z"/>
	</g>
	<g opacity="0.5">
		<path fill="#1366FF" d="M94.188,246.199v-10.807c0-0.995,0.806-1.801,1.802-1.801l0,0c0.995,0,1.802,0.806,1.802,1.801l0,0v10.807
			c0,0.994-0.806,1.802-1.802,1.802l0,0C94.994,248.001,94.188,247.193,94.188,246.199L94.188,246.199z"/>
	</g>
	<g opacity="0.5">
		<path fill="#1366FF" d="M102.981,246.199v-18.794c0-0.996,0.806-1.802,1.802-1.802l0,0c0.995,0,1.802,0.806,1.802,1.802l0,0
			v18.794c0,0.994-0.806,1.802-1.802,1.802l0,0C103.787,248.001,102.981,247.193,102.981,246.199L102.981,246.199z"/>
	</g>
	<g opacity="0.5">
		<path d="M66.324,248.019c-0.747,0-1.351-0.603-1.351-1.35l0,0c0-0.745,0.603-1.351,1.351-1.351l0,0h51.467
			c0.745,0,1.351,0.605,1.351,1.351l0,0c0,0.747-0.606,1.35-1.351,1.35l0,0H66.324L66.324,248.019z"/>
	</g>
	<g opacity="0.5">
		<path d="M66.78,258.269c-0.995,0-1.8-0.805-1.8-1.801l0,0c0-0.995,0.805-1.802,1.8-1.802l0,0h50.555
			c0.995,0,1.802,0.807,1.802,1.802l0,0c0,0.995-0.807,1.801-1.802,1.801l0,0H66.78L66.78,258.269z"/>
	</g>
	<g opacity="0.5">
		<path d="M66.78,221.891c-0.995,0-1.8-0.807-1.8-1.801l0,0c0-0.995,0.805-1.802,1.8-1.802l0,0h50.556
			c0.994,0,1.801,0.807,1.801,1.802l0,0c0,0.994-0.807,1.801-1.801,1.801l0,0H66.78L66.78,221.891z"/>
	</g>
	<g opacity="0.5">
		<path d="M64.98,256.334v-36.225c0-0.995,0.805-1.802,1.8-1.802l0,0c0.995,0,1.802,0.807,1.802,1.802l0,0v36.225
			c0,0.995-0.807,1.8-1.802,1.8l0,0C65.785,258.134,64.98,257.329,64.98,256.334L64.98,256.334z"/>
	</g>
	<g opacity="0.5">
		<path d="M115.597,256.334v-36.225c0-0.995,0.805-1.802,1.8-1.802l0,0c0.995,0,1.802,0.807,1.802,1.802l0,0v36.225
			c0,0.995-0.807,1.8-1.802,1.8l0,0C116.402,258.134,115.597,257.329,115.597,256.334L115.597,256.334z"/>
	</g>
	<g opacity="0.5">
		<path d="M102.635,252.852c-0.746,0-1.352-0.604-1.352-1.35l0,0c0-0.748,0.606-1.352,1.352-1.352l0,0h6.914
			c0.746,0,1.35,0.604,1.35,1.352l0,0c0,0.746-0.604,1.35-1.35,1.35l0,0H102.635L102.635,252.852z"/>
	</g>
	<g opacity="0.5">
		<path d="M90.035,267.71v-11.176c0-0.995,0.807-1.802,1.803-1.802l0,0c0.994,0,1.801,0.807,1.801,1.802l0,0v11.176
			c0,0.995-0.807,1.802-1.801,1.802l0,0C90.841,269.511,90.035,268.705,90.035,267.71L90.035,267.71z"/>
	</g>
	<g opacity="0.5">
		<path d="M75.476,269.511c-0.995,0-1.801-0.807-1.801-1.802l0,0c0-0.994,0.806-1.801,1.801-1.801l0,0h32.721
			c0.994,0,1.801,0.807,1.801,1.801l0,0c0,0.995-0.807,1.802-1.801,1.802l0,0H75.476L75.476,269.511z"/>
	</g>
	<g opacity="0.5">
		<circle fill="#1366FF" cx="78.406" cy="238.991" r="1.639"/>
	</g>
	<g>
		<g>
			<circle fill="#1366FF" cx="87.204" cy="231.363" r="1.639"/>
		</g>
	</g>
	<g>
		<g>
			<circle fill="#1366FF" cx="96.002" cy="235.432" r="1.639"/>
		</g>
	</g>
	<g>
		<g>
			<circle fill="#1366FF" cx="104.774" cy="227.397" r="1.639"/>
		</g>
	</g>
</g>
<g>
	<path opacity="0.5" d="M184.608,239.598l6.201,6.202l0.711,0.775l-0.711,0.775l-6.201,6.202l-1.486-1.55l4.457-4.393h-18.751
		v-2.067h18.751l-4.457-4.393L184.608,239.598z"/>
</g>
<g>
	<g>
		<path opacity="0.5" d="M447.858,226.708l6.201,6.202l0.711,0.775l-0.711,0.775l-6.201,6.202l-1.486-1.55l4.457-4.393h-18.751
			v-2.067h18.751l-4.457-4.393L447.858,226.708z"/>
	</g>
	<g>
		<path opacity="0.5" d="M438.99,258.749l-6.201-6.202l-0.711-0.775l0.711-0.775l6.201-6.202l1.486,1.55l-4.457,4.393h18.751v2.067
			h-18.751l4.457,4.393L438.99,258.749z"/>
	</g>
</g>
<g>
	<g>
		<path opacity="0.5" d="M630.12,226.708l6.201,6.202l0.711,0.775l-0.711,0.775l-6.201,6.202l-1.486-1.55l4.457-4.393h-18.751
			v-2.067h18.751l-4.457-4.393L630.12,226.708z"/>
	</g>
	<g>
		<path opacity="0.5" d="M621.253,258.749l-6.201-6.202l-0.711-0.775l0.711-0.775l6.201-6.202l1.486,1.55l-4.457,4.393h18.751v2.067
			h-18.751l4.457,4.393L621.253,258.749z"/>
	</g>
</g>
<text transform="matrix(1 0 0 1 209.5645 144.8522)" fill="#1366FF" font-family="'Lato-Regular'" font-size="12.6107">Tx History</text>
<g>
	<g>
		<path fill="#1366FF" d="M280.929,137.088l6.202-6.201l0.775-0.711l0.775,0.711l6.202,6.201l-1.55,1.486l-4.393-4.457v10.736
			h-2.067v-10.736l-4.393,4.457L280.929,137.088z"/>
	</g>
	<g>
		<path fill="#1366FF" d="M305.065,137.088l6.202-6.201l0.775-0.711l0.775,0.711l6.202,6.201l-1.55,1.486l-4.393-4.457v10.736
			h-2.067v-10.736l-4.393,4.457L305.065,137.088z"/>
	</g>
	<g>
		<path fill="#1366FF" d="M327.299,137.088l6.202-6.201l0.775-0.711l0.775,0.711l6.202,6.201l-1.55,1.486l-4.393-4.457v10.736
			h-2.067v-10.736l-4.393,4.457L327.299,137.088z"/>
	</g>
</g>
<g opacity="0.5">
	<g>
		<path fill="#1366FF" d="M168.517,90.294c-0.047,0-0.095-0.012-0.138-0.037l-26.957-15.803c-0.095-0.056-0.147-0.163-0.132-0.272
			c0.015-0.109,0.094-0.199,0.201-0.226l42.76-11.155c0.108-0.027,0.22,0.011,0.286,0.099c0.067,0.088,0.073,0.207,0.018,0.302
			L168.753,90.16C168.701,90.246,168.61,90.294,168.517,90.294z M142.266,74.317l26.154,15.332l15.332-26.154L142.266,74.317z"/>
		<path fill="#1366FF" d="M168.517,90.294c-0.083,0-0.163-0.038-0.215-0.105c-0.069-0.088-0.077-0.209-0.02-0.305l15.803-26.957
			c0.042-0.071,0.113-0.119,0.194-0.131c0.079-0.013,0.163,0.012,0.224,0.067l18.823,16.964c0.074,0.066,0.105,0.167,0.083,0.264
			c-0.022,0.096-0.095,0.173-0.19,0.201l-34.627,9.993C168.568,90.291,168.542,90.294,168.517,90.294z M184.386,63.491
			l-15.289,26.08l33.499-9.668L184.386,63.491z"/>
		<path fill="#1366FF" d="M204.305,111.442c-0.048,0-0.096-0.012-0.138-0.038l-35.788-21.147c-0.094-0.055-0.146-0.161-0.132-0.269
			c0.014-0.108,0.091-0.198,0.195-0.228l34.627-9.993c0.08-0.023,0.168-0.008,0.235,0.041c0.068,0.049,0.11,0.127,0.113,0.211
			l1.162,31.14c0.004,0.1-0.047,0.193-0.133,0.244C204.402,111.429,204.354,111.442,204.305,111.442z M169.2,90.108l34.814,20.572
			l-1.13-30.293L169.2,90.108z"/>
		<path fill="#1366FF" d="M203.144,80.301c-0.067,0-0.132-0.024-0.183-0.07l-18.823-16.964c-0.061-0.055-0.094-0.134-0.089-0.216
			c0.004-0.082,0.045-0.158,0.111-0.206l32.302-23.704c0.096-0.07,0.226-0.07,0.322-0.001c0.096,0.07,0.136,0.194,0.098,0.306
			l-13.479,40.668c-0.029,0.087-0.1,0.154-0.189,0.178C203.191,80.298,203.167,80.301,203.144,80.301z M184.751,63.086
			l18.265,16.461l13.078-39.461L184.751,63.086z"/>
		<path fill="#1366FF" d="M203.144,80.301c-0.064,0-0.128-0.023-0.178-0.066c-0.083-0.072-0.115-0.187-0.08-0.292l13.479-40.668
			c0.023-0.07,0.073-0.127,0.138-0.159c0.065-0.032,0.141-0.037,0.211-0.012l39.739,13.943c0.103,0.036,0.175,0.13,0.182,0.24
			c0.007,0.109-0.052,0.212-0.15,0.261l-53.217,26.725C203.227,80.292,203.185,80.301,203.144,80.301z M216.794,39.709L203.61,79.49
			l52.055-26.141L216.794,39.709z"/>
		<path fill="#1366FF" d="M232.89,103.076c-0.059,0-0.118-0.019-0.166-0.056l-29.746-22.774c-0.074-0.057-0.114-0.149-0.106-0.242
			c0.009-0.093,0.066-0.176,0.149-0.218l53.217-26.725c0.104-0.052,0.23-0.033,0.313,0.049c0.083,0.081,0.105,0.207,0.056,0.312
			l-23.471,49.499c-0.036,0.074-0.102,0.129-0.183,0.148C232.933,103.073,232.911,103.076,232.89,103.076z M203.655,80.077
			l29.132,22.305l22.987-48.479L203.655,80.077z"/>
		<path fill="#1366FF" d="M204.305,111.442c-0.056,0-0.112-0.018-0.159-0.051c-0.068-0.049-0.11-0.127-0.113-0.211l-1.162-31.14
			c-0.004-0.105,0.054-0.204,0.147-0.252c0.094-0.048,0.207-0.039,0.291,0.026l29.746,22.774c0.082,0.062,0.121,0.165,0.102,0.266
			c-0.019,0.101-0.093,0.183-0.191,0.212l-28.584,8.366C204.357,111.438,204.331,111.442,204.305,111.442z M203.438,80.597
			l1.127,30.212l27.732-8.117L203.438,80.597z"/>
		<path fill="#1366FF" d="M232.89,103.076c-0.068,0-0.136-0.026-0.187-0.075c-0.086-0.081-0.11-0.208-0.059-0.315l23.471-49.499
			c0.046-0.097,0.129-0.157,0.251-0.156c0.106,0.002,0.203,0.065,0.245,0.163l13.014,29.746c0.057,0.13,0.005,0.281-0.12,0.349
			l-36.486,19.753C232.979,103.065,232.934,103.076,232.89,103.076z M256.351,53.961l-22.858,48.205l35.532-19.237L256.351,53.961z"
			/>
		<path fill="#1366FF" d="M304.699,120.737c-0.022,0-0.044-0.003-0.065-0.008l-71.809-17.662c-0.11-0.027-0.191-0.118-0.206-0.23
			c-0.014-0.112,0.042-0.221,0.141-0.274l36.486-19.753c0.109-0.059,0.243-0.037,0.328,0.053l35.323,37.415
			c0.083,0.088,0.099,0.22,0.037,0.325C304.885,120.687,304.794,120.737,304.699,120.737z M233.64,102.707l70.226,17.272
			l-34.544-36.589L233.64,102.707z"/>
		<path fill="#1366FF" d="M269.375,83.323c-0.006,0-0.013,0-0.02-0.001c-0.101-0.007-0.19-0.07-0.23-0.163l-13.014-29.746
			c-0.059-0.134-0.001-0.292,0.132-0.355l45.084-21.612c0.108-0.052,0.24-0.027,0.321,0.064c0.08,0.091,0.092,0.223,0.028,0.326
			l-32.07,51.359C269.556,83.274,269.469,83.323,269.375,83.323z M256.716,53.436l12.702,29.031l31.299-50.124L256.716,53.436z"/>
		<path fill="#1366FF" d="M304.699,120.737c-0.075,0-0.146-0.031-0.198-0.086l-35.323-37.415c-0.075-0.079-0.095-0.195-0.052-0.295
			c0.043-0.1,0.142-0.165,0.25-0.165h59.027c0.1,0,0.191,0.054,0.239,0.141s0.044,0.194-0.009,0.277l-23.703,37.415
			c-0.045,0.071-0.121,0.117-0.204,0.125C304.716,120.737,304.707,120.737,304.699,120.737z M270.008,83.323l34.648,36.7
			l23.251-36.7H270.008z"/>
		<path fill="#1366FF" d="M328.402,83.323h-59.027c-0.099,0-0.191-0.054-0.239-0.14c-0.048-0.087-0.045-0.193,0.007-0.277
			l32.07-51.359c0.051-0.083,0.151-0.138,0.241-0.128c0.097,0.003,0.186,0.059,0.231,0.146l26.957,51.359
			c0.045,0.085,0.042,0.186-0.008,0.268C328.586,83.273,328.498,83.323,328.402,83.323z M269.867,82.777h58.085l-26.526-50.538
			L269.867,82.777z"/>
		<path fill="#1366FF" d="M328.402,83.323c-0.01,0-0.021-0.001-0.031-0.002c-0.09-0.01-0.169-0.064-0.21-0.144l-26.957-51.359
			c-0.053-0.101-0.038-0.225,0.04-0.31c0.077-0.085,0.2-0.113,0.305-0.068l52.52,21.612c0.081,0.033,0.141,0.104,0.161,0.188
			c0.02,0.085-0.002,0.175-0.059,0.241l-25.563,29.746C328.557,83.288,328.481,83.323,328.402,83.323z M302.035,32.229
			l26.422,50.339l25.056-29.155L302.035,32.229z"/>
		<path fill="#1366FF" d="M304.699,120.737c-0.079,0-0.155-0.034-0.209-0.097c-0.077-0.091-0.085-0.221-0.022-0.321l23.704-37.415
			c0.065-0.102,0.188-0.148,0.304-0.117l39.739,11.155c0.112,0.031,0.192,0.13,0.199,0.246c0.007,0.116-0.061,0.224-0.168,0.268
			l-63.443,26.26C304.769,120.731,304.734,120.737,304.699,120.737z M328.524,83.367l-23.135,36.517l61.92-25.63L328.524,83.367z"/>
		<path fill="#1366FF" d="M368.142,94.477c-0.025,0-0.05-0.003-0.073-0.01l-39.739-11.155c-0.09-0.025-0.16-0.095-0.187-0.184
			c-0.027-0.089-0.006-0.186,0.054-0.256l25.563-29.746c0.063-0.074,0.162-0.108,0.258-0.09c0.096,0.018,0.175,0.086,0.207,0.179
			l14.176,40.901c0.033,0.096,0.01,0.202-0.059,0.276C368.288,94.447,368.216,94.477,368.142,94.477z M328.888,82.903l38.826,10.898
			l-13.85-39.96L328.888,82.903z"/>
		<path fill="#1366FF" d="M385.745,64.731c-0.03,0-0.061-0.005-0.091-0.015l-31.78-11.155c-0.113-0.04-0.187-0.148-0.182-0.268
			c0.005-0.12,0.087-0.222,0.203-0.253l31.78-8.366c0.081-0.022,0.168-0.004,0.236,0.048c0.067,0.052,0.106,0.131,0.106,0.216
			v19.521c0,0.088-0.043,0.171-0.115,0.222C385.856,64.714,385.801,64.731,385.745,64.731z M354.895,53.341l30.578,10.733V45.291
			L354.895,53.341z"/>
		<path fill="#1366FF" d="M368.142,94.477c-0.009,0-0.018-0.001-0.027-0.001c-0.106-0.011-0.195-0.082-0.231-0.182l-14.176-40.901
			c-0.034-0.099-0.009-0.208,0.065-0.282c0.074-0.074,0.184-0.098,0.283-0.064l31.78,11.155c0.077,0.027,0.138,0.087,0.166,0.164
			c0.028,0.077,0.02,0.162-0.021,0.232l-17.604,29.746C368.327,94.427,368.237,94.477,368.142,94.477z M354.408,53.748
			l13.799,39.811l17.135-28.954L354.408,53.748z"/>
		<path fill="#1366FF" d="M392.194,112.488c-0.058,0-0.115-0.018-0.163-0.054l-24.052-18.01c-0.092-0.069-0.131-0.188-0.098-0.298
			c0.034-0.11,0.133-0.187,0.248-0.192l60.828-2.905c0.126-0.007,0.24,0.075,0.275,0.196c0.035,0.121-0.018,0.25-0.127,0.313
			l-36.776,20.915C392.286,112.476,392.24,112.488,392.194,112.488z M368.911,94.441l23.303,17.449l35.63-20.263L368.911,94.441z"/>
		<path fill="#1366FF" d="M368.142,94.477c-0.122,0-0.23-0.081-0.262-0.2c-0.034-0.123,0.021-0.253,0.133-0.313l46.536-25.04
			c0.125-0.068,0.281-0.027,0.358,0.092l14.292,22.135c0.053,0.082,0.058,0.186,0.013,0.272c-0.044,0.087-0.132,0.143-0.229,0.148
			l-60.828,2.905C368.15,94.477,368.146,94.477,368.142,94.477z M414.585,69.524l-45.256,24.351l59.155-2.825L414.585,69.524z"/>
		<path fill="#1366FF" d="M368.142,94.477c-0.072,0-0.144-0.029-0.197-0.084c-0.085-0.088-0.101-0.222-0.038-0.328L385.51,64.32
			c0.057-0.096,0.168-0.149,0.278-0.13l28.932,4.706c0.116,0.019,0.206,0.109,0.225,0.224c0.019,0.115-0.037,0.23-0.14,0.285
			l-46.536,25.04C368.23,94.466,368.186,94.477,368.142,94.477z M385.885,64.758L368.875,93.5l44.967-24.196L385.885,64.758z"/>
		<path fill="#1366FF" d="M414.678,69.437c-0.014,0-0.029-0.001-0.044-0.003l-28.932-4.706c-0.132-0.022-0.229-0.136-0.229-0.269
			V44.938c0-0.106,0.061-0.202,0.157-0.247c0.097-0.044,0.209-0.03,0.291,0.038l28.932,24.227c0.094,0.079,0.124,0.211,0.073,0.322
			C414.88,69.376,414.783,69.437,414.678,69.437z M386.018,64.227l27.723,4.509l-27.723-23.214V64.227z"/>
		<path fill="#1366FF" d="M428.97,91.572c-0.014,0-0.028-0.001-0.041-0.003c-0.077-0.012-0.146-0.056-0.188-0.122l-14.292-22.135
			c-0.058-0.089-0.058-0.204-0.002-0.293c0.057-0.09,0.161-0.139,0.266-0.125l35.381,4.59c0.108,0.014,0.197,0.09,0.227,0.194
			c0.03,0.104-0.004,0.216-0.088,0.285l-21.089,17.545C429.095,91.55,429.033,91.572,428.97,91.572z M415.225,69.51l13.807,21.383
			l20.373-16.949L415.225,69.51z"/>
		<circle fill="#1366FF" cx="385.676" cy="44.674" r="1.942"/>
		<circle fill="#1366FF" cx="353.548" cy="53.256" r="1.942"/>
		<circle fill="#1366FF" cx="367.978" cy="93.802" r="1.942"/>
		<circle fill="#1366FF" cx="328.476" cy="82.513" r="1.942"/>
		<circle fill="#1366FF" cx="414.405" cy="68.892" r="1.942"/>
		<circle fill="#1366FF" cx="304.617" cy="120.022" r="1.942"/>
		<circle fill="#1366FF" cx="256.088" cy="53.748" r="1.942"/>
		<circle fill="#1366FF" cx="184.073" cy="63.491" r="1.942"/>
		<circle fill="#1366FF" cx="216.095" cy="39.709" r="1.942"/>
		<circle fill="#1366FF" cx="168.245" cy="90.294" r="3.48"/>
		<circle fill="#1366FF" cx="301.718" cy="31.419" r="3.48"/>
		<circle fill="#1366FF" cx="232.907" cy="102.78" r="3.48"/>
		<circle fill="#1366FF" cx="450.332" cy="73.821" r="3.48"/>
		<circle fill="#1366FF" cx="428.484" cy="91.027" r="1.671"/>
		<circle fill="#1366FF" cx="142.266" cy="73.821" r="1.671"/>
	</g>
</g>
<text transform="matrix(1 0 0 1 417.894 49.0669)" fill="#1366FF" font-family="'Lato-Regular'" font-size="12" letter-spacing="1">Blockchain</text>
<g opacity="0.9">
	<g>
		<g>
			<circle fill="#1366FF" cx="548.192" cy="243.899" r="1.829"/>
		</g>
	</g>
	<g>
		<g opacity="0.5">
			<path fill="#1366FF" d="M558.234,240.073h-17.18c-1.234,0-2.234-0.999-2.234-2.234l0,0c0-1.232,0.999-2.231,2.234-2.231l0,0
				h17.18c1.234,0,2.234,0.999,2.234,2.231l0,0C560.468,239.074,559.469,240.073,558.234,240.073L558.234,240.073z"/>
		</g>
		<g opacity="0.5">
			<g>
				<path fill="#1366FF" d="M558.236,252.192h-17.182c-1.233,0-2.232-0.998-2.232-2.232l0,0c0-1.233,0.998-2.231,2.232-2.231l0,0
					h17.182c1.233,0,2.232,0.998,2.232,2.231l0,0C560.467,251.193,559.469,252.192,558.236,252.192L558.236,252.192z"/>
			</g>
		</g>
		<g opacity="0.5">
			<g>
				<path fill="#1366FF" d="M543.287,249.96c0,1.234-0.999,2.231-2.232,2.231l0,0c-1.234,0-2.234-0.997-2.234-2.231l0,0v-12.121
					c0-1.232,0.999-2.231,2.234-2.231l0,0c1.232,0,2.232,0.999,2.232,2.231l0,0V249.96L543.287,249.96z"/>
			</g>
		</g>
	</g>
	<g>
		<g opacity="0.5">
			<path d="M510.664,264.554c-1.233,0-2.232-0.999-2.232-2.232l0,0c0-1.235,0.999-2.232,2.232-2.232l0,0h47.501
				c1.233,0,2.232,0.997,2.232,2.232l0,0c0,1.233-0.999,2.232-2.232,2.232l0,0H510.664L510.664,264.554z"/>
		</g>
		<g opacity="0.5">
			<path d="M510.666,227.709c-1.234,0-2.233-0.998-2.233-2.231l0,0c0-1.234,0.998-2.233,2.233-2.233l0,0h47.5
				c1.233,0,2.233,0.998,2.233,2.233l0,0c0,1.233-1.001,2.231-2.233,2.231l0,0H510.666L510.666,227.709z"/>
		</g>
		<g opacity="0.5">
			<path d="M508.433,262.165v-36.664c0-1.233,0.999-2.232,2.232-2.232l0,0c1.233,0,2.232,0.999,2.232,2.232l0,0v36.664
				c0,1.233-0.999,2.232-2.232,2.232l0,0C509.432,264.397,508.433,263.398,508.433,262.165L508.433,262.165z"/>
		</g>
		<g opacity="0.5">
			<path d="M556.004,262.165v-36.664c0-1.233,0.999-2.232,2.232-2.232l0,0c1.233,0,2.232,0.999,2.232,2.232l0,0v36.664
				c0,1.233-0.999,2.232-2.232,2.232l0,0C557.003,264.397,556.004,263.398,556.004,262.165L556.004,262.165z"/>
		</g>
	</g>
</g>
</svg>
