<svg id="Layer_1" data-name="Layer 1" xmlns="http://www.w3.org/2000/svg" viewBox="0 0 443.071 411.717">
  <defs>
    <style>
      .cls-1 {
        fill: #d0d4d9;
      }

      .cls-2 {
        fill: #eff1f2;
      }

      .cls-2, .cls-4 {
        fill-rule: evenodd;
      }

      .cls-3 {
        fill: #abb1bc;
      }

      .cls-4 {
        fill: #f4c4bd;
      }

      .cls-5 {
        fill: #f4563f;
      }

      .cls-6 {
        fill: #fff;
      }
    </style>
  </defs>
  <title>img_2_pd</title>
  <g>
    <path class="cls-1" d="M221.536,167.1h-.055a1,1,0,1,0,0,2h.054a1,1,0,1,0,0-2Zm-7.966.318c-.026,0-.051,0-.077,0l-.064,0a1,1,0,0,0,.084,2,.732.732,0,0,0,.081,0l.054,0a1,1,0,0,0-.078-2Zm-7.914.959a1.051,1.051,0,0,0-.158.012l-.026,0-.033,0a1,1,0,0,0,.16,1.987.983.983,0,0,0,.162-.013l.054-.009a1,1,0,0,0-.159-1.987Zm-7.809,1.6a1.019,1.019,0,0,0-.238.029l-.048.012-.009,0a1,1,0,1,0,.482,1.941l.052-.013a1,1,0,0,0-.239-1.971Zm-7.654,2.232a.984.984,0,0,0-.315.051l-.051.017,0,0a1,1,0,1,0,.639,1.9l.051-.017a1,1,0,0,0-.319-1.948Zm-7.445,2.849a1,1,0,0,0-.393.081l-.01,0-.038.016-.006,0a1,1,0,1,0,.793,1.836l.05-.021a1,1,0,0,0-.4-1.919Zm-7.188,3.447a.987.987,0,0,0-.468.117l-.049.025a1,1,0,1,0,.939,1.766l.048-.025a1,1,0,0,0-.47-1.883Zm-6.884,4.02a1,1,0,0,0-.538.158l-.046.029a1,1,0,0,0,1.079,1.684l.045-.029a1,1,0,0,0-.54-1.842Zm-6.535,4.565a.992.992,0,0,0-.6.2l-.036.027-.01.007a1,1,0,0,0,1.212,1.592l.043-.033a1,1,0,0,0-.606-1.8ZM156,192.169a1,1,0,0,0-.668.255l-.026.024-.017.016a1,1,0,0,0,1.338,1.486l.04-.036a1,1,0,0,0-.667-1.745Zm-5.716,5.557a1,1,0,0,0-.726.312h0l-.009.01-.01.01-.02.021a1,1,0,0,0,1.454,1.374l.037-.04a1,1,0,0,0-.725-1.688Zm-5.249,6a1,1,0,0,0-.778.371l-.038.047a1,1,0,0,0,1.56,1.252l.034-.042a1,1,0,0,0-.778-1.628Zm-4.748,6.4a1,1,0,0,0-.828.437l-.018.027-.015.022a1,1,0,0,0,1.656,1.121l.031-.044a1,1,0,0,0-.826-1.563Zm-4.214,6.766a1,1,0,0,0-.87.507l-.028.048a1,1,0,1,0,1.74.986l.027-.047a1,1,0,0,0-.869-1.494Zm-3.651,7.087a1,1,0,0,0-.907.579l-.006.013-.019.04a1,1,0,0,0,1.816.839l.023-.049a1,1,0,0,0-.907-1.422Zm-3.061,7.36a1,1,0,0,0-.938.654l-.013.036-.008.02a1,1,0,0,0,1.879.687l.019-.051a1,1,0,0,0-.939-1.346Zm-2.45,7.586a1,1,0,0,0-.962.732l0,.011-.008.028v0l0,.015a1,1,0,0,0,.7,1.228.99.99,0,0,0,.268.037,1,1,0,0,0,.963-.733l.014-.052a1,1,0,0,0-.964-1.268Zm-1.821,7.76a1,1,0,0,0-.98.808l-.012.062a1,1,0,0,0,1.965.372l.01-.053a1,1,0,0,0-.794-1.171,1.016,1.016,0,0,0-.189-.018Zm-1.183,7.883a1,1,0,0,0-.993.889v.012l-.005.046a1,1,0,0,0,.886,1.1,1,1,0,0,0,1.1-.886l.006-.054a1,1,0,0,0-.995-1.108Zm-.542,7.955a1,1,0,0,0-1,.968v.064a1,1,0,0,0,.972,1.022h.028a1,1,0,0,0,1-.972l0-.054a1,1,0,0,0-.972-1.028Zm.1,7.974h-.052a1,1,0,0,0-.947,1.05l0,.058a1,1,0,0,0,1,.945h.053a1,1,0,0,0,.946-1.051l0-.054a1,1,0,0,0-1-.948Zm.736,7.939a1,1,0,0,0-.993,1.128l.005.039v.008l0,.015a1,1,0,0,0,.989.864,1.017,1.017,0,0,0,.134-.009,1,1,0,0,0,.859-1.124l-.007-.054a1,1,0,0,0-.99-.867Zm1.375,7.851a1.046,1.046,0,0,0-.214.023,1,1,0,0,0-.764,1.19v0l.008.037,0,.012a1,1,0,0,0,1.954-.427l-.012-.052a1,1,0,0,0-.976-.788ZM127.58,294a1,1,0,0,0-.957,1.291l.014.047,0,.006a1,1,0,0,0,.956.709,1.024,1.024,0,0,0,.292-.044,1,1,0,0,0,.665-1.249l-.016-.052a1,1,0,0,0-.956-.708Zm2.634,7.523a1,1,0,0,0-.93,1.367l0,.007.011.028,0,.009,0,.007v0a1,1,0,0,0,.93.631.979.979,0,0,0,.369-.071,1,1,0,0,0,.56-1.3l-.02-.051a1,1,0,0,0-.93-.631Zm3.24,7.283a1,1,0,0,0-.9,1.439l.01.02.011.023.006.012a1,1,0,0,0,1.791-.889l-.024-.049a1,1,0,0,0-.9-.556Zm3.823,7a1,1,0,0,0-.858,1.513l.032.053a1,1,0,0,0,1.712-1.034l-.028-.047a1,1,0,0,0-.858-.485Zm4.378,6.662a1,1,0,0,0-.812,1.583l.023.033.01.013a1,1,0,0,0,1.624-1.168l-.032-.043a1,1,0,0,0-.813-.418Zm4.9,6.287a1,1,0,0,0-.765,1.644l.038.045a1,1,0,0,0,1.525-1.294l-.035-.041a1,1,0,0,0-.763-.354Zm5.394,5.871a1,1,0,0,0-.712,1.7l.044.044a1,1,0,0,0,1.414-1.414l-.038-.038a1,1,0,0,0-.708-.294Zm5.85,5.416a1,1,0,0,0-.653,1.758l.019.016.026.022a1,1,0,1,0,1.3-1.521l-.041-.035a.994.994,0,0,0-.648-.24Zm6.267,4.928a1,1,0,0,0-.589,1.808l.051.037a1,1,0,0,0,1.167-1.624l-.044-.032a.988.988,0,0,0-.585-.189Zm6.645,4.4a1,1,0,0,0-.52,1.854l.048.029a1,1,0,1,0,1.035-1.711l-.046-.028a.994.994,0,0,0-.517-.144Zm6.98,3.85a1,1,0,0,0-.451,1.893l.049.025h0a1,1,0,0,0,.893-1.789l-.048-.024a.991.991,0,0,0-.446-.106Zm7.269,3.269a1,1,0,0,0-.377,1.927l.045.018.01,0a1,1,0,0,0,.744-1.856l-.05-.02a1,1,0,0,0-.372-.073Zm7.512,2.665a1,1,0,0,0-.3,1.955l.015,0,.025.007.021.007a1.016,1.016,0,0,0,.291.043,1,1,0,0,0,.294-1.956l-.051-.016a1.018,1.018,0,0,0-.3-.045Zm7.705,2.043a1,1,0,0,0-.216,1.976h0l.043.01h.006a1,1,0,0,0,.432-1.953l-.053-.011a.95.95,0,0,0-.217-.024Zm7.845,1.406a1,1,0,0,0-.136,1.991l.053.007h0a1.066,1.066,0,0,0,.138.009,1,1,0,0,0,.134-1.991l-.054-.007a.912.912,0,0,0-.137-.01Zm7.936.766a1,1,0,0,0-.06,2l.053,0h.063a1,1,0,0,0,.054-2l-.054,0-.056,0Zm8.029.126h-.025l-.054,0a1,1,0,0,0,.023,2h.08a1,1,0,0,0-.024-2Zm7.957-.515c-.035,0-.07,0-.1,0l-.054.006a1,1,0,0,0,.1,1.995.9.9,0,0,0,.1-.006l.063-.006a1,1,0,0,0-.109-1.994Zm7.888-1.156a.975.975,0,0,0-.186.017l-.053.01a1,1,0,0,0,.183,1.983,1.05,1.05,0,0,0,.184-.017l.041-.008.015,0a1,1,0,0,0-.184-1.982Zm7.765-1.8a1.007,1.007,0,0,0-.265.036l-.052.014a1,1,0,0,0,.526,1.93l.059-.016a1,1,0,0,0-.268-1.964Zm7.594-2.423a1,1,0,0,0-.343.061l-.05.018a1,1,0,0,0,.679,1.881l.06-.022a1,1,0,0,0-.346-1.938Zm7.37-3.035a.99.99,0,0,0-.418.092l-.049.022a1,1,0,0,0,.418,1.909.988.988,0,0,0,.415-.091l.056-.025a1,1,0,0,0-.422-1.907Zm7.1-3.626a1,1,0,0,0-.489.128l-.047.027a1,1,0,0,0,.976,1.745l.02-.011.032-.018a1,1,0,0,0-.492-1.871Zm6.782-4.191a.992.992,0,0,0-.559.171l-.045.03a1,1,0,1,0,1.119,1.658l.024-.016.024-.016a1,1,0,0,0-.563-1.827Zm6.42-4.726a.992.992,0,0,0-.624.219l-.043.034a1,1,0,1,0,1.249,1.562l.024-.019.02-.016a1,1,0,0,0-.626-1.78Zm6.018-5.229a1,1,0,0,0-.686.272l-.039.037a1,1,0,0,0,1.368,1.458l.046-.042a1,1,0,0,0-.689-1.725Zm5.577-5.7a1,1,0,0,0-.743.33l-.036.04a1,1,0,0,0,1.481,1.344l.031-.034.009-.01a1,1,0,0,0-.742-1.67Zm5.1-6.128a1,1,0,0,0-.794.392l-.033.043a1,1,0,0,0,1.587,1.217l.036-.048a1,1,0,0,0-.8-1.6Zm4.588-6.52a1,1,0,0,0-.842.458l-.029.045a1,1,0,1,0,1.68,1.085l.031-.048a1,1,0,0,0-.84-1.54Zm4.043-6.87a1,1,0,0,0-.883.528l-.025.048a1,1,0,1,0,1.763.944l.027-.051a1,1,0,0,0-.882-1.469Zm3.471-7.176a1,1,0,0,0-.918.6l-.021.05a1,1,0,0,0,1.834.8l.022-.051a1,1,0,0,0-.519-1.315.984.984,0,0,0-.4-.083Zm2.874-7.435a1,1,0,0,0-.947.678l-.017.051a1,1,0,0,0,.624,1.27,1.012,1.012,0,0,0,.323.053,1,1,0,0,0,.946-.677l0-.013.015-.042a1,1,0,0,0-.625-1.266,1.013,1.013,0,0,0-.323-.054Zm2.257-7.645a1,1,0,0,0-.969.756l-.013.053a1,1,0,0,0,.725,1.214.984.984,0,0,0,.245.03,1,1,0,0,0,.969-.756l.006-.024.009-.034a1,1,0,0,0-.727-1.209,1.033,1.033,0,0,0-.245-.03Zm1.625-7.8a1,1,0,0,0-.986.836l-.008.053a1,1,0,0,0,.822,1.151,1.043,1.043,0,0,0,.166.014,1,1,0,0,0,.984-.83l.006-.039,0-.021a1,1,0,0,0-.822-1.15.927.927,0,0,0-.165-.014Zm.986-7.91a1,1,0,0,0-1,.916l0,.054a1,1,0,0,0,.912,1.081c.029,0,.057,0,.086,0a1,1,0,0,0,1-.916v-.029l0-.026a1,1,0,0,0-.913-1.08q-.042,0-.084,0Zm.346-7.966a1,1,0,0,0-1,1v.054a1,1,0,0,0,1,1h0a1,1,0,0,0,1-1v-.055a1,1,0,0,0-1-1Zm-.29-7.97c-.026,0-.052,0-.078,0a1,1,0,0,0-.921,1.074l0,.054a1,1,0,0,0,1,.924l.077,0a1,1,0,0,0,.921-1.073l0-.036,0-.022a1,1,0,0,0-.995-.921Zm-.932-7.918a1.087,1.087,0,0,0-.159.013,1,1,0,0,0-.83,1.145l.008.053a1,1,0,0,0,.987.844.944.944,0,0,0,.158-.013,1,1,0,0,0,.831-1.143l-.01-.059a1,1,0,0,0-.985-.84Zm-1.573-7.814a.981.981,0,0,0-.238.029,1,1,0,0,0-.734,1.209l.013.052a1,1,0,0,0,.971.763,1.016,1.016,0,0,0,.237-.028,1,1,0,0,0,.735-1.208l0-.019-.009-.038a1,1,0,0,0-.97-.76Zm-2.2-7.66a1.024,1.024,0,0,0-.316.051,1,1,0,0,0-.633,1.265l.017.051a1,1,0,0,0,.949.685,1,1,0,0,0,.95-1.31l-.017-.052,0-.005a1,1,0,0,0-.948-.685Zm-2.824-7.454a.989.989,0,0,0-.392.08,1,1,0,0,0-.528,1.312l.021.05a1,1,0,1,0,1.84-.784l0-.012-.011-.027,0-.011a1,1,0,0,0-.92-.608Zm-3.423-7.2a1,1,0,0,0-.884,1.466l.025.048a1,1,0,0,0,1.771-.929l-.02-.038-.006-.013a1,1,0,0,0-.886-.534Zm-4-6.9a1,1,0,0,0-.843,1.536l.029.046a1,1,0,1,0,1.689-1.071l-.03-.047a1,1,0,0,0-.845-.464Zm-4.542-6.551a1,1,0,0,0-.8,1.6l.033.043a1,1,0,0,0,1.6-1.2l-.01-.013-.011-.015-.017-.023a1,1,0,0,0-.8-.394Zm-5.057-6.162a1,1,0,0,0-.747,1.665l.036.04a1,1,0,0,0,1.5-1.329l-.025-.027-.012-.014a.994.994,0,0,0-.747-.335Zm-5.537-5.735a1,1,0,0,0-.691,1.723l.039.037a1,1,0,0,0,1.385-1.442l-.025-.025-.018-.016a.992.992,0,0,0-.69-.277Zm-5.982-5.27a1,1,0,0,0-.631,1.776l.042.034a1,1,0,1,0,1.261-1.552l-.006,0-.009-.007-.027-.023a1,1,0,0,0-.63-.223ZM277,184.25a1,1,0,0,0-.566,1.825l.045.03a.988.988,0,0,0,.564.176,1,1,0,0,0,.571-1.822l-.034-.023-.015-.011a1,1,0,0,0-.565-.175Zm-6.752-4.237a1,1,0,0,0-.5,1.868l.047.027a1,1,0,0,0,1-1.735l-.032-.019-.016-.009a1,1,0,0,0-.5-.132Zm-7.075-3.675a1,1,0,0,0-.425,1.906l.049.023a1,1,0,0,0,.854-1.809l-.058-.027a1,1,0,0,0-.42-.093Zm-7.35-3.085a1,1,0,0,0-.349,1.937l.051.019a1,1,0,0,0,.7-1.873l-.008,0-.046-.017a.974.974,0,0,0-.35-.063Zm-7.577-2.476a1,1,0,0,0-.271,1.963l.052.015a.986.986,0,0,0,.272.038,1,1,0,0,0,.272-1.963l-.026-.007-.009,0-.018,0a1.026,1.026,0,0,0-.272-.038Zm-7.755-1.847a1,1,0,0,0-.191,1.981l.053.011a1.069,1.069,0,0,0,.193.019,1,1,0,0,0,.192-1.982h-.008l-.046-.009a.986.986,0,0,0-.193-.019Zm-7.879-1.21a1,1,0,0,0-.11,1.994l.054.006a1.069,1.069,0,0,0,.113.006,1,1,0,0,0,.111-1.993l-.01,0-.036,0h-.009a1.069,1.069,0,0,0-.113-.006Zm-7.951-.569a1,1,0,0,0-.031,2l.054,0h.032a1,1,0,0,0,.032-2h-.087Z"/>
    <path class="cls-1" d="M123.136.016a1,1,0,0,0-.822.969v.063a1,1,0,0,0,.989,1.006.978.978,0,0,0,.189-.015,1,1,0,0,0,.822-.973V1.012A1,1,0,0,0,123.325,0a.984.984,0,0,0-.189.016Zm.231,7.968a1,1,0,0,0-.819,1.05v.01l0,.048a1,1,0,0,0,1.067.928.937.937,0,0,0,.108-.014,1,1,0,0,0,.82-1.054l0-.054a1,1,0,0,0-1.068-.928.966.966,0,0,0-.108.014Zm.875,7.925a1,1,0,0,0-.811,1.129l0,.018,0,.023,0,.023a1,1,0,0,0,1.138.834l.028,0a1,1,0,0,0,.811-1.134l-.008-.054a1,1,0,0,0-1.139-.839l-.028.005Zm1.508,7.831-.052.01a1,1,0,0,0-.746,1.2l.013.055a1,1,0,0,0,1.149.755l.053-.011a1,1,0,0,0,.745-1.2L126.9,24.5a1,1,0,0,0-1.15-.756Zm2.129,7.683a1,1,0,0,0-.777,1.288l.009.03,0,.015,0,.013a1,1,0,0,0,1.127.675,1.032,1.032,0,0,0,.13-.033,1,1,0,0,0,.646-1.258l-.016-.051a1,1,0,0,0-1.128-.679Zm2.743,7.484a.984.984,0,0,0-.206.06,1,1,0,0,0-.542,1.307l.006.013.017.042a1,1,0,0,0,1.1.6.975.975,0,0,0,.207-.06,1,1,0,0,0,.541-1.307l-.021-.05a1,1,0,0,0-1.1-.6Zm3.344,7.235a.97.97,0,0,0-.279.095,1,1,0,0,0-.433,1.346l0,0,.018.036,0,.009a1,1,0,0,0,1.066.528,1.053,1.053,0,0,0,.28-.095,1,1,0,0,0,.433-1.347l-.025-.048a1,1,0,0,0-1.067-.528Zm3.925,6.938a1,1,0,0,0-.672,1.511l.025.04,0,.008a1,1,0,0,0,1.7-1.056l-.029-.046a1,1,0,0,0-1.027-.457Zm4.478,6.594a1,1,0,0,0-.628,1.576l.036.048a1,1,0,0,0,.98.388.989.989,0,0,0,.418-.181,1,1,0,0,0,.208-1.4l-.032-.043a1,1,0,0,0-.982-.389Zm5,6.208a1,1,0,0,0-.575,1.642l.04.045a1,1,0,0,0,1.5-1.321l-.035-.04a1,1,0,0,0-.931-.326Zm5.488,5.782a1,1,0,0,0-.522,1.7l.017.017.022.021,0,0a1,1,0,0,0,1.393-1.436l-.039-.037a1,1,0,0,0-.875-.267Zm5.939,5.319a1,1,0,0,0-.461,1.754l.046.038a1,1,0,0,0,1.27-1.544l-.041-.035a1,1,0,0,0-.814-.213Zm6.348,4.823a1,1,0,0,0-.4,1.8l.051.036A1,1,0,0,0,165.939,82l-.045-.031a1,1,0,0,0-.749-.164Zm6.716,4.3a1,1,0,0,0-.331,1.846l.026.015.01.006.016.009a1,1,0,0,0,1.007-1.728l-.047-.027a.994.994,0,0,0-.681-.121Zm7.041,3.74a1,1,0,0,0-.26,1.884l.013.006.04.019a1,1,0,0,0,.865-1.8l-.049-.023a.991.991,0,0,0-.609-.083ZM186.222,93a1,1,0,0,0-.183,1.918l.041.015.014.006a1,1,0,0,0,.713-1.869l-.051-.019a.993.993,0,0,0-.534-.051Zm7.551,2.554a1,1,0,0,0-.11,1.942l.061.018a.976.976,0,0,0,.454.024,1,1,0,0,0,.1-1.944l-.052-.015a.993.993,0,0,0-.458-.025Zm7.733,1.931a1,1,0,0,0-.025,1.963l.019,0,.037.008a1.013,1.013,0,0,0,.376.005,1,1,0,0,0,.025-1.964l-.053-.011a.988.988,0,0,0-.379,0Zm7.865,1.293a1,1,0,0,0,.056,1.977h.015l.033,0h.008a1.014,1.014,0,0,0,.3-.009,1,1,0,0,0-.056-1.977l-.054-.006a.964.964,0,0,0-.3.008Zm7.945.646a1,1,0,0,0,.138,1.983l.054,0a.979.979,0,0,0,.218-.015,1,1,0,0,0-.138-1.983l-.054,0a.983.983,0,0,0-.218.015Zm7.97-.005a1,1,0,0,0,.22,1.984h.055a1.01,1.01,0,0,0,.136-.015,1,1,0,0,0-.22-1.983l-.054,0a1.025,1.025,0,0,0-.137.015Zm7.946-.651a1,1,0,0,0,.3,1.977l.05-.006h.008l.056-.008a1,1,0,0,0-.3-1.977l-.054.007-.056.008Zm7.924-1.3-.024,0-.053.011a1,1,0,0,0,.377,1.964l.02,0,.026,0,.032-.007a1,1,0,0,0-.378-1.964Zm7.741-1.915a1.017,1.017,0,0,0-.1.024l-.052.015a1,1,0,0,0,.455,1.945c.033-.006.066-.014.1-.023l.024-.007.018,0,.02-.006a1,1,0,0,0-.461-1.943Zm7.558-2.535a1.1,1.1,0,0,0-.18.05l-.05.02a1,1,0,0,0,.531,1.919,1.012,1.012,0,0,0,.177-.049l.012,0,.043-.017a1,1,0,0,0-.533-1.919Zm7.325-3.14a.954.954,0,0,0-.254.082l-.049.023a1,1,0,0,0,.607,1.887.958.958,0,0,0,.25-.08l.027-.012.027-.014a1,1,0,0,0-.608-1.886Zm7.045-3.73a1.008,1.008,0,0,0-.326.121l-.047.027a1,1,0,0,0,.68,1.849.99.99,0,0,0,.327-.121l.027-.016L271.51,88a1,1,0,0,0-.685-1.846Zm6.716-4.292a.991.991,0,0,0-.394.165l-.044.03a1,1,0,1,0,1.143,1.641l.046-.031a1,1,0,0,0-.751-1.8Zm6.345-4.825a.991.991,0,0,0-.459.213l-.042.035a1,1,0,0,0,1.274,1.542l.006,0,.022-.018,0,0,0,0,.008-.007a1,1,0,0,0-.815-1.755Zm5.932-5.325a1,1,0,0,0-.519.267l-.039.038a1,1,0,1,0,1.394,1.434l.024-.024.016-.015a1,1,0,0,0-.876-1.7ZM295.3,65.92a.99.99,0,0,0-.575.326l-.036.041a1,1,0,0,0,1.5,1.319l.032-.036.007-.009a1,1,0,0,0-.931-1.641Zm5-6.212a1,1,0,0,0-.627.389l-.032.043a1,1,0,0,0,1.605,1.193l.037-.049a1,1,0,0,0-.983-1.576Zm4.48-6.595a1,1,0,0,0-.673.456l-.028.046a1,1,0,1,0,1.7,1.057l.01-.016.014-.023,0-.008a1,1,0,0,0-1.026-1.512Zm3.934-6.934a1,1,0,0,0-.713.526l-.025.048a1,1,0,0,0,1.776.921l.013-.027.014-.026a1,1,0,0,0-.431-1.347.989.989,0,0,0-.634-.095Zm3.36-7.23a1,1,0,0,0-.747.6l-.021.05a1,1,0,0,0,1.844.775l.016-.037,0-.011,0-.009a1,1,0,0,0-1.1-1.368Zm2.764-7.477a1,1,0,0,0-.775.676l-.017.052a1,1,0,1,0,1.9.617l0-.005.015-.048a1,1,0,0,0-1.127-1.292Zm2.146-7.677a1,1,0,0,0-.8.755l-.012.052a1,1,0,1,0,1.946.461l.006-.028.008-.03a1,1,0,0,0-1.151-1.21Zm1.512-7.826a1,1,0,0,0-.812.835l-.008.053a1,1,0,1,0,1.978.3l.006-.042,0-.016a1,1,0,0,0-1.166-1.13Zm.868-7.924a1,1,0,0,0-.82.916l0,.054a1,1,0,0,0,.929,1.066,1.011,1.011,0,0,0,.247-.013,1,1,0,0,0,.819-.911l0-.03,0-.029a1,1,0,0,0-1.175-1.053ZM319.58.078a1,1,0,0,0-.822,1v.054a1,1,0,0,0,2-.022V1.044a1,1,0,0,0-1.013-.982.982.982,0,0,0-.165.016Z"/>
    <path class="cls-2" d="M221.536,56.467a45,45,0,1,1-45,45A45,45,0,0,1,221.536,56.467Z"/>
    <g>
      <path class="cls-3" d="M216.564,93.949c.078.184.153.369.228.556.074-.193.153-.381.233-.569s.165-.365.255-.536l3.424-6.407a.877.877,0,0,1,.132-.192.4.4,0,0,1,.152-.1.673.673,0,0,1,.188-.04c.069-.006.152-.009.248-.009h1.624V98.217h-1.9V90.745c0-.139,0-.291.011-.456s.02-.334.036-.5l-3.5,6.56a.916.916,0,0,1-.312.347.805.805,0,0,1-.447.124h-.3a.806.806,0,0,1-.448-.124.916.916,0,0,1-.312-.347l-3.544-6.584c.021.175.036.347.044.515s.013.325.013.469v7.472h-1.9V86.648h1.624c.1,0,.179,0,.248.009a.673.673,0,0,1,.188.04.44.44,0,0,1,.156.1.789.789,0,0,1,.136.192l3.456,6.424Q216.448,93.673,216.564,93.949Z"/>
      <path class="cls-3" d="M233.536,86.648v1.769h-3.48v9.8H227.9v-9.8h-3.5V86.648Z"/>
      <path class="cls-3" d="M192.069,108.757a8.671,8.671,0,0,0,.3,2.286,9.127,9.127,0,0,0,.875,2.114.475.475,0,0,1,.044.105.372.372,0,0,1,.011.088.208.208,0,0,1-.038.127.371.371,0,0,1-.1.087l-.434.264a10.173,10.173,0,0,1-.7-1.254,8.382,8.382,0,0,1-.467-1.248,8.693,8.693,0,0,1-.262-1.263,10.417,10.417,0,0,1,0-2.609,8.584,8.584,0,0,1,.262-1.263,8.486,8.486,0,0,1,.467-1.246,10.447,10.447,0,0,1,.7-1.259l.434.27a.374.374,0,0,1,.1.088.2.2,0,0,1,.038.126.413.413,0,0,1-.055.187,8.818,8.818,0,0,0-.877,2.113A8.73,8.73,0,0,0,192.069,108.757Z"/>
      <path class="cls-3" d="M198.748,109.645l.113.294c.036-.1.075-.2.115-.294s.086-.187.137-.283l2.668-4.845a.312.312,0,0,1,.149-.154.687.687,0,0,1,.22-.028h.786v7.882H202v-5.791c0-.077,0-.16,0-.248s.01-.178.017-.27l-2.7,4.928a.423.423,0,0,1-.384.248h-.155a.423.423,0,0,1-.384-.248l-2.761-4.944c.011.095.018.189.024.28s.008.177.008.254v5.791h-.934v-7.882h.786a.691.691,0,0,1,.22.028.32.32,0,0,1,.149.154l2.722,4.851A2.217,2.217,0,0,1,198.748,109.645Z"/>
      <path class="cls-3" d="M208.793,112.217h-.433a.527.527,0,0,1-.232-.044.242.242,0,0,1-.115-.188l-.11-.516c-.147.132-.291.25-.429.354a2.457,2.457,0,0,1-.441.265,2.308,2.308,0,0,1-.492.162,2.864,2.864,0,0,1-.58.055,1.984,1.984,0,0,1-.607-.091,1.359,1.359,0,0,1-.492-.274,1.3,1.3,0,0,1-.334-.461,1.6,1.6,0,0,1-.124-.659,1.234,1.234,0,0,1,.182-.637,1.593,1.593,0,0,1,.586-.543,3.807,3.807,0,0,1,1.059-.39,7.152,7.152,0,0,1,1.6-.151v-.438a1.517,1.517,0,0,0-.278-.988,1.007,1.007,0,0,0-.822-.335,1.726,1.726,0,0,0-.6.091,2.264,2.264,0,0,0-.424.2c-.119.075-.221.142-.307.2a.452.452,0,0,1-.256.091.3.3,0,0,1-.174-.052.4.4,0,0,1-.118-.13l-.176-.313a3.178,3.178,0,0,1,1-.665,3.065,3.065,0,0,1,1.182-.221,2.127,2.127,0,0,1,.831.154,1.709,1.709,0,0,1,.61.429,1.806,1.806,0,0,1,.374.666,2.781,2.781,0,0,1,.126.857Zm-2.541-.6a2,2,0,0,0,.474-.052,1.968,1.968,0,0,0,.4-.148,2.285,2.285,0,0,0,.363-.234,3.17,3.17,0,0,0,.338-.314V109.72a6.474,6.474,0,0,0-1.149.086,3.23,3.23,0,0,0-.771.223,1.081,1.081,0,0,0-.431.327.7.7,0,0,0-.135.42.944.944,0,0,0,.071.382.722.722,0,0,0,.194.263.747.747,0,0,0,.285.149A1.274,1.274,0,0,0,206.252,111.617Z"/>
      <path class="cls-3" d="M211.588,104.9a.62.62,0,0,1-.058.267.766.766,0,0,1-.154.22.709.709,0,0,1-.223.151.661.661,0,0,1-.269.055.641.641,0,0,1-.267-.055.708.708,0,0,1-.22-.151.741.741,0,0,1-.152-.22.664.664,0,0,1-.054-.267.7.7,0,0,1,.054-.272.719.719,0,0,1,.372-.377.657.657,0,0,1,.267-.055.678.678,0,0,1,.269.055.726.726,0,0,1,.223.151.755.755,0,0,1,.154.226A.652.652,0,0,1,211.588,104.9Zm-.221,1.749v5.572h-.978v-5.572Z"/>
      <path class="cls-3" d="M213.1,112.217v-5.572h.583a.251.251,0,0,1,.265.2l.076.6a3.121,3.121,0,0,1,.811-.649,2.112,2.112,0,0,1,1.037-.247,2,2,0,0,1,.806.151,1.56,1.56,0,0,1,.583.429,1.905,1.905,0,0,1,.355.668,2.889,2.889,0,0,1,.121.863v3.548h-.979v-3.548a1.507,1.507,0,0,0-.289-.982,1.082,1.082,0,0,0-.883-.349,1.647,1.647,0,0,0-.811.209,2.667,2.667,0,0,0-.7.567v4.1Z"/>
      <path class="cls-3" d="M226.857,104.335v.9H224.31v6.986h-1.067v-6.986h-2.557v-.9Z"/>
      <path class="cls-3" d="M228.924,106.558a2.865,2.865,0,0,1,1.1.2,2.316,2.316,0,0,1,.835.577,2.561,2.561,0,0,1,.528.905,3.917,3.917,0,0,1,0,2.373,2.552,2.552,0,0,1-.528.9,2.3,2.3,0,0,1-.835.574,3.13,3.13,0,0,1-2.207,0,2.325,2.325,0,0,1-.838-.574,2.579,2.579,0,0,1-.534-.9,3.877,3.877,0,0,1,0-2.373,2.588,2.588,0,0,1,.534-.905,2.345,2.345,0,0,1,.838-.577A2.863,2.863,0,0,1,228.924,106.558Zm0,4.971a1.429,1.429,0,0,0,1.232-.552,3.137,3.137,0,0,0,0-3.094,1.427,1.427,0,0,0-1.232-.556,1.7,1.7,0,0,0-.726.144,1.34,1.34,0,0,0-.514.412,1.833,1.833,0,0,0-.308.663,3.941,3.941,0,0,0,0,1.773,1.816,1.816,0,0,0,.308.658,1.383,1.383,0,0,0,.514.41A1.732,1.732,0,0,0,228.924,111.529Z"/>
      <path class="cls-3" d="M233.8,104.115v4.769h.253a.449.449,0,0,0,.181-.031.5.5,0,0,0,.16-.124l1.76-1.885a.965.965,0,0,1,.165-.144.4.4,0,0,1,.22-.055h.891l-2.051,2.184c-.052.063-.1.117-.151.165a.922.922,0,0,1-.168.126,1.037,1.037,0,0,1,.178.151,1.492,1.492,0,0,1,.152.2l2.177,2.75h-.879a.421.421,0,0,1-.206-.047.534.534,0,0,1-.163-.146l-1.832-2.282a.407.407,0,0,0-.165-.151.624.624,0,0,0-.247-.036H233.8v2.662h-.984v-8.1Z"/>
      <path class="cls-3" d="M240.425,106.558a2.485,2.485,0,0,1,.924.167,2.072,2.072,0,0,1,.731.484,2.244,2.244,0,0,1,.482.781,3.027,3.027,0,0,1,.173,1.059.629.629,0,0,1-.05.307.2.2,0,0,1-.187.078h-3.707a3.06,3.06,0,0,0,.143.918,1.9,1.9,0,0,0,.363.652,1.437,1.437,0,0,0,.55.39,1.9,1.9,0,0,0,.716.129,2.084,2.084,0,0,0,.634-.085,2.916,2.916,0,0,0,.459-.184,3.53,3.53,0,0,0,.323-.184.434.434,0,0,1,.222-.086.217.217,0,0,1,.187.094l.275.357a1.842,1.842,0,0,1-.434.383,2.7,2.7,0,0,1-.542.267,3.447,3.447,0,0,1-.6.156,3.626,3.626,0,0,1-.61.053,2.862,2.862,0,0,1-1.065-.195,2.345,2.345,0,0,1-.841-.573,2.6,2.6,0,0,1-.552-.931,3.771,3.771,0,0,1-.2-1.277,3.252,3.252,0,0,1,.179-1.089,2.565,2.565,0,0,1,.514-.877,2.351,2.351,0,0,1,.82-.583A2.692,2.692,0,0,1,240.425,106.558Zm.021.719a1.505,1.505,0,0,0-1.116.41,1.934,1.934,0,0,0-.506,1.136h3.031a1.992,1.992,0,0,0-.094-.624,1.391,1.391,0,0,0-.274-.489,1.229,1.229,0,0,0-.444-.319A1.478,1.478,0,0,0,240.446,107.277Z"/>
      <path class="cls-3" d="M243.983,112.217v-5.572h.583a.25.25,0,0,1,.264.2l.076.6a3.142,3.142,0,0,1,.812-.649,2.109,2.109,0,0,1,1.037-.247,2,2,0,0,1,.806.151,1.568,1.568,0,0,1,.583.429,1.888,1.888,0,0,1,.354.668,2.889,2.889,0,0,1,.121.863v3.548h-.978v-3.548a1.507,1.507,0,0,0-.289-.982,1.084,1.084,0,0,0-.883-.349,1.651,1.651,0,0,0-.812.209,2.663,2.663,0,0,0-.7.567v4.1Z"/>
      <path class="cls-3" d="M250.935,108.757a8.76,8.76,0,0,0-1.177-4.4.413.413,0,0,1-.055-.187.2.2,0,0,1,.038-.126.374.374,0,0,1,.1-.088l.434-.27a10.6,10.6,0,0,1,.7,1.259,8.72,8.72,0,0,1,.467,1.246,8.581,8.581,0,0,1,.261,1.263,10.417,10.417,0,0,1,0,2.609,8.506,8.506,0,0,1-.728,2.511,10.317,10.317,0,0,1-.7,1.254l-.434-.264a.371.371,0,0,1-.1-.087.208.208,0,0,1-.038-.127.327.327,0,0,1,.011-.088.529.529,0,0,1,.044-.105,9.127,9.127,0,0,0,.875-2.114A8.671,8.671,0,0,0,250.935,108.757Z"/>
    </g>
    <path class="cls-2" d="M121.536,221.717a45,45,0,1,1-45,45A45,45,0,0,1,121.536,221.717Z"/>
    <g>
      <path class="cls-3" d="M115.168,259.394v4.073h-2.152V251.9h3.768a6.584,6.584,0,0,1,2.008.273,3.853,3.853,0,0,1,1.4.76,2.969,2.969,0,0,1,.816,1.168,4.075,4.075,0,0,1,.264,1.488,4.129,4.129,0,0,1-.28,1.54,3.2,3.2,0,0,1-.84,1.2,3.912,3.912,0,0,1-1.4.784,6.225,6.225,0,0,1-1.968.279Zm0-1.679h1.616a3.2,3.2,0,0,0,1.032-.149,1.91,1.91,0,0,0,.728-.423,1.746,1.746,0,0,0,.432-.672,2.573,2.573,0,0,0,.144-.884,2.328,2.328,0,0,0-.144-.84,1.669,1.669,0,0,0-.432-.641,1.932,1.932,0,0,0-.728-.4,3.393,3.393,0,0,0-1.032-.141h-1.616Z"/>
      <path class="cls-3" d="M131.1,251.9v1.769h-3.48v9.8h-2.151v-9.8h-3.5V251.9Z"/>
      <path class="cls-3" d="M85,274.007a8.63,8.63,0,0,0,.3,2.286,9.127,9.127,0,0,0,.875,2.114.529.529,0,0,1,.044.105.432.432,0,0,1,.01.088.2.2,0,0,1-.038.127.366.366,0,0,1-.1.087l-.435.264a10.306,10.306,0,0,1-.7-1.254,8.382,8.382,0,0,1-.467-1.248,8.693,8.693,0,0,1-.262-1.263,10.417,10.417,0,0,1,0-2.609,8.584,8.584,0,0,1,.262-1.263,8.486,8.486,0,0,1,.467-1.246,10.586,10.586,0,0,1,.7-1.259l.435.27a.369.369,0,0,1,.1.088.2.2,0,0,1,.038.126.41.41,0,0,1-.054.187,8.76,8.76,0,0,0-1.177,4.4Z"/>
      <path class="cls-3" d="M88.834,274.519v2.948H87.772v-7.882H90.1a4.346,4.346,0,0,1,1.3.174,2.491,2.491,0,0,1,.916.492,2,2,0,0,1,.541.769,2.719,2.719,0,0,1,.179,1.007,2.557,2.557,0,0,1-.193,1.007,2.146,2.146,0,0,1-.563.786,2.623,2.623,0,0,1-.921.515,3.988,3.988,0,0,1-1.26.184Zm0-.847H90.1a2.445,2.445,0,0,0,.806-.121,1.681,1.681,0,0,0,.586-.338,1.427,1.427,0,0,0,.357-.521,1.785,1.785,0,0,0,.121-.665,1.512,1.512,0,0,0-.464-1.176,2.027,2.027,0,0,0-1.406-.424H88.834Z"/>
      <path class="cls-3" d="M94.228,277.467V271.9h.562a.3.3,0,0,1,.219.061.365.365,0,0,1,.082.209l.067.869a2.542,2.542,0,0,1,.707-.91,1.555,1.555,0,0,1,.987-.328,1.483,1.483,0,0,1,.765.2l-.127.732a.165.165,0,0,1-.171.137.844.844,0,0,1-.236-.052,1.493,1.493,0,0,0-.446-.052,1.258,1.258,0,0,0-.855.3,2.222,2.222,0,0,0-.574.863v3.548Z"/>
      <path class="cls-3" d="M100.916,271.808a2.856,2.856,0,0,1,1.1.2,2.32,2.32,0,0,1,.836.577,2.576,2.576,0,0,1,.528.9,3.917,3.917,0,0,1,0,2.373,2.567,2.567,0,0,1-.528.9,2.3,2.3,0,0,1-.836.574,3.127,3.127,0,0,1-2.206,0,2.338,2.338,0,0,1-.839-.574,2.592,2.592,0,0,1-.533-.9,3.877,3.877,0,0,1,0-2.373,2.6,2.6,0,0,1,.533-.9,2.358,2.358,0,0,1,.839-.577A2.856,2.856,0,0,1,100.916,271.808Zm0,4.971a1.431,1.431,0,0,0,1.232-.552,3.144,3.144,0,0,0,0-3.094,1.428,1.428,0,0,0-1.232-.556,1.7,1.7,0,0,0-.726.144,1.351,1.351,0,0,0-.515.412,1.832,1.832,0,0,0-.307.663,3.9,3.9,0,0,0,0,1.773,1.814,1.814,0,0,0,.307.658,1.394,1.394,0,0,0,.515.41A1.728,1.728,0,0,0,100.916,276.779Z"/>
      <path class="cls-3" d="M108.7,277.467a.249.249,0,0,1-.264-.2l-.089-.677a2.9,2.9,0,0,1-.816.695,2.083,2.083,0,0,1-1.053.262,2.008,2.008,0,0,1-.869-.185,1.79,1.79,0,0,1-.666-.542,2.566,2.566,0,0,1-.423-.89,4.594,4.594,0,0,1-.148-1.227,3.839,3.839,0,0,1,.164-1.146,2.788,2.788,0,0,1,.476-.922,2.183,2.183,0,0,1,1.768-.836,2.008,2.008,0,0,1,.875.174,2.075,2.075,0,0,1,.648.486v-3.091h.98v8.1Zm-1.9-.715a1.572,1.572,0,0,0,.839-.22,2.4,2.4,0,0,0,.662-.622v-2.7a1.55,1.55,0,0,0-.59-.508,1.7,1.7,0,0,0-.712-.147,1.412,1.412,0,0,0-1.2.556,2.593,2.593,0,0,0-.417,1.584,4.059,4.059,0,0,0,.093.933,1.788,1.788,0,0,0,.275.637,1.081,1.081,0,0,0,.445.367A1.518,1.518,0,0,0,106.8,276.752Z"/>
      <path class="cls-3" d="M111.773,271.9v3.553a1.484,1.484,0,0,0,.291.98,1.086,1.086,0,0,0,.88.345,1.683,1.683,0,0,0,.809-.2,2.489,2.489,0,0,0,.7-.566V271.9h.979v5.572h-.583a.249.249,0,0,1-.263-.2l-.077-.6a3.089,3.089,0,0,1-.815.646,2.124,2.124,0,0,1-1.034.245,2.015,2.015,0,0,1-.806-.152,1.59,1.59,0,0,1-.586-.426,1.816,1.816,0,0,1-.354-.666,2.952,2.952,0,0,1-.118-.863V271.9Z"/>
      <path class="cls-3" d="M120.842,272.886a.409.409,0,0,1-.087.092.2.2,0,0,1-.127.034.314.314,0,0,1-.179-.069,2.662,2.662,0,0,0-.244-.151,1.962,1.962,0,0,0-.361-.151,1.906,1.906,0,0,0-1.24.077,1.371,1.371,0,0,0-.525.421,1.889,1.889,0,0,0-.32.665,3.318,3.318,0,0,0-.107.875,3.186,3.186,0,0,0,.116.9,1.939,1.939,0,0,0,.324.66,1.383,1.383,0,0,0,.509.407,1.563,1.563,0,0,0,.674.141,1.687,1.687,0,0,0,.588-.086,1.8,1.8,0,0,0,.386-.189,3.121,3.121,0,0,0,.253-.19.306.306,0,0,1,.2-.086.206.206,0,0,1,.186.094l.276.357a2.125,2.125,0,0,1-.908.653,3.229,3.229,0,0,1-1.15.206,2.463,2.463,0,0,1-.971-.192,2.238,2.238,0,0,1-.778-.559,2.663,2.663,0,0,1-.519-.9,3.629,3.629,0,0,1-.19-1.215,3.693,3.693,0,0,1,.173-1.151,2.6,2.6,0,0,1,.506-.91,2.307,2.307,0,0,1,.822-.6,2.786,2.786,0,0,1,1.122-.213A2.634,2.634,0,0,1,120.3,272a2.5,2.5,0,0,1,.8.536Z"/>
      <path class="cls-3" d="M123.867,277.555a1.343,1.343,0,0,1-1.015-.369,1.472,1.472,0,0,1-.354-1.061v-3.41h-.671a.219.219,0,0,1-.149-.053.2.2,0,0,1-.06-.162v-.391l.913-.115.226-1.722a.2.2,0,0,1,.071-.134.226.226,0,0,1,.154-.052h.494v1.919h1.6v.71h-1.6v3.344a.711.711,0,0,0,.171.522.6.6,0,0,0,.441.171.787.787,0,0,0,.266-.041,1.276,1.276,0,0,0,.2-.091c.055-.033.1-.063.14-.091a.187.187,0,0,1,.1-.041.168.168,0,0,1,.137.093l.287.468a1.846,1.846,0,0,1-.611.371A2.068,2.068,0,0,1,123.867,277.555Z"/>
      <path class="cls-3" d="M133.926,269.585v.9H131.38v6.986h-1.067v-6.986h-2.557v-.9Z"/>
      <path class="cls-3" d="M135.994,271.808a2.856,2.856,0,0,1,1.1.2,2.32,2.32,0,0,1,.836.577,2.561,2.561,0,0,1,.528.9,3.917,3.917,0,0,1,0,2.373,2.552,2.552,0,0,1-.528.9,2.3,2.3,0,0,1-.836.574,3.127,3.127,0,0,1-2.206,0,2.338,2.338,0,0,1-.839-.574,2.592,2.592,0,0,1-.533-.9,3.877,3.877,0,0,1,0-2.373,2.6,2.6,0,0,1,.533-.9,2.358,2.358,0,0,1,.839-.577A2.86,2.86,0,0,1,135.994,271.808Zm0,4.971a1.429,1.429,0,0,0,1.232-.552,3.144,3.144,0,0,0,0-3.094,1.427,1.427,0,0,0-1.232-.556,1.7,1.7,0,0,0-.726.144,1.34,1.34,0,0,0-.514.412,1.816,1.816,0,0,0-.308.663,3.9,3.9,0,0,0,0,1.773,1.8,1.8,0,0,0,.308.658,1.383,1.383,0,0,0,.514.41A1.732,1.732,0,0,0,135.994,276.779Z"/>
      <path class="cls-3" d="M140.873,269.365v4.769h.253a.452.452,0,0,0,.181-.031.486.486,0,0,0,.159-.124l1.761-1.885a.965.965,0,0,1,.165-.144.4.4,0,0,1,.22-.055h.891l-2.051,2.184a2.106,2.106,0,0,1-.152.165.881.881,0,0,1-.167.126,1.037,1.037,0,0,1,.178.151,1.492,1.492,0,0,1,.152.2l2.177,2.75h-.88a.424.424,0,0,1-.206-.047.543.543,0,0,1-.162-.146l-1.832-2.282a.407.407,0,0,0-.165-.151.624.624,0,0,0-.247-.036h-.275v2.662h-.985v-8.1Z"/>
      <path class="cls-3" d="M147.5,271.808a2.488,2.488,0,0,1,.924.167,2.072,2.072,0,0,1,.731.484,2.244,2.244,0,0,1,.482.781,3.028,3.028,0,0,1,.172,1.059.632.632,0,0,1-.049.307.2.2,0,0,1-.187.078h-3.707a3.06,3.06,0,0,0,.143.918,1.881,1.881,0,0,0,.363.652,1.437,1.437,0,0,0,.55.39,1.9,1.9,0,0,0,.716.129,2.084,2.084,0,0,0,.634-.085,2.916,2.916,0,0,0,.459-.184,3.53,3.53,0,0,0,.323-.184.431.431,0,0,1,.222-.086.217.217,0,0,1,.187.094l.275.357a1.862,1.862,0,0,1-.434.383,2.7,2.7,0,0,1-.542.267,3.447,3.447,0,0,1-.6.156,3.629,3.629,0,0,1-.611.053,2.86,2.86,0,0,1-1.064-.195,2.345,2.345,0,0,1-.841-.573,2.613,2.613,0,0,1-.553-.931,3.8,3.8,0,0,1-.2-1.277,3.252,3.252,0,0,1,.179-1.089,2.565,2.565,0,0,1,.514-.877,2.351,2.351,0,0,1,.82-.583A2.688,2.688,0,0,1,147.5,271.808Zm.021.719a1.505,1.505,0,0,0-1.116.41,1.934,1.934,0,0,0-.506,1.136h3.03a1.993,1.993,0,0,0-.093-.624,1.393,1.393,0,0,0-.275-.489,1.217,1.217,0,0,0-.443-.319A1.478,1.478,0,0,0,147.516,272.527Z"/>
      <path class="cls-3" d="M151.052,277.467V271.9h.583a.251.251,0,0,1,.265.2l.076.605a3.125,3.125,0,0,1,.812-.649,2.109,2.109,0,0,1,1.037-.247,2,2,0,0,1,.806.151,1.568,1.568,0,0,1,.583.429,1.888,1.888,0,0,1,.354.668,2.889,2.889,0,0,1,.121.863v3.548h-.978v-3.548a1.507,1.507,0,0,0-.289-.982,1.084,1.084,0,0,0-.883-.349,1.651,1.651,0,0,0-.812.209,2.663,2.663,0,0,0-.695.567v4.1Z"/>
      <path class="cls-3" d="M158.005,274.007a8.76,8.76,0,0,0-1.177-4.4.413.413,0,0,1-.055-.187.2.2,0,0,1,.038-.126.374.374,0,0,1,.1-.088l.433-.27a10.47,10.47,0,0,1,.7,1.259,8.552,8.552,0,0,1,.728,2.509,10.417,10.417,0,0,1,0,2.609,8.693,8.693,0,0,1-.262,1.263,8.488,8.488,0,0,1-.466,1.248,10.2,10.2,0,0,1-.7,1.254l-.433-.264a.371.371,0,0,1-.1-.087.208.208,0,0,1-.038-.127.327.327,0,0,1,.011-.088.475.475,0,0,1,.044-.105,9.127,9.127,0,0,0,.875-2.114A8.671,8.671,0,0,0,158.005,274.007Z"/>
    </g>
    <path class="cls-4" d="M221.536,321.717a45,45,0,1,1-45,45A45,45,0,0,1,221.536,321.717Z"/>
    <g>
      <path class="cls-5" d="M215.168,359.394v4.073h-2.151V351.9h3.767a6.575,6.575,0,0,1,2.008.273,3.857,3.857,0,0,1,1.4.76,2.98,2.98,0,0,1,.816,1.168,4.343,4.343,0,0,1-.017,3.028,3.187,3.187,0,0,1-.839,1.2,3.916,3.916,0,0,1-1.4.784,6.221,6.221,0,0,1-1.968.279Zm0-1.679h1.616a3.207,3.207,0,0,0,1.033-.149,1.9,1.9,0,0,0,.727-.423,1.748,1.748,0,0,0,.433-.672,2.6,2.6,0,0,0,.143-.884,2.349,2.349,0,0,0-.143-.84,1.671,1.671,0,0,0-.433-.641,1.92,1.92,0,0,0-.727-.4,3.4,3.4,0,0,0-1.033-.141h-1.616Z"/>
      <path class="cls-5" d="M231.1,351.9v1.769h-3.481v9.8h-2.151v-9.8h-3.5V351.9Z"/>
      <path class="cls-5" d="M185,374.007a8.671,8.671,0,0,0,.3,2.286,9.127,9.127,0,0,0,.875,2.114.475.475,0,0,1,.044.105.372.372,0,0,1,.011.088.208.208,0,0,1-.038.127.387.387,0,0,1-.1.087l-.435.264a10.442,10.442,0,0,1-.7-1.254,8.587,8.587,0,0,1-.728-2.511,10.417,10.417,0,0,1,0-2.609,8.333,8.333,0,0,1,.262-1.263,8.6,8.6,0,0,1,.466-1.246,10.729,10.729,0,0,1,.7-1.259l.435.27a.39.39,0,0,1,.1.088.2.2,0,0,1,.038.126.413.413,0,0,1-.055.187,8.76,8.76,0,0,0-1.177,4.4Z"/>
      <path class="cls-5" d="M188.834,374.519v2.948h-1.061v-7.882H190.1a4.351,4.351,0,0,1,1.3.174,2.5,2.5,0,0,1,.916.492,2.005,2.005,0,0,1,.541.769,2.719,2.719,0,0,1,.178,1.007,2.557,2.557,0,0,1-.192,1.007,2.149,2.149,0,0,1-.564.786,2.618,2.618,0,0,1-.92.515,4,4,0,0,1-1.26.184Zm0-.847H190.1a2.443,2.443,0,0,0,.805-.121,1.672,1.672,0,0,0,.586-.338,1.417,1.417,0,0,0,.358-.521,1.785,1.785,0,0,0,.121-.665,1.509,1.509,0,0,0-.465-1.176,2.023,2.023,0,0,0-1.405-.424h-1.265Z"/>
      <path class="cls-5" d="M194.229,377.467V371.9h.561a.3.3,0,0,1,.22.061.372.372,0,0,1,.082.209l.066.869a2.553,2.553,0,0,1,.707-.91,1.56,1.56,0,0,1,.988-.328,1.513,1.513,0,0,1,.418.053,1.478,1.478,0,0,1,.346.145l-.127.732a.165.165,0,0,1-.17.137.856.856,0,0,1-.237-.052,1.485,1.485,0,0,0-.445-.052,1.26,1.26,0,0,0-.856.3,2.244,2.244,0,0,0-.574.863v3.548Z"/>
      <path class="cls-5" d="M200.916,371.808a2.861,2.861,0,0,1,1.1.2,2.328,2.328,0,0,1,.836.577,2.574,2.574,0,0,1,.527.9,3.9,3.9,0,0,1,0,2.373,2.565,2.565,0,0,1-.527.9,2.309,2.309,0,0,1-.836.574,3.127,3.127,0,0,1-2.206,0,2.329,2.329,0,0,1-.839-.574,2.577,2.577,0,0,1-.533-.9,3.858,3.858,0,0,1,0-2.373,2.586,2.586,0,0,1,.533-.9,2.349,2.349,0,0,1,.839-.577A2.855,2.855,0,0,1,200.916,371.808Zm0,4.971a1.433,1.433,0,0,0,1.233-.552,3.144,3.144,0,0,0,0-3.094,1.43,1.43,0,0,0-1.233-.556,1.7,1.7,0,0,0-.725.144,1.351,1.351,0,0,0-.515.412,1.833,1.833,0,0,0-.308.663,3.941,3.941,0,0,0,0,1.773,1.816,1.816,0,0,0,.308.658,1.394,1.394,0,0,0,.515.41A1.727,1.727,0,0,0,200.916,376.779Z"/>
      <path class="cls-5" d="M208.7,377.467a.249.249,0,0,1-.263-.2l-.089-.677a2.906,2.906,0,0,1-.817.695,2.079,2.079,0,0,1-1.052.262,2,2,0,0,1-.869-.185,1.782,1.782,0,0,1-.666-.542,2.548,2.548,0,0,1-.423-.89,4.551,4.551,0,0,1-.149-1.227,3.871,3.871,0,0,1,.164-1.146,2.809,2.809,0,0,1,.477-.922,2.183,2.183,0,0,1,1.767-.836,2.008,2.008,0,0,1,.875.174,2.079,2.079,0,0,1,.649.486v-3.091h.979v8.1Zm-1.9-.715a1.575,1.575,0,0,0,.839-.22,2.411,2.411,0,0,0,.662-.622v-2.7a1.552,1.552,0,0,0-.591-.508,1.7,1.7,0,0,0-.712-.147,1.41,1.41,0,0,0-1.2.556,2.593,2.593,0,0,0-.418,1.584,4,4,0,0,0,.094.933,1.77,1.77,0,0,0,.274.637,1.088,1.088,0,0,0,.445.367A1.52,1.52,0,0,0,206.8,376.752Z"/>
      <path class="cls-5" d="M211.774,371.9v3.553a1.479,1.479,0,0,0,.291.98,1.086,1.086,0,0,0,.88.345,1.679,1.679,0,0,0,.808-.2,2.489,2.489,0,0,0,.7-.566V371.9h.98v5.572h-.583a.249.249,0,0,1-.264-.2l-.077-.6a3.085,3.085,0,0,1-.814.646,2.128,2.128,0,0,1-1.035.245,2.01,2.01,0,0,1-.8-.152,1.582,1.582,0,0,1-.586-.426,1.817,1.817,0,0,1-.355-.666,2.952,2.952,0,0,1-.118-.863V371.9Z"/>
      <path class="cls-5" d="M220.843,372.886a.411.411,0,0,1-.088.092.2.2,0,0,1-.127.034.316.316,0,0,1-.179-.069,2.412,2.412,0,0,0-.244-.151,1.922,1.922,0,0,0-.36-.151,1.7,1.7,0,0,0-.52-.069,1.678,1.678,0,0,0-.72.146,1.382,1.382,0,0,0-.526.421,1.887,1.887,0,0,0-.319.665,3.318,3.318,0,0,0-.107.875,3.186,3.186,0,0,0,.116.9,1.921,1.921,0,0,0,.324.66,1.383,1.383,0,0,0,.509.407,1.563,1.563,0,0,0,.674.141,1.681,1.681,0,0,0,.587-.086,1.757,1.757,0,0,0,.386-.189,2.8,2.8,0,0,0,.253-.19.31.31,0,0,1,.2-.086.208.208,0,0,1,.187.094l.275.357a2.125,2.125,0,0,1-.908.653,3.223,3.223,0,0,1-1.149.206,2.46,2.46,0,0,1-.971-.192,2.219,2.219,0,0,1-.778-.559,2.664,2.664,0,0,1-.52-.9,3.958,3.958,0,0,1-.016-2.366,2.617,2.617,0,0,1,.5-.91,2.3,2.3,0,0,1,.823-.6,2.786,2.786,0,0,1,1.122-.213A2.641,2.641,0,0,1,220.3,372a2.508,2.508,0,0,1,.8.536Z"/>
      <path class="cls-5" d="M223.867,377.555a1.341,1.341,0,0,1-1.014-.369,1.468,1.468,0,0,1-.355-1.061v-3.41h-.671a.218.218,0,0,1-.148-.053.2.2,0,0,1-.061-.162v-.391l.913-.115.226-1.722a.2.2,0,0,1,.071-.134.227.227,0,0,1,.155-.052h.494v1.919h1.595v.71h-1.595v3.344a.707.707,0,0,0,.171.522.593.593,0,0,0,.44.171.793.793,0,0,0,.267-.041,1.322,1.322,0,0,0,.2-.091c.055-.033.1-.063.14-.091a.187.187,0,0,1,.1-.041.168.168,0,0,1,.138.093l.286.468a1.841,1.841,0,0,1-.61.371A2.078,2.078,0,0,1,223.867,377.555Z"/>
      <path class="cls-5" d="M233.927,369.585v.9H231.38v6.986h-1.066v-6.986h-2.558v-.9Z"/>
      <path class="cls-5" d="M235.994,371.808a2.858,2.858,0,0,1,1.1.2,2.328,2.328,0,0,1,.836.577,2.574,2.574,0,0,1,.527.9,3.9,3.9,0,0,1,0,2.373,2.565,2.565,0,0,1-.527.9,2.309,2.309,0,0,1-.836.574,3.127,3.127,0,0,1-2.206,0,2.329,2.329,0,0,1-.839-.574,2.577,2.577,0,0,1-.533-.9,3.858,3.858,0,0,1,0-2.373,2.586,2.586,0,0,1,.533-.9,2.349,2.349,0,0,1,.839-.577A2.855,2.855,0,0,1,235.994,371.808Zm0,4.971a1.433,1.433,0,0,0,1.233-.552,3.144,3.144,0,0,0,0-3.094,1.43,1.43,0,0,0-1.233-.556,1.7,1.7,0,0,0-.725.144,1.351,1.351,0,0,0-.515.412,1.833,1.833,0,0,0-.308.663,3.941,3.941,0,0,0,0,1.773,1.816,1.816,0,0,0,.308.658,1.394,1.394,0,0,0,.515.41A1.727,1.727,0,0,0,235.994,376.779Z"/>
      <path class="cls-5" d="M240.873,369.365v4.769h.253a.458.458,0,0,0,.182-.031.5.5,0,0,0,.159-.124l1.761-1.885a.9.9,0,0,1,.165-.144.392.392,0,0,1,.219-.055h.891l-2.051,2.184a1.926,1.926,0,0,1-.151.165.922.922,0,0,1-.168.126,1.084,1.084,0,0,1,.179.151,1.579,1.579,0,0,1,.151.2l2.178,2.75h-.88a.424.424,0,0,1-.206-.047.532.532,0,0,1-.162-.146l-1.832-2.282a.42.42,0,0,0-.165-.151.631.631,0,0,0-.247-.036h-.276v2.662h-.984v-8.1Z"/>
      <path class="cls-5" d="M247.5,371.808a2.485,2.485,0,0,1,.924.167,2.085,2.085,0,0,1,.732.484,2.227,2.227,0,0,1,.481.781,3.027,3.027,0,0,1,.173,1.059.629.629,0,0,1-.05.307.2.2,0,0,1-.186.078h-3.707a3.03,3.03,0,0,0,.142.918,1.9,1.9,0,0,0,.363.652,1.444,1.444,0,0,0,.55.39,1.9,1.9,0,0,0,.716.129,2.1,2.1,0,0,0,.635-.085,2.956,2.956,0,0,0,.459-.184,3.5,3.5,0,0,0,.322-.184.434.434,0,0,1,.223-.086.216.216,0,0,1,.186.094l.276.357a1.867,1.867,0,0,1-.435.383,2.7,2.7,0,0,1-.542.267,3.423,3.423,0,0,1-.6.156,3.626,3.626,0,0,1-.61.053,2.857,2.857,0,0,1-1.064-.195,2.328,2.328,0,0,1-.841-.573,2.6,2.6,0,0,1-.553-.931,3.772,3.772,0,0,1-.2-1.277,3.252,3.252,0,0,1,.178-1.089,2.581,2.581,0,0,1,.514-.877,2.361,2.361,0,0,1,.82-.583A2.7,2.7,0,0,1,247.5,371.808Zm.022.719a1.5,1.5,0,0,0-1.116.41,1.922,1.922,0,0,0-.506,1.136h3.03a1.964,1.964,0,0,0-.094-.624,1.376,1.376,0,0,0-.274-.489,1.221,1.221,0,0,0-.444-.319A1.474,1.474,0,0,0,247.517,372.527Z"/>
      <path class="cls-5" d="M251.053,377.467V371.9h.583a.251.251,0,0,1,.265.2l.076.605a3.121,3.121,0,0,1,.811-.649,2.112,2.112,0,0,1,1.037-.247,2,2,0,0,1,.806.151,1.56,1.56,0,0,1,.583.429,1.905,1.905,0,0,1,.355.668,2.889,2.889,0,0,1,.121.863v3.548h-.979v-3.548a1.507,1.507,0,0,0-.289-.982,1.082,1.082,0,0,0-.883-.349,1.647,1.647,0,0,0-.811.209,2.667,2.667,0,0,0-.7.567v4.1Z"/>
      <path class="cls-5" d="M258.005,374.007a8.76,8.76,0,0,0-1.177-4.4.41.41,0,0,1-.054-.187.2.2,0,0,1,.038-.126.355.355,0,0,1,.1-.088l.434-.27a10.458,10.458,0,0,1,.7,1.259,8.6,8.6,0,0,1,.467,1.246,8.716,8.716,0,0,1,.262,1.263,10.417,10.417,0,0,1,0,2.609,8.828,8.828,0,0,1-.262,1.263,8.495,8.495,0,0,1-.467,1.248,10.184,10.184,0,0,1-.7,1.254l-.434-.264a.352.352,0,0,1-.1-.087.2.2,0,0,1-.038-.127.371.371,0,0,1,.01-.088.529.529,0,0,1,.044-.105,9.127,9.127,0,0,0,.875-2.114A8.671,8.671,0,0,0,258.005,374.007Z"/>
    </g>
    <path class="cls-2" d="M321.536,221.717a45,45,0,1,1-45,45A45,45,0,0,1,321.536,221.717Z"/>
    <g>
      <path class="cls-3" d="M315.168,259.394v4.073h-2.152V251.9h3.768a6.584,6.584,0,0,1,2.008.273,3.853,3.853,0,0,1,1.4.76,2.969,2.969,0,0,1,.816,1.168,4.075,4.075,0,0,1,.264,1.488,4.129,4.129,0,0,1-.28,1.54,3.2,3.2,0,0,1-.84,1.2,3.912,3.912,0,0,1-1.4.784,6.225,6.225,0,0,1-1.968.279Zm0-1.679h1.616a3.2,3.2,0,0,0,1.032-.149,1.91,1.91,0,0,0,.728-.423,1.746,1.746,0,0,0,.432-.672,2.573,2.573,0,0,0,.144-.884,2.328,2.328,0,0,0-.144-.84,1.669,1.669,0,0,0-.432-.641,1.932,1.932,0,0,0-.728-.4,3.393,3.393,0,0,0-1.032-.141h-1.616Z"/>
      <path class="cls-3" d="M331.1,251.9v1.769h-3.48v9.8h-2.151v-9.8h-3.5V251.9Z"/>
      <path class="cls-3" d="M285,274.007a8.63,8.63,0,0,0,.3,2.286,9.127,9.127,0,0,0,.875,2.114.529.529,0,0,1,.044.105.432.432,0,0,1,.01.088.2.2,0,0,1-.038.127.366.366,0,0,1-.1.087l-.435.264a10.306,10.306,0,0,1-.7-1.254,8.382,8.382,0,0,1-.467-1.248,8.693,8.693,0,0,1-.262-1.263,10.417,10.417,0,0,1,0-2.609,8.584,8.584,0,0,1,.262-1.263,8.486,8.486,0,0,1,.467-1.246,10.586,10.586,0,0,1,.7-1.259l.435.27a.369.369,0,0,1,.1.088.2.2,0,0,1,.038.126.41.41,0,0,1-.054.187,8.76,8.76,0,0,0-1.177,4.4Z"/>
      <path class="cls-3" d="M288.834,274.519v2.948h-1.062v-7.882H290.1a4.346,4.346,0,0,1,1.3.174,2.491,2.491,0,0,1,.916.492,2,2,0,0,1,.541.769,2.719,2.719,0,0,1,.179,1.007,2.557,2.557,0,0,1-.193,1.007,2.146,2.146,0,0,1-.563.786,2.623,2.623,0,0,1-.921.515,3.988,3.988,0,0,1-1.26.184Zm0-.847H290.1a2.445,2.445,0,0,0,.806-.121,1.681,1.681,0,0,0,.586-.338,1.427,1.427,0,0,0,.357-.521,1.785,1.785,0,0,0,.121-.665,1.512,1.512,0,0,0-.464-1.176,2.027,2.027,0,0,0-1.406-.424h-1.264Z"/>
      <path class="cls-3" d="M294.228,277.467V271.9h.562a.3.3,0,0,1,.219.061.365.365,0,0,1,.082.209l.067.869a2.542,2.542,0,0,1,.707-.91,1.555,1.555,0,0,1,.987-.328,1.483,1.483,0,0,1,.765.2l-.127.732a.165.165,0,0,1-.171.137.844.844,0,0,1-.236-.052,1.493,1.493,0,0,0-.446-.052,1.258,1.258,0,0,0-.855.3,2.222,2.222,0,0,0-.574.863v3.548Z"/>
      <path class="cls-3" d="M300.916,271.808a2.856,2.856,0,0,1,1.1.2,2.32,2.32,0,0,1,.836.577,2.576,2.576,0,0,1,.528.9,3.917,3.917,0,0,1,0,2.373,2.567,2.567,0,0,1-.528.9,2.3,2.3,0,0,1-.836.574,3.127,3.127,0,0,1-2.206,0,2.338,2.338,0,0,1-.839-.574,2.592,2.592,0,0,1-.533-.9,3.877,3.877,0,0,1,0-2.373,2.6,2.6,0,0,1,.533-.9,2.358,2.358,0,0,1,.839-.577A2.856,2.856,0,0,1,300.916,271.808Zm0,4.971a1.431,1.431,0,0,0,1.232-.552,3.144,3.144,0,0,0,0-3.094,1.428,1.428,0,0,0-1.232-.556,1.7,1.7,0,0,0-.726.144,1.351,1.351,0,0,0-.515.412,1.832,1.832,0,0,0-.307.663,3.9,3.9,0,0,0,0,1.773,1.814,1.814,0,0,0,.307.658,1.394,1.394,0,0,0,.515.41A1.728,1.728,0,0,0,300.916,276.779Z"/>
      <path class="cls-3" d="M308.7,277.467a.249.249,0,0,1-.264-.2l-.089-.677a2.9,2.9,0,0,1-.816.695,2.083,2.083,0,0,1-1.053.262,2.008,2.008,0,0,1-.869-.185,1.79,1.79,0,0,1-.666-.542,2.566,2.566,0,0,1-.423-.89,4.594,4.594,0,0,1-.148-1.227,3.839,3.839,0,0,1,.164-1.146,2.788,2.788,0,0,1,.476-.922,2.183,2.183,0,0,1,1.768-.836,2.008,2.008,0,0,1,.875.174,2.075,2.075,0,0,1,.648.486v-3.091h.98v8.1Zm-1.9-.715a1.572,1.572,0,0,0,.839-.22,2.4,2.4,0,0,0,.662-.622v-2.7a1.55,1.55,0,0,0-.59-.508,1.7,1.7,0,0,0-.712-.147,1.412,1.412,0,0,0-1.2.556,2.593,2.593,0,0,0-.417,1.584,4.059,4.059,0,0,0,.093.933,1.788,1.788,0,0,0,.275.637,1.081,1.081,0,0,0,.445.367A1.518,1.518,0,0,0,306.8,276.752Z"/>
      <path class="cls-3" d="M311.773,271.9v3.553a1.484,1.484,0,0,0,.291.98,1.086,1.086,0,0,0,.88.345,1.683,1.683,0,0,0,.809-.2,2.489,2.489,0,0,0,.7-.566V271.9h.979v5.572h-.583a.249.249,0,0,1-.263-.2l-.077-.6a3.089,3.089,0,0,1-.815.646,2.124,2.124,0,0,1-1.034.245,2.015,2.015,0,0,1-.806-.152,1.59,1.59,0,0,1-.586-.426,1.816,1.816,0,0,1-.354-.666,2.952,2.952,0,0,1-.118-.863V271.9Z"/>
      <path class="cls-3" d="M320.842,272.886a.409.409,0,0,1-.087.092.2.2,0,0,1-.127.034.314.314,0,0,1-.179-.069,2.662,2.662,0,0,0-.244-.151,1.962,1.962,0,0,0-.361-.151,1.906,1.906,0,0,0-1.24.077,1.371,1.371,0,0,0-.525.421,1.889,1.889,0,0,0-.32.665,3.318,3.318,0,0,0-.107.875,3.186,3.186,0,0,0,.116.9,1.939,1.939,0,0,0,.324.66,1.383,1.383,0,0,0,.509.407,1.563,1.563,0,0,0,.674.141,1.687,1.687,0,0,0,.588-.086,1.8,1.8,0,0,0,.386-.189,3.121,3.121,0,0,0,.253-.19.306.306,0,0,1,.2-.086.206.206,0,0,1,.186.094l.276.357a2.125,2.125,0,0,1-.908.653,3.229,3.229,0,0,1-1.15.206,2.463,2.463,0,0,1-.971-.192,2.238,2.238,0,0,1-.778-.559,2.663,2.663,0,0,1-.519-.9,3.629,3.629,0,0,1-.19-1.215,3.693,3.693,0,0,1,.173-1.151,2.6,2.6,0,0,1,.506-.91,2.307,2.307,0,0,1,.822-.6,2.786,2.786,0,0,1,1.122-.213A2.634,2.634,0,0,1,320.3,272a2.5,2.5,0,0,1,.8.536Z"/>
      <path class="cls-3" d="M323.867,277.555a1.343,1.343,0,0,1-1.015-.369,1.472,1.472,0,0,1-.354-1.061v-3.41h-.671a.219.219,0,0,1-.149-.053.2.2,0,0,1-.06-.162v-.391l.913-.115.226-1.722a.2.2,0,0,1,.071-.134.226.226,0,0,1,.154-.052h.494v1.919h1.6v.71h-1.6v3.344a.711.711,0,0,0,.171.522.6.6,0,0,0,.441.171.787.787,0,0,0,.266-.041,1.276,1.276,0,0,0,.195-.091c.055-.033.1-.063.14-.091a.187.187,0,0,1,.1-.041.168.168,0,0,1,.137.093l.287.468a1.846,1.846,0,0,1-.611.371A2.068,2.068,0,0,1,323.867,277.555Z"/>
      <path class="cls-3" d="M333.926,269.585v.9H331.38v6.986h-1.067v-6.986h-2.557v-.9Z"/>
      <path class="cls-3" d="M335.994,271.808a2.856,2.856,0,0,1,1.1.2,2.32,2.32,0,0,1,.836.577,2.561,2.561,0,0,1,.528.9,3.917,3.917,0,0,1,0,2.373,2.552,2.552,0,0,1-.528.9,2.3,2.3,0,0,1-.836.574,3.127,3.127,0,0,1-2.206,0,2.338,2.338,0,0,1-.839-.574,2.592,2.592,0,0,1-.533-.9,3.877,3.877,0,0,1,0-2.373,2.6,2.6,0,0,1,.533-.9,2.358,2.358,0,0,1,.839-.577A2.86,2.86,0,0,1,335.994,271.808Zm0,4.971a1.429,1.429,0,0,0,1.232-.552,3.144,3.144,0,0,0,0-3.094,1.427,1.427,0,0,0-1.232-.556,1.7,1.7,0,0,0-.726.144,1.34,1.34,0,0,0-.514.412,1.816,1.816,0,0,0-.308.663,3.9,3.9,0,0,0,0,1.773,1.8,1.8,0,0,0,.308.658,1.383,1.383,0,0,0,.514.41A1.732,1.732,0,0,0,335.994,276.779Z"/>
      <path class="cls-3" d="M340.873,269.365v4.769h.253a.452.452,0,0,0,.181-.031.486.486,0,0,0,.159-.124l1.761-1.885a.965.965,0,0,1,.165-.144.4.4,0,0,1,.22-.055h.891l-2.051,2.184a2.106,2.106,0,0,1-.152.165.881.881,0,0,1-.167.126,1.037,1.037,0,0,1,.178.151,1.492,1.492,0,0,1,.152.2l2.177,2.75h-.88a.424.424,0,0,1-.206-.047.543.543,0,0,1-.162-.146l-1.832-2.282a.407.407,0,0,0-.165-.151.624.624,0,0,0-.247-.036h-.275v2.662h-.985v-8.1Z"/>
      <path class="cls-3" d="M347.5,271.808a2.488,2.488,0,0,1,.924.167,2.072,2.072,0,0,1,.731.484,2.244,2.244,0,0,1,.482.781,3.028,3.028,0,0,1,.172,1.059.632.632,0,0,1-.049.307.2.2,0,0,1-.187.078h-3.707a3.06,3.06,0,0,0,.143.918,1.881,1.881,0,0,0,.363.652,1.437,1.437,0,0,0,.55.39,1.9,1.9,0,0,0,.716.129,2.084,2.084,0,0,0,.634-.085,2.916,2.916,0,0,0,.459-.184,3.53,3.53,0,0,0,.323-.184.431.431,0,0,1,.222-.086.217.217,0,0,1,.187.094l.275.357a1.862,1.862,0,0,1-.434.383,2.7,2.7,0,0,1-.542.267,3.447,3.447,0,0,1-.6.156,3.629,3.629,0,0,1-.611.053,2.86,2.86,0,0,1-1.064-.195,2.345,2.345,0,0,1-.841-.573,2.613,2.613,0,0,1-.553-.931,3.8,3.8,0,0,1-.2-1.277,3.252,3.252,0,0,1,.179-1.089,2.565,2.565,0,0,1,.514-.877,2.351,2.351,0,0,1,.82-.583A2.688,2.688,0,0,1,347.5,271.808Zm.021.719a1.505,1.505,0,0,0-1.116.41,1.934,1.934,0,0,0-.506,1.136h3.03a1.993,1.993,0,0,0-.093-.624,1.393,1.393,0,0,0-.275-.489,1.217,1.217,0,0,0-.443-.319A1.478,1.478,0,0,0,347.516,272.527Z"/>
      <path class="cls-3" d="M351.052,277.467V271.9h.583a.251.251,0,0,1,.265.2l.076.605a3.125,3.125,0,0,1,.812-.649,2.109,2.109,0,0,1,1.037-.247,2,2,0,0,1,.806.151,1.568,1.568,0,0,1,.583.429,1.888,1.888,0,0,1,.354.668,2.889,2.889,0,0,1,.121.863v3.548h-.978v-3.548a1.507,1.507,0,0,0-.289-.982,1.084,1.084,0,0,0-.883-.349,1.651,1.651,0,0,0-.812.209,2.663,2.663,0,0,0-.695.567v4.1Z"/>
      <path class="cls-3" d="M358.005,274.007a8.76,8.76,0,0,0-1.177-4.4.413.413,0,0,1-.055-.187.2.2,0,0,1,.038-.126.374.374,0,0,1,.1-.088l.433-.27a10.47,10.47,0,0,1,.7,1.259,8.552,8.552,0,0,1,.728,2.509,10.417,10.417,0,0,1,0,2.609,8.693,8.693,0,0,1-.262,1.263,8.488,8.488,0,0,1-.466,1.248,10.2,10.2,0,0,1-.7,1.254l-.433-.264a.371.371,0,0,1-.1-.087.208.208,0,0,1-.038-.127.327.327,0,0,1,.011-.088.475.475,0,0,1,.044-.105,9.127,9.127,0,0,0,.875-2.114A8.671,8.671,0,0,0,358.005,274.007Z"/>
    </g>
    <g>
      <path class="cls-3" d="M216.684,258.727c.056.141.111.284.164.428.054-.149.109-.292.168-.428s.126-.274.2-.413l3.88-7.047a.45.45,0,0,1,.217-.224,1,1,0,0,1,.319-.04h1.145v11.464h-1.361v-8.424c0-.112,0-.233.008-.36s.014-.259.024-.392l-3.927,7.168a.618.618,0,0,1-.561.359h-.223a.617.617,0,0,1-.561-.359l-4.016-7.192c.016.138.029.275.036.408s.012.256.012.368v8.424h-1.36V251h1.144a1.025,1.025,0,0,1,.321.04.456.456,0,0,1,.215.224l3.96,7.056A2.956,2.956,0,0,1,216.684,258.727Z"/>
      <path class="cls-3" d="M233.376,251v1.3h-3.7v10.16H228.12v-10.16H224.4V251Z"/>
      <path class="cls-3" d="M174.408,274.179v4.288h-1.544V267h3.384a6.354,6.354,0,0,1,1.893.252,3.633,3.633,0,0,1,1.332.716,2.9,2.9,0,0,1,.788,1.12,3.951,3.951,0,0,1,.26,1.464,3.727,3.727,0,0,1-.281,1.464,3.148,3.148,0,0,1-.819,1.144,3.838,3.838,0,0,1-1.341.748,5.744,5.744,0,0,1-1.832.268Zm0-1.232h1.84a3.559,3.559,0,0,0,1.173-.177,2.4,2.4,0,0,0,.852-.492,2.044,2.044,0,0,0,.52-.756,2.584,2.584,0,0,0,.176-.967,2.2,2.2,0,0,0-.676-1.712,2.957,2.957,0,0,0-2.045-.616h-1.84Z"/>
      <path class="cls-3" d="M182.257,278.467v-8.1h.816a.454.454,0,0,1,.32.088.547.547,0,0,1,.12.3l.1,1.264a3.707,3.707,0,0,1,1.028-1.325,2.279,2.279,0,0,1,1.436-.475,2.248,2.248,0,0,1,.608.076,2.131,2.131,0,0,1,.5.212L187,271.57a.24.24,0,0,1-.248.2,1.232,1.232,0,0,1-.344-.076,2.2,2.2,0,0,0-.648-.075,1.837,1.837,0,0,0-1.244.432,3.249,3.249,0,0,0-.836,1.256v5.16Z"/>
      <path class="cls-3" d="M191.985,270.234a4.166,4.166,0,0,1,1.6.3,3.365,3.365,0,0,1,1.216.84,3.694,3.694,0,0,1,.768,1.315,5.7,5.7,0,0,1,0,3.453,3.716,3.716,0,0,1-.768,1.312,3.344,3.344,0,0,1-1.216.836,4.552,4.552,0,0,1-3.208,0,3.393,3.393,0,0,1-1.22-.836,3.762,3.762,0,0,1-.776-1.312,5.615,5.615,0,0,1,0-3.453,3.74,3.74,0,0,1,.776-1.315,3.415,3.415,0,0,1,1.22-.84A4.176,4.176,0,0,1,191.985,270.234Zm0,7.233a2.082,2.082,0,0,0,1.792-.8,4.578,4.578,0,0,0,0-4.5,2.078,2.078,0,0,0-1.792-.809,2.5,2.5,0,0,0-1.057.208,1.973,1.973,0,0,0-.748.6,2.662,2.662,0,0,0-.447.964,5.659,5.659,0,0,0,0,2.58,2.63,2.63,0,0,0,.447.956,1.989,1.989,0,0,0,.748.6A2.5,2.5,0,0,0,191.985,277.467Z"/>
      <path class="cls-3" d="M203.305,278.467a.363.363,0,0,1-.384-.3l-.128-.985a4.279,4.279,0,0,1-1.188,1.013,3.05,3.05,0,0,1-1.533.38,2.921,2.921,0,0,1-1.263-.269,2.611,2.611,0,0,1-.968-.788,3.721,3.721,0,0,1-.616-1.3,6.673,6.673,0,0,1-.216-1.785,5.6,5.6,0,0,1,.24-1.668,4.048,4.048,0,0,1,.692-1.339,3.174,3.174,0,0,1,2.572-1.216,2.925,2.925,0,0,1,1.271.252,3.05,3.05,0,0,1,.945.708v-4.5h1.424v11.784Zm-2.76-1.04a2.29,2.29,0,0,0,1.22-.321,3.5,3.5,0,0,0,.964-.9v-3.92a2.259,2.259,0,0,0-.861-.74,2.466,2.466,0,0,0-1.035-.212,2.052,2.052,0,0,0-1.744.808,3.774,3.774,0,0,0-.608,2.3,5.9,5.9,0,0,0,.135,1.357,2.618,2.618,0,0,0,.4.928,1.571,1.571,0,0,0,.648.532A2.175,2.175,0,0,0,200.545,277.427Z"/>
      <path class="cls-3" d="M207.777,270.363v5.168a2.149,2.149,0,0,0,.423,1.424,1.578,1.578,0,0,0,1.28.5,2.456,2.456,0,0,0,1.176-.3,3.665,3.665,0,0,0,1.016-.824v-5.976H213.1v8.1h-.848a.363.363,0,0,1-.384-.3l-.112-.872a4.459,4.459,0,0,1-1.183.94,3.112,3.112,0,0,1-1.5.356,2.939,2.939,0,0,1-1.173-.22,2.346,2.346,0,0,1-.852-.62,2.627,2.627,0,0,1-.515-.968,4.281,4.281,0,0,1-.173-1.256v-5.168Z"/>
      <path class="cls-3" d="M220.969,271.8a.645.645,0,0,1-.128.135.3.3,0,0,1-.185.048.454.454,0,0,1-.259-.1,3.709,3.709,0,0,0-.357-.22,2.972,2.972,0,0,0-.523-.22,2.78,2.78,0,0,0-1.8.112,2.019,2.019,0,0,0-.765.612,2.766,2.766,0,0,0-.463.968,4.8,4.8,0,0,0-.157,1.272,4.686,4.686,0,0,0,.168,1.308,2.845,2.845,0,0,0,.473.96,2,2,0,0,0,.739.591,2.275,2.275,0,0,0,.981.205,2.5,2.5,0,0,0,.856-.124,2.608,2.608,0,0,0,.56-.276,4.171,4.171,0,0,0,.368-.276.44.44,0,0,1,.288-.124.3.3,0,0,1,.271.135l.4.521a3.071,3.071,0,0,1-1.321.947,4.674,4.674,0,0,1-1.671.3,3.557,3.557,0,0,1-1.413-.28,3.212,3.212,0,0,1-1.131-.813,3.812,3.812,0,0,1-.756-1.307,5.237,5.237,0,0,1-.277-1.768,5.338,5.338,0,0,1,.252-1.672,3.763,3.763,0,0,1,.737-1.324,3.315,3.315,0,0,1,1.2-.868,4.033,4.033,0,0,1,1.632-.313,3.853,3.853,0,0,1,1.5.277,3.587,3.587,0,0,1,1.16.78Z"/>
      <path class="cls-3" d="M225.368,278.6a1.954,1.954,0,0,1-1.475-.536,2.138,2.138,0,0,1-.517-1.544v-4.96H222.4a.316.316,0,0,1-.216-.077.288.288,0,0,1-.089-.235v-.568l1.328-.168.328-2.5a.3.3,0,0,1,.1-.2.325.325,0,0,1,.223-.077h.72v2.792h2.32v1.033H224.8v4.864a1.036,1.036,0,0,0,.248.76.87.87,0,0,0,.641.248,1.128,1.128,0,0,0,.387-.06,1.614,1.614,0,0,0,.285-.133c.08-.048.147-.091.2-.132a.259.259,0,0,1,.147-.059.243.243,0,0,1,.2.136l.416.679a2.614,2.614,0,0,1-.887.54A3.012,3.012,0,0,1,225.368,278.6Z"/>
      <path class="cls-3" d="M240.272,276.1a.321.321,0,0,1,.232.1l.608.664a4.9,4.9,0,0,1-1.709,1.272,5.831,5.831,0,0,1-2.419.456,5.7,5.7,0,0,1-2.248-.428,4.925,4.925,0,0,1-1.72-1.2,5.417,5.417,0,0,1-1.1-1.852,6.934,6.934,0,0,1-.392-2.376,6.5,6.5,0,0,1,.42-2.376,5.421,5.421,0,0,1,1.18-1.856,5.266,5.266,0,0,1,1.82-1.2,6.2,6.2,0,0,1,2.34-.428,5.223,5.223,0,0,1,3.808,1.456l-.5.712a.537.537,0,0,1-.128.132.349.349,0,0,1-.208.052.407.407,0,0,1-.22-.077c-.078-.049-.169-.113-.276-.187s-.232-.154-.376-.24a3.421,3.421,0,0,0-.512-.241,4.339,4.339,0,0,0-.688-.187,4.769,4.769,0,0,0-.9-.076,4.355,4.355,0,0,0-1.684.316,3.76,3.76,0,0,0-1.316.9,4.076,4.076,0,0,0-.86,1.423,5.426,5.426,0,0,0-.308,1.881,5.508,5.508,0,0,0,.308,1.911,4.2,4.2,0,0,0,.84,1.42,3.538,3.538,0,0,0,1.26.885,4.039,4.039,0,0,0,1.568.3,6.37,6.37,0,0,0,.92-.06,3.8,3.8,0,0,0,.756-.188,3.135,3.135,0,0,0,.647-.325,4.877,4.877,0,0,0,.605-.467A.408.408,0,0,1,240.272,276.1Z"/>
      <path class="cls-3" d="M242.928,278.467V266.683h1.424v4.768a4.37,4.37,0,0,1,1.152-.885,3.1,3.1,0,0,1,1.456-.332,2.938,2.938,0,0,1,1.172.221,2.275,2.275,0,0,1,.848.624,2.78,2.78,0,0,1,.516.972,4.246,4.246,0,0,1,.176,1.256v5.16h-1.424v-5.16a2.181,2.181,0,0,0-.42-1.428,1.569,1.569,0,0,0-1.284-.508,2.407,2.407,0,0,0-1.181.3,3.882,3.882,0,0,0-1.011.824v5.968Z"/>
      <path class="cls-3" d="M257.776,278.467h-.632a.747.747,0,0,1-.336-.065.349.349,0,0,1-.168-.271l-.16-.752c-.214.191-.422.364-.624.515a3.444,3.444,0,0,1-.641.384,3.236,3.236,0,0,1-.716.237,4.123,4.123,0,0,1-.844.08,2.875,2.875,0,0,1-.883-.132,2.017,2.017,0,0,1-.716-.4,1.893,1.893,0,0,1-.485-.671,2.345,2.345,0,0,1-.179-.959,1.8,1.8,0,0,1,.263-.927,2.313,2.313,0,0,1,.852-.79,5.544,5.544,0,0,1,1.54-.567,10.559,10.559,0,0,1,2.328-.22V273.3a2.212,2.212,0,0,0-.4-1.437,1.465,1.465,0,0,0-1.2-.487,2.533,2.533,0,0,0-.876.132,3.255,3.255,0,0,0-.617.3c-.172.109-.322.208-.448.3a.645.645,0,0,1-.372.132.425.425,0,0,1-.252-.077.58.58,0,0,1-.172-.187l-.256-.456a4.63,4.63,0,0,1,1.449-.968,4.45,4.45,0,0,1,1.719-.32,3.091,3.091,0,0,1,1.208.223,2.476,2.476,0,0,1,.888.624,2.646,2.646,0,0,1,.544.969,4.015,4.015,0,0,1,.185,1.248Zm-3.7-.872a2.949,2.949,0,0,0,.689-.076,2.771,2.771,0,0,0,.588-.216,3.148,3.148,0,0,0,.527-.34,4.515,4.515,0,0,0,.492-.456v-1.672a9.476,9.476,0,0,0-1.672.125,4.666,4.666,0,0,0-1.12.325,1.575,1.575,0,0,0-.628.475,1.022,1.022,0,0,0-.2.612,1.364,1.364,0,0,0,.1.555,1.072,1.072,0,0,0,.281.383,1.122,1.122,0,0,0,.416.216A1.872,1.872,0,0,0,254.079,277.6Z"/>
      <path class="cls-3" d="M261.84,267.818a.906.906,0,0,1-.084.389,1.1,1.1,0,0,1-.225.319,1.031,1.031,0,0,1-.323.221.982.982,0,0,1-.392.08.949.949,0,0,1-.388-.08,1.054,1.054,0,0,1-.32-.221,1.034,1.034,0,0,1-.22-.319.934.934,0,0,1-.08-.389.986.986,0,0,1,.08-.395,1.028,1.028,0,0,1,.22-.328,1.051,1.051,0,0,1,.32-.22.933.933,0,0,1,.388-.08.965.965,0,0,1,.392.08,1.029,1.029,0,0,1,.323.22,1.094,1.094,0,0,1,.225.328A.957.957,0,0,1,261.84,267.818Zm-.32,2.545v8.1H260.1v-8.1Z"/>
      <path class="cls-3" d="M264.031,278.467v-8.1h.848a.365.365,0,0,1,.385.3l.111.88a4.54,4.54,0,0,1,1.181-.944,3.053,3.053,0,0,1,1.508-.361,2.941,2.941,0,0,1,1.172.221,2.271,2.271,0,0,1,.847.624,2.766,2.766,0,0,1,.517.972,4.246,4.246,0,0,1,.176,1.256v5.16h-1.424v-5.16a2.186,2.186,0,0,0-.42-1.428,1.569,1.569,0,0,0-1.284-.508,2.4,2.4,0,0,0-1.181.3,3.9,3.9,0,0,0-1.012.824v5.968Z"/>
    </g>
    <g>
      <path class="cls-3" d="M159.274,32.163h4.96v1.3h-6.513V22h1.553Z"/>
      <path class="cls-3" d="M166.953,25.363v5.168a2.149,2.149,0,0,0,.424,1.424,1.576,1.576,0,0,0,1.279.5,2.46,2.46,0,0,0,1.177-.3,3.679,3.679,0,0,0,1.016-.824V25.363h1.424v8.1h-.848a.363.363,0,0,1-.384-.3l-.112-.872a4.463,4.463,0,0,1-1.184.94,3.107,3.107,0,0,1-1.5.356,2.934,2.934,0,0,1-1.172-.22,2.338,2.338,0,0,1-.852-.62,2.628,2.628,0,0,1-.516-.968,4.314,4.314,0,0,1-.173-1.256V25.363Z"/>
      <path class="cls-3" d="M174.616,33.467v-8.1h.848a.365.365,0,0,1,.385.3l.111.88a4.54,4.54,0,0,1,1.181-.944,3.053,3.053,0,0,1,1.508-.361,2.933,2.933,0,0,1,1.171.221,2.267,2.267,0,0,1,.848.624,2.766,2.766,0,0,1,.517.972,4.246,4.246,0,0,1,.176,1.256v5.16h-1.424v-5.16a2.186,2.186,0,0,0-.42-1.428,1.569,1.569,0,0,0-1.284-.508,2.4,2.4,0,0,0-1.181.3,3.9,3.9,0,0,0-1.012.824v5.968Z"/>
      <path class="cls-3" d="M185.417,22.818a.906.906,0,0,1-.084.389,1.1,1.1,0,0,1-.224.319,1.047,1.047,0,0,1-.324.221.982.982,0,0,1-.392.08.949.949,0,0,1-.388-.08,1.054,1.054,0,0,1-.32-.221,1.034,1.034,0,0,1-.22-.319.934.934,0,0,1-.08-.389.986.986,0,0,1,.08-.4,1.028,1.028,0,0,1,.22-.328,1.051,1.051,0,0,1,.32-.22.933.933,0,0,1,.388-.08.965.965,0,0,1,.392.08,1.045,1.045,0,0,1,.324.22,1.091,1.091,0,0,1,.224.328A.957.957,0,0,1,185.417,22.818Zm-.32,2.545v8.1h-1.424v-8.1Z"/>
      <path class="cls-3" d="M186.584,25.363h1.168a.442.442,0,0,1,.28.088.5.5,0,0,1,.161.208l2.055,5.216a3.925,3.925,0,0,1,.177.576q.063.288.119.568.064-.28.137-.568a4.859,4.859,0,0,1,.183-.576l2.081-5.216a.464.464,0,0,1,.156-.212.422.422,0,0,1,.267-.084h1.113l-3.3,8.1h-1.288Z"/>
      <path class="cls-3" d="M198.8,25.234a3.63,3.63,0,0,1,1.344.244,3.033,3.033,0,0,1,1.064.7,3.2,3.2,0,0,1,.7,1.135,4.394,4.394,0,0,1,.252,1.54.932.932,0,0,1-.072.449.3.3,0,0,1-.272.112h-5.392a4.487,4.487,0,0,0,.208,1.336,2.735,2.735,0,0,0,.528.948,2.116,2.116,0,0,0,.8.567,2.737,2.737,0,0,0,1.04.189,3.039,3.039,0,0,0,.924-.124,4.324,4.324,0,0,0,.668-.269,4.857,4.857,0,0,0,.468-.267.619.619,0,0,1,.324-.124.314.314,0,0,1,.272.135l.4.521a2.735,2.735,0,0,1-.632.556,3.87,3.87,0,0,1-.788.387,4.97,4.97,0,0,1-.868.229,5.273,5.273,0,0,1-.888.076,4.127,4.127,0,0,1-1.548-.284,3.41,3.41,0,0,1-1.224-.832,3.815,3.815,0,0,1-.8-1.357,5.508,5.508,0,0,1-.288-1.855,4.725,4.725,0,0,1,.26-1.584,3.714,3.714,0,0,1,.748-1.276,3.43,3.43,0,0,1,1.192-.848A3.92,3.92,0,0,1,198.8,25.234Zm.032,1.049a2.184,2.184,0,0,0-1.624.6,2.808,2.808,0,0,0-.736,1.652h4.408a2.9,2.9,0,0,0-.136-.908,2.026,2.026,0,0,0-.4-.712,1.8,1.8,0,0,0-.644-.464A2.181,2.181,0,0,0,198.832,26.283Z"/>
      <path class="cls-3" d="M203.976,33.467v-8.1h.816a.455.455,0,0,1,.32.088.547.547,0,0,1,.12.3l.095,1.264a3.709,3.709,0,0,1,1.029-1.325,2.277,2.277,0,0,1,1.436-.475,2.248,2.248,0,0,1,.608.076,2.106,2.106,0,0,1,.5.212l-.183,1.063a.24.24,0,0,1-.248.2,1.225,1.225,0,0,1-.344-.076,2.2,2.2,0,0,0-.648-.075,1.837,1.837,0,0,0-1.244.432,3.249,3.249,0,0,0-.836,1.256v5.16Z"/>
      <path class="cls-3" d="M215.064,26.7a.316.316,0,0,1-.3.176.552.552,0,0,1-.272-.088c-.1-.059-.225-.124-.372-.2a3.417,3.417,0,0,0-.524-.2,2.475,2.475,0,0,0-.72-.092,2.1,2.1,0,0,0-.648.092,1.542,1.542,0,0,0-.492.252,1.121,1.121,0,0,0-.312.372,1,1,0,0,0-.108.46.767.767,0,0,0,.18.52,1.528,1.528,0,0,0,.476.359,4.072,4.072,0,0,0,.672.269q.376.115.772.248c.264.088.522.186.772.292a2.783,2.783,0,0,1,.672.4,1.842,1.842,0,0,1,.476.588,1.8,1.8,0,0,1,.18.836,2.65,2.65,0,0,1-.2,1.036,2.259,2.259,0,0,1-.592.825,2.824,2.824,0,0,1-.96.547,3.927,3.927,0,0,1-1.312.2,4.075,4.075,0,0,1-1.536-.277,3.868,3.868,0,0,1-1.168-.708l.336-.544a.484.484,0,0,1,.152-.159.422.422,0,0,1,.232-.056.534.534,0,0,1,.3.112q.161.111.388.248a2.986,2.986,0,0,0,.552.248,2.534,2.534,0,0,0,.812.111,2.228,2.228,0,0,0,.728-.107,1.527,1.527,0,0,0,.52-.292,1.159,1.159,0,0,0,.308-.424,1.314,1.314,0,0,0,.1-.513.847.847,0,0,0-.18-.555,1.507,1.507,0,0,0-.476-.376,3.853,3.853,0,0,0-.676-.272q-.38-.117-.776-.244T211.3,29.5a2.728,2.728,0,0,1-.676-.412,1.864,1.864,0,0,1-.476-.612,1.979,1.979,0,0,1-.18-.884,2.161,2.161,0,0,1,.192-.893,2.2,2.2,0,0,1,.56-.752,2.774,2.774,0,0,1,.9-.515,3.618,3.618,0,0,1,1.224-.193,3.873,3.873,0,0,1,1.436.252,3.431,3.431,0,0,1,1.1.693Z"/>
      <path class="cls-3" d="M220.575,25.234a3.626,3.626,0,0,1,1.344.244,3.037,3.037,0,0,1,1.065.7,3.215,3.215,0,0,1,.7,1.135,4.394,4.394,0,0,1,.252,1.54.929.929,0,0,1-.073.449.3.3,0,0,1-.272.112H218.2a4.487,4.487,0,0,0,.208,1.336,2.72,2.72,0,0,0,.529.948,2.1,2.1,0,0,0,.8.567,2.733,2.733,0,0,0,1.04.189,3.032,3.032,0,0,0,.923-.124,4.284,4.284,0,0,0,.668-.269,4.738,4.738,0,0,0,.468-.267.621.621,0,0,1,.324-.124.316.316,0,0,1,.273.135l.4.521a2.714,2.714,0,0,1-.632.556,3.845,3.845,0,0,1-.788.387,4.97,4.97,0,0,1-.868.229,5.273,5.273,0,0,1-.888.076,4.122,4.122,0,0,1-1.547-.284,3.414,3.414,0,0,1-1.225-.832,3.83,3.83,0,0,1-.8-1.357,5.533,5.533,0,0,1-.288-1.855,4.725,4.725,0,0,1,.26-1.584,3.746,3.746,0,0,1,.748-1.276,3.439,3.439,0,0,1,1.192-.848A3.92,3.92,0,0,1,220.575,25.234Zm.033,1.049a2.181,2.181,0,0,0-1.624.6,2.8,2.8,0,0,0-.737,1.652h4.408a2.9,2.9,0,0,0-.135-.908,2.028,2.028,0,0,0-.4-.712,1.789,1.789,0,0,0-.643-.464A2.181,2.181,0,0,0,220.608,26.283Z"/>
      <path class="cls-3" d="M234.9,29.727c.056.141.111.284.164.428.053-.149.109-.292.168-.428s.126-.274.2-.413l3.88-7.047a.45.45,0,0,1,.217-.224,1,1,0,0,1,.319-.04h1.144V33.467h-1.36V25.043c0-.112,0-.233.008-.36s.014-.259.024-.392l-3.927,7.168a.618.618,0,0,1-.561.359h-.224a.617.617,0,0,1-.56-.359l-4.016-7.192c.016.138.028.275.036.408s.012.256.012.368v8.424h-1.36V22h1.144a1.025,1.025,0,0,1,.321.04.456.456,0,0,1,.215.224l3.96,7.056A2.956,2.956,0,0,1,234.9,29.727Z"/>
      <path class="cls-3" d="M249.511,33.467h-.632a.747.747,0,0,1-.336-.065.351.351,0,0,1-.168-.271l-.16-.752c-.214.191-.422.364-.624.515a3.444,3.444,0,0,1-.641.384,3.227,3.227,0,0,1-.715.237,4.13,4.13,0,0,1-.844.08,2.877,2.877,0,0,1-.884-.132,2.026,2.026,0,0,1-.716-.4,1.878,1.878,0,0,1-.484-.671,2.345,2.345,0,0,1-.18-.959,1.8,1.8,0,0,1,.264-.927,2.317,2.317,0,0,1,.851-.79,5.556,5.556,0,0,1,1.54-.567,10.569,10.569,0,0,1,2.329-.22V28.3a2.206,2.206,0,0,0-.4-1.437,1.463,1.463,0,0,0-1.2-.487,2.533,2.533,0,0,0-.876.132,3.274,3.274,0,0,0-.616.3q-.26.164-.449.3a.645.645,0,0,1-.372.132.429.429,0,0,1-.252-.077.577.577,0,0,1-.171-.187l-.256-.456a4.615,4.615,0,0,1,1.448-.968,4.458,4.458,0,0,1,1.72-.32,3.094,3.094,0,0,1,1.208.223,2.481,2.481,0,0,1,.887.624,2.631,2.631,0,0,1,.544.969,4.015,4.015,0,0,1,.185,1.248Zm-3.7-.872a2.94,2.94,0,0,0,.688-.076,2.771,2.771,0,0,0,.588-.216,3.108,3.108,0,0,0,.527-.34,4.616,4.616,0,0,0,.493-.456V29.835a9.468,9.468,0,0,0-1.672.125,4.666,4.666,0,0,0-1.12.325,1.561,1.561,0,0,0-.628.475,1.023,1.023,0,0,0-.2.612,1.347,1.347,0,0,0,.1.555,1.058,1.058,0,0,0,.28.383,1.122,1.122,0,0,0,.416.216A1.874,1.874,0,0,0,245.815,32.6Z"/>
      <path class="cls-3" d="M253.574,22.818a.906.906,0,0,1-.084.389,1.082,1.082,0,0,1-.224.319,1.043,1.043,0,0,1-.323.221.983.983,0,0,1-.393.08.949.949,0,0,1-.388-.08,1.066,1.066,0,0,1-.32-.221,1.034,1.034,0,0,1-.22-.319.95.95,0,0,1-.08-.389,1,1,0,0,1,.08-.4,1.028,1.028,0,0,1,.22-.328,1.063,1.063,0,0,1,.32-.22.933.933,0,0,1,.388-.08.966.966,0,0,1,.393.08,1.04,1.04,0,0,1,.323.22,1.073,1.073,0,0,1,.224.328A.957.957,0,0,1,253.574,22.818Zm-.32,2.545v8.1H251.83v-8.1Z"/>
      <path class="cls-3" d="M255.766,33.467v-8.1h.847a.363.363,0,0,1,.385.3l.112.88a4.535,4.535,0,0,1,1.18-.944,3.058,3.058,0,0,1,1.508-.361,2.941,2.941,0,0,1,1.172.221,2.275,2.275,0,0,1,.848.624,2.78,2.78,0,0,1,.516.972,4.246,4.246,0,0,1,.176,1.256v5.16h-1.424v-5.16a2.186,2.186,0,0,0-.42-1.428,1.569,1.569,0,0,0-1.284-.508,2.407,2.407,0,0,0-1.181.3,3.882,3.882,0,0,0-1.011.824v5.968Z"/>
      <path class="cls-3" d="M264.662,33.467v-8.1h.848a.365.365,0,0,1,.385.3l.111.88a4.54,4.54,0,0,1,1.181-.944,3.053,3.053,0,0,1,1.508-.361,2.933,2.933,0,0,1,1.171.221,2.275,2.275,0,0,1,.848.624,2.782,2.782,0,0,1,.517.972,4.246,4.246,0,0,1,.175,1.256v5.16h-1.423v-5.16a2.186,2.186,0,0,0-.42-1.428,1.571,1.571,0,0,0-1.285-.508,2.4,2.4,0,0,0-1.18.3,3.9,3.9,0,0,0-1.012.824v5.968Z"/>
      <path class="cls-3" d="M276.767,25.234a3.634,3.634,0,0,1,1.344.244,3.033,3.033,0,0,1,1.064.7,3.2,3.2,0,0,1,.7,1.135,4.394,4.394,0,0,1,.252,1.54.932.932,0,0,1-.072.449.3.3,0,0,1-.273.112h-5.391a4.487,4.487,0,0,0,.208,1.336,2.735,2.735,0,0,0,.528.948,2.108,2.108,0,0,0,.8.567,2.737,2.737,0,0,0,1.04.189,3.044,3.044,0,0,0,.924-.124,4.324,4.324,0,0,0,.668-.269,4.857,4.857,0,0,0,.468-.267.619.619,0,0,1,.324-.124.314.314,0,0,1,.272.135l.4.521a2.735,2.735,0,0,1-.632.556,3.87,3.87,0,0,1-.788.387,5.017,5.017,0,0,1-.868.229,5.273,5.273,0,0,1-.888.076A4.127,4.127,0,0,1,275.3,33.3a3.414,3.414,0,0,1-1.225-.832,3.828,3.828,0,0,1-.8-1.357,5.508,5.508,0,0,1-.288-1.855,4.75,4.75,0,0,1,.259-1.584,3.746,3.746,0,0,1,.748-1.276,3.443,3.443,0,0,1,1.193-.848A3.92,3.92,0,0,1,276.767,25.234Zm.032,1.049a2.184,2.184,0,0,0-1.624.6,2.8,2.8,0,0,0-.736,1.652h4.408a2.9,2.9,0,0,0-.136-.908,2.026,2.026,0,0,0-.4-.712,1.8,1.8,0,0,0-.644-.464A2.181,2.181,0,0,0,276.8,26.283Z"/>
      <path class="cls-3" d="M284.4,33.6a1.955,1.955,0,0,1-1.476-.536,2.138,2.138,0,0,1-.517-1.544v-4.96h-.975a.317.317,0,0,1-.216-.077.288.288,0,0,1-.089-.235v-.568l1.328-.168.328-2.5a.3.3,0,0,1,.105-.2.328.328,0,0,1,.224-.077h.719v2.792h2.321v1.033H283.83v4.864a1.036,1.036,0,0,0,.248.76.87.87,0,0,0,.641.248,1.138,1.138,0,0,0,.388-.06,1.6,1.6,0,0,0,.284-.133c.08-.048.147-.091.2-.132a.261.261,0,0,1,.147-.059.245.245,0,0,1,.2.136l.416.679a2.619,2.619,0,0,1-.888.54A3.01,3.01,0,0,1,284.4,33.6Z"/>
    </g>
    <path class="cls-1" d="M221.536,167.6a.5.5,0,0,1-.5-.5V146.467a.5.5,0,0,1,1,0V167.1A.5.5,0,0,1,221.536,167.6Z"/>
    <g>
      <polygon class="cls-1" points="443.071 255.097 436.161 251.128 436.161 254.53 377.063 254.53 377.063 255.664 436.161 255.664 436.161 259.065 443.071 255.097"/>
      <polygon class="cls-1" points="375.04 269.837 381.949 265.868 381.949 269.27 441.048 269.27 441.048 270.404 381.949 270.404 381.949 273.805 375.04 269.837"/>
    </g>
    <g>
      <rect class="cls-6" x="387.903" y="251.628" width="42.304" height="21.678"/>
      <path class="cls-1" d="M429.707,252.128v20.677H388.4V252.128h41.3m1-1H387.4v22.677h43.3V251.128Z"/>
    </g>
    <g>
      <path class="cls-3" d="M408.557,258.227v.978h-2.778v7.62h-1.164v-7.62h-2.79v-.978Z"/>
      <path class="cls-3" d="M411.779,262.409l-2.837-4.182H410.1a.328.328,0,0,1,.186.042.378.378,0,0,1,.108.121l2.244,3.443a1.585,1.585,0,0,1,.126-.275l2.119-3.145a.564.564,0,0,1,.117-.135.234.234,0,0,1,.153-.051h1.109l-2.85,4.128,2.947,4.47h-1.153a.292.292,0,0,1-.206-.069.592.592,0,0,1-.123-.153l-2.3-3.606a1.229,1.229,0,0,1-.107.24l-2.245,3.366a.916.916,0,0,1-.123.153.261.261,0,0,1-.194.069h-1.081Z"/>
    </g>
    <g>
      <polygon class="cls-1" points="68.031 255.097 61.122 251.128 61.122 254.53 2.023 254.53 2.023 255.664 61.122 255.664 61.122 259.065 68.031 255.097"/>
      <polygon class="cls-1" points="0 269.837 6.91 265.868 6.91 269.27 66.008 269.27 66.008 270.404 6.91 270.404 6.91 273.805 0 269.837"/>
    </g>
    <g>
      <rect class="cls-6" x="12.864" y="251.628" width="42.304" height="21.678"/>
      <path class="cls-1" d="M54.667,252.128v20.677h-41.3V252.128h41.3m1-1h-43.3v22.677h43.3V251.128Z"/>
    </g>
    <g>
      <path class="cls-3" d="M33.518,258.227v.978H30.74v7.62H29.576v-7.62h-2.79v-.978Z"/>
      <path class="cls-3" d="M36.74,262.409,33.9,258.227H35.06a.328.328,0,0,1,.186.042.391.391,0,0,1,.108.121l2.244,3.443a1.585,1.585,0,0,1,.126-.275l2.118-3.145a.564.564,0,0,1,.117-.135.235.235,0,0,1,.153-.051h1.11l-2.85,4.128,2.946,4.47H40.166a.294.294,0,0,1-.207-.069.637.637,0,0,1-.123-.153L37.532,263a1.3,1.3,0,0,1-.108.24L35.18,266.6a.916.916,0,0,1-.123.153.264.264,0,0,1-.2.069h-1.08Z"/>
    </g>
    <g>
      <polygon class="cls-5" points="342.891 356.097 335.982 352.128 335.982 355.53 276.883 355.53 276.883 356.664 335.982 356.664 335.982 360.065 342.891 356.097"/>
      <polygon class="cls-5" points="274.86 370.837 281.769 366.868 281.769 370.27 340.868 370.27 340.868 371.404 281.769 371.404 281.769 374.805 274.86 370.837"/>
    </g>
    <g>
      <rect class="cls-6" x="287.724" y="352.628" width="42.304" height="21.678"/>
      <path class="cls-5" d="M329.527,353.128v20.677h-41.3V353.128h41.3m1-1h-43.3v22.677h43.3V352.128Z"/>
    </g>
    <g>
      <path class="cls-5" d="M308.378,359.227v.978H305.6v7.62h-1.164v-7.62h-2.79v-.978Z"/>
      <path class="cls-5" d="M311.6,363.409l-2.838-4.182h1.158a.328.328,0,0,1,.186.042.391.391,0,0,1,.108.121l2.244,3.443a1.585,1.585,0,0,1,.126-.275l2.118-3.145a.564.564,0,0,1,.117-.135.235.235,0,0,1,.153-.051h1.11l-2.85,4.128,2.946,4.47h-1.152a.294.294,0,0,1-.207-.069.637.637,0,0,1-.123-.153l-2.3-3.606a1.3,1.3,0,0,1-.108.24L310.04,367.6a.916.916,0,0,1-.123.153.264.264,0,0,1-.195.069h-1.08Z"/>
    </g>
  </g>
</svg>
