<svg id="Layer_1" data-name="Layer 1" xmlns="http://www.w3.org/2000/svg" viewBox="0 0 443.071 411.717">
  <defs>
    <style>
      .cls-1 {
        fill: #85d7e1;
      }

      .cls-2 {
        fill: #d0d4d9;
      }

      .cls-3 {
        fill: #9ecaf2;
      }

      .cls-3, .cls-5, .cls-7, .cls-9 {
        fill-rule: evenodd;
      }

      .cls-4 {
        fill: #1b72c2;
      }

      .cls-5 {
        fill: #fed491;
      }

      .cls-6 {
        fill: #f28900;
      }

      .cls-7 {
        fill: #f4c4bd;
      }

      .cls-8 {
        fill: #f4563f;
      }

      .cls-9 {
        fill: #f7e476;
      }

      .cls-10 {
        fill: #e9af00;
      }

      .cls-11 {
        fill: #0694ae;
      }

      .cls-12 {
        fill: #abb1bc;
      }

      .cls-13 {
        fill: #fff;
      }
    </style>
  </defs>
  <title>img_1_cp</title>
  <g>
    <path class="cls-1" d="M221.536,167.1h-.055a1,1,0,1,0,0,2h.054a1,1,0,1,0,0-2Zm-7.966.318c-.026,0-.051,0-.077,0l-.063,0a1,1,0,0,0,.083,2,.732.732,0,0,0,.081,0l.054,0a1,1,0,0,0-.078-2Zm-7.914.959a1.064,1.064,0,0,0-.159.012l-.023,0-.035.006a1,1,0,0,0,.16,1.987.983.983,0,0,0,.162-.013l.054-.009a1,1,0,0,0-.159-1.987Zm-7.809,1.6a.992.992,0,0,0-.24.03l-.042.01-.013,0a1,1,0,1,0,.482,1.941l.052-.013a1,1,0,0,0-.239-1.971Zm-7.654,2.232a1,1,0,0,0-.317.051l-.044.015-.01,0a1,1,0,1,0,.639,1.9l.051-.017a1,1,0,0,0-.319-1.948Zm-7.445,2.849a1,1,0,0,0-.395.081l-.025.011-.02.009,0,0a1,1,0,1,0,.791,1.837l.05-.021a1,1,0,0,0-.4-1.919Zm-7.188,3.447a1,1,0,0,0-.465.115l-.042.022-.01,0a1,1,0,1,0,.939,1.766l.048-.025a1,1,0,0,0-.47-1.883Zm-6.884,4.02a1,1,0,0,0-.537.157l-.051.033a1,1,0,0,0,1.083,1.681l.045-.029a1,1,0,0,0-.54-1.842Zm-6.535,4.565a.994.994,0,0,0-.6.2l-.027.02-.02.016a1,1,0,0,0,1.215,1.589l.043-.033a1,1,0,0,0-.606-1.8ZM156,192.169a1,1,0,0,0-.668.255l0,0-.013.012-.023.02a1,1,0,0,0,1.336,1.489l.04-.036a1,1,0,0,0-.667-1.745Zm-5.716,5.557a1,1,0,0,0-.725.311l-.015.016h0l-.025.027a1,1,0,0,0,1.454,1.373l.037-.04a1,1,0,0,0-.725-1.688Zm-5.249,6a1,1,0,0,0-.778.37l-.038.048a1,1,0,0,0,1.56,1.251l.034-.041a1,1,0,0,0-.778-1.628Zm-4.748,6.4a1,1,0,0,0-.828.437l-.031.046a1,1,0,0,0,1.655,1.124l.03-.044a1,1,0,0,0-.826-1.563Zm-4.214,6.766a1,1,0,0,0-.868.5l-.032.055a1,1,0,0,0,1.742.983l.027-.047a1,1,0,0,0-.869-1.494Zm-3.651,7.087a1,1,0,0,0-.907.579l0,.009-.022.046a1,1,0,0,0,1.817.837l.023-.049a1,1,0,0,0-.907-1.422Zm-3.061,7.36a1,1,0,0,0-.938.653l-.015.041,0,.012a1,1,0,1,0,1.877.691l.018-.051a1,1,0,0,0-.938-1.346Zm-2.45,7.586a1,1,0,0,0-.961.728l-.017.062a1,1,0,0,0,1.928.53l.014-.052a1,1,0,0,0-.964-1.268Zm-1.821,7.76a1,1,0,0,0-.98.808l-.008.042,0,.016a1,1,0,1,0,1.964.375l.01-.052a1,1,0,0,0-.794-1.171,1.016,1.016,0,0,0-.189-.018Zm-1.183,7.883a1,1,0,0,0-.993.889l0,.019,0,.039a1,1,0,0,0,.886,1.1,1,1,0,0,0,1.1-.886l.006-.054a1,1,0,0,0-.995-1.108Zm-.542,7.955a1,1,0,0,0-1,.967v.065a1,1,0,0,0,.972,1.022h.028a1,1,0,0,0,1-.972l0-.054a1,1,0,0,0-.972-1.028Zm.1,7.974h-.052a1,1,0,0,0-.947,1.051v0l0,.053a1,1,0,0,0,1,.946h.053a1,1,0,0,0,.946-1.051l0-.054a1,1,0,0,0-1-.948Zm.736,7.939a1,1,0,0,0-.993,1.129l.008.059a1,1,0,0,0,1.982-.267l-.007-.054a1,1,0,0,0-.99-.867Zm1.375,7.851a1.046,1.046,0,0,0-.214.023,1,1,0,0,0-.764,1.19l0,.012.01.046a1,1,0,0,0,.974.783.975.975,0,0,0,.214-.024,1,1,0,0,0,.765-1.19l-.012-.052a1,1,0,0,0-.976-.788Zm2.01,7.713a1,1,0,0,0-.956,1.292l.016.052a1,1,0,0,0,.956.709,1.024,1.024,0,0,0,.292-.044,1,1,0,0,0,.665-1.249l-.016-.052a1,1,0,0,0-.957-.708Zm2.635,7.523a1,1,0,0,0-.929,1.369l0,.012.007.018.008.021a1,1,0,0,0,1.859-.738l-.02-.051a1,1,0,0,0-.93-.631Zm3.24,7.283a1,1,0,0,0-.9,1.439l.007.016.009.017.011.022a1,1,0,0,0,1.791-.889l-.024-.049a1,1,0,0,0-.9-.556Zm3.823,7a1,1,0,0,0-.857,1.515l.007.01.02.034,0,0a1,1,0,1,0,1.714-1.03l-.028-.047a1,1,0,0,0-.858-.485Zm4.378,6.662a1,1,0,0,0-.815,1.579l.036.05a1,1,0,0,0,1.624-1.168l-.032-.043a1,1,0,0,0-.813-.418Zm4.9,6.287a1,1,0,0,0-.763,1.646l.019.023.019.022a1,1,0,0,0,1.523-1.3l-.035-.041a1,1,0,0,0-.763-.354Zm5.394,5.871a1,1,0,0,0-.709,1.7l.009.009.033.033a1,1,0,0,0,1.413-1.415l-.038-.038a1,1,0,0,0-.708-.294Zm5.85,5.416a1,1,0,0,0-.65,1.761l.006,0,.035.03h0a1,1,0,1,0,1.3-1.521l-.041-.035a.994.994,0,0,0-.648-.24Zm6.267,4.928a1,1,0,0,0-.586,1.81l.019.014.028.02a1,1,0,0,0,1.168-1.623l-.044-.032a1,1,0,0,0-.585-.189Zm6.645,4.4a1,1,0,0,0-.519,1.855l.024.014.025.015a.987.987,0,0,0,.515.144,1,1,0,0,0,.518-1.856l-.046-.028a.994.994,0,0,0-.517-.144Zm6.98,3.85a1,1,0,0,0-.448,1.895l.038.019.013.006a1,1,0,0,0,.891-1.79l-.048-.024a.991.991,0,0,0-.446-.106Zm7.269,3.269a1,1,0,0,0-.373,1.929l.01,0,.044.017a1,1,0,0,0,.741-1.857l-.05-.02a1,1,0,0,0-.372-.073Zm7.512,2.665a1,1,0,0,0-.295,1.956l.013,0,.039.012h0a.981.981,0,0,0,.3.045,1,1,0,0,0,.294-1.956l-.051-.016a1.018,1.018,0,0,0-.3-.045Zm7.705,2.043a1,1,0,0,0-.219,1.975l.061.014a1.036,1.036,0,0,0,.213.023,1,1,0,0,0,.215-1.977l-.053-.011a.95.95,0,0,0-.217-.024Zm7.845,1.406a1,1,0,0,0-.139,1.991l.041,0h.007l.013,0a1.017,1.017,0,0,0,.134.009,1,1,0,0,0,.135-1.991l-.054-.007a.912.912,0,0,0-.137-.01Zm7.936.766a1,1,0,0,0-.06,2l.039,0h.077a1,1,0,0,0,.054-2l-.054,0-.056,0Zm8.029.126h-.025l-.054,0a1,1,0,0,0,.023,2h.08a1,1,0,0,0-.024-2Zm7.957-.515c-.035,0-.07,0-.1,0l-.054.006a1,1,0,0,0,.1,1.995.92.92,0,0,0,.1-.006H232l.022,0,.029,0a1,1,0,0,0-.108-1.994Zm7.888-1.156a.975.975,0,0,0-.186.017l-.053.01a1,1,0,0,0,.183,1.983,1.081,1.081,0,0,0,.186-.017l.02,0,.039-.007a1,1,0,0,0-.189-1.982Zm7.765-1.8a1.007,1.007,0,0,0-.265.036l-.052.014a1,1,0,0,0,.263,1.965.967.967,0,0,0,.265-.036l.007,0,.025-.006.021-.006a1,1,0,0,0-.264-1.965Zm7.594-2.423a1,1,0,0,0-.343.061l-.05.018a1,1,0,0,0,.342,1.94.98.98,0,0,0,.342-.061l.01,0,.046-.017a1,1,0,0,0-.347-1.938Zm7.37-3.035a.99.99,0,0,0-.418.092l-.049.022a1,1,0,0,0,.418,1.909.99.99,0,0,0,.418-.092l.05-.023a1,1,0,0,0-.419-1.908Zm7.1-3.626a.986.986,0,0,0-.489.129l-.047.026a1,1,0,0,0,.977,1.745l.035-.02.016-.009a1,1,0,0,0-.492-1.871Zm6.782-4.191a.992.992,0,0,0-.559.171l-.045.03a1,1,0,1,0,1.119,1.658l.045-.03a1,1,0,0,0-.56-1.829Zm6.42-4.726a.992.992,0,0,0-.624.219l-.043.034a1,1,0,0,0,1.245,1.565l.05-.04a1,1,0,0,0-.628-1.778Zm6.018-5.229a1,1,0,0,0-.686.272l-.039.037a1,1,0,1,0,1.371,1.456l.014-.013.029-.028a1,1,0,0,0-.689-1.724Zm5.577-5.7a1,1,0,0,0-.743.33l-.036.04a1,1,0,0,0,1.481,1.344l.042-.046a1,1,0,0,0-.744-1.668Zm5.1-6.128a1,1,0,0,0-.794.392l-.033.043a1,1,0,1,0,1.587,1.216l0,0,.032-.042a1,1,0,0,0-.8-1.605Zm4.588-6.52a1,1,0,0,0-.842.458l-.029.045a1,1,0,1,0,1.68,1.085l.03-.046a1,1,0,0,0-.839-1.542Zm4.043-6.87a1,1,0,0,0-.883.528l-.025.048a1,1,0,0,0,1.762.945l0-.006.011-.02.015-.027a1,1,0,0,0-.883-1.468Zm3.471-7.176a1,1,0,0,0-.918.6l-.021.05a1,1,0,0,0,1.834.8l0-.009.019-.045a1,1,0,0,0-.52-1.312.984.984,0,0,0-.4-.083Zm2.874-7.435a1,1,0,0,0-.947.678l-.017.051a1,1,0,0,0,.624,1.27,1.012,1.012,0,0,0,.323.053,1,1,0,0,0,.945-.674l.012-.037.007-.018a1,1,0,0,0-.947-1.323Zm2.257-7.645a1,1,0,0,0-.969.757l-.013.052a1,1,0,0,0,.725,1.214.984.984,0,0,0,.245.03,1,1,0,0,0,.968-.751l.008-.034.006-.024a1,1,0,0,0-.725-1.214,1.033,1.033,0,0,0-.245-.03Zm1.625-7.8a1,1,0,0,0-.986.836l-.008.053a1,1,0,0,0,.822,1.151,1.043,1.043,0,0,0,.166.014,1,1,0,0,0,.984-.836l0-.008.008-.049a1,1,0,0,0-.823-1.147.919.919,0,0,0-.165-.014Zm.986-7.91a1,1,0,0,0-1,.916l0,.054a1,1,0,0,0,.912,1.081c.029,0,.057,0,.086,0a1,1,0,0,0,1-.916h0l0-.041V274.7a1,1,0,0,0-.913-1.08q-.042,0-.084,0Zm.346-7.966a1,1,0,0,0-1,1v.054a1,1,0,0,0,1,1h0a1,1,0,0,0,1-1v-.055a1,1,0,0,0-1-1Zm-.29-7.969q-.039,0-.078,0a1,1,0,0,0-.921,1.073l0,.054a1,1,0,0,0,1,.924l.077,0a1,1,0,0,0,.921-1.073l0-.051v0a1,1,0,0,0-.995-.922Zm-.932-7.918a1.061,1.061,0,0,0-.158.012,1,1,0,0,0-.831,1.145l.008.053a1,1,0,0,0,.987.844.944.944,0,0,0,.158-.013,1,1,0,0,0,.831-1.144l-.009-.054a1,1,0,0,0-.986-.843Zm-1.573-7.815a.981.981,0,0,0-.238.029,1,1,0,0,0-.734,1.209l.013.052a1,1,0,0,0,.971.763,1.016,1.016,0,0,0,.237-.028,1,1,0,0,0,.736-1.2l0-.02-.009-.038a1,1,0,0,0-.971-.763Zm-2.2-7.66a1,1,0,0,0-.949,1.316l.017.051a1,1,0,0,0,.949.685.989.989,0,0,0,.315-.051,1,1,0,0,0,.634-1.264l0-.008-.016-.049a1,1,0,0,0-.947-.68Zm-2.824-7.454a.989.989,0,0,0-.392.08,1,1,0,0,0-.528,1.312l.021.05a1,1,0,0,0,1.842-.78l-.015-.036,0-.012,0-.007a1,1,0,0,0-.919-.607Zm-3.423-7.2a1,1,0,0,0-.884,1.466l.025.048a1,1,0,0,0,1.771-.93l0-.008,0-.008-.019-.037a1,1,0,0,0-.884-.531Zm-4-6.9a1,1,0,0,0-.843,1.537l.029.045a1,1,0,1,0,1.689-1.071l-.03-.047a1,1,0,0,0-.845-.464Zm-4.542-6.551a1,1,0,0,0-.8,1.6l.033.043a1,1,0,0,0,1.6-1.2l0,0-.03-.04a1,1,0,0,0-.8-.4Zm-5.057-6.162a1,1,0,0,0-.747,1.665l.036.04a1,1,0,0,0,1.5-1.328l-.041-.045a1,1,0,0,0-.744-.332Zm-5.537-5.735a1,1,0,0,0-.691,1.723l.039.037a1,1,0,1,0,1.382-1.445l-.021-.02-.023-.022a.993.993,0,0,0-.686-.273Zm-5.982-5.27a1,1,0,0,0-.631,1.776l.042.034a1,1,0,1,0,1.261-1.552l-.01-.008-.007-.006h0l-.008-.007-.015-.013a1,1,0,0,0-.63-.223ZM277,184.25a1,1,0,0,0-.566,1.825l.045.03a1,1,0,0,0,1.136-1.645l-.046-.032,0,0a1,1,0,0,0-.565-.175Zm-6.752-4.237a1,1,0,0,0-.5,1.868l.046.027a1,1,0,0,0,1-1.735l-.048-.028a1,1,0,0,0-.5-.132Zm-7.075-3.675a1,1,0,0,0-.424,1.906l.048.023a1,1,0,1,0,.85-1.811l-.05-.023a1,1,0,0,0-.424-.095Zm-7.349-3.085a1,1,0,0,0-.35,1.937l.051.019a1,1,0,1,0,.7-1.874l-.006,0-.049-.019a1,1,0,0,0-.345-.061Zm-7.578-2.476a1,1,0,0,0-.271,1.963l.052.015a.986.986,0,0,0,.272.038,1,1,0,0,0,.276-1.962l-.059-.016a1.011,1.011,0,0,0-.27-.038Zm-7.755-1.847a1,1,0,0,0-.191,1.981l.053.011a1.069,1.069,0,0,0,.193.019,1,1,0,0,0,.2-1.981l-.061-.012a1.035,1.035,0,0,0-.19-.018Zm-7.879-1.21a1,1,0,0,0-.11,1.994l.054.006a1.069,1.069,0,0,0,.113.006,1,1,0,0,0,.111-1.993l-.055-.007a1.069,1.069,0,0,0-.113-.006Zm-7.951-.569a1,1,0,0,0-.031,2l.054,0h.032a1,1,0,0,0,.032-2h-.087Z"/>
    <path class="cls-2" d="M123.136.016a1,1,0,0,0-.822.969v.063a1,1,0,0,0,.989,1.006.978.978,0,0,0,.189-.015,1,1,0,0,0,.822-.973V1.012A1,1,0,0,0,123.325,0a.984.984,0,0,0-.189.016Zm.231,7.968a1,1,0,0,0-.819,1.05v.01l0,.048a1,1,0,0,0,1.067.928.937.937,0,0,0,.108-.014,1,1,0,0,0,.82-1.054l0-.054a1,1,0,0,0-1.068-.928.966.966,0,0,0-.108.014Zm.875,7.925a1,1,0,0,0-.811,1.129l0,.018,0,.023,0,.023a1,1,0,0,0,1.138.834l.028,0a1,1,0,0,0,.811-1.134l-.008-.054a1,1,0,0,0-1.139-.839l-.028.005Zm1.508,7.831-.052.01a1,1,0,0,0-.746,1.2l.013.055a1,1,0,0,0,1.149.755l.053-.011a1,1,0,0,0,.745-1.2L126.9,24.5a1,1,0,0,0-1.15-.756Zm2.129,7.683a1,1,0,0,0-.777,1.288l.009.03,0,.015,0,.013a1,1,0,0,0,1.127.675,1.032,1.032,0,0,0,.13-.033,1,1,0,0,0,.646-1.258l-.016-.051a1,1,0,0,0-1.128-.679Zm2.743,7.484a.984.984,0,0,0-.206.06,1,1,0,0,0-.542,1.307l.006.013.017.042a1,1,0,0,0,1.1.6.975.975,0,0,0,.207-.06,1,1,0,0,0,.541-1.307l-.021-.05a1,1,0,0,0-1.1-.6Zm3.344,7.235a.97.97,0,0,0-.279.095,1,1,0,0,0-.433,1.346l0,0,.018.036,0,.009a1,1,0,0,0,1.066.528,1.053,1.053,0,0,0,.28-.095,1,1,0,0,0,.433-1.347l-.025-.048a1,1,0,0,0-1.067-.528Zm3.925,6.938a1,1,0,0,0-.672,1.511l.025.04,0,.008a1,1,0,0,0,1.7-1.056l-.029-.046a1,1,0,0,0-1.027-.457Zm4.478,6.594a1,1,0,0,0-.628,1.576l.036.048a1,1,0,0,0,.98.388.989.989,0,0,0,.418-.181,1,1,0,0,0,.208-1.4l-.032-.043a1,1,0,0,0-.982-.389Zm5,6.208a1,1,0,0,0-.575,1.642l.04.045a1,1,0,0,0,1.5-1.321l-.035-.04a1,1,0,0,0-.931-.326Zm5.488,5.782a1,1,0,0,0-.522,1.7l.017.017.022.021,0,0a1,1,0,0,0,1.393-1.436l-.039-.037a1,1,0,0,0-.875-.267Zm5.939,5.319a1,1,0,0,0-.461,1.754l.046.038a1,1,0,0,0,1.27-1.544l-.041-.035a1,1,0,0,0-.814-.213Zm6.348,4.823a1,1,0,0,0-.4,1.8l.051.036A1,1,0,0,0,165.939,82l-.045-.031a1,1,0,0,0-.749-.164Zm6.716,4.3a1,1,0,0,0-.331,1.846l.026.015.01.006.016.009a1,1,0,0,0,1.007-1.728l-.047-.027a.994.994,0,0,0-.681-.121Zm7.041,3.74a1,1,0,0,0-.26,1.884l.013.006.04.019a1,1,0,0,0,.865-1.8l-.049-.023a.991.991,0,0,0-.609-.083ZM186.222,93a1,1,0,0,0-.183,1.918l.041.015.014.006a1,1,0,0,0,.713-1.869l-.051-.019a.993.993,0,0,0-.534-.051Zm7.551,2.554a1,1,0,0,0-.11,1.942l.061.018a.976.976,0,0,0,.454.024,1,1,0,0,0,.1-1.944l-.052-.015a.993.993,0,0,0-.458-.025Zm7.733,1.931a1,1,0,0,0-.025,1.963l.019,0,.037.008a1.013,1.013,0,0,0,.376.005,1,1,0,0,0,.025-1.964l-.053-.011a.988.988,0,0,0-.379,0Zm7.865,1.293a1,1,0,0,0,.056,1.977h.015l.033,0h.008a1.014,1.014,0,0,0,.3-.009,1,1,0,0,0-.056-1.977l-.054-.006a.964.964,0,0,0-.3.008Zm7.945.646a1,1,0,0,0,.138,1.983l.054,0a.979.979,0,0,0,.218-.015,1,1,0,0,0-.138-1.983l-.054,0a.983.983,0,0,0-.218.015Zm7.97-.005a1,1,0,0,0,.22,1.984h.055a1.01,1.01,0,0,0,.136-.015,1,1,0,0,0-.22-1.983l-.054,0a1.025,1.025,0,0,0-.137.015Zm7.946-.651a1,1,0,0,0,.3,1.977l.05-.006h.008l.056-.008a1,1,0,0,0-.3-1.977l-.054.007-.056.008Zm7.924-1.3-.024,0-.053.011a1,1,0,0,0,.377,1.964l.02,0,.026,0,.032-.007a1,1,0,0,0-.378-1.964Zm7.741-1.915a1.017,1.017,0,0,0-.1.024l-.052.015a1,1,0,0,0,.455,1.945c.033-.006.066-.014.1-.023l.024-.007.018,0,.02-.006a1,1,0,0,0-.461-1.943Zm7.558-2.535a1.1,1.1,0,0,0-.18.05l-.05.02a1,1,0,0,0,.531,1.919,1.012,1.012,0,0,0,.177-.049l.012,0,.043-.017a1,1,0,0,0-.533-1.919Zm7.325-3.14a.954.954,0,0,0-.254.082l-.049.023a1,1,0,0,0,.607,1.887.958.958,0,0,0,.25-.08l.027-.012.027-.014a1,1,0,0,0-.608-1.886Zm7.045-3.73a1.008,1.008,0,0,0-.326.121l-.047.027a1,1,0,0,0,.68,1.849.99.99,0,0,0,.327-.121l.027-.016L271.51,88a1,1,0,0,0-.685-1.846Zm6.716-4.292a.991.991,0,0,0-.394.165l-.044.03a1,1,0,1,0,1.143,1.641l.046-.031a1,1,0,0,0-.751-1.8Zm6.345-4.825a.991.991,0,0,0-.459.213l-.042.035a1,1,0,0,0,1.274,1.542l.006,0,.022-.018,0,0,0,0,.008-.007a1,1,0,0,0-.815-1.755Zm5.932-5.325a1,1,0,0,0-.519.267l-.039.038a1,1,0,1,0,1.394,1.434l.024-.024.016-.015a1,1,0,0,0-.876-1.7ZM295.3,65.92a.99.99,0,0,0-.575.326l-.036.041a1,1,0,0,0,1.5,1.319l.032-.036.007-.009a1,1,0,0,0-.931-1.641Zm5-6.212a1,1,0,0,0-.627.389l-.032.043a1,1,0,0,0,1.605,1.193l.037-.049a1,1,0,0,0-.983-1.576Zm4.48-6.595a1,1,0,0,0-.673.456l-.028.046a1,1,0,1,0,1.7,1.057l.01-.016.014-.023,0-.008a1,1,0,0,0-1.026-1.512Zm3.934-6.934a1,1,0,0,0-.713.526l-.025.048a1,1,0,0,0,1.776.921l.013-.027.014-.026a1,1,0,0,0-.431-1.347.989.989,0,0,0-.634-.095Zm3.36-7.23a1,1,0,0,0-.747.6l-.021.05a1,1,0,0,0,1.844.775l.016-.037,0-.011,0-.009a1,1,0,0,0-1.1-1.368Zm2.764-7.477a1,1,0,0,0-.775.676l-.017.052a1,1,0,1,0,1.9.617l0-.005.015-.048a1,1,0,0,0-1.127-1.292Zm2.146-7.677a1,1,0,0,0-.8.755l-.012.052a1,1,0,1,0,1.946.461l.006-.028.008-.03a1,1,0,0,0-1.151-1.21Zm1.512-7.826a1,1,0,0,0-.812.835l-.008.053a1,1,0,1,0,1.978.3l.006-.042,0-.016a1,1,0,0,0-1.166-1.13Zm.868-7.924a1,1,0,0,0-.82.916l0,.054a1,1,0,0,0,.929,1.066,1.011,1.011,0,0,0,.247-.013,1,1,0,0,0,.819-.911l0-.03,0-.029a1,1,0,0,0-1.175-1.053ZM319.58.078a1,1,0,0,0-.822,1v.054a1,1,0,0,0,2-.022V1.044a1,1,0,0,0-1.013-.982.982.982,0,0,0-.165.016Z"/>
    <g>
      <path class="cls-3" d="M221.536,56.467a45,45,0,1,1-45,45A45,45,0,0,1,221.536,56.467Z"/>
      <g>
        <path class="cls-4" d="M216.563,93.949q.117.276.229.556c.074-.193.152-.381.232-.569s.165-.365.256-.536l3.424-6.407a.877.877,0,0,1,.132-.192.394.394,0,0,1,.152-.1.666.666,0,0,1,.188-.04c.069-.006.152-.009.248-.009h1.624V98.217h-1.9V90.745q0-.209.012-.456c.008-.165.019-.334.036-.5l-3.5,6.56a.918.918,0,0,1-.313.347.8.8,0,0,1-.447.124h-.3a.8.8,0,0,1-.447-.124.927.927,0,0,1-.313-.347l-3.543-6.584c.021.175.036.347.043.515s.013.325.013.469v7.472h-1.9V86.648h1.624c.1,0,.178,0,.248.009a.659.659,0,0,1,.187.04.423.423,0,0,1,.156.1.789.789,0,0,1,.136.192l3.456,6.424Q216.448,93.673,216.563,93.949Z"/>
        <path class="cls-4" d="M233.536,86.648v1.769h-3.481v9.8H227.9v-9.8h-3.5V86.648Z"/>
        <path class="cls-4" d="M192.068,108.757a8.671,8.671,0,0,0,.3,2.286,9.127,9.127,0,0,0,.875,2.114.529.529,0,0,1,.044.105.372.372,0,0,1,.011.088.2.2,0,0,1-.039.127.366.366,0,0,1-.1.087l-.435.264a10.306,10.306,0,0,1-.7-1.254,8.506,8.506,0,0,1-.728-2.511,10.417,10.417,0,0,1,0-2.609,8.454,8.454,0,0,1,.261-1.263,8.6,8.6,0,0,1,.467-1.246,10.586,10.586,0,0,1,.7-1.259l.435.27a.369.369,0,0,1,.1.088.2.2,0,0,1,.039.126.413.413,0,0,1-.055.187,8.76,8.76,0,0,0-1.177,4.4Z"/>
        <path class="cls-4" d="M198.748,109.645c.038.1.075.2.112.294.036-.1.075-.2.115-.294s.086-.187.138-.283l2.668-4.845a.315.315,0,0,1,.148-.154.687.687,0,0,1,.22-.028h.786v7.882H202v-5.791c0-.077,0-.16,0-.248s.009-.178.016-.27l-2.7,4.928a.425.425,0,0,1-.385.248h-.154a.425.425,0,0,1-.385-.248l-2.761-4.944c.011.095.019.189.025.28s.008.177.008.254v5.791h-.935v-7.882h.786a.7.7,0,0,1,.221.028.315.315,0,0,1,.148.154l2.723,4.851A2.217,2.217,0,0,1,198.748,109.645Z"/>
        <path class="cls-4" d="M208.793,112.217h-.434a.519.519,0,0,1-.231-.044.242.242,0,0,1-.116-.188l-.11-.516c-.146.132-.29.25-.429.354a2.449,2.449,0,0,1-.44.265,2.308,2.308,0,0,1-.492.162,2.864,2.864,0,0,1-.58.055,2,2,0,0,1-.608-.091,1.376,1.376,0,0,1-.492-.274,1.282,1.282,0,0,1-.333-.461,1.6,1.6,0,0,1-.124-.659,1.234,1.234,0,0,1,.182-.637,1.585,1.585,0,0,1,.586-.543,3.8,3.8,0,0,1,1.058-.39,7.167,7.167,0,0,1,1.6-.151v-.438a1.517,1.517,0,0,0-.278-.988,1.008,1.008,0,0,0-.823-.335,1.724,1.724,0,0,0-.6.091,2.264,2.264,0,0,0-.424.2c-.119.075-.222.142-.308.2a.452.452,0,0,1-.256.091.3.3,0,0,1-.173-.052.411.411,0,0,1-.119-.13l-.175-.313a3.155,3.155,0,0,1,1-.665,3.06,3.06,0,0,1,1.181-.221,2.123,2.123,0,0,1,.831.154,1.7,1.7,0,0,1,.611.429,1.806,1.806,0,0,1,.374.666,2.781,2.781,0,0,1,.126.857Zm-2.541-.6a1.987,1.987,0,0,0,.473-.052,1.955,1.955,0,0,0,.405-.148,2.285,2.285,0,0,0,.363-.234,3.374,3.374,0,0,0,.338-.314V109.72a6.494,6.494,0,0,0-1.15.086,3.22,3.22,0,0,0-.77.223,1.085,1.085,0,0,0-.432.327.7.7,0,0,0-.135.42.943.943,0,0,0,.072.382.731.731,0,0,0,.193.263.754.754,0,0,0,.285.149A1.286,1.286,0,0,0,206.252,111.617Z"/>
        <path class="cls-4" d="M211.588,104.9a.634.634,0,0,1-.058.267.786.786,0,0,1-.154.22.721.721,0,0,1-.223.151.667.667,0,0,1-.269.055.641.641,0,0,1-.267-.055.724.724,0,0,1-.221-.151.756.756,0,0,1-.151-.22.664.664,0,0,1-.055-.267.7.7,0,0,1,.055-.272.71.71,0,0,1,.372-.377.657.657,0,0,1,.267-.055.685.685,0,0,1,.269.055.739.739,0,0,1,.223.151.773.773,0,0,1,.154.226A.668.668,0,0,1,211.588,104.9Zm-.221,1.749v5.572h-.979v-5.572Z"/>
        <path class="cls-4" d="M213.094,112.217v-5.572h.584a.25.25,0,0,1,.264.2l.076.6a3.142,3.142,0,0,1,.812-.649,2.109,2.109,0,0,1,1.037-.247,2,2,0,0,1,.806.151,1.568,1.568,0,0,1,.583.429,1.888,1.888,0,0,1,.354.668,2.889,2.889,0,0,1,.121.863v3.548h-.978v-3.548a1.507,1.507,0,0,0-.289-.982,1.084,1.084,0,0,0-.883-.349,1.651,1.651,0,0,0-.812.209,2.663,2.663,0,0,0-.695.567v4.1Z"/>
        <path class="cls-4" d="M226.856,104.335v.9h-2.547v6.986h-1.066v-6.986h-2.558v-.9Z"/>
        <path class="cls-4" d="M228.924,106.558a2.856,2.856,0,0,1,1.1.2,2.32,2.32,0,0,1,.836.577,2.559,2.559,0,0,1,.527.905,3.9,3.9,0,0,1,0,2.373,2.55,2.55,0,0,1-.527.9,2.3,2.3,0,0,1-.836.574,3.127,3.127,0,0,1-2.206,0,2.338,2.338,0,0,1-.839-.574,2.592,2.592,0,0,1-.533-.9,3.858,3.858,0,0,1,0-2.373,2.6,2.6,0,0,1,.533-.905,2.358,2.358,0,0,1,.839-.577A2.856,2.856,0,0,1,228.924,106.558Zm0,4.971a1.431,1.431,0,0,0,1.232-.552,3.144,3.144,0,0,0,0-3.094,1.428,1.428,0,0,0-1.232-.556,1.7,1.7,0,0,0-.726.144,1.351,1.351,0,0,0-.515.412,1.832,1.832,0,0,0-.307.663,3.9,3.9,0,0,0,0,1.773,1.814,1.814,0,0,0,.307.658,1.394,1.394,0,0,0,.515.41A1.728,1.728,0,0,0,228.924,111.529Z"/>
        <path class="cls-4" d="M233.8,104.115v4.769h.252a.454.454,0,0,0,.182-.031.486.486,0,0,0,.159-.124l1.761-1.885a.929.929,0,0,1,.165-.144.4.4,0,0,1,.22-.055h.89l-2.05,2.184a2.106,2.106,0,0,1-.152.165.888.888,0,0,1-.168.126,1.045,1.045,0,0,1,.179.151,1.488,1.488,0,0,1,.151.2l2.178,2.75h-.88a.424.424,0,0,1-.206-.047.543.543,0,0,1-.162-.146l-1.832-2.282a.414.414,0,0,0-.165-.151.631.631,0,0,0-.247-.036H233.8v2.662h-.985v-8.1Z"/>
        <path class="cls-4" d="M240.425,106.558a2.479,2.479,0,0,1,.923.167,2.067,2.067,0,0,1,.732.484,2.227,2.227,0,0,1,.481.781,3,3,0,0,1,.173,1.059.617.617,0,0,1-.05.307.2.2,0,0,1-.186.078h-3.707a3.062,3.062,0,0,0,.142.918,1.882,1.882,0,0,0,.364.652,1.441,1.441,0,0,0,.549.39,1.9,1.9,0,0,0,.716.129,2.1,2.1,0,0,0,.635-.085,2.916,2.916,0,0,0,.459-.184,3.5,3.5,0,0,0,.322-.184.434.434,0,0,1,.223-.086.214.214,0,0,1,.186.094l.276.357a1.847,1.847,0,0,1-.435.383,2.678,2.678,0,0,1-.542.267,3.412,3.412,0,0,1-.6.156,3.638,3.638,0,0,1-.611.053,2.857,2.857,0,0,1-1.064-.195,2.336,2.336,0,0,1-.841-.573,2.613,2.613,0,0,1-.553-.931,3.772,3.772,0,0,1-.2-1.277,3.252,3.252,0,0,1,.179-1.089,2.579,2.579,0,0,1,.513-.877,2.355,2.355,0,0,1,.821-.583A2.688,2.688,0,0,1,240.425,106.558Zm.021.719a1.5,1.5,0,0,0-1.116.41,1.922,1.922,0,0,0-.506,1.136h3.03a1.993,1.993,0,0,0-.093-.624,1.393,1.393,0,0,0-.275-.489,1.217,1.217,0,0,0-.443-.319A1.478,1.478,0,0,0,240.446,107.277Z"/>
        <path class="cls-4" d="M243.982,112.217v-5.572h.583a.251.251,0,0,1,.265.2l.076.6a3.125,3.125,0,0,1,.812-.649,2.107,2.107,0,0,1,1.037-.247,1.993,1.993,0,0,1,.805.151,1.552,1.552,0,0,1,.583.429,1.873,1.873,0,0,1,.355.668,2.889,2.889,0,0,1,.121.863v3.548h-.979v-3.548a1.5,1.5,0,0,0-.289-.982,1.081,1.081,0,0,0-.882-.349,1.648,1.648,0,0,0-.812.209,2.663,2.663,0,0,0-.7.567v4.1Z"/>
        <path class="cls-4" d="M250.934,108.757a8.73,8.73,0,0,0-.3-2.287,8.818,8.818,0,0,0-.877-2.113.4.4,0,0,1-.055-.187.2.2,0,0,1,.038-.126.359.359,0,0,1,.1-.088l.433-.27a10.322,10.322,0,0,1,.7,1.259,8.486,8.486,0,0,1,.467,1.246,8.716,8.716,0,0,1,.262,1.263,10.417,10.417,0,0,1,0,2.609,8.828,8.828,0,0,1-.262,1.263,8.382,8.382,0,0,1-.467,1.248,10.055,10.055,0,0,1-.7,1.254l-.433-.264a.357.357,0,0,1-.1-.087.208.208,0,0,1-.038-.127.327.327,0,0,1,.011-.088.431.431,0,0,1,.044-.105,9.215,9.215,0,0,0,.875-2.114A8.671,8.671,0,0,0,250.934,108.757Z"/>
      </g>
    </g>
    <path class="cls-5" d="M121.536,221.717a45,45,0,1,1-45,45A45,45,0,0,1,121.536,221.717Z"/>
    <g>
      <path class="cls-6" d="M115.168,259.394v4.073h-2.152V251.9h3.768a6.584,6.584,0,0,1,2.008.273,3.853,3.853,0,0,1,1.4.76,2.982,2.982,0,0,1,.817,1.168,4.358,4.358,0,0,1-.017,3.028,3.2,3.2,0,0,1-.84,1.2,3.912,3.912,0,0,1-1.4.784,6.225,6.225,0,0,1-1.968.279Zm0-1.679h1.616a3.2,3.2,0,0,0,1.032-.149,1.91,1.91,0,0,0,.728-.423,1.746,1.746,0,0,0,.432-.672,2.573,2.573,0,0,0,.144-.884,2.328,2.328,0,0,0-.144-.84,1.669,1.669,0,0,0-.432-.641,1.932,1.932,0,0,0-.728-.4,3.393,3.393,0,0,0-1.032-.141h-1.616Z"/>
      <path class="cls-6" d="M131.1,251.9v1.769h-3.48v9.8h-2.151v-9.8h-3.5V251.9Z"/>
      <path class="cls-6" d="M85,274.007a8.63,8.63,0,0,0,.3,2.286,9.127,9.127,0,0,0,.875,2.114.529.529,0,0,1,.044.105.432.432,0,0,1,.01.088.2.2,0,0,1-.038.127.366.366,0,0,1-.1.087l-.435.264a10.306,10.306,0,0,1-.7-1.254,8.495,8.495,0,0,1-.467-1.248,8.693,8.693,0,0,1-.262-1.263,10.417,10.417,0,0,1,0-2.609,8.514,8.514,0,0,1,.729-2.509,10.586,10.586,0,0,1,.7-1.259l.435.27a.369.369,0,0,1,.1.088.2.2,0,0,1,.038.126.41.41,0,0,1-.054.187,8.76,8.76,0,0,0-1.177,4.4Z"/>
      <path class="cls-6" d="M88.834,274.519v2.948H87.772v-7.882H90.1a4.346,4.346,0,0,1,1.3.174,2.491,2.491,0,0,1,.916.492,2,2,0,0,1,.541.769,2.719,2.719,0,0,1,.179,1.007,2.574,2.574,0,0,1-.192,1.007,2.161,2.161,0,0,1-.564.786,2.623,2.623,0,0,1-.921.515,3.988,3.988,0,0,1-1.26.184Zm0-.847H90.1a2.445,2.445,0,0,0,.806-.121,1.681,1.681,0,0,0,.586-.338,1.427,1.427,0,0,0,.357-.521,1.765,1.765,0,0,0,.122-.665,1.513,1.513,0,0,0-.465-1.176,2.027,2.027,0,0,0-1.406-.424H88.834Z"/>
      <path class="cls-6" d="M94.228,277.467V271.9h.562a.308.308,0,0,1,.22.061.372.372,0,0,1,.082.209l.066.869a2.542,2.542,0,0,1,.707-.91,1.555,1.555,0,0,1,.987-.328,1.508,1.508,0,0,1,.418.053,1.486,1.486,0,0,1,.347.145l-.127.732a.165.165,0,0,1-.171.137.844.844,0,0,1-.236-.052,1.493,1.493,0,0,0-.446-.052,1.258,1.258,0,0,0-.855.3,2.222,2.222,0,0,0-.574.863v3.548Z"/>
      <path class="cls-6" d="M100.916,271.808a2.856,2.856,0,0,1,1.1.2,2.32,2.32,0,0,1,.836.577,2.561,2.561,0,0,1,.528.9,3.917,3.917,0,0,1,0,2.373,2.552,2.552,0,0,1-.528.9,2.3,2.3,0,0,1-.836.574,3.127,3.127,0,0,1-2.206,0,2.338,2.338,0,0,1-.839-.574,2.592,2.592,0,0,1-.533-.9,3.877,3.877,0,0,1,0-2.373,2.6,2.6,0,0,1,.533-.9,2.358,2.358,0,0,1,.839-.577A2.86,2.86,0,0,1,100.916,271.808Zm0,4.971a1.429,1.429,0,0,0,1.232-.552,3.144,3.144,0,0,0,0-3.094,1.427,1.427,0,0,0-1.232-.556,1.7,1.7,0,0,0-.726.144,1.34,1.34,0,0,0-.514.412,1.816,1.816,0,0,0-.308.663,3.9,3.9,0,0,0,0,1.773,1.8,1.8,0,0,0,.308.658,1.383,1.383,0,0,0,.514.41A1.728,1.728,0,0,0,100.916,276.779Z"/>
      <path class="cls-6" d="M108.7,277.467a.249.249,0,0,1-.264-.2l-.089-.677a2.9,2.9,0,0,1-.816.695,2.083,2.083,0,0,1-1.053.262,2.008,2.008,0,0,1-.869-.185,1.79,1.79,0,0,1-.666-.542,2.584,2.584,0,0,1-.423-.89,4.594,4.594,0,0,1-.148-1.227,3.871,3.871,0,0,1,.164-1.146,2.788,2.788,0,0,1,.476-.922,2.183,2.183,0,0,1,1.768-.836,2.008,2.008,0,0,1,.875.174,2.09,2.09,0,0,1,.649.486v-3.091h.979v8.1Zm-1.9-.715a1.571,1.571,0,0,0,.838-.22,2.414,2.414,0,0,0,.663-.622v-2.7a1.552,1.552,0,0,0-.591-.508,1.7,1.7,0,0,0-.712-.147,1.409,1.409,0,0,0-1.2.556,2.586,2.586,0,0,0-.418,1.584,4.059,4.059,0,0,0,.093.933,1.788,1.788,0,0,0,.275.637,1.081,1.081,0,0,0,.445.367A1.52,1.52,0,0,0,106.8,276.752Z"/>
      <path class="cls-6" d="M111.773,271.9v3.553a1.484,1.484,0,0,0,.291.98,1.089,1.089,0,0,0,.88.345,1.683,1.683,0,0,0,.809-.2,2.489,2.489,0,0,0,.7-.566V271.9h.979v5.572h-.583a.249.249,0,0,1-.263-.2l-.077-.6a3.089,3.089,0,0,1-.815.646,2.124,2.124,0,0,1-1.034.245,2.015,2.015,0,0,1-.806-.152,1.6,1.6,0,0,1-.586-.426,1.816,1.816,0,0,1-.354-.666,2.952,2.952,0,0,1-.118-.863V271.9Z"/>
      <path class="cls-6" d="M120.843,272.886a.435.435,0,0,1-.088.092.2.2,0,0,1-.127.034.314.314,0,0,1-.179-.069,2.531,2.531,0,0,0-.244-.151,1.962,1.962,0,0,0-.361-.151,1.906,1.906,0,0,0-1.24.077,1.371,1.371,0,0,0-.525.421,1.87,1.87,0,0,0-.319.665,3.275,3.275,0,0,0-.108.875,3.186,3.186,0,0,0,.116.9,1.922,1.922,0,0,0,.325.66,1.371,1.371,0,0,0,.508.407,1.567,1.567,0,0,0,.674.141,1.687,1.687,0,0,0,.588-.086,1.8,1.8,0,0,0,.386-.189,3.121,3.121,0,0,0,.253-.19.308.308,0,0,1,.2-.086.206.206,0,0,1,.186.094l.276.357a2.125,2.125,0,0,1-.908.653,3.229,3.229,0,0,1-1.15.206,2.455,2.455,0,0,1-.97-.192,2.232,2.232,0,0,1-.779-.559,2.679,2.679,0,0,1-.519-.9,3.629,3.629,0,0,1-.19-1.215,3.693,3.693,0,0,1,.173-1.151,2.6,2.6,0,0,1,.506-.91,2.307,2.307,0,0,1,.822-.6,2.786,2.786,0,0,1,1.122-.213A2.634,2.634,0,0,1,120.3,272a2.5,2.5,0,0,1,.8.536Z"/>
      <path class="cls-6" d="M123.867,277.555a1.345,1.345,0,0,1-1.015-.369,1.472,1.472,0,0,1-.354-1.061v-3.41h-.671a.221.221,0,0,1-.149-.053.2.2,0,0,1-.06-.162v-.391l.913-.115.226-1.722a.2.2,0,0,1,.071-.134.226.226,0,0,1,.154-.052h.494v1.919h1.6v.71h-1.6v3.344a.711.711,0,0,0,.171.522.6.6,0,0,0,.441.171.787.787,0,0,0,.266-.041,1.337,1.337,0,0,0,.2-.091c.054-.033.1-.063.139-.091a.187.187,0,0,1,.1-.041.167.167,0,0,1,.137.093l.287.468a1.836,1.836,0,0,1-.611.371A2.068,2.068,0,0,1,123.867,277.555Z"/>
      <path class="cls-6" d="M133.927,269.585v.9H131.38v6.986h-1.067v-6.986h-2.557v-.9Z"/>
      <path class="cls-6" d="M135.994,271.808a2.856,2.856,0,0,1,1.1.2,2.311,2.311,0,0,1,.836.577,2.561,2.561,0,0,1,.528.9,3.917,3.917,0,0,1,0,2.373,2.552,2.552,0,0,1-.528.9,2.292,2.292,0,0,1-.836.574,3.127,3.127,0,0,1-2.206,0,2.325,2.325,0,0,1-.838-.574,2.579,2.579,0,0,1-.534-.9,3.877,3.877,0,0,1,0-2.373,2.588,2.588,0,0,1,.534-.9,2.345,2.345,0,0,1,.838-.577A2.86,2.86,0,0,1,135.994,271.808Zm0,4.971a1.429,1.429,0,0,0,1.232-.552,3.137,3.137,0,0,0,0-3.094,1.427,1.427,0,0,0-1.232-.556,1.7,1.7,0,0,0-.726.144,1.34,1.34,0,0,0-.514.412,1.816,1.816,0,0,0-.308.663,3.9,3.9,0,0,0,0,1.773,1.8,1.8,0,0,0,.308.658,1.383,1.383,0,0,0,.514.41A1.732,1.732,0,0,0,135.994,276.779Z"/>
      <path class="cls-6" d="M140.873,269.365v4.769h.253a.449.449,0,0,0,.181-.031.5.5,0,0,0,.16-.124l1.76-1.885a.965.965,0,0,1,.165-.144.4.4,0,0,1,.22-.055h.891l-2.051,2.184c-.052.063-.1.117-.151.165a.922.922,0,0,1-.168.126,1.037,1.037,0,0,1,.178.151,1.492,1.492,0,0,1,.152.2l2.177,2.75h-.879a.425.425,0,0,1-.207-.047.543.543,0,0,1-.162-.146l-1.832-2.282a.407.407,0,0,0-.165-.151.624.624,0,0,0-.247-.036h-.275v2.662h-.985v-8.1Z"/>
      <path class="cls-6" d="M147.5,271.808a2.488,2.488,0,0,1,.924.167,2.072,2.072,0,0,1,.731.484,2.244,2.244,0,0,1,.482.781,3.028,3.028,0,0,1,.172,1.059.632.632,0,0,1-.049.307.2.2,0,0,1-.187.078h-3.707a3.06,3.06,0,0,0,.143.918,1.9,1.9,0,0,0,.363.652,1.437,1.437,0,0,0,.55.39,1.9,1.9,0,0,0,.716.129,2.084,2.084,0,0,0,.634-.085,2.916,2.916,0,0,0,.459-.184,3.53,3.53,0,0,0,.323-.184.434.434,0,0,1,.222-.086.217.217,0,0,1,.187.094l.275.357a1.842,1.842,0,0,1-.434.383,2.7,2.7,0,0,1-.542.267,3.447,3.447,0,0,1-.6.156,3.626,3.626,0,0,1-.61.053,2.862,2.862,0,0,1-1.065-.195,2.345,2.345,0,0,1-.841-.573,2.6,2.6,0,0,1-.552-.931,3.771,3.771,0,0,1-.2-1.277,3.252,3.252,0,0,1,.179-1.089,2.565,2.565,0,0,1,.514-.877,2.351,2.351,0,0,1,.82-.583A2.692,2.692,0,0,1,147.5,271.808Zm.021.719a1.505,1.505,0,0,0-1.116.41,1.934,1.934,0,0,0-.506,1.136h3.031a1.992,1.992,0,0,0-.094-.624,1.378,1.378,0,0,0-.275-.489,1.217,1.217,0,0,0-.443-.319A1.478,1.478,0,0,0,147.516,272.527Z"/>
      <path class="cls-6" d="M151.053,277.467V271.9h.583a.25.25,0,0,1,.264.2l.076.605a3.142,3.142,0,0,1,.812-.649,2.109,2.109,0,0,1,1.037-.247,2,2,0,0,1,.806.151,1.568,1.568,0,0,1,.583.429,1.888,1.888,0,0,1,.354.668,2.889,2.889,0,0,1,.121.863v3.548h-.978v-3.548a1.507,1.507,0,0,0-.289-.982,1.084,1.084,0,0,0-.883-.349,1.651,1.651,0,0,0-.812.209,2.663,2.663,0,0,0-.695.567v4.1Z"/>
      <path class="cls-6" d="M158.005,274.007a8.76,8.76,0,0,0-1.177-4.4.413.413,0,0,1-.055-.187.2.2,0,0,1,.038-.126.374.374,0,0,1,.1-.088l.433-.27a10.47,10.47,0,0,1,.7,1.259,8.552,8.552,0,0,1,.728,2.509,10.417,10.417,0,0,1,0,2.609,8.693,8.693,0,0,1-.262,1.263,8.488,8.488,0,0,1-.466,1.248,10.2,10.2,0,0,1-.7,1.254l-.433-.264a.371.371,0,0,1-.1-.087.208.208,0,0,1-.038-.127.327.327,0,0,1,.011-.088.475.475,0,0,1,.044-.105,9.127,9.127,0,0,0,.875-2.114A8.671,8.671,0,0,0,158.005,274.007Z"/>
    </g>
    <path class="cls-7" d="M221.536,321.717a45,45,0,1,1-45,45A45,45,0,0,1,221.536,321.717Z"/>
    <g>
      <path class="cls-8" d="M215.168,359.394v4.073h-2.152V351.9h3.768a6.584,6.584,0,0,1,2.008.273,3.853,3.853,0,0,1,1.4.76,2.982,2.982,0,0,1,.817,1.168,4.358,4.358,0,0,1-.017,3.028,3.2,3.2,0,0,1-.84,1.2,3.912,3.912,0,0,1-1.4.784,6.225,6.225,0,0,1-1.968.279Zm0-1.679h1.616a3.2,3.2,0,0,0,1.032-.149,1.91,1.91,0,0,0,.728-.423,1.746,1.746,0,0,0,.432-.672,2.573,2.573,0,0,0,.144-.884,2.328,2.328,0,0,0-.144-.84,1.669,1.669,0,0,0-.432-.641,1.932,1.932,0,0,0-.728-.4,3.393,3.393,0,0,0-1.032-.141h-1.616Z"/>
      <path class="cls-8" d="M231.1,351.9v1.769h-3.48v9.8h-2.151v-9.8h-3.5V351.9Z"/>
      <path class="cls-8" d="M185,374.007a8.63,8.63,0,0,0,.3,2.286,9.127,9.127,0,0,0,.875,2.114.529.529,0,0,1,.044.105.432.432,0,0,1,.01.088.2.2,0,0,1-.038.127.366.366,0,0,1-.1.087l-.435.264a10.306,10.306,0,0,1-.7-1.254,8.495,8.495,0,0,1-.467-1.248,8.693,8.693,0,0,1-.262-1.263,10.417,10.417,0,0,1,0-2.609,8.514,8.514,0,0,1,.729-2.509,10.586,10.586,0,0,1,.7-1.259l.435.27a.369.369,0,0,1,.1.088.2.2,0,0,1,.038.126.41.41,0,0,1-.054.187,8.76,8.76,0,0,0-1.177,4.4Z"/>
      <path class="cls-8" d="M188.834,374.519v2.948h-1.062v-7.882H190.1a4.346,4.346,0,0,1,1.3.174,2.491,2.491,0,0,1,.916.492,2,2,0,0,1,.541.769,2.719,2.719,0,0,1,.179,1.007,2.574,2.574,0,0,1-.192,1.007,2.161,2.161,0,0,1-.564.786,2.623,2.623,0,0,1-.921.515,3.988,3.988,0,0,1-1.26.184Zm0-.847H190.1a2.445,2.445,0,0,0,.806-.121,1.681,1.681,0,0,0,.586-.338,1.427,1.427,0,0,0,.357-.521,1.765,1.765,0,0,0,.122-.665,1.513,1.513,0,0,0-.465-1.176,2.027,2.027,0,0,0-1.406-.424h-1.264Z"/>
      <path class="cls-8" d="M194.228,377.467V371.9h.562a.308.308,0,0,1,.22.061.372.372,0,0,1,.082.209l.066.869a2.542,2.542,0,0,1,.707-.91,1.555,1.555,0,0,1,.987-.328,1.508,1.508,0,0,1,.418.053,1.486,1.486,0,0,1,.347.145l-.127.732a.165.165,0,0,1-.171.137.844.844,0,0,1-.236-.052,1.493,1.493,0,0,0-.446-.052,1.258,1.258,0,0,0-.855.3,2.222,2.222,0,0,0-.574.863v3.548Z"/>
      <path class="cls-8" d="M200.916,371.808a2.856,2.856,0,0,1,1.1.2,2.32,2.32,0,0,1,.836.577,2.561,2.561,0,0,1,.528.9,3.917,3.917,0,0,1,0,2.373,2.552,2.552,0,0,1-.528.9,2.3,2.3,0,0,1-.836.574,3.127,3.127,0,0,1-2.206,0,2.338,2.338,0,0,1-.839-.574,2.592,2.592,0,0,1-.533-.9,3.877,3.877,0,0,1,0-2.373,2.6,2.6,0,0,1,.533-.9,2.358,2.358,0,0,1,.839-.577A2.86,2.86,0,0,1,200.916,371.808Zm0,4.971a1.429,1.429,0,0,0,1.232-.552,3.144,3.144,0,0,0,0-3.094,1.427,1.427,0,0,0-1.232-.556,1.7,1.7,0,0,0-.726.144,1.34,1.34,0,0,0-.514.412,1.816,1.816,0,0,0-.308.663,3.9,3.9,0,0,0,0,1.773,1.8,1.8,0,0,0,.308.658,1.383,1.383,0,0,0,.514.41A1.728,1.728,0,0,0,200.916,376.779Z"/>
      <path class="cls-8" d="M208.7,377.467a.249.249,0,0,1-.264-.2l-.089-.677a2.9,2.9,0,0,1-.816.695,2.083,2.083,0,0,1-1.053.262,2.008,2.008,0,0,1-.869-.185,1.79,1.79,0,0,1-.666-.542,2.584,2.584,0,0,1-.423-.89,4.594,4.594,0,0,1-.148-1.227,3.871,3.871,0,0,1,.164-1.146,2.788,2.788,0,0,1,.476-.922,2.183,2.183,0,0,1,1.768-.836,2.008,2.008,0,0,1,.875.174,2.09,2.09,0,0,1,.649.486v-3.091h.979v8.1Zm-1.9-.715a1.571,1.571,0,0,0,.838-.22,2.414,2.414,0,0,0,.663-.622v-2.7a1.552,1.552,0,0,0-.591-.508,1.7,1.7,0,0,0-.712-.147,1.409,1.409,0,0,0-1.2.556,2.586,2.586,0,0,0-.418,1.584,4.059,4.059,0,0,0,.093.933,1.788,1.788,0,0,0,.275.637,1.081,1.081,0,0,0,.445.367A1.52,1.52,0,0,0,206.8,376.752Z"/>
      <path class="cls-8" d="M211.773,371.9v3.553a1.484,1.484,0,0,0,.291.98,1.089,1.089,0,0,0,.88.345,1.683,1.683,0,0,0,.809-.2,2.489,2.489,0,0,0,.7-.566V371.9h.979v5.572h-.583a.249.249,0,0,1-.263-.2l-.077-.6a3.089,3.089,0,0,1-.815.646,2.124,2.124,0,0,1-1.034.245,2.015,2.015,0,0,1-.806-.152,1.6,1.6,0,0,1-.586-.426,1.816,1.816,0,0,1-.354-.666,2.952,2.952,0,0,1-.118-.863V371.9Z"/>
      <path class="cls-8" d="M220.843,372.886a.435.435,0,0,1-.088.092.2.2,0,0,1-.127.034.314.314,0,0,1-.179-.069,2.531,2.531,0,0,0-.244-.151,1.962,1.962,0,0,0-.361-.151,1.906,1.906,0,0,0-1.24.077,1.371,1.371,0,0,0-.525.421,1.87,1.87,0,0,0-.319.665,3.275,3.275,0,0,0-.108.875,3.186,3.186,0,0,0,.116.9,1.922,1.922,0,0,0,.325.66,1.371,1.371,0,0,0,.508.407,1.567,1.567,0,0,0,.674.141,1.687,1.687,0,0,0,.588-.086,1.8,1.8,0,0,0,.386-.189,3.121,3.121,0,0,0,.253-.19.308.308,0,0,1,.2-.086.206.206,0,0,1,.186.094l.276.357a2.125,2.125,0,0,1-.908.653,3.229,3.229,0,0,1-1.15.206,2.455,2.455,0,0,1-.97-.192,2.232,2.232,0,0,1-.779-.559,2.679,2.679,0,0,1-.519-.9,3.629,3.629,0,0,1-.19-1.215,3.693,3.693,0,0,1,.173-1.151,2.6,2.6,0,0,1,.506-.91,2.307,2.307,0,0,1,.822-.6,2.786,2.786,0,0,1,1.122-.213A2.634,2.634,0,0,1,220.3,372a2.5,2.5,0,0,1,.8.536Z"/>
      <path class="cls-8" d="M223.867,377.555a1.345,1.345,0,0,1-1.015-.369,1.472,1.472,0,0,1-.354-1.061v-3.41h-.671a.221.221,0,0,1-.149-.053.2.2,0,0,1-.06-.162v-.391l.913-.115.226-1.722a.2.2,0,0,1,.071-.134.226.226,0,0,1,.154-.052h.494v1.919h1.6v.71h-1.6v3.344a.711.711,0,0,0,.171.522.6.6,0,0,0,.441.171.787.787,0,0,0,.266-.041,1.337,1.337,0,0,0,.2-.091c.054-.033.1-.063.139-.091a.187.187,0,0,1,.1-.041.167.167,0,0,1,.137.093l.287.468a1.836,1.836,0,0,1-.611.371A2.068,2.068,0,0,1,223.867,377.555Z"/>
      <path class="cls-8" d="M233.927,369.585v.9H231.38v6.986h-1.067v-6.986h-2.557v-.9Z"/>
      <path class="cls-8" d="M235.994,371.808a2.856,2.856,0,0,1,1.1.2,2.311,2.311,0,0,1,.836.577,2.561,2.561,0,0,1,.528.9,3.917,3.917,0,0,1,0,2.373,2.552,2.552,0,0,1-.528.9,2.292,2.292,0,0,1-.836.574,3.127,3.127,0,0,1-2.206,0,2.325,2.325,0,0,1-.838-.574,2.579,2.579,0,0,1-.534-.9,3.877,3.877,0,0,1,0-2.373,2.588,2.588,0,0,1,.534-.9,2.345,2.345,0,0,1,.838-.577A2.86,2.86,0,0,1,235.994,371.808Zm0,4.971a1.429,1.429,0,0,0,1.232-.552,3.137,3.137,0,0,0,0-3.094,1.427,1.427,0,0,0-1.232-.556,1.7,1.7,0,0,0-.726.144,1.34,1.34,0,0,0-.514.412,1.816,1.816,0,0,0-.308.663,3.9,3.9,0,0,0,0,1.773,1.8,1.8,0,0,0,.308.658,1.383,1.383,0,0,0,.514.41A1.732,1.732,0,0,0,235.994,376.779Z"/>
      <path class="cls-8" d="M240.873,369.365v4.769h.253a.449.449,0,0,0,.181-.031.5.5,0,0,0,.16-.124l1.76-1.885a.965.965,0,0,1,.165-.144.4.4,0,0,1,.22-.055h.891l-2.051,2.184c-.052.063-.1.117-.151.165a.922.922,0,0,1-.168.126,1.037,1.037,0,0,1,.178.151,1.492,1.492,0,0,1,.152.2l2.177,2.75h-.879a.425.425,0,0,1-.207-.047.543.543,0,0,1-.162-.146l-1.832-2.282a.407.407,0,0,0-.165-.151.624.624,0,0,0-.247-.036h-.275v2.662h-.985v-8.1Z"/>
      <path class="cls-8" d="M247.5,371.808a2.488,2.488,0,0,1,.924.167,2.072,2.072,0,0,1,.731.484,2.244,2.244,0,0,1,.482.781,3.028,3.028,0,0,1,.172,1.059.632.632,0,0,1-.049.307.2.2,0,0,1-.187.078h-3.707a3.06,3.06,0,0,0,.143.918,1.9,1.9,0,0,0,.363.652,1.437,1.437,0,0,0,.55.39,1.9,1.9,0,0,0,.716.129,2.084,2.084,0,0,0,.634-.085,2.916,2.916,0,0,0,.459-.184,3.53,3.53,0,0,0,.323-.184.434.434,0,0,1,.222-.086.217.217,0,0,1,.187.094l.275.357a1.842,1.842,0,0,1-.434.383,2.7,2.7,0,0,1-.542.267,3.447,3.447,0,0,1-.6.156,3.626,3.626,0,0,1-.61.053,2.862,2.862,0,0,1-1.065-.195,2.345,2.345,0,0,1-.841-.573,2.6,2.6,0,0,1-.552-.931,3.771,3.771,0,0,1-.2-1.277,3.252,3.252,0,0,1,.179-1.089,2.565,2.565,0,0,1,.514-.877,2.351,2.351,0,0,1,.82-.583A2.692,2.692,0,0,1,247.5,371.808Zm.021.719a1.505,1.505,0,0,0-1.116.41,1.934,1.934,0,0,0-.506,1.136h3.031a1.992,1.992,0,0,0-.094-.624,1.378,1.378,0,0,0-.275-.489,1.217,1.217,0,0,0-.443-.319A1.478,1.478,0,0,0,247.516,372.527Z"/>
      <path class="cls-8" d="M251.053,377.467V371.9h.583a.25.25,0,0,1,.264.2l.076.605a3.142,3.142,0,0,1,.812-.649,2.109,2.109,0,0,1,1.037-.247,2,2,0,0,1,.806.151,1.568,1.568,0,0,1,.583.429,1.888,1.888,0,0,1,.354.668,2.889,2.889,0,0,1,.121.863v3.548h-.978v-3.548a1.507,1.507,0,0,0-.289-.982,1.084,1.084,0,0,0-.883-.349,1.651,1.651,0,0,0-.812.209,2.663,2.663,0,0,0-.695.567v4.1Z"/>
      <path class="cls-8" d="M258.005,374.007a8.76,8.76,0,0,0-1.177-4.4.413.413,0,0,1-.055-.187.2.2,0,0,1,.038-.126.374.374,0,0,1,.1-.088l.433-.27a10.47,10.47,0,0,1,.7,1.259,8.552,8.552,0,0,1,.728,2.509,10.417,10.417,0,0,1,0,2.609,8.693,8.693,0,0,1-.262,1.263,8.488,8.488,0,0,1-.466,1.248,10.2,10.2,0,0,1-.7,1.254l-.433-.264a.371.371,0,0,1-.1-.087.208.208,0,0,1-.038-.127.327.327,0,0,1,.011-.088.475.475,0,0,1,.044-.105,9.127,9.127,0,0,0,.875-2.114A8.671,8.671,0,0,0,258.005,374.007Z"/>
    </g>
    <path class="cls-9" d="M321.536,221.717a45,45,0,1,1-45,45A45,45,0,0,1,321.536,221.717Z"/>
    <g>
      <path class="cls-10" d="M315.168,259.394v4.073h-2.152V251.9h3.768a6.584,6.584,0,0,1,2.008.273,3.853,3.853,0,0,1,1.4.76,2.982,2.982,0,0,1,.817,1.168,4.358,4.358,0,0,1-.017,3.028,3.2,3.2,0,0,1-.84,1.2,3.912,3.912,0,0,1-1.4.784,6.225,6.225,0,0,1-1.968.279Zm0-1.679h1.616a3.2,3.2,0,0,0,1.032-.149,1.91,1.91,0,0,0,.728-.423,1.746,1.746,0,0,0,.432-.672,2.573,2.573,0,0,0,.144-.884,2.328,2.328,0,0,0-.144-.84,1.669,1.669,0,0,0-.432-.641,1.932,1.932,0,0,0-.728-.4,3.393,3.393,0,0,0-1.032-.141h-1.616Z"/>
      <path class="cls-10" d="M331.1,251.9v1.769h-3.48v9.8h-2.151v-9.8h-3.5V251.9Z"/>
      <path class="cls-10" d="M285,274.007a8.63,8.63,0,0,0,.3,2.286,9.127,9.127,0,0,0,.875,2.114.529.529,0,0,1,.044.105.432.432,0,0,1,.01.088.2.2,0,0,1-.038.127.366.366,0,0,1-.1.087l-.435.264a10.306,10.306,0,0,1-.7-1.254,8.495,8.495,0,0,1-.467-1.248,8.693,8.693,0,0,1-.262-1.263,10.417,10.417,0,0,1,0-2.609,8.514,8.514,0,0,1,.729-2.509,10.586,10.586,0,0,1,.7-1.259l.435.27a.369.369,0,0,1,.1.088.2.2,0,0,1,.038.126.41.41,0,0,1-.054.187,8.76,8.76,0,0,0-1.177,4.4Z"/>
      <path class="cls-10" d="M288.834,274.519v2.948h-1.062v-7.882H290.1a4.346,4.346,0,0,1,1.3.174,2.491,2.491,0,0,1,.916.492,2,2,0,0,1,.541.769,2.719,2.719,0,0,1,.179,1.007,2.574,2.574,0,0,1-.192,1.007,2.161,2.161,0,0,1-.564.786,2.623,2.623,0,0,1-.921.515,3.988,3.988,0,0,1-1.26.184Zm0-.847H290.1a2.445,2.445,0,0,0,.806-.121,1.681,1.681,0,0,0,.586-.338,1.427,1.427,0,0,0,.357-.521,1.765,1.765,0,0,0,.122-.665,1.513,1.513,0,0,0-.465-1.176,2.027,2.027,0,0,0-1.406-.424h-1.264Z"/>
      <path class="cls-10" d="M294.228,277.467V271.9h.562a.308.308,0,0,1,.22.061.372.372,0,0,1,.082.209l.066.869a2.542,2.542,0,0,1,.707-.91,1.555,1.555,0,0,1,.987-.328,1.508,1.508,0,0,1,.418.053,1.486,1.486,0,0,1,.347.145l-.127.732a.165.165,0,0,1-.171.137.844.844,0,0,1-.236-.052,1.493,1.493,0,0,0-.446-.052,1.258,1.258,0,0,0-.855.3,2.222,2.222,0,0,0-.574.863v3.548Z"/>
      <path class="cls-10" d="M300.916,271.808a2.856,2.856,0,0,1,1.1.2,2.32,2.32,0,0,1,.836.577,2.561,2.561,0,0,1,.528.9,3.917,3.917,0,0,1,0,2.373,2.552,2.552,0,0,1-.528.9,2.3,2.3,0,0,1-.836.574,3.127,3.127,0,0,1-2.206,0,2.338,2.338,0,0,1-.839-.574,2.592,2.592,0,0,1-.533-.9,3.877,3.877,0,0,1,0-2.373,2.6,2.6,0,0,1,.533-.9,2.358,2.358,0,0,1,.839-.577A2.86,2.86,0,0,1,300.916,271.808Zm0,4.971a1.429,1.429,0,0,0,1.232-.552,3.144,3.144,0,0,0,0-3.094,1.427,1.427,0,0,0-1.232-.556,1.7,1.7,0,0,0-.726.144,1.34,1.34,0,0,0-.514.412,1.816,1.816,0,0,0-.308.663,3.9,3.9,0,0,0,0,1.773,1.8,1.8,0,0,0,.308.658,1.383,1.383,0,0,0,.514.41A1.728,1.728,0,0,0,300.916,276.779Z"/>
      <path class="cls-10" d="M308.7,277.467a.249.249,0,0,1-.264-.2l-.089-.677a2.9,2.9,0,0,1-.816.695,2.083,2.083,0,0,1-1.053.262,2.008,2.008,0,0,1-.869-.185,1.79,1.79,0,0,1-.666-.542,2.584,2.584,0,0,1-.423-.89,4.594,4.594,0,0,1-.148-1.227,3.871,3.871,0,0,1,.164-1.146,2.788,2.788,0,0,1,.476-.922,2.183,2.183,0,0,1,1.768-.836,2.008,2.008,0,0,1,.875.174,2.09,2.09,0,0,1,.649.486v-3.091h.979v8.1Zm-1.9-.715a1.571,1.571,0,0,0,.838-.22,2.414,2.414,0,0,0,.663-.622v-2.7a1.552,1.552,0,0,0-.591-.508,1.7,1.7,0,0,0-.712-.147,1.409,1.409,0,0,0-1.2.556,2.586,2.586,0,0,0-.418,1.584,4.059,4.059,0,0,0,.093.933,1.788,1.788,0,0,0,.275.637,1.081,1.081,0,0,0,.445.367A1.52,1.52,0,0,0,306.8,276.752Z"/>
      <path class="cls-10" d="M311.773,271.9v3.553a1.484,1.484,0,0,0,.291.98,1.089,1.089,0,0,0,.88.345,1.683,1.683,0,0,0,.809-.2,2.489,2.489,0,0,0,.7-.566V271.9h.979v5.572h-.583a.249.249,0,0,1-.263-.2l-.077-.6a3.089,3.089,0,0,1-.815.646,2.124,2.124,0,0,1-1.034.245,2.015,2.015,0,0,1-.806-.152,1.6,1.6,0,0,1-.586-.426,1.816,1.816,0,0,1-.354-.666,2.952,2.952,0,0,1-.118-.863V271.9Z"/>
      <path class="cls-10" d="M320.843,272.886a.435.435,0,0,1-.088.092.2.2,0,0,1-.127.034.314.314,0,0,1-.179-.069,2.531,2.531,0,0,0-.244-.151,1.962,1.962,0,0,0-.361-.151,1.906,1.906,0,0,0-1.24.077,1.371,1.371,0,0,0-.525.421,1.87,1.87,0,0,0-.319.665,3.275,3.275,0,0,0-.108.875,3.186,3.186,0,0,0,.116.9,1.922,1.922,0,0,0,.325.66,1.371,1.371,0,0,0,.508.407,1.567,1.567,0,0,0,.674.141,1.687,1.687,0,0,0,.588-.086,1.8,1.8,0,0,0,.386-.189,3.121,3.121,0,0,0,.253-.19.308.308,0,0,1,.2-.086.206.206,0,0,1,.186.094l.276.357a2.125,2.125,0,0,1-.908.653,3.229,3.229,0,0,1-1.15.206,2.455,2.455,0,0,1-.97-.192,2.232,2.232,0,0,1-.779-.559,2.679,2.679,0,0,1-.519-.9,3.629,3.629,0,0,1-.19-1.215,3.693,3.693,0,0,1,.173-1.151,2.6,2.6,0,0,1,.506-.91,2.307,2.307,0,0,1,.822-.6,2.786,2.786,0,0,1,1.122-.213A2.634,2.634,0,0,1,320.3,272a2.5,2.5,0,0,1,.8.536Z"/>
      <path class="cls-10" d="M323.867,277.555a1.345,1.345,0,0,1-1.015-.369,1.472,1.472,0,0,1-.354-1.061v-3.41h-.671a.221.221,0,0,1-.149-.053.2.2,0,0,1-.06-.162v-.391l.913-.115.226-1.722a.2.2,0,0,1,.071-.134.226.226,0,0,1,.154-.052h.494v1.919h1.6v.71h-1.6v3.344a.711.711,0,0,0,.171.522.6.6,0,0,0,.441.171.787.787,0,0,0,.266-.041,1.337,1.337,0,0,0,.2-.091c.054-.033.1-.063.139-.091a.187.187,0,0,1,.1-.041.167.167,0,0,1,.137.093l.287.468a1.836,1.836,0,0,1-.611.371A2.068,2.068,0,0,1,323.867,277.555Z"/>
      <path class="cls-10" d="M333.927,269.585v.9H331.38v6.986h-1.067v-6.986h-2.557v-.9Z"/>
      <path class="cls-10" d="M335.994,271.808a2.856,2.856,0,0,1,1.1.2,2.311,2.311,0,0,1,.836.577,2.561,2.561,0,0,1,.528.9,3.917,3.917,0,0,1,0,2.373,2.552,2.552,0,0,1-.528.9,2.292,2.292,0,0,1-.836.574,3.127,3.127,0,0,1-2.206,0,2.325,2.325,0,0,1-.838-.574,2.579,2.579,0,0,1-.534-.9,3.877,3.877,0,0,1,0-2.373,2.588,2.588,0,0,1,.534-.9,2.345,2.345,0,0,1,.838-.577A2.86,2.86,0,0,1,335.994,271.808Zm0,4.971a1.429,1.429,0,0,0,1.232-.552,3.137,3.137,0,0,0,0-3.094,1.427,1.427,0,0,0-1.232-.556,1.7,1.7,0,0,0-.726.144,1.34,1.34,0,0,0-.514.412,1.816,1.816,0,0,0-.308.663,3.9,3.9,0,0,0,0,1.773,1.8,1.8,0,0,0,.308.658,1.383,1.383,0,0,0,.514.41A1.732,1.732,0,0,0,335.994,276.779Z"/>
      <path class="cls-10" d="M340.873,269.365v4.769h.253a.449.449,0,0,0,.181-.031.5.5,0,0,0,.16-.124l1.76-1.885a.965.965,0,0,1,.165-.144.4.4,0,0,1,.22-.055h.891l-2.051,2.184c-.052.063-.1.117-.151.165a.922.922,0,0,1-.168.126,1.037,1.037,0,0,1,.178.151,1.492,1.492,0,0,1,.152.2l2.177,2.75h-.879a.425.425,0,0,1-.207-.047.543.543,0,0,1-.162-.146l-1.832-2.282a.407.407,0,0,0-.165-.151.624.624,0,0,0-.247-.036h-.275v2.662h-.985v-8.1Z"/>
      <path class="cls-10" d="M347.5,271.808a2.488,2.488,0,0,1,.924.167,2.072,2.072,0,0,1,.731.484,2.244,2.244,0,0,1,.482.781,3.028,3.028,0,0,1,.172,1.059.632.632,0,0,1-.049.307.2.2,0,0,1-.187.078h-3.707a3.06,3.06,0,0,0,.143.918,1.9,1.9,0,0,0,.363.652,1.437,1.437,0,0,0,.55.39,1.9,1.9,0,0,0,.716.129,2.084,2.084,0,0,0,.634-.085,2.916,2.916,0,0,0,.459-.184,3.53,3.53,0,0,0,.323-.184.434.434,0,0,1,.222-.086.217.217,0,0,1,.187.094l.275.357a1.842,1.842,0,0,1-.434.383,2.7,2.7,0,0,1-.542.267,3.447,3.447,0,0,1-.6.156,3.626,3.626,0,0,1-.61.053,2.862,2.862,0,0,1-1.065-.195,2.345,2.345,0,0,1-.841-.573,2.6,2.6,0,0,1-.552-.931,3.771,3.771,0,0,1-.2-1.277,3.252,3.252,0,0,1,.179-1.089,2.565,2.565,0,0,1,.514-.877,2.351,2.351,0,0,1,.82-.583A2.692,2.692,0,0,1,347.5,271.808Zm.021.719a1.505,1.505,0,0,0-1.116.41,1.934,1.934,0,0,0-.506,1.136h3.031a1.992,1.992,0,0,0-.094-.624,1.378,1.378,0,0,0-.275-.489,1.217,1.217,0,0,0-.443-.319A1.478,1.478,0,0,0,347.516,272.527Z"/>
      <path class="cls-10" d="M351.053,277.467V271.9h.583a.25.25,0,0,1,.264.2l.076.605a3.142,3.142,0,0,1,.812-.649,2.109,2.109,0,0,1,1.037-.247,2,2,0,0,1,.806.151,1.568,1.568,0,0,1,.583.429,1.888,1.888,0,0,1,.354.668,2.889,2.889,0,0,1,.121.863v3.548h-.978v-3.548a1.507,1.507,0,0,0-.289-.982,1.084,1.084,0,0,0-.883-.349,1.651,1.651,0,0,0-.812.209,2.663,2.663,0,0,0-.695.567v4.1Z"/>
      <path class="cls-10" d="M358.005,274.007a8.76,8.76,0,0,0-1.177-4.4.413.413,0,0,1-.055-.187.2.2,0,0,1,.038-.126.374.374,0,0,1,.1-.088l.433-.27a10.47,10.47,0,0,1,.7,1.259,8.552,8.552,0,0,1,.728,2.509,10.417,10.417,0,0,1,0,2.609,8.693,8.693,0,0,1-.262,1.263,8.488,8.488,0,0,1-.466,1.248,10.2,10.2,0,0,1-.7,1.254l-.433-.264a.371.371,0,0,1-.1-.087.208.208,0,0,1-.038-.127.327.327,0,0,1,.011-.088.475.475,0,0,1,.044-.105,9.127,9.127,0,0,0,.875-2.114A8.671,8.671,0,0,0,358.005,274.007Z"/>
    </g>
    <g>
      <path class="cls-11" d="M216.683,258.727c.057.141.112.284.164.428.054-.149.11-.292.168-.428s.126-.274.2-.413l3.879-7.047a.459.459,0,0,1,.217-.224,1.01,1.01,0,0,1,.32-.04h1.144v11.464h-1.36v-8.424c0-.112,0-.233.008-.36s.013-.259.024-.392l-3.928,7.168a.617.617,0,0,1-.56.359h-.224a.615.615,0,0,1-.56-.359l-4.016-7.192c.016.138.028.275.036.408s.012.256.012.368v8.424h-1.361V251h1.145a1.014,1.014,0,0,1,.32.04.457.457,0,0,1,.216.224l3.96,7.056A2.951,2.951,0,0,1,216.683,258.727Z"/>
      <path class="cls-11" d="M233.376,251v1.3h-3.7v10.16H228.12v-10.16H224.4V251Z"/>
      <path class="cls-11" d="M174.408,274.179v4.288h-1.544V267h3.384a6.352,6.352,0,0,1,1.892.252,3.616,3.616,0,0,1,1.332.716,2.887,2.887,0,0,1,.789,1.12,3.971,3.971,0,0,1,.259,1.464,3.727,3.727,0,0,1-.28,1.464,3.16,3.16,0,0,1-.819,1.144,3.847,3.847,0,0,1-1.341.748,5.749,5.749,0,0,1-1.832.268Zm0-1.232h1.84a3.563,3.563,0,0,0,1.173-.177,2.392,2.392,0,0,0,.851-.492,2.035,2.035,0,0,0,.521-.756,2.584,2.584,0,0,0,.176-.967,2.2,2.2,0,0,0-.676-1.712,2.957,2.957,0,0,0-2.045-.616h-1.84Z"/>
      <path class="cls-11" d="M182.257,278.467v-8.1h.816a.451.451,0,0,1,.319.088.533.533,0,0,1,.12.3l.1,1.264a3.718,3.718,0,0,1,1.028-1.325,2.282,2.282,0,0,1,1.437-.475,2.236,2.236,0,0,1,.607.076,2.1,2.1,0,0,1,.5.212L187,271.57a.24.24,0,0,1-.248.2,1.225,1.225,0,0,1-.344-.076,2.2,2.2,0,0,0-.648-.075,1.837,1.837,0,0,0-1.245.432,3.26,3.26,0,0,0-.836,1.256v5.16Z"/>
      <path class="cls-11" d="M191.984,270.234a4.171,4.171,0,0,1,1.6.3,3.37,3.37,0,0,1,1.215.84,3.711,3.711,0,0,1,.769,1.315,5.7,5.7,0,0,1,0,3.453,3.733,3.733,0,0,1-.769,1.312,3.348,3.348,0,0,1-1.215.836,4.552,4.552,0,0,1-3.208,0,3.385,3.385,0,0,1-1.22-.836,3.747,3.747,0,0,1-.776-1.312,5.615,5.615,0,0,1,0-3.453,3.725,3.725,0,0,1,.776-1.315,3.407,3.407,0,0,1,1.22-.84A4.168,4.168,0,0,1,191.984,270.234Zm0,7.233a2.08,2.08,0,0,0,1.792-.8,4.572,4.572,0,0,0,0-4.5,2.075,2.075,0,0,0-1.792-.809,2.5,2.5,0,0,0-1.056.208,1.984,1.984,0,0,0-.749.6,2.678,2.678,0,0,0-.447.964,5.7,5.7,0,0,0,0,2.58,2.646,2.646,0,0,0,.447.956,2,2,0,0,0,.749.6A2.5,2.5,0,0,0,191.984,277.467Z"/>
      <path class="cls-11" d="M203.3,278.467a.361.361,0,0,1-.383-.3l-.128-.985A4.269,4.269,0,0,1,201.6,278.2a3.046,3.046,0,0,1-1.532.38,2.922,2.922,0,0,1-1.264-.269,2.6,2.6,0,0,1-.967-.788,3.74,3.74,0,0,1-.617-1.3,6.716,6.716,0,0,1-.215-1.785,5.6,5.6,0,0,1,.24-1.668,4.046,4.046,0,0,1,.691-1.339,3.178,3.178,0,0,1,2.572-1.216,2.929,2.929,0,0,1,1.272.252,3.046,3.046,0,0,1,.944.708v-4.5h1.424v11.784Zm-2.759-1.04a2.284,2.284,0,0,0,1.219-.321,3.483,3.483,0,0,0,.964-.9v-3.92a2.257,2.257,0,0,0-.86-.74,2.469,2.469,0,0,0-1.035-.212,2.052,2.052,0,0,0-1.744.808,3.767,3.767,0,0,0-.609,2.3,5.843,5.843,0,0,0,.136,1.357,2.636,2.636,0,0,0,.4.928,1.574,1.574,0,0,0,.649.532A2.175,2.175,0,0,0,200.545,277.427Z"/>
      <path class="cls-11" d="M207.776,270.363v5.168a2.149,2.149,0,0,0,.424,1.424,1.576,1.576,0,0,0,1.279.5,2.46,2.46,0,0,0,1.177-.3,3.679,3.679,0,0,0,1.016-.824v-5.976H213.1v8.1h-.847a.363.363,0,0,1-.384-.3l-.112-.872a4.463,4.463,0,0,1-1.184.94,3.107,3.107,0,0,1-1.5.356,2.943,2.943,0,0,1-1.173-.22,2.334,2.334,0,0,1-.851-.62,2.614,2.614,0,0,1-.516-.968,4.314,4.314,0,0,1-.173-1.256v-5.168Z"/>
      <path class="cls-11" d="M220.969,271.8a.645.645,0,0,1-.128.135.3.3,0,0,1-.185.048.459.459,0,0,1-.26-.1,3.679,3.679,0,0,0-.356-.22,3.017,3.017,0,0,0-.524-.22,2.777,2.777,0,0,0-1.8.112,2.019,2.019,0,0,0-.765.612,2.784,2.784,0,0,0-.464.968,4.843,4.843,0,0,0-.156,1.272,4.686,4.686,0,0,0,.168,1.308,2.808,2.808,0,0,0,.473.96,2,2,0,0,0,.739.591,2.274,2.274,0,0,0,.98.205,2.506,2.506,0,0,0,.857-.124,2.6,2.6,0,0,0,.559-.276,3.892,3.892,0,0,0,.368-.276.442.442,0,0,1,.289-.124.3.3,0,0,1,.271.135l.4.521a3.068,3.068,0,0,1-1.32.947,4.68,4.68,0,0,1-1.672.3,3.552,3.552,0,0,1-1.412-.28,3.225,3.225,0,0,1-1.132-.813,3.845,3.845,0,0,1-.756-1.307,5.262,5.262,0,0,1-.276-1.768,5.338,5.338,0,0,1,.252-1.672,3.777,3.777,0,0,1,.736-1.324,3.327,3.327,0,0,1,1.2-.868,4.025,4.025,0,0,1,1.631-.313,3.846,3.846,0,0,1,1.5.277,3.566,3.566,0,0,1,1.16.78Z"/>
      <path class="cls-11" d="M225.368,278.6a1.955,1.955,0,0,1-1.476-.536,2.142,2.142,0,0,1-.516-1.544v-4.96H222.4a.317.317,0,0,1-.216-.077.291.291,0,0,1-.089-.235v-.568l1.329-.168.328-2.5a.3.3,0,0,1,.1-.2.329.329,0,0,1,.224-.077h.72v2.792h2.32v1.033H224.8v4.864a1.036,1.036,0,0,0,.248.76.869.869,0,0,0,.64.248,1.13,1.13,0,0,0,.388-.06,1.6,1.6,0,0,0,.284-.133c.08-.048.148-.091.2-.132a.264.264,0,0,1,.148-.059.244.244,0,0,1,.2.136l.416.679a2.609,2.609,0,0,1-.888.54A3.006,3.006,0,0,1,225.368,278.6Z"/>
      <path class="cls-11" d="M240.271,276.1a.325.325,0,0,1,.233.1l.607.664a4.9,4.9,0,0,1-1.708,1.272,5.835,5.835,0,0,1-2.42.456,5.709,5.709,0,0,1-2.248-.428,4.934,4.934,0,0,1-1.72-1.2,5.431,5.431,0,0,1-1.1-1.852,6.91,6.91,0,0,1-.393-2.376,6.524,6.524,0,0,1,.42-2.376,5.423,5.423,0,0,1,1.181-1.856,5.262,5.262,0,0,1,1.819-1.2,6.209,6.209,0,0,1,2.341-.428,5.223,5.223,0,0,1,3.808,1.456l-.5.712a.537.537,0,0,1-.128.132.349.349,0,0,1-.208.052.407.407,0,0,1-.221-.077c-.077-.049-.169-.113-.275-.187s-.233-.154-.376-.24a3.518,3.518,0,0,0-.512-.241,4.369,4.369,0,0,0-.688-.187,4.772,4.772,0,0,0-.905-.076,4.35,4.35,0,0,0-1.683.316,3.764,3.764,0,0,0-1.317.9,4.089,4.089,0,0,0-.859,1.423,5.425,5.425,0,0,0-.309,1.881,5.507,5.507,0,0,0,.309,1.911,4.185,4.185,0,0,0,.84,1.42,3.525,3.525,0,0,0,1.259.885,4.044,4.044,0,0,0,1.569.3,6.38,6.38,0,0,0,.92-.06,3.836,3.836,0,0,0,.756-.188,3.135,3.135,0,0,0,.647-.325,5.03,5.03,0,0,0,.605-.467A.4.4,0,0,1,240.271,276.1Z"/>
      <path class="cls-11" d="M242.928,278.467V266.683h1.423v4.768a4.39,4.39,0,0,1,1.153-.885,3.1,3.1,0,0,1,1.456-.332,2.941,2.941,0,0,1,1.172.221,2.271,2.271,0,0,1,.847.624,2.766,2.766,0,0,1,.517.972,4.246,4.246,0,0,1,.176,1.256v5.16h-1.424v-5.16a2.186,2.186,0,0,0-.42-1.428,1.569,1.569,0,0,0-1.284-.508,2.4,2.4,0,0,0-1.181.3,3.9,3.9,0,0,0-1.012.824v5.968Z"/>
      <path class="cls-11" d="M257.775,278.467h-.632a.75.75,0,0,1-.336-.065.351.351,0,0,1-.168-.271l-.16-.752c-.214.191-.422.364-.624.515a3.469,3.469,0,0,1-.64.384,3.236,3.236,0,0,1-.716.237,4.123,4.123,0,0,1-.844.08,2.886,2.886,0,0,1-.884-.132,2.035,2.035,0,0,1-.716-.4,1.878,1.878,0,0,1-.484-.671,2.345,2.345,0,0,1-.18-.959,1.8,1.8,0,0,1,.264-.927,2.313,2.313,0,0,1,.852-.79,5.531,5.531,0,0,1,1.54-.567,10.553,10.553,0,0,1,2.328-.22V273.3a2.206,2.206,0,0,0-.4-1.437,1.463,1.463,0,0,0-1.2-.487,2.533,2.533,0,0,0-.876.132,3.274,3.274,0,0,0-.616.3q-.259.164-.448.3a.645.645,0,0,1-.372.132.425.425,0,0,1-.252-.077.569.569,0,0,1-.172-.187l-.256-.456a4.626,4.626,0,0,1,1.448-.968,4.458,4.458,0,0,1,1.72-.32,3.094,3.094,0,0,1,1.208.223,2.494,2.494,0,0,1,.888.624,2.646,2.646,0,0,1,.544.969,4.016,4.016,0,0,1,.184,1.248Zm-3.7-.872a2.94,2.94,0,0,0,.688-.076,2.751,2.751,0,0,0,.588-.216,3.116,3.116,0,0,0,.528-.34,4.515,4.515,0,0,0,.492-.456v-1.672a9.468,9.468,0,0,0-1.672.125,4.666,4.666,0,0,0-1.12.325,1.575,1.575,0,0,0-.628.475,1.022,1.022,0,0,0-.2.612,1.364,1.364,0,0,0,.1.555,1.058,1.058,0,0,0,.28.383,1.13,1.13,0,0,0,.416.216A1.874,1.874,0,0,0,254.079,277.6Z"/>
      <path class="cls-11" d="M261.84,267.818a.921.921,0,0,1-.084.389,1.1,1.1,0,0,1-.225.319,1.043,1.043,0,0,1-.323.221.983.983,0,0,1-.393.08.947.947,0,0,1-.387-.08,1.058,1.058,0,0,1-.321-.221,1.034,1.034,0,0,1-.22-.319.95.95,0,0,1-.08-.389,1,1,0,0,1,.08-.395,1.028,1.028,0,0,1,.22-.328,1.055,1.055,0,0,1,.321-.22.931.931,0,0,1,.387-.08.966.966,0,0,1,.393.08,1.04,1.04,0,0,1,.323.22,1.094,1.094,0,0,1,.225.328A.973.973,0,0,1,261.84,267.818Zm-.321,2.545v8.1H260.1v-8.1Z"/>
      <path class="cls-11" d="M264.031,278.467v-8.1h.848a.363.363,0,0,1,.384.3l.112.88a4.535,4.535,0,0,1,1.18-.944,3.058,3.058,0,0,1,1.508-.361,2.938,2.938,0,0,1,1.172.221,2.275,2.275,0,0,1,.848.624,2.78,2.78,0,0,1,.516.972,4.213,4.213,0,0,1,.176,1.256v5.16h-1.424v-5.16a2.181,2.181,0,0,0-.42-1.428,1.569,1.569,0,0,0-1.284-.508,2.4,2.4,0,0,0-1.18.3,3.87,3.87,0,0,0-1.012.824v5.968Z"/>
    </g>
    <g>
      <path class="cls-12" d="M159.273,32.163h4.96v1.3H157.72V22h1.553Z"/>
      <path class="cls-12" d="M166.953,25.363v5.168a2.149,2.149,0,0,0,.424,1.424,1.576,1.576,0,0,0,1.279.5,2.46,2.46,0,0,0,1.177-.3,3.661,3.661,0,0,0,1.015-.824V25.363h1.424v8.1h-.847a.362.362,0,0,1-.384-.3l-.113-.872a4.459,4.459,0,0,1-1.183.94,3.112,3.112,0,0,1-1.5.356,2.943,2.943,0,0,1-1.173-.22,2.334,2.334,0,0,1-.851-.62,2.614,2.614,0,0,1-.516-.968,4.314,4.314,0,0,1-.173-1.256V25.363Z"/>
      <path class="cls-12" d="M174.616,33.467v-8.1h.848a.363.363,0,0,1,.384.3l.112.88a4.535,4.535,0,0,1,1.18-.944,3.058,3.058,0,0,1,1.508-.361,2.938,2.938,0,0,1,1.172.221,2.275,2.275,0,0,1,.848.624,2.78,2.78,0,0,1,.516.972,4.213,4.213,0,0,1,.176,1.256v5.16h-1.424v-5.16a2.181,2.181,0,0,0-.42-1.428,1.569,1.569,0,0,0-1.284-.508,2.4,2.4,0,0,0-1.18.3,3.87,3.87,0,0,0-1.012.824v5.968Z"/>
      <path class="cls-12" d="M185.417,22.818a.921.921,0,0,1-.084.389,1.1,1.1,0,0,1-.225.319,1.043,1.043,0,0,1-.323.221.983.983,0,0,1-.393.08.947.947,0,0,1-.387-.08,1.071,1.071,0,0,1-.321-.221,1.031,1.031,0,0,1-.219-.319.934.934,0,0,1-.08-.389.986.986,0,0,1,.08-.4,1.025,1.025,0,0,1,.219-.328,1.067,1.067,0,0,1,.321-.22.931.931,0,0,1,.387-.08.966.966,0,0,1,.393.08,1.04,1.04,0,0,1,.323.22,1.094,1.094,0,0,1,.225.328A.973.973,0,0,1,185.417,22.818Zm-.321,2.545v8.1h-1.423v-8.1Z"/>
      <path class="cls-12" d="M186.584,25.363h1.168a.442.442,0,0,1,.28.088.5.5,0,0,1,.16.208l2.056,5.216a3.925,3.925,0,0,1,.177.576q.063.288.119.568c.043-.187.089-.376.136-.568a4.866,4.866,0,0,1,.184-.576l2.08-5.216a.471.471,0,0,1,.156-.212.425.425,0,0,1,.268-.084h1.112l-3.3,8.1h-1.289Z"/>
      <path class="cls-12" d="M198.8,25.234a3.624,3.624,0,0,1,1.343.244,3.037,3.037,0,0,1,1.065.7,3.2,3.2,0,0,1,.7,1.135,4.394,4.394,0,0,1,.252,1.54.932.932,0,0,1-.072.449.3.3,0,0,1-.273.112h-5.391a4.455,4.455,0,0,0,.208,1.336,2.719,2.719,0,0,0,.528.948,2.108,2.108,0,0,0,.8.567,2.733,2.733,0,0,0,1.04.189,3.044,3.044,0,0,0,.924-.124,4.365,4.365,0,0,0,.668-.269,4.828,4.828,0,0,0,.467-.267.621.621,0,0,1,.325-.124.314.314,0,0,1,.272.135l.4.521a2.709,2.709,0,0,1-.631.556,3.9,3.9,0,0,1-.788.387,5,5,0,0,1-.869.229,5.252,5.252,0,0,1-.887.076,4.124,4.124,0,0,1-1.548-.284,3.414,3.414,0,0,1-1.225-.832,3.83,3.83,0,0,1-.8-1.357,5.533,5.533,0,0,1-.288-1.855,4.725,4.725,0,0,1,.26-1.584,3.746,3.746,0,0,1,.748-1.276,3.434,3.434,0,0,1,1.193-.848A3.916,3.916,0,0,1,198.8,25.234Zm.032,1.049a2.181,2.181,0,0,0-1.624.6,2.8,2.8,0,0,0-.737,1.652h4.409a2.9,2.9,0,0,0-.136-.908,2.041,2.041,0,0,0-.4-.712,1.8,1.8,0,0,0-.644-.464A2.181,2.181,0,0,0,198.832,26.283Z"/>
      <path class="cls-12" d="M203.975,33.467v-8.1h.817a.451.451,0,0,1,.319.088.533.533,0,0,1,.12.3l.1,1.264a3.707,3.707,0,0,1,1.028-1.325,2.28,2.28,0,0,1,1.437-.475,2.241,2.241,0,0,1,.607.076,2.1,2.1,0,0,1,.5.212l-.184,1.063a.24.24,0,0,1-.248.2,1.22,1.22,0,0,1-.343-.076,2.208,2.208,0,0,0-.649-.075,1.837,1.837,0,0,0-1.244.432,3.26,3.26,0,0,0-.836,1.256v5.16Z"/>
      <path class="cls-12" d="M215.063,26.7a.315.315,0,0,1-.3.176.546.546,0,0,1-.271-.088c-.1-.059-.226-.124-.372-.2a3.432,3.432,0,0,0-.525-.2,2.468,2.468,0,0,0-.719-.092,2.111,2.111,0,0,0-.649.092,1.548,1.548,0,0,0-.491.252,1.109,1.109,0,0,0-.312.372.986.986,0,0,0-.108.46.767.767,0,0,0,.18.52,1.535,1.535,0,0,0,.475.359,4.107,4.107,0,0,0,.672.269q.377.115.773.248c.263.088.521.186.771.292a2.79,2.79,0,0,1,.673.4,1.869,1.869,0,0,1,.476.588,1.8,1.8,0,0,1,.179.836,2.649,2.649,0,0,1-.2,1.036,2.261,2.261,0,0,1-.593.825,2.815,2.815,0,0,1-.96.547,3.921,3.921,0,0,1-1.311.2,4.072,4.072,0,0,1-1.536-.277,3.868,3.868,0,0,1-1.168-.708l.336-.544a.475.475,0,0,1,.152-.159.421.421,0,0,1,.231-.056.532.532,0,0,1,.3.112c.108.074.236.157.389.248a2.956,2.956,0,0,0,.552.248,2.53,2.53,0,0,0,.812.111,2.233,2.233,0,0,0,.728-.107,1.522,1.522,0,0,0,.519-.292,1.162,1.162,0,0,0,.309-.424,1.332,1.332,0,0,0,.1-.513.847.847,0,0,0-.179-.555,1.518,1.518,0,0,0-.476-.376,3.865,3.865,0,0,0-.677-.272q-.379-.117-.775-.244c-.265-.086-.523-.183-.776-.292a2.728,2.728,0,0,1-.676-.412,1.867,1.867,0,0,1-.477-.612,1.993,1.993,0,0,1-.179-.884,2.161,2.161,0,0,1,.192-.893,2.2,2.2,0,0,1,.559-.752,2.779,2.779,0,0,1,.905-.515,3.608,3.608,0,0,1,1.223-.193,3.878,3.878,0,0,1,1.437.252,3.431,3.431,0,0,1,1.1.693Z"/>
      <path class="cls-12" d="M220.575,25.234a3.63,3.63,0,0,1,1.344.244,3.033,3.033,0,0,1,1.064.7,3.2,3.2,0,0,1,.7,1.135,4.394,4.394,0,0,1,.252,1.54.932.932,0,0,1-.072.449.3.3,0,0,1-.272.112H218.2a4.487,4.487,0,0,0,.208,1.336,2.735,2.735,0,0,0,.528.948,2.116,2.116,0,0,0,.8.567,2.737,2.737,0,0,0,1.04.189,3.039,3.039,0,0,0,.924-.124,4.324,4.324,0,0,0,.668-.269,4.857,4.857,0,0,0,.468-.267.619.619,0,0,1,.324-.124.314.314,0,0,1,.272.135l.4.521a2.735,2.735,0,0,1-.632.556,3.87,3.87,0,0,1-.788.387,4.97,4.97,0,0,1-.868.229,5.273,5.273,0,0,1-.888.076,4.127,4.127,0,0,1-1.548-.284,3.41,3.41,0,0,1-1.224-.832,3.815,3.815,0,0,1-.8-1.357,5.508,5.508,0,0,1-.288-1.855,4.725,4.725,0,0,1,.26-1.584,3.714,3.714,0,0,1,.748-1.276,3.43,3.43,0,0,1,1.192-.848A3.92,3.92,0,0,1,220.575,25.234Zm.032,1.049a2.184,2.184,0,0,0-1.624.6,2.808,2.808,0,0,0-.736,1.652h4.408a2.9,2.9,0,0,0-.136-.908,2.026,2.026,0,0,0-.4-.712,1.8,1.8,0,0,0-.644-.464A2.181,2.181,0,0,0,220.607,26.283Z"/>
      <path class="cls-12" d="M234.9,29.727c.057.141.112.284.164.428.054-.149.11-.292.168-.428s.126-.274.2-.413l3.88-7.047a.459.459,0,0,1,.217-.224,1.007,1.007,0,0,1,.319-.04h1.145V33.467h-1.36V25.043c0-.112,0-.233.007-.36s.014-.259.025-.392l-3.928,7.168a.617.617,0,0,1-.56.359h-.224a.618.618,0,0,1-.561-.359l-4.015-7.192c.015.138.028.275.036.408s.012.256.012.368v8.424h-1.361V22h1.145a1.018,1.018,0,0,1,.32.04.457.457,0,0,1,.216.224l3.96,7.056A2.951,2.951,0,0,1,234.9,29.727Z"/>
      <path class="cls-12" d="M249.511,33.467h-.632a.747.747,0,0,1-.336-.065.349.349,0,0,1-.168-.271l-.16-.752c-.214.191-.422.364-.624.515a3.477,3.477,0,0,1-.641.384,3.236,3.236,0,0,1-.716.237,4.123,4.123,0,0,1-.844.08,2.875,2.875,0,0,1-.883-.132,2.017,2.017,0,0,1-.716-.4,1.893,1.893,0,0,1-.485-.671,2.345,2.345,0,0,1-.179-.959,1.8,1.8,0,0,1,.263-.927,2.313,2.313,0,0,1,.852-.79,5.544,5.544,0,0,1,1.54-.567,10.559,10.559,0,0,1,2.328-.22V28.3a2.212,2.212,0,0,0-.4-1.437,1.465,1.465,0,0,0-1.2-.487,2.533,2.533,0,0,0-.876.132,3.255,3.255,0,0,0-.617.3q-.26.164-.448.3a.645.645,0,0,1-.372.132.425.425,0,0,1-.252-.077.58.58,0,0,1-.172-.187l-.256-.456a4.63,4.63,0,0,1,1.449-.968,4.45,4.45,0,0,1,1.719-.32,3.091,3.091,0,0,1,1.208.223,2.476,2.476,0,0,1,.888.624,2.646,2.646,0,0,1,.544.969,4.015,4.015,0,0,1,.185,1.248Zm-3.7-.872a2.949,2.949,0,0,0,.689-.076,2.771,2.771,0,0,0,.588-.216,3.148,3.148,0,0,0,.527-.34,4.515,4.515,0,0,0,.492-.456V29.835a9.476,9.476,0,0,0-1.672.125,4.666,4.666,0,0,0-1.12.325,1.575,1.575,0,0,0-.628.475,1.022,1.022,0,0,0-.2.612,1.364,1.364,0,0,0,.1.555,1.06,1.06,0,0,0,.281.383,1.122,1.122,0,0,0,.416.216A1.872,1.872,0,0,0,245.814,32.6Z"/>
      <path class="cls-12" d="M253.574,22.818a.906.906,0,0,1-.084.389,1.1,1.1,0,0,1-.225.319,1.031,1.031,0,0,1-.323.221.982.982,0,0,1-.392.08.949.949,0,0,1-.388-.08,1.054,1.054,0,0,1-.32-.221,1.034,1.034,0,0,1-.22-.319.934.934,0,0,1-.08-.389.986.986,0,0,1,.08-.4,1.028,1.028,0,0,1,.22-.328,1.051,1.051,0,0,1,.32-.22.933.933,0,0,1,.388-.08.965.965,0,0,1,.392.08,1.029,1.029,0,0,1,.323.22,1.094,1.094,0,0,1,.225.328A.957.957,0,0,1,253.574,22.818Zm-.32,2.545v8.1H251.83v-8.1Z"/>
      <path class="cls-12" d="M255.765,33.467v-8.1h.848a.365.365,0,0,1,.385.3l.111.88a4.54,4.54,0,0,1,1.181-.944,3.053,3.053,0,0,1,1.508-.361,2.933,2.933,0,0,1,1.171.221,2.267,2.267,0,0,1,.848.624,2.766,2.766,0,0,1,.517.972,4.246,4.246,0,0,1,.176,1.256v5.16h-1.424v-5.16a2.186,2.186,0,0,0-.42-1.428,1.569,1.569,0,0,0-1.284-.508,2.4,2.4,0,0,0-1.181.3,3.9,3.9,0,0,0-1.012.824v5.968Z"/>
      <path class="cls-12" d="M264.662,33.467v-8.1h.848a.363.363,0,0,1,.384.3l.112.88a4.535,4.535,0,0,1,1.18-.944,3.058,3.058,0,0,1,1.508-.361,2.941,2.941,0,0,1,1.172.221,2.275,2.275,0,0,1,.848.624,2.78,2.78,0,0,1,.516.972,4.246,4.246,0,0,1,.176,1.256v5.16h-1.424v-5.16a2.181,2.181,0,0,0-.42-1.428,1.569,1.569,0,0,0-1.284-.508,2.407,2.407,0,0,0-1.181.3,3.882,3.882,0,0,0-1.011.824v5.968Z"/>
      <path class="cls-12" d="M276.766,25.234a3.626,3.626,0,0,1,1.344.244,3.037,3.037,0,0,1,1.065.7,3.215,3.215,0,0,1,.7,1.135,4.394,4.394,0,0,1,.252,1.54.929.929,0,0,1-.073.449.3.3,0,0,1-.272.112H274.39a4.487,4.487,0,0,0,.208,1.336,2.72,2.72,0,0,0,.529.948,2.1,2.1,0,0,0,.8.567,2.733,2.733,0,0,0,1.04.189,3.032,3.032,0,0,0,.923-.124,4.284,4.284,0,0,0,.668-.269,4.738,4.738,0,0,0,.468-.267.621.621,0,0,1,.324-.124.316.316,0,0,1,.273.135l.4.521a2.714,2.714,0,0,1-.632.556,3.845,3.845,0,0,1-.788.387,4.97,4.97,0,0,1-.868.229,5.273,5.273,0,0,1-.888.076A4.122,4.122,0,0,1,275.3,33.3a3.414,3.414,0,0,1-1.225-.832,3.83,3.83,0,0,1-.8-1.357,5.533,5.533,0,0,1-.288-1.855,4.725,4.725,0,0,1,.26-1.584,3.746,3.746,0,0,1,.748-1.276,3.439,3.439,0,0,1,1.192-.848A3.92,3.92,0,0,1,276.766,25.234Zm.033,1.049a2.181,2.181,0,0,0-1.624.6,2.8,2.8,0,0,0-.737,1.652h4.408a2.9,2.9,0,0,0-.135-.908,2.028,2.028,0,0,0-.4-.712,1.789,1.789,0,0,0-.643-.464A2.181,2.181,0,0,0,276.8,26.283Z"/>
      <path class="cls-12" d="M284.4,33.6a1.953,1.953,0,0,1-1.475-.536,2.138,2.138,0,0,1-.517-1.544v-4.96h-.976a.313.313,0,0,1-.215-.077.288.288,0,0,1-.089-.235v-.568l1.328-.168.328-2.5a.306.306,0,0,1,.1-.2.329.329,0,0,1,.224-.077h.72v2.792h2.32v1.033h-2.32v4.864a1.036,1.036,0,0,0,.248.76.87.87,0,0,0,.641.248,1.128,1.128,0,0,0,.387-.06,1.57,1.57,0,0,0,.284-.133c.08-.048.148-.091.2-.132a.264.264,0,0,1,.148-.059.243.243,0,0,1,.2.136l.416.679a2.609,2.609,0,0,1-.888.54A3.006,3.006,0,0,1,284.4,33.6Z"/>
    </g>
    <path class="cls-1" d="M221.536,167.6a.5.5,0,0,1-.5-.5V146.467a.5.5,0,0,1,1,0V167.1A.5.5,0,0,1,221.536,167.6Z"/>
    <g>
      <polygon class="cls-10" points="443.071 255.097 436.161 251.128 436.161 254.53 377.063 254.53 377.063 255.664 436.161 255.664 436.161 259.065 443.071 255.097"/>
      <polygon class="cls-10" points="375.04 269.837 381.949 265.868 381.949 269.27 441.048 269.27 441.048 270.404 381.949 270.404 381.949 273.805 375.04 269.837"/>
    </g>
    <g>
      <rect class="cls-13" x="387.904" y="251.628" width="42.303" height="21.678"/>
      <path class="cls-10" d="M429.707,252.128v20.677H388.4V252.128h41.3m1-1H387.4v22.677h43.3V251.128Z"/>
    </g>
    <g>
      <path class="cls-10" d="M408.557,258.227v.978H405.78v7.62h-1.165v-7.62h-2.79v-.978Z"/>
      <path class="cls-10" d="M411.78,262.409l-2.838-4.182H410.1a.328.328,0,0,1,.186.042.378.378,0,0,1,.108.121l2.244,3.443a1.585,1.585,0,0,1,.126-.275l2.119-3.145a.564.564,0,0,1,.117-.135.235.235,0,0,1,.153-.051h1.109l-2.85,4.128,2.947,4.47h-1.153a.292.292,0,0,1-.206-.069.592.592,0,0,1-.123-.153l-2.3-3.606a1.3,1.3,0,0,1-.108.24l-2.245,3.366a.916.916,0,0,1-.123.153.26.26,0,0,1-.194.069h-1.08Z"/>
    </g>
    <g>
      <polygon class="cls-6" points="68.031 255.097 61.122 251.128 61.122 254.53 2.023 254.53 2.023 255.664 61.122 255.664 61.122 259.065 68.031 255.097"/>
      <polygon class="cls-6" points="0 269.837 6.91 265.868 6.91 269.27 66.008 269.27 66.008 270.404 6.91 270.404 6.91 273.805 0 269.837"/>
    </g>
    <g>
      <rect class="cls-13" x="12.864" y="251.628" width="42.303" height="21.678"/>
      <path class="cls-6" d="M54.667,252.128v20.677h-41.3V252.128h41.3m1-1h-43.3v22.677h43.3V251.128Z"/>
    </g>
    <g>
      <path class="cls-6" d="M33.518,258.227v.978H30.74v7.62H29.576v-7.62h-2.79v-.978Z"/>
      <path class="cls-6" d="M36.74,262.409,33.9,258.227H35.06a.328.328,0,0,1,.186.042.391.391,0,0,1,.108.121l2.244,3.443a1.585,1.585,0,0,1,.126-.275l2.118-3.145a.564.564,0,0,1,.117-.135.235.235,0,0,1,.153-.051h1.11l-2.85,4.128,2.946,4.47H40.166a.294.294,0,0,1-.207-.069.637.637,0,0,1-.123-.153L37.532,263a1.3,1.3,0,0,1-.108.24L35.18,266.6a.916.916,0,0,1-.123.153.264.264,0,0,1-.2.069h-1.08Z"/>
    </g>
    <g>
      <polygon class="cls-8" points="342.891 356.097 335.982 352.128 335.982 355.53 276.883 355.53 276.883 356.664 335.982 356.664 335.982 360.065 342.891 356.097"/>
      <polygon class="cls-8" points="274.86 370.837 281.769 366.868 281.769 370.27 340.868 370.27 340.868 371.404 281.769 371.404 281.769 374.805 274.86 370.837"/>
    </g>
    <g>
      <rect class="cls-13" x="287.724" y="352.628" width="42.303" height="21.678"/>
      <path class="cls-8" d="M329.527,353.128v20.677h-41.3V353.128h41.3m1-1h-43.3v22.677h43.3V352.128Z"/>
    </g>
    <g>
      <path class="cls-8" d="M308.378,359.227v.978H305.6v7.62h-1.164v-7.62h-2.79v-.978Z"/>
      <path class="cls-8" d="M311.6,363.409l-2.838-4.182h1.158a.328.328,0,0,1,.186.042.391.391,0,0,1,.108.121l2.244,3.443a1.585,1.585,0,0,1,.126-.275l2.118-3.145a.564.564,0,0,1,.117-.135.235.235,0,0,1,.153-.051h1.11l-2.85,4.128,2.946,4.47h-1.152a.294.294,0,0,1-.207-.069.637.637,0,0,1-.123-.153l-2.3-3.606a1.3,1.3,0,0,1-.108.24L310.04,367.6a.916.916,0,0,1-.123.153.264.264,0,0,1-.195.069h-1.08Z"/>
    </g>
  </g>
</svg>
