<?xml version="1.0" encoding="utf-8"?>
<!-- Generator: Adobe Illustrator 17.0.0, SVG Export Plug-In . SVG Version: 6.00 Build 0)  -->
<!DOCTYPE svg PUBLIC "-//W3C//DTD SVG 1.1//EN" "http://www.w3.org/Graphics/SVG/1.1/DTD/svg11.dtd">
<svg version="1.1" id="_x3C_Layer_x3E_" xmlns="http://www.w3.org/2000/svg" xmlns:xlink="http://www.w3.org/1999/xlink" x="0px"
	 y="0px" width="407px" height="371.935px" viewBox="0 0 407 371.935" enable-background="new 0 0 407 371.935"
	 xml:space="preserve">
<defs>
	<filter id="Adobe_OpacityMaskFilter" filterUnits="userSpaceOnUse" x="94.449" y="109.074" width="155.14" height="53.145">
		<feFlood  style="flood-color:white;flood-opacity:1" result="back"/>
		<feBlend  in="SourceGraphic" in2="back" mode="normal"/>
	</filter>
</defs>
<mask maskUnits="userSpaceOnUse" x="94.449" y="109.074" width="155.14" height="53.145" id="SVGID_1_">
	<g filter="url(#Adobe_OpacityMaskFilter)">
		<defs>
			<filter id="Adobe_OpacityMaskFilter_1_" filterUnits="userSpaceOnUse" x="94.449" y="109.074" width="155.14" height="53.145">
				<feFlood  style="flood-color:white;flood-opacity:1" result="back"/>
				<feBlend  in="SourceGraphic" in2="back" mode="normal"/>
			</filter>
		</defs>
		<mask maskUnits="userSpaceOnUse" x="94.449" y="109.074" width="155.14" height="53.145" id="SVGID_1_">
			<g filter="url(#Adobe_OpacityMaskFilter_1_)">
			</g>
		</mask>
		<linearGradient id="SVGID_2_" gradientUnits="userSpaceOnUse" x1="94.449" y1="135.6467" x2="249.5891" y2="135.6467">
			<stop  offset="0.0108" style="stop-color:#FFFFFF"/>
			<stop  offset="0.0979" style="stop-color:#DEDEDE"/>
			<stop  offset="0.2886" style="stop-color:#9C9C9C"/>
			<stop  offset="0.47" style="stop-color:#646464"/>
			<stop  offset="0.6368" style="stop-color:#393939"/>
			<stop  offset="0.7859" style="stop-color:#1A1A1A"/>
			<stop  offset="0.912" style="stop-color:#070707"/>
			<stop  offset="1" style="stop-color:#000000"/>
		</linearGradient>
		<polygon mask="url(#SVGID_1_)" fill="url(#SVGID_2_)" points="249.589,128.176 216.72,109.074 153.577,109.074 94.449,143.212 
			127.481,162.219 190.623,162.219 		"/>
	</g>
</mask>
<polygon fill="#5490FF" points="249.589,128.176 216.72,109.074 153.577,109.074 94.449,143.212 127.481,162.219 190.623,162.219 
	"/>
<g>
	<polygon fill="#2370FF" points="175.525,147.52 191.048,138.558 113.134,93.278 34.715,138.553 50.239,147.574 113.134,111.262 	
		"/>
	<polygon fill="#014CD9" points="175.525,147.52 113.134,111.262 50.239,147.574 112.63,183.832 	"/>
</g>
<polygon fill="#699DFF" points="93.641,172.796 112.63,183.832 130.946,173.257 130.946,113.54 93.641,113.54 "/>
<g>
	<g>
		<g>
			<polygon fill="#BBD2FF" points="113.397,111.75 113.426,138.781 160.243,111.753 160.212,84.721 			"/>
		</g>
	</g>
	<g>
		<polygon fill="#014CD9" points="66.882,84.719 113.397,111.75 160.212,84.721 113.698,57.69 		"/>
	</g>
	<polygon fill="#5490FF" points="113.397,111.75 113.426,138.781 66.912,111.75 66.912,84.736 	"/>
	<g>
		<polygon fill="#E2E6FF" points="66.62,56.095 20.187,82.902 66.702,109.934 113.288,83.038 103.29,77.265 		"/>
		<polygon fill="#014CD9" points="160.333,55.877 113.818,28.845 66.62,56.095 103.29,77.265 113.288,83.038 113.518,82.905 		"/>
	</g>
	<polygon fill="#014CD9" points="155.699,55.87 113.815,31.529 24.821,82.908 66.706,107.249 	"/>
	<g>
		<g>
			<polygon fill="#BFD5FF" points="113.638,54.06 113.668,81.092 160.484,54.063 160.454,27.032 			"/>
		</g>
	</g>
	<g>
		<g>
			<polygon fill="#DEE9FF" points="67.123,27.029 113.638,54.06 160.454,27.032 113.939,0 			"/>
		</g>
	</g>
	<polygon fill="#5490FF" points="113.638,54.06 113.668,81.092 67.153,54.06 67.153,27.046 	"/>
	<g>
		<polygon fill="#C4C6B8" points="82.217,105.15 81.962,105.243 82.212,111.281 94.202,118.443 94.457,118.35 94.464,112.221 		"/>
		<polygon fill="#DDE0CF" points="81.962,105.243 81.956,111.374 94.202,118.443 94.209,112.313 		"/>
		<polygon fill="#F9F5EA" points="93.184,112.905 82.985,107.016 82.982,110.782 93.179,116.67 		"/>
	</g>
	<polygon fill="#BBD2FF" points="66.702,109.934 113.518,82.905 160.333,55.877 160.363,82.908 113.547,109.937 113.547,109.937 
		66.732,136.965 	"/>
	<polygon fill="#5490FF" points="66.702,109.934 66.732,136.965 20.217,109.934 20.217,82.92 	"/>
	<g>
		<polygon fill="#C4C6B8" points="82.459,47.461 82.203,47.553 82.453,53.592 94.443,60.753 94.698,60.66 94.706,54.531 		"/>
		<polygon fill="#BFD5FF" points="82.203,47.553 82.198,53.684 94.443,60.753 94.45,54.624 		"/>
		<polygon fill="#F4F7FF" points="93.425,55.215 83.226,49.327 83.223,53.093 93.421,58.98 		"/>
	</g>
	<defs>
		<filter id="Adobe_OpacityMaskFilter_2_" filterUnits="userSpaceOnUse" x="113.422" y="28.656" width="46.972" height="110.125">
			<feFlood  style="flood-color:white;flood-opacity:1" result="back"/>
			<feBlend  in="SourceGraphic" in2="back" mode="normal"/>
		</filter>
	</defs>
	<mask maskUnits="userSpaceOnUse" x="113.422" y="28.656" width="46.972" height="110.125" id="SVGID_3_">
		<g filter="url(#Adobe_OpacityMaskFilter_2_)">
			<defs>
				<filter id="Adobe_OpacityMaskFilter_3_" filterUnits="userSpaceOnUse" x="113.422" y="28.656" width="46.972" height="110.125">
					<feFlood  style="flood-color:white;flood-opacity:1" result="back"/>
					<feBlend  in="SourceGraphic" in2="back" mode="normal"/>
				</filter>
			</defs>
			<mask maskUnits="userSpaceOnUse" x="113.422" y="28.656" width="46.972" height="110.125" id="SVGID_3_">
				<g filter="url(#Adobe_OpacityMaskFilter_3_)">
				</g>
			</mask>
			
				<linearGradient id="SVGID_4_" gradientUnits="userSpaceOnUse" x1="-8057.8335" y1="83.7188" x2="-8010.8613" y2="83.7188" gradientTransform="matrix(-1 0 0 1 -7897.4395 0)">
				<stop  offset="0" style="stop-color:#000000"/>
				<stop  offset="1" style="stop-color:#FFFFFF"/>
			</linearGradient>
			<polygon mask="url(#SVGID_3_)" fill="url(#SVGID_4_)" points="160.394,57.431 113.426,138.781 113.422,110.008 160.389,28.656 
							"/>
		</g>
	</mask>
	<polygon fill="#DEE9FF" points="160.394,57.431 113.426,138.781 113.422,110.008 160.389,28.656 	"/>
	<defs>
		<filter id="Adobe_OpacityMaskFilter_4_" filterUnits="userSpaceOnUse" x="66.912" y="27.046" width="41.318" height="51.026">
			<feFlood  style="flood-color:white;flood-opacity:1" result="back"/>
			<feBlend  in="SourceGraphic" in2="back" mode="normal"/>
		</filter>
	</defs>
	<mask maskUnits="userSpaceOnUse" x="66.912" y="27.046" width="41.318" height="51.026" id="SVGID_5_">
		<g filter="url(#Adobe_OpacityMaskFilter_4_)">
			<defs>
				<filter id="Adobe_OpacityMaskFilter_5_" filterUnits="userSpaceOnUse" x="66.912" y="27.046" width="41.318" height="51.026">
					<feFlood  style="flood-color:white;flood-opacity:1" result="back"/>
					<feBlend  in="SourceGraphic" in2="back" mode="normal"/>
				</filter>
			</defs>
			<mask maskUnits="userSpaceOnUse" x="66.912" y="27.046" width="41.318" height="51.026" id="SVGID_5_">
				<g filter="url(#Adobe_OpacityMaskFilter_5_)">
				</g>
			</mask>
			
				<linearGradient id="SVGID_6_" gradientUnits="userSpaceOnUse" x1="-8011.5518" y1="67.8828" x2="-7958.4683" y2="37.2352" gradientTransform="matrix(-1 0 0 1 -7897.4395 0)">
				<stop  offset="0" style="stop-color:#000000"/>
				<stop  offset="1" style="stop-color:#FFFFFF"/>
			</linearGradient>
			<polygon mask="url(#SVGID_5_)" fill="url(#SVGID_6_)" points="84.724,37.397 108.23,78.072 81.559,62.572 66.914,37.223 
				66.912,27.046 			"/>
		</g>
	</mask>
	<polygon fill="#88B1FF" points="84.724,37.397 108.23,78.072 81.559,62.572 66.914,37.223 66.912,27.046 	"/>
	<polygon fill="#014CD9" points="66.706,107.249 45.176,94.737 85.645,71.359 107.175,83.871 	"/>
	<g>
		<defs>
			<polygon id="SVGID_7_" points="108.236,83.272 57.969,53.516 15.964,77.831 66.706,107.249 			"/>
		</defs>
		<clipPath id="SVGID_8_">
			<use xlink:href="#SVGID_7_"  overflow="visible"/>
		</clipPath>
		<g clip-path="url(#SVGID_8_)">
			<polygon fill="#B4CEFF" points="88.287,72.175 104.48,81.434 104.509,108.465 62.173,84.013 62.173,61.92 88.293,77.1 			"/>
			<polygon fill="#206EFF" points="88.287,72.175 88.293,77.1 62.173,61.92 62.173,56.998 			"/>
		</g>
		<g clip-path="url(#SVGID_8_)">
			<polygon fill="#689CFF" points="82.193,75.328 98.385,84.587 98.415,111.619 56.078,87.167 56.078,65.074 82.198,80.253 			"/>
			<polygon fill="#206EFF" points="82.193,75.328 82.198,80.253 56.078,65.074 56.078,60.152 			"/>
		</g>
		<g clip-path="url(#SVGID_8_)">
			<polygon fill="#B4CEFF" points="76.098,78.482 92.291,87.741 92.321,114.772 49.984,90.32 49.984,68.227 76.104,83.407 			"/>
			<polygon fill="#206EFF" points="76.098,78.482 76.104,83.407 49.984,68.227 49.984,63.305 			"/>
		</g>
		<g clip-path="url(#SVGID_8_)">
			<polygon fill="#689CFF" points="70.004,81.636 86.196,90.894 86.226,117.926 43.889,93.473 43.889,71.381 70.009,86.56 			"/>
			<polygon fill="#206EFF" points="70.004,81.636 70.009,86.56 43.889,71.381 43.889,66.459 			"/>
		</g>
		<g clip-path="url(#SVGID_8_)">
			<polygon fill="#B4CEFF" points="63.909,84.789 80.102,94.048 80.132,121.079 37.795,96.627 37.795,74.534 63.915,89.714 			"/>
			<polygon fill="#206EFF" points="63.909,84.789 63.915,89.714 37.795,74.534 37.795,69.612 			"/>
		</g>
		<g clip-path="url(#SVGID_8_)">
			<polygon fill="#689CFF" points="57.815,87.942 74.007,97.201 74.037,124.233 31.7,99.78 31.7,77.688 57.82,92.867 			"/>
			<polygon fill="#206EFF" points="57.815,87.942 57.82,92.867 31.7,77.688 31.7,72.766 			"/>
		</g>
		<g clip-path="url(#SVGID_8_)">
			<polygon fill="#B4CEFF" points="51.72,91.096 67.913,100.355 67.943,127.386 25.606,102.934 25.606,80.841 51.726,96.021 			"/>
			<polygon fill="#206EFF" points="51.72,91.096 51.726,96.021 25.606,80.841 25.606,75.919 			"/>
		</g>
	</g>
</g>
<g>
	<polygon fill="#C4C6B8" points="36.538,102.534 36.243,102.641 36.532,109.63 50.411,117.92 50.706,117.813 50.715,110.718 	"/>
	<polygon fill="#DEE9FF" points="36.243,102.641 36.236,109.738 50.411,117.92 50.419,110.826 	"/>
	<polygon fill="#F1F5FF" points="49.232,111.51 37.427,104.694 37.423,109.053 49.227,115.868 	"/>
</g>
<defs>
	<filter id="Adobe_OpacityMaskFilter_6_" filterUnits="userSpaceOnUse" x="134.967" y="90.296" width="8.279" height="36.235">
		<feFlood  style="flood-color:white;flood-opacity:1" result="back"/>
		<feBlend  in="SourceGraphic" in2="back" mode="normal"/>
	</filter>
</defs>
<mask maskUnits="userSpaceOnUse" x="134.967" y="90.296" width="8.279" height="36.235" id="SVGID_9_">
	<g filter="url(#Adobe_OpacityMaskFilter_6_)">
		<defs>
			<filter id="Adobe_OpacityMaskFilter_7_" filterUnits="userSpaceOnUse" x="134.967" y="90.296" width="8.279" height="36.235">
				<feFlood  style="flood-color:white;flood-opacity:1" result="back"/>
				<feBlend  in="SourceGraphic" in2="back" mode="normal"/>
			</filter>
		</defs>
		<mask maskUnits="userSpaceOnUse" x="134.967" y="90.296" width="8.279" height="36.235" id="SVGID_9_">
			<g filter="url(#Adobe_OpacityMaskFilter_7_)">
			</g>
		</mask>
		
			<linearGradient id="SVGID_10_" gradientUnits="userSpaceOnUse" x1="-2095.478" y1="93.0384" x2="-2077.7244" y2="123.789" gradientTransform="matrix(-1 0 0 1 -1947.4944 0)">
			<stop  offset="0.0108" style="stop-color:#FFFFFF"/>
			<stop  offset="0.0979" style="stop-color:#DEDEDE"/>
			<stop  offset="0.2886" style="stop-color:#9C9C9C"/>
			<stop  offset="0.47" style="stop-color:#646464"/>
			<stop  offset="0.6368" style="stop-color:#393939"/>
			<stop  offset="0.7859" style="stop-color:#1A1A1A"/>
			<stop  offset="0.912" style="stop-color:#070707"/>
			<stop  offset="1" style="stop-color:#000000"/>
		</linearGradient>
		<polygon mask="url(#SVGID_9_)" fill="url(#SVGID_10_)" points="143.247,121.758 134.979,126.531 134.967,95.069 143.234,90.296 		
			"/>
	</g>
</mask>
<polygon fill="#96BBFF" points="143.247,121.758 134.979,126.531 134.967,95.069 143.234,90.296 "/>
<linearGradient id="SVGID_11_" gradientUnits="userSpaceOnUse" x1="-1925.3607" y1="75.7302" x2="-1916.8433" y2="90.4829" gradientTransform="matrix(1 0 0 1 2058.7725 0)">
	<stop  offset="0.0108" style="stop-color:#3F8CFF"/>
	<stop  offset="0.1441" style="stop-color:#64A2FF"/>
	<stop  offset="0.3602" style="stop-color:#9BC3FF"/>
	<stop  offset="0.5614" style="stop-color:#C6DDFF"/>
	<stop  offset="0.7414" style="stop-color:#E5F0FF"/>
	<stop  offset="0.8937" style="stop-color:#F8FBFF"/>
	<stop  offset="1" style="stop-color:#FFFFFF"/>
</linearGradient>
<path fill="url(#SVGID_11_)" d="M138.832,72.601c-2.799,1.626-5.091,6.373-5.092,10.547l-0.004,12.066l10.179-5.915l0.004-12.066
	C143.921,73.058,141.631,70.974,138.832,72.601z"/>
<polygon fill="#014CD9" points="133.736,93.763 244.256,148.443 234.974,153.802 133.736,94.659 "/>
<polygon fill="#DEE9FF" points="133.736,83.22 244.256,147.547 234.974,152.905 133.736,93.763 "/>
<defs>
	<filter id="Adobe_OpacityMaskFilter_8_" filterUnits="userSpaceOnUse" x="107.744" y="297.401" width="155.14" height="53.145">
		<feFlood  style="flood-color:white;flood-opacity:1" result="back"/>
		<feBlend  in="SourceGraphic" in2="back" mode="normal"/>
	</filter>
</defs>
<mask maskUnits="userSpaceOnUse" x="107.744" y="297.401" width="155.14" height="53.145" id="SVGID_12_">
	<g filter="url(#Adobe_OpacityMaskFilter_8_)">
		<defs>
			<filter id="Adobe_OpacityMaskFilter_9_" filterUnits="userSpaceOnUse" x="107.744" y="297.401" width="155.14" height="53.145">
				<feFlood  style="flood-color:white;flood-opacity:1" result="back"/>
				<feBlend  in="SourceGraphic" in2="back" mode="normal"/>
			</filter>
		</defs>
		<mask maskUnits="userSpaceOnUse" x="107.744" y="297.401" width="155.14" height="53.145" id="SVGID_12_">
			<g filter="url(#Adobe_OpacityMaskFilter_9_)">
			</g>
		</mask>
		<linearGradient id="SVGID_13_" gradientUnits="userSpaceOnUse" x1="107.744" y1="323.9731" x2="262.8841" y2="323.9731">
			<stop  offset="0.0108" style="stop-color:#FFFFFF"/>
			<stop  offset="0.0979" style="stop-color:#DEDEDE"/>
			<stop  offset="0.2886" style="stop-color:#9C9C9C"/>
			<stop  offset="0.47" style="stop-color:#646464"/>
			<stop  offset="0.6368" style="stop-color:#393939"/>
			<stop  offset="0.7859" style="stop-color:#1A1A1A"/>
			<stop  offset="0.912" style="stop-color:#070707"/>
			<stop  offset="1" style="stop-color:#000000"/>
		</linearGradient>
		<polygon mask="url(#SVGID_12_)" fill="url(#SVGID_13_)" points="262.884,316.502 230.015,297.401 166.872,297.401 
			107.744,331.539 140.776,350.546 203.918,350.546 		"/>
	</g>
</mask>
<polygon fill="#5490FF" points="262.884,316.502 230.015,297.401 166.872,297.401 107.744,331.539 140.776,350.546 203.918,350.546 
	"/>
<defs>
	<filter id="Adobe_OpacityMaskFilter_10_" filterUnits="userSpaceOnUse" x="251.86" y="191.999" width="155.14" height="53.145">
		<feFlood  style="flood-color:white;flood-opacity:1" result="back"/>
		<feBlend  in="SourceGraphic" in2="back" mode="normal"/>
	</filter>
</defs>
<mask maskUnits="userSpaceOnUse" x="251.86" y="191.999" width="155.14" height="53.145" id="SVGID_14_">
	<g filter="url(#Adobe_OpacityMaskFilter_10_)">
		<defs>
			<filter id="Adobe_OpacityMaskFilter_11_" filterUnits="userSpaceOnUse" x="251.86" y="191.999" width="155.14" height="53.145">
				<feFlood  style="flood-color:white;flood-opacity:1" result="back"/>
				<feBlend  in="SourceGraphic" in2="back" mode="normal"/>
			</filter>
		</defs>
		<mask maskUnits="userSpaceOnUse" x="251.86" y="191.999" width="155.14" height="53.145" id="SVGID_14_">
			<g filter="url(#Adobe_OpacityMaskFilter_11_)">
			</g>
		</mask>
		<linearGradient id="SVGID_15_" gradientUnits="userSpaceOnUse" x1="251.86" y1="218.571" x2="407" y2="218.571">
			<stop  offset="0.0108" style="stop-color:#FFFFFF"/>
			<stop  offset="0.0979" style="stop-color:#DEDEDE"/>
			<stop  offset="0.2886" style="stop-color:#9C9C9C"/>
			<stop  offset="0.47" style="stop-color:#646464"/>
			<stop  offset="0.6368" style="stop-color:#393939"/>
			<stop  offset="0.7859" style="stop-color:#1A1A1A"/>
			<stop  offset="0.912" style="stop-color:#070707"/>
			<stop  offset="1" style="stop-color:#000000"/>
		</linearGradient>
		<polygon mask="url(#SVGID_14_)" fill="url(#SVGID_15_)" points="407,211.1 374.131,191.999 310.988,191.999 251.86,226.136 
			284.892,245.143 348.034,245.143 		"/>
	</g>
</mask>
<linearGradient id="SVGID_16_" gradientUnits="userSpaceOnUse" x1="251.86" y1="218.571" x2="407" y2="218.571">
	<stop  offset="0.0108" style="stop-color:#899DFF"/>
	<stop  offset="1" style="stop-color:#899DFF"/>
</linearGradient>
<polygon fill="url(#SVGID_16_)" points="407,211.1 374.131,191.999 310.988,191.999 251.86,226.136 284.892,245.143 
	348.034,245.143 "/>
<g>
	<polygon fill="#2B75FF" points="336.02,231.699 351.543,222.736 273.629,177.457 195.21,222.731 210.734,231.752 273.629,195.441 	
		"/>
	<polygon fill="#014CD9" points="336.02,231.699 273.629,195.441 210.734,231.752 273.125,268.01 	"/>
	<polygon fill="#72A3FF" points="254.136,256.975 273.125,268.01 291.441,257.436 291.441,223.181 254.136,223.181 	"/>
</g>
<g>
	<g>
		<g>
			<polygon fill="#BBD2FF" points="270.808,222.734 270.779,249.765 223.963,222.736 223.993,195.705 			"/>
		</g>
	</g>
	<g>
		<polygon fill="#2370FF" points="317.323,195.702 270.808,222.734 223.993,195.705 270.508,168.673 		"/>
	</g>
	<polygon fill="#5490FF" points="270.808,222.734 270.779,249.765 317.294,222.734 317.294,195.719 	"/>
	<g>
		<polygon fill="#DEE9FF" points="317.585,167.078 364.018,193.885 317.503,220.917 270.917,194.021 280.915,188.249 		"/>
		<polygon fill="#014CD9" points="223.872,166.861 270.387,139.828 317.585,167.078 280.915,188.249 270.917,194.021 
			270.687,193.889 		"/>
	</g>
	<polygon fill="#014CD9" points="228.507,166.854 270.391,142.513 359.384,193.892 317.499,218.233 	"/>
	<g>
		<g>
			<polygon fill="#BBD2FF" points="270.567,165.044 270.537,192.076 223.722,165.046 223.752,138.015 			"/>
		</g>
	</g>
	<g>
		<g>
			<polygon fill="#DEE9FF" points="317.082,138.013 270.567,165.044 223.752,138.015 270.266,110.984 			"/>
		</g>
	</g>
	<polygon fill="#5490FF" points="270.567,165.044 270.537,192.076 317.052,165.044 317.052,138.03 	"/>
	<g>
		<polygon fill="#C4C6B8" points="301.988,216.134 302.243,216.227 301.994,222.265 290.004,229.426 289.749,229.333 
			289.741,223.204 		"/>
		<polygon fill="#DDE0CF" points="302.243,216.227 302.249,222.357 290.004,229.426 289.997,223.297 		"/>
		<polygon fill="#F9F5EA" points="291.022,223.888 301.221,218 301.224,221.766 291.026,227.653 		"/>
	</g>
	<polygon fill="#BBD2FF" points="317.503,220.917 270.687,193.889 223.872,166.861 223.842,193.891 270.658,220.92 270.658,220.92 
		317.473,247.948 	"/>
	<polygon fill="#5490FF" points="317.503,220.917 317.473,247.948 363.988,220.917 363.988,193.903 	"/>
	<g>
		<polygon fill="#C4C6B8" points="301.747,158.444 302.002,158.537 301.752,164.575 289.762,171.737 289.507,171.644 289.5,165.515 
					"/>
		<polygon fill="#88B1FF" points="302.002,158.537 302.007,164.668 289.762,171.737 289.755,165.608 		"/>
		<polygon fill="#F1F5FF" points="290.78,166.199 300.979,160.31 300.982,164.077 290.785,169.964 		"/>
	</g>
	<defs>
		<filter id="Adobe_OpacityMaskFilter_12_" filterUnits="userSpaceOnUse" x="223.811" y="139.64" width="46.972" height="110.125">
			<feFlood  style="flood-color:white;flood-opacity:1" result="back"/>
			<feBlend  in="SourceGraphic" in2="back" mode="normal"/>
		</filter>
	</defs>
	<mask maskUnits="userSpaceOnUse" x="223.811" y="139.64" width="46.972" height="110.125" id="SVGID_17_">
		<g filter="url(#Adobe_OpacityMaskFilter_12_)">
			<defs>
				
					<filter id="Adobe_OpacityMaskFilter_13_" filterUnits="userSpaceOnUse" x="223.811" y="139.64" width="46.972" height="110.125">
					<feFlood  style="flood-color:white;flood-opacity:1" result="back"/>
					<feBlend  in="SourceGraphic" in2="back" mode="normal"/>
				</filter>
			</defs>
			<mask maskUnits="userSpaceOnUse" x="223.811" y="139.64" width="46.972" height="110.125" id="SVGID_17_">
				<g filter="url(#Adobe_OpacityMaskFilter_13_)">
				</g>
			</mask>
			
				<linearGradient id="SVGID_18_" gradientUnits="userSpaceOnUse" x1="-4823.9551" y1="194.7024" x2="-4776.9824" y2="194.7024" gradientTransform="matrix(1 0 0 1 5047.7661 0)">
				<stop  offset="0" style="stop-color:#000000"/>
				<stop  offset="1" style="stop-color:#FFFFFF"/>
			</linearGradient>
			<polygon mask="url(#SVGID_17_)" fill="url(#SVGID_18_)" points="223.811,168.414 270.779,249.765 270.784,220.991 
				223.816,139.64 			"/>
		</g>
	</mask>
	<polygon fill="#BBD2FF" points="223.811,168.414 270.779,249.765 270.784,220.991 223.816,139.64 	"/>
	<defs>
		<filter id="Adobe_OpacityMaskFilter_14_" filterUnits="userSpaceOnUse" x="275" y="138.765" width="41.318" height="51.026">
			<feFlood  style="flood-color:white;flood-opacity:1" result="back"/>
			<feBlend  in="SourceGraphic" in2="back" mode="normal"/>
		</filter>
	</defs>
	<mask maskUnits="userSpaceOnUse" x="275" y="138.765" width="41.318" height="51.026" id="SVGID_19_">
		<g filter="url(#Adobe_OpacityMaskFilter_14_)">
			<defs>
				<filter id="Adobe_OpacityMaskFilter_15_" filterUnits="userSpaceOnUse" x="275" y="138.765" width="41.318" height="51.026">
					<feFlood  style="flood-color:white;flood-opacity:1" result="back"/>
					<feBlend  in="SourceGraphic" in2="back" mode="normal"/>
				</filter>
			</defs>
			<mask maskUnits="userSpaceOnUse" x="275" y="138.765" width="41.318" height="51.026" id="SVGID_19_">
				<g filter="url(#Adobe_OpacityMaskFilter_15_)">
				</g>
			</mask>
			
				<linearGradient id="SVGID_20_" gradientUnits="userSpaceOnUse" x1="-4778.6489" y1="179.6012" x2="-4725.5659" y2="148.9536" gradientTransform="matrix(1 0 0 1 5047.7661 0)">
				<stop  offset="0" style="stop-color:#000000"/>
				<stop  offset="1" style="stop-color:#FFFFFF"/>
			</linearGradient>
			<polygon mask="url(#SVGID_19_)" fill="url(#SVGID_20_)" points="298.506,149.116 275,189.79 301.671,174.291 316.315,148.941 
				316.318,138.765 			"/>
		</g>
	</mask>
	<polygon fill="#88B1FF" points="298.506,149.116 275,189.79 301.671,174.291 316.315,148.941 316.318,138.765 	"/>
	<polygon fill="#014CD9" points="317.499,218.233 339.029,205.721 298.56,182.342 277.03,194.855 	"/>
	<g>
		<defs>
			<polygon id="SVGID_21_" points="275.97,194.256 326.236,164.5 368.241,188.814 317.499,218.233 			"/>
		</defs>
		<clipPath id="SVGID_22_">
			<use xlink:href="#SVGID_21_"  overflow="visible"/>
		</clipPath>
		<g clip-path="url(#SVGID_22_)">
			<polygon fill="#B4CEFF" points="295.918,183.158 279.725,192.417 279.696,219.449 322.033,194.996 322.033,172.904 
				295.913,188.083 			"/>
			<polygon fill="#206EFF" points="295.918,183.158 295.913,188.083 322.033,172.904 322.033,167.982 			"/>
		</g>
		<g clip-path="url(#SVGID_22_)">
			<polygon fill="#689CFF" points="302.013,186.312 285.82,195.571 285.791,222.602 328.127,198.15 328.127,176.057 
				302.007,191.237 			"/>
			<polygon fill="#206EFF" points="302.013,186.312 302.007,191.237 328.127,176.057 328.127,171.136 			"/>
		</g>
		<g clip-path="url(#SVGID_22_)">
			<polygon fill="#B4CEFF" points="308.107,189.465 291.914,198.725 291.885,225.756 334.222,201.303 334.222,179.211 
				308.102,194.39 			"/>
			<polygon fill="#206EFF" points="308.107,189.465 308.102,194.39 334.222,179.211 334.222,174.289 			"/>
		</g>
		<g clip-path="url(#SVGID_22_)">
			<polygon fill="#689CFF" points="314.202,192.619 298.009,201.878 297.979,228.909 340.316,204.457 340.316,182.364 
				314.196,197.544 			"/>
			<polygon fill="#206EFF" points="314.202,192.619 314.196,197.544 340.316,182.364 340.316,177.443 			"/>
		</g>
		<g clip-path="url(#SVGID_22_)">
			<polygon fill="#B4CEFF" points="320.296,195.772 304.103,205.031 304.074,232.063 346.411,207.61 346.411,185.518 
				320.291,200.697 			"/>
			<polygon fill="#206EFF" points="320.296,195.772 320.291,200.697 346.411,185.518 346.411,180.596 			"/>
		</g>
		<g clip-path="url(#SVGID_22_)">
			<polygon fill="#689CFF" points="326.39,198.926 310.198,208.185 310.168,235.216 352.505,210.764 352.505,188.671 
				326.385,203.851 			"/>
			<polygon fill="#206EFF" points="326.39,198.926 326.385,203.851 352.505,188.671 352.505,183.75 			"/>
		</g>
		<g clip-path="url(#SVGID_22_)">
			<polygon fill="#B4CEFF" points="332.485,202.079 316.292,211.338 316.263,238.37 358.599,213.917 358.599,191.825 
				332.479,207.004 			"/>
			<polygon fill="#206EFF" points="332.485,202.079 332.479,207.004 358.599,191.825 358.599,186.903 			"/>
		</g>
	</g>
</g>
<g>
	<polygon fill="#C4C6B8" points="347.667,213.517 347.963,213.625 347.673,220.614 333.795,228.904 333.499,228.796 
		333.491,221.702 	"/>
	<polygon fill="#88B1FF" points="347.963,213.625 347.969,220.721 333.795,228.904 333.786,221.809 	"/>
	<polygon fill="#F1F5FF" points="334.973,222.493 346.779,215.677 346.782,220.037 334.978,226.851 	"/>
</g>
<defs>
	<filter id="Adobe_OpacityMaskFilter_16_" filterUnits="userSpaceOnUse" x="239.615" y="198.378" width="8.279" height="36.235">
		<feFlood  style="flood-color:white;flood-opacity:1" result="back"/>
		<feBlend  in="SourceGraphic" in2="back" mode="normal"/>
	</filter>
</defs>
<mask maskUnits="userSpaceOnUse" x="239.615" y="198.378" width="8.279" height="36.235" id="SVGID_23_">
	<g filter="url(#Adobe_OpacityMaskFilter_16_)">
		<defs>
			<filter id="Adobe_OpacityMaskFilter_17_" filterUnits="userSpaceOnUse" x="239.615" y="198.378" width="8.279" height="36.235">
				<feFlood  style="flood-color:white;flood-opacity:1" result="back"/>
				<feBlend  in="SourceGraphic" in2="back" mode="normal"/>
			</filter>
		</defs>
		<mask maskUnits="userSpaceOnUse" x="239.615" y="198.378" width="8.279" height="36.235" id="SVGID_23_">
			<g filter="url(#Adobe_OpacityMaskFilter_17_)">
			</g>
		</mask>
		<linearGradient id="SVGID_24_" gradientUnits="userSpaceOnUse" x1="234.8777" y1="201.1201" x2="252.6316" y2="231.8707">
			<stop  offset="0.0108" style="stop-color:#FFFFFF"/>
			<stop  offset="0.0979" style="stop-color:#DEDEDE"/>
			<stop  offset="0.2886" style="stop-color:#9C9C9C"/>
			<stop  offset="0.47" style="stop-color:#646464"/>
			<stop  offset="0.6368" style="stop-color:#393939"/>
			<stop  offset="0.7859" style="stop-color:#1A1A1A"/>
			<stop  offset="0.912" style="stop-color:#070707"/>
			<stop  offset="1" style="stop-color:#000000"/>
		</linearGradient>
		<polygon mask="url(#SVGID_23_)" fill="url(#SVGID_24_)" points="239.615,229.84 247.882,234.613 247.894,203.15 239.628,198.378 
					"/>
	</g>
</mask>
<polygon fill="#5490FF" points="239.615,229.84 247.882,234.613 247.894,203.15 239.628,198.378 "/>
<linearGradient id="SVGID_25_" gradientUnits="userSpaceOnUse" x1="-4259.8501" y1="167.1057" x2="-4243.0654" y2="196.178" gradientTransform="matrix(-1 0 0 1 -4006.2668 0)">
	<stop  offset="0.0108" style="stop-color:#2A7FFF"/>
	<stop  offset="0.2012" style="stop-color:#64A2FF"/>
	<stop  offset="0.4028" style="stop-color:#9BC3FF"/>
	<stop  offset="0.5907" style="stop-color:#C6DDFF"/>
	<stop  offset="0.7587" style="stop-color:#E5F0FF"/>
	<stop  offset="0.9008" style="stop-color:#F8FBFF"/>
	<stop  offset="1" style="stop-color:#FFFFFF"/>
</linearGradient>
<path fill="url(#SVGID_25_)" d="M244.029,161.59c2.8,1.626,5.091,6.373,5.092,10.547l0.004,31.158l-10.179-5.915l-0.004-31.158
	C238.941,162.047,241.23,159.963,244.029,161.59z"/>
<polygon fill="#014CD9" points="249.125,201.844 171.441,237.133 180.722,242.492 249.125,202.74 "/>
<polygon fill="#DEE9FF" points="249.125,191.301 171.441,236.237 180.722,241.595 249.125,201.844 "/>
<g>
	<polygon fill="#2370FF" points="191.976,329.352 207.499,320.39 129.585,275.111 51.166,320.385 66.69,329.406 129.585,293.094 	
		"/>
	<polygon fill="#014CD9" points="191.976,329.352 129.585,293.094 66.69,329.406 129.081,365.664 	"/>
</g>
<polygon fill="#72A3FF" points="110.092,354.629 129.081,365.664 147.396,355.09 147.396,320.834 110.092,320.834 "/>
<g>
	<g>
		<g>
			<g>
				<g>
					<polygon fill="#5490FF" points="129.234,315.139 129.268,346.429 183.46,315.142 183.425,283.853 					"/>
				</g>
			</g>
			<g>
				<polygon fill="#014CD9" points="75.391,283.849 129.234,315.139 183.425,283.853 129.582,252.562 				"/>
			</g>
			<polygon fill="#BFD5FF" points="129.234,315.139 129.268,346.429 75.425,315.139 75.425,283.869 			"/>
			<g>
				<g>
					<polygon fill="#5490FF" points="129.374,281.75 129.408,313.04 183.6,281.753 183.565,250.464 					"/>
				</g>
			</g>
			<g>
				<g>
					<polygon fill="#014CD9" points="75.531,250.46 129.374,281.75 183.565,250.464 129.722,219.173 					"/>
				</g>
			</g>
			<polygon fill="#BFD5FF" points="129.374,281.75 129.408,313.04 75.565,281.75 75.565,250.48 			"/>
			<g>
				<g>
					<polygon fill="#5490FF" points="129.514,248.361 129.548,279.651 183.74,248.364 183.705,217.074 					"/>
				</g>
			</g>
			<g>
				<g>
					<polygon fill="#DEE9FF" points="75.67,217.071 129.514,248.361 183.705,217.074 129.862,185.784 					"/>
				</g>
			</g>
			<polygon fill="#BFD5FF" points="129.514,248.361 129.548,279.651 75.705,248.361 75.705,217.091 			"/>
			<g>
				<polygon fill="#C4C6B8" points="93.143,307.5 92.847,307.607 93.136,314.596 107.015,322.886 107.31,322.779 107.319,315.684 
									"/>
				<polygon fill="#88B1FF" points="92.847,307.607 92.841,314.704 107.015,322.886 107.023,315.792 				"/>
				<polygon fill="#F1F5FF" points="105.837,316.476 94.031,309.66 94.027,314.019 105.831,320.834 				"/>
			</g>
			<g>
				<polygon fill="#C4C6B8" points="93.282,274.111 92.987,274.218 93.276,281.207 107.154,289.497 107.45,289.39 107.459,282.295 
									"/>
				<polygon fill="#88B1FF" points="92.987,274.218 92.98,281.315 107.154,289.497 107.163,282.403 				"/>
				<polygon fill="#F1F5FF" points="105.976,283.087 94.171,276.271 94.167,280.63 105.971,287.445 				"/>
			</g>
			<g>
				<polygon fill="#C4C6B8" points="93.422,240.722 93.126,240.829 93.416,247.818 107.294,256.108 107.59,256.001 107.598,248.906 
									"/>
				<polygon fill="#88B1FF" points="93.126,240.829 93.12,247.926 107.294,256.108 107.303,249.014 				"/>
				<polygon fill="#F1F5FF" points="106.116,249.698 94.31,242.882 94.307,247.241 106.111,254.056 				"/>
			</g>
		</g>
	</g>
	<defs>
		<filter id="Adobe_OpacityMaskFilter_18_" filterUnits="userSpaceOnUse" x="75.537" y="218.233" width="53.62" height="120.88">
			<feFlood  style="flood-color:white;flood-opacity:1" result="back"/>
			<feBlend  in="SourceGraphic" in2="back" mode="normal"/>
		</filter>
	</defs>
	<mask maskUnits="userSpaceOnUse" x="75.537" y="218.233" width="53.62" height="120.88" id="SVGID_26_">
		<g filter="url(#Adobe_OpacityMaskFilter_18_)">
			<defs>
				<filter id="Adobe_OpacityMaskFilter_19_" filterUnits="userSpaceOnUse" x="75.537" y="218.233" width="53.62" height="120.88">
					<feFlood  style="flood-color:white;flood-opacity:1" result="back"/>
					<feBlend  in="SourceGraphic" in2="back" mode="normal"/>
				</filter>
			</defs>
			<mask maskUnits="userSpaceOnUse" x="75.537" y="218.233" width="53.62" height="120.88" id="SVGID_26_">
				<g filter="url(#Adobe_OpacityMaskFilter_19_)">
				</g>
			</mask>
			
				<linearGradient id="SVGID_27_" gradientUnits="userSpaceOnUse" x1="-4972.2295" y1="278.6725" x2="-4918.6089" y2="278.6725" gradientTransform="matrix(1 0 0 1 5047.7661 0)">
				<stop  offset="0" style="stop-color:#000000"/>
				<stop  offset="1" style="stop-color:#FFFFFF"/>
			</linearGradient>
			<polygon mask="url(#SVGID_26_)" fill="url(#SVGID_27_)" points="75.537,247.007 129.153,339.112 129.157,310.339 75.541,218.233 
							"/>
		</g>
	</mask>
	<polygon fill="#88B1FF" points="75.537,247.007 129.153,339.112 129.157,310.339 75.541,218.233 	"/>
</g>
<defs>
	<filter id="Adobe_OpacityMaskFilter_20_" filterUnits="userSpaceOnUse" x="98.435" y="197.627" width="42.25" height="6.336">
		<feFlood  style="flood-color:white;flood-opacity:1" result="back"/>
		<feBlend  in="SourceGraphic" in2="back" mode="normal"/>
	</filter>
</defs>
<mask maskUnits="userSpaceOnUse" x="98.435" y="197.627" width="42.25" height="6.336" id="SVGID_28_">
	<g filter="url(#Adobe_OpacityMaskFilter_20_)">
		<defs>
			<filter id="Adobe_OpacityMaskFilter_21_" filterUnits="userSpaceOnUse" x="98.435" y="197.627" width="42.25" height="6.336">
				<feFlood  style="flood-color:white;flood-opacity:1" result="back"/>
				<feBlend  in="SourceGraphic" in2="back" mode="normal"/>
			</filter>
		</defs>
		<mask maskUnits="userSpaceOnUse" x="98.435" y="197.627" width="42.25" height="6.336" id="SVGID_28_">
			<g filter="url(#Adobe_OpacityMaskFilter_21_)">
			</g>
		</mask>
		<linearGradient id="SVGID_29_" gradientUnits="userSpaceOnUse" x1="115.6001" y1="194.0323" x2="123.5113" y2="207.735">
			<stop  offset="0.0108" style="stop-color:#FFFFFF"/>
			<stop  offset="0.0979" style="stop-color:#DEDEDE"/>
			<stop  offset="0.2886" style="stop-color:#9C9C9C"/>
			<stop  offset="0.47" style="stop-color:#646464"/>
			<stop  offset="0.6368" style="stop-color:#393939"/>
			<stop  offset="0.7859" style="stop-color:#1A1A1A"/>
			<stop  offset="0.912" style="stop-color:#070707"/>
			<stop  offset="1" style="stop-color:#000000"/>
		</linearGradient>
		<polygon mask="url(#SVGID_28_)" fill="url(#SVGID_29_)" points="140.685,197.82 109.374,197.627 98.435,203.963 128.565,203.963 
					"/>
	</g>
</mask>
<polygon fill="#5490FF" points="140.685,197.82 109.374,197.627 98.435,203.963 128.565,203.963 "/>
<g>
	<polygon fill="#014CD9" points="175.945,350.882 195.189,361.992 198.489,360.074 198.489,337.781 	"/>
	<polygon fill="#2370FF" points="198.892,337.547 198.489,337.781 198.489,360.074 218.136,348.657 	"/>
</g>
<g>
	<defs>
		<polygon id="SVGID_30_" points="191.774,256.108 156.347,274.111 175.945,350.882 195.189,361.992 198.489,360.074 
			218.136,348.657 		"/>
	</defs>
	<clipPath id="SVGID_31_">
		<use xlink:href="#SVGID_30_"  overflow="visible"/>
	</clipPath>
	<g clip-path="url(#SVGID_31_)">
		
			<line fill="none" stroke="#F9F5EA" stroke-width="2.3526" stroke-linecap="round" stroke-miterlimit="10" x1="163.534" y1="276.868" x2="189.663" y2="370.759"/>
		
			<line fill="none" stroke="#F9F5EA" stroke-width="2.3526" stroke-linecap="round" stroke-miterlimit="10" x1="174.995" y1="269.724" x2="201.123" y2="363.614"/>
		<g>
			
				<line fill="none" stroke="#F9F5EA" stroke-width="1.3444" stroke-linecap="round" stroke-miterlimit="10" x1="164.864" y1="281.846" x2="176.27" y2="274.496"/>
			
				<line fill="none" stroke="#F9F5EA" stroke-width="1.3444" stroke-linecap="round" stroke-miterlimit="10" x1="166.95" y1="289.271" x2="178.356" y2="281.921"/>
			
				<line fill="none" stroke="#F9F5EA" stroke-width="1.3444" stroke-linecap="round" stroke-miterlimit="10" x1="169.037" y1="296.697" x2="180.443" y2="289.347"/>
			
				<line fill="none" stroke="#F9F5EA" stroke-width="1.3444" stroke-linecap="round" stroke-miterlimit="10" x1="171.123" y1="304.122" x2="182.529" y2="296.772"/>
			
				<line fill="none" stroke="#F9F5EA" stroke-width="1.3444" stroke-linecap="round" stroke-miterlimit="10" x1="173.209" y1="311.547" x2="184.615" y2="304.197"/>
			
				<line fill="none" stroke="#F9F5EA" stroke-width="1.3444" stroke-linecap="round" stroke-miterlimit="10" x1="175.296" y1="318.972" x2="186.702" y2="311.623"/>
			
				<line fill="none" stroke="#F9F5EA" stroke-width="1.3444" stroke-linecap="round" stroke-miterlimit="10" x1="177.382" y1="326.398" x2="188.788" y2="319.048"/>
			
				<line fill="none" stroke="#F9F5EA" stroke-width="1.3444" stroke-linecap="round" stroke-miterlimit="10" x1="179.469" y1="333.823" x2="190.874" y2="326.473"/>
			
				<line fill="none" stroke="#F9F5EA" stroke-width="1.3444" stroke-linecap="round" stroke-miterlimit="10" x1="181.555" y1="341.248" x2="192.961" y2="333.898"/>
			
				<line fill="none" stroke="#F9F5EA" stroke-width="1.3444" stroke-linecap="round" stroke-miterlimit="10" x1="183.641" y1="348.674" x2="195.047" y2="341.324"/>
			
				<line fill="none" stroke="#F9F5EA" stroke-width="1.3444" stroke-linecap="round" stroke-miterlimit="10" x1="185.728" y1="356.099" x2="197.133" y2="348.749"/>
			
				<line fill="none" stroke="#F9F5EA" stroke-width="1.3444" stroke-linecap="round" stroke-miterlimit="10" x1="187.814" y1="363.524" x2="199.22" y2="356.174"/>
		</g>
	</g>
</g>
<g>
	<defs>
		<filter id="Adobe_OpacityMaskFilter_22_" filterUnits="userSpaceOnUse" x="373.298" y="300.906" width="30.13" height="3.397">
			<feFlood  style="flood-color:white;flood-opacity:1" result="back"/>
			<feBlend  in="SourceGraphic" in2="back" mode="normal"/>
		</filter>
	</defs>
	<mask maskUnits="userSpaceOnUse" x="373.298" y="300.906" width="30.13" height="3.397" id="SVGID_32_">
		<g filter="url(#Adobe_OpacityMaskFilter_22_)">
			<defs>
				<filter id="Adobe_OpacityMaskFilter_23_" filterUnits="userSpaceOnUse" x="373.298" y="300.906" width="30.13" height="3.397">
					<feFlood  style="flood-color:white;flood-opacity:1" result="back"/>
					<feBlend  in="SourceGraphic" in2="back" mode="normal"/>
				</filter>
			</defs>
			<mask maskUnits="userSpaceOnUse" x="373.298" y="300.906" width="30.13" height="3.397" id="SVGID_32_">
				<g filter="url(#Adobe_OpacityMaskFilter_23_)">
				</g>
			</mask>
			<linearGradient id="SVGID_33_" gradientUnits="userSpaceOnUse" x1="373.2976" y1="302.6045" x2="403.4274" y2="302.6045">
				<stop  offset="0.0108" style="stop-color:#FFFFFF"/>
				<stop  offset="0.0979" style="stop-color:#DEDEDE"/>
				<stop  offset="0.2886" style="stop-color:#9C9C9C"/>
				<stop  offset="0.47" style="stop-color:#646464"/>
				<stop  offset="0.6368" style="stop-color:#393939"/>
				<stop  offset="0.7859" style="stop-color:#1A1A1A"/>
				<stop  offset="0.912" style="stop-color:#070707"/>
				<stop  offset="1" style="stop-color:#000000"/>
			</linearGradient>
			<rect x="373.298" y="300.906" mask="url(#SVGID_32_)" fill="url(#SVGID_33_)" width="30.13" height="3.397"/>
		</g>
	</mask>
	<linearGradient id="SVGID_34_" gradientUnits="userSpaceOnUse" x1="373.2976" y1="302.6045" x2="403.4274" y2="302.6045">
		<stop  offset="0.0108" style="stop-color:#899DFF"/>
		<stop  offset="1" style="stop-color:#899DFF"/>
	</linearGradient>
	<rect x="373.298" y="300.906" fill="url(#SVGID_34_)" width="30.13" height="3.397"/>
	<g>
		<polygon fill="#014CD9" points="352.057,295.269 371.301,306.379 374.601,304.461 374.601,282.167 		"/>
		<polygon fill="#2370FF" points="375.004,281.933 374.601,282.167 374.601,304.461 394.248,293.043 		"/>
	</g>
	<g>
		<g>
			<g>
				<polygon fill="#C2D6FF" points="367.441,186.419 367.441,188.634 365.429,188.634 365.429,186.71 				"/>
			</g>
			<path fill="#0146C6" d="M373.37,190.941l-5.929-2.307h-2.013l-7.006,2.465c-0.471,0.152-0.739,0.661-0.594,1.129l3.189,15.239
				l-1.649,7.082h15.205l-2.504-6.752l1.897-15.727C374.11,191.602,373.842,191.094,373.37,190.941z"/>
			<rect x="365.429" y="188.634" fill="#0146C6" width="2.013" height="18.482"/>
			<g>
				<g>
					<path fill="#0146C6" d="M365.828,181.421c-0.571,0-0.991-0.091-1.43,0.272l1.159,0.869v2.888l1.884,1.861
						c0.756-0.6,1.256-1.641,1.256-2.823C368.697,182.626,367.353,181.421,365.828,181.421z"/>
					<path fill="#0146C6" d="M365.557,182.562l-1.159-0.838c0-0.334,0.276-0.606,0.613-0.606l3.072,0.463
						c0.337,0,0.614,0.273,0.614,0.606v2.587"/>
					<path fill="#C2D6FF" d="M365.988,185.875c0.378-0.482,0.544-1.163,0.197-1.227c-0.427-0.08-0.628,0.802-0.628,0.802v-2.888
						l-1.159-0.869c-0.283,0.233-0.529,0.528-0.724,0.869c-0.094,0.165-0.179,0.341-0.249,0.527l0,0l-1.006,1.719h0.77
						c0.132,1.71,1.311,3.048,2.748,3.048c0.556,0,1.072-0.201,1.505-0.546L365.988,185.875z"/>
				</g>
			</g>
			<g>
				<path fill="#0146C6" d="M369.225,213.563l-2.053-6.582c0,0-11.62-0.156-12.487-0.069c-0.866,0.086-2.599,0.833-2.591,4.05
					c0.004,1.749,0.017,7.076,0.027,11.574h3.556l0.834-10.498L369.225,213.563z"/>
				<path fill="#C2D6FF" d="M352.121,222.535c0.005,2.391,0.01,4.548,0.013,5.809l1.623,0.036l0.985-5.845H352.121z"/>
			</g>
			<g>
				<polygon fill="#91B7FF" points="370.754,306.063 366.64,303.688 366.64,219.63 370.754,219.63 				"/>
			</g>
		</g>
		<path fill="#FFAC39" d="M364.283,210.633c-0.421,1.572,0.513,3.187,2.085,3.607l14.13,4.577c1.572,0.421,3.186-0.513,3.607-2.085
			l0,0c0.42-1.572-0.513-3.187-2.085-3.607l-14.13-4.577C366.318,208.127,364.703,209.061,364.283,210.633L364.283,210.633z"/>
		<path fill="#A5C4FF" d="M384.183,189.189c0-1.391-1.128-2.518-2.518-2.518c-0.341,0-0.963,0.191-0.963,0.191
			c-0.036,0.015-14.036,6.303-14.266,6.372c-1.036,0.312-1.791,1.274-1.791,2.412v13.722l-12.757,5.182
			c-1.002,0.253-1.843,1.026-2.128,2.096c-0.42,1.572,0.513,3.187,2.085,3.607l14.13,4.576c0.367,0.098,0.736,0.12,1.092,0.08
			c0.032,0.001,0.064,0.005,0.096,0.005c0.017,0,0.033-0.002,0.049-0.002c0.058,0,0.117-0.005,0.176-0.009
			c0.016-0.001,0.032-0.002,0.048-0.004c0.235-0.021,0.471-0.067,0.703-0.148l13.76-5.589c0.847-0.294,1.472-0.936,1.776-1.709
			c0.318-0.422,0.509-0.945,0.509-1.513V189.189z"/>
		
			<line fill="none" stroke="#D9EDFF" stroke-width="1.0083" stroke-linecap="round" stroke-miterlimit="10" x1="374.488" y1="183.15" x2="374.488" y2="222.535"/>
		<path fill="#A5C4FF" d="M380.539,181.62c0.533,1.538-0.281,3.216-1.818,3.749l-8.684,3.428c-1.537,0.533-3.216-0.281-3.749-1.818
			l0,0c-0.533-1.537,0.281-3.216,1.818-3.749l8.685-3.428C378.328,179.268,380.006,180.083,380.539,181.62L380.539,181.62z"/>
		<g>
			<path fill="#0146C6" d="M360.587,197.876l-2.798-6.083l-2.881,5.013l3.296,3.414
				C359.502,198.943,360.587,197.876,360.587,197.876z"/>
			<path fill="#C2D6FF" d="M345.213,198.498l-0.237,1.036l6.573,4.851c0,0,1.417,0.989,2.493-0.07
				c0.597-0.588,2.544-2.504,4.162-4.095l-3.296-3.414l-2.55,4.435L345.213,198.498z"/>
		</g>
		<g>
			<path fill="#0146C6" d="M364.644,216.839v-7.837l-16.499,1.425c0,0-2.599,0.832-2.591,4.049
				c0.004,1.605,0.014,6.225,0.024,10.452h3.652l0.741-9.376L364.644,216.839z"/>
			<path fill="#C2D6FF" d="M345.589,229.799c0.517,0.086,1.229,0.24,1.914,0.397l0.888-5.269h-2.813
				C345.582,226.706,345.586,228.413,345.589,229.799z"/>
		</g>
		<polygon fill="#214668" points="345.589,229.799 342.902,230.718 347.385,230.994 347.503,230.196 		"/>
		<polygon fill="#214668" points="352.134,228.343 350.536,229.005 353.621,229.332 353.757,228.38 		"/>
		<path fill="#C2D6FF" d="M345.554,198.901l-0.963-1.612v1.102l-1.531-0.811c0,0-0.566,2.099,2.494,2.162V198.901z"/>
	</g>
</g>
<g>
	<g>
		<g>
			<g>
				<g>
					<g>
						<polygon fill="#C4D8FF" points="16.764,75.435 16.764,77.651 18.777,77.651 18.777,75.726 						"/>
					</g>
				</g>
			</g>
			<path fill="#0146C6" d="M10.835,79.958l5.929-2.307h2.012l7.006,2.465c0.471,0.152,0.739,0.661,0.594,1.129l-3.189,15.239
				l1.649,7.082H9.633l2.504-6.752L10.24,81.087C10.096,80.618,10.364,80.11,10.835,79.958z"/>
			<rect x="16.764" y="77.651" fill="#0146C6" width="2.012" height="18.482"/>
			<g>
				<g>
					<path fill="#214668" d="M18.377,70.438c0.571,0,0.991-0.091,1.43,0.272l-1.159,0.869v2.888l-1.884,1.861
						c-0.756-0.6-1.256-1.641-1.256-2.823C15.508,71.643,16.853,70.438,18.377,70.438z"/>
					<path fill="#0146C6" d="M18.648,71.578l1.159-0.838c0-0.334-0.276-0.606-0.614-0.606l-3.071,0.463
						c-0.337,0-0.614,0.273-0.614,0.606v2.587"/>
					<path fill="#C4D8FF" d="M18.217,74.891c-0.378-0.482-0.544-1.163-0.197-1.227c0.427-0.08,0.628,0.802,0.628,0.802v-2.888
						l1.159-0.869c0.283,0.233,0.529,0.528,0.724,0.869c0.094,0.165,0.179,0.341,0.249,0.527l0,0l1.006,1.719h-0.77
						c-0.132,1.71-1.311,3.048-2.747,3.048c-0.556,0-1.072-0.201-1.505-0.546L18.217,74.891z"/>
				</g>
			</g>
			<g>
				<path fill="#0146C6" d="M14.981,102.579l2.053-6.582c0,0,11.62-0.156,12.487-0.069c0.866,0.086,2.599,0.833,2.591,4.05
					c-0.004,1.749-0.017,7.075-0.027,11.574h-3.556l-0.834-10.498L14.981,102.579z"/>
				<path fill="#C4D8FF" d="M32.084,111.551c-0.005,2.391-0.011,4.548-0.013,5.809l-1.623,0.036l-0.985-5.845H32.084z"/>
			</g>
		</g>
		<path fill="#FFAC39" d="M19.922,99.649c0.421,1.572-0.513,3.187-2.085,3.607l-14.13,4.577c-1.572,0.421-3.186-0.513-3.607-2.085
			l0,0c-0.42-1.572,0.513-3.187,2.085-3.607l14.13-4.577C17.888,97.143,19.502,98.077,19.922,99.649L19.922,99.649z"/>
		<path fill="#A5C4FF" d="M0.023,104.954c0,0.568,0.191,1.091,0.509,1.513c0.304,0.773,0.929,1.416,1.776,1.709l13.76,5.589
			c0.232,0.081,0.468,0.127,0.703,0.148c0.016,0.002,0.032,0.003,0.048,0.004c0.059,0.004,0.118,0.008,0.176,0.009
			c0.016,0,0.032,0.002,0.048,0.002c0.032,0,0.064-0.004,0.097-0.005c0.356,0.04,0.725,0.019,1.092-0.08l14.13-4.576
			c1.572-0.42,2.505-2.035,2.085-3.607c-0.286-1.07-1.126-1.843-2.128-2.096l-12.758-5.182V84.662c0-1.138-0.754-2.1-1.791-2.412
			c-0.23-0.069-14.23-6.357-14.266-6.372c0,0-0.622-0.191-0.963-0.191c-1.39,0-2.518,1.127-2.518,2.518V104.954z"/>
		
			<line fill="none" stroke="#D9EDFF" stroke-width="1.0083" stroke-linecap="round" stroke-miterlimit="10" x1="9.718" y1="72.167" x2="9.718" y2="111.551"/>
		<path fill="#A5C4FF" d="M3.666,70.636c-0.533,1.538,0.281,3.216,1.818,3.749l8.684,3.428c1.537,0.533,3.216-0.281,3.749-1.818l0,0
			c0.533-1.537-0.281-3.215-1.818-3.749l-8.685-3.428C5.878,68.284,4.199,69.099,3.666,70.636L3.666,70.636z"/>
		<g>
			<path fill="#0146C6" d="M23.618,86.892l2.798-6.083l2.881,5.013l-3.296,3.414C24.703,87.959,23.618,86.892,23.618,86.892z"/>
			<path fill="#C4D8FF" d="M38.992,87.514l0.237,1.037l-6.573,4.851c0,0-1.417,0.989-2.493-0.07
				c-0.597-0.588-2.544-2.504-4.162-4.095l3.296-3.414l2.55,4.435L38.992,87.514z"/>
		</g>
		<g>
			<path fill="#0146C6" d="M19.561,105.855v-7.837l16.499,1.425c0,0,2.599,0.833,2.591,4.049c-0.003,1.605-0.014,6.225-0.024,10.451
				h-3.652l-0.741-9.376L19.561,105.855z"/>
			<path fill="#C4D8FF" d="M38.616,118.815c-0.517,0.086-1.229,0.24-1.914,0.397l-0.888-5.269h2.813
				C38.623,115.722,38.619,117.43,38.616,118.815z"/>
		</g>
		<polygon fill="#214668" points="38.616,118.815 41.304,119.734 36.821,120.01 36.702,119.212 		"/>
		<polygon fill="#214668" points="32.071,117.36 33.67,118.021 30.585,118.349 30.448,117.396 		"/>
		<path fill="#C4D8FF" d="M38.651,87.917l0.963-1.612v1.102l1.531-0.812c0,0,0.566,2.099-2.494,2.162V87.917z"/>
	</g>
</g>
<g>
	<g>
		<g>
			<polygon fill="#C4D8FF" points="119.785,171.384 119.785,173.495 117.867,173.495 117.867,171.661 			"/>
		</g>
		<g>
			<g>
				<path fill="#0146C6" d="M118.248,166.621c-0.544,0-0.945-0.086-1.363,0.259l1.105,0.828v2.752l1.795,1.773
					c0.72-0.572,1.197-1.563,1.197-2.69C120.982,167.77,119.7,166.621,118.248,166.621z"/>
				<path fill="#C4D8FF" d="M118.4,170.865c0.36-0.46,0.518-1.108,0.188-1.17c-0.407-0.076-0.598,0.765-0.598,0.765v-2.752
					l-1.105-0.828c-0.27,0.222-0.504,0.503-0.691,0.828c-0.09,0.158-0.17,0.325-0.237,0.502l0,0l-0.959,1.638h0.734
					c0.126,1.629,1.25,2.904,2.618,2.904c0.53,0,1.022-0.191,1.434-0.52L118.4,170.865z"/>
			</g>
		</g>
		<g>
			<g>
				<path fill="#0146C6" d="M119.625,200.152l0.496-6.952c0,0-12.183-4.112-13.008-4.03c-0.826,0.082-2.477,0.793-2.47,3.859
					c0.004,1.666,0.008,3.053,0.017,7.34l3.655-2.09l0.447-3.51L119.625,200.152z"/>
			</g>
		</g>
	</g>
	<g>
		<g>
			<path fill="#0146C6" d="M121.662,199.504c0.426-2.629,0.46-3.292,0.46-3.292s-17.836-3.108-19.62-3.41
				c-1.784-0.302-4.098,0.511-4.091,3.577c0.003,1.53-0.01,3.536-0.001,7.564l3.868-2.212l0.342-4.326
				C102.62,197.404,119.135,208.297,121.662,199.504z"/>
		</g>
	</g>
	<path fill="#C4D8FF" d="M98.602,182.895c0,0-0.819-1.832-0.819-1.333c0,0.5,0.075,0.455,0.211,0.876
		c0.135,0.421-1.669-0.598-1.669-0.598s-0.376,1.772,2.052,2.043L98.602,182.895z"/>
</g>
<path fill="#5490FF" d="M119.785,173.495h-1.918c0,0-5.178,0-7.457,3.592c-1.367,2.156-4.999,8.422-4.999,8.422l-6.809-2.614
	l-0.225,0.988l6.264,4.622c0,0,1.35,0.942,2.376-0.067c0.569-0.56,2.425-2.386,3.966-3.902c0.367-0.361,0.716-0.704,1.025-1.008
	c0,0-0.152,3.51-0.362,10.548c-0.21,7.039,14.175,6.857,14.175,6.857s-2.201-6.093-1.871-9.432c0.512-5.194,1.21-9.301,1.21-11.217
	C125.159,175.199,119.785,173.495,119.785,173.495z"/>
<g>
	<g>
		<polygon fill="#214668" points="198.986,316.618 198.997,316.628 198.665,317.478 198.961,319.082 199.436,316.922 		"/>
		<path fill="#0146C6" d="M198.986,316.618l-8.285-5.604l-0.035-0.683l-0.546-10.612l-5.57,1.806c0,0,2.047,8.256,2.546,10.093
			c0.046,0.17,0.106,0.325,0.172,0.474c0.65,1.466,2.145,1.965,2.145,1.965l9.252,3.419l0.333-0.85L198.986,316.618z"/>
	</g>
	<polygon fill="#C4D8FF" points="196.044,300.368 191.935,289.716 189.517,291.033 195.393,300.665 	"/>
	<path fill="#C4D8FF" d="M196.044,300.368l1.101,0.717c-0.167,0.239-1.235-0.136-1.235-0.136s0.25,0.54,0.009,0.581l-0.526-0.865
		L196.044,300.368z"/>
	<g>
		<polygon fill="#C4D8FF" points="185.971,282.626 185.971,284.191 184.55,284.191 184.55,282.831 		"/>
	</g>
	<g>
		<g>
			<path fill="#0146C6" d="M184.832,279.095c-0.403,0-0.7-0.064-1.01,0.192l0.819,0.614v2.04l1.331,1.314
				c0.534-0.424,0.887-1.159,0.887-1.994C186.859,279.946,185.909,279.095,184.832,279.095z"/>
			<path fill="#0146C6" d="M184.641,279.901l-0.819-0.592c0-0.236,0.195-0.428,0.434-0.428l2.17,0.327
				c0.238,0,0.434,0.193,0.434,0.428v1.827"/>
			<path fill="#C4D8FF" d="M184.945,282.241c0.267-0.341,0.385-0.821,0.139-0.867c-0.302-0.057-0.443,0.567-0.443,0.567v-2.04
				l-0.819-0.614c-0.2,0.164-0.374,0.373-0.512,0.614c-0.066,0.117-0.126,0.241-0.175,0.372l0,0l-0.711,1.214h0.544
				c0.093,1.208,0.926,2.153,1.941,2.153c0.392,0,0.757-0.142,1.063-0.385L184.945,282.241z"/>
		</g>
		<ellipse fill="#C4D8FF" cx="183.646" cy="280.666" rx="0.09" ry="0.163"/>
	</g>
	<g>
		<polygon fill="#214668" points="180.124,323.984 178.473,324.521 180.82,324.72 181.003,324.146 180.976,324.148 		"/>
		<polygon fill="#0146C6" points="182.96,297.346 181.558,310.52 180.124,323.984 180.976,324.148 181.003,324.146 184.916,311.946 
			188.72,300.088 		"/>
	</g>
</g>
<g>
	<path fill="#0146C6" d="M190.085,290.724l1.85-1.008l-1.329-3.444l-0.022,0.002c-0.054-0.206-0.208-0.383-0.425-0.453l-4.189-1.63
		h-1.421l-0.037,0.011v-0.001l-4.302-0.315l-1.066,3.443l1.587,0.658l1.713,13.375l8.949-1.387l-1.793-5.232L190.085,290.724z"/>
	<path fill="#C4D8FF" d="M176.567,283.619l-1.514-7.907l-1.107-0.898l0.333,1.512c0,0-0.163,6.796-0.165,7.79
		c-0.002,0.994,0.78,1.449,0.78,1.449l4.251,1.764l1.066-3.443L176.567,283.619z"/>
</g>
</svg>
