<svg id="Layer_1" data-name="Layer 1" xmlns="http://www.w3.org/2000/svg" viewBox="0 0 210 251.501">
  <defs>
    <style>
      .cls-1 {
        fill: #d0d4d9;
      }

      .cls-2 {
        fill: #1366ff;
      }

      .cls-3 {
        fill: #637282;
      }

      .cls-4 {
        fill: #f27284;
      }

      .cls-5, .cls-8 {
        fill: #62c6d4;
      }

      .cls-6, .cls-7 {
        fill: #81b7ed;
      }

      .cls-7, .cls-8, .cls-9 {
        fill-rule: evenodd;
      }

      .cls-9 {
        fill: #f98e9f;
      }
    </style>
  </defs>
  <title>img_graph</title>
  <g>
    <rect class="cls-1" x="0.125" y="21.531" width="1" height="210"/>
    <g>
      <rect class="cls-1" x="85" y="21.406" width="1" height="2"/>
      <path class="cls-1" d="M86,225.367H85v-4.04h1Zm0-8.079H85v-4.039h1Zm0-8.079H85V205.17h1Zm0-8.078H85v-4.04h1Zm0-8.079H85v-4.039h1Zm0-8.078H85v-4.039h1Zm0-8.078H85v-4.039h1Zm0-8.079H85v-4.039h1Zm0-8.078H85V156.7h1Zm0-8.078H85v-4.04h1Zm0-8.079H85v-4.039h1Zm0-8.079H85v-4.039h1Zm0-8.078H85v-4.039h1Zm0-8.078H85v-4.039h1Zm0-8.078H85v-4.04h1Zm0-8.079H85v-4.039h1Zm0-8.079H85V92.072h1Zm0-8.078H85V83.994h1Zm0-8.078H85V75.916h1Zm0-8.079H85V67.837h1ZM86,63.8H85V59.759h1Zm0-8.079H85V51.68h1Zm0-8.078H85V43.6h1Zm0-8.079H85V35.523h1Zm0-8.078H85V27.445h1Z"/>
      <rect class="cls-1" x="85" y="229.406" width="1" height="2"/>
    </g>
    <rect class="cls-1" y="230.406" width="210" height="1"/>
    <rect class="cls-2" x="85.5" y="202.406" width="41.5" height="2"/>
    <rect class="cls-2" x="127" y="156.781" width="41.5" height="2"/>
    <rect class="cls-2" x="168.5" y="111.156" width="41.5" height="2"/>
    <g>
      <path class="cls-3" d="M9.478,10.031H8.427a.457.457,0,0,1-.294-.091.567.567,0,0,1-.168-.231L7.027,7.287h-4.5L1.588,9.709a.533.533,0,0,1-.168.224.448.448,0,0,1-.294.1H.076L4.087,0H5.466ZM2.9,6.307H6.649L5.074,2.226a7.921,7.921,0,0,1-.3-.945q-.076.287-.15.528c-.049.161-.1.3-.144.424Z"/>
      <path class="cls-3" d="M10.548,10.031V2.94h.743a.316.316,0,0,1,.335.259l.091.728a3.633,3.633,0,0,1,.879-.791,2.07,2.07,0,0,1,1.131-.308,1.678,1.678,0,0,1,1.165.4,2.24,2.24,0,0,1,.64,1.078,2.22,2.22,0,0,1,.389-.665,2.252,2.252,0,0,1,.542-.462,2.307,2.307,0,0,1,.641-.266,2.856,2.856,0,0,1,.689-.084,2.624,2.624,0,0,1,1,.178,1.97,1.97,0,0,1,.742.522A2.331,2.331,0,0,1,20,4.371a3.779,3.779,0,0,1,.16,1.145v4.515H18.914V5.516a1.91,1.91,0,0,0-.365-1.264,1.3,1.3,0,0,0-1.057-.43,1.59,1.59,0,0,0-.584.108,1.419,1.419,0,0,0-.487.319,1.484,1.484,0,0,0-.332.528,2.048,2.048,0,0,0-.123.739v4.515H14.72V5.516a1.983,1.983,0,0,0-.343-1.274,1.217,1.217,0,0,0-1-.42,1.584,1.584,0,0,0-.857.248,2.817,2.817,0,0,0-.725.676v5.285Z"/>
      <path class="cls-3" d="M24.912,2.828a3.631,3.631,0,0,1,1.4.259,2.934,2.934,0,0,1,1.064.735,3.259,3.259,0,0,1,.673,1.151,4.591,4.591,0,0,1,.234,1.509,4.579,4.579,0,0,1-.234,1.512,3.263,3.263,0,0,1-.673,1.148,2.913,2.913,0,0,1-1.064.731,3.975,3.975,0,0,1-2.807,0,2.958,2.958,0,0,1-1.067-.731,3.26,3.26,0,0,1-.679-1.148,4.526,4.526,0,0,1-.238-1.512,4.537,4.537,0,0,1,.238-1.509,3.255,3.255,0,0,1,.679-1.151,2.98,2.98,0,0,1,1.067-.735A3.64,3.64,0,0,1,24.912,2.828Zm0,6.328a1.82,1.82,0,0,0,1.568-.7A3.258,3.258,0,0,0,27,6.489a3.288,3.288,0,0,0-.518-1.974,1.815,1.815,0,0,0-1.568-.707,2.182,2.182,0,0,0-.924.182,1.727,1.727,0,0,0-.655.525,2.365,2.365,0,0,0-.392.843,4.544,4.544,0,0,0-.129,1.131,4.494,4.494,0,0,0,.129,1.127,2.322,2.322,0,0,0,.392.836,1.739,1.739,0,0,0,.655.522A2.182,2.182,0,0,0,24.912,9.156Z"/>
      <path class="cls-3" d="M30.9,2.94V7.462a1.883,1.883,0,0,0,.371,1.246,1.381,1.381,0,0,0,1.12.441,2.153,2.153,0,0,0,1.029-.259,3.211,3.211,0,0,0,.889-.721V2.94h1.246v7.091h-.742a.319.319,0,0,1-.336-.259l-.1-.763a3.874,3.874,0,0,1-1.036.822,2.711,2.711,0,0,1-1.316.312,2.546,2.546,0,0,1-1.025-.193,2.031,2.031,0,0,1-.746-.542,2.316,2.316,0,0,1-.451-.847,3.763,3.763,0,0,1-.151-1.1V2.94Z"/>
      <path class="cls-3" d="M37.61,10.031V2.94h.743a.316.316,0,0,1,.335.259l.1.77a3.949,3.949,0,0,1,1.032-.826,2.683,2.683,0,0,1,1.319-.315,2.565,2.565,0,0,1,1.026.192,1.988,1.988,0,0,1,.742.546,2.4,2.4,0,0,1,.451.851,3.686,3.686,0,0,1,.154,1.1v4.515H42.265V5.516a1.909,1.909,0,0,0-.367-1.25,1.376,1.376,0,0,0-1.124-.444,2.1,2.1,0,0,0-1.032.266,3.382,3.382,0,0,0-.886.721v5.222Z"/>
      <path class="cls-3" d="M47.543,10.143a1.715,1.715,0,0,1-1.292-.469A1.876,1.876,0,0,1,45.8,8.323V3.983h-.854a.288.288,0,0,1-.189-.066.262.262,0,0,1-.077-.207v-.5l1.162-.147L46.129.875A.263.263,0,0,1,46.22.7a.289.289,0,0,1,.2-.066h.63V3.08h2.03v.9h-2.03V8.239a.9.9,0,0,0,.217.665.76.76,0,0,0,.56.217.991.991,0,0,0,.34-.053,1.476,1.476,0,0,0,.248-.115c.07-.042.13-.081.178-.116a.237.237,0,0,1,.13-.052.215.215,0,0,1,.175.119l.364.6a2.316,2.316,0,0,1-.777.472A2.645,2.645,0,0,1,47.543,10.143Z"/>
    </g>
    <g>
      <path class="cls-3" d="M187.376,241.373v1.141h-3.241v8.89h-1.358v-8.89h-3.255v-1.141Z"/>
      <path class="cls-3" d="M190.274,242.086a.79.79,0,0,1-.074.34.983.983,0,0,1-.195.281.937.937,0,0,1-.284.192.849.849,0,0,1-.343.07.828.828,0,0,1-.34-.07.939.939,0,0,1-.279-.192.9.9,0,0,1-.193-.281.834.834,0,0,1-.07-.34.879.879,0,0,1,.07-.345.864.864,0,0,1,.193-.287.907.907,0,0,1,.279-.193.828.828,0,0,1,.34-.07.849.849,0,0,1,.343.07.9.9,0,0,1,.284.193.934.934,0,0,1,.195.287A.832.832,0,0,1,190.274,242.086Zm-.28,2.227V251.4h-1.246v-7.091Z"/>
      <path class="cls-3" d="M192.192,251.4v-7.091h.742a.317.317,0,0,1,.336.259l.091.728a3.629,3.629,0,0,1,.878-.791,2.062,2.062,0,0,1,1.131-.308,1.672,1.672,0,0,1,1.165.4,2.241,2.241,0,0,1,.641,1.078,2.2,2.2,0,0,1,.388-.665,2.259,2.259,0,0,1,1.183-.728,2.864,2.864,0,0,1,.69-.084,2.624,2.624,0,0,1,1,.178,1.989,1.989,0,0,1,.742.522,2.326,2.326,0,0,1,.465.844,3.736,3.736,0,0,1,.161,1.144V251.4h-1.246v-4.515a1.911,1.911,0,0,0-.364-1.264,1.307,1.307,0,0,0-1.057-.43,1.586,1.586,0,0,0-.584.108,1.414,1.414,0,0,0-.488.319,1.512,1.512,0,0,0-.332.528,2.048,2.048,0,0,0-.122.739V251.4h-1.246v-4.515a1.985,1.985,0,0,0-.343-1.274,1.214,1.214,0,0,0-1-.42,1.589,1.589,0,0,0-.858.248,2.8,2.8,0,0,0-.724.676V251.4Z"/>
      <path class="cls-3" d="M206.493,244.2a3.15,3.15,0,0,1,1.176.214,2.626,2.626,0,0,1,.931.616,2.815,2.815,0,0,1,.613.993,3.865,3.865,0,0,1,.22,1.348.812.812,0,0,1-.063.392.26.26,0,0,1-.238.1h-4.718a3.934,3.934,0,0,0,.182,1.169,2.385,2.385,0,0,0,.462.829,1.838,1.838,0,0,0,.7.5,2.4,2.4,0,0,0,.91.165,2.691,2.691,0,0,0,.809-.108,4.012,4.012,0,0,0,.585-.235,4.371,4.371,0,0,0,.409-.235.545.545,0,0,1,.283-.109.273.273,0,0,1,.238.12l.35.455a2.381,2.381,0,0,1-.553.486,3.45,3.45,0,0,1-.689.34,4.332,4.332,0,0,1-.76.2,4.572,4.572,0,0,1-.777.066,3.612,3.612,0,0,1-1.354-.248,2.964,2.964,0,0,1-1.071-.728,3.346,3.346,0,0,1-.7-1.187,4.812,4.812,0,0,1-.252-1.624,4.144,4.144,0,0,1,.227-1.385,3.289,3.289,0,0,1,.655-1.117,3.017,3.017,0,0,1,1.043-.742A3.434,3.434,0,0,1,206.493,244.2Zm.028.917a1.915,1.915,0,0,0-1.421.521,2.459,2.459,0,0,0-.644,1.445h3.857a2.523,2.523,0,0,0-.119-.793,1.779,1.779,0,0,0-.35-.624,1.582,1.582,0,0,0-.564-.406A1.906,1.906,0,0,0,206.521,245.118Z"/>
    </g>
    <g>
      <path class="cls-4" d="M6,56H7.086a.456.456,0,0,1,.294.09.567.567,0,0,1,.168.231L10.383,63.4a5.059,5.059,0,0,1,.179.519c.053.186.105.38.157.58.042-.2.087-.394.136-.58a3.946,3.946,0,0,1,.172-.519l2.821-7.077a.579.579,0,0,1,.168-.22.434.434,0,0,1,.294-.1H15.4L11.314,66.03H10.089Z"/>
      <path class="cls-4" d="M18.482,58.827a3.157,3.157,0,0,1,1.176.214,2.64,2.64,0,0,1,.931.616,2.8,2.8,0,0,1,.612.994A3.836,3.836,0,0,1,21.422,62a.812.812,0,0,1-.063.392.261.261,0,0,1-.238.1H16.4a3.9,3.9,0,0,0,.182,1.169,2.39,2.39,0,0,0,.462.83,1.859,1.859,0,0,0,.7.5,2.418,2.418,0,0,0,.91.164,2.679,2.679,0,0,0,.808-.108,3.967,3.967,0,0,0,.585-.235,4.484,4.484,0,0,0,.409-.234.551.551,0,0,1,.284-.109.276.276,0,0,1,.238.119l.35.455a2.382,2.382,0,0,1-.553.487,3.454,3.454,0,0,1-.69.339,4.324,4.324,0,0,1-.759.2,4.676,4.676,0,0,1-.777.066A3.621,3.621,0,0,1,17.2,65.88a2.973,2.973,0,0,1-1.071-.728,3.338,3.338,0,0,1-.7-1.187,4.821,4.821,0,0,1-.252-1.624,4.154,4.154,0,0,1,.227-1.386,3.269,3.269,0,0,1,.655-1.116A3,3,0,0,1,17.1,59.1,3.414,3.414,0,0,1,18.482,58.827Zm.028.917a1.911,1.911,0,0,0-1.421.522,2.453,2.453,0,0,0-.644,1.445H20.3a2.529,2.529,0,0,0-.119-.794,1.759,1.759,0,0,0-.35-.623,1.563,1.563,0,0,0-.563-.406A1.9,1.9,0,0,0,18.51,59.744Z"/>
      <path class="cls-4" d="M27.071,60.108a.276.276,0,0,1-.259.154.481.481,0,0,1-.238-.077c-.089-.051-.2-.108-.326-.171a3.086,3.086,0,0,0-.458-.175,2.181,2.181,0,0,0-.63-.081,1.849,1.849,0,0,0-.567.081,1.378,1.378,0,0,0-.431.22.98.98,0,0,0-.273.326.871.871,0,0,0-.094.4.67.67,0,0,0,.157.455,1.346,1.346,0,0,0,.417.315,3.618,3.618,0,0,0,.588.235c.219.067.444.14.675.217s.456.162.676.255a2.486,2.486,0,0,1,.588.35,1.61,1.61,0,0,1,.416.515,1.575,1.575,0,0,1,.158.731,2.331,2.331,0,0,1-.175.907,2,2,0,0,1-.518.721,2.492,2.492,0,0,1-.84.479,3.445,3.445,0,0,1-1.148.175,3.578,3.578,0,0,1-1.344-.241,3.4,3.4,0,0,1-1.022-.62l.294-.476a.427.427,0,0,1,.133-.14.379.379,0,0,1,.2-.049.471.471,0,0,1,.266.1c.093.066.206.138.339.217a2.577,2.577,0,0,0,.483.217,2.185,2.185,0,0,0,.711.1,1.951,1.951,0,0,0,.637-.094,1.334,1.334,0,0,0,.455-.256,1.008,1.008,0,0,0,.269-.371,1.158,1.158,0,0,0,.088-.448.741.741,0,0,0-.158-.486,1.325,1.325,0,0,0-.416-.329,3.348,3.348,0,0,0-.592-.238q-.332-.1-.679-.214c-.231-.074-.457-.16-.679-.255a2.385,2.385,0,0,1-.591-.361,1.638,1.638,0,0,1-.417-.535,1.737,1.737,0,0,1-.157-.774,1.884,1.884,0,0,1,.168-.78,1.907,1.907,0,0,1,.49-.658A2.4,2.4,0,0,1,24.061,59a3.164,3.164,0,0,1,1.071-.168,3.387,3.387,0,0,1,1.256.221,2.973,2.973,0,0,1,.963.6Z"/>
      <path class="cls-4" d="M31.235,66.142a1.707,1.707,0,0,1-1.291-.469,1.87,1.87,0,0,1-.451-1.351v-4.34h-.854a.284.284,0,0,1-.19-.066.259.259,0,0,1-.076-.207v-.5l1.162-.147.286-2.19a.264.264,0,0,1,.092-.172.288.288,0,0,1,.2-.067h.63v2.443h2.031v.9H30.738v4.256a.9.9,0,0,0,.218.665.755.755,0,0,0,.56.217.99.99,0,0,0,.339-.052,1.45,1.45,0,0,0,.249-.116c.069-.042.129-.08.178-.115a.234.234,0,0,1,.13-.053.214.214,0,0,1,.174.119l.365.595a2.329,2.329,0,0,1-.778.473A2.64,2.64,0,0,1,31.235,66.142Z"/>
      <path class="cls-4" d="M35.974,56.713a.782.782,0,0,1-.074.34.972.972,0,0,1-.2.28.9.9,0,0,1-.284.192.845.845,0,0,1-.343.07.82.82,0,0,1-.339-.07.912.912,0,0,1-.281-.192.925.925,0,0,1-.192-.28.824.824,0,0,1-.07-.34.87.87,0,0,1,.07-.346.9.9,0,0,1,.192-.287.933.933,0,0,1,.281-.193.836.836,0,0,1,.339-.07.862.862,0,0,1,.343.07.922.922,0,0,1,.284.193.941.941,0,0,1,.2.287A.825.825,0,0,1,35.974,56.713Zm-.28,2.226V66.03H34.448V58.939Z"/>
      <path class="cls-4" d="M37.892,66.03V58.939h.742a.318.318,0,0,1,.336.259l.1.77a3.97,3.97,0,0,1,1.033-.826,2.683,2.683,0,0,1,1.319-.315,2.569,2.569,0,0,1,1.026.193,1.985,1.985,0,0,1,.742.546,2.4,2.4,0,0,1,.451.851,3.684,3.684,0,0,1,.154,1.1V66.03H42.547V61.515a1.908,1.908,0,0,0-.367-1.249,1.373,1.373,0,0,0-1.124-.445,2.1,2.1,0,0,0-1.033.266,3.435,3.435,0,0,0-.885.721V66.03Z"/>
      <path class="cls-4" d="M48.063,58.82a3.518,3.518,0,0,1,.865.1,2.715,2.715,0,0,1,.731.3h1.925v.462c0,.154-.1.252-.293.294l-.806.112a2.155,2.155,0,0,1,.238,1.015,2.181,2.181,0,0,1-.2.942,2.127,2.127,0,0,1-.553.724,2.477,2.477,0,0,1-.84.462,3.365,3.365,0,0,1-1.068.161,3.561,3.561,0,0,1-.938-.119,1.216,1.216,0,0,0-.339.311.574.574,0,0,0-.116.326.443.443,0,0,0,.2.4,1.416,1.416,0,0,0,.538.192,4.6,4.6,0,0,0,.763.057h.872a4.832,4.832,0,0,1,.871.078,2.635,2.635,0,0,1,.763.255,1.42,1.42,0,0,1,.539.489,1.462,1.462,0,0,1,.2.808,1.9,1.9,0,0,1-.227.893,2.428,2.428,0,0,1-.654.769,3.363,3.363,0,0,1-1.043.538,4.459,4.459,0,0,1-1.394.2,5.352,5.352,0,0,1-1.361-.154,3.212,3.212,0,0,1-.97-.413,1.8,1.8,0,0,1-.577-.6,1.412,1.412,0,0,1-.193-.71,1.284,1.284,0,0,1,.333-.894,2.288,2.288,0,0,1,.913-.585,1.255,1.255,0,0,1-.479-.374,1.007,1.007,0,0,1-.179-.626,1,1,0,0,1,.056-.318,1.278,1.278,0,0,1,.172-.325,1.844,1.844,0,0,1,.675-.565,2.222,2.222,0,0,1-.822-.781,2.141,2.141,0,0,1-.3-1.138,2.18,2.18,0,0,1,.2-.941,2.071,2.071,0,0,1,.556-.721,2.567,2.567,0,0,1,.851-.459A3.477,3.477,0,0,1,48.063,58.82Zm2.212,7.57a.626.626,0,0,0-.147-.435.947.947,0,0,0-.4-.254,2.885,2.885,0,0,0-.581-.132,5.462,5.462,0,0,0-.693-.043h-.742a2.7,2.7,0,0,1-.721-.094,2.022,2.022,0,0,0-.647.463.933.933,0,0,0-.249.651.856.856,0,0,0,.123.446,1.04,1.04,0,0,0,.374.357,2.188,2.188,0,0,0,.634.239,4.082,4.082,0,0,0,.9.087,4,4,0,0,0,.9-.092,2.224,2.224,0,0,0,.676-.265,1.29,1.29,0,0,0,.423-.406A.969.969,0,0,0,50.275,66.39Zm-2.212-3.825a1.966,1.966,0,0,0,.669-.1,1.37,1.37,0,0,0,.486-.293,1.2,1.2,0,0,0,.294-.452,1.627,1.627,0,0,0,.1-.578,1.378,1.378,0,0,0-.395-1.036,1.9,1.9,0,0,0-2.3,0,1.379,1.379,0,0,0-.4,1.036,1.584,1.584,0,0,0,.1.578,1.249,1.249,0,0,0,.3.452,1.375,1.375,0,0,0,.483.293A1.913,1.913,0,0,0,48.063,62.565Z"/>
      <path class="cls-4" d="M62.8,63.958a.284.284,0,0,1,.2.091l.532.581a4.293,4.293,0,0,1-1.5,1.113,5.091,5.091,0,0,1-2.117.4,4.977,4.977,0,0,1-1.967-.374,4.317,4.317,0,0,1-1.505-1.05,4.725,4.725,0,0,1-.966-1.621,6.046,6.046,0,0,1-.343-2.079,5.69,5.69,0,0,1,.367-2.079,4.745,4.745,0,0,1,1.033-1.624,4.631,4.631,0,0,1,1.592-1.053,5.415,5.415,0,0,1,2.048-.375,4.572,4.572,0,0,1,3.332,1.274l-.441.623a.477.477,0,0,1-.112.116.312.312,0,0,1-.182.045.358.358,0,0,1-.193-.066c-.067-.045-.148-.1-.241-.165s-.2-.135-.329-.21a3.043,3.043,0,0,0-.448-.21,3.732,3.732,0,0,0-.6-.164,4.14,4.14,0,0,0-.791-.067,3.809,3.809,0,0,0-1.474.277,3.3,3.3,0,0,0-1.151.787,3.592,3.592,0,0,0-.753,1.246,4.77,4.77,0,0,0-.269,1.645,4.853,4.853,0,0,0,.269,1.673,3.7,3.7,0,0,0,.735,1.243,3.094,3.094,0,0,0,1.1.773,3.51,3.51,0,0,0,1.372.266,5.582,5.582,0,0,0,.8-.052,3.278,3.278,0,0,0,.661-.165,2.781,2.781,0,0,0,.567-.283,4.534,4.534,0,0,0,.529-.41A.354.354,0,0,1,62.8,63.958Z"/>
      <path class="cls-4" d="M66.508,55.719V66.03H65.262V55.719Z"/>
      <path class="cls-4" d="M70.372,56.713a.8.8,0,0,1-.074.34.976.976,0,0,1-.2.28.88.88,0,0,1-.284.192.841.841,0,0,1-.342.07.821.821,0,0,1-.34-.07.926.926,0,0,1-.472-.472.824.824,0,0,1-.07-.34.87.87,0,0,1,.07-.346.882.882,0,0,1,.192-.287.929.929,0,0,1,.28-.193.837.837,0,0,1,.34-.07.857.857,0,0,1,.342.07.9.9,0,0,1,.284.193.943.943,0,0,1,.2.287A.84.84,0,0,1,70.372,56.713Zm-.28,2.226V66.03H68.846V58.939Z"/>
      <path class="cls-4" d="M72.569,66.03V60l-.783-.091a.621.621,0,0,1-.242-.108.254.254,0,0,1-.094-.214v-.511h1.119v-.686a3.14,3.14,0,0,1,.172-1.081,2.192,2.192,0,0,1,.49-.8A2.06,2.06,0,0,1,74,56.021a2.825,2.825,0,0,1,1.007-.169,2.7,2.7,0,0,1,.883.14l-.029.623a.158.158,0,0,1-.118.168,1.354,1.354,0,0,1-.315.028h-.218a1.881,1.881,0,0,0-.584.085,1.093,1.093,0,0,0-.452.272,1.241,1.241,0,0,0-.29.5,2.461,2.461,0,0,0-.1.763v.651h2.051v.9H73.823V66.03Z"/>
      <path class="cls-4" d="M77.288,66.03V60l-.784-.091a.621.621,0,0,1-.242-.108.254.254,0,0,1-.094-.214v-.511h1.12v-.686a3.165,3.165,0,0,1,.171-1.081,2.206,2.206,0,0,1,.49-.8,2.068,2.068,0,0,1,.767-.493,2.834,2.834,0,0,1,1.008-.169,2.7,2.7,0,0,1,.882.14l-.028.623a.16.16,0,0,1-.119.168,1.354,1.354,0,0,1-.315.028h-.217a1.887,1.887,0,0,0-.585.085,1.09,1.09,0,0,0-.451.272,1.243,1.243,0,0,0-.291.5,2.492,2.492,0,0,0-.1.763v.651H80.55v.9H78.541V66.03Z"/>
    </g>
    <g>
      <path class="cls-5" d="M95.937,56h1.085a.456.456,0,0,1,.294.09.567.567,0,0,1,.168.231l2.835,7.077a5.059,5.059,0,0,1,.179.519c.053.186.106.38.157.58.042-.2.087-.394.137-.58a3.8,3.8,0,0,1,.171-.519l2.821-7.077a.579.579,0,0,1,.168-.22.434.434,0,0,1,.294-.1h1.092L101.25,66.03h-1.225Z"/>
      <path class="cls-5" d="M108.418,58.827a3.157,3.157,0,0,1,1.176.214,2.64,2.64,0,0,1,.931.616,2.8,2.8,0,0,1,.612.994A3.836,3.836,0,0,1,111.358,62a.812.812,0,0,1-.063.392.261.261,0,0,1-.238.1h-4.718a3.9,3.9,0,0,0,.182,1.169,2.39,2.39,0,0,0,.462.83,1.859,1.859,0,0,0,.7.5,2.418,2.418,0,0,0,.91.164,2.679,2.679,0,0,0,.808-.108,3.967,3.967,0,0,0,.585-.235,4.658,4.658,0,0,0,.41-.234.545.545,0,0,1,.283-.109.276.276,0,0,1,.238.119l.35.455a2.382,2.382,0,0,1-.553.487,3.428,3.428,0,0,1-.69.339,4.324,4.324,0,0,1-.759.2,4.676,4.676,0,0,1-.777.066,3.621,3.621,0,0,1-1.355-.248,2.973,2.973,0,0,1-1.071-.728,3.338,3.338,0,0,1-.7-1.187,4.821,4.821,0,0,1-.252-1.624,4.154,4.154,0,0,1,.227-1.386,3.269,3.269,0,0,1,.655-1.116,3,3,0,0,1,1.043-.742A3.414,3.414,0,0,1,108.418,58.827Zm.028.917a1.911,1.911,0,0,0-1.421.522,2.453,2.453,0,0,0-.644,1.445h3.857a2.529,2.529,0,0,0-.119-.794,1.759,1.759,0,0,0-.35-.623,1.563,1.563,0,0,0-.563-.406A1.9,1.9,0,0,0,108.446,59.744Z"/>
      <path class="cls-5" d="M117.007,60.108a.276.276,0,0,1-.259.154.481.481,0,0,1-.238-.077c-.089-.051-.2-.108-.326-.171a3.086,3.086,0,0,0-.458-.175,2.181,2.181,0,0,0-.63-.081,1.849,1.849,0,0,0-.567.081,1.378,1.378,0,0,0-.431.22.98.98,0,0,0-.273.326.871.871,0,0,0-.094.4.67.67,0,0,0,.157.455,1.346,1.346,0,0,0,.417.315,3.618,3.618,0,0,0,.588.235c.219.067.444.14.675.217s.456.162.676.255a2.486,2.486,0,0,1,.588.35,1.627,1.627,0,0,1,.417.515,1.575,1.575,0,0,1,.157.731,2.331,2.331,0,0,1-.175.907,2,2,0,0,1-.518.721,2.492,2.492,0,0,1-.84.479,3.441,3.441,0,0,1-1.148.175,3.578,3.578,0,0,1-1.344-.241,3.4,3.4,0,0,1-1.022-.62l.294-.476a.427.427,0,0,1,.133-.14.379.379,0,0,1,.2-.049.471.471,0,0,1,.266.1c.093.066.206.138.339.217a2.577,2.577,0,0,0,.483.217,2.185,2.185,0,0,0,.711.1,1.951,1.951,0,0,0,.637-.094,1.334,1.334,0,0,0,.455-.256,1.008,1.008,0,0,0,.269-.371,1.14,1.14,0,0,0,.088-.448.741.741,0,0,0-.158-.486,1.325,1.325,0,0,0-.416-.329,3.348,3.348,0,0,0-.592-.238q-.332-.1-.679-.214c-.231-.074-.457-.16-.679-.255a2.385,2.385,0,0,1-.591-.361,1.638,1.638,0,0,1-.417-.535,1.737,1.737,0,0,1-.157-.774,1.884,1.884,0,0,1,.168-.78,1.907,1.907,0,0,1,.49-.658A2.4,2.4,0,0,1,114,59a3.168,3.168,0,0,1,1.071-.168,3.387,3.387,0,0,1,1.256.221,2.973,2.973,0,0,1,.963.6Z"/>
      <path class="cls-5" d="M121.171,66.142a1.707,1.707,0,0,1-1.291-.469,1.87,1.87,0,0,1-.451-1.351v-4.34h-.854a.284.284,0,0,1-.19-.066.259.259,0,0,1-.076-.207v-.5l1.162-.147.286-2.19a.264.264,0,0,1,.092-.172.288.288,0,0,1,.195-.067h.63v2.443h2.031v.9h-2.031v4.256a.9.9,0,0,0,.218.665.755.755,0,0,0,.56.217.99.99,0,0,0,.339-.052,1.45,1.45,0,0,0,.249-.116c.069-.042.129-.08.178-.115a.234.234,0,0,1,.13-.053.214.214,0,0,1,.174.119l.365.595a2.329,2.329,0,0,1-.778.473A2.64,2.64,0,0,1,121.171,66.142Z"/>
      <path class="cls-5" d="M125.91,56.713a.782.782,0,0,1-.074.34.972.972,0,0,1-.195.28.9.9,0,0,1-.284.192.845.845,0,0,1-.343.07.82.82,0,0,1-.339-.07.9.9,0,0,1-.28-.192.929.929,0,0,1-.193-.28.824.824,0,0,1-.07-.34.87.87,0,0,1,.07-.346.9.9,0,0,1,.193-.287.916.916,0,0,1,.28-.193.836.836,0,0,1,.339-.07.862.862,0,0,1,.343.07.922.922,0,0,1,.284.193.941.941,0,0,1,.195.287A.825.825,0,0,1,125.91,56.713Zm-.28,2.226V66.03h-1.246V58.939Z"/>
      <path class="cls-5" d="M127.828,66.03V58.939h.742a.318.318,0,0,1,.336.259l.1.77a3.97,3.97,0,0,1,1.033-.826,2.682,2.682,0,0,1,1.318-.315,2.558,2.558,0,0,1,1.026.193,1.961,1.961,0,0,1,.742.546,2.365,2.365,0,0,1,.451.851,3.651,3.651,0,0,1,.155,1.1V66.03h-1.247V61.515a1.9,1.9,0,0,0-.367-1.249,1.37,1.37,0,0,0-1.123-.445,2.1,2.1,0,0,0-1.033.266,3.435,3.435,0,0,0-.885.721V66.03Z"/>
      <path class="cls-5" d="M138,58.82a3.5,3.5,0,0,1,.864.1,2.722,2.722,0,0,1,.732.3h1.925v.462q0,.231-.294.294l-.805.112a2.3,2.3,0,0,1,.038,1.957,2.127,2.127,0,0,1-.553.724,2.458,2.458,0,0,1-.84.462,3.359,3.359,0,0,1-1.067.161,3.55,3.55,0,0,1-.938-.119,1.2,1.2,0,0,0-.339.311.576.576,0,0,0-.117.326.445.445,0,0,0,.2.4,1.422,1.422,0,0,0,.539.192,4.591,4.591,0,0,0,.763.057h.871a4.851,4.851,0,0,1,.872.078,2.645,2.645,0,0,1,.763.255,1.42,1.42,0,0,1,.539.489,1.462,1.462,0,0,1,.2.808,1.89,1.89,0,0,1-.227.893,2.415,2.415,0,0,1-.654.769,3.352,3.352,0,0,1-1.043.538,4.452,4.452,0,0,1-1.393.2,5.346,5.346,0,0,1-1.361-.154,3.212,3.212,0,0,1-.97-.413,1.792,1.792,0,0,1-.577-.6,1.413,1.413,0,0,1-.194-.71,1.288,1.288,0,0,1,.333-.894,2.292,2.292,0,0,1,.914-.585,1.251,1.251,0,0,1-.48-.374,1.007,1.007,0,0,1-.178-.626,1,1,0,0,1,.056-.318,1.274,1.274,0,0,1,.171-.325,1.837,1.837,0,0,1,.284-.307,1.775,1.775,0,0,1,.392-.258,2.225,2.225,0,0,1-.823-.781,2.14,2.14,0,0,1-.3-1.138,2.165,2.165,0,0,1,.2-.941,2.081,2.081,0,0,1,.555-.721,2.576,2.576,0,0,1,.851-.459A3.479,3.479,0,0,1,138,58.82Zm2.212,7.57a.622.622,0,0,0-.148-.435.937.937,0,0,0-.4-.254,2.917,2.917,0,0,0-.581-.132,5.474,5.474,0,0,0-.693-.043h-.743a2.692,2.692,0,0,1-.72-.094,2.038,2.038,0,0,0-.648.463.932.932,0,0,0-.248.651.855.855,0,0,0,.122.446,1.051,1.051,0,0,0,.375.357,2.192,2.192,0,0,0,.633.239,4.1,4.1,0,0,0,.9.087,4,4,0,0,0,.9-.092,2.245,2.245,0,0,0,.676-.265,1.286,1.286,0,0,0,.422-.406A.961.961,0,0,0,140.211,66.39ZM138,62.565a1.956,1.956,0,0,0,.668-.1,1.366,1.366,0,0,0,.487-.293,1.217,1.217,0,0,0,.294-.452,1.65,1.65,0,0,0,.1-.578,1.379,1.379,0,0,0-.4-1.036,1.9,1.9,0,0,0-2.3,0,1.382,1.382,0,0,0-.4,1.036,1.564,1.564,0,0,0,.1.578,1.259,1.259,0,0,0,.3.452,1.37,1.37,0,0,0,.484.293A1.9,1.9,0,0,0,138,62.565Z"/>
      <path class="cls-5" d="M154.358,61.018A5.646,5.646,0,0,1,154,63.069a4.434,4.434,0,0,1-2.568,2.6,5.448,5.448,0,0,1-2.017.36h-3.752V56h3.752a5.448,5.448,0,0,1,2.017.36,4.458,4.458,0,0,1,1.56,1.022A4.554,4.554,0,0,1,154,58.967,5.65,5.65,0,0,1,154.358,61.018Zm-1.393,0a5.037,5.037,0,0,0-.252-1.652A3.47,3.47,0,0,0,152,58.134a3.05,3.05,0,0,0-1.12-.77,3.877,3.877,0,0,0-1.463-.266h-2.387v7.833h2.387a3.858,3.858,0,0,0,1.463-.266A3.065,3.065,0,0,0,152,63.9a3.43,3.43,0,0,0,.714-1.229A5.033,5.033,0,0,0,152.965,61.018Z"/>
      <path class="cls-5" d="M157.088,58.939v4.522a1.883,1.883,0,0,0,.371,1.246,1.383,1.383,0,0,0,1.12.441,2.142,2.142,0,0,0,1.029-.259,3.165,3.165,0,0,0,.889-.721V58.939h1.246V66.03H161a.318.318,0,0,1-.336-.259l-.1-.763a3.882,3.882,0,0,1-1.036.823,2.711,2.711,0,0,1-1.316.311,2.572,2.572,0,0,1-1.026-.192,2.046,2.046,0,0,1-.745-.543,2.286,2.286,0,0,1-.451-.847,3.787,3.787,0,0,1-.151-1.1V58.939Z"/>
      <path class="cls-5" d="M163.794,66.03V58.939h.714a.393.393,0,0,1,.279.077.472.472,0,0,1,.106.266l.084,1.106a3.233,3.233,0,0,1,.9-1.158,1.984,1.984,0,0,1,1.257-.417,1.943,1.943,0,0,1,.531.067,1.842,1.842,0,0,1,.441.185l-.161.931a.209.209,0,0,1-.216.175,1.089,1.089,0,0,1-.3-.066,1.911,1.911,0,0,0-.568-.067,1.6,1.6,0,0,0-1.088.379,2.828,2.828,0,0,0-.732,1.1V66.03Z"/>
      <path class="cls-5" d="M174.378,66.03h-.554a.653.653,0,0,1-.294-.056.308.308,0,0,1-.146-.238l-.141-.658q-.279.252-.546.452a3.105,3.105,0,0,1-.559.336,2.9,2.9,0,0,1-.627.206,3.575,3.575,0,0,1-.739.07,2.488,2.488,0,0,1-.773-.116,1.775,1.775,0,0,1-.627-.347,1.66,1.66,0,0,1-.423-.587,2.056,2.056,0,0,1-.158-.839,1.575,1.575,0,0,1,.231-.812,2.045,2.045,0,0,1,.746-.691,4.832,4.832,0,0,1,1.347-.5,9.166,9.166,0,0,1,2.037-.193v-.556a1.932,1.932,0,0,0-.353-1.257,1.279,1.279,0,0,0-1.046-.427,2.215,2.215,0,0,0-.767.116,2.88,2.88,0,0,0-.539.259c-.152.1-.282.182-.392.259a.565.565,0,0,1-.326.115.376.376,0,0,1-.22-.066.517.517,0,0,1-.151-.165l-.223-.4a4.047,4.047,0,0,1,1.266-.847,3.924,3.924,0,0,1,1.5-.28,2.7,2.7,0,0,1,1.058.2,2.181,2.181,0,0,1,.776.546,2.332,2.332,0,0,1,.477.847,3.544,3.544,0,0,1,.161,1.092Zm-3.234-.763a2.562,2.562,0,0,0,.6-.066,2.432,2.432,0,0,0,.515-.189,2.73,2.73,0,0,0,.462-.3,3.781,3.781,0,0,0,.43-.4V62.852a8.437,8.437,0,0,0-1.463.109,4.082,4.082,0,0,0-.98.286,1.355,1.355,0,0,0-.549.415.9.9,0,0,0-.172.535,1.2,1.2,0,0,0,.091.486.937.937,0,0,0,.245.335,1,1,0,0,0,.364.19A1.655,1.655,0,0,0,171.144,65.267Z"/>
      <path class="cls-5" d="M178.417,66.142a1.707,1.707,0,0,1-1.291-.469,1.866,1.866,0,0,1-.452-1.351v-4.34h-.854a.281.281,0,0,1-.189-.066.259.259,0,0,1-.077-.207v-.5l1.162-.147.287-2.19a.267.267,0,0,1,.091-.172.293.293,0,0,1,.2-.067h.63v2.443h2.03v.9h-2.03v4.256a.9.9,0,0,0,.217.665.757.757,0,0,0,.56.217.986.986,0,0,0,.339-.052,1.45,1.45,0,0,0,.249-.116c.07-.042.13-.08.179-.115a.234.234,0,0,1,.129-.053.218.218,0,0,1,.176.119l.363.595a2.335,2.335,0,0,1-.777.473A2.644,2.644,0,0,1,178.417,66.142Z"/>
      <path class="cls-5" d="M183.156,56.713a.8.8,0,0,1-.074.34.992.992,0,0,1-.195.28.9.9,0,0,1-.284.192.849.849,0,0,1-.343.07.824.824,0,0,1-.34-.07.892.892,0,0,1-.279-.192.911.911,0,0,1-.193-.28.824.824,0,0,1-.07-.34.87.87,0,0,1,.07-.346.885.885,0,0,1,.193-.287.912.912,0,0,1,.279-.193.841.841,0,0,1,.34-.07.866.866,0,0,1,.343.07.922.922,0,0,1,.284.193.959.959,0,0,1,.195.287A.84.84,0,0,1,183.156,56.713Zm-.28,2.226V66.03H181.63V58.939Z"/>
      <path class="cls-5" d="M187.943,58.827a3.66,3.66,0,0,1,1.405.259,2.972,2.972,0,0,1,1.063.735,3.246,3.246,0,0,1,.672,1.152,4.989,4.989,0,0,1,0,3.02,3.246,3.246,0,0,1-.672,1.148,2.928,2.928,0,0,1-1.063.732,3.993,3.993,0,0,1-2.808,0,2.952,2.952,0,0,1-1.067-.732,3.26,3.26,0,0,1-.679-1.148,4.909,4.909,0,0,1,0-3.02,3.26,3.26,0,0,1,.679-1.152,3,3,0,0,1,1.067-.735A3.657,3.657,0,0,1,187.943,58.827Zm0,6.328a1.822,1.822,0,0,0,1.569-.7,4.008,4.008,0,0,0,0-3.938,1.819,1.819,0,0,0-1.569-.707,2.178,2.178,0,0,0-.923.182,1.746,1.746,0,0,0-.655.525,2.328,2.328,0,0,0-.391.844,4.963,4.963,0,0,0,0,2.257,2.285,2.285,0,0,0,.391.837,1.746,1.746,0,0,0,.655.521A2.162,2.162,0,0,0,187.943,65.155Z"/>
      <path class="cls-5" d="M192.857,66.03V58.939h.742a.318.318,0,0,1,.336.259l.1.77a3.982,3.982,0,0,1,1.032-.826,2.687,2.687,0,0,1,1.32-.315,2.564,2.564,0,0,1,1.025.193,1.969,1.969,0,0,1,.742.546,2.4,2.4,0,0,1,.452.851,3.684,3.684,0,0,1,.154,1.1V66.03h-1.246V61.515a1.908,1.908,0,0,0-.367-1.249,1.374,1.374,0,0,0-1.124-.445,2.1,2.1,0,0,0-1.033.266,3.435,3.435,0,0,0-.885.721V66.03Z"/>
    </g>
    <g>
      <path class="cls-6" d="M98.265,137.992H96.907V127.961h1.358Z"/>
      <path class="cls-6" d="M100.757,137.992V130.9h.742a.318.318,0,0,1,.336.259l.1.77a3.961,3.961,0,0,1,1.032-.826,2.69,2.69,0,0,1,1.32-.315,2.572,2.572,0,0,1,1.026.192,1.992,1.992,0,0,1,.741.546,2.422,2.422,0,0,1,.452.851,3.718,3.718,0,0,1,.154,1.1v4.515h-1.246v-4.515a1.9,1.9,0,0,0-.368-1.25,1.374,1.374,0,0,0-1.123-.444,2.1,2.1,0,0,0-1.033.266,3.378,3.378,0,0,0-.885.721v5.222Z"/>
      <path class="cls-6" d="M110.69,138.1a1.715,1.715,0,0,1-1.292-.469,1.876,1.876,0,0,1-.451-1.351v-4.34h-.854a.284.284,0,0,1-.189-.067.258.258,0,0,1-.077-.206v-.5l1.162-.147.287-2.191a.261.261,0,0,1,.091-.172.289.289,0,0,1,.2-.066h.63v2.443h2.03v.9h-2.03V136.2a.9.9,0,0,0,.217.665.76.76,0,0,0,.56.217.991.991,0,0,0,.34-.053,1.476,1.476,0,0,0,.248-.115c.07-.042.13-.081.178-.116a.237.237,0,0,1,.13-.052.215.215,0,0,1,.175.119l.364.594a2.3,2.3,0,0,1-.777.473A2.645,2.645,0,0,1,110.69,138.1Z"/>
      <path class="cls-6" d="M116.57,130.789a3.177,3.177,0,0,1,1.176.213,2.653,2.653,0,0,1,.931.616,2.821,2.821,0,0,1,.612.994,3.844,3.844,0,0,1,.221,1.347.814.814,0,0,1-.063.393.264.264,0,0,1-.239.1h-4.717a3.908,3.908,0,0,0,.182,1.169,2.385,2.385,0,0,0,.462.829,1.849,1.849,0,0,0,.7.5,2.4,2.4,0,0,0,.91.165,2.646,2.646,0,0,0,.808-.109,3.864,3.864,0,0,0,.585-.234,4.467,4.467,0,0,0,.409-.235.545.545,0,0,1,.284-.108.275.275,0,0,1,.238.118l.35.456a2.355,2.355,0,0,1-.553.486,3.458,3.458,0,0,1-.69.34,4.322,4.322,0,0,1-.759.2,4.688,4.688,0,0,1-.777.067,3.6,3.6,0,0,1-1.355-.249,2.96,2.96,0,0,1-1.071-.728,3.342,3.342,0,0,1-.7-1.186,4.825,4.825,0,0,1-.252-1.624,4.121,4.121,0,0,1,.227-1.386,3.264,3.264,0,0,1,.655-1.117,3.008,3.008,0,0,1,1.043-.742A3.414,3.414,0,0,1,116.57,130.789Zm.028.917a1.911,1.911,0,0,0-1.421.521,2.459,2.459,0,0,0-.644,1.446h3.857a2.536,2.536,0,0,0-.119-.8,1.784,1.784,0,0,0-.35-.623,1.57,1.57,0,0,0-.564-.406A1.892,1.892,0,0,0,116.6,131.706Z"/>
      <path class="cls-6" d="M121.1,137.992V130.9h.713a.394.394,0,0,1,.281.077.476.476,0,0,1,.1.266l.084,1.106a3.237,3.237,0,0,1,.9-1.159,2.126,2.126,0,0,1,1.789-.35,1.879,1.879,0,0,1,.441.186l-.161.931a.211.211,0,0,1-.217.175,1.075,1.075,0,0,1-.3-.067,1.906,1.906,0,0,0-.566-.066,1.6,1.6,0,0,0-1.089.378,2.842,2.842,0,0,0-.731,1.1v4.515Z"/>
      <path class="cls-6" d="M125.844,130.9h1.022a.38.38,0,0,1,.245.077.429.429,0,0,1,.14.182l1.8,4.564a3.343,3.343,0,0,1,.154.5c.038.168.072.334.1.5.038-.163.077-.329.119-.5a4.263,4.263,0,0,1,.161-.5l1.821-4.564a.412.412,0,0,1,.135-.186.374.374,0,0,1,.235-.073h.973l-2.891,7.091h-1.127Z"/>
      <path class="cls-6" d="M139.117,137.992h-.554a.667.667,0,0,1-.294-.056.312.312,0,0,1-.146-.238l-.141-.658c-.187.168-.368.318-.546.451a3.113,3.113,0,0,1-.56.336,2.929,2.929,0,0,1-.626.207,3.645,3.645,0,0,1-.739.07,2.518,2.518,0,0,1-.773-.116,1.762,1.762,0,0,1-.627-.348,1.644,1.644,0,0,1-.423-.586,2.061,2.061,0,0,1-.158-.84,1.571,1.571,0,0,1,.231-.811,2.052,2.052,0,0,1,.745-.692,4.873,4.873,0,0,1,1.348-.5,9.153,9.153,0,0,1,2.037-.194v-.556a1.932,1.932,0,0,0-.353-1.257,1.281,1.281,0,0,0-1.046-.426,2.217,2.217,0,0,0-.767.115,2.913,2.913,0,0,0-.539.259c-.152.1-.282.182-.393.259a.562.562,0,0,1-.325.116.368.368,0,0,1-.22-.067.5.5,0,0,1-.151-.164l-.223-.4a4.03,4.03,0,0,1,1.266-.847,3.906,3.906,0,0,1,1.505-.28,2.687,2.687,0,0,1,1.058.2,2.168,2.168,0,0,1,.776.546,2.316,2.316,0,0,1,.477.847,3.534,3.534,0,0,1,.161,1.092Zm-3.235-.763a2.511,2.511,0,0,0,.6-.067,2.346,2.346,0,0,0,.515-.189,2.677,2.677,0,0,0,.461-.3,3.98,3.98,0,0,0,.431-.4v-1.464a8.329,8.329,0,0,0-1.463.11,4.132,4.132,0,0,0-.98.285,1.356,1.356,0,0,0-.549.416.9.9,0,0,0-.172.535,1.187,1.187,0,0,0,.091.486.918.918,0,0,0,.245.334.989.989,0,0,0,.364.19A1.652,1.652,0,0,0,135.882,137.229Z"/>
      <path class="cls-6" d="M142.392,127.681v10.311h-1.246V127.681Z"/>
      <path class="cls-6" d="M152.282,137.992a.319.319,0,0,1-.336-.259l-.111-.861a3.737,3.737,0,0,1-1.04.885,2.66,2.66,0,0,1-1.341.333,2.548,2.548,0,0,1-1.105-.235,2.284,2.284,0,0,1-.847-.689,3.3,3.3,0,0,1-.539-1.134,5.838,5.838,0,0,1-.19-1.561,4.925,4.925,0,0,1,.21-1.46,3.549,3.549,0,0,1,.606-1.172,2.775,2.775,0,0,1,2.251-1.064,2.561,2.561,0,0,1,1.112.22,2.651,2.651,0,0,1,.826.62v-3.934h1.246v10.311Zm-2.415-.91a2.016,2.016,0,0,0,1.068-.28,3.09,3.09,0,0,0,.843-.791v-3.43a1.961,1.961,0,0,0-.752-.648,2.182,2.182,0,0,0-.907-.185,1.791,1.791,0,0,0-1.525.707,3.3,3.3,0,0,0-.532,2.016,5.14,5.14,0,0,0,.119,1.186,2.292,2.292,0,0,0,.349.812,1.374,1.374,0,0,0,.568.466A1.9,1.9,0,0,0,149.867,137.082Z"/>
      <path class="cls-6" d="M156.2,130.9v4.522a1.88,1.88,0,0,0,.371,1.245,1.382,1.382,0,0,0,1.121.442,2.153,2.153,0,0,0,1.029-.259,3.193,3.193,0,0,0,.888-.721V130.9h1.247v7.091h-.743a.319.319,0,0,1-.336-.259l-.1-.763a3.909,3.909,0,0,1-1.036.822,2.715,2.715,0,0,1-1.317.312,2.553,2.553,0,0,1-1.025-.193,2.027,2.027,0,0,1-.745-.542,2.283,2.283,0,0,1-.451-.848,3.751,3.751,0,0,1-.152-1.1V130.9Z"/>
      <path class="cls-6" d="M162.9,137.992V130.9h.714a.391.391,0,0,1,.28.077.476.476,0,0,1,.105.266l.084,1.106a3.237,3.237,0,0,1,.9-1.159,2.124,2.124,0,0,1,1.788-.35,1.851,1.851,0,0,1,.442.186l-.161.931a.211.211,0,0,1-.217.175,1.07,1.07,0,0,1-.3-.067,1.914,1.914,0,0,0-.567-.066,1.6,1.6,0,0,0-1.089.378,2.854,2.854,0,0,0-.732,1.1v4.515Z"/>
      <path class="cls-6" d="M173.486,137.992h-.553a.667.667,0,0,1-.294-.056.312.312,0,0,1-.147-.238l-.14-.658q-.281.252-.546.451a3.148,3.148,0,0,1-.56.336,2.919,2.919,0,0,1-.627.207,3.642,3.642,0,0,1-.738.07,2.524,2.524,0,0,1-.774-.116,1.762,1.762,0,0,1-.627-.348,1.653,1.653,0,0,1-.422-.586,2.044,2.044,0,0,1-.159-.84,1.573,1.573,0,0,1,.232-.811,2.036,2.036,0,0,1,.745-.692,4.873,4.873,0,0,1,1.348-.5,9.147,9.147,0,0,1,2.037-.194v-.556a1.926,1.926,0,0,0-.354-1.257,1.28,1.28,0,0,0-1.046-.426,2.215,2.215,0,0,0-.766.115,2.913,2.913,0,0,0-.539.259c-.153.1-.283.182-.393.259a.564.564,0,0,1-.325.116.373.373,0,0,1-.221-.067.511.511,0,0,1-.15-.164l-.224-.4a4.045,4.045,0,0,1,1.267-.847,3.906,3.906,0,0,1,1.5-.28,2.682,2.682,0,0,1,1.057.2,2.164,2.164,0,0,1,.777.546,2.3,2.3,0,0,1,.476.847,3.5,3.5,0,0,1,.161,1.092Zm-3.234-.763a2.511,2.511,0,0,0,.6-.067,2.338,2.338,0,0,0,.514-.189,2.684,2.684,0,0,0,.462-.3,3.98,3.98,0,0,0,.431-.4v-1.464a8.321,8.321,0,0,0-1.463.11,4.128,4.128,0,0,0-.981.285,1.352,1.352,0,0,0-.548.416.89.89,0,0,0-.172.535,1.187,1.187,0,0,0,.091.486.918.918,0,0,0,.245.334.973.973,0,0,0,.364.19A1.652,1.652,0,0,0,170.252,137.229Z"/>
      <path class="cls-6" d="M177.524,138.1a1.712,1.712,0,0,1-1.291-.469,1.872,1.872,0,0,1-.452-1.351v-4.34h-.853a.284.284,0,0,1-.19-.067.262.262,0,0,1-.077-.206v-.5l1.162-.147.287-2.191a.27.27,0,0,1,.091-.172.292.292,0,0,1,.2-.066h.63v2.443h2.031v.9h-2.031V136.2a.908.908,0,0,0,.217.665.763.763,0,0,0,.561.217.985.985,0,0,0,.339-.053,1.526,1.526,0,0,0,.249-.115c.07-.042.129-.081.178-.116a.232.232,0,0,1,.129-.052.217.217,0,0,1,.176.119l.363.594a2.3,2.3,0,0,1-.776.473A2.65,2.65,0,0,1,177.524,138.1Z"/>
      <path class="cls-6" d="M182.264,128.675a.793.793,0,0,1-.075.339.972.972,0,0,1-.195.28.922.922,0,0,1-.284.193.862.862,0,0,1-.343.07.844.844,0,0,1-.34-.07.924.924,0,0,1-.279-.193.908.908,0,0,1-.192-.28.821.821,0,0,1-.071-.339.872.872,0,0,1,.071-.347.893.893,0,0,1,.192-.287.921.921,0,0,1,.279-.192.828.828,0,0,1,.34-.07.845.845,0,0,1,.343.07.919.919,0,0,1,.284.192.953.953,0,0,1,.195.287A.843.843,0,0,1,182.264,128.675Zm-.281,2.226v7.091h-1.246V130.9Z"/>
      <path class="cls-6" d="M187.051,130.789a3.64,3.64,0,0,1,1.4.259,2.951,2.951,0,0,1,1.064.735,3.24,3.24,0,0,1,.671,1.151,4.972,4.972,0,0,1,0,3.021,3.244,3.244,0,0,1-.671,1.148,2.93,2.93,0,0,1-1.064.731,3.978,3.978,0,0,1-2.808,0,2.95,2.95,0,0,1-1.067-.731,3.275,3.275,0,0,1-.679-1.148,4.912,4.912,0,0,1,0-3.021,3.27,3.27,0,0,1,.679-1.151,2.972,2.972,0,0,1,1.067-.735A3.64,3.64,0,0,1,187.051,130.789Zm0,6.328a1.821,1.821,0,0,0,1.568-.7,4,4,0,0,0,0-3.937,1.816,1.816,0,0,0-1.568-.707,2.182,2.182,0,0,0-.924.182,1.717,1.717,0,0,0-.654.525,2.332,2.332,0,0,0-.392.843,4.5,4.5,0,0,0-.13,1.131,4.446,4.446,0,0,0,.13,1.127,2.289,2.289,0,0,0,.392.836,1.737,1.737,0,0,0,.654.522A2.182,2.182,0,0,0,187.051,137.117Z"/>
      <path class="cls-6" d="M191.966,137.992V130.9h.741a.316.316,0,0,1,.336.259l.1.77a3.928,3.928,0,0,1,1.032-.826,2.683,2.683,0,0,1,1.319-.315,2.565,2.565,0,0,1,1.026.192,2,2,0,0,1,.742.546,2.421,2.421,0,0,1,.451.851,3.686,3.686,0,0,1,.154,1.1v4.515H196.62v-4.515a1.909,1.909,0,0,0-.367-1.25,1.374,1.374,0,0,0-1.124-.444,2.1,2.1,0,0,0-1.032.266,3.382,3.382,0,0,0-.886.721v5.222Z"/>
    </g>
    <polygon class="cls-7" points="168.5 148.785 161.488 142.772 161.488 146.785 134.012 146.785 134.012 142.772 127 148.785 134.012 154.797 134.012 150.785 161.488 150.785 161.488 154.797 168.5 148.785"/>
    <polygon class="cls-8" points="210 76.546 202.988 70.534 202.988 74.546 92.512 74.546 92.512 70.534 85.5 76.546 92.512 82.558 92.512 78.546 202.988 78.546 202.988 82.558 210 76.546"/>
    <polygon class="cls-9" points="85.5 76.546 78.488 70.534 78.488 74.546 8.161 74.546 8.161 70.534 1.149 76.546 8.161 82.558 8.161 78.546 78.488 78.546 78.488 82.558 85.5 76.546"/>
  </g>
</svg>
