<svg id="Layer_1" data-name="Layer 1" xmlns="http://www.w3.org/2000/svg" viewBox="0 0 443.071 411.717">
  <defs>
    <style>
      .cls-1 {
        fill: #85d7e1;
      }

      .cls-2 {
        fill: #d0d4d9;
      }

      .cls-3 {
        fill: #9ecaf2;
      }

      .cls-3, .cls-5 {
        fill-rule: evenodd;
      }

      .cls-4 {
        fill: #1b72c2;
      }

      .cls-5 {
        fill: #eff1f2;
      }

      .cls-6 {
        fill: #abb1bc;
      }

      .cls-7 {
        fill: #0694ae;
      }

      .cls-8 {
        fill: #fff;
      }
    </style>
  </defs>
  <title>img_step2_create chain</title>
  <g>
    <path class="cls-1" d="M221.536,167.1h-.055a1,1,0,1,0,0,2h.054a1,1,0,0,0,0-2Zm-7.966.318c-.026,0-.051,0-.077,0l-.063,0a1,1,0,0,0,.083,2,.732.732,0,0,0,.081,0l.054,0a1,1,0,0,0-.078-2Zm-7.914.959a1.064,1.064,0,0,0-.159.012l-.021,0-.037.006a1,1,0,0,0,.16,1.987.983.983,0,0,0,.162-.013l.054-.009a1,1,0,0,0-.159-1.987Zm-7.809,1.6a1,1,0,0,0-.241.03H197.6l-.009,0-.018,0-.021,0a1,1,0,1,0,.482,1.941l.052-.013a1,1,0,0,0-.239-1.971Zm-7.654,2.232a.985.985,0,0,0-.318.052l-.042.014-.011,0a1,1,0,0,0,.319,1.948.984.984,0,0,0,.319-.053l.052-.017a1,1,0,0,0-.319-1.948Zm-7.445,2.849a1,1,0,0,0-.395.081l-.007,0-.049.021a1,1,0,0,0,.8,1.835l.05-.021a1,1,0,0,0-.4-1.919Zm-7.188,3.447a.994.994,0,0,0-.467.116l-.036.019-.014.007a1,1,0,1,0,.939,1.766l.048-.025a1,1,0,0,0-.47-1.883Zm-6.884,4.02a1,1,0,0,0-.537.157l-.051.032a1,1,0,0,0,1.083,1.682l.045-.029a1,1,0,0,0-.54-1.842Zm-6.535,4.565a.994.994,0,0,0-.6.2l-.027.021-.02.015a1,1,0,0,0,1.215,1.589l.043-.033a1,1,0,0,0-.606-1.8ZM156,192.169a1,1,0,0,0-.668.255l-.041.037a1,1,0,0,0,1.336,1.489l.04-.036a1,1,0,0,0-.667-1.745Zm-5.716,5.557a1,1,0,0,0-.723.309l-.034.036-.007.007a1,1,0,0,0,1.452,1.376l.037-.04a1,1,0,0,0-.725-1.688Zm-5.249,6a1,1,0,0,0-.779.372l-.006.007-.033.041a1,1,0,0,0,1.562,1.25l.034-.042a1,1,0,0,0-.152-1.407.992.992,0,0,0-.626-.221Zm-4.748,6.4a1,1,0,0,0-.826.435l-.034.051a1,1,0,0,0,1.655,1.121l.031-.044a1,1,0,0,0-.826-1.563Zm-4.214,6.766a1,1,0,0,0-.87.507l-.028.048a1,1,0,1,0,1.74.986l.027-.047a1,1,0,0,0-.869-1.494Zm-3.651,7.087a1,1,0,0,0-.907.579l-.025.054a1,1,0,0,0,1.816.838l.023-.049a1,1,0,0,0-.907-1.422Zm-3.061,7.36a1,1,0,0,0-.937.653l0,.008-.016.045a1,1,0,1,0,1.877.691l.019-.051a1,1,0,0,0-.939-1.346Zm-2.45,7.586a1,1,0,0,0-.962.732l-.007.023,0,.019,0,.011a1,1,0,0,0,.7,1.231.99.99,0,0,0,.268.037,1,1,0,0,0,.963-.733l.014-.052a1,1,0,0,0-.964-1.268Zm-1.821,7.76a1,1,0,0,0-.981.81l-.006.034h0l-.005.024a1,1,0,0,0,1.965.373l.01-.053a1,1,0,0,0-.794-1.171,1.016,1.016,0,0,0-.189-.018Zm-1.183,7.883a1,1,0,0,0-.993.889v.007l-.006.051a1,1,0,0,0,.886,1.1,1,1,0,0,0,1.1-.886l.006-.054a1,1,0,0,0-.995-1.108Zm-.542,7.955a1,1,0,0,0-1,.968v.064a1,1,0,0,0,.972,1.022h.028a1,1,0,0,0,1-.972l0-.054a1,1,0,0,0-.972-1.028Zm.1,7.974h-.052a1,1,0,0,0-.947,1.05l0,.058a1,1,0,0,0,1,.945h.053a1,1,0,0,0,.946-1.051l0-.054a1,1,0,0,0-1-.948Zm.736,7.939a1,1,0,0,0-.993,1.128l.005.04v.006l0,.016a1,1,0,0,0,1.982-.269l-.007-.054a1,1,0,0,0-.99-.867Zm1.375,7.851a1.046,1.046,0,0,0-.214.023,1,1,0,0,0-.764,1.19l.012.054a1,1,0,0,0,.976.787,1.053,1.053,0,0,0,.214-.023,1,1,0,0,0,.764-1.191l-.012-.052a1,1,0,0,0-.976-.788ZM127.58,294a1,1,0,0,0-.958,1.289l.016.053v0a1,1,0,0,0,.956.708,1.019,1.019,0,0,0,.292-.044,1,1,0,0,0,.665-1.249l-.016-.052a1,1,0,0,0-.956-.708Zm2.634,7.523a1,1,0,0,0-.93,1.366l0,.013,0,.007.014.036a1,1,0,0,0,.929.629.979.979,0,0,0,.369-.071,1,1,0,0,0,.56-1.3l-.02-.05a1,1,0,0,0-.93-.632Zm3.24,7.283a1,1,0,0,0-.9,1.443l.024.05a1,1,0,0,0,1.792-.888l-.024-.049a1,1,0,0,0-.9-.556Zm3.823,7a1,1,0,0,0-.859,1.511l.015.025.016.026a1,1,0,1,0,1.714-1.03l-.028-.047a1,1,0,0,0-.858-.485Zm4.378,6.662a1,1,0,0,0-.812,1.583l0,0,.022.031.007.009a1,1,0,1,0,1.625-1.166l-.032-.043a1,1,0,0,0-.813-.418Zm4.9,6.287a1,1,0,0,0-.763,1.646l.007.008.006.008.023.026a1,1,0,1,0,1.525-1.293l-.035-.041a1,1,0,0,0-.763-.354Zm5.394,5.871a1,1,0,0,0-.711,1.7l.042.043a1,1,0,0,0,1.415-1.413l-.038-.038a1,1,0,0,0-.708-.294Zm5.85,5.416a1,1,0,0,0-.653,1.758l.046.04a1,1,0,0,0,1.3-1.523l-.041-.035a.994.994,0,0,0-.648-.24Zm6.267,4.928a1,1,0,0,0-.586,1.81l.01.008.032.022,0,0a1,1,0,0,0,1.171-1.621l-.044-.032a1,1,0,0,0-.585-.189Zm6.645,4.4a1,1,0,0,0-.522,1.853l.019.012.031.018a1,1,0,1,0,1.035-1.711l-.046-.028a.994.994,0,0,0-.517-.144Zm6.98,3.85a1,1,0,0,0-.449,1.894l.04.02.01,0a1,1,0,0,0,.893-1.789l-.048-.024a.991.991,0,0,0-.446-.106Zm7.269,3.269a1,1,0,0,0-.373,1.929l.023.009h0l.025.01a1,1,0,0,0,.744-1.856l-.05-.02a1,1,0,0,0-.372-.073Zm7.512,2.665a1,1,0,0,0-.295,1.956l.052.016a.985.985,0,0,0,.3.045,1,1,0,0,0,.294-1.956l-.051-.016a1.018,1.018,0,0,0-.3-.045Zm7.705,2.043a1,1,0,0,0-.22,1.975l.024.006.019,0,.02,0a.962.962,0,0,0,.212.023,1,1,0,0,0,.215-1.977l-.053-.011a.95.95,0,0,0-.217-.024Zm7.845,1.406a1,1,0,0,0-.135,1.991l.024,0h.005l.025,0a1.066,1.066,0,0,0,.138.009,1,1,0,0,0,.134-1.991l-.054-.007a.912.912,0,0,0-.137-.01Zm7.936.766a1,1,0,0,0-.059,2l.048,0h.067a1,1,0,0,0,.054-2l-.054,0-.056,0Zm8.029.126h-.079a1,1,0,0,0,.023,2h.08a1,1,0,0,0-.024-2Zm7.957-.515c-.035,0-.07,0-.1,0l-.054.006a1,1,0,0,0,.1,1.995.868.868,0,0,0,.1-.006l.026,0,.033,0a1,1,0,0,0-.1-1.994Zm7.888-1.156a.975.975,0,0,0-.186.017l-.053.01a1,1,0,0,0,.183,1.983.932.932,0,0,0,.181-.017l.06-.011a1,1,0,0,0-.185-1.982Zm7.765-1.8a1.007,1.007,0,0,0-.265.036l-.052.014a1,1,0,1,0,.528,1.929l.053-.014a1,1,0,0,0-.264-1.965Zm7.594-2.423a1,1,0,0,0-.343.061l-.05.018a1,1,0,0,0,.342,1.94.98.98,0,0,0,.342-.061l.021-.007.036-.013a1,1,0,0,0-.348-1.938Zm7.37-3.035a.99.99,0,0,0-.418.092l-.049.022a1,1,0,0,0,.418,1.909.983.983,0,0,0,.417-.092h0l.047-.022a1,1,0,0,0-.419-1.908Zm7.1-3.626a1,1,0,0,0-.489.128l-.047.027a1,1,0,1,0,.98,1.743l0,0,.048-.026a1,1,0,0,0-.5-1.869Zm6.782-4.191a.992.992,0,0,0-.559.171l-.045.03a1,1,0,1,0,1.118,1.659l.032-.022.014-.01a1,1,0,0,0-.56-1.828Zm6.42-4.726a.992.992,0,0,0-.624.219l-.043.034a1,1,0,0,0,1.246,1.564l.039-.031.007-.006a1,1,0,0,0-.625-1.78Zm6.018-5.229a1,1,0,0,0-.686.272l-.039.037a1,1,0,0,0,1.368,1.458l.046-.043a1,1,0,0,0-.689-1.724Zm5.577-5.7a1,1,0,0,0-.743.33l-.036.04a1,1,0,1,0,1.484,1.341l0-.006.028-.031,0,0a1,1,0,0,0-.742-1.67Zm5.1-6.128a1,1,0,0,0-.794.392l-.033.042a1,1,0,1,0,1.587,1.217l.031-.04,0,0a1,1,0,0,0-.794-1.607Zm4.588-6.52a1,1,0,0,0-.842.458l-.029.045a1,1,0,1,0,1.68,1.085l.024-.037.008-.013a1,1,0,0,0-.841-1.538Zm4.043-6.87a1,1,0,0,0-.883.528l-.025.047a1,1,0,0,0,1.761.947l.03-.055a1,1,0,0,0-.883-1.467Zm3.471-7.176a1,1,0,0,0-.918.6l-.021.05a1,1,0,0,0,1.832.8l.024-.055a1,1,0,0,0-.519-1.315.984.984,0,0,0-.4-.083Zm2.874-7.435a1,1,0,0,0-.947.678l-.017.051a1,1,0,0,0,.624,1.27,1.012,1.012,0,0,0,.323.053,1,1,0,0,0,.945-.676l0-.013.009-.027,0-.014a1,1,0,0,0-.625-1.268.976.976,0,0,0-.322-.054Zm2.257-7.645a1,1,0,0,0-.969.756l-.013.053a1,1,0,0,0,.725,1.214,1.033,1.033,0,0,0,.245.03,1,1,0,0,0,.969-.756l.007-.029.007-.029a1,1,0,0,0-.726-1.209,1.033,1.033,0,0,0-.245-.03Zm1.625-7.8a1,1,0,0,0-.986.836l-.008.053a1,1,0,0,0,.822,1.151,1.043,1.043,0,0,0,.166.014,1,1,0,0,0,.984-.836l0-.009.008-.047a1,1,0,0,0-.823-1.148.919.919,0,0,0-.165-.014Zm.986-7.91a1,1,0,0,0-1,.916l0,.054a1,1,0,0,0,.912,1.08.825.825,0,0,0,.086,0,1,1,0,0,0,.994-.911l.006-.064a1,1,0,0,0-.914-1.076q-.042,0-.084,0Zm.346-7.966a1,1,0,0,0-1,1v.054a1,1,0,0,0,1,1h0a1,1,0,0,0,1-1v-.055a1,1,0,0,0-1-1Zm-.29-7.97q-.039,0-.078,0a1,1,0,0,0-.921,1.074l0,.054a1,1,0,0,0,1,.924l.077,0a1,1,0,0,0,.921-1.07l-.005-.063a1,1,0,0,0-.995-.919Zm-.932-7.918a1.087,1.087,0,0,0-.159.013,1,1,0,0,0-.83,1.145l.008.053a1,1,0,0,0,.987.844,1.063,1.063,0,0,0,.158-.013,1,1,0,0,0,.83-1.144v-.012l-.006-.034v-.008a1,1,0,0,0-.986-.844Zm-1.573-7.814a.981.981,0,0,0-.238.029,1,1,0,0,0-.734,1.208l.013.053a1,1,0,0,0,.971.763,1.022,1.022,0,0,0,.237-.028,1,1,0,0,0,.736-1.2l0-.013-.01-.044a1,1,0,0,0-.971-.763Zm-2.2-7.66a1.024,1.024,0,0,0-.316.051,1,1,0,0,0-.633,1.265l.017.051a1,1,0,0,0,1.9-.627L315.7,235l-.008-.023a1,1,0,0,0-.948-.685Zm-2.824-7.454a.989.989,0,0,0-.392.08,1,1,0,0,0-.528,1.312l.021.05a1,1,0,1,0,1.84-.784l-.012-.028-.011-.027a1,1,0,0,0-.918-.6Zm-3.423-7.2a1,1,0,0,0-.884,1.466l.025.047a1,1,0,1,0,1.77-.93l0-.01-.008-.015-.012-.024a1,1,0,0,0-.886-.534Zm-4-6.9a1,1,0,0,0-.843,1.536l.029.046a1,1,0,1,0,1.689-1.071l0-.008-.027-.042a1,1,0,0,0-.843-.461Zm-4.542-6.551a1,1,0,0,0-.8,1.6l.033.043a1,1,0,0,0,1.6-1.2l-.007-.008-.021-.028-.006-.008a1,1,0,0,0-.8-.4Zm-5.057-6.163a1,1,0,0,0-.747,1.666l.036.04a1,1,0,0,0,1.5-1.327l-.027-.029-.012-.014a1,1,0,0,0-.747-.336Zm-5.538-5.734a1,1,0,0,0-.69,1.723l.039.037a1,1,0,0,0,1.384-1.443l-.035-.034-.007-.006a.988.988,0,0,0-.691-.277Zm-5.981-5.27a1,1,0,0,0-.631,1.776l.042.034a1,1,0,1,0,1.262-1.551l-.007-.006-.02-.016-.021-.017a.994.994,0,0,0-.625-.22ZM277,184.25a1,1,0,0,0-.566,1.825l.044.03a1,1,0,0,0,1.134-1.647l-.044-.031,0,0a1,1,0,0,0-.565-.175Zm-6.752-4.237a1,1,0,0,0-.5,1.868l.047.027a1,1,0,0,0,1-1.734l-.053-.03a.994.994,0,0,0-.494-.131Zm-7.075-3.675a1,1,0,0,0-.425,1.906l.049.023a1,1,0,0,0,.853-1.809l-.056-.027a1,1,0,0,0-.421-.093Zm-7.35-3.086a1,1,0,0,0-.349,1.938l.051.019a1,1,0,0,0,.7-1.872l-.033-.013-.022-.008a1,1,0,0,0-.35-.064Zm-7.577-2.475a1,1,0,0,0-.271,1.963l.052.015a1.026,1.026,0,0,0,.272.038,1,1,0,0,0,.276-1.961l-.026-.008-.007,0-.028-.008a1,1,0,0,0-.268-.037Zm-7.755-1.847a1,1,0,0,0-.191,1.981l.053.011a1.061,1.061,0,0,0,.193.019,1,1,0,0,0,.193-1.982l-.055-.01a.986.986,0,0,0-.193-.019Zm-7.879-1.21a1,1,0,0,0-.11,1.994l.054.006a1.069,1.069,0,0,0,.113.006,1,1,0,0,0,.114-1.993l-.062-.007a1,1,0,0,0-.109-.006Zm-7.952-.569a1,1,0,0,0-.03,2l.054,0h.032a1,1,0,0,0,.037-2l-.062,0Z"/>
    <path class="cls-2" d="M123.136.016a1,1,0,0,0-.822.969v.063a1,1,0,0,0,.989,1.006.978.978,0,0,0,.189-.015,1,1,0,0,0,.822-.973V1.012A1,1,0,0,0,123.325,0a.984.984,0,0,0-.189.016Zm.231,7.968a1,1,0,0,0-.819,1.05v.01l0,.048a1,1,0,0,0,1.067.928.937.937,0,0,0,.108-.014,1,1,0,0,0,.82-1.054l0-.054a1,1,0,0,0-1.068-.928.966.966,0,0,0-.108.014Zm.875,7.925a1,1,0,0,0-.811,1.129l0,.018,0,.023,0,.023a1,1,0,0,0,1.138.834l.028,0a1,1,0,0,0,.811-1.134l-.008-.054a1,1,0,0,0-1.139-.839l-.028.005Zm1.508,7.831-.052.01a1,1,0,0,0-.746,1.2l.013.055a1,1,0,0,0,1.149.755l.053-.011a1,1,0,0,0,.745-1.2L126.9,24.5a1,1,0,0,0-1.15-.756Zm2.129,7.683a1,1,0,0,0-.777,1.288l.009.03,0,.015,0,.013a1,1,0,0,0,1.127.675,1.032,1.032,0,0,0,.13-.033,1,1,0,0,0,.646-1.258l-.016-.051a1,1,0,0,0-1.128-.679Zm2.743,7.484a.984.984,0,0,0-.206.06,1,1,0,0,0-.542,1.307l.006.013.017.042a1,1,0,0,0,1.1.6.975.975,0,0,0,.207-.06,1,1,0,0,0,.541-1.307l-.021-.05a1,1,0,0,0-1.1-.6Zm3.344,7.235a.97.97,0,0,0-.279.095,1,1,0,0,0-.433,1.346l0,0,.018.036,0,.009a1,1,0,0,0,1.066.528,1.053,1.053,0,0,0,.28-.095,1,1,0,0,0,.433-1.347l-.025-.048a1,1,0,0,0-1.067-.528Zm3.925,6.938a1,1,0,0,0-.672,1.511l.025.04,0,.008a1,1,0,0,0,1.7-1.056l-.029-.046a1,1,0,0,0-1.027-.457Zm4.478,6.594a1,1,0,0,0-.628,1.576l.036.048a1,1,0,0,0,.98.388.989.989,0,0,0,.418-.181,1,1,0,0,0,.208-1.4l-.032-.043a1,1,0,0,0-.982-.389Zm5,6.208a1,1,0,0,0-.575,1.642l.04.045a1,1,0,0,0,1.5-1.321l-.035-.04a1,1,0,0,0-.931-.326Zm5.488,5.782a1,1,0,0,0-.522,1.7l.017.017.022.021,0,0a1,1,0,0,0,1.393-1.436l-.039-.037a1,1,0,0,0-.875-.267Zm5.939,5.319a1,1,0,0,0-.461,1.754l.046.038a1,1,0,0,0,1.27-1.544l-.041-.035a1,1,0,0,0-.814-.213Zm6.348,4.823a1,1,0,0,0-.4,1.8l.051.036A1,1,0,0,0,165.939,82l-.045-.031a1,1,0,0,0-.749-.164Zm6.716,4.3a1,1,0,0,0-.331,1.846l.026.015.01.006.016.009a1,1,0,0,0,1.007-1.728l-.047-.027a.994.994,0,0,0-.681-.121Zm7.041,3.74a1,1,0,0,0-.26,1.884l.013.006.04.019a1,1,0,0,0,.865-1.8l-.049-.023a.991.991,0,0,0-.609-.083ZM186.222,93a1,1,0,0,0-.183,1.918l.041.015.014.006a1,1,0,0,0,.713-1.869l-.051-.019a.993.993,0,0,0-.534-.051Zm7.551,2.554a1,1,0,0,0-.11,1.942l.061.018a.976.976,0,0,0,.454.024,1,1,0,0,0,.1-1.944l-.052-.015a.993.993,0,0,0-.458-.025Zm7.733,1.931a1,1,0,0,0-.025,1.963l.019,0,.037.008a1.013,1.013,0,0,0,.376.005,1,1,0,0,0,.025-1.964l-.053-.011a.988.988,0,0,0-.379,0Zm7.865,1.293a1,1,0,0,0,.056,1.977h.015l.033,0h.008a1.014,1.014,0,0,0,.3-.009,1,1,0,0,0-.056-1.977l-.054-.006a.964.964,0,0,0-.3.008Zm7.945.646a1,1,0,0,0,.138,1.983l.054,0a.979.979,0,0,0,.218-.015,1,1,0,0,0-.138-1.983l-.054,0a.983.983,0,0,0-.218.015Zm7.97-.005a1,1,0,0,0,.22,1.984h.055a1.01,1.01,0,0,0,.136-.015,1,1,0,0,0-.22-1.983l-.054,0a1.025,1.025,0,0,0-.137.015Zm7.946-.651a1,1,0,0,0,.3,1.977l.05-.006h.008l.056-.008a1,1,0,0,0-.3-1.977l-.054.007-.056.008Zm7.924-1.3-.024,0-.053.011a1,1,0,0,0,.377,1.964l.02,0,.026,0,.032-.007a1,1,0,0,0-.378-1.964Zm7.741-1.915a1.017,1.017,0,0,0-.1.024l-.052.015a1,1,0,0,0,.455,1.945c.033-.006.066-.014.1-.023l.024-.007.018,0,.02-.006a1,1,0,0,0-.461-1.943Zm7.558-2.535a1.1,1.1,0,0,0-.18.05l-.05.02a1,1,0,0,0,.531,1.919,1.012,1.012,0,0,0,.177-.049l.012,0,.043-.017a1,1,0,0,0-.533-1.919Zm7.325-3.14a.954.954,0,0,0-.254.082l-.049.023a1,1,0,0,0,.607,1.887.958.958,0,0,0,.25-.08l.027-.012.027-.014a1,1,0,0,0-.608-1.886Zm7.045-3.73a1.008,1.008,0,0,0-.326.121l-.047.027a1,1,0,0,0,.68,1.849.99.99,0,0,0,.327-.121l.027-.016L271.51,88a1,1,0,0,0-.685-1.846Zm6.716-4.292a.991.991,0,0,0-.394.165l-.044.03a1,1,0,1,0,1.143,1.641l.046-.031a1,1,0,0,0-.751-1.8Zm6.345-4.825a.991.991,0,0,0-.459.213l-.042.035a1,1,0,0,0,1.274,1.542l.006,0,.022-.018,0,0,0,0,.008-.007a1,1,0,0,0-.815-1.755Zm5.932-5.325a1,1,0,0,0-.519.267l-.039.038a1,1,0,1,0,1.394,1.434l.024-.024.016-.015a1,1,0,0,0-.876-1.7ZM295.3,65.92a.99.99,0,0,0-.575.326l-.036.041a1,1,0,0,0,1.5,1.319l.032-.036.007-.009a1,1,0,0,0-.931-1.641Zm5-6.212a1,1,0,0,0-.627.389l-.032.043a1,1,0,0,0,1.605,1.193l.037-.049a1,1,0,0,0-.983-1.576Zm4.48-6.595a1,1,0,0,0-.673.456l-.028.046a1,1,0,1,0,1.7,1.057l.01-.016.014-.023,0-.008a1,1,0,0,0-1.026-1.512Zm3.934-6.934a1,1,0,0,0-.713.526l-.025.048a1,1,0,0,0,1.776.921l.013-.027.014-.026a1,1,0,0,0-.431-1.347.989.989,0,0,0-.634-.095Zm3.36-7.23a1,1,0,0,0-.747.6l-.021.05a1,1,0,0,0,1.844.775l.016-.037,0-.011,0-.009a1,1,0,0,0-1.1-1.368Zm2.764-7.477a1,1,0,0,0-.775.676l-.017.052a1,1,0,1,0,1.9.617l0-.005.015-.048a1,1,0,0,0-1.127-1.292Zm2.146-7.677a1,1,0,0,0-.8.755l-.012.052a1,1,0,1,0,1.946.461l.006-.028.008-.03a1,1,0,0,0-1.151-1.21Zm1.512-7.826a1,1,0,0,0-.812.835l-.008.053a1,1,0,1,0,1.978.3l.006-.042,0-.016a1,1,0,0,0-1.166-1.13Zm.868-7.924a1,1,0,0,0-.82.916l0,.054a1,1,0,0,0,.929,1.066,1.011,1.011,0,0,0,.247-.013,1,1,0,0,0,.819-.911l0-.03,0-.029a1,1,0,0,0-1.175-1.053ZM319.58.078a1,1,0,0,0-.822,1v.054a1,1,0,0,0,2-.022V1.044a1,1,0,0,0-1.013-.982.982.982,0,0,0-.165.016Z"/>
    <g>
      <path class="cls-3" d="M221.536,56.467a45,45,0,1,1-45,45A45,45,0,0,1,221.536,56.467Z"/>
      <g>
        <path class="cls-4" d="M216.564,93.95c.078.183.153.369.229.555.074-.192.152-.38.232-.568s.165-.365.256-.536l3.424-6.407a.922.922,0,0,1,.131-.193.384.384,0,0,1,.153-.1.626.626,0,0,1,.187-.04c.07-.006.153-.009.248-.009h1.624V98.217h-1.9V90.746q0-.209.012-.456c.007-.165.019-.334.036-.5l-3.5,6.559a.914.914,0,0,1-.313.348.8.8,0,0,1-.447.124h-.3a.8.8,0,0,1-.447-.124.914.914,0,0,1-.313-.348l-3.544-6.584c.022.176.036.348.044.516s.013.324.013.469v7.471h-1.9V86.649h1.624q.144,0,.249.009a.633.633,0,0,1,.187.04.416.416,0,0,1,.156.1.8.8,0,0,1,.136.193l3.456,6.424Q216.448,93.673,216.564,93.95Z"/>
        <path class="cls-4" d="M233.537,86.649v1.769h-3.481v9.8h-2.151v-9.8h-3.5V86.649Z"/>
        <path class="cls-4" d="M192.069,108.757a8.625,8.625,0,0,0,.3,2.286,9.116,9.116,0,0,0,.875,2.115.549.549,0,0,1,.044.1.448.448,0,0,1,.01.088.2.2,0,0,1-.038.127.369.369,0,0,1-.1.088l-.435.264a10.306,10.306,0,0,1-.7-1.254,8.495,8.495,0,0,1-.467-1.248,8.693,8.693,0,0,1-.262-1.263,10.417,10.417,0,0,1,0-2.609,8.514,8.514,0,0,1,.729-2.509,10.586,10.586,0,0,1,.7-1.259l.435.27a.366.366,0,0,1,.1.087.2.2,0,0,1,.038.126.414.414,0,0,1-.054.188,8.753,8.753,0,0,0-1.177,4.4Z"/>
        <path class="cls-4" d="M198.749,109.646c.038.1.075.195.112.294.036-.1.075-.2.115-.294s.086-.187.138-.283l2.668-4.846a.3.3,0,0,1,.148-.153.655.655,0,0,1,.22-.029h.786v7.882H202v-5.791c0-.077,0-.16,0-.248s.01-.177.017-.269l-2.7,4.927a.424.424,0,0,1-.385.249h-.154a.424.424,0,0,1-.385-.249l-2.761-4.944c.011.1.019.19.025.28s.007.177.007.254v5.791h-.934v-7.882h.786a.666.666,0,0,1,.221.029.311.311,0,0,1,.148.153l2.723,4.852A2.151,2.151,0,0,1,198.749,109.646Z"/>
        <path class="cls-4" d="M208.794,112.217h-.434a.513.513,0,0,1-.232-.044.242.242,0,0,1-.115-.187l-.11-.517q-.22.2-.429.355a2.5,2.5,0,0,1-.44.264,2.348,2.348,0,0,1-.492.163,2.878,2.878,0,0,1-.581.054,1.963,1.963,0,0,1-.607-.091,1.359,1.359,0,0,1-.492-.273,1.282,1.282,0,0,1-.333-.461,1.6,1.6,0,0,1-.124-.659,1.233,1.233,0,0,1,.181-.638,1.609,1.609,0,0,1,.586-.543,3.809,3.809,0,0,1,1.059-.389,7.162,7.162,0,0,1,1.6-.152v-.437a1.515,1.515,0,0,0-.279-.989,1.009,1.009,0,0,0-.822-.335,1.758,1.758,0,0,0-.6.091,2.317,2.317,0,0,0-.423.2c-.12.076-.222.143-.308.2a.445.445,0,0,1-.256.091.3.3,0,0,1-.174-.051.417.417,0,0,1-.118-.13l-.176-.314a3.2,3.2,0,0,1,1-.665,3.084,3.084,0,0,1,1.182-.221,2.105,2.105,0,0,1,.831.155,1.72,1.72,0,0,1,.611.428,1.822,1.822,0,0,1,.374.666,2.783,2.783,0,0,1,.126.858Zm-2.542-.6a2.048,2.048,0,0,0,.474-.052,1.947,1.947,0,0,0,.4-.148,2.275,2.275,0,0,0,.364-.235,3.361,3.361,0,0,0,.338-.313v-1.15a6.582,6.582,0,0,0-1.15.086,3.263,3.263,0,0,0-.77.224,1.078,1.078,0,0,0-.432.327.7.7,0,0,0-.135.42.95.95,0,0,0,.072.382.716.716,0,0,0,.193.262.742.742,0,0,0,.285.15A1.317,1.317,0,0,0,206.252,111.618Z"/>
        <path class="cls-4" d="M211.588,104.9a.634.634,0,0,1-.057.267.767.767,0,0,1-.154.219.707.707,0,0,1-.223.152.668.668,0,0,1-.27.054.639.639,0,0,1-.266-.054.7.7,0,0,1-.221-.152.739.739,0,0,1-.151-.219.664.664,0,0,1-.055-.267.692.692,0,0,1,.055-.272.71.71,0,0,1,.372-.377.64.64,0,0,1,.266-.055.669.669,0,0,1,.27.055.739.739,0,0,1,.223.151.76.76,0,0,1,.154.226A.66.66,0,0,1,211.588,104.9Zm-.22,1.749v5.571h-.979v-5.571Z"/>
        <path class="cls-4" d="M213.1,112.217v-5.571h.583a.25.25,0,0,1,.265.2l.076.606a3.129,3.129,0,0,1,.812-.65,2.107,2.107,0,0,1,1.037-.247,1.993,1.993,0,0,1,.805.152,1.549,1.549,0,0,1,.583.428,1.882,1.882,0,0,1,.355.668,2.9,2.9,0,0,1,.121.863v3.548h-.979v-3.548a1.5,1.5,0,0,0-.289-.981,1.081,1.081,0,0,0-.882-.35,1.661,1.661,0,0,0-.812.209,2.687,2.687,0,0,0-.7.568v4.1Z"/>
        <path class="cls-4" d="M226.857,104.335v.9H224.31v6.985h-1.066v-6.985h-2.558v-.9Z"/>
        <path class="cls-4" d="M228.924,106.558a2.876,2.876,0,0,1,1.1.2,2.341,2.341,0,0,1,.836.577,2.57,2.57,0,0,1,.527.906,3.9,3.9,0,0,1,0,2.373,2.57,2.57,0,0,1-.527.9,2.3,2.3,0,0,1-.836.574,3.127,3.127,0,0,1-2.206,0,2.317,2.317,0,0,1-.839-.574,2.581,2.581,0,0,1-.533-.9,3.858,3.858,0,0,1,0-2.373,2.581,2.581,0,0,1,.533-.906,2.362,2.362,0,0,1,.839-.577A2.873,2.873,0,0,1,228.924,106.558Zm0,4.972a1.433,1.433,0,0,0,1.233-.553,3.144,3.144,0,0,0,0-3.094,1.429,1.429,0,0,0-1.233-.555,1.711,1.711,0,0,0-.725.143,1.37,1.37,0,0,0-.515.412,1.831,1.831,0,0,0-.307.663,3.908,3.908,0,0,0,0,1.774,1.793,1.793,0,0,0,.307.657,1.374,1.374,0,0,0,.515.41A1.711,1.711,0,0,0,228.924,111.53Z"/>
        <path class="cls-4" d="M233.8,104.116v4.768h.253a.459.459,0,0,0,.182-.03.5.5,0,0,0,.159-.124l1.761-1.886a.927.927,0,0,1,.165-.143.393.393,0,0,1,.22-.055h.89l-2.051,2.184a2.089,2.089,0,0,1-.151.165.888.888,0,0,1-.168.126,1.038,1.038,0,0,1,.179.151,1.566,1.566,0,0,1,.151.195l2.178,2.75h-.88a.413.413,0,0,1-.206-.047.541.541,0,0,1-.162-.145l-1.832-2.282a.432.432,0,0,0-.165-.152.65.65,0,0,0-.247-.036H233.8v2.662h-.984v-8.1Z"/>
        <path class="cls-4" d="M240.425,106.558a2.5,2.5,0,0,1,.924.167,2.078,2.078,0,0,1,.732.485,2.209,2.209,0,0,1,.481.781,3.021,3.021,0,0,1,.173,1.058.633.633,0,0,1-.05.308.2.2,0,0,1-.186.077h-3.707a3.037,3.037,0,0,0,.142.919,1.883,1.883,0,0,0,.363.651,1.458,1.458,0,0,0,.55.391,1.9,1.9,0,0,0,.716.129,2.1,2.1,0,0,0,.635-.085,2.912,2.912,0,0,0,.459-.185,3.515,3.515,0,0,0,.322-.183.425.425,0,0,1,.223-.086.213.213,0,0,1,.186.094l.276.357a1.87,1.87,0,0,1-.435.383,2.754,2.754,0,0,1-.542.266,3.339,3.339,0,0,1-.6.157,3.624,3.624,0,0,1-.61.052,2.837,2.837,0,0,1-1.064-.195,2.325,2.325,0,0,1-.841-.572,2.6,2.6,0,0,1-.553-.932,3.77,3.77,0,0,1-.2-1.276A3.248,3.248,0,0,1,238,108.23a2.592,2.592,0,0,1,.514-.878,2.371,2.371,0,0,1,.82-.582A2.679,2.679,0,0,1,240.425,106.558Zm.022.72a1.5,1.5,0,0,0-1.116.41,1.916,1.916,0,0,0-.506,1.136h3.03a1.955,1.955,0,0,0-.094-.624,1.372,1.372,0,0,0-.274-.49,1.237,1.237,0,0,0-.443-.319A1.5,1.5,0,0,0,240.447,107.278Z"/>
        <path class="cls-4" d="M243.983,112.217v-5.571h.583a.25.25,0,0,1,.265.2l.076.606a3.125,3.125,0,0,1,.811-.65,2.112,2.112,0,0,1,1.037-.247,2,2,0,0,1,.806.152,1.549,1.549,0,0,1,.583.428,1.9,1.9,0,0,1,.355.668,2.9,2.9,0,0,1,.121.863v3.548h-.979v-3.548a1.5,1.5,0,0,0-.289-.981,1.082,1.082,0,0,0-.883-.35,1.658,1.658,0,0,0-.811.209,2.692,2.692,0,0,0-.7.568v4.1Z"/>
        <path class="cls-4" d="M250.935,108.757a8.753,8.753,0,0,0-1.177-4.4.414.414,0,0,1-.054-.188.2.2,0,0,1,.038-.126.352.352,0,0,1,.1-.087l.434-.27a10.458,10.458,0,0,1,.7,1.259,8.6,8.6,0,0,1,.467,1.246,8.716,8.716,0,0,1,.262,1.263,10.417,10.417,0,0,1,0,2.609,8.828,8.828,0,0,1-.262,1.263,8.495,8.495,0,0,1-.467,1.248,10.184,10.184,0,0,1-.7,1.254l-.434-.264a.355.355,0,0,1-.1-.088.2.2,0,0,1-.038-.127.383.383,0,0,1,.01-.088.549.549,0,0,1,.044-.1,9.116,9.116,0,0,0,.875-2.115A8.625,8.625,0,0,0,250.935,108.757Z"/>
      </g>
    </g>
    <path class="cls-5" d="M121.536,221.717a45,45,0,1,1-45,45A45,45,0,0,1,121.536,221.717Z"/>
    <g>
      <path class="cls-6" d="M115.168,259.4v4.072h-2.152V251.9h3.768a6.617,6.617,0,0,1,2.008.272,3.883,3.883,0,0,1,1.4.76,2.976,2.976,0,0,1,.816,1.168,4.075,4.075,0,0,1,.264,1.488,4.121,4.121,0,0,1-.28,1.54,3.2,3.2,0,0,1-.84,1.2,3.927,3.927,0,0,1-1.4.784,6.254,6.254,0,0,1-1.968.279Zm0-1.68h1.616a3.206,3.206,0,0,0,1.032-.148,1.911,1.911,0,0,0,.728-.424,1.742,1.742,0,0,0,.432-.672,2.565,2.565,0,0,0,.144-.884,2.326,2.326,0,0,0-.144-.839,1.68,1.68,0,0,0-.432-.641,1.905,1.905,0,0,0-.728-.4,3.393,3.393,0,0,0-1.032-.141h-1.616Z"/>
      <path class="cls-6" d="M131.1,251.9v1.769h-3.48v9.8h-2.152v-9.8h-3.5V251.9Z"/>
      <path class="cls-6" d="M85,274.007a8.665,8.665,0,0,0,.3,2.286,9.2,9.2,0,0,0,.875,2.115.443.443,0,0,1,.044.1.385.385,0,0,1,.011.088.2.2,0,0,1-.038.127.374.374,0,0,1-.1.088l-.434.264a10.173,10.173,0,0,1-.7-1.254,8.382,8.382,0,0,1-.467-1.248,8.693,8.693,0,0,1-.262-1.263,10.417,10.417,0,0,1,0-2.609,8.584,8.584,0,0,1,.262-1.263,8.486,8.486,0,0,1,.467-1.246,10.447,10.447,0,0,1,.7-1.259l.434.27a.371.371,0,0,1,.1.087.207.207,0,0,1,.038.126.4.4,0,0,1-.055.188,8.828,8.828,0,0,0-.877,2.112A8.73,8.73,0,0,0,85,274.007Z"/>
      <path class="cls-6" d="M88.834,274.519v2.948H87.772v-7.882H90.1a4.346,4.346,0,0,1,1.3.174,2.507,2.507,0,0,1,.916.493,1.98,1.98,0,0,1,.541.769,2.719,2.719,0,0,1,.179,1.007,2.56,2.56,0,0,1-.193,1.007,2.175,2.175,0,0,1-.563.786,2.621,2.621,0,0,1-.921.514,3.96,3.96,0,0,1-1.26.184Zm0-.847H90.1a2.449,2.449,0,0,0,.806-.121,1.666,1.666,0,0,0,.586-.338,1.415,1.415,0,0,0,.357-.52,1.785,1.785,0,0,0,.121-.665,1.512,1.512,0,0,0-.465-1.177,2.028,2.028,0,0,0-1.405-.424H88.834Z"/>
      <path class="cls-6" d="M94.228,277.467V271.9h.562a.3.3,0,0,1,.219.061.365.365,0,0,1,.082.209l.067.869a2.533,2.533,0,0,1,.707-.91,1.653,1.653,0,0,1,1.405-.276,1.464,1.464,0,0,1,.347.146l-.127.731a.166.166,0,0,1-.171.138.883.883,0,0,1-.236-.052,1.488,1.488,0,0,0-.446-.053,1.261,1.261,0,0,0-.855.3,2.23,2.23,0,0,0-.574.863v3.548Z"/>
      <path class="cls-6" d="M100.916,271.808a2.875,2.875,0,0,1,1.1.2,2.332,2.332,0,0,1,.836.577,2.555,2.555,0,0,1,.527.906,3.9,3.9,0,0,1,0,2.373,2.554,2.554,0,0,1-.527.9,2.288,2.288,0,0,1-.836.574,3.127,3.127,0,0,1-2.206,0,2.325,2.325,0,0,1-.839-.574,2.6,2.6,0,0,1-.533-.9,3.858,3.858,0,0,1,0-2.373,2.6,2.6,0,0,1,.533-.906,2.37,2.37,0,0,1,.839-.577A2.875,2.875,0,0,1,100.916,271.808Zm0,4.972a1.431,1.431,0,0,0,1.232-.553,3.144,3.144,0,0,0,0-3.094,1.428,1.428,0,0,0-1.232-.555,1.713,1.713,0,0,0-.726.143,1.37,1.37,0,0,0-.515.412,1.847,1.847,0,0,0-.307.663,3.908,3.908,0,0,0,0,1.774,1.81,1.81,0,0,0,.307.657,1.374,1.374,0,0,0,.515.41A1.713,1.713,0,0,0,100.916,276.78Z"/>
      <path class="cls-6" d="M108.7,277.467a.248.248,0,0,1-.264-.2l-.089-.677a2.92,2.92,0,0,1-.816.7,2.082,2.082,0,0,1-1.053.261,2.008,2.008,0,0,1-.869-.184,1.8,1.8,0,0,1-.666-.542,2.562,2.562,0,0,1-.423-.891,4.541,4.541,0,0,1-.148-1.226,3.85,3.85,0,0,1,.164-1.147,2.8,2.8,0,0,1,.476-.922,2.191,2.191,0,0,1,1.768-.836,2.022,2.022,0,0,1,.875.174,2.078,2.078,0,0,1,.648.487v-3.091h.98v8.1Zm-1.9-.715a1.581,1.581,0,0,0,.839-.219,2.441,2.441,0,0,0,.662-.622v-2.7a1.533,1.533,0,0,0-.591-.507,1.691,1.691,0,0,0-.711-.147,1.412,1.412,0,0,0-1.2.556,2.591,2.591,0,0,0-.418,1.584,4.038,4.038,0,0,0,.094.932,1.776,1.776,0,0,0,.275.638,1.079,1.079,0,0,0,.445.366A1.518,1.518,0,0,0,106.8,276.752Z"/>
      <path class="cls-6" d="M111.773,271.9v3.553a1.48,1.48,0,0,0,.291.979,1.084,1.084,0,0,0,.88.346,1.677,1.677,0,0,0,.808-.2,2.5,2.5,0,0,0,.7-.567V271.9h.979v5.571h-.583a.248.248,0,0,1-.263-.2l-.078-.6a3.065,3.065,0,0,1-.814.645,2.127,2.127,0,0,1-1.034.245,2.029,2.029,0,0,1-.806-.151,1.6,1.6,0,0,1-.586-.426,1.824,1.824,0,0,1-.354-.666,2.962,2.962,0,0,1-.118-.863V271.9Z"/>
      <path class="cls-6" d="M120.842,272.886a.4.4,0,0,1-.088.093.2.2,0,0,1-.127.033.312.312,0,0,1-.178-.068,2.459,2.459,0,0,0-.244-.151,2.032,2.032,0,0,0-.361-.152,1.924,1.924,0,0,0-1.24.077,1.39,1.39,0,0,0-.525.421,1.9,1.9,0,0,0-.32.665,3.329,3.329,0,0,0-.107.875,3.193,3.193,0,0,0,.116.9,1.957,1.957,0,0,0,.324.66,1.393,1.393,0,0,0,.509.407,1.563,1.563,0,0,0,.674.141,1.711,1.711,0,0,0,.588-.086,1.8,1.8,0,0,0,.386-.19,3.136,3.136,0,0,0,.253-.189.3.3,0,0,1,.2-.086.2.2,0,0,1,.186.094l.276.357a2.118,2.118,0,0,1-.909.652,3.223,3.223,0,0,1-1.149.206,2.442,2.442,0,0,1-.971-.192,2.225,2.225,0,0,1-.778-.559,2.655,2.655,0,0,1-.52-.9,3.955,3.955,0,0,1-.016-2.365,2.594,2.594,0,0,1,.506-.91,2.3,2.3,0,0,1,.822-.6,2.769,2.769,0,0,1,1.122-.214,2.637,2.637,0,0,1,1.034.19,2.481,2.481,0,0,1,.8.536Z"/>
      <path class="cls-6" d="M123.867,277.555a1.345,1.345,0,0,1-1.015-.368,1.473,1.473,0,0,1-.354-1.061v-3.411h-.671a.218.218,0,0,1-.149-.052.2.2,0,0,1-.06-.162v-.391l.913-.115.225-1.722a.205.205,0,0,1,.072-.135.229.229,0,0,1,.154-.052h.494v1.919h1.6v.71h-1.6v3.344a.716.716,0,0,0,.171.523.594.594,0,0,0,.44.17.765.765,0,0,0,.267-.041,1.278,1.278,0,0,0,.2-.09c.055-.034.1-.064.14-.091a.18.18,0,0,1,.1-.041.166.166,0,0,1,.137.093l.286.467a1.809,1.809,0,0,1-.61.371A2.068,2.068,0,0,1,123.867,277.555Z"/>
      <path class="cls-6" d="M133.926,269.585v.9h-2.547v6.985h-1.066v-6.985h-2.558v-.9Z"/>
      <path class="cls-6" d="M135.994,271.808a2.875,2.875,0,0,1,1.1.2,2.332,2.332,0,0,1,.836.577,2.555,2.555,0,0,1,.527.906,3.9,3.9,0,0,1,0,2.373,2.554,2.554,0,0,1-.527.9,2.288,2.288,0,0,1-.836.574,3.127,3.127,0,0,1-2.206,0,2.325,2.325,0,0,1-.839-.574,2.6,2.6,0,0,1-.533-.9,3.877,3.877,0,0,1,0-2.373,2.6,2.6,0,0,1,.533-.906,2.37,2.37,0,0,1,.839-.577A2.875,2.875,0,0,1,135.994,271.808Zm0,4.972a1.431,1.431,0,0,0,1.232-.553,3.144,3.144,0,0,0,0-3.094,1.428,1.428,0,0,0-1.232-.555,1.713,1.713,0,0,0-.726.143,1.37,1.37,0,0,0-.515.412,1.847,1.847,0,0,0-.307.663,3.908,3.908,0,0,0,0,1.774,1.81,1.81,0,0,0,.307.657,1.374,1.374,0,0,0,.515.41A1.713,1.713,0,0,0,135.994,276.78Z"/>
      <path class="cls-6" d="M140.873,269.366v4.768h.253a.454.454,0,0,0,.181-.03.486.486,0,0,0,.159-.124l1.761-1.886a.963.963,0,0,1,.165-.143.4.4,0,0,1,.22-.055h.89l-2.05,2.184c-.052.062-.1.117-.152.165a.858.858,0,0,1-.168.126,1,1,0,0,1,.179.151,1.4,1.4,0,0,1,.151.195l2.178,2.75h-.88a.413.413,0,0,1-.206-.047.553.553,0,0,1-.162-.145l-1.832-2.282a.425.425,0,0,0-.165-.152.65.65,0,0,0-.247-.036h-.275v2.662h-.985v-8.1Z"/>
      <path class="cls-6" d="M147.5,271.808a2.509,2.509,0,0,1,.924.167,2.074,2.074,0,0,1,.731.485,2.209,2.209,0,0,1,.481.781,3,3,0,0,1,.173,1.058.621.621,0,0,1-.05.308.2.2,0,0,1-.186.077h-3.707a3.1,3.1,0,0,0,.142.919,1.868,1.868,0,0,0,.364.651,1.45,1.45,0,0,0,.55.391,1.89,1.89,0,0,0,.715.129,2.1,2.1,0,0,0,.635-.085,2.912,2.912,0,0,0,.459-.185,3.515,3.515,0,0,0,.322-.183.428.428,0,0,1,.223-.086.215.215,0,0,1,.187.094l.275.357a1.87,1.87,0,0,1-.435.383,2.727,2.727,0,0,1-.542.266,3.328,3.328,0,0,1-.6.157,3.627,3.627,0,0,1-.611.052,2.84,2.84,0,0,1-1.064-.195,2.334,2.334,0,0,1-.841-.572,2.618,2.618,0,0,1-.553-.932,3.8,3.8,0,0,1-.2-1.276,3.248,3.248,0,0,1,.179-1.089,2.574,2.574,0,0,1,.513-.878,2.375,2.375,0,0,1,.821-.582A2.672,2.672,0,0,1,147.5,271.808Zm.021.72a1.5,1.5,0,0,0-1.116.41,1.922,1.922,0,0,0-.506,1.136h3.03a1.984,1.984,0,0,0-.093-.624,1.389,1.389,0,0,0-.275-.49,1.229,1.229,0,0,0-.443-.319A1.5,1.5,0,0,0,147.516,272.528Z"/>
      <path class="cls-6" d="M151.052,277.467V271.9h.583a.25.25,0,0,1,.265.2l.076.606a3.129,3.129,0,0,1,.812-.65,2.107,2.107,0,0,1,1.037-.247,1.993,1.993,0,0,1,.805.152,1.549,1.549,0,0,1,.583.428,1.882,1.882,0,0,1,.355.668,2.9,2.9,0,0,1,.121.863v3.548h-.979v-3.548a1.5,1.5,0,0,0-.289-.981,1.081,1.081,0,0,0-.882-.35,1.661,1.661,0,0,0-.812.209,2.687,2.687,0,0,0-.695.568v4.1Z"/>
      <path class="cls-6" d="M158,274.007a8.73,8.73,0,0,0-.3-2.287,8.828,8.828,0,0,0-.877-2.112.417.417,0,0,1-.055-.188.207.207,0,0,1,.038-.126.357.357,0,0,1,.1-.087l.433-.27a10.322,10.322,0,0,1,.7,1.259,8.486,8.486,0,0,1,.467,1.246,8.716,8.716,0,0,1,.262,1.263,10.417,10.417,0,0,1,0,2.609,8.828,8.828,0,0,1-.262,1.263,8.382,8.382,0,0,1-.467,1.248,10.055,10.055,0,0,1-.7,1.254l-.433-.264a.359.359,0,0,1-.1-.088.2.2,0,0,1-.038-.127.337.337,0,0,1,.011-.088.49.49,0,0,1,.044-.1,9.116,9.116,0,0,0,.875-2.115A8.665,8.665,0,0,0,158,274.007Z"/>
    </g>
    <path class="cls-5" d="M221.536,321.717a45,45,0,1,1-45,45A45,45,0,0,1,221.536,321.717Z"/>
    <g>
      <path class="cls-6" d="M215.169,359.4v4.072h-2.152V351.9h3.768a6.617,6.617,0,0,1,2.008.272,3.883,3.883,0,0,1,1.4.76,2.976,2.976,0,0,1,.816,1.168,4.075,4.075,0,0,1,.264,1.488,4.121,4.121,0,0,1-.28,1.54,3.2,3.2,0,0,1-.84,1.2,3.923,3.923,0,0,1-1.4.784,6.243,6.243,0,0,1-1.967.279Zm0-1.68h1.616a3.206,3.206,0,0,0,1.032-.148,1.9,1.9,0,0,0,.727-.424,1.733,1.733,0,0,0,.433-.672,2.565,2.565,0,0,0,.144-.884,2.326,2.326,0,0,0-.144-.839,1.671,1.671,0,0,0-.433-.641,1.893,1.893,0,0,0-.727-.4,3.393,3.393,0,0,0-1.032-.141h-1.616Z"/>
      <path class="cls-6" d="M231.1,351.9v1.769h-3.48v9.8h-2.152v-9.8h-3.5V351.9Z"/>
      <path class="cls-6" d="M185,374.007a8.665,8.665,0,0,0,.3,2.286,9.2,9.2,0,0,0,.875,2.115.443.443,0,0,1,.044.1.385.385,0,0,1,.011.088.2.2,0,0,1-.038.127.374.374,0,0,1-.1.088l-.434.264a10.173,10.173,0,0,1-.7-1.254,8.382,8.382,0,0,1-.467-1.248,8.693,8.693,0,0,1-.262-1.263,10.417,10.417,0,0,1,0-2.609,8.584,8.584,0,0,1,.262-1.263,8.486,8.486,0,0,1,.467-1.246,10.447,10.447,0,0,1,.7-1.259l.434.27a.371.371,0,0,1,.1.087.207.207,0,0,1,.038.126.4.4,0,0,1-.055.188,8.828,8.828,0,0,0-.877,2.112A8.73,8.73,0,0,0,185,374.007Z"/>
      <path class="cls-6" d="M188.835,374.519v2.948h-1.062v-7.882H190.1a4.346,4.346,0,0,1,1.3.174,2.507,2.507,0,0,1,.916.493,1.98,1.98,0,0,1,.541.769,2.719,2.719,0,0,1,.179,1.007,2.56,2.56,0,0,1-.193,1.007,2.175,2.175,0,0,1-.563.786,2.621,2.621,0,0,1-.921.514,3.96,3.96,0,0,1-1.26.184Zm0-.847H190.1a2.449,2.449,0,0,0,.806-.121,1.666,1.666,0,0,0,.586-.338,1.415,1.415,0,0,0,.357-.52,1.785,1.785,0,0,0,.121-.665,1.512,1.512,0,0,0-.465-1.177,2.028,2.028,0,0,0-1.405-.424h-1.264Z"/>
      <path class="cls-6" d="M194.229,377.467V371.9h.562a.3.3,0,0,1,.219.061.365.365,0,0,1,.082.209l.067.869a2.522,2.522,0,0,1,.707-.91,1.653,1.653,0,0,1,1.4-.276,1.464,1.464,0,0,1,.347.146l-.127.731a.166.166,0,0,1-.171.138.883.883,0,0,1-.236-.052,1.488,1.488,0,0,0-.446-.053,1.261,1.261,0,0,0-.855.3,2.23,2.23,0,0,0-.574.863v3.548Z"/>
      <path class="cls-6" d="M200.917,371.808a2.875,2.875,0,0,1,1.1.2,2.332,2.332,0,0,1,.836.577,2.555,2.555,0,0,1,.527.906,3.9,3.9,0,0,1,0,2.373,2.554,2.554,0,0,1-.527.9,2.288,2.288,0,0,1-.836.574,3.127,3.127,0,0,1-2.206,0,2.325,2.325,0,0,1-.839-.574,2.6,2.6,0,0,1-.533-.9,3.858,3.858,0,0,1,0-2.373,2.6,2.6,0,0,1,.533-.906,2.37,2.37,0,0,1,.839-.577A2.875,2.875,0,0,1,200.917,371.808Zm0,4.972a1.433,1.433,0,0,0,1.232-.553,3.144,3.144,0,0,0,0-3.094,1.429,1.429,0,0,0-1.232-.555,1.713,1.713,0,0,0-.726.143,1.37,1.37,0,0,0-.515.412,1.847,1.847,0,0,0-.307.663,3.908,3.908,0,0,0,0,1.774,1.81,1.81,0,0,0,.307.657,1.374,1.374,0,0,0,.515.41A1.713,1.713,0,0,0,200.917,376.78Z"/>
      <path class="cls-6" d="M208.7,377.467a.248.248,0,0,1-.264-.2l-.089-.677a2.92,2.92,0,0,1-.816.7,2.082,2.082,0,0,1-1.053.261,2.008,2.008,0,0,1-.869-.184,1.8,1.8,0,0,1-.666-.542,2.562,2.562,0,0,1-.423-.891,4.541,4.541,0,0,1-.148-1.226,3.85,3.85,0,0,1,.164-1.147,2.8,2.8,0,0,1,.476-.922,2.191,2.191,0,0,1,1.768-.836,2.022,2.022,0,0,1,.875.174,2.078,2.078,0,0,1,.648.487v-3.091h.98v8.1Zm-1.9-.715a1.581,1.581,0,0,0,.839-.219,2.441,2.441,0,0,0,.662-.622v-2.7a1.533,1.533,0,0,0-.591-.507,1.691,1.691,0,0,0-.711-.147,1.412,1.412,0,0,0-1.2.556,2.591,2.591,0,0,0-.418,1.584,4.038,4.038,0,0,0,.094.932,1.776,1.776,0,0,0,.275.638,1.079,1.079,0,0,0,.445.366A1.518,1.518,0,0,0,206.8,376.752Z"/>
      <path class="cls-6" d="M211.774,371.9v3.553a1.48,1.48,0,0,0,.291.979,1.084,1.084,0,0,0,.88.346,1.677,1.677,0,0,0,.808-.2,2.5,2.5,0,0,0,.7-.567V371.9h.979v5.571h-.583a.248.248,0,0,1-.263-.2l-.078-.6a3.065,3.065,0,0,1-.814.645,2.127,2.127,0,0,1-1.034.245,2.029,2.029,0,0,1-.806-.151,1.6,1.6,0,0,1-.586-.426,1.824,1.824,0,0,1-.354-.666,2.961,2.961,0,0,1-.119-.863V371.9Z"/>
      <path class="cls-6" d="M220.843,372.886a.4.4,0,0,1-.088.093.2.2,0,0,1-.127.033.312.312,0,0,1-.178-.068,2.459,2.459,0,0,0-.244-.151,2.032,2.032,0,0,0-.361-.152,1.924,1.924,0,0,0-1.24.077,1.39,1.39,0,0,0-.525.421,1.9,1.9,0,0,0-.32.665,3.329,3.329,0,0,0-.107.875,3.193,3.193,0,0,0,.116.9,1.957,1.957,0,0,0,.324.66,1.393,1.393,0,0,0,.509.407,1.563,1.563,0,0,0,.674.141,1.715,1.715,0,0,0,.588-.086,1.8,1.8,0,0,0,.386-.19,2.933,2.933,0,0,0,.252-.189.305.305,0,0,1,.2-.086.2.2,0,0,1,.186.094l.276.357a2.118,2.118,0,0,1-.909.652,3.223,3.223,0,0,1-1.149.206,2.442,2.442,0,0,1-.971-.192,2.216,2.216,0,0,1-.778-.559,2.655,2.655,0,0,1-.52-.9,3.625,3.625,0,0,1-.189-1.215,3.682,3.682,0,0,1,.173-1.15,2.594,2.594,0,0,1,.506-.91,2.3,2.3,0,0,1,.822-.6,2.769,2.769,0,0,1,1.122-.214,2.637,2.637,0,0,1,1.034.19,2.481,2.481,0,0,1,.8.536Z"/>
      <path class="cls-6" d="M223.868,377.555a1.345,1.345,0,0,1-1.015-.368,1.473,1.473,0,0,1-.354-1.061v-3.411h-.671a.218.218,0,0,1-.149-.052.2.2,0,0,1-.06-.162v-.391l.913-.115.225-1.722a.205.205,0,0,1,.072-.135.229.229,0,0,1,.154-.052h.494v1.919h1.6v.71h-1.6v3.344a.716.716,0,0,0,.171.523.594.594,0,0,0,.44.17.765.765,0,0,0,.267-.041,1.278,1.278,0,0,0,.2-.09c.055-.034.1-.064.14-.091a.18.18,0,0,1,.1-.041.166.166,0,0,1,.137.093l.286.467a1.809,1.809,0,0,1-.61.371A2.068,2.068,0,0,1,223.868,377.555Z"/>
      <path class="cls-6" d="M233.927,369.585v.9H231.38v6.985h-1.066v-6.985h-2.558v-.9Z"/>
      <path class="cls-6" d="M236,371.808a2.875,2.875,0,0,1,1.1.2,2.332,2.332,0,0,1,.836.577,2.555,2.555,0,0,1,.527.906,3.9,3.9,0,0,1,0,2.373,2.554,2.554,0,0,1-.527.9,2.288,2.288,0,0,1-.836.574,3.127,3.127,0,0,1-2.206,0,2.325,2.325,0,0,1-.839-.574,2.6,2.6,0,0,1-.533-.9,3.877,3.877,0,0,1,0-2.373,2.6,2.6,0,0,1,.533-.906,2.37,2.37,0,0,1,.839-.577A2.875,2.875,0,0,1,236,371.808Zm0,4.972a1.431,1.431,0,0,0,1.232-.553,3.144,3.144,0,0,0,0-3.094,1.428,1.428,0,0,0-1.232-.555,1.713,1.713,0,0,0-.726.143,1.37,1.37,0,0,0-.515.412,1.847,1.847,0,0,0-.307.663,3.908,3.908,0,0,0,0,1.774,1.81,1.81,0,0,0,.307.657,1.374,1.374,0,0,0,.515.41A1.713,1.713,0,0,0,236,376.78Z"/>
      <path class="cls-6" d="M240.874,369.366v4.768h.253a.454.454,0,0,0,.181-.03.486.486,0,0,0,.159-.124l1.761-1.886a.963.963,0,0,1,.165-.143.4.4,0,0,1,.22-.055h.89l-2.05,2.184c-.052.062-.1.117-.152.165a.858.858,0,0,1-.168.126,1,1,0,0,1,.179.151,1.4,1.4,0,0,1,.151.195l2.178,2.75h-.88a.413.413,0,0,1-.206-.047.553.553,0,0,1-.162-.145l-1.832-2.282a.425.425,0,0,0-.165-.152.65.65,0,0,0-.247-.036h-.275v2.662h-.985v-8.1Z"/>
      <path class="cls-6" d="M247.5,371.808a2.5,2.5,0,0,1,.923.167,2.07,2.07,0,0,1,.732.485,2.209,2.209,0,0,1,.481.781,3,3,0,0,1,.173,1.058.621.621,0,0,1-.05.308.2.2,0,0,1-.186.077h-3.707a3.1,3.1,0,0,0,.142.919,1.868,1.868,0,0,0,.364.651,1.45,1.45,0,0,0,.55.391,1.89,1.89,0,0,0,.715.129,2.1,2.1,0,0,0,.635-.085,2.912,2.912,0,0,0,.459-.185,3.515,3.515,0,0,0,.322-.183.428.428,0,0,1,.223-.086.215.215,0,0,1,.187.094l.275.357a1.87,1.87,0,0,1-.435.383,2.727,2.727,0,0,1-.542.266,3.328,3.328,0,0,1-.6.157,3.627,3.627,0,0,1-.611.052,2.84,2.84,0,0,1-1.064-.195,2.334,2.334,0,0,1-.841-.572,2.618,2.618,0,0,1-.553-.932,3.8,3.8,0,0,1-.2-1.276,3.248,3.248,0,0,1,.179-1.089,2.574,2.574,0,0,1,.513-.878,2.375,2.375,0,0,1,.821-.582A2.672,2.672,0,0,1,247.5,371.808Zm.021.72a1.5,1.5,0,0,0-1.116.41,1.916,1.916,0,0,0-.506,1.136h3.03a1.984,1.984,0,0,0-.093-.624,1.389,1.389,0,0,0-.275-.49,1.229,1.229,0,0,0-.443-.319A1.5,1.5,0,0,0,247.517,372.528Z"/>
      <path class="cls-6" d="M251.053,377.467V371.9h.583a.25.25,0,0,1,.265.2l.076.606a3.129,3.129,0,0,1,.812-.65,2.107,2.107,0,0,1,1.037-.247,1.993,1.993,0,0,1,.805.152,1.549,1.549,0,0,1,.583.428,1.882,1.882,0,0,1,.355.668,2.9,2.9,0,0,1,.121.863v3.548h-.979v-3.548a1.5,1.5,0,0,0-.289-.981,1.081,1.081,0,0,0-.882-.35,1.661,1.661,0,0,0-.812.209,2.687,2.687,0,0,0-.7.568v4.1Z"/>
      <path class="cls-6" d="M258.005,374.007a8.73,8.73,0,0,0-.3-2.287,8.828,8.828,0,0,0-.877-2.112.417.417,0,0,1-.055-.188.207.207,0,0,1,.038-.126.357.357,0,0,1,.1-.087l.433-.27a10.322,10.322,0,0,1,.7,1.259,8.486,8.486,0,0,1,.467,1.246,8.716,8.716,0,0,1,.262,1.263,10.417,10.417,0,0,1,0,2.609,8.828,8.828,0,0,1-.262,1.263,8.382,8.382,0,0,1-.467,1.248,10.055,10.055,0,0,1-.7,1.254l-.433-.264a.359.359,0,0,1-.1-.088.2.2,0,0,1-.038-.127.337.337,0,0,1,.011-.088.49.49,0,0,1,.044-.1,9.16,9.16,0,0,0,.875-2.115A8.665,8.665,0,0,0,258.005,374.007Z"/>
    </g>
    <path class="cls-5" d="M321.536,221.717a45,45,0,1,1-45,45A45,45,0,0,1,321.536,221.717Z"/>
    <g>
      <path class="cls-6" d="M315.168,259.4v4.072h-2.152V251.9h3.768a6.617,6.617,0,0,1,2.008.272,3.883,3.883,0,0,1,1.4.76,2.976,2.976,0,0,1,.816,1.168,4.075,4.075,0,0,1,.264,1.488,4.121,4.121,0,0,1-.28,1.54,3.2,3.2,0,0,1-.84,1.2,3.927,3.927,0,0,1-1.4.784,6.254,6.254,0,0,1-1.968.279Zm0-1.68h1.616a3.206,3.206,0,0,0,1.032-.148,1.911,1.911,0,0,0,.728-.424,1.742,1.742,0,0,0,.432-.672,2.565,2.565,0,0,0,.144-.884,2.326,2.326,0,0,0-.144-.839,1.68,1.68,0,0,0-.432-.641,1.905,1.905,0,0,0-.728-.4,3.393,3.393,0,0,0-1.032-.141h-1.616Z"/>
      <path class="cls-6" d="M331.1,251.9v1.769h-3.48v9.8h-2.152v-9.8h-3.5V251.9Z"/>
      <path class="cls-6" d="M285,274.007a8.665,8.665,0,0,0,.3,2.286,9.2,9.2,0,0,0,.875,2.115.443.443,0,0,1,.044.1.385.385,0,0,1,.011.088.2.2,0,0,1-.038.127.374.374,0,0,1-.1.088l-.434.264a10.173,10.173,0,0,1-.7-1.254,8.382,8.382,0,0,1-.467-1.248,8.693,8.693,0,0,1-.262-1.263,10.417,10.417,0,0,1,0-2.609,8.584,8.584,0,0,1,.262-1.263,8.486,8.486,0,0,1,.467-1.246,10.447,10.447,0,0,1,.7-1.259l.434.27a.371.371,0,0,1,.1.087.207.207,0,0,1,.038.126.4.4,0,0,1-.055.188,8.828,8.828,0,0,0-.877,2.112A8.73,8.73,0,0,0,285,274.007Z"/>
      <path class="cls-6" d="M288.834,274.519v2.948h-1.062v-7.882H290.1a4.346,4.346,0,0,1,1.3.174,2.507,2.507,0,0,1,.916.493,1.98,1.98,0,0,1,.541.769,2.719,2.719,0,0,1,.179,1.007,2.56,2.56,0,0,1-.193,1.007,2.175,2.175,0,0,1-.563.786,2.621,2.621,0,0,1-.921.514,3.96,3.96,0,0,1-1.26.184Zm0-.847H290.1a2.449,2.449,0,0,0,.806-.121,1.666,1.666,0,0,0,.586-.338,1.415,1.415,0,0,0,.357-.52,1.785,1.785,0,0,0,.121-.665,1.512,1.512,0,0,0-.465-1.177,2.028,2.028,0,0,0-1.4-.424h-1.264Z"/>
      <path class="cls-6" d="M294.228,277.467V271.9h.562a.3.3,0,0,1,.219.061.365.365,0,0,1,.082.209l.067.869a2.533,2.533,0,0,1,.707-.91,1.653,1.653,0,0,1,1.4-.276,1.464,1.464,0,0,1,.347.146l-.127.731a.166.166,0,0,1-.171.138.883.883,0,0,1-.236-.052,1.488,1.488,0,0,0-.446-.053,1.261,1.261,0,0,0-.855.3,2.23,2.23,0,0,0-.574.863v3.548Z"/>
      <path class="cls-6" d="M300.916,271.808a2.875,2.875,0,0,1,1.1.2,2.332,2.332,0,0,1,.836.577,2.555,2.555,0,0,1,.527.906,3.9,3.9,0,0,1,0,2.373,2.554,2.554,0,0,1-.527.9,2.288,2.288,0,0,1-.836.574,3.127,3.127,0,0,1-2.206,0,2.325,2.325,0,0,1-.839-.574,2.6,2.6,0,0,1-.533-.9,3.858,3.858,0,0,1,0-2.373,2.6,2.6,0,0,1,.533-.906,2.37,2.37,0,0,1,.839-.577A2.875,2.875,0,0,1,300.916,271.808Zm0,4.972a1.431,1.431,0,0,0,1.232-.553,3.144,3.144,0,0,0,0-3.094,1.428,1.428,0,0,0-1.232-.555,1.713,1.713,0,0,0-.726.143,1.37,1.37,0,0,0-.515.412,1.847,1.847,0,0,0-.307.663,3.908,3.908,0,0,0,0,1.774,1.81,1.81,0,0,0,.307.657,1.374,1.374,0,0,0,.515.41A1.713,1.713,0,0,0,300.916,276.78Z"/>
      <path class="cls-6" d="M308.7,277.467a.248.248,0,0,1-.264-.2l-.089-.677a2.92,2.92,0,0,1-.816.7,2.082,2.082,0,0,1-1.053.261,2.008,2.008,0,0,1-.869-.184,1.8,1.8,0,0,1-.666-.542,2.562,2.562,0,0,1-.423-.891,4.541,4.541,0,0,1-.148-1.226,3.85,3.85,0,0,1,.164-1.147,2.8,2.8,0,0,1,.476-.922,2.191,2.191,0,0,1,1.768-.836,2.022,2.022,0,0,1,.875.174,2.078,2.078,0,0,1,.648.487v-3.091h.98v8.1Zm-1.9-.715a1.581,1.581,0,0,0,.839-.219,2.441,2.441,0,0,0,.662-.622v-2.7a1.533,1.533,0,0,0-.591-.507,1.691,1.691,0,0,0-.711-.147,1.412,1.412,0,0,0-1.2.556,2.591,2.591,0,0,0-.418,1.584,4.038,4.038,0,0,0,.094.932,1.776,1.776,0,0,0,.275.638,1.079,1.079,0,0,0,.445.366A1.518,1.518,0,0,0,306.8,276.752Z"/>
      <path class="cls-6" d="M311.773,271.9v3.553a1.48,1.48,0,0,0,.291.979,1.084,1.084,0,0,0,.88.346,1.677,1.677,0,0,0,.808-.2,2.5,2.5,0,0,0,.7-.567V271.9h.979v5.571h-.583a.248.248,0,0,1-.263-.2l-.078-.6a3.065,3.065,0,0,1-.814.645,2.127,2.127,0,0,1-1.034.245,2.029,2.029,0,0,1-.806-.151,1.6,1.6,0,0,1-.586-.426,1.824,1.824,0,0,1-.354-.666,2.962,2.962,0,0,1-.118-.863V271.9Z"/>
      <path class="cls-6" d="M320.842,272.886a.4.4,0,0,1-.088.093.2.2,0,0,1-.127.033.312.312,0,0,1-.178-.068,2.459,2.459,0,0,0-.244-.151,2.032,2.032,0,0,0-.361-.152,1.924,1.924,0,0,0-1.24.077,1.39,1.39,0,0,0-.525.421,1.9,1.9,0,0,0-.32.665,3.329,3.329,0,0,0-.107.875,3.193,3.193,0,0,0,.116.9,1.957,1.957,0,0,0,.324.66,1.393,1.393,0,0,0,.509.407,1.563,1.563,0,0,0,.674.141,1.711,1.711,0,0,0,.588-.086,1.8,1.8,0,0,0,.386-.19,3.136,3.136,0,0,0,.253-.189.3.3,0,0,1,.2-.086.2.2,0,0,1,.186.094l.276.357a2.118,2.118,0,0,1-.909.652,3.223,3.223,0,0,1-1.149.206,2.442,2.442,0,0,1-.971-.192,2.225,2.225,0,0,1-.778-.559,2.655,2.655,0,0,1-.52-.9,3.955,3.955,0,0,1-.016-2.365,2.594,2.594,0,0,1,.506-.91,2.3,2.3,0,0,1,.822-.6,2.769,2.769,0,0,1,1.122-.214,2.637,2.637,0,0,1,1.034.19,2.481,2.481,0,0,1,.8.536Z"/>
      <path class="cls-6" d="M323.867,277.555a1.345,1.345,0,0,1-1.015-.368,1.473,1.473,0,0,1-.354-1.061v-3.411h-.671a.218.218,0,0,1-.149-.052.2.2,0,0,1-.06-.162v-.391l.913-.115.225-1.722a.205.205,0,0,1,.072-.135.229.229,0,0,1,.154-.052h.494v1.919h1.6v.71h-1.6v3.344a.716.716,0,0,0,.171.523.594.594,0,0,0,.44.17.765.765,0,0,0,.267-.041,1.278,1.278,0,0,0,.195-.09c.055-.034.1-.064.14-.091a.18.18,0,0,1,.1-.041.166.166,0,0,1,.137.093l.286.467a1.809,1.809,0,0,1-.61.371A2.068,2.068,0,0,1,323.867,277.555Z"/>
      <path class="cls-6" d="M333.926,269.585v.9h-2.547v6.985h-1.066v-6.985h-2.558v-.9Z"/>
      <path class="cls-6" d="M335.994,271.808a2.875,2.875,0,0,1,1.1.2,2.332,2.332,0,0,1,.836.577,2.555,2.555,0,0,1,.527.906,3.9,3.9,0,0,1,0,2.373,2.554,2.554,0,0,1-.527.9,2.288,2.288,0,0,1-.836.574,3.127,3.127,0,0,1-2.206,0,2.325,2.325,0,0,1-.839-.574,2.6,2.6,0,0,1-.533-.9,3.877,3.877,0,0,1,0-2.373,2.6,2.6,0,0,1,.533-.906,2.37,2.37,0,0,1,.839-.577A2.875,2.875,0,0,1,335.994,271.808Zm0,4.972a1.431,1.431,0,0,0,1.232-.553,3.144,3.144,0,0,0,0-3.094,1.428,1.428,0,0,0-1.232-.555,1.713,1.713,0,0,0-.726.143,1.37,1.37,0,0,0-.515.412,1.847,1.847,0,0,0-.307.663,3.908,3.908,0,0,0,0,1.774,1.81,1.81,0,0,0,.307.657,1.374,1.374,0,0,0,.515.41A1.713,1.713,0,0,0,335.994,276.78Z"/>
      <path class="cls-6" d="M340.873,269.366v4.768h.253a.454.454,0,0,0,.181-.03.486.486,0,0,0,.159-.124l1.761-1.886a.963.963,0,0,1,.165-.143.4.4,0,0,1,.22-.055h.89l-2.05,2.184c-.052.062-.1.117-.152.165a.858.858,0,0,1-.168.126,1,1,0,0,1,.179.151,1.4,1.4,0,0,1,.151.195l2.178,2.75h-.88a.413.413,0,0,1-.206-.047.553.553,0,0,1-.162-.145l-1.832-2.282a.425.425,0,0,0-.165-.152.65.65,0,0,0-.247-.036h-.275v2.662h-.985v-8.1Z"/>
      <path class="cls-6" d="M347.5,271.808a2.509,2.509,0,0,1,.924.167,2.074,2.074,0,0,1,.731.485,2.209,2.209,0,0,1,.481.781,3,3,0,0,1,.173,1.058.621.621,0,0,1-.05.308.2.2,0,0,1-.186.077h-3.707a3.1,3.1,0,0,0,.142.919,1.868,1.868,0,0,0,.364.651,1.45,1.45,0,0,0,.55.391,1.89,1.89,0,0,0,.715.129,2.1,2.1,0,0,0,.635-.085,2.912,2.912,0,0,0,.459-.185,3.515,3.515,0,0,0,.322-.183.428.428,0,0,1,.223-.086.215.215,0,0,1,.187.094l.275.357a1.87,1.87,0,0,1-.435.383,2.727,2.727,0,0,1-.542.266,3.328,3.328,0,0,1-.6.157,3.627,3.627,0,0,1-.611.052,2.84,2.84,0,0,1-1.064-.195,2.334,2.334,0,0,1-.841-.572,2.618,2.618,0,0,1-.553-.932,3.8,3.8,0,0,1-.2-1.276,3.248,3.248,0,0,1,.179-1.089,2.574,2.574,0,0,1,.513-.878,2.375,2.375,0,0,1,.821-.582A2.672,2.672,0,0,1,347.5,271.808Zm.021.72a1.5,1.5,0,0,0-1.116.41,1.922,1.922,0,0,0-.506,1.136h3.03a1.984,1.984,0,0,0-.093-.624,1.389,1.389,0,0,0-.275-.49,1.229,1.229,0,0,0-.443-.319A1.5,1.5,0,0,0,347.516,272.528Z"/>
      <path class="cls-6" d="M351.052,277.467V271.9h.583a.25.25,0,0,1,.265.2l.076.606a3.129,3.129,0,0,1,.812-.65,2.107,2.107,0,0,1,1.037-.247,1.993,1.993,0,0,1,.805.152,1.549,1.549,0,0,1,.583.428,1.882,1.882,0,0,1,.355.668,2.9,2.9,0,0,1,.121.863v3.548h-.979v-3.548a1.5,1.5,0,0,0-.289-.981,1.081,1.081,0,0,0-.882-.35,1.661,1.661,0,0,0-.812.209,2.687,2.687,0,0,0-.695.568v4.1Z"/>
      <path class="cls-6" d="M358,274.007a8.73,8.73,0,0,0-.3-2.287,8.828,8.828,0,0,0-.877-2.112.417.417,0,0,1-.055-.188.207.207,0,0,1,.038-.126.357.357,0,0,1,.1-.087l.433-.27a10.322,10.322,0,0,1,.7,1.259,8.486,8.486,0,0,1,.467,1.246,8.716,8.716,0,0,1,.262,1.263,10.417,10.417,0,0,1,0,2.609,8.828,8.828,0,0,1-.262,1.263,8.382,8.382,0,0,1-.467,1.248,10.055,10.055,0,0,1-.7,1.254l-.433-.264a.359.359,0,0,1-.1-.088.2.2,0,0,1-.038-.127.337.337,0,0,1,.011-.088.49.49,0,0,1,.044-.1,9.116,9.116,0,0,0,.875-2.115A8.665,8.665,0,0,0,358,274.007Z"/>
    </g>
    <g>
      <path class="cls-7" d="M216.684,258.727c.057.142.111.284.164.429.054-.15.11-.292.168-.429s.126-.273.2-.412l3.88-7.048a.468.468,0,0,1,.217-.224,1.007,1.007,0,0,1,.319-.04h1.145v11.464h-1.36v-8.424c0-.112,0-.232.007-.36s.014-.259.025-.391l-3.928,7.168a.617.617,0,0,1-.561.359h-.223a.618.618,0,0,1-.561-.359l-4.015-7.193c.015.139.028.276.036.408s.012.256.012.368v8.424h-1.361V251h1.145a1.018,1.018,0,0,1,.32.04.466.466,0,0,1,.216.224l3.96,7.057A3.06,3.06,0,0,1,216.684,258.727Z"/>
      <path class="cls-7" d="M233.377,251v1.3h-3.705v10.16h-1.551v-10.16H224.4V251Z"/>
      <path class="cls-7" d="M174.409,274.179v4.288h-1.544V267h3.384a6.352,6.352,0,0,1,1.892.252,3.639,3.639,0,0,1,1.332.716,2.9,2.9,0,0,1,.788,1.12,3.954,3.954,0,0,1,.26,1.464,3.742,3.742,0,0,1-.28,1.464,3.163,3.163,0,0,1-.82,1.145,3.833,3.833,0,0,1-1.34.748,5.782,5.782,0,0,1-1.832.267Zm0-1.231h1.84a3.579,3.579,0,0,0,1.172-.177,2.4,2.4,0,0,0,.852-.492,2.058,2.058,0,0,0,.521-.756,2.585,2.585,0,0,0,.175-.968,2.2,2.2,0,0,0-.675-1.712,2.959,2.959,0,0,0-2.045-.616h-1.84Z"/>
      <path class="cls-7" d="M182.257,278.467v-8.1h.817a.446.446,0,0,1,.319.088.529.529,0,0,1,.12.3l.1,1.264a3.7,3.7,0,0,1,1.028-1.324,2.422,2.422,0,0,1,2.044-.4,2.137,2.137,0,0,1,.5.212L187,271.571a.241.241,0,0,1-.249.2,1.22,1.22,0,0,1-.343-.076,2.208,2.208,0,0,0-.649-.075,1.836,1.836,0,0,0-1.244.431,3.26,3.26,0,0,0-.836,1.256v5.16Z"/>
      <path class="cls-7" d="M191.985,270.235a4.162,4.162,0,0,1,1.6.3,3.353,3.353,0,0,1,1.216.84,3.7,3.7,0,0,1,.769,1.315,5.712,5.712,0,0,1,0,3.452,3.738,3.738,0,0,1-.769,1.313,3.356,3.356,0,0,1-1.216.836,4.552,4.552,0,0,1-3.208,0,3.4,3.4,0,0,1-1.219-.836,3.769,3.769,0,0,1-.777-1.313,5.632,5.632,0,0,1,0-3.452,3.733,3.733,0,0,1,.777-1.315,3.4,3.4,0,0,1,1.219-.84A4.176,4.176,0,0,1,191.985,270.235Zm0,7.232a2.08,2.08,0,0,0,1.792-.8,4.572,4.572,0,0,0,0-4.5,2.077,2.077,0,0,0-1.792-.809,2.489,2.489,0,0,0-1.057.208,1.973,1.973,0,0,0-.748.6,2.673,2.673,0,0,0-.447.963,5.7,5.7,0,0,0,0,2.581,2.654,2.654,0,0,0,.447.956,1.987,1.987,0,0,0,.748.6A2.489,2.489,0,0,0,191.985,277.467Z"/>
      <path class="cls-7" d="M203.305,278.467a.362.362,0,0,1-.384-.3l-.127-.984a4.283,4.283,0,0,1-1.189,1.013,3.046,3.046,0,0,1-1.532.38,2.922,2.922,0,0,1-1.264-.269,2.621,2.621,0,0,1-.968-.788,3.762,3.762,0,0,1-.616-1.3,6.706,6.706,0,0,1-.216-1.784,5.563,5.563,0,0,1,.241-1.668,4.051,4.051,0,0,1,.691-1.34,3.178,3.178,0,0,1,2.572-1.216,2.932,2.932,0,0,1,1.272.252,3.062,3.062,0,0,1,.944.708v-4.5h1.424v11.784Zm-2.76-1.04a2.287,2.287,0,0,0,1.22-.32,3.514,3.514,0,0,0,.964-.9v-3.92a2.258,2.258,0,0,0-.86-.741,2.488,2.488,0,0,0-1.035-.211,2.054,2.054,0,0,0-1.745.807,3.777,3.777,0,0,0-.608,2.3,5.84,5.84,0,0,0,.136,1.356,2.61,2.61,0,0,0,.4.928,1.566,1.566,0,0,0,.649.532A2.151,2.151,0,0,0,200.545,277.427Z"/>
      <path class="cls-7" d="M207.777,270.364v5.168a2.149,2.149,0,0,0,.424,1.424,1.576,1.576,0,0,0,1.279.5,2.46,2.46,0,0,0,1.177-.3,3.665,3.665,0,0,0,1.015-.825v-5.975H213.1v8.1h-.847a.361.361,0,0,1-.384-.3l-.113-.872a4.463,4.463,0,0,1-1.183.941,3.123,3.123,0,0,1-1.5.355,2.943,2.943,0,0,1-1.173-.219,2.325,2.325,0,0,1-.851-.621,2.6,2.6,0,0,1-.516-.967,4.314,4.314,0,0,1-.173-1.256v-5.168Z"/>
      <path class="cls-7" d="M220.969,271.8a.629.629,0,0,1-.128.136.3.3,0,0,1-.184.048.454.454,0,0,1-.26-.1,4.05,4.05,0,0,0-.356-.219,2.87,2.87,0,0,0-.524-.22,2.427,2.427,0,0,0-.756-.1,2.464,2.464,0,0,0-1.048.212,2.043,2.043,0,0,0-.764.612,2.775,2.775,0,0,0-.464.968,4.809,4.809,0,0,0-.156,1.273,4.642,4.642,0,0,0,.168,1.307,2.825,2.825,0,0,0,.472.96,2.01,2.01,0,0,0,.74.592,2.273,2.273,0,0,0,.98.2,2.5,2.5,0,0,0,.856-.124,2.632,2.632,0,0,0,.56-.275,4.207,4.207,0,0,0,.368-.277.442.442,0,0,1,.288-.124.3.3,0,0,1,.272.136l.4.521a3.077,3.077,0,0,1-1.32.947,4.68,4.68,0,0,1-1.672.3,3.531,3.531,0,0,1-1.412-.281,3.2,3.2,0,0,1-1.132-.812,3.85,3.85,0,0,1-.756-1.308,5.252,5.252,0,0,1-.276-1.767,5.333,5.333,0,0,1,.252-1.672,3.768,3.768,0,0,1,.736-1.324,3.314,3.314,0,0,1,1.2-.869,4.033,4.033,0,0,1,1.632-.312,3.864,3.864,0,0,1,1.5.276,3.6,3.6,0,0,1,1.16.781Z"/>
      <path class="cls-7" d="M225.369,278.6a1.951,1.951,0,0,1-1.476-.536,2.134,2.134,0,0,1-.516-1.544v-4.96H222.4a.317.317,0,0,1-.216-.076.294.294,0,0,1-.089-.235v-.569l1.328-.168.328-2.5a.3.3,0,0,1,.1-.2.329.329,0,0,1,.224-.076h.719v2.792h2.321v1.032H224.8v4.864a1.036,1.036,0,0,0,.248.76.87.87,0,0,0,.641.248,1.139,1.139,0,0,0,.388-.059,1.6,1.6,0,0,0,.284-.133c.08-.048.147-.092.2-.132a.264.264,0,0,1,.147-.06.245.245,0,0,1,.2.136l.416.68a2.641,2.641,0,0,1-.888.54A3.009,3.009,0,0,1,225.369,278.6Z"/>
      <path class="cls-7" d="M240.272,276.1a.318.318,0,0,1,.232.105l.608.664a4.893,4.893,0,0,1-1.708,1.271,5.823,5.823,0,0,1-2.42.456,5.709,5.709,0,0,1-2.248-.427,4.937,4.937,0,0,1-1.72-1.2,5.411,5.411,0,0,1-1.1-1.851,6.91,6.91,0,0,1-.393-2.376,6.524,6.524,0,0,1,.42-2.376,5.428,5.428,0,0,1,1.181-1.857,5.276,5.276,0,0,1,1.819-1.2,6.206,6.206,0,0,1,2.341-.427,5.212,5.212,0,0,1,3.807,1.456l-.5.711a.576.576,0,0,1-.128.132.351.351,0,0,1-.208.052.405.405,0,0,1-.221-.076c-.077-.05-.169-.113-.276-.188s-.232-.154-.375-.24a3.419,3.419,0,0,0-.512-.24,4.348,4.348,0,0,0-.689-.188,4.837,4.837,0,0,0-.9-.076,4.359,4.359,0,0,0-1.684.317,3.767,3.767,0,0,0-1.316.9,4.094,4.094,0,0,0-.859,1.424,5.417,5.417,0,0,0-.309,1.881,5.511,5.511,0,0,0,.309,1.911,4.219,4.219,0,0,0,.839,1.42,3.55,3.55,0,0,0,1.26.885,4.043,4.043,0,0,0,1.569.3,6.4,6.4,0,0,0,.92-.059,3.808,3.808,0,0,0,.755-.189,3.115,3.115,0,0,0,.648-.324,4.958,4.958,0,0,0,.6-.468A.408.408,0,0,1,240.272,276.1Z"/>
      <path class="cls-7" d="M242.928,278.467V266.683h1.424v4.769a4.4,4.4,0,0,1,1.152-.885,3.089,3.089,0,0,1,1.456-.332,2.917,2.917,0,0,1,1.172.221,2.253,2.253,0,0,1,.848.624,2.768,2.768,0,0,1,.517.971,4.246,4.246,0,0,1,.175,1.256v5.16h-1.423v-5.16a2.188,2.188,0,0,0-.42-1.428,1.574,1.574,0,0,0-1.285-.507,2.4,2.4,0,0,0-1.18.3,3.907,3.907,0,0,0-1.012.825v5.967Z"/>
      <path class="cls-7" d="M257.776,278.467h-.632a.748.748,0,0,1-.336-.064.351.351,0,0,1-.168-.272l-.16-.752c-.214.192-.422.365-.624.516a3.556,3.556,0,0,1-.641.384,3.278,3.278,0,0,1-.715.236,4.061,4.061,0,0,1-.844.08,2.877,2.877,0,0,1-.884-.132,2.009,2.009,0,0,1-.716-.4,1.887,1.887,0,0,1-.484-.671,2.348,2.348,0,0,1-.18-.959,1.8,1.8,0,0,1,.264-.928,2.325,2.325,0,0,1,.851-.79,5.557,5.557,0,0,1,1.54-.566,10.5,10.5,0,0,1,2.329-.221V273.3a2.2,2.2,0,0,0-.4-1.436,1.463,1.463,0,0,0-1.2-.487,2.559,2.559,0,0,0-.876.131,3.337,3.337,0,0,0-.616.3c-.173.11-.323.208-.449.3a.645.645,0,0,1-.372.132.429.429,0,0,1-.252-.076.581.581,0,0,1-.171-.188l-.256-.456a4.611,4.611,0,0,1,1.448-.967,4.459,4.459,0,0,1,1.72-.321,3.076,3.076,0,0,1,1.208.224,2.457,2.457,0,0,1,.887.624,2.631,2.631,0,0,1,.544.969,4.015,4.015,0,0,1,.185,1.248Zm-3.7-.872a2.888,2.888,0,0,0,.688-.076,2.717,2.717,0,0,0,.588-.216,3.108,3.108,0,0,0,.527-.34,4.515,4.515,0,0,0,.493-.456v-1.672a9.564,9.564,0,0,0-1.672.125,4.662,4.662,0,0,0-1.12.326,1.56,1.56,0,0,0-.628.474,1.028,1.028,0,0,0-.2.613,1.342,1.342,0,0,0,.105.554,1.049,1.049,0,0,0,.28.383,1.109,1.109,0,0,0,.416.217A1.874,1.874,0,0,0,254.08,277.6Z"/>
      <path class="cls-7" d="M261.84,267.819a.909.909,0,0,1-.084.389,1.1,1.1,0,0,1-.224.319,1.043,1.043,0,0,1-.323.221,1,1,0,0,1-.393.08.965.965,0,0,1-.388-.08,1.066,1.066,0,0,1-.32-.221,1.046,1.046,0,0,1-.22-.319.953.953,0,0,1-.08-.389,1,1,0,0,1,.08-.4,1.037,1.037,0,0,1,.54-.547.933.933,0,0,1,.388-.081.97.97,0,0,1,.393.081,1.02,1.02,0,0,1,.323.219,1.085,1.085,0,0,1,.224.328A.958.958,0,0,1,261.84,267.819Zm-.32,2.545v8.1H260.1v-8.1Z"/>
      <path class="cls-7" d="M264.032,278.467v-8.1h.847a.363.363,0,0,1,.385.3l.112.88a4.539,4.539,0,0,1,1.18-.945,3.069,3.069,0,0,1,1.508-.36,2.924,2.924,0,0,1,1.172.221,2.253,2.253,0,0,1,.848.624,2.767,2.767,0,0,1,.516.971,4.246,4.246,0,0,1,.176,1.256v5.16h-1.424v-5.16a2.188,2.188,0,0,0-.42-1.428,1.572,1.572,0,0,0-1.284-.507,2.406,2.406,0,0,0-1.181.3,3.887,3.887,0,0,0-1.011.825v5.967Z"/>
    </g>
    <g>
      <path class="cls-6" d="M159.274,32.164h4.96v1.3h-6.513V22h1.553Z"/>
      <path class="cls-6" d="M166.954,25.364v5.168a2.149,2.149,0,0,0,.423,1.424,1.578,1.578,0,0,0,1.28.5,2.462,2.462,0,0,0,1.177-.3,3.665,3.665,0,0,0,1.015-.825V25.364h1.424v8.1h-.848a.36.36,0,0,1-.383-.3l-.113-.872a4.463,4.463,0,0,1-1.183.941,3.123,3.123,0,0,1-1.5.355,2.94,2.94,0,0,1-1.173-.219,2.337,2.337,0,0,1-.852-.621,2.614,2.614,0,0,1-.515-.967,4.281,4.281,0,0,1-.173-1.256V25.364Z"/>
      <path class="cls-6" d="M174.617,33.467v-8.1h.847a.363.363,0,0,1,.385.3l.111.88a4.56,4.56,0,0,1,1.181-.945,3.069,3.069,0,0,1,1.508-.36,2.924,2.924,0,0,1,1.172.221,2.253,2.253,0,0,1,.848.624,2.767,2.767,0,0,1,.516.971,4.246,4.246,0,0,1,.176,1.256v5.16h-1.424v-5.16a2.188,2.188,0,0,0-.42-1.428,1.572,1.572,0,0,0-1.284-.507,2.406,2.406,0,0,0-1.181.3,3.887,3.887,0,0,0-1.011.825v5.967Z"/>
      <path class="cls-6" d="M185.418,22.819a.924.924,0,0,1-.084.389,1.118,1.118,0,0,1-.225.319,1.043,1.043,0,0,1-.323.221,1,1,0,0,1-.393.08.969.969,0,0,1-.388-.08,1.066,1.066,0,0,1-.32-.221,1.046,1.046,0,0,1-.22-.319.953.953,0,0,1-.08-.389,1,1,0,0,1,.08-.4,1.037,1.037,0,0,1,.54-.547.937.937,0,0,1,.388-.081.967.967,0,0,1,.393.081,1.02,1.02,0,0,1,.323.219,1.107,1.107,0,0,1,.225.328A.974.974,0,0,1,185.418,22.819Zm-.321,2.545v8.1h-1.424v-8.1Z"/>
      <path class="cls-6" d="M186.585,25.364h1.167a.437.437,0,0,1,.281.088.492.492,0,0,1,.16.208l2.056,5.216a3.883,3.883,0,0,1,.176.576c.042.191.082.381.119.567.043-.186.089-.376.137-.567a4.807,4.807,0,0,1,.184-.576l2.08-5.216a.466.466,0,0,1,.156-.212.417.417,0,0,1,.268-.084h1.112l-3.3,8.1h-1.288Z"/>
      <path class="cls-6" d="M198.8,25.235a3.626,3.626,0,0,1,1.344.244,3.034,3.034,0,0,1,1.065.7,3.228,3.228,0,0,1,.7,1.136,4.394,4.394,0,0,1,.252,1.54.921.921,0,0,1-.073.448.3.3,0,0,1-.272.112h-5.392a4.481,4.481,0,0,0,.208,1.336,2.725,2.725,0,0,0,.529.949,2.1,2.1,0,0,0,.8.567A2.742,2.742,0,0,0,199,32.46a3.03,3.03,0,0,0,.923-.125,4.288,4.288,0,0,0,.668-.268,4.933,4.933,0,0,0,.468-.268.621.621,0,0,1,.324-.124.315.315,0,0,1,.273.136l.4.521a2.731,2.731,0,0,1-.632.555,3.9,3.9,0,0,1-.788.388,4.881,4.881,0,0,1-.868.228,5.275,5.275,0,0,1-.888.077,4.1,4.1,0,0,1-1.547-.285,3.389,3.389,0,0,1-1.225-.832,3.826,3.826,0,0,1-.8-1.356,5.533,5.533,0,0,1-.288-1.855,4.725,4.725,0,0,1,.26-1.584,3.751,3.751,0,0,1,.748-1.277,3.465,3.465,0,0,1,1.192-.848A3.92,3.92,0,0,1,198.8,25.235Zm.033,1.049a2.184,2.184,0,0,0-1.624.6,2.809,2.809,0,0,0-.737,1.653h4.408a2.9,2.9,0,0,0-.135-.908,2.019,2.019,0,0,0-.4-.712,1.765,1.765,0,0,0-.643-.464A2.164,2.164,0,0,0,198.833,26.284Z"/>
      <path class="cls-6" d="M203.976,33.467v-8.1h.817a.448.448,0,0,1,.319.088.543.543,0,0,1,.12.3l.1,1.264a3.7,3.7,0,0,1,1.028-1.324,2.422,2.422,0,0,1,2.044-.4,2.137,2.137,0,0,1,.5.212l-.184,1.064a.24.24,0,0,1-.248.2,1.232,1.232,0,0,1-.344-.076,2.2,2.2,0,0,0-.648-.075,1.836,1.836,0,0,0-1.244.431,3.26,3.26,0,0,0-.836,1.256v5.16Z"/>
      <path class="cls-6" d="M215.064,26.7a.315.315,0,0,1-.3.176.557.557,0,0,1-.271-.088c-.1-.059-.226-.124-.372-.2a3.583,3.583,0,0,0-.525-.2,2.5,2.5,0,0,0-.72-.092,2.135,2.135,0,0,0-.648.092,1.59,1.59,0,0,0-.491.252,1.145,1.145,0,0,0-.313.372,1,1,0,0,0-.107.46.765.765,0,0,0,.18.521,1.567,1.567,0,0,0,.475.359,4.161,4.161,0,0,0,.672.269c.251.077.509.16.772.248s.522.185.772.292a2.79,2.79,0,0,1,.673.4,1.831,1.831,0,0,1,.475.588,1.8,1.8,0,0,1,.18.836,2.649,2.649,0,0,1-.2,1.036,2.258,2.258,0,0,1-.593.824,2.826,2.826,0,0,1-.96.548,3.922,3.922,0,0,1-1.311.2,4.1,4.1,0,0,1-1.537-.276,3.9,3.9,0,0,1-1.168-.708l.336-.544a.477.477,0,0,1,.153-.159.418.418,0,0,1,.231-.057.534.534,0,0,1,.3.112c.107.075.236.158.389.248a3.04,3.04,0,0,0,.551.249,2.541,2.541,0,0,0,.813.111,2.2,2.2,0,0,0,.727-.108,1.527,1.527,0,0,0,.52-.292,1.159,1.159,0,0,0,.309-.423,1.336,1.336,0,0,0,.1-.513.844.844,0,0,0-.18-.556,1.543,1.543,0,0,0-.475-.376,3.944,3.944,0,0,0-.677-.271c-.253-.078-.512-.159-.775-.244s-.524-.183-.777-.292a2.752,2.752,0,0,1-.675-.412,1.868,1.868,0,0,1-.477-.613,1.99,1.99,0,0,1-.18-.884,2.161,2.161,0,0,1,.193-.892,2.2,2.2,0,0,1,.559-.752,2.753,2.753,0,0,1,.905-.516,3.609,3.609,0,0,1,1.223-.192,3.882,3.882,0,0,1,1.437.252,3.413,3.413,0,0,1,1.1.692Z"/>
      <path class="cls-6" d="M220.576,25.235a3.624,3.624,0,0,1,1.343.244,3.025,3.025,0,0,1,1.065.7,3.214,3.214,0,0,1,.7,1.136,4.394,4.394,0,0,1,.252,1.54.924.924,0,0,1-.072.448.3.3,0,0,1-.273.112H218.2a4.449,4.449,0,0,0,.208,1.336,2.724,2.724,0,0,0,.528.949,2.108,2.108,0,0,0,.8.567,2.733,2.733,0,0,0,1.04.189,3.042,3.042,0,0,0,.924-.125,4.328,4.328,0,0,0,.668-.268,5.032,5.032,0,0,0,.467-.268.621.621,0,0,1,.325-.124.313.313,0,0,1,.272.136l.4.521a2.731,2.731,0,0,1-.632.555,3.926,3.926,0,0,1-.788.388,4.926,4.926,0,0,1-.868.228,5.275,5.275,0,0,1-.888.077,4.108,4.108,0,0,1-1.548-.285,3.389,3.389,0,0,1-1.225-.832,3.824,3.824,0,0,1-.8-1.356,5.508,5.508,0,0,1-.288-1.855,4.725,4.725,0,0,1,.259-1.584,3.751,3.751,0,0,1,.748-1.277,3.469,3.469,0,0,1,1.193-.848A3.916,3.916,0,0,1,220.576,25.235Zm.032,1.049a2.184,2.184,0,0,0-1.624.6,2.8,2.8,0,0,0-.736,1.653h4.408a2.9,2.9,0,0,0-.136-.908,2.032,2.032,0,0,0-.4-.712,1.777,1.777,0,0,0-.644-.464A2.164,2.164,0,0,0,220.608,26.284Z"/>
      <path class="cls-6" d="M234.9,29.727c.057.142.111.284.164.429.054-.15.109-.292.168-.429s.126-.273.2-.412l3.88-7.048a.463.463,0,0,1,.217-.224,1.007,1.007,0,0,1,.319-.04h1.145V33.467h-1.361V25.043c0-.112,0-.232.008-.36s.014-.259.025-.391l-3.928,7.168a.617.617,0,0,1-.561.359h-.223a.617.617,0,0,1-.561-.359l-4.015-7.193c.015.139.028.276.036.408s.011.256.011.368v8.424h-1.36V22h1.145a1.018,1.018,0,0,1,.32.04.471.471,0,0,1,.216.224l3.96,7.057A3.06,3.06,0,0,1,234.9,29.727Z"/>
      <path class="cls-6" d="M249.511,33.467h-.632a.743.743,0,0,1-.335-.064.349.349,0,0,1-.168-.272l-.161-.752c-.213.192-.421.365-.624.516a3.583,3.583,0,0,1-.64.384,3.286,3.286,0,0,1-.716.236,4.054,4.054,0,0,1-.844.08,2.886,2.886,0,0,1-.884-.132,2,2,0,0,1-.715-.4,1.877,1.877,0,0,1-.485-.671,2.348,2.348,0,0,1-.18-.959,1.8,1.8,0,0,1,.264-.928,2.321,2.321,0,0,1,.852-.79,5.533,5.533,0,0,1,1.54-.566,10.493,10.493,0,0,1,2.328-.221V28.3a2.209,2.209,0,0,0-.4-1.436,1.465,1.465,0,0,0-1.2-.487,2.567,2.567,0,0,0-.876.131,3.337,3.337,0,0,0-.616.3c-.173.11-.322.208-.448.3a.645.645,0,0,1-.372.132.424.424,0,0,1-.252-.076.584.584,0,0,1-.172-.188l-.256-.456a4.622,4.622,0,0,1,1.448-.967,4.459,4.459,0,0,1,1.72-.321,3.073,3.073,0,0,1,1.208.224,2.452,2.452,0,0,1,.888.624,2.646,2.646,0,0,1,.544.969,4.016,4.016,0,0,1,.184,1.248Zm-3.7-.872a2.888,2.888,0,0,0,.688-.076,2.7,2.7,0,0,0,.588-.216,3.116,3.116,0,0,0,.528-.34,4.418,4.418,0,0,0,.492-.456V29.835a9.572,9.572,0,0,0-1.672.125,4.662,4.662,0,0,0-1.12.326,1.574,1.574,0,0,0-.628.474,1.027,1.027,0,0,0-.2.613,1.359,1.359,0,0,0,.1.554,1.061,1.061,0,0,0,.28.383,1.117,1.117,0,0,0,.416.217A1.879,1.879,0,0,0,245.815,32.6Z"/>
      <path class="cls-6" d="M253.575,22.819a.924.924,0,0,1-.084.389,1.118,1.118,0,0,1-.225.319,1.043,1.043,0,0,1-.323.221,1,1,0,0,1-.393.08.964.964,0,0,1-.387-.08,1.071,1.071,0,0,1-.321-.221,1.043,1.043,0,0,1-.219-.319.937.937,0,0,1-.08-.389.987.987,0,0,1,.08-.4,1.027,1.027,0,0,1,.54-.547.932.932,0,0,1,.387-.081.967.967,0,0,1,.393.081,1.02,1.02,0,0,1,.323.219,1.107,1.107,0,0,1,.225.328A.974.974,0,0,1,253.575,22.819Zm-.321,2.545v8.1h-1.423v-8.1Z"/>
      <path class="cls-6" d="M255.766,33.467v-8.1h.848a.364.364,0,0,1,.385.3l.111.88a4.527,4.527,0,0,1,1.181-.945,3.062,3.062,0,0,1,1.507-.36,2.92,2.92,0,0,1,1.172.221,2.253,2.253,0,0,1,.848.624,2.785,2.785,0,0,1,.517.971,4.246,4.246,0,0,1,.175,1.256v5.16h-1.424v-5.16a2.188,2.188,0,0,0-.419-1.428,1.574,1.574,0,0,0-1.285-.507,2.4,2.4,0,0,0-1.18.3,3.891,3.891,0,0,0-1.012.825v5.967Z"/>
      <path class="cls-6" d="M264.663,33.467v-8.1h.847a.364.364,0,0,1,.385.3l.111.88a4.56,4.56,0,0,1,1.181-.945,3.069,3.069,0,0,1,1.508-.36,2.924,2.924,0,0,1,1.172.221,2.242,2.242,0,0,1,.847.624,2.752,2.752,0,0,1,.517.971,4.246,4.246,0,0,1,.176,1.256v5.16h-1.424v-5.16a2.188,2.188,0,0,0-.42-1.428,1.572,1.572,0,0,0-1.284-.507,2.4,2.4,0,0,0-1.181.3,3.907,3.907,0,0,0-1.012.825v5.967Z"/>
      <path class="cls-6" d="M276.767,25.235a3.63,3.63,0,0,1,1.344.244,3.021,3.021,0,0,1,1.064.7,3.216,3.216,0,0,1,.7,1.136,4.395,4.395,0,0,1,.251,1.54.924.924,0,0,1-.072.448.3.3,0,0,1-.272.112h-5.392a4.481,4.481,0,0,0,.208,1.336,2.74,2.74,0,0,0,.528.949,2.116,2.116,0,0,0,.8.567,2.741,2.741,0,0,0,1.04.189,3.037,3.037,0,0,0,.924-.125,4.288,4.288,0,0,0,.668-.268,4.933,4.933,0,0,0,.468-.268.619.619,0,0,1,.324-.124.316.316,0,0,1,.273.136l.4.521a2.731,2.731,0,0,1-.632.555,3.926,3.926,0,0,1-.788.388,4.881,4.881,0,0,1-.868.228,5.275,5.275,0,0,1-.888.077A4.112,4.112,0,0,1,275.3,33.3a3.385,3.385,0,0,1-1.224-.832,3.811,3.811,0,0,1-.8-1.356,5.533,5.533,0,0,1-.288-1.855,4.725,4.725,0,0,1,.26-1.584,3.751,3.751,0,0,1,.748-1.277,3.456,3.456,0,0,1,1.192-.848A3.92,3.92,0,0,1,276.767,25.235Zm.032,1.049a2.187,2.187,0,0,0-1.624.6,2.814,2.814,0,0,0-.736,1.653h4.408a2.9,2.9,0,0,0-.136-.908,2,2,0,0,0-.4-.712,1.782,1.782,0,0,0-.643-.464A2.165,2.165,0,0,0,276.8,26.284Z"/>
      <path class="cls-6" d="M284.4,33.6a1.951,1.951,0,0,1-1.476-.536,2.138,2.138,0,0,1-.516-1.544v-4.96h-.976a.317.317,0,0,1-.216-.076.293.293,0,0,1-.088-.235v-.569l1.328-.168.328-2.5a.308.308,0,0,1,.1-.2.329.329,0,0,1,.224-.076h.72v2.792h2.32v1.032h-2.32v4.864a1.036,1.036,0,0,0,.248.76.869.869,0,0,0,.64.248,1.131,1.131,0,0,0,.388-.059,1.6,1.6,0,0,0,.284-.133q.12-.072.2-.132a.266.266,0,0,1,.148-.06.244.244,0,0,1,.2.136l.416.68a2.641,2.641,0,0,1-.888.54A3.005,3.005,0,0,1,284.4,33.6Z"/>
    </g>
    <path class="cls-1" d="M221.536,167.6a.5.5,0,0,1-.5-.5V146.467a.5.5,0,0,1,1,0V167.1A.5.5,0,0,1,221.536,167.6Z"/>
    <g>
      <polygon class="cls-2" points="443.071 255.097 436.161 251.128 436.161 254.53 377.063 254.53 377.063 255.664 436.161 255.664 436.161 259.065 443.071 255.097"/>
      <polygon class="cls-2" points="375.04 269.837 381.949 265.868 381.949 269.27 441.048 269.27 441.048 270.404 381.949 270.404 381.949 273.805 375.04 269.837"/>
    </g>
    <g>
      <rect class="cls-8" x="387.904" y="251.628" width="42.303" height="21.677"/>
      <path class="cls-2" d="M429.707,252.128v20.677H388.4V252.128h41.3m1-1H387.4v22.677h43.3V251.128Z"/>
    </g>
    <g>
      <path class="cls-6" d="M408.558,258.227v.978H405.78v7.62h-1.164v-7.62h-2.79v-.978Z"/>
      <path class="cls-6" d="M411.78,262.409l-2.838-4.182H410.1a.328.328,0,0,1,.186.042.375.375,0,0,1,.108.12l2.244,3.444a1.627,1.627,0,0,1,.126-.276l2.117-3.144a.589.589,0,0,1,.118-.135.234.234,0,0,1,.153-.051h1.11l-2.85,4.128,2.946,4.47h-1.152a.293.293,0,0,1-.207-.07.613.613,0,0,1-.123-.152l-2.3-3.606a1.3,1.3,0,0,1-.109.24L410.22,266.6a.87.87,0,0,1-.123.152.266.266,0,0,1-.195.07h-1.08Z"/>
    </g>
    <g>
      <polygon class="cls-2" points="68.031 255.097 61.122 251.128 61.122 254.53 2.023 254.53 2.023 255.664 61.122 255.664 61.122 259.065 68.031 255.097"/>
      <polygon class="cls-2" points="0 269.837 6.91 265.868 6.91 269.27 66.008 269.27 66.008 270.404 6.91 270.404 6.91 273.805 0 269.837"/>
    </g>
    <g>
      <rect class="cls-8" x="12.864" y="251.628" width="42.304" height="21.677"/>
      <path class="cls-2" d="M54.667,252.128v20.677h-41.3V252.128h41.3m1-1h-43.3v22.677h43.3V251.128Z"/>
    </g>
    <g>
      <path class="cls-6" d="M33.518,258.227v.978H30.74v7.62H29.576v-7.62h-2.79v-.978Z"/>
      <path class="cls-6" d="M36.74,262.409,33.9,258.227H35.06a.328.328,0,0,1,.186.042.375.375,0,0,1,.108.12l2.244,3.444a1.627,1.627,0,0,1,.126-.276l2.118-3.144a.564.564,0,0,1,.117-.135.235.235,0,0,1,.153-.051h1.11l-2.85,4.128,2.946,4.47H40.166a.3.3,0,0,1-.207-.07.613.613,0,0,1-.123-.152L37.532,263a1.3,1.3,0,0,1-.108.24L35.18,266.6a.87.87,0,0,1-.123.152.264.264,0,0,1-.2.07h-1.08Z"/>
    </g>
    <g>
      <polygon class="cls-2" points="342.891 356.097 335.982 352.128 335.982 355.53 276.883 355.53 276.883 356.664 335.982 356.664 335.982 360.065 342.891 356.097"/>
      <polygon class="cls-2" points="274.86 370.837 281.769 366.868 281.769 370.27 340.868 370.27 340.868 371.404 281.769 371.404 281.769 374.805 274.86 370.837"/>
    </g>
    <g>
      <rect class="cls-8" x="287.724" y="352.628" width="42.303" height="21.677"/>
      <path class="cls-2" d="M329.527,353.128v20.677h-41.3V353.128h41.3m1-1h-43.3v22.677h43.3V352.128Z"/>
    </g>
    <g>
      <path class="cls-6" d="M308.378,359.227v.978H305.6v7.62h-1.164v-7.62h-2.79v-.978Z"/>
      <path class="cls-6" d="M311.6,363.409l-2.838-4.182h1.158a.328.328,0,0,1,.186.042.375.375,0,0,1,.108.12l2.245,3.444a1.483,1.483,0,0,1,.126-.276l2.117-3.144a.564.564,0,0,1,.117-.135.235.235,0,0,1,.153-.051h1.111l-2.851,4.128,2.946,4.47h-1.152a.3.3,0,0,1-.207-.07.613.613,0,0,1-.123-.152l-2.3-3.606a1.3,1.3,0,0,1-.108.24l-2.243,3.366a.972.972,0,0,1-.123.152.268.268,0,0,1-.2.07h-1.08Z"/>
    </g>
  </g>
</svg>
