<svg id="Layer_1" data-name="Layer 1" xmlns="http://www.w3.org/2000/svg" viewBox="0 0 443.071 411.717">
  <defs>
    <style>
      .cls-1 {
        fill: #d0d4d9;
      }

      .cls-2 {
        fill: #9ecaf2;
      }

      .cls-2, .cls-4 {
        fill-rule: evenodd;
      }

      .cls-3 {
        fill: #1b72c2;
      }

      .cls-4 {
        fill: #eff1f2;
      }

      .cls-5 {
        fill: #abb1bc;
      }

      .cls-6 {
        fill: #fff;
      }
    </style>
  </defs>
  <title>Vector Smart Object21</title>
  <g>
    <path class="cls-1" d="M221.536,167.1h-.055a1,1,0,1,0,0,2h.054a1,1,0,1,0,0-2Zm-7.966.318c-.026,0-.051,0-.077,0l-.064,0a1,1,0,0,0,.084,2,.732.732,0,0,0,.081,0l.054,0a1,1,0,0,0-.078-2Zm-7.914.959a1.051,1.051,0,0,0-.158.012l-.027,0-.032,0a1,1,0,0,0,.16,1.987.983.983,0,0,0,.162-.013l.054-.009a1,1,0,0,0-.159-1.987Zm-7.809,1.6a1.019,1.019,0,0,0-.238.029l-.048.012-.009,0a1,1,0,1,0,.482,1.941l.052-.013a1,1,0,0,0-.239-1.971Zm-7.654,2.232a.989.989,0,0,0-.315.051l-.053.017,0,0a1,1,0,1,0,.639,1.9l.051-.017a1,1,0,0,0-.319-1.948Zm-7.445,2.849a.989.989,0,0,0-.392.08l-.015.006-.031.014-.01,0a1,1,0,0,0,.794,1.836l.05-.021a1,1,0,0,0-.4-1.919Zm-7.188,3.447a.987.987,0,0,0-.468.117l-.042.022-.008,0a1,1,0,1,0,.94,1.765l.048-.025a1,1,0,0,0-.47-1.883Zm-6.884,4.02a1,1,0,0,0-.538.158l-.014.009-.033.021a1,1,0,0,0,1.08,1.683l.045-.029a1,1,0,0,0-.54-1.842Zm-6.535,4.565a1,1,0,0,0-.6.2l-.031.025-.016.011a1,1,0,0,0,1.212,1.592l.043-.033a1,1,0,0,0-.606-1.8ZM156,192.169a.994.994,0,0,0-.665.253l-.011.01-.018.016-.019.017a1,1,0,0,0,1.34,1.485l.04-.036a1,1,0,0,0-.667-1.745Zm-5.716,5.557a1,1,0,0,0-.723.309l-.017.018,0,0-.015.016-.006.006a1,1,0,0,0,1.452,1.376l.037-.04a1,1,0,0,0-.725-1.688Zm-5.249,6a1,1,0,0,0-.779.372l-.035.043a1,1,0,0,0,1.558,1.255l.034-.042a1,1,0,0,0-.778-1.628Zm-4.748,6.4a1,1,0,0,0-.825.434l-.019.027-.015.022a1,1,0,1,0,1.654,1.124l.031-.044a1,1,0,0,0-.826-1.563Zm-4.214,6.766a1,1,0,0,0-.87.507h0l-.029.052a1,1,0,0,0,1.742.982l.027-.047a1,1,0,0,0-.869-1.494Zm-3.651,7.087a1,1,0,0,0-.907.578l-.015.032-.008.019a1,1,0,1,0,1.814.842l.023-.049a1,1,0,0,0-.907-1.422Zm-3.061,7.36a1,1,0,0,0-.936.649l-.02.055v0a1,1,0,1,0,1.877.691l.019-.051a1,1,0,0,0-.939-1.346Zm-2.45,7.586a1,1,0,0,0-.962.732l0,.016-.011.039a1,1,0,0,0,1.928.533l.014-.052a1,1,0,0,0-.964-1.268Zm-1.821,7.76a1,1,0,0,0-.981.811l0,.009,0,.027,0,.022a1,1,0,0,0,1.965.373l.01-.053a1,1,0,0,0-.794-1.171,1.016,1.016,0,0,0-.189-.018Zm-1.183,7.883a1,1,0,0,0-.993.891v0l-.006.053a1,1,0,0,0,.886,1.1,1,1,0,0,0,1.1-.886l.006-.054a1,1,0,0,0-.995-1.108Zm-.542,7.955a1,1,0,0,0-1,.968l0,.064a1,1,0,0,0,.972,1.022h.028a1,1,0,0,0,1-.972l0-.054a1,1,0,0,0-.972-1.028Zm.1,7.974h-.052a1,1,0,0,0-.947,1.05v.02l0,.027v.011a1,1,0,0,0,1,.945h.053a1,1,0,0,0,.946-1.051l0-.054a1,1,0,0,0-1-.948Zm.736,7.939a1,1,0,0,0-.993,1.128l.005.037v.011l0,.014a1,1,0,0,0,1.982-.269l-.007-.054a1,1,0,0,0-.99-.867Zm1.375,7.851a1.046,1.046,0,0,0-.214.023,1,1,0,0,0-.764,1.19l.012.054a1,1,0,0,0,1.954-.427l-.012-.052a1,1,0,0,0-.976-.788ZM127.58,294a1,1,0,0,0-.957,1.292v0l.017.053a1,1,0,0,0,.955.706,1.024,1.024,0,0,0,.292-.044,1,1,0,0,0,.665-1.249l-.016-.052a1,1,0,0,0-.956-.708Zm2.634,7.523a1,1,0,0,0-.931,1.365l.023.058a1,1,0,0,0,.929.628.979.979,0,0,0,.369-.071,1,1,0,0,0,.56-1.3l-.02-.05a1,1,0,0,0-.93-.632Zm3.24,7.283a1,1,0,0,0-.9,1.443l.01.022.016.032a1,1,0,0,0,1.79-.892l-.024-.049a1,1,0,0,0-.9-.556Zm3.823,7a1,1,0,0,0-.859,1.511l.011.017.015.026.006.01a1,1,0,0,0,1.713-1.032l-.028-.047a1,1,0,0,0-.858-.485Zm4.378,6.662a1,1,0,0,0-.812,1.583l.01.014.025.034a1,1,0,0,0,1.622-1.17l-.032-.043a1,1,0,0,0-.813-.418Zm4.9,6.287a1,1,0,0,0-.766,1.642l.019.023.02.023a1,1,0,1,0,1.525-1.293l-.035-.041a1,1,0,0,0-.763-.354Zm5.394,5.871a1,1,0,0,0-.709,1.7l0,0,.008.008.016.016.012.012a1,1,0,0,0,1.416-1.412l-.038-.038a1,1,0,0,0-.708-.294Zm5.85,5.416a1,1,0,0,0-.654,1.757l.049.042a1,1,0,0,0,1.294-1.524l-.041-.035a.994.994,0,0,0-.648-.24Zm6.267,4.928a1,1,0,0,0-.591,1.807l.05.035a1,1,0,0,0,1.17-1.621l-.044-.032a1,1,0,0,0-.585-.189Zm6.645,4.4a1,1,0,0,0-.519,1.855l.028.017.023.014a1,1,0,0,0,1.031-1.714l-.046-.028a.994.994,0,0,0-.517-.144Zm6.98,3.85a1,1,0,0,0-.448,1.895l.044.022.006,0a1,1,0,0,0,.892-1.79l-.048-.024a.991.991,0,0,0-.446-.106Zm7.269,3.269a1,1,0,0,0-.374,1.928l.056.023a1,1,0,0,0,.74-1.858l-.05-.02a1,1,0,0,0-.372-.073Zm7.512,2.665a1,1,0,0,0-.3,1.956l.026.008.016,0,.014,0a1,1,0,0,0,.587-1.912l-.051-.016a1.018,1.018,0,0,0-.3-.045Zm7.705,2.043a1,1,0,0,0-.216,1.976l.054.012a1,1,0,0,0,.432-1.953l-.053-.011a.95.95,0,0,0-.217-.024Zm7.845,1.406a1,1,0,0,0-.135,1.991h.009l.032,0,.013,0a1.066,1.066,0,0,0,.138.009,1,1,0,0,0,.134-1.991l-.054-.007a1.065,1.065,0,0,0-.137-.01Zm7.936.766a1,1,0,0,0-.059,2l.05,0h.065a1,1,0,0,0,.054-2l-.054,0-.056,0Zm8.029.126h-.025l-.054,0a1,1,0,0,0,.023,2h.08a1,1,0,0,0-.024-2Zm7.957-.515c-.035,0-.07,0-.1,0l-.054.006a1,1,0,0,0,.1,1.995c.033,0,.067,0,.1,0l.026,0,.016,0,.023,0a1,1,0,0,0-.11-1.994Zm7.888-1.156a.975.975,0,0,0-.186.017l-.053.01a1,1,0,0,0,.183,1.983.932.932,0,0,0,.181-.017l.049-.009.01,0a1,1,0,0,0-.184-1.982Zm7.765-1.8a1.007,1.007,0,0,0-.265.036l-.052.014a1,1,0,0,0,.263,1.965,1.015,1.015,0,0,0,.26-.034l.029-.008.029-.008a1,1,0,0,0-.264-1.965Zm7.594-2.423a1,1,0,0,0-.343.061l-.05.018a1,1,0,0,0,.342,1.94.98.98,0,0,0,.342-.061l.029-.01.027-.01a1,1,0,0,0-.347-1.938Zm7.37-3.035a.99.99,0,0,0-.418.092l-.049.022a1,1,0,0,0,.418,1.909.99.99,0,0,0,.418-.092l.05-.023a1,1,0,0,0-.419-1.908Zm7.1-3.626a1,1,0,0,0-.489.128l-.047.027a1,1,0,1,0,.98,1.743l.016-.009.035-.02a1,1,0,0,0-.5-1.869Zm6.782-4.191a.992.992,0,0,0-.559.171l-.045.03a1,1,0,0,0,1.116,1.66l.05-.033a1,1,0,0,0-.562-1.828Zm6.42-4.726a.992.992,0,0,0-.624.219l-.043.034a1,1,0,1,0,1.249,1.562l.017-.014.029-.023a1,1,0,0,0-.628-1.778Zm6.018-5.229a1,1,0,0,0-.686.272l-.039.037a1,1,0,0,0,1.368,1.459l.027-.026.016-.015a1,1,0,0,0-.686-1.727Zm5.577-5.7a1,1,0,0,0-.743.33l-.036.04a1,1,0,1,0,1.484,1.341l.019-.021.021-.023a1,1,0,0,0-.745-1.667Zm5.1-6.128a1,1,0,0,0-.794.392l-.033.043a1,1,0,0,0,1.584,1.22l.039-.051a1,1,0,0,0-.8-1.6Zm4.588-6.52a1,1,0,0,0-.842.458l-.029.045a1,1,0,1,0,1.68,1.085l.03-.047a1,1,0,0,0-.839-1.541Zm4.043-6.87a1,1,0,0,0-.883.528l-.025.047a1,1,0,1,0,1.763.945l.027-.052a1,1,0,0,0-.882-1.468Zm3.471-7.176a1,1,0,0,0-.917.6l-.022.05a1,1,0,0,0,1.834.8l0,0,.022-.051a1,1,0,0,0-.521-1.311.984.984,0,0,0-.4-.083Zm2.874-7.435a1,1,0,0,0-.947.678l-.017.051a1,1,0,0,0,.624,1.27,1.012,1.012,0,0,0,.323.053,1,1,0,0,0,.945-.674l.02-.058a1,1,0,0,0-.625-1.266,1.013,1.013,0,0,0-.323-.054Zm2.257-7.645a1,1,0,0,0-.969.756l-.013.053a1,1,0,0,0,.725,1.214,1.033,1.033,0,0,0,.245.03,1,1,0,0,0,.969-.756v0l.014-.053a1,1,0,0,0-.727-1.209,1.033,1.033,0,0,0-.245-.03Zm1.625-7.8a1,1,0,0,0-.985.836l-.009.053a1,1,0,0,0,.822,1.151,1.043,1.043,0,0,0,.166.014,1,1,0,0,0,.984-.83l0-.031,0-.029a1,1,0,0,0-.822-1.15.927.927,0,0,0-.165-.014Zm.986-7.91a1,1,0,0,0-1,.916l0,.054a1,1,0,0,0,.912,1.08.825.825,0,0,0,.086,0,1,1,0,0,0,1-.916l0-.055a1,1,0,0,0-.913-1.08q-.042,0-.084,0Zm.346-7.966a1,1,0,0,0-1,1v.054a1,1,0,0,0,1,1h0a1,1,0,0,0,1-1v-.055a1,1,0,0,0-1-1Zm-.29-7.97q-.039,0-.078,0a1,1,0,0,0-.921,1.074l0,.054a1,1,0,0,0,1,.924l.077,0a1,1,0,0,0,.921-1.073l0-.033,0-.025a1,1,0,0,0-.995-.921Zm-.932-7.918a1.087,1.087,0,0,0-.159.013,1,1,0,0,0-.83,1.145l.008.053a1,1,0,0,0,.987.844,1.063,1.063,0,0,0,.158-.013,1,1,0,0,0,.831-1.141l-.01-.061a1,1,0,0,0-.985-.84Zm-1.573-7.814a.981.981,0,0,0-.238.029,1,1,0,0,0-.734,1.209l.013.052a1,1,0,0,0,.971.763,1.016,1.016,0,0,0,.237-.028,1,1,0,0,0,.735-1.208l-.01-.042,0-.015a1,1,0,0,0-.97-.76Zm-2.2-7.66a1.024,1.024,0,0,0-.316.051,1,1,0,0,0-.633,1.265l.017.051a1,1,0,0,0,.949.685.989.989,0,0,0,.315-.051,1,1,0,0,0,.634-1.264l-.007-.021-.011-.034a1,1,0,0,0-.948-.682Zm-2.824-7.454a.989.989,0,0,0-.392.08,1,1,0,0,0-.528,1.312l.021.05a1,1,0,0,0,1.842-.78l-.022-.052v0a1,1,0,0,0-.92-.608Zm-3.423-7.2a1,1,0,0,0-.884,1.466l.025.047a1,1,0,0,0,1.772-.927l-.018-.034-.009-.018a1,1,0,0,0-.886-.534Zm-4-6.9a1,1,0,0,0-.843,1.536l.029.046a1,1,0,1,0,1.689-1.071l0-.007-.026-.041a1,1,0,0,0-.844-.463Zm-4.542-6.551a1,1,0,0,0-.8,1.6l.033.043a1,1,0,0,0,1.6-1.2l-.01-.014-.025-.033a1,1,0,0,0-.8-.4Zm-5.057-6.163a1,1,0,0,0-.747,1.666l.036.04a1,1,0,0,0,1.5-1.328l-.008-.008-.012-.015-.021-.022a1,1,0,0,0-.744-.333Zm-5.537-5.734a1,1,0,0,0-.691,1.723l.039.037a1,1,0,0,0,1.386-1.442l-.028-.027-.015-.014h0a1,1,0,0,0-.69-.276Zm-5.982-5.27a1,1,0,0,0-.631,1.776l.042.034a1,1,0,0,0,1.263-1.55l-.012-.01-.013-.011-.024-.019a.994.994,0,0,0-.625-.22ZM277,184.25a1,1,0,0,0-.566,1.825l.045.03a.988.988,0,0,0,.564.176,1,1,0,0,0,.571-1.822l-.053-.037a1,1,0,0,0-.561-.172Zm-6.752-4.237a1,1,0,0,0-.5,1.868l.047.027a1,1,0,0,0,1-1.735l-.022-.013h0l-.023-.014a1,1,0,0,0-.5-.132Zm-7.075-3.675a1,1,0,0,0-.425,1.906l.049.023a1,1,0,0,0,.852-1.81l-.055-.025a.984.984,0,0,0-.421-.094Zm-7.35-3.085a1,1,0,0,0-.349,1.937l.051.019a1,1,0,0,0,.7-1.874l-.051-.019a.974.974,0,0,0-.35-.063Zm-7.577-2.476a1,1,0,0,0-.271,1.963l.052.015a.986.986,0,0,0,.272.038,1,1,0,0,0,.272-1.963l-.008,0-.011,0h0l-.01,0-.023-.007a1.026,1.026,0,0,0-.272-.038Zm-7.755-1.847a1,1,0,0,0-.191,1.981l.053.011a1.069,1.069,0,0,0,.193.019,1,1,0,0,0,.192-1.982l-.05-.01h0a.979.979,0,0,0-.193-.019Zm-7.879-1.21a1,1,0,0,0-.11,1.994l.054.006a1.069,1.069,0,0,0,.113.006,1,1,0,0,0,.111-1.993h-.01l-.035,0-.01,0a1.084,1.084,0,0,0-.113-.006Zm-7.951-.569a1,1,0,0,0-.031,2l.054,0h.032a1,1,0,0,0,.032-2h-.087Z"/>
    <path class="cls-1" d="M123.136.016a1,1,0,0,0-.822.969v.063a1,1,0,0,0,.989,1.006.978.978,0,0,0,.189-.015,1,1,0,0,0,.822-.973V1.012A1,1,0,0,0,123.325,0a.984.984,0,0,0-.189.016Zm.231,7.968a1,1,0,0,0-.819,1.05v.01l0,.048a1,1,0,0,0,1.067.928.937.937,0,0,0,.108-.014,1,1,0,0,0,.82-1.054l0-.054a1,1,0,0,0-1.068-.928.966.966,0,0,0-.108.014Zm.875,7.925a1,1,0,0,0-.811,1.129l0,.018,0,.023,0,.023a1,1,0,0,0,1.138.834l.028,0a1,1,0,0,0,.811-1.134l-.008-.054a1,1,0,0,0-1.139-.839l-.028.005Zm1.508,7.831-.052.01a1,1,0,0,0-.746,1.2l.013.055a1,1,0,0,0,1.149.755l.053-.011a1,1,0,0,0,.745-1.2L126.9,24.5a1,1,0,0,0-1.15-.756Zm2.129,7.683a1,1,0,0,0-.777,1.288l.009.03,0,.015,0,.013a1,1,0,0,0,1.127.675,1.032,1.032,0,0,0,.13-.033,1,1,0,0,0,.646-1.258l-.016-.051a1,1,0,0,0-1.128-.679Zm2.743,7.484a.984.984,0,0,0-.206.06,1,1,0,0,0-.542,1.307l.006.013.017.042a1,1,0,0,0,1.1.6.975.975,0,0,0,.207-.06,1,1,0,0,0,.541-1.307l-.021-.05a1,1,0,0,0-1.1-.6Zm3.344,7.235a.97.97,0,0,0-.279.095,1,1,0,0,0-.433,1.346l0,0,.018.036,0,.009a1,1,0,0,0,1.066.528,1.053,1.053,0,0,0,.28-.095,1,1,0,0,0,.433-1.347l-.025-.048a1,1,0,0,0-1.067-.528Zm3.925,6.938a1,1,0,0,0-.672,1.511l.025.04,0,.008a1,1,0,0,0,1.7-1.056l-.029-.046a1,1,0,0,0-1.027-.457Zm4.478,6.594a1,1,0,0,0-.628,1.576l.036.048a1,1,0,0,0,.98.388.989.989,0,0,0,.418-.181,1,1,0,0,0,.208-1.4l-.032-.043a1,1,0,0,0-.982-.389Zm5,6.208a1,1,0,0,0-.575,1.642l.04.045a1,1,0,0,0,1.5-1.321l-.035-.04a1,1,0,0,0-.931-.326Zm5.488,5.782a1,1,0,0,0-.522,1.7l.017.017.022.021,0,0a1,1,0,0,0,1.393-1.436l-.039-.037a1,1,0,0,0-.875-.267Zm5.939,5.319a1,1,0,0,0-.461,1.754l.046.038a1,1,0,0,0,1.27-1.544l-.041-.035a1,1,0,0,0-.814-.213Zm6.348,4.823a1,1,0,0,0-.4,1.8l.051.036A1,1,0,0,0,165.939,82l-.045-.031a1,1,0,0,0-.749-.164Zm6.716,4.3a1,1,0,0,0-.331,1.846l.026.015.01.006.016.009a1,1,0,0,0,1.007-1.728l-.047-.027a.994.994,0,0,0-.681-.121Zm7.041,3.74a1,1,0,0,0-.26,1.884l.013.006.04.019a1,1,0,0,0,.865-1.8l-.049-.023a.991.991,0,0,0-.609-.083ZM186.222,93a1,1,0,0,0-.183,1.918l.041.015.014.006a1,1,0,0,0,.713-1.869l-.051-.019a.993.993,0,0,0-.534-.051Zm7.551,2.554a1,1,0,0,0-.11,1.942l.061.018a.976.976,0,0,0,.454.024,1,1,0,0,0,.1-1.944l-.052-.015a.993.993,0,0,0-.458-.025Zm7.733,1.931a1,1,0,0,0-.025,1.963l.019,0,.037.008a1.013,1.013,0,0,0,.376.005,1,1,0,0,0,.025-1.964l-.053-.011a.988.988,0,0,0-.379,0Zm7.865,1.293a1,1,0,0,0,.056,1.977h.015l.033,0h.008a1.014,1.014,0,0,0,.3-.009,1,1,0,0,0-.056-1.977l-.054-.006a.964.964,0,0,0-.3.008Zm7.945.646a1,1,0,0,0,.138,1.983l.054,0a.979.979,0,0,0,.218-.015,1,1,0,0,0-.138-1.983l-.054,0a.983.983,0,0,0-.218.015Zm7.97-.005a1,1,0,0,0,.22,1.984h.055a1.01,1.01,0,0,0,.136-.015,1,1,0,0,0-.22-1.983l-.054,0a1.025,1.025,0,0,0-.137.015Zm7.946-.651a1,1,0,0,0,.3,1.977l.05-.006h.008l.056-.008a1,1,0,0,0-.3-1.977l-.054.007-.056.008Zm7.924-1.3-.024,0-.053.011a1,1,0,0,0,.377,1.964l.02,0,.026,0,.032-.007a1,1,0,0,0-.378-1.964Zm7.741-1.915a1.017,1.017,0,0,0-.1.024l-.052.015a1,1,0,0,0,.455,1.945c.033-.006.066-.014.1-.023l.024-.007.018,0,.02-.006a1,1,0,0,0-.461-1.943Zm7.558-2.535a1.1,1.1,0,0,0-.18.05l-.05.02a1,1,0,0,0,.531,1.919,1.012,1.012,0,0,0,.177-.049l.012,0,.043-.017a1,1,0,0,0-.533-1.919Zm7.325-3.14a.954.954,0,0,0-.254.082l-.049.023a1,1,0,0,0,.607,1.887.958.958,0,0,0,.25-.08l.027-.012.027-.014a1,1,0,0,0-.608-1.886Zm7.045-3.73a1.008,1.008,0,0,0-.326.121l-.047.027a1,1,0,0,0,.68,1.849.99.99,0,0,0,.327-.121l.027-.016L271.51,88a1,1,0,0,0-.685-1.846Zm6.716-4.292a.991.991,0,0,0-.394.165l-.044.03a1,1,0,1,0,1.143,1.641l.046-.031a1,1,0,0,0-.751-1.8Zm6.345-4.825a.991.991,0,0,0-.459.213l-.042.035a1,1,0,0,0,1.274,1.542l.006,0,.022-.018,0,0,0,0,.008-.007a1,1,0,0,0-.815-1.755Zm5.932-5.325a1,1,0,0,0-.519.267l-.039.038a1,1,0,1,0,1.394,1.434l.024-.024.016-.015a1,1,0,0,0-.876-1.7ZM295.3,65.92a.99.99,0,0,0-.575.326l-.036.041a1,1,0,0,0,1.5,1.319l.032-.036.007-.009a1,1,0,0,0-.931-1.641Zm5-6.212a1,1,0,0,0-.627.389l-.032.043a1,1,0,0,0,1.605,1.193l.037-.049a1,1,0,0,0-.983-1.576Zm4.48-6.595a1,1,0,0,0-.673.456l-.028.046a1,1,0,1,0,1.7,1.057l.01-.016.014-.023,0-.008a1,1,0,0,0-1.026-1.512Zm3.934-6.934a1,1,0,0,0-.713.526l-.025.048a1,1,0,0,0,1.776.921l.013-.027.014-.026a1,1,0,0,0-.431-1.347.989.989,0,0,0-.634-.095Zm3.36-7.23a1,1,0,0,0-.747.6l-.021.05a1,1,0,0,0,1.844.775l.016-.037,0-.011,0-.009a1,1,0,0,0-1.1-1.368Zm2.764-7.477a1,1,0,0,0-.775.676l-.017.052a1,1,0,1,0,1.9.617l0-.005.015-.048a1,1,0,0,0-1.127-1.292Zm2.146-7.677a1,1,0,0,0-.8.755l-.012.052a1,1,0,1,0,1.946.461l.006-.028.008-.03a1,1,0,0,0-1.151-1.21Zm1.512-7.826a1,1,0,0,0-.812.835l-.008.053a1,1,0,1,0,1.978.3l.006-.042,0-.016a1,1,0,0,0-1.166-1.13Zm.868-7.924a1,1,0,0,0-.82.916l0,.054a1,1,0,0,0,.929,1.066,1.011,1.011,0,0,0,.247-.013,1,1,0,0,0,.819-.911l0-.03,0-.029a1,1,0,0,0-1.175-1.053ZM319.58.078a1,1,0,0,0-.822,1v.054a1,1,0,0,0,2-.022V1.044a1,1,0,0,0-1.013-.982.982.982,0,0,0-.165.016Z"/>
    <g>
      <path class="cls-2" d="M221.536,56.467a45,45,0,1,1-45,45A45,45,0,0,1,221.536,56.467Z"/>
      <g>
        <path class="cls-3" d="M216.564,93.949c.078.184.153.369.229.556.074-.193.152-.381.232-.569s.165-.365.256-.536l3.424-6.407a.912.912,0,0,1,.131-.192.4.4,0,0,1,.153-.1.659.659,0,0,1,.187-.04c.07-.006.153-.009.248-.009h1.624V98.217h-1.9V90.745q0-.209.012-.456c.007-.165.019-.334.036-.5l-3.5,6.56a.918.918,0,0,1-.313.347.8.8,0,0,1-.447.124h-.3a.8.8,0,0,1-.447-.124.918.918,0,0,1-.313-.347l-3.544-6.584c.022.175.036.347.044.515s.013.325.013.469v7.472h-1.9V86.648h1.624c.1,0,.179,0,.248.009a.666.666,0,0,1,.188.04.432.432,0,0,1,.156.1.789.789,0,0,1,.136.192l3.456,6.424Q216.448,93.673,216.564,93.949Z"/>
        <path class="cls-3" d="M233.537,86.648v1.769h-3.481v9.8h-2.151v-9.8h-3.5V86.648Z"/>
        <path class="cls-3" d="M192.069,108.757a8.63,8.63,0,0,0,.3,2.286,9.127,9.127,0,0,0,.875,2.114.529.529,0,0,1,.044.105.432.432,0,0,1,.01.088.2.2,0,0,1-.038.127.366.366,0,0,1-.1.087l-.435.264a10.306,10.306,0,0,1-.7-1.254,8.382,8.382,0,0,1-.467-1.248,8.693,8.693,0,0,1-.262-1.263,10.417,10.417,0,0,1,0-2.609,8.584,8.584,0,0,1,.262-1.263,8.486,8.486,0,0,1,.467-1.246,10.586,10.586,0,0,1,.7-1.259l.435.27a.369.369,0,0,1,.1.088.2.2,0,0,1,.038.126.41.41,0,0,1-.054.187,8.76,8.76,0,0,0-1.177,4.4Z"/>
        <path class="cls-3" d="M198.749,109.645c.038.1.075.2.112.294.036-.1.075-.2.115-.294s.086-.187.138-.283l2.668-4.845a.311.311,0,0,1,.148-.154.687.687,0,0,1,.22-.028h.786v7.882H202v-5.791c0-.077,0-.16,0-.248s.01-.178.017-.27l-2.7,4.928a.425.425,0,0,1-.385.248h-.154a.425.425,0,0,1-.385-.248l-2.761-4.944c.011.095.019.189.025.28s.007.177.007.254v5.791h-.934v-7.882h.786a.7.7,0,0,1,.221.028.323.323,0,0,1,.148.154l2.723,4.851A2.366,2.366,0,0,1,198.749,109.645Z"/>
        <path class="cls-3" d="M208.793,112.217h-.433a.527.527,0,0,1-.232-.044.244.244,0,0,1-.115-.188l-.11-.516q-.22.2-.429.354a2.484,2.484,0,0,1-.44.265,2.346,2.346,0,0,1-.492.162,2.875,2.875,0,0,1-.581.055,1.994,1.994,0,0,1-.607-.091,1.376,1.376,0,0,1-.492-.274,1.282,1.282,0,0,1-.333-.461,1.6,1.6,0,0,1-.124-.659,1.233,1.233,0,0,1,.181-.637,1.6,1.6,0,0,1,.586-.543,3.807,3.807,0,0,1,1.059-.39,7.167,7.167,0,0,1,1.6-.151v-.438a1.512,1.512,0,0,0-.279-.988,1.006,1.006,0,0,0-.822-.335,1.734,1.734,0,0,0-.6.091,2.253,2.253,0,0,0-.423.2c-.12.075-.222.142-.308.2a.452.452,0,0,1-.256.091.3.3,0,0,1-.174-.052.4.4,0,0,1-.118-.13l-.176-.313a3.178,3.178,0,0,1,1-.665,3.065,3.065,0,0,1,1.182-.221,2.123,2.123,0,0,1,.831.154,1.709,1.709,0,0,1,.61.429,1.794,1.794,0,0,1,.375.666,2.812,2.812,0,0,1,.125.857Zm-2.541-.6a2,2,0,0,0,.474-.052,1.947,1.947,0,0,0,.4-.148,2.339,2.339,0,0,0,.364-.234,3.374,3.374,0,0,0,.338-.314V109.72a6.486,6.486,0,0,0-1.15.086,3.22,3.22,0,0,0-.77.223,1.078,1.078,0,0,0-.432.327.7.7,0,0,0-.135.42.943.943,0,0,0,.072.382.72.72,0,0,0,.193.263.754.754,0,0,0,.285.149A1.279,1.279,0,0,0,206.252,111.617Z"/>
        <path class="cls-3" d="M211.588,104.9a.634.634,0,0,1-.057.267.769.769,0,0,1-.155.22.7.7,0,0,1-.222.151.669.669,0,0,1-.27.055.64.64,0,0,1-.266-.055.712.712,0,0,1-.221-.151.756.756,0,0,1-.151-.22.648.648,0,0,1-.055-.267.682.682,0,0,1,.055-.272.746.746,0,0,1,.151-.226.73.73,0,0,1,.221-.151.656.656,0,0,1,.266-.055.686.686,0,0,1,.27.055.722.722,0,0,1,.222.151.758.758,0,0,1,.155.226A.667.667,0,0,1,211.588,104.9Zm-.22,1.749v5.572h-.979v-5.572Z"/>
        <path class="cls-3" d="M213.1,112.217v-5.572h.583a.251.251,0,0,1,.265.2l.076.6a3.125,3.125,0,0,1,.812-.649,2.107,2.107,0,0,1,1.037-.247,1.993,1.993,0,0,1,.805.151,1.552,1.552,0,0,1,.583.429,1.873,1.873,0,0,1,.355.668,2.889,2.889,0,0,1,.121.863v3.548h-.979v-3.548a1.5,1.5,0,0,0-.289-.982,1.081,1.081,0,0,0-.882-.349,1.651,1.651,0,0,0-.812.209,2.663,2.663,0,0,0-.7.567v4.1Z"/>
        <path class="cls-3" d="M226.857,104.335v.9H224.31v6.986h-1.066v-6.986h-2.558v-.9Z"/>
        <path class="cls-3" d="M228.924,106.558a2.858,2.858,0,0,1,1.1.2,2.328,2.328,0,0,1,.836.577,2.574,2.574,0,0,1,.527.905,3.9,3.9,0,0,1,0,2.373,2.565,2.565,0,0,1-.527.9,2.309,2.309,0,0,1-.836.574,3.127,3.127,0,0,1-2.206,0,2.329,2.329,0,0,1-.839-.574,2.577,2.577,0,0,1-.533-.9,3.858,3.858,0,0,1,0-2.373,2.586,2.586,0,0,1,.533-.905,2.349,2.349,0,0,1,.839-.577A2.855,2.855,0,0,1,228.924,106.558Zm0,4.971a1.433,1.433,0,0,0,1.233-.552,3.144,3.144,0,0,0,0-3.094,1.43,1.43,0,0,0-1.233-.556,1.7,1.7,0,0,0-.725.144,1.351,1.351,0,0,0-.515.412,1.833,1.833,0,0,0-.308.663,3.941,3.941,0,0,0,0,1.773,1.816,1.816,0,0,0,.308.658,1.394,1.394,0,0,0,.515.41A1.727,1.727,0,0,0,228.924,111.529Z"/>
        <path class="cls-3" d="M233.8,104.115v4.769h.253a.458.458,0,0,0,.182-.031.5.5,0,0,0,.159-.124l1.761-1.885a.9.9,0,0,1,.165-.144.393.393,0,0,1,.22-.055h.89l-2.051,2.184a1.926,1.926,0,0,1-.151.165.888.888,0,0,1-.168.126,1.084,1.084,0,0,1,.179.151,1.579,1.579,0,0,1,.151.2l2.178,2.75h-.88a.424.424,0,0,1-.206-.047.532.532,0,0,1-.162-.146l-1.832-2.282a.42.42,0,0,0-.165-.151.631.631,0,0,0-.247-.036H233.8v2.662h-.984v-8.1Z"/>
        <path class="cls-3" d="M240.425,106.558a2.485,2.485,0,0,1,.924.167,2.076,2.076,0,0,1,.732.484,2.227,2.227,0,0,1,.481.781,3.027,3.027,0,0,1,.173,1.059.629.629,0,0,1-.05.307.2.2,0,0,1-.186.078h-3.707a3.03,3.03,0,0,0,.142.918,1.9,1.9,0,0,0,.363.652,1.444,1.444,0,0,0,.55.39,1.9,1.9,0,0,0,.716.129,2.1,2.1,0,0,0,.635-.085,2.916,2.916,0,0,0,.459-.184,3.5,3.5,0,0,0,.322-.184.434.434,0,0,1,.223-.086.216.216,0,0,1,.186.094l.276.357a1.847,1.847,0,0,1-.435.383,2.7,2.7,0,0,1-.542.267,3.423,3.423,0,0,1-.6.156,3.626,3.626,0,0,1-.61.053,2.857,2.857,0,0,1-1.064-.195,2.328,2.328,0,0,1-.841-.573,2.6,2.6,0,0,1-.553-.931,3.772,3.772,0,0,1-.2-1.277,3.252,3.252,0,0,1,.178-1.089,2.6,2.6,0,0,1,.514-.877,2.361,2.361,0,0,1,.82-.583A2.7,2.7,0,0,1,240.425,106.558Zm.022.719a1.5,1.5,0,0,0-1.116.41,1.922,1.922,0,0,0-.506,1.136h3.03a1.964,1.964,0,0,0-.094-.624,1.376,1.376,0,0,0-.274-.489,1.221,1.221,0,0,0-.444-.319A1.474,1.474,0,0,0,240.447,107.277Z"/>
        <path class="cls-3" d="M243.983,112.217v-5.572h.583a.251.251,0,0,1,.265.2l.076.6a3.121,3.121,0,0,1,.811-.649,2.112,2.112,0,0,1,1.037-.247,2,2,0,0,1,.806.151,1.56,1.56,0,0,1,.583.429,1.905,1.905,0,0,1,.355.668,2.889,2.889,0,0,1,.121.863v3.548h-.979v-3.548a1.507,1.507,0,0,0-.289-.982,1.082,1.082,0,0,0-.883-.349,1.647,1.647,0,0,0-.811.209,2.667,2.667,0,0,0-.7.567v4.1Z"/>
        <path class="cls-3" d="M250.935,108.757a8.76,8.76,0,0,0-1.177-4.4.41.41,0,0,1-.054-.187.2.2,0,0,1,.038-.126.355.355,0,0,1,.1-.088l.434-.27a10.458,10.458,0,0,1,.7,1.259,8.6,8.6,0,0,1,.467,1.246,8.716,8.716,0,0,1,.262,1.263,10.417,10.417,0,0,1,0,2.609,8.828,8.828,0,0,1-.262,1.263,8.495,8.495,0,0,1-.467,1.248,10.184,10.184,0,0,1-.7,1.254l-.434-.264a.352.352,0,0,1-.1-.087.2.2,0,0,1-.038-.127.371.371,0,0,1,.01-.088.529.529,0,0,1,.044-.105,9.127,9.127,0,0,0,.875-2.114A8.671,8.671,0,0,0,250.935,108.757Z"/>
      </g>
    </g>
    <path class="cls-4" d="M121.536,221.717a45,45,0,1,1-45,45A45,45,0,0,1,121.536,221.717Z"/>
    <g>
      <path class="cls-5" d="M115.168,259.394v4.073h-2.152V251.9h3.768a6.584,6.584,0,0,1,2.008.273,3.853,3.853,0,0,1,1.4.76,2.969,2.969,0,0,1,.816,1.168,4.075,4.075,0,0,1,.264,1.488,4.129,4.129,0,0,1-.28,1.54,3.2,3.2,0,0,1-.84,1.2,3.908,3.908,0,0,1-1.4.784,6.215,6.215,0,0,1-1.967.279Zm0-1.679h1.616a3.2,3.2,0,0,0,1.032-.149,1.9,1.9,0,0,0,.727-.423,1.748,1.748,0,0,0,.433-.672,2.573,2.573,0,0,0,.144-.884,2.328,2.328,0,0,0-.144-.84,1.671,1.671,0,0,0-.433-.641,1.92,1.92,0,0,0-.727-.4,3.393,3.393,0,0,0-1.032-.141h-1.616Z"/>
      <path class="cls-5" d="M131.1,251.9v1.769h-3.48v9.8h-2.152v-9.8h-3.5V251.9Z"/>
      <path class="cls-5" d="M85,274.007a8.671,8.671,0,0,0,.3,2.286,9.215,9.215,0,0,0,.875,2.114.431.431,0,0,1,.044.105.372.372,0,0,1,.011.088.208.208,0,0,1-.038.127.371.371,0,0,1-.1.087l-.434.264a10.173,10.173,0,0,1-.7-1.254,8.382,8.382,0,0,1-.467-1.248,8.693,8.693,0,0,1-.262-1.263,10.417,10.417,0,0,1,0-2.609,8.584,8.584,0,0,1,.262-1.263,8.486,8.486,0,0,1,.467-1.246,10.447,10.447,0,0,1,.7-1.259l.434.27a.374.374,0,0,1,.1.088.2.2,0,0,1,.038.126.4.4,0,0,1-.055.187,8.818,8.818,0,0,0-.877,2.113A8.73,8.73,0,0,0,85,274.007Z"/>
      <path class="cls-5" d="M88.834,274.519v2.948H87.772v-7.882H90.1a4.346,4.346,0,0,1,1.3.174,2.491,2.491,0,0,1,.916.492,2,2,0,0,1,.541.769,2.719,2.719,0,0,1,.179,1.007,2.557,2.557,0,0,1-.193,1.007,2.158,2.158,0,0,1-.563.786,2.623,2.623,0,0,1-.921.515,3.988,3.988,0,0,1-1.26.184Zm0-.847H90.1a2.449,2.449,0,0,0,.806-.121,1.681,1.681,0,0,0,.586-.338,1.427,1.427,0,0,0,.357-.521,1.785,1.785,0,0,0,.121-.665,1.509,1.509,0,0,0-.465-1.176,2.023,2.023,0,0,0-1.405-.424H88.834Z"/>
      <path class="cls-5" d="M94.228,277.467V271.9h.562a.3.3,0,0,1,.219.061.365.365,0,0,1,.082.209l.067.869a2.531,2.531,0,0,1,.707-.91,1.555,1.555,0,0,1,.987-.328,1.483,1.483,0,0,1,.765.2l-.127.732a.166.166,0,0,1-.171.137.844.844,0,0,1-.236-.052,1.493,1.493,0,0,0-.446-.052,1.256,1.256,0,0,0-.855.3,2.222,2.222,0,0,0-.574.863v3.548Z"/>
      <path class="cls-5" d="M100.916,271.808a2.856,2.856,0,0,1,1.1.2,2.32,2.32,0,0,1,.836.577,2.559,2.559,0,0,1,.527.9,3.9,3.9,0,0,1,0,2.373,2.55,2.55,0,0,1-.527.9,2.3,2.3,0,0,1-.836.574,3.127,3.127,0,0,1-2.206,0,2.338,2.338,0,0,1-.839-.574,2.592,2.592,0,0,1-.533-.9,3.858,3.858,0,0,1,0-2.373,2.6,2.6,0,0,1,.533-.9,2.358,2.358,0,0,1,.839-.577A2.856,2.856,0,0,1,100.916,271.808Zm0,4.971a1.432,1.432,0,0,0,1.232-.552,3.144,3.144,0,0,0,0-3.094,1.429,1.429,0,0,0-1.232-.556,1.7,1.7,0,0,0-.726.144,1.351,1.351,0,0,0-.515.412,1.832,1.832,0,0,0-.307.663,3.9,3.9,0,0,0,0,1.773,1.814,1.814,0,0,0,.307.658,1.394,1.394,0,0,0,.515.41A1.728,1.728,0,0,0,100.916,276.779Z"/>
      <path class="cls-5" d="M108.7,277.467a.249.249,0,0,1-.264-.2l-.089-.677a2.916,2.916,0,0,1-.816.695,2.083,2.083,0,0,1-1.053.262,2.008,2.008,0,0,1-.869-.185,1.79,1.79,0,0,1-.666-.542,2.566,2.566,0,0,1-.423-.89,4.554,4.554,0,0,1-.148-1.227,3.839,3.839,0,0,1,.164-1.146,2.788,2.788,0,0,1,.476-.922,2.183,2.183,0,0,1,1.768-.836,2.008,2.008,0,0,1,.875.174,2.075,2.075,0,0,1,.648.486v-3.091h.98v8.1Zm-1.9-.715a1.572,1.572,0,0,0,.839-.22,2.411,2.411,0,0,0,.662-.622v-2.7a1.545,1.545,0,0,0-.591-.508,1.691,1.691,0,0,0-.711-.147,1.412,1.412,0,0,0-1.2.556,2.593,2.593,0,0,0-.418,1.584,4.054,4.054,0,0,0,.094.933,1.77,1.77,0,0,0,.275.637,1.081,1.081,0,0,0,.445.367A1.518,1.518,0,0,0,106.8,276.752Z"/>
      <path class="cls-5" d="M111.773,271.9v3.553a1.484,1.484,0,0,0,.291.98,1.086,1.086,0,0,0,.88.345,1.677,1.677,0,0,0,.808-.2,2.493,2.493,0,0,0,.7-.566V271.9h.979v5.572h-.583a.249.249,0,0,1-.263-.2l-.078-.6a3.069,3.069,0,0,1-.814.646,2.127,2.127,0,0,1-1.034.245,2.012,2.012,0,0,1-.806-.152,1.59,1.59,0,0,1-.586-.426,1.816,1.816,0,0,1-.354-.666,2.952,2.952,0,0,1-.119-.863V271.9Z"/>
      <path class="cls-5" d="M120.842,272.886a.39.39,0,0,1-.088.092.2.2,0,0,1-.127.034.314.314,0,0,1-.178-.069,2.662,2.662,0,0,0-.244-.151,1.962,1.962,0,0,0-.361-.151,1.906,1.906,0,0,0-1.24.077,1.371,1.371,0,0,0-.525.421,1.889,1.889,0,0,0-.32.665,3.318,3.318,0,0,0-.107.875,3.186,3.186,0,0,0,.116.9,1.939,1.939,0,0,0,.324.66,1.383,1.383,0,0,0,.509.407,1.563,1.563,0,0,0,.674.141,1.691,1.691,0,0,0,.588-.086,1.8,1.8,0,0,0,.386-.189,2.92,2.92,0,0,0,.252-.19.311.311,0,0,1,.2-.086.206.206,0,0,1,.186.094l.276.357a2.128,2.128,0,0,1-.909.653,3.223,3.223,0,0,1-1.149.206,2.46,2.46,0,0,1-.971-.192,2.228,2.228,0,0,1-.778-.559,2.664,2.664,0,0,1-.52-.9,3.629,3.629,0,0,1-.189-1.215,3.693,3.693,0,0,1,.173-1.151,2.6,2.6,0,0,1,.506-.91,2.3,2.3,0,0,1,.822-.6,2.786,2.786,0,0,1,1.122-.213A2.638,2.638,0,0,1,120.3,272a2.5,2.5,0,0,1,.8.536Z"/>
      <path class="cls-5" d="M123.867,277.555a1.342,1.342,0,0,1-1.015-.369,1.472,1.472,0,0,1-.354-1.061v-3.41h-.671a.219.219,0,0,1-.149-.053.2.2,0,0,1-.06-.162v-.391l.913-.115.225-1.722a.205.205,0,0,1,.072-.134.224.224,0,0,1,.154-.052h.494v1.919h1.6v.71h-1.6v3.344a.711.711,0,0,0,.171.522.6.6,0,0,0,.44.171.789.789,0,0,0,.267-.041,1.276,1.276,0,0,0,.2-.091c.055-.033.1-.063.14-.091a.187.187,0,0,1,.1-.041.168.168,0,0,1,.137.093l.286.468a1.841,1.841,0,0,1-.61.371A2.068,2.068,0,0,1,123.867,277.555Z"/>
      <path class="cls-5" d="M133.926,269.585v.9h-2.547v6.986h-1.066v-6.986h-2.558v-.9Z"/>
      <path class="cls-5" d="M135.994,271.808a2.856,2.856,0,0,1,1.1.2,2.32,2.32,0,0,1,.836.577,2.559,2.559,0,0,1,.527.9,3.9,3.9,0,0,1,0,2.373,2.55,2.55,0,0,1-.527.9,2.3,2.3,0,0,1-.836.574,3.127,3.127,0,0,1-2.206,0,2.338,2.338,0,0,1-.839-.574,2.592,2.592,0,0,1-.533-.9,3.877,3.877,0,0,1,0-2.373,2.6,2.6,0,0,1,.533-.9,2.358,2.358,0,0,1,.839-.577A2.856,2.856,0,0,1,135.994,271.808Zm0,4.971a1.431,1.431,0,0,0,1.232-.552,3.144,3.144,0,0,0,0-3.094,1.428,1.428,0,0,0-1.232-.556,1.7,1.7,0,0,0-.726.144,1.351,1.351,0,0,0-.515.412,1.832,1.832,0,0,0-.307.663,3.9,3.9,0,0,0,0,1.773,1.814,1.814,0,0,0,.307.658,1.394,1.394,0,0,0,.515.41A1.728,1.728,0,0,0,135.994,276.779Z"/>
      <path class="cls-5" d="M140.873,269.365v4.769h.253a.452.452,0,0,0,.181-.031.486.486,0,0,0,.159-.124l1.761-1.885a.929.929,0,0,1,.165-.144.4.4,0,0,1,.22-.055h.89l-2.05,2.184a2.106,2.106,0,0,1-.152.165.858.858,0,0,1-.168.126,1.045,1.045,0,0,1,.179.151,1.407,1.407,0,0,1,.151.2l2.178,2.75h-.88a.424.424,0,0,1-.206-.047.543.543,0,0,1-.162-.146l-1.832-2.282a.414.414,0,0,0-.165-.151.631.631,0,0,0-.247-.036h-.275v2.662h-.985v-8.1Z"/>
      <path class="cls-5" d="M147.5,271.808a2.479,2.479,0,0,1,.923.167,2.067,2.067,0,0,1,.732.484,2.227,2.227,0,0,1,.481.781,3,3,0,0,1,.173,1.059.617.617,0,0,1-.05.307.2.2,0,0,1-.186.078h-3.707a3.094,3.094,0,0,0,.142.918,1.882,1.882,0,0,0,.364.652,1.437,1.437,0,0,0,.55.39,1.89,1.89,0,0,0,.715.129,2.1,2.1,0,0,0,.635-.085,2.916,2.916,0,0,0,.459-.184,3.5,3.5,0,0,0,.322-.184.437.437,0,0,1,.223-.086.217.217,0,0,1,.187.094l.275.357a1.847,1.847,0,0,1-.435.383,2.678,2.678,0,0,1-.542.267,3.412,3.412,0,0,1-.6.156,3.629,3.629,0,0,1-.611.053,2.86,2.86,0,0,1-1.064-.195,2.336,2.336,0,0,1-.841-.573,2.613,2.613,0,0,1-.553-.931,3.8,3.8,0,0,1-.2-1.277,3.252,3.252,0,0,1,.179-1.089,2.579,2.579,0,0,1,.513-.877,2.365,2.365,0,0,1,.821-.583A2.688,2.688,0,0,1,147.5,271.808Zm.021.719a1.5,1.5,0,0,0-1.116.41,1.922,1.922,0,0,0-.506,1.136h3.03a1.993,1.993,0,0,0-.093-.624,1.393,1.393,0,0,0-.275-.489,1.217,1.217,0,0,0-.443-.319A1.478,1.478,0,0,0,147.516,272.527Z"/>
      <path class="cls-5" d="M151.052,277.467V271.9h.583a.251.251,0,0,1,.265.2l.076.605a3.125,3.125,0,0,1,.812-.649,2.107,2.107,0,0,1,1.037-.247,1.993,1.993,0,0,1,.805.151,1.552,1.552,0,0,1,.583.429,1.873,1.873,0,0,1,.355.668,2.889,2.889,0,0,1,.121.863v3.548h-.979v-3.548a1.5,1.5,0,0,0-.289-.982,1.081,1.081,0,0,0-.882-.349,1.651,1.651,0,0,0-.812.209,2.663,2.663,0,0,0-.695.567v4.1Z"/>
      <path class="cls-5" d="M158,274.007a8.73,8.73,0,0,0-.3-2.287,8.818,8.818,0,0,0-.877-2.113.413.413,0,0,1-.055-.187.2.2,0,0,1,.038-.126.359.359,0,0,1,.1-.088l.433-.27a10.322,10.322,0,0,1,.7,1.259,8.486,8.486,0,0,1,.467,1.246,8.716,8.716,0,0,1,.262,1.263,10.417,10.417,0,0,1,0,2.609,8.828,8.828,0,0,1-.262,1.263,8.382,8.382,0,0,1-.467,1.248,10.055,10.055,0,0,1-.7,1.254l-.433-.264a.357.357,0,0,1-.1-.087.208.208,0,0,1-.038-.127.327.327,0,0,1,.011-.088.475.475,0,0,1,.044-.105,9.17,9.17,0,0,0,.875-2.114A8.671,8.671,0,0,0,158,274.007Z"/>
    </g>
    <path class="cls-4" d="M221.536,321.717a45,45,0,1,1-45,45A45,45,0,0,1,221.536,321.717Z"/>
    <g>
      <path class="cls-5" d="M215.168,359.394v4.073h-2.151V351.9h3.768a6.584,6.584,0,0,1,2.008.273,3.853,3.853,0,0,1,1.4.76,2.969,2.969,0,0,1,.816,1.168,4.075,4.075,0,0,1,.264,1.488,4.129,4.129,0,0,1-.28,1.54,3.2,3.2,0,0,1-.84,1.2,3.908,3.908,0,0,1-1.4.784,6.215,6.215,0,0,1-1.967.279Zm0-1.679h1.617a3.2,3.2,0,0,0,1.032-.149,1.9,1.9,0,0,0,.727-.423,1.748,1.748,0,0,0,.433-.672,2.573,2.573,0,0,0,.144-.884,2.328,2.328,0,0,0-.144-.84,1.671,1.671,0,0,0-.433-.641,1.92,1.92,0,0,0-.727-.4,3.393,3.393,0,0,0-1.032-.141h-1.617Z"/>
      <path class="cls-5" d="M231.1,351.9v1.769h-3.48v9.8h-2.152v-9.8h-3.5V351.9Z"/>
      <path class="cls-5" d="M185,374.007a8.671,8.671,0,0,0,.3,2.286,9.215,9.215,0,0,0,.875,2.114.431.431,0,0,1,.044.105.372.372,0,0,1,.011.088.208.208,0,0,1-.038.127.371.371,0,0,1-.1.087l-.434.264a10.173,10.173,0,0,1-.7-1.254,8.382,8.382,0,0,1-.467-1.248,8.693,8.693,0,0,1-.262-1.263,10.417,10.417,0,0,1,0-2.609,8.584,8.584,0,0,1,.262-1.263,8.486,8.486,0,0,1,.467-1.246,10.447,10.447,0,0,1,.7-1.259l.434.27a.374.374,0,0,1,.1.088.2.2,0,0,1,.038.126.4.4,0,0,1-.055.187,8.818,8.818,0,0,0-.877,2.113A8.73,8.73,0,0,0,185,374.007Z"/>
      <path class="cls-5" d="M188.834,374.519v2.948h-1.061v-7.882H190.1a4.346,4.346,0,0,1,1.3.174,2.491,2.491,0,0,1,.916.492,2,2,0,0,1,.541.769,2.719,2.719,0,0,1,.179,1.007,2.557,2.557,0,0,1-.193,1.007,2.158,2.158,0,0,1-.563.786,2.623,2.623,0,0,1-.921.515,3.988,3.988,0,0,1-1.26.184Zm0-.847H190.1a2.449,2.449,0,0,0,.806-.121,1.681,1.681,0,0,0,.586-.338,1.427,1.427,0,0,0,.357-.521,1.785,1.785,0,0,0,.121-.665,1.509,1.509,0,0,0-.465-1.176,2.023,2.023,0,0,0-1.405-.424h-1.265Z"/>
      <path class="cls-5" d="M194.229,377.467V371.9h.562a.3.3,0,0,1,.219.061.365.365,0,0,1,.082.209l.067.869a2.531,2.531,0,0,1,.707-.91,1.555,1.555,0,0,1,.987-.328,1.483,1.483,0,0,1,.765.2l-.127.732a.166.166,0,0,1-.171.137.844.844,0,0,1-.236-.052,1.493,1.493,0,0,0-.446-.052,1.256,1.256,0,0,0-.855.3,2.222,2.222,0,0,0-.574.863v3.548Z"/>
      <path class="cls-5" d="M200.917,371.808a2.856,2.856,0,0,1,1.1.2,2.328,2.328,0,0,1,.836.577,2.574,2.574,0,0,1,.527.9,3.9,3.9,0,0,1,0,2.373,2.565,2.565,0,0,1-.527.9,2.309,2.309,0,0,1-.836.574,3.127,3.127,0,0,1-2.206,0,2.338,2.338,0,0,1-.839-.574,2.592,2.592,0,0,1-.533-.9,3.858,3.858,0,0,1,0-2.373,2.6,2.6,0,0,1,.533-.9,2.358,2.358,0,0,1,.839-.577A2.856,2.856,0,0,1,200.917,371.808Zm0,4.971a1.432,1.432,0,0,0,1.232-.552,3.144,3.144,0,0,0,0-3.094,1.429,1.429,0,0,0-1.232-.556,1.7,1.7,0,0,0-.726.144,1.351,1.351,0,0,0-.515.412,1.832,1.832,0,0,0-.307.663,3.9,3.9,0,0,0,0,1.773,1.814,1.814,0,0,0,.307.658,1.394,1.394,0,0,0,.515.41A1.728,1.728,0,0,0,200.917,376.779Z"/>
      <path class="cls-5" d="M208.7,377.467a.249.249,0,0,1-.264-.2l-.089-.677a2.916,2.916,0,0,1-.816.695,2.083,2.083,0,0,1-1.053.262,2.008,2.008,0,0,1-.869-.185,1.782,1.782,0,0,1-.666-.542,2.566,2.566,0,0,1-.423-.89,4.554,4.554,0,0,1-.148-1.227,3.839,3.839,0,0,1,.164-1.146,2.788,2.788,0,0,1,.476-.922,2.183,2.183,0,0,1,1.768-.836,2.008,2.008,0,0,1,.875.174,2.075,2.075,0,0,1,.648.486v-3.091h.98v8.1Zm-1.9-.715a1.572,1.572,0,0,0,.839-.22,2.411,2.411,0,0,0,.662-.622v-2.7a1.545,1.545,0,0,0-.591-.508,1.691,1.691,0,0,0-.711-.147,1.412,1.412,0,0,0-1.2.556,2.593,2.593,0,0,0-.418,1.584,4.054,4.054,0,0,0,.094.933,1.787,1.787,0,0,0,.274.637,1.09,1.09,0,0,0,.446.367A1.518,1.518,0,0,0,206.8,376.752Z"/>
      <path class="cls-5" d="M211.774,371.9v3.553a1.484,1.484,0,0,0,.291.98,1.086,1.086,0,0,0,.88.345,1.677,1.677,0,0,0,.808-.2,2.493,2.493,0,0,0,.7-.566V371.9h.979v5.572h-.583a.25.25,0,0,1-.264-.2l-.077-.6a3.069,3.069,0,0,1-.814.646,2.127,2.127,0,0,1-1.034.245,2.012,2.012,0,0,1-.806-.152,1.59,1.59,0,0,1-.586-.426,1.816,1.816,0,0,1-.354-.666,2.952,2.952,0,0,1-.119-.863V371.9Z"/>
      <path class="cls-5" d="M220.843,372.886a.39.39,0,0,1-.088.092.2.2,0,0,1-.127.034.314.314,0,0,1-.178-.069,2.662,2.662,0,0,0-.244-.151,1.962,1.962,0,0,0-.361-.151,1.906,1.906,0,0,0-1.24.077,1.371,1.371,0,0,0-.525.421,1.889,1.889,0,0,0-.32.665,3.318,3.318,0,0,0-.107.875,3.186,3.186,0,0,0,.116.9,1.939,1.939,0,0,0,.324.66,1.383,1.383,0,0,0,.509.407,1.563,1.563,0,0,0,.674.141,1.691,1.691,0,0,0,.588-.086,1.8,1.8,0,0,0,.386-.189,2.92,2.92,0,0,0,.252-.19.311.311,0,0,1,.2-.086.206.206,0,0,1,.186.094l.276.357a2.128,2.128,0,0,1-.909.653,3.223,3.223,0,0,1-1.149.206,2.46,2.46,0,0,1-.971-.192,2.228,2.228,0,0,1-.778-.559,2.664,2.664,0,0,1-.52-.9,3.629,3.629,0,0,1-.189-1.215,3.693,3.693,0,0,1,.173-1.151,2.6,2.6,0,0,1,.506-.91,2.3,2.3,0,0,1,.822-.6,2.786,2.786,0,0,1,1.122-.213A2.638,2.638,0,0,1,220.3,372a2.5,2.5,0,0,1,.8.536Z"/>
      <path class="cls-5" d="M223.868,377.555a1.342,1.342,0,0,1-1.015-.369,1.472,1.472,0,0,1-.354-1.061v-3.41h-.671a.219.219,0,0,1-.149-.053.2.2,0,0,1-.06-.162v-.391l.913-.115.225-1.722a.205.205,0,0,1,.072-.134.224.224,0,0,1,.154-.052h.494v1.919h1.6v.71h-1.6v3.344a.711.711,0,0,0,.171.522.6.6,0,0,0,.44.171.789.789,0,0,0,.267-.041,1.276,1.276,0,0,0,.2-.091c.055-.033.1-.063.14-.091a.187.187,0,0,1,.1-.041.168.168,0,0,1,.137.093l.286.468a1.841,1.841,0,0,1-.61.371A2.068,2.068,0,0,1,223.868,377.555Z"/>
      <path class="cls-5" d="M233.927,369.585v.9H231.38v6.986h-1.066v-6.986h-2.558v-.9Z"/>
      <path class="cls-5" d="M236,371.808a2.856,2.856,0,0,1,1.1.2,2.32,2.32,0,0,1,.836.577,2.559,2.559,0,0,1,.527.9,3.9,3.9,0,0,1,0,2.373,2.55,2.55,0,0,1-.527.9,2.3,2.3,0,0,1-.836.574,3.127,3.127,0,0,1-2.206,0,2.338,2.338,0,0,1-.839-.574,2.592,2.592,0,0,1-.533-.9,3.877,3.877,0,0,1,0-2.373,2.6,2.6,0,0,1,.533-.9,2.358,2.358,0,0,1,.839-.577A2.856,2.856,0,0,1,236,371.808Zm0,4.971a1.431,1.431,0,0,0,1.232-.552,3.144,3.144,0,0,0,0-3.094,1.428,1.428,0,0,0-1.232-.556,1.7,1.7,0,0,0-.726.144,1.351,1.351,0,0,0-.515.412,1.832,1.832,0,0,0-.307.663,3.9,3.9,0,0,0,0,1.773,1.814,1.814,0,0,0,.307.658,1.394,1.394,0,0,0,.515.41A1.728,1.728,0,0,0,236,376.779Z"/>
      <path class="cls-5" d="M240.874,369.365v4.769h.252a.454.454,0,0,0,.182-.031.486.486,0,0,0,.159-.124l1.761-1.885a.929.929,0,0,1,.165-.144.4.4,0,0,1,.22-.055h.89l-2.05,2.184a2.106,2.106,0,0,1-.152.165.888.888,0,0,1-.168.126,1.045,1.045,0,0,1,.179.151,1.407,1.407,0,0,1,.151.2l2.178,2.75h-.88a.424.424,0,0,1-.206-.047.543.543,0,0,1-.162-.146l-1.832-2.282a.414.414,0,0,0-.165-.151.631.631,0,0,0-.247-.036h-.275v2.662h-.985v-8.1Z"/>
      <path class="cls-5" d="M247.5,371.808a2.479,2.479,0,0,1,.923.167,2.067,2.067,0,0,1,.732.484,2.227,2.227,0,0,1,.481.781,3,3,0,0,1,.173,1.059.617.617,0,0,1-.05.307.2.2,0,0,1-.186.078h-3.707a3.094,3.094,0,0,0,.142.918,1.882,1.882,0,0,0,.364.652,1.437,1.437,0,0,0,.55.39,1.89,1.89,0,0,0,.715.129,2.1,2.1,0,0,0,.635-.085,2.916,2.916,0,0,0,.459-.184,3.5,3.5,0,0,0,.322-.184.434.434,0,0,1,.223-.086.217.217,0,0,1,.187.094l.275.357a1.847,1.847,0,0,1-.435.383,2.678,2.678,0,0,1-.542.267,3.412,3.412,0,0,1-.6.156,3.638,3.638,0,0,1-.611.053,2.86,2.86,0,0,1-1.064-.195,2.336,2.336,0,0,1-.841-.573,2.613,2.613,0,0,1-.553-.931,3.772,3.772,0,0,1-.2-1.277,3.252,3.252,0,0,1,.179-1.089,2.579,2.579,0,0,1,.513-.877,2.365,2.365,0,0,1,.821-.583A2.688,2.688,0,0,1,247.5,371.808Zm.021.719a1.5,1.5,0,0,0-1.116.41,1.922,1.922,0,0,0-.506,1.136h3.03a1.993,1.993,0,0,0-.093-.624,1.393,1.393,0,0,0-.275-.489,1.217,1.217,0,0,0-.443-.319A1.478,1.478,0,0,0,247.517,372.527Z"/>
      <path class="cls-5" d="M251.053,377.467V371.9h.583a.251.251,0,0,1,.265.2l.076.605a3.125,3.125,0,0,1,.812-.649,2.107,2.107,0,0,1,1.037-.247,1.993,1.993,0,0,1,.805.151,1.552,1.552,0,0,1,.583.429,1.873,1.873,0,0,1,.355.668,2.889,2.889,0,0,1,.121.863v3.548h-.979v-3.548a1.5,1.5,0,0,0-.289-.982,1.081,1.081,0,0,0-.882-.349,1.651,1.651,0,0,0-.812.209,2.663,2.663,0,0,0-.7.567v4.1Z"/>
      <path class="cls-5" d="M258.005,374.007a8.73,8.73,0,0,0-.3-2.287,8.818,8.818,0,0,0-.877-2.113.413.413,0,0,1-.055-.187.2.2,0,0,1,.038-.126.359.359,0,0,1,.1-.088l.433-.27a10.322,10.322,0,0,1,.7,1.259,8.486,8.486,0,0,1,.467,1.246,8.716,8.716,0,0,1,.262,1.263,10.417,10.417,0,0,1,0,2.609,8.828,8.828,0,0,1-.262,1.263,8.382,8.382,0,0,1-.467,1.248,10.055,10.055,0,0,1-.7,1.254l-.433-.264a.357.357,0,0,1-.1-.087.208.208,0,0,1-.038-.127.327.327,0,0,1,.011-.088.475.475,0,0,1,.044-.105,9.215,9.215,0,0,0,.875-2.114A8.671,8.671,0,0,0,258.005,374.007Z"/>
    </g>
    <path class="cls-4" d="M321.536,221.717a45,45,0,1,1-45,45A45,45,0,0,1,321.536,221.717Z"/>
    <g>
      <path class="cls-5" d="M315.168,259.394v4.073h-2.152V251.9h3.768a6.584,6.584,0,0,1,2.008.273,3.853,3.853,0,0,1,1.4.76,2.969,2.969,0,0,1,.816,1.168,4.075,4.075,0,0,1,.264,1.488,4.129,4.129,0,0,1-.28,1.54,3.2,3.2,0,0,1-.84,1.2,3.908,3.908,0,0,1-1.4.784,6.215,6.215,0,0,1-1.967.279Zm0-1.679h1.616a3.2,3.2,0,0,0,1.032-.149,1.9,1.9,0,0,0,.727-.423,1.748,1.748,0,0,0,.433-.672,2.573,2.573,0,0,0,.144-.884,2.328,2.328,0,0,0-.144-.84,1.671,1.671,0,0,0-.433-.641,1.92,1.92,0,0,0-.727-.4,3.393,3.393,0,0,0-1.032-.141h-1.616Z"/>
      <path class="cls-5" d="M331.1,251.9v1.769h-3.48v9.8h-2.152v-9.8h-3.5V251.9Z"/>
      <path class="cls-5" d="M285,274.007a8.671,8.671,0,0,0,.3,2.286,9.215,9.215,0,0,0,.875,2.114.431.431,0,0,1,.044.105.372.372,0,0,1,.011.088.208.208,0,0,1-.038.127.371.371,0,0,1-.1.087l-.434.264a10.173,10.173,0,0,1-.7-1.254,8.382,8.382,0,0,1-.467-1.248,8.693,8.693,0,0,1-.262-1.263,10.417,10.417,0,0,1,0-2.609,8.584,8.584,0,0,1,.262-1.263,8.486,8.486,0,0,1,.467-1.246,10.447,10.447,0,0,1,.7-1.259l.434.27a.374.374,0,0,1,.1.088.2.2,0,0,1,.038.126.4.4,0,0,1-.055.187,8.818,8.818,0,0,0-.877,2.113A8.73,8.73,0,0,0,285,274.007Z"/>
      <path class="cls-5" d="M288.834,274.519v2.948h-1.062v-7.882H290.1a4.346,4.346,0,0,1,1.3.174,2.491,2.491,0,0,1,.916.492,2,2,0,0,1,.541.769,2.719,2.719,0,0,1,.179,1.007,2.557,2.557,0,0,1-.193,1.007,2.158,2.158,0,0,1-.563.786,2.623,2.623,0,0,1-.921.515,3.988,3.988,0,0,1-1.26.184Zm0-.847H290.1a2.449,2.449,0,0,0,.806-.121,1.681,1.681,0,0,0,.586-.338,1.427,1.427,0,0,0,.357-.521,1.785,1.785,0,0,0,.121-.665,1.509,1.509,0,0,0-.465-1.176,2.023,2.023,0,0,0-1.4-.424h-1.264Z"/>
      <path class="cls-5" d="M294.228,277.467V271.9h.562a.3.3,0,0,1,.219.061.365.365,0,0,1,.082.209l.067.869a2.531,2.531,0,0,1,.707-.91,1.555,1.555,0,0,1,.987-.328,1.483,1.483,0,0,1,.765.2l-.127.732a.166.166,0,0,1-.171.137.844.844,0,0,1-.236-.052,1.493,1.493,0,0,0-.446-.052,1.256,1.256,0,0,0-.855.3,2.222,2.222,0,0,0-.574.863v3.548Z"/>
      <path class="cls-5" d="M300.916,271.808a2.856,2.856,0,0,1,1.1.2,2.32,2.32,0,0,1,.836.577,2.559,2.559,0,0,1,.527.9,3.9,3.9,0,0,1,0,2.373,2.55,2.55,0,0,1-.527.9,2.3,2.3,0,0,1-.836.574,3.127,3.127,0,0,1-2.206,0,2.338,2.338,0,0,1-.839-.574,2.592,2.592,0,0,1-.533-.9,3.858,3.858,0,0,1,0-2.373,2.6,2.6,0,0,1,.533-.9,2.358,2.358,0,0,1,.839-.577A2.856,2.856,0,0,1,300.916,271.808Zm0,4.971a1.432,1.432,0,0,0,1.232-.552,3.144,3.144,0,0,0,0-3.094,1.429,1.429,0,0,0-1.232-.556,1.7,1.7,0,0,0-.726.144,1.351,1.351,0,0,0-.515.412,1.832,1.832,0,0,0-.307.663,3.9,3.9,0,0,0,0,1.773,1.814,1.814,0,0,0,.307.658,1.394,1.394,0,0,0,.515.41A1.728,1.728,0,0,0,300.916,276.779Z"/>
      <path class="cls-5" d="M308.7,277.467a.249.249,0,0,1-.264-.2l-.089-.677a2.916,2.916,0,0,1-.816.695,2.083,2.083,0,0,1-1.053.262,2.008,2.008,0,0,1-.869-.185,1.79,1.79,0,0,1-.666-.542,2.566,2.566,0,0,1-.423-.89,4.554,4.554,0,0,1-.148-1.227,3.839,3.839,0,0,1,.164-1.146,2.788,2.788,0,0,1,.476-.922,2.183,2.183,0,0,1,1.768-.836,2.008,2.008,0,0,1,.875.174,2.075,2.075,0,0,1,.648.486v-3.091h.98v8.1Zm-1.9-.715a1.572,1.572,0,0,0,.839-.22,2.411,2.411,0,0,0,.662-.622v-2.7a1.545,1.545,0,0,0-.591-.508,1.691,1.691,0,0,0-.711-.147,1.412,1.412,0,0,0-1.2.556,2.593,2.593,0,0,0-.418,1.584,4.054,4.054,0,0,0,.094.933,1.77,1.77,0,0,0,.275.637,1.081,1.081,0,0,0,.445.367A1.518,1.518,0,0,0,306.8,276.752Z"/>
      <path class="cls-5" d="M311.773,271.9v3.553a1.484,1.484,0,0,0,.291.98,1.086,1.086,0,0,0,.88.345,1.677,1.677,0,0,0,.808-.2,2.493,2.493,0,0,0,.7-.566V271.9h.979v5.572h-.583a.249.249,0,0,1-.263-.2l-.078-.6a3.069,3.069,0,0,1-.814.646,2.127,2.127,0,0,1-1.034.245,2.012,2.012,0,0,1-.806-.152,1.59,1.59,0,0,1-.586-.426,1.816,1.816,0,0,1-.354-.666,2.952,2.952,0,0,1-.119-.863V271.9Z"/>
      <path class="cls-5" d="M320.842,272.886a.39.39,0,0,1-.088.092.2.2,0,0,1-.127.034.314.314,0,0,1-.178-.069,2.662,2.662,0,0,0-.244-.151,1.962,1.962,0,0,0-.361-.151,1.906,1.906,0,0,0-1.24.077,1.371,1.371,0,0,0-.525.421,1.889,1.889,0,0,0-.32.665,3.318,3.318,0,0,0-.107.875,3.186,3.186,0,0,0,.116.9,1.939,1.939,0,0,0,.324.66,1.383,1.383,0,0,0,.509.407,1.563,1.563,0,0,0,.674.141,1.691,1.691,0,0,0,.588-.086,1.8,1.8,0,0,0,.386-.189,2.92,2.92,0,0,0,.252-.19.311.311,0,0,1,.2-.086.206.206,0,0,1,.186.094l.276.357a2.128,2.128,0,0,1-.909.653,3.223,3.223,0,0,1-1.149.206,2.46,2.46,0,0,1-.971-.192,2.228,2.228,0,0,1-.778-.559,2.664,2.664,0,0,1-.52-.9,3.629,3.629,0,0,1-.189-1.215,3.693,3.693,0,0,1,.173-1.151,2.6,2.6,0,0,1,.506-.91,2.3,2.3,0,0,1,.822-.6,2.786,2.786,0,0,1,1.122-.213A2.638,2.638,0,0,1,320.3,272a2.5,2.5,0,0,1,.8.536Z"/>
      <path class="cls-5" d="M323.867,277.555a1.342,1.342,0,0,1-1.015-.369,1.472,1.472,0,0,1-.354-1.061v-3.41h-.671a.219.219,0,0,1-.149-.053.2.2,0,0,1-.06-.162v-.391l.913-.115.225-1.722a.205.205,0,0,1,.072-.134.224.224,0,0,1,.154-.052h.494v1.919h1.6v.71h-1.6v3.344a.711.711,0,0,0,.171.522.6.6,0,0,0,.44.171.789.789,0,0,0,.267-.041,1.276,1.276,0,0,0,.195-.091c.055-.033.1-.063.14-.091a.187.187,0,0,1,.1-.041.168.168,0,0,1,.137.093l.286.468a1.841,1.841,0,0,1-.61.371A2.068,2.068,0,0,1,323.867,277.555Z"/>
      <path class="cls-5" d="M333.926,269.585v.9h-2.547v6.986h-1.066v-6.986h-2.558v-.9Z"/>
      <path class="cls-5" d="M335.994,271.808a2.856,2.856,0,0,1,1.1.2,2.32,2.32,0,0,1,.836.577,2.559,2.559,0,0,1,.527.9,3.9,3.9,0,0,1,0,2.373,2.55,2.55,0,0,1-.527.9,2.3,2.3,0,0,1-.836.574,3.127,3.127,0,0,1-2.206,0,2.338,2.338,0,0,1-.839-.574,2.592,2.592,0,0,1-.533-.9,3.877,3.877,0,0,1,0-2.373,2.6,2.6,0,0,1,.533-.9,2.358,2.358,0,0,1,.839-.577A2.856,2.856,0,0,1,335.994,271.808Zm0,4.971a1.431,1.431,0,0,0,1.232-.552,3.144,3.144,0,0,0,0-3.094,1.428,1.428,0,0,0-1.232-.556,1.7,1.7,0,0,0-.726.144,1.351,1.351,0,0,0-.515.412,1.832,1.832,0,0,0-.307.663,3.9,3.9,0,0,0,0,1.773,1.814,1.814,0,0,0,.307.658,1.394,1.394,0,0,0,.515.41A1.728,1.728,0,0,0,335.994,276.779Z"/>
      <path class="cls-5" d="M340.873,269.365v4.769h.253a.452.452,0,0,0,.181-.031.486.486,0,0,0,.159-.124l1.761-1.885a.929.929,0,0,1,.165-.144.4.4,0,0,1,.22-.055h.89l-2.05,2.184a2.106,2.106,0,0,1-.152.165.858.858,0,0,1-.168.126,1.045,1.045,0,0,1,.179.151,1.407,1.407,0,0,1,.151.2l2.178,2.75h-.88a.424.424,0,0,1-.206-.047.543.543,0,0,1-.162-.146l-1.832-2.282a.414.414,0,0,0-.165-.151.631.631,0,0,0-.247-.036h-.275v2.662h-.985v-8.1Z"/>
      <path class="cls-5" d="M347.5,271.808a2.479,2.479,0,0,1,.923.167,2.067,2.067,0,0,1,.732.484,2.227,2.227,0,0,1,.481.781,3,3,0,0,1,.173,1.059.617.617,0,0,1-.05.307.2.2,0,0,1-.186.078h-3.707a3.094,3.094,0,0,0,.142.918,1.882,1.882,0,0,0,.364.652,1.437,1.437,0,0,0,.55.39,1.89,1.89,0,0,0,.715.129,2.1,2.1,0,0,0,.635-.085,2.916,2.916,0,0,0,.459-.184,3.5,3.5,0,0,0,.322-.184.437.437,0,0,1,.223-.086.217.217,0,0,1,.187.094l.275.357a1.847,1.847,0,0,1-.435.383,2.678,2.678,0,0,1-.542.267,3.412,3.412,0,0,1-.6.156,3.629,3.629,0,0,1-.611.053,2.86,2.86,0,0,1-1.064-.195,2.336,2.336,0,0,1-.841-.573,2.613,2.613,0,0,1-.553-.931,3.8,3.8,0,0,1-.2-1.277,3.252,3.252,0,0,1,.179-1.089,2.579,2.579,0,0,1,.513-.877,2.365,2.365,0,0,1,.821-.583A2.688,2.688,0,0,1,347.5,271.808Zm.021.719a1.5,1.5,0,0,0-1.116.41,1.922,1.922,0,0,0-.506,1.136h3.03a1.993,1.993,0,0,0-.093-.624,1.393,1.393,0,0,0-.275-.489,1.217,1.217,0,0,0-.443-.319A1.478,1.478,0,0,0,347.516,272.527Z"/>
      <path class="cls-5" d="M351.052,277.467V271.9h.583a.251.251,0,0,1,.265.2l.076.605a3.125,3.125,0,0,1,.812-.649,2.107,2.107,0,0,1,1.037-.247,1.993,1.993,0,0,1,.805.151,1.552,1.552,0,0,1,.583.429,1.873,1.873,0,0,1,.355.668,2.889,2.889,0,0,1,.121.863v3.548h-.979v-3.548a1.5,1.5,0,0,0-.289-.982,1.081,1.081,0,0,0-.882-.349,1.651,1.651,0,0,0-.812.209,2.663,2.663,0,0,0-.695.567v4.1Z"/>
      <path class="cls-5" d="M358,274.007a8.73,8.73,0,0,0-.3-2.287,8.818,8.818,0,0,0-.877-2.113.413.413,0,0,1-.055-.187.2.2,0,0,1,.038-.126.359.359,0,0,1,.1-.088l.433-.27a10.322,10.322,0,0,1,.7,1.259,8.486,8.486,0,0,1,.467,1.246,8.716,8.716,0,0,1,.262,1.263,10.417,10.417,0,0,1,0,2.609,8.828,8.828,0,0,1-.262,1.263,8.382,8.382,0,0,1-.467,1.248,10.055,10.055,0,0,1-.7,1.254l-.433-.264a.357.357,0,0,1-.1-.087.208.208,0,0,1-.038-.127.327.327,0,0,1,.011-.088.475.475,0,0,1,.044-.105,9.17,9.17,0,0,0,.875-2.114A8.671,8.671,0,0,0,358,274.007Z"/>
    </g>
    <g>
      <path class="cls-5" d="M216.684,258.727c.057.141.111.284.164.428.054-.149.11-.292.168-.428s.126-.274.2-.413l3.88-7.047a.459.459,0,0,1,.217-.224,1.007,1.007,0,0,1,.319-.04h1.145v11.464h-1.36v-8.424c0-.112,0-.233.007-.36s.014-.259.025-.392l-3.928,7.168a.617.617,0,0,1-.561.359h-.223a.618.618,0,0,1-.561-.359l-4.015-7.192c.015.138.028.275.036.408s.012.256.012.368v8.424h-1.361V251h1.145a1.018,1.018,0,0,1,.32.04.462.462,0,0,1,.216.224l3.96,7.056A3.072,3.072,0,0,1,216.684,258.727Z"/>
      <path class="cls-5" d="M233.376,251v1.3h-3.7v10.16h-1.551v-10.16H224.4V251Z"/>
      <path class="cls-5" d="M174.409,274.179v4.288h-1.544V267h3.384a6.352,6.352,0,0,1,1.892.252,3.624,3.624,0,0,1,1.332.716,2.885,2.885,0,0,1,.788,1.12,3.951,3.951,0,0,1,.26,1.464,3.745,3.745,0,0,1-.28,1.464,3.151,3.151,0,0,1-.82,1.144,3.833,3.833,0,0,1-1.34.748,5.753,5.753,0,0,1-1.832.268Zm0-1.232h1.84a3.553,3.553,0,0,0,1.172-.177,2.4,2.4,0,0,0,.852-.492,2.044,2.044,0,0,0,.52-.756,2.564,2.564,0,0,0,.176-.967,2.2,2.2,0,0,0-.676-1.712,2.954,2.954,0,0,0-2.044-.616h-1.84Z"/>
      <path class="cls-5" d="M182.257,278.467v-8.1h.817a.452.452,0,0,1,.319.088.533.533,0,0,1,.12.3l.1,1.264a3.707,3.707,0,0,1,1.028-1.325,2.28,2.28,0,0,1,1.437-.475,2.241,2.241,0,0,1,.607.076,2.1,2.1,0,0,1,.5.212L187,271.57a.24.24,0,0,1-.248.2,1.22,1.22,0,0,1-.343-.076,2.208,2.208,0,0,0-.649-.075,1.837,1.837,0,0,0-1.244.432,3.26,3.26,0,0,0-.836,1.256v5.16Z"/>
      <path class="cls-5" d="M191.985,270.234a4.162,4.162,0,0,1,1.6.3,3.365,3.365,0,0,1,1.216.84,3.711,3.711,0,0,1,.769,1.315,5.716,5.716,0,0,1,0,3.453,3.733,3.733,0,0,1-.769,1.312,3.344,3.344,0,0,1-1.216.836,4.552,4.552,0,0,1-3.208,0,3.389,3.389,0,0,1-1.219-.836,3.764,3.764,0,0,1-.777-1.312,5.635,5.635,0,0,1,0-3.453,3.742,3.742,0,0,1,.777-1.315,3.411,3.411,0,0,1,1.219-.84A4.176,4.176,0,0,1,191.985,270.234Zm0,7.233a2.081,2.081,0,0,0,1.792-.8,4.572,4.572,0,0,0,0-4.5,2.077,2.077,0,0,0-1.792-.809,2.5,2.5,0,0,0-1.057.208,1.973,1.973,0,0,0-.748.6,2.678,2.678,0,0,0-.447.964,5.659,5.659,0,0,0,0,2.58,2.646,2.646,0,0,0,.447.956,1.989,1.989,0,0,0,.748.6A2.5,2.5,0,0,0,191.985,277.467Z"/>
      <path class="cls-5" d="M203.305,278.467a.363.363,0,0,1-.384-.3l-.128-.985a4.265,4.265,0,0,1-1.188,1.013,3.046,3.046,0,0,1-1.532.38,2.922,2.922,0,0,1-1.264-.269,2.611,2.611,0,0,1-.968-.788,3.757,3.757,0,0,1-.616-1.3,6.714,6.714,0,0,1-.216-1.785,5.567,5.567,0,0,1,.241-1.668,4.046,4.046,0,0,1,.691-1.339,3.178,3.178,0,0,1,2.572-1.216,2.932,2.932,0,0,1,1.272.252,3.046,3.046,0,0,1,.944.708v-4.5h1.424v11.784Zm-2.76-1.04a2.288,2.288,0,0,0,1.22-.321,3.483,3.483,0,0,0,.964-.9v-3.92a2.264,2.264,0,0,0-.86-.74,2.472,2.472,0,0,0-1.035-.212,2.055,2.055,0,0,0-1.745.808,3.774,3.774,0,0,0-.608,2.3,5.843,5.843,0,0,0,.136,1.357,2.618,2.618,0,0,0,.4.928,1.574,1.574,0,0,0,.649.532A2.167,2.167,0,0,0,200.545,277.427Z"/>
      <path class="cls-5" d="M207.777,270.363v5.168a2.149,2.149,0,0,0,.424,1.424,1.576,1.576,0,0,0,1.279.5,2.46,2.46,0,0,0,1.177-.3,3.661,3.661,0,0,0,1.015-.824v-5.976H213.1v8.1h-.847a.362.362,0,0,1-.384-.3l-.113-.872a4.459,4.459,0,0,1-1.183.94,3.112,3.112,0,0,1-1.5.356,2.943,2.943,0,0,1-1.173-.22,2.334,2.334,0,0,1-.851-.62,2.614,2.614,0,0,1-.516-.968,4.314,4.314,0,0,1-.173-1.256v-5.168Z"/>
      <path class="cls-5" d="M220.969,271.8a.645.645,0,0,1-.128.135.3.3,0,0,1-.184.048.459.459,0,0,1-.26-.1,3.807,3.807,0,0,0-.356-.22,3.017,3.017,0,0,0-.524-.22,2.78,2.78,0,0,0-1.8.112,2.023,2.023,0,0,0-.764.612,2.767,2.767,0,0,0-.464.968,4.8,4.8,0,0,0-.156,1.272,4.649,4.649,0,0,0,.168,1.308,2.825,2.825,0,0,0,.472.96,2,2,0,0,0,.74.591,2.274,2.274,0,0,0,.98.205,2.5,2.5,0,0,0,.856-.124,2.585,2.585,0,0,0,.56-.276,4.171,4.171,0,0,0,.368-.276.442.442,0,0,1,.288-.124.3.3,0,0,1,.272.135l.4.521a3.068,3.068,0,0,1-1.32.947,4.684,4.684,0,0,1-1.672.3,3.548,3.548,0,0,1-1.412-.28,3.207,3.207,0,0,1-1.132-.813,3.845,3.845,0,0,1-.756-1.307,5.262,5.262,0,0,1-.276-1.768,5.338,5.338,0,0,1,.252-1.672,3.777,3.777,0,0,1,.736-1.324,3.323,3.323,0,0,1,1.2-.868,4.033,4.033,0,0,1,1.632-.313,3.846,3.846,0,0,1,1.5.277,3.577,3.577,0,0,1,1.16.78Z"/>
      <path class="cls-5" d="M225.369,278.6a1.955,1.955,0,0,1-1.476-.536,2.138,2.138,0,0,1-.517-1.544v-4.96H222.4a.317.317,0,0,1-.216-.077.291.291,0,0,1-.089-.235v-.568l1.328-.168.328-2.5a.3.3,0,0,1,.1-.2.329.329,0,0,1,.224-.077h.719v2.792h2.321v1.033H224.8v4.864a1.036,1.036,0,0,0,.248.76.87.87,0,0,0,.641.248,1.138,1.138,0,0,0,.388-.06,1.6,1.6,0,0,0,.284-.133c.08-.048.147-.091.2-.132a.261.261,0,0,1,.147-.059.245.245,0,0,1,.2.136l.416.679a2.609,2.609,0,0,1-.888.54A3.01,3.01,0,0,1,225.369,278.6Z"/>
      <path class="cls-5" d="M240.272,276.1a.321.321,0,0,1,.232.1l.608.664a4.9,4.9,0,0,1-1.708,1.272,5.839,5.839,0,0,1-2.42.456,5.709,5.709,0,0,1-2.248-.428,4.934,4.934,0,0,1-1.72-1.2,5.415,5.415,0,0,1-1.1-1.852,6.91,6.91,0,0,1-.393-2.376,6.524,6.524,0,0,1,.42-2.376,5.423,5.423,0,0,1,1.181-1.856,5.253,5.253,0,0,1,1.819-1.2,6.206,6.206,0,0,1,2.341-.428,5.222,5.222,0,0,1,3.807,1.456l-.5.712a.552.552,0,0,1-.127.132.351.351,0,0,1-.208.052.407.407,0,0,1-.221-.077c-.077-.049-.169-.113-.276-.187s-.232-.154-.376-.24a3.454,3.454,0,0,0-.511-.241,4.353,4.353,0,0,0-.689-.187,4.754,4.754,0,0,0-.9-.076,4.358,4.358,0,0,0-1.684.316,3.769,3.769,0,0,0-1.316.9,4.089,4.089,0,0,0-.859,1.423,5.425,5.425,0,0,0-.309,1.881,5.507,5.507,0,0,0,.309,1.911,4.2,4.2,0,0,0,.839,1.42,3.538,3.538,0,0,0,1.26.885,4.044,4.044,0,0,0,1.569.3,6.39,6.39,0,0,0,.92-.06,3.808,3.808,0,0,0,.755-.188,3.118,3.118,0,0,0,.648-.325,4.946,4.946,0,0,0,.6-.467A.408.408,0,0,1,240.272,276.1Z"/>
      <path class="cls-5" d="M242.928,278.467V266.683h1.424v4.768a4.4,4.4,0,0,1,1.152-.885,3.1,3.1,0,0,1,1.456-.332,2.938,2.938,0,0,1,1.172.221,2.275,2.275,0,0,1,.848.624,2.782,2.782,0,0,1,.517.972,4.246,4.246,0,0,1,.175,1.256v5.16h-1.423v-5.16a2.186,2.186,0,0,0-.42-1.428,1.571,1.571,0,0,0-1.285-.508,2.4,2.4,0,0,0-1.18.3,3.9,3.9,0,0,0-1.012.824v5.968Z"/>
      <path class="cls-5" d="M257.776,278.467h-.632a.747.747,0,0,1-.336-.065.351.351,0,0,1-.168-.271l-.16-.752c-.214.191-.422.364-.624.515a3.444,3.444,0,0,1-.641.384,3.227,3.227,0,0,1-.715.237,4.13,4.13,0,0,1-.844.08,2.877,2.877,0,0,1-.884-.132,2.026,2.026,0,0,1-.716-.4,1.878,1.878,0,0,1-.484-.671,2.345,2.345,0,0,1-.18-.959,1.8,1.8,0,0,1,.264-.927,2.317,2.317,0,0,1,.851-.79,5.556,5.556,0,0,1,1.54-.567,10.569,10.569,0,0,1,2.329-.22V273.3a2.206,2.206,0,0,0-.4-1.437,1.463,1.463,0,0,0-1.2-.487,2.533,2.533,0,0,0-.876.132,3.274,3.274,0,0,0-.616.3q-.26.164-.449.3a.645.645,0,0,1-.372.132.429.429,0,0,1-.252-.077.577.577,0,0,1-.171-.187l-.256-.456a4.615,4.615,0,0,1,1.448-.968,4.458,4.458,0,0,1,1.72-.32,3.094,3.094,0,0,1,1.208.223,2.481,2.481,0,0,1,.887.624,2.631,2.631,0,0,1,.544.969,4.015,4.015,0,0,1,.185,1.248Zm-3.7-.872a2.94,2.94,0,0,0,.688-.076,2.771,2.771,0,0,0,.588-.216,3.108,3.108,0,0,0,.527-.34,4.616,4.616,0,0,0,.493-.456v-1.672a9.468,9.468,0,0,0-1.672.125,4.666,4.666,0,0,0-1.12.325,1.561,1.561,0,0,0-.628.475,1.023,1.023,0,0,0-.2.612,1.347,1.347,0,0,0,.105.555,1.058,1.058,0,0,0,.28.383,1.122,1.122,0,0,0,.416.216A1.874,1.874,0,0,0,254.08,277.6Z"/>
      <path class="cls-5" d="M261.84,267.818a.906.906,0,0,1-.084.389,1.082,1.082,0,0,1-.224.319,1.043,1.043,0,0,1-.323.221.986.986,0,0,1-.393.08.949.949,0,0,1-.388-.08,1.066,1.066,0,0,1-.32-.221,1.034,1.034,0,0,1-.22-.319.934.934,0,0,1-.08-.389.986.986,0,0,1,.08-.395,1.028,1.028,0,0,1,.22-.328,1.063,1.063,0,0,1,.32-.22.933.933,0,0,1,.388-.08.969.969,0,0,1,.393.08,1.04,1.04,0,0,1,.323.22,1.073,1.073,0,0,1,.224.328A.957.957,0,0,1,261.84,267.818Zm-.32,2.545v8.1H260.1v-8.1Z"/>
      <path class="cls-5" d="M264.032,278.467v-8.1h.847a.364.364,0,0,1,.385.3l.112.88a4.535,4.535,0,0,1,1.18-.944,3.058,3.058,0,0,1,1.508-.361,2.941,2.941,0,0,1,1.172.221,2.275,2.275,0,0,1,.848.624,2.78,2.78,0,0,1,.516.972,4.246,4.246,0,0,1,.176,1.256v5.16h-1.424v-5.16a2.186,2.186,0,0,0-.42-1.428,1.569,1.569,0,0,0-1.284-.508,2.407,2.407,0,0,0-1.181.3,3.882,3.882,0,0,0-1.011.824v5.968Z"/>
    </g>
    <g>
      <path class="cls-5" d="M159.274,32.163h4.96v1.3h-6.513V22h1.553Z"/>
      <path class="cls-5" d="M166.954,25.363v5.168a2.149,2.149,0,0,0,.423,1.424,1.578,1.578,0,0,0,1.28.5,2.462,2.462,0,0,0,1.177-.3,3.661,3.661,0,0,0,1.015-.824V25.363h1.424v8.1h-.848a.361.361,0,0,1-.383-.3l-.113-.872a4.459,4.459,0,0,1-1.183.94,3.112,3.112,0,0,1-1.5.356,2.939,2.939,0,0,1-1.173-.22,2.346,2.346,0,0,1-.852-.62,2.627,2.627,0,0,1-.515-.968,4.281,4.281,0,0,1-.173-1.256V25.363Z"/>
      <path class="cls-5" d="M174.617,33.467v-8.1h.847a.364.364,0,0,1,.385.3l.111.88a4.556,4.556,0,0,1,1.181-.944,3.058,3.058,0,0,1,1.508-.361,2.941,2.941,0,0,1,1.172.221,2.263,2.263,0,0,1,.847.624,2.766,2.766,0,0,1,.517.972,4.246,4.246,0,0,1,.176,1.256v5.16h-1.424v-5.16a2.186,2.186,0,0,0-.42-1.428,1.569,1.569,0,0,0-1.284-.508,2.4,2.4,0,0,0-1.181.3,3.882,3.882,0,0,0-1.011.824v5.968Z"/>
      <path class="cls-5" d="M185.418,22.818a.921.921,0,0,1-.084.389,1.1,1.1,0,0,1-.225.319,1.043,1.043,0,0,1-.323.221.983.983,0,0,1-.393.08.952.952,0,0,1-.388-.08,1.066,1.066,0,0,1-.32-.221,1.034,1.034,0,0,1-.22-.319.95.95,0,0,1-.08-.389,1,1,0,0,1,.08-.4,1.028,1.028,0,0,1,.22-.328,1.063,1.063,0,0,1,.32-.22.936.936,0,0,1,.388-.08.966.966,0,0,1,.393.08,1.04,1.04,0,0,1,.323.22,1.094,1.094,0,0,1,.225.328A.973.973,0,0,1,185.418,22.818Zm-.321,2.545v8.1h-1.424v-8.1Z"/>
      <path class="cls-5" d="M186.584,25.363h1.168a.443.443,0,0,1,.281.088.5.5,0,0,1,.16.208l2.056,5.216a3.919,3.919,0,0,1,.176.576q.063.288.119.568.064-.28.137-.568a4.866,4.866,0,0,1,.184-.576l2.08-5.216a.471.471,0,0,1,.156-.212.423.423,0,0,1,.268-.084h1.112l-3.3,8.1h-1.288Z"/>
      <path class="cls-5" d="M198.8,25.234a3.626,3.626,0,0,1,1.344.244,3.037,3.037,0,0,1,1.065.7,3.215,3.215,0,0,1,.7,1.135,4.394,4.394,0,0,1,.252,1.54.929.929,0,0,1-.073.449.3.3,0,0,1-.272.112h-5.392a4.487,4.487,0,0,0,.208,1.336,2.72,2.72,0,0,0,.529.948,2.1,2.1,0,0,0,.8.567,2.742,2.742,0,0,0,1.041.189,3.032,3.032,0,0,0,.923-.124,4.284,4.284,0,0,0,.668-.269,4.738,4.738,0,0,0,.468-.267.619.619,0,0,1,.324-.124.317.317,0,0,1,.273.135l.4.521a2.735,2.735,0,0,1-.632.556,3.845,3.845,0,0,1-.788.387,4.97,4.97,0,0,1-.868.229,5.273,5.273,0,0,1-.888.076,4.122,4.122,0,0,1-1.547-.284,3.414,3.414,0,0,1-1.225-.832,3.83,3.83,0,0,1-.8-1.357,5.533,5.533,0,0,1-.288-1.855,4.725,4.725,0,0,1,.26-1.584,3.746,3.746,0,0,1,.748-1.276,3.439,3.439,0,0,1,1.192-.848A3.92,3.92,0,0,1,198.8,25.234Zm.033,1.049a2.181,2.181,0,0,0-1.624.6,2.8,2.8,0,0,0-.737,1.652h4.408a2.928,2.928,0,0,0-.135-.908,2.028,2.028,0,0,0-.4-.712,1.8,1.8,0,0,0-.643-.464A2.181,2.181,0,0,0,198.833,26.283Z"/>
      <path class="cls-5" d="M203.976,33.467v-8.1h.817a.452.452,0,0,1,.319.088.547.547,0,0,1,.12.3l.1,1.264a3.707,3.707,0,0,1,1.028-1.325,2.28,2.28,0,0,1,1.437-.475,2.246,2.246,0,0,1,.607.076,2.1,2.1,0,0,1,.5.212l-.184,1.063a.24.24,0,0,1-.248.2,1.232,1.232,0,0,1-.344-.076,2.2,2.2,0,0,0-.648-.075,1.837,1.837,0,0,0-1.244.432,3.26,3.26,0,0,0-.836,1.256v5.16Z"/>
      <path class="cls-5" d="M215.064,26.7a.315.315,0,0,1-.3.176.546.546,0,0,1-.271-.088c-.1-.059-.226-.124-.372-.2a3.473,3.473,0,0,0-.525-.2,2.47,2.47,0,0,0-.72-.092,2.1,2.1,0,0,0-.648.092,1.537,1.537,0,0,0-.491.252,1.125,1.125,0,0,0-.313.372,1,1,0,0,0-.107.46.762.762,0,0,0,.18.52,1.535,1.535,0,0,0,.475.359,4.072,4.072,0,0,0,.672.269c.251.077.509.16.772.248s.522.186.772.292a2.79,2.79,0,0,1,.673.4,1.853,1.853,0,0,1,.475.588,1.8,1.8,0,0,1,.18.836,2.649,2.649,0,0,1-.2,1.036,2.261,2.261,0,0,1-.593.825,2.824,2.824,0,0,1-.96.547,3.921,3.921,0,0,1-1.311.2,4.077,4.077,0,0,1-1.537-.277,3.88,3.88,0,0,1-1.168-.708l.336-.544a.477.477,0,0,1,.153-.159.416.416,0,0,1,.231-.056.534.534,0,0,1,.3.112c.107.074.236.157.389.248a2.974,2.974,0,0,0,.551.248,2.541,2.541,0,0,0,.813.111,2.226,2.226,0,0,0,.727-.107,1.527,1.527,0,0,0,.52-.292,1.148,1.148,0,0,0,.308-.424,1.314,1.314,0,0,0,.1-.513.842.842,0,0,0-.18-.555,1.514,1.514,0,0,0-.475-.376,3.865,3.865,0,0,0-.677-.272c-.253-.078-.512-.159-.775-.244s-.524-.183-.777-.292a2.722,2.722,0,0,1-.675-.412,1.854,1.854,0,0,1-.477-.612,1.993,1.993,0,0,1-.18-.884,2.162,2.162,0,0,1,.193-.893,2.2,2.2,0,0,1,.559-.752,2.769,2.769,0,0,1,.905-.515,3.608,3.608,0,0,1,1.223-.193,3.882,3.882,0,0,1,1.437.252,3.415,3.415,0,0,1,1.1.693Z"/>
      <path class="cls-5" d="M220.576,25.234a3.624,3.624,0,0,1,1.343.244,3.028,3.028,0,0,1,1.065.7,3.2,3.2,0,0,1,.7,1.135,4.394,4.394,0,0,1,.252,1.54.932.932,0,0,1-.072.449.3.3,0,0,1-.273.112H218.2a4.455,4.455,0,0,0,.208,1.336,2.719,2.719,0,0,0,.528.948,2.108,2.108,0,0,0,.8.567,2.733,2.733,0,0,0,1.04.189,3.044,3.044,0,0,0,.924-.124,4.324,4.324,0,0,0,.668-.269,4.828,4.828,0,0,0,.467-.267.621.621,0,0,1,.325-.124.314.314,0,0,1,.272.135l.4.521a2.735,2.735,0,0,1-.632.556,3.87,3.87,0,0,1-.788.387,5,5,0,0,1-.869.229,5.252,5.252,0,0,1-.887.076,4.127,4.127,0,0,1-1.548-.284,3.414,3.414,0,0,1-1.225-.832,3.828,3.828,0,0,1-.8-1.357,5.508,5.508,0,0,1-.288-1.855,4.725,4.725,0,0,1,.259-1.584,3.746,3.746,0,0,1,.748-1.276,3.443,3.443,0,0,1,1.193-.848A3.916,3.916,0,0,1,220.576,25.234Zm.032,1.049a2.181,2.181,0,0,0-1.624.6,2.8,2.8,0,0,0-.736,1.652h4.408a2.9,2.9,0,0,0-.136-.908,2.041,2.041,0,0,0-.4-.712,1.8,1.8,0,0,0-.644-.464A2.181,2.181,0,0,0,220.608,26.283Z"/>
      <path class="cls-5" d="M234.9,29.727c.057.141.111.284.164.428.054-.149.109-.292.168-.428s.126-.274.2-.413l3.88-7.047a.454.454,0,0,1,.217-.224,1.007,1.007,0,0,1,.319-.04h1.145V33.467h-1.361V25.043c0-.112,0-.233.008-.36s.014-.259.025-.392l-3.928,7.168a.617.617,0,0,1-.561.359h-.223a.617.617,0,0,1-.561-.359l-4.015-7.192c.015.138.028.275.036.408s.011.256.011.368v8.424h-1.36V22h1.145a1.018,1.018,0,0,1,.32.04.462.462,0,0,1,.216.224l3.96,7.056A3.072,3.072,0,0,1,234.9,29.727Z"/>
      <path class="cls-5" d="M249.511,33.467h-.632a.75.75,0,0,1-.336-.065.35.35,0,0,1-.167-.271l-.161-.752c-.214.191-.422.364-.624.515a3.469,3.469,0,0,1-.64.384,3.236,3.236,0,0,1-.716.237,4.123,4.123,0,0,1-.844.08,2.886,2.886,0,0,1-.884-.132,2.022,2.022,0,0,1-.715-.4,1.869,1.869,0,0,1-.485-.671,2.345,2.345,0,0,1-.18-.959,1.8,1.8,0,0,1,.264-.927,2.313,2.313,0,0,1,.852-.79,5.531,5.531,0,0,1,1.54-.567,10.559,10.559,0,0,1,2.328-.22V28.3a2.212,2.212,0,0,0-.4-1.437,1.465,1.465,0,0,0-1.2-.487,2.541,2.541,0,0,0-.876.132,3.274,3.274,0,0,0-.616.3q-.26.164-.448.3a.645.645,0,0,1-.372.132.425.425,0,0,1-.252-.077.58.58,0,0,1-.172-.187l-.256-.456a4.626,4.626,0,0,1,1.448-.968,4.458,4.458,0,0,1,1.72-.32,3.094,3.094,0,0,1,1.208.223,2.485,2.485,0,0,1,.888.624,2.646,2.646,0,0,1,.544.969,4.016,4.016,0,0,1,.184,1.248Zm-3.7-.872a2.94,2.94,0,0,0,.688-.076,2.751,2.751,0,0,0,.588-.216,3.116,3.116,0,0,0,.528-.34,4.515,4.515,0,0,0,.492-.456V29.835a9.476,9.476,0,0,0-1.672.125,4.666,4.666,0,0,0-1.12.325,1.575,1.575,0,0,0-.628.475,1.022,1.022,0,0,0-.2.612,1.364,1.364,0,0,0,.1.555,1.058,1.058,0,0,0,.28.383,1.13,1.13,0,0,0,.416.216A1.879,1.879,0,0,0,245.815,32.6Z"/>
      <path class="cls-5" d="M253.575,22.818a.921.921,0,0,1-.084.389,1.1,1.1,0,0,1-.225.319,1.043,1.043,0,0,1-.323.221.983.983,0,0,1-.393.08.947.947,0,0,1-.387-.08,1.071,1.071,0,0,1-.321-.221,1.031,1.031,0,0,1-.219-.319.934.934,0,0,1-.08-.389.986.986,0,0,1,.08-.4,1.025,1.025,0,0,1,.219-.328,1.067,1.067,0,0,1,.321-.22.931.931,0,0,1,.387-.08.966.966,0,0,1,.393.08,1.04,1.04,0,0,1,.323.22,1.094,1.094,0,0,1,.225.328A.973.973,0,0,1,253.575,22.818Zm-.321,2.545v8.1h-1.423v-8.1Z"/>
      <path class="cls-5" d="M255.766,33.467v-8.1h.848a.365.365,0,0,1,.385.3l.111.88a4.523,4.523,0,0,1,1.181-.944,3.052,3.052,0,0,1,1.507-.361,2.938,2.938,0,0,1,1.172.221,2.275,2.275,0,0,1,.848.624,2.78,2.78,0,0,1,.516.972,4.213,4.213,0,0,1,.176,1.256v5.16h-1.424v-5.16a2.186,2.186,0,0,0-.419-1.428,1.571,1.571,0,0,0-1.285-.508,2.4,2.4,0,0,0-1.18.3,3.886,3.886,0,0,0-1.012.824v5.968Z"/>
      <path class="cls-5" d="M264.663,33.467v-8.1h.847a.365.365,0,0,1,.385.3l.111.88a4.54,4.54,0,0,1,1.181-.944,3.058,3.058,0,0,1,1.508-.361,2.941,2.941,0,0,1,1.172.221,2.263,2.263,0,0,1,.847.624,2.766,2.766,0,0,1,.517.972,4.246,4.246,0,0,1,.176,1.256v5.16h-1.424v-5.16a2.186,2.186,0,0,0-.42-1.428,1.569,1.569,0,0,0-1.284-.508,2.4,2.4,0,0,0-1.181.3,3.9,3.9,0,0,0-1.012.824v5.968Z"/>
      <path class="cls-5" d="M276.767,25.234a3.63,3.63,0,0,1,1.344.244,3.033,3.033,0,0,1,1.064.7,3.2,3.2,0,0,1,.7,1.135,4.418,4.418,0,0,1,.251,1.54.932.932,0,0,1-.072.449.3.3,0,0,1-.272.112h-5.392a4.487,4.487,0,0,0,.208,1.336,2.735,2.735,0,0,0,.528.948,2.116,2.116,0,0,0,.8.567,2.741,2.741,0,0,0,1.04.189,3.039,3.039,0,0,0,.924-.124,4.284,4.284,0,0,0,.668-.269,4.738,4.738,0,0,0,.468-.267.619.619,0,0,1,.324-.124.317.317,0,0,1,.273.135l.4.521a2.735,2.735,0,0,1-.632.556,3.87,3.87,0,0,1-.788.387,4.97,4.97,0,0,1-.868.229,5.273,5.273,0,0,1-.888.076A4.131,4.131,0,0,1,275.3,33.3a3.41,3.41,0,0,1-1.224-.832,3.815,3.815,0,0,1-.8-1.357,5.533,5.533,0,0,1-.288-1.855,4.725,4.725,0,0,1,.26-1.584,3.746,3.746,0,0,1,.748-1.276,3.43,3.43,0,0,1,1.192-.848A3.92,3.92,0,0,1,276.767,25.234Zm.032,1.049a2.184,2.184,0,0,0-1.624.6,2.808,2.808,0,0,0-.736,1.652h4.408a2.9,2.9,0,0,0-.136-.908,2.01,2.01,0,0,0-.4-.712,1.806,1.806,0,0,0-.643-.464A2.183,2.183,0,0,0,276.8,26.283Z"/>
      <path class="cls-5" d="M284.4,33.6a1.955,1.955,0,0,1-1.476-.536,2.142,2.142,0,0,1-.516-1.544v-4.96h-.976a.317.317,0,0,1-.216-.077.291.291,0,0,1-.089-.235v-.568l1.329-.168.328-2.5a.3.3,0,0,1,.1-.2.329.329,0,0,1,.224-.077h.72v2.792h2.32v1.033h-2.32v4.864a1.036,1.036,0,0,0,.248.76.869.869,0,0,0,.64.248,1.13,1.13,0,0,0,.388-.06,1.6,1.6,0,0,0,.284-.133c.08-.048.148-.091.2-.132a.264.264,0,0,1,.148-.059.244.244,0,0,1,.2.136l.416.679a2.609,2.609,0,0,1-.888.54A3.006,3.006,0,0,1,284.4,33.6Z"/>
    </g>
    <path class="cls-1" d="M221.536,167.6a.5.5,0,0,1-.5-.5V146.467a.5.5,0,0,1,1,0V167.1A.5.5,0,0,1,221.536,167.6Z"/>
    <g>
      <polygon class="cls-1" points="443.071 255.097 436.161 251.128 436.161 254.53 377.063 254.53 377.063 255.664 436.161 255.664 436.161 259.065 443.071 255.097"/>
      <polygon class="cls-1" points="375.04 269.837 381.949 265.868 381.949 269.27 441.048 269.27 441.048 270.404 381.949 270.404 381.949 273.805 375.04 269.837"/>
    </g>
    <g>
      <rect class="cls-6" x="387.904" y="251.628" width="42.303" height="21.678"/>
      <path class="cls-1" d="M429.707,252.128v20.677H388.4V252.128h41.3m1-1H387.4v22.677h43.3V251.128Z"/>
    </g>
    <g>
      <path class="cls-5" d="M408.558,258.227v.978H405.78v7.62h-1.164v-7.62h-2.79v-.978Z"/>
      <path class="cls-5" d="M411.78,262.409l-2.838-4.182H410.1a.328.328,0,0,1,.186.042.391.391,0,0,1,.108.121l2.244,3.443a1.585,1.585,0,0,1,.126-.275l2.117-3.145a.589.589,0,0,1,.118-.135.234.234,0,0,1,.153-.051h1.11l-2.85,4.128,2.946,4.47h-1.152a.292.292,0,0,1-.207-.069.637.637,0,0,1-.123-.153l-2.3-3.606a1.368,1.368,0,0,1-.109.24L410.22,266.6a.916.916,0,0,1-.123.153.265.265,0,0,1-.195.069h-1.08Z"/>
    </g>
    <g>
      <polygon class="cls-1" points="68.031 255.097 61.122 251.128 61.122 254.53 2.023 254.53 2.023 255.664 61.122 255.664 61.122 259.065 68.031 255.097"/>
      <polygon class="cls-1" points="0 269.837 6.91 265.868 6.91 269.27 66.008 269.27 66.008 270.404 6.91 270.404 6.91 273.805 0 269.837"/>
    </g>
    <g>
      <rect class="cls-6" x="12.864" y="251.628" width="42.303" height="21.678"/>
      <path class="cls-1" d="M54.667,252.128v20.677h-41.3V252.128h41.3m1-1h-43.3v22.677h43.3V251.128Z"/>
    </g>
    <g>
      <path class="cls-5" d="M33.518,258.227v.978H30.74v7.62H29.576v-7.62h-2.79v-.978Z"/>
      <path class="cls-5" d="M36.74,262.409,33.9,258.227H35.06a.328.328,0,0,1,.186.042.391.391,0,0,1,.108.121l2.244,3.443a1.585,1.585,0,0,1,.126-.275l2.118-3.145a.564.564,0,0,1,.117-.135.235.235,0,0,1,.153-.051h1.11l-2.85,4.128,2.946,4.47H40.166a.294.294,0,0,1-.207-.069.637.637,0,0,1-.123-.153L37.532,263a1.3,1.3,0,0,1-.108.24L35.18,266.6a.916.916,0,0,1-.123.153.264.264,0,0,1-.2.069h-1.08Z"/>
    </g>
    <g>
      <polygon class="cls-1" points="342.891 356.097 335.982 352.128 335.982 355.53 276.883 355.53 276.883 356.664 335.982 356.664 335.982 360.065 342.891 356.097"/>
      <polygon class="cls-1" points="274.86 370.837 281.769 366.868 281.769 370.27 340.868 370.27 340.868 371.404 281.769 371.404 281.769 374.805 274.86 370.837"/>
    </g>
    <g>
      <rect class="cls-6" x="287.724" y="352.628" width="42.303" height="21.678"/>
      <path class="cls-1" d="M329.527,353.128v20.677h-41.3V353.128h41.3m1-1h-43.3v22.677h43.3V352.128Z"/>
    </g>
    <g>
      <path class="cls-5" d="M308.378,359.227v.978H305.6v7.62h-1.164v-7.62h-2.79v-.978Z"/>
      <path class="cls-5" d="M311.6,363.409l-2.838-4.182h1.158a.328.328,0,0,1,.186.042.391.391,0,0,1,.108.121l2.245,3.443a1.5,1.5,0,0,1,.125-.275l2.118-3.145a.564.564,0,0,1,.117-.135.235.235,0,0,1,.153-.051h1.111l-2.851,4.128,2.946,4.47h-1.152a.294.294,0,0,1-.207-.069.637.637,0,0,1-.123-.153l-2.3-3.606a1.3,1.3,0,0,1-.108.24l-2.243,3.366a1.03,1.03,0,0,1-.123.153.268.268,0,0,1-.2.069h-1.08Z"/>
    </g>
  </g>
</svg>
