<svg xmlns="http://www.w3.org/2000/svg" width="120.501" height="19.708" viewBox="0 0 120.501 19.708"><g transform="translate(-34.107 -193.903)"><path d="M-9985.752-1185.489h-6.783v-13.371h6.57c3.205,0,4.764,1.083,4.764,3.31a3.052,3.052,0,0,1-2.629,3.021v.058a3.233,3.233,0,0,1,3.174,3.257,3.28,3.28,0,0,1-1.187,2.611A6.007,6.007,0,0,1-9985.752-1185.489Zm-4.653-6.221v4.7h4.2c2.258,0,3.31-.737,3.31-2.318s-1.149-2.383-3.415-2.383Zm0-5.631v4.111h4.34c1.779,0,2.8-.742,2.8-2.037a1.77,1.77,0,0,0-.6-1.5,3.946,3.946,0,0,0-2.443-.572Zm26.031,11.824h-1.678v-4.043h-9.885v-1.449h4.96v-2.1h-5.992v-1.452h10.839v-2.9h-9.626v-1.447h11.312v4.34h1.205v1.462h-6.06v2.1h4.925v5.492Zm-40.489,0H-10007v-13.368h2.138v5.985l7.18-5.985h3.031l-7.6,6.042,8.224,7.324-3.02,0-7.815-7.163v7.163Zm68.416,0h-1.687v-13.419h1.688v3.353h1.713v1.459h-1.713v8.606Zm-13.017-.045h-10.568v-4.943h1.683v3.486h8.886v1.456Zm28.5-.861h-12.844v-1.437h12.844v1.436Zm-19.216-3.448h-1.692v-3.858h-5.992v-1.444h5.992v-2.012h-5.992v-1.462h7.685v8.774Zm-9.412-.294h-1.676V-1199h1.676v8.827Zm27.241-.738h-10.083v-7.743h10.083v1.447h-8.426v4.852h8.426v1.443Zm-31.234-1.042h-7.964v-6.723h7.964v6.722Zm-6.291-5.266v3.8h4.618v-3.8Z" transform="translate(10075.072 1395.529)" fill="#6a5f53" stroke="rgba(0,0,0,0)" stroke-width="1"/><path d="M61.338,204.017l-.242-.153a4.284,4.284,0,0,0-3.47-1.08,6.551,6.551,0,0,0-3.037,1.045v-.035c0-.4.045-.824.085-1.241a10.91,10.91,0,0,0,.1-1.265,2.894,2.894,0,0,0-.2-1.147.216.216,0,0,0-.216-.14,3.382,3.382,0,0,0-1.4.456l-.1.234a9.138,9.138,0,0,1-.211,1.866s-.051.153-.051.153a22.5,22.5,0,0,0-.015,4.755c.015.137.278.338.479.412a3.036,3.036,0,0,0,1.32-.253l.151-.022a.236.236,0,0,0,.2-.268l0-.391a3.9,3.9,0,0,1,2.845-2.787,1.973,1.973,0,0,1,1.894.607,2.6,2.6,0,0,1-.307,1.913A3.965,3.965,0,0,1,57,208.385a8.293,8.293,0,0,1-3.309.463c-.056-.035-1.22-.824-1.22-.824a17.54,17.54,0,0,0-3.475-2.063,4.275,4.275,0,0,1-.786-.564l-.121-.1c-.67-.533-1.949-1.385-2.972-2.064,0,0-.458-.31-.544-.371v-.118c.025-.031.67-.416.67-.416a6.945,6.945,0,0,0,1.4-.919c-.02.023.122-.071.122-.071S49,200.075,49,200.075a27.231,27.231,0,0,0,5.848-3.83s.06-.2.06-.2l.031-.179a1.274,1.274,0,0,0,.022-.748.244.244,0,0,0-.177-.169,4.864,4.864,0,0,0-3.45,1.592,2.9,2.9,0,0,1-.72.5l-.176.1c-1.285.73-4.191,2.533-5.711,3.5a50.042,50.042,0,0,1,.775-5.9l-.046-.229-.156-.291-.12-.212-.03-.008a.97.97,0,0,0-.736-.048l-.3.114-.408.145a.241.241,0,0,0-.167.142,24.372,24.372,0,0,0-1.47,6.947,34.587,34.587,0,0,0-3.455-1.9l-.015-.012-.081-.015a2.383,2.383,0,0,1-.8-.376c-.03-.014-.554-.355-.554-.355l-.837-.541c.006.006-.225-.051-.225-.051a2.653,2.653,0,0,0-1.265.849.263.263,0,0,0-.041.134.826.826,0,0,0,.041.2l.04.174.041.1a11.974,11.974,0,0,0,2.417,1.642l1.164.615,1.773.966c0,.009.3.241.3.241l.212.119s.019.015.035.025c-.474.315-3.228,2.154-3.228,2.154l-1.7,1.122a9.764,9.764,0,0,1-.972.472,1.377,1.377,0,0,0-.765.627l-.045.1.045.065.13.1c-.006,0,.177.113.177.113l.186.129.177.027a4.572,4.572,0,0,0,1.566-.521c.755-.337,2.815-1.576,3.7-2.11l.373-.223a.84.84,0,0,0,.484-.235,4.722,4.722,0,0,1,.79-.48c.01,0,.146-.078.273-.146v.1a35.841,35.841,0,0,0,.484,6.159l0,.026.031.06a7.378,7.378,0,0,1,.457,1.415l.333,1.123c.01.016.1.105.1.105a2.233,2.233,0,0,0,1.163.31l.1-.01.062-.141a2.767,2.767,0,0,0,.045-.513c0-.206-.02-.43-.035-.71l-.025-.4c-.126-1.881-.247-4.6-.247-6.4v-.14c.323.2,1.717,1.08,1.717,1.08,2.383,1.544,5.979,3.872,8.145,4.49a.327.327,0,0,0,.318-.073l.332-.215.06-.021a.6.6,0,0,0,.226-.5c1.834-.09,4.382-.8,5.747-2.515a3.56,3.56,0,0,0,.77-2.176,1.826,1.826,0,0,0-.448-1.336" transform="translate(0 0)" fill="#fca400"/></g></svg>