<svg id="Layer_1" data-name="Layer 1" xmlns="http://www.w3.org/2000/svg" viewBox="0 0 284.677 70.243"><defs><style>.cls-1{fill:#1366ff;}</style></defs><title>logo</title><polygon class="cls-1" points="10.365 11.2 20.676 17.153 29.764 11.906 49.217 23.137 49.217 47.106 29.764 58.337 10.31 47.106 10.31 35.062 29.764 46.293 38.913 41.009 38.913 29.084 29.764 34.368 0 17.184 0 53.058 29.764 70.243 59.528 53.058 59.528 17.184 29.764 0 10.365 11.2"/><polygon class="cls-1" points="86.423 18.583 80.787 18.583 80.787 51.861 100.283 51.861 100.283 46.835 86.423 46.835 86.423 18.583"/><path class="cls-1" d="M119.626,46.175l-.761.3a12.237,12.237,0,0,1-5.026,1.015q-2.794,0-3.555-1.575t-.761-6.143v-13.3h-5.534V39.728q0,7.056,1.777,9.874t7.006,2.818a13.92,13.92,0,0,0,6.854-2.133v1.574h5.484V26.476h-5.484Z"/><path class="cls-1" d="M144.3,25.918a14.133,14.133,0,0,0-7.006,2.132V26.476h-5.483V51.861h5.534v-19.7l.761-.3a12.583,12.583,0,0,1,4.975-1.016q2.744,0,3.631,1.726a13.77,13.77,0,0,1,.888,5.84V51.861h5.483V38.254q0-6.6-1.853-9.468T144.3,25.918Z"/><rect class="cls-1" x="159.53" y="26.476" width="5.534" height="25.385"/><rect class="cls-1" x="159.53" y="17.823" width="5.534" height="4.338"/><polygon class="cls-1" points="181.666 47.14 180.042 47.14 175.167 26.476 169.38 26.476 175.929 51.861 185.778 51.861 192.379 26.476 186.743 26.476 181.666 47.14"/><path class="cls-1" d="M206.087,25.918q-11.017,0-11.017,13.5,0,6.806,2.462,9.9t8.1,3.1a52.6,52.6,0,0,0,10.255-1.168l-.1-4.112-1.422.152q-3.808.3-7.412.3t-4.925-1.474a6.943,6.943,0,0,1-1.371-4.618h15.739l.355-3.96Q216.748,25.917,206.087,25.918ZM200.6,37.239q.049-3.6,1.345-5.178a5.055,5.055,0,0,1,4.138-1.574q2.843,0,4.036,1.5t1.193,5.254Z"/><path class="cls-1" d="M227.562,28.115V26.476h-5.483V51.861h5.534v-18.9s3.036-1.474,8.58-.954V26.476C233.28,26.474,230.6,26.368,227.562,28.115Z"/><path class="cls-1" d="M251.094,36.757a25.634,25.634,0,0,1-5.382-1.295,1.974,1.974,0,0,1-1.143-1.929,2.174,2.174,0,0,1,1.042-2.005,7.733,7.733,0,0,1,3.731-.635,73.151,73.151,0,0,1,8.681.812l.1-4.62-1.574-.3a48.4,48.4,0,0,0-7.97-.812,11.361,11.361,0,0,0-6.829,1.929,6.732,6.732,0,0,0-2.666,5.838q0,3.912,1.93,5.381a13.9,13.9,0,0,0,6.066,2.158,21.678,21.678,0,0,1,5.23,1.269,2.179,2.179,0,0,1,1.092,2.107,2.32,2.32,0,0,1-1.143,2.184,8.132,8.132,0,0,1-3.833.66,75.4,75.4,0,0,1-8.783-.812l-.2,4.62,1.574.254a45.092,45.092,0,0,0,7.818.863q4.924,0,7.489-1.879t2.563-5.89q0-4.008-1.776-5.583T251.094,36.757Z"/><path class="cls-1" d="M284.677,37.545q0-11.628-10.661-11.627Q263,25.918,263,39.422q0,6.806,2.462,9.9t8.1,3.1a52.6,52.6,0,0,0,10.255-1.168l-.1-4.112-1.422.152q-3.807.3-7.412.3t-4.925-1.474a6.943,6.943,0,0,1-1.371-4.618h15.739Zm-16.144-.306q.049-3.6,1.345-5.178a5.057,5.057,0,0,1,4.138-1.574q2.842,0,4.036,1.5t1.193,5.254Z"/></svg>