<svg xmlns="http://www.w3.org/2000/svg" width="120.5" height="12.361" viewBox="0 0 120.5 12.361"><g transform="translate(-1191.354 -878.842)"><path d="M-9989.628-1847.64a7.158,7.158,0,0,1-5.146-1.913,5.24,5.24,0,0,1-1.506-3.762,5.168,5.168,0,0,1,1.5-3.783,7.148,7.148,0,0,1,5.168-1.9,7.005,7.005,0,0,1,5.1,1.893,5.156,5.156,0,0,1,1.451,3.767,5.239,5.239,0,0,1-1.476,3.81A7.015,7.015,0,0,1-9989.628-1847.64Zm-.035-10.16a3.048,3.048,0,0,0-2.189.956,4.913,4.913,0,0,0-1.275,3.506,4.819,4.819,0,0,0,1.246,3.465,3.1,3.1,0,0,0,2.227.987h.008a3.107,3.107,0,0,0,2.221-.982,4.808,4.808,0,0,0,1.262-3.472C-9986.2-1855.873-9987.707-1857.79-9989.663-1857.8Zm11.595,9.683h0l-.021-9.245-4.324.03-.058-1.276,11.405.01,0,1.235-3.739.028.013,9.2-3.278.02Zm-26.646-.023h-.009a1.311,1.311,0,0,1-.946-.408,1.136,1.136,0,0,1-.323-.842l-.008-9.219h3.167l0,8.636a.561.561,0,0,0,.6.57h.012l5.529.018.008,1.215Zm38.494,0h0l-.013-9.2-3.739.028-.013-1.283,11.406.01.035,1.223-4.375.035-.04,9.161-3.261.025Zm10.152,0h0a1.3,1.3,0,0,1-.918-.389,1.173,1.173,0,0,1-.348-.842l.03-8.013a1.228,1.228,0,0,1,1.221-1.2l8.671.01-.027,1.205-6.062.025h-.013a.652.652,0,0,0-.62.618l-.061,2.428,6.652.013-.015,1.23-6.547.005-.035,3.066a.7.7,0,0,0,.615.635l6.117-.005-.045,1.2-8.594.018Z" transform="translate(11197.855 2738.342)" fill="#e50019" stroke="rgba(0,0,0,0)" stroke-width="1"/><path d="M1396.143,880.213l-2.428.006-6.192,10.693h2.388l1.371-2.274,7.277-.04,1.388,2.325,1.85-.019h.478l-.137-.223Zm-3.843,6.453,2.606-4.477,2.616,4.489Zm37.4-4.975a6.322,6.322,0,0,0-4.313-1.5h0l-7.333,0v10.735l7.543.013h0a5.91,5.91,0,0,0,3.972-1.439,4.723,4.723,0,0,0,1.717-3.821l.014-.038a5.21,5.21,0,0,0-1.6-3.945m-1.615,6.332a2.9,2.9,0,0,1-2.352.923l-5.574.009-.034-6.825,5.264.009a3.792,3.792,0,0,1,2.628.956,3.394,3.394,0,0,1,1.063,2.557,3.269,3.269,0,0,1-.994,2.372M1375.2,881.7a5.046,5.046,0,0,0-1.658,3.953h0a5.156,5.156,0,0,0,1.746,3.846,5.677,5.677,0,0,0,4,1.409h0l7.065.012.1-1.937-7.318-.038a3.309,3.309,0,0,1-2.4-.914,3.706,3.706,0,0,1-.954-2.388,3.371,3.371,0,0,1,1.016-2.556,3.67,3.67,0,0,1,2.628-.956l6.994.03-.025-1.957-6.8-.026a6.135,6.135,0,0,0-4.394,1.522m38.262,5.164a3.041,3.041,0,0,0,2.527-3.243h0a3.278,3.278,0,0,0-.925-2.461,3.594,3.594,0,0,0-2.783-.95l-8.8-.015,0,10.716,2.075.017.045-8.764,6.22-.037c1.453.051,1.964.434,2,1.486-.026,1.03-.516,1.417-1.963,1.452l-6.544-.013-.008,1.925,5.707-.007,3.034,3.946h2.493l-.209-.317Z" transform="translate(-119.446 -0.548)" fill="#764959"/></g></svg>