<svg xmlns="http://www.w3.org/2000/svg" viewBox="0 0 265.011 39.479"><defs><style>.a{fill:#f2f8f6;}.b{fill:none;stroke:#eff1f2;}.c{fill:#fff;}</style></defs><g transform="translate(-419 -103)"><path class="a" d="M-2274.457-1407.579a14.3,14.3,0,0,1-4.122-2.837,41.664,41.664,0,0,1-8.124-11.348c-.291-.534-.557-1.091-.8-1.625a33.049,33.049,0,0,0-2.522,6.838c-.727,3.176-.485,5.5.631,6.232,1.066.7,3.127.073,5.529-1.625a1.043,1.043,0,0,1,1.454.242,1.044,1.044,0,0,1-.242,1.455c-2.426,1.721-4.268,2.3-5.65,2.3a4.041,4.041,0,0,1-2.207-.63,4.626,4.626,0,0,1-1.915-3.443,14.3,14.3,0,0,1,.388-4.995,37.722,37.722,0,0,1,3.443-8.826,40.449,40.449,0,0,1-1.625-4.729c-4.583.946-7.275,2.643-7.347,4.244-.049,1.139,1.213,2.449,3.443,3.613a1.008,1.008,0,0,1,.437,1.382,1.008,1.008,0,0,1-1.383.437c-3.9-2.012-4.63-4.122-4.558-5.553.1-1.5,1.116-3.613,5.553-5.213a27.987,27.987,0,0,1,3.37-.946c-.17-.824-.315-1.649-.412-2.425a13.894,13.894,0,0,1,.145-4.995,4.571,4.571,0,0,1,2.256-3.225,4.011,4.011,0,0,1,1.431-.388c1.649-.121,3.588.727,5.722,2.5a1.016,1.016,0,0,1,.146,1.454,1.017,1.017,0,0,1-1.455.146c-1.649-1.407-3.176-2.11-4.243-2.037a1.555,1.555,0,0,0-.654.193c-1.188.607-1.673,2.91-1.285,6.134.1.728.242,1.5.412,2.3a44.311,44.311,0,0,1,5-.461c4.388-5.625,9.19-9.287,12.609-9.408a3.919,3.919,0,0,1,2.376.606c1.285.849,2.643,2.885,1.673,7.76a1.028,1.028,0,0,1-1.212.824,1.027,1.027,0,0,1-.824-1.213c.558-2.837.266-4.946-.776-5.625a2.055,2.055,0,0,0-1.188-.266c-2.231.1-6.062,2.594-10.014,7.322l1.818.073a41.166,41.166,0,0,1,13.651,2.813,13.7,13.7,0,0,1,4.268,2.619,4.466,4.466,0,0,1,1.625,3.564c-.072,1.431-1.018,3.468-5.115,5.068a.974.974,0,0,1-.364.073,1.046,1.046,0,0,1-.97-.654,1.018,1.018,0,0,1,.582-1.334c2.352-.922,3.757-2.11,3.806-3.25.073-1.333-1.673-2.885-4.655-4.17a40.171,40.171,0,0,0-12.949-2.643q-1.49-.073-2.837-.073h-.509c-.655.849-1.285,1.77-1.916,2.74-.607.946-1.188,1.916-1.722,2.862.437,1.018.922,2.012,1.431,3.03a39.47,39.47,0,0,0,7.687,10.742c2.376,2.23,4.534,3.176,5.722,2.57,1.139-.581,1.649-2.74,1.333-5.747a38.233,38.233,0,0,0-3.71-11.881,1.046,1.046,0,0,1,.485-1.382,1.046,1.046,0,0,1,1.382.485,39.6,39.6,0,0,1,3.88,12.585,13.36,13.36,0,0,1-.219,4.728,4.624,4.624,0,0,1-2.23,3.08,3.863,3.863,0,0,1-1.746.412A5.848,5.848,0,0,1-2274.457-1407.579Zm-13.7-23.35c.266.9.558,1.819.9,2.764.315-.533.63-1.042.969-1.552s.679-1.018,1.019-1.5C-2286.29-1431.172-2287.259-1431.051-2288.156-1430.93Zm4.7,5.792a3.958,3.958,0,0,1,3.966-3.965,3.958,3.958,0,0,1,3.965,3.965,3.986,3.986,0,0,1-3.965,3.965A3.958,3.958,0,0,1-2283.457-1425.138Z" transform="translate(2943.641 1547.647)"/><path class="b" d="M-1731.5-1247.5-1744-1235l12.5-12.5L-1744-1260l12.5,12.5,12.5-12.5-12.5,12.5,12.5,12.5Z" transform="translate(2343 1369.5)"/><path class="c" d="M-2176-1346.261v-20.163l16.729,9.658,5.142-2.97v6.7l-5.142,2.97-10.934-6.312v6.769l10.934,6.313,10.933-6.312v-13.471l-10.933-6.313-5.108,2.949-5.8-3.346,10.9-6.295,16.728,9.658v20.163l-16.728,9.659Zm135.462-.841-.885-.143.112-2.6a42.364,42.364,0,0,0,4.937.456,4.571,4.571,0,0,0,2.154-.371,1.3,1.3,0,0,0,.643-1.228,1.226,1.226,0,0,0-.614-1.184,12.2,12.2,0,0,0-2.939-.713,7.812,7.812,0,0,1-3.409-1.213,3.594,3.594,0,0,1-1.084-3.024,3.784,3.784,0,0,1,1.5-3.281,6.391,6.391,0,0,1,3.839-1.085,27.309,27.309,0,0,1,4.479.456l.885.169-.056,2.6a41.063,41.063,0,0,0-4.879-.456,4.345,4.345,0,0,0-2.1.356,1.222,1.222,0,0,0-.586,1.128,1.109,1.109,0,0,0,.643,1.084,14.371,14.371,0,0,0,3.025.728,6.968,6.968,0,0,1,3.381,1.3,4.057,4.057,0,0,1,1,3.137,3.825,3.825,0,0,1-1.44,3.31,7.061,7.061,0,0,1-4.209,1.057A25.383,25.383,0,0,1-2040.539-1347.1Zm13.739-1.258q-1.384-1.739-1.383-5.565,0-7.59,6.191-7.59,5.993,0,5.992,6.535l-.2,2.224h-8.846a3.9,3.9,0,0,0,.77,2.6,3.64,3.64,0,0,0,2.768.829q2.026,0,4.166-.169l.8-.085.056,2.311a29.557,29.557,0,0,1-5.764.657Q-2025.415-1346.623-2026.8-1348.361Zm2.482-9.7a4.706,4.706,0,0,0-.756,2.911h6.021a4.871,4.871,0,0,0-.671-2.953,2.738,2.738,0,0,0-2.269-.843q-.127-.011-.253-.011A2.847,2.847,0,0,0-2024.318-1358.063Zm-92.237,9.859q-1-1.585-1-5.55v-7.45h3.11v7.475a9.151,9.151,0,0,0,.427,3.452q.428.886,2,.886a6.9,6.9,0,0,0,2.825-.571l.427-.169V-1361.2h3.083v14.267h-3.083v-.885a7.815,7.815,0,0,1-3.852,1.2Q-2115.557-1346.62-2116.555-1348.2Zm51.576-.16q-1.384-1.739-1.384-5.564,0-7.588,6.192-7.588,5.993,0,5.994,6.531l-.2,2.226h-8.846a3.906,3.906,0,0,0,.771,2.6,3.642,3.642,0,0,0,2.767.828q2.027,0,4.166-.168l.8-.086.057,2.311a29.62,29.62,0,0,1-5.764.656Q-2063.6-1346.624-2064.979-1348.364Zm2.48-9.7a4.7,4.7,0,0,0-.756,2.911h6.02a4.871,4.871,0,0,0-.671-2.953,2.735,2.735,0,0,0-2.268-.843q-.128-.011-.255-.011A2.841,2.841,0,0,0-2062.5-1358.063Zm11.316,11.128V-1361.2h3.082v.921a8.692,8.692,0,0,1,4.851-.921v3.109a9.777,9.777,0,0,0-4.822.535v10.623Zm-25.938,0-3.681-14.267h3.252l2.74,11.614h.913l2.853-11.614h3.168l-3.711,14.267Zm-9.217,0V-1361.2h3.11v14.267Zm-6.705,0v-7.559a7.734,7.734,0,0,0-.5-3.282,2.07,2.07,0,0,0-2.04-.97,7.078,7.078,0,0,0-2.8.571l-.427.169v11.072h-3.11V-1361.2h3.082v.885a7.941,7.941,0,0,1,3.938-1.2q2.854,0,3.894,1.612t1.042,5.322v7.647Zm-37.552,0v-18.7h3.167v15.879h7.79v2.824Zm44.257-16.692v-2.438h3.11v2.438Z" transform="translate(2595 1479.082)"/></g></svg>