<svg xmlns="http://www.w3.org/2000/svg" width="64" height="64" viewBox="0 0 64 64"><g transform="translate(-55 -144)"><circle cx="20" cy="20" r="20" transform="translate(55 168)" fill="#a1c5ff"/><path d="M94,190H80a3,3,0,0,1-3-3V175a3,3,0,0,1,3-3H94a3,3,0,0,1,3,3v12A3,3,0,0,1,94,190ZM80,174a1,1,0,0,0-1,1v12a1,1,0,0,0,1,1H94a1,1,0,0,0,1-1V175a1,1,0,0,0-1-1Z" fill="#222829"/><path d="M95,173H93v-4a5.006,5.006,0,0,0-5-5H86a5.006,5.006,0,0,0-5,5v4H79v-4a7.008,7.008,0,0,1,7-7h2a7.008,7.008,0,0,1,7,7Z" fill="#222829"/><circle cx="2" cy="2" r="2" transform="translate(85 177)" fill="#222829"/><rect width="2" height="5" transform="translate(86 180)" fill="#222829"/><rect width="9" height="2" transform="translate(62 175)" fill="#222829"/><path d="M59,180a4,4,0,1,1,4-4A4,4,0,0,1,59,180Zm0-6a2,2,0,1,0,2,2A2,2,0,0,0,59,174Z" fill="#222829"/><rect width="9" height="2" transform="translate(103 175)" fill="#222829"/><path d="M115,180a4,4,0,1,1,4-4A4,4,0,0,1,115,180Zm0-6a2,2,0,1,0,2,2A2,2,0,0,0,115,174Z" fill="#222829"/><path d="M108,193h-2v-6a3,3,0,0,0-3-3H99v-2h4a5.006,5.006,0,0,1,5,5Z" fill="#222829"/><path d="M107,200a4,4,0,1,1,4-4A4,4,0,0,1,107,200Zm0-6a2,2,0,1,0,2,2A2,2,0,0,0,107,194Z" fill="#222829"/><path d="M68,193H66v-6a5.006,5.006,0,0,1,5-5h4v2H71a3,3,0,0,0-3,3Z" fill="#222829"/><path d="M67,200a4,4,0,1,1,4-4A4,4,0,0,1,67,200Zm0-6a2,2,0,1,0,2,2A2,2,0,0,0,67,194Z" fill="#222829"/><path d="M103,170H99v-2h4a3,3,0,0,0,3-3v-6h2v6A5.006,5.006,0,0,1,103,170Z" fill="#222829"/><path d="M107,160a4,4,0,1,1,4-4A4,4,0,0,1,107,160Zm0-6a2,2,0,1,0,2,2A2,2,0,0,0,107,154Z" fill="#222829"/><path d="M75,170H71a5.006,5.006,0,0,1-5-5v-6h2v6a3,3,0,0,0,3,3h4Z" fill="#222829"/><path d="M67,160a4,4,0,1,1,4-4A4,4,0,0,1,67,160Zm0-6a2,2,0,1,0,2,2A2,2,0,0,0,67,154Z" fill="#222829"/><path d="M81,200a4,4,0,1,1,4-4A4,4,0,0,1,81,200Zm0-6a2,2,0,1,0,2,2A2,2,0,0,0,81,194Z" fill="#222829"/><rect width="2" height="9" transform="translate(80 199)" fill="#222829"/><path d="M93,200a4,4,0,1,1,4-4A4,4,0,0,1,93,200Zm0-6a2,2,0,1,0,2,2A2,2,0,0,0,93,194Z" fill="#222829"/><rect width="2" height="9" transform="translate(92 199)" fill="#222829"/><path d="M81,160a4,4,0,1,1,4-4A4,4,0,0,1,81,160Zm0-6a2,2,0,1,0,2,2A2,2,0,0,0,81,154Z" fill="#222829"/><rect width="2" height="9" transform="translate(80 144)" fill="#222829"/><path d="M93,160a4,4,0,1,1,4-4A4,4,0,0,1,93,160Zm0-6a2,2,0,1,0,2,2A2,2,0,0,0,93,154Z" fill="#222829"/><rect width="2" height="9" transform="translate(92 144)" fill="#222829"/><rect width="2" height="2" transform="translate(99 175)" fill="#222829"/><rect width="2" height="2" transform="translate(73 175)" fill="#222829"/></g></svg>