<svg xmlns="http://www.w3.org/2000/svg" width="56" height="64.001" viewBox="0 0 56 64.001"><g transform="translate(-487 -354.999)"><circle cx="21" cy="21" r="21" transform="translate(501 377)" fill="#a1c5ff"/><path d="M511,419a1,1,0,0,1-.6-.2l-23-17a1,1,0,0,1-.4-.8V356a1,1,0,0,1,1.447-.895l9.172,4.586,2.524-4.206A1,1,0,0,1,501,355h20a1,1,0,0,1,.857.485l2.524,4.206,9.172-4.586A1,1,0,0,1,535,356v45a1,1,0,0,1-.405.8l-23,17A1,1,0,0,1,511,419Zm-22-18.5,22,16.261L533,400.5V357.618l-8.553,4.277a1,1,0,0,1-1.3-.38L520.434,357H501.566l-2.709,4.515a1,1,0,0,1-1.3.38L489,357.618Z" fill="#222829"/><path d="M511,414a1,1,0,0,1-.593-.2l-19-14A1,1,0,0,1,491,399V358h2v40.495l18,13.263,18-13.263V358h2v41a1,1,0,0,1-.407.8l-19,14A1,1,0,0,1,511,414Z" fill="#222829"/><rect width="2" height="5" transform="translate(497 361)" fill="#222829"/><rect width="2" height="5" transform="translate(523 361)" fill="#222829"/><path d="M511,382a8,8,0,1,1,8-8A8.009,8.009,0,0,1,511,382Zm0-14a6,6,0,1,0,6,6A6.006,6.006,0,0,0,511,368Z" fill="#222829"/><path d="M516,391h-4V381h2v8h2Z" fill="#222829"/><path d="M514,402h-6V381h2v19h2v-3h2v-2h-2v-2h4v6h-2Z" fill="#222829"/><rect width="4" height="2" transform="translate(509 370)" fill="#222829"/><rect width="2" height="2" transform="translate(497 368)" fill="#222829"/><rect width="2" height="2" transform="translate(497 372)" fill="#222829"/><rect width="2" height="2" transform="translate(497 376)" fill="#222829"/><rect width="2" height="2" transform="translate(523 368)" fill="#222829"/><rect width="2" height="2" transform="translate(523 372)" fill="#222829"/><rect width="2" height="2" transform="translate(523 376)" fill="#222829"/></g></svg>