<svg xmlns="http://www.w3.org/2000/svg" width="64" height="60" viewBox="0 0 64 60"><g transform="translate(-374 -250)"><circle cx="20" cy="20" r="20" transform="translate(398 270)" fill="#a1c5ff"/><path d="M428,286h-2V267a5.006,5.006,0,0,0-5-5h-4v-2h4a7.008,7.008,0,0,1,7,7Z" fill="#363f40"/><path d="M386,286h-2V267a7.008,7.008,0,0,1,7-7h4v2h-4a5.006,5.006,0,0,0-5,5Z" fill="#363f40"/><rect width="18" height="2" transform="translate(397 308)" fill="#363f40"/><rect width="2" height="2" transform="translate(405 286)" fill="#363f40"/><rect width="2" height="2" transform="translate(401 286)" fill="#363f40"/><rect width="2" height="2" transform="translate(409 286)" fill="#363f40"/><path d="M406,264c-3.421,0-6-3.224-6-7.5,0-3.026.682-6.5,6-6.5s6,3.474,6,6.5C412,260.776,409.421,264,406,264Zm0-12c-3.028,0-4,1.093-4,4.5,0,2.667,1.4,5.5,4,5.5s4-2.833,4-5.5C410,253.093,409.028,252,406,252Z" fill="#363f40"/><path d="M414,272H398c-1.626,0-3-1.832-3-4v-2.58l7.5-4.288.992,1.736L397,266.58V268c0,1.224.7,2,1,2h16c.3,0,1-.776,1-2v-1.42l-6.5-3.712.992-1.736,7.5,4.288V268C417,270.168,415.626,272,414,272Z" fill="#363f40"/><path d="M385,302c-3.421,0-6-3.224-6-7.5,0-3.026.682-6.5,6-6.5s6,3.474,6,6.5C391,298.776,388.421,302,385,302Zm0-12c-3.028,0-4,1.093-4,4.5,0,2.667,1.4,5.5,4,5.5s4-2.833,4-5.5C389,291.093,388.028,290,385,290Z" fill="#363f40"/><path d="M393,310H377c-1.626,0-3-1.832-3-4v-2.58l7.5-4.288.992,1.736L376,304.58V306c0,1.224.7,2,1,2h16c.3,0,1-.776,1-2v-1.42l-6.5-3.712.992-1.736,7.5,4.288V306C396,308.168,394.626,310,393,310Z" fill="#363f40"/><path d="M427,302c-3.421,0-6-3.224-6-7.5,0-3.026.682-6.5,6-6.5s6,3.474,6,6.5C433,298.776,430.421,302,427,302Zm0-12c-3.028,0-4,1.093-4,4.5,0,2.667,1.4,5.5,4,5.5s4-2.833,4-5.5C431,291.093,430.028,290,427,290Z" fill="#363f40"/><path d="M435,310H419c-1.626,0-3-1.832-3-4v-2.58l7.5-4.288.992,1.736L418,304.58V306c0,1.224.7,2,1,2h16c.3,0,1-.776,1-2v-1.42l-6.5-3.712.992-1.736,7.5,4.288V306C438,308.168,436.626,310,435,310Z" fill="#363f40"/><path d="M406,298a11,11,0,1,1,11-11A11.013,11.013,0,0,1,406,298Zm0-20a9,9,0,1,0,9,9A9.01,9.01,0,0,0,406,278Z" fill="#363f40"/></g></svg>