<svg xmlns="http://www.w3.org/2000/svg" width="121" height="19.011" viewBox="0 0 121 19.011"><g transform="translate(-1391.391 -471.189)"><path d="M-8572.555-1813.276a10.485,10.485,0,0,1-4.684-.909,3.146,3.146,0,0,1-1.94-2.842,2.939,2.939,0,0,1,1.405-2.521h-2l-.65-.982h6.71v-1.883h-4.676a1.04,1.04,0,0,1-1.066-1.01v-3.721h1.724a.55.55,0,0,1,.56.538v2.678a.55.55,0,0,0,.563.536h10.967a.188.188,0,0,1,.192.167,2.118,2.118,0,0,1,0,.618.2.2,0,0,1-.192.192h-5.787v1.883h6.084a.185.185,0,0,1,.184.171,1.9,1.9,0,0,1,0,.6v.008a.2.2,0,0,1-.187.2h-7.242l.032,0-.009,0c-2.721,0-4.346.984-4.346,2.631a2.215,2.215,0,0,0,1.273,2,6.523,6.523,0,0,0,3.081.638,6.51,6.51,0,0,0,3.078-.638,2.215,2.215,0,0,0,1.273-2,2.126,2.126,0,0,0-1.072-1.876h2.759a2.788,2.788,0,0,1,.588,1.76,3.146,3.146,0,0,1-1.941,2.842A10.49,10.49,0,0,1-8572.555-1813.276Zm-21.52-.49h-2.051a.974.974,0,0,1-.88-1.044v-11.2a.975.975,0,0,1,.88-1.046h2.051v5.3h8.391v-5.3h2.052a.976.976,0,0,1,.882,1.046v11.2a.974.974,0,0,1-.882,1.044h-2.052v-5.688h-8.391v5.688Zm-17.1,0h-2.052a.975.975,0,0,1-.884-1.044v-12.245h2.09c1.6,0,2.311.823,3.295,1.963l.073.085,6.17,8.129v-10.176h2.052a.976.976,0,0,1,.882,1.046v12.242h-1.917c-1.521,0-2.448-.931-3.5-2.149l-6.207-8.072v10.221Zm62.363-.033H-8561a1.067,1.067,0,0,1-1.092-1.038v-4.566h1.765a.559.559,0,0,1,.577.551v1.023h8.589v-3.669h-3.234a4.982,4.982,0,0,1-4.054,1.706,5.678,5.678,0,0,1-3.38-.989,2.976,2.976,0,0,1-1.287-2.393,2.985,2.985,0,0,1,1.386-2.406h-1.674c-.009-.012-.067-.1-.146-.222l-.1-.153-.114-.173c-.134-.2-.261-.4-.3-.453h4.444v-1.085h1.769a.564.564,0,0,1,.579.547v.538h3.9a.194.194,0,0,1,.194.171,2.075,2.075,0,0,1,0,.634.2.2,0,0,1-.187.2h-5.113a2.37,2.37,0,0,0-2.346,2.406,2.315,2.315,0,0,0,2.376,2.411,2.345,2.345,0,0,0,1.718-.705,2.441,2.441,0,0,0,.658-1.705,2.416,2.416,0,0,0-.315-1.185,2.368,2.368,0,0,0-.313-.443h5.541v-2.592h1.774a.566.566,0,0,1,.58.549v13.044Zm-10.943-3.029v1.721a.308.308,0,0,0,.315.307h8.273v-2.028Zm5.882-6.97h0a2.589,2.589,0,0,1,.078.625,2.457,2.457,0,0,1-.091.675h2.72v-1.3Zm21.943,9.808h-2.279v-13.3h1.747a.514.514,0,0,1,.379.156.479.479,0,0,1,.153.359v3.509h1.728a.167.167,0,0,1,.164.138,1.254,1.254,0,0,1,.043.359,1.155,1.155,0,0,1-.043.35.2.2,0,0,1-.164.147h-1.728v8.285Zm18.4-.532h-14.605l-.634-.955h15.239a.158.158,0,0,1,.164.125.918.918,0,0,1,.028.352.911.911,0,0,1-.028.35A.159.159,0,0,1-8513.525-1814.521Zm-32.36-.852h0l-.683-.821a10.653,10.653,0,0,0,3.645-1.98,10.177,10.177,0,0,0,2.484-3.057h-4.708l-.634-.975h5.807a11.156,11.156,0,0,0,.5-1.755,9.1,9.1,0,0,0,.18-1.825h-5.856l-.634-.992h8.409a.574.574,0,0,1,.374.171.479.479,0,0,1,.156.359,9.79,9.79,0,0,1-1.113,4.369,12.365,12.365,0,0,1-3.1,3.876,14.027,14.027,0,0,1-4.829,2.631Zm31.662-3.684h-12.262a1.082,1.082,0,0,1-.735-.309,1.045,1.045,0,0,1-.31-.737v-6.678h13.136a.177.177,0,0,1,.151.145,1.218,1.218,0,0,1,.037.352,1.339,1.339,0,0,1-.037.357c-.021.093-.07.138-.151.138h-10.858v5.223a.491.491,0,0,0,.153.37.606.606,0,0,0,.376.16h10.5a.161.161,0,0,1,.162.13.89.89,0,0,1,.026.35.992.992,0,0,1-.026.37A.161.161,0,0,1-8514.224-1819.057Z" transform="translate(10025.221 2301.749)" fill="#0055a5" stroke="rgba(0,0,0,0)" stroke-width="1"/><path d="M-9998.972-2282.635a7.038,7.038,0,0,1-7.029-7.031,7.039,7.039,0,0,1,2.408-5.3l.056-.045-2.443-1.027v-3.435l4.241,1.811c.015.028,2.294,4.352,2.348,4.452a3.58,3.58,0,0,0-3.151,3.546,3.577,3.577,0,0,0,3.571,3.573,3.575,3.575,0,0,0,3.568-3.573,3.581,3.581,0,0,0-3.154-3.546c.042-.075,1.385-2.618,2.029-3.841l.323-.612,4.244-1.811v3.435l-2.443,1.027.053.045a7.047,7.047,0,0,1,2.408,5.3A7.038,7.038,0,0,1-9998.972-2282.635Zm0-10.853v0l-3.422-6.51,3.423,1.72,3.425-1.72-3.424,6.51Z" transform="translate(11397.892 2772.335)" fill="#ffa800" stroke="rgba(0,0,0,0)" stroke-width="1"/></g></svg>