<?xml version="1.0" encoding="utf-8"?>
<!-- Generator: Adobe Illustrator 22.1.0, SVG Export Plug-In . SVG Version: 6.00 Build 0)  -->
<svg version="1.1" id="레이어_1" xmlns="http://www.w3.org/2000/svg" xmlns:xlink="http://www.w3.org/1999/xlink" x="0px"
	 y="0px" viewBox="0 0 600 281.4" style="enable-background:new 0 0 600 281.4;" xml:space="preserve">
<style type="text/css">
	.st0{fill:#FFFFFF;}
</style>
<g id="Artboard_1_" transform="translate(-3532.000000, -423.000000)">
	<g id="Group-39_1_" transform="translate(3532.000000, 423.000000)">
		<path id="AllBIT_1_" class="st0" d="M108.8,281.4H69.4V144.1H39.6v137.2H0V47.2C0,19.1,21.7,0,54.4,0c38,0,54.4,24.3,54.4,47.2
			V281.4z M69.2,110.7V47.3c0-6.2-4.4-12.8-14.7-12.8c-8.8,0-14.7,5.2-14.7,12.8v63.4h10.7h8.1H69.2z M144.8,281.4V0h39.6v281.4
			H144.8z M220.4,281.4V0h39.5v281.4H220.4z M335.5,32.6v78.8l29.9,0.2l-0.2-78.9H335.5z M335.5,144.1v104.7h29.7V144.1H335.5z
			 M399.2,127.7c3.7,1.6,5.5,5.9,5.5,13v104.5c0,26.5-11.5,36.2-42.7,36.2h-66.1V0h66.3c31.1,0,42.5,9.7,42.5,36.2v78.8
			C404.7,121.8,402.9,126,399.2,127.7z M440.7,281.4V0h39.6v281.4H440.7z M571.2,32.6v248.8h-39.4V32.6h-29.3V0H600v32.6H571.2z"/>
	</g>
</g>
</svg>
