<?xml version="1.0" encoding="utf-8"?>
<!-- Generator: Adobe Illustrator 23.0.3, SVG Export Plug-In . SVG Version: 6.00 Build 0)  -->
<svg version="1.1" id="Layer_1" xmlns="http://www.w3.org/2000/svg" xmlns:xlink="http://www.w3.org/1999/xlink" x="0px" y="0px"
	 viewBox="0 0 120 21" style="enable-background:new 0 0 120 21;" xml:space="preserve">
<style type="text/css">
	.st0{fill:#004BA9;}
	.st1{fill:#FFFFFF;}
	.st2{fill:#014DA1;}
</style>
<g id="그룹_6875" transform="translate(162.612 -554.752)">
	<g id="그룹_6874" transform="translate(-105.806 554.752)">
		<g id="그룹_6873" transform="translate(0 0)">
			<path id="패스_9375" class="st0" d="M55.5,12.7c11.2-5.7,9.8-11.2-1.6-12.4C41.6-0.9,23.6,1.7,11.1,6.8L9.3,7.5
				c-13,5.8-11.8,12-0.2,13.1c12.7,1.2,32.1-1.3,44.7-7.2L55.5,12.7z"/>
			<path id="패스_9376" class="st1" d="M53,13.8c0,0-2.1,0.2-2.2-1.6V8.9c0,0-0.3-1.8,2.1-1.8c0,0,1.6-0.1,2,0.9
				c0,0,0.2,0.2,0.2,1.3h-1.7V8.7c0-0.2-0.2-0.4-0.4-0.4c0,0,0,0,0,0c0,0-0.5,0-0.5,0.4v3.5c0,0.3,0.2,0.5,0.4,0.5s0.5-0.2,0.5-0.4
				c0,0,0,0,0-0.1v-1H53v-0.9h2.1v2c0,0.2-0.1,0.5-0.2,0.7c-0.1,0.1-0.2,0.2-0.2,0.3C54.3,13.5,53.7,13.8,53,13.8"/>
			<path id="패스_9377" class="st1" d="M48.6,7.3H47l0.1,3.8H47l-1.7-3.8h-2v6.3H45l-0.1-3.9h0.1l1.8,3.9h2L48.6,7.3z"/>
			<path id="패스_9378" class="st1" d="M38.3,7.3h-1.8V12c0,0-0.2,1.8,2.3,1.8c0,0,2.2,0,2.2-1.7V7.3h-1.8V12c0,0,0,0.5-0.5,0.5
				c-0.3,0-0.5-0.2-0.5-0.4c0,0,0,0,0-0.1L38.3,7.3z"/>
			<path id="패스_9379" class="st1" d="M34.4,9.2V8.4c0,0,0.1-1.3-2-1.4c0,0-1.6-0.1-2.1,0.8c0,0-0.2,0.2-0.2,0.9v0.5
				c0,0.3,0.1,0.7,0.3,0.9c0.2,0.2,0.4,0.4,0.6,0.5c0,0,0.8,0.4,1.3,0.7c0,0,0.5,0.3,0.4,0.7c0,0.3-0.3,0.5-0.5,0.4
				c-0.3,0-0.5-0.2-0.4-0.5v-0.5h-1.8v0.8c0,0,0,1.5,2.2,1.5c0,0,2.2,0,2.3-1.5v-0.6c0-0.6-0.3-1.2-0.8-1.5
				c-0.2-0.1-0.5-0.3-0.7-0.4c-0.4-0.2-0.7-0.4-1-0.6c-0.2-0.2-0.2-0.5-0.1-0.7c0.1-0.2,0.3-0.3,0.4-0.2c0,0,0.5,0,0.5,0.4v0.5
				L34.4,9.2z"/>
			<path id="패스_9380" class="st1" d="M21.3,7.3l-0.1,6.3h1.6l0-4.8h0.1l0.9,4.8h1.7l0.9-4.8h0.1l0,4.8h1.7L28,7.3h-2.7l-0.6,3.5
				h-0.1l-0.5-3.5L21.3,7.3z"/>
			<path id="패스_9381" class="st1" d="M19.4,13.6l-1.1-6.3h-2.8l-1.1,6.3h1.8l0.6-4.9H17l0.6,4.9H19.4z"/>
			<path id="패스_9382" class="st1" d="M12.7,9.2V8.4c0,0,0.1-1.3-2-1.4c0,0-1.6-0.1-2.1,0.8c0,0-0.2,0.2-0.2,0.9v0.5
				c0,0.3,0.1,0.7,0.3,0.9c0.2,0.2,0.4,0.4,0.6,0.5c0,0,0.8,0.4,1.3,0.7c0,0,0.5,0.3,0.4,0.7c0,0.3-0.3,0.5-0.5,0.4
				c-0.3,0-0.5-0.2-0.4-0.5v-0.5H8.3v0.8c0,0,0,1.5,2.2,1.5c0,0,2.2,0,2.3-1.5v-0.6c0-0.6-0.3-1.2-0.8-1.5c-0.2-0.1-0.5-0.3-0.7-0.4
				c-0.4-0.2-0.7-0.4-1-0.6c-0.2-0.2-0.2-0.5-0.1-0.7c0.1-0.2,0.3-0.3,0.4-0.2c0,0,0.5,0,0.5,0.4v0.5L12.7,9.2z"/>
		</g>
	</g>
</g>
<rect x="35.5" y="4" class="st2" width="8.1" height="1.4"/>
<rect x="31" y="3.5" class="st2" width="1.6" height="13.4"/>
<rect x="35.3" y="4" class="st2" width="1.6" height="6.9"/>
<rect x="37" y="9.5" class="st2" width="6.7" height="1.4"/>
<rect x="23.9" y="8" class="st2" width="4.6" height="1.4"/>
<rect x="31.4" y="8" class="st2" width="2.7" height="1.4"/>
<rect x="34.7" y="14.2" class="st2" width="9.8" height="1.4"/>
<polygon class="st2" points="8.6,3.8 8.6,10.7 10.2,10.7 10.2,8.2 11.7,8.2 11.7,6.7 10.3,6.7 10.3,3.8 "/>
<path class="st2" d="M8.6,12.7H3.9v2.9h4.7V12.7z M8.6,15.5 M2.3,11.3h7.9v5.6H2.3V11.3z"/>
<polygon class="st2" points="21.7,3.8 21.7,10.7 20.1,10.7 20.1,7.6 17.9,7.6 17.9,6.2 20,6.2 20,3.8 "/>
<path class="st2" d="M20.4,14c0-1-1.2-1.9-2.8-1.9c-1.5,0-2.8,0.8-2.8,1.9c0,1,1.2,1.9,2.8,1.9C19.1,15.9,20.4,15,20.4,14
	 M17.6,17.4c-2.5,0-4.5-1.5-4.5-3.4c0-1.9,2-3.4,4.5-3.4c2.5,0,4.5,1.5,4.5,3.4C22.1,15.9,20.1,17.4,17.6,17.4"/>
<path class="st2" d="M4.6,4.1c0,0-0.2,3.7,2.8,5.3l-0.9,1.2c0,0-2.2-1.5-2.7-3.1c-0.5,1.6-2.7,3.1-2.7,3.1L0.2,9.4
	C3.2,7.8,3,4.1,3,4.1H4.6z"/>
<path class="st2" d="M15,7.5c-0.5,1.6-2.5,2.9-2.5,2.9l-0.9-1.2c2.8-1.4,2.6-5.1,2.6-5.1h1.6c0,0-0.2,3.7,2.6,5.1l-0.9,1.2
	C17.6,10.4,15.5,9.1,15,7.5"/>
<path class="st2" d="M24,4.2v1.4h4.2c0,0,0.2,6.1-4.7,7.9l0.7,1.3c0,0,5.8-1.5,5.5-10.6L24,4.2z"/>
</svg>
