<svg xmlns="http://www.w3.org/2000/svg" width="121.183" height="21.021" viewBox="0 0 121.183 21.021"><path d="M-9894.713-1062.385h-4.356c-.035,0-.112,0-.233-.009l-.192-.008a1.407,1.407,0,0,1-.676-.234l-2.043-1.389,1.253-1.963,1.774.9a1.078,1.078,0,0,0,.452.127c.215.019.358.027.452.027h2.724a.752.752,0,0,0,.664-.281.86.86,0,0,0,.2-.472v-1.5a1.462,1.462,0,0,0-.145-.676,1.014,1.014,0,0,0-.76-.405l-3.857-.676a2.8,2.8,0,0,1-.83-.258,2.565,2.565,0,0,1-.771-.569,2.965,2.965,0,0,1-.571-.887,3.07,3.07,0,0,1-.219-1.213v-2.065c0-.06.008-.181.027-.405a.9.9,0,0,1,.281-.557l1.617-1.677a.846.846,0,0,1,.552-.3c.2-.02.337-.03.415-.03h4.165c.05,0,.187.007.423.02a1.357,1.357,0,0,1,.676.231l2.043,1.389-1.272,1.966-1.755-.9a1.04,1.04,0,0,0-.452-.127c-.216-.019-.354-.03-.452-.03h-2.564a.771.771,0,0,0-.666.281.847.847,0,0,0-.2.472v1.409a.842.842,0,0,0,.3.663,1.455,1.455,0,0,0,.684.338l3.954.693a2.711,2.711,0,0,1,1.63.83,2.908,2.908,0,0,1,.587,1.986v2.371c0,.078-.01.226-.027.405a.906.906,0,0,1-.278.562l-1.581,1.64a.853.853,0,0,1-.549.3C-9894.491-1062.4-9894.635-1062.385-9894.713-1062.385Zm78.716-.02h-4.282c-.07,0-.2-.009-.414-.027a.862.862,0,0,1-.55-.3l-1.62-1.68a.9.9,0,0,1-.278-.559c-.021-.22-.03-.345-.03-.405v-8.561c0-.062.01-.187.03-.405a.886.886,0,0,1,.278-.557l1.62-1.682a.85.85,0,0,1,.55-.3c.2-.02.339-.03.414-.03h4.166c.052,0,.2.008.425.02a1.377,1.377,0,0,1,.676.231l2.043,1.389-1.272,1.966-1.755-.907a1.1,1.1,0,0,0-.452-.124c-.2-.017-.353-.03-.455-.03h-2.564a.773.773,0,0,0-.666.281.866.866,0,0,0-.2.47v7.965a1.032,1.032,0,0,0,.236.455.755.755,0,0,0,.634.241h2.679c.1,0,.238-.008.455-.027a1.083,1.083,0,0,0,.455-.127l1.752-.907,1.272,1.968-2.043,1.387a1.36,1.36,0,0,1-.676.234l-.2.009C-9815.887-1062.408-9815.964-1062.4-9816-1062.4Zm-16.563-.076h-2.835v-8.1c0-.06.008-.181.027-.405a.908.908,0,0,1,.28-.559l1.62-1.677a.854.854,0,0,1,.547-.3,3.992,3.992,0,0,1,.415-.03h3.552a3.886,3.886,0,0,1,.412.03.846.846,0,0,1,.55.3l2.008,2.063a.926.926,0,0,1,.28.562c.019.215.027.343.027.4v7.713h-2.835v-7.172a1.419,1.419,0,0,0-.355-.915,1.207,1.207,0,0,0-.975-.437h-1.774a.981.981,0,0,0-.743.311,1.046,1.046,0,0,0-.2.654v7.56Zm-23.758,0h-2.835v-15.5h2.835v5.03a3,3,0,0,1,.828-.462,2.512,2.512,0,0,1,.5-.134h2.293a3.866,3.866,0,0,1,.415.03.844.844,0,0,1,.55.3l2.008,2.063a.89.89,0,0,1,.278.562c.018.179.027.329.027.4v7.713h-2.833v-7.172a1.419,1.419,0,0,0-.355-.915,1.2,1.2,0,0,0-.974-.437h-2.279a.422.422,0,0,0-.315.156.511.511,0,0,0-.145.368v8Zm-12.053,0h-2.836v-8.1c0-.062.01-.187.03-.405a.887.887,0,0,1,.281-.559l1.617-1.677a.856.856,0,0,1,.55-.3,3.879,3.879,0,0,1,.412-.03h3.552a3.943,3.943,0,0,1,.415.03.855.855,0,0,1,.549.3l2.006,2.063a.906.906,0,0,1,.28.562c.019.215.027.343.027.4v7.713h-2.835v-7.172a1.423,1.423,0,0,0-.355-.915,1.2,1.2,0,0,0-.975-.437h-1.774a1,1,0,0,0-.743.311,1.062,1.062,0,0,0-.2.654v7.56Zm-18.126,0h-2.836v-15.5h2.836v5.03a3.02,3.02,0,0,1,.827-.462,2.523,2.523,0,0,1,.5-.134h2.294a3.866,3.866,0,0,1,.415.03.857.857,0,0,1,.552.3l2,2.063a.885.885,0,0,1,.278.562c.021.2.03.34.03.4v7.713h-2.836v-7.172a1.419,1.419,0,0,0-.355-.915,1.2,1.2,0,0,0-.974-.437h-2.276a.425.425,0,0,0-.318.156.509.509,0,0,0-.144.368v8Zm101.391,0h-3.875a3.921,3.921,0,0,1-.415-.03.829.829,0,0,1-.549-.3l-1.62-1.677a.92.92,0,0,1-.281-.559c-.017-.172-.027-.326-.027-.4v-5.132c0-.076.011-.231.027-.405a.919.919,0,0,1,.281-.559l1.62-1.677a.848.848,0,0,1,.549-.3,3.921,3.921,0,0,1,.415-.03h2.6a2.37,2.37,0,0,1,.5.137,2.827,2.827,0,0,1,.83.462v-5.032h2.833v12.535c0,.058-.009.182-.027.4a.932.932,0,0,1-.278.559l-1.623,1.677a.842.842,0,0,1-.549.3A3.921,3.921,0,0,1-9785.106-1062.482Zm-2.873-8.524a1.058,1.058,0,0,0-.84.271,1.075,1.075,0,0,0-.222.693v4.053a1.064,1.064,0,0,0,.222.691,1.058,1.058,0,0,0,.84.273h1.871a1.057,1.057,0,0,0,.838-.273,1.058,1.058,0,0,0,.224-.691v-4.5a.515.515,0,0,0-.145-.365.433.433,0,0,0-.32-.156Zm-8.85,8.524h-2.836v-8.1c0-.062.01-.187.03-.405a.892.892,0,0,1,.278-.559l1.62-1.677a.856.856,0,0,1,.55-.3,3.931,3.931,0,0,1,.414-.03h3.529v2.545h-2.487a1.17,1.17,0,0,0-.82.358,1.506,1.506,0,0,0-.278.994v7.171Zm-8.044,0h-3.7a2.4,2.4,0,0,1-.521-.057,1.321,1.321,0,0,1-.4-.154l-1.353-1.021a1.2,1.2,0,0,1-.509-.619,2.121,2.121,0,0,1-.067-.5v-2.256a1,1,0,0,1,.164-.636,1.6,1.6,0,0,1,.318-.328l1.483-1.272a.761.761,0,0,1,.425-.2,2.286,2.286,0,0,1,.383-.05h2.259a1.96,1.96,0,0,1,.877.191,2.477,2.477,0,0,1,.666.462v-.867a1.612,1.612,0,0,0-.32-.954,1.075,1.075,0,0,0-.78-.375h-3.914v-2.43h4.958a1.479,1.479,0,0,1,.964.328l1.618,1.292a.908.908,0,0,1,.28.559l.009.1,0,.033c.011.135.019.225.019.275v6.094a2.46,2.46,0,0,1-.062.512,1.061,1.061,0,0,1-.383.567l-1.429,1.178a.69.69,0,0,1-.345.1A5.6,5.6,0,0,1-9804.873-1062.482Zm-3.182-4.761a.6.6,0,0,0-.325.077.548.548,0,0,0-.174.174.443.443,0,0,0-.067.181,1.047,1.047,0,0,0-.013.127v1.078a.7.7,0,0,0,.254.629,1.278,1.278,0,0,0,.693.161h2.354a.622.622,0,0,0,.3-.077.394.394,0,0,0,.184-.308v-1.792c-.052-.169-.2-.251-.447-.251Zm-32.55,4.761h-3.7a2.387,2.387,0,0,1-.52-.057,1.357,1.357,0,0,1-.405-.154l-1.347-1.021a1.22,1.22,0,0,1-.515-.619,2.3,2.3,0,0,1-.066-.5v-2.256a1.022,1.022,0,0,1,.166-.636,1.719,1.719,0,0,1,.315-.328l1.486-1.272a.749.749,0,0,1,.425-.2,2.31,2.31,0,0,1,.383-.05h2.257a2,2,0,0,1,.882.191,2.515,2.515,0,0,1,.661.462v-.867a1.631,1.631,0,0,0-.318-.954,1.081,1.081,0,0,0-.78-.375h-3.914v-2.43h4.958a1.469,1.469,0,0,1,.962.328l1.62,1.292a.9.9,0,0,1,.278.559c.02.2.03.335.03.405v6.094a2.4,2.4,0,0,1-.06.512,1.053,1.053,0,0,1-.386.567l-1.426,1.178a.731.731,0,0,1-.349.1A5.476,5.476,0,0,1-9840.6-1062.482Zm-3.179-4.761a.6.6,0,0,0-.328.077.525.525,0,0,0-.174.174.411.411,0,0,0-.069.181l0,.045,0,.022c0,.025,0,.044,0,.06v1.078a.7.7,0,0,0,.253.629,1.269,1.269,0,0,0,.693.161h2.354a.622.622,0,0,0,.3-.077.4.4,0,0,0,.182-.308v-1.792c-.05-.169-.2-.251-.444-.251Zm-30.259,4.761h-2.813v-11.069h2.813v11.068Zm-.286-12.669h-2.18a.361.361,0,0,1-.365-.211.332.332,0,0,1-.06-.214v-2.137a.41.41,0,0,1,.154-.35.289.289,0,0,1,.174-.057h2.354a.266.266,0,0,1,.154.057.4.4,0,0,1,.1.117.448.448,0,0,1,.05.234v2.063a.65.65,0,0,1-.04.251A.327.327,0,0,1-9874.328-1075.151Zm-21.06-3.112a.58.58,0,0,1-.171-.029l-4.3-1.834a.269.269,0,0,1-.124-.194.379.379,0,0,1,.008-.231l.79-1.657a.512.512,0,0,1,.2-.174.247.247,0,0,1,.1-.023.192.192,0,0,1,.12.043l4.282,1.986a.3.3,0,0,1,.151.194.394.394,0,0,1,0,.251l-.808,1.523A.268.268,0,0,1-9895.388-1078.263Z" transform="translate(9902.896 1082.906)" fill="#002376" stroke="rgba(0,0,0,0)" stroke-width="1"/></svg>