<svg xmlns="http://www.w3.org/2000/svg" width="64" height="60" viewBox="0 0 64 60"><g transform="translate(128 -148)"><circle cx="21" cy="21" r="21" transform="translate(-128 148)" fill="#ffec40"/><path d="M-70,199h-6v-2h6a4,4,0,0,0,4-4V163a4,4,0,0,0-4-4h-6v-2h6a6.006,6.006,0,0,1,6,6v30A6.006,6.006,0,0,1-70,199Z" fill="#363f40"/><path d="M-116,199h-6a6.006,6.006,0,0,1-6-6V163a6.006,6.006,0,0,1,6-6h6v2h-6a4,4,0,0,0-4,4v30a4,4,0,0,0,4,4h6Z" fill="#363f40"/><path d="M-70,153h-2a3,3,0,0,0-3-3,3,3,0,0,0-3,3h-2a5.006,5.006,0,0,1,5-5A5.006,5.006,0,0,1-70,153Z" fill="#363f40"/><path d="M-112,153h-2a5.006,5.006,0,0,1,5-5v2A3,3,0,0,0-112,153Z" fill="#363f40"/><rect width="34" height="2" transform="translate(-109 148)" fill="#363f40"/><rect width="2" height="2" transform="translate(-72 153)" fill="#363f40"/><path d="M-81,208a1,1,0,0,1-.707-.293L-84,205.414l-2.293,2.293a1,1,0,0,1-1.414,0L-90,205.414l-2.293,2.293a1,1,0,0,1-1.414,0L-96,205.414l-2.293,2.293a1,1,0,0,1-1.414,0L-102,205.414l-2.293,2.293a1,1,0,0,1-1.414,0L-108,205.414l-2.293,2.293a1,1,0,0,1-1.414,0l-2-2A1,1,0,0,1-114,205V153h2v51.586l1,1,2.293-2.293a1,1,0,0,1,1.414,0l2.293,2.293,2.293-2.293a1,1,0,0,1,1.414,0L-99,205.586l2.293-2.293a1,1,0,0,1,1.414,0L-93,205.586l2.293-2.293a1,1,0,0,1,1.414,0L-87,205.586l2.293-2.293a1,1,0,0,1,1.414,0L-81,205.586l1-1V153h2v52a1,1,0,0,1-.293.707l-2,2A1,1,0,0,1-81,208Z" fill="#363f40"/><path d="M-96,185a4,4,0,0,1-4-4h2a2,2,0,0,0,2,2,2,2,0,0,0,2-2c0-.649-1.424-1.646-2.409-2.087-.6-.269-3.591-1.72-3.591-3.913a4,4,0,0,1,4-4,4,4,0,0,1,4,4h-2a2,2,0,0,0-2-2,2,2,0,0,0-2,2c0,.649,1.424,1.646,2.409,2.087.6.269,3.591,1.72,3.591,3.913A4,4,0,0,1-96,185Z" fill="#363f40"/><rect width="2" height="3" transform="translate(-97 169)" fill="#363f40"/><rect width="2" height="3" transform="translate(-97 184)" fill="#363f40"/><rect width="2" height="2" transform="translate(-90 177)" fill="#363f40"/><rect width="2" height="2" transform="translate(-104 177)" fill="#363f40"/><rect width="24" height="2" transform="translate(-108 161)" fill="#363f40"/><rect width="2" height="2" transform="translate(-97 157)" fill="#363f40"/><rect width="2" height="2" transform="translate(-101 157)" fill="#363f40"/><rect width="2" height="2" transform="translate(-93 157)" fill="#363f40"/><rect width="24" height="2" transform="translate(-108 193)" fill="#363f40"/><rect width="2" height="2" transform="translate(-97 197)" fill="#363f40"/><rect width="2" height="2" transform="translate(-101 197)" fill="#363f40"/><rect width="2" height="2" transform="translate(-93 197)" fill="#363f40"/><rect width="12" height="1.759" transform="translate(-128 163.972)" fill="#363f40"/><rect width="11" height="1.723" transform="translate(-76 163.966)" fill="#363f40"/><rect width="12" height="1.759" transform="translate(-128 176.972)" fill="#363f40"/><rect width="5" height="1.759" transform="translate(-121 181.972)" fill="#363f40"/><rect width="11" height="1.723" transform="translate(-76 176.966)" fill="#363f40"/></g></svg>