<svg xmlns="http://www.w3.org/2000/svg" width="64" height="60" viewBox="0 0 64 60"><g transform="translate(162 -466)"><circle cx="21" cy="21" r="21" transform="translate(-140 466)" fill="#ffec40"/><rect width="56" height="2" transform="translate(-158 500)" fill="#363f40"/><rect width="2" height="2" transform="translate(-150 518)" fill="#363f40"/><rect width="4" height="2" transform="translate(-146 518)" fill="#363f40"/><rect width="2" height="2" transform="translate(-140 518)" fill="#363f40"/><rect width="2" height="2" transform="translate(-126 518)" fill="#363f40"/><rect width="2" height="2" transform="translate(-112 518)" fill="#363f40"/><rect width="4" height="2" transform="translate(-122 518)" fill="#363f40"/><rect width="4" height="2" transform="translate(-132 518)" fill="#363f40"/><rect width="2" height="2" transform="translate(-116 518)" fill="#363f40"/><rect width="2" height="16" transform="translate(-156 504)" fill="#363f40"/><rect width="2" height="16" transform="translate(-154 504)" fill="#363f40"/><rect width="2" height="16" transform="translate(-108 504)" fill="#363f40"/><rect width="2" height="16" transform="translate(-106 504)" fill="#363f40"/><rect width="2" height="12" transform="translate(-150 504)" fill="#363f40"/><rect width="2" height="12" transform="translate(-146 504)" fill="#363f40"/><rect width="2" height="12" transform="translate(-144 504)" fill="#363f40"/><rect width="2" height="12" transform="translate(-140 504)" fill="#363f40"/><rect width="2" height="16" transform="translate(-136 504)" fill="#363f40"/><rect width="2" height="12" transform="translate(-132 504)" fill="#363f40"/><rect width="2" height="12" transform="translate(-130 504)" fill="#363f40"/><rect width="2" height="12" transform="translate(-126 504)" fill="#363f40"/><rect width="2" height="12" transform="translate(-122 504)" fill="#363f40"/><rect width="2" height="12" transform="translate(-120 504)" fill="#363f40"/><rect width="2" height="12" transform="translate(-116 504)" fill="#363f40"/><rect width="2" height="12" transform="translate(-112 504)" fill="#363f40"/><path d="M-100,526h-60a2,2,0,0,1-2-2V478a2,2,0,0,1,2-2h60a2,2,0,0,1,2,2v46A2,2,0,0,1-100,526Zm-60-48v46h60l0-46Z" fill="#363f40"/><rect width="2" height="2" transform="translate(-156 495)" fill="#363f40"/><rect width="2" height="2" transform="translate(-156 491)" fill="#363f40"/><rect width="2" height="2" transform="translate(-156 487)" fill="#363f40"/><rect width="2" height="2" transform="translate(-156 483)" fill="#363f40"/><rect width="2" height="2" transform="translate(-106 495)" fill="#363f40"/><rect width="2" height="2" transform="translate(-106 491)" fill="#363f40"/><rect width="2" height="2" transform="translate(-106 487)" fill="#363f40"/><rect width="2" height="2" transform="translate(-106 483)" fill="#363f40"/><path d="M-143.87,493.06a4.707,4.707,0,0,1-1.254,2.553,3.2,3.2,0,0,1-2.256.885,3.114,3.114,0,0,1-1.967-.688,3.791,3.791,0,0,1-1.166-1.457q-.109-.27-.2-.516a3.809,3.809,0,0,1-.138-.639,23.9,23.9,0,0,1-.1-2.766,23.9,23.9,0,0,1,.1-2.785,3.723,3.723,0,0,1,.336-1.137,3.93,3.93,0,0,1,1.166-1.474,3.046,3.046,0,0,1,1.967-.671,3.086,3.086,0,0,1,2.359,1.024,4.806,4.806,0,0,1,1.151,2.512h-1.6a2.709,2.709,0,0,0-.672-1.227,1.791,1.791,0,0,0-1.234-.5,1.834,1.834,0,0,0-.918.254,2.035,2.035,0,0,0-.631.614,2.166,2.166,0,0,0-.391.99,17.008,17.008,0,0,0-.11,2.4,16.586,16.586,0,0,0,.11,2.381,2.173,2.173,0,0,0,.391,1.007,1.855,1.855,0,0,0,.631.6,1.548,1.548,0,0,0,.918.27q1.275,0,1.906-1.628Z" fill="#363f40"/><path d="M-142.8,484.463h3.9a2.764,2.764,0,0,1,2.036.786,3.441,3.441,0,0,1,.994,2.546A3.344,3.344,0,0,1-137.8,491.1l2.317,5.3h-1.8l-2.064-5.1h-1.933v5.1H-142.8Zm1.515,5.231h2.29a1.523,1.523,0,0,0,1.275-.589,2.055,2.055,0,0,0,.418-1.31,1.728,1.728,0,0,0-.5-1.351,1.547,1.547,0,0,0-1.111-.368h-2.372Z" fill="#363f40"/><path d="M-134.237,484.463h6.383v1.711h-4.868v3.406h4.155v1.605h-4.155v3.5h4.868V496.4h-6.383Z" fill="#363f40"/><path d="M-126.429,484.463h3.5a3.286,3.286,0,0,1,3.044,2.015,4.032,4.032,0,0,1,.459,1.408q.077.737.075,2.546a20.619,20.619,0,0,1-.116,2.684,3.5,3.5,0,0,1-.164.689q-.117.294-.282.613a3.845,3.845,0,0,1-1.22,1.392,3.044,3.044,0,0,1-1.9.589h-3.394Zm1.515,10.225h1.81a1.959,1.959,0,0,0,1.852-1.04,2.211,2.211,0,0,0,.322-.973q.062-.582.061-2.178,0-1.556-.061-2.226a2.259,2.259,0,0,0-.391-1.089,1.908,1.908,0,0,0-1.783-1.008h-1.81Z" fill="#363f40"/><path d="M-117.584,484.463h1.515V496.4h-1.515Z" fill="#363f40"/><path d="M-112.271,486.076h-2.736v-1.613h6.993v1.613h-2.736V496.4h-1.521Z" fill="#363f40"/></g></svg>