<svg xmlns="http://www.w3.org/2000/svg" width="63.903" height="74.258" viewBox="0 0 63.903 74.258"><g transform="translate(-444.982 -788.276)"><path d="M476.922,788.276l-31.878,18.208,31.913,18.183,31.9-18.157Z" fill="#f2f7ff"/><path d="M469.982,776.395v37.7l31.939,18.3V794.462Z" transform="translate(-25 30.131)" fill="#fff"/><path d="M463.068,779.489l-.017,37.852,31.908-18.166-.035-37.809Z" transform="translate(13.906 45.131)" fill="#cde2ff"/><path d="M11.123,11.829l11.065,6.288,9.752-5.542L52.815,24.437V49.753L31.94,61.615,11.064,49.753V37.032L31.94,48.895l9.818-5.581v-12.6L31.94,36.3,0,18.15V56.04L31.94,74.191,63.88,56.04V18.15L31.94,0Z" transform="translate(445.005 788.323)" fill="#1366ff"/></g></svg>