<svg xmlns="http://www.w3.org/2000/svg" width="64" height="64" viewBox="0 0 64 64"><g transform="translate(-723 -250)"><circle cx="21" cy="21" r="21" transform="translate(723 272)" fill="#ffec40"/><path d="M726.943,271.355l-1.87-.71A32.178,32.178,0,0,1,755,250h2.414l-6.707,6.707-1.414-1.414,3.185-3.185A30.186,30.186,0,0,0,726.943,271.355Z" fill="#363f40"/><path d="M787,284.414l-6.707-6.707,1.414-1.414,3.186,3.185a30.189,30.189,0,0,0-19.25-25.535l.709-1.87A32.177,32.177,0,0,1,787,282Z" fill="#363f40"/><path d="M755,314h-2.414l6.707-6.707,1.414,1.414-3.185,3.186a30.192,30.192,0,0,0,25.536-19.248l1.869.71A32.179,32.179,0,0,1,755,314Z" fill="#363f40"/><path d="M743.642,311.925A32.176,32.176,0,0,1,723,282v-2.414l6.707,6.707-1.414,1.414-3.185-3.185a30.187,30.187,0,0,0,19.244,25.534Z" fill="#363f40"/><path d="M755,292a6.778,6.778,0,0,1-7-7c0-3.1,1.973-6.344,3.714-9.209C752.838,273.942,754,272.029,754,271a1,1,0,0,1,2,0c0,1.029,1.162,2.942,2.286,4.791C760.027,278.656,762,281.9,762,285A6.778,6.778,0,0,1,755,292Zm0-17.885c-.441.846-.992,1.753-1.577,2.715-1.6,2.64-3.423,5.632-3.423,8.17a5,5,0,0,0,10,0c0-2.538-1.818-5.53-3.423-8.17C755.992,275.868,755.441,274.961,755,274.115Z" fill="#363f40"/><path d="M755,302a20,20,0,1,1,20-20A20.023,20.023,0,0,1,755,302Zm0-38a18,18,0,1,0,18,18A18.021,18.021,0,0,0,755,264Z" fill="#363f40"/></g></svg>