<svg xmlns="http://www.w3.org/2000/svg" width="63.416" height="58" viewBox="0 0 63.416 58"><g transform="translate(-179.584 -310)"><circle cx="29" cy="29" r="29" transform="translate(179.584 310)" fill="#e9eaeb"/><line y2="6" transform="translate(240 320)" fill="none" stroke="#bcc0c4" stroke-miterlimit="10" stroke-width="2"/><line x1="6" transform="translate(237 323)" fill="none" stroke="#bcc0c4" stroke-miterlimit="10" stroke-width="2"/><line y2="6" transform="translate(187 346)" fill="none" stroke="#bcc0c4" stroke-miterlimit="10" stroke-width="2"/><line x1="6" transform="translate(184 349)" fill="none" stroke="#bcc0c4" stroke-miterlimit="10" stroke-width="2"/><rect width="43" height="27" rx="4" transform="translate(187 313)" fill="#fff"/><path d="M230,331V317a4,4,0,0,0-4-4H191a4,4,0,0,0-4,4v19a4,4,0,0,0,4,4h3" fill="none" stroke="#1366ff" stroke-miterlimit="10" stroke-width="2"/><line x1="43" transform="translate(187 318)" fill="none" stroke="#1366ff" stroke-miterlimit="10" stroke-width="2"/><line x1="43" transform="translate(187 324)" fill="none" stroke="#1366ff" stroke-miterlimit="10" stroke-width="2"/><rect width="43" height="29" rx="4" transform="translate(196 333)" fill="#cde2ff" stroke="#1366ff" stroke-miterlimit="10" stroke-width="2"/><line x2="6" transform="translate(202 355)" fill="none" stroke="#1366ff" stroke-linecap="round" stroke-miterlimit="10" stroke-width="2"/><line x2="5" transform="translate(211 355)" fill="none" stroke="#1366ff" stroke-linecap="round" stroke-miterlimit="10" stroke-width="2"/><line x2="6" transform="translate(219 355)" fill="none" stroke="#1366ff" stroke-linecap="round" stroke-miterlimit="10" stroke-width="2"/><line x2="6" transform="translate(228 355)" fill="none" stroke="#1366ff" stroke-linecap="round" stroke-miterlimit="10" stroke-width="2"/><path d="M234,342.5a3.5,3.5,0,0,1-3.5,3.5h-1a3.5,3.5,0,0,1-3.5-3.5h0a3.5,3.5,0,0,1,3.5-3.5h1a3.5,3.5,0,0,1,3.5,3.5Z" fill="#fff" stroke="#1366ff" stroke-miterlimit="10" stroke-width="2"/><line x2="9" transform="translate(190 328)" fill="none" stroke="#1366ff" stroke-miterlimit="10" stroke-width="2"/><line x2="9" transform="translate(201 328)" fill="none" stroke="#1366ff" stroke-miterlimit="10" stroke-width="2"/></g></svg>