<?xml version="1.0" encoding="utf-8"?>
<!-- Generator: Adobe Illustrator 22.0.1, SVG Export Plug-In . SVG Version: 6.00 Build 0)  -->
<svg version="1.1" id="Layer_1" xmlns="http://www.w3.org/2000/svg" xmlns:xlink="http://www.w3.org/1999/xlink" x="0px" y="0px"
	 viewBox="0 0 199.3 88" style="enable-background:new 0 0 199.3 88;" xml:space="preserve">
<style type="text/css">
	.st0{fill:#F4563F;}
	.st1{fill:#FFFFFF;}
	.st2{enable-background:new    ;}
	.st3{fill:#45BC97;}
	.st4{fill:#F28C06;}
	.st5{fill:#00CECE;}
	.st6{fill:#1B2733;}
</style>
<g transform="translate(386.403 -65.817)">
	<g transform="translate(-386.403 96.04)">
		<g>
			<path class="st0" d="M6.7,0L4.2,4.3h2.1v28.2H7V4.3h2.1L6.7,0z"/>
		</g>
		<g>
			<path class="st0" d="M15.9,33.9l-2.5-4.3h2.1V1.4h0.7v28.2h2.1L15.9,33.9z"/>
		</g>
		<g transform="translate(0 9.184)">
			<g>
				<rect y="0" class="st1" width="23.3" height="15.5"/>
			</g>
			<g>
				<path class="st0" d="M23.3,15.5H0V0h23.3V15.5z M1,14.5h21.3V1H1V14.5z"/>
			</g>
		</g>
		<g class="st2">
			<path class="st0" d="M11,14.3v0.7H9.2V20H8.4v-5.1H6.5v-0.7H11z"/>
			<path class="st0" d="M13.2,17.1l-1.9-2.8h0.8c0.1,0,0.1,0,0.1,0c0,0,0.1,0,0.1,0.1l1.5,2.3c0-0.1,0-0.1,0.1-0.2l1.4-2.1
				c0,0,0-0.1,0.1-0.1c0,0,0.1,0,0.1,0h0.7L14.3,17l2,3h-0.8c-0.1,0-0.1,0-0.1,0c0,0-0.1-0.1-0.1-0.1l-1.5-2.4c0,0.1,0,0.1-0.1,0.2
				l-1.5,2.2c0,0-0.1,0.1-0.1,0.1c0,0-0.1,0-0.1,0h-0.7L13.2,17.1z"/>
		</g>
	</g>
	<g transform="translate(-210.403 95.817)">
		<g>
			<path class="st3" d="M6.7,0L4.2,4.3h2.1v28.2H7V4.3h2.1L6.7,0z"/>
		</g>
		<g>
			<path class="st3" d="M15.9,33.9l-2.5-4.3h2.1V1.4h0.7v28.2h2.1L15.9,33.9z"/>
		</g>
		<g transform="translate(0 9.184)">
			<g>
				<rect x="0" y="0" class="st1" width="23.3" height="15.5"/>
			</g>
			<g>
				<path class="st3" d="M23.3,15.5H0V0h23.3V15.5z M1,14.5h21.3V1H1V14.5z"/>
			</g>
		</g>
		<g class="st2">
			<path class="st3" d="M11,14.3v0.7H9.2V20H8.4v-5.1H6.5v-0.7H11z"/>
			<path class="st3" d="M13.2,17.1l-1.9-2.8h0.8c0.1,0,0.1,0,0.1,0s0.1,0,0.1,0.1l1.5,2.3c0-0.1,0-0.1,0.1-0.2l1.4-2.1
				c0,0,0-0.1,0.1-0.1c0,0,0.1,0,0.1,0h0.7L14.3,17l2,3h-0.8c-0.1,0-0.1,0-0.1,0c0,0-0.1-0.1-0.1-0.1l-1.5-2.4c0,0.1,0,0.1-0.1,0.2
				l-1.5,2.2c0,0-0.1,0.1-0.1,0.1s-0.1,0-0.1,0h-0.7L13.2,17.1z"/>
		</g>
	</g>
	<g transform="translate(-265.403 65.817)">
		<g>
			<path class="st4" d="M6.7,0L4.2,4.3h2.1v28.2H7V4.3h2.1L6.7,0z"/>
		</g>
		<g>
			<path class="st4" d="M15.9,33.9l-2.5-4.3h2.1V1.4h0.7v28.2h2.1L15.9,33.9z"/>
		</g>
		<g transform="translate(0 9.184)">
			<g>
				<rect y="0" class="st1" width="23.3" height="15.5"/>
			</g>
			<g>
				<path class="st4" d="M23.3,15.5H0V0h23.3V15.5z M1,14.5h21.3V1H1V14.5z"/>
			</g>
		</g>
		<g class="st2">
			<path class="st4" d="M11,14.3v0.7H9.2V20H8.4v-5.1H6.5v-0.7H11z"/>
			<path class="st4" d="M13.2,17.1l-1.9-2.8h0.8c0.1,0,0.1,0,0.1,0s0.1,0,0.1,0.1l1.5,2.3c0-0.1,0-0.1,0.1-0.2l1.4-2.1
				c0,0,0-0.1,0.1-0.1c0,0,0.1,0,0.1,0h0.7L14.3,17l2,3h-0.8c-0.1,0-0.1,0-0.1,0c0,0-0.1-0.1-0.1-0.1l-1.5-2.4c0,0.1,0,0.1-0.1,0.2
				l-1.5,2.2c0,0-0.1,0.1-0.1,0.1s-0.1,0-0.1,0h-0.7L13.2,17.1z"/>
		</g>
	</g>
	<g transform="translate(-330.403 65.817)">
		<g>
			<path class="st5" d="M6.7,0L4.2,4.3h2.1v28.2H7V4.3h2.1L6.7,0z"/>
		</g>
		<g>
			<path class="st5" d="M15.9,33.9l-2.5-4.3h2.1V1.4h0.7v28.2h2.1L15.9,33.9z"/>
		</g>
		<g transform="translate(0 9.184)">
			<g>
				<rect y="0" class="st1" width="23.3" height="15.5"/>
			</g>
			<g>
				<path class="st5" d="M23.3,15.5H0V0h23.3V15.5z M1,14.5h21.3V1H1V14.5z"/>
			</g>
		</g>
		<g class="st2">
			<path class="st5" d="M11,14.3v0.7H9.2V20H8.4v-5.1H6.5v-0.7H11z"/>
			<path class="st5" d="M13.2,17.1l-1.9-2.8h0.8c0.1,0,0.1,0,0.1,0c0,0,0.1,0,0.1,0.1l1.5,2.3c0-0.1,0-0.1,0.1-0.2l1.4-2.1
				c0,0,0-0.1,0.1-0.1c0,0,0.1,0,0.1,0h0.7L14.3,17l2,3h-0.8c-0.1,0-0.1,0-0.1,0c0,0-0.1-0.1-0.1-0.1l-1.5-2.4c0,0.1,0,0.1-0.1,0.2
				l-1.5,2.2c0,0-0.1,0.1-0.1,0.1c0,0-0.1,0-0.1,0h-0.7L13.2,17.1z"/>
		</g>
	</g>
	<g transform="translate(-716.118 -446.399)">
		<g class="st2">
			<path class="st6" d="M408.6,596.6c0.1,0,0.1,0,0.2,0.1l0.5,0.6c-0.3,0.4-0.7,0.6-1.1,0.8c-0.4,0.2-0.9,0.3-1.5,0.3
				c-0.5,0-1-0.1-1.4-0.3c-0.4-0.2-0.8-0.4-1.1-0.8c-0.3-0.3-0.5-0.7-0.7-1.2c-0.2-0.5-0.2-0.9-0.2-1.5c0-0.5,0.1-1,0.3-1.5
				c0.2-0.5,0.4-0.8,0.8-1.2c0.3-0.3,0.7-0.6,1.2-0.8c0.5-0.2,1-0.3,1.5-0.3c0.5,0,1,0.1,1.4,0.3c0.4,0.2,0.7,0.4,1,0.7l-0.5,0.6
				c0,0-0.1,0.1-0.1,0.1c0,0-0.1,0-0.2,0c-0.1,0-0.2,0-0.2-0.1c-0.1-0.1-0.2-0.1-0.3-0.2c-0.1-0.1-0.3-0.1-0.5-0.2
				c-0.2-0.1-0.4-0.1-0.7-0.1c-0.3,0-0.7,0.1-0.9,0.2s-0.5,0.3-0.7,0.5c-0.2,0.2-0.4,0.5-0.5,0.8c-0.1,0.3-0.2,0.7-0.2,1.1
				c0,0.4,0.1,0.8,0.2,1.1c0.1,0.3,0.3,0.6,0.5,0.8c0.2,0.2,0.4,0.4,0.7,0.5s0.6,0.2,0.9,0.2c0.2,0,0.3,0,0.5,0
				c0.1,0,0.3-0.1,0.4-0.1c0.1,0,0.2-0.1,0.4-0.2c0.1-0.1,0.2-0.2,0.3-0.3c0,0,0.1-0.1,0.1-0.1C408.5,596.6,408.5,596.6,408.6,596.6
				z"/>
			<path class="st6" d="M417.2,594.6c0,0.5-0.1,1-0.3,1.5c-0.2,0.5-0.4,0.8-0.7,1.2c-0.3,0.3-0.7,0.6-1.2,0.8
				c-0.5,0.2-0.9,0.3-1.5,0.3s-1-0.1-1.5-0.3c-0.5-0.2-0.8-0.4-1.2-0.8c-0.3-0.3-0.6-0.7-0.7-1.2c-0.2-0.5-0.3-0.9-0.3-1.5
				c0-0.5,0.1-1,0.3-1.5c0.2-0.5,0.4-0.8,0.7-1.2c0.3-0.3,0.7-0.6,1.2-0.8c0.5-0.2,1-0.3,1.5-0.3s1,0.1,1.5,0.3s0.8,0.4,1.2,0.8
				c0.3,0.3,0.6,0.7,0.7,1.2C417.2,593.6,417.2,594.1,417.2,594.6z M415.9,594.6c0-0.4-0.1-0.8-0.2-1.1c-0.1-0.3-0.3-0.6-0.5-0.8
				c-0.2-0.2-0.4-0.4-0.7-0.5c-0.3-0.1-0.6-0.2-1-0.2s-0.7,0.1-1,0.2c-0.3,0.1-0.5,0.3-0.7,0.5c-0.2,0.2-0.4,0.5-0.5,0.8
				c-0.1,0.3-0.2,0.7-0.2,1.1s0.1,0.8,0.2,1.1c0.1,0.3,0.3,0.6,0.5,0.8c0.2,0.2,0.4,0.4,0.7,0.5c0.3,0.1,0.6,0.2,1,0.2
				s0.7-0.1,1-0.2c0.3-0.1,0.5-0.3,0.7-0.5c0.2-0.2,0.3-0.5,0.5-0.8C415.8,595.4,415.9,595,415.9,594.6z"/>
			<path class="st6" d="M419.2,591c0,0,0.1,0,0.1,0s0.1,0,0.1,0.1c0,0,0.1,0.1,0.1,0.1l3.8,4.8c0-0.1,0-0.2,0-0.3c0-0.1,0-0.2,0-0.3
				V591h1.2v7.2h-0.7c-0.1,0-0.2,0-0.3,0c-0.1,0-0.1-0.1-0.2-0.2l-3.8-4.8c0,0.1,0,0.2,0,0.3c0,0.1,0,0.2,0,0.3v4.4h-1.2V591h0.7
				C419.1,591,419.1,591,419.2,591z"/>
			<path class="st6" d="M431,591v1.1h-2.2v6.1h-1.3v-6.1h-2.2V591H431z"/>
			<path class="st6" d="M433.2,595.4v2.8h-1.3V591h2.2c0.5,0,0.9,0.1,1.3,0.2s0.6,0.2,0.9,0.4c0.2,0.2,0.4,0.4,0.5,0.7
				c0.1,0.3,0.2,0.5,0.2,0.8c0,0.2,0,0.5-0.1,0.7c-0.1,0.2-0.2,0.4-0.3,0.6s-0.3,0.3-0.5,0.5c-0.2,0.1-0.4,0.2-0.7,0.3
				c0.2,0.1,0.3,0.2,0.4,0.4l1.8,2.7h-1.2c-0.1,0-0.2,0-0.3-0.1c-0.1,0-0.2-0.1-0.2-0.2l-1.5-2.3c-0.1-0.1-0.1-0.1-0.2-0.2
				c-0.1,0-0.2-0.1-0.3-0.1H433.2z M433.2,594.5h0.8c0.3,0,0.5,0,0.7-0.1c0.2-0.1,0.3-0.2,0.5-0.3c0.1-0.1,0.2-0.2,0.3-0.4
				c0.1-0.2,0.1-0.3,0.1-0.5c0-0.4-0.1-0.6-0.4-0.8c-0.2-0.2-0.6-0.3-1.1-0.3h-0.9V594.5z"/>
			<path class="st6" d="M444.7,598.3h-1c-0.1,0-0.2,0-0.3-0.1c-0.1-0.1-0.1-0.1-0.2-0.2l-0.5-1.5h-3l-0.5,1.5c0,0.1-0.1,0.1-0.2,0.2
				s-0.2,0.1-0.3,0.1h-1l2.8-7.2h1.4L444.7,598.3z M440,595.5h2.3l-0.9-2.4c0-0.1-0.1-0.2-0.1-0.4c0-0.1-0.1-0.3-0.1-0.5
				c0,0.2-0.1,0.3-0.1,0.5s-0.1,0.3-0.1,0.4L440,595.5z"/>
			<path class="st6" d="M450.2,596.6c0.1,0,0.1,0,0.2,0.1l0.5,0.6c-0.3,0.4-0.7,0.6-1.1,0.8c-0.4,0.2-0.9,0.3-1.5,0.3
				c-0.5,0-1-0.1-1.4-0.3c-0.4-0.2-0.8-0.4-1.1-0.8c-0.3-0.3-0.5-0.7-0.7-1.2c-0.2-0.5-0.2-0.9-0.2-1.5c0-0.5,0.1-1,0.3-1.5
				c0.2-0.5,0.4-0.8,0.8-1.2c0.3-0.3,0.7-0.6,1.2-0.8c0.5-0.2,1-0.3,1.5-0.3c0.5,0,1,0.1,1.4,0.3c0.4,0.2,0.7,0.4,1,0.7l-0.5,0.6
				c0,0-0.1,0.1-0.1,0.1c0,0-0.1,0-0.2,0c-0.1,0-0.2,0-0.2-0.1c-0.1-0.1-0.2-0.1-0.3-0.2c-0.1-0.1-0.3-0.1-0.5-0.2
				c-0.2-0.1-0.4-0.1-0.7-0.1c-0.3,0-0.7,0.1-0.9,0.2s-0.5,0.3-0.7,0.5c-0.2,0.2-0.4,0.5-0.5,0.8c-0.1,0.3-0.2,0.7-0.2,1.1
				c0,0.4,0.1,0.8,0.2,1.1c0.1,0.3,0.3,0.6,0.5,0.8c0.2,0.2,0.4,0.4,0.7,0.5s0.6,0.2,0.9,0.2c0.2,0,0.3,0,0.5,0
				c0.1,0,0.3-0.1,0.4-0.1c0.1,0,0.2-0.1,0.4-0.2c0.1-0.1,0.2-0.2,0.3-0.3c0,0,0.1-0.1,0.1-0.1C450.1,596.6,450.1,596.6,450.2,596.6
				z"/>
			<path class="st6" d="M457,591v1.1h-2.2v6.1h-1.3v-6.1h-2.2V591H457z"/>
		</g>
		<g class="st2">
			<path class="st6" d="M421.8,566.2h0.8h9h0.3l0.3,0.2l4.5,4.5l0.2,0.3v0.3V585v0.8H436h-13.5h-0.8V585v-18V566.2z M423.3,567.7
				v16.5h12v-12h-3.8h-0.8v-0.8v-3.8H423.3z M425.5,573.7h7.5v1.5h-7.5V573.7z M425.5,576.7h7.5v1.5h-7.5V576.7z M425.5,579.7h7.5
				v1.5h-7.5V579.7z M432.3,568.8v1.9h1.9L432.3,568.8z"/>
		</g>
	</g>
</g>
</svg>
