<?xml version="1.0" encoding="utf-8"?>
<!-- Generator: Adobe Illustrator 17.0.0, SVG Export Plug-In . SVG Version: 6.00 Build 0)  -->
<!DOCTYPE svg PUBLIC "-//W3C//DTD SVG 1.1//EN" "http://www.w3.org/Graphics/SVG/1.1/DTD/svg11.dtd">
<svg version="1.1" id="Layer_1" xmlns="http://www.w3.org/2000/svg" xmlns:xlink="http://www.w3.org/1999/xlink" x="0px" y="0px"
	 width="170px" height="84.996px" viewBox="0 0 170 84.996" enable-background="new 0 0 170 84.996" xml:space="preserve">
<g>
	<g>
		<g>
			<polygon fill="#0055B8" points="25.216,12.857 11.001,51.359 17.389,51.359 17.389,60.946 0,60.946 0,53.664 19.835,0.017 
				30.564,0.017 			"/>
		</g>
	</g>
	<polygon points="30.61,0.035 30.61,0 6.313,0 6.313,9.623 23.9,9.623 25.255,12.857 39.819,51.358 33.511,51.358 33.511,60.946 
		50.852,60.946 50.852,53.655 	"/>
</g>
<g>
	<path d="M3.713,82.907h5.21v1.913H1.371V71.97h2.342V82.907z"/>
	<path d="M16.66,84.82c-0.067-0.218-0.124-0.426-0.169-0.622c-0.047-0.197-0.08-0.389-0.1-0.577l-0.02-0.009
		c-0.28,0.406-0.628,0.737-1.041,0.997c-0.413,0.258-0.877,0.388-1.391,0.388c-0.894,0-1.582-0.249-2.066-0.746
		c-0.484-0.497-0.724-1.181-0.724-2.051c0-0.93,0.328-1.651,0.985-2.162s1.602-0.768,2.836-0.768h1.391v-0.979
		c0-0.595-0.131-1.052-0.395-1.372c-0.264-0.32-0.644-0.481-1.145-0.481c-0.46,0-0.821,0.142-1.081,0.428
		c-0.26,0.286-0.39,0.657-0.39,1.116l-2.011-0.009c0-0.783,0.331-1.456,0.99-2.024c0.661-0.568,1.534-0.852,2.621-0.852
		c1.034,0,1.862,0.271,2.486,0.815c0.624,0.544,0.936,1.343,0.936,2.397v4.43c0,0.364,0.025,0.715,0.075,1.054
		c0.051,0.339,0.129,0.681,0.235,1.028H16.66z M14.399,83.62c0.44,0,0.834-0.116,1.181-0.349c0.346-0.233,0.606-0.531,0.779-0.895
		v-1.995h-1.42c-0.581,0-1.025,0.173-1.33,0.521c-0.308,0.348-0.46,0.777-0.46,1.289c0,0.435,0.107,0.783,0.32,1.041
		S13.992,83.62,14.399,83.62z"/>
	<path d="M23.478,75.272l0.109,1.172l0.031,0.009c0.273-0.435,0.619-0.77,1.036-1.005c0.417-0.237,0.916-0.353,1.494-0.353
		c0.561,0,1.039,0.133,1.436,0.4c0.397,0.268,0.703,0.684,0.916,1.249c0.273-0.522,0.626-0.928,1.061-1.218
		c0.433-0.288,0.954-0.431,1.56-0.431c0.886,0,1.58,0.32,2.077,0.961c0.497,0.641,0.744,1.642,0.744,3.001v5.762H31.93v-5.772
		c0-0.965-0.124-1.633-0.369-2.004c-0.248-0.369-0.621-0.555-1.121-0.555c-0.419,0.005-0.768,0.147-1.045,0.422
		c-0.277,0.277-0.486,0.644-0.626,1.105c0.007,0.111,0.015,0.222,0.02,0.335c0.007,0.111,0.011,0.226,0.011,0.344v6.125h-2.011
		v-5.815c0-0.919-0.124-1.567-0.369-1.948c-0.248-0.379-0.624-0.568-1.13-0.568c-0.388,0-0.712,0.096-0.976,0.291
		c-0.264,0.193-0.482,0.468-0.655,0.821v7.219h-2.011v-9.548H23.478z"/>
	<path d="M44.89,80.839c0,1.289-0.288,2.304-0.865,3.045c-0.577,0.741-1.416,1.112-2.515,1.112c-0.548,0-1.016-0.104-1.401-0.313
		c-0.388-0.209-0.713-0.517-0.981-0.923l-0.029,0.009l-0.131,1.05h-1.74V71.053h2v5.145h0.031c0.253-0.359,0.562-0.633,0.93-0.821
		c0.366-0.189,0.801-0.282,1.301-0.282c1.112,0,1.958,0.397,2.535,1.19c0.577,0.795,0.865,1.88,0.865,3.256V80.839z M42.889,79.541
		c0-0.936-0.149-1.678-0.446-2.228c-0.297-0.55-0.784-0.825-1.465-0.825c-0.426,0-0.781,0.115-1.065,0.344s-0.511,0.546-0.686,0.952
		v4.625c0.167,0.382,0.395,0.679,0.681,0.888c0.288,0.207,0.65,0.313,1.09,0.313c0.688,0,1.174-0.244,1.462-0.728
		c0.286-0.486,0.43-1.167,0.43-2.044V79.541z"/>
	<path d="M47.465,80.16c0-1.56,0.293-2.794,0.881-3.702c0.586-0.91,1.431-1.363,2.53-1.363c0.475,0,0.89,0.091,1.247,0.273
		c0.357,0.182,0.668,0.448,0.936,0.794l0.029-0.009v-5.1h2.011V84.82h-1.751l-0.14-1.016l-0.029-0.007
		c-0.275,0.393-0.601,0.692-0.981,0.895c-0.38,0.202-0.826,0.304-1.341,0.304c-1.094,0-1.931-0.417-2.515-1.249
		c-0.584-0.834-0.875-1.968-0.875-3.402V80.16z M49.465,80.346c0,1.023,0.149,1.824,0.446,2.401
		c0.297,0.575,0.779,0.865,1.445,0.865c0.408,0,0.752-0.098,1.03-0.297c0.28-0.197,0.515-0.481,0.701-0.852v-4.747
		c-0.186-0.39-0.42-0.69-0.701-0.905c-0.278-0.215-0.617-0.322-1.01-0.322c-0.666,0-1.152,0.331-1.454,0.997
		c-0.304,0.664-0.457,1.556-0.457,2.674V80.346z"/>
	<path d="M63.644,84.82c-0.067-0.218-0.124-0.426-0.169-0.622c-0.047-0.197-0.08-0.389-0.1-0.577l-0.02-0.009
		c-0.28,0.406-0.628,0.737-1.041,0.997c-0.413,0.258-0.877,0.388-1.391,0.388c-0.894,0-1.582-0.249-2.066-0.746
		s-0.724-1.181-0.724-2.051c0-0.93,0.328-1.651,0.985-2.162s1.602-0.768,2.836-0.768h1.391v-0.979c0-0.595-0.131-1.052-0.395-1.372
		c-0.264-0.32-0.644-0.481-1.145-0.481c-0.46,0-0.821,0.142-1.081,0.428c-0.26,0.286-0.389,0.657-0.389,1.116l-2.011-0.009
		c0-0.783,0.331-1.456,0.99-2.024c0.661-0.568,1.534-0.852,2.621-0.852c1.034,0,1.862,0.271,2.486,0.815
		c0.624,0.544,0.936,1.343,0.936,2.397v4.43c0,0.364,0.025,0.715,0.075,1.054c0.051,0.339,0.129,0.681,0.235,1.028H63.644z
		 M61.383,83.62c0.44,0,0.834-0.116,1.181-0.349c0.346-0.233,0.606-0.531,0.779-0.895v-1.995h-1.42c-0.581,0-1.025,0.173-1.33,0.521
		c-0.308,0.348-0.46,0.777-0.46,1.289c0,0.435,0.107,0.783,0.32,1.041S60.976,83.62,61.383,83.62z"/>
	<path d="M74.228,84.82V71.97h3.942c1.327,0,2.344,0.282,3.056,0.848c0.71,0.564,1.065,1.434,1.065,2.612
		c0,0.624-0.162,1.165-0.486,1.624c-0.322,0.459-0.777,0.794-1.365,1.007v0.025c0.754,0.147,1.325,0.504,1.716,1.068
		c0.39,0.564,0.584,1.241,0.584,2.029c0,1.212-0.348,2.122-1.045,2.728S79.999,84.82,78.7,84.82H74.228z M76.239,77.539h2.201
		c0.593-0.018,1.05-0.202,1.371-0.551c0.32-0.351,0.481-0.857,0.481-1.523c0-0.723-0.175-1.258-0.526-1.602
		c-0.349-0.344-0.881-0.515-1.594-0.515h-1.931V77.539z M76.239,78.828v4.632H78.7c0.666,0,1.174-0.193,1.52-0.582
		c0.348-0.388,0.521-0.95,0.521-1.685c0-0.741-0.149-1.321-0.45-1.738c-0.3-0.419-0.77-0.626-1.411-0.626H76.239z"/>
	<path d="M87.937,84.82h-2V71.053h2V84.82z"/>
	<path d="M91.002,79.445c0-1.294,0.351-2.342,1.05-3.147c0.701-0.803,1.685-1.203,2.952-1.203c1.274,0,2.261,0.4,2.961,1.203
		c0.699,0.804,1.05,1.853,1.05,3.147v1.218c0,1.307-0.349,2.355-1.047,3.147c-0.697,0.792-1.678,1.187-2.945,1.187
		c-1.281,0-2.271-0.397-2.972-1.192c-0.699-0.794-1.05-1.84-1.05-3.141V79.445z M93.013,80.663c0,0.895,0.16,1.616,0.481,2.162
		c0.32,0.548,0.83,0.821,1.531,0.821c0.679,0,1.181-0.275,1.505-0.825c0.324-0.55,0.486-1.27,0.486-2.159v-1.218
		c0-0.883-0.164-1.598-0.491-2.15c-0.326-0.55-0.834-0.825-1.52-0.825c-0.693,0-1.199,0.275-1.516,0.825
		c-0.317,0.551-0.475,1.267-0.475,2.15V80.663z"/>
	<path d="M105.541,83.646c0.481,0,0.89-0.171,1.23-0.511c0.34-0.342,0.497-0.81,0.47-1.403h1.88c0.027,0.941-0.313,1.72-1.019,2.339
		c-0.708,0.617-1.551,0.926-2.532,0.926c-1.314,0-2.304-0.395-2.97-1.187c-0.668-0.792-1.001-1.822-1.001-3.094v-1.314
		c0-1.27,0.335-2.306,1.007-3.107c0.67-0.801,1.654-1.199,2.956-1.199c1.087,0,1.957,0.319,2.61,0.957
		c0.653,0.637,0.97,1.502,0.95,2.59h-1.88c0.02-0.659-0.126-1.187-0.435-1.58c-0.309-0.395-0.732-0.592-1.265-0.592
		c-0.733,0-1.239,0.269-1.516,0.808c-0.277,0.537-0.415,1.245-0.415,2.122v1.314c0,0.895,0.137,1.607,0.41,2.137
		C104.294,83.382,104.8,83.646,105.541,83.646z"/>
	<path d="M114.73,80.442h-0.821v4.377h-2V71.053h2v8.021h0.81l2.151-3.802h2.341l-2.912,4.306l3.282,5.242h-2.33L114.73,80.442z"/>
	<path d="M125.198,83.646c0.48,0,0.89-0.171,1.23-0.511c0.34-0.342,0.497-0.81,0.47-1.403h1.88c0.027,0.941-0.313,1.72-1.019,2.339
		c-0.708,0.617-1.551,0.926-2.532,0.926c-1.314,0-2.304-0.395-2.97-1.187c-0.668-0.792-1.001-1.822-1.001-3.094v-1.314
		c0-1.27,0.335-2.306,1.007-3.107c0.67-0.801,1.654-1.199,2.956-1.199c1.087,0,1.957,0.319,2.61,0.957
		c0.653,0.637,0.97,1.502,0.95,2.59h-1.88c0.02-0.659-0.126-1.187-0.435-1.58c-0.309-0.395-0.732-0.592-1.265-0.592
		c-0.734,0-1.239,0.269-1.516,0.808c-0.277,0.537-0.415,1.245-0.415,2.122v1.314c0,0.895,0.137,1.607,0.41,2.137
		C123.951,83.382,124.457,83.646,125.198,83.646z"/>
	<path d="M133.534,76.4l0.031,0.009c0.28-0.411,0.621-0.733,1.025-0.966c0.404-0.233,0.859-0.348,1.365-0.348
		c0.941,0,1.665,0.309,2.171,0.93c0.508,0.621,0.761,1.605,0.761,2.952v5.843h-2v-5.861c0-0.899-0.133-1.536-0.395-1.909
		c-0.264-0.375-0.673-0.561-1.227-0.561c-0.373,0-0.704,0.098-0.996,0.295c-0.289,0.197-0.535,0.473-0.735,0.826v7.209h-2.009
		V71.053h2.009V76.4z"/>
	<path d="M147.372,84.82c-0.067-0.218-0.124-0.426-0.169-0.622c-0.047-0.197-0.08-0.389-0.1-0.577l-0.02-0.009
		c-0.28,0.406-0.628,0.737-1.041,0.997c-0.413,0.258-0.877,0.388-1.391,0.388c-0.894,0-1.582-0.249-2.066-0.746
		s-0.724-1.181-0.724-2.051c0-0.93,0.328-1.651,0.985-2.162s1.602-0.768,2.836-0.768h1.391v-0.979c0-0.595-0.131-1.052-0.395-1.372
		c-0.264-0.32-0.644-0.481-1.145-0.481c-0.46,0-0.821,0.142-1.081,0.428c-0.26,0.286-0.39,0.657-0.39,1.116l-2.011-0.009
		c0-0.783,0.331-1.456,0.99-2.024c0.661-0.568,1.534-0.852,2.621-0.852c1.034,0,1.862,0.271,2.486,0.815
		c0.624,0.544,0.936,1.343,0.936,2.397v4.43c0,0.364,0.025,0.715,0.075,1.054c0.051,0.339,0.129,0.681,0.235,1.028H147.372z
		 M145.111,83.62c0.44,0,0.834-0.116,1.181-0.349c0.346-0.233,0.606-0.531,0.779-0.895v-1.995h-1.42
		c-0.581,0-1.025,0.173-1.33,0.521c-0.308,0.348-0.46,0.777-0.46,1.289c0,0.435,0.107,0.783,0.32,1.041S144.704,83.62,145.111,83.62
		z"/>
	<path d="M154.49,72.765h-2v-1.713h2V72.765z M154.49,84.82h-2v-9.548h2V84.82z"/>
	<path d="M159.736,75.272l0.111,1.289h0.029c0.275-0.466,0.622-0.826,1.047-1.081c0.422-0.257,0.908-0.384,1.454-0.384
		c0.921,0,1.629,0.298,2.126,0.895s0.746,1.551,0.746,2.863v5.966h-2.011v-5.948c0-0.888-0.127-1.507-0.384-1.858
		c-0.258-0.349-0.666-0.524-1.227-0.524c-0.38,0-0.713,0.106-0.999,0.317c-0.288,0.213-0.528,0.506-0.721,0.883v7.131h-2.011v-9.548
		H159.736z"/>
</g>
<g>
	<path fill="none" d="M151.919,32.888c-1.21,0-2.337,0.233-3.38,0.698c-1.043,0.465-1.964,1.107-2.76,1.926
		c-0.798,0.822-1.43,1.804-1.896,2.953c-0.467,1.149-0.7,2.407-0.7,3.773c0,1.258,0.233,2.447,0.7,3.567
		c0.467,1.121,1.099,2.106,1.896,2.951c0.796,0.849,1.717,1.517,2.76,2.01c1.043,0.492,2.169,0.738,3.38,0.738
		c1.316,0,2.524-0.245,3.625-0.738c1.097-0.492,2.044-1.16,2.842-2.01c0.795-0.845,1.414-1.831,1.852-2.951
		c0.441-1.121,0.66-2.309,0.66-3.567c0-2.79-0.851-5.045-2.554-6.765C156.64,33.75,154.499,32.888,151.919,32.888z"/>
	<path d="M72.37,47.415c0.847-1.422,1.571-2.652,2.174-3.691c0.766-1.256,1.463-2.405,2.092-3.444
		c0.628-1.039,1.272-2.078,1.928-3.117c0.656-1.039,1.38-2.173,2.173-3.404c0.792-1.23,1.763-2.692,2.911-4.387
		c2.897-4.155,4.482-8.229,4.756-12.219c0.273-3.992-0.712-7.435-2.953-10.335c-1.093-1.42-2.391-2.636-3.894-3.649
		c-1.506-1.011-3.158-1.763-4.961-2.255c-3.555-0.983-7.027-0.929-10.417,0.163c-3.063,1.041-5.426,2.843-7.093,5.414
		c-1.669,2.57-2.502,5.44-2.502,8.61v4.51l9.513-4.51c0-2.624,1.039-4.291,3.116-5.003c1.476-0.491,3.047-0.491,4.716,0
		c1.667,0.492,2.965,1.314,3.896,2.461c0.656,0.875,1.011,1.846,1.065,2.911c0.054,1.067-0.07,2.12-0.369,3.158
		c-0.301,1.039-0.712,2.038-1.23,2.993c-0.521,0.957-1.025,1.791-1.517,2.5c-1.147,1.697-2.145,3.172-2.993,4.429
		c-0.847,1.258-1.627,2.435-2.337,3.527c-0.712,1.095-1.382,2.173-2.01,3.238c-0.628,1.067-1.326,2.229-2.09,3.485
		c-0.985,1.641-2.173,3.637-3.569,5.988c-1.375,2.32-3.168,5.258-5.369,8.803v7.352h31.817v-8.939H69.624
		C70.607,50.366,71.522,48.836,72.37,47.415z"/>
	<path d="M124.241,26.422c-1.968-1.916-4.417-3.438-7.34-4.56c-2.925-1.123-6.329-1.685-10.211-1.685l0.985-11.399h17.549V0.004
		H99.719L97.26,29.116h11.152c0.985,0,2.199,0.138,3.649,0.411c1.448,0.273,2.871,0.834,4.265,1.681
		c1.394,0.847,2.582,2.064,3.567,3.649c0.983,1.587,1.476,3.663,1.476,6.233c0,2.407-0.696,4.538-2.092,6.397
		c-1.394,1.858-3.198,3.17-5.412,3.936c-2.213,0.766-4.688,0.819-7.421,0.163c-2.734-0.656-5.442-2.295-8.12-4.919l-5.003,6.068
		c1.149,1.531,2.57,2.899,4.265,4.102c1.422,1.039,3.184,1.982,5.29,2.829c2.104,0.847,4.578,1.27,7.422,1.27
		c2.568,0,5.043-0.492,7.422-1.48c2.379-0.985,4.496-2.369,6.355-4.149c1.858-1.781,3.336-3.874,4.429-6.285
		c1.095-2.411,1.641-5.069,1.641-7.972c0-2.794-0.492-5.451-1.475-7.972C127.684,30.559,126.209,28.34,124.241,26.422z"/>
	<path d="M168.77,35.185c-0.82-2.297-2.008-4.347-3.567-6.151c-1.557-1.805-3.499-3.252-5.822-4.347
		c-2.325-1.093-4.961-1.639-7.914-1.639l13.123-23.044h-10.414l-17.469,30.671c-0.492,0.82-0.901,1.805-1.23,2.951
		c-0.327,0.985-0.614,2.187-0.862,3.609c-0.245,1.422-0.369,3.089-0.369,5.003c0,2.351,0.411,4.648,1.23,6.889
		c0.821,2.241,1.996,4.223,3.527,5.944c1.529,1.723,3.39,3.117,5.577,4.183c2.185,1.067,4.646,1.599,7.379,1.599
		c2.678,0,5.126-0.504,7.34-1.517c2.215-1.011,4.114-2.365,5.699-4.06c1.585-1.693,2.815-3.677,3.691-5.946
		c0.875-2.267,1.312-4.632,1.312-7.093C170,39.833,169.591,37.481,168.77,35.185z M160.238,45.805
		c-0.439,1.121-1.057,2.106-1.852,2.951c-0.798,0.849-1.745,1.517-2.842,2.01c-1.101,0.492-2.309,0.738-3.625,0.738
		c-1.21,0-2.337-0.245-3.38-0.738c-1.043-0.492-1.964-1.16-2.76-2.01c-0.798-0.845-1.43-1.831-1.896-2.951
		c-0.467-1.121-0.7-2.309-0.7-3.567c0-1.366,0.233-2.624,0.7-3.773c0.467-1.149,1.099-2.131,1.896-2.953
		c0.796-0.82,1.717-1.462,2.76-1.926c1.043-0.465,2.169-0.698,3.38-0.698c2.58,0,4.722,0.861,6.424,2.584
		c1.703,1.721,2.554,3.976,2.554,6.765C160.897,43.496,160.678,44.685,160.238,45.805z"/>
</g>
</svg>
