<?xml version="1.0" encoding="utf-8"?>
<!-- Generator: Adobe Illustrator 23.0.0, SVG Export Plug-In . SVG Version: 6.00 Build 0)  -->
<svg version="1.1" id="Layer_1" xmlns="http://www.w3.org/2000/svg" xmlns:xlink="http://www.w3.org/1999/xlink" x="0px" y="0px"
	 viewBox="0 0 100 100" style="enable-background:new 0 0 100 100;" xml:space="preserve">
<style type="text/css">
	.st0{fill:#1366FF;}
	.st1{opacity:0.5;}
</style>
<g>
	<g>
		<path class="st0" d="M40.6,44v-6.6c0-5.9,4.8-10.8,10.8-10.8l0,0c5.9,0,10.7,4.8,10.8,10.8l0,0V44c0,5.9-4.8,10.8-10.8,10.8l0,0
			C45.4,54.8,40.6,49.9,40.6,44L40.6,44z M46.3,37.4V44c0,2.8,2.3,5,5,5l0,0c2.8,0,5-2.3,5-5l0,0v-6.6c0-2.8-2.3-5-5-5.1l0,0
			C48.5,32.4,46.3,34.7,46.3,37.4L46.3,37.4z"/>
	</g>
	<g class="st1">
		<path d="M48.5,19.5c0-0.1,0-0.2,0-0.3l0,0c0-6.5-2-9.4-4.3-11.2l0,0c-2.3-1.8-5.5-2.3-8.1-2.3l0,0c-1.7,0-3.1,0.2-3.6,0.3l0,0
			c-0.2,0-0.2,0-0.2,0l0,0v0c-1.5,0.4-3.1-0.6-3.4-2.1l0,0c-0.4-1.5,0.6-3.1,2.1-3.4l0,0C31,0.5,33.1,0,36.1,0l0,0
			c3.3,0,7.7,0.6,11.5,3.4l0,0c3.9,2.9,6.6,8.1,6.6,15.8l0,0c0,0.1,0,0.2,0,0.2l0,0c0,1.6-1.2,2.9-2.8,2.9l0,0c0,0,0,0,0,0l0,0
			C49.8,22.3,48.5,21.1,48.5,19.5L48.5,19.5z"/>
	</g>
	<g class="st1">
		<path d="M23,46.1c0-8,3-15.4,8-20.8l0,0c5-5.4,12.2-8.7,20.3-8.7l0,0c1.6,0,2.9,1.3,2.9,2.9l0,0c0,1.6-1.3,2.8-2.9,2.8l0,0
			c-13.1,0-22.6,10.5-22.6,23.8l0,0c0,1.6-1.3,2.9-2.9,2.9l0,0C24.2,49,23,47.7,23,46.1L23,46.1z"/>
	</g>
	<g class="st1">
		<path d="M31,91.3c-5.1-5.4-8-12.7-8-20.8l0,0c0-1.6,1.3-2.9,2.9-2.9l0,0c1.6,0,2.9,1.3,2.9,2.9l0,0c0.1,13.3,9.6,23.7,22.7,23.8
			l0,0c1.6,0,2.9,1.3,2.9,2.9l0,0c0,1.6-1.3,2.9-2.9,2.9l0,0c0,0,0,0,0,0l0,0C43.2,100,36,96.7,31,91.3L31,91.3z"/>
	</g>
	<g class="st1">
		<path d="M74,70.5V46.1c0-1.6,1.3-2.9,2.8-2.9l0,0c1.6,0,2.9,1.3,2.9,2.9l0,0v24.4c0,1.6-1.3,2.9-2.9,2.9l0,0
			C75.2,73.4,74,72.1,74,70.5L74,70.5z"/>
	</g>
	<g class="st1">
		<path d="M51.3,100c-1.6,0-2.9-1.3-2.9-2.9l0,0c0-1.6,1.3-2.9,2.9-2.9l0,0c13.1,0,22.6-10.5,22.7-23.8l0,0c0-1.6,1.3-2.8,2.9-2.8
			l0,0c1.6,0,2.8,1.3,2.8,2.8l0,0c0,8-3,15.4-8,20.8l0,0C66.6,96.7,59.5,100,51.3,100L51.3,100C51.3,100,51.3,100,51.3,100L51.3,100
			z"/>
	</g>
	<g class="st1">
		<path d="M74,46.1c-0.1-13.3-9.6-23.7-22.6-23.8l0,0c-1.6,0-2.9-1.3-2.9-2.9l0,0c0-1.6,1.3-2.9,2.9-2.9l0,0
			c8.1,0,15.3,3.3,20.3,8.7l0,0c5.1,5.4,8,12.7,8,20.8l0,0c0,1.6-1.3,2.9-2.9,2.9l0,0C75.2,49,74,47.7,74,46.1L74,46.1z"/>
	</g>
	<g class="st1">
		<path d="M23,70.5V46.1c0-1.6,1.3-2.9,2.9-2.9l0,0c1.6,0,2.9,1.3,2.9,2.9l0,0v24.4c0,1.6-1.3,2.9-2.9,2.9l0,0
			C24.2,73.4,23,72.1,23,70.5L23,70.5z"/>
	</g>
	<g class="st1">
		<path d="M25.9,64.1c-1.6,0-2.9-1.3-2.9-2.9l0,0c0-1.6,1.3-2.9,2.9-2.9l0,0h50.9c1.6,0,2.9,1.3,2.9,2.9l0,0c0,1.6-1.3,2.9-2.9,2.9
			l0,0H25.9L25.9,64.1z"/>
	</g>
	<g class="st1">
		<path d="M48.5,61.2V52c0-1.6,1.3-2.9,2.9-2.9l0,0c1.6,0,2.9,1.3,2.9,2.9l0,0v9.3c0,1.6-1.3,2.8-2.9,2.8l0,0
			C49.7,64.1,48.5,62.8,48.5,61.2L48.5,61.2z"/>
	</g>
	<g class="st1">
		<path d="M48.5,29.5v-10c0-1.6,1.3-2.9,2.9-2.9l0,0c1.6,0,2.9,1.3,2.9,2.9l0,0v10c0,1.6-1.3,2.9-2.9,2.9l0,0
			C49.7,32.4,48.5,31.1,48.5,29.5L48.5,29.5z"/>
	</g>
	<g class="st1">
		<path d="M34.4,3.3c0,1.6-1.3,2.8-2.8,2.8c-1.6,0-2.8-1.3-2.8-2.8c0-1.6,1.3-2.8,2.8-2.8C33.1,0.5,34.4,1.7,34.4,3.3z"/>
	</g>
</g>
</svg>
