<?xml version="1.0" encoding="utf-8"?>
<!-- Generator: Adobe Illustrator 23.0.0, SVG Export Plug-In . SVG Version: 6.00 Build 0)  -->
<svg version="1.1" id="Layer_1" xmlns="http://www.w3.org/2000/svg" xmlns:xlink="http://www.w3.org/1999/xlink" x="0px" y="0px"
	 viewBox="0 0 100 100" style="enable-background:new 0 0 100 100;" xml:space="preserve">
<style type="text/css">
	.st0{fill:#1366FF;}
	.st1{opacity:0.5;}
</style>
<g>
	<g>
		<path class="st0" d="M46.8,64.4V45c0-1.7,1.4-3.1,3.1-3.1l0,0c1.7,0,3.1,1.4,3.1,3.1l0,0v19.5c0,1.7-1.4,3.1-3.1,3.1l0,0
			C48.2,67.6,46.8,66.2,46.8,64.4L46.8,64.4z"/>
	</g>
	<g class="st1">
		<path d="M32.7,31c0-9.5,7.7-17.2,17.2-17.2l0,0c9.5,0,17.2,7.7,17.2,17.2l0,0h0c0,9.5-7.7,17.2-17.2,17.2l0,0
			C40.4,48.2,32.7,40.5,32.7,31L32.7,31z M38.9,31c0,6,4.9,10.9,10.9,10.9l0,0c6,0,10.9-4.9,10.9-10.9l0,0c0-6-4.9-10.9-10.9-10.9
			l0,0C43.8,20.1,38.9,25,38.9,31L38.9,31z"/>
	</g>
	<g class="st1">
		<path d="M66.5,88.7V65c0-9.2-7.4-16.6-16.6-16.6l0,0c-9.2,0-16.6,7.4-16.6,16.6l0,0v23.8c0,1.7-1.4,3.1-3.1,3.1l0,0
			c-1.7,0-3.1-1.4-3.1-3.1l0,0V65c0-12.6,10.2-22.9,22.9-22.9l0,0c12.6,0,22.9,10.2,22.9,22.9l0,0v23.8c0,1.7-1.4,3.1-3.1,3.1l0,0
			C67.9,91.9,66.5,90.5,66.5,88.7L66.5,88.7z"/>
	</g>
	<g class="st1">
		<path d="M69.9,37.6C69.9,30.1,76,24,83.5,24l0,0c7.5,0,13.6,6.1,13.6,13.6l0,0c0,7.5-6.1,13.6-13.6,13.6l0,0
			C76,51.2,69.9,45.1,69.9,37.6L69.9,37.6z M76.2,37.6c0,4.1,3.3,7.3,7.3,7.3l0,0c4.1,0,7.3-3.3,7.3-7.3l0,0h0
			c0-4.1-3.3-7.3-7.3-7.3l0,0C79.5,30.3,76.2,33.5,76.2,37.6L76.2,37.6z"/>
	</g>
	<g class="st1">
		<path d="M93.7,78l0-16.4c0-5.8-4.7-10.4-10.4-10.4l0,0c-5.8,0-10.4,4.7-10.4,10.4l0,0V78c0,1.7-1.4,3.1-3.1,3.1l0,0
			c-1.7,0-3.1-1.4-3.1-3.1l0,0l0-16.4c0-9.2,7.5-16.7,16.7-16.7l0,0c9.2,0,16.7,7.5,16.7,16.7l0,0l0,16.4c0,1.7-1.4,3.1-3.1,3.1l0,0
			C95.1,81.1,93.7,79.7,93.7,78L93.7,78z"/>
	</g>
	<g class="st1">
		<path d="M3.4,38c0-7.4,6-13.3,13.3-13.3l0,0c7.4,0,13.3,6,13.3,13.3l0,0c0,7.4-6,13.3-13.3,13.3l0,0C9.3,51.4,3.4,45.4,3.4,38
			L3.4,38z M9.6,38c0,3.9,3.2,7,7.1,7.1l0,0c3.9,0,7-3.2,7.1-7.1l0,0c0-3.9-3.2-7.1-7.1-7.1l0,0C12.8,31,9.6,34.1,9.6,38L9.6,38z"/>
	</g>
	<g class="st1">
		<path d="M27.1,78V61.6c0-5.8-4.7-10.4-10.4-10.4l0,0c-5.8,0-10.4,4.7-10.4,10.4l0,0V78h0c0,1.7-1.4,3.1-3.1,3.1l0,0
			C1.4,81.1,0,79.7,0,78l0,0l0-16.4c0-9.2,7.5-16.7,16.7-16.7l0,0c9.2,0,16.7,7.5,16.7,16.7l0,0l0,16.4c0,1.7-1.4,3.1-3.1,3.1l0,0
			C28.5,81.1,27.1,79.7,27.1,78L27.1,78z"/>
	</g>
	<g class="st1">
		<path d="M19.7,27.9c0,1.6-1.3,2.8-2.8,2.8c-1.6,0-2.8-1.3-2.8-2.8c0-1.6,1.3-2.8,2.8-2.8C18.4,25,19.7,26.3,19.7,27.9z"/>
	</g>
	<g class="st1">
		<path d="M52.7,16.9c0,1.6-1.3,2.8-2.8,2.8c-1.6,0-2.8-1.3-2.8-2.8c0-1.6,1.3-2.8,2.8-2.8C51.5,14.1,52.7,15.4,52.7,16.9z"/>
	</g>
	<g class="st1">
		<path d="M86.2,27.1c0,1.6-1.3,2.9-2.9,2.9c-1.6,0-2.9-1.3-2.9-2.9c0-1.6,1.3-2.9,2.9-2.9C85,24.3,86.2,25.6,86.2,27.1z"/>
	</g>
	<g class="st1">
		<path d="M3.2,81.1c-1.7,0-3.1-1.4-3.1-3.1l0,0c0-1.7,1.4-3.1,3.1-3.1l0,0h27.1c1.7,0,3.1,1.4,3.1,3.1l0,0c0,1.7-1.4,3.1-3.1,3.1
			l0,0H3.2L3.2,81.1z"/>
	</g>
	<g class="st1">
		<path d="M69.7,81.1c-1.7,0-3.1-1.4-3.1-3.1l0,0c0-1.7,1.4-3.1,3.1-3.1l0,0h27.1c1.7,0,3.1,1.4,3.1,3.1l0,0c0,1.7-1.4,3.1-3.1,3.1
			l0,0H69.7L69.7,81.1z"/>
	</g>
	<g class="st1">
		<path d="M30.2,91.9c-1.7,0-3.1-1.4-3.1-3.1l0,0c0-1.7,1.4-3.1,3.1-3.1l0,0h39.4c1.7,0,3.1,1.4,3.1,3.1l0,0c0,1.7-1.4,3.1-3.1,3.1
			l0,0H30.2L30.2,91.9z"/>
	</g>
</g>
</svg>
