<?xml version="1.0" encoding="utf-8"?>
<!-- Generator: Adobe Illustrator 23.0.0, SVG Export Plug-In . SVG Version: 6.00 Build 0)  -->
<svg version="1.1" id="Layer_1" xmlns="http://www.w3.org/2000/svg" xmlns:xlink="http://www.w3.org/1999/xlink" x="0px" y="0px"
	 viewBox="0 0 100 100" style="enable-background:new 0 0 100 100;" xml:space="preserve">
<style type="text/css">
	.st0{opacity:0.5;}
	.st1{fill:#1366FF;}
</style>
<g>
	<g class="st0">
		<path d="M69.4,60c0,1.1-0.9,1.9-1.9,1.9c-1.1,0-1.9-0.9-1.9-1.9c0-1.1,0.9-1.9,1.9-1.9C68.5,58.1,69.4,58.9,69.4,60z"/>
	</g>
	<g>
		<path class="st1" d="M26.1,51.6V40.1c0-1.6,1.3-2.9,2.9-2.9l0,0c1.6,0,2.9,1.3,2.9,2.9l0,0v11.5c0,1.6-1.3,2.9-2.9,2.9l0,0
			C27.4,54.4,26.1,53.2,26.1,51.6L26.1,51.6z"/>
	</g>
	<g>
		<path class="st1" d="M40,51.6V28.1c0-1.6,1.3-2.9,2.9-2.9l0,0c1.6,0,2.9,1.3,2.9,2.9l0,0v23.5c0,1.6-1.3,2.9-2.9,2.9l0,0
			C41.3,54.4,40,53.2,40,51.6L40,51.6z"/>
	</g>
	<g>
		<path class="st1" d="M54,51.6V34.4c0-1.6,1.3-2.9,2.9-2.9l0,0c1.6,0,2.9,1.3,2.9,2.9l0,0v17.1c0,1.6-1.3,2.9-2.9,2.9l0,0
			C55.2,54.4,54,53.2,54,51.6L54,51.6z"/>
	</g>
	<g>
		<path class="st1" d="M67.9,51.6V21.8c0-1.6,1.3-2.9,2.9-2.9l0,0c1.6,0,2.9,1.3,2.9,2.9l0,0v29.8c0,1.6-1.3,2.9-2.9,2.9l0,0
			C69.2,54.4,67.9,53.2,67.9,51.6L67.9,51.6z"/>
	</g>
	<g class="st0">
		<path d="M9.8,54.5c-1.2,0-2.1-1-2.1-2.1l0,0c0-1.2,1-2.1,2.1-2.1l0,0h81.6c1.2,0,2.1,1,2.1,2.1l0,0c0,1.2-1,2.1-2.1,2.1l0,0H9.8
			L9.8,54.5z"/>
	</g>
	<g class="st0">
		<path d="M10.5,70.7c-1.6,0-2.9-1.3-2.9-2.9l0,0c0-1.6,1.3-2.9,2.9-2.9l0,0h80.2c1.6,0,2.9,1.3,2.9,2.9l0,0c0,1.6-1.3,2.9-2.9,2.9
			l0,0H10.5L10.5,70.7z"/>
	</g>
	<g class="st0">
		<path d="M10.5,13c-1.6,0-2.9-1.3-2.9-2.9l0,0c0-1.6,1.3-2.9,2.9-2.9l0,0h80.2c1.6,0,2.9,1.3,2.9,2.9l0,0c0,1.6-1.3,2.9-2.9,2.9
			l0,0H10.5L10.5,13z"/>
	</g>
	<g class="st0">
		<path d="M7.6,67.7V10.2c0-1.6,1.3-2.9,2.9-2.9l0,0c1.6,0,2.9,1.3,2.9,2.9l0,0v57.5c0,1.6-1.3,2.9-2.9,2.9l0,0
			C8.9,70.5,7.6,69.2,7.6,67.7L7.6,67.7z"/>
	</g>
	<g class="st0">
		<path d="M87.9,67.7V10.2c0-1.6,1.3-2.9,2.9-2.9l0,0c1.6,0,2.9,1.3,2.9,2.9l0,0v57.5c0,1.6-1.3,2.9-2.9,2.9l0,0
			C89.2,70.5,87.9,69.2,87.9,67.7L87.9,67.7z"/>
	</g>
	<g class="st0">
		<path d="M67.4,62.1c-1.2,0-2.1-1-2.1-2.1l0,0c0-1.2,1-2.1,2.1-2.1l0,0h11c1.2,0,2.1,1,2.1,2.1l0,0c0,1.2-1,2.1-2.1,2.1l0,0H67.4
			L67.4,62.1z"/>
	</g>
	<g class="st0">
		<path d="M47.4,85.7V68c0-1.6,1.3-2.9,2.9-2.9l0,0c1.6,0,2.9,1.3,2.9,2.9l0,0v17.7c0,1.6-1.3,2.9-2.9,2.9l0,0
			C48.7,88.6,47.4,87.3,47.4,85.7L47.4,85.7z"/>
	</g>
	<g class="st0">
		<path d="M24.3,88.6c-1.6,0-2.9-1.3-2.9-2.9l0,0c0-1.6,1.3-2.9,2.9-2.9l0,0h51.9c1.6,0,2.9,1.3,2.9,2.9l0,0c0,1.6-1.3,2.9-2.9,2.9
			l0,0H24.3L24.3,88.6z"/>
	</g>
	<g class="st0">
		<path d="M31.5,40.2c0,1.4-1.2,2.6-2.6,2.6c-1.4,0-2.6-1.2-2.6-2.6c0-1.4,1.2-2.6,2.6-2.6C30.4,37.6,31.5,38.7,31.5,40.2z"/>
	</g>
	<g class="st0">
		<circle cx="42.9" cy="28.1" r="2.6"/>
	</g>
	<g class="st0">
		<path d="M59.4,34.5c0,1.4-1.2,2.6-2.6,2.6c-1.4,0-2.6-1.2-2.6-2.6c0-1.4,1.2-2.6,2.6-2.6C58.3,31.9,59.4,33.1,59.4,34.5z"/>
	</g>
	<g class="st0">
		<path d="M73.4,21.8c0,1.4-1.2,2.6-2.6,2.6c-1.4,0-2.6-1.2-2.6-2.6c0-1.4,1.2-2.6,2.6-2.6C72.2,19.2,73.4,20.3,73.4,21.8z"/>
	</g>
</g>
</svg>
