<?xml version="1.0" encoding="utf-8"?>
<!-- Generator: Adobe Illustrator 23.0.0, SVG Export Plug-In . SVG Version: 6.00 Build 0)  -->
<svg version="1.1" id="Layer_1" xmlns="http://www.w3.org/2000/svg" xmlns:xlink="http://www.w3.org/1999/xlink" x="0px" y="0px"
	 viewBox="0 0 100 100" style="enable-background:new 0 0 100 100;" xml:space="preserve">
<style type="text/css">
	.st0{opacity:0.5;}
	.st1{fill:#1366FF;}
</style>
<path class="st0" d="M87.3,45c-1-1.1-2.4-1.8-3.8-2.1v0l-5.6-1.2c-0.7-1.9-1.6-3.8-2.7-5.5l2.7-5.3l0,0c0.5-1.1,0.8-2.2,0.8-3.4
	c0-1-0.3-2.1-0.8-3c-0.5-0.9-1.3-1.6-2-2.1l0,0l-7.5-5l0,0c-1-0.7-2.3-1.1-3.6-1.1c-2,0-3.9,1.1-5.2,2.6l0,0l-4.2,4.9
	c-0.3,0-0.6-0.1-0.9-0.1c-0.9-0.1-1.8-0.1-2.6-0.1c-0.3,0-0.7,0-1,0.1L47.3,18l0,0c-0.6-0.9-1.3-1.6-2.2-2.2c-0.9-0.6-2.1-1-3.2-1
	c-1.1,0-2.1,0.3-3,0.7l-8.1,4h0c-1,0.5-2,1.3-2.6,2.3c-0.6,1-1,2.2-0.9,3.4c0,0.9,0.2,1.8,0.5,2.6l0,0l2.3,6.4
	c-0.6,0.8-1.2,1.6-1.7,2.5l-6.9,0.1h-0.1c-0.8,0-1.6,0.2-2.3,0.4c-1.1,0.4-2.3,1.1-3,2.1c-0.8,1-1.1,2.2-1.2,3.3l0-0.1l-0.9,9.1l0,0
	c0,0.2,0,0.4,0,0.7c0,1.5,0.6,3.1,1.6,4.3c1,1.1,2.4,1.8,3.8,2.1v0l6.3,1.3c0.6,1.7,1.3,3.4,2.2,4.9L25,70.7l0,0.1
	c-0.5,1.1-0.8,2.2-0.8,3.4c0,1,0.3,2.1,0.8,3c0.5,0.9,1.3,1.6,2,2.1l7.5,5l0,0c1,0.7,2.3,1.1,3.6,1.1c2,0,3.9-1.1,5.2-2.6l0,0
	l3.7-4.4c0.7,0.1,1.5,0.3,2.3,0.3h0h0c0.9,0.1,1.8,0.1,2.7,0.1c0.3,0,0.5,0,0.8,0l2.9,4.4l0,0.1c0.6,0.9,1.3,1.6,2.2,2.2
	c0.9,0.6,2.1,1,3.2,1c1.1,0,2.1-0.3,3-0.7l8.1-4c1.1-0.5,2-1.3,2.6-2.3c0.6-1,0.9-2.2,0.9-3.4c0-0.9-0.2-1.8-0.5-2.6l0,0l-1.8-4.8
	c1-1.2,1.8-2.5,2.6-3.8l5.4-0.1l0.1,0c0.8,0,1.5-0.2,2.3-0.4c1.1-0.4,2.3-1.1,3-2.1c0.8-1,1.1-2.2,1.2-3.3l0.9-9l0-0.1
	c0-0.2,0-0.4,0-0.6C88.9,47.7,88.3,46.1,87.3,45z M79.8,57.6c-0.1,0-0.1,0-0.2,0l-8.9,0.2l-0.8,1.8c-0.9,1.9-2.1,3.7-3.5,5.2
	L65,66.2l3,8.2l0,0.1v0l-7.3,3.6c0-0.1-0.1-0.1-0.1-0.2l-4.7-7.2l-1.9,0.2C53.3,71,52.6,71,51.9,71c-0.6,0-1.3,0-1.9-0.1
	c-1-0.1-2.1-0.3-3.1-0.6l-1.9-0.5L38.8,77l0,0l0,0L32,72.6l0.1-0.2l4.4-8.5l-1.1-1.6c-1.3-1.9-2.2-4-2.8-6.3l-0.5-1.9l-9.8-2.1
	l-0.1,0l0,0L23,44c0.1,0,0.1,0,0.2,0l10-0.2l0.9-1.7c0.8-1.5,1.8-3,2.9-4.2l1.3-1.4l-3.5-9.6l0-0.1l0,0l7.3-3.6
	c0,0.1,0.1,0.1,0.2,0.2l5.4,8.3l1.9-0.2c0.7-0.1,1.5-0.1,2.2-0.1c0.6,0,1.3,0,1.9,0.1c0.7,0.1,1.4,0.2,2.1,0.3l1.8,0.4l6.3-7.5l0,0
	l0,0l6.7,4.5l-0.1,0.2l-4.3,8.3l1.2,1.6c1.5,2,2.6,4.2,3.3,6.6l0.5,1.8l9,1.9l0.1,0l0,0L79.8,57.6z"/>
<g>
	<g>
		<path class="st1" d="M52.8,37.6c-0.4,0-0.8-0.1-1.3-0.1c-6.7,0-12.4,5.1-13,11.8c0,0.4-0.1,0.8-0.1,1.3c0,6.7,5.1,12.4,11.8,13
			c0.4,0,0.8,0.1,1.3,0.1c6.7,0,12.3-5.1,13-11.8v0c0-0.4,0.1-0.8,0.1-1.3C64.6,43.9,59.5,38.3,52.8,37.6z M57.9,51.3l0,0.1
			L57.9,51.3c-0.3,3.3-3.1,5.8-6.3,5.8c-0.2,0-0.4,0-0.6,0c-3.3-0.3-5.8-3.1-5.8-6.4c0-0.2,0-0.4,0-0.6c0.3-3.3,3.1-5.8,6.4-5.8
			c0.2,0,0.4,0,0.6,0c3.3,0.3,5.8,3.1,5.8,6.3C57.9,50.8,57.9,51,57.9,51.3z"/>
	</g>
	<g class="st0">
		<path d="M64.6,50.6c0,1.9-1.5,3.4-3.4,3.4c-1.9,0-3.4-1.5-3.4-3.4c0-1.9,1.5-3.4,3.4-3.4C63.1,47.2,64.6,48.7,64.6,50.6z"/>
	</g>
	<g class="st0">
		<path d="M45.1,50.6c0,1.9-1.5,3.4-3.4,3.4s-3.4-1.5-3.4-3.4c0-1.9,1.5-3.4,3.4-3.4S45.1,48.7,45.1,50.6z"/>
	</g>
</g>
<g class="st0">
	<path d="M23.7,41.7c0,2.3-1.8,4.1-4.1,4.1s-4.1-1.8-4.1-4.1c0-2.3,1.8-4.1,4.1-4.1S23.7,39.4,23.7,41.7z"/>
</g>
<g class="st0">
	<path d="M32.4,74.7c0,2.3-1.8,4.1-4.1,4.1s-4.1-1.8-4.1-4.1c0-2.3,1.8-4.1,4.1-4.1S32.4,72.5,32.4,74.7z"/>
</g>
<g class="st0">
	<path d="M64.6,82.3c0,2.3-1.8,4.1-4.1,4.1c-2.3,0-4.1-1.8-4.1-4.1c0-2.3,1.8-4.1,4.1-4.1C62.7,78.1,64.6,80,64.6,82.3z"/>
</g>
<g class="st0">
	<path d="M87.2,60.1c0,2.3-1.8,4.1-4.1,4.1S79,62.3,79,60.1c0-2.3,1.8-4.1,4.1-4.1S87.2,57.8,87.2,60.1z"/>
</g>
<g class="st0">
	<path d="M78.6,27.1c0,2.3-1.8,4.1-4.1,4.1s-4.1-1.8-4.1-4.1c0-2.3,1.8-4.1,4.1-4.1S78.6,24.8,78.6,27.1z"/>
</g>
<g class="st0">
	<path d="M45.8,18.9c0,2.3-1.8,4.1-4.1,4.1s-4.1-1.8-4.1-4.1c0-2.3,1.8-4.1,4.1-4.1S45.8,16.6,45.8,18.9z"/>
</g>
</svg>
