<?xml version="1.0" encoding="utf-8"?>
<!-- Generator: Adobe Illustrator 17.0.0, SVG Export Plug-In . SVG Version: 6.00 Build 0)  -->
<!DOCTYPE svg PUBLIC "-//W3C//DTD SVG 1.1//EN" "http://www.w3.org/Graphics/SVG/1.1/DTD/svg11.dtd">
<svg version="1.1" id="Layer_1" xmlns="http://www.w3.org/2000/svg" xmlns:xlink="http://www.w3.org/1999/xlink" x="0px" y="0px"
	 width="97px" height="88.293px" viewBox="0 0 97 88.293" enable-background="new 0 0 97 88.293" xml:space="preserve">
<g>
	<g opacity="0.5">
		<path fill="#00B0D8" d="M45.432,56.106V37.229c0-1.683,1.36-3.043,3.038-3.043l0,0c1.679,0,3.042,1.36,3.042,3.043l0,0v18.876
			c0,1.679-1.363,3.043-3.042,3.043l0,0C46.791,59.149,45.432,57.785,45.432,56.106L45.432,56.106z"/>
	</g>
	<g opacity="0.5">
		<path d="M31.675,23.689C31.678,14.467,39.148,7,48.365,7l0,0C57.58,7.003,65.05,14.467,65.05,23.689l0,0h0.003
			c-0.003,9.22-7.473,16.686-16.689,16.689l0,0C39.148,40.375,31.678,32.904,31.675,23.689L31.675,23.689z M37.755,23.689
			c0.01,5.857,4.749,10.596,10.609,10.609l0,0c5.857-0.013,10.596-4.753,10.609-10.609l0,0c-0.012-5.863-4.752-10.599-10.608-10.608
			l0,0C42.504,13.09,37.765,17.826,37.755,23.689L37.755,23.689z"/>
	</g>
	<g opacity="0.5">
		<path d="M64.46,79.687V56.612c-0.016-8.889-7.207-16.083-16.096-16.095l0,0c-8.889,0.012-16.08,7.206-16.096,16.095l0,0v23.075
			c0,1.679-1.362,3.041-3.04,3.041l0,0c-1.679,0-3.038-1.363-3.038-3.041l0,0V56.612c0-12.249,9.924-22.173,22.174-22.176l0,0
			c12.246,0.003,22.174,9.926,22.177,22.176l0,0v23.075c0,1.679-1.362,3.041-3.04,3.041l0,0
			C65.822,82.729,64.46,81.366,64.46,79.687L64.46,79.687z"/>
	</g>
	<g opacity="0.5">
		<path d="M67.807,30.072c0.004-7.297,5.913-13.202,13.209-13.205l0,0c7.293,0.003,13.2,5.909,13.203,13.205l0,0
			c-0.003,7.293-5.91,13.202-13.203,13.207l0,0C73.721,43.275,67.811,37.366,67.807,30.072L67.807,30.072z M73.89,30.072
			c0.006,3.936,3.19,7.118,7.127,7.124l0,0c3.93-0.006,7.115-3.188,7.124-7.124l0,0h-0.003c-0.007-3.936-3.191-7.12-7.121-7.127l0,0
			C77.08,22.953,73.896,26.139,73.89,30.072L73.89,30.072z"/>
	</g>
	<g opacity="0.5">
		<path d="M90.917,69.256l0.003-15.865c-0.013-5.585-4.53-10.105-10.117-10.112l0,0c-5.584,0.007-10.102,4.527-10.111,10.112l0,0
			v15.865c0,1.68-1.365,3.041-3.042,3.041l0,0c-1.68,0-3.041-1.361-3.041-3.041l0,0l0.003-15.865
			c0-8.946,7.249-16.192,16.191-16.195l0,0c8.945,0.003,16.194,7.252,16.194,16.195l0,0L97,69.256c0,1.68-1.364,3.041-3.042,3.041
			l0,0C92.278,72.297,90.917,70.936,90.917,69.256L90.917,69.256z"/>
	</g>
	<g opacity="0.5">
		<path d="M3.272,30.497c0.003-7.141,5.785-12.925,12.925-12.925l0,0c7.137,0,12.919,5.784,12.922,12.925l0,0
			c-0.003,7.136-5.789,12.919-12.922,12.922l0,0C9.061,43.416,3.275,37.633,3.272,30.497L3.272,30.497z M9.354,30.497
			c0.007,3.777,3.063,6.833,6.844,6.841l0,0c3.777-0.007,6.834-3.064,6.84-6.841l0,0c-0.006-3.78-3.063-6.841-6.84-6.847l0,0
			C12.42,23.656,9.36,26.717,9.354,30.497L9.354,30.497z"/>
	</g>
	<g opacity="0.5">
		<path d="M26.309,69.256V53.391c-0.009-5.585-4.527-10.105-10.111-10.112l0,0C10.61,43.287,6.09,47.806,6.08,53.391l0,0v15.865
			h0.003c0,1.68-1.364,3.041-3.041,3.041l0,0C1.361,72.297,0,70.936,0,69.256l0,0l0.004-15.865c0-8.946,7.249-16.192,16.194-16.195
			l0,0c8.942,0.003,16.191,7.249,16.191,16.195l0,0l0.003,15.865c0,1.68-1.364,3.041-3.041,3.041l0,0
			C27.67,72.297,26.309,70.936,26.309,69.256L26.309,69.256z"/>
	</g>
	<g opacity="0.5">
		<path d="M19.07,20.621c0,1.517-1.228,2.749-2.746,2.749s-2.747-1.232-2.747-2.749c0-1.515,1.229-2.746,2.747-2.746
			S19.07,19.106,19.07,20.621z"/>
	</g>
	<g opacity="0.5">
		<path d="M51.164,10.044c0,1.52-1.229,2.75-2.747,2.75s-2.746-1.23-2.746-2.75c0-1.515,1.228-2.744,2.746-2.744
			C49.935,7.3,51.164,8.529,51.164,10.044z"/>
	</g>
	<g opacity="0.5">
		<path d="M83.659,19.919c0,1.533-1.238,2.77-2.767,2.77c-1.53,0-2.767-1.236-2.767-2.77c0-1.529,1.237-2.765,2.767-2.765
			C82.421,17.154,83.659,18.39,83.659,19.919z"/>
	</g>
	<g opacity="0.5">
		<path d="M3.117,72.299c-1.681,0-3.042-1.361-3.042-3.038l0,0c0-1.68,1.361-3.038,3.042-3.038l0,0h26.277
			c1.68,0,3.041,1.358,3.041,3.038l0,0c0,1.677-1.361,3.038-3.041,3.038l0,0H3.117L3.117,72.299z"/>
	</g>
	<g opacity="0.5">
		<path d="M67.649,72.3c-1.677,0-3.038-1.36-3.038-3.041l0,0c0-1.68,1.361-3.038,3.038-3.038l0,0H93.93
			c1.677,0,3.038,1.358,3.038,3.038l0,0c0,1.682-1.361,3.041-3.038,3.041l0,0H67.649L67.649,72.3z"/>
	</g>
	<g opacity="0.5">
		<path d="M29.26,82.702c-1.679,0-3.04-1.358-3.04-3.037l0,0c0-1.682,1.362-3.041,3.04-3.041l0,0h38.241
			c1.679,0,3.041,1.36,3.041,3.041l0,0c0,1.679-1.363,3.037-3.041,3.037l0,0H29.26L29.26,82.702z"/>
	</g>
</g>
</svg>
