<?xml version="1.0" encoding="utf-8"?>
<!-- Generator: Adobe Illustrator 17.0.0, SVG Export Plug-In . SVG Version: 6.00 Build 0)  -->
<!DOCTYPE svg PUBLIC "-//W3C//DTD SVG 1.1//EN" "http://www.w3.org/Graphics/SVG/1.1/DTD/svg11.dtd">
<svg version="1.1" id="Layer_1" xmlns="http://www.w3.org/2000/svg" xmlns:xlink="http://www.w3.org/1999/xlink" x="0px" y="0px"
	 width="70px" height="88.299px" viewBox="0 0 70 88.299" enable-background="new 0 0 70 88.299" xml:space="preserve">
<g>
	<g opacity="0.5">
		<circle cx="48.604" cy="48.815" r="3.72"/>
	</g>
	<g opacity="0.5">
		<circle cx="22.716" cy="63.711" r="3.722"/>
	</g>
	<g opacity="0.5">
		<path d="M3.084,88.299c-1.663,0-3.012-1.35-3.012-3.013l0,0c0-1.663,1.348-3.013,3.012-3.013l0,0h63.788
			c1.663,0,3.016,1.35,3.016,3.013l0,0c0,1.663-1.351,3.013-3.016,3.013l0,0H3.084L3.084,88.299z"/>
	</g>
	<g opacity="0.5">
		<path d="M22.671,6.025c-1.663,0-3.013-1.348-3.013-3.013l0,0c0-1.663,1.35-3.012,3.013-3.012l0,0h44.201
			c1.663,0,3.016,1.35,3.016,3.012l0,0c0,1.663-1.351,3.013-3.016,3.013l0,0H22.671L22.671,6.025z"/>
	</g>
	<g opacity="0.5">
		<path d="M0.072,85.039V22.638c0-1.665,1.347-3.016,3.013-3.016l0,0c1.663,0,3.013,1.351,3.013,3.016l0,0v62.401
			c0,1.665-1.35,3.015-3.013,3.015l0,0C1.418,88.053,0.072,86.703,0.072,85.039L0.072,85.039z"/>
	</g>
	<g opacity="0.5">
		<path d="M63.972,85.037V3.05c0-1.666,1.35-3.015,3.013-3.015l0,0C68.649,0.035,70,1.383,70,3.05l0,0v81.988
			c0,1.666-1.35,3.016-3.015,3.016l0,0C65.32,88.053,63.972,86.705,63.972,85.037L63.972,85.037z"/>
	</g>
	<g opacity="0.5">
		<path d="M22.713,52.541c-2.081,0-3.767-1.687-3.767-3.767l0,0c0-2.081,1.686-3.768,3.767-3.768l0,0h25.894
			c2.078,0,3.767,1.687,3.767,3.768l0,0c0,2.079-1.689,3.767-3.767,3.767l0,0H22.713L22.713,52.541z"/>
	</g>
	<g opacity="0.5">
		<path d="M22.713,67.487c-2.081,0-3.767-1.69-3.767-3.767l0,0c0-2.084,1.686-3.767,3.767-3.767l0,0h25.894
			c2.078,0,3.767,1.683,3.767,3.767l0,0c0,2.076-1.689,3.767-3.767,3.767l0,0H22.713L22.713,67.487z"/>
	</g>
	<g opacity="0.5">
		<path d="M2.26,24.833c-0.913,0-1.739-0.55-2.088-1.394l0,0c-0.348-0.845-0.157-1.819,0.49-2.465l0,0L20.766,0.872
			c0.648-0.651,1.62-0.842,2.466-0.49l0,0c0.841,0.348,1.394,1.174,1.394,2.088l0,0v20.102c0,0.603-0.235,1.171-0.661,1.599l0,0
			c-0.426,0.426-0.993,0.663-1.6,0.663l0,0H2.26V24.833z M7.717,20.312h12.391V7.921L7.717,20.312L7.717,20.312z"/>
	</g>
	<g opacity="0.5">
		<path fill="#00B0D8" d="M22.59,37.592c-2.081,0-3.767-1.687-3.767-3.767l0,0c0-2.081,1.686-3.764,3.767-3.764l0,0h26.2
			c2.078,0,3.767,1.683,3.767,3.764l0,0c0,2.079-1.689,3.767-3.767,3.767l0,0H22.59L22.59,37.592z"/>
	</g>
	<g opacity="0.5">
		<circle cx="22.583" cy="33.796" r="3.718"/>
	</g>
</g>
</svg>
