<?xml version="1.0" encoding="utf-8"?>
<!-- Generator: Adobe Illustrator 23.0.0, SVG Export Plug-In . SVG Version: 6.00 Build 0)  -->
<svg version="1.1" id="Layer_1" xmlns="http://www.w3.org/2000/svg" xmlns:xlink="http://www.w3.org/1999/xlink" x="0px" y="0px"
	 viewBox="0 0 360 420" style="enable-background:new 0 0 360 420;" xml:space="preserve">
<style type="text/css">
	.st0{fill:#1366FF;}
	.st1{font-family:'Lato-Regular';}
	.st2{font-size:20px;}
	.st3{fill:none;stroke:#1366FF;stroke-width:8;stroke-linecap:round;stroke-linejoin:round;}
	.st4{fill:none;stroke:#1366FF;stroke-width:8;stroke-linecap:round;stroke-linejoin:round;stroke-dasharray:1.0119,16.1906;}
	.st5{opacity:0.5;}
	.st6{fill:none;stroke:#2E2F2F;stroke-width:4;stroke-linecap:round;stroke-linejoin:round;stroke-dasharray:1.0051,8.0406;}
	.st7{fill:none;stroke:#2E2F2F;stroke-linecap:round;stroke-linejoin:round;stroke-miterlimit:10;}
	.st8{fill:none;stroke:#1366FF;stroke-width:4;stroke-linecap:round;stroke-linejoin:round;stroke-miterlimit:10;}
	.st9{fill:#212D3B;}
	.st10{font-size:14px;}
	.st11{fill:#637282;}
	.st12{fill:none;stroke:#000000;stroke-width:4;stroke-linecap:round;stroke-linejoin:round;stroke-dasharray:1.0051,8.0406;}
	.st13{fill:none;stroke:#000000;stroke-width:0.75;stroke-linecap:round;stroke-linejoin:round;stroke-miterlimit:10;}
	.st14{fill:none;stroke:#000000;stroke-width:0.75;stroke-miterlimit:10;}
	.st15{font-size:18px;}
	.st16{fill:none;stroke:#000000;stroke-width:4;stroke-linecap:round;stroke-linejoin:round;stroke-dasharray:0.981,7.8483;}
</style>
<text transform="matrix(1 0 0 1 96.2615 138.2395)" class="st0 st1 st2">Luniverse Network</text>
<g>
	<g>
		<g>
			<path class="st3" d="M25,73.8c0,0.2,0.1,0.3,0.1,0.5"/>
			<path class="st4" d="M30.2,89.6c22.9,59,80.2,100.9,147.3,100.9c70,0,129.3-45.5,150-108.5"/>
			<path class="st3" d="M329.9,74.2c0-0.2,0.1-0.3,0.1-0.5"/>
		</g>
	</g>
</g>
<g>
	<g class="st5">
		<circle class="st6" cx="97.8" cy="294.5" r="46.1"/>
	</g>
	<g>
		<polygon class="st7" points="97.8,309.7 97.8,324.9 116.4,298.7 		"/>
		<polygon class="st7" points="97.8,286.7 97.8,306.2 116.4,295.1 		"/>
		<polygon class="st7" points="97.8,264.2 97.8,286.7 116.4,295.1 		"/>
		<polygon class="st7" points="97.8,309.7 97.8,324.9 79.1,298.7 		"/>
		<polygon class="st7" points="97.8,286.7 97.8,306.2 79.1,295.1 		"/>
		<polygon class="st7" points="97.8,264.2 97.8,286.7 79.1,295.1 		"/>
	</g>
	<line class="st8" x1="139.8" y1="197.4" x2="119.2" y2="241.6"/>
	<text transform="matrix(1 0 0 1 47.9832 363.541)"><tspan x="0" y="0" class="st9 st1 st10">Ethereum </tspan><tspan x="63.4" y="0" class="st11 st1 st10">based</tspan><tspan x="5.9" y="18" class="st11 st1 st10">Product Chain</tspan></text>
</g>
<g>
	<g class="st5">
		<circle class="st12" cx="254.9" cy="293.5" r="46.1"/>
	</g>
	<g>
		<g>
			<polygon class="st13" points="237.3,269.2 265.3,266.8 281.3,289.3 269.8,315.6 241.6,317.9 225.4,294.8 			"/>
			<polygon class="st13" points="241.6,317.9 236.9,294.5 237.3,269.2 259.3,275.7 281.3,289.3 264.6,304.8 			"/>
			<polygon class="st13" points="225.3,294.8 242.8,279.1 265,266.9 270.3,289.2 269.4,315.1 247.7,307.8 			"/>
			<polygon class="st13" points="247.7,307.8 270.3,289.2 242.8,279.1 			"/>
			<polygon class="st14" points="236.9,294.5 259.3,275.7 264.6,304.8 			"/>
			<line class="st14" x1="247.7" y1="307.8" x2="242" y2="317.9"/>
		</g>
		<g>
			<circle cx="237.3" cy="269.2" r="3.2"/>
			<circle cx="259.1" cy="275.7" r="3.2"/>
			<circle cx="281.3" cy="289.6" r="3.2"/>
			<circle cx="264.6" cy="304.8" r="3.2"/>
			<circle cx="237.3" cy="295" r="3.2"/>
			<circle cx="242" cy="317.9" r="3.2"/>
		</g>
	</g>
	<line class="st8" x1="214.7" y1="196.4" x2="235.3" y2="240.6"/>
	<text transform="matrix(1 0 0 1 196.8091 364.541)"><tspan x="0" y="0" class="st9 st1 st10">Hyperledger </tspan><tspan x="80" y="0" class="st11 st1 st10">based</tspan><tspan x="14.2" y="18" class="st11 st1 st10">Product Chain</tspan></text>
</g>
<text transform="matrix(1 0 0 1 29.4666 218.4985)" class="st11 st1 st15">Side Chain</text>
<g class="st5">
	
		<ellipse transform="matrix(0.4496 -0.8932 0.8932 0.4496 -11.1214 407.5244)" class="st16" cx="325.1" cy="212.8" rx="28.1" ry="28.1"/>
</g>
<line class="st8" x1="279.7" y1="166.2" x2="299.9" y2="186.7"/>
<polygon class="st0" points="161.2,57.4 169.9,62.4 177.5,58 193.8,67.4 193.8,87.5 177.5,96.9 161.2,87.5 161.2,77.4 177.5,86.8 
	185.2,82.4 185.2,72.4 177.5,76.8 152.5,62.4 152.5,92.5 177.5,106.9 202.4,92.5 202.4,62.4 177.5,48 "/>
</svg>
