<?xml version="1.0" encoding="utf-8"?>
<!-- Generator: Adobe Illustrator 17.0.0, SVG Export Plug-In . SVG Version: 6.00 Build 0)  -->
<!DOCTYPE svg PUBLIC "-//W3C//DTD SVG 1.1//EN" "http://www.w3.org/Graphics/SVG/1.1/DTD/svg11.dtd">
<svg version="1.1" id="Layer_1" xmlns="http://www.w3.org/2000/svg" xmlns:xlink="http://www.w3.org/1999/xlink" x="0px" y="0px"
	 width="90.001px" height="32.265px" viewBox="0 0.209 90.001 32.265" enable-background="new 0 0.209 90.001 32.265"
	 xml:space="preserve">
<g>
	<g>
		<g>
			<polygon fill="#FFFFFF" points="13.349,7.015 5.823,27.399 9.206,27.399 9.206,32.474 0,32.474 0,28.619 10.501,0.217 
				16.181,0.217 			"/>
		</g>
	</g>
	<polygon fill="#FFFFFF" points="16.205,0.227 16.205,0.209 3.342,0.209 3.342,5.303 12.652,5.303 13.37,7.015 21.08,27.399 
		17.741,27.399 17.741,32.474 26.922,32.474 26.922,28.614 	"/>
</g>
<g>
	<path fill="#FFFFFF" d="M38.313,25.311c0.449-0.753,0.832-1.404,1.151-1.954c0.405-0.665,0.775-1.273,1.107-1.823
		c0.333-0.55,0.673-1.1,1.021-1.65c0.347-0.55,0.731-1.151,1.151-1.802c0.419-0.651,0.933-1.425,1.541-2.322
		c1.534-2.2,2.373-4.357,2.518-6.469c0.145-2.113-0.377-3.936-1.563-5.471c-0.579-0.752-1.266-1.396-2.062-1.932
		c-0.797-0.535-1.672-0.933-2.626-1.194c-1.882-0.52-3.72-0.492-5.515,0.087c-1.621,0.551-2.872,1.505-3.755,2.866
		c-0.884,1.361-1.325,2.88-1.325,4.558v2.388l5.036-2.389c0-1.389,0.55-2.272,1.65-2.649c0.781-0.26,1.613-0.26,2.497,0
		c0.883,0.261,1.57,0.696,2.063,1.303c0.347,0.463,0.535,0.978,0.564,1.541c0.029,0.565-0.037,1.122-0.195,1.672
		c-0.159,0.55-0.377,1.079-0.651,1.584c-0.276,0.507-0.543,0.948-0.803,1.324c-0.607,0.898-1.136,1.68-1.584,2.345
		c-0.449,0.666-0.861,1.289-1.237,1.867c-0.377,0.58-0.731,1.151-1.064,1.714c-0.333,0.565-0.702,1.18-1.106,1.845
		c-0.521,0.869-1.151,1.925-1.89,3.17c-0.728,1.228-1.677,2.783-2.842,4.66v3.892h16.844V27.74H36.859
		C37.38,26.873,37.864,26.063,38.313,25.311z"/>
	<path fill="#FFFFFF" d="M65.774,14.197c-1.042-1.014-2.338-1.82-3.886-2.414c-1.549-0.594-3.351-0.892-5.406-0.892l0.521-6.035
		h9.291V0.211H52.792L51.49,15.623h5.904c0.521,0,1.164,0.073,1.932,0.217c0.766,0.145,1.52,0.441,2.258,0.89
		s1.367,1.093,1.889,1.932c0.52,0.84,0.781,1.939,0.781,3.3c0,1.274-0.368,2.403-1.107,3.386c-0.738,0.984-1.693,1.678-2.865,2.084
		s-2.482,0.434-3.929,0.087c-1.447-0.347-2.881-1.215-4.299-2.604l-2.649,3.212c0.608,0.811,1.361,1.535,2.258,2.171
		c0.753,0.55,1.686,1.049,2.801,1.498c1.114,0.449,2.424,0.672,3.929,0.672c1.36,0,2.67-0.261,3.929-0.783
		c1.259-0.521,2.38-1.254,3.364-2.197c0.984-0.943,1.766-2.051,2.345-3.327c0.579-1.276,0.869-2.683,0.869-4.22
		c0-1.479-0.261-2.886-0.781-4.22C67.597,16.387,66.816,15.212,65.774,14.197z"/>
	<path fill="#FFFFFF" d="M89.348,18.836c-0.434-1.216-1.063-2.301-1.888-3.257c-0.825-0.955-1.853-1.722-3.082-2.301
		c-1.231-0.578-2.626-0.868-4.19-0.868l6.947-12.2h-5.514l-9.248,16.238c-0.261,0.434-0.477,0.955-0.651,1.562
		c-0.173,0.521-0.325,1.158-0.456,1.911c-0.13,0.753-0.195,1.635-0.195,2.649c0,1.245,0.218,2.461,0.651,3.647
		c0.435,1.187,1.057,2.236,1.867,3.147c0.81,0.912,1.795,1.65,2.953,2.215c1.157,0.565,2.46,0.847,3.907,0.847
		c1.418,0,2.714-0.267,3.886-0.803c1.173-0.535,2.178-1.252,3.017-2.149c0.839-0.896,1.49-1.947,1.954-3.148
		c0.463-1.2,0.695-2.452,0.695-3.755C90,21.297,89.783,20.051,89.348,18.836z M84.831,24.459c-0.232,0.593-0.56,1.115-0.981,1.562
		c-0.422,0.45-0.924,0.803-1.504,1.064c-0.583,0.261-1.222,0.391-1.919,0.391c-0.641,0-1.237-0.13-1.789-0.391
		c-0.552-0.261-1.04-0.614-1.461-1.064c-0.422-0.448-0.757-0.969-1.004-1.562c-0.247-0.593-0.371-1.222-0.371-1.889
		c0-0.723,0.123-1.389,0.371-1.997c0.247-0.608,0.582-1.128,1.004-1.563c0.421-0.434,0.909-0.774,1.461-1.02
		s1.149-0.369,1.789-0.369c1.366,0,2.5,0.456,3.401,1.368c0.902,0.911,1.352,2.105,1.352,3.582
		C85.181,23.236,85.065,23.865,84.831,24.459z"/>
</g>
</svg>
