<?xml version="1.0" encoding="utf-8"?>
<!-- Generator: Adobe Illustrator 17.0.0, SVG Export Plug-In . SVG Version: 6.00 Build 0)  -->
<!DOCTYPE svg PUBLIC "-//W3C//DTD SVG 1.1//EN" "http://www.w3.org/Graphics/SVG/1.1/DTD/svg11.dtd">
<svg version="1.1" id="Layer_1" xmlns="http://www.w3.org/2000/svg" xmlns:xlink="http://www.w3.org/1999/xlink" x="0px" y="0px"
	 width="62.459px" height="22.392px" viewBox="0 0.353 62.459 22.392" enable-background="new 0 0.353 62.459 22.392"
	 xml:space="preserve">
<g>
	<g>
		<g>
			<g>
				<polygon fill="#7A7A7A" points="9.264,5.076 4.042,19.222 6.389,19.222 6.389,22.744 0,22.744 0,20.069 7.288,0.359 
					11.229,0.359 				"/>
			</g>
		</g>
		<polygon fill="#7A7A7A" points="11.246,0.365 11.246,0.353 2.319,0.353 2.319,3.888 8.781,3.888 9.279,5.076 14.63,19.222 
			12.312,19.222 12.312,22.744 18.683,22.744 18.683,20.066 		"/>
	</g>
	<g>
		<path fill="#7A7A7A" d="M26.589,17.773c0.311-0.522,0.577-0.974,0.799-1.356c0.281-0.462,0.538-0.884,0.768-1.265
			c0.231-0.382,0.467-0.763,0.708-1.145c0.241-0.382,0.507-0.799,0.799-1.251c0.291-0.452,0.648-0.989,1.07-1.612
			c1.064-1.527,1.647-3.023,1.747-4.489c0.1-1.467-0.262-2.732-1.085-3.797c-0.401-0.522-0.878-0.968-1.431-1.341
			c-0.553-0.371-1.16-0.648-1.823-0.829c-1.306-0.361-2.582-0.341-3.827,0.06c-1.125,0.382-1.993,1.045-2.606,1.989
			c-0.613,0.944-0.919,1.999-0.919,3.163v1.657l3.495-1.657c0-0.964,0.382-1.577,1.145-1.838c0.542-0.18,1.119-0.18,1.733,0
			c0.612,0.181,1.089,0.483,1.431,0.904c0.241,0.322,0.371,0.678,0.391,1.07c0.02,0.392-0.026,0.779-0.136,1.16
			c-0.111,0.382-0.262,0.749-0.452,1.1c-0.191,0.352-0.377,0.658-0.557,0.919c-0.421,0.623-0.788,1.166-1.1,1.627
			c-0.311,0.462-0.598,0.894-0.859,1.296c-0.262,0.402-0.508,0.799-0.738,1.19c-0.231,0.392-0.487,0.819-0.768,1.281
			c-0.362,0.603-0.799,1.336-1.311,2.2c-0.505,0.852-1.164,1.932-1.973,3.234v2.701h11.69V19.46H25.58
			C25.941,18.857,26.278,18.295,26.589,17.773z"/>
		<path fill="#7A7A7A" d="M45.646,10.06c-0.723-0.704-1.623-1.263-2.697-1.675c-1.075-0.412-2.325-0.619-3.751-0.619l0.362-4.188
			h6.448V0.354h-9.371L35.734,11.05h4.097c0.362,0,0.808,0.051,1.341,0.151c0.532,0.1,1.055,0.306,1.567,0.618
			c0.512,0.311,0.949,0.758,1.311,1.341c0.361,0.583,0.542,1.346,0.542,2.29c0,0.884-0.256,1.667-0.768,2.35
			c-0.512,0.683-1.175,1.165-1.988,1.446c-0.813,0.281-1.722,0.301-2.727,0.06c-1.004-0.241-1.999-0.843-2.983-1.807l-1.838,2.229
			c0.422,0.563,0.944,1.065,1.567,1.507c0.522,0.382,1.17,0.728,1.944,1.04c0.773,0.311,1.682,0.467,2.727,0.467
			c0.944,0,1.853-0.181,2.727-0.544c0.874-0.362,1.652-0.87,2.335-1.524c0.683-0.654,1.226-1.423,1.627-2.309
			c0.402-0.886,0.603-1.862,0.603-2.929c0-1.026-0.181-2.003-0.542-2.929C46.912,11.58,46.369,10.765,45.646,10.06z"/>
		<path fill="#7A7A7A" d="M62.006,13.28c-0.301-0.844-0.738-1.597-1.311-2.26c-0.572-0.663-1.286-1.195-2.139-1.597
			c-0.854-0.401-1.823-0.602-2.908-0.602l4.821-8.467h-3.826l-6.418,11.269c-0.181,0.301-0.331,0.663-0.452,1.084
			c-0.12,0.362-0.226,0.804-0.317,1.326c-0.09,0.522-0.136,1.135-0.136,1.838c0,0.864,0.151,1.708,0.452,2.531
			c0.302,0.823,0.733,1.552,1.296,2.184c0.562,0.633,1.245,1.145,2.049,1.537c0.803,0.392,1.707,0.588,2.711,0.588
			c0.984,0,1.883-0.185,2.697-0.557c0.814-0.371,1.511-0.869,2.094-1.492c0.582-0.622,1.034-1.351,1.356-2.185
			c0.322-0.833,0.482-1.702,0.482-2.606C62.459,14.987,62.308,14.123,62.006,13.28z M58.872,17.182
			c-0.161,0.412-0.388,0.774-0.681,1.084c-0.293,0.312-0.641,0.557-1.044,0.738c-0.404,0.181-0.848,0.271-1.332,0.271
			c-0.445,0-0.859-0.09-1.242-0.271c-0.383-0.181-0.722-0.426-1.014-0.738c-0.293-0.311-0.525-0.673-0.697-1.084
			c-0.171-0.412-0.257-0.848-0.257-1.311c0-0.502,0.086-0.964,0.257-1.386c0.171-0.422,0.404-0.783,0.697-1.085
			c0.292-0.301,0.631-0.537,1.014-0.708c0.383-0.171,0.797-0.256,1.242-0.256c0.948,0,1.735,0.316,2.36,0.949
			c0.626,0.632,0.938,1.461,0.938,2.486C59.114,16.333,59.034,16.77,58.872,17.182z"/>
	</g>
</g>
</svg>
