<?xml version="1.0" encoding="utf-8"?>
<!-- Generator: Adobe Illustrator 23.0.0, SVG Export Plug-In . SVG Version: 6.00 Build 0)  -->
<svg version="1.1" id="Layer_1" xmlns="http://www.w3.org/2000/svg" xmlns:xlink="http://www.w3.org/1999/xlink" x="0px" y="0px"
	 viewBox="0 0 180 100" style="enable-background:new 0 0 180 100;" xml:space="preserve">
<style type="text/css">
	.st0{fill:#040000;}
	.st1{fill:#FFFFFF;}
</style>
<g>
	<g>
		<path class="st0" d="M51.3,40.5H61c3.6,0,6.6,1.6,6.6,5.1c0,2.7-1.3,4.5-3.9,5.1v0.1c1.8,0.5,1.9,2,2.9,4.5l2,5.6h-5.7l-1.2-3.7
			c-1.1-3.5-1.8-4.4-3.8-4.4h-1.1v8.1h-5.4V40.5z M56.8,49h1.4c1.8,0,4-0.1,4-2.4c0-1.9-1.9-2.3-4-2.3h-1.4V49z"/>
		<path class="st0" d="M69.4,53.3c0-5.1,3.8-8,8.9-8c5,0,8.9,2.9,8.9,8c0,5-3.8,8-8.9,8C73.3,61.3,69.4,58.3,69.4,53.3z M81.7,53.3
			c0-2.3-1-4.3-3.4-4.3c-2.4,0-3.4,2-3.4,4.3c0,2.3,1,4.3,3.4,4.3C80.7,57.6,81.7,55.6,81.7,53.3z"/>
		<path class="st0" d="M88.7,53.3c0-5.1,3.8-8,8.9-8c5,0,8.9,2.9,8.9,8c0,5-3.8,8-8.9,8C92.5,61.3,88.7,58.3,88.7,53.3z M101,53.3
			c0-2.3-1-4.3-3.4-4.3c-2.4,0-3.4,2-3.4,4.3c0,2.3,1,4.3,3.4,4.3C100,57.6,101,55.6,101,53.3z"/>
		<path class="st0" d="M106.9,45.7h3.1v-3.4l5.2-1.6v5h3.7v3.7h-3.7V55c0,1.8,0.4,2.8,2.1,2.8c0.5,0,1.1-0.1,1.6-0.2l0.2,3.4
			c-1,0.1-2,0.3-3.3,0.3c-4.7,0-5.8-2.1-5.8-5.7v-6.2h-3V45.7z"/>
		<path class="st0" d="M132.5,40.1c6.7,0,10.2,4,10.2,10.6c0,6.5-3.6,10.6-10.2,10.6c-6.7,0-10.2-4.1-10.2-10.6
			C122.2,44.1,125.7,40.1,132.5,40.1z M132.5,57.2c3.3,0,4.6-3.2,4.6-6.5c0-3.5-1.3-6.5-4.6-6.5c-3.3,0-4.6,3-4.6,6.5
			C127.8,54.1,129.2,57.2,132.5,57.2z"/>
		<path class="st0" d="M144.9,45.7h4.8v2.8h0.1c1.1-2.2,3.2-3.2,5.6-3.2c4.2,0,5.8,2.9,5.8,6.1v9.5h-5.3v-7.4c0-2.9-1-3.8-2.4-3.8
			c-2.2,0-3.3,1.5-3.3,4.8v6.4h-5.3V45.7z"/>
		<path class="st0" d="M168.5,54.8c0.3,2.1,1.9,2.9,4.5,2.9c1.4,0,3.1-0.3,4.7-1.2v3.7c-1.7,0.7-3.6,1-5.6,1c-5,0-8.9-3-8.9-8
			c0-5,3.4-8,8.2-8c5.6,0,7.7,4,7.7,8.5v1H168.5z M174.3,51.8c0-1.8-0.8-3.2-2.9-3.2c-1.9,0-2.8,1.4-2.9,3.2H174.3z"/>
	</g>
	<g>
		<rect x="1.5" y="32" class="st0" width="37.4" height="37.4"/>
		<polygon class="st1" points="18.2,41.9 13.7,54.7 10.9,52.1 8.5,54.6 15.2,60.9 20.7,45.4 30.4,45.4 30.4,41.9 		"/>
	</g>
</g>
</svg>
