<?xml version="1.0" encoding="utf-8"?>
<!-- Generator: Adobe Illustrator 23.0.0, SVG Export Plug-In . SVG Version: 6.00 Build 0)  -->
<svg version="1.1" id="Layer_1" xmlns="http://www.w3.org/2000/svg" xmlns:xlink="http://www.w3.org/1999/xlink" x="0px" y="0px"
	 viewBox="0 0 180 100" style="enable-background:new 0 0 180 100;" xml:space="preserve">
<style type="text/css">
	.st0{fill:#222222;}
	.st1{fill:#003CED;}
	.st2{fill:none;stroke:#000000;stroke-miterlimit:10;}
	.st3{opacity:0.7;fill:#003CED;}
	.st4{opacity:0.4;fill:#003CED;}
</style>
<g>
	<g>
		<path class="st0" d="M91.6,65.7v-5.3c0-0.7-0.1-1.2-0.3-1.4c-0.2-0.2-0.7-0.3-1.4-0.3H87c-3,0-4.5-1.5-4.5-4.5v-6.6
			c0-3,1.5-4.5,4.5-4.5h3.9c3,0,4.5,1.5,4.5,4.5v2.8h-3.9v-2.2c0-0.8-0.1-1.2-0.3-1.5c-0.2-0.2-0.7-0.3-1.5-0.3h-1.6
			c-0.8,0-1.3,0.1-1.5,0.3c-0.2,0.2-0.3,0.7-0.3,1.5v5.4c0,0.7,0.1,1.2,0.3,1.4c0.2,0.2,0.7,0.3,1.5,0.3H91c3,0,4.5,1.5,4.5,4.5v6.4
			c0,3-1.5,4.5-4.5,4.5h-3.8c-3,0-4.5-1.5-4.5-4.5v-2.8h3.9v2.2c0,0.7,0.1,1.2,0.3,1.4c0.2,0.2,0.7,0.3,1.5,0.3h1.5
			c0.7,0,1.2-0.1,1.4-0.3C91.5,66.9,91.6,66.4,91.6,65.7z"/>
		<path class="st0" d="M103.7,43h5.8c3,0,4.5,1.5,4.5,4.5v18.7c0,3-1.5,4.5-4.5,4.5h-5.8c-3,0-4.5-1.5-4.5-4.5V47.5
			C99.2,44.5,100.7,43,103.7,43z M110.2,65.6V48.1c0-0.7-0.1-1.2-0.3-1.4c-0.2-0.2-0.7-0.3-1.4-0.3h-3.5c-0.7,0-1.2,0.1-1.4,0.3
			c-0.2,0.2-0.3,0.7-0.3,1.4v17.5c0,0.8,0.1,1.3,0.3,1.5c0.2,0.2,0.7,0.3,1.4,0.3h3.5c0.7,0,1.2-0.1,1.4-0.3
			C110,66.9,110.2,66.4,110.2,65.6z"/>
		<path class="st0" d="M122.5,43h5.8c3,0,4.5,1.5,4.5,4.5v18.7c0,3-1.5,4.5-4.5,4.5h-5.8c-3,0-4.5-1.5-4.5-4.5V47.5
			C117.9,44.5,119.4,43,122.5,43z M128.9,65.6V48.1c0-0.7-0.1-1.2-0.3-1.4c-0.2-0.2-0.7-0.3-1.4-0.3h-3.5c-0.7,0-1.2,0.1-1.4,0.3
			c-0.2,0.2-0.3,0.7-0.3,1.4v17.5c0,0.8,0.1,1.3,0.3,1.5c0.2,0.2,0.7,0.3,1.4,0.3h3.5c0.7,0,1.2-0.1,1.4-0.3
			C128.8,66.9,128.9,66.4,128.9,65.6z"/>
		<path class="st0" d="M144.1,43h2.3c3,0,4.5,1.5,4.5,4.5v23.2h-4V48.1c0-0.7-0.1-1.2-0.3-1.4c-0.2-0.2-0.7-0.3-1.5-0.3h-2.3
			c-0.7,0-1.2,0.2-1.5,0.5c-0.3,0.3-0.5,0.8-0.5,1.6v22.3h-4V32.5h4v12.4C141.3,43.6,142.4,43,144.1,43z"/>
		<path class="st0" d="M159.5,43h5.8c3,0,4.5,1.5,4.5,4.5v18.7c0,3-1.5,4.5-4.5,4.5h-5.8c-3,0-4.5-1.5-4.5-4.5V47.5
			C155,44.5,156.5,43,159.5,43z M166,65.6V48.1c0-0.7-0.1-1.2-0.3-1.4c-0.2-0.2-0.7-0.3-1.4-0.3h-3.5c-0.7,0-1.2,0.1-1.4,0.3
			c-0.2,0.2-0.3,0.7-0.3,1.4v17.5c0,0.8,0.1,1.3,0.3,1.5c0.2,0.2,0.7,0.3,1.4,0.3h3.5c0.7,0,1.2-0.1,1.4-0.3
			C165.9,66.9,166,66.4,166,65.6z"/>
		<path class="st1" d="M173.3,70.8v-6.4h4.7v6.4H173.3z"/>
	</g>
	<g>
		<g>
			<path class="st2" d="M65.2,77.7"/>
			<polygon class="st3" points="61.3,73.7 57.4,69.8 49.6,69.8 41.8,69.8 34,69.8 26.2,69.8 18.4,69.8 10.5,69.8 14.5,73.7 
				18.4,77.7 26.2,77.7 34,77.7 41.8,77.7 49.6,77.7 57.4,77.7 65.2,77.7 			"/>
			<g>
				<path class="st2" d="M41.8,23"/>
				<path class="st2" d="M49.6,23"/>
				<polygon class="st1" points="45.7,42.5 41.8,38.6 34,38.6 26.2,38.6 18.4,38.6 18.4,46.4 26.2,46.4 34,46.4 41.8,46.4 
					49.6,46.4 				"/>
				<polygon class="st3" points="41.8,54.2 34,54.2 26.2,54.2 18.4,54.2 22.3,58.1 26.2,62 34,62 41.8,62 49.6,62 49.6,54.2 				"/>
				<polygon class="st1" points="22.3,58.1 18.4,54.2 10.5,54.2 2.7,54.2 2.7,62 6.6,65.9 10.5,69.8 18.4,69.8 26.2,69.8 26.2,62 
									"/>
				<polygon class="st1" points="6.6,26.9 2.7,23 2.7,30.8 2.7,38.6 2.7,46.4 6.6,50.3 10.5,46.4 10.5,38.6 10.5,30.8 				"/>
				<polygon class="st3" points="53.5,26.9 49.6,23 41.8,23 34,23 26.2,23 18.4,23 10.5,23 2.7,23 6.6,26.9 10.5,30.8 18.4,30.8 
					26.2,30.8 34,30.8 41.8,30.8 49.6,30.8 57.4,30.8 				"/>
				<polygon class="st4" points="61.3,34.7 57.4,30.8 49.6,30.8 41.8,30.8 41.8,38.6 45.7,42.5 49.6,46.4 57.4,46.4 65.2,46.4 
					65.2,38.6 				"/>
				<polygon class="st4" points="61.3,50.3 57.4,54.2 57.4,62 57.4,69.8 61.3,73.7 65.2,77.7 65.2,69.8 65.2,62 65.2,54.2 				"/>
			</g>
		</g>
	</g>
</g>
</svg>
