<?xml version="1.0" encoding="utf-8"?>
<!-- Generator: Adobe Illustrator 23.0.0, SVG Export Plug-In . SVG Version: 6.00 Build 0)  -->
<svg version="1.1" id="Layer_1" xmlns="http://www.w3.org/2000/svg" xmlns:xlink="http://www.w3.org/1999/xlink" x="0px" y="0px"
	 viewBox="0 0 180 100" style="enable-background:new 0 0 180 100;" xml:space="preserve">
<style type="text/css">
	.st0{fill:#153667;}
	.st1{fill:url(#SVGID_1_);}
</style>
<g>
	<g>
		<path class="st0" d="M59.3,61.1L51,53.7v7.4h-3.2V37.1H51v13.5l7.6-6.9h4.5l-9.3,8.4l10,9H59.3z"/>
		<path class="st0" d="M78.3,54.1H66.8v3.8h11.5v3.2H66.8c-0.4,0-0.8-0.1-1.2-0.3c-0.4-0.2-0.7-0.4-1-0.7c-0.3-0.3-0.5-0.6-0.7-1
			c-0.2-0.4-0.3-0.8-0.3-1.3V47c0-0.4,0.1-0.9,0.3-1.3c0.2-0.4,0.4-0.7,0.7-1c0.3-0.3,0.6-0.5,1-0.7c0.4-0.2,0.8-0.3,1.2-0.3h8.3
			c0.4,0,0.9,0.1,1.3,0.3c0.4,0.2,0.7,0.4,1,0.7c0.3,0.3,0.5,0.6,0.7,1c0.2,0.4,0.3,0.8,0.3,1.3V54.1z M66.8,47v3.9h8.3V47H66.8z"/>
		<path class="st0" d="M96.9,37.1h3.5v3.3h-3.5V37.1z M100.3,43.7v17.4h-3.2V43.7H100.3z"/>
		<path class="st0" d="M118.6,61.1h-3.2V47h-9v14.2h-3.2V43.7h3.2v3.1c0-0.4,0.1-0.8,0.3-1.2c0.2-0.4,0.4-0.7,0.7-1
			c0.3-0.3,0.6-0.5,1-0.7c0.4-0.2,0.8-0.2,1.2-0.2h5.7c0.4,0,0.9,0.1,1.3,0.3c0.4,0.2,0.7,0.4,1,0.7c0.3,0.3,0.5,0.6,0.7,1
			c0.2,0.4,0.3,0.8,0.3,1.3V61.1z"/>
		<path class="st0" d="M132,57.9v-4h-7.6c-0.4,0-0.9-0.1-1.3-0.3c-0.4-0.2-0.7-0.4-1-0.7c-0.3-0.3-0.5-0.6-0.7-1
			c-0.2-0.4-0.3-0.8-0.3-1.3V47c0-0.4,0.1-0.9,0.3-1.3c0.2-0.4,0.4-0.7,0.7-1c0.3-0.3,0.6-0.5,1-0.7c0.4-0.2,0.8-0.3,1.3-0.3h10.2
			V47h-10.2v3.7h7.6c0.4,0,0.9,0.1,1.2,0.3c0.4,0.2,0.7,0.4,1,0.7c0.3,0.3,0.5,0.6,0.7,1c0.2,0.4,0.3,0.8,0.3,1.3v4
			c0,0.4-0.1,0.9-0.3,1.3c-0.2,0.4-0.4,0.7-0.7,1c-0.3,0.3-0.6,0.5-1,0.7c-0.4,0.2-0.8,0.3-1.2,0.3h-10.8v-3.2H132z"/>
		<path class="st0" d="M137.7,37.1h3.5v3.3h-3.5V37.1z M141.1,43.7v17.4h-3.2V43.7H141.1z"/>
		<path class="st0" d="M144.1,47c0-0.4,0.1-0.9,0.3-1.3c0.2-0.4,0.4-0.7,0.7-1c0.3-0.3,0.6-0.5,1-0.7c0.4-0.2,0.8-0.3,1.2-0.3h9
			v-6.7h3.2v24.1h-3.2v-2.9c0,0.4-0.1,0.8-0.3,1.1c-0.2,0.4-0.4,0.7-0.7,0.9c-0.3,0.3-0.6,0.5-1,0.6c-0.4,0.2-0.8,0.2-1.2,0.2h-5.8
			c-0.4,0-0.8-0.1-1.2-0.3c-0.4-0.2-0.7-0.4-1-0.7c-0.3-0.3-0.5-0.6-0.7-1c-0.2-0.4-0.3-0.8-0.3-1.3V47z M147.3,57.9h9V47h-9V57.9z"
			/>
		<path class="st0" d="M177,54.1h-11.5v3.8H177v3.2h-11.5c-0.4,0-0.8-0.1-1.2-0.3c-0.4-0.2-0.7-0.4-1-0.7c-0.3-0.3-0.5-0.6-0.7-1
			c-0.2-0.4-0.3-0.8-0.3-1.3V47c0-0.4,0.1-0.9,0.3-1.3c0.2-0.4,0.4-0.7,0.7-1c0.3-0.3,0.6-0.5,1-0.7c0.4-0.2,0.8-0.3,1.2-0.3h8.3
			c0.4,0,0.9,0.1,1.3,0.3c0.4,0.2,0.7,0.4,1,0.7c0.3,0.3,0.5,0.6,0.7,1c0.2,0.4,0.3,0.8,0.3,1.3V54.1z M165.5,47v3.9h8.3V47H165.5z"
			/>
		<polygon class="st0" points="84.4,63.3 87.6,63.3 96.1,43.7 92.7,43.7 87.6,55.7 82.5,43.7 79.2,43.7 86,59.6 		"/>
	</g>
	<linearGradient id="SVGID_1_" gradientUnits="userSpaceOnUse" x1="4.7412" y1="39.8308" x2="35.3435" y2="57.499">
		<stop  offset="0" style="stop-color:#00AED8"/>
		<stop  offset="1.354369e-02" style="stop-color:#00AED8"/>
		<stop  offset="0.3771" style="stop-color:#00AED8"/>
		<stop  offset="0.9153" style="stop-color:#0067B1"/>
		<stop  offset="1" style="stop-color:#005BAB"/>
	</linearGradient>
	<path class="st1" d="M20,31c-9.8,0-17.7,7.9-17.7,17.7c0,9.2,7,16.7,15.9,17.6v-9.9c-3.5-0.8-6.1-3.9-6.1-7.7
		c0-4.3,3.5-7.9,7.9-7.9s7.9,3.5,7.9,7.9c0,3.7-2.6,6.9-6.1,7.7v9.9c8.9-0.9,15.9-8.4,15.9-17.6C37.7,38.9,29.8,31,20,31z"/>
</g>
</svg>
