<?xml version="1.0" encoding="utf-8"?>
<!-- Generator: Adobe Illustrator 23.0.0, SVG Export Plug-In . SVG Version: 6.00 Build 0)  -->
<svg version="1.1" id="Layer_1" xmlns="http://www.w3.org/2000/svg" xmlns:xlink="http://www.w3.org/1999/xlink" x="0px" y="0px"
	 viewBox="0 0 180 100" style="enable-background:new 0 0 180 100;" xml:space="preserve">
<style type="text/css">
	.st0{fill:#2D2B6D;}
</style>
<g>
	<g>
		<path class="st0" d="M57.4,37.7c-1.1-0.8-3.4-1.2-6.8-1.2h-0.2l-1.9,4.4c-0.3-1.8-1-3.1-2.2-3.7c-0.8-0.4-2.3-0.7-4.4-0.7h-1.8
			l-2.4,4.4v-4.4h-8.3V68h8.3V43.1h2.4V68h8.3V43.1h2.5V68h8.3V44.3C59.4,40.9,58.7,38.8,57.4,37.7z M80.6,40.3
			c-0.6-1.8-1.7-2.9-3.4-3.4c-0.9-0.3-2.2-0.4-4.1-0.4h-3.8c-1.7,0-2.9,0.1-3.7,0.4c-1.4,0.5-2.4,1.4-2.9,2.9
			c-0.4,1.1-0.6,2.8-0.6,5.2V68h8.2v-6.3h2.5V68h8.3V45.5h0C81.1,43.1,81,41.4,80.6,40.3z M72.8,55.1h-2.4v-12h2.4V55.1z M94.9,61.5
			h-2.6V43h10.1v-6.5h-11c-1.7,0-2.9,0.1-3.6,0.3c-1.6,0.4-2.7,1.4-3.3,2.9c-0.4,1-0.6,2.6-0.6,4.6v16.3c0,1.6,0.1,2.8,0.3,3.6
			c0.7,2.6,3,3.8,6.9,3.8h11.6V49h-7.8V61.5z M121.7,36.9c-0.8-0.3-2.1-0.4-3.8-0.4h-1.8l-2.4,4.4v-4.4h-8.3V68h8.3V43.1h2.4V68h8.3
			V43.1c0-1.5-0.1-2.7-0.3-3.3C123.8,38.4,123,37.4,121.7,36.9z M127.2,68h8.3V36.5h-8.3V68z M155.5,50.3c-1.2-1-3-1.4-5.5-1.4h-3.4
			v-5.7h9.9v-6.5h-11.3c-4.6,0-6.9,2.2-6.9,6.5v5.2c0,4.5,2.3,6.8,6.9,6.8h3.9v6.3h-10.4V68h11.5c3.7,0,6-1.3,6.8-3.8
			c0.3-0.9,0.4-2,0.4-3.5v-5C157.4,53.1,156.8,51.3,155.5,50.3z"/>
	</g>
</g>
</svg>
