<?xml version="1.0" encoding="utf-8"?>
<!-- Generator: Adobe Illustrator 23.0.0, SVG Export Plug-In . SVG Version: 6.00 Build 0)  -->
<svg version="1.1" id="Layer_1" xmlns="http://www.w3.org/2000/svg" xmlns:xlink="http://www.w3.org/1999/xlink" x="0px" y="0px"
	 viewBox="0 0 120 120" style="enable-background:new 0 0 120 120;" xml:space="preserve">
<style type="text/css">
	.st0{fill:#323132;}
</style>
<g id="Artboard_1_" transform="translate(-3532.000000, -423.000000)">
	<g id="Group-39_1_" transform="translate(3532.000000, 423.000000)">
		<path id="AllBIT_1_" class="st0" d="M22.6,83.7h-7.8V60.9H8.8v22.8H1V44.8C1,40.2,5.3,37,11.8,37c7.5,0,10.8,4,10.8,7.8V83.7z
			 M14.7,55.4V44.8c0-1-0.9-2.1-2.9-2.1c-1.8,0-2.9,0.9-2.9,2.1v10.5H11h1.6H14.7z M29.7,83.7V37h7.8v46.7H29.7z M44.7,83.7V37h7.8
			v46.7H44.7z M67.5,42.4v13.1l5.9,0l0-13.1H67.5z M67.5,60.9v17.4h5.9V60.9H67.5z M80.2,58.2c0.7,0.3,1.1,1,1.1,2.2v17.3
			c0,4.4-2.3,6-8.5,6H59.7V37h13.1c6.2,0,8.4,1.6,8.4,6v13.1C81.3,57.2,80.9,57.9,80.2,58.2z M88.4,83.7V37h7.8v46.7H88.4z
			 M114.3,42.4v41.3h-7.8V42.4h-5.8V37H120v5.4H114.3z"/>
	</g>
</g>
</svg>
