<svg xmlns="http://www.w3.org/2000/svg" width="142" height="33.725" viewBox="0 0 142 33.725"><path d="M0,25.474V8.25L14.846,16.5l4.564-2.537v5.726l-4.564,2.537-9.7-5.393v5.782l9.7,5.393,9.7-5.393V11.109l-9.7-5.393L10.314,8.235,5.171,5.378,14.846,0,29.694,8.25V25.474L14.846,33.725Zm120.222-.718-.786-.122.1-2.218a39.232,39.232,0,0,0,4.381.39,4.193,4.193,0,0,0,1.912-.317,1.1,1.1,0,0,0,.571-1.049,1.035,1.035,0,0,0-.545-1.012,11.115,11.115,0,0,0-2.609-.609,7.117,7.117,0,0,1-3.026-1.037,3.011,3.011,0,0,1-.963-2.583,3.187,3.187,0,0,1,1.33-2.8,5.836,5.836,0,0,1,3.407-.926,25.046,25.046,0,0,1,3.975.391l.785.144-.049,2.218a37.9,37.9,0,0,0-4.33-.39,3.989,3.989,0,0,0-1.861.305,1.031,1.031,0,0,0-.519.962.941.941,0,0,0,.57.926,13.157,13.157,0,0,0,2.685.622,6.327,6.327,0,0,1,3,1.112,3.387,3.387,0,0,1,.886,2.681,3.219,3.219,0,0,1-1.279,2.828,6.457,6.457,0,0,1-3.735.9A23.423,23.423,0,0,1,120.222,24.755Zm12.193-1.075a7.428,7.428,0,0,1-1.228-4.753q0-6.484,5.494-6.484,5.318,0,5.318,5.583l-.175,1.9h-7.851a3.249,3.249,0,0,0,.684,2.217,3.315,3.315,0,0,0,2.457.707q1.8,0,3.7-.144l.709-.073.049,1.975a27.274,27.274,0,0,1-5.116.561A4.966,4.966,0,0,1,132.415,23.68Zm2.2-8.287a3.906,3.906,0,0,0-.671,2.486h5.343a4.031,4.031,0,0,0-.595-2.522,2.478,2.478,0,0,0-2.013-.721q-.113-.01-.225-.01A2.569,2.569,0,0,0,134.618,15.393ZM52.757,23.815q-.886-1.354-.887-4.741V12.71h2.76V19.1a7.554,7.554,0,0,0,.38,2.949q.379.756,1.773.756a6.32,6.32,0,0,0,2.507-.487l.38-.145V12.712h2.735V24.9H59.671v-.756a7.13,7.13,0,0,1-3.419,1.024Q53.644,25.168,52.757,23.815Zm45.774-.137A7.433,7.433,0,0,1,97.3,18.925q0-6.481,5.5-6.482,5.318,0,5.319,5.579l-.177,1.9H100.09a3.246,3.246,0,0,0,.684,2.218,3.315,3.315,0,0,0,2.457.707q1.8,0,3.7-.144l.709-.073.049,1.975a27.266,27.266,0,0,1-5.116.561A4.966,4.966,0,0,1,98.531,23.678Zm2.2-8.285a3.906,3.906,0,0,0-.671,2.486l5.343,0a4.037,4.037,0,0,0-.6-2.523,2.476,2.476,0,0,0-2.013-.721q-.113-.01-.225-.01A2.572,2.572,0,0,0,100.733,15.393ZM110.776,24.9V12.712h2.735V13.5a7.976,7.976,0,0,1,4.3-.787v2.655a8.982,8.982,0,0,0-4.279.458V24.9Zm-23.02,0L84.488,12.712h2.886l2.432,9.921h.81l2.533-9.921h2.812L92.668,24.9Zm-8.18,0V12.712h2.76V24.9Zm-5.951,0V18.442a6.391,6.391,0,0,0-.443-2.8,1.862,1.862,0,0,0-1.812-.829,6.5,6.5,0,0,0-2.481.488l-.38.144V24.9h-2.76V12.712h2.735v.755a7.254,7.254,0,0,1,3.495-1.023q2.533,0,3.457,1.377a8.449,8.449,0,0,1,.924,4.546V24.9ZM40.3,24.9V8.922h2.812V22.486h6.913V24.9ZM79.575,10.64V8.557h2.76V10.64Z" fill="#1366ff"/></svg>