<svg xmlns="http://www.w3.org/2000/svg" width="164.53" height="42.725" viewBox="0 0 164.53 42.725"><g transform="translate(-296.937 -9.019)"><path d="M7.13,7.13,0,14.26,7.13,7.13,0,0,7.13,7.13,14.26,0,7.13,7.13l7.13,7.13Z" transform="translate(410.796 23.363)" fill="none" stroke="#d0d7de" stroke-width="1"/><path d="M0,19.317V6.256l10.836,6.256,3.331-1.924V14.93l-3.331,1.924L3.754,12.765V17.15l7.082,4.089,7.082-4.089V8.424L10.836,4.335,7.527,6.245,3.773,4.077,10.836,0,21.672,6.256V19.317L10.836,25.574Zm87.744-.545-.573-.093L87.244,17a27.422,27.422,0,0,0,3.2.3,2.961,2.961,0,0,0,1.4-.24.845.845,0,0,0,.416-.8.794.794,0,0,0-.4-.767,7.905,7.905,0,0,0-1.9-.462,5.06,5.06,0,0,1-2.208-.786,2.329,2.329,0,0,1-.7-1.959,2.451,2.451,0,0,1,.97-2.126,4.141,4.141,0,0,1,2.486-.7,17.689,17.689,0,0,1,2.9.3l.573.11-.036,1.682a26.6,26.6,0,0,0-3.16-.3,2.815,2.815,0,0,0-1.358.231.792.792,0,0,0-.38.731.718.718,0,0,0,.416.7,9.305,9.305,0,0,0,1.959.472,4.513,4.513,0,0,1,2.19.843,2.628,2.628,0,0,1,.646,2.032,2.478,2.478,0,0,1-.933,2.144,4.574,4.574,0,0,1-2.727.684A16.435,16.435,0,0,1,87.744,18.772Zm8.9-.815a5.8,5.8,0,0,1-.9-3.6q0-4.916,4.01-4.916,3.882,0,3.881,4.233l-.128,1.441h-5.73a2.529,2.529,0,0,0,.5,1.681,2.358,2.358,0,0,0,1.793.537q1.313,0,2.7-.11l.518-.055.036,1.5a19.143,19.143,0,0,1-3.733.426A3.557,3.557,0,0,1,96.644,17.957Zm1.608-6.285a3.047,3.047,0,0,0-.49,1.885h3.9a3.155,3.155,0,0,0-.434-1.913,1.774,1.774,0,0,0-1.47-.546c-.055,0-.109-.007-.164-.007A1.843,1.843,0,0,0,98.251,11.672ZM38.505,18.059a7.184,7.184,0,0,1-.647-3.6V9.637h2.015V14.48a5.927,5.927,0,0,0,.277,2.236q.277.574,1.294.574a4.466,4.466,0,0,0,1.83-.37l.277-.11V9.639h2v9.242h-2v-.573a5.062,5.062,0,0,1-2.5.777A2.79,2.79,0,0,1,38.505,18.059Zm33.408-.1a5.8,5.8,0,0,1-.9-3.6q0-4.916,4.011-4.915,3.882,0,3.882,4.231l-.129,1.442h-5.73a2.53,2.53,0,0,0,.5,1.681,2.359,2.359,0,0,0,1.793.536q1.313,0,2.7-.109l.518-.055.037,1.5a19.181,19.181,0,0,1-3.734.425A3.554,3.554,0,0,1,71.913,17.955Zm1.607-6.283a3.045,3.045,0,0,0-.49,1.885h3.9a3.155,3.155,0,0,0-.434-1.913,1.771,1.771,0,0,0-1.469-.546c-.055,0-.11-.007-.165-.007A1.841,1.841,0,0,0,73.52,11.672Zm7.33,7.209V9.639h2v.6a5.629,5.629,0,0,1,3.142-.6v2.014A6.332,6.332,0,0,0,82.864,12v6.881Zm-16.8,0L61.664,9.639h2.107l1.775,7.523h.592l1.848-7.523h2.052l-2.4,9.242Zm-5.97,0V9.639h2.015v9.242Zm-4.343,0v-4.9a5.01,5.01,0,0,0-.324-2.126,1.341,1.341,0,0,0-1.322-.628,4.584,4.584,0,0,0-1.811.37l-.277.11v7.172H47.987V9.639h2v.573a5.144,5.144,0,0,1,2.55-.777,2.776,2.776,0,0,1,2.522,1.044,6.606,6.606,0,0,1,.675,3.447v4.954Zm-24.324,0V6.766h2.051V17.051h5.046v1.829ZM58.078,8.068V6.489h2.015V8.068Z" transform="translate(296.937 17.129)" fill="#fff"/><g transform="translate(435.429 10.019)"><path d="M255.056,86.628,267.575,104.2V94.018Z" transform="translate(-255.056 -62.475)" fill="#fff"/><path d="M277.423,104.2l12.519-17.572-12.519,7.391Z" transform="translate(-263.904 -62.475)" fill="#fff"/><path d="M267.575,45.261,255.056,65.849l12.519-5.581Z" transform="translate(-255.056 -46.261)" fill="#fff"/><path d="M255.056,77.656h0l12.519,7.391V72.075Z" transform="translate(-255.056 -57.067)" fill="#fff"/><path d="M289.943,65.849,277.423,45.261V60.268Z" transform="translate(-263.904 -46.261)" fill="#fff"/><path d="M277.423,72.075V85.047l12.519-7.391h0Z" transform="translate(-263.904 -57.067)" fill="#fff"/></g></g></svg>