<svg xmlns="http://www.w3.org/2000/svg" xmlns:xlink="http://www.w3.org/1999/xlink" width="571.539" height="290.642" viewBox="0 0 571.539 290.642"><defs><clipPath id="a"><path d="M110.04,219.2,85.7,280.326l86.021,79.8,41.9-140.369Z" transform="translate(-85.7 -219.2)"/></clipPath><radialGradient id="b" cx="338.214" cy="27.854" r="8.344" gradientUnits="userSpaceOnUse"><stop offset="0" stop-color="#b5dfe2"/><stop offset="0.312" stop-color="#92d1d5"/><stop offset="0.739" stop-color="#5bc0c5"/><stop offset="0.85" stop-color="#67c3c7"/><stop offset="1" stop-color="#80cbce"/></radialGradient><radialGradient id="c" cx="380.631" cy="129.703" r="12.323" gradientUnits="userSpaceOnUse"><stop offset="0" stop-color="#f4b4c9"/><stop offset="0.351" stop-color="#ef91b2"/><stop offset="0.739" stop-color="#eb6b9a"/><stop offset="0.827" stop-color="#ec729e"/><stop offset="0.956" stop-color="#ee86aa"/><stop offset="1" stop-color="#ef8db0"/></radialGradient><linearGradient id="d" x1="0.477" y1="0.189" x2="0.533" y2="0.943" gradientUnits="objectBoundingBox"><stop offset="0" stop-color="#fff"/><stop offset="1" stop-color="#eae5e3"/></linearGradient><linearGradient id="e" x1="0.021" y1="0.226" x2="0.701" y2="0.449" gradientUnits="objectBoundingBox"><stop offset="0" stop-color="#beb1aa"/><stop offset="1" stop-color="#d3cbc5"/></linearGradient><linearGradient id="f" x1="0.09" y1="0.553" x2="2.117" y2="0.422" xlink:href="#e"/><clipPath id="g"><path d="M158.382,554.5,102,604.1l59.339,26.157Z" transform="translate(-102 -554.5)"/></clipPath><radialGradient id="h" cx="18.9" cy="16.052" r="31.456" gradientUnits="userSpaceOnUse"><stop offset="0" stop-color="#fff34b"/><stop offset="0.381" stop-color="#fed40d"/><stop offset="0.739" stop-color="#f9b700"/><stop offset="0.85" stop-color="#fabc00"/><stop offset="1" stop-color="#fcc900"/></radialGradient><radialGradient id="i" cx="33.517" cy="28.456" r="55.711" xlink:href="#b"/><radialGradient id="j" cx="174.741" cy="588.196" r="12.323" xlink:href="#b"/><radialGradient id="k" cx="42.167" cy="361.067" r="24.956" gradientUnits="userSpaceOnUse"><stop offset="0.812" stop-color="#fcc900"/><stop offset="0.836" stop-color="#fed400"/><stop offset="0.915" stop-color="#fff34b"/><stop offset="0.943" stop-color="#ffe528"/><stop offset="1" stop-color="#fcc900"/></radialGradient><radialGradient id="l" cx="5.02" cy="4.244" r="8.344" xlink:href="#h"/><radialGradient id="m" cx="220.705" cy="461.948" r="8.343" xlink:href="#h"/><radialGradient id="n" cx="13.457" cy="11.423" r="22.36" xlink:href="#c"/></defs><g transform="translate(76.083 -13.922)" opacity="0.445"><g transform="translate(197.77 -7.802)"><path d="M345.647,29.824a6.224,6.224,0,1,1-6.224-6.224A6.226,6.226,0,0,1,345.647,29.824Z" transform="translate(-535.841 54.671)" fill="url(#b)"/><path d="M391.624,132.612a9.212,9.212,0,1,1-9.212-9.212A9.217,9.217,0,0,1,391.624,132.612Z" transform="translate(-153.518 -87.381)" fill="url(#c)"/><g transform="translate(-120.873 223.839)"><path d="M158.382,554.5,102,604.1l42.086-8.935Z" transform="translate(-102 -554.5)" fill="url(#d)"/><path d="M161.339,721.592,102,695.435l42.086-8.935Z" transform="translate(-102 -645.831)" fill="url(#e)"/><path d="M252.9,554.5l2.958,75.761L238.6,595.169Z" transform="translate(-196.514 -554.5)" fill="url(#f)"/></g><circle cx="23.477" cy="23.477" r="23.477" transform="translate(250.732 21.724)" fill="url(#h)"/><circle cx="41.593" cy="41.593" r="41.593" transform="translate(-273.853 122.951)" fill="url(#i)"/><path d="M185.724,591.112a9.212,9.212,0,1,1-9.212-9.212A9.217,9.217,0,0,1,185.724,591.112Z" transform="translate(-268.055 -349.619)" fill="url(#j)"/><g transform="translate(-107 40.551)"><path d="M42.156,336.1a24.956,24.956,0,1,0,24.956,24.956A24.97,24.97,0,0,0,42.156,336.1Zm0,45.105a20.149,20.149,0,1,1,20.15-20.149A20.157,20.157,0,0,1,42.156,381.205Z" transform="translate(-17.2 -336.1)" fill="url(#k)"/></g><circle cx="6.224" cy="6.224" r="6.224" transform="translate(-47.224 299.919)" fill="url(#l)"/><path d="M228.147,463.923a6.224,6.224,0,1,1-6.224-6.224A6.226,6.226,0,0,1,228.147,463.923Z" transform="translate(-263.543 -379.684)" fill="url(#m)"/><circle cx="16.699" cy="16.699" r="16.699" transform="translate(-26.643 235.986)" fill="url(#n)"/></g></g></svg>