<svg xmlns="http://www.w3.org/2000/svg" xmlns:xlink="http://www.w3.org/1999/xlink" width="217.094" height="509.755" viewBox="0 0 217.094 509.755"><defs><radialGradient id="a" cx="319.684" cy="3.284" r="6.432" gradientUnits="userSpaceOnUse"><stop offset="0" stop-color="#fff34b"/><stop offset="0.381" stop-color="#fed40d"/><stop offset="0.739" stop-color="#f9b700"/><stop offset="0.85" stop-color="#fabc00"/><stop offset="1" stop-color="#fcc900"/></radialGradient><radialGradient id="b" cx="389.184" cy="197.783" r="6.432" xlink:href="#a"/><radialGradient id="c" cx="413.894" cy="89.237" r="9.246" gradientUnits="userSpaceOnUse"><stop offset="0" stop-color="#fff"/><stop offset="0.154" stop-color="#f6f4f3"/><stop offset="0.739" stop-color="#d3cbc5"/><stop offset="0.85" stop-color="#dad2ce"/><stop offset="1" stop-color="#eae5e3"/></radialGradient><radialGradient id="d" cx="353.894" cy="118.237" r="9.247" gradientUnits="userSpaceOnUse"><stop offset="0" stop-color="#b1bccf"/><stop offset="0.126" stop-color="#a9b5c9"/><stop offset="0.739" stop-color="#8395b1"/><stop offset="0.831" stop-color="#8a9bb5"/><stop offset="0.967" stop-color="#9dacc1"/><stop offset="1" stop-color="#a3b1c5"/></radialGradient><radialGradient id="e" cx="344.693" cy="33.351" r="19.126" gradientUnits="userSpaceOnUse"><stop offset="0" stop-color="#b5dfe2"/><stop offset="0.312" stop-color="#92d1d5"/><stop offset="0.739" stop-color="#5bc0c5"/><stop offset="0.85" stop-color="#67c3c7"/><stop offset="1" stop-color="#80cbce"/></radialGradient><radialGradient id="f" cx="390.235" cy="137.847" r="28.247" gradientUnits="userSpaceOnUse"><stop offset="0" stop-color="#f4b4c9"/><stop offset="0.351" stop-color="#ef91b2"/><stop offset="0.739" stop-color="#eb6b9a"/><stop offset="0.827" stop-color="#ec729e"/><stop offset="0.956" stop-color="#ee86aa"/><stop offset="1" stop-color="#ef8db0"/></radialGradient><radialGradient id="g" cx="43.324" cy="36.796" r="72.103" xlink:href="#a"/><radialGradient id="h" cx="76.828" cy="65.227" r="127.703" xlink:href="#e"/><radialGradient id="i" cx="294.675" cy="162.307" r="51.255" xlink:href="#c"/><radialGradient id="j" cx="5.594" cy="4.737" r="9.247" xlink:href="#c"/><radialGradient id="k" cx="30.847" cy="26.185" r="51.255" xlink:href="#f"/></defs><g transform="translate(0)"><path d="M325.4,4.8a4.8,4.8,0,0,1-9.6,0,4.8,4.8,0,0,1,9.6,0Z" transform="translate(-279.076)" fill="url(#a)"/><path d="M394.9,199.3a4.8,4.8,0,1,1-4.8-4.8A4.763,4.763,0,0,1,394.9,199.3Z" transform="translate(-299.493 -57.139)" fill="url(#b)"/><path d="M422.142,91.421a6.921,6.921,0,1,1-6.921-6.921A6.932,6.932,0,0,1,422.142,91.421Z" transform="translate(-306.25 -24.824)" fill="url(#c)"/><path d="M362.142,120.421a6.921,6.921,0,1,1-6.921-6.921A6.932,6.932,0,0,1,362.142,120.421Z" transform="translate(-288.624 -33.343)" fill="url(#d)"/><path d="M361.732,37.866A14.266,14.266,0,1,1,347.466,23.6,14.271,14.271,0,0,1,361.732,37.866Z" transform="translate(-284.188 -6.933)" fill="url(#e)"/><path d="M415.432,144.516A21.116,21.116,0,1,1,394.316,123.4,21.128,21.128,0,0,1,415.432,144.516Z" transform="translate(-295.939 -36.251)" fill="url(#f)"/><ellipse cx="53.815" cy="53.815" rx="53.815" ry="53.815" transform="translate(109.465 109.395)" fill="url(#g)"/><ellipse cx="95.341" cy="95.341" rx="95.341" ry="95.341" transform="translate(20.112 263.494)" fill="url(#h)"/><path d="M340.355,174.378A38.278,38.278,0,1,1,302.078,136.1,38.308,38.308,0,0,1,340.355,174.378Z" transform="translate(-263.8 -39.982)" fill="url(#i)"/><ellipse cx="6.921" cy="6.921" rx="6.921" ry="6.921" transform="translate(69.563 181.854)" fill="url(#j)"/><ellipse cx="38.278" cy="38.278" rx="38.278" ry="38.278" transform="translate(36.638 433.2)" fill="url(#k)"/></g></svg>