<svg xmlns="http://www.w3.org/2000/svg" xmlns:xlink="http://www.w3.org/1999/xlink" width="362.332" height="540.085" viewBox="0 0 362.332 540.085"><defs><linearGradient id="a" x1="0.97" y1="0.509" x2="0.187" y2="0.479" gradientUnits="objectBoundingBox"><stop offset="0" stop-color="#636cb2"/><stop offset="1" stop-color="#3f479b"/></linearGradient><linearGradient id="b" x1="0.19" y1="0.502" x2="0.896" y2="0.49" gradientUnits="objectBoundingBox"><stop offset="0" stop-color="#3860cc"/><stop offset="1" stop-color="#e2b6c4"/></linearGradient><linearGradient id="c" x1="0.814" y1="0.444" x2="0.104" y2="0.673" xlink:href="#a"/><linearGradient id="d" x1="0.639" y1="0.501" x2="0.023" y2="0.709" gradientUnits="objectBoundingBox"><stop offset="0" stop-color="#4474de"/><stop offset="1" stop-color="#dda7b8"/></linearGradient><clipPath id="e"><path d="M144.779,219.2,85.7,367.57,294.495,561.259,396.2,220.546Z" transform="translate(-85.7 -219.2)"/></clipPath><radialGradient id="f" cx="100.224" cy="309.516" r="9.791" gradientUnits="userSpaceOnUse"><stop offset="0" stop-color="#f4b4c9"/><stop offset="0.351" stop-color="#ef91b2"/><stop offset="0.739" stop-color="#eb6b9a"/><stop offset="0.827" stop-color="#ec729e"/><stop offset="0.956" stop-color="#ee86aa"/><stop offset="1" stop-color="#ef8db0"/></radialGradient><linearGradient id="g" x1="0.477" y1="0.189" x2="0.533" y2="0.943" gradientUnits="objectBoundingBox"><stop offset="0" stop-color="#fff"/><stop offset="1" stop-color="#eae5e3"/></linearGradient><linearGradient id="h" x1="0.021" y1="0.226" x2="0.701" y2="0.449" gradientUnits="objectBoundingBox"><stop offset="0" stop-color="#beb1aa"/><stop offset="1" stop-color="#d3cbc5"/></linearGradient><linearGradient id="i" x1="0.09" y1="0.553" x2="2.117" y2="0.422" xlink:href="#h"/><clipPath id="j"><path d="M238.853,554.5,102,674.9l144.033,63.491Z" transform="translate(-102 -554.5)"/></clipPath><radialGradient id="k" cx="185.362" cy="597.182" r="29.91" gradientUnits="userSpaceOnUse"><stop offset="0" stop-color="#b5dfe2"/><stop offset="0.312" stop-color="#92d1d5"/><stop offset="0.739" stop-color="#5bc0c5"/><stop offset="0.85" stop-color="#67c3c7"/><stop offset="1" stop-color="#80cbce"/></radialGradient><radialGradient id="l" cx="77.802" cy="396.702" r="60.575" gradientUnits="userSpaceOnUse"><stop offset="0.812" stop-color="#fcc900"/><stop offset="0.836" stop-color="#fed400"/><stop offset="0.915" stop-color="#fff34b"/><stop offset="0.943" stop-color="#ffe528"/><stop offset="1" stop-color="#fcc900"/></radialGradient><radialGradient id="m" cx="315.412" cy="678.976" r="6.81" xlink:href="#f"/><radialGradient id="n" cx="330.209" cy="931.25" r="6.812" xlink:href="#f"/><radialGradient id="o" cx="232.276" cy="909.457" r="6.812" gradientUnits="userSpaceOnUse"><stop offset="0" stop-color="#fff34b"/><stop offset="0.381" stop-color="#fed40d"/><stop offset="0.739" stop-color="#f9b700"/><stop offset="0.85" stop-color="#fabc00"/><stop offset="1" stop-color="#fcc900"/></radialGradient><radialGradient id="p" cx="175.716" cy="812.755" r="6.81" xlink:href="#f"/><radialGradient id="q" cx="250.224" cy="800.517" r="9.791" gradientUnits="userSpaceOnUse"><stop offset="0" stop-color="#81cbcc"/><stop offset="0.312" stop-color="#55b9b8"/><stop offset="0.739" stop-color="#00a4a0"/><stop offset="0.842" stop-color="#00aaa5"/><stop offset="0.995" stop-color="#38b8b3"/><stop offset="1" stop-color="#3ab9b3"/></radialGradient><radialGradient id="r" cx="279.523" cy="857.793" r="9.794" gradientUnits="userSpaceOnUse"><stop offset="0" stop-color="#fff"/><stop offset="0.154" stop-color="#f6f4f3"/><stop offset="0.739" stop-color="#d3cbc5"/><stop offset="0.85" stop-color="#dad2ce"/><stop offset="1" stop-color="#eae5e3"/></radialGradient><radialGradient id="s" cx="194.868" cy="752.575" r="29.911" gradientUnits="userSpaceOnUse"><stop offset="0" stop-color="#b1bccf"/><stop offset="0.126" stop-color="#a9b5c9"/><stop offset="0.739" stop-color="#8395b1"/><stop offset="0.831" stop-color="#8a9bb5"/><stop offset="0.967" stop-color="#9dacc1"/><stop offset="1" stop-color="#a3b1c5"/></radialGradient><radialGradient id="t" cx="12.185" cy="10.301" r="20.252" xlink:href="#o"/><radialGradient id="u" cx="227.848" cy="468.01" r="20.252" xlink:href="#o"/></defs><g transform="translate(0 0)"><g transform="translate(51.227 0)"><path d="M164.7,219.2l251.421,1.346L314.416,561.259Z" transform="translate(-105.621 -219.2)" fill="url(#a)"/><path d="M164.7,219.2l252.027.166L314.416,561.259Z" transform="translate(-105.621 -219.2)" fill="url(#b)"/><path d="M144.779,219.2,85.7,367.57,294.495,561.259Z" transform="translate(-85.7 -219.2)" fill="url(#c)"/><path d="M144.779,219.2,85.7,367.57,294.495,561.259Z" transform="translate(-85.7 -219.2)" fill="url(#d)"/></g><path d="M108.958,311.829a7.329,7.329,0,1,1-7.329-7.329A7.341,7.341,0,0,1,108.958,311.829Z" transform="translate(-36.642 -240.71)" fill="url(#f)"/><g transform="translate(63.416 250.748)"><path d="M238.853,554.5,102,674.9l102.154-21.687Z" transform="translate(-102 -554.5)" fill="url(#g)"/><path d="M246.033,771.678,102,708.187,204.154,686.5Z" transform="translate(-102 -587.786)" fill="url(#h)"/><path d="M273.3,554.5l7.179,183.892L238.6,653.214Z" transform="translate(-136.446 -554.5)" fill="url(#i)"/></g><path d="M212.02,604.26a22.36,22.36,0,1,1-22.36-22.36A22.373,22.373,0,0,1,212.02,604.26Z" transform="translate(-55.05 -310.661)" fill="url(#k)"/><g transform="translate(0 87.422)"><path d="M77.774,336.1a60.574,60.574,0,1,0,60.574,60.574A60.608,60.608,0,0,0,77.774,336.1Zm0,109.483a48.908,48.908,0,1,1,48.908-48.908A48.927,48.927,0,0,1,77.774,445.583Z" transform="translate(-17.2 -336.1)" fill="url(#l)"/></g><path d="M321.471,680.585a5.085,5.085,0,1,1-5.085-5.086A5.043,5.043,0,0,1,321.471,680.585Z" transform="translate(-91.362 -334.264)" fill="url(#m)"/><path d="M336.27,932.885a5.085,5.085,0,1,1-5.085-5.085A5.043,5.043,0,0,1,336.27,932.885Z" transform="translate(-95.094 -397.885)" fill="url(#n)"/><path d="M238.37,911.085A5.085,5.085,0,1,1,233.285,906,5.043,5.043,0,0,1,238.37,911.085Z" transform="translate(-70.407 -392.388)" fill="url(#o)"/><path d="M181.771,814.385a5.085,5.085,0,1,1-5.085-5.085A5.043,5.043,0,0,1,181.771,814.385Z" transform="translate(-56.135 -368.004)" fill="url(#p)"/><path d="M258.958,802.829a7.329,7.329,0,1,1-7.329-7.329A7.341,7.341,0,0,1,258.958,802.829Z" transform="translate(-74.467 -364.524)" fill="url(#q)"/><path d="M288.258,860.129a7.329,7.329,0,1,1-7.329-7.329A7.34,7.34,0,0,1,288.258,860.129Z" transform="translate(-81.856 -378.973)" fill="url(#r)"/><path d="M221.52,759.66a22.36,22.36,0,1,1-22.36-22.36A22.373,22.373,0,0,1,221.52,759.66Z" transform="translate(-57.446 -349.848)" fill="url(#s)"/><ellipse cx="15.106" cy="15.106" rx="15.106" ry="15.106" transform="translate(154.801 454.832)" fill="url(#t)"/><path d="M245.912,472.806A15.106,15.106,0,1,1,230.806,457.7,15.112,15.112,0,0,1,245.912,472.806Z" transform="translate(-67.255 -279.342)" fill="url(#u)"/></g></svg>