<!-- Generated by IcoMoon.io -->
<svg version="1.1" xmlns="http://www.w3.org/2000/svg" width="4150" height="1024" viewBox="0 0 4150 1024">
<title></title>
<g id="icomoon-ignore">
</g>
<path fill="#000" d="M151.19 163.262l150.322 86.781 132.491-76.481 283.426 163.724v349.379l-283.582 163.724-283.532-163.724v-175.534l283.609 163.724 133.36-77.021v-173.845l-133.36 77.021-433.904-250.505v522.967l433.904 250.528 433.904-250.528v-522.967l-433.904-250.505z"></path>
<path fill="#000" d="M1259.894 168.849h-82.169v485.123h284.195v-73.278h-202.027z"></path>
<path fill="#000" d="M1743.917 571.085l-11.095 4.383c-20.967 9.351-45.438 14.797-71.18 14.797-0.736 0-1.475-0.004-2.209-0.014l0.111 0.001q-40.737 0-51.833-23.061c-7.387-21.943-11.647-47.213-11.647-73.481 0-5.699 0.202-11.353 0.596-16.949l-0.042 0.752v-193.648h-80.682v193.241q0 102.873 25.903 143.943t102.127 40.993c37.246-1.572 71.538-12.951 100.743-31.591l-0.817 0.486v23.061h79.94v-370.080h-79.94z"></path>
<path fill="#000" d="M2103.619 275.794c-37.998 1.308-73.084 12.704-102.977 31.582l0.85-0.499v-23.061h-79.94v370.183h80.682v-287.197l11.095-4.383c21.294-9.362 46.117-14.812 72.218-14.812 0.111 0 0.224 0 0.338 0h-0.018c2.132-0.298 4.593-0.471 7.095-0.471 19.292 0 36.208 10.149 45.708 25.403l0.132 0.226c8.462 21.371 13.366 46.129 13.366 72.032 0 4.612-0.157 9.185-0.463 13.723l0.032-0.612v196.082h79.94v-198.366q0-96.211-27.005-138.023t-101.052-41.817z"></path>
<path fill="#000" d="M2325.632 283.916h80.682v370.055h-80.682v-370.055z"></path>
<path fill="#000" d="M2325.632 157.78h80.682v63.235h-80.682v-63.235z"></path>
<path fill="#000" d="M2648.313 585.15h-23.675l-71.073-301.234h-84.347l95.466 370.055h143.482l96.234-370.055h-82.169z"></path>
<path fill="#000" d="M3004.33 275.794q-160.622 0-160.598 196.801 0 99.209 35.872 144.327t118.092 45.298c53.408-0.831 104.905-6.996 154.591-17.983l-5.088 0.943-1.459-59.954-20.727 2.205q-55.52 4.383-108.048 4.383c-3.296 0.41-7.115 0.641-10.982 0.641-23.203 0-44.453-8.368-60.896-22.252l0.141 0.115c-12.613-16.693-20.202-37.795-20.202-60.672 0-2.336 0.080-4.65 0.234-6.945l-0.018 0.31h229.287l5.124-57.726q0-169.489-155.318-169.489zM2924.335 440.822c-0.196-2.592-0.307-5.618-0.307-8.671 0-24.86 7.43-47.979 20.192-67.267l-0.285 0.454c13.485-14.383 32.608-23.345 53.822-23.345 2.284 0 4.546 0.102 6.779 0.307l-0.288-0.022c2.203-0.241 4.754-0.38 7.335-0.38 20.31 0 38.624 8.531 51.561 22.203l0.032 0.032c11.268 18.533 17.938 40.943 17.938 64.912 0 4.111-0.196 8.173-0.58 12.185l0.037-0.511z"></path>
<path fill="#000" d="M3317.424 307.819v-23.904h-79.94v370.055h80.682v-275.51c26.636-10.379 57.468-16.393 89.705-16.393 12.48 0 24.749 0.901 36.748 2.643l-1.37-0.161v-80.631c-6.766-0.722-14.62-1.131-22.563-1.131-37.715 0-73.264 9.258-104.503 25.631l1.242-0.593z"></path>
<path fill="#000" d="M3660.425 433.675c-29.337-3.843-55.829-10.46-81.046-19.715l2.592 0.832c-9.954-4.661-16.731-14.597-16.731-26.115 0-0.73 0.029-1.449 0.081-2.164l-0.006 0.096c-0.045-0.641-0.074-1.389-0.074-2.144 0-11.426 6.051-21.442 15.131-27.011l0.139-0.080c13.397-6.064 29.045-9.599 45.523-9.599 3.122 0 6.217 0.127 9.275 0.375l-0.403-0.028c46.157 1.591 89.807 5.839 132.609 12.631l-6.062-0.795 1.459-67.36-23.061-4.383c-34.51-6.761-74.58-11.037-115.5-11.826l-0.693-0.012c-2.069-0.094-4.494-0.146-6.931-0.146-34.556 0-66.641 10.59-93.183 28.699l0.572-0.367c-23.852 18.097-39.099 46.463-39.099 78.389 0 2.367 0.085 4.713 0.249 7.038l-0.019-0.313c-0.416 3.303-0.653 7.132-0.653 11.010 0 26.506 11.052 50.428 28.802 67.412l0.032 0.032c25.134 16.531 55.168 27.757 87.502 31.381l0.922 0.085c28.294 3.292 54.079 9.799 78.404 19.232l-2.153-0.736c9.664 5.571 16.066 15.845 16.066 27.616 0 1.103-0.055 2.191-0.164 3.263l0.012-0.135c0.065 0.789 0.101 1.705 0.101 2.634 0 12.393-6.662 23.232-16.602 29.13l-0.158 0.087c-13.984 6.275-30.314 9.932-47.498 9.932-2.95 0-5.874-0.107-8.772-0.32l0.388 0.025c-46.748-1.605-90.943-5.854-134.302-12.637l6.19 0.8-2.919 67.36 23.061 3.715c33.808 7.098 73.056 11.632 113.196 12.567l0.768 0.015c3.635 0.257 7.881 0.405 12.158 0.405 35.946 0 69.475-10.351 97.769-28.239l-0.752 0.444c23.040-18.343 37.678-46.393 37.678-77.858 0-2.815-0.116-5.601-0.349-8.357l0.026 0.359c0.407-3.473 0.638-7.495 0.638-11.57 0-26.848-10.058-51.347-26.608-69.933l0.094 0.103c-24.497-18.076-54.407-30.218-86.899-33.751l-0.801-0.071z"></path>
<path fill="#000" d="M4149.981 445.28q0-169.513-155.424-169.489-160.572 0-160.572 196.828 0 99.209 35.872 144.327t118.092 45.276c53.408-0.831 104.905-6.996 154.591-17.983l-5.088 0.943-1.459-59.954-20.727 2.205q-55.498 4.383-108.048 4.383c-3.298 0.411-7.12 0.642-10.991 0.642-23.201 0-44.448-8.368-60.891-22.253l0.141 0.114c-12.613-16.693-20.202-37.795-20.202-60.672 0-2.336 0.080-4.65 0.234-6.945l-0.018 0.31h229.443zM3914.644 440.822c-0.196-2.592-0.307-5.618-0.307-8.671 0-24.86 7.43-47.979 20.192-67.267l-0.285 0.454c13.485-14.383 32.608-23.345 53.822-23.345 2.284 0 4.546 0.102 6.779 0.307l-0.288-0.022c2.203-0.241 4.754-0.38 7.335-0.38 20.31 0 38.624 8.531 51.561 22.203l0.032 0.032c11.271 18.519 17.945 40.912 17.945 64.864 0 4.128-0.198 8.208-0.586 12.234l0.038-0.512z"></path>
<path fill="#000" d="M1261.688 813.212c0.847 2.022 1.665 4.049 2.562 6.071 0.819-2.077 1.665-4.177 2.562-6.199s1.821-3.999 2.791-5.866l37.433-70.048c0.411-0.793 0.886-1.473 1.44-2.081l-0.007 0.009c0.45-0.49 1.006-0.875 1.634-1.119l0.031-0.011c0.604-0.244 1.301-0.411 2.027-0.461l0.022-0.001c0.769 0 1.665 0 2.718 0h17.758v126.469h-20.727v-81.785c0-1.537 0-3.203 0.128-5.124s0.229-3.637 0.384-5.509l-38.229 71.741c-0.816 1.564-1.97 2.848-3.371 3.796l-0.034 0.025c-1.345 0.854-2.981 1.36-4.739 1.36-0.053 0-0.107 0-0.16-0.001h-3.221c-0.045 0.001-0.098 0.001-0.156 0.001-1.758 0-3.394-0.506-4.774-1.379l0.035 0.023c-1.439-0.972-2.592-2.257-3.38-3.76l-0.029-0.055-38.741-71.97c0.229 1.922 0.384 3.793 0.485 5.637s0.128 3.537 0.128 5.124v81.683h-20.855v-126.368h17.758c1.052 0 1.949 0 2.718 0 0.749 0.051 1.446 0.218 2.095 0.48l-0.045-0.017c0.672 0.257 1.248 0.641 1.714 1.124l0.001 0.001c0.578 0.599 1.072 1.281 1.462 2.026l0.025 0.047 37.792 70.41c0.997 1.794 1.922 3.743 2.768 5.738z"></path>
<path fill="#000" d="M1502.176 859.869h-18.192c-0.123 0.007-0.269 0.012-0.415 0.012-1.772 0-3.412-0.581-4.732-1.565l0.022 0.016c-1.271-0.972-2.253-2.266-2.825-3.758l-0.021-0.059-9.453-25.775h-52.294l-9.453 25.775c-0.578 1.497-1.531 2.735-2.746 3.649l-0.022 0.016c-1.301 1.043-2.972 1.674-4.786 1.674-0.118 0-0.235-0.003-0.352-0.009l0.018 0.001h-18.27l49.682-126.469h24.059zM1420.186 812.109h40.33l-15.374-42.073q-1.052-2.791-2.306-6.611c-0.847-2.562-1.665-5.28-2.562-8.25-0.819 2.974-1.615 5.738-2.406 8.3s-1.565 4.818-2.306 6.74z"></path>
<path fill="#000" d="M1574.607 859.869h-23.623v-126.469h23.623z"></path>
<path fill="#000" d="M1650.86 733.527c0.693 0.080 1.325 0.27 1.903 0.551l-0.032-0.016c0.623 0.292 1.158 0.672 1.615 1.125v0c0.611 0.601 1.184 1.235 1.71 1.904l0.032 0.041 66.387 84.553q-0.357-3.047-0.485-5.994t-0.128-5.458v-76.865h20.727v126.469h-12.171c-0.111 0.004-0.243 0.007-0.375 0.007-1.541 0-3.006-0.323-4.33-0.906l0.069 0.029c-1.449-0.777-2.654-1.837-3.565-3.119l-0.022-0.032-66.053-84.219q0.256 2.791 0.384 5.559c0 1.844 0.128 3.509 0.128 5.124v77.662h-20.727v-126.547h12.322c0.017 0 0.033 0 0.053 0 0.901 0 1.792 0.046 2.668 0.138l-0.109-0.010z"></path>
<path fill="#000" d="M1954.656 830.045c1.319 0.001 2.508 0.573 3.327 1.483l0.004 0.004 9.275 10.070c-5.024 6.221-11.363 11.171-18.615 14.475l-0.319 0.13c-7.481 3.252-16.195 5.147-25.35 5.147-0.573 0-1.143-0.007-1.712-0.023l0.085 0.002c-0.307 0.005-0.672 0.009-1.036 0.009-8.806 0-17.196-1.793-24.822-5.033l0.416 0.159c-7.53-3.195-13.921-7.722-19.162-13.343l-0.032-0.032c-5.265-5.721-9.421-12.549-12.069-20.089l-0.125-0.411c-2.699-7.502-4.256-16.157-4.256-25.177 0-0.285 0.002-0.565 0.005-0.85v0.042c-0.003-0.254-0.005-0.553-0.005-0.857 0-9.084 1.732-17.762 4.886-25.727l-0.163 0.475c3.151-7.984 7.658-14.807 13.301-20.503l-0.005 0.005c5.697-5.644 12.513-10.165 20.089-13.205l0.41-0.146c7.562-3.021 16.324-4.769 25.498-4.769 0.304 0 0.608 0.002 0.916 0.006h-0.045c0.389-0.010 0.847-0.015 1.307-0.015 8.403 0 16.416 1.662 23.731 4.674l-0.416-0.153c6.954 2.988 12.9 7.021 17.946 11.974l-0.010-0.009-7.866 10.94c-0.489 0.726-1.086 1.337-1.771 1.828l-0.022 0.016c-0.78 0.502-1.73 0.8-2.752 0.8-0.096 0-0.191-0.003-0.287-0.009l0.014 0.001c-1.569-0.074-2.99-0.662-4.111-1.597l0.012 0.010c-1.516-1.118-3.258-2.243-5.065-3.269l-0.267-0.14c-2.325-1.294-5.028-2.46-7.858-3.349l-0.315-0.086c-3.628-1.002-7.796-1.579-12.099-1.579-6.059 0-11.853 1.143-17.175 3.23l0.32-0.109c-5.028 2.098-9.301 5.103-12.79 8.845l-0.021 0.022c-3.6 3.931-6.458 8.604-8.314 13.755l-0.092 0.288c-1.919 5.311-3.030 11.439-3.030 17.826 0 0.263 0.002 0.527 0.006 0.789v-0.038c-0.005 0.274-0.009 0.596-0.009 0.919 0 6.471 1.111 12.684 3.151 18.458l-0.118-0.388c1.895 5.407 4.678 10.061 8.211 14.033l-0.035-0.041c3.325 3.677 7.382 6.624 11.943 8.623l0.224 0.090c4.338 1.894 9.393 2.998 14.707 2.998 0.116 0 0.233-0.001 0.352-0.002h-0.019c0.103 0.001 0.227 0.001 0.352 0.001 2.946 0 5.851-0.187 8.697-0.546l-0.339 0.033c2.704-0.369 5.126-0.953 7.452-1.748l-0.277 0.083c2.378-0.839 4.425-1.831 6.335-3.026l-0.135 0.079c2.191-1.366 4.091-2.818 5.844-4.433l-0.029 0.027c0.531-0.492 1.137-0.913 1.802-1.237l0.043-0.020c0.544-0.256 1.179-0.407 1.846-0.407 0.155 0 0.302 0.009 0.452 0.025l-0.020-0.002z"></path>
<path fill="#000" d="M2124.58 859.869h-23.701v-55.292h-59.313v55.292h-23.701v-126.469h23.701v54.395h59.313v-54.395h23.701z"></path>
<path fill="#000" d="M2294.17 859.869h-18.192c-0.123 0.007-0.269 0.012-0.415 0.012-1.772 0-3.412-0.581-4.732-1.565l0.022 0.016c-1.273-0.971-2.254-2.266-2.825-3.758l-0.021-0.059-9.43-25.775h-52.396l-9.453 25.775c-0.578 1.497-1.531 2.735-2.746 3.649l-0.022 0.016c-1.301 1.043-2.972 1.674-4.786 1.674-0.118 0-0.235-0.003-0.352-0.009l0.018 0.001h-18.27l49.682-126.469h24.059zM2212.18 812.109h40.407l-15.374-42.073q-1.052-2.791-2.306-6.611c-0.847-2.562-1.665-5.28-2.562-8.25-0.819 2.974-1.615 5.738-2.406 8.3s-1.565 4.818-2.306 6.74z"></path>
<path fill="#000" d="M2366.63 859.869h-23.623v-126.469h23.623z"></path>
<path fill="#000" d="M2442.877 733.527c0.693 0.080 1.325 0.27 1.903 0.551l-0.032-0.016c0.623 0.292 1.158 0.672 1.615 1.125v0c0.611 0.601 1.184 1.235 1.71 1.904l66.418 84.593q-0.357-3.047-0.485-5.994t-0.128-5.458v-76.865h20.727v126.469h-12.171c-0.111 0.004-0.243 0.007-0.375 0.007-1.541 0-3.006-0.323-4.33-0.906l0.069 0.029c-1.449-0.777-2.654-1.837-3.565-3.119l-0.022-0.032-66.080-84.219q0.256 2.791 0.384 5.559c0 1.844 0.128 3.509 0.128 5.124v77.662h-20.727v-126.547h12.322c0.019 0 0.038 0 0.061 0 0.909 0 1.806 0.046 2.688 0.138l-0.11-0.010z"></path>
<path fill="#000" d="M2717.902 842.546c0.377 0.010 0.82 0.016 1.265 0.016 8.661 0 16.855-2.001 24.144-5.564l-0.325 0.145v-23.061h-15.836c-0.066 0.003-0.145 0.005-0.223 0.005-1.292 0-2.469-0.479-3.371-1.264l0.006 0.005c-0.804-0.771-1.309-1.855-1.309-3.056 0-0.026 0-0.047 0.001-0.074v0.004-13.274h42.073v51.243c-2.883 2.118-6.156 4.134-9.586 5.885l-0.407 0.188c-3.131 1.58-6.819 3.030-10.656 4.137l-0.465 0.114c-3.547 1.056-7.824 1.952-12.204 2.518l-0.426 0.044c-4.144 0.524-8.94 0.821-13.806 0.821-0.253 0-0.506-0.001-0.758-0.002h0.037c-0.224 0.003-0.492 0.004-0.759 0.004-8.897 0-17.379-1.771-25.119-4.98l0.434 0.16c-15.332-6.323-27.221-18.386-33.168-33.44l-0.142-0.406c-3.036-7.489-4.795-16.174-4.795-25.273 0-0.249 0.001-0.497 0.004-0.745v0.036c-0.003-0.262-0.005-0.571-0.005-0.88 0-9.077 1.702-17.76 4.81-25.738l-0.164 0.482c5.977-15.677 18.15-27.828 33.45-33.636l0.396-0.132c7.777-2.989 16.78-4.722 26.183-4.722 0.388 0 0.777 0.003 1.164 0.010l-0.058-0.001c0.48-0.013 1.052-0.019 1.621-0.019 9.051 0 17.702 1.691 25.666 4.768l-0.484-0.163c7.412 2.947 13.778 6.992 19.233 12.004l-0.044-0.038-6.816 10.657c-1.034 1.943-3.040 3.244-5.353 3.253h-0.001c-1.607-0.045-3.084-0.566-4.305-1.427l0.027 0.018c-1.871-1.103-3.765-2.205-5.738-3.303-1.831-1.062-3.965-2.042-6.193-2.816l-0.263-0.081c-2.204-0.764-4.883-1.457-7.633-1.951l-0.338-0.049c-2.867-0.508-6.173-0.8-9.541-0.8-0.249 0-0.496 0.002-0.743 0.005h0.036c-0.195-0.003-0.425-0.005-0.658-0.005-5.865 0-11.461 1.161-16.569 3.262l0.288-0.105c-5.043 2.119-9.316 5.167-12.785 8.965l-0.027 0.030c-3.546 3.945-6.348 8.64-8.139 13.805l-0.087 0.288c-1.824 5.245-2.875 11.292-2.875 17.579 0 0.27 0.002 0.539 0.006 0.803v-0.039c-0.005 0.29-0.009 0.637-0.009 0.985 0 6.623 1.127 12.977 3.205 18.89l-0.122-0.4c1.952 5.587 4.876 10.386 8.608 14.429l-0.027-0.030c3.599 3.808 7.969 6.839 12.873 8.853l0.246 0.092c4.694 1.887 10.134 2.976 15.83 2.976 0.254 0 0.507-0.002 0.759-0.007l-0.036 0.001z"></path>
<path fill="#000" d="M2940.4 796.634c0.002 0.199 0.003 0.432 0.003 0.67 0 9.019-1.701 17.637-4.805 25.561l0.162-0.479c-3.102 7.967-7.52 14.782-13.058 20.513l0.018-0.019c-5.591 5.715-12.32 10.287-19.821 13.359l-0.394 0.143c-7.766 3.072-16.761 4.852-26.173 4.852s-18.405-1.78-26.667-5.024l0.495 0.17c-7.923-3.213-14.679-7.786-20.284-13.493l-0.009-0.010c-5.541-5.707-9.974-12.525-12.926-20.086l-0.142-0.413c-2.935-7.653-4.639-16.51-4.639-25.761s1.699-18.108 4.806-26.272l-0.169 0.508c3.095-7.969 7.524-14.79 13.083-20.512l-0.015 0.016c5.616-5.721 12.371-10.302 19.895-13.386l0.397-0.145c7.497-3.068 16.195-4.847 25.311-4.847 0.307 0 0.614 0.002 0.925 0.006h-0.046c0.261-0.004 0.567-0.006 0.875-0.006 9.115 0 17.804 1.811 25.73 5.088l-0.447-0.162c7.892 3.231 14.619 7.801 20.206 13.493l0.010 0.010c5.531 5.711 9.952 12.528 12.898 20.085l0.142 0.414c2.937 7.452 4.64 16.079 4.64 25.105 0 0.22-0.001 0.435-0.003 0.654v-0.032zM2916.268 796.634c0.004-0.241 0.006-0.529 0.006-0.814 0-6.38-1.013-12.524-2.891-18.278l0.117 0.416c-1.743-5.426-4.443-10.112-7.93-14.085l0.036 0.043c-3.408-3.778-7.599-6.779-12.325-8.754l-0.225-0.085c-4.945-1.932-10.668-3.049-16.655-3.049s-11.71 1.12-16.976 3.162l0.321-0.108c-4.979 2.062-9.197 5.062-12.606 8.81l-0.027 0.030c-3.479 3.932-6.209 8.609-7.913 13.761l-0.081 0.282c-1.774 5.588-2.797 12.012-2.797 18.677s1.023 13.089 2.918 19.13l-0.122-0.452c1.78 5.41 4.512 10.080 8.031 14.030l-0.033-0.038c3.434 3.76 7.65 6.748 12.4 8.704l0.228 0.085c4.945 1.932 10.668 3.049 16.655 3.049s11.71-1.12 16.976-3.162l-0.321 0.108c4.956-2.041 9.147-5.024 12.528-8.758l0.028-0.031c3.453-3.913 6.153-8.579 7.814-13.715l0.078-0.277c1.744-5.316 2.748-11.433 2.748-17.786 0-0.314-0.002-0.626-0.007-0.938l0.001 0.046z"></path>
<path fill="#000" d="M2974.506 733.399h18.985c0.107-0.005 0.234-0.009 0.361-0.009 1.737 0 3.345 0.548 4.658 1.486l-0.027-0.018c1.271 1.002 2.265 2.307 2.873 3.808l0.023 0.062 29.746 77.149c0.975 2.562 1.949 5.124 2.818 8.25s1.766 6.176 2.562 9.504c1.318-6.823 3.046-12.775 5.246-18.496l-0.25 0.738 29.645-77.149c0.622-1.478 1.575-2.713 2.774-3.649l0.021-0.016c1.301-1.043 2.972-1.674 4.786-1.674 0.118 0 0.235 0.003 0.352 0.009l-0.018-0.001h18.985l-51.091 126.469h-21.267z"></path>
<path fill="#000" d="M3223.78 733.399v18.729h-56.060v35.050h44.173v18.115h-44.173v35.872h56.060v18.805h-79.762v-126.571z"></path>
<path fill="#000" d="M3301.359 810.466v49.398h-23.52v-126.469h38.56c0.57-0.015 1.243-0.025 1.914-0.025 7.199 0 14.175 0.942 20.813 2.715l-0.562-0.128c5.802 1.559 10.863 4.132 15.236 7.552l-0.095-0.070c3.748 3.017 6.694 6.881 8.563 11.314l0.071 0.189c1.758 4.351 2.775 9.396 2.775 14.682 0 4.337-0.686 8.516-1.955 12.432l0.081-0.287c-1.325 3.921-3.168 7.321-5.492 10.333l0.061-0.083c-2.464 3.168-5.346 5.857-8.607 8.037l-0.132 0.084c-3.412 2.298-7.345 4.197-11.547 5.501l-0.318 0.086c3.116 1.837 5.691 4.272 7.635 7.167l0.052 0.085 31.668 46.708h-21.163c-0.143 0.007-0.308 0.013-0.479 0.013-3.532 0-6.624-1.876-8.339-4.684l-0.026-0.042-26.593-40.48c-0.814-1.351-1.921-2.45-3.235-3.232l-0.042-0.026c-1.361-0.61-2.948-0.969-4.621-0.969-0.24 0-0.48 0.007-0.717 0.023l0.032-0.002zM3301.359 793.582h14.706c0.199 0.004 0.432 0.006 0.67 0.006 3.897 0 7.649-0.609 11.169-1.744l-0.258 0.073c3.143-1.004 5.856-2.575 8.146-4.607l-0.025 0.021c2.061-1.888 3.681-4.219 4.721-6.844l0.043-0.125c0.992-2.527 1.567-5.45 1.567-8.507 0-0.107-0.001-0.218-0.002-0.323v0.017c0.022-0.324 0.032-0.702 0.032-1.083 0-5.481-2.462-10.391-6.335-13.679l-0.028-0.022c-4.773-3.265-10.673-5.216-17.029-5.216-0.823 0-1.638 0.032-2.448 0.096l0.105-0.007h-15.040z"></path>
<path fill="#000" d="M3439.487 733.527c0.693 0.080 1.325 0.27 1.903 0.551l-0.032-0.016c0.626 0.288 1.163 0.667 1.614 1.124l0.001 0.001c0.611 0.601 1.184 1.235 1.71 1.904l66.446 84.593c-0.256-2.022-0.412-4.022-0.485-5.994s0-3.765 0-5.458v-76.865h20.704v126.469h-12.272c-0.108 0.004-0.236 0.006-0.365 0.006-1.545 0-3.012-0.323-4.34-0.906l0.070 0.029c-1.449-0.777-2.654-1.837-3.565-3.119l-0.022-0.032-66.080-84.219c0.178 1.871 0.306 3.715 0.384 5.559s0.128 3.509 0.128 5.124v77.662h-20.727v-126.547h12.322c0.006 0 0.015 0 0.022 0 0.914 0 1.817 0.046 2.705 0.138l-0.111-0.010z"></path>
<path fill="#000" d="M3700.832 859.869h-18.192c-0.121 0.007-0.263 0.011-0.406 0.011-1.775 0-3.418-0.581-4.741-1.565l0.023 0.016c-1.267-0.976-2.247-2.269-2.825-3.758l-0.021-0.059-9.43-25.775h-52.396l-9.43 25.775c-0.587 1.492-1.537 2.73-2.746 3.649l-0.022 0.016c-1.301 1.043-2.972 1.674-4.786 1.674-0.118 0-0.235-0.003-0.352-0.009l0.018 0.001h-18.064l49.705-126.469h24.032zM3618.842 812.109h40.33l-15.374-42.073q-1.052-2.791-2.306-6.611c-0.847-2.562-1.665-5.28-2.562-8.25-0.819 2.974-1.615 5.738-2.406 8.3s-1.565 4.818-2.306 6.74z"></path>
<path fill="#000" d="M3761.76 733.527c0.693 0.080 1.325 0.27 1.903 0.551l-0.032-0.016c0.625 0.288 1.162 0.669 1.615 1.125l0.001 0.001c0.611 0.601 1.184 1.235 1.71 1.904l66.446 84.593c-0.256-2.022-0.384-4.022-0.485-5.994s-0.128-3.765-0.128-5.458v-76.865h20.727v126.469h-12.322c-0.111 0.004-0.243 0.007-0.375 0.007-1.541 0-3.006-0.323-4.33-0.906l0.069 0.029c-1.449-0.777-2.654-1.837-3.565-3.119l-0.022-0.032-66.080-84.219c0.178 1.871 0.334 3.715 0.412 5.559s0.128 3.509 0.128 5.124v77.662h-20.727v-126.547h12.322c0.045 0 0.099 0 0.158 0 0.912 0 1.811 0.046 2.698 0.139l-0.11-0.010z"></path>
<path fill="#000" d="M3998.813 830.045c0.002 0 0.005 0 0.009 0 1.316 0 2.503 0.572 3.318 1.483l0.004 0.004 9.275 10.070c-5.027 6.217-11.366 11.168-18.614 14.475l-0.319 0.13c-7.484 3.251-16.202 5.147-25.361 5.147-0.57 0-1.136-0.007-1.701-0.023l0.085 0.002c-0.306 0.005-0.67 0.009-1.031 0.009-8.761 0-17.109-1.773-24.7-4.981l0.416 0.158c-7.526-3.203-13.92-7.729-19.163-13.344l-0.032-0.032c-5.26-5.724-9.414-12.551-12.068-20.087l-0.126-0.412c-2.699-7.518-4.256-16.189-4.256-25.226 0-0.267 0.001-0.532 0.004-0.798v0.038c-0.003-0.254-0.005-0.553-0.005-0.857 0-9.084 1.732-17.762 4.886-25.727l-0.163 0.475c3.151-7.984 7.658-14.807 13.301-20.503l-0.005 0.005c5.699-5.642 12.514-10.163 20.089-13.205l0.41-0.146c7.567-3.021 16.335-4.769 25.509-4.769 0.308 0 0.617 0.002 0.928 0.006h-0.046c0.395-0.010 0.861-0.015 1.323-0.015 8.397 0 16.405 1.662 23.712 4.675l-0.416-0.153c6.956 2.982 12.902 7.017 17.945 11.973l-0.009-0.009-7.866 10.94c-0.493 0.723-1.089 1.332-1.771 1.828l-0.022 0.016c-0.78 0.502-1.73 0.8-2.752 0.8-0.096 0-0.191-0.003-0.287-0.009l0.014 0.001c-1.578-0.074-3.008-0.662-4.135-1.598l0.012 0.010c-1.521-1.123-3.263-2.253-5.073-3.275l-0.258-0.134c-2.325-1.294-5.028-2.46-7.857-3.349l-0.315-0.087c-3.632-1.003-7.805-1.58-12.112-1.58-6.064 0-11.863 1.143-17.185 3.231l0.321-0.11c-5.027 2.101-9.3 5.105-12.79 8.845l-0.020 0.022c-3.6 3.931-6.458 8.604-8.314 13.755l-0.092 0.288c-1.902 5.307-3.003 11.429-3.003 17.812 0 0.27 0.002 0.539 0.006 0.803v-0.039c-0.005 0.279-0.009 0.608-0.009 0.934 0 6.463 1.102 12.669 3.124 18.441l-0.118-0.39c1.917 5.405 4.704 10.057 8.236 14.034l-0.036-0.042c3.328 3.673 7.385 6.62 11.943 8.622l0.224 0.090c4.338 1.894 9.393 2.998 14.707 2.998 0.116 0 0.233-0.001 0.352-0.002h-0.019c0.105 0.001 0.23 0.001 0.355 0.001 2.945 0 5.847-0.187 8.691-0.546l-0.339 0.033c2.706-0.371 5.127-0.955 7.454-1.749l-0.279 0.083c2.379-0.844 4.426-1.836 6.338-3.027l-0.138 0.081c2.191-1.366 4.091-2.819 5.844-4.433l-0.029 0.027c0.531-0.493 1.136-0.914 1.802-1.237l0.043-0.020c0.564-0.279 1.231-0.441 1.934-0.441 0.078 0 0.156 0.002 0.228 0.006h-0.012z"></path>
<path fill="#000" d="M4141.833 733.399v18.729h-56.060v35.050h44.173v18.115h-44.173v35.872h56.060v18.805h-79.762v-126.571z"></path>
</svg>
