<svg xmlns="http://www.w3.org/2000/svg" width="1589.927" height="186.454" viewBox="0 0 1589.927 186.454"><g transform="translate(-1764.839 -866.745)" opacity="0.5"><path d="M5547.455-2670.02a.992.992,0,0,1-.806-1.005v-128.606h-20.772l-10.607,14.208a.948.948,0,0,1-.758.379H5487.1v108.18a.945.945,0,0,1-1.1.932.978.978,0,0,1-.785-.982v-7.8a10.484,10.484,0,0,1-3.919.735,8.883,8.883,0,0,1-7.268-3.279,8.886,8.886,0,0,1-7.268,3.279,8.883,8.883,0,0,1-7.27-3.279,8.884,8.884,0,0,1-7.268,3.279,8.886,8.886,0,0,1-7.271-3.279,6.616,6.616,0,0,1-1.442,1.453.952.952,0,0,1-.363.252,9.856,9.856,0,0,1-5.463,1.573,8.88,8.88,0,0,1-7.268-3.279,8.887,8.887,0,0,1-7.27,3.279,8.882,8.882,0,0,1-7.268-3.279,8.888,8.888,0,0,1-7.27,3.279,8.887,8.887,0,0,1-7.27-3.279,8.883,8.883,0,0,1-7.269,3.279,8.884,8.884,0,0,1-7.27-3.279,8.882,8.882,0,0,1-7.268,3.279,8.883,8.883,0,0,1-7.27-3.279,8.883,8.883,0,0,1-7.27,3.279,8.884,8.884,0,0,1-7.268-3.279,8.885,8.885,0,0,1-7.27,3.279,8.885,8.885,0,0,1-7.27-3.279,8.88,8.88,0,0,1-7.268,3.279,8.885,8.885,0,0,1-7.27-3.279,8.881,8.881,0,0,1-7.268,3.279,9.779,9.779,0,0,1-5.775-1.758.943.943,0,0,1-.087-1.449.967.967,0,0,1,1.222-.059,8,8,0,0,0,4.641,1.379c3.428,0,6.324-1.942,6.324-4.243a.944.944,0,0,1,1.128-.925.976.976,0,0,1,.76.963c.031,2.283,2.915,4.205,6.325,4.205,3.428,0,6.326-1.942,6.326-4.243a.943.943,0,0,1,1.127-.925.97.97,0,0,1,.76.955c.017,1.556,1.358,2.942,3.287,3.673v-16.714h-29.312a.944.944,0,0,1-.945-.944v-5.085a.944.944,0,0,1,.945-.944h12.577v-5.682a.945.945,0,0,1,1.1-.931.979.979,0,0,1,.786.982v5.632h6.435V-2722.4a.945.945,0,0,1,1.1-.931.98.98,0,0,1,.785.982v12.258h6.526v-26.5a32.119,32.119,0,0,1-15.373,16.416.943.943,0,0,1-1.265-.429.943.943,0,0,1,.43-1.263c13.631-6.713,16.2-20.83,16.221-20.972a.936.936,0,0,1,1.042-.777.994.994,0,0,1,.833,1v7.457h11.4v-7.524a.943.943,0,0,1,.766-.927.94.94,0,0,1,1.053.58c.116.283,11.638,28.521,39.606,28.521,28,0,39.491-28.236,39.6-28.521a.939.939,0,0,1,1.055-.58.942.942,0,0,1,.766.927v7.524h11.4v-7.524a.943.943,0,0,1,.83-.937.95.95,0,0,1,1.029.71c.043.168,4.508,16.766,28.4,21.812v-45.15h-22.683a.939.939,0,0,1-.942-.924c-.013-3.9,2.833-7.024,6.334-7.024h.14c1.9-3.436,6.08-5.7,10.645-5.7a13.357,13.357,0,0,1,6.506,1.656v-6.806h-18.164a.945.945,0,0,1-.932-1.1.981.981,0,0,1,.983-.786h46.937l10.606-14.21a.944.944,0,0,1,.756-.379h25.888a.944.944,0,0,1,.931,1.1.977.977,0,0,1-.981.786h-2.7v62.218a1.02,1.02,0,0,1,.2-.007,13.625,13.625,0,0,1,12.6,13.756,13.813,13.813,0,0,1-12.045,13.287l-.75.1v39.319a.944.944,0,0,1-.944.944A.915.915,0,0,1,5547.455-2670.02Zm-72.481-20.086c0,2.3,2.9,4.243,6.324,4.243a8.414,8.414,0,0,0,3.919-.93v-16.325H5457.1v15.673a3.5,3.5,0,0,0,1.444-2.662.943.943,0,0,1,.943-.944.943.943,0,0,1,.942.944c0,2.3,2.9,4.243,6.327,4.243s6.323-1.942,6.323-4.243a.945.945,0,0,1,.945-.944A.944.944,0,0,1,5474.974-2690.106Zm-29.076,0c0,2.3,2.9,4.243,6.326,4.243a8.642,8.642,0,0,0,2.994-.524v-16.73h-11.406l-.052,14.153a2.845,2.845,0,0,0,.25-1.142.943.943,0,0,1,.943-.944A.945.945,0,0,1,5445.9-2690.106Zm-14.538,0c0,2.3,2.9,4.243,6.325,4.243a8.192,8.192,0,0,0,4.181-1.1l.059-16.159H5362.6v16.925a8.82,8.82,0,0,0,2.4.33c3.429,0,6.326-1.942,6.326-4.243a.943.943,0,0,1,.943-.944.944.944,0,0,1,.944.944c0,2.3,2.9,4.243,6.326,4.243s6.325-1.942,6.325-4.243a.943.943,0,0,1,.943-.944.944.944,0,0,1,.944.944c0,2.3,2.9,4.243,6.326,4.243s6.325-1.942,6.325-4.243a.944.944,0,0,1,.944-.944.943.943,0,0,1,.943.944c0,2.3,2.9,4.243,6.326,4.243s6.324-1.942,6.324-4.243a.944.944,0,0,1,.945-.944.944.944,0,0,1,.943.944c0,2.3,2.9,4.243,6.325,4.243s6.326-1.942,6.326-4.243a.943.943,0,0,1,.944-.944A.943.943,0,0,1,5431.36-2690.106Zm-82.053,4.167a9.074,9.074,0,0,0,1.15.076c3.428,0,6.326-1.942,6.326-4.243a.943.943,0,0,1,.943-.944.943.943,0,0,1,.943.944,3.809,3.809,0,0,0,2.038,3.083v-16.094h-11.4ZM5319.051-2705h166.166v-3.2H5319.051Zm137.8-5.085h28.37v-9.072a52.1,52.1,0,0,1-12.365-4.074v7.541a.944.944,0,0,1-.945.944.944.944,0,0,1-.944-.944v-8.516a38.89,38.89,0,0,1-5.629-3.729v12.245a.945.945,0,0,1-.945.944.943.943,0,0,1-.943-.944v-13.859a32.079,32.079,0,0,1-6.6-8.406Zm-13.289,0h11.4v-5.3h-11.4Zm-8.894-18.329v18.329h7.006V-2738.6A59.5,59.5,0,0,1,5434.666-2728.419Zm-8.35,7.809v10.52h6.464v-16.239A48.976,48.976,0,0,1,5426.316-2720.61Zm-7.107,4.238c0,.013,0,.022,0,.034v6.249h5.216v-9.209A41.512,41.512,0,0,1,5419.208-2716.372Zm-8.166,2.79v3.492h6.283v-5.461A39.233,39.233,0,0,1,5411.043-2713.583Zm-7.966.952v2.541h6.08v-3.121A41.2,41.2,0,0,1,5403.077-2712.631Zm-7.965,2.541h6.078v-2.541a41.191,41.191,0,0,1-6.078-.58Zm-8.168,0h6.279v-3.492a39.254,39.254,0,0,1-6.279-1.969Zm-7.1,0h5.218v-6.249c0-.011,0-.021,0-.034a41.484,41.484,0,0,1-5.221-2.927Zm-8.35,0h6.462v-10.521a48.835,48.835,0,0,1-6.462-5.716Zm-8.893,0h7.006v-18.329a59.517,59.517,0,0,1-7.006-10.179Zm-13.289,0h11.4v-5.3h-11.4Zm199.229-2.088.813-.113a11.7,11.7,0,0,0,9.986-13.18,11.738,11.738,0,0,0-10.736-10.066c-.021,0-.041-.009-.062-.011Zm-104.978-5.1h11.4v-7.051h-11.4Zm-94.252,0h11.4v-7.051h-11.4Zm94.252-8.938h11.4v-7.05h-11.4Zm-94.252,0h11.4v-7.05h-11.4Zm114.238-41.913h21.672v-7.885a11.235,11.235,0,0,0-6.506-1.99c-4.1,0-7.813,2.091-9.232,5.2a.947.947,0,0,1-.993.544,3.866,3.866,0,0,0-.559-.045A4.662,4.662,0,0,0,5463.545-2768.132Zm-799.036,97.263v-44.306a.783.783,0,0,1,.783-.783.783.783,0,0,1,.783.783v44.306a.783.783,0,0,1-.783.783A.783.783,0,0,1,4664.509-2670.869Zm-620.927.776v-12.46a1.124,1.124,0,0,1,1.122-1.122h7.216v-12.61a1.124,1.124,0,0,1,1.122-1.122h9.736l-18.388-22.5-18.389,22.5h9.736a1.123,1.123,0,0,1,1.122,1.122v26.193h-2.245v-25.069h-10.979a1.124,1.124,0,0,1-1.015-.644,1.124,1.124,0,0,1,.146-1.19l20.755-25.4a1.165,1.165,0,0,1,1.739,0l20.754,25.4a1.123,1.123,0,0,1,.146,1.19,1.125,1.125,0,0,1-1.015.644h-10.979v11.486h159.895v2.245H4045.828v11.338Zm903.37-.135v-4.029H4869.2a.941.941,0,0,1-.942-.943.942.942,0,0,1,.942-.944h77.749v-5.2h-81.939v11.117h-1.889v-12.06a.944.944,0,0,1,.944-.944h18.326v-3.757a.944.944,0,0,1,.942-.944h2.822a37.458,37.458,0,0,1,3.062-9.9l-2.5-1.707a.951.951,0,0,1-.394-.605.948.948,0,0,1,.149-.707l4-5.851a.946.946,0,0,1,1.313-.247l2.183,1.494a37.972,37.972,0,0,1,6.982-6.718l-1.32-3.338a.952.952,0,0,1,.013-.722.949.949,0,0,1,.52-.5l6.592-2.6a.947.947,0,0,1,1.225.532l.845,2.14a37.482,37.482,0,0,1,10.794-2.742v-2.745a.944.944,0,0,1,.943-.944h7.089a.944.944,0,0,1,.943.944v3.729a.943.943,0,0,1-.943.943.944.944,0,0,1-.945-.943v-2.786h-5.2v2.663a.945.945,0,0,1-.871.942,35.642,35.642,0,0,0-11.942,3.053.93.93,0,0,1-.742.014.938.938,0,0,1-.524-.527l-.858-2.172-4.837,1.91,1.239,3.139a.945.945,0,0,1-.328,1.115,36,36,0,0,0-7.73,7.467.946.946,0,0,1-1.282.206l-2.135-1.459-2.935,4.292,2.386,1.632a.944.944,0,0,1,.313,1.2,35.674,35.674,0,0,0-3.363,10.872.945.945,0,0,1-.935.813h-2.688v2.814h9.182a29.983,29.983,0,0,1,30-28.6.944.944,0,0,1,.944.944.945.945,0,0,1-.944.945,28.094,28.094,0,0,0-28.109,26.714H4947.9a.943.943,0,0,1,.942.944v6.144h4.6a.944.944,0,0,1,.945.944.943.943,0,0,1-.945.943h-4.6v4.029Zm-535.758,0c-3.186-5.152-14.514-20.041-42.861-28.277-31.356-9.107-64.995,1.965-71.436,4.282v-2.134c8.051-2.812,41.089-13.06,72-4.081a98.741,98.741,0,0,1,24.256,10.463,14.447,14.447,0,0,1,8.644,2.853,12.586,12.586,0,0,0,7.832,2.538,12.593,12.593,0,0,0,7.832-2.538,14.444,14.444,0,0,1,8.921-2.859,14.447,14.447,0,0,1,8.923,2.859,12.594,12.594,0,0,0,7.833,2.538,12.6,12.6,0,0,0,7.834-2.538,14.445,14.445,0,0,1,8.921-2.859,14.442,14.442,0,0,1,8.923,2.859,12.6,12.6,0,0,0,7.833,2.538,12.592,12.592,0,0,0,7.833-2.538,14.456,14.456,0,0,1,8.924-2.859,14.458,14.458,0,0,1,8.924,2.859,12.594,12.594,0,0,0,7.834,2.538,12.6,12.6,0,0,0,7.834-2.538,14.449,14.449,0,0,1,8.814-2.856v-18.1a.807.807,0,0,1,.808-.808h76.291v-5.868h-81.4a.808.808,0,0,1-.81-.808.809.809,0,0,1,.81-.808h27.5l2.673-25.44v-71.038a.81.81,0,0,1,.811-.808h6.74l4.319-41.082a.807.807,0,0,1,.8-.725.809.809,0,0,1,.8.725l4.318,41.082h6.743a.808.808,0,0,1,.809.808v71.044l2.673,25.435h23.2v-26.021h-3.691a.784.784,0,0,1-.783-.783.782.782,0,0,1,.783-.783h55.816l.084.01a.542.542,0,0,1,.07.013.428.428,0,0,1,.073.024.63.63,0,0,1,.073.028.643.643,0,0,1,.062.034.6.6,0,0,1,.072.046c.009.007.019.011.025.017l27.316,22.118a.779.779,0,0,1,.292.608v50.69h-1.566v-50.316l-25.75-20.85v71.166h-1.566v-72.024h-49.743v26.021h.1v1.617h-.1v5.868h.1v1.617h-.1v36.149a.784.784,0,0,1-.785.783.783.783,0,0,1-.783-.783v-36.149h-75.481v37.025h-1.618v-7.312a12.6,12.6,0,0,0-7.725,2.536,14.454,14.454,0,0,1-8.924,2.857,14.448,14.448,0,0,1-8.924-2.857,12.6,12.6,0,0,0-7.834-2.539,12.6,12.6,0,0,0-7.834,2.539,14.447,14.447,0,0,1-8.923,2.857,14.447,14.447,0,0,1-8.923-2.857,12.59,12.59,0,0,0-7.833-2.539,12.59,12.59,0,0,0-7.833,2.539,14.447,14.447,0,0,1-8.923,2.857,14.448,14.448,0,0,1-8.923-2.857,12.6,12.6,0,0,0-7.833-2.539,12.589,12.589,0,0,0-7.832,2.539,14.972,14.972,0,0,1-6.279,2.662c.572.875.991,1.6,1.28,2.125Zm91.133-6.479a12.594,12.594,0,0,0,7.834,2.538,12.6,12.6,0,0,0,7.834-2.538,14.449,14.449,0,0,1,8.814-2.856v-8.4a12.609,12.609,0,0,0-7.725,2.535,14.455,14.455,0,0,1-8.924,2.859,14.45,14.45,0,0,1-8.924-2.859,12.6,12.6,0,0,0-7.834-2.538,12.606,12.606,0,0,0-7.834,2.538,14.448,14.448,0,0,1-8.923,2.859,14.448,14.448,0,0,1-8.923-2.859,12.6,12.6,0,0,0-7.833-2.538,12.6,12.6,0,0,0-7.833,2.538,14.448,14.448,0,0,1-8.923,2.859,14.45,14.45,0,0,1-8.923-2.859,12.6,12.6,0,0,0-7.833-2.538,12.6,12.6,0,0,0-7.833,2.538,14.439,14.439,0,0,1-8.92,2.859,14.442,14.442,0,0,1-8.921-2.859,16.724,16.724,0,0,0-3.442-1.839,59.511,59.511,0,0,1,13.7,13.043,12.721,12.721,0,0,0,6.5-2.483,14.444,14.444,0,0,1,8.921-2.859,14.447,14.447,0,0,1,8.923,2.859,12.594,12.594,0,0,0,7.833,2.538,12.6,12.6,0,0,0,7.834-2.538,14.445,14.445,0,0,1,8.921-2.859,14.442,14.442,0,0,1,8.923,2.859,12.6,12.6,0,0,0,7.833,2.538,12.592,12.592,0,0,0,7.833-2.538,14.456,14.456,0,0,1,8.924-2.859A14.458,14.458,0,0,1,4502.328-2676.711Zm51.981-65.013v.361a.82.82,0,0,1-.073.332l-2.593,24.662h27.439l-2.59-24.663a.792.792,0,0,1-.073-.331v-.354l-11.055-105.2Zm22.11-15.476v-54.838h-5.763Zm-22.11-.006,5.763-54.833h-5.763Zm-195.045,86.974a40.583,40.583,0,0,0-14.677-3.9c-9.816-.805-16.649,1.854-20.332,3.9h-3.735c2.494-1.887,10.636-7.016,24.231-5.906,10.127.829,16.4,4.433,18.575,5.906Zm-109.453-.076.086-1.794c-10.814-.81-19.223-8.622-18.95-17.842.153-5.2,2.992-9.928,7.826-13.084a17.262,17.262,0,0,1-.524-4.767c.255-8.6,6.658-15.418,14.276-15.193s13.606,7.406,13.353,16.008a17.337,17.337,0,0,1-.8,4.728c4.639,3.438,7.194,8.324,7.04,13.525-.271,9.22-9.127,16.521-19.972,16.691l-.086,1.793Zm1.625-16.953h.032a1.121,1.121,0,0,1,1.089,1.155l-.349,11.823c9.607-.194,17.426-6.52,17.663-14.51.138-4.675-2.327-9.087-6.763-12.1a1.124,1.124,0,0,1-.421-1.32,15.091,15.091,0,0,0,.946-4.83c.218-7.365-4.8-13.51-11.175-13.7s-11.748,5.648-11.965,13.014a15.1,15.1,0,0,0,.658,4.878,1.121,1.121,0,0,1-.5,1.294c-4.6,2.746-7.326,7-7.464,11.68-.235,7.988,7.2,14.764,16.774,15.525l.348-11.821a1.122,1.122,0,0,1,1.121-1.089Zm603.523,16.892v-59.222H4829.7a.943.943,0,0,1-.942-.943.943.943,0,0,1,.942-.944h30.512a.943.943,0,0,1,.943.944.943.943,0,0,1-.943.943h-3.372v20.765h.4a11.705,11.705,0,0,0,11.691-11.691,11.741,11.741,0,0,0-9.261-11.441.944.944,0,0,1-.728-1.118.943.943,0,0,1,1.118-.727,13.635,13.635,0,0,1,10.759,13.286,13.6,13.6,0,0,1-13.58,13.579h-.4v36.57Zm-82.235,0v-84.647h-53.987v84.329h-1.566V-2789.61h-63.282v12.642a.784.784,0,0,1-.783.783.784.784,0,0,1-.783-.783v-13.425a.783.783,0,0,1,.783-.783h23.317v-12.838h-6.761a.781.781,0,0,1-.709-.453.785.785,0,0,1,.111-.834l22.333-26.422a.809.809,0,0,1,1.2,0l22.331,26.422a.786.786,0,0,1,.111.834.783.783,0,0,1-.71.453h-6.761v12.838h10.318a.782.782,0,0,1,.774.689.78.78,0,0,1,.082.344v23.789h65.2a.943.943,0,0,1,.943.943v9.452a.944.944,0,0,1-.943.944h-9.33v13.342c17.032-8.886,21.847-37.969,21.895-38.269a.941.941,0,0,1,1.079-.783.944.944,0,0,1,.784,1.08c-.2,1.281-5.168,31.288-23.758,40.08v.127h75.059c-18.746-8.565-23.766-38.8-23.988-40.206a.943.943,0,0,1,.783-1.08.942.942,0,0,1,1.08.783c.058.366,6.088,36.672,28.519,40.516a.945.945,0,0,1,.78,1.01.945.945,0,0,1-.94.865H4774.61v6.074h39.532a.943.943,0,0,1,.943.944.943.943,0,0,1-.943.943H4774.61v59.222Zm-53.987-86.536H4783v-7.564h-64.26Zm-29.9-34.272H4706V-2804.8a.783.783,0,0,1,.783-.783h5.855l-20.643-24.425-20.643,24.425h5.856a.783.783,0,0,1,.783.783v13.621h9.279v-21.162l-3,3a.783.783,0,0,1-1.106,0,.783.783,0,0,1,0-1.107l4.333-4.333c.008-.009.02-.013.028-.021a.752.752,0,0,1,.1-.07.75.75,0,0,1,.1-.058c.013-.006.021-.015.034-.02s.051-.011.076-.02a.882.882,0,0,1,.111-.027.748.748,0,0,1,.113-.007.758.758,0,0,1,.112.007.924.924,0,0,1,.11.027c.025.008.052.01.078.02s.02.014.032.02a.692.692,0,0,1,.094.056.781.781,0,0,1,.1.072c.01.009.021.013.03.021l4.332,4.333a.783.783,0,0,1,0,1.107.783.783,0,0,1-1.107,0l-3-3Zm920.7,119.756v-120.918h-32.643v64.8a.943.943,0,0,1-.943.944.944.944,0,0,1-.943-.944v-65.748a.942.942,0,0,1,.943-.942h34.137a.937.937,0,0,1,.393-.086.941.941,0,0,1,.393.086h.551v122.8a.942.942,0,0,1-.943.942A.943.943,0,0,1,5609.532-2671.42Zm-34.239.638c-11.662-11.214-21.107-12.61-21.2-12.622a.944.944,0,0,1-.807-1.063.942.942,0,0,1,1.063-.807c.408.055,10.151,1.5,22.253,13.132a.945.945,0,0,1,.027,1.335.943.943,0,0,1-.682.289A.938.938,0,0,1,5575.292-2670.782Zm-991.265-2.239a7.325,7.325,0,0,0-5.071-1.949,7.314,7.314,0,0,0-5.068,1.949,8.964,8.964,0,0,1-6.05,2.279,8.961,8.961,0,0,1-6.047-2.279,7.317,7.317,0,0,0-5.068-1.949,7.321,7.321,0,0,0-5.07,1.949,8.956,8.956,0,0,1-6.047,2.279,8.959,8.959,0,0,1-6.049-2.279,7.314,7.314,0,0,0-5.068-1.949.809.809,0,0,1-.81-.808.809.809,0,0,1,.81-.809,8.957,8.957,0,0,1,6.047,2.277,7.318,7.318,0,0,0,5.07,1.949,7.318,7.318,0,0,0,5.068-1.949,8.958,8.958,0,0,1,6.048-2.277,8.957,8.957,0,0,1,6.047,2.277,7.32,7.32,0,0,0,5.068,1.949,7.315,7.315,0,0,0,5.07-1.949,8.961,8.961,0,0,1,6.048-2.277,8.965,8.965,0,0,1,6.05,2.277,7.318,7.318,0,0,0,5.07,1.949,7.315,7.315,0,0,0,5.068-1.949,8.963,8.963,0,0,1,6.05-2.277.809.809,0,0,1,.81.809.809.809,0,0,1-.81.808,7.321,7.321,0,0,0-5.07,1.949,8.963,8.963,0,0,1-6.048,2.279A8.956,8.956,0,0,1,4584.027-2673.021Zm933.685.683a.945.945,0,0,1,0-1.335l18.737-18.8a.946.946,0,0,1,1.335,0,.946.946,0,0,1,0,1.335l-18.734,18.8a.946.946,0,0,1-.669.277A.942.942,0,0,1,5517.712-2672.338Zm-1227.585-1.684v-6.46a.945.945,0,0,1,.943-.945.944.944,0,0,1,.943.945v6.46a.941.941,0,0,1-.943.943A.942.942,0,0,1,4290.126-2674.022Zm544.662.708a.944.944,0,0,1-.945-.944v-10.268a4.474,4.474,0,0,1,4.468-4.468,4.474,4.474,0,0,1,4.469,4.468v10.268a.944.944,0,0,1-.944.944Zm.942-11.211v9.323h5.163v-9.323a2.585,2.585,0,0,0-2.582-2.581A2.585,2.585,0,0,0,4835.731-2684.526Zm-24.518,11.211a.944.944,0,0,1-.944-.944v-10.268a4.474,4.474,0,0,1,4.469-4.468,4.475,4.475,0,0,1,4.468,4.468v10.268a.943.943,0,0,1-.943.944Zm.943-11.211v9.323h5.163v-9.323a2.585,2.585,0,0,0-2.581-2.581A2.585,2.585,0,0,0,4812.156-2684.526Zm-24.518,11.211a.943.943,0,0,1-.944-.944v-10.268a4.474,4.474,0,0,1,4.469-4.468,4.474,4.474,0,0,1,4.468,4.468v10.268a.943.943,0,0,1-.943.944Zm.943-11.211v9.323h5.163v-9.323a2.585,2.585,0,0,0-2.581-2.581A2.585,2.585,0,0,0,4788.582-2684.526Zm-729.768,10.207a1.124,1.124,0,0,1-1.122-1.124,1.123,1.123,0,0,1,1.122-1.122H4186.92a1.123,1.123,0,0,1,1.124,1.122,1.124,1.124,0,0,1-1.124,1.124Zm584.985-1.736a7.37,7.37,0,0,1,2.235-5.292,5.833,5.833,0,0,0,1.857-4.274,5.832,5.832,0,0,0-1.857-4.273,7.365,7.365,0,0,1-2.235-5.291,7.367,7.367,0,0,1,2.235-5.292,5.841,5.841,0,0,0,1.857-4.276,5.833,5.833,0,0,0-1.857-4.274,7.371,7.371,0,0,1-2.235-5.294,7.374,7.374,0,0,1,2.235-5.294,5.832,5.832,0,0,0,1.857-4.274,5.843,5.843,0,0,0-1.857-4.275,7.375,7.375,0,0,1-2.235-5.294.783.783,0,0,1,.784-.783.783.783,0,0,1,.782.783,5.839,5.839,0,0,0,1.859,4.276,7.375,7.375,0,0,1,2.233,5.294,7.377,7.377,0,0,1-2.233,5.292,5.841,5.841,0,0,0-1.859,4.275,5.835,5.835,0,0,0,1.859,4.276,7.376,7.376,0,0,1,2.233,5.292,7.376,7.376,0,0,1-2.233,5.294,5.834,5.834,0,0,0-1.859,4.274,5.832,5.832,0,0,0,1.859,4.273,7.373,7.373,0,0,1,2.233,5.291,7.373,7.373,0,0,1-2.233,5.292,5.838,5.838,0,0,0-1.859,4.274.783.783,0,0,1-.782.783A.783.783,0,0,1,4643.8-2676.055Zm-11.762,0a7.376,7.376,0,0,1,2.235-5.292,5.838,5.838,0,0,0,1.857-4.274,5.837,5.837,0,0,0-1.857-4.273,7.371,7.371,0,0,1-2.235-5.291,7.373,7.373,0,0,1,2.235-5.292,5.841,5.841,0,0,0,1.857-4.276,5.838,5.838,0,0,0-1.857-4.274,7.377,7.377,0,0,1-2.235-5.294,7.38,7.38,0,0,1,2.235-5.294,5.838,5.838,0,0,0,1.857-4.274,5.843,5.843,0,0,0-1.857-4.275,7.381,7.381,0,0,1-2.235-5.294.784.784,0,0,1,.783-.783.783.783,0,0,1,.784.783,5.838,5.838,0,0,0,1.857,4.276,7.375,7.375,0,0,1,2.234,5.294,7.377,7.377,0,0,1-2.234,5.292,5.84,5.84,0,0,0-1.857,4.275,5.834,5.834,0,0,0,1.857,4.276,7.376,7.376,0,0,1,2.234,5.292,7.377,7.377,0,0,1-2.234,5.294,5.833,5.833,0,0,0-1.857,4.274,5.832,5.832,0,0,0,1.857,4.273,7.373,7.373,0,0,1,2.234,5.291,7.373,7.373,0,0,1-2.234,5.292,5.838,5.838,0,0,0-1.857,4.274.783.783,0,0,1-.784.783A.784.784,0,0,1,4632.036-2676.055Zm826.6-2.59a8.889,8.889,0,0,1-7.268,3.28,8.887,8.887,0,0,1-7.27-3.28,8.887,8.887,0,0,1-7.27,3.28,8.886,8.886,0,0,1-7.268-3.28,8.891,8.891,0,0,1-7.27,3.28,8.893,8.893,0,0,1-7.27-3.28,8.886,8.886,0,0,1-7.268,3.28,8.885,8.885,0,0,1-7.268-3.28,8.892,8.892,0,0,1-7.27,3.28,8.887,8.887,0,0,1-7.268-3.28,8.893,8.893,0,0,1-7.271,3.28,8.889,8.889,0,0,1-7.268-3.28,8.887,8.887,0,0,1-7.268,3.28,8.889,8.889,0,0,1-7.27-3.28,8.887,8.887,0,0,1-7.268,3.28,8.887,8.887,0,0,1-7.27-3.28,8.888,8.888,0,0,1-7.269,3.28,8.889,8.889,0,0,1-7.27-3.28,8.889,8.889,0,0,1-7.27,3.28.943.943,0,0,1-.942-.945.942.942,0,0,1,.942-.944c3.429,0,6.326-1.943,6.326-4.245a.944.944,0,0,1,.943-.943.944.944,0,0,1,.944.943c0,2.3,2.9,4.245,6.326,4.245s6.325-1.943,6.325-4.245a.944.944,0,0,1,.944-.943.944.944,0,0,1,.943.943c0,2.3,2.9,4.245,6.326,4.245s6.324-1.943,6.324-4.245a.945.945,0,0,1,.944-.943.943.943,0,0,1,.943.943c0,2.3,2.9,4.245,6.326,4.245s6.325-1.943,6.325-4.245a.944.944,0,0,1,.943-.943.944.944,0,0,1,.943.943c0,2.3,2.9,4.245,6.325,4.245S5385-2679.2,5385-2681.5a.945.945,0,0,1,.945-.943.944.944,0,0,1,.943.943c0,2.3,2.9,4.245,6.325,4.245s6.325-1.943,6.325-4.245a.946.946,0,0,1,.945-.943.943.943,0,0,1,.942.943c0,2.3,2.9,4.245,6.326,4.245s6.325-1.943,6.325-4.245a.944.944,0,0,1,.943-.943.945.945,0,0,1,.945.943c0,2.3,2.9,4.245,6.325,4.245s6.326-1.943,6.326-4.245a.944.944,0,0,1,.944-.943.944.944,0,0,1,.943.943c0,2.3,2.9,4.245,6.325,4.245s6.324-1.943,6.324-4.245a.946.946,0,0,1,.945-.943.944.944,0,0,1,.943.943c0,2.3,2.9,4.245,6.326,4.245s6.325-1.943,6.325-4.245a.944.944,0,0,1,.943-.943.944.944,0,0,1,.943.943c0,2.3,2.9,4.245,6.325,4.245s6.326-1.943,6.326-4.245a.944.944,0,0,1,.943-.943.943.943,0,0,1,.943.943,2.979,2.979,0,0,0,.441,1.539.944.944,0,0,1-.333,1.293.937.937,0,0,1-1.013-.034,8.861,8.861,0,0,1-7.308,3.335A8.887,8.887,0,0,1,5458.632-2678.645Zm-874.6-.08a7.324,7.324,0,0,0-5.071-1.948,7.313,7.313,0,0,0-5.068,1.948,8.963,8.963,0,0,1-6.05,2.279,8.96,8.96,0,0,1-6.047-2.279,7.316,7.316,0,0,0-5.068-1.948,7.32,7.32,0,0,0-5.07,1.948,8.954,8.954,0,0,1-6.047,2.279,8.958,8.958,0,0,1-6.049-2.279,7.313,7.313,0,0,0-5.068-1.948.81.81,0,0,1-.81-.81.81.81,0,0,1,.81-.81,8.958,8.958,0,0,1,6.047,2.279,7.311,7.311,0,0,0,5.07,1.949,7.311,7.311,0,0,0,5.068-1.949,8.96,8.96,0,0,1,6.048-2.279,8.958,8.958,0,0,1,6.047,2.279,7.313,7.313,0,0,0,5.068,1.949,7.309,7.309,0,0,0,5.07-1.949,8.963,8.963,0,0,1,6.048-2.279,8.966,8.966,0,0,1,6.05,2.279,7.311,7.311,0,0,0,5.07,1.949,7.308,7.308,0,0,0,5.068-1.949,8.964,8.964,0,0,1,6.05-2.279.81.81,0,0,1,.81.81.81.81,0,0,1-.81.81,7.32,7.32,0,0,0-5.07,1.948,8.962,8.962,0,0,1-6.048,2.279A8.955,8.955,0,0,1,4584.027-2678.725Zm564.391-2.366c-1.111-1.1-2.072-2.053-4.017-2.053s-2.905.952-4.016,2.053c-1.234,1.224-2.629,2.608-5.384,2.608s-4.15-1.384-5.383-2.608c-1.112-1.1-2.071-2.053-4.016-2.053a.919.919,0,0,1-.944-.891.919.919,0,0,1,.944-.893c2.753,0,4.15,1.384,5.382,2.608,1.111,1.1,2.072,2.053,4.017,2.053s2.905-.952,4.016-2.053c1.232-1.224,2.629-2.608,5.384-2.608s4.15,1.384,5.384,2.608c1.111,1.1,2.07,2.053,4.016,2.053a.919.919,0,0,1,.944.891.919.919,0,0,1-.944.893C5151.048-2678.483,5149.651-2679.867,5148.418-2681.091Zm-770.93,2.483c-35.165-19.271-69.016-5.078-69.355-4.933a1,1,0,0,1-1.321-.527,1,1,0,0,1,.525-1.321c.346-.151,35.1-14.722,71.118,5.015a1.006,1.006,0,0,1,.4,1.366,1.006,1.006,0,0,1-.883.524A1.018,1.018,0,0,1,4377.489-2678.608Zm1132.244-.207a.943.943,0,0,1,.009-1.334l26.709-26.381a.943.943,0,0,1,1.335.008.945.945,0,0,1-.01,1.335l-26.708,26.38a.94.94,0,0,1-.664.272A.942.942,0,0,1,5509.732-2678.815Zm-303.552-1.249a.944.944,0,0,1-.944-.944.944.944,0,0,1,.944-.944h8.8a8.658,8.658,0,0,1-1.416-5.749.944.944,0,0,1,.937-.827h16.521v-30.133a.947.947,0,0,1,.665-.9.949.949,0,0,1,1.058.371c.082.12,8.291,12.024,17.708,16.583a.939.939,0,0,1,.5.62.942.942,0,0,1-.152.784,23.8,23.8,0,0,1-17.9,8.693v3.986h20.364a.94.94,0,0,1,.8.452.943.943,0,0,1,.034.924,17.065,17.065,0,0,1-4.428,5.2h13.179a9.5,9.5,0,0,1-1.843-4.578.944.944,0,0,1,.945-.945h12.718v-2.129c-11.458-.2-16.855-13.888-17.086-14.489a.939.939,0,0,1,.055-.791.938.938,0,0,1,.638-.472c9.954-2.028,16.323-12.372,16.523-12.7a.925.925,0,0,1,.392-.368.354.354,0,0,1,.041-.02h0a.938.938,0,0,1,.67-.034.95.95,0,0,1,.179.079.925.925,0,0,1,.362.373.525.525,0,0,1,.031.061l10.166,22.025a.944.944,0,0,1,.01.765c-.085.2-2.13,4.78-10.094,5.492v2.208h14.98a.948.948,0,0,1,.69.3.951.951,0,0,1,.252.708c-.008.124-.223,2.556-3.681,4.515h5.925a.943.943,0,0,1,.943.944.944.944,0,0,1-.943.944Zm58.784-2.2a.911.911,0,0,1,.158.308H5284.9a.942.942,0,0,1,.61-.623c2.854-.925,4.116-2.155,4.672-3.014h-27.094A13.1,13.1,0,0,0,5264.965-2682.26Zm-47.061.308h27.6c2.856-.71,4.963-3.126,6.064-4.688H5215.4C5215.426-2685.366,5215.77-2682.982,5217.9-2681.951Zm41.894-21.82c1.437,3.056,6.4,12.083,14.884,12.279v-23.08C5272.145-2711.262,5266.963-2705.672,5259.8-2703.771Zm16.771,12.194c5.5-.54,7.586-3.082,8.171-4l-8.171-17.7Zm-43.66-2.824a22.638,22.638,0,0,0,15.642-7.064c-6.883-3.729-12.828-10.683-15.642-14.322Zm-609.759,13.532a.785.785,0,0,1-.12-1.1,5.317,5.317,0,0,0,1.335-3.65,5.832,5.832,0,0,0-1.857-4.273,7.364,7.364,0,0,1-2.233-5.291,7.367,7.367,0,0,1,2.233-5.292,5.836,5.836,0,0,0,1.857-4.276,5.833,5.833,0,0,0-1.857-4.274,7.371,7.371,0,0,1-2.233-5.294,7.373,7.373,0,0,1,2.233-5.294,5.832,5.832,0,0,0,1.857-4.274,5.838,5.838,0,0,0-1.857-4.275,7.374,7.374,0,0,1-2.233-5.294.783.783,0,0,1,.783-.783.783.783,0,0,1,.783.783,5.838,5.838,0,0,0,1.857,4.276,7.375,7.375,0,0,1,2.233,5.294,7.377,7.377,0,0,1-2.233,5.292,5.84,5.84,0,0,0-1.857,4.275,5.834,5.834,0,0,0,1.857,4.276,7.376,7.376,0,0,1,2.233,5.292,7.376,7.376,0,0,1-2.233,5.294,5.833,5.833,0,0,0-1.857,4.274,5.832,5.832,0,0,0,1.857,4.273,7.373,7.373,0,0,1,2.233,5.291,6.823,6.823,0,0,1-1.68,4.632.783.783,0,0,1-.612.293A.787.787,0,0,1,4623.151-2680.868Zm-10.882-1.048a.782.782,0,0,1-.3-1.065,5.209,5.209,0,0,0,.637-2.64,5.831,5.831,0,0,0-1.856-4.273,7.364,7.364,0,0,1-2.233-5.291,7.363,7.363,0,0,1,2.233-5.292,5.835,5.835,0,0,0,1.856-4.276,5.832,5.832,0,0,0-1.856-4.274,7.371,7.371,0,0,1-2.233-5.294,7.373,7.373,0,0,1,2.233-5.294,5.832,5.832,0,0,0,1.856-4.274,5.837,5.837,0,0,0-1.856-4.275,7.371,7.371,0,0,1-2.233-5.294.783.783,0,0,1,.782-.783.783.783,0,0,1,.784.783,5.838,5.838,0,0,0,1.857,4.276,7.374,7.374,0,0,1,2.232,5.294,7.376,7.376,0,0,1-2.232,5.292,5.84,5.84,0,0,0-1.857,4.275,5.834,5.834,0,0,0,1.857,4.276,7.375,7.375,0,0,1,2.232,5.292,7.373,7.373,0,0,1-2.233,5.294,5.836,5.836,0,0,0-1.856,4.274,5.832,5.832,0,0,0,1.857,4.273,7.372,7.372,0,0,1,2.232,5.291,6.826,6.826,0,0,1-.834,3.4.788.788,0,0,1-.686.4A.779.779,0,0,1,4612.269-2681.916Zm886.265-.27a.943.943,0,0,1,.011-1.335l37.907-37.256a.945.945,0,0,1,1.335.013.946.946,0,0,1-.011,1.335l-37.908,37.255a.936.936,0,0,1-.662.272A.935.935,0,0,1,5498.534-2682.186Zm-589.856-1.1a.944.944,0,0,1-.779-1.083,15.7,15.7,0,0,1,15.563-13.207.944.944,0,0,1,.944.944.944.944,0,0,1-.944.943,13.822,13.822,0,0,0-13.7,11.625.945.945,0,0,1-.931.792A.831.831,0,0,1,4908.678-2683.282Zm-612.4-1.462a.945.945,0,0,1-.945-.943.945.945,0,0,1,.945-.944h6.459a.943.943,0,0,1,.944.944.943.943,0,0,1-.944.943Zm-16.673-.2a.944.944,0,0,1-.943-.944.944.944,0,0,1,.943-.944h6.461a.944.944,0,0,1,.943.944.944.944,0,0,1-.943.944Zm483.361-.958c0-2.321-1.028-3.44-2.218-4.739a8.117,8.117,0,0,1-2.714-6.015,8.12,8.12,0,0,1,2.714-6.016c1.19-1.3,2.218-2.417,2.218-4.737s-1.028-3.442-2.218-4.74a8.111,8.111,0,0,1-2.714-6.013,8.117,8.117,0,0,1,2.714-6.015c1.19-1.3,2.218-2.417,2.218-4.739s-1.028-3.439-2.218-4.735c-1.272-1.387-2.714-2.958-2.714-6.012a8.118,8.118,0,0,1,2.714-6.015c1.19-1.3,2.218-2.417,2.218-4.737a.943.943,0,0,1,.944-.944.943.943,0,0,1,.943.944,8.12,8.12,0,0,1-2.712,6.013c-1.191,1.3-2.218,2.417-2.218,4.739s1.026,3.438,2.216,4.735c1.272,1.387,2.714,2.957,2.714,6.012a8.119,8.119,0,0,1-2.712,6.015c-1.191,1.3-2.218,2.418-2.218,4.739s1.026,3.442,2.218,4.739a8.119,8.119,0,0,1,2.712,6.015,8.124,8.124,0,0,1-2.712,6.015c-1.191,1.3-2.218,2.417-2.218,4.739s1.026,3.442,2.218,4.74a8.115,8.115,0,0,1,2.712,6.013.943.943,0,0,1-.943.944A.944.944,0,0,1,4762.963-2685.9Zm-15.82,0c0-2.321-1.027-3.44-2.217-4.739a8.114,8.114,0,0,1-2.714-6.015,8.117,8.117,0,0,1,2.714-6.016c1.19-1.3,2.217-2.417,2.217-4.737s-1.027-3.442-2.217-4.74a8.107,8.107,0,0,1-2.714-6.013,8.114,8.114,0,0,1,2.714-6.015c1.19-1.3,2.217-2.417,2.217-4.739s-1.027-3.439-2.217-4.735a8.11,8.11,0,0,1-2.714-6.012,8.114,8.114,0,0,1,2.714-6.015c1.19-1.3,2.217-2.417,2.217-4.737a.943.943,0,0,1,.943-.944.944.944,0,0,1,.945.944,8.117,8.117,0,0,1-2.713,6.013c-1.19,1.3-2.218,2.417-2.218,4.739s1.027,3.438,2.218,4.735c1.271,1.387,2.713,2.957,2.713,6.012a8.116,8.116,0,0,1-2.713,6.015c-1.191,1.3-2.218,2.418-2.218,4.739s1.028,3.442,2.218,4.739a8.116,8.116,0,0,1,2.713,6.015,8.121,8.121,0,0,1-2.713,6.015c-1.19,1.3-2.218,2.417-2.218,4.739s1.028,3.442,2.218,4.74a8.112,8.112,0,0,1,2.713,6.013.945.945,0,0,1-.945.944A.943.943,0,0,1,4747.143-2685.9Zm-15.819,0c0-2.321-1.028-3.44-2.218-4.739a8.119,8.119,0,0,1-2.713-6.015,8.122,8.122,0,0,1,2.713-6.016c1.19-1.3,2.218-2.417,2.218-4.737s-1.028-3.442-2.218-4.74a8.112,8.112,0,0,1-2.713-6.013,8.119,8.119,0,0,1,2.713-6.015c1.19-1.3,2.218-2.417,2.218-4.739s-1.028-3.439-2.218-4.735c-1.271-1.387-2.713-2.958-2.713-6.012a8.119,8.119,0,0,1,2.713-6.015c1.19-1.3,2.218-2.417,2.218-4.737a.943.943,0,0,1,.943-.944.944.944,0,0,1,.944.944,8.117,8.117,0,0,1-2.714,6.013c-1.19,1.3-2.217,2.417-2.217,4.739s1.027,3.438,2.217,4.735c1.271,1.387,2.714,2.957,2.714,6.012a8.116,8.116,0,0,1-2.714,6.015c-1.19,1.3-2.217,2.418-2.217,4.739s1.027,3.442,2.217,4.739a8.117,8.117,0,0,1,2.714,6.015,8.121,8.121,0,0,1-2.714,6.015c-1.19,1.3-2.217,2.417-2.217,4.739s1.027,3.442,2.217,4.74a8.113,8.113,0,0,1,2.714,6.013.944.944,0,0,1-.944.944A.943.943,0,0,1,4731.324-2685.9Zm-147.3-1.94a7.324,7.324,0,0,0-5.071-1.948,7.314,7.314,0,0,0-5.068,1.948,8.957,8.957,0,0,1-6.05,2.279,8.954,8.954,0,0,1-6.047-2.279,7.316,7.316,0,0,0-5.068-1.948,7.32,7.32,0,0,0-5.07,1.948,8.948,8.948,0,0,1-6.047,2.279,8.952,8.952,0,0,1-6.049-2.279,7.314,7.314,0,0,0-5.068-1.948.809.809,0,0,1-.81-.81.809.809,0,0,1,.81-.808,8.957,8.957,0,0,1,6.047,2.277,7.313,7.313,0,0,0,5.07,1.95,7.313,7.313,0,0,0,5.068-1.95,8.958,8.958,0,0,1,6.048-2.277,8.957,8.957,0,0,1,6.047,2.277,7.315,7.315,0,0,0,5.068,1.95,7.31,7.31,0,0,0,5.07-1.95,8.961,8.961,0,0,1,6.048-2.277,8.965,8.965,0,0,1,6.05,2.277,7.313,7.313,0,0,0,5.07,1.95,7.31,7.31,0,0,0,5.068-1.95,8.963,8.963,0,0,1,6.05-2.277.809.809,0,0,1,.81.808.809.809,0,0,1-.81.81,7.32,7.32,0,0,0-5.07,1.948,8.956,8.956,0,0,1-6.048,2.279A8.949,8.949,0,0,1,4584.027-2687.839Zm564.391-1.991c-1.111-1.1-2.072-2.055-4.017-2.055s-2.905.953-4.016,2.055c-1.234,1.222-2.629,2.608-5.384,2.608s-4.15-1.386-5.383-2.608c-1.112-1.1-2.071-2.055-4.016-2.055a.918.918,0,0,1-.944-.891.918.918,0,0,1,.944-.891c2.753,0,4.15,1.384,5.382,2.607,1.111,1.1,2.072,2.055,4.017,2.055s2.905-.953,4.016-2.055c1.232-1.222,2.629-2.607,5.384-2.607s4.15,1.384,5.384,2.607c1.111,1.1,2.07,2.055,4.016,2.055a.918.918,0,0,1,.944.891.92.92,0,0,1-.944.893C5151.048-2687.222,5149.651-2688.608,5148.418-2689.831Zm-457.684,1.646a.782.782,0,0,1-.783-.783.783.783,0,0,1,.783-.783h14.574a.782.782,0,0,1,.783.783.782.782,0,0,1-.783.783Zm886.336-.979v-3.828a6.859,6.859,0,0,1-3.137-1.273l-2.688,2.688a.943.943,0,0,1-.667.278.943.943,0,0,1-.668-.278.944.944,0,0,1,0-1.335l2.666-2.666a6.879,6.879,0,0,1-1.38-3.159h-3.7a.942.942,0,0,1-.942-.945.942.942,0,0,1,.942-.942h3.652a6.862,6.862,0,0,1,1.3-3.293l-2.535-2.535a.942.942,0,0,1,0-1.333.944.944,0,0,1,1.335,0l2.512,2.512a6.872,6.872,0,0,1,3.313-1.405v-3.519a.944.944,0,0,1,.942-.945.945.945,0,0,1,.945.945v3.519a6.875,6.875,0,0,1,3.313,1.405l2.514-2.512a.941.941,0,0,1,1.333,0,.941.941,0,0,1,0,1.333l-2.535,2.535a6.848,6.848,0,0,1,1.3,3.293h3.65a.943.943,0,0,1,.945.942.944.944,0,0,1-.945.945h-3.7a6.887,6.887,0,0,1-1.381,3.159l2.666,2.666a.943.943,0,0,1,0,1.335.941.941,0,0,1-.667.278.94.94,0,0,1-.666-.278l-2.688-2.688a6.871,6.871,0,0,1-3.138,1.273v3.828a.944.944,0,0,1-.945.945A.943.943,0,0,1,5577.071-2689.163Zm-4.084-10.67a5.032,5.032,0,0,0,5.026,5.028,5.033,5.033,0,0,0,5.029-5.028,5.034,5.034,0,0,0-5.029-5.028A5.033,5.033,0,0,0,5572.987-2699.833Zm-1282.86,8.941v-6.46a.943.943,0,0,1,.943-.944.942.942,0,0,1,.943.944v6.46a.943.943,0,0,1-.943.945A.944.944,0,0,1,4290.126-2690.892Zm877.015-.022a.944.944,0,0,1-.945-.944.944.944,0,0,1,.945-.945h17.567a.944.944,0,0,1,.943.945.944.944,0,0,1-.943.944Zm326.146-.858a.942.942,0,0,1,.024-1.334l43.146-41.647a.945.945,0,0,1,1.335.024.944.944,0,0,1-.024,1.333l-43.146,41.647a.938.938,0,0,1-.656.265A.943.943,0,0,1,5493.288-2691.772Zm-429.034-.1a.943.943,0,0,1-.943-.944.944.944,0,0,1,.943-.944h35.6a6.226,6.226,0,0,0,6.219-6.219,6.226,6.226,0,0,0-6.219-6.219h-9.547a8.115,8.115,0,0,1-8.106-8.106,8.115,8.115,0,0,1,8.106-8.106h41.29a6.227,6.227,0,0,0,6.22-6.219,6.227,6.227,0,0,0-6.22-6.219h-38.949a.943.943,0,0,1-.944-.945.942.942,0,0,1,.944-.942H5131.6a8.147,8.147,0,0,1,1.828.214v-.958l10.293-7.56a.944.944,0,0,1,1.069-.034l57.323,36.779a.944.944,0,0,1,.286,1.3.951.951,0,0,1-.8.434.925.925,0,0,1-.508-.151l-22.216-14.252c-2.052,1.259-4.188.822-6.092.431-1.553-.321-2.894-.6-4.036-.011-2.866,1.471-5.454.829-7.346.358-.39-.1-.752-.186-1.08-.245-.768.4-2.025,3.785-2.443,4.911-.586,1.583-.727,1.958-1.269,2.135a.969.969,0,0,1-.292.045,1,1,0,0,1-.545-.159c-.061-.041-.274-.2-.6-.442-1.3-.967-4.754-3.536-7.478-5.187-1.236-.751-2.566.158-4.452,1.628-1.528,1.19-3.108,2.419-4.654,1.577a7.309,7.309,0,0,1-2.574-2.421,3.6,3.6,0,0,0-1.382-1.355,1.344,1.344,0,0,0-1.205-.063v-.982a8.063,8.063,0,0,1-1.828.216h-41.29a6.227,6.227,0,0,0-6.22,6.219,6.227,6.227,0,0,0,6.22,6.219h9.547a8.115,8.115,0,0,1,8.106,8.106,8.115,8.115,0,0,1-8.106,8.106Zm84.414-28.864c2.577,1.56,5.751,3.893,7.271,5.021.057-.152.114-.308.169-.455,1.359-3.666,2.546-6.437,4.451-6.129.4.068.837.176,1.3.29,1.69.418,3.794.941,6.027-.207,1.735-.889,3.538-.518,5.281-.158a8.112,8.112,0,0,0,3.823.206l-32.676-20.965-9.574,7.033a8.118,8.118,0,0,1,4.966,7.472,8.109,8.109,0,0,1-4.375,7.188c.035.017.069.024.1.041a5.292,5.292,0,0,1,2.11,1.958,5.482,5.482,0,0,0,1.946,1.869c.46.249,1.642-.67,2.591-1.41,1.3-1.01,2.946-2.3,4.706-2.3A3.569,3.569,0,0,1,5148.668-2720.74Zm77.254,27.829c-9.606-.873-11.148-6.937-11.208-7.195a.942.942,0,0,1,.36-.978c5.476-4.008,10.016-15,10.06-15.109a.948.948,0,0,1,1.056-.568.943.943,0,0,1,.762.925v21.985a.945.945,0,0,1-.307.7.945.945,0,0,1-.636.246C5225.978-2692.906,5225.95-2692.908,5225.922-2692.91Zm-9.172-7.084c.557,1.249,2.48,4.254,8.314,5.084v-16.649C5223.257-2707.986,5220.258-2702.853,5216.75-2699.994Zm-825.327.546a5.494,5.494,0,0,1,5.49-5.488,5.5,5.5,0,0,1,5.488,5.488,5.5,5.5,0,0,1-5.488,5.49A5.5,5.5,0,0,1,4391.422-2699.448Zm1.8,0a3.7,3.7,0,0,0,3.693,3.693,3.7,3.7,0,0,0,3.691-3.693,3.7,3.7,0,0,0-3.691-3.691A3.7,3.7,0,0,0,4393.219-2699.448Zm440.485,3.908a1.106,1.106,0,0,1,.862-1.3,1.191,1.191,0,0,1,.222-.022,1.111,1.111,0,0,1,1.083.886,1.1,1.1,0,0,1-.162.831,1.1,1.1,0,0,1-.7.473,1.084,1.084,0,0,1-.221.023A1.109,1.109,0,0,1,4833.7-2695.54Zm-249.677-1.412a7.325,7.325,0,0,0-5.071-1.949,7.314,7.314,0,0,0-5.068,1.949,8.964,8.964,0,0,1-6.05,2.277,8.961,8.961,0,0,1-6.047-2.277,7.317,7.317,0,0,0-5.068-1.949,7.321,7.321,0,0,0-5.07,1.949,8.955,8.955,0,0,1-6.047,2.277,8.959,8.959,0,0,1-6.049-2.277,7.314,7.314,0,0,0-5.068-1.949.809.809,0,0,1-.81-.808.809.809,0,0,1,.81-.81,8.957,8.957,0,0,1,6.047,2.279,7.318,7.318,0,0,0,5.07,1.949,7.318,7.318,0,0,0,5.068-1.949,8.959,8.959,0,0,1,6.048-2.279,8.957,8.957,0,0,1,6.047,2.279,7.32,7.32,0,0,0,5.068,1.949,7.315,7.315,0,0,0,5.07-1.949,8.962,8.962,0,0,1,6.048-2.279,8.965,8.965,0,0,1,6.05,2.279,7.318,7.318,0,0,0,5.07,1.949,7.315,7.315,0,0,0,5.068-1.949,8.963,8.963,0,0,1,6.05-2.279.809.809,0,0,1,.81.81.809.809,0,0,1-.81.808,7.321,7.321,0,0,0-5.07,1.949,8.963,8.963,0,0,1-6.048,2.277A8.956,8.956,0,0,1,4584.027-2696.952Zm201.614,2.136a.943.943,0,0,1-.943-.945.943.943,0,0,1,.943-.944h42.267a.944.944,0,0,1,.944.944.944.944,0,0,1-.944.945Zm362.777-3.754c-1.111-1.1-2.072-2.055-4.017-2.055s-2.905.952-4.016,2.055c-1.234,1.221-2.629,2.608-5.384,2.608s-4.15-1.387-5.383-2.608c-1.112-1.1-2.071-2.055-4.016-2.055a.919.919,0,0,1-.944-.893.918.918,0,0,1,.944-.891c2.753,0,4.15,1.386,5.382,2.607,1.111,1.1,2.072,2.055,4.017,2.055s2.905-.952,4.016-2.055c1.232-1.221,2.629-2.607,5.384-2.607s4.15,1.386,5.384,2.607c1.111,1.1,2.07,2.055,4.016,2.055a.92.92,0,0,1,.944.893.92.92,0,0,1-.944.893C5151.048-2695.962,5149.651-2697.349,5148.418-2698.57Zm-153.893-.548h-64.257a.945.945,0,0,1-.945-.944v-89.992a.944.944,0,0,1,.945-.942h10.716v-7.84a.945.945,0,0,1,.943-.945h58.489a33.266,33.266,0,0,1-6.247-19.357,33.276,33.276,0,0,1,33.238-33.24,33.278,33.278,0,0,1,33.241,33.24,33.259,33.259,0,0,1-6.25,19.357h7.106a.945.945,0,0,1,.945.945v7.84h10.738a.943.943,0,0,1,.944.942v89.992a.944.944,0,0,1-.944.944h-64.237a12.3,12.3,0,0,1-7.213,2.313A12.306,12.306,0,0,1,4994.526-2699.118Zm7.212.425c5.337,0,9.7-3.905,9.972-8.8h-19.942C4992.04-2702.6,4996.4-2698.693,5001.738-2698.693Zm9.273-2.312h61.232v-88.1h-9.793v80.676a.944.944,0,0,1-.945.942H5013.6A10.716,10.716,0,0,1,5011.011-2701.005Zm-79.8,0h61.253a10.725,10.725,0,0,1-2.585-6.485h-47.952a.943.943,0,0,1-.943-.942v-80.676h-9.772Zm71.448-8.372h57.9v-88.515h-7.6a33.713,33.713,0,0,1-2.4,2.583c-.054.052-.106.1-.159.155-.213.2-.427.406-.645.6-.083.076-.167.149-.25.224q-.944.841-1.948,1.61c-.176.135-.352.268-.531.4-.152.11-.3.22-.456.327-.213.151-.428.3-.644.444-.128.086-.256.173-.385.258-.351.228-.7.452-1.063.667v14.431a4.745,4.745,0,0,1,3.18,4.471v1.551a4.733,4.733,0,0,1-1.914,3.8,4.732,4.732,0,0,1,1.914,3.8v1.549a4.744,4.744,0,0,1-3.149,4.46,4.709,4.709,0,0,1,1.193,3.134v1.551a4.746,4.746,0,0,1-4.74,4.74h-2.621c-.583,4.474-5.263,7.974-10.936,7.974s-10.351-3.5-10.935-7.974h-2.62a4.746,4.746,0,0,1-4.74-4.74v-1.551a4.709,4.709,0,0,1,1.193-3.134,4.743,4.743,0,0,1-3.15-4.46v-1.549a4.729,4.729,0,0,1,1.915-3.8,4.73,4.73,0,0,1-1.915-3.8v-1.551a4.746,4.746,0,0,1,3.181-4.471v-14.431q-.5-.3-.987-.617c-.138-.089-.271-.182-.408-.273-.18-.121-.362-.242-.542-.367s-.338-.241-.506-.363c-.135-.1-.271-.2-.4-.3-.19-.142-.378-.289-.566-.435l-.3-.238c-.208-.169-.416-.338-.621-.511-.059-.049-.117-.1-.175-.149a33.6,33.6,0,0,1-3.167-3.088Zm-59.789-80.679v80.679h57.9v-88.515H4974v61.394l2.4-2.394a.947.947,0,0,1,.667-.278.945.945,0,0,1,.667.278l2.293,2.292v-42.616a.944.944,0,0,1,.943-.943.945.945,0,0,1,.944.943v44.895a.943.943,0,0,1-.583.872.939.939,0,0,1-1.027-.206l-3.238-3.236-3.339,3.341a.953.953,0,0,1-.667.276.952.952,0,0,1-.362-.072.946.946,0,0,1-.582-.873v-63.673h-29.24Zm84.536,49c4.608,0,8.419-2.656,9.02-6.087h-18.039C5018.99-2743.713,5022.8-2741.057,5027.408-2741.057ZM5011-2753.434v1.551a2.855,2.855,0,0,0,2.853,2.852h27.111a2.856,2.856,0,0,0,2.853-2.852v-1.551a2.857,2.857,0,0,0-2.853-2.853h-27.111A2.857,2.857,0,0,0,5011-2753.434Zm-1.956-9.143v1.549a2.856,2.856,0,0,0,2.852,2.853h31.024a2.857,2.857,0,0,0,2.853-2.853v-1.549a2.857,2.857,0,0,0-2.853-2.853H5011.9A2.856,2.856,0,0,0,5009.044-2762.577Zm0-9.144v1.551a2.856,2.856,0,0,0,2.852,2.853h31.024a2.857,2.857,0,0,0,2.853-2.853v-1.551a2.856,2.856,0,0,0-2.853-2.853H5011.9A2.856,2.856,0,0,0,5009.044-2771.721Zm23.221-4.74h10.328v-14.7a.943.943,0,0,1,.472-.817c.369-.214.731-.437,1.09-.665.117-.073.232-.148.347-.224q.376-.243.741-.5c.123-.084.245-.166.366-.253q.471-.336.931-.69c.149-.117.3-.238.445-.356.169-.135.338-.272.5-.41s.347-.292.516-.441c.127-.111.252-.225.377-.338q.549-.5,1.075-1.015c.056-.055.112-.109.167-.165q.308-.313.607-.631c.058-.061.114-.123.17-.183a31.436,31.436,0,0,0,8.361-21.289,31.388,31.388,0,0,0-31.353-31.353,31.389,31.389,0,0,0-31.353,31.353,31.433,31.433,0,0,0,8.374,21.3l.148.159c.2.218.413.435.624.648.039.041.083.08.124.123q.545.543,1.121,1.06c.121.11.244.22.366.328q.258.224.52.442c.165.14.333.275.5.41.148.118.294.238.444.355.308.237.618.468.935.693.118.084.238.166.357.249.247.17.5.341.75.506l.339.218c.36.228.724.452,1.094.666a.943.943,0,0,1,.472.817v14.7h10.328v-37.867h-3.627c-3.124,0-5.221-3.533-5.221-6.832a5.582,5.582,0,0,1,1.084-3.5,4.389,4.389,0,0,1,3.622-1.625,4.959,4.959,0,0,1,3.813,1.646c2.094,2.294,2.3,6.429,2.266,8.426h5.839c-.034-2,.172-6.133,2.267-8.426a4.958,4.958,0,0,1,3.811-1.646,4.384,4.384,0,0,1,3.622,1.625,5.578,5.578,0,0,1,1.087,3.5c0,3.3-2.1,6.832-5.221,6.832h-3.629Zm-7.826,0h5.939v-37.867h-5.939Zm9.55-46.911c-1.653,1.811-1.8,5.427-1.771,7.155h3.676c1.907,0,3.332-2.611,3.332-4.943a3.794,3.794,0,0,0-.679-2.335,2.574,2.574,0,0,0-2.142-.906A3.1,3.1,0,0,0,5033.989-2823.372Zm-17.718-.123a3.8,3.8,0,0,0-.68,2.335c0,2.332,1.425,4.943,3.333,4.943h3.674c.031-1.728-.116-5.344-1.772-7.155a3.1,3.1,0,0,0-2.417-1.028A2.568,2.568,0,0,0,5016.271-2823.495Zm-591.918,125.967-21.423-18.534h-14.561a.9.9,0,0,1-.9-.9.9.9,0,0,1,.9-.9h12.484l-2.915-2.522a14.938,14.938,0,0,1-5.161-10.29,14.939,14.939,0,0,1,3.629-10.925,14.937,14.937,0,0,1,10.289-5.16,14.956,14.956,0,0,1,10.925,3.626l7.319,6.333,7.319-6.333a14.938,14.938,0,0,1,10.927-3.626,14.937,14.937,0,0,1,10.289,5.16,14.936,14.936,0,0,1,3.628,10.925,14.92,14.92,0,0,1-3.377,8.46h5.78a.9.9,0,0,1,.9.9.9.9,0,0,1-.9.9h-7.524a.433.433,0,0,1-.038.035l-26.414,22.854a.9.9,0,0,1-.589.219A.893.893,0,0,1,4424.353-2697.528Zm.587-1.866,24.3-21.023H4430.1v9.876a.9.9,0,0,1-.669.869.918.918,0,0,1-.23.03.9.9,0,0,1-.781-.456l-11.742-20.781-6.012,14.267a.9.9,0,0,1-.828.549h-4.166Zm-7.595-33.962,10.962,19.4v-7.36a.9.9,0,0,1,.9-.9h22.058a13.13,13.13,0,0,0,4.049-8.589,13.154,13.154,0,0,0-3.194-9.62h0a13.156,13.156,0,0,0-9.061-4.543,13.15,13.15,0,0,0-9.622,3.194l-7.906,6.842a.9.9,0,0,1-1.176,0l-7.906-6.842A13.149,13.149,0,0,0,4407.8-2745c-.325,0-.649.011-.976.035a13.159,13.159,0,0,0-9.062,4.543,13.156,13.156,0,0,0-3.193,9.622,13.157,13.157,0,0,0,4.543,9.062l4.485,3.88h5.646l6.491-15.4a.9.9,0,0,1,.775-.548h.045A.9.9,0,0,1,4417.345-2733.356Zm273.39,35.841a.784.784,0,0,1-.783-.783.782.782,0,0,1,.783-.783h14.574a.782.782,0,0,1,.783.783.784.784,0,0,1-.783.783Zm-483.911-.285a.9.9,0,0,1-.88-.913v-16.718a.9.9,0,0,1,.88-.913h16.143a.9.9,0,0,1,.881.913v16.718a.9.9,0,0,1-.881.913Zm.881-1.825h14.38v-14.893h-14.38Zm-22.418,1.7h-99.654a1.123,1.123,0,0,1-1.122-1.122v-41.764a1.121,1.121,0,0,1,1.122-1.121h47.473v-34.494a1.122,1.122,0,0,1,1.122-1.123h9.058a15.187,15.187,0,0,1-7.249-12.939,15.2,15.2,0,0,1,15.184-15.184,15.2,15.2,0,0,1,15.184,15.184,15.187,15.187,0,0,1-7.248,12.939h9.057a1.122,1.122,0,0,1,1.124,1.123v23.207h25.777a1.122,1.122,0,0,1,1.123,1.122v53.05a1.123,1.123,0,0,1-1.123,1.122Zm1.194-2.245h7.512v-7.513A8.726,8.726,0,0,0,4186.481-2700.172Zm-24.166-19.76a21.971,21.971,0,0,1-12.408,19.76h34.315a10.97,10.97,0,0,1,9.771-9.773v-19.974a10.97,10.97,0,0,1-9.771-9.771h-34.314A21.969,21.969,0,0,1,4162.315-2719.931Zm-75.56-9.988v19.974a10.974,10.974,0,0,1,9.772,9.773h34.314a21.973,21.973,0,0,1-12.409-19.76,21.971,21.971,0,0,1,12.406-19.758h-34.312A10.972,10.972,0,0,1,4086.755-2729.919Zm0,29.747h7.512a8.728,8.728,0,0,0-7.512-7.513Zm33.923-19.76a19.718,19.718,0,0,0,19.7,19.695,19.717,19.717,0,0,0,19.695-19.695,19.718,19.718,0,0,0-19.695-19.7A19.719,19.719,0,0,0,4120.678-2719.931Zm73.315-12.245v-7.513h-7.512A8.729,8.729,0,0,0,4193.993-2732.176Zm-107.238,0a8.731,8.731,0,0,0,7.512-7.513h-7.512Zm82.583-17.54v7.782h24.655v-9.042h-24.655Zm-33.987,7.782h31.743v-6.658h-31.743Zm0-8.9h31.743v-6.658h-31.743Zm0-8.9h31.743v-6.658h-31.743Zm0-8.9h31.743v-6.658h-31.743Zm2.932-21.843a12.954,12.954,0,0,0,12.939,12.939,12.954,12.954,0,0,0,12.939-12.939,12.954,12.954,0,0,0-12.939-12.939A12.954,12.954,0,0,0,4138.283-2790.49Zm1149.733,90.955a1.1,1.1,0,0,1,.162-.831,1.1,1.1,0,0,1,.7-.474,1.145,1.145,0,0,1,.22-.023,1.111,1.111,0,0,1,1.084.886,1.1,1.1,0,0,1-.162.831,1.1,1.1,0,0,1-.7.473,1.172,1.172,0,0,1-.221.022A1.112,1.112,0,0,1,5288.016-2699.535Zm9.23-.665a.945.945,0,0,1-.945-.945.943.943,0,0,1,.945-.942h6.46a.941.941,0,0,1,.943.942.943.943,0,0,1-.943.945Zm-430.382-1.419-1.873-1.873a18.4,18.4,0,0,1-2.763,1.005.946.946,0,0,1-1.162-.659.944.944,0,0,1,.659-1.16,16.663,16.663,0,0,0,3.038-1.169.941.941,0,0,1,1.091.177l1.676,1.677,4.278-4.277-1.141-1.142a.941.941,0,0,1-.08-1.241,16.653,16.653,0,0,0,3.052-6.479.943.943,0,0,1,.921-.734h1.818v-6.049h-1.818a.943.943,0,0,1-.921-.734,16.854,16.854,0,0,0-3.341-6.847.943.943,0,0,1,.065-1.262l1-1-4.277-4.277-1.7,1.7a.943.943,0,0,1-1.335,0,.944.944,0,0,1,0-1.334l2.367-2.367a.942.942,0,0,1,1.334,0l5.612,5.612a.942.942,0,0,1,0,1.334l-1.08,1.08a18.722,18.722,0,0,1,3.009,6.209h2.025a.945.945,0,0,1,.945.943v7.936a.945.945,0,0,1-.945.944h-2.025a18.392,18.392,0,0,1-2.721,5.806l1.235,1.235a.942.942,0,0,1,0,1.334l-5.612,5.612a.938.938,0,0,1-.667.276A.942.942,0,0,1,4866.864-2701.619Zm-727.614-1.646v-3.5h-5.5a1.123,1.123,0,0,1-1.123-1.124,1.123,1.123,0,0,1,1.123-1.123h6.613a6.067,6.067,0,0,0,6.061-6.06,5.962,5.962,0,0,0-5.956-5.957h-2.584a5.8,5.8,0,0,1-5.8-5.8,5.8,5.8,0,0,1,5.8-5.8h1.37v-4.026a1.123,1.123,0,0,1,1.124-1.123,1.123,1.123,0,0,1,1.122,1.123v4.026h3.394a1.122,1.122,0,0,1,1.123,1.123,1.122,1.122,0,0,1-1.123,1.122h-7.01a3.556,3.556,0,0,0-3.552,3.553,3.555,3.555,0,0,0,3.552,3.55h2.584a8.21,8.21,0,0,1,8.2,8.2,8.31,8.31,0,0,1-7.168,8.217v3.591a1.123,1.123,0,0,1-1.122,1.123A1.124,1.124,0,0,1,4139.25-2703.266Zm1027.892,1.1a.945.945,0,0,1-.945-.945.944.944,0,0,1,.945-.944h17.567a.943.943,0,0,1,.943.944.945.945,0,0,1-.943.945Zm119.245-1.339c-1.942-3.987-5.534-12.6-5.57-12.687a.945.945,0,0,1,.507-1.234.942.942,0,0,1,1.235.508c.035.086,3.608,8.65,5.525,12.586a.942.942,0,0,1-.437,1.26.936.936,0,0,1-.412.1A.943.943,0,0,1,5286.386-2703.5Zm-137.968-3.808c-1.111-1.1-2.072-2.053-4.017-2.053s-2.905.95-4.016,2.053c-1.234,1.222-2.629,2.607-5.384,2.607s-4.15-1.384-5.383-2.607c-1.112-1.1-2.071-2.053-4.016-2.053a.92.92,0,0,1-.944-.893.92.92,0,0,1,.944-.893c2.753,0,4.15,1.386,5.382,2.608,1.111,1.1,2.072,2.053,4.017,2.053s2.905-.952,4.016-2.053c1.232-1.222,2.629-2.608,5.384-2.608s4.15,1.386,5.384,2.608c1.111,1.1,2.07,2.053,4.016,2.053a.92.92,0,0,1,.944.893.918.918,0,0,1-.944.891C5151.048-2704.7,5149.651-2706.089,5148.418-2707.312Zm444.935,1.629a1.092,1.092,0,0,1,.162-.83,1.1,1.1,0,0,1,.7-.474,1.073,1.073,0,0,1,.221-.023,1.111,1.111,0,0,1,1.083.886,1.1,1.1,0,0,1-.162.831,1.093,1.093,0,0,1-.7.473,1.17,1.17,0,0,1-.221.021A1.109,1.109,0,0,1,5593.354-2705.682Zm-100.077.486a.942.942,0,0,1,.01-1.335l42.7-42.043a.944.944,0,0,1,1.335.011.942.942,0,0,1-.01,1.333l-42.7,42.043a.935.935,0,0,1-.662.271A.937.937,0,0,1,5493.277-2705.2Zm-658.49-.586a.944.944,0,0,1-.943-.945v-10.266a4.474,4.474,0,0,1,4.468-4.469,4.474,4.474,0,0,1,4.469,4.469v10.266a.944.944,0,0,1-.944.945Zm.944-11.211v9.323h5.163v-9.323a2.585,2.585,0,0,0-2.582-2.581A2.585,2.585,0,0,0,4835.731-2716.993Zm-24.518,11.211a.944.944,0,0,1-.944-.945v-10.266a4.475,4.475,0,0,1,4.469-4.469,4.475,4.475,0,0,1,4.468,4.469v10.266a.944.944,0,0,1-.943.945Zm.942-11.211v9.323h5.164v-9.323a2.585,2.585,0,0,0-2.581-2.581A2.586,2.586,0,0,0,4812.155-2716.993Zm-24.518,11.211a.943.943,0,0,1-.942-.945v-10.266a4.474,4.474,0,0,1,4.469-4.469,4.474,4.474,0,0,1,4.468,4.469v10.266a.944.944,0,0,1-.945.945Zm.945-11.211v9.323h5.163v-9.323a2.585,2.585,0,0,0-2.581-2.581A2.585,2.585,0,0,0,4788.582-2716.993Zm771.277,10.528-2.111-1.6a18.63,18.63,0,0,1-2.6,1.373.944.944,0,0,1-1.239-.494.943.943,0,0,1,.493-1.239,16.666,16.666,0,0,0,2.851-1.572.938.938,0,0,1,1.1.025l1.891,1.431,3.652-4.819-1.284-.975a.944.944,0,0,1-.25-1.219,16.642,16.642,0,0,0,2.138-6.836.945.945,0,0,1,.812-.852l1.8-.248-.827-5.992-1.8.248a.943.943,0,0,1-1.011-.6,16.852,16.852,0,0,0-4.245-6.326.942.942,0,0,1-.108-1.259l.855-1.128-4.821-3.653-1.452,1.917a.943.943,0,0,1-1.322.182.943.943,0,0,1-.182-1.323l2.021-2.667a.943.943,0,0,1,1.321-.183l6.325,4.792a.942.942,0,0,1,.183,1.322l-.921,1.217a18.8,18.8,0,0,1,3.829,5.74l2.005-.278a.948.948,0,0,1,1.066.807l1.083,7.861a.944.944,0,0,1-.806,1.065l-2.005.276a18.425,18.425,0,0,1-1.9,6.123l1.393,1.055a.943.943,0,0,1,.182,1.322l-4.792,6.326a.95.95,0,0,1-.623.365.986.986,0,0,1-.128.008A.951.951,0,0,1,5559.859-2706.465Zm-869.125-.385a.783.783,0,0,1-.783-.783.782.782,0,0,1,.783-.783h14.574a.782.782,0,0,1,.783.783.782.782,0,0,1-.783.783Zm-191.167-1.3c-16.921-11.624-23.7-23.768-26.414-31.907-2.958-8.889-1.878-14.953-1.831-15.207a.8.8,0,0,1,.786-.654c18.992,0,27.162-12.206,27.243-12.33a.831.831,0,0,1,1.341,0c.082.124,8.252,12.33,27.242,12.33a.8.8,0,0,1,.787.654c.047.253,1.127,6.317-1.832,15.207-2.709,8.14-9.492,20.283-26.414,31.907a.811.811,0,0,1-.454.141A.813.813,0,0,1,4499.567-2708.148Zm-26.753-46.172c-.381,3.929-.951,24.969,27.208,44.54,28.159-19.571,27.59-40.611,27.207-44.54-16.53-.249-24.889-9.177-27.207-12.132C4497.7-2763.5,4489.346-2754.569,4472.814-2754.32ZM5593.493-2711.2v-72.115a.945.945,0,0,1,.945-.945.944.944,0,0,1,.943.945v72.115a.944.944,0,0,1-.943.944A.945.945,0,0,1,5593.493-2711.2Zm-1527.713-3.9v-35.327l-7.8,9.154a1.121,1.121,0,0,1-1.583.127,1.123,1.123,0,0,1-.127-1.583l9.782-11.473a.939.939,0,0,1,.082-.07,1.072,1.072,0,0,1,.136-.118,1.234,1.234,0,0,1,.146-.082,1.151,1.151,0,0,1,.1-.056c.018-.006.037-.006.055-.01a1.134,1.134,0,0,1,.17-.035,1.259,1.259,0,0,1,.161-.017.991.991,0,0,1,.17.02.787.787,0,0,1,.163.032c.018,0,.037,0,.055.01.037.014.065.039.1.056a.9.9,0,0,1,.149.083,1.157,1.157,0,0,1,.136.115c.025.027.058.044.082.072l9.782,11.473a1.123,1.123,0,0,1-.127,1.583,1.121,1.121,0,0,1-1.583-.127l-7.8-9.154v35.327a1.122,1.122,0,0,1-1.123,1.122A1.121,1.121,0,0,1,4065.78-2715.1Zm104.065-5.1a5.864,5.864,0,0,1,5.857-5.858,5.864,5.864,0,0,1,5.857,5.858,5.863,5.863,0,0,1-5.857,5.856A5.863,5.863,0,0,1,4169.845-2720.2Zm2.245,0a3.615,3.615,0,0,0,3.612,3.609,3.615,3.615,0,0,0,3.612-3.609,3.616,3.616,0,0,0-3.612-3.612A3.616,3.616,0,0,0,4172.09-2720.2Zm-72.9,0a5.864,5.864,0,0,1,5.856-5.858,5.865,5.865,0,0,1,5.858,5.858,5.863,5.863,0,0,1-5.858,5.856A5.863,5.863,0,0,1,4099.188-2720.2Zm2.245,0a3.614,3.614,0,0,0,3.611,3.609,3.615,3.615,0,0,0,3.614-3.609,3.617,3.617,0,0,0-3.614-3.612A3.616,3.616,0,0,0,4101.434-2720.2Zm589.3,4.015a.783.783,0,0,1-.783-.783.784.784,0,0,1,.783-.784h14.574a.784.784,0,0,1,.783.784.782.782,0,0,1-.783.783Zm-339.084-.018h-81.289a1.087,1.087,0,0,1-1.087-1.088v-40.837a1.087,1.087,0,0,1,1.087-1.089h92.372a1.088,1.088,0,0,1,1.087,1.089,1.087,1.087,0,0,1-1.087,1.087h-7.117a26.276,26.276,0,0,1,5.351,7.024,1.088,1.088,0,0,1-.462,1.468,1.071,1.071,0,0,1-.5.124,1.087,1.087,0,0,1-.966-.586,24.12,24.12,0,0,0-6.8-8.03h-28.788a23.989,23.989,0,0,0-9.495,19.057,23.875,23.875,0,0,0,10.248,19.6h27.285a23.844,23.844,0,0,0,9.542-13.834,1.086,1.086,0,0,1,1.319-.794,1.088,1.088,0,0,1,.793,1.318,25.972,25.972,0,0,1-8.127,13.31h17.627a1.088,1.088,0,0,1,1.087,1.089,1.088,1.088,0,0,1-1.087,1.088h-20.706a.994.994,0,0,1-.127.018A1.147,1.147,0,0,1,4351.65-2716.2Zm-80.2-31.368v19.623a10.628,10.628,0,0,1,9.476,9.568h39.739a26.048,26.048,0,0,1-8.889-19.6,26.191,26.191,0,0,1,8.288-19.057h-39.143A10.631,10.631,0,0,1,4271.448-2747.569Zm0,29.092h7.281a8.454,8.454,0,0,0-7.281-7.28Zm0-31.282a8.457,8.457,0,0,0,7.281-7.281h-7.281Zm741.232,32.714a.944.944,0,0,1-.945-.944.943.943,0,0,1,.945-.943h41.172a.942.942,0,0,1,.943.943.943.943,0,0,1-.943.944Zm-63.15,0a.943.943,0,0,1-.943-.944.942.942,0,0,1,.943-.943h42.633a.943.943,0,0,1,.945.943.944.944,0,0,1-.945.944Zm-450-1.107c-14.373-11.271-18.825-22.231-20.029-29.441a.81.81,0,0,1,.14-.6.8.8,0,0,1,.52-.323,41.4,41.4,0,0,0,19.364-8.485.8.8,0,0,1,1,0,41.4,41.4,0,0,0,19.364,8.485.8.8,0,0,1,.52.323.8.8,0,0,1,.139.6c-1.2,7.209-5.654,18.17-20.028,29.441a.785.785,0,0,1-.493.172A.791.791,0,0,1,4499.528-2718.151Zm-18.308-28.923c1.329,6.843,5.733,16.864,18.8,27.274,13.069-10.412,17.473-20.431,18.8-27.274a42.9,42.9,0,0,1-18.8-8.281A42.92,42.92,0,0,1,4481.22-2747.074Zm1012.063,28.016a.945.945,0,0,1,0-1.335l43.165-43.506a.949.949,0,0,1,1.336-.006.946.946,0,0,1,0,1.335l-43.165,43.506a.938.938,0,0,1-.67.28A.95.95,0,0,1,5493.283-2719.058Zm-936.572-.12a.808.808,0,0,1-.81-.808.809.809,0,0,1,.81-.81h17.3a.81.81,0,0,1,.81.81.809.809,0,0,1-.81.808Zm839.662-.952a.944.944,0,0,1-.582-1.2.943.943,0,0,1,1.2-.583c.661.228,16.339,5.28,32.432-15.849a.945.945,0,0,1,1.324-.18.945.945,0,0,1,.179,1.324c-11.172,14.667-22.306,17.274-28.809,17.274A18.723,18.723,0,0,1,5396.373-2720.13Zm-731.979-.456a.909.909,0,0,1,.135-.69.912.912,0,0,1,.581-.391.923.923,0,0,1,.184-.018.921.921,0,0,1,.9.734.915.915,0,0,1-.135.69.912.912,0,0,1-.581.393,1.014,1.014,0,0,1-.184.018A.922.922,0,0,1,4664.394-2720.586Zm536.717-8.677a8.66,8.66,0,0,1,8.649-8.65,8.66,8.66,0,0,1,8.648,8.65,8.659,8.659,0,0,1-8.648,8.648A8.659,8.659,0,0,1,5201.111-2729.262Zm1.887,0a6.768,6.768,0,0,0,6.762,6.76,6.766,6.766,0,0,0,6.76-6.76,6.768,6.768,0,0,0-6.76-6.761A6.77,6.77,0,0,0,5203-2729.262Zm-866.247,7.112v-3.394h-5.334a1.089,1.089,0,0,1-1.09-1.087,1.09,1.09,0,0,1,1.09-1.089h6.409a5.88,5.88,0,0,0,5.873-5.874,5.778,5.778,0,0,0-5.771-5.771h-2.505a5.625,5.625,0,0,1-5.618-5.619,5.625,5.625,0,0,1,5.618-5.618h1.329v-3.9a1.09,1.09,0,0,1,1.089-1.089,1.087,1.087,0,0,1,1.087,1.089v3.9h3.29a1.088,1.088,0,0,1,1.088,1.087,1.09,1.09,0,0,1-1.088,1.09h-6.795a3.445,3.445,0,0,0-3.442,3.44,3.445,3.445,0,0,0,3.442,3.442h2.505a7.957,7.957,0,0,1,7.947,7.948,8.056,8.056,0,0,1-6.947,7.965v3.478a1.086,1.086,0,0,1-1.087,1.087A1.088,1.088,0,0,1,4336.751-2722.151Zm911.779-6.589a5.8,5.8,0,0,1,5.8-5.8,5.8,5.8,0,0,1,5.8,5.8,5.8,5.8,0,0,1-5.8,5.8A5.806,5.806,0,0,1,5248.53-2728.74Zm1.887,0a3.914,3.914,0,0,0,3.911,3.909,3.913,3.913,0,0,0,3.91-3.909,3.914,3.914,0,0,0-3.91-3.911A3.914,3.914,0,0,0,5250.417-2728.74Zm-237.737,3.273a.944.944,0,0,1-.945-.944.943.943,0,0,1,.945-.944h41.172a.943.943,0,0,1,.943.944.944.944,0,0,1-.943.944Zm-63.15,0a.944.944,0,0,1-.943-.944.943.943,0,0,1,.943-.944h42.633a.943.943,0,0,1,.945.944.944.944,0,0,1-.945.944Zm-262.5-.049a.781.781,0,0,1-.782-.781.782.782,0,0,1,.782-.783h18.282a.783.783,0,0,1,.783.783.781.781,0,0,1-.783.781ZM4223.832-2726v-7.479c-7.825-.738-14.015-9.113-14.015-19.31,0-10.682,6.791-19.371,15.137-19.371s15.138,8.689,15.138,19.371c0,10.2-6.192,18.572-14.015,19.31V-2726Zm2.245-17.009v7.275c6.585-.759,11.769-8.115,11.769-17.056,0-9.443-5.782-17.125-12.892-17.125s-12.891,7.682-12.891,17.125c0,8.941,5.184,16.3,11.769,17.056v-7.275a1.122,1.122,0,0,1,1.122-1.123A1.123,1.123,0,0,1,4226.076-2743.007Zm330.635,16.96a.808.808,0,0,1-.81-.808.809.809,0,0,1,.81-.808h17.3a.81.81,0,0,1,.81.808.808.808,0,0,1-.81.808Zm-296.188-2v-38.923a1.088,1.088,0,0,1,1.087-1.089h74.869a1.09,1.09,0,0,1,1.09,1.089,1.089,1.089,0,0,1-1.09,1.087H4262.7v37.836a1.089,1.089,0,0,1-1.089,1.089A1.088,1.088,0,0,1,4260.523-2728.046Zm238.715-1.635-9.864-10.841a.724.724,0,0,1-.011-.962l.715-.83a.726.726,0,0,1,1.086-.015l7.853,8.631a.725.725,0,0,0,1.1-.03l8.707-10.662a.728.728,0,0,1,1.087-.044l.748.779a.728.728,0,0,1,.038.962l-11.022,13.49Zm322.6-.632a1.108,1.108,0,0,1,.862-1.305,1.073,1.073,0,0,1,.221-.022,1.112,1.112,0,0,1,1.084.886,1.11,1.11,0,0,1-.863,1.305,1.194,1.194,0,0,1-.221.021A1.108,1.108,0,0,1,4821.842-2730.313Zm671.436-2.412a.943.943,0,0,1,.006-1.335l43.165-42.786a.945.945,0,0,1,1.335,0,.945.945,0,0,1-.005,1.335l-43.166,42.786a.942.942,0,0,1-.665.275A.943.943,0,0,1,5493.278-2732.725Zm-1241.629-.91v-42.42a1.088,1.088,0,0,1,1.088-1.087h62.229a1.089,1.089,0,0,1,1.089,1.087,1.09,1.09,0,0,1-1.089,1.089h-61.141v41.332a1.089,1.089,0,0,1-1.088,1.087A1.088,1.088,0,0,1,4251.649-2733.635Zm305.062.719a.808.808,0,0,1-.81-.808.81.81,0,0,1,.81-.81h17.3a.811.811,0,0,1,.81.81.808.808,0,0,1-.81.808Zm-263.341-4.792a4.267,4.267,0,0,1,4.263-4.264,4.267,4.267,0,0,1,4.262,4.264,4.267,4.267,0,0,1-4.262,4.263A4.267,4.267,0,0,1,4293.37-2737.708Zm2.176,0a2.09,2.09,0,0,0,2.087,2.087,2.09,2.09,0,0,0,2.087-2.087,2.09,2.09,0,0,0-2.087-2.089A2.089,2.089,0,0,0,4295.545-2737.708Zm873.3,3.736a.942.942,0,0,1,.031-1.334l36.773-35.131-46.014-49.759-26.213,24.567v-2.588l14.283-13.384h-14.283v-1.887h16.3l2.426-2.274a4.056,4.056,0,0,0-3.691-2.387,4.055,4.055,0,0,0-2.142.615.942.942,0,0,1-1.253-.235,8.477,8.477,0,0,0-6.813-3.231,8.849,8.849,0,0,0-4.823,1.393v-2.16a10.847,10.847,0,0,1,4.823-1.121,10.482,10.482,0,0,1,7.809,3.36,5.911,5.911,0,0,1,2.4-.508,5.948,5.948,0,0,1,5.126,2.931l5.458-5.116a.906.906,0,0,1,.679-.253.938.938,0,0,1,.659.3l46.638,50.433,13.656-13.046a.943.943,0,0,1,1.26-.038l25.477,21.573a.944.944,0,0,1,.111,1.331.944.944,0,0,1-1.331.11l-24.83-21.024-13.274,12.681a.939.939,0,0,1-.3.637.938.938,0,0,1-.627.248l-36.979,35.328a.942.942,0,0,1-.652.26A.94.94,0,0,1,5168.847-2733.972Zm-156.167.08a.944.944,0,0,1-.945-.944.945.945,0,0,1,.945-.945h41.172a.945.945,0,0,1,.943.945.944.944,0,0,1-.943.944Zm-63.15,0a.944.944,0,0,1-.943-.944.945.945,0,0,1,.943-.945h15.41a.945.945,0,0,1,.943.945.944.944,0,0,1-.943.944Zm-271.964-.956a.783.783,0,0,1-.782-.783.782.782,0,0,1,.782-.783h27.743a.782.782,0,0,1,.783.783.782.782,0,0,1-.783.783Zm906.477-1.784v-46.685a.944.944,0,0,1,.945-.945.943.943,0,0,1,.942.945v46.685a.943.943,0,0,1-.942.943A.944.944,0,0,1,5584.042-2736.632Zm-114.806,0v-5.346a.945.945,0,0,1,.943-.944.944.944,0,0,1,.943.944v5.346a.942.942,0,0,1-.943.943A.943.943,0,0,1,5469.236-2736.632Zm-392.751-2.108v-44.069a.945.945,0,0,1,.943-.945.945.945,0,0,1,.944.945v44.069a.944.944,0,0,1-.944.945A.944.944,0,0,1,5076.485-2738.74Zm-163.78-.5v-4.393a.944.944,0,0,1,.944-.943.944.944,0,0,1,.945.943v4.393a.944.944,0,0,1-.945.944A.945.945,0,0,1,4912.7-2739.24Zm249.28.341a.945.945,0,0,1,.025-1.335l21.983-21.162a.945.945,0,0,1,1.335.025.943.943,0,0,1-.025,1.333l-21.985,21.162a.933.933,0,0,1-.653.265A.946.946,0,0,1,5161.984-2738.9Zm108.1-.278a.944.944,0,0,1-.943-.945v-16.416h-8.148a.944.944,0,0,1-.856-.548.943.943,0,0,1,.135-1.006l26.915-31.845a.974.974,0,0,1,1.442,0l26.917,31.845a.945.945,0,0,1,.134,1.006.945.945,0,0,1-.856.548h-8.148v16.416a.944.944,0,0,1-.944.945Zm14.016-1.887h20.688v-16.418a.943.943,0,0,1,.943-.944h7.059l-24.88-29.441-24.883,29.441h7.058a.944.944,0,0,1,.944.944v16.418h11.185v-25.51l-3.611,3.611a.943.943,0,0,1-1.335,0,.941.941,0,0,1,0-1.333l5.223-5.222c.01-.01.022-.016.034-.025a.989.989,0,0,1,.117-.086.731.731,0,0,1,.114-.069c.014-.007.025-.018.041-.025s.061-.013.09-.023a1.183,1.183,0,0,1,.135-.032.869.869,0,0,1,.135-.007.876.876,0,0,1,.137.007,1.112,1.112,0,0,1,.132.032c.031.01.062.011.092.023s.028.018.041.025a.928.928,0,0,1,.114.067.944.944,0,0,1,.117.087c.011.01.025.016.035.025l5.222,5.222a.942.942,0,0,1,0,1.333.943.943,0,0,1-1.335,0l-3.611-3.611Zm-727.386,1.279a.808.808,0,0,1-.81-.808.809.809,0,0,1,.81-.808h17.3a.81.81,0,0,1,.81.808.809.809,0,0,1-.81.808Zm874.92-.987a1.109,1.109,0,0,1,.863-1.3,1.218,1.218,0,0,1,.223-.021,1.108,1.108,0,0,1,1.082.883,1.089,1.089,0,0,1-.161.831,1.1,1.1,0,0,1-.7.475,1.076,1.076,0,0,1-.22.022A1.112,1.112,0,0,1,5431.631-2740.772Zm-34.724-.33a.814.814,0,0,1-.727-.889l3.284-42.085a.794.794,0,0,1,.855-.758.817.817,0,0,1,.728.889l-3.286,42.088a.806.806,0,0,1-.79.758A.493.493,0,0,1,5396.907-2741.1Zm-476.487-.551-3.107-3.107a.942.942,0,0,1,0-1.334.943.943,0,0,1,1.335,0l3.105,3.105a.943.943,0,0,1,0,1.335.94.94,0,0,1-.667.276A.936.936,0,0,1,4920.419-2741.652Zm-14.875,0a.943.943,0,0,1,0-1.335l3.105-3.105a.942.942,0,0,1,1.333,0,.942.942,0,0,1,0,1.334l-3.1,3.107a.944.944,0,0,1-.667.276A.942.942,0,0,1,4905.545-2741.652Zm43.985-.663a.944.944,0,0,1-.943-.944.944.944,0,0,1,.943-.944h11.3a.944.944,0,0,1,.943.944.944.944,0,0,1-.943.944Zm-279.82-.858v-27.345h-44.971v22.726H4656a.782.782,0,0,1,.783.783.782.782,0,0,1-.783.783h-55.785a.783.783,0,0,1-.783-.783.783.783,0,0,1,.783-.783h22.955v-15.655a13.37,13.37,0,0,1-5.865,1.359,13.411,13.411,0,0,1-13.4-13.4,13.412,13.412,0,0,1,13.4-13.4,13.413,13.413,0,0,1,13.4,13.4,13.405,13.405,0,0,1-.445,3.4h40.232a.782.782,0,0,1,.783.783v28.128a.783.783,0,0,1-.783.783A.783.783,0,0,1,4669.71-2743.173Zm-64.233-32.313a11.844,11.844,0,0,0,11.831,11.832,11.806,11.806,0,0,0,5.865-1.562v-6.085a.783.783,0,0,1,.783-.783h4.681a11.885,11.885,0,0,0,.5-3.4,11.844,11.844,0,0,0-11.831-11.831A11.844,11.844,0,0,0,4605.477-2775.486Zm72.088,31.3a.782.782,0,0,1-.782-.783.784.784,0,0,1,.782-.783h27.743a.783.783,0,0,1,.783.783.782.782,0,0,1-.783.783Zm814.192-1.437a.943.943,0,0,1,0-1.335l44.688-44.327a.945.945,0,0,1,1.335,0,.945.945,0,0,1-.005,1.335l-44.688,44.328a.942.942,0,0,1-.665.273A.94.94,0,0,1,5491.757-2745.618Zm-17.271.279a.944.944,0,0,1-.944-.944.943.943,0,0,1,.944-.943h5.346a.942.942,0,0,1,.943.943.943.943,0,0,1-.943.944Zm-13.958,0a.944.944,0,0,1-.944-.944.943.943,0,0,1,.944-.943h5.346a.943.943,0,0,1,.944.943.944.944,0,0,1-.944.944Zm-91.671-1.712a9.777,9.777,0,0,1-.362-2.642,9.227,9.227,0,0,1,9.016-9.4,8.6,8.6,0,0,1,2.751.449,8.636,8.636,0,0,1,8.151-5.478,8.861,8.861,0,0,1,5.9,2.218.847.847,0,0,1,.087,1.163.775.775,0,0,1-1.12.092,7.306,7.306,0,0,0-4.87-1.822,7,7,0,0,0-6.89,5.113.815.815,0,0,1-.421.531.765.765,0,0,1-.661.014,7.129,7.129,0,0,0-2.932-.63,7.6,7.6,0,0,0-7.428,7.754,8.085,8.085,0,0,0,.3,2.181.828.828,0,0,1-.54,1.022.716.716,0,0,1-.224.034A.8.8,0,0,1,5368.858-2747.052Zm-812.147.4a.809.809,0,0,1-.81-.81.808.808,0,0,1,.81-.808h17.3a.809.809,0,0,1,.81.808.81.81,0,0,1-.81.81Zm645.724-2.6a7.354,7.354,0,0,1-3.419-2.415,7.186,7.186,0,0,0-1.032-1.041c-.191-.153-.3-.134-.348-.124-.356.066-.824.6-1.028.942a.946.946,0,0,1-1.292.33.944.944,0,0,1-.335-1.287,3.976,3.976,0,0,1,2.305-1.838,2.269,2.269,0,0,1,1.868.494,9.077,9.077,0,0,1,1.292,1.293,5.466,5.466,0,0,0,2.653,1.879c2.626.99,5,1.677,7.524.086,3.184-2.011,5.487-3.469,7.4-3.066a8.8,8.8,0,0,1,2.122.841,5.218,5.218,0,0,0,2.446.8c2.112-.039,3.523-.382,4.308-1.045a.943.943,0,0,1,1.331.114.944.944,0,0,1-.114,1.329c-1.5,1.27-3.854,1.458-5.49,1.489a7.353,7.353,0,0,1-3.326-1,7.4,7.4,0,0,0-1.661-.68c-1.17-.244-3.412,1.175-6.006,2.814a7.636,7.636,0,0,1-4.18,1.237A14.42,14.42,0,0,1,5202.435-2749.251Zm-282.66.438a.944.944,0,0,1-.944-.944.944.944,0,0,1,.944-.944h4.391a.944.944,0,0,1,.945.944.944.944,0,0,1-.945.944Zm-16.643,0a.943.943,0,0,1-.942-.944.943.943,0,0,1,.942-.944h4.392a.943.943,0,0,1,.944.944.943.943,0,0,1-.944.944Zm-99.121-.655a.943.943,0,0,1-.943-.943v-11.4a8.967,8.967,0,0,1,8.957-8.957,8.967,8.967,0,0,1,8.955,8.957v11.4a.942.942,0,0,1-.942.943Zm.943-12.348v10.461h14.139v-10.461a7.076,7.076,0,0,0-7.069-7.068A7.076,7.076,0,0,0,4804.954-2761.816Zm309.9,11.217v-4.726a1.01,1.01,0,0,1,1.061-.952,1.012,1.012,0,0,1,1.061.952v4.726a1.013,1.013,0,0,1-1.061.955A1.011,1.011,0,0,1,5114.849-2750.6Zm354.387.01v-5.346a.943.943,0,0,1,.943-.943.942.942,0,0,1,.943.943v5.346a.943.943,0,0,1-.943.944A.944.944,0,0,1,5469.236-2750.589Zm-123.057-.763a1.107,1.107,0,0,1,.862-1.3,1.1,1.1,0,0,1,.223-.022,1.111,1.111,0,0,1,1.083.884,1.1,1.1,0,0,1-.162.831,1.09,1.09,0,0,1-.7.474,1.145,1.145,0,0,1-.22.023A1.109,1.109,0,0,1,5346.179-2751.353Zm-689.559.486a.783.783,0,0,1,0-1.107l8.6-8.6a.785.785,0,0,1,1.108,0,.784.784,0,0,1,0,1.107l-8.6,8.6a.78.78,0,0,1-.552.229A.786.786,0,0,1,4656.62-2750.867Zm-14,0a.783.783,0,0,1,0-1.107l14.789-14.788a.785.785,0,0,1,1.108,0,.787.787,0,0,1,0,1.108l-14.789,14.787a.783.783,0,0,1-.555.229A.786.786,0,0,1,4642.622-2750.867Zm-14.321,0a.785.785,0,0,1,0-1.108l15.233-15.128a.784.784,0,0,1,1.108,0,.784.784,0,0,1,0,1.108l-15.235,15.131a.78.78,0,0,1-.552.227A.782.782,0,0,1,4628.3-2750.868Zm321.229.129a.943.943,0,0,1-.943-.943.944.944,0,0,1,.943-.945h11.3a.944.944,0,0,1,.943.945.943.943,0,0,1-.943.943Zm-72.287-.624a4.777,4.777,0,0,1-4.056-3.473,4.543,4.543,0,0,1-1.845.445c-.058,0-.114,0-.172,0a3.168,3.168,0,0,1-2.375-1.292c-1.443-1.852-1.546-3.321-1.19-4.416-.1,0-.2-.006-.3-.018a3.547,3.547,0,0,1-2.414-1.484,3.572,3.572,0,0,1-.768-2.815,3.317,3.317,0,0,1,.173-.608,3.545,3.545,0,0,1-2.076-1.512c-.648-.963-.528-2.77.135-4.318a14.262,14.262,0,0,1-4.1-7.578l-.275.247a.938.938,0,0,1-.629.241.939.939,0,0,1-.688-.3l-4.09-4.366-2.456,2.167a.935.935,0,0,1-.625.237.941.941,0,0,1-.673-.283l-10.376-10.582a.941.941,0,0,1,.014-1.334.944.944,0,0,1,1.334.013l9.748,9.943L4868.291-2799l-6.5-7.2a.942.942,0,0,1,.069-1.332.942.942,0,0,1,1.332.069l7.14,7.909a.937.937,0,0,1,.241.686.941.941,0,0,1-.317.655l-1.377,1.215,3.7,3.833a13.556,13.556,0,0,1,8.228,2.419c.665-.5,1.235-.935,1.647-1.29,3.031-2.611,5.916-4.005,10.134-2.317a8.228,8.228,0,0,0,6.115-.2l-1.246-1.572a.944.944,0,0,1,.135-1.311l3.168-2.643-.783-.97a.945.945,0,0,1,.12-1.307l12.249-10.555a.947.947,0,0,1,1.333.1.944.944,0,0,1-.1,1.331l-11.559,9.959,11.994,14.885,4.68-3.008a.943.943,0,0,1,1.3.284.945.945,0,0,1-.283,1.3l-5.394,3.466a.936.936,0,0,1-.51.151.941.941,0,0,1-.735-.352l-.987-1.227-3.28,2.676a.945.945,0,0,1-.6.213.788.788,0,0,1-.1-.006.936.936,0,0,1-.593-.306,5.108,5.108,0,0,0-1.7,3.283l.017.371c.125,2.553.33,6.758-5.624,11.292.928,1.535,1.6,3.784-.126,5.22a3.422,3.422,0,0,1-2.212.86,3.381,3.381,0,0,1-.358-.02,3.558,3.558,0,0,1-.816-.193,3.643,3.643,0,0,1-1.473,3.046,3.436,3.436,0,0,1-2.072.665,5.579,5.579,0,0,1-2.162-.5c-.006.122-.006.246-.021.369a3.348,3.348,0,0,1-1.725,2.481,3.6,3.6,0,0,1-1.831.512,5.385,5.385,0,0,1-3.5-1.634,8,8,0,0,1-2.366,4.864,5.347,5.347,0,0,1-3.659,1.505A5.112,5.112,0,0,1,4877.243-2751.363Zm.652-7.272-.238.248a22.831,22.831,0,0,1-2.787,2.538,3.011,3.011,0,0,0,2.61,2.615,3.4,3.4,0,0,0,2.774-.975,6.323,6.323,0,0,0,1.828-4.818,2.339,2.339,0,0,0-1.849-2.481A15.3,15.3,0,0,1,4877.9-2758.635Zm-2.818-6.6a9.054,9.054,0,0,1-2.567,3.052,13.121,13.121,0,0,1-2.16,1.4c-.977.886-1.676,1.873-.064,3.94a1.268,1.268,0,0,0,.983.568,3.539,3.539,0,0,0,2.038-.77.084.084,0,0,1,.014-.01,19.42,19.42,0,0,0,2.976-2.634l.242-.252c2.282-2.367,3.1-3.655,1.89-5.015a2.191,2.191,0,0,0-1.69-.8A3.279,3.279,0,0,0,4875.077-2765.238Zm4.763-.973a3.6,3.6,0,0,1,1.017,2.914,4.01,4.01,0,0,1,2.556,2.01c.322.515,2.784,4.3,4.878,3.087a1.467,1.467,0,0,0,.8-1.111c.273-1.946-2.4-5.228-3.36-6.226a.944.944,0,0,1,.027-1.333.945.945,0,0,1,1.335.027,18.2,18.2,0,0,1,3.388,4.983,1.068,1.068,0,0,1,.149.091c.02.013,2.2,1.593,3.466.662,1.052-.772.677-2.31.505-2.844a32.8,32.8,0,0,1-3.931-4.488.947.947,0,0,1,.173-1.325.947.947,0,0,1,1.324.172c1.9,2.468,4.045,5.111,5.544,5.277a1.46,1.46,0,0,0,1.156-.418c1.146-.952-.685-3.377-.7-3.4h0l-11.922-15.17c-2.728,2.479-7.139,5.837-10.686,5.474a4.23,4.23,0,0,1-3.134-1.857c-2.052-2.966,2.739-6.842,6.769-9.858a11.9,11.9,0,0,0-6.6-1.728l-12.639,11.327a12.628,12.628,0,0,0,3.426,7.458c.016-.015.029-.034.043-.049a3.782,3.782,0,0,1,4.974-.567.637.637,0,0,1,.1.069,4.419,4.419,0,0,1,1.466,2.228,4.025,4.025,0,0,1,4.625,1.2,3.945,3.945,0,0,1,.918,2.145,4.768,4.768,0,0,1,1.274-.182A3.98,3.98,0,0,1,4879.84-2766.211Zm-9.947-2.526a4.871,4.871,0,0,1-.851,1.507,6.813,6.813,0,0,1-2.173,1.863,2.293,2.293,0,0,0-.888,1.29,1.743,1.743,0,0,0,.426,1.346,1.67,1.67,0,0,0,1.151.74c.636.083,1.811-.135,3.79-1.682.492-.384,2.108-1.75,2.271-3.214a1.991,1.991,0,0,0-.494-1.534,2,2,0,0,0-1.612-.779A3.535,3.535,0,0,0,4869.893-2768.738Zm-5.088-2.522a4.325,4.325,0,0,0-1.018,3.664,1.629,1.629,0,0,0,1.255.784,1.9,1.9,0,0,0,.905-.2l.051-.027a5,5,0,0,0,1.576-1.373,2.292,2.292,0,0,0,.615-1.675,2.424,2.424,0,0,0-.806-1.422,2.637,2.637,0,0,0-1.26-.383A1.763,1.763,0,0,0,4864.8-2771.26Zm21.616-14.377a.943.943,0,0,1,.675.358l11.991,15.257c5.138-3.925,4.969-7.368,4.856-9.679l-.019-.386c-.087-2.074,1.458-3.915,2.4-4.842l-6.425-8.106a10.193,10.193,0,0,1-8.023.431c-3.36-1.342-5.553-.284-8.2,2-.568.489-1.371,1.089-2.293,1.776h0l-.179.132c-2.725,2.027-8.4,6.244-7.23,7.933a2.341,2.341,0,0,0,1.776,1.053c2.262.235,5.979-1.887,9.951-5.668a.951.951,0,0,1,.658-.26Zm-32.428,1.776,3.419,3.65,13.43-12.034-3.38-3.507Zm45.508-12.72,8.85,11.165,2.548-2.077-8.959-11.121Zm362.794,43.874a1.1,1.1,0,0,1,.161-.829,1.1,1.1,0,0,1,.7-.475,1.148,1.148,0,0,1,.221-.022,1.109,1.109,0,0,1,1.083.886,1.1,1.1,0,0,1-.162.831,1.1,1.1,0,0,1-.7.473,1.077,1.077,0,0,1-.223.023A1.109,1.109,0,0,1,5262.295-2752.708Zm-30.139-.124a1.108,1.108,0,0,1,.862-1.3,1.1,1.1,0,0,1,.223-.022,1.108,1.108,0,0,1,1.082.884,1.1,1.1,0,0,1-.159.831,1.1,1.1,0,0,1-.7.475,1.19,1.19,0,0,1-.221.021A1.107,1.107,0,0,1,5232.156-2752.831Zm16.53.848a.945.945,0,0,1-.854-.546.943.943,0,0,1,.134-1.007l26.915-31.845a.945.945,0,0,1,1.332-.113.946.946,0,0,1,.111,1.331l-25.6,30.292h7.06a.944.944,0,0,1,.944.944.945.945,0,0,1-.944.945Zm-632.163-1.419v-4.261a.784.784,0,0,1,.783-.783.782.782,0,0,1,.783.783v4.261a.782.782,0,0,1-.783.784A.784.784,0,0,1,4616.523-2753.4Zm-175.67-4.9a5.494,5.494,0,0,1,5.488-5.488,5.494,5.494,0,0,1,5.488,5.488,5.494,5.494,0,0,1-5.488,5.488A5.494,5.494,0,0,1,4440.853-2758.305Zm1.8,0a3.7,3.7,0,0,0,3.691,3.693,3.7,3.7,0,0,0,3.692-3.693,3.7,3.7,0,0,0-3.692-3.692A3.7,3.7,0,0,0,4442.65-2758.305Zm-340.521,4.138v-6.056a1.123,1.123,0,0,1,1.122-1.123,1.123,1.123,0,0,1,1.123,1.123v6.056a1.122,1.122,0,0,1-1.123,1.121A1.121,1.121,0,0,1,4102.129-2754.168Zm815.183.746a.943.943,0,0,1,0-1.335l3.107-3.105a.944.944,0,0,1,1.333,0,.943.943,0,0,1,0,1.335l-3.105,3.105a.947.947,0,0,1-.667.276A.947.947,0,0,1,4917.313-2753.421Zm-8.662,0-3.105-3.105a.943.943,0,0,1,0-1.335.946.946,0,0,1,1.335,0l3.1,3.105a.943.943,0,0,1,0,1.335.942.942,0,0,1-.666.276A.944.944,0,0,1,4908.65-2753.421Zm-231.085-.093a.782.782,0,0,1-.782-.783.784.784,0,0,1,.782-.783h27.743a.783.783,0,0,1,.783.783.782.782,0,0,1-.783.783Zm-119.763-.007a.808.808,0,0,1-.808-.808.81.81,0,0,1,.808-.81h15.122a.81.81,0,0,1,.809.81.808.808,0,0,1-.809.808Zm568.991-.734-3.718-3.342a.883.883,0,0,1,0-1.346,1.144,1.144,0,0,1,1.5,0l3.718,3.341a.887.887,0,0,1,0,1.348,1.113,1.113,0,0,1-.75.279A1.118,1.118,0,0,1,5126.793-2754.255Zm-23.268,0a.884.884,0,0,1,0-1.348l3.719-3.341a1.145,1.145,0,0,1,1.5,0,.886.886,0,0,1,0,1.346l-3.72,3.342a1.115,1.115,0,0,1-.75.279A1.114,1.114,0,0,1,5103.525-2754.255Zm-190.821-1.626v-4.394a.943.943,0,0,1,.944-.942.943.943,0,0,1,.945.942v4.394a.945.945,0,0,1-.945.943A.945.945,0,0,1,4912.7-2755.882Zm504.75.589a.807.807,0,0,1-.792-.777l-1.52-27.894a.815.815,0,0,1,.749-.87.815.815,0,0,1,.837.779l1.52,27.892a.816.816,0,0,1-.748.87Zm-1016.82-.763a.9.9,0,0,1-.9-.9v-37.284h-9.486a.9.9,0,0,1-.821-.534.9.9,0,0,1,.156-.967l16.4-18.061a.927.927,0,0,1,1.33,0l16.4,18.061a.9.9,0,0,1,.156.967.9.9,0,0,1-.821.534h-9.486v37.284a.9.9,0,0,1-.9.9Zm-8.355-39.977h8.355a.9.9,0,0,1,.9.9v37.284h10.243v-37.284a.9.9,0,0,1,.9-.9h8.355l-14.376-15.826Zm1018.6,39.394a.808.808,0,0,1-.792-.8l-.692-26.545a.812.812,0,0,1,.773-.848.82.82,0,0,1,.815.8l.691,26.546a.814.814,0,0,1-.773.848Zm-1299.315-.508-4.281-4.283a1.123,1.123,0,0,1,0-1.587,1.121,1.121,0,0,1,1.587,0l4.281,4.281a1.125,1.125,0,0,1,0,1.589,1.123,1.123,0,0,1-.794.328A1.121,1.121,0,0,1,4111.57-2757.148Zm-18.225,0a1.125,1.125,0,0,1,0-1.589l4.283-4.281a1.12,1.12,0,0,1,1.587,0,1.123,1.123,0,0,1,0,1.587l-4.281,4.283a1.125,1.125,0,0,1-.794.328A1.127,1.127,0,0,1,4093.346-2757.148Zm1465.014-1.514v-27.326a.943.943,0,0,1,.943-.943.943.943,0,0,1,.945.943v27.326a.944.944,0,0,1-.945.944A.945.945,0,0,1,5558.359-2758.662Zm-224.239.944a.944.944,0,0,1-.944-.944.944.944,0,0,1,.944-.944h17.053a.944.944,0,0,1,.944.944.944.944,0,0,1-.944.944Zm-126.6-.749a5.5,5.5,0,0,1-2.66-1.748,2.969,2.969,0,0,0-1.191-.911c-.878-.354-1.714,1.165-1.722,1.18a.941.941,0,0,1-1.273.4.942.942,0,0,1-.4-1.271c.553-1.063,2.122-2.863,4.1-2.059a4.784,4.784,0,0,1,1.875,1.387,3.68,3.68,0,0,0,1.852,1.228c2.038.666,7.516-.408,8.223-1.046a2.3,2.3,0,0,1,1.573-.91,5.8,5.8,0,0,1,4.116,1.388,5.3,5.3,0,0,0,5.947-.479c2.105-2,4.487-1.659,6.54-1.059,1.317.383,3.979-.1,4.892-.32a.944.944,0,0,1,1.138.7.945.945,0,0,1-.7,1.138c-.386.093-3.829.889-5.861.3-1.919-.562-3.377-.653-4.71.614a7.135,7.135,0,0,1-8.382.621,4.041,4.041,0,0,0-2.692-1.034.484.484,0,0,0-.363.183c-.821,1.156-4.949,1.976-7.929,1.976A8.181,8.181,0,0,1,5207.521-2758.467Zm217.894-5.926a5.477,5.477,0,0,1,5.364-5.574,5.478,5.478,0,0,1,5.364,5.574,5.479,5.479,0,0,1-5.364,5.575A5.478,5.478,0,0,1,5425.415-2764.393Zm1.587,0a3.857,3.857,0,0,0,3.777,3.925,3.857,3.857,0,0,0,3.775-3.925,3.857,3.857,0,0,0-3.775-3.925A3.858,3.858,0,0,0,5427-2764.393Zm-477.472,5.23a.944.944,0,0,1-.943-.945.942.942,0,0,1,.943-.942h11.3a.942.942,0,0,1,.943.942.944.944,0,0,1-.943.945Zm-349.439-.589a.783.783,0,0,1,0-1.107l3.012-3.012a.782.782,0,0,1,1.108,0,.783.783,0,0,1,0,1.107l-3.014,3.012a.78.78,0,0,1-.554.229A.779.779,0,0,1,4600.09-2759.752Zm891.67-.349a.942.942,0,0,1,0-1.334l15.837-15.839a.943.943,0,0,1,1.335,0,.946.946,0,0,1,0,1.335l-15.839,15.838a.941.941,0,0,1-.667.277A.94.94,0,0,1,5491.76-2760.1Zm-933.958-.29a.808.808,0,0,1-.808-.81.808.808,0,0,1,.808-.807h15.122a.808.808,0,0,1,.809.807.809.809,0,0,1-.809.81Zm70.5-1.6a.78.78,0,0,1,0-1.107l5.305-5.3a.781.781,0,0,1,1.107,0,.783.783,0,0,1,0,1.107l-5.305,5.3a.778.778,0,0,1-.555.228A.773.773,0,0,1,4628.3-2761.99Zm49.262-.856a.784.784,0,0,1-.782-.783.782.782,0,0,1,.782-.783h27.743a.782.782,0,0,1,.783.783.783.783,0,0,1-.783.783Zm510.52-1.169a1.107,1.107,0,0,1,.862-1.3,1.094,1.094,0,0,1,.223-.022,1.108,1.108,0,0,1,1.082.886,1.1,1.1,0,0,1-.161.831,1.1,1.1,0,0,1-.7.473,1.17,1.17,0,0,1-.22.023A1.111,1.111,0,0,1,5188.085-2764.014Zm-60.983-.416a1.01,1.01,0,0,1-1.06-.953,1.01,1.01,0,0,1,1.06-.953h5.26a1.012,1.012,0,0,1,1.061.953,1.012,1.012,0,0,1-1.061.953Zm-27.647,0a1.011,1.011,0,0,1-1.061-.953,1.011,1.011,0,0,1,1.061-.953h5.26a1.011,1.011,0,0,1,1.061.953,1.011,1.011,0,0,1-1.061.953Zm265.307-.97a8.108,8.108,0,0,1-1.386-4.525,8.64,8.64,0,0,1,7.981-8.4c-.013-.179-.019-.361-.019-.538a8.693,8.693,0,0,1,8.9-8.444,9.271,9.271,0,0,1,4.53,1.173.942.942,0,0,1,.362,1.284.941.941,0,0,1-1.284.361,7.4,7.4,0,0,0-3.608-.929,6.805,6.805,0,0,0-7.018,6.555,6.134,6.134,0,0,0,.132,1.255.943.943,0,0,1-.2.792.941.941,0,0,1-.727.342l-.136-.006h0a6.808,6.808,0,0,0-7.029,6.554,6.222,6.222,0,0,0,1.066,3.473.942.942,0,0,1-.259,1.31.936.936,0,0,1-.524.161A.945.945,0,0,1,5364.763-2765.4Zm-1254.68-.531a1.124,1.124,0,0,1-1.124-1.124,1.124,1.124,0,0,1,1.124-1.123h6.054a1.123,1.123,0,0,1,1.124,1.123,1.123,1.123,0,0,1-1.124,1.124Zm-19.717,0a1.123,1.123,0,0,1-1.122-1.124,1.123,1.123,0,0,1,1.122-1.123h6.056a1.123,1.123,0,0,1,1.123,1.123,1.123,1.123,0,0,1-1.123,1.124Zm467.833-1.328a.809.809,0,0,1-.809-.81.808.808,0,0,1,.809-.808h14.331a.807.807,0,0,1,.807.808.808.808,0,0,1-.807.81Zm391.332-.328a.943.943,0,0,1-.943-.943.943.943,0,0,1,.943-.944h11.3a.943.943,0,0,1,.943.944.943.943,0,0,1-.943.943Zm-439.36-17.342a17.024,17.024,0,0,1,17.005-17.006,17.024,17.024,0,0,1,17.006,17.006,17.025,17.025,0,0,1-17.006,17.006A17.025,17.025,0,0,1,4510.17-2784.929Zm2.1,0a14.92,14.92,0,0,0,14.9,14.9,14.921,14.921,0,0,0,14.9-14.9,14.921,14.921,0,0,0-14.9-14.9A14.92,14.92,0,0,0,4512.272-2784.929Zm891.479,15.694a.993.993,0,0,1,.135-.725.93.93,0,0,1,.591-.414.938.938,0,0,1,.186-.02.943.943,0,0,1,.911.775.99.99,0,0,1-.135.727.928.928,0,0,1-.591.414.912.912,0,0,1-.185.02A.946.946,0,0,1,5403.751-2769.235Zm-90.074-.031a.943.943,0,0,1-.943-.943.943.943,0,0,1,.943-.944h20.309a9.033,9.033,0,0,0-9.009-8.55,8.951,8.951,0,0,0-5.246,1.694.95.95,0,0,1-.792.145.943.943,0,0,1-.616-.52,7.194,7.194,0,0,0-6.515-4.187,7.212,7.212,0,0,0-7,5.623.944.944,0,0,1-1.125.72.944.944,0,0,1-.718-1.125,9.112,9.112,0,0,1,8.847-7.1,9.083,9.083,0,0,1,7.72,4.332,10.81,10.81,0,0,1,5.449-1.468,10.923,10.923,0,0,1,10.909,10.91c0,.124-.009.247-.016.368l-.01.149a.943.943,0,0,1-.942.9Zm-842.328-8.85a7.648,7.648,0,0,1,7.5-7.768,7.647,7.647,0,0,1,7.5,7.768,7.647,7.647,0,0,1-7.5,7.77A7.648,7.648,0,0,1,4471.35-2778.116Zm2.168,0a5.438,5.438,0,0,0,5.333,5.525,5.438,5.438,0,0,0,5.333-5.525,5.436,5.436,0,0,0-5.333-5.523A5.437,5.437,0,0,0,4473.518-2778.116Zm-366.229,7.026a1.124,1.124,0,0,1,0-1.588l4.281-4.281a1.12,1.12,0,0,1,1.587,0,1.123,1.123,0,0,1,0,1.587l-4.281,4.282a1.124,1.124,0,0,1-.794.328A1.12,1.12,0,0,1,4107.289-2771.09Zm-9.661,0-4.283-4.282a1.123,1.123,0,0,1,0-1.587,1.122,1.122,0,0,1,1.589,0l4.281,4.281a1.124,1.124,0,0,1,0,1.588,1.123,1.123,0,0,1-.794.328A1.123,1.123,0,0,1,4097.628-2771.09Zm1025.447-.732a.884.884,0,0,1,0-1.348l3.718-3.342a1.149,1.149,0,0,1,1.5,0,.887.887,0,0,1,0,1.348l-3.718,3.342a1.125,1.125,0,0,1-.75.279A1.119,1.119,0,0,1,5123.075-2771.822Zm-15.831,0-3.719-3.342a.885.885,0,0,1,0-1.348,1.148,1.148,0,0,1,1.5,0l3.72,3.342a.887.887,0,0,1,0,1.348,1.124,1.124,0,0,1-.751.279A1.12,1.12,0,0,1,5107.245-2771.822Zm383.407-.582a.942.942,0,0,1,0-1.334l5.258-5.259a.942.942,0,0,1,1.334,0,.942.942,0,0,1,0,1.334l-5.259,5.259a.939.939,0,0,1-.667.277A.938.938,0,0,1,5490.652-2772.4Zm-813.086.224a.783.783,0,0,1-.782-.783.782.782,0,0,1,.782-.783h27.743a.782.782,0,0,1,.783.783.783.783,0,0,1-.783.783Zm-152.061-1.179v-2.789h-2.7a1.051,1.051,0,0,1-1.052-1.052,1.051,1.051,0,0,1,1.052-1.051h2.7v-7.3a4.138,4.138,0,0,1-4.109-4.132v-.439a3.7,3.7,0,0,1,3.7-3.7h.413v-2.677a1.05,1.05,0,0,1,1.051-1.052,1.052,1.052,0,0,1,1.052,1.052v2.677h2.548a1.052,1.052,0,0,1,1.05,1.053,1.05,1.05,0,0,1-1.05,1.051h-2.548v4.063h.292a5.061,5.061,0,0,1,5.056,5.054v1.339a5.121,5.121,0,0,1-5.116,5.115h-.231v2.789a1.053,1.053,0,0,1-1.052,1.052A1.051,1.051,0,0,1,4525.5-2773.358Zm2.1-4.891h.231a3.017,3.017,0,0,0,3.014-3.012v-1.339a2.957,2.957,0,0,0-2.953-2.952h-.292Zm-4.109-11.876v.439a2.031,2.031,0,0,0,2.007,2.026v-4.059h-.413A1.6,1.6,0,0,0,4523.5-2790.125Zm-421.369,16.24v-6.055a1.123,1.123,0,0,1,1.122-1.123,1.123,1.123,0,0,1,1.123,1.123v6.055a1.123,1.123,0,0,1-1.123,1.123A1.123,1.123,0,0,1,4102.129-2773.885Zm139.745-.062v-23.333h-10.98a1.126,1.126,0,0,1-1.014-.641,1.127,1.127,0,0,1,.145-1.193l20.757-25.394a1.159,1.159,0,0,1,1.738,0l20.755,25.394a1.127,1.127,0,0,1,.145,1.193,1.126,1.126,0,0,1-1.014.641h-10.979v9.413a1.124,1.124,0,0,1-1.124,1.122,1.123,1.123,0,0,1-1.123-1.122V-2798.4a1.123,1.123,0,0,1,1.123-1.123h9.735l-18.388-22.5-18.389,22.5H4243a1.122,1.122,0,0,1,1.121,1.123v24.455a1.122,1.122,0,0,1-1.121,1.122A1.121,1.121,0,0,1,4241.875-2773.947Zm1161.995-.766v-9.3a.809.809,0,0,1,.794-.825.81.81,0,0,1,.794.825v9.3a.81.81,0,0,1-.794.825A.809.809,0,0,1,5403.869-2774.713Zm-845.142.586a.808.808,0,0,1-.808-.81.807.807,0,0,1,.808-.808H4572a.809.809,0,0,1,.809.808.81.81,0,0,1-.809.81Zm556.122-1.314v-4.726a1.01,1.01,0,0,1,1.061-.953,1.012,1.012,0,0,1,1.061.953v4.726a1.012,1.012,0,0,1-1.061.954A1.01,1.01,0,0,1,5114.849-2775.441Zm309.333-2.135a3.028,3.028,0,0,1,2.964-3.081,3.027,3.027,0,0,1,2.966,3.081,3.029,3.029,0,0,1-2.966,3.083A3.029,3.029,0,0,1,5424.183-2777.576Zm1.587,0a1.407,1.407,0,0,0,1.377,1.432,1.407,1.407,0,0,0,1.378-1.432,1.406,1.406,0,0,0-1.378-1.431A1.406,1.406,0,0,0,5425.77-2777.576Zm-1218.232-2.473a4.81,4.81,0,0,1,4.716-4.885,4.809,4.809,0,0,1,4.716,4.885,4.809,4.809,0,0,1-4.716,4.885A4.81,4.81,0,0,1,4207.538-2780.049Zm2.169,0a2.6,2.6,0,0,0,2.547,2.639,2.6,2.6,0,0,0,2.549-2.639,2.6,2.6,0,0,0-2.549-2.64A2.6,2.6,0,0,0,4209.707-2780.049Zm739.823,4.039a.944.944,0,0,1-.943-.945.943.943,0,0,1,.943-.943h11.3a.943.943,0,0,1,.943.943.944.944,0,0,1-.943.945Zm-312.918-.175a.782.782,0,0,1-.782-.783.782.782,0,0,1,.782-.783h4.263a.783.783,0,0,1,.783.783.783.783,0,0,1-.783.783Zm-42.87,0a.783.783,0,0,1-.783-.783.783.783,0,0,1,.783-.783H4598a.782.782,0,0,1,.783.783.782.782,0,0,1-.783.783Zm-254.331-2.848a.943.943,0,0,1-.913-.7,14.165,14.165,0,0,1-.476-3.583,14.109,14.109,0,0,1,14.093-14.093,13.944,13.944,0,0,1,10.779,5.034,11.377,11.377,0,0,1,5.44-1.386,11.436,11.436,0,0,1,11.423,11.424,11.484,11.484,0,0,1-.3,2.574.943.943,0,0,1-.92.731Zm.5-4.285a11.956,11.956,0,0,0,.25,2.4h37.6a9.209,9.209,0,0,0,.111-1.418,9.547,9.547,0,0,0-9.536-9.535,9.488,9.488,0,0,0-5.155,1.524.942.942,0,0,1-1.269-.231,12.1,12.1,0,0,0-9.794-4.943A12.219,12.219,0,0,0,4339.91-2783.318Zm867.9,2.431a1.1,1.1,0,0,1,.863-1.3,1.059,1.059,0,0,1,.22-.022,1.109,1.109,0,0,1,1.084.884,1.1,1.1,0,0,1-.162.831,1.1,1.1,0,0,1-.7.473,1.1,1.1,0,0,1-.222.022A1.107,1.107,0,0,1,5207.81-2780.887Zm-648.357-.11a.808.808,0,0,1-.809-.808.808.808,0,0,1,.809-.808h11.821a.808.808,0,0,1,.809.808.809.809,0,0,1-.809.808Zm100.982-.517a.782.782,0,0,1-.783-.783.783.783,0,0,1,.783-.781h44.874a.782.782,0,0,1,.783.781.782.782,0,0,1-.783.783Zm172.444-1.757a1.1,1.1,0,0,1,.162-.831,1.1,1.1,0,0,1,.7-.473,1.172,1.172,0,0,1,.221-.022,1.111,1.111,0,0,1,1.083.886,1.108,1.108,0,0,1-.863,1.3,1.205,1.205,0,0,1-.221.022A1.108,1.108,0,0,1,4832.879-2783.271Zm-685.569.872a1.123,1.123,0,0,1-1.124-1.122,1.123,1.123,0,0,1,1.124-1.123h3.934a3.09,3.09,0,0,0,3.087-3.087,3.091,3.091,0,0,0-3.087-3.087h-1.494a3.885,3.885,0,0,1-3.881-3.881,3.886,3.886,0,0,1,3.881-3.883h4.139a1.123,1.123,0,0,1,1.123,1.123,1.122,1.122,0,0,1-1.123,1.124h-4.139a1.639,1.639,0,0,0-1.637,1.636,1.639,1.639,0,0,0,1.637,1.636h1.494a5.337,5.337,0,0,1,5.332,5.332,5.337,5.337,0,0,1-5.332,5.332Zm1004.959-.841a2.715,2.715,0,0,1-1.955-2.523,4.2,4.2,0,0,0-.5-1.679c-.348-.651-.442-.711-2.106-.379a18.051,18.051,0,0,1-3.937.414c-1.563-.03-2.4-.284-2.9-.883a2.549,2.549,0,0,1-.3-2.194,4,4,0,0,0-.059-2.169c-.168-.465-.374-.545-.452-.573-.67-.26-2.017.449-2.663.79a3.139,3.139,0,0,1-.948.4.941.941,0,0,1-1.069-.8.944.944,0,0,1,.718-1.052c.1-.041.241-.12.418-.213,1.029-.544,2.752-1.452,4.225-.882a2.676,2.676,0,0,1,1.546,1.693,5.768,5.768,0,0,1,.144,3.124,4.2,4.2,0,0,0-.082.683,3.806,3.806,0,0,0,1.457.193,15.55,15.55,0,0,0,3.535-.38c1.59-.314,3.091-.611,4.136,1.341a6.028,6.028,0,0,1,.711,2.336c.079.632.087.7.841,1.031.456.206,2.227-1.673,3.074-2.576,1.6-1.7,3.411-3.625,5.38-4.181,3.487-.986,8.918-.724,9.97.2a.943.943,0,0,1,.089,1.332.943.943,0,0,1-1.282.128,18.057,18.057,0,0,0-8.264.158c-1.466.416-3.087,2.139-4.519,3.66-1.587,1.689-2.994,3.183-4.4,3.183A1.975,1.975,0,0,1,5152.269-2783.24Zm-707.727.12a1.1,1.1,0,0,1-1.084-1.123v-20.568a1.1,1.1,0,0,1,1.084-1.122H4464.4a1.1,1.1,0,0,1,1.084,1.122v20.568a1.1,1.1,0,0,1-1.084,1.123Zm1.083-2.245h17.692v-18.323h-17.692Zm759.827,1.928-6.7-6.712a.942.942,0,0,1,0-1.334.94.94,0,0,1,1.333,0l6.7,6.712a.946.946,0,0,1,0,1.335.94.94,0,0,1-.667.276A.938.938,0,0,1,5205.451-2783.437Zm-410.763-.753a.943.943,0,0,1-.944-.944.944.944,0,0,1,.944-.945h34.672a.946.946,0,0,1,.943.945.945.945,0,0,1-.943.944Zm185.194-.968a1.094,1.094,0,0,1,.161-.83,1.1,1.1,0,0,1,.7-.474,1.077,1.077,0,0,1,.223-.023,1.109,1.109,0,0,1,1.082.886,1.1,1.1,0,0,1-.161.831,1.1,1.1,0,0,1-.7.473,1.184,1.184,0,0,1-.221.022A1.108,1.108,0,0,1,4979.882-2785.158Zm-30.353.724a.944.944,0,0,1-.943-.944.944.944,0,0,1,.943-.944h11.3a.944.944,0,0,1,.943.944.944.944,0,0,1-.943.944Zm469.228-1.173c-.167-.138-1.613-1.446-.729-4.967a9,9,0,0,0,.276-2.76h-1.6a5.787,5.787,0,0,1-5.666,5.343h-3.981a5.789,5.789,0,0,1-5.666-5.343h-1.205a8.985,8.985,0,0,0,.276,2.76c.886,3.521-.561,4.829-.729,4.967a.781.781,0,0,1-.492.177.776.776,0,0,1-.51-.193c-.206-.18-5.068-4.466-5.275-9.219-.167-3.844,2.647-6.167,3.994-7.053-2.452-5.615-2.646-13.265-2.655-13.673a48.185,48.185,0,0,1,13.934-34.176.775.775,0,0,1,1.034,0,48.177,48.177,0,0,1,13.935,34.165c-.009.417-.2,8.068-2.655,13.686,1.346.885,4.16,3.207,3.994,7.051-.208,4.753-5.068,9.038-5.275,9.219a.779.779,0,0,1-.51.193A.784.784,0,0,1,5418.758-2785.608Zm-23.715-9.31c.132,3.052,2.728,6.054,4.008,7.355a5.321,5.321,0,0,0-.124-2.6,8.565,8.565,0,0,1,1.274-7.616.809.809,0,0,1-.144-.108,11.051,11.051,0,0,1-1.877-2.532C5397.066-2799.644,5394.917-2797.781,5395.042-2794.918Zm23.39-2.965a.82.82,0,0,1-.143.108,8.573,8.573,0,0,1,1.276,7.616,5.236,5.236,0,0,0-.124,2.593c1.28-1.305,3.873-4.311,4-7.353.125-2.863-2.022-4.726-3.138-5.5A10.979,10.979,0,0,1,5418.433-2797.882Zm-11.376,8.241h3.981a4.158,4.158,0,0,0,4.029-3.442h-12.039A4.159,4.159,0,0,0,5407.056-2789.641Zm-6.555-5.344h17.488a5.307,5.307,0,0,0-1.908-2.673h-13.671A5.319,5.319,0,0,0,5400.5-2794.985Zm-4.12-20.607c0,.09.213,8.322,2.793,13.635.007.013.015.024.022.037a.409.409,0,0,0,.016.044,10.522,10.522,0,0,0,1.714,2.569h16.639a10.592,10.592,0,0,0,1.715-2.574c.005-.012.008-.025.014-.038l.021-.032c2.582-5.313,2.791-13.551,2.792-13.65a46.7,46.7,0,0,0-12.862-32.385A46.694,46.694,0,0,0,5396.381-2815.593Zm-836.1,27.728a.81.81,0,0,1-.809-.81.808.808,0,0,1,.809-.808h10.17a.81.81,0,0,1,.81.808.811.811,0,0,1-.81.81Zm615.668-2.73a1.108,1.108,0,0,1,.863-1.3,1.092,1.092,0,0,1,.222-.022,1.109,1.109,0,0,1,1.082.884,1.1,1.1,0,0,1-.16.832,1.1,1.1,0,0,1-.7.473,1.086,1.086,0,0,1-.222.021A1.11,1.11,0,0,1,5175.946-2790.6Zm-545.542.529a.783.783,0,0,1,0-1.107l3.014-3.012a.781.781,0,0,1,1.107,0,.78.78,0,0,1,0,1.107l-3.014,3.012a.779.779,0,0,1-.553.23A.775.775,0,0,1,4630.4-2790.066Zm-27.3,0-3.012-3.012a.783.783,0,0,1,0-1.107.781.781,0,0,1,1.107,0l3.014,3.012a.783.783,0,0,1,0,1.107.778.778,0,0,1-.554.23A.78.78,0,0,1,4603.1-2790.066Zm480.563-10.768a7.761,7.761,0,0,1,7.75-7.753,7.761,7.761,0,0,1,7.752,7.753,7.76,7.76,0,0,1-7.752,7.751A7.76,7.76,0,0,1,5083.666-2800.834Zm2.522,0a5.234,5.234,0,0,0,5.228,5.228,5.235,5.235,0,0,0,5.23-5.228,5.235,5.235,0,0,0-5.23-5.229A5.234,5.234,0,0,0,5086.188-2800.834Zm-260.521,6.658a13.659,13.659,0,0,0-13.645-13.643,13.659,13.659,0,0,0-13.644,13.643.945.945,0,0,1-.943.945.944.944,0,0,1-.942-.945,15.548,15.548,0,0,1,15.529-15.531,15.548,15.548,0,0,1,15.532,15.531.945.945,0,0,1-.943.945A.945.945,0,0,1,4825.667-2794.176Zm326.376-.615a5.43,5.43,0,0,1-1.634-3.517c-.046-.281-.094-.553-.15-.776a12.792,12.792,0,0,0-1.58.514,9.634,9.634,0,0,1-3.464.837,2.053,2.053,0,0,1-1.535-.572,1.878,1.878,0,0,1-.32-1.538,2.811,2.811,0,0,0-.381-1.969.944.944,0,0,1,.322-1.294.945.945,0,0,1,1.3.324,4.64,4.64,0,0,1,.641,3.125l0,.035c.04,0,.083,0,.124,0a9.29,9.29,0,0,0,2.667-.724c1.531-.565,3.266-1.206,3.873.215a6.634,6.634,0,0,1,.373,1.5,3.771,3.771,0,0,0,.983,2.384,5.828,5.828,0,0,0,3.79.63,5.162,5.162,0,0,0,3.626-1.925c.555-.758.966-1.421,1.33-2.005,1.032-1.662,2.01-3.233,4.542-1.714a6.262,6.262,0,0,0,1.934.813,11.759,11.759,0,0,1,3.87,1.822,1.8,1.8,0,0,0,1.623.375c.774-.323,1.286-1.65,1.412-2.243a.946.946,0,0,1,1.12-.727.946.946,0,0,1,.727,1.121c-.062.285-.648,2.808-2.534,3.591a3.517,3.517,0,0,1-3.37-.53,10.045,10.045,0,0,0-3.335-1.586,8.127,8.127,0,0,1-2.418-1.018c-.937-.562-.939-.562-1.967,1.092-.362.583-.811,1.308-1.408,2.124a7,7,0,0,1-4.919,2.686,9.4,9.4,0,0,1-1.161.071A6.751,6.751,0,0,1,5152.043-2794.791Zm327.67,1.055a.944.944,0,0,1-.944-.944.944.944,0,0,1,.944-.943h30.628l10.606-14.21a.944.944,0,0,1,.756-.379h25.888a.945.945,0,0,1,.944.945.944.944,0,0,1-.944.944h-25.415l-10.606,14.208a.947.947,0,0,1-.756.379Zm-918.279-1a.808.808,0,0,1-.809-.808.809.809,0,0,1,.809-.81h7.858a.809.809,0,0,1,.809.81.809.809,0,0,1-.809.808Zm55.089-1.538v-4.261a.783.783,0,0,1,.783-.783.781.781,0,0,1,.783.783v4.261a.783.783,0,0,1-.783.783A.785.785,0,0,1,4616.523-2796.273Zm570.643-.175a.945.945,0,0,1-.945-.945.943.943,0,0,1,.945-.942h15.8a6.68,6.68,0,0,0,.116-1.237,6.9,6.9,0,0,0-6.89-6.889,6.846,6.846,0,0,0-4.823,1.975.952.952,0,0,1-.872.246.942.942,0,0,1-.676-.6,7.552,7.552,0,0,0-7.072-4.964,7.516,7.516,0,0,0-3.819,1.038.944.944,0,0,1-1.292-.334.942.942,0,0,1,.333-1.291,9.412,9.412,0,0,1,4.778-1.3,9.446,9.446,0,0,1,8.309,5,8.714,8.714,0,0,1,5.134-1.659,8.786,8.786,0,0,1,8.775,8.776,8.735,8.735,0,0,1-.35,2.442.944.944,0,0,1-.907.682Zm-544.3-1.958v-5.36a.783.783,0,0,1,.783-.783.783.783,0,0,1,.783.783v5.36a.783.783,0,0,1-.783.783A.783.783,0,0,1,4642.867-2798.4Zm27.877-2.431a.909.909,0,0,1,.134-.689.9.9,0,0,1,.583-.393.872.872,0,0,1,.182-.018.92.92,0,0,1,.9.735.915.915,0,0,1-.134.689.915.915,0,0,1-.583.393,1.012,1.012,0,0,1-.183.018A.919.919,0,0,1,4670.744-2800.835Zm-11.29.6a.782.782,0,0,1-.71-.453.783.783,0,0,1,.113-.835l22.331-26.421a.78.78,0,0,1,1.1-.093.784.784,0,0,1,.093,1.1l-21.241,25.132H4667a.782.782,0,0,1,.782.783.782.782,0,0,1-.782.783Zm754.959-1.862a1,1,0,0,1,.135-.727.924.924,0,0,1,.591-.414.915.915,0,0,1,.186-.02.944.944,0,0,1,.911.773.994.994,0,0,1-.135.727.931.931,0,0,1-.591.415.939.939,0,0,1-.187.018A.942.942,0,0,1,5414.413-2802.1Zm-6.166,0a.981.981,0,0,1,.135-.725.918.918,0,0,1,.589-.414.947.947,0,0,1,.187-.02.943.943,0,0,1,.911.773.99.99,0,0,1-.136.727.923.923,0,0,1-.59.415.924.924,0,0,1-.186.018A.94.94,0,0,1,5408.248-2802.1Zm-6.168,0a.991.991,0,0,1,.136-.727.92.92,0,0,1,.59-.414.937.937,0,0,1,.186-.02.942.942,0,0,1,.911.773.987.987,0,0,1-.135.727.927.927,0,0,1-.59.415.924.924,0,0,1-.187.018A.943.943,0,0,1,5402.08-2802.1Zm-840.38.494a.81.81,0,0,1-.81-.808.81.81,0,0,1,.81-.81h7.329a.81.81,0,0,1,.81.81.809.809,0,0,1-.81.808Zm823.817-1.132a.968.968,0,0,1,.727-1.141.926.926,0,0,1,.186-.02.945.945,0,0,1,.911.776.987.987,0,0,1-.137.725.913.913,0,0,1-.59.414.926.926,0,0,1-.186.02A.943.943,0,0,1,5385.517-2802.735Zm-545.506-4.439v-6.461a.944.944,0,0,1,.943-.944.945.945,0,0,1,.945.944v6.461a.945.945,0,0,1-.945.944A.944.944,0,0,1,4840.011-2807.174Zm162.476-.352a27.279,27.279,0,0,1-2.566-11.611,27.4,27.4,0,0,1,14.945-24.465.945.945,0,0,1,1.271.407.947.947,0,0,1-.41,1.272,25.521,25.521,0,0,0-13.918,22.786,25.378,25.378,0,0,0,2.388,10.813.943.943,0,0,1-.456,1.255.935.935,0,0,1-.4.087A.946.946,0,0,1,5002.487-2807.526Zm-354.519.227a.783.783,0,0,1-.783-.783.783.783,0,0,1,.783-.783h5.361a.783.783,0,0,1,.783.783.783.783,0,0,1-.783.783Zm-14,0a.783.783,0,0,1-.782-.783.783.783,0,0,1,.782-.783h5.361a.783.783,0,0,1,.783.783.783.783,0,0,1-.783.783Zm750.014-1.025c-2.736-23.607,6.674-34.5,7.077-34.951a.77.77,0,0,1,1.121-.046.846.846,0,0,1,.045,1.165c-.093.107-9.307,10.844-6.667,33.637a.82.82,0,0,1-.693.918.725.725,0,0,1-.1.006A.8.8,0,0,1,5383.984-2808.325Zm-821.492-.148a.809.809,0,0,1-.81-.81.808.808,0,0,1,.81-.807h5.743a.808.808,0,0,1,.809.807.809.809,0,0,1-.809.81Zm80.375-3.927v-5.36a.783.783,0,0,1,.783-.783.783.783,0,0,1,.783.783v5.36a.783.783,0,0,1-.783.783A.783.783,0,0,1,4642.867-2812.4Zm756.12-10.979a10.777,10.777,0,0,1,5.171-9.261.776.776,0,0,1,1.083.307.841.841,0,0,1-.294,1.125,9.108,9.108,0,0,0-4.373,7.829,8.855,8.855,0,0,0,8.67,9.011,8.32,8.32,0,0,0,3.722-.87.784.784,0,0,1,1.059.39.839.839,0,0,1-.376,1.1,9.838,9.838,0,0,1-4.405,1.031A10.478,10.478,0,0,1,5398.987-2823.379Zm33.245,7.916a.97.97,0,0,1,.726-1.141.947.947,0,0,1,.187-.02.945.945,0,0,1,.911.775.968.968,0,0,1-.725,1.141.949.949,0,0,1-.186.02A.945.945,0,0,1,5432.232-2815.463Zm-16.2-.693a.967.967,0,0,1,.725-1.141.868.868,0,0,1,.188-.02.943.943,0,0,1,.91.773.969.969,0,0,1-.725,1.142.949.949,0,0,1-.186.02A.943.943,0,0,1,5416.034-2816.156Zm-13.224-7.223a6.572,6.572,0,0,1,6.434-6.687,6.572,6.572,0,0,1,6.435,6.687,6.572,6.572,0,0,1-6.435,6.687A6.572,6.572,0,0,1,5402.811-2823.379Zm1.588,0a4.948,4.948,0,0,0,4.846,5.036,4.949,4.949,0,0,0,4.846-5.036,4.949,4.949,0,0,0-4.846-5.036A4.949,4.949,0,0,0,5404.4-2823.379Zm-558.24,5.484a.945.945,0,0,1-.945-.944.944.944,0,0,1,.945-.944h6.461a.943.943,0,0,1,.943.944.944.944,0,0,1-.943.944Zm-16.87,0a.944.944,0,0,1-.944-.944.943.943,0,0,1,.944-.944h6.461a.943.943,0,0,1,.944.944.944.944,0,0,1-.944.944Zm-176.355-7.13a5.743,5.743,0,0,1,5.737-5.737,5.744,5.744,0,0,1,5.737,5.737,5.745,5.745,0,0,1-5.737,5.737A5.744,5.744,0,0,1,4652.935-2825.025Zm1.566,0a4.176,4.176,0,0,0,4.171,4.171,4.176,4.176,0,0,0,4.171-4.171,4.177,4.177,0,0,0-4.171-4.171A4.177,4.177,0,0,0,4654.5-2825.025Zm778.643,3.887a.81.81,0,0,1-.794-.805,44.589,44.589,0,0,0-11.928-29.189.85.85,0,0,1-.051-1.166.773.773,0,0,1,1.121-.054,45.456,45.456,0,0,1,12.448,30.368.816.816,0,0,1-.774.846Zm-359.511-1.562a.945.945,0,0,1-.913-.7,14.165,14.165,0,0,1-.476-3.583,14.11,14.11,0,0,1,14.094-14.093,13.949,13.949,0,0,1,10.779,5.034,11.389,11.389,0,0,1,5.44-1.384,11.437,11.437,0,0,1,11.422,11.423,11.477,11.477,0,0,1-.3,2.574.943.943,0,0,1-.919.731Zm.5-4.285a11.955,11.955,0,0,0,.249,2.4h37.6a9.092,9.092,0,0,0,.112-1.418,9.546,9.546,0,0,0-9.534-9.535,9.5,9.5,0,0,0-5.159,1.525.943.943,0,0,1-1.268-.231,12.1,12.1,0,0,0-9.793-4.945A12.22,12.22,0,0,0,5074.132-2826.986Zm-234.121,2.942v-6.461a.944.944,0,0,1,.943-.944.945.945,0,0,1,.945.944v6.461a.945.945,0,0,1-.945.944A.944.944,0,0,1,4840.011-2824.044Zm553.515-23.213a1,1,0,0,1,.135-.727.93.93,0,0,1,.592-.413.928.928,0,0,1,.186-.02.943.943,0,0,1,.911.774.986.986,0,0,1-.135.725.917.917,0,0,1-.59.414.938.938,0,0,1-.186.02A.946.946,0,0,1,5393.525-2847.257Z" transform="translate(-2257.153 3722.709)" fill="#fff" stroke="rgba(0,0,0,0)" stroke-width="1"/></g></svg>