<svg xmlns="http://www.w3.org/2000/svg" width="643.919" height="211.391" viewBox="0 0 643.919 211.391"><g transform="translate(505.113 56.477)"><path d="M1364.827,618.419a.916.916,0,0,1-.916-.916V597.135l-5.9,6.644a.916.916,0,0,1-1.371-1.216l7.5-8.445a.931.931,0,0,1,.185-.161h0a.923.923,0,0,1,.5-.149,1.259,1.259,0,0,1,.272.041h0a.912.912,0,0,1,.281.144h0a.9.9,0,0,1,.135.125l7.5,8.445a.916.916,0,1,1-1.371,1.216l-5.9-6.644V617.5A.915.915,0,0,1,1364.827,618.419Z" transform="translate(-1356.413 -593.806)" fill="#1c3e58"/></g><g transform="translate(587.711 159.102)"><path d="M1627.989,916.653l1.647-3.894-5.551-2.361a34.007,34.007,0,0,0,.094-10.972l5.588-2.266-5.848-14.5-5.589,2.266a33.873,33.873,0,0,0-7.673-7.823l2.354-5.566-14.361-6.107-2.354,5.566a33.734,33.734,0,0,0-10.942-.093l-2.26-5.6-7.7,3.124a17.091,17.091,0,0,1,1.614,7.272v6.853a17.114,17.114,0,0,1-1.409,6.816,21.361,21.361,0,0,1,32.59,27.291Z" transform="translate(-1574.476 -864.381)" fill="#4088da"/><path d="M1628.509,910.429l-4.891-2.079a34.865,34.865,0,0,0,.084-9.831l4.924-2a.917.917,0,0,0,.505-1.192l-5.848-14.5a.916.916,0,0,0-1.194-.507l-4.921,2a34.717,34.717,0,0,0-6.873-7.006l2.075-4.906a.917.917,0,0,0-.485-1.2l-14.361-6.107a.916.916,0,0,0-1.2.486l-2.074,4.9a34.565,34.565,0,0,0-9.8-.084l-1.99-4.937a.916.916,0,0,0-1.194-.506l-7.7,3.124a.918.918,0,0,0-.486,1.238,16.089,16.089,0,0,1,1.528,6.883v6.853a16.141,16.141,0,0,1-1.333,6.452.916.916,0,0,0,1.484,1.016,20.411,20.411,0,0,1,34.553,11.967,20.493,20.493,0,0,1-3.364,14.157.911.911,0,0,0-.156.531h1.994a22.334,22.334,0,0,0-5.152-29.724,22.221,22.221,0,0,0-26.641-.381,18.062,18.062,0,0,0,.448-4.019v-6.853a17.923,17.923,0,0,0-1.314-6.777L1581.1,865l1.917,4.753a.92.92,0,0,0,.99.563,32.788,32.788,0,0,1,10.645.091.922.922,0,0,0,1-.546l2-4.72,12.675,5.39-2,4.724a.915.915,0,0,0,.3,1.1,32.909,32.909,0,0,1,7.465,7.612.917.917,0,0,0,1.094.322l4.738-1.921,5.163,12.8-4.741,1.923a.917.917,0,0,0-.561.99,33.042,33.042,0,0,1-.091,10.677.916.916,0,0,0,.545,1l4.709,2-1.291,3.053a.91.91,0,0,0-.071.374h1.9l1.5-3.554A.917.917,0,0,0,1628.509,910.429Z" transform="translate(-1572.989 -862.895)" fill="#1c3e58"/></g><g transform="translate(216.012 46.712)"><path d="M648.794,613.908V603.837h8.437L629,570.564l-28.228,33.273h8.437v10.071Z" transform="translate(-599.858 -569.664)" fill="#ebf0f6"/><path d="M647.308,613.364a.916.916,0,0,1-.916-.916V602.377a.916.916,0,0,1,.916-.916h6.458l-26.25-30.94-26.25,30.94h6.458a.916.916,0,0,1,.916.916v10.071a.916.916,0,0,1-1.833,0v-9.155h-7.52a.916.916,0,0,1-.7-1.509l28.229-33.273a.947.947,0,0,1,1.4,0l28.229,33.273a.916.916,0,0,1-.7,1.509h-7.52v9.155A.916.916,0,0,1,647.308,613.364Z" transform="translate(-598.372 -568.204)" fill="#1c3e58"/></g><g transform="translate(461.411 162.389)"><path d="M1242.741,887.261a.916.916,0,0,1-.916-.916V872.43a.916.916,0,1,1,1.832,0v13.915A.916.916,0,0,1,1242.741,887.261Z" transform="translate(-1241.825 -871.514)" fill="#1c3e58"/></g><g transform="translate(56.22 94.921)"><path d="M228.923,717.248l8.774-12.982-4.241,2.947a29.189,29.189,0,0,0-7.943-5.1l.921-5.118-13.245-2.384-.921,5.118a29.188,29.188,0,0,0-9.224,2.011l-2.968-4.271-11.052,7.68,2.969,4.271a29.19,29.19,0,0,0-5.1,7.944l-5.118-.921-2.384,13.245,5.118.921a29.167,29.167,0,0,0,1.223,6.965H196.67a19.159,19.159,0,0,1,32.252-20.325Z" transform="translate(-179.388 -694.609)" fill="#4088da"/></g><g transform="translate(398.953 169.868)"><path d="M1078.055,932.648h87.339a43.725,43.725,0,0,0-87.339,0Z" transform="translate(-1078.055 -891.126)" fill="#2b71b5"/></g><g transform="translate(407.197 178.093)"><path d="M1099.672,945.989h70.85a35.493,35.493,0,0,0-70.85,0Z" transform="translate(-1099.672 -912.691)" fill="#fff"/></g><g transform="translate(496.102 179.529)"><path d="M1400.841,934.024a6.073,6.073,0,0,0-1.049-3.378l-9.46-14.189a20.294,20.294,0,0,1-14.76,5.493c-13.886-.558-11.939-4.689-23.139-5.069a27.084,27.084,0,0,0-10.717,1.947l-7.88,11.819a6.073,6.073,0,0,0-1.049,3.378,2.378,2.378,0,0,0,2.557,2.145h62.941A2.379,2.379,0,0,0,1400.841,934.024Z" transform="translate(-1332.786 -916.457)" fill="#fabf62"/></g><g transform="translate(548.552 167.575)"><path d="M1511.769,885.114h-41.22a17.176,17.176,0,0,0-.234,2.81v1.5l3.556,5.333H1512v-6.834A17.176,17.176,0,0,0,1511.769,885.114Z" transform="translate(-1470.314 -885.114)" fill="#25ce9e"/></g><g transform="translate(474.441 75.84)"><path d="M1332.509,659.153a10.073,10.073,0,0,0-4.12.876c-1.431-6.395-6.387-11.112-12.282-11.112a11.633,11.633,0,0,0-8.337,3.669,16.878,16.878,0,0,0-12.507-5.6,17.448,17.448,0,0,0-16.87,14.206,37.337,37.337,0,0,1,12.755,8.005h51.321c0-.081.006-.162.006-.243A9.882,9.882,0,0,0,1332.509,659.153Z" transform="translate(-1277.477 -646.065)" fill="#4088da"/><path d="M1340.983,668.623h-51.321a.917.917,0,0,1-.633-.254,36.215,36.215,0,0,0-12.442-7.81.916.916,0,0,1-.578-1.043,18.44,18.44,0,0,1,17.767-14.937,17.619,17.619,0,0,1,12.536,5.226,12.429,12.429,0,0,1,8.309-3.289c5.889,0,11.073,4.39,12.914,10.8a10.947,10.947,0,0,1,3.488-.564,10.81,10.81,0,0,1,10.882,10.712c0,.064,0,.126,0,.189l0,.077A.917.917,0,0,1,1340.983,668.623Zm-50.956-1.832h50.021a8.994,8.994,0,0,0-9.025-8.207,9.12,9.12,0,0,0-3.746.8.916.916,0,0,1-1.268-.636c-1.371-6.121-6.054-10.4-11.388-10.4a10.755,10.755,0,0,0-7.682,3.393.916.916,0,0,1-1.333-.023,15.869,15.869,0,0,0-11.83-5.306,16.568,16.568,0,0,0-15.8,12.719A38.025,38.025,0,0,1,1290.027,666.791Z" transform="translate(-1275.99 -644.579)" fill="#1c3e58"/></g><g transform="translate(146.416 76.423)"><path d="M459.721,722.084V675.524A14.883,14.883,0,0,1,474.6,660.641h4.529c-6.5-9.318-18.21-15.288-31.365-14.456-16.931,1.07-30.644,13.649-31.8,29.169a29.328,29.328,0,0,0,4.88,18.506,51.133,51.133,0,0,1,8.853,28.224h30.019Z" transform="translate(-415.887 -646.108)" fill="#fabf62"/></g><path d="M101.036,930.149l.564-1.225-4.7-2.164a29.137,29.137,0,0,0,.518-3.9H77.764V888.312l-1.547-.712-2.164,4.705a29.039,29.039,0,0,0-9.392-.363l-1.8-4.857L50.3,891.733l1.8,4.856a29.064,29.064,0,0,0-6.9,6.386l-4.7-2.164-5.6,12.172,4.7,2.165a29.064,29.064,0,0,0-.362,9.392l-4.856,1.8,1.41,3.814Z" transform="translate(-33.463 -718.759)" fill="#25ce9e"/><path d="M100.973,927.12a.916.916,0,0,0-.476-.514l-4.054-1.865a30.425,30.425,0,0,0,.4-3.307.916.916,0,0,0-.914-.976H77.194V886.825a.915.915,0,0,0-.534-.832l-1.546-.712a.917.917,0,0,0-1.215.45l-1.865,4.054a29.9,29.9,0,0,0-8.248-.319l-1.547-4.183a.917.917,0,0,0-1.177-.542l-12.567,4.647a.917.917,0,0,0-.542,1.177l1.547,4.184a29.911,29.911,0,0,0-6.056,5.609l-4.053-1.865a.916.916,0,0,0-1.215.449l-5.6,12.172a.916.916,0,0,0,.449,1.215l4.053,1.865a29.922,29.922,0,0,0-.318,8.248l-4.184,1.547a.917.917,0,0,0-.542,1.177l1.293,3.5h1.89a.9.9,0,0,0-.054-.318L34.07,925.39l4-1.478a.916.916,0,0,0,.592-.973,28.1,28.1,0,0,1,.351-9.1.916.916,0,0,0-.515-1.015l-3.873-1.782,4.834-10.507,3.873,1.781a.916.916,0,0,0,1.106-.269,28.1,28.1,0,0,1,6.679-6.185.916.916,0,0,0,.354-1.082l-1.478-4,10.849-4.012,1.478,4a.919.919,0,0,0,.973.592,28.1,28.1,0,0,1,9.1.351A.919.919,0,0,0,73.4,891.2l1.782-3.872.181.084v33.96a.916.916,0,0,0,.916.916H94.932a27.958,27.958,0,0,1-.421,2.8.916.916,0,0,0,.515,1.015l3.872,1.782-.18.392a.905.905,0,0,0-.082.383h1.923l.387-.842A.917.917,0,0,0,100.973,927.12Z" transform="translate(-31.976 -717.272)" fill="#1c3e58"/><g transform="translate(11.23 178.643)"><path d="M107.144,948.367a22.529,22.529,0,0,0,1.874-7.29H95.981V918.636a22.635,22.635,0,0,0-30.2,29.731Z" transform="translate(-62.91 -915.62)" fill="#fff"/><path d="M108.2,938.972a.917.917,0,0,0-.675-.3H95.409V917.151a.917.917,0,0,0-.53-.831A23.543,23.543,0,0,0,63.3,946.882h1.909a.907.907,0,0,0-.077-.372,21.718,21.718,0,0,1,28.447-28.766v21.848a.916.916,0,0,0,.916.916h12.018a21.577,21.577,0,0,1-1.691,6,.913.913,0,0,0-.078.373h1.908a23.378,23.378,0,0,0,1.793-7.213A.917.917,0,0,0,108.2,938.972Z" transform="translate(-61.422 -914.135)" fill="#1c3e58"/></g><g transform="translate(171.57 174.154)"><path d="M491,913.385c-5.051,0-9.161-4.533-9.161-10.107a.916.916,0,0,1,1.833,0c0,4.563,3.287,8.274,7.328,8.274s7.328-3.712,7.328-8.274a.916.916,0,0,1,1.833,0C500.164,908.852,496.055,913.385,491,913.385Z" transform="translate(-481.843 -902.363)" fill="#1c3e58"/></g><g transform="translate(163.416 105.478)"><path d="M472.542,769.856a.916.916,0,0,1-.916-.916V735.083c-4.674-.552-7.923-1.806-9.694-3.747a5.4,5.4,0,0,1-1.443-4.229c.184-2,1.367-5.284,7.232-4.76a5.487,5.487,0,0,1,3.922,2.032c2.282,2.8,1.877,7.521,1.815,8.121v.922c1.286.1,2.72.155,4.32.155a.916.916,0,1,1,0,1.832q-2.31,0-4.32-.15V768.94A.916.916,0,0,1,472.542,769.856Zm-6.01-45.733c-3.929,0-4.144,2.341-4.219,3.151a3.521,3.521,0,0,0,.972,2.826c1.074,1.178,3.386,2.524,8.34,3.138v-.789a.984.984,0,0,1,.006-.106c.005-.044.488-4.483-1.412-6.812a3.674,3.674,0,0,0-2.66-1.36C467.191,724.139,466.849,724.123,466.532,724.123Z" transform="translate(-460.464 -722.291)" fill="#1c3e58"/><g transform="translate(16.398 10.4)"><path d="M504.376,752.278a.916.916,0,1,1,0-1.832,40.9,40.9,0,0,0,9.107-.86.916.916,0,0,1,.418,1.784A42.693,42.693,0,0,1,504.376,752.278Z" transform="translate(-503.46 -749.561)" fill="#1c3e58"/></g><g transform="translate(21.566 0.197)"><path d="M517.995,770.176a.916.916,0,0,1-.916-.916V732.819c-.084-.806-.75-8.588,4.723-9.982a.916.916,0,0,1,.452,1.776c-4.115,1.048-3.357,7.981-3.349,8.051a.986.986,0,0,1,.006.106V769.26A.916.916,0,0,1,517.995,770.176Z" transform="translate(-517.01 -722.808)" fill="#1c3e58"/></g></g><g transform="translate(122.553 143.39)"><path d="M364.936,821.7h-4.328l-7.29,16.566h18.908Z" transform="translate(-353.318 -821.699)" fill="#fabf62"/></g><g transform="translate(202.608 157.172)"><rect width="37.74" height="18.225" fill="#4088da"/></g><g transform="translate(263.224 125.963)"><rect width="15.149" height="15.035" fill="#25ce9e"/></g><g transform="translate(43.385 136.969)"><path d="M194.946,872.909h-48.3a.916.916,0,0,1-.916-.916V805.777a.916.916,0,0,1,.916-.916h48.3a.916.916,0,0,1,.916.916v66.216A.916.916,0,0,1,194.946,872.909Zm-47.379-1.832h46.463V806.693H147.567Z" transform="translate(-145.734 -804.861)" fill="#1c3e58"/></g><g transform="translate(51.644 142.753)"><g transform="translate(0)"><rect width="33.609" height="7.404" fill="#4088da"/></g><g transform="translate(27.985 12.183)"><path d="M243.584,857.6a2.814,2.814,0,1,1,2.815-2.815A2.818,2.818,0,0,1,243.584,857.6Zm0-3.8a.982.982,0,1,0,.982.982A.984.984,0,0,0,243.584,853.8Z" transform="translate(-240.769 -851.972)" fill="#1c3e58"/></g><g transform="translate(18.763 12.183)"><path d="M219.4,857.6a2.814,2.814,0,1,1,2.815-2.815A2.818,2.818,0,0,1,219.4,857.6Zm0-3.8a.982.982,0,1,0,.982.982A.984.984,0,0,0,219.4,853.8Z" transform="translate(-216.587 -851.972)" fill="#1c3e58"/></g><g transform="translate(9.54 12.183)"><path d="M195.22,857.6a2.814,2.814,0,1,1,2.815-2.815A2.818,2.818,0,0,1,195.22,857.6Zm0-3.8a.982.982,0,1,0,.982.982A.983.983,0,0,0,195.22,853.8Z" transform="translate(-192.405 -851.972)" fill="#1c3e58"/></g><g transform="translate(27.985 21.917)"><path d="M243.584,883.124a2.814,2.814,0,1,1,2.815-2.814A2.817,2.817,0,0,1,243.584,883.124Zm0-3.8a.982.982,0,1,0,.982.983A.984.984,0,0,0,243.584,879.327Z" transform="translate(-240.769 -877.495)" fill="#1c3e58"/></g><g transform="translate(18.763 21.917)"><path d="M219.4,883.124a2.814,2.814,0,1,1,2.815-2.814A2.817,2.817,0,0,1,219.4,883.124Zm0-3.8a.982.982,0,1,0,.982.983A.984.984,0,0,0,219.4,879.327Z" transform="translate(-216.587 -877.495)" fill="#1c3e58"/></g><g transform="translate(9.54 21.917)"><path d="M195.22,883.124a2.814,2.814,0,1,1,2.815-2.814A2.818,2.818,0,0,1,195.22,883.124Zm0-3.8a.982.982,0,1,0,.982.983A.984.984,0,0,0,195.22,879.327Z" transform="translate(-192.405 -877.495)" fill="#1c3e58"/></g><g transform="translate(27.985 31.651)"><path d="M243.584,908.647a2.814,2.814,0,1,1,2.815-2.815A2.818,2.818,0,0,1,243.584,908.647Zm0-3.8a.982.982,0,1,0,.982.982A.984.984,0,0,0,243.584,904.85Z" transform="translate(-240.769 -903.018)" fill="#1c3e58"/></g><g transform="translate(18.763 31.651)"><path d="M219.4,908.647a2.814,2.814,0,1,1,2.815-2.815A2.818,2.818,0,0,1,219.4,908.647Zm0-3.8a.982.982,0,1,0,.982.982A.984.984,0,0,0,219.4,904.85Z" transform="translate(-216.587 -903.018)" fill="#1c3e58"/></g><g transform="translate(9.54 31.651)"><path d="M195.22,908.647a2.814,2.814,0,1,1,2.815-2.815A2.818,2.818,0,0,1,195.22,908.647Zm0-3.8a.982.982,0,1,0,.982.982A.983.983,0,0,0,195.22,904.85Z" transform="translate(-192.405 -903.018)" fill="#1c3e58"/></g><g transform="translate(0.318 31.651)"><path d="M171.038,908.647a2.814,2.814,0,1,1,2.815-2.815A2.818,2.818,0,0,1,171.038,908.647Zm0-3.8a.982.982,0,1,0,.982.982A.983.983,0,0,0,171.038,904.85Z" transform="translate(-168.223 -903.018)" fill="#1c3e58"/></g><g transform="translate(27.985 41.385)"><path d="M243.584,934.17a2.815,2.815,0,1,1,2.815-2.815A2.818,2.818,0,0,1,243.584,934.17Zm0-3.8a.982.982,0,1,0,.982.982A.983.983,0,0,0,243.584,930.373Z" transform="translate(-240.769 -928.541)" fill="#1c3e58"/></g><g transform="translate(18.763 41.385)"><path d="M219.4,934.17a2.815,2.815,0,1,1,2.815-2.815A2.818,2.818,0,0,1,219.4,934.17Zm0-3.8a.982.982,0,1,0,.982.982A.984.984,0,0,0,219.4,930.373Z" transform="translate(-216.587 -928.541)" fill="#1c3e58"/></g><g transform="translate(9.54 41.385)"><path d="M195.22,934.17a2.815,2.815,0,1,1,2.815-2.815A2.818,2.818,0,0,1,195.22,934.17Zm0-3.8a.982.982,0,1,0,.982.982A.983.983,0,0,0,195.22,930.373Z" transform="translate(-192.405 -928.541)" fill="#1c3e58"/></g><g transform="translate(0.318 41.385)"><path d="M171.038,934.17a2.815,2.815,0,1,1,2.815-2.815A2.818,2.818,0,0,1,171.038,934.17Zm0-3.8a.982.982,0,1,0,.982.982A.983.983,0,0,0,171.038,930.373Z" transform="translate(-168.223 -928.541)" fill="#1c3e58"/></g><g transform="translate(9.54 51.119)"><path d="M195.22,959.693a2.814,2.814,0,1,1,2.815-2.815A2.818,2.818,0,0,1,195.22,959.693Zm0-3.8a.982.982,0,1,0,.982.982A.983.983,0,0,0,195.22,955.9Z" transform="translate(-192.405 -954.064)" fill="#1c3e58"/></g><g transform="translate(0.318 51.119)"><path d="M171.038,959.693a2.814,2.814,0,1,1,2.815-2.815A2.818,2.818,0,0,1,171.038,959.693Zm0-3.8a.982.982,0,1,0,.982.982A.983.983,0,0,0,171.038,955.9Z" transform="translate(-168.223 -954.064)" fill="#1c3e58"/></g><g transform="translate(0 13.099)"><rect width="6.265" height="13.531" fill="#fabf62"/></g><g transform="translate(20.022 50.481)"><rect width="13.019" height="5.999" fill="#fabf62"/></g></g><path d="M298.924,722.617a.916.916,0,0,0-.916-.916h-7.022l22.138-32.758L335.263,721.7h-7.022a.916.916,0,0,0-.916.916v12.454a.916.916,0,0,0,1.833,0V723.534h7.83a.916.916,0,0,0,.759-1.429l-23.863-35.31a.916.916,0,0,0-1.518,0L288.5,722.1a.916.916,0,0,0,.759,1.429h7.83v82.461h1.833Z" transform="translate(-190.571 -594.604)" fill="#1c3e58"/><g transform="translate(121.637 159.04)"><rect width="51.434" height="18.908" transform="translate(19.824 0.916) rotate(90)" fill="#25ce9e"/><path d="M371.656,863.65a.916.916,0,0,0-.916-.916H351.831a.916.916,0,0,0-.916.916v51.435h1.833V864.566h17.076v50.519h1.833Z" transform="translate(-350.915 -862.734)" fill="#1c3e58"/></g><path d="M367.781,878.29a.916.916,0,0,0-1.833,0v45.851h1.833Z" transform="translate(-238.578 -712.75)" fill="#1c3e58"/><path d="M385.3,918.273a.916.916,0,0,0-1.833,0v30.6H385.3Z" transform="translate(-249.417 -737.485)" fill="#1c3e58"/><g transform="translate(129.183 136.266)"><path d="M375.407,811.06h-3.764a.916.916,0,0,1-.908-.793,2.7,2.7,0,0,1-.034-.38v-4.043a2.824,2.824,0,0,1,5.649,0v4.043a2.412,2.412,0,0,1-.029.342A.955.955,0,0,1,375.407,811.06Zm-2.874-1.832h1.984v-3.384a.992.992,0,1,0-1.984,0Z" transform="translate(-370.701 -803.02)" fill="#1c3e58"/></g><g transform="translate(151.002 182.056)"><path d="M448.649,944.734a.916.916,0,0,1-.916-.916,18.925,18.925,0,0,0-18.9-18.9.916.916,0,1,1,0-1.832,20.759,20.759,0,0,1,20.736,20.736A.916.916,0,0,1,448.649,944.734Z" transform="translate(-427.913 -923.082)" fill="#1c3e58"/></g><g transform="translate(151.002 191.494)"><path d="M439.211,960.043a.916.916,0,0,1-.916-.916,9.476,9.476,0,0,0-9.465-9.466.916.916,0,0,1,0-1.832,11.311,11.311,0,0,1,11.3,11.3A.916.916,0,0,1,439.211,960.043Z" transform="translate(-427.913 -947.829)" fill="#1c3e58"/></g><path d="M530.253,697.612a13.983,13.983,0,0,1,13.967-13.968h16.592a.916.916,0,1,0,0-1.832H544.22a15.817,15.817,0,0,0-15.8,15.8V803.163h1.833Z" transform="translate(-339.087 -591.772)" fill="#1c3e58"/><path d="M724.9,697.612a15.817,15.817,0,0,0-15.8-15.8H659.851a.916.916,0,1,0,0,1.832H709.1a13.983,13.983,0,0,1,13.967,13.968V803.163H724.9Z" transform="translate(-419.826 -591.772)" fill="#1c3e58"/><g transform="translate(155.044 151.483)"><path d="M475.2,845.321H443.02a2.107,2.107,0,0,0-2.107,2.107v3.342a2.107,2.107,0,0,0,2.107,2.107H475.2Z" transform="translate(-439.997 -844.405)" fill="#ebf0f6"/><path d="M473.716,852.308H441.534a3.026,3.026,0,0,1-3.023-3.023v-3.342a3.026,3.026,0,0,1,3.023-3.023h32.182a.916.916,0,0,1,.916.916v7.557A.916.916,0,0,1,473.716,852.308Zm-32.182-7.557a1.192,1.192,0,0,0-1.191,1.191v3.342a1.193,1.193,0,0,0,1.191,1.192H472.8v-5.725Z" transform="translate(-438.511 -842.92)" fill="#1c3e58"/></g><g transform="translate(159.834 159.04)"><path d="M481.487,872.123H454.1a3.027,3.027,0,0,1-3.023-3.024v-3.342a3.027,3.027,0,0,1,3.023-3.023h27.392a.916.916,0,0,1,.916.916v7.557A.916.916,0,0,1,481.487,872.123ZM454.1,864.566a1.193,1.193,0,0,0-1.191,1.191V869.1a1.193,1.193,0,0,0,1.191,1.192h26.476v-5.725Z" transform="translate(-451.072 -862.734)" fill="#1c3e58"/></g><g transform="translate(165.182 166.597)"><path d="M491.648,884.95H469.6a2.107,2.107,0,0,0-2.108,2.107V890.4a2.107,2.107,0,0,0,2.108,2.107h22.044Z" transform="translate(-466.58 -884.034)" fill="#ebf0f6"/><path d="M490.161,891.937H468.118a3.027,3.027,0,0,1-3.024-3.023v-3.342a3.027,3.027,0,0,1,3.024-3.023h22.044a.916.916,0,0,1,.916.916v7.557A.916.916,0,0,1,490.161,891.937Zm-22.044-7.557a1.192,1.192,0,0,0-1.191,1.191v3.342a1.192,1.192,0,0,0,1.191,1.191h21.128v-5.725Z" transform="translate(-465.094 -882.549)" fill="#1c3e58"/></g><g transform="translate(189.333 112.745)"><path d="M643.24,743.178h-113.9a.916.916,0,1,1,0-1.832h113.9a.916.916,0,1,1,0,1.832Z" transform="translate(-528.42 -741.346)" fill="#1c3e58"/></g><g transform="translate(201.692 119.807)"><path d="M650.928,789.487H561.741a.916.916,0,0,1-.916-.916V760.779a.916.916,0,0,1,.916-.916h89.187a.916.916,0,0,1,.916.916v27.792A.916.916,0,0,1,650.928,789.487Zm-88.27-1.832h87.354V761.7H562.658Z" transform="translate(-560.825 -759.863)" fill="#1c3e58"/></g><g transform="translate(209.342 125.844)"><path d="M623.148,777.524H581.8a.916.916,0,1,1,0-1.832h41.347a.916.916,0,1,1,0,1.832Z" transform="translate(-580.885 -775.692)" fill="#1c3e58"/></g><g transform="translate(209.342 132.564)"><path d="M604.924,795.145H581.8a.916.916,0,0,1,0-1.832h23.123a.916.916,0,0,1,0,1.832Z" transform="translate(-580.885 -793.313)" fill="#1c3e58"/></g><g transform="translate(209.342 139.285)"><path d="M614.833,812.766H581.8a.916.916,0,0,1,0-1.832h33.032a.916.916,0,1,1,0,1.832Z" transform="translate(-580.885 -810.934)" fill="#1c3e58"/></g><g transform="translate(205.565 160.983)"><rect width="7.859" height="8.771" transform="translate(0.916 0.916)" fill="#fff"/><path d="M579.755,878.432H571.9a.916.916,0,0,1-.916-.916v-8.771a.916.916,0,0,1,.916-.916h7.859a.916.916,0,0,1,.916.916v8.771A.916.916,0,0,1,579.755,878.432Zm-6.943-1.832h6.027v-6.938h-6.027Z" transform="translate(-570.979 -867.829)" fill="#1c3e58"/></g><g transform="translate(254.055 157.172)"><rect width="37.74" height="18.225" fill="#fabf62"/></g><g transform="translate(257.011 160.983)"><rect width="7.859" height="8.771" transform="translate(0.916 0.916)" fill="#fff"/><path d="M714.651,878.432h-7.859a.916.916,0,0,1-.916-.916v-8.771a.916.916,0,0,1,.916-.916h7.859a.916.916,0,0,1,.916.916v8.771A.916.916,0,0,1,714.651,878.432Zm-6.943-1.832h6.027v-6.938h-6.027Z" transform="translate(-705.875 -867.829)" fill="#1c3e58"/></g><path d="M651.844,927.376a.916.916,0,0,0-.916-.916H561.741a.916.916,0,0,0-.916.916v27.131h1.833V928.292h87.354v26.214h1.832Z" transform="translate(-359.133 -743.116)" fill="#1c3e58"/><g transform="translate(213.424 189.858)"><path d="M610.177,957.39H592.5a.916.916,0,0,1-.917-.916V944.457a.916.916,0,0,1,.917-.916h17.674a.916.916,0,0,1,.916.916v12.017A.916.916,0,0,1,610.177,957.39Zm-16.758-1.832h15.842V945.373H593.42Z" transform="translate(-591.587 -943.541)" fill="#1c3e58"/></g><g transform="translate(237.078 189.858)"><path d="M667.738,945.373H654.525a.916.916,0,1,1,0-1.832h13.213a.916.916,0,1,1,0,1.832Z" transform="translate(-653.609 -943.541)" fill="#1c3e58"/></g><g transform="translate(237.078 195.867)"><path d="M667.738,961.127H654.525a.916.916,0,1,1,0-1.832h13.213a.916.916,0,1,1,0,1.832Z" transform="translate(-653.609 -959.295)" fill="#1c3e58"/></g><g transform="translate(237.078 201.875)"><path d="M667.738,976.882H654.525a.916.916,0,1,1,0-1.832h13.213a.916.916,0,0,1,0,1.832Z" transform="translate(-653.609 -975.05)" fill="#1c3e58"/></g><g transform="translate(261.3 186.789)"><circle cx="8.447" cy="8.447" r="8.447" transform="translate(0 6.465) rotate(-22.5)" fill="#25ce9e"/></g><g transform="translate(271.42 191.39)"><path d="M744.572,960.1a.916.916,0,0,1-.916-.916V948.473a.916.916,0,0,1,1.832,0v10.713A.916.916,0,0,1,744.572,960.1Z" transform="translate(-743.656 -947.557)" fill="#1c3e58"/></g><g transform="translate(266.064 196.747)"><path d="M741.24,963.435H730.527a.916.916,0,0,1,0-1.832H741.24a.916.916,0,0,1,0,1.832Z" transform="translate(-729.611 -961.603)" fill="#1c3e58"/></g><g transform="translate(301.718 25.525)"><path d="M842.038,555.664a18.645,18.645,0,0,1-10.933-3.579,19.281,19.281,0,0,1-8.005-15.6V513.564a.916.916,0,0,1,1.833,0v22.917a17.215,17.215,0,0,0,7.244,14.117,16.706,16.706,0,0,0,15.216,2.354,9.953,9.953,0,0,0,4.307-2.557.916.916,0,0,1,1.36,1.228,11.724,11.724,0,0,1-5.086,3.067A18.7,18.7,0,0,1,842.038,555.664Z" transform="translate(-823.1 -512.648)" fill="#1c3e58"/></g><g transform="translate(250.901 46.377)"><path d="M709.7,591.148a.913.913,0,0,1-.695-.318L690.076,568.84a.916.916,0,1,1,1.388-1.2L710.4,589.635a.916.916,0,0,1-.694,1.514Z" transform="translate(-689.854 -567.325)" fill="#1c3e58"/></g><g transform="translate(225.555 87.459)"><path d="M628.028,690.126h0A2.231,2.231,0,0,1,625.8,687.9v-8.22a2.23,2.23,0,0,1,2.231-2.23h0a2.231,2.231,0,0,1,2.231,2.23v8.22A2.231,2.231,0,0,1,628.028,690.126Z" transform="translate(-624.881 -676.529)" fill="#fff"/><path d="M626.542,689.556a3.15,3.15,0,0,1-3.147-3.147v-8.22a3.147,3.147,0,0,1,6.294,0v8.22A3.15,3.15,0,0,1,626.542,689.556Zm0-12.681a1.316,1.316,0,0,0-1.315,1.314v8.22a1.314,1.314,0,1,0,2.629,0v-8.22A1.315,1.315,0,0,0,626.542,676.875Z" transform="translate(-623.395 -675.043)" fill="#1c3e58"/></g><g transform="translate(230.016 87.459)"><path d="M639.725,691.645h0a2.231,2.231,0,0,1-2.23-2.231v-9.739a2.23,2.23,0,0,1,2.23-2.23h0a2.23,2.23,0,0,1,2.231,2.23v9.739A2.231,2.231,0,0,1,639.725,691.645Z" transform="translate(-636.578 -676.529)" fill="#fff"/><path d="M638.239,691.075a3.151,3.151,0,0,1-3.147-3.147v-9.739a3.147,3.147,0,0,1,6.294,0v9.739A3.15,3.15,0,0,1,638.239,691.075Zm0-14.2a1.316,1.316,0,0,0-1.315,1.314v9.739a1.314,1.314,0,1,0,2.629,0v-9.739A1.316,1.316,0,0,0,638.239,676.875Z" transform="translate(-635.092 -675.043)" fill="#1c3e58"/></g><g transform="translate(234.477 87.459)"><path d="M651.423,690.544h0a2.231,2.231,0,0,1-2.231-2.231v-8.638a2.23,2.23,0,0,1,2.231-2.23h0a2.231,2.231,0,0,1,2.231,2.23v8.638A2.231,2.231,0,0,1,651.423,690.544Z" transform="translate(-648.276 -676.529)" fill="#fff"/><path d="M649.937,689.974a3.15,3.15,0,0,1-3.147-3.146v-8.638a3.147,3.147,0,0,1,6.294,0v8.638A3.15,3.15,0,0,1,649.937,689.974Zm0-13.1a1.315,1.315,0,0,0-1.314,1.314v8.638a1.314,1.314,0,1,0,2.629,0v-8.638A1.316,1.316,0,0,0,649.937,676.875Z" transform="translate(-646.79 -675.043)" fill="#1c3e58"/></g><g transform="translate(221.094 87.459)"><path d="M616.33,688.418h0a2.23,2.23,0,0,1-2.23-2.231v-6.512a2.23,2.23,0,0,1,2.23-2.23h0a2.23,2.23,0,0,1,2.231,2.23v6.512A2.231,2.231,0,0,1,616.33,688.418Z" transform="translate(-613.184 -676.529)" fill="#fff"/><path d="M614.844,687.848A3.15,3.15,0,0,1,611.7,684.7v-6.512a3.147,3.147,0,0,1,6.293,0V684.7A3.15,3.15,0,0,1,614.844,687.848Zm0-10.973a1.316,1.316,0,0,0-1.314,1.314V684.7a1.314,1.314,0,1,0,2.629,0v-6.512A1.316,1.316,0,0,0,614.844,676.875Z" transform="translate(-611.697 -675.043)" fill="#1c3e58"/></g><g transform="translate(242.887 100.14)"><path d="M678.756,710.126h-9a.916.916,0,1,1,0-1.832h9a.916.916,0,0,1,0,1.832Z" transform="translate(-668.841 -708.294)" fill="#1c3e58"/></g><g transform="translate(291.257 0)"><path d="M838.669,488.723a13.259,13.259,0,0,0-3.072-8.886c-2.444-2.861-6.62-5.712-13.534-5.6-13.751.212-23.335-.1-23.943-12.054s4.871-14.054,4.871-14.054-2.223,7.247,12.988,7.247,34.683-1.187,35.656,18.86v27.633a2.781,2.781,0,0,1-2.718,2.84h0a2.947,2.947,0,0,1-2.88-3.009V490.1a2.381,2.381,0,0,0-2.327-2.431h0a1.977,1.977,0,0,0-1.932,2.019h0a1.634,1.634,0,0,1-1.6,1.668h0a1.571,1.571,0,0,1-1.533-1.637Z" transform="translate(-797.157 -447.208)" fill="#4088da"/><path d="M847.432,504.134a3.866,3.866,0,0,1-3.8-3.925v-11.6a1.468,1.468,0,0,0-1.411-1.516,1.064,1.064,0,0,0-1.016,1.1,2.552,2.552,0,0,1-2.513,2.584,2.4,2.4,0,0,1-1.726-.731,2.568,2.568,0,0,1-.723-1.841l.021-.994a12.287,12.287,0,0,0-2.852-8.272c-3-3.508-7.189-5.287-12.463-5.287-.119,0-.239,0-.36,0-1.181.018-2.576.037-3.96.037-11.081,0-20.3-.975-20.913-12.96-.635-12.472,5.208-14.86,5.458-14.956a.916.916,0,0,1,1.2,1.124,3.42,3.42,0,0,0,.669,2.835c1.112,1.472,4,3.227,11.443,3.227.8,0,1.6,0,2.418-.007q1.253-.005,2.529-.007c6.862,0,14.687.215,20.706,2.789,6.937,2.965,10.508,8.512,10.919,16.957,0,.015,0,.03,0,.045v27.634A3.7,3.7,0,0,1,847.432,504.134Zm-5.207-18.87a3.3,3.3,0,0,1,3.243,3.347v11.6a2.034,2.034,0,0,0,1.964,2.093,1.868,1.868,0,0,0,1.8-1.923V472.768c-.818-16.6-14.56-17.98-29.794-17.98q-1.27,0-2.521.007-1.228,0-2.426.006c-6.624,0-10.978-1.347-12.942-4a5.4,5.4,0,0,1-1-2.307c-1.393,1.464-3.377,4.858-3.005,12.155.483,9.486,6.8,11.221,19.083,11.221,1.372,0,2.757-.018,3.932-.037,7.489-.117,11.893,3.173,14.245,5.926a14.12,14.12,0,0,1,3.291,9.5l-.021.995a.716.716,0,0,0,.2.521.583.583,0,0,0,.417.181.72.72,0,0,0,.681-.752A2.9,2.9,0,0,1,842.225,485.264Z" transform="translate(-795.671 -445.721)" fill="#1c3e58"/></g><g transform="translate(316.602 55.194)"><path d="M870.18,621.35c-.025,0-.05,0-.075,0a.916.916,0,0,1-.683-.4c-2.081-3.06-5.548-7.6-6.737-8.1a.916.916,0,0,1-.559-.844V602.87a.916.916,0,0,1,1.832,0v8.615c1.889,1.333,4.908,5.464,6.335,7.5l12.184-12.814v-7.228a.8.8,0,0,1,0-.085,17.127,17.127,0,0,1,2.867-8.048.916.916,0,0,1,1.469,1.094,15.566,15.566,0,0,0-2.509,7.082v7.55a.914.914,0,0,1-.252.631l-13.213,13.9A.915.915,0,0,1,870.18,621.35Z" transform="translate(-862.125 -590.442)" fill="#1c3e58"/></g><g transform="translate(296.175 9.32)"><path d="M841.107,477.384a.912.912,0,0,1-.5-.152c-2.986-1.977-9.315-1.858-16.017-1.733-1.424.026-2.882.054-4.354.063-9.2.059-11.464-3.879-11.555-4.047a.916.916,0,0,1,1.6-.888c.048.079,1.987,3.1,9.745,3.1h.2c1.464-.01,2.914-.036,4.332-.063,7.3-.136,13.6-.253,17.062,2.037a.916.916,0,0,1-.507,1.68Z" transform="translate(-808.565 -470.16)" fill="#1c3e58"/></g><g transform="translate(309.203 69.596)"><path d="M865.317,653.9H865.3a.916.916,0,0,1-.7-.354l-6.555-8.437-8.991,7.533a.916.916,0,0,1-1.412-.3c-.134-.274-3.283-6.74-4.042-8.484l-.062-.142c-.766-1.753-2.048-4.686,2.1-7.791,3.385-2.532,5.595-1.495,5.836-1.368a.916.916,0,0,1-.834,1.632c-.093-.041-1.49-.6-3.9,1.2-2.985,2.234-2.273,3.864-1.519,5.59l.064.146c.561,1.292,2.546,5.4,3.5,7.357l8.82-7.391a.916.916,0,0,1,1.312.141l6.448,8.3,15.4-18.062c-2.078-1.8-6.34-4.666-8.814-2.835a.916.916,0,0,1-1.09-1.474c4.581-3.387,11.522,3.287,11.816,3.574a.916.916,0,0,1,.057,1.25l-16.706,19.591A.916.916,0,0,1,865.317,653.9Z" transform="translate(-842.726 -628.206)" fill="#1c3e58"/></g><g transform="translate(294.772 78.12)"><path d="M805.8,665.754a.9.9,0,0,1-.281-.045.911.911,0,0,1-.593-1.137c.061-.2.678-1.986,3.35-3.946,2.466-1.809,12.691-9.8,12.793-9.876a.916.916,0,0,1,1.128,1.444c-.421.329-10.349,8.084-12.838,9.909a7.419,7.419,0,0,0-2.688,3.025A.925.925,0,0,1,805.8,665.754Z" transform="translate(-804.886 -650.555)" fill="#1c3e58"/></g><g transform="translate(357.64 81.821)"><path d="M1003.721,726.505a.911.911,0,0,1-.422-.1c-.484-.251-12.007-6.337-25.933-22.231-5.882-6.713-8.446-16.347-7.413-27.86a63.557,63.557,0,0,1,3.346-15.459.916.916,0,0,1,1.712.652c-.1.259-9.708,26.12,3.733,41.461,12.572,14.349,23.362,20.68,25.143,21.672l6.528-1.015a.916.916,0,1,1,.282,1.81l-6.834,1.063A.92.92,0,0,1,1003.721,726.505Z" transform="translate(-969.73 -660.262)" fill="#1c3e58"/></g><g transform="translate(357.019 189.36)"><path d="M979.476,961.992a.913.913,0,0,1-.55-.184l-10.46-7.859a.917.917,0,0,1-.2-1.263l7.157-10.065a.916.916,0,1,1,1.494,1.062l-6.639,9.338,9.747,7.323a.916.916,0,0,1-.551,1.649Z" transform="translate(-968.101 -942.236)" fill="#1c3e58"/></g><g transform="translate(372.111 198.932)"><path d="M1008.589,977.519a.916.916,0,0,1-.756-1.432l5.7-8.353a.916.916,0,0,1,1.514,1.032l-5.7,8.353A.914.914,0,0,1,1008.589,977.519Z" transform="translate(-1007.673 -967.333)" fill="#1c3e58"/></g><g transform="translate(362.557 124.211)"><path d="M986.686,832.376a.916.916,0,0,1-.848-.569c-6.652-16.238-.96-57.843-.714-59.606a.916.916,0,0,1,1.815.252c-.06.427-5.87,42.878.6,58.659a.917.917,0,0,1-.848,1.264Z" transform="translate(-982.622 -771.411)" fill="#1c3e58"/></g><g transform="translate(354.818 125.843)"><path d="M964.06,824.034a.916.916,0,0,1-.9-.745c-2.428-12.747,1.219-45.4,1.375-46.785a.916.916,0,1,1,1.821.206c-.038.336-3.773,33.762-1.4,46.237a.919.919,0,0,1-.9,1.088Z" transform="translate(-962.33 -775.69)" fill="#1c3e58"/></g><g transform="translate(308.385 73.866)"><path d="M910.918,766.3a.912.912,0,0,1-.433-.109,70.889,70.889,0,0,1-15.161-10.942l-.223-.211a.916.916,0,0,1-.13-1.177l28.1-41.689a.916.916,0,1,1,1.519,1.024l-27.661,41.043a69.053,69.053,0,0,0,13.861,10.03c11.022-10.108,28.7-38.649,33.916-47.258a3.563,3.563,0,0,0-.027-3.755c-15.287-24.445-33.884-52.26-40.23-57.019-7.824-5.868-19.6-12.559-23.144-14.537-1.613,6.333-9.83,35-26.394,35l-.275,0a12.343,12.343,0,0,1-9.862-4.544c-6.58-8.165-3.476-24.352-3.34-25.038a.916.916,0,0,1,1.8.355c-.032.159-3.074,16.038,2.971,23.535a10.589,10.589,0,0,0,8.468,3.86c16.939.318,25.055-34.4,25.136-34.75a.916.916,0,0,1,1.332-.6c.15.081,15.05,8.238,24.411,15.258,8.24,6.18,33.223,45.584,40.684,57.513a5.388,5.388,0,0,1,.041,5.677c-5.326,8.789-23.569,38.232-34.745,48.109A.915.915,0,0,1,910.918,766.3Z" transform="translate(-840.581 -639.403)" fill="#1c3e58"/></g><g transform="translate(303.236 89.053)"><path d="M845.784,708.026c-9.443,0-15.883-4.3-18.655-12.463a.916.916,0,0,1,1.735-.589c2.614,7.7,8.588,11.457,17.787,11.206,20.188-.581,26.411-26,26.471-26.252a.916.916,0,0,1,1.784.419,49.321,49.321,0,0,1-5.855,13.529c-5.653,8.989-13.381,13.876-22.348,14.134Q846.239,708.026,845.784,708.026Z" transform="translate(-827.08 -679.223)" fill="#1c3e58"/></g><g transform="translate(301.623 84.269)"><path d="M823.948,682.789a.917.917,0,0,1-.911-.826,52.37,52.37,0,0,1,.9-14.565.916.916,0,0,1,1.789.395,51.463,51.463,0,0,0-.866,13.989.916.916,0,0,1-.821,1A.85.85,0,0,1,823.948,682.789Z" transform="translate(-822.85 -666.679)" fill="#1c3e58"/></g><g transform="translate(367.479 93.799)"><path d="M1026.516,732.874a.916.916,0,0,1-.788-.447c-.045-.076-4.575-7.631-12.552-18.3-8.476-11.333-17.313-20.825-17.4-20.919a.916.916,0,1,1,1.339-1.251c.089.1,8.991,9.657,17.529,21.072,8.039,10.75,12.613,18.38,12.658,18.456a.916.916,0,0,1-.786,1.386Z" transform="translate(-995.528 -691.668)" fill="#1c3e58"/></g><g transform="translate(303.237 173.113)"><path d="M851.844,915.9a100.036,100.036,0,0,1-20.411-1.934.917.917,0,0,1-.67-.636l-3.645-12.519a.916.916,0,0,1,1.759-.512l3.492,11.994c4.061.834,31.223,5.759,56.655-5.558a.916.916,0,0,1,.745,1.674C876.446,914.334,862.663,915.9,851.844,915.9Z" transform="translate(-827.082 -899.635)" fill="#1c3e58"/></g><g transform="translate(306.882 185.632)"><path d="M837.556,951.769a.918.918,0,0,1-.892-1.129c.795-3.323-.015-17.07-.023-17.209a.916.916,0,0,1,1.829-.109c.034.577.834,14.16-.023,17.744A.917.917,0,0,1,837.556,951.769Z" transform="translate(-836.639 -932.46)" fill="#1c3e58"/></g><g transform="translate(307.253 197.41)"><path d="M859.928,969.461a113.141,113.141,0,0,1-21.6-1.95.916.916,0,0,1,.392-1.79c.258.056,26.041,5.547,50.724-2.336a.916.916,0,1,1,.557,1.746A99.944,99.944,0,0,1,859.928,969.461Z" transform="translate(-837.613 -963.342)" fill="#1c3e58"/></g><g transform="translate(312.198 189.816)"><path d="M851.493,953.313a.916.916,0,0,1-.916-.916v-8.05a.916.916,0,0,1,1.832,0v8.05A.916.916,0,0,1,851.493,953.313Z" transform="translate(-850.577 -943.431)" fill="#1c3e58"/></g><g transform="translate(319.639 190.727)"><path d="M871.006,955.7a.916.916,0,0,1-.916-.916v-8.05a.916.916,0,0,1,1.832,0v8.05A.916.916,0,0,1,871.006,955.7Z" transform="translate(-870.09 -945.819)" fill="#1c3e58"/></g><g transform="translate(327.081 190.727)"><path d="M890.519,955.7a.915.915,0,0,1-.916-.916v-8.05a.916.916,0,1,1,1.832,0v8.05A.916.916,0,0,1,890.519,955.7Z" transform="translate(-889.603 -945.819)" fill="#1c3e58"/></g><g transform="translate(334.523 190.727)"><path d="M910.032,955.7a.916.916,0,0,1-.916-.916v-8.05a.916.916,0,1,1,1.832,0v8.05A.916.916,0,0,1,910.032,955.7Z" transform="translate(-909.116 -945.819)" fill="#1c3e58"/></g><g transform="translate(341.965 189.816)"><path d="M929.544,953.313a.916.916,0,0,1-.916-.916v-8.05a.916.916,0,0,1,1.832,0v8.05A.916.916,0,0,1,929.544,953.313Z" transform="translate(-928.628 -943.431)" fill="#1c3e58"/></g><g transform="translate(349.406 188.449)"><path d="M949.057,949.728a.915.915,0,0,1-.916-.916v-8.05a.916.916,0,1,1,1.832,0v8.05A.916.916,0,0,1,949.057,949.728Z" transform="translate(-948.141 -939.846)" fill="#1c3e58"/></g><g transform="translate(356.848 186.171)"><path d="M968.569,943.755a.916.916,0,0,1-.916-.916v-8.049a.916.916,0,1,1,1.832,0v8.049A.916.916,0,0,1,968.569,943.755Z" transform="translate(-967.653 -933.873)" fill="#1c3e58"/></g><g transform="translate(367.479 49.643)"><path d="M1090.377,615.781a.916.916,0,0,1-.916-.916V577.719h-92.1v35.367a.916.916,0,1,1-1.832,0V576.8a.916.916,0,0,1,.916-.916h93.933a.916.916,0,0,1,.916.916v38.062A.916.916,0,0,1,1090.377,615.781Z" transform="translate(-995.529 -575.887)" fill="#1c3e58"/></g><g transform="translate(424.099 89.157)"><path d="M1182.494,740.877a5.87,5.87,0,0,1-1.251-.167,9.22,9.22,0,0,0-1.118-.17c-1.28-.133-1.875-.353-3.524-2.292a15.84,15.84,0,0,1-1.627-2.444c-1.138-1.978-1.4-2.164-2.366-1.661-2.963,1.548-4.485.879-4.76.73a.812.812,0,0,1-.479-.858c-.015-.143-.177-1.047-1.846-1.986-.96-.541-1.188-.269-1.863.539a3.921,3.921,0,0,1-1.486,1.256,3.011,3.011,0,0,0-.774.636,2.142,2.142,0,0,1-1.945.908c-.88-.2-1.33-1.169-1.655-2.09a6.774,6.774,0,0,1-.393-3.273c-.2-.011-.35-.021-.466-.029l-.081-.005a6.687,6.687,0,0,1-1.315.552c-2.361.79-3.548.157-3.763.022a.9.9,0,0,1-.127-.1c-.5-.457-4.857-4.561-2.973-7.859a22.006,22.006,0,0,1,1.938-2.7,9.339,9.339,0,0,0,1.531-2.265.76.76,0,0,0-.083-.041,2.6,2.6,0,0,1-1.7-3.123,4.4,4.4,0,0,0-.076-1.667c-.026-.093-.361-.184-.92-.111-1.753.231-3.546,1.572-3.553,2.19a.916.916,0,0,1-.916.906h-.01a.916.916,0,0,1-.906-.926c.021-2.022,3.062-3.712,5.145-3.987,2.255-.3,2.809,1.022,2.924,1.434a6.051,6.051,0,0,1,.136,2.323c-.081.908-.087.982.6,1.276a1.828,1.828,0,0,1,1.146,1.238c.293,1.171-.668,2.374-1.885,3.9a20.37,20.37,0,0,0-1.779,2.461c-.951,1.665,1.457,4.5,2.512,5.5a3.6,3.6,0,0,0,2.179-.212,4.037,4.037,0,0,0,1.018-.427,1.426,1.426,0,0,1,1.08-.211c.132.009.31.021.554.034a1.808,1.808,0,0,1,1.389.529,1.639,1.639,0,0,1,.24,1.367,4.965,4.965,0,0,0,.283,2.592,5.226,5.226,0,0,0,.317.748c.087-.082.181-.176.256-.251a4.317,4.317,0,0,1,1.387-1.043,2.677,2.677,0,0,0,.764-.731c.7-.842,1.878-2.25,4.168-.961a5.165,5.165,0,0,1,2.664,2.874,5.478,5.478,0,0,0,2.674-.786c2.643-1.384,3.84.7,4.8,2.372a14.176,14.176,0,0,0,1.435,2.17c1.32,1.553,1.531,1.575,2.317,1.657a11.078,11.078,0,0,1,1.213.18l-.051-.041a3.71,3.71,0,0,1-1.479-3.689,10.734,10.734,0,0,0-.045-1.981c-.1-.795-.125-1.35-.145-1.8a3.089,3.089,0,0,0-.91-2.326c-.983-1.329-1.1-1.854-.677-2.953a7.191,7.191,0,0,0,.483-1.963c.074-.616.012-.716-1.206-1.084s-3.093-.935-3.421-3.549c-.3-2.366-.3-2.366-.7-3.125-.261-.493-.655-1.239-1.306-2.77-1.025-2.412-1.68-2.593-2.588-2.844a5.312,5.312,0,0,1-2.14-1.031c-1.281-1.04-2.514-.79-6.89,2.693-1.756,1.4-2.484,1.98-3.3,1.853a1.906,1.906,0,0,1-1.251-1,6.68,6.68,0,0,0-2.336-2.186c-2.948-1.77-1.88-3.69-1.366-4.612a2.72,2.72,0,0,0,.3-.653,1.452,1.452,0,0,1,.915-1.717c.205-.093.383-.173.623-.767.124-.305.188-.5.222-.611a1.658,1.658,0,0,1-.289-1.019c0-1.387,1.649-2.595,1.979-2.822a.921.921,0,0,1,.7-.145,6.444,6.444,0,0,0,2.655.1c.168-.1.3-.16.427-.218.341-.161.566-.266,2.458-2.82.088-.12.163-.225.227-.318l-.134.012a5.421,5.421,0,0,1-3.375-.442,3.458,3.458,0,0,1-1.687-4c.123-.533.863-2.93,4.586-5.421,2.723-1.823,3.832-.8,4.816.516a3.248,3.248,0,0,0,1.982,1.513,7.739,7.739,0,0,0,1.8.272,8.449,8.449,0,0,0,.013-.9c0-.2-.007-.408-.007-.637a2.774,2.774,0,0,1,2.05-2.825,10.3,10.3,0,0,1,3.243-.325h.136a6,6,0,0,0-.811-2.408.916.916,0,0,1,1.606-.882c.48.873,1.516,3.039.769,4.3a1.72,1.72,0,0,1-1.572.82h-.13a9.425,9.425,0,0,0-2.665.231.977.977,0,0,0-.8,1.086c0,.218,0,.42.007.607.016.982.031,1.83-.633,2.372-.681.554-1.683.462-3.412.077a4.982,4.982,0,0,1-3.051-2.2c-.7-.931-.824-1.1-2.33-.092-3.341,2.236-3.818,4.305-3.823,4.326a1.138,1.138,0,0,1-.041.143,1.613,1.613,0,0,0,.917,1.878,4.119,4.119,0,0,0,2.237.171c.927-.085,1.886-.173,2.329.616.456.812-.166,1.77-.783,2.605-2.062,2.783-2.42,3.044-3.151,3.388-.086.04-.181.084-.3.151a6.331,6.331,0,0,1-3.51.178c-.477.394-.9.89-.9,1.095v.014c.54.649.311,1.368-.067,2.3a2.872,2.872,0,0,1-1.409,1.676,3.021,3.021,0,0,1-.53,1.664c-.509.914-.72,1.293.708,2.151a8.435,8.435,0,0,1,2.907,2.724l.081.118c.417-.255,1.209-.885,1.817-1.369,3.81-3.033,6.507-4.86,9.186-2.682a3.537,3.537,0,0,0,1.474.687c1.413.391,2.512.9,3.785,3.893.62,1.46.993,2.164,1.24,2.63.558,1.056.577,1.208.9,3.754.171,1.366.885,1.646,2.134,2.023,1.1.333,2.761.835,2.495,3.057a8.909,8.909,0,0,1-.594,2.406,2.413,2.413,0,0,0-.115.333,3.771,3.771,0,0,0,.557.869,4.759,4.759,0,0,1,1.267,3.336c.018.412.04.926.132,1.645a12.484,12.484,0,0,1,.058,2.3c-.053,1.14-.068,1.485.792,2.174.532.426,1.944,1.555,1.406,2.681A1.557,1.557,0,0,1,1182.494,740.877Z" transform="translate(-1143.989 -679.497)" fill="#1c3e58"/></g><g transform="translate(424.069 87.705)"><path d="M1182.17,752.2a38.258,38.258,0,1,1,38.258-38.258A38.3,38.3,0,0,1,1182.17,752.2Zm0-74.684a36.426,36.426,0,1,0,36.426,36.426A36.467,36.467,0,0,0,1182.17,677.52Z" transform="translate(-1143.912 -675.688)" fill="#1c3e58"/></g><g transform="translate(468.723 92.113)"><path d="M1291.068,730.073a.908.908,0,0,1-.342-.067,13.568,13.568,0,0,1-5.14-3.972,4.639,4.639,0,0,1-1.076-3.781,2.018,2.018,0,0,0-.327-1.664,11.8,11.8,0,0,1-1.344-2.677,5.794,5.794,0,0,0-1.3-2.278,8.141,8.141,0,0,1-1.39-1.852,3.866,3.866,0,0,0-1.577-1.683,3.726,3.726,0,0,0-2.706-.05,5.3,5.3,0,0,1-2.483.142c-.281-.075-.59-.146-.924-.222a17.338,17.338,0,0,1-5.477-2.045c-1.823-1.111-2.066-1.82-2.312-2.885a6.144,6.144,0,0,0-.525-1.523c-.5-1.008-.977-1.805-1.436-2.576a22.17,22.17,0,0,1-1.343-2.484c-1.03-2.354.12-3.646,3.086-5.653a14.851,14.851,0,0,0,2.219-1.829,7.934,7.934,0,0,1,4.145-2.329c.716-.2,1.187-.477,1.259-.745.085-.318-.29-.868-.51-1.093a.916.916,0,0,1,1.3-1.294,3.284,3.284,0,0,1,.985,2.85c-.252.96-1.106,1.649-2.541,2.047a6.228,6.228,0,0,0-3.363,1.881,16.7,16.7,0,0,1-2.465,2.029c-3.026,2.047-2.816,2.528-2.434,3.4a20.6,20.6,0,0,0,1.238,2.28c.455.763.971,1.627,1.5,2.7a7.967,7.967,0,0,1,.67,1.928c.162.7.223.966,1.479,1.733a15.573,15.573,0,0,0,4.934,1.824c.357.082.687.158.986.238a4.121,4.121,0,0,0,1.624-.163,5.311,5.311,0,0,1,4.011.255,5.611,5.611,0,0,1,2.237,2.336,6.38,6.38,0,0,0,1.093,1.475,7.5,7.5,0,0,1,1.728,2.924,10.108,10.108,0,0,0,1.138,2.289,3.792,3.792,0,0,1,.649,2.9,2.844,2.844,0,0,0,.7,2.477,11.772,11.772,0,0,0,4.372,3.39.916.916,0,0,1-.342,1.766Z" transform="translate(-1260.996 -687.246)" fill="#1c3e58"/></g><g transform="translate(463.784 153.097)"><path d="M1249.06,858.193a.915.915,0,0,1-.73-.361,1.587,1.587,0,0,1-.247-1.275c.177-.9.972-1.749,2.427-2.6a20.53,20.53,0,0,1,2.7-1.287c1.217-.5,1.65-.712,1.732-1.126.438-2.186,1.808-2.36,3.555-2.36a7.564,7.564,0,0,1,3.016.507l.23.081a10.994,10.994,0,0,0,1.531-1.052c1.342-1.024,2.5-1.908,3.5-1.445a15.693,15.693,0,0,0,3.986.26.916.916,0,0,1,.052,1.831,17.013,17.013,0,0,1-4.666-.37,9.957,9.957,0,0,0-1.765,1.18c-1.275.973-2.2,1.677-3.078,1.382-.143-.048-.278-.1-.409-.142a5.818,5.818,0,0,0-2.4-.4c-1.581,0-1.6.084-1.759.887-.283,1.415-1.465,1.9-2.833,2.462a18.86,18.86,0,0,0-2.474,1.175c-1.261.736-1.5,1.218-1.545,1.345a.916.916,0,0,1-.829,1.306Z" transform="translate(-1248.046 -847.151)" fill="#1c3e58"/></g><g transform="translate(413.041 42.96)"><path d="M1153.574,560.2H1115.91a.916.916,0,0,1,0-1.832h37.664a.916.916,0,1,1,0,1.832Z" transform="translate(-1114.994 -558.366)" fill="#1c3e58"/></g><g transform="translate(379.634 61.949)"><rect width="30.184" height="15.605" transform="translate(0)" fill="#fabf62"/></g><g transform="translate(413.8 61.033)"><path d="M1149.68,607.586H1117.9a.916.916,0,0,1,0-1.832h31.779a.916.916,0,1,1,0,1.832Z" transform="translate(-1116.985 -605.754)" fill="#1c3e58"/></g><g transform="translate(413.8 68.835)"><path d="M1136.353,628.044H1117.9a.916.916,0,0,1,0-1.832h18.452a.916.916,0,1,1,0,1.832Z" transform="translate(-1116.985 -626.212)" fill="#1c3e58"/></g><g transform="translate(413.8 76.638)"><path d="M1154.806,648.5h-36.9a.916.916,0,0,1,0-1.832h36.9a.916.916,0,0,1,0,1.832Z" transform="translate(-1116.985 -646.67)" fill="#1c3e58"/></g><g transform="translate(378.718 84.806)"><path d="M1091.9,669.919h-65.988a.916.916,0,0,1,0-1.832H1091.9a.916.916,0,1,1,0,1.832Z" transform="translate(-1024.997 -668.087)" fill="#1c3e58"/></g><g transform="translate(385.248 94.635)"><path d="M1088.6,695.691h-45.561a.916.916,0,0,1,0-1.832H1088.6a.916.916,0,1,1,0,1.832Z" transform="translate(-1042.12 -693.859)" fill="#1c3e58"/></g><g transform="translate(391.93 104.463)"><path d="M1092.726,721.462h-32.168a.916.916,0,1,1,0-1.832h32.168a.916.916,0,1,1,0,1.832Z" transform="translate(-1059.641 -719.63)" fill="#1c3e58"/></g><g transform="translate(398.005 114.292)"><path d="M1098.659,747.234h-22.173a.916.916,0,0,1,0-1.832h22.173a.916.916,0,1,1,0,1.832Z" transform="translate(-1075.57 -745.402)" fill="#1c3e58"/></g><g transform="translate(405.067 124.121)"><path d="M1108.823,773.005H1095a.916.916,0,0,1,0-1.832h13.82a.916.916,0,1,1,0,1.832Z" transform="translate(-1094.087 -771.173)" fill="#1c3e58"/></g><g transform="translate(412.585 133.949)"><path d="M1122.309,798.776h-7.594a.916.916,0,0,1,0-1.832h7.594a.916.916,0,1,1,0,1.832Z" transform="translate(-1113.799 -796.944)" fill="#1c3e58"/></g><g transform="translate(417.217 143.778)"><path d="M1133.713,824.547h-6.853a.916.916,0,0,1,0-1.832h6.853a.916.916,0,0,1,0,1.832Z" transform="translate(-1125.944 -822.715)" fill="#1c3e58"/></g><g transform="translate(370.402 143.778)"><path d="M1014.1,824.547h-9.986a.916.916,0,1,1,0-1.832h9.986a.916.916,0,1,1,0,1.832Z" transform="translate(-1003.194 -822.715)" fill="#1c3e58"/></g><g transform="translate(413.8 153.607)"><path d="M1133.734,850.319H1117.9a.916.916,0,0,1,0-1.832h15.833a.916.916,0,1,1,0,1.832Z" transform="translate(-1116.985 -848.487)" fill="#1c3e58"/></g><g transform="translate(370.402 153.607)"><path d="M1012.046,850.319h-7.936a.916.916,0,0,1,0-1.832h7.936a.916.916,0,0,1,0,1.832Z" transform="translate(-1003.194 -848.487)" fill="#1c3e58"/></g><g transform="translate(411.408 163.435)"><path d="M1141.927,876.09h-30.3a.916.916,0,0,1,0-1.832h30.3a.916.916,0,0,1,0,1.832Z" transform="translate(-1110.713 -874.258)" fill="#1c3e58"/></g><g transform="translate(378.718 31.418)"><path d="M1031.912,548.158a.916.916,0,0,1-.916-.916V531.429l-4.4,4.954a.916.916,0,1,1-1.371-1.216l6-6.755a.909.909,0,0,1,.194-.167h0a.919.919,0,0,1,.2-.1h0a.913.913,0,0,1,.291-.047h0a.9.9,0,0,1,.278.043.9.9,0,0,1,.252.126h0a.892.892,0,0,1,.157.142l6,6.755a.916.916,0,1,1-1.371,1.216l-4.4-4.954v15.812A.916.916,0,0,1,1031.912,548.158Z" transform="translate(-1024.997 -528.101)" fill="#1c3e58"/></g><g transform="translate(472.954 67.299)"><path d="M1273.006,633.355a.917.917,0,0,1-.865-1.218c.04-.116,4.231-11.568,20.557-9.76a.916.916,0,1,1-.2,1.821c-14.9-1.648-18.59,8.439-18.626,8.542A.916.916,0,0,1,1273.006,633.355Z" transform="translate(-1272.089 -622.183)" fill="#1c3e58"/></g><g transform="translate(476.648 146.233)"><path d="M1282.692,854.6a.916.916,0,0,1-.295-1.784,46.806,46.806,0,0,0,26.549-23.157.916.916,0,0,1,1.637.821,48.646,48.646,0,0,1-27.6,24.07A.914.914,0,0,1,1282.692,854.6Z" transform="translate(-1281.776 -829.154)" fill="#1c3e58"/></g><g transform="translate(516.921 128.312)"><path d="M1413.273,788.79H1388.29a.916.916,0,0,1-.916-.916v-4.795a.916.916,0,0,1,.916-.916h24.983a.916.916,0,0,1,.916.916v4.795A.916.916,0,0,1,1413.273,788.79Zm-24.067-1.832h23.151V784h-23.151Z" transform="translate(-1387.374 -782.163)" fill="#1c3e58"/></g><g transform="translate(521.875 114.809)"><path d="M1409.938,755.954h-8.656a.916.916,0,1,1,0-1.832h8.656a2.767,2.767,0,1,0,0-5.534.916.916,0,0,1,0-1.832,4.6,4.6,0,1,1,0,9.2Z" transform="translate(-1400.365 -746.757)" fill="#1c3e58"/></g><g transform="translate(512.611 101.747)"><path d="M1394.911,727.4H1379.77a3.7,3.7,0,0,1,0-7.392h6.872a1.926,1.926,0,0,0,1.924-1.924v-4.662a.916.916,0,1,1,1.832,0v4.662a3.76,3.76,0,0,1-3.756,3.756h-6.872a1.864,1.864,0,0,0,0,3.728h15.141a.916.916,0,0,1,0,1.832Z" transform="translate(-1376.074 -712.509)" fill="#1c3e58"/></g><g transform="translate(495.186 133.172)"><path d="M1396.8,861.891h-62.941a3.29,3.29,0,0,1-3.473-3.061,7,7,0,0,1,1.2-3.885l26.317-39.473V795.822a.916.916,0,1,1,1.832,0v19.927a.915.915,0,0,1-.154.508l-26.47,39.7a5.178,5.178,0,0,0-.9,2.87c0,.666.752,1.229,1.641,1.229H1396.8c.889,0,1.641-.563,1.641-1.229a5.176,5.176,0,0,0-.9-2.87l-26.47-39.7a.916.916,0,0,1-.154-.508V795.822a.916.916,0,1,1,1.832,0v19.649l26.317,39.473a7,7,0,0,1,1.2,3.885A3.291,3.291,0,0,1,1396.8,861.891Z" transform="translate(-1330.385 -794.906)" fill="#1c3e58"/></g><g transform="translate(490.241 172.316)"><path d="M1319.348,925.386a.917.917,0,0,1-.846-.564l-.522-1.251a7.24,7.24,0,0,1,.64-6.789l12.43-18.825a.916.916,0,0,1,1.529,1.01l-12.43,18.825a5.412,5.412,0,0,0-.478,5.074l.523,1.251a.917.917,0,0,1-.846,1.27Z" transform="translate(-1317.419 -897.545)" fill="#1c3e58"/></g><g transform="translate(521.249 136.741)"><path d="M1399.637,836.015a.916.916,0,0,1-.8-1.368l5.991-10.564a7.335,7.335,0,0,0,.952-3.609V805.18a.916.916,0,1,1,1.832,0v15.293a9.168,9.168,0,0,1-1.19,4.513l-5.991,10.564A.916.916,0,0,1,1399.637,836.015Z" transform="translate(-1398.722 -804.264)" fill="#1c3e58"/></g><g transform="translate(557.404 142.075)"><path d="M1514.386,825.494h-17.74a3.127,3.127,0,0,1-3.123-3.123v-1a3.127,3.127,0,0,1,3.123-3.123h17.74a3.127,3.127,0,0,1,3.124,3.123v1A3.127,3.127,0,0,1,1514.386,825.494Zm-17.74-5.411a1.293,1.293,0,0,0-1.291,1.291v1a1.293,1.293,0,0,0,1.291,1.291h17.74a1.293,1.293,0,0,0,1.291-1.291v-1a1.293,1.293,0,0,0-1.291-1.291Z" transform="translate(-1493.523 -818.251)" fill="#1c3e58"/></g><g transform="translate(547.636 147.486)"><path d="M1493.431,880.173h-7.517a18.26,18.26,0,0,1-2.387-.162.916.916,0,0,1-.678-.46c-.071-.126-.145-.25-.226-.372l-14.556-21.832a.914.914,0,0,1-.154-.508v-1.5a17.958,17.958,0,0,1,14.124-17.578v-4.405a.916.916,0,0,1,.916-.916h13.441a.916.916,0,0,1,.916.916v4.405a17.957,17.957,0,0,1,14.124,17.578v6.834A18.022,18.022,0,0,1,1493.431,880.173Zm-9.229-1.926a16.1,16.1,0,0,0,1.712.094h7.517a16.188,16.188,0,0,0,16.169-16.17v-6.834a16.13,16.13,0,0,0-13.366-15.922.916.916,0,0,1-.758-.9V834.27h-11.609v4.243a.916.916,0,0,1-.758.9,16.13,16.13,0,0,0-13.366,15.922v1.223l14.4,21.6C1484.165,878.19,1484.183,878.218,1484.2,878.247Z" transform="translate(-1467.912 -832.438)" fill="#1c3e58"/></g><g transform="translate(563.64 182.112)"><path d="M1525.542,925.063h-14.751a.916.916,0,0,1,0-1.832h14.751a.916.916,0,1,1,0,1.832Z" transform="translate(-1509.875 -923.231)" fill="#1c3e58"/></g><g transform="translate(507.486 184.585)"><path d="M1392.663,936.651c-4.711,0-9.393-1.654-13.533-3.116a30.175,30.175,0,0,0-7.034-1.956,19.735,19.735,0,0,0-8.176,1.348.916.916,0,0,1-.738-1.677,21.26,21.26,0,0,1,9.025-1.5,31.035,31.035,0,0,1,7.533,2.058c4.081,1.441,8.723,3.078,13.185,3.01a28.237,28.237,0,0,0,12.158-2.6.916.916,0,1,1,.884,1.6c-.2.111-5.019,2.716-13.015,2.832Z" transform="translate(-1362.635 -929.715)" fill="#1c3e58"/></g><g transform="translate(566.658 194.756)"><path d="M1529.037,964.935H1518.7a.916.916,0,0,1,0-1.832h10.332a15.614,15.614,0,0,0,11.173-4.741l1.642-1.7a.916.916,0,1,1,1.318,1.273l-1.642,1.7A17.459,17.459,0,0,1,1529.037,964.935Z" transform="translate(-1517.789 -956.382)" fill="#1c3e58"/></g><g transform="translate(140.476 68.593)"><path d="M401.229,651.759a.917.917,0,0,1-.84-1.281,44.137,44.137,0,0,1,28.754-24.87.916.916,0,1,1,.477,1.769,42.291,42.291,0,0,0-27.55,23.83A.917.917,0,0,1,401.229,651.759Z" transform="translate(-400.313 -625.575)" fill="#1c3e58"/></g><g transform="translate(152.59 82.751)"><path d="M432.993,691.755a.916.916,0,0,1-.916-.916,28.172,28.172,0,0,1,28.14-28.141.916.916,0,0,1,0,1.832,26.338,26.338,0,0,0-26.308,26.308A.916.916,0,0,1,432.993,691.755Z" transform="translate(-432.077 -662.698)" fill="#1c3e58"/></g><g transform="translate(539.035 103.287)"><path d="M1485.508,753.848a.916.916,0,0,1-.012-1.832l3.673-.052-.141-10.041-3.673.052a.923.923,0,0,1-.9-.695,24.811,24.811,0,0,0-3.176-7.378.916.916,0,0,1,.115-1.132l2.56-2.633-7.2-7-2.561,2.633a.916.916,0,0,1-1.129.146,24.805,24.805,0,0,0-7.464-2.969.917.917,0,0,1-.719-.882l-.051-3.673-10.041.14.052,3.673a.917.917,0,0,1-.695.9,24.793,24.793,0,0,0-7.378,3.176.916.916,0,0,1-.988-1.543,26.594,26.594,0,0,1,7.218-3.225l-.054-3.873a.916.916,0,0,1,.9-.929l11.873-.166h.013a.916.916,0,0,1,.916.9l.054,3.873a26.615,26.615,0,0,1,6.676,2.656l2.7-2.776a.916.916,0,0,1,.644-.277h.013a.917.917,0,0,1,.639.259l8.512,8.278a.916.916,0,0,1,.018,1.3l-2.7,2.776a26.624,26.624,0,0,1,2.841,6.6l3.873-.055h.013a.916.916,0,0,1,.916.9l.166,11.873a.916.916,0,0,1-.9.929l-4.589.064Z" transform="translate(-1445.358 -716.547)" fill="#1c3e58"/></g><g transform="translate(540.87 113.239)"><path d="M1482.33,769.991a.917.917,0,0,1-.88-1.173,19.032,19.032,0,0,0-18.257-24.346l-.27,0a18.856,18.856,0,0,0-11.281,3.9.916.916,0,1,1-1.114-1.455,20.68,20.68,0,0,1,12.369-4.28l.3,0a20.866,20.866,0,0,1,20.016,26.69A.917.917,0,0,1,1482.33,769.991Z" transform="translate(-1450.17 -742.64)" fill="#1c3e58"/></g><g transform="translate(546.271 118.459)"><path d="M1486.661,772.667a.917.917,0,0,1-.916-.9,13.813,13.813,0,0,0-13.792-13.6h-.2a13.661,13.661,0,0,0-6.092,1.51.916.916,0,1,1-.836-1.631,15.483,15.483,0,0,1,6.9-1.711h.221a15.647,15.647,0,0,1,15.624,15.411.916.916,0,0,1-.9.929Z" transform="translate(-1464.331 -756.328)" fill="#1c3e58"/></g><g transform="translate(422.764 190.731)"><path d="M1143.149,951.151a2.661,2.661,0,1,1,2.661-2.66A2.664,2.664,0,0,1,1143.149,951.151Zm0-3.49a.829.829,0,1,0,.828.829A.83.83,0,0,0,1143.149,947.661Z" transform="translate(-1140.488 -945.829)" fill="#1c3e58"/></g><g transform="translate(457.011 190.731)"><path d="M1232.948,951.151a2.661,2.661,0,1,1,2.661-2.66A2.663,2.663,0,0,1,1232.948,951.151Zm0-3.49a.829.829,0,1,0,.828.829A.83.83,0,0,0,1232.948,947.661Z" transform="translate(-1230.287 -945.829)" fill="#1c3e58"/></g><g transform="translate(414.255 201.364)"><path d="M1120.84,979.031a2.661,2.661,0,1,1,2.661-2.661A2.664,2.664,0,0,1,1120.84,979.031Zm0-3.49a.829.829,0,1,0,.829.829A.83.83,0,0,0,1120.84,975.541Z" transform="translate(-1118.179 -973.709)" fill="#1c3e58"/></g><g transform="translate(466.066 201.364)"><path d="M1256.691,979.031a2.661,2.661,0,1,1,2.661-2.661A2.664,2.664,0,0,1,1256.691,979.031Zm0-3.49a.829.829,0,1,0,.829.829A.83.83,0,0,0,1256.691,975.541Z" transform="translate(-1254.03 -973.709)" fill="#1c3e58"/></g><g transform="translate(79.226 118.559)"><path d="M240.629,769.014a.916.916,0,0,1-.916-.916,11.522,11.522,0,0,1,11.509-11.509.916.916,0,1,1,0,1.832,9.688,9.688,0,0,0-9.677,9.677A.916.916,0,0,1,240.629,769.014Z" transform="translate(-239.713 -756.589)" fill="#1c3e58"/></g><g transform="translate(19.134 185.99)"><path d="M84.3,957.12a.916.916,0,0,1-.844-.559A16.681,16.681,0,0,1,98.821,933.4a.916.916,0,1,1,0,1.832,14.849,14.849,0,0,0-13.674,20.617.917.917,0,0,1-.844,1.273Z" transform="translate(-82.148 -933.397)" fill="#1c3e58"/></g><g transform="translate(601.313 186.333)"><path d="M1620.909,955.048a.916.916,0,0,1-.747-1.446,11.074,11.074,0,0,0-10.471-17.377.916.916,0,0,1-.236-1.817,12.906,12.906,0,0,1,12.2,20.253A.916.916,0,0,1,1620.909,955.048Z" transform="translate(-1608.656 -934.299)" fill="#1c3e58"/></g><g transform="translate(38.801 186.223)"><path d="M134.659,935.9a.944.944,0,1,1,.925-1.132.946.946,0,0,1-.925,1.132Z" transform="translate(-133.716 -934.01)" fill="#1c3e58"/></g><g transform="translate(99.951 134.51)"><path d="M295,800.3a.944.944,0,1,1,.925-1.132.943.943,0,0,1-.736,1.112.947.947,0,0,1-.189.019Z" transform="translate(-294.054 -798.414)" fill="#1c3e58"/></g><g transform="translate(134.025 174.126)"><path d="M384.34,904.177a.946.946,0,0,1-.924-.756.943.943,0,0,1,.736-1.112.916.916,0,0,1,.189-.019.944.944,0,0,1,0,1.887Z" transform="translate(-383.397 -902.29)" fill="#1c3e58"/></g><g transform="translate(150.975 201.847)"><path d="M428.784,976.864a.943.943,0,1,1,.788-.423.936.936,0,0,1-.6.4.917.917,0,0,1-.189.019Z" transform="translate(-427.841 -974.977)" fill="#1c3e58"/></g><g transform="translate(174.764 68.028)"><path d="M491.162,625.981a.943.943,0,1,1,.788-.423.936.936,0,0,1-.6.4A.913.913,0,0,1,491.162,625.981Z" transform="translate(-490.219 -624.094)" fill="#1c3e58"/></g><g transform="translate(258.749 99.77)"><path d="M711.716,709.9a1.286,1.286,0,0,1-.256-2.546,1.276,1.276,0,0,1,.258-.026,1.29,1.29,0,0,1,1.259,1.03,1.288,1.288,0,0,1-1.261,1.543Z" transform="translate(-710.431 -707.323)" fill="#1c3e58"/></g><g transform="translate(272.569 71.105)"><path d="M747.611,634.049a.944.944,0,1,1,.925-1.132.943.943,0,0,1-.736,1.112.913.913,0,0,1-.189.019Z" transform="translate(-746.668 -632.162)" fill="#1c3e58"/></g><g transform="translate(331.575 16.868)"><path d="M902.33,491.838a.944.944,0,1,1,.925-1.132.946.946,0,0,1-.925,1.132Z" transform="translate(-901.387 -489.951)" fill="#1c3e58"/></g><g transform="translate(350.465 84.242)"><path d="M951.859,668.5a.945.945,0,1,1,.189-.019.946.946,0,0,1-.189.019Z" transform="translate(-950.916 -666.608)" fill="#1c3e58"/></g><g transform="translate(399.709 137.135)"><path d="M1080.98,807.185a.945.945,0,1,1,.189-.019.92.92,0,0,1-.189.019Z" transform="translate(-1080.036 -805.298)" fill="#1c3e58"/></g><g transform="translate(356.781 177.267)"><path d="M968.42,912.414a.945.945,0,1,1,.189-.019.947.947,0,0,1-.189.019Z" transform="translate(-967.477 -910.527)" fill="#1c3e58"/></g><g transform="translate(456.151 42.933)"><path d="M1228.974,560.18a.946.946,0,0,1-.924-.755.943.943,0,0,1,.737-1.113.967.967,0,0,1,.188-.019.944.944,0,0,1,.188,1.868A.92.92,0,0,1,1228.974,560.18Z" transform="translate(-1228.031 -558.293)" fill="#1c3e58"/></g><g transform="translate(499.45 69.742)"><path d="M1342.509,630.477a.943.943,0,0,1-.188-1.868.912.912,0,0,1,.189-.019.944.944,0,0,1,0,1.887Z" transform="translate(-1341.566 -628.59)" fill="#1c3e58"/></g><g transform="translate(566.426 137.914)"><path d="M1518.123,809.226a.945.945,0,1,1,.189-.019.92.92,0,0,1-.189.019Z" transform="translate(-1517.18 -807.339)" fill="#1c3e58"/></g><g transform="translate(583.343 182.085)"><path d="M1562.481,925.045a.943.943,0,1,1,.787-.423.936.936,0,0,1-.6.4.908.908,0,0,1-.188.019Z" transform="translate(-1561.538 -923.158)" fill="#1c3e58"/></g><g transform="translate(602.908 171.006)"><path d="M1613.781,896a.944.944,0,1,1,.925-1.131.942.942,0,0,1-.925,1.131Z" transform="translate(-1612.838 -894.108)" fill="#1c3e58"/></g><g transform="translate(623.416 179.374)"><path d="M1667.554,917.937a.944.944,0,1,1,.924-1.131.943.943,0,0,1-.736,1.112.914.914,0,0,1-.188.019Z" transform="translate(-1666.611 -916.05)" fill="#1c3e58"/></g><g transform="translate(630.841 198.585)"><path d="M1687.024,968.311a.944.944,0,1,1,.925-1.132.944.944,0,0,1-.925,1.132Z" transform="translate(-1686.08 -966.423)" fill="#1c3e58"/></g><g transform="translate(560.404 201.448)"><path d="M1502.333,975.818a.945.945,0,1,1,.189-.02.914.914,0,0,1-.189.02Z" transform="translate(-1501.39 -973.931)" fill="#1c3e58"/></g><g transform="translate(494.62 201.987)"><path d="M1329.843,977.23a.944.944,0,1,1,.189-.019A.946.946,0,0,1,1329.843,977.23Z" transform="translate(-1328.9 -975.343)" fill="#1c3e58"/></g><g transform="translate(519.137 170.604)"><path d="M1394.127,894.943a.946.946,0,0,1-.924-.756.942.942,0,0,1,.736-1.112.914.914,0,0,1,.189-.019.944.944,0,0,1,0,1.887Z" transform="translate(-1393.184 -893.056)" fill="#1c3e58"/></g><g transform="translate(505.174 141.103)"><path d="M1357.516,817.589a.944.944,0,1,1,.925-1.132.946.946,0,0,1-.925,1.132Z" transform="translate(-1356.574 -815.702)" fill="#1c3e58"/></g><g transform="translate(433.337 181.594)"><path d="M1171.148,935.315V923.854l-2.936.357v-1.623l4.767-.718v13.445Z" transform="translate(-1168.212 -921.87)" fill="#1c3e58"/></g><g transform="translate(442.508 181.659)"><path d="M1192.4,935.422v-1.338l4.173-4.87a11.565,11.565,0,0,0,1.453-2.026,3.176,3.176,0,0,0,.373-1.438,2.1,2.1,0,0,0-.5-1.506,1.949,1.949,0,0,0-1.5-.522,2.216,2.216,0,0,0-1.743.654,2.469,2.469,0,0,0-.609,1.74v.405h-1.651l-.128-.385,0-.06a3.8,3.8,0,0,1,1.093-2.859,4.061,4.061,0,0,1,3.039-1.174,3.852,3.852,0,0,1,2.792,1.008,3.62,3.62,0,0,1,1.042,2.707,4.286,4.286,0,0,1-.662,2.217,21.953,21.953,0,0,1-1.812,2.482l-2.822,3.295h5.816v1.67Z" transform="translate(-1192.26 -922.043)" fill="#1c3e58"/></g><path d="M295.959,812.074a.916.916,0,0,0-1.833,0v71.1h1.833Z" transform="translate(-194.148 -671.788)" fill="#1c3e58"/><g transform="translate(502.594 205.25)"><path d="M1402.481,985.732h-51.756a.916.916,0,0,1,0-1.832h51.756a.916.916,0,0,1,0,1.832Z" transform="translate(-1349.809 -983.9)" fill="#1c3e58"/></g><g transform="translate(309.855 124.211)"><path d="M845.35,814.011a.916.916,0,0,1-.916-.916V772.327a.916.916,0,1,1,1.832,0v40.768A.916.916,0,0,1,845.35,814.011Z" transform="translate(-844.434 -771.411)" fill="#1c3e58"/></g></svg>