<svg xmlns="http://www.w3.org/2000/svg" width="70" height="37.877" viewBox="0 0 70 37.877"><g transform="translate(0)"><g transform="translate(0 0)"><rect width="7.02" height="6.686" transform="translate(62.98 27.819)" fill="#0c1115"/><path d="M237.271,298.1H233.9V284.19h-8.586l4.013-7.228h-9.806L207.787,298.1v6.685H225.31v3.373H233.9v-3.373h3.373Zm-19.679,0,7.717-13.9v13.9Z" transform="translate(-181.31 -270.276)" fill="#e82e34"/><path d="M117.417,251.618h-10q.148,8.615.148,17.267,0,8.637-.147,17.237h.268v.015h24.6v-6.685H117.4q-.038-3.619-.05-7.245,3.349-.023,6.7-.022t6.675.022v-6.644q-3.335.022-6.675.022t-6.7-.022q.012-3.626.05-7.246h7.2c1.984.021,5.282.07,7.689.17v-6.856H117.417Z" transform="translate(-107.418 -251.618)" fill="#e82e34"/></g></g></svg>