<svg xmlns="http://www.w3.org/2000/svg" width="132.943" height="33.477" viewBox="0 0 132.943 33.477"><g transform="translate(-74.116 -178)"><g transform="translate(74.116 181.805)"><path d="M74.116,243.521V240.05L84.44,226.517H74.116v-3.948h16.44v3.3L80.06,239.53H90.731v3.991Z" transform="translate(-74.116 -214.37)" fill="#2e6be6"/><path d="M153.224,194.948a2.819,2.819,0,1,1,2.819,2.819A2.814,2.814,0,0,1,153.224,194.948Zm.52,26.331V200.326H158.3v20.952Z" transform="translate(-131.917 -192.127)" fill="#2e6be6"/><path d="M206.846,221.867l-6.377-8.675-2.95,3.036v5.639h-4.555V192.933h4.555v18.089l9.239-10.107h5.64l-8.677,9.5,8.849,11.452Z" transform="translate(-160.954 -192.716)" fill="#2e6be6"/><path d="M275.184,223.085v-12.1h-3.469v-3.948h3.469v-5.726h4.556v5.726h4.25v3.948h-4.25v10.974c0,1.432.693,2.516,1.994,2.516a2.828,2.828,0,0,0,2-.781l1.085,3.471a6.171,6.171,0,0,1-4.25,1.344C277.007,228.507,275.184,226.6,275.184,223.085Z" transform="translate(-218.494 -198.835)" fill="#2e6be6"/><path d="M343.76,242.109v-2.863a8.423,8.423,0,0,1-6.724,3.383c-5.335,0-9.282-4.077-9.282-11.018,0-6.766,3.9-10.975,9.282-10.975a8.229,8.229,0,0,1,6.724,3.426v-2.906h4.555v20.952Zm0-6.333V227.49a6.8,6.8,0,0,0-5.379-2.82c-3.644,0-5.943,2.906-5.943,6.941,0,4.078,2.3,6.984,5.943,6.984A6.8,6.8,0,0,0,343.76,235.775Z" transform="translate(-259.44 -212.957)" fill="#2e6be6"/><path d="M421.769,216.966V192.933h4.554v22.9c0,1.432.694,2.516,2,2.516a2.95,2.95,0,0,0,2.039-.781l1.084,3.471a6.218,6.218,0,0,1-4.295,1.344C423.634,222.388,421.769,220.478,421.769,216.966Z" transform="translate(-328.133 -192.716)" fill="#2e6be6"/><path d="M481.7,221.867l-6.377-8.675-2.95,3.036v5.639h-4.555V192.933h4.555v18.089l9.239-10.107h5.64l-8.677,9.5,8.849,11.452Z" transform="translate(-361.783 -192.716)" fill="#2e6be6"/></g><g transform="translate(195.668 178)"><path d="M527.916,181h10.045l-4.933,8.252Z" transform="translate(-527.243 -180.192)" fill="#2e6be6"/><path d="M531.2,187.7a.752.752,0,0,1-.572-.391l-5.112-8.288a.665.665,0,0,1,.572-1.017h10.045a.644.644,0,0,1,.577.984l-4.933,8.318a.74.74,0,0,1-.573.394Zm-3.9-8.349,3.892,6.283,3.756-6.283Z" transform="translate(-525.416 -178)" fill="#2d2d2d"/></g></g></svg>