<svg xmlns="http://www.w3.org/2000/svg" width="161.197" height="40.348" viewBox="0 0 161.197 40.348"><g transform="translate(0 -340)"><rect width="161.197" height="40.348" transform="translate(0 340)" fill="#d76426"/><g transform="translate(15.992 353.932)"><path d="M68.46,403.138H66.478L60.5,393.9v9.237H59.055v-11h1.982l5.983,9.083v-9.083H68.46Z" transform="translate(-59.055 -391.953)" fill="#fff"/><path d="M131.221,394.648v5.22a2.62,2.62,0,0,1-.432,1.525,2.528,2.528,0,0,1-1.178.924,7.107,7.107,0,0,1-1.474.415,9.874,9.874,0,0,1-1.577.118q-4.609,0-4.61-2.982v-5.2q0-3.151,4.61-3.152Q131.221,391.512,131.221,394.648Zm-1.594,5.2v-5.237q0-2.033-3.05-2.034a7.523,7.523,0,0,0-1.136.076,3.52,3.52,0,0,0-.949.289,1.6,1.6,0,0,0-.712.627,1.977,1.977,0,0,0-.254,1.042v5.237q0,1.9,3.068,1.9Q129.628,401.749,129.627,399.851Z" transform="translate(-104.919 -391.496)" fill="#fff"/><path d="M193.348,395.292v4.863q0,2.984-4.61,2.984h-4.39v-11h4.372Q193.348,392.139,193.348,395.292Zm-1.576,4.83v-4.848a1.972,1.972,0,0,0-.254-1.042,1.5,1.5,0,0,0-.721-.609,4.127,4.127,0,0,0-.958-.273,7.53,7.53,0,0,0-1.135-.075h-2.711v8.745h2.627Q191.772,402.02,191.772,400.121Z" transform="translate(-150.42 -391.953)" fill="#fff"/><path d="M253.178,403.138h-7.559v-11h7.39v1.153h-5.746v3.592h5.187v1.153h-5.187v3.949h5.915Z" transform="translate(-195.099 -391.953)" fill="#fff"/><path d="M308.641,399.1v1.848a1.76,1.76,0,0,1-.914,1.694,6.67,6.67,0,0,1-2.982.492h-4.052v-11h3.932a6.858,6.858,0,0,1,2.228.288,1.908,1.908,0,0,1,1.051.713,2.138,2.138,0,0,1,.246,1.084V395.7a1.344,1.344,0,0,1-.382,1.034,2.4,2.4,0,0,1-1.127.525v.068a3.032,3.032,0,0,1,1.44.61A1.444,1.444,0,0,1,308.641,399.1Zm-2.033-3.457v-1.288a.923.923,0,0,0-.458-.881,3.34,3.34,0,0,0-1.526-.255h-2.288v3.728h2.338a2.672,2.672,0,0,0,1.491-.312A1.136,1.136,0,0,0,306.608,395.648Zm.389,5.236v-1.661a1.229,1.229,0,0,0-.179-.7.962.962,0,0,0-.559-.373,3.558,3.558,0,0,0-.677-.135q-.3-.025-.838-.025h-2.407V402h2.407a4.236,4.236,0,0,0,1.745-.254A.892.892,0,0,0,307,400.884Z" transform="translate(-235.259 -391.953)" fill="#fff"/><path d="M366.242,403.138h-2.017l-3.153-4.694H359.48v4.694h-1.644v-11H361.7a7.653,7.653,0,0,1,2.966.415,1.715,1.715,0,0,1,.9,1.737v1.9a1.691,1.691,0,0,1-.83,1.533,3.744,3.744,0,0,1-2.016.517Zm-2.323-7.152v-1.526q0-1.238-2.134-1.237H359.48v4.136h2.153a3.942,3.942,0,0,0,1.728-.289A1.107,1.107,0,0,0,363.919,395.987Z" transform="translate(-276.929 -391.953)" fill="#fff"/><path d="M416.559,403.138h-1.643v-11h1.643Z" transform="translate(-318.552 -391.953)" fill="#fff"/><path d="M456.735,402.484a14.437,14.437,0,0,1-3.084.321q-4.626,0-4.626-2.982V394.6q0-3.154,4.626-3.152a14.125,14.125,0,0,1,3.017.322v1.22a12.363,12.363,0,0,0-2.983-.406,7.532,7.532,0,0,0-1.136.075,4.278,4.278,0,0,0-.966.273,1.487,1.487,0,0,0-.728.61,1.959,1.959,0,0,0-.255,1.041v5.154q0,1.9,3.152,1.9a12.42,12.42,0,0,0,2.983-.407Z" transform="translate(-343.425 -391.451)" fill="#fff"/><path d="M505.993,403.138H504.35v-11h1.643Zm7.423,0h-2.135l-5.253-5.847,4.915-5.152h1.982l-4.948,5.085Z" transform="translate(-383.768 -391.953)" fill="#fff"/></g></g></svg>