<svg xmlns="http://www.w3.org/2000/svg" width="158.711" height="35.35" viewBox="0 0 158.711 35.35"><g transform="translate(-706.033 -427.164)"><path d="M749.467,440.891a2.44,2.44,0,0,0-1.2.258.834.834,0,0,0-.455.773q0,.545.714.879a13.919,13.919,0,0,0,2.275.727,30.064,30.064,0,0,1,3.137,1.014,5.7,5.7,0,0,1,2.16,1.515,3.816,3.816,0,0,1,.911,2.651,4.463,4.463,0,0,1-2.064,3.893,9.363,9.363,0,0,1-5.379,1.408,15.442,15.442,0,0,1-4.29-.589,11.713,11.713,0,0,1-3.64-1.743l1.82-3.484a13.188,13.188,0,0,0,3.136,1.5,10.081,10.081,0,0,0,3.1.531,2.981,2.981,0,0,0,1.349-.257.807.807,0,0,0,.5-.742,1.036,1.036,0,0,0-.732-.94,14.566,14.566,0,0,0-2.292-.726,26.938,26.938,0,0,1-3.054-1.015,5.725,5.725,0,0,1-2.1-1.5,3.757,3.757,0,0,1-.894-2.6,4.491,4.491,0,0,1,2.015-3.894,8.875,8.875,0,0,1,5.2-1.408,15.065,15.065,0,0,1,3.787.485,14.593,14.593,0,0,1,3.527,1.424l-1.951,3.515a13.552,13.552,0,0,0-5.59-1.668" transform="translate(-7.688 -2.684)"/><path d="M781.455,438.873a6.1,6.1,0,0,1,1.739,4.574v10.331h-5.753v-8.786a2.786,2.786,0,0,0-2.99-3,3.367,3.367,0,0,0-3.446,3.122v8.664h-5.785v-16.39h5.785v2.665a6.083,6.083,0,0,1,2.422-2.151,7.6,7.6,0,0,1,3.4-.727,6.343,6.343,0,0,1,4.631,1.7" transform="translate(-12.782 -2.695)"/><path d="M805.961,438.263a8.085,8.085,0,0,1,0,14.663,12.665,12.665,0,0,1-10.076,0,7.878,7.878,0,0,1-3.364-2.939,8.728,8.728,0,0,1,0-8.786,7.891,7.891,0,0,1,3.364-2.938,12.665,12.665,0,0,1,10.076,0m-7.768,4.439a4.715,4.715,0,0,0,0,5.907,3.55,3.55,0,0,0,2.731,1.123,3.587,3.587,0,0,0,2.761-1.123,4.186,4.186,0,0,0,1.04-2.969,4.11,4.11,0,0,0-1.055-2.938,3.6,3.6,0,0,0-2.746-1.12,3.546,3.546,0,0,0-2.731,1.12" transform="translate(-18.421 -2.706)"/><path d="M815.873,437.467h5.884l3.51,11.087,3.445-11.087h5.525l3.477,11.087,3.511-11.087h5.654l-6.435,16.389h-5.72l-3.348-10.119L828,453.856h-5.721Z" transform="translate(-23.72 -2.773)"/><path d="M857.955,430.834h6.468l6.6,12.423,6.565-12.423h6.468v21.237h-5.265l-.032-13.45-5.818,11.33H869.1l-5.85-11.33v13.45h-5.3Z" transform="translate(-32.808 -0.988)"/><g transform="translate(706.033 427.164)"><path d="M708.338,447.364a.209.209,0,0,1-.2,0l-1.249-.669-.761-.41a.175.175,0,0,1,0-.315l5.1-2.746,1.583-.851a.176.176,0,0,0,0-.316l-6.69-3.6a.176.176,0,0,1,0-.315l1.993-1.071a.206.206,0,0,1,.194,0l8.6,4.628a.585.585,0,0,1,0,1.048Z" transform="translate(-706.033 -429.823)"/><path d="M719.162,455.719a.176.176,0,0,1-.1.155l-1.247.674-.767.412a.192.192,0,0,1-.288-.155l0-5.5V449.6a.194.194,0,0,0-.289-.156l-6.7,3.605a.193.193,0,0,1-.289-.156v-2.15a.178.178,0,0,1,.1-.156l8.6-4.629a.65.65,0,0,1,.974.525Z" transform="translate(-706.779 -432.2)"/><path d="M732.7,450.568a.181.181,0,0,1,.1.158l0,1.342v.821a.2.2,0,0,1-.293.157l-5.1-2.748-1.583-.852a.2.2,0,0,0-.292.158v7.2a.2.2,0,0,1-.292.157l-1.992-1.072a.182.182,0,0,1-.1-.157v-9.256a.651.651,0,0,1,.974-.525Z" transform="translate(-709.729 -432.198)"/><path d="M733.537,437.07a.208.208,0,0,1,.194,0l1.249.669.761.41a.177.177,0,0,1,0,.316l-5.1,2.745-1.581.851a.177.177,0,0,0,0,.316l6.687,3.6a.176.176,0,0,1,0,.316l-1.992,1.071a.207.207,0,0,1-.2,0l-8.6-4.628a.585.585,0,0,1,0-1.048Z" transform="translate(-710.049 -429.823)"/><path d="M723.137,428.434a.177.177,0,0,1,.1-.156l1.247-.673.766-.413a.193.193,0,0,1,.289.156v5.5l0,1.707a.193.193,0,0,0,.29.155l6.7-3.6a.192.192,0,0,1,.288.156v2.149a.178.178,0,0,1-.1.156l-8.6,4.629a.65.65,0,0,1-.974-.524Z" transform="translate(-709.726 -427.165)"/><path d="M709.6,433.581a.179.179,0,0,1-.1-.158l0-1.342v-.819a.2.2,0,0,1,.294-.158l5.1,2.747,1.583.851a.2.2,0,0,0,.293-.159v-7.2a.2.2,0,0,1,.295-.158l1.989,1.071a.18.18,0,0,1,.1.158v9.256a.651.651,0,0,1-.974.524Z" transform="translate(-706.782 -427.164)"/><g transform="translate(1.996 1.09)"><rect width="1.515" height="2.276" transform="translate(10.143)"/><rect width="1.515" height="2.276" transform="translate(10.143 20.404)"/><path d="M0,0,2.4.072,2.444,1.51l-2.4-.072Z" transform="matrix(0.866, -0.501, 0.501, 0.866, 0, 16.369)"/><path d="M0,0,2.4.072,2.444,1.51l-2.4-.072Z" transform="translate(18.95 6.157) rotate(-30.048)"/><path d="M0,0,1.433.044,1.5,2.436.071,2.392Z" transform="translate(0.023 6.26) rotate(-60.001)"/><path d="M0,0,1.434.044l.072,2.392L.072,2.392Z" transform="matrix(0.5, -0.866, 0.866, 0.5, 18.915, 16.431)"/></g></g><g transform="translate(855.473 430.166)"><path d="M896.633,431.271h3.77v.883h-1.317v3.217h-1.148v-3.217h-1.3Z" transform="translate(-896.633 -431.271)"/><path d="M902.033,431.271h1.248l1.273,2.4,1.267-2.4h1.248v4.1h-1.016l-.006-2.6-1.122,2.187h-.741l-1.129-2.187v2.6h-1.022Z" transform="translate(-897.799 -431.271)"/></g><g transform="translate(735.006 457.247)"><path d="M743.142,473.432a1.585,1.585,0,0,0,.818.256c.452,0,.663-.233.663-.526s-.176-.474-.635-.65c-.615-.227-.9-.577-.9-1a1.067,1.067,0,0,1,1.179-1.037,1.66,1.66,0,0,1,.84.219l-.155.468a1.3,1.3,0,0,0-.7-.2.5.5,0,0,0-.572.482c0,.292.2.424.649.6.593.235.9.541.9,1.066,0,.621-.466,1.06-1.277,1.06a1.9,1.9,0,0,1-.96-.241Z" transform="translate(-742.986 -468.903)"/><path d="M748.2,471.511c0-.365-.007-.665-.029-.957h.551l.034.584h.015a1.251,1.251,0,0,1,1.129-.664c.473,0,1.207.292,1.207,1.5v2.111h-.621v-2.038c0-.57-.205-1.045-.791-1.045a.888.888,0,0,0-.833.658.953.953,0,0,0-.042.3v2.125H748.2Z" transform="translate(-744.106 -468.903)"/><path d="M757.575,472.292a1.7,1.7,0,0,1-1.7,1.878,1.657,1.657,0,0,1-1.638-1.819,1.7,1.7,0,0,1,1.694-1.877A1.65,1.65,0,0,1,757.575,472.292Zm-2.71.037c0,.773.43,1.358,1.037,1.358s1.037-.577,1.037-1.373c0-.6-.289-1.359-1.023-1.359S754.865,471.657,754.865,472.33Z" transform="translate(-745.416 -468.903)"/><path d="M760.919,470.584l.452,1.8c.1.395.191.76.255,1.125h.02c.078-.357.191-.737.3-1.117l.557-1.8h.522l.529,1.767c.128.424.227.8.3,1.154h.02a11.156,11.156,0,0,1,.261-1.146l.488-1.775h.614l-1.1,3.535h-.565l-.522-1.688c-.12-.395-.219-.745-.3-1.161h-.014a10.693,10.693,0,0,1-.31,1.169l-.55,1.68h-.565l-1.031-3.535Z" transform="translate(-746.722 -468.933)"/><path d="M772.755,471.446c-.035-.687-.078-1.512-.071-2.126h-.021c-.162.577-.36,1.191-.6,1.87l-.841,2.389h-.466l-.769-2.345c-.226-.694-.417-1.329-.55-1.914h-.014c-.015.614-.049,1.439-.092,2.177l-.127,2.111h-.587l.332-4.923h.783l.811,2.38c.2.607.36,1.147.48,1.659h.021c.12-.5.289-1.038.5-1.659l.848-2.38h.783l.3,4.923h-.6Z" transform="translate(-748.521 -468.422)"/><path d="M779.211,474.09l-.049-.445h-.021a1.261,1.261,0,0,1-1.045.525.99.99,0,0,1-1.044-1.015c0-.854.734-1.322,2.054-1.315v-.074a.72.72,0,0,0-.777-.818,1.659,1.659,0,0,0-.889.263l-.141-.424a2.073,2.073,0,0,1,1.122-.314c1.045,0,1.3.737,1.3,1.446v1.323a5.144,5.144,0,0,0,.056.847Zm-.092-1.8c-.677-.014-1.447.11-1.447.8a.559.559,0,0,0,.586.613.853.853,0,0,0,.826-.592.688.688,0,0,0,.035-.2Z" transform="translate(-750.342 -468.903)"/><path d="M783.695,471.6h.014c.085-.124.205-.278.3-.4l1-1.22h.748l-1.32,1.453,1.5,2.082h-.755l-1.178-1.694-.318.365v1.329h-.614v-5.186h.614Z" transform="translate(-751.645 -468.325)"/><path d="M788.93,472.439a1.113,1.113,0,0,0,1.172,1.227,2.191,2.191,0,0,0,.946-.182l.106.46a2.685,2.685,0,0,1-1.136.219,1.617,1.617,0,0,1-1.68-1.783,1.7,1.7,0,0,1,1.6-1.906,1.483,1.483,0,0,1,1.411,1.665,2.344,2.344,0,0,1-.021.3Zm1.821-.46c.007-.409-.162-1.044-.861-1.044-.628,0-.9.6-.953,1.044Z" transform="translate(-752.78 -468.903)"/><path d="M794.5,471.657c0-.417-.007-.775-.028-1.1h.543l.021.694h.028a1.033,1.033,0,0,1,.946-.774.623.623,0,0,1,.176.022v.606a.9.9,0,0,0-.212-.022.883.883,0,0,0-.833.826,1.775,1.775,0,0,0-.029.3v1.884H794.5Z" transform="translate(-754.105 -468.903)"/><path d="M798.653,473.432a1.588,1.588,0,0,0,.819.256c.452,0,.663-.233.663-.526s-.176-.474-.635-.65c-.615-.227-.9-.577-.9-1a1.067,1.067,0,0,1,1.179-1.037,1.659,1.659,0,0,1,.84.219l-.155.468a1.294,1.294,0,0,0-.7-.2.5.5,0,0,0-.572.482c0,.292.2.424.65.6.593.235.9.541.9,1.066,0,.621-.467,1.06-1.279,1.06a1.9,1.9,0,0,1-.96-.241Z" transform="translate(-754.974 -468.903)"/><path d="M803.565,473.235a.422.422,0,0,1,.417-.452.454.454,0,0,1,0,.906A.423.423,0,0,1,803.565,473.235Zm.177-1.044-.1-3.506h.677l-.1,3.506Z" transform="translate(-756.068 -468.422)"/><path d="M813.5,473.432a1.588,1.588,0,0,0,.819.256c.452,0,.663-.233.663-.526s-.176-.474-.635-.65c-.614-.227-.9-.577-.9-1a1.066,1.066,0,0,1,1.178-1.037,1.659,1.659,0,0,1,.84.219l-.155.468a1.3,1.3,0,0,0-.7-.2.5.5,0,0,0-.572.482c0,.292.2.424.65.6.592.235.9.541.9,1.066,0,.621-.467,1.06-1.278,1.06a1.891,1.891,0,0,1-.959-.241Z" transform="translate(-758.181 -468.903)"/><path d="M819.209,469.194v1.016h.89v.489h-.89V472.6c0,.439.121.687.467.687a1.338,1.338,0,0,0,.36-.044l.028.482a1.473,1.473,0,0,1-.55.088.844.844,0,0,1-.67-.27,1.336,1.336,0,0,1-.241-.92V470.7h-.529v-.489h.529v-.848Z" transform="translate(-759.201 -468.559)"/><path d="M824.716,474.09l-.05-.445h-.021a1.259,1.259,0,0,1-1.044.525.99.99,0,0,1-1.044-1.015c0-.854.733-1.322,2.053-1.315v-.074a.72.72,0,0,0-.776-.818,1.654,1.654,0,0,0-.889.263l-.142-.424a2.074,2.074,0,0,1,1.123-.314c1.044,0,1.3.737,1.3,1.446v1.323a5.24,5.24,0,0,0,.056.847Zm-.093-1.8c-.677-.014-1.447.11-1.447.8a.559.559,0,0,0,.586.613.853.853,0,0,0,.826-.592.686.686,0,0,0,.035-.2Z" transform="translate(-760.169 -468.903)"/><path d="M828.577,471.657c0-.417-.007-.775-.028-1.1h.543l.022.694h.027a1.032,1.032,0,0,1,.946-.774.615.615,0,0,1,.176.022v.606a.9.9,0,0,0-.211-.022.885.885,0,0,0-.833.826,1.873,1.873,0,0,0-.028.3v1.884h-.614Z" transform="translate(-761.464 -468.903)"/><path d="M836.88,471.446c-.035-.687-.078-1.512-.071-2.126h-.022c-.162.577-.36,1.191-.6,1.87l-.84,2.389h-.465l-.77-2.345c-.226-.694-.416-1.329-.55-1.914h-.013c-.015.614-.05,1.439-.093,2.177l-.127,2.111h-.586l.332-4.923h.783l.812,2.38c.2.607.361,1.147.48,1.659h.022c.12-.5.289-1.038.5-1.659l.848-2.38h.783l.3,4.923H837Z" transform="translate(-762.369 -468.422)"/><path d="M843.336,474.09l-.05-.445h-.021a1.26,1.26,0,0,1-1.044.525.99.99,0,0,1-1.044-1.015c0-.854.733-1.322,2.053-1.315v-.074a.72.72,0,0,0-.776-.818,1.657,1.657,0,0,0-.889.263l-.142-.424a2.076,2.076,0,0,1,1.123-.314c1.044,0,1.3.737,1.3,1.446v1.323a5.24,5.24,0,0,0,.056.847Zm-.093-1.8c-.677-.014-1.447.11-1.447.8a.559.559,0,0,0,.586.613.854.854,0,0,0,.826-.592.713.713,0,0,0,.034-.2Z" transform="translate(-764.19 -468.903)"/><path d="M847.82,471.6h.014c.085-.124.205-.278.3-.4l1-1.22h.748l-1.32,1.453,1.5,2.082h-.756l-1.178-1.694-.318.365v1.329h-.614v-5.186h.614Z" transform="translate(-765.492 -468.325)"/><path d="M853.055,472.439a1.112,1.112,0,0,0,1.171,1.227,2.191,2.191,0,0,0,.946-.182l.107.46a2.692,2.692,0,0,1-1.137.219,1.617,1.617,0,0,1-1.68-1.783,1.7,1.7,0,0,1,1.6-1.906,1.483,1.483,0,0,1,1.412,1.665,2.469,2.469,0,0,1-.022.3Zm1.82-.46c.007-.409-.162-1.044-.862-1.044-.627,0-.9.6-.952,1.044Z" transform="translate(-766.627 -468.903)"/><path d="M858.628,471.657c0-.417-.007-.775-.028-1.1h.543l.021.694h.027a1.034,1.034,0,0,1,.946-.774.619.619,0,0,1,.176.022v.606a.9.9,0,0,0-.211-.022.884.884,0,0,0-.833.826,1.866,1.866,0,0,0-.028.3v1.884h-.614Z" transform="translate(-767.953 -468.903)"/><path d="M862.777,473.432a1.593,1.593,0,0,0,.819.256c.452,0,.663-.233.663-.526s-.176-.474-.635-.65c-.614-.227-.9-.577-.9-1a1.066,1.066,0,0,1,1.178-1.037,1.659,1.659,0,0,1,.84.219l-.155.468a1.294,1.294,0,0,0-.7-.2.5.5,0,0,0-.572.482c0,.292.2.424.649.6.593.235.9.541.9,1.066,0,.621-.466,1.06-1.278,1.06a1.9,1.9,0,0,1-.96-.241Z" transform="translate(-768.822 -468.903)"/><path d="M867.689,473.235a.422.422,0,0,1,.417-.452.454.454,0,0,1,0,.906A.422.422,0,0,1,867.689,473.235Zm.177-1.044-.1-3.506h.677l-.1,3.506Z" transform="translate(-769.916 -468.422)"/></g></g></svg>