<svg xmlns="http://www.w3.org/2000/svg" xmlns:xlink="http://www.w3.org/1999/xlink" width="90.085" height="60.508" viewBox="0 0 90.085 60.508"><defs><linearGradient id="a" x1="0.5" y1="1" x2="0.5" gradientUnits="objectBoundingBox"><stop offset="0" stop-color="#3ca7d5"/><stop offset="0.065" stop-color="#37b0d2" stop-opacity="0.996"/><stop offset="0.245" stop-color="#2dc6cd" stop-opacity="0.992"/><stop offset="0.425" stop-color="#27d3ca" stop-opacity="0.988"/><stop offset="0.6" stop-color="#26d8c9" stop-opacity="0.984"/><stop offset="0.865" stop-color="#63dedc" stop-opacity="0.984"/><stop offset="1" stop-color="#7ee1e5" stop-opacity="0.984"/></linearGradient></defs><g transform="translate(-214.088 -109.114)"><g transform="translate(214.088 109.114)"><path d="M284.241,152.712v-9.383l2.848-1.873,4.205,1.344v3.435l3.263,1.05v5.427h5.89a3.407,3.407,0,0,0,3.726-3.726c0-22.02-20.166-39.872-45.042-39.872s-45.043,17.851-45.043,39.872a3.41,3.41,0,0,0,3.726,3.726h5.245V142.46l2.956-2.038h0l6.134,2.237v3.523l4.187,1.957v4.573h2.934v-7.87l2.718-1.856,4.656,1.626v8.1h2.748v-4.843l3.447-2.28h0l6.354,2.137v4.987h2.749V138.977l2.164-2.123h0l7.024,1.9v13.954h2.92V144.6l1.9-1.49,5.331,1.489v8.114Zm-46.062-23.275a2.376,2.376,0,1,1,2.376-2.376A2.377,2.377,0,0,1,238.179,129.437Zm41.732,0a2.376,2.376,0,1,1,2.377-2.376A2.376,2.376,0,0,1,279.911,129.437Z" transform="translate(-214.088 -109.114)" fill="url(#a)"/></g><g transform="translate(217.321 160.51)"><path d="M218.977,195.787v-8.776h.967l2.547,5.2,2.547-5.2h.967v8.776h-.967v-6.954l-2.108,4.345h-.88l-2.107-4.345v6.954Z" transform="translate(-218.977 -186.893)" fill="#00b1ce" stroke="#00b1ce" stroke-miterlimit="10" stroke-width="0.2"/><path d="M239.7,187.261a3.414,3.414,0,0,1,3.31,0,2.629,2.629,0,0,1,1.022,1.153,3.78,3.78,0,0,1,.288.979,7.265,7.265,0,0,1,.108.942q.012.372.013,1t-.013,1a7.265,7.265,0,0,1-.108.942,3.78,3.78,0,0,1-.288.979,2.629,2.629,0,0,1-1.022,1.153,3.414,3.414,0,0,1-3.31,0,2.629,2.629,0,0,1-1.022-1.153,3.78,3.78,0,0,1-.288-.979,7.265,7.265,0,0,1-.108-.942q-.012-.372-.013-1t.013-1a7.265,7.265,0,0,1,.108-.942,3.78,3.78,0,0,1,.288-.979A2.629,2.629,0,0,1,239.7,187.261Zm2.764.716a2.369,2.369,0,0,0-2.219,0,1.7,1.7,0,0,0-.676.766,3.037,3.037,0,0,0-.232.821,7.132,7.132,0,0,0-.09.842q-.012.35-.013.932t.013.933a7.132,7.132,0,0,0,.09.842,3.044,3.044,0,0,0,.232.821,1.7,1.7,0,0,0,.676.765,2.364,2.364,0,0,0,2.219,0,1.7,1.7,0,0,0,.676-.765,3.043,3.043,0,0,0,.232-.821,7.112,7.112,0,0,0,.09-.842q.012-.35.013-.933t-.013-.932a7.112,7.112,0,0,0-.09-.842,3.036,3.036,0,0,0-.232-.821A1.7,1.7,0,0,0,242.464,187.976Z" transform="translate(-225.511 -186.833)" fill="#00b1ce" stroke="#00b1ce" stroke-miterlimit="10" stroke-width="0.2"/><path d="M255.366,195.014l.428-.781a4.649,4.649,0,0,0,2.256.744,2.045,2.045,0,0,0,.688-.108,1.381,1.381,0,0,0,.486-.279,1.509,1.509,0,0,0,.3-.4,1.648,1.648,0,0,0,.164-.44,2.154,2.154,0,0,0,.044-.431,1.764,1.764,0,0,0-.227-.892,1.355,1.355,0,0,0-.74-.589,5.522,5.522,0,0,0-.79-.2,6.832,6.832,0,0,1-.815-.2,2.31,2.31,0,0,1-1.611-2.25,2.3,2.3,0,0,1,.669-1.673,2.446,2.446,0,0,1,1.828-.682,5.433,5.433,0,0,1,2.311.62l-.372.8a4.641,4.641,0,0,0-1.94-.552,1.45,1.45,0,0,0-1.147.434,1.535,1.535,0,0,0-.384,1.053,1.626,1.626,0,0,0,.241.874,1.366,1.366,0,0,0,.75.564,6.66,6.66,0,0,0,.784.192,5.826,5.826,0,0,1,.852.224,2.321,2.321,0,0,1,1.165.9,2.48,2.48,0,0,1,.391,1.378,2.656,2.656,0,0,1-.171.952,2.508,2.508,0,0,1-.49.8,2.221,2.221,0,0,1-.836.561,3.087,3.087,0,0,1-1.156.208,4.1,4.1,0,0,1-1.364-.224A8.186,8.186,0,0,1,255.366,195.014Z" transform="translate(-231.302 -186.833)" fill="#00b1ce" stroke="#00b1ce" stroke-miterlimit="10" stroke-width="0.2"/><path d="M270.732,195.014l.427-.781a4.651,4.651,0,0,0,2.256.744,2.042,2.042,0,0,0,.688-.108,1.38,1.38,0,0,0,.486-.279,1.51,1.51,0,0,0,.3-.4,1.649,1.649,0,0,0,.164-.44,2.154,2.154,0,0,0,.044-.431,1.764,1.764,0,0,0-.227-.892,1.353,1.353,0,0,0-.74-.589,5.527,5.527,0,0,0-.79-.2,6.836,6.836,0,0,1-.815-.2,2.31,2.31,0,0,1-1.611-2.25,2.3,2.3,0,0,1,.669-1.673,2.446,2.446,0,0,1,1.829-.682,5.428,5.428,0,0,1,2.311.62l-.372.8a4.641,4.641,0,0,0-1.94-.552,1.45,1.45,0,0,0-1.147.434,1.535,1.535,0,0,0-.384,1.053,1.631,1.631,0,0,0,.241.874,1.366,1.366,0,0,0,.75.564,6.66,6.66,0,0,0,.784.192,5.8,5.8,0,0,1,.852.224,2.321,2.321,0,0,1,1.165.9,2.48,2.48,0,0,1,.391,1.378,2.656,2.656,0,0,1-.171.952,2.508,2.508,0,0,1-.49.8,2.221,2.221,0,0,1-.836.561,3.086,3.086,0,0,1-1.156.208,4.1,4.1,0,0,1-1.364-.224A8.184,8.184,0,0,1,270.732,195.014Z" transform="translate(-236.506 -186.833)" fill="#00b1ce" stroke="#00b1ce" stroke-miterlimit="10" stroke-width="0.2"/><path d="M287.183,187.011h.967v7.909h3.5v.868h-4.462Z" transform="translate(-242.078 -186.893)" fill="#00b1ce" stroke="#00b1ce" stroke-miterlimit="10" stroke-width="0.2"/><path d="M303.789,187.011h.93l2.975,8.776h-1.01L306,193.668h-3.483l-.688,2.119h-1.01Zm1.922,5.788-1.457-4.48L302.8,192.8Z" transform="translate(-246.695 -186.893)" fill="#00b1ce" stroke="#00b1ce" stroke-miterlimit="10" stroke-width="0.2"/><path d="M323.859,187.011h.967v8.776h-.973L320,188.746v7.041h-.967v-8.776h.973l3.849,7.041Z" transform="translate(-252.867 -186.893)" fill="#00b1ce" stroke="#00b1ce" stroke-miterlimit="10" stroke-width="0.2"/><path d="M336.922,187.011h2.225a5.369,5.369,0,0,1,1.419.143,2.31,2.31,0,0,1,.976.561,2.894,2.894,0,0,1,.635.908,3.829,3.829,0,0,1,.255.92,7.523,7.523,0,0,1,.1.889q.012.354.012.967t-.012.967a7.517,7.517,0,0,1-.1.89,3.829,3.829,0,0,1-.255.92,2.9,2.9,0,0,1-.635.908,2.31,2.31,0,0,1-.976.561,5.369,5.369,0,0,1-1.419.143h-2.225Zm.967.868v7.041h1.258c.21,0,.377,0,.5-.007a3.013,3.013,0,0,0,.452-.058,1.475,1.475,0,0,0,.443-.152,1.527,1.527,0,0,0,.384-.31,2.31,2.31,0,0,0,.276-.368,1.821,1.821,0,0,0,.183-.466q.074-.282.112-.489a4.858,4.858,0,0,0,.056-.556c.013-.231.019-.412.021-.542s0-.321,0-.573,0-.443,0-.573-.009-.311-.021-.543a4.86,4.86,0,0,0-.056-.555q-.038-.207-.112-.489a1.821,1.821,0,0,0-.183-.466,2.311,2.311,0,0,0-.276-.368,1.526,1.526,0,0,0-.384-.31,1.456,1.456,0,0,0-.443-.152,3.116,3.116,0,0,0-.452-.059c-.122,0-.288-.006-.5-.006Z" transform="translate(-258.924 -186.893)" fill="#00b1ce" stroke="#00b1ce" stroke-miterlimit="10" stroke-width="0.2"/></g></g></svg>