<svg xmlns="http://www.w3.org/2000/svg" width="52.5" height="52.5" viewBox="0 0 52.5 52.5"><g transform="translate(-0.001 0)"><path d="M98.65,16.408H74.326a9.843,9.843,0,0,0-8.6,14.656L53.568,10.2A26.233,26.233,0,0,1,98.65,16.408Z" transform="translate(-48.075 0)" fill="#f44336"/><path d="M253.551,169.864A26.271,26.271,0,0,1,227.3,196.113a23.411,23.411,0,0,1-3.281-.219l11.812-21.108a9.867,9.867,0,0,0-3.609-13.453,9.752,9.752,0,0,0-4.9-1.312h24.3A25.881,25.881,0,0,1,253.551,169.864Z" transform="translate(-201.051 -143.613)" fill="#ffc107"/><path d="M34.782,120.411,22.97,141.52h-.022A26.234,26.234,0,0,1,5.493,99.434L17.655,120.3l.066.109a9.843,9.843,0,0,0,17.062,0Z" transform="translate(0 -89.239)" fill="#4caf50"/><path d="M178.295,174.785a9.843,9.843,0,0,1-17.062,0l-.066-.109a9.843,9.843,0,0,1,8.6-14.656h.022a9.751,9.751,0,0,1,4.9,1.312A9.867,9.867,0,0,1,178.295,174.785Z" transform="translate(-143.512 -143.612)" fill="#f44336"/><path d="M178.295,174.785a9.843,9.843,0,0,1-17.062,0l-.066-.109a9.843,9.843,0,0,1,8.6-14.656h.022a9.751,9.751,0,0,1,4.9,1.312A9.867,9.867,0,0,1,178.295,174.785Z" transform="translate(-143.512 -143.612)" fill="#2196f3"/><path d="M160.184,171.229a10.858,10.858,0,0,1-5.431-1.457A10.946,10.946,0,1,1,169.7,165.76h0A11,11,0,0,1,160.184,171.229Zm.057-19.687a8.754,8.754,0,1,0,7.562,13.125h0a8.75,8.75,0,0,0-7.56-13.124h0Z" transform="translate(-133.969 -134.041)" fill="#fafafa"/></g></svg>