<!-- Generated by IcoMoon.io -->
<svg version="1.1" xmlns="http://www.w3.org/2000/svg" width="2048" height="1024" viewBox="0 0 2048 1024">
<title></title>
<g id="icomoon-ignore">
</g>
<path fill="#0055b8" d="M303.753 154.817l-171.267 463.852h76.959v115.499h-209.482v-87.73l238.962-646.311h129.257z"></path>
<path fill="#000" d="M368.737 0.345v-0.422h-292.718v115.933h211.879l16.324 38.962 175.46 463.828h-75.996v115.511h208.915v-87.826z"></path>
<path fill="#000" d="M44.696 998.744h62.767v23.047h-90.983v-154.81h28.215z"></path>
<path fill="#000" d="M200.675 1021.791c-0.807-2.626-1.494-5.132-2.036-7.494-0.491-1.929-0.914-4.292-1.182-6.703l-0.022-0.248-0.241-0.108c-3.35 4.849-7.529 8.87-12.368 11.944l-0.174 0.103c-4.65 2.935-10.308 4.677-16.373 4.677-0.135 0-0.271-0.001-0.406-0.003h0.020c-0.635 0.043-1.377 0.068-2.125 0.068-8.823 0-16.841-3.448-22.78-9.070l0.015 0.014c-5.445-5.992-8.778-13.988-8.778-22.763 0-0.685 0.020-1.365 0.060-2.040l-0.004 0.093c-0.026-0.471-0.040-1.023-0.040-1.578 0-9.903 4.629-18.724 11.841-24.418l0.066-0.050c8.582-5.867 19.186-9.368 30.608-9.368 1.252 0 2.495 0.042 3.726 0.125l-0.167-0.009h16.758v-11.794c0.032-0.48 0.051-1.041 0.051-1.606 0-5.612-1.827-10.797-4.919-14.993l0.049 0.070c-3.11-3.578-7.668-5.827-12.752-5.827-0.367 0-0.731 0.012-1.092 0.035l0.049-0.003c-0.277-0.016-0.601-0.026-0.927-0.026-4.756 0-9.047 1.987-12.090 5.175l-0.006 0.007c-2.93 3.352-4.717 7.768-4.717 12.602 0 0.297 0.007 0.592 0.020 0.885l-0.002-0.042-24.227-0.108c0.054-9.87 4.678-18.648 11.862-24.334l0.065-0.050c7.943-6.43 18.169-10.323 29.304-10.323 0.82 0 1.636 0.021 2.446 0.063l-0.114-0.005c0.657-0.035 1.425-0.055 2.198-0.055 10.561 0 20.252 3.726 27.829 9.935l-0.078-0.062c7.006 6.624 11.366 15.983 11.366 26.361 0 0.898-0.033 1.789-0.097 2.671l0.007-0.118v53.37c-0.001 0.145-0.001 0.316-0.001 0.487 0 8.78 1.366 17.241 3.898 25.182l-0.161-0.587h-24.36zM173.448 1007.334c0.109 0.002 0.238 0.003 0.367 0.003 5.168 0 9.968-1.572 13.95-4.263l-0.088 0.056c4.036-2.686 7.236-6.333 9.316-10.624l0.069-0.158v-24.095h-17.107c-0.406-0.029-0.881-0.046-1.359-0.046-5.773 0-10.979 2.426-14.656 6.313l-0.009 0.009c-3.449 3.941-5.553 9.135-5.553 14.82 0 0.249 0.004 0.498 0.012 0.745l-0.001-0.036c-0.016 0.297-0.026 0.644-0.026 0.994 0 4.359 1.459 8.378 3.915 11.594l-0.034-0.046c2.526 2.922 6.238 4.759 10.38 4.759 0.29 0 0.578-0.009 0.864-0.027l-0.039 0.002z"></path>
<path fill="#000" d="M282.815 906.761l1.313 14.12 0.373 0.108c3.123-5.019 7.329-9.087 12.312-11.958l0.169-0.090c4.909-2.687 10.755-4.268 16.971-4.268 0.362 0 0.722 0.005 1.081 0.016l-0.053-0.001c0.463-0.027 1.004-0.043 1.55-0.043 12.556 0 23.181 8.265 26.733 19.651l0.053 0.198c3.032-5.992 7.366-10.932 12.653-14.589l0.129-0.084c5.049-3.265 11.219-5.206 17.843-5.206 0.335 0 0.668 0.005 1 0.015l-0.049-0.001c0.41-0.020 0.891-0.032 1.375-0.032 9.592 0 18.128 4.518 23.598 11.542l0.050 0.067c5.735 8.94 9.142 19.85 9.142 31.556 0 1.614-0.065 3.213-0.192 4.795l0.013-0.208v69.418h-24.24v-69.526c0.101-1.154 0.159-2.496 0.159-3.851 0-7.361-1.699-14.324-4.726-20.52l0.122 0.277c-2.765-4.073-7.374-6.713-12.599-6.713-0.319 0-0.635 0.010-0.949 0.029l0.043-0.002c-0.078-0.001-0.17-0.002-0.263-0.002-4.81 0-9.167 1.943-12.328 5.087l0.001-0.001c-3.472 3.627-6.084 8.107-7.489 13.092l-0.053 0.22c0.084 1.337 0.181 2.675 0.241 4.036s0.133 2.723 0.133 4.144v73.791h-24.227v-70.153c0.088-1.062 0.138-2.298 0.138-3.546 0-7.249-1.692-14.103-4.703-20.189l0.119 0.266c-2.744-4.162-7.398-6.871-12.685-6.871-0.327 0-0.651 0.010-0.973 0.031l0.044-0.002c-0.203-0.008-0.441-0.012-0.68-0.012-4.152 0-7.996 1.318-11.137 3.558l0.059-0.040c-3.362 2.594-6.039 5.912-7.823 9.73l-0.068 0.161v86.971h-24.227v-114.981h22.047z"></path>
<path fill="#000" d="M540.776 973.83c0.059 0.985 0.093 2.136 0.093 3.295 0 12.501-3.936 24.082-10.637 33.573l0.123-0.183c-6.679 8.266-16.816 13.507-28.177 13.507-0.747 0-1.488-0.023-2.224-0.067l0.101 0.005c-0.312 0.010-0.679 0.016-1.047 0.016-5.772 0-11.217-1.4-16.014-3.878l0.195 0.092c-4.859-2.719-8.839-6.475-11.74-10.99l-0.078-0.13-0.349 0.108-1.578 12.65h-20.963v-165.894h24.095v62.008h0.373c2.879-4.156 6.643-7.5 11.036-9.81l0.168-0.081c4.315-2.15 9.399-3.409 14.777-3.409 0.311 0 0.621 0.004 0.93 0.013l-0.046-0.001c0.61-0.038 1.323-0.059 2.042-0.059 11.646 0 21.978 5.622 28.432 14.301l0.067 0.095c6.596 10.057 10.52 22.38 10.52 35.62 0 1.269-0.036 2.529-0.107 3.78l0.008-0.173v15.662zM516.681 958.168c0.039-0.782 0.061-1.698 0.061-2.619 0-8.799-2.004-17.131-5.581-24.562l0.147 0.34c-3.15-5.976-9.319-9.98-16.424-9.98-0.431 0-0.859 0.015-1.283 0.044l0.057-0.003c-0.208-0.008-0.453-0.012-0.699-0.012-4.592 0-8.818 1.564-12.175 4.189l0.044-0.033c-3.591 3.048-6.409 6.896-8.194 11.274l-0.070 0.195v55.72c1.8 4.336 4.608 7.945 8.143 10.653l0.061 0.045c3.457 2.385 7.735 3.809 12.347 3.809 0.28 0 0.559-0.005 0.837-0.016l-0.040 0.001c0.494 0.046 1.069 0.072 1.65 0.072 6.698 0 12.58-3.498 15.918-8.766l0.046-0.077c3.31-6.408 5.25-13.986 5.25-22.017 0-0.917-0.025-1.829-0.075-2.733l0.006 0.126v-15.662z"></path>
<path fill="#000" d="M571.798 965.649c-0.070-1.259-0.109-2.732-0.109-4.214 0-14.849 3.98-28.769 10.932-40.751l-0.209 0.39c6.085-9.925 16.873-16.445 29.184-16.445 0.456 0 0.909 0.009 1.361 0.027l-0.065-0.002c0.218-0.005 0.474-0.008 0.731-0.008 5.201 0 10.119 1.217 14.482 3.382l-0.19-0.085c4.51 2.385 8.275 5.604 11.216 9.482l0.061 0.083 0.349-0.108v-61.442h24.24v165.834h-21.107l-1.687-12.24-0.349-0.084c-5.769 8.792-15.58 14.517-26.729 14.517-0.438 0-0.874-0.009-1.307-0.026l0.062 0.002c-0.491 0.025-1.066 0.039-1.644 0.039-11.844 0-22.305-5.924-28.58-14.971l-0.075-0.115c-6.679-10.563-10.642-23.42-10.642-37.202 0-1.322 0.036-2.636 0.109-3.941l-0.008 0.181v-2.301zM595.893 967.89c-0.046 0.913-0.073 1.982-0.073 3.057 0 9.358 2.005 18.247 5.609 26.262l-0.163-0.405c2.986 6.224 9.237 10.445 16.475 10.445 0.328 0 0.655-0.009 0.979-0.026l-0.045 0.002c0.204 0.007 0.444 0.011 0.685 0.011 4.38 0 8.444-1.356 11.794-3.671l-0.069 0.045c3.591-2.665 6.452-6.112 8.363-10.102l0.070-0.163v-57.141c-1.986-4.339-4.845-7.97-8.376-10.798l-0.058-0.045c-3.198-2.426-7.244-3.887-11.632-3.887-0.189 0-0.377 0.003-0.564 0.008l0.028-0.001c-0.112-0.002-0.244-0.004-0.376-0.004-7.849 0-14.539 4.965-17.1 11.925l-0.041 0.126c-3.524 8.601-5.57 18.583-5.57 29.042 0 1.116 0.023 2.226 0.069 3.331l-0.005-0.158z"></path>
<path fill="#000" d="M766.714 1021.791c-0.807-2.626-1.494-5.132-2.036-7.494-0.491-1.929-0.914-4.292-1.182-6.703l-0.022-0.248-0.241-0.108c-3.35 4.849-7.529 8.87-12.368 11.944l-0.174 0.103c-4.65 2.935-10.308 4.677-16.373 4.677-0.135 0-0.271-0.001-0.406-0.003h0.020c-0.635 0.043-1.377 0.068-2.125 0.068-8.823 0-16.841-3.448-22.78-9.070l0.015 0.014c-5.445-5.992-8.778-13.988-8.778-22.763 0-0.685 0.020-1.365 0.060-2.040l-0.004 0.093c-0.026-0.471-0.040-1.023-0.040-1.578 0-9.903 4.629-18.724 11.841-24.418l0.066-0.050c8.582-5.867 19.186-9.368 30.608-9.368 1.252 0 2.495 0.042 3.726 0.125l-0.167-0.009h16.758v-11.794c0.032-0.48 0.051-1.041 0.051-1.606 0-5.612-1.827-10.797-4.919-14.993l0.049 0.070c-3.487-3.575-8.352-5.793-13.735-5.793-5.062 0-9.666 1.961-13.093 5.165l0.011-0.010c-2.923 3.35-4.706 7.761-4.706 12.589 0 0.301 0.007 0.601 0.021 0.899l-0.002-0.042-24.227-0.108c0.054-9.87 4.678-18.648 11.862-24.334l0.065-0.050c7.942-6.428 18.167-10.32 29.301-10.32 0.8 0 1.596 0.020 2.387 0.060l-0.111-0.004c0.657-0.035 1.425-0.055 2.198-0.055 10.561 0 20.252 3.726 27.829 9.935l-0.078-0.062c7.006 6.624 11.366 15.983 11.366 26.361 0 0.898-0.033 1.789-0.097 2.671l0.007-0.118v53.37c-0.001 0.145-0.001 0.317-0.001 0.489 0 8.78 1.366 17.24 3.898 25.18l-0.161-0.587h-24.312zM739.475 1007.334c0.109 0.002 0.238 0.003 0.367 0.003 5.168 0 9.968-1.572 13.95-4.263l-0.088 0.056c4.036-2.686 7.236-6.333 9.316-10.624l0.069-0.158v-24.095h-17.107c-0.406-0.029-0.881-0.046-1.359-0.046-5.773 0-10.979 2.426-14.656 6.313l-0.009 0.009c-3.449 3.941-5.553 9.135-5.553 14.82 0 0.249 0.004 0.498 0.012 0.745l-0.001-0.036c-0.016 0.297-0.026 0.644-0.026 0.994 0 4.359 1.459 8.378 3.915 11.594l-0.034-0.046c2.526 2.922 6.238 4.759 10.38 4.759 0.29 0 0.578-0.009 0.864-0.027l-0.039 0.002z"></path>
<path fill="#000" d="M894.225 1021.791v-154.81h47.491c1.133-0.079 2.455-0.124 3.787-0.124 12.358 0 23.811 3.87 33.216 10.464l-0.186-0.123c7.955 6.954 12.951 17.121 12.951 28.454 0 1.061-0.044 2.111-0.13 3.15l0.009-0.136c0.010 0.302 0.016 0.658 0.016 1.014 0 14.261-9.256 26.36-22.088 30.617l-0.228 0.065v0.301c8.585 1.399 15.865 6.118 20.609 12.771l0.065 0.096c4.418 6.539 7.052 14.598 7.052 23.272 0 0.412-0.006 0.823-0.018 1.232l0.001-0.060c0.077 0.943 0.121 2.042 0.121 3.15 0 11.668-4.847 22.203-12.637 29.703l-0.013 0.012c-8.907 6.907-20.242 11.072-32.55 11.072-1.264 0-2.518-0.044-3.76-0.13l0.167 0.009zM918.452 934.073h26.504c0.189 0.006 0.411 0.009 0.634 0.009 6.215 0 11.837-2.543 15.881-6.645l0.003-0.003c3.647-4.478 5.857-10.254 5.857-16.546 0-0.634-0.022-1.263-0.067-1.887l0.005 0.084c0.057-0.646 0.090-1.398 0.090-2.158 0-6.569-2.435-12.569-6.452-17.147l0.025 0.030c-4.572-3.91-10.554-6.289-17.093-6.289-0.743 0-1.479 0.031-2.206 0.091l0.095-0.006h-23.252v50.491zM918.452 949.602v55.804h29.649c0.485 0.036 1.051 0.057 1.622 0.057 6.546 0 12.461-2.707 16.685-7.062l0.006-0.006c3.956-4.968 6.347-11.336 6.347-18.262 0-0.717-0.026-1.428-0.076-2.133l0.005 0.095c0.038-0.616 0.060-1.335 0.060-2.060 0-7.005-2.043-13.532-5.566-19.019l0.084 0.14c-3.592-4.644-9.165-7.605-15.431-7.605-0.552 0-1.099 0.023-1.639 0.068l0.071-0.005h-31.817z"></path>
<path fill="#000" d="M1059.384 1021.791h-24.095v-165.858h24.095z"></path>
<path fill="#000" d="M1096.285 957.035c-0.035-0.742-0.055-1.612-0.055-2.487 0-13.498 4.797-25.875 12.78-35.52l-0.075 0.093c9.184-8.965 21.755-14.495 35.618-14.495s26.435 5.53 35.629 14.505l-0.010-0.010c7.908 9.549 12.706 21.923 12.706 35.419 0 0.877-0.020 1.75-0.060 2.618l0.005-0.123v14.674c0.042 0.807 0.066 1.753 0.066 2.704 0 13.424-4.789 25.729-12.752 35.3l0.073-0.090c-8.202 8.873-19.9 14.41-32.892 14.41-0.902 0-1.798-0.027-2.686-0.079l0.123 0.006c-0.803 0.051-1.74 0.080-2.685 0.080-13.069 0-24.842-5.546-33.095-14.413l-0.025-0.027c-7.918-9.482-12.725-21.801-12.725-35.242 0-0.927 0.023-1.848 0.068-2.764l-0.005 0.129v-14.686zM1120.513 971.709c-0.033 0.69-0.052 1.499-0.052 2.312 0 8.679 2.164 16.852 5.981 24.009l-0.134-0.275c3.952 6.008 10.663 9.92 18.288 9.92s14.336-3.912 18.237-9.837l0.051-0.082c3.719-6.891 5.904-15.083 5.904-23.785 0-0.783-0.018-1.561-0.053-2.335l0.004 0.11v-14.722c0.029-0.642 0.046-1.394 0.046-2.15 0-8.697-2.208-16.879-6.093-24.016l0.131 0.264c-3.479-6-9.872-9.971-17.192-9.971-0.394 0-0.786 0.012-1.174 0.034l0.054-0.003c-0.368-0.025-0.797-0.039-1.23-0.039-7.277 0-13.624 3.98-16.984 9.882l-0.050 0.096c-3.636 6.882-5.77 15.042-5.77 23.7 0 0.774 0.017 1.545 0.051 2.311l-0.004-0.109v14.686z"></path>
<path fill="#000" d="M1271.468 1007.647c0.089 0.001 0.195 0.002 0.3 0.002 5.696 0 10.842-2.359 14.513-6.153l0.005-0.006c3.579-3.824 5.777-8.979 5.777-14.647 0-0.782-0.042-1.553-0.123-2.313l0.008 0.094h22.649c0.029 0.529 0.046 1.149 0.046 1.773 0 10.578-4.767 20.043-12.27 26.364l-0.052 0.043c-7.86 6.933-18.247 11.165-29.621 11.165-0.31 0-0.62-0.003-0.929-0.009l0.046 0.001c-0.947 0.072-2.052 0.114-3.166 0.114-12.906 0-24.518-5.544-32.584-14.38l-0.031-0.034c-7.544-9.435-12.106-21.54-12.106-34.712 0-0.902 0.021-1.798 0.064-2.689l-0.005 0.126v-15.891c-0.034-0.736-0.054-1.598-0.054-2.464 0-13.267 4.592-25.461 12.273-35.080l-0.087 0.113c8.044-8.955 19.661-14.562 32.587-14.562 1.064 0 2.12 0.038 3.165 0.113l-0.14-0.008c0.617-0.032 1.339-0.050 2.066-0.050 11.368 0 21.706 4.405 29.402 11.602l-0.024-0.023c7.141 7.297 11.548 17.294 11.548 28.321 0 1.014-0.037 2.019-0.11 3.015l0.008-0.133h-22.649c0.065-0.723 0.102-1.563 0.102-2.413 0-6.239-2.003-12.010-5.4-16.706l0.057 0.083c-3.383-4.364-8.627-7.146-14.52-7.146-0.253 0-0.505 0.005-0.756 0.015l0.036-0.001c-0.546-0.057-1.18-0.089-1.821-0.089-7.071 0-13.225 3.93-16.394 9.726l-0.049 0.097c-3.188 6.818-5.049 14.803-5.049 23.223 0 0.823 0.018 1.643 0.053 2.458l-0.004-0.116v15.83c-0.035 0.744-0.055 1.617-0.055 2.494 0 8.424 1.84 16.419 5.139 23.604l-0.145-0.352c3.237 5.825 9.354 9.701 16.377 9.701 0.677 0 1.346-0.036 2.005-0.106l-0.082 0.007z"></path>
<path fill="#000" d="M1382.172 969.047h-9.891v52.732h-24.095v-165.846h24.095v96.633h9.758l25.914-45.78h28.203l-35.070 51.852 39.54 63.153h-28.071z"></path>
<path fill="#000" d="M1508.309 1007.647c0.088 0.001 0.192 0.002 0.295 0.002 5.698 0 10.845-2.359 14.518-6.153l0.005-0.005c3.579-3.824 5.777-8.979 5.777-14.647 0-0.782-0.042-1.553-0.123-2.313l0.008 0.094h22.649c0.029 0.529 0.046 1.149 0.046 1.773 0 10.578-4.767 20.043-12.27 26.364l-0.052 0.043c-7.86 6.933-18.247 11.165-29.621 11.165-0.31 0-0.62-0.003-0.929-0.009l0.046 0.001c-0.947 0.072-2.052 0.114-3.166 0.114-12.906 0-24.518-5.544-32.584-14.38l-0.031-0.034c-7.544-9.435-12.106-21.54-12.106-34.712 0-0.902 0.021-1.798 0.064-2.689l-0.005 0.126v-15.891c-0.034-0.736-0.054-1.598-0.054-2.464 0-13.267 4.592-25.461 12.273-35.080l-0.087 0.113c8.044-8.955 19.661-14.562 32.587-14.562 1.064 0 2.12 0.038 3.165 0.113l-0.14-0.008c0.617-0.032 1.339-0.050 2.066-0.050 11.368 0 21.706 4.405 29.402 11.602l-0.024-0.023c7.141 7.297 11.548 17.294 11.548 28.321 0 1.014-0.037 2.019-0.11 3.015l0.008-0.133h-22.673c0.065-0.723 0.102-1.563 0.102-2.413 0-6.239-2.003-12.010-5.4-16.706l0.057 0.083c-3.383-4.364-8.627-7.146-14.52-7.146-0.253 0-0.505 0.005-0.756 0.015l0.036-0.001c-0.548-0.057-1.184-0.090-1.828-0.090-7.070 0-13.221 3.931-16.388 9.727l-0.049 0.097c-3.188 6.818-5.049 14.803-5.049 23.223 0 0.823 0.018 1.643 0.053 2.458l-0.004-0.116v15.83c-0.035 0.744-0.055 1.617-0.055 2.494 0 8.424 1.84 16.419 5.139 23.604l-0.145-0.352c3.237 5.826 9.355 9.704 16.378 9.704 0.686 0 1.362-0.037 2.029-0.109l-0.083 0.007z"></path>
<path fill="#000" d="M1608.713 920.351l0.373 0.108c3.211-4.777 7.345-8.684 12.174-11.542l0.174-0.096c4.578-2.64 10.068-4.197 15.921-4.197 0.184 0 0.368 0.002 0.551 0.005h-0.028c0.562-0.036 1.22-0.056 1.882-0.056 9.71 0 18.404 4.353 24.236 11.215l0.038 0.045c5.862 8.705 9.358 19.427 9.358 30.965 0 1.619-0.069 3.221-0.204 4.805l0.014-0.206v70.393h-24.095v-70.61c0.085-0.995 0.133-2.153 0.133-3.323 0-7.206-1.834-13.984-5.061-19.893l0.109 0.217c-3.108-4.149-8.012-6.805-13.537-6.805-0.438 0-0.873 0.017-1.303 0.050l0.057-0.004c-0.112-0.002-0.244-0.003-0.376-0.003-4.353 0-8.396 1.329-11.745 3.604l0.073-0.047c-3.669 2.605-6.649 5.935-8.779 9.8l-0.076 0.151v86.85h-24.203v-165.846h24.203z"></path>
<path fill="#000" d="M1775.426 1021.791c-0.807-2.626-1.494-5.132-2.036-7.494-0.49-1.929-0.914-4.292-1.182-6.703l-0.022-0.248-0.241-0.108c-3.35 4.849-7.529 8.87-12.368 11.944l-0.174 0.103c-4.65 2.935-10.308 4.677-16.373 4.677-0.135 0-0.271-0.001-0.406-0.003h0.020c-0.635 0.043-1.377 0.068-2.125 0.068-8.823 0-16.841-3.448-22.78-9.070l0.015 0.014c-5.445-5.992-8.778-13.988-8.778-22.763 0-0.685 0.020-1.365 0.060-2.040l-0.004 0.093c-0.026-0.471-0.040-1.023-0.040-1.578 0-9.903 4.629-18.724 11.841-24.418l0.066-0.050c8.582-5.867 19.186-9.368 30.608-9.368 1.252 0 2.495 0.042 3.726 0.125l-0.167-0.009h16.758v-11.794c0.032-0.48 0.051-1.041 0.051-1.606 0-5.612-1.827-10.797-4.919-14.993l0.049 0.070c-3.487-3.575-8.352-5.793-13.735-5.793-5.062 0-9.666 1.961-13.093 5.165l0.011-0.010c-2.93 3.352-4.717 7.768-4.717 12.602 0 0.297 0.007 0.592 0.020 0.885l-0.002-0.042-24.227-0.108c0.054-9.87 4.678-18.648 11.862-24.334l0.065-0.050c7.942-6.428 18.167-10.32 29.301-10.32 0.8 0 1.596 0.020 2.387 0.060l-0.111-0.004c0.657-0.035 1.425-0.055 2.198-0.055 10.561 0 20.252 3.726 27.829 9.935l-0.078-0.062c7.006 6.624 11.366 15.983 11.366 26.361 0 0.898-0.033 1.789-0.097 2.671l0.007-0.118v53.37c-0.001 0.145-0.001 0.317-0.001 0.489 0 8.78 1.366 17.24 3.898 25.18l-0.161-0.587h-24.36zM1748.186 1007.334c0.109 0.002 0.238 0.003 0.367 0.003 5.168 0 9.968-1.572 13.95-4.263l-0.088 0.056c4.036-2.686 7.236-6.333 9.316-10.624l0.069-0.158v-24.095h-17.107c-0.406-0.029-0.881-0.046-1.359-0.046-5.773 0-10.979 2.426-14.656 6.313l-0.009 0.009c-3.449 3.941-5.553 9.135-5.553 14.82 0 0.249 0.004 0.498 0.012 0.745l-0.001-0.036c-0.016 0.297-0.026 0.644-0.026 0.994 0 4.359 1.459 8.378 3.915 11.594l-0.034-0.046c2.526 2.922 6.238 4.759 10.38 4.759 0.29 0 0.578-0.009 0.864-0.027l-0.039 0.002z"></path>
<path fill="#000" d="M1861.18 876.558h-24.095v-20.637h24.095zM1861.18 1021.791h-24.095v-115.029h24.095z"></path>
<path fill="#000" d="M1924.381 906.761l1.337 15.529h0.349c3.097-5.382 7.357-9.773 12.459-12.934l0.155-0.090c4.822-2.911 10.645-4.633 16.87-4.633 0.227 0 0.454 0.002 0.681 0.007l-0.034-0.001c0.557-0.035 1.207-0.055 1.862-0.055 9.465 0 17.954 4.182 23.719 10.8l0.032 0.038c5.746 8.413 9.176 18.805 9.176 29.998 0 1.582-0.068 3.148-0.203 4.695l0.014-0.201v71.875h-24.227v-71.658c0.1-1.056 0.157-2.283 0.157-3.523 0-6.912-1.772-13.411-4.887-19.065l0.103 0.205c-3.17-3.901-7.968-6.373-13.344-6.373-0.506 0-1.008 0.022-1.503 0.065l0.064-0.004c-0.111-0.002-0.243-0.004-0.375-0.004-4.392 0-8.448 1.434-11.726 3.86l0.054-0.038c-3.651 2.814-6.586 6.373-8.608 10.464l-0.078 0.174v85.911h-24.167v-115.029h22.167z"></path>
<path fill="#000" d="M871.84 571.154q15.312-25.697 26.191-44.467 13.843-22.697 25.203-41.492t23.228-37.552q11.855-18.782 26.179-40.961t35.070-52.852c30.935-40.926 51.562-91.243 57.147-146.011l0.103-1.246c0.529-5.132 0.831-11.089 0.831-17.117 0-40.581-13.674-77.969-36.665-107.807l0.306 0.413c-13.251-17.109-28.742-31.662-46.214-43.514l-0.699-0.447c-17.131-11.632-37.009-20.935-58.302-26.832l-1.417-0.335c-17.834-5.351-38.328-8.432-59.541-8.432-23.572 0-46.257 3.803-67.472 10.83l1.515-0.435c-35.889 11.669-65.4 34.63-85.080 64.62l-0.373 0.605c-18.888 28.664-30.131 63.819-30.131 101.6 0 0.748 0.004 1.496 0.013 2.242l-0.001-0.114v54.334l114.572-54.346q0-47.419 37.54-60.237c8.487-2.816 18.258-4.44 28.408-4.44s19.921 1.624 29.066 4.627l-0.658-0.187c18.933 5.069 34.97 15.484 46.875 29.516l0.11 0.133c7.416 9.654 12.108 21.746 12.741 34.903l0.005 0.143c0.093 1.734 0.146 3.763 0.146 5.806 0 11.488-1.677 22.585-4.801 33.058l0.209-0.817c-4.052 13.806-9.093 25.763-15.291 36.992l0.473-0.934c-6.4 11.897-12.457 21.741-18.998 31.226l0.722-1.107q-20.734 30.673-36.058 53.358t-28.155 42.491q-12.867 19.794-24.215 39.010t-25.179 41.985q-17.806 29.649-42.997 72.14-24.842 41.925-64.683 106.018v88.573h383.315v-107.705h-236.131q17.794-29.552 33.094-55.238z"></path>
<path fill="#000" d="M1496.755 318.242c-24.638-23.451-54.075-42.118-86.657-54.353l-1.771-0.583c-34.595-12.901-74.567-20.366-116.283-20.366-2.368 0-4.729 0.024-7.085 0.072l0.352-0.006 11.867-137.341h211.421v-105.741h-307.211l-29.685 350.775h134.354c15.769 0.353 30.906 2.139 45.56 5.234l-1.599-0.283c19.408 3.902 36.634 10.936 52.018 20.626l-0.636-0.374c17.684 11.204 32.132 25.968 42.644 43.374l0.329 0.587c11.276 19.808 17.923 43.521 17.923 68.786 0 2.218-0.051 4.424-0.153 6.617l0.011-0.311c0.009 0.553 0.014 1.205 0.014 1.858 0 28.394-9.477 54.575-25.441 75.552l0.224-0.306c-16.264 21.756-38.489 38.242-64.254 47.135l-0.947 0.284c-14.345 4.762-30.858 7.508-48.013 7.508-14.726 0-28.98-2.024-42.498-5.809l1.107 0.265c-38.758-11.125-71.83-31.719-97.728-59.158l-0.097-0.104-60.237 73.104c14.602 19.101 31.557 35.424 50.659 48.91l0.723 0.484c18.38 13.125 39.39 24.589 61.739 33.391l1.992 0.692c25.010 9.723 53.959 15.357 84.223 15.357 1.826 0 3.647-0.021 5.463-0.061l-0.27 0.005c0.129 0 0.282 0 0.435 0 32.116 0 62.701-6.556 90.49-18.402l-1.509 0.572c29.656-12.415 55.045-29.281 76.641-50.061l-0.079 0.076c21.984-21.118 39.943-46.234 52.738-74.205l0.62-1.513c12.501-27.425 19.787-59.48 19.787-93.238 0-0.986-0.006-1.971-0.019-2.954l0.001 0.15c0.002-0.353 0.003-0.77 0.003-1.188 0-34.126-6.524-66.727-18.393-96.626l0.62 1.772c-12.463-31.406-30.592-58.142-53.332-80.14l-0.062-0.060z"></path>
<path fill="#000" d="M2033.218 423.814c-10.231-28.551-24.822-53.166-43.218-74.392l0.244 0.288c-19.16-21.851-42.511-39.514-68.86-51.833l-1.281-0.538c-26.868-12.492-58.322-19.78-91.479-19.78-1.359 0-2.715 0.012-4.068 0.037l0.204-0.003 158.099-277.67h-125.463l-210.458 369.557c-6.032 10.222-11.092 22.033-14.569 34.504l-0.249 1.048c-3.999 12.012-7.609 26.657-10.133 41.67l-0.251 1.809c-2.842 16.971-4.465 36.524-4.465 56.456 0 1.33 0.007 2.658 0.022 3.984l-0.002-0.202c0.006 29.798 5.439 58.325 15.365 84.648l-0.547-1.653c10.109 27.652 24.518 51.455 42.653 71.873l-0.198-0.227c18.58 20.706 40.883 37.641 65.92 49.837l1.269 0.558c25.088 12.181 54.571 19.301 85.718 19.301 1.118 0 2.235-0.009 3.349-0.027l-0.168 0.002c0.8 0.011 1.744 0.017 2.69 0.017 31.052 0 60.531-6.737 87.054-18.83l-1.315 0.537c26.809-12.202 49.608-28.676 68.57-48.805l0.101-0.108c18.731-20.096 33.799-43.895 43.958-70.139l0.509-1.496c10.013-25.158 15.819-54.312 15.819-84.821 0-0.226 0-0.452-0.001-0.679v0.035c0-0.003 0-0.006 0-0.010 0-30.47-5.431-59.671-15.379-86.689l0.561 1.74zM1930.429 551.758c-5.393 13.769-12.947 25.576-22.366 35.611l0.054-0.059c-19.207 20.407-46.396 33.115-76.553 33.115-0.478 0-0.954-0.003-1.43-0.010l0.072 0.001c-0.235 0.002-0.512 0.003-0.79 0.003-14.499 0-28.232-3.28-40.498-9.138l0.567 0.244c-12.959-6.169-23.982-14.304-33.194-24.154l-0.057-0.062c-9.446-10.027-17.167-21.809-22.605-34.785l-0.285-0.768c-5.334-12.515-8.435-27.074-8.435-42.358 0-0.216 0.001-0.433 0.002-0.649v0.033c-0.005-0.392-0.007-0.855-0.007-1.318 0-15.894 3.1-31.064 8.728-44.938l-0.287 0.801c5.564-13.801 13.306-25.615 22.924-35.612l-0.034 0.035c9.278-9.576 20.308-17.389 32.583-22.934l0.668-0.27c11.754-5.33 25.487-8.436 39.946-8.436 0.272 0 0.545 0.001 0.817 0.003h-0.042c0.902-0.028 1.963-0.044 3.028-0.044 29.109 0 55.433 11.927 74.351 31.161l0.014 0.014c19.105 19.883 30.871 46.942 30.871 76.748 0 1.672-0.037 3.335-0.11 4.988l0.008-0.235c0.001 0.219 0.002 0.478 0.002 0.737 0 15.21-2.915 29.739-8.218 43.059l0.276-0.787z"></path>
</svg>
