<svg xmlns="http://www.w3.org/2000/svg" width="755" height="196.488" viewBox="0 0 755 196.488"><g transform="translate(-628.726 -866.815)"><g transform="translate(628.725 866.815)"><g transform="translate(258.395 96.731)"><g transform="translate(1.83 1.83)"><g transform="translate(0 17.812)"><path d="M31.791,117.422,20.6,121.153,32.537,112.2Z" transform="translate(-20.6 -112.2)" fill="#fff"/></g><g transform="translate(15.107 15.48)"><path d="M41.743,109.7l8.859,7.74-13.8-5.782Z" transform="translate(-36.8 -109.7)" fill="#fff"/></g><g transform="translate(9.046)"><path d="M30.3,104.664,32.631,93.1,34.5,107.928Z" transform="translate(-30.3 -93.1)" fill="#fff"/></g></g><g transform="translate(14.326 19.455)"><path d="M34.933,192.2a.881.881,0,0,1-.933-.933V112.933a.933.933,0,0,1,1.865,0v78.334A.881.881,0,0,1,34.933,192.2Z" transform="translate(-34 -112)" fill="#1366ff"/></g><g transform="translate(0 0)"><g transform="translate(0 18.701)"><path d="M20.533,122.017a.979.979,0,0,1-.839-.466,1.017,1.017,0,0,1,.28-1.212l11.937-8.952a1.021,1.021,0,0,1,1.026-.093,1.148,1.148,0,0,1,.466.933l-.746,5.222a.9.9,0,0,1-.653.746l-11.191,3.73A.343.343,0,0,1,20.533,122.017Zm10.724-7.74-5.5,4.2,5.222-1.772Z" transform="translate(-19.6 -111.191)" fill="#1366ff"/></g><g transform="translate(16.098 17.312)"><path d="M50.541,118.308a.561.561,0,0,1-.373-.093L36.46,112.433a.9.9,0,0,1-.56-.839.816.816,0,0,1,.56-.839l4.849-1.958c.373-.093.746-.093.933.187l8.766,7.74a.951.951,0,0,1,.466.746.92.92,0,0,1-.933.839Zm-11.284-6.714,6.341,2.7-4.1-3.637Z" transform="translate(-35.9 -108.74)" fill="#1366ff"/></g><g transform="translate(9.943)"><path d="M34.429,108.793a1.326,1.326,0,0,1-.56-.187l-4.2-3.264a1.081,1.081,0,0,1-.373-.933l2.331-11.564a.908.908,0,0,1,.933-.746.992.992,0,0,1,.933.839l1.772,14.641c0,.093.093.187.093.28,0,.56-.373,1.026-.933.933Zm-3.171-4.57,1.958,1.492-.839-6.9Z" transform="translate(-29.3 -92.1)" fill="#1366ff"/></g></g><g transform="translate(12.438 15.818)"><path d="M34.8,113.6a4.681,4.681,0,0,1-1.119-.187,2.912,2.912,0,0,1-1.492-1.492A2.752,2.752,0,0,1,34.8,108.1a4.68,4.68,0,0,1,1.119.187,2.912,2.912,0,0,1,1.492,1.492A2.752,2.752,0,0,1,34.8,113.6Zm0-3.73a.816.816,0,0,0-.839.56,1.022,1.022,0,0,0,0,.746,1.124,1.124,0,0,0,.466.466.925.925,0,0,0,1.212-.466,1.022,1.022,0,0,0,0-.746,1.124,1.124,0,0,0-.466-.466A.561.561,0,0,0,34.8,109.872Z" transform="translate(-31.975 -108.1)" fill="#1366ff"/></g></g><g transform="translate(325.778 168.444)"><rect width="29.842" height="7.46" fill="#fff"/></g><g transform="translate(445.116 25.738)"><g transform="translate(98.503 0.933)"><path d="M467.381,61.769V17L445,39.385v145.5h33.572V72.962Z" transform="translate(-445 -17)" fill="#fff"/><g transform="translate(22.381)"><path d="M483.921,61.769V17H469V61.769l11.191,11.192V184.885h14.921V72.962Z" transform="translate(-469 -17)" fill="#dbddf3"/></g></g><g transform="translate(97.57)"><path d="M493.425,185.75H444.933a.881.881,0,0,1-.932-.933V39.317a.847.847,0,0,1,.28-.653L466.661,16.28a.847.847,0,0,1,.653-.28h14.921a.881.881,0,0,1,.932.933v44.4l10.911,10.912a.847.847,0,0,1,.28.653V184.817A.881.881,0,0,1,493.425,185.75Zm-47.56-1.865h46.627V73.267L481.582,62.355a.847.847,0,0,1-.28-.653V17.865H467.687L445.865,39.69Z" transform="translate(-444 -16)" fill="#1366ff"/></g><g transform="translate(97.57 55.978)"><g transform="translate(0 100.715)"><path d="M478.5,185.865H444.933a.933.933,0,0,1,0-1.865H478.5a.933.933,0,0,1,0,1.865Z" transform="translate(-444 -184)" fill="#1366ff"/></g><g transform="translate(0 96.985)"><path d="M478.5,181.865H444.933a.933.933,0,0,1,0-1.865H478.5a.933.933,0,0,1,0,1.865Z" transform="translate(-444 -180)" fill="#1366ff"/></g><g transform="translate(0 93.255)"><path d="M478.5,177.865H444.933a.933.933,0,0,1,0-1.865H478.5a.933.933,0,0,1,0,1.865Z" transform="translate(-444 -176)" fill="#1366ff"/></g><g transform="translate(0 89.525)"><path d="M478.5,173.865H444.933a.933.933,0,0,1,0-1.865H478.5a.933.933,0,0,1,0,1.865Z" transform="translate(-444 -172)" fill="#1366ff"/></g><g transform="translate(0 85.795)"><path d="M478.5,169.865H444.933a.933.933,0,0,1,0-1.865H478.5a.933.933,0,0,1,0,1.865Z" transform="translate(-444 -168)" fill="#1366ff"/></g><g transform="translate(0 82.064)"><path d="M478.5,165.865H444.933a.933.933,0,0,1,0-1.865H478.5a.933.933,0,0,1,0,1.865Z" transform="translate(-444 -164)" fill="#1366ff"/></g><g transform="translate(0 78.334)"><path d="M478.5,161.865H444.933a.933.933,0,0,1,0-1.865H478.5a.933.933,0,0,1,0,1.865Z" transform="translate(-444 -160)" fill="#1366ff"/></g><g transform="translate(0 74.604)"><path d="M478.5,157.865H444.933a.933.933,0,0,1,0-1.865H478.5a.933.933,0,0,1,0,1.865Z" transform="translate(-444 -156)" fill="#1366ff"/></g><g transform="translate(0 70.874)"><path d="M478.5,153.865H444.933a.933.933,0,0,1,0-1.865H478.5a.933.933,0,0,1,0,1.865Z" transform="translate(-444 -152)" fill="#1366ff"/></g><g transform="translate(0 67.144)"><path d="M478.5,149.865H444.933a.933.933,0,0,1,0-1.865H478.5a.933.933,0,0,1,0,1.865Z" transform="translate(-444 -148)" fill="#1366ff"/></g><g transform="translate(0 63.413)"><path d="M478.5,145.865H444.933a.933.933,0,0,1,0-1.865H478.5a.933.933,0,0,1,0,1.865Z" transform="translate(-444 -144)" fill="#1366ff"/></g><g transform="translate(0 59.683)"><path d="M478.5,141.865H444.933a.933.933,0,0,1,0-1.865H478.5a.933.933,0,0,1,0,1.865Z" transform="translate(-444 -140)" fill="#1366ff"/></g><g transform="translate(0 55.953)"><path d="M478.5,137.865H444.933a.933.933,0,0,1,0-1.865H478.5a.933.933,0,0,1,0,1.865Z" transform="translate(-444 -136)" fill="#1366ff"/></g><g transform="translate(0 52.223)"><path d="M478.5,133.865H444.933a.933.933,0,0,1,0-1.865H478.5a.933.933,0,0,1,0,1.865Z" transform="translate(-444 -132)" fill="#1366ff"/></g><g transform="translate(0 48.493)"><path d="M478.5,129.865H444.933a.933.933,0,0,1,0-1.865H478.5a.933.933,0,0,1,0,1.865Z" transform="translate(-444 -128)" fill="#1366ff"/></g><g transform="translate(0 44.762)"><path d="M478.5,125.865H444.933a.933.933,0,0,1,0-1.865H478.5a.933.933,0,0,1,0,1.865Z" transform="translate(-444 -124)" fill="#1366ff"/></g><g transform="translate(0 41.032)"><path d="M478.5,121.865H444.933a.933.933,0,0,1,0-1.865H478.5a.933.933,0,0,1,0,1.865Z" transform="translate(-444 -120)" fill="#1366ff"/></g><g transform="translate(0 37.302)"><path d="M478.5,117.865H444.933a.933.933,0,0,1,0-1.865H478.5a.933.933,0,0,1,0,1.865Z" transform="translate(-444 -116)" fill="#1366ff"/></g><g transform="translate(0 33.572)"><path d="M478.5,113.865H444.933a.933.933,0,0,1,0-1.865H478.5a.933.933,0,0,1,0,1.865Z" transform="translate(-444 -112)" fill="#1366ff"/></g><g transform="translate(0 29.842)"><path d="M478.5,109.865H444.933a.933.933,0,0,1,0-1.865H478.5a.933.933,0,0,1,0,1.865Z" transform="translate(-444 -108)" fill="#1366ff"/></g><g transform="translate(0 26.111)"><path d="M478.5,105.865H444.933a.933.933,0,0,1,0-1.865H478.5a.933.933,0,0,1,0,1.865Z" transform="translate(-444 -104)" fill="#1366ff"/></g><g transform="translate(0 22.381)"><path d="M478.5,101.865H444.933a.933.933,0,0,1,0-1.865H478.5a.933.933,0,0,1,0,1.865Z" transform="translate(-444 -100)" fill="#1366ff"/></g><g transform="translate(0 18.651)"><path d="M478.5,97.865H444.933a.933.933,0,0,1,0-1.865H478.5a.933.933,0,0,1,0,1.865Z" transform="translate(-444 -96)" fill="#1366ff"/></g><g transform="translate(0 14.921)"><path d="M478.5,93.865H444.933a.933.933,0,0,1,0-1.865H478.5a.933.933,0,0,1,0,1.865Z" transform="translate(-444 -92)" fill="#1366ff"/></g><g transform="translate(0 11.191)"><path d="M478.5,89.865H444.933a.933.933,0,0,1,0-1.865H478.5a.933.933,0,0,1,0,1.865Z" transform="translate(-444 -88)" fill="#1366ff"/></g><g transform="translate(0 7.46)"><path d="M478.5,85.865H444.933a.933.933,0,0,1,0-1.865H478.5a.933.933,0,0,1,0,1.865Z" transform="translate(-444 -84)" fill="#1366ff"/></g><g transform="translate(0 3.73)"><path d="M478.5,81.865H444.933a.933.933,0,0,1,0-1.865H478.5a.933.933,0,0,1,0,1.865Z" transform="translate(-444 -80)" fill="#1366ff"/></g><path d="M478.5,77.865H444.933a.933.933,0,0,1,0-1.865H478.5a.933.933,0,0,1,0,1.865Z" transform="translate(-444 -76)" fill="#1366ff"/></g><g transform="translate(97.57 22.381)"><path d="M467.314,41.865H444.933a.933.933,0,0,1,0-1.865h22.381a.933.933,0,1,1,0,1.865Z" transform="translate(-444 -40)" fill="#1366ff"/></g><g transform="translate(97.57 26.111)"><path d="M467.314,45.865H444.933a.933.933,0,0,1,0-1.865h22.381a.933.933,0,1,1,0,1.865Z" transform="translate(-444 -44)" fill="#1366ff"/></g><g transform="translate(97.57 29.842)"><path d="M467.314,49.865H444.933a.933.933,0,0,1,0-1.865h22.381a.933.933,0,1,1,0,1.865Z" transform="translate(-444 -48)" fill="#1366ff"/></g><g transform="translate(97.57 33.577)"><path d="M467.314,53.865H444.933a.933.933,0,0,1,0-1.865h22.381a.933.933,0,1,1,0,1.865Z" transform="translate(-444 -52)" fill="#1366ff"/></g><g transform="translate(97.57 37.308)"><path d="M467.314,57.865H444.933a.933.933,0,0,1,0-1.865h22.381a.933.933,0,1,1,0,1.865Z" transform="translate(-444 -56)" fill="#1366ff"/></g><g transform="translate(97.57 41.038)"><path d="M467.314,61.865H444.933a.933.933,0,0,1,0-1.865h22.381a.933.933,0,1,1,0,1.865Z" transform="translate(-444 -60)" fill="#1366ff"/></g><g transform="translate(97.57 44.769)"><path d="M467.314,65.865H444.933a.933.933,0,0,1,0-1.865h22.381a.933.933,0,1,1,0,1.865Z" transform="translate(-444 -64)" fill="#1366ff"/></g><g transform="translate(119.951 0)"><path d="M480.123,185.75a.881.881,0,0,1-.933-.933V73.267L468.28,62.355A.847.847,0,0,1,468,61.7V16.933a.933.933,0,1,1,1.865,0v44.4l10.911,10.912a.847.847,0,0,1,.28.653V184.817A.881.881,0,0,1,480.123,185.75Z" transform="translate(-468 -16)" fill="#1366ff"/></g><g transform="translate(97.57 52.231)"><path d="M474.774,73.865H444.933a.933.933,0,0,1,0-1.865h29.842a.933.933,0,1,1,0,1.865Z" transform="translate(-444 -72)" fill="#1366ff"/></g><g transform="translate(97.57 48.5)"><path d="M470.764,69.865H444.933a.933.933,0,0,1,0-1.865h25.832a.933.933,0,0,1,0,1.865Z" transform="translate(-444 -68)" fill="#1366ff"/></g><g transform="translate(119.951 44.769)"><path d="M483.853,65.865H468.933a.933.933,0,0,1,0-1.865h14.921a.933.933,0,1,1,0,1.865Z" transform="translate(-468 -64)" fill="#1366ff"/></g><g transform="translate(131.142 55.962)"><path d="M495.853,77.865H480.933a.933.933,0,1,1,0-1.865h14.921a.933.933,0,0,1,0,1.865Z" transform="translate(-480 -76)" fill="#1366ff"/></g><g transform="translate(97.57 0)"><path d="M444.933,40.246a.847.847,0,0,1-.653-.28.9.9,0,0,1,0-1.306L466.661,16.28a.923.923,0,0,1,1.306,1.306L445.585,39.967A.847.847,0,0,1,444.933,40.246Z" transform="translate(-444 -16)" fill="#1366ff"/></g><g transform="translate(119.951 0)"><path d="M483.853,17.865H468.933a.933.933,0,0,1,0-1.865h14.921a.933.933,0,1,1,0,1.865Z" transform="translate(-468 -16)" fill="#1366ff"/></g><g transform="translate(0 138.043)"><g transform="translate(0.933 0.933)"><ellipse cx="11.191" cy="11.191" rx="11.191" ry="11.191" fill="#f7b4d6"/></g><g transform="translate(11.191 14.921)"><path d="M488.933,196.786a.881.881,0,0,1-.933-.933V180.933a.933.933,0,0,1,1.865,0v14.921A.881.881,0,0,1,488.933,196.786Z" transform="translate(-488 -180)" fill="#1366ff"/></g><path d="M488.123,188.246a12.123,12.123,0,1,1,12.123-12.123A12.1,12.1,0,0,1,488.123,188.246Zm0-22.381a10.258,10.258,0,1,0,10.258,10.258A10.228,10.228,0,0,0,488.123,165.865Z" transform="translate(-476 -164)" fill="#1366ff"/></g></g><g transform="translate(176.728 82.702)"><g transform="translate(0.933 0.947)"><g transform="translate(18.651)"><path d="M57,151.6l3.73-18.651L57,114.3l3.73-18.651L57,77H86.842l3.73,18.651L86.842,114.3l3.73,18.651L86.842,151.6l3.73,18.651-3.73,18.651H57l3.73-18.651Z" transform="translate(-57 -77)" fill="#bff6fa"/></g><g transform="translate(0)"><path d="M107.651,77l3.73,18.651-3.73,18.651,3.73,18.651-3.73,18.651,3.73,18.651-3.73,18.651H89V77Z" transform="translate(-89 -77)" fill="#fff"/></g></g><g transform="translate(0 0.014)"><path d="M105.425,189.771a.908.908,0,0,0,.933-.746l3.73-18.651V170l-3.73-18.465,3.73-18.464V132.7l-3.73-18.465,3.73-18.465V95.4l-3.73-18.651a.908.908,0,0,0-.933-.746H56.933a.881.881,0,0,0-.933.933V188.839a.933.933,0,1,0,1.865,0V77.865h46.814l3.544,17.718-3.73,18.465v.373l3.73,18.465-3.73,18.464v.373l3.73,18.465-3.73,18.464a.944.944,0,0,0,.746,1.119Z" transform="translate(-56 -76)" fill="#1366ff"/></g><g transform="translate(41.015)"><g transform="translate(0 74.604)"><path d="M64.95,195.166a.908.908,0,0,0,.933-.746l3.73-18.651V175.4l-3.73-18.651a.951.951,0,0,0-1.865.373l3.73,18.465-3.73,18.465a.944.944,0,0,0,.746,1.119Z" transform="translate(-64 -155.985)" fill="#1366ff"/></g><g transform="translate(0 37.302)"><path d="M64.95,155.166a.908.908,0,0,0,.933-.746l3.73-18.651V135.4l-3.73-18.651a.951.951,0,1,0-1.865.373l3.73,18.465-3.73,18.465a.944.944,0,0,0,.746,1.119Z" transform="translate(-64 -115.985)" fill="#1366ff"/></g><path d="M64.95,115.166a.908.908,0,0,0,.933-.746l3.73-18.651V95.4l-3.73-18.651a.951.951,0,0,0-1.865.373l3.73,18.465-3.73,18.465a.944.944,0,0,0,.746,1.119Z" transform="translate(-64 -75.985)" fill="#1366ff"/></g><g transform="translate(33.554)"><g transform="translate(0 74.604)"><path d="M72.95,195.166a.908.908,0,0,0,.933-.746l3.73-18.651V175.4l-3.73-18.651a.951.951,0,0,0-1.865.373l3.73,18.465-3.73,18.465a.944.944,0,0,0,.746,1.119Z" transform="translate(-72 -155.985)" fill="#1366ff"/></g><g transform="translate(0 37.302)"><path d="M72.95,155.166a.908.908,0,0,0,.933-.746l3.73-18.651V135.4l-3.73-18.651a.951.951,0,1,0-1.865.373l3.73,18.465-3.73,18.465a.944.944,0,0,0,.746,1.119Z" transform="translate(-72 -115.985)" fill="#1366ff"/></g><g transform="translate(0)"><path d="M72.95,115.166a.908.908,0,0,0,.933-.746l3.73-18.651V95.4l-3.73-18.651a.951.951,0,0,0-1.865.373l3.73,18.465-3.73,18.465a.944.944,0,0,0,.746,1.119Z" transform="translate(-72 -75.985)" fill="#1366ff"/></g></g><g transform="translate(26.094)"><g transform="translate(0 74.604)"><path d="M80.95,195.166a.908.908,0,0,0,.933-.746l3.73-18.651V175.4l-3.73-18.651a.951.951,0,0,0-1.865.373l3.73,18.465-3.73,18.465a.944.944,0,0,0,.746,1.119Z" transform="translate(-80 -155.985)" fill="#1366ff"/></g><g transform="translate(0 37.302)"><path d="M80.95,155.166a.908.908,0,0,0,.933-.746l3.73-18.651V135.4l-3.73-18.651a.951.951,0,1,0-1.865.373l3.73,18.465-3.73,18.465a.944.944,0,0,0,.746,1.119Z" transform="translate(-80 -115.985)" fill="#1366ff"/></g><path d="M80.95,115.166a.908.908,0,0,0,.933-.746l3.73-18.651V95.4l-3.73-18.651a.951.951,0,0,0-1.865.373l3.73,18.465-3.73,18.465a.944.944,0,0,0,.746,1.119Z" transform="translate(-80 -75.985)" fill="#1366ff"/></g><g transform="translate(18.633)"><g transform="translate(0 74.604)"><path d="M88.95,195.166a.908.908,0,0,0,.933-.746l3.73-18.651V175.4l-3.73-18.651a.951.951,0,0,0-1.865.373l3.73,18.465-3.73,18.465a.944.944,0,0,0,.746,1.119Z" transform="translate(-88 -155.985)" fill="#1366ff"/></g><g transform="translate(0 37.302)"><path d="M88.95,155.166a.908.908,0,0,0,.933-.746l3.73-18.651V135.4l-3.73-18.651a.951.951,0,0,0-1.865.373l3.73,18.465-3.73,18.465a.944.944,0,0,0,.746,1.119Z" transform="translate(-88 -115.985)" fill="#1366ff"/></g><path d="M88.95,115.166a.908.908,0,0,0,.933-.746l3.73-18.651V95.4l-3.73-18.651a.951.951,0,0,0-1.865.373l3.73,18.465-3.73,18.465a.944.944,0,0,0,.746,1.119Z" transform="translate(-88 -75.985)" fill="#1366ff"/></g><g transform="translate(0 111.92)"><path d="M60.933,197.865h48.493a.933.933,0,1,0,0-1.865H60.933a.933.933,0,0,0,0,1.865Z" transform="translate(-60 -196)" fill="#1366ff"/></g><g transform="translate(22.381 18.665)"><path d="M56.933,97.865H86.774a.933.933,0,1,0,0-1.865H56.933a.933.933,0,0,0,0,1.865Z" transform="translate(-56 -96)" fill="#1366ff"/></g><g transform="translate(18.651 37.316)"><path d="M60.933,117.865H90.774a.933.933,0,1,0,0-1.865H60.933a.933.933,0,1,0,0,1.865Z" transform="translate(-60 -116)" fill="#1366ff"/></g><g transform="translate(22.381 55.967)"><path d="M56.933,137.865H86.774a.933.933,0,1,0,0-1.865H56.933a.933.933,0,0,0,0,1.865Z" transform="translate(-56 -136)" fill="#1366ff"/></g><g transform="translate(18.651 74.618)"><path d="M60.933,157.865H90.774a.933.933,0,1,0,0-1.865H60.933a.933.933,0,1,0,0,1.865Z" transform="translate(-60 -156)" fill="#1366ff"/></g><g transform="translate(22.381 93.269)"><path d="M56.933,177.865H86.774a.933.933,0,1,0,0-1.865H56.933a.933.933,0,0,0,0,1.865Z" transform="translate(-56 -176)" fill="#1366ff"/></g><g transform="translate(18.651 111.92)"><path d="M60.933,197.865H90.774a.933.933,0,1,0,0-1.865H60.933a.933.933,0,1,0,0,1.865Z" transform="translate(-60 -196)" fill="#1366ff"/></g></g><g transform="translate(141.456 93.805)"><g transform="translate(0.933 0.933)"><rect width="44.762" height="100.715" fill="#fff"/></g><g transform="translate(19.584 4.663)"><rect width="22.381" height="96.985" fill="#bff6fa"/></g><g transform="translate(14.921)"><path d="M538.774,190.581H508.933a.881.881,0,0,1-.933-.933V88.933a.881.881,0,0,1,.933-.933h29.842a.881.881,0,0,1,.932.933V189.648A.881.881,0,0,1,538.774,190.581Zm-28.909-1.865h27.977V89.865H509.865Z" transform="translate(-508 -88)" fill="#1366ff"/></g><g transform="translate(18.651 3.73)"><path d="M535.314,190.85H512.933a.881.881,0,0,1-.933-.933V92.933a.881.881,0,0,1,.933-.933h22.381a.881.881,0,0,1,.933.933v96.985A.881.881,0,0,1,535.314,190.85Zm-21.449-1.865h20.516V93.865H513.865Z" transform="translate(-512 -92)" fill="#1366ff"/></g><g transform="translate(33.572 3.73)"><path d="M528.933,190.85a.881.881,0,0,1-.933-.933V92.933a.933.933,0,1,1,1.865,0v96.985A.881.881,0,0,1,528.933,190.85Z" transform="translate(-528 -92)" fill="#1366ff"/></g><g transform="translate(26.111 3.73)"><path d="M520.933,190.85a.881.881,0,0,1-.932-.933V92.933a.933.933,0,0,1,1.865,0v96.985A.881.881,0,0,1,520.933,190.85Z" transform="translate(-520 -92)" fill="#1366ff"/></g><path d="M507.853,89.865H492.933a.933.933,0,1,1,0-1.865h14.921a.933.933,0,0,1,0,1.865Z" transform="translate(-492 -88)" fill="#1366ff"/><g transform="translate(18.651 11.191)"><g transform="translate(14.921 7.46)"><path d="M536.393,109.865h-7.46a.933.933,0,1,1,0-1.865h7.46a.933.933,0,1,1,0,1.865Z" transform="translate(-528 -108)" fill="#1366ff"/></g><g transform="translate(7.46)"><path d="M528.393,101.865h-7.46a.933.933,0,0,1,0-1.865h7.46a.933.933,0,1,1,0,1.865Z" transform="translate(-520 -100)" fill="#1366ff"/></g><g transform="translate(0 7.46)"><path d="M520.393,109.865h-7.46a.933.933,0,1,1,0-1.865h7.46a.933.933,0,0,1,0,1.865Z" transform="translate(-512 -108)" fill="#1366ff"/></g></g><g transform="translate(18.651 26.111)"><g transform="translate(14.921 7.46)"><path d="M536.393,125.865h-7.46a.933.933,0,1,1,0-1.865h7.46a.933.933,0,1,1,0,1.865Z" transform="translate(-528 -124)" fill="#1366ff"/></g><g transform="translate(7.46)"><path d="M528.393,117.865h-7.46a.933.933,0,0,1,0-1.865h7.46a.933.933,0,1,1,0,1.865Z" transform="translate(-520 -116)" fill="#1366ff"/></g><g transform="translate(0 7.46)"><path d="M520.393,125.865h-7.46a.933.933,0,1,1,0-1.865h7.46a.933.933,0,0,1,0,1.865Z" transform="translate(-512 -124)" fill="#1366ff"/></g></g><g transform="translate(18.651 41.032)"><g transform="translate(14.921 7.46)"><path d="M536.393,141.865h-7.46a.933.933,0,1,1,0-1.865h7.46a.933.933,0,1,1,0,1.865Z" transform="translate(-528 -140)" fill="#1366ff"/></g><g transform="translate(7.46)"><path d="M528.393,133.865h-7.46a.933.933,0,0,1,0-1.865h7.46a.933.933,0,1,1,0,1.865Z" transform="translate(-520 -132)" fill="#1366ff"/></g><g transform="translate(0 7.46)"><path d="M520.393,141.865h-7.46a.933.933,0,1,1,0-1.865h7.46a.933.933,0,0,1,0,1.865Z" transform="translate(-512 -140)" fill="#1366ff"/></g></g><g transform="translate(18.651 55.953)"><g transform="translate(14.921 7.46)"><path d="M536.393,157.865h-7.46a.933.933,0,1,1,0-1.865h7.46a.933.933,0,1,1,0,1.865Z" transform="translate(-528 -156)" fill="#1366ff"/></g><g transform="translate(7.46)"><path d="M528.393,149.865h-7.46a.933.933,0,0,1,0-1.865h7.46a.933.933,0,1,1,0,1.865Z" transform="translate(-520 -148)" fill="#1366ff"/></g><g transform="translate(0 7.46)"><path d="M520.393,157.865h-7.46a.933.933,0,1,1,0-1.865h7.46a.933.933,0,0,1,0,1.865Z" transform="translate(-512 -156)" fill="#1366ff"/></g></g><g transform="translate(18.651 70.874)"><g transform="translate(14.921 7.46)"><path d="M536.393,173.865h-7.46a.933.933,0,1,1,0-1.865h7.46a.933.933,0,1,1,0,1.865Z" transform="translate(-528 -172)" fill="#1366ff"/></g><g transform="translate(7.46)"><path d="M528.393,165.865h-7.46a.933.933,0,0,1,0-1.865h7.46a.933.933,0,1,1,0,1.865Z" transform="translate(-520 -164)" fill="#1366ff"/></g><g transform="translate(0 7.46)"><path d="M520.393,173.865h-7.46a.933.933,0,1,1,0-1.865h7.46a.933.933,0,0,1,0,1.865Z" transform="translate(-512 -172)" fill="#1366ff"/></g></g><g transform="translate(18.651 85.795)"><g transform="translate(14.921 7.46)"><path d="M536.393,189.865h-7.46a.933.933,0,1,1,0-1.865h7.46a.933.933,0,1,1,0,1.865Z" transform="translate(-528 -188)" fill="#1366ff"/></g><g transform="translate(7.46)"><path d="M528.393,181.865h-7.46a.933.933,0,0,1,0-1.865h7.46a.933.933,0,1,1,0,1.865Z" transform="translate(-520 -180)" fill="#1366ff"/></g><g transform="translate(0 7.46)"><path d="M520.393,189.865h-7.46a.933.933,0,1,1,0-1.865h7.46a.933.933,0,0,1,0,1.865Z" transform="translate(-512 -188)" fill="#1366ff"/></g></g><path d="M492.933,190.581a.881.881,0,0,1-.933-.933V88.933a.933.933,0,0,1,1.865,0V189.648A.881.881,0,0,1,492.933,190.581Z" transform="translate(-492 -88)" fill="#1366ff"/></g><g transform="translate(660.113 113.224)"><g transform="translate(12.31 13.255)"><path d="M560.933,193.009a.881.881,0,0,1-.933-.933V124.933a.933.933,0,0,1,1.865,0v67.144A.881.881,0,0,1,560.933,193.009Z" transform="translate(-560 -124)" fill="#1366ff"/></g><g transform="translate(0.932 0.945)"><g transform="translate(14.082 6.155)"><path d="M565.325,117.4l11.843.187L562.9,122.063Z" transform="translate(-562.9 -117.4)" fill="#fff"/></g><path d="M553.489,121.151,547.8,110.8l10.911,10.072Z" transform="translate(-547.8 -110.8)" fill="#fff"/><g transform="translate(8.579 13.242)"><path d="M563.155,129.383,557,139.548,560.357,125Z" transform="translate(-557 -125)" fill="#fff"/></g></g><g transform="translate(14.045 6.168)"><path d="M562.83,122.928a.848.848,0,0,1-.746-.373.836.836,0,0,1-.093-1.026l2.425-4.663a.979.979,0,0,1,.839-.466l11.75.187a.992.992,0,0,1,.933.839.908.908,0,0,1-.653,1.026l-14.268,4.476Zm2.984-4.663-1.119,2.145,6.621-2.052Z" transform="translate(-561.861 -116.4)" fill="#1366ff"/></g><path d="M553.421,122.016a.98.98,0,0,1-.839-.466L546.893,111.2a1.017,1.017,0,0,1,.28-1.212.879.879,0,0,1,1.212.093l11,10.072a1.053,1.053,0,0,1,.28,1.026,1.033,1.033,0,0,1-.839.653l-5.409.187Zm-2.145-6.714,2.611,4.756,2.424-.093Z" transform="translate(-546.8 -109.786)" fill="#1366ff"/><g transform="translate(8.556 13.231)"><path d="M556.931,140.411a.561.561,0,0,1-.373-.093.89.89,0,0,1-.559-1.026l3.264-14.548a1.012,1.012,0,0,1,.746-.746.817.817,0,0,1,.933.466l2.8,4.476a1.007,1.007,0,0,1,0,1.026l-6.062,10.072A.833.833,0,0,1,556.931,140.411Zm3.73-13.149-1.492,6.714,2.8-4.663Z" transform="translate(-555.975 -123.975)" fill="#1366ff"/></g><g transform="translate(10.445 9.463)"><path d="M560.8,125.591a2.6,2.6,0,0,1-1.865-.746,3,3,0,0,1-.933-1.958,2.8,2.8,0,0,1,4.663-2.238,3,3,0,0,1,.932,1.958,2.8,2.8,0,0,1-.746,2.052A3,3,0,0,1,560.8,125.591Zm0-3.73a.846.846,0,0,0-.653.28,1.007,1.007,0,0,0-.28.653.847.847,0,0,0,.28.653.9.9,0,0,0,1.306-.093,1.008,1.008,0,0,0,.28-.653.847.847,0,0,0-.28-.653A1.349,1.349,0,0,0,560.8,121.861Z" transform="translate(-558 -119.934)" fill="#1366ff"/></g></g><g transform="translate(681.829 83.582)"><g transform="translate(21.335 14.921)"><g transform="translate(17.718 17.252)"><path d="M335.522,112.873l4.476,11L330.3,112.5Z" transform="translate(-330.3 -112.5)" fill="#fff"/></g><g transform="translate(14.828)"><path d="M327.2,103.326,334.474,94l-4.942,14.082Z" transform="translate(-327.2 -94)" fill="#fff"/></g><g transform="translate(0 16.226)"><path d="M322.957,115.69,311.3,114.1l14.641-2.7Z" transform="translate(-311.3 -111.4)" fill="#fff"/></g></g><g transform="translate(36.909 31.707)"><path d="M328.933,192.2a.881.881,0,0,1-.933-.933V112.933a.933.933,0,0,1,1.865,0v78.334A.881.881,0,0,1,328.933,192.2Z" transform="translate(-328 -112)" fill="#1366ff"/></g><g transform="translate(20.403 13.988)"><g transform="translate(17.682 17.415)"><path d="M339.928,124.754a1.059,1.059,0,0,1-.746-.28l-9.7-11.284a.836.836,0,0,1-.093-1.026.817.817,0,0,1,.933-.466l5.222.373a.812.812,0,0,1,.746.56l4.383,10.724c.093.186.186.28.186.466a.935.935,0,0,1-.933.933Zm-7.554-11.191,4.476,5.222L334.8,113.75Z" transform="translate(-329.261 -111.675)" fill="#1366ff"/></g><g transform="translate(14.912)"><path d="M329.47,108.947a.9.9,0,0,1-.839-.56l-2.238-4.756a.858.858,0,0,1,.093-.933l7.274-9.326a.988.988,0,0,1,1.212-.28,1.01,1.01,0,0,1,.466,1.119L330.5,108.294a1.413,1.413,0,0,1-1.026.653Zm-1.212-5.6,1.026,2.238,2.331-6.528Z" transform="translate(-326.291 -93)" fill="#1366ff"/></g><g transform="translate(0 16.202)"><path d="M322.889,116.553H322.8l-11.657-1.585a.992.992,0,0,1-.839-.933.908.908,0,0,1,.746-.933l14.641-2.7a.887.887,0,0,1,.933.373,1.01,1.01,0,0,1,0,1.026l-2.984,4.383C323.542,116.46,323.262,116.553,322.889,116.553Zm-5.875-2.7,5.409.746,1.4-2.052Z" transform="translate(-310.3 -110.374)" fill="#1366ff"/></g></g><g transform="translate(35.044 27.977)"><path d="M328.8,113.6a2.8,2.8,0,1,1,2.8-2.8A2.806,2.806,0,0,1,328.8,113.6Zm0-3.73a.933.933,0,1,0,.933.933A.881.881,0,0,0,328.8,109.865Z" transform="translate(-326 -108)" fill="#1366ff"/></g><g transform="translate(0.912 0.933)"><g transform="translate(16.133 16.32)"><path d="M311.829,96.5l7.833,8.859L306.7,97.9Z" transform="translate(-306.7 -96.5)" fill="#fff"/></g><g transform="translate(10.818)"><path d="M301,90.191,304.73,79V93.921Z" transform="translate(-301 -79)" fill="#fff"/></g><g transform="translate(0 17.718)"><path d="M300.964,103.129,289.4,105.46,302.362,98Z" transform="translate(-289.4 -98)" fill="#fff"/></g></g><g transform="translate(14.528 18.651)"><path d="M304.933,191.255a.881.881,0,0,1-.933-.933V98.933a.933.933,0,0,1,1.865,0v91.39A.881.881,0,0,1,304.933,191.255Z" transform="translate(-304 -98)" fill="#1366ff"/></g><g transform="translate(16.113 16.378)"><path d="M319.6,106.229a.841.841,0,0,1-.466-.093l-12.962-7.46a.947.947,0,0,1-.466-.933.9.9,0,0,1,.653-.746l5.129-1.4a.844.844,0,0,1,.933.28l7.74,8.673a1.151,1.151,0,0,1,.373.746.881.881,0,0,1-.933.933Zm-10.538-8.113,5.968,3.45-3.637-4.1Z" transform="translate(-305.7 -95.563)" fill="#1366ff"/></g><g transform="translate(10.794)"><path d="M304.662,94.786a.847.847,0,0,1-.653-.28l-3.73-3.73a.743.743,0,0,1-.187-.933l3.73-11.191A1.008,1.008,0,0,1,304.849,78a.908.908,0,0,1,.746.933V93.853a.816.816,0,0,1-.56.839A.56.56,0,0,1,304.662,94.786Zm-2.7-4.943,1.772,1.772v-6.9Z" transform="translate(-299.996 -78)" fill="#1366ff"/></g><g transform="translate(0 17.775)"><path d="M289.334,106.33a.944.944,0,0,1-.839-.56.863.863,0,0,1,.373-1.119l12.962-7.46a.848.848,0,0,1,1.026.093,1.035,1.035,0,0,1,.373,1.026l-1.4,5.129a.9.9,0,0,1-.746.653l-11.564,2.331C289.427,106.33,289.427,106.33,289.334,106.33Zm11.47-6.435-5.968,3.45,5.316-1.119Z" transform="translate(-288.422 -97.061)" fill="#1366ff"/></g><g transform="translate(12.663 14.921)"><path d="M304.8,99.6a2.8,2.8,0,1,1,2.8-2.8A2.748,2.748,0,0,1,304.8,99.6Zm0-3.73a.933.933,0,1,0,.933.933A.881.881,0,0,0,304.8,95.865Z" transform="translate(-302 -94)" fill="#1366ff"/></g></g><g transform="translate(738.214 171.242)"><g transform="translate(0.933 0.933)"><ellipse cx="7.46" cy="7.46" rx="7.46" ry="7.46" fill="#fff"/></g><g transform="translate(7.46 11.191)"><path d="M308.933,197.056a.881.881,0,0,1-.932-.933V184.933a.933.933,0,0,1,1.865,0v11.191A.881.881,0,0,1,308.933,197.056Z" transform="translate(-308 -184)" fill="#1366ff"/></g><path d="M308.393,188.786a8.393,8.393,0,1,1,8.393-8.393A8.358,8.358,0,0,1,308.393,188.786Zm0-14.921a6.528,6.528,0,1,0,6.528,6.528A6.488,6.488,0,0,0,308.393,173.865Z" transform="translate(-300 -172)" fill="#1366ff"/></g><g transform="translate(248.214 171.242)"><g transform="translate(0.933 0.933)"><ellipse cx="7.46" cy="7.46" rx="7.46" ry="7.46" fill="#fff"/></g><g transform="translate(7.46 11.191)"><path d="M308.933,197.056a.881.881,0,0,1-.932-.933V184.933a.933.933,0,0,1,1.865,0v11.191A.881.881,0,0,1,308.933,197.056Z" transform="translate(-308 -184)" fill="#1366ff"/></g><path d="M308.393,188.786a8.393,8.393,0,1,1,8.393-8.393A8.358,8.358,0,0,1,308.393,188.786Zm0-14.921a6.528,6.528,0,1,0,6.528,6.528A6.488,6.488,0,0,0,308.393,173.865Z" transform="translate(-300 -172)" fill="#1366ff"/></g><g transform="translate(477.806 104.098)"><g transform="translate(30.774 0.933)"><rect width="18.651" height="89.525" fill="#fff"/></g><g transform="translate(0.933 0.933)"><rect width="29.842" height="89.525" fill="#bff6fa"/></g><path d="M409.425,191.39H360.933a.881.881,0,0,1-.933-.933V100.933a.881.881,0,0,1,.933-.933h48.493a.881.881,0,0,1,.932.933v89.525A.881.881,0,0,1,409.425,191.39Zm-47.56-1.865h46.627v-87.66H361.865Z" transform="translate(-360 -100)" fill="#1366ff"/><g transform="translate(29.842)"><path d="M392.933,191.39a.881.881,0,0,1-.933-.933V100.933a.933.933,0,0,1,1.865,0v89.525A.881.881,0,0,1,392.933,191.39Z" transform="translate(-392 -100)" fill="#1366ff"/></g><g transform="translate(22.381)"><path d="M384.933,191.39a.881.881,0,0,1-.933-.933V100.933a.933.933,0,0,1,1.865,0v89.525A.881.881,0,0,1,384.933,191.39Z" transform="translate(-384 -100)" fill="#1366ff"/></g><g transform="translate(7.46)"><path d="M368.933,191.39a.881.881,0,0,1-.933-.933V100.933a.933.933,0,1,1,1.865,0v89.525A.881.881,0,0,1,368.933,191.39Z" transform="translate(-368 -100)" fill="#1366ff"/></g><g transform="translate(14.921)"><path d="M376.932,191.39a.881.881,0,0,1-.933-.933V100.933a.933.933,0,1,1,1.865,0v89.525A.881.881,0,0,1,376.932,191.39Z" transform="translate(-376 -100)" fill="#1366ff"/></g><g transform="translate(0 11.191)"><g transform="translate(0 67.144)"><path d="M390.774,185.865H360.933a.933.933,0,0,1,0-1.865h29.842a.933.933,0,1,1,0,1.865Z" transform="translate(-360 -184)" fill="#1366ff"/></g><g transform="translate(0 55.953)"><path d="M390.774,173.865H360.933a.933.933,0,0,1,0-1.865h29.842a.933.933,0,1,1,0,1.865Z" transform="translate(-360 -172)" fill="#1366ff"/></g><g transform="translate(0 44.762)"><path d="M390.774,161.865H360.933a.933.933,0,0,1,0-1.865h29.842a.933.933,0,1,1,0,1.865Z" transform="translate(-360 -160)" fill="#1366ff"/></g><g transform="translate(0 33.572)"><path d="M390.774,149.865H360.933a.933.933,0,0,1,0-1.865h29.842a.933.933,0,1,1,0,1.865Z" transform="translate(-360 -148)" fill="#1366ff"/></g><g transform="translate(0 22.381)"><path d="M390.774,137.865H360.933a.933.933,0,0,1,0-1.865h29.842a.933.933,0,1,1,0,1.865Z" transform="translate(-360 -136)" fill="#1366ff"/></g><g transform="translate(0 11.191)"><path d="M390.774,125.865H360.933a.933.933,0,0,1,0-1.865h29.842a.933.933,0,1,1,0,1.865Z" transform="translate(-360 -124)" fill="#1366ff"/></g><path d="M390.774,113.865H360.933a.933.933,0,0,1,0-1.865h29.842a.933.933,0,1,1,0,1.865Z" transform="translate(-360 -112)" fill="#1366ff"/></g></g><g transform="translate(504.294 35.089)"><g transform="translate(19.211 88.592)"><rect width="18.651" height="7.46" fill="#fff"/></g><g transform="translate(19.211 96.053)"><rect width="29.842" height="64.346" fill="#dbddf3"/></g><g transform="translate(37.862 88.592)"><rect width="11.191" height="7.46" fill="#fff"/></g><g transform="translate(1.1 31.147)"><g transform="translate(0.988 0.83)"><path d="M390.882,62.817a3.751,3.751,0,0,1,4.756-2.331l3.544,1.212a3.745,3.745,0,0,1-2.425,7.087l-3.544-1.212A3.608,3.608,0,0,1,390.882,62.817Z" transform="translate(-390.639 -60.29)" fill="#fff"/></g><path d="M397.805,69.938a3.866,3.866,0,0,1-1.492-.28l-3.544-1.212a4.473,4.473,0,0,1-2.7-2.331,4.289,4.289,0,0,1-.186-3.544,4.712,4.712,0,0,1,4.383-3.171,3.866,3.866,0,0,1,1.492.28l3.544,1.212a4.72,4.72,0,0,1,2.891,5.968A4.573,4.573,0,0,1,397.805,69.938Zm-3.544-8.766a2.716,2.716,0,0,0-2.611,1.865,2.833,2.833,0,0,0,.093,2.145,2.61,2.61,0,0,0,1.585,1.4l3.544,1.212a2.819,2.819,0,0,0,3.544-1.772,2.782,2.782,0,0,0-1.772-3.544L395.1,61.265C394.914,61.265,394.634,61.172,394.261,61.172Z" transform="translate(-389.58 -59.4)" fill="#1366ff"/></g><g transform="translate(1.1 39.82)"><g transform="translate(0.988 0.83)"><path d="M390.882,72.117a3.751,3.751,0,0,1,4.756-2.331L399.182,71a3.745,3.745,0,1,1-2.425,7.087l-3.544-1.212A3.608,3.608,0,0,1,390.882,72.117Z" transform="translate(-390.639 -69.59)" fill="#fff"/></g><path d="M397.805,79.238a3.866,3.866,0,0,1-1.492-.28l-3.544-1.212a4.473,4.473,0,0,1-2.7-2.331,4.289,4.289,0,0,1-.186-3.544,4.712,4.712,0,0,1,4.383-3.171,3.866,3.866,0,0,1,1.492.28l3.544,1.212a4.72,4.72,0,0,1,2.891,5.968A4.573,4.573,0,0,1,397.805,79.238Zm-3.544-8.673a2.716,2.716,0,0,0-2.611,1.865,2.833,2.833,0,0,0,.093,2.145,2.61,2.61,0,0,0,1.585,1.4l3.544,1.212a2.819,2.819,0,0,0,3.544-1.772,2.782,2.782,0,0,0-1.772-3.544L395.1,70.658A2.07,2.07,0,0,0,394.261,70.565Z" transform="translate(-389.58 -68.7)" fill="#1366ff"/></g><g transform="translate(1.1 48.493)"><g transform="translate(0.988 0.923)"><path d="M390.882,81.517a3.751,3.751,0,0,1,4.756-2.331l3.544,1.212a3.745,3.745,0,1,1-2.425,7.087l-3.544-1.212A3.641,3.641,0,0,1,390.882,81.517Z" transform="translate(-390.639 -78.99)" fill="#fff"/></g><path d="M397.805,88.538a3.867,3.867,0,0,1-1.492-.28l-3.544-1.212a4.473,4.473,0,0,1-2.7-2.331,4.289,4.289,0,0,1-.186-3.544A4.712,4.712,0,0,1,394.261,78a3.866,3.866,0,0,1,1.492.28l3.544,1.212a4.72,4.72,0,0,1,2.891,5.968A4.456,4.456,0,0,1,397.805,88.538Zm-3.544-8.673a2.716,2.716,0,0,0-2.611,1.865,2.833,2.833,0,0,0,.093,2.145,2.61,2.61,0,0,0,1.585,1.4l3.544,1.212a2.819,2.819,0,0,0,3.544-1.772,2.781,2.781,0,0,0-1.772-3.544L395.1,79.958A2.07,2.07,0,0,0,394.261,79.865Z" transform="translate(-389.58 -78)" fill="#1366ff"/></g><g transform="translate(0 17.159)"><g transform="translate(0.909 0.839)"><path d="M390.424,46.419a3.716,3.716,0,0,1,5.316,0l10.538,10.538a3.759,3.759,0,1,1-5.316,5.316L390.424,51.735A3.891,3.891,0,0,1,390.424,46.419Z" transform="translate(-389.375 -45.3)" fill="#fff"/></g><path d="M403.6,64.263a4.374,4.374,0,0,1-3.264-1.4L389.8,52.327a4.749,4.749,0,0,1-1.4-3.264,4.374,4.374,0,0,1,1.4-3.264,4.749,4.749,0,0,1,3.264-1.4,4.374,4.374,0,0,1,3.264,1.4l10.538,10.538a4.749,4.749,0,0,1,1.4,3.264,4.374,4.374,0,0,1-1.4,3.264A4.932,4.932,0,0,1,403.6,64.263ZM392.969,46.172a2.54,2.54,0,0,0-1.958.839,2.684,2.684,0,0,0-.839,1.958,2.54,2.54,0,0,0,.839,1.958l10.538,10.538a2.877,2.877,0,0,0,3.917,0,2.684,2.684,0,0,0,.839-1.958,2.54,2.54,0,0,0-.839-1.958L394.928,47.011A2.908,2.908,0,0,0,392.969,46.172Z" transform="translate(-388.4 -44.4)" fill="#1366ff"/></g><g transform="translate(8.02 6.528)"><path d="M430.572,36.73a3.741,3.741,0,0,0-3.73-3.73H400.73A3.741,3.741,0,0,0,397,36.73V88.953a3.741,3.741,0,0,0,3.73,3.73h26.111a3.741,3.741,0,0,0,3.73-3.73Z" transform="translate(-397 -33)" fill="#dbddf3"/></g><g transform="translate(11.75 13.988)"><rect width="26.111" height="44.762" fill="#bff6fa"/></g><g transform="translate(1.492)"><g transform="translate(5.595 5.595)"><path d="M426.774,93.548H400.663A4.617,4.617,0,0,1,396,88.886V36.663A4.617,4.617,0,0,1,400.663,32h26.111a4.617,4.617,0,0,1,4.663,4.663V88.886A4.617,4.617,0,0,1,426.774,93.548ZM400.663,33.865a2.748,2.748,0,0,0-2.8,2.8V88.886a2.748,2.748,0,0,0,2.8,2.8h26.111a2.748,2.748,0,0,0,2.8-2.8V36.663a2.748,2.748,0,0,0-2.8-2.8Z" transform="translate(-396 -32)" fill="#1366ff"/></g><g transform="translate(13.988 36.369)"><path d="M412.46,117.223v-7.46c0-5.782-7.46-7.46-7.46-14.921h11.191a11.224,11.224,0,0,1,11.191-11.191V72.46a7.482,7.482,0,0,1,7.46-7.46v52.223Z" transform="translate(-405 -65)" fill="#fff"/></g><g transform="translate(35.437 42.897)"><path d="M428.933,85.056a.881.881,0,0,1-.933-.933V72.933a.933.933,0,0,1,1.865,0V84.123A.881.881,0,0,1,428.933,85.056Z" transform="translate(-428 -72)"/></g><g transform="translate(13.056 35.437)"><path d="M434.774,118.088a.881.881,0,0,1-.933-.933v-51.2a6.525,6.525,0,0,0-5.6,6.435V83.584a.881.881,0,0,1-.933.933,10.228,10.228,0,0,0-10.258,10.258.881.881,0,0,1-.933.933H405.865c.28,3.077,1.958,4.943,3.823,6.9,1.772,1.958,3.637,4.01,3.637,7.087v7.46a.933.933,0,1,1-1.865,0v-7.46c0-2.331-1.492-4.01-3.171-5.875-2.052-2.238-4.29-4.756-4.29-9.046a.881.881,0,0,1,.933-.933h10.258a12.188,12.188,0,0,1,11.191-11.191V72.393A8.358,8.358,0,0,1,434.774,64a.881.881,0,0,1,.933.933v52.223A.881.881,0,0,1,434.774,118.088Z" transform="translate(-404 -64)" fill="#1366ff"/></g><g transform="translate(9.326 13.056)"><path d="M400.933,86.628a.881.881,0,0,1-.933-.933V40.933a.933.933,0,0,1,1.865,0V85.695A.881.881,0,0,1,400.933,86.628Z" transform="translate(-400 -40)" fill="#1366ff"/></g><g transform="translate(9.326 13.056)"><path d="M427.044,41.865H400.933a.933.933,0,1,1,0-1.865h26.111a.933.933,0,0,1,0,1.865Z" transform="translate(-400 -40)" fill="#1366ff"/></g><g transform="translate(9.326 57.818)"><path d="M418.744,89.865H400.933a.933.933,0,1,1,0-1.865h17.812a.881.881,0,0,1,.933.933A.935.935,0,0,1,418.744,89.865Z" transform="translate(-400 -88)" fill="#1366ff"/></g><g transform="translate(35.437 13.056)"><path d="M428.933,69.842a.881.881,0,0,1-.933-.933V40.933a.933.933,0,0,1,1.865,0V68.909A.881.881,0,0,1,428.933,69.842Z" transform="translate(-428 -40)" fill="#1366ff"/></g><g transform="translate(18.651 9.326)"><path d="M418.393,37.865h-7.46a.933.933,0,1,1,0-1.865h7.46a.933.933,0,1,1,0,1.865Z" transform="translate(-410 -36)" fill="#1366ff"/></g><g transform="translate(0.933 0.933)"><ellipse cx="5.595" cy="5.595" rx="5.595" ry="5.595" fill="#f7b4d6"/></g><path d="M396.528,39.056a6.528,6.528,0,1,1,6.528-6.528A6.488,6.488,0,0,1,396.528,39.056Zm0-11.191a4.663,4.663,0,1,0,4.663,4.663A4.617,4.617,0,0,0,396.528,27.865Z" transform="translate(-390 -26)" fill="#1366ff"/></g><g transform="translate(18.278 87.66)"><path d="M438.774,129.326H408.933a.881.881,0,0,1-.933-.933v-7.46a.881.881,0,0,1,.933-.933h29.842a.881.881,0,0,1,.933.933v7.46A.881.881,0,0,1,438.774,129.326Zm-28.909-1.865h27.977v-5.6H409.865Z" transform="translate(-408 -120)" fill="#1366ff"/></g><g transform="translate(36.929 87.66)"><path d="M428.933,129.326a.881.881,0,0,1-.933-.933v-7.46a.933.933,0,0,1,1.865,0v7.46A.881.881,0,0,1,428.933,129.326Z" transform="translate(-428 -120)" fill="#1366ff"/></g><g transform="translate(48.12 95.12)"><path d="M440.933,193.279a.881.881,0,0,1-.933-.933V128.933a.933.933,0,1,1,1.865,0v63.413A.881.881,0,0,1,440.933,193.279Z" transform="translate(-440 -128)" fill="#1366ff"/></g><g transform="translate(18.278 95.12)"><path d="M408.933,193.279a.881.881,0,0,1-.933-.933V128.933a.933.933,0,1,1,1.865,0v63.413A.881.881,0,0,1,408.933,193.279Z" transform="translate(-408 -128)" fill="#1366ff"/></g></g><g transform="translate(235.16 178.702)"><g transform="translate(0.933 0.933)"><ellipse cx="5.595" cy="5.595" rx="5.595" ry="5.595" fill="#f7b4d6"/></g><g transform="translate(5.595 7.46)"><path d="M56.933,197.325a.881.881,0,0,1-.933-.933v-7.46a.933.933,0,0,1,1.865,0v7.46A.881.881,0,0,1,56.933,197.325Z" transform="translate(-56 -188)" fill="#1366ff"/></g><path d="M56.528,193.056a6.528,6.528,0,1,1,6.528-6.528A6.488,6.488,0,0,1,56.528,193.056Zm0-11.191a4.663,4.663,0,1,0,4.663,4.663A4.617,4.617,0,0,0,56.528,181.865Z" transform="translate(-50 -180)" fill="#1366ff"/></g><g transform="translate(584.234 100.368)"><g transform="translate(0.933 0.933)"><rect width="56.771" height="93.255" fill="#fff"/></g><g transform="translate(31.592 0.933)"><rect width="22.381" height="93.255" fill="#fff"/></g><path d="M181.463,191.12H125.173c-.7,0-1.173-.373-1.173-.933V96.933c0-.56.469-.933,1.173-.933h56.291c.7,0,1.173.373,1.173.933v93.255C182.636,190.747,182.167,191.12,181.463,191.12Zm-55.118-1.865h53.945V97.865H126.345Z" transform="translate(-124 -96)" fill="#1366ff"/><g transform="translate(18.924)"><path d="M140.933,191.12a.881.881,0,0,1-.933-.933V96.933a.933.933,0,0,1,1.865,0v93.255A.881.881,0,0,1,140.933,191.12Z" transform="translate(-140 -96)" fill="#1366ff"/></g><g transform="translate(23.655)"><path d="M144.933,191.12a.881.881,0,0,1-.933-.933V96.933a.933.933,0,1,1,1.865,0v93.255A.881.881,0,0,1,144.933,191.12Z" transform="translate(-144 -96)" fill="#1366ff"/></g><g transform="translate(33.116)"><path d="M152.933,191.12a.881.881,0,0,1-.933-.933V96.933a.933.933,0,0,1,1.865,0v93.255A.881.881,0,0,1,152.933,191.12Z" transform="translate(-152 -96)" fill="#1366ff"/></g><g transform="translate(42.578)"><path d="M160.933,191.12a.881.881,0,0,1-.933-.933V96.933a.933.933,0,0,1,1.865,0v93.255A.881.881,0,0,1,160.933,191.12Z" transform="translate(-160 -96)" fill="#1366ff"/></g><g transform="translate(53.041)"><path d="M168.933,191.12a.881.881,0,0,1-.933-.933V96.933a.933.933,0,1,1,1.865,0v93.255A.881.881,0,0,1,168.933,191.12Z" transform="translate(-168 -96)" fill="#1366ff"/></g></g><g transform="translate(29.404 33.224)"><g transform="translate(12.123 82.997)"><rect width="18.651" height="7.46" fill="#fff"/></g><g transform="translate(0.933 90.457)"><rect width="29.842" height="70.874" fill="#dbddf3"/></g><g transform="translate(0.933 82.997)"><rect width="11.191" height="7.46" fill="#fff"/></g><g transform="translate(36.022 25.459)"><g transform="translate(0.804 0.923)"><path d="M154.317,54.817a3.751,3.751,0,0,0-4.756-2.331L146.017,53.7a3.745,3.745,0,1,0,2.425,7.087l3.544-1.212A3.608,3.608,0,0,0,154.317,54.817Z" transform="translate(-143.49 -52.29)" fill="#fff"/></g><path d="M147.265,61.931h0a4.7,4.7,0,0,1-1.492-9.139l3.544-1.212a4.224,4.224,0,0,1,1.492-.28,4.712,4.712,0,0,1,4.383,3.171A4.659,4.659,0,0,1,155,58.014a4.473,4.473,0,0,1-2.7,2.331l-3.544,1.212A2.953,2.953,0,0,1,147.265,61.931Zm3.544-8.766a3.313,3.313,0,0,0-.933.187l-3.544,1.212a2.771,2.771,0,0,0,.839,5.409,3.313,3.313,0,0,0,.933-.187l3.544-1.212a2.64,2.64,0,0,0,1.585-1.4,2.833,2.833,0,0,0,.093-2.145A2.72,2.72,0,0,0,150.808,53.165Z" transform="translate(-142.627 -51.3)" fill="#1366ff"/></g><g transform="translate(36.022 34.131)"><g transform="translate(0.804 0.923)"><path d="M154.317,64.117a3.751,3.751,0,0,0-4.756-2.331L146.017,63a3.745,3.745,0,1,0,2.425,7.087l3.544-1.212A3.608,3.608,0,0,0,154.317,64.117Z" transform="translate(-143.49 -61.59)" fill="#fff"/></g><path d="M147.265,71.231h0a4.7,4.7,0,0,1-1.492-9.139l3.544-1.212a4.224,4.224,0,0,1,1.492-.28,4.712,4.712,0,0,1,4.383,3.171A4.659,4.659,0,0,1,155,67.314a4.473,4.473,0,0,1-2.7,2.331l-3.544,1.212A2.953,2.953,0,0,1,147.265,71.231Zm3.544-8.673a3.313,3.313,0,0,0-.933.187l-3.544,1.212a2.771,2.771,0,0,0,.839,5.409,3.313,3.313,0,0,0,.933-.187l3.544-1.212a2.64,2.64,0,0,0,1.585-1.4,2.833,2.833,0,0,0,.093-2.145A2.6,2.6,0,0,0,150.808,62.558Z" transform="translate(-142.627 -60.6)" fill="#1366ff"/></g><g transform="translate(36.022 42.804)"><g transform="translate(0.804 1.016)"><path d="M154.317,73.517a3.751,3.751,0,0,0-4.756-2.331L146.017,72.4a3.745,3.745,0,1,0,2.425,7.087l3.544-1.212A3.641,3.641,0,0,0,154.317,73.517Z" transform="translate(-143.49 -70.99)" fill="#fff"/></g><path d="M147.265,80.531h0a4.7,4.7,0,0,1-1.492-9.139l3.544-1.212a4.224,4.224,0,0,1,1.492-.28,4.712,4.712,0,0,1,4.383,3.171A4.659,4.659,0,0,1,155,76.614a4.473,4.473,0,0,1-2.7,2.331l-3.544,1.212A2.953,2.953,0,0,1,147.265,80.531Zm3.544-8.673a3.313,3.313,0,0,0-.933.187l-3.544,1.212a2.771,2.771,0,0,0,.839,5.409,3.313,3.313,0,0,0,.933-.187l3.544-1.212a2.64,2.64,0,0,0,1.585-1.4,2.833,2.833,0,0,0,.093-2.145A2.6,2.6,0,0,0,150.808,71.858Z" transform="translate(-142.627 -69.9)" fill="#1366ff"/></g><g transform="translate(3.73)"><g transform="translate(26.461 11.47)"><g transform="translate(0.863 0.933)"><path d="M154.272,38.419a3.716,3.716,0,0,0-5.316,0L138.419,48.957a3.759,3.759,0,0,0,5.316,5.316l10.538-10.538A3.891,3.891,0,0,0,154.272,38.419Z" transform="translate(-137.3 -37.3)" fill="#fff"/></g><path d="M140.968,56.257h0a4.374,4.374,0,0,1-3.264-1.4,4.788,4.788,0,0,1,0-6.621L148.242,37.7a4.749,4.749,0,0,1,3.264-1.4,4.374,4.374,0,0,1,3.264,1.4,4.749,4.749,0,0,1,1.4,3.264,4.374,4.374,0,0,1-1.4,3.264L144.232,54.765A4.315,4.315,0,0,1,140.968,56.257ZM151.6,38.165a2.54,2.54,0,0,0-1.958.839L139.1,49.542a2.7,2.7,0,0,0,0,3.917,2.877,2.877,0,0,0,3.917,0l10.538-10.538a2.684,2.684,0,0,0,.839-1.958A2.54,2.54,0,0,0,153.557,39,3.108,3.108,0,0,0,151.6,38.165Z" transform="translate(-136.375 -36.3)" fill="#1366ff"/></g><g transform="translate(4.663 0.933)"><path d="M113,28.73A3.741,3.741,0,0,1,116.73,25h26.111a3.741,3.741,0,0,1,3.73,3.73V80.953a3.741,3.741,0,0,1-3.73,3.73H116.73a3.741,3.741,0,0,1-3.73-3.73Z" transform="translate(-113 -25)" fill="#fff"/></g><g transform="translate(8.393 8.393)"><rect width="26.111" height="44.762" fill="#bff6fa"/></g><g transform="translate(3.73)"><path d="M142.774,85.548H116.663A4.617,4.617,0,0,1,112,80.886V28.663A4.617,4.617,0,0,1,116.663,24h26.111a4.617,4.617,0,0,1,4.663,4.663V80.886A4.617,4.617,0,0,1,142.774,85.548ZM116.663,25.865a2.748,2.748,0,0,0-2.8,2.8V80.886a2.748,2.748,0,0,0,2.8,2.8h26.111a2.748,2.748,0,0,0,2.8-2.8V28.663a2.748,2.748,0,0,0-2.8-2.8Z" transform="translate(-112 -24)" fill="#1366ff"/></g><g transform="translate(0.933 30.774)"><path d="M131.381,109.223v-7.46c0-5.782,7.46-7.46,7.46-14.921H127.651A11.224,11.224,0,0,0,116.46,75.651V64.46A7.482,7.482,0,0,0,109,57v52.223Z" transform="translate(-109 -57)" fill="#fff"/></g><g transform="translate(7.46 37.302)"><path d="M116.933,77.056a.881.881,0,0,1-.933-.933V64.933a.933.933,0,0,1,1.865,0V76.123A.881.881,0,0,1,116.933,77.056Z" transform="translate(-116 -64)"/></g><g transform="translate(0 29.842)"><path d="M131.314,110.088a.881.881,0,0,1-.933-.933v-7.46c0-3.077,1.865-5.129,3.637-7.087s3.544-3.823,3.823-6.9H127.584a.881.881,0,0,1-.933-.933,10.229,10.229,0,0,0-10.258-10.258.881.881,0,0,1-.933-.933V64.393a6.525,6.525,0,0,0-5.6-6.435v51.2a.933.933,0,1,1-1.865,0V56.933a.881.881,0,0,1,.933-.933,8.358,8.358,0,0,1,8.393,8.393V74.651a12.188,12.188,0,0,1,11.191,11.191h10.258a.881.881,0,0,1,.933.933c0,4.29-2.331,6.808-4.29,9.046-1.679,1.865-3.171,3.45-3.171,5.875v7.46A.881.881,0,0,1,131.314,110.088Z" transform="translate(-108 -56)" fill="#1366ff"/></g><g transform="translate(33.572 7.46)"><path d="M144.933,78.628a.881.881,0,0,1-.933-.933V32.933a.933.933,0,1,1,1.865,0V77.695A.881.881,0,0,1,144.933,78.628Z" transform="translate(-144 -32)" fill="#1366ff"/></g><g transform="translate(7.46 7.46)"><path d="M143.044,33.865H116.933a.933.933,0,0,1,0-1.865h26.111a.933.933,0,1,1,0,1.865Z" transform="translate(-116 -32)" fill="#1366ff"/></g><g transform="translate(15.76 52.223)"><path d="M143.644,81.865H125.833a.933.933,0,0,1,0-1.865h17.812a.933.933,0,1,1,0,1.865Z" transform="translate(-124.9 -80)" fill="#1366ff"/></g><g transform="translate(7.46 7.46)"><path d="M116.933,61.842a.881.881,0,0,1-.933-.933V32.933a.933.933,0,0,1,1.865,0V60.909A.881.881,0,0,1,116.933,61.842Z" transform="translate(-116 -32)" fill="#1366ff"/></g><g transform="translate(16.786 3.73)"><path d="M134.393,29.865h-7.46a.933.933,0,0,1,0-1.865h7.46a.933.933,0,0,1,0,1.865Z" transform="translate(-126 -28)" fill="#1366ff"/></g></g><g transform="translate(0 82.064)"><path d="M134.774,121.326H104.933a.881.881,0,0,1-.933-.933v-7.46a.881.881,0,0,1,.933-.933h29.842a.881.881,0,0,1,.933.933v7.46A.881.881,0,0,1,134.774,121.326Zm-28.909-1.865h27.976v-5.6H105.865Z" transform="translate(-104 -112)" fill="#1366ff"/></g><g transform="translate(11.191 82.064)"><path d="M116.933,121.326a.881.881,0,0,1-.933-.933v-7.46a.933.933,0,0,1,1.865,0v7.46A.881.881,0,0,1,116.933,121.326Z" transform="translate(-116 -112)" fill="#1366ff"/></g><g transform="translate(0 89.525)"><path d="M104.933,192.739a.881.881,0,0,1-.933-.933V120.933a.933.933,0,1,1,1.865,0v70.874A.881.881,0,0,1,104.933,192.739Z" transform="translate(-104 -120)" fill="#1366ff"/></g><g transform="translate(29.842 89.525)"><path d="M136.933,192.739a.881.881,0,0,1-.933-.933V120.933a.933.933,0,1,1,1.865,0v70.874A.881.881,0,0,1,136.933,192.739Z" transform="translate(-136 -120)" fill="#1366ff"/></g></g><g transform="translate(713.675 163.781)"><g transform="translate(0.933 0.933)"><ellipse cx="11.191" cy="11.191" rx="11.191" ry="11.191" fill="#f7b4d6"/></g><g transform="translate(11.191 14.921)"><path d="M176.933,196.786a.881.881,0,0,1-.933-.933V180.933a.933.933,0,0,1,1.865,0v14.921A.881.881,0,0,1,176.933,196.786Z" transform="translate(-176 -180)" fill="#1366ff"/></g><path d="M176.123,188.246a12.123,12.123,0,1,1,12.123-12.123A12.1,12.1,0,0,1,176.123,188.246Zm0-22.381a10.258,10.258,0,1,0,10.258,10.258A10.228,10.228,0,0,0,176.123,165.865Z" transform="translate(-164 -164)" fill="#1366ff"/></g><g transform="translate(9.305 163.781)"><g transform="translate(0.933 0.933)"><ellipse cx="11.191" cy="11.191" rx="11.191" ry="11.191" fill="#f7b4d6"/></g><g transform="translate(11.191 14.921)"><path d="M280.933,196.786a.881.881,0,0,1-.933-.933V180.933a.933.933,0,1,1,1.865,0v14.921A.881.881,0,0,1,280.933,196.786Z" transform="translate(-280 -180)" fill="#1366ff"/></g><path d="M280.123,188.246a12.123,12.123,0,1,1,12.123-12.123A12.1,12.1,0,0,1,280.123,188.246Zm0-22.381a10.258,10.258,0,1,0,10.258,10.258A10.229,10.229,0,0,0,280.123,165.865Z" transform="translate(-268 -164)" fill="#1366ff"/></g><g transform="translate(0 182.432)"><g transform="translate(0.933 0.933)"><ellipse cx="3.73" cy="3.73" rx="3.73" ry="3.73" fill="#fff"/></g><path d="M288.663,193.326a4.663,4.663,0,1,1,4.663-4.663A4.617,4.617,0,0,1,288.663,193.326Zm0-7.46a2.8,2.8,0,1,0,2.8,2.8A2.748,2.748,0,0,0,288.663,185.865Z" transform="translate(-284 -184)" fill="#1366ff"/><g transform="translate(3.73 3.73)"><path d="M288.933,197.325a.881.881,0,0,1-.933-.933v-7.46a.933.933,0,1,1,1.865,0v7.46A.881.881,0,0,1,288.933,197.325Z" transform="translate(-288 -188)" fill="#1366ff"/></g></g><g transform="translate(680.639 182.432)"><g transform="translate(0.933 0.933)"><ellipse cx="3.73" cy="3.73" rx="3.73" ry="3.73" fill="#fff"/></g><path d="M568.663,193.326a4.663,4.663,0,1,1,4.663-4.663A4.617,4.617,0,0,1,568.663,193.326Zm0-7.46a2.8,2.8,0,1,0,2.8,2.8A2.748,2.748,0,0,0,568.663,185.865Z" transform="translate(-564 -184)" fill="#1366ff"/><g transform="translate(3.73 3.73)"><path d="M568.932,197.325a.881.881,0,0,1-.932-.933v-7.46a.933.933,0,1,1,1.865,0v7.46A.881.881,0,0,1,568.932,197.325Z" transform="translate(-568 -188)" fill="#1366ff"/></g></g><g transform="translate(192.024 182.432)"><g transform="translate(0.933 0.933)"><ellipse cx="3.73" cy="3.73" rx="3.73" ry="3.73" fill="#f7b4d6"/></g><path d="M16.663,193.326a4.663,4.663,0,1,1,4.663-4.663A4.617,4.617,0,0,1,16.663,193.326Zm0-7.46a2.8,2.8,0,1,0,2.8,2.8A2.748,2.748,0,0,0,16.663,185.865Z" transform="translate(-12 -184)" fill="#1366ff"/><g transform="translate(3.73 3.73)"><path d="M16.933,197.325a.881.881,0,0,1-.933-.933v-7.46a.933.933,0,0,1,1.865,0v7.46A.881.881,0,0,1,16.933,197.325Z" transform="translate(-16 -188)" fill="#1366ff"/></g></g><g transform="translate(462.465 178.702)"><g transform="translate(0.933 0.933)"><ellipse cx="5.595" cy="5.595" rx="5.595" ry="5.595" fill="#fff"/></g><g transform="translate(5.595 7.46)"><path d="M248.933,197.325a.881.881,0,0,1-.933-.933v-7.46a.933.933,0,0,1,1.865,0v7.46A.881.881,0,0,1,248.933,197.325Z" transform="translate(-248 -188)" fill="#1366ff"/></g><path d="M248.528,193.056a6.528,6.528,0,1,1,6.528-6.528A6.488,6.488,0,0,1,248.528,193.056Zm0-11.191a4.663,4.663,0,1,0,4.663,4.663A4.617,4.617,0,0,0,248.528,181.865Z" transform="translate(-242 -180)" fill="#1366ff"/></g><g transform="translate(612.768 85.447)"><g transform="translate(19.211 90.457)"><rect width="29.842" height="19.584" fill="#dbddf3"/></g><g transform="translate(0)"><g transform="translate(0 11.564)"><g transform="translate(0.909 0.839)"><path d="M178.424,94.419a3.716,3.716,0,0,1,5.316,0l10.538,10.538a3.759,3.759,0,1,1-5.316,5.316L178.424,99.735A3.891,3.891,0,0,1,178.424,94.419Z" transform="translate(-177.375 -93.3)" fill="#fff"/></g><path d="M191.6,112.263a4.374,4.374,0,0,1-3.264-1.4L177.8,100.327a4.749,4.749,0,0,1-1.4-3.264,4.374,4.374,0,0,1,1.4-3.264,4.749,4.749,0,0,1,3.264-1.4,4.374,4.374,0,0,1,3.264,1.4l10.538,10.538a4.749,4.749,0,0,1,1.4,3.264,4.374,4.374,0,0,1-1.4,3.264A4.932,4.932,0,0,1,191.6,112.263ZM180.969,94.172a2.54,2.54,0,0,0-1.958.839,2.684,2.684,0,0,0-.839,1.958,2.54,2.54,0,0,0,.839,1.958l10.538,10.538a2.877,2.877,0,0,0,3.917,0,2.684,2.684,0,0,0,.839-1.958,2.54,2.54,0,0,0-.839-1.958L182.928,95.011A2.908,2.908,0,0,0,180.969,94.172Z" transform="translate(-176.4 -92.4)" fill="#1366ff"/></g><g transform="translate(7.087)"><g transform="translate(0.933 0.933)"><path d="M218.572,84.73a3.741,3.741,0,0,0-3.73-3.73H188.73A3.741,3.741,0,0,0,185,84.73v52.223a3.741,3.741,0,0,0,3.73,3.73h26.111a3.741,3.741,0,0,0,3.73-3.73Z" transform="translate(-185 -81)" fill="#dbddf3"/></g><g transform="translate(4.663 8.393)"><rect width="26.111" height="44.762" fill="#bff6fa"/></g><g transform="translate(7.46 21.169)"><g transform="translate(0.933 0.933)"><ellipse cx="9.326" cy="9.326" rx="9.326" ry="9.326" fill="#fff"/></g><path d="M202.258,123.216a10.258,10.258,0,1,1,10.258-10.258A10.229,10.229,0,0,1,202.258,123.216Zm0-18.651a8.393,8.393,0,1,0,8.393,8.393A8.358,8.358,0,0,0,202.258,104.565Z" transform="translate(-192 -102.7)" fill="#1366ff"/><g transform="translate(9.326)"><path d="M202.933,123.216a.881.881,0,0,1-.933-.933V103.633a.933.933,0,1,1,1.865,0v18.651A.934.934,0,0,1,202.933,123.216Z" transform="translate(-202 -102.7)" fill="#1366ff"/></g><g transform="translate(4.663)"><path d="M202.6,123.216c-3.171,0-5.6-4.476-5.6-10.258s2.425-10.258,5.6-10.258,5.6,4.476,5.6,10.258C208.191,118.647,205.766,123.216,202.6,123.216Zm0-18.651c-1.772,0-3.73,3.45-3.73,8.393s1.958,8.393,3.73,8.393,3.73-3.45,3.73-8.393S204.367,104.565,202.6,104.565Z" transform="translate(-197 -102.7)" fill="#1366ff"/></g><g transform="translate(0 9.326)"><path d="M211.584,114.565H192.933a.933.933,0,1,1,0-1.865h18.651a.881.881,0,0,1,.933.933A.934.934,0,0,1,211.584,114.565Z" transform="translate(-192 -112.7)" fill="#1366ff"/></g></g><g transform="translate(3.73 7.46)"><path d="M215.044,134.628H188.933a.881.881,0,0,1-.933-.933V88.933a.881.881,0,0,1,.933-.933h26.111a.881.881,0,0,1,.933.933v44.762A.881.881,0,0,1,215.044,134.628Zm-25.179-1.865h24.246v-42.9H189.865Z" transform="translate(-188 -88)" fill="#1366ff"/></g><path d="M214.774,141.548H188.663A4.617,4.617,0,0,1,184,136.886V84.663A4.617,4.617,0,0,1,188.663,80h26.111a4.617,4.617,0,0,1,4.663,4.663v52.223A4.617,4.617,0,0,1,214.774,141.548ZM188.663,81.865a2.748,2.748,0,0,0-2.8,2.8v52.223a2.748,2.748,0,0,0,2.8,2.8h26.111a2.748,2.748,0,0,0,2.8-2.8V84.663a2.748,2.748,0,0,0-2.8-2.8Z" transform="translate(-184 -80)" fill="#1366ff"/><g transform="translate(13.056 3.73)"><path d="M206.393,85.865h-7.46a.933.933,0,1,1,0-1.865h7.46a.933.933,0,0,1,0,1.865Z" transform="translate(-198 -84)" fill="#1366ff"/></g></g><g transform="translate(1.567 25.552)"><g transform="translate(0.942 0.83)"><path d="M179.286,110.817a3.751,3.751,0,0,1,4.756-2.331l3.544,1.212a3.745,3.745,0,0,1-2.425,7.087l-3.544-1.212A3.751,3.751,0,0,1,179.286,110.817Z" transform="translate(-179.09 -108.29)" fill="#fff"/></g><path d="M186.305,117.938a3.866,3.866,0,0,1-1.492-.28l-3.544-1.212a4.473,4.473,0,0,1-2.7-2.331,4.289,4.289,0,0,1-.186-3.544,4.712,4.712,0,0,1,4.383-3.171,3.866,3.866,0,0,1,1.492.28l3.544,1.212a4.644,4.644,0,0,1-1.492,9.046Zm-3.544-8.766a2.716,2.716,0,0,0-2.611,1.865,2.832,2.832,0,0,0,.093,2.145,2.884,2.884,0,0,0,1.585,1.4l3.544,1.212a2.759,2.759,0,0,0,.933.186,2.716,2.716,0,0,0,2.611-1.865,2.782,2.782,0,0,0-1.772-3.544l-3.544-1.212A2.228,2.228,0,0,0,182.761,109.172Z" transform="translate(-178.08 -107.4)" fill="#1366ff"/></g><g transform="translate(1.567 34.225)"><g transform="translate(0.942 0.83)"><path d="M179.286,120.117a3.751,3.751,0,0,1,4.756-2.331L187.586,119a3.745,3.745,0,0,1-2.425,7.087l-3.544-1.212A3.751,3.751,0,0,1,179.286,120.117Z" transform="translate(-179.09 -117.59)" fill="#fff"/></g><path d="M186.305,127.238a3.865,3.865,0,0,1-1.492-.28l-3.544-1.212a4.473,4.473,0,0,1-2.7-2.331,4.289,4.289,0,0,1-.186-3.544,4.712,4.712,0,0,1,4.383-3.171,3.866,3.866,0,0,1,1.492.28l3.544,1.212a4.644,4.644,0,0,1-1.492,9.046Zm-3.544-8.673a2.716,2.716,0,0,0-2.611,1.865,2.833,2.833,0,0,0,.093,2.145,2.884,2.884,0,0,0,1.585,1.4l3.544,1.212a2.759,2.759,0,0,0,.933.187,2.716,2.716,0,0,0,2.611-1.865,2.782,2.782,0,0,0-1.772-3.544l-3.544-1.212A1.254,1.254,0,0,0,182.761,118.565Z" transform="translate(-178.08 -116.7)" fill="#1366ff"/></g><g transform="translate(1.739 44.389)"><g transform="translate(0.951 0.981)"><path d="M179.858,130.469a3.768,3.768,0,0,1,5.129-1.306l3.171,1.958a3.742,3.742,0,0,1-3.823,6.435l-3.171-1.958A3.63,3.63,0,0,1,179.858,130.469Z" transform="translate(-179.284 -128.652)" fill="#fff"/></g><path d="M186.131,138.884a4.518,4.518,0,0,1-2.425-.653l-3.171-1.958a4.642,4.642,0,0,1-1.585-6.435,4.617,4.617,0,0,1,4.01-2.238,4.518,4.518,0,0,1,2.425.653l3.171,1.958a4.642,4.642,0,0,1,1.585,6.435A4.617,4.617,0,0,1,186.131,138.884Zm-3.171-9.419a2.7,2.7,0,0,0-2.425,1.4,2.857,2.857,0,0,0-.28,2.145,2.637,2.637,0,0,0,1.306,1.679l3.171,1.958a2.632,2.632,0,0,0,1.4.373,2.7,2.7,0,0,0,2.425-1.4,2.858,2.858,0,0,0,.28-2.145,2.637,2.637,0,0,0-1.306-1.679l-3.171-1.958A3.457,3.457,0,0,0,182.96,129.465Z" transform="translate(-178.265 -127.6)" fill="#1366ff"/></g><g transform="translate(15.48 28.816)"><path d="M200.46,165.081v-7.46c0-5.782-7.46-7.46-7.46-14.921h11.191a11.224,11.224,0,0,1,11.191-11.191v-7.46l-2.611-2.611a7.486,7.486,0,0,1,0-10.538l10.072,10.072v44.11Z" transform="translate(-193 -110.9)" fill="#fff"/></g><g transform="translate(18.278 82.064)"><path d="M226.774,177.326H196.933a.881.881,0,0,1-.933-.933v-7.46a.881.881,0,0,1,.933-.933h29.842a.881.881,0,0,1,.933.933v7.46A.881.881,0,0,1,226.774,177.326Zm-28.909-1.865h27.977v-5.6H197.865Z" transform="translate(-196 -168)" fill="#1366ff"/></g><g transform="translate(36.929 82.064)"><path d="M216.933,177.326a.881.881,0,0,1-.933-.933v-7.46a.933.933,0,1,1,1.865,0v7.46A.881.881,0,0,1,216.933,177.326Z" transform="translate(-216 -168)" fill="#1366ff"/></g><g transform="translate(48.12 89.525)"><path d="M228.933,196.516a.881.881,0,0,1-.933-.933V176.933a.933.933,0,1,1,1.865,0v18.651A.881.881,0,0,1,228.933,196.516Z" transform="translate(-228 -176)" fill="#1366ff"/></g><g transform="translate(18.278 89.525)"><path d="M196.933,196.516a.881.881,0,0,1-.933-.933V176.933a.933.933,0,1,1,1.865,0v18.651A.881.881,0,0,1,196.933,196.516Z" transform="translate(-196 -176)" fill="#1366ff"/></g><g transform="translate(14.548 27.79)"><path d="M222.774,165.94a.881.881,0,0,1-.933-.933V121.27l-9.139-9.139a6.588,6.588,0,0,0-1.306,3.917,6.418,6.418,0,0,0,1.958,4.663l2.611,2.611a.847.847,0,0,1,.28.653v7.46a.881.881,0,0,1-.933.933,10.229,10.229,0,0,0-10.258,10.258.881.881,0,0,1-.933.933H193.865c.28,3.077,1.958,4.943,3.823,6.9,1.772,1.958,3.637,4.01,3.637,7.087v7.46a.933.933,0,1,1-1.865,0v-7.46c0-2.331-1.492-4.01-3.171-5.875-2.052-2.238-4.29-4.756-4.29-9.046a.881.881,0,0,1,.933-.933h10.258A12.188,12.188,0,0,1,214.381,130.5v-6.155l-2.331-2.331a8.558,8.558,0,0,1,0-11.937.9.9,0,0,1,1.306,0l10.072,10.072a.847.847,0,0,1,.28.653v44.2A.881.881,0,0,1,222.774,165.94Z" transform="translate(-192 -109.8)" fill="#1366ff"/></g></g></g><g transform="translate(200.475 171.242)"><g transform="translate(0.933 0.933)"><ellipse cx="7.46" cy="7.46" rx="7.46" ry="7.46" fill="#fff"/></g><g transform="translate(7.46 11.191)"><path d="M48.933,197.056a.881.881,0,0,1-.933-.933V184.933a.933.933,0,0,1,1.865,0v11.191A.881.881,0,0,1,48.933,197.056Z" transform="translate(-48 -184)" fill="#1366ff"/></g><path d="M48.393,188.786a8.393,8.393,0,1,1,8.393-8.393A8.358,8.358,0,0,1,48.393,188.786Zm0-14.921a6.528,6.528,0,1,0,6.528,6.528A6.488,6.488,0,0,0,48.393,173.865Z" transform="translate(-40 -172)" fill="#1366ff"/></g><g transform="translate(44.325 53.723)"><g transform="translate(0.933 0.933)"><g transform="translate(9.326)"><path d="M137.621,49.7A9.3,9.3,0,0,0,131,47v9.326Z" transform="translate(-131 -47)" fill="#f7b4d6"/></g><path d="M130.325,47a9.326,9.326,0,1,0,6.621,15.947l-6.621-6.621Z" transform="translate(-121 -47)" fill="#fff"/><g transform="translate(9.326 2.704)"><path d="M137.621,49.9,131,56.521l6.621,6.621a9.457,9.457,0,0,0,0-13.242Z" transform="translate(-131 -49.9)" fill="#dbddf3"/></g></g><path d="M130.258,66.516a10.258,10.258,0,1,1,10.258-10.258A10.229,10.229,0,0,1,130.258,66.516Zm0-18.651a8.393,8.393,0,1,0,8.393,8.393A8.358,8.358,0,0,0,130.258,47.865Z" transform="translate(-120 -46)" fill="#1366ff"/><g transform="translate(9.326)"><path d="M130.933,57.191a.881.881,0,0,1-.933-.933V46.933a.933.933,0,1,1,1.865,0v9.326A.881.881,0,0,1,130.933,57.191Z" transform="translate(-130 -46)" fill="#1366ff"/></g><g transform="translate(9.326 2.704)"><path d="M130.933,57.386a.847.847,0,0,1-.653-.28.9.9,0,0,1,0-1.306L136.9,49.18a.923.923,0,0,1,1.306,1.306l-6.621,6.621A.847.847,0,0,1,130.933,57.386Z" transform="translate(-130 -48.9)" fill="#1366ff"/></g><g transform="translate(9.326 9.326)"><path d="M137.554,64.486a.847.847,0,0,1-.653-.28l-6.621-6.621a.923.923,0,0,1,1.306-1.306l6.621,6.621a.9.9,0,0,1,0,1.306A1.007,1.007,0,0,1,137.554,64.486Z" transform="translate(-130 -56)" fill="#1366ff"/></g></g><g transform="translate(518.836 64.63)"><g transform="translate(0.937 0.937)"><rect width="18.651" height="11.191" fill="#fff"/></g><g transform="translate(0.004 0.004)"><path d="M423.584,70.756H404.933a.881.881,0,0,1-.933-.933V58.633a.881.881,0,0,1,.933-.933h18.651a.881.881,0,0,1,.933.933V69.823A.935.935,0,0,1,423.584,70.756Zm-17.718-1.865h16.786V59.565H405.865Z" transform="translate(-404 -57.7)" fill="#1366ff"/></g><g transform="translate(0 5.595)"><path d="M404.932,71.16a.848.848,0,0,1-.746-.373.912.912,0,0,1,.187-1.306l6.994-5.6a.933.933,0,1,1,1.119,1.492l-6.994,5.6A1.325,1.325,0,0,1,404.932,71.16Z" transform="translate(-403.995 -63.695)" fill="#1366ff"/></g><g transform="translate(11.685 5.624)"><path d="M424.428,71.162a1.325,1.325,0,0,1-.56-.187l-6.994-5.6a.933.933,0,1,1,1.119-1.492l6.994,5.6a1,1,0,0,1,.187,1.306A1.151,1.151,0,0,1,424.428,71.162Z" transform="translate(-416.526 -63.726)" fill="#1366ff"/></g><g transform="translate(0.028 0.028)"><path d="M411.928,65.162a1.325,1.325,0,0,1-.559-.187l-6.994-5.6a.933.933,0,1,1,1.119-1.492l6.994,5.6a1,1,0,0,1,.187,1.306A1.151,1.151,0,0,1,411.928,65.162Z" transform="translate(-404.026 -57.726)" fill="#1366ff"/></g><g transform="translate(11.657)"><path d="M417.432,65.16a.848.848,0,0,1-.746-.373.912.912,0,0,1,.187-1.306l6.994-5.6a.933.933,0,1,1,1.119,1.492l-6.994,5.6A1.325,1.325,0,0,1,417.432,65.16Z" transform="translate(-416.495 -57.695)" fill="#1366ff"/></g><g transform="translate(7.022 5.595)"><path d="M414.766,67.43a1.326,1.326,0,0,1-.56-.187l-2.331-1.865a.933.933,0,1,1,1.119-1.492l1.772,1.4,1.772-1.4a.933.933,0,1,1,1.119,1.492l-2.331,1.865A1.325,1.325,0,0,1,414.766,67.43Z" transform="translate(-411.526 -63.695)" fill="#1366ff"/></g></g><g transform="translate(456.879 126.242)"><path d="M352,122.774a.934.934,0,0,1,.933-.933h0a.934.934,0,0,1,.933.933h0a1,1,0,0,1-.933.933h0A1,1,0,0,1,352,122.774Zm0-3.73a.934.934,0,0,1,.933-.933h0a.934.934,0,0,1,.933.933h0a1,1,0,0,1-.933.933h0A1,1,0,0,1,352,119.044Zm0-3.73a.934.934,0,0,1,.933-.933h0a.934.934,0,0,1,.933.933h0a1,1,0,0,1-.933.933h0A1,1,0,0,1,352,115.314Zm0-3.73a.934.934,0,0,1,.933-.933h0a.934.934,0,0,1,.933.933h0a1,1,0,0,1-.933.933h0A1,1,0,0,1,352,111.584Zm0-3.73a.934.934,0,0,1,.933-.933h0a.935.935,0,0,1,.933.933h0a1,1,0,0,1-.933.933h0A1,1,0,0,1,352,107.853Zm0-3.73a.934.934,0,0,1,.933-.933h0a.934.934,0,0,1,.933.933h0a1,1,0,0,1-.933.933h0A1,1,0,0,1,352,104.123Zm0-3.73a.934.934,0,0,1,.933-.933h0a.934.934,0,0,1,.933.933h0a1,1,0,0,1-.933.933h0A1,1,0,0,1,352,100.393Zm0-3.73a.934.934,0,0,1,.933-.933h0a.934.934,0,0,1,.933.933h0a1,1,0,0,1-.933.933h0A1,1,0,0,1,352,96.663Zm0-3.73a.934.934,0,0,1,.933-.933h0a.934.934,0,0,1,.933.933h0a1,1,0,0,1-.933.933h0A1,1,0,0,1,352,92.933Z" transform="translate(-352 -92)" fill="#1366ff"/></g><g transform="translate(636.915 52.281)"><path d="M520,83.044a.935.935,0,0,1,.932-.933h0a.935.935,0,0,1,.933.933h0a1,1,0,0,1-.933.933h0A1,1,0,0,1,520,83.044Zm0-3.73a.935.935,0,0,1,.932-.933h0a.935.935,0,0,1,.933.933h0a1,1,0,0,1-.933.933h0A1,1,0,0,1,520,79.314Zm0-3.73a.935.935,0,0,1,.932-.933h0a.935.935,0,0,1,.933.933h0a1,1,0,0,1-.933.933h0A1,1,0,0,1,520,75.584Zm0-3.73a.935.935,0,0,1,.932-.933h0a.935.935,0,0,1,.933.933h0a1,1,0,0,1-.933.933h0A1,1,0,0,1,520,71.853Zm0-3.73a.935.935,0,0,1,.932-.933h0a.935.935,0,0,1,.933.933h0a1,1,0,0,1-.933.933h0A1,1,0,0,1,520,68.123Zm0-3.73a.935.935,0,0,1,.932-.933h0a.935.935,0,0,1,.933.933h0a1,1,0,0,1-.933.933h0A1,1,0,0,1,520,64.393Zm0-3.73a.935.935,0,0,1,.932-.933h0a.935.935,0,0,1,.933.933h0a1,1,0,0,1-.933.933h0A1,1,0,0,1,520,60.663Zm0-3.73a.935.935,0,0,1,.932-.933h0a.935.935,0,0,1,.933.933h0a1,1,0,0,1-.933.933h0A1,1,0,0,1,520,56.933Z" transform="translate(-520 -56)" fill="#1366ff"/></g><g transform="translate(449.419 96.395)"><g transform="translate(0.933 0.933)"><path d="M359.921,68.46c0,4.1-7.46,18.651-7.46,18.651S345,72.564,345,68.46a7.46,7.46,0,1,1,14.921,0Z" transform="translate(-345 -61)" fill="#bff6fa"/></g><path d="M352.393,87.977a.979.979,0,0,1-.839-.466C350.808,86.018,344,72.683,344,68.393a8.393,8.393,0,0,1,16.786,0c0,4.2-6.808,17.532-7.554,19.117A.979.979,0,0,1,352.393,87.977Zm0-26.111a6.488,6.488,0,0,0-6.528,6.528c0,2.8,4.2,11.75,6.528,16.6,2.331-4.756,6.528-13.708,6.528-16.6A6.488,6.488,0,0,0,352.393,61.865Z" transform="translate(-344 -60)" fill="#1366ff"/><g transform="translate(5.595 5.595)"><ellipse cx="1.865" cy="1.865" rx="1.865" ry="1.865" transform="translate(0.933 0.933)" fill="#fff"/><path d="M352.8,71.6a2.8,2.8,0,1,1,2.8-2.8A2.748,2.748,0,0,1,352.8,71.6Zm0-3.73a.933.933,0,1,0,.933.933A.881.881,0,0,0,352.8,67.865Z" transform="translate(-350 -66)" fill="#1366ff"/></g></g><g transform="translate(596 10.818)"><path d="M103.921,8.46c0,4.1-7.46,18.651-7.46,18.651S89,12.564,89,8.46a7.46,7.46,0,1,1,14.921,0Z" transform="translate(-88.067 -0.067)" fill="#fff"/><path d="M96.393,27.977a.979.979,0,0,1-.839-.466C94.808,25.925,88,12.589,88,8.393a8.393,8.393,0,1,1,16.786,0c0,4.2-6.808,17.532-7.554,19.117A.979.979,0,0,1,96.393,27.977Zm0-26.111a6.488,6.488,0,0,0-6.528,6.528c0,2.8,4.2,11.75,6.528,16.6,2.331-4.756,6.528-13.708,6.528-16.6A6.488,6.488,0,0,0,96.393,1.865Z" transform="translate(-88)" fill="#1366ff"/><ellipse cx="1.865" cy="1.865" rx="1.865" ry="1.865" transform="translate(6.528 6.528)" fill="#fff"/><path d="M96.8,11.6A2.748,2.748,0,0,1,94,8.8a2.8,2.8,0,0,1,5.6,0A2.748,2.748,0,0,1,96.8,11.6Zm0-3.73a.881.881,0,0,0-.933.933.933.933,0,1,0,1.865,0A.881.881,0,0,0,96.8,7.865Z" transform="translate(-88.405 -0.405)" fill="#1366ff"/><path d="M96,69.965a.881.881,0,0,1,.933-.933h0a.935.935,0,0,1,.933.933h0a1,1,0,0,1-.933.933h0A.935.935,0,0,1,96,69.965Zm0-3.73a.881.881,0,0,1,.933-.933h0a.935.935,0,0,1,.933.933h0a1,1,0,0,1-.933.933h0A.934.934,0,0,1,96,66.235Zm0-3.73a.881.881,0,0,1,.933-.933h0a.935.935,0,0,1,.933.933h0a1,1,0,0,1-.933.933h0A.935.935,0,0,1,96,62.5Zm0-3.73a.881.881,0,0,1,.933-.933h0a.935.935,0,0,1,.933.933h0a1,1,0,0,1-.933.933h0A.935.935,0,0,1,96,58.774Zm0-3.73a.881.881,0,0,1,.933-.933h0a.935.935,0,0,1,.933.933h0a1,1,0,0,1-.933.933h0A.935.935,0,0,1,96,55.044Zm0-3.73a.881.881,0,0,1,.933-.933h0a.935.935,0,0,1,.933.933h0a1,1,0,0,1-.933.933h0A.935.935,0,0,1,96,51.314Zm0-3.73a.881.881,0,0,1,.933-.933h0a.935.935,0,0,1,.933.933h0a1,1,0,0,1-.933.933h0A.935.935,0,0,1,96,47.584Zm0-3.73a.881.881,0,0,1,.933-.933h0a.935.935,0,0,1,.933.933h0a1,1,0,0,1-.933.933h0A.935.935,0,0,1,96,43.853Zm0-3.73a.881.881,0,0,1,.933-.933h0a.935.935,0,0,1,.933.933h0a1,1,0,0,1-.933.933h0A.935.935,0,0,1,96,40.123Zm0-3.73a.881.881,0,0,1,.933-.933h0a.935.935,0,0,1,.933.933h0a1,1,0,0,1-.933.933h0A.935.935,0,0,1,96,36.393Zm0-3.73a.881.881,0,0,1,.933-.933h0a.935.935,0,0,1,.933.933h0a1,1,0,0,1-.933.933h0A.935.935,0,0,1,96,32.663Zm0-3.73A.881.881,0,0,1,96.933,28h0a.935.935,0,0,1,.933.933h0a1,1,0,0,1-.933.933h0A.935.935,0,0,1,96,28.933Z" transform="translate(-88.54 -1.889)" fill="#1366ff"/></g><g transform="translate(514.364 0)"><g transform="translate(0.933 0.933)"><path d="M520.056,42.439a4.383,4.383,0,1,1,0-8.766V25a13.056,13.056,0,1,0,9.232,22.288l-6.155-6.155A4.446,4.446,0,0,1,520.056,42.439Z" transform="translate(-507 -25)" fill="#f7b4d6"/><g transform="translate(13.056)"><path d="M524.077,34.978l6.155-6.155A13.035,13.035,0,0,0,521,25v8.673A4.447,4.447,0,0,1,524.077,34.978Z" transform="translate(-521 -25)" fill="#fff"/></g><g transform="translate(16.133 3.823)"><path d="M530.455,29.1,524.3,35.255a4.446,4.446,0,0,1,1.306,3.077A4.079,4.079,0,0,1,524.3,41.41l6.155,6.155a13.058,13.058,0,0,0,0-18.465Z" transform="translate(-524.3 -29.1)" fill="#dbddf3"/></g></g><path d="M519.988,51.977a13.988,13.988,0,1,1,13.988-13.988A13.97,13.97,0,0,1,519.988,51.977Zm0-26.111a12.123,12.123,0,1,0,12.123,12.123A12.1,12.1,0,0,0,519.988,25.865Z" transform="translate(-506 -24)" fill="#1366ff"/><g transform="translate(8.673 8.673)"><path d="M520.616,43.931a5.316,5.316,0,1,1,0-10.631,5.255,5.255,0,0,1,5.315,5.316A5.374,5.374,0,0,1,520.616,43.931Zm0-8.766a3.443,3.443,0,0,0-3.451,3.45,3.451,3.451,0,0,0,6.9,0A3.442,3.442,0,0,0,520.616,35.165Z" transform="translate(-515.3 -33.3)" fill="#1366ff"/></g><g transform="translate(13.056)"><path d="M520.933,34.538a.881.881,0,0,1-.932-.933V24.933a.933.933,0,0,1,1.865,0v8.673A.881.881,0,0,1,520.933,34.538Z" transform="translate(-520 -24)" fill="#1366ff"/></g><g transform="translate(16.133 3.823)"><path d="M524.232,36.12a.847.847,0,0,1-.653-.28.9.9,0,0,1,0-1.306l6.155-6.155a.923.923,0,0,1,1.306,1.306l-6.155,6.155A.847.847,0,0,1,524.232,36.12Z" transform="translate(-523.3 -28.1)" fill="#1366ff"/></g><g transform="translate(16.133 16.133)"><path d="M530.387,49.32a.847.847,0,0,1-.653-.28l-6.155-6.155a.923.923,0,0,1,1.306-1.306l6.155,6.155a.9.9,0,0,1,0,1.306A.847.847,0,0,1,530.387,49.32Z" transform="translate(-523.3 -41.3)" fill="#1366ff"/></g></g><g transform="translate(93.906 56.532)"><g transform="translate(1.026 1.119)"><path d="M261.111,94.988V93.123l-3.917-.839a6.869,6.869,0,0,0-.373-1.306l2.984-2.7-.933-1.585L255.05,87.9a4.421,4.421,0,0,0-.933-.933l1.212-3.823-1.585-.933-2.7,2.984a5.346,5.346,0,0,0-1.306-.373L248.988,81h-1.865l-.839,3.917a6.866,6.866,0,0,0-1.306.373l-2.7-2.984-1.585.933,1.212,3.823a4.421,4.421,0,0,0-.933.933l-3.823-1.212-.933,1.585,2.984,2.7a5.349,5.349,0,0,0-.373,1.306L235,93.123v1.865l3.917.839a6.867,6.867,0,0,0,.373,1.306l-2.984,2.7.933,1.585,3.823-1.212a4.42,4.42,0,0,0,.933.933l-1.212,3.823,1.585.933,2.7-2.984a5.346,5.346,0,0,0,1.306.373l.839,3.917h1.865l.839-3.917a6.868,6.868,0,0,0,1.306-.373l2.7,2.984,1.585-.933-1.212-3.823a4.419,4.419,0,0,0,.933-.933l3.823,1.212.933-1.585-2.984-2.7a5.343,5.343,0,0,0,.373-1.306Z" transform="translate(-235 -81)" fill="#dbddf3"/></g><path d="M248.914,107.963h-1.865a.908.908,0,0,1-.933-.746l-.746-3.357c-.093,0-.093,0-.187-.093l-2.238,2.518a.992.992,0,0,1-1.119.187l-1.585-.933a1.01,1.01,0,0,1-.466-1.119l1.026-3.264a.091.091,0,0,1-.093-.093l-3.264,1.026a.986.986,0,0,1-1.119-.466l-.933-1.585a.863.863,0,0,1,.186-1.119l2.518-2.238c0-.093,0-.093-.093-.187l-3.357-.746a.908.908,0,0,1-.746-.933V92.949a.908.908,0,0,1,.746-.933L238,91.27c0-.093,0-.093.093-.187l-2.518-2.238a.863.863,0,0,1-.186-1.119l.933-1.585a1.01,1.01,0,0,1,1.119-.466l3.264,1.026a.091.091,0,0,1,.093-.093l-1.026-3.264a.986.986,0,0,1,.466-1.119l1.585-.933a.863.863,0,0,1,1.119.187L245.184,84c.093,0,.093,0,.187-.093l.746-3.357a.908.908,0,0,1,.933-.746h1.865a.908.908,0,0,1,.933.746l.746,3.357c.093,0,.093,0,.187.093l2.238-2.518a.992.992,0,0,1,1.119-.187l1.585.933a1.01,1.01,0,0,1,.466,1.119l-1.026,3.264a.091.091,0,0,1,.093.093l3.264-1.026a.986.986,0,0,1,1.119.466l.933,1.585a.863.863,0,0,1-.186,1.119l-2.518,2.238c0,.093,0,.093.093.187l3.357.746a.908.908,0,0,1,.746.933v1.865a.908.908,0,0,1-.746.933l-3.357.746c0,.093,0,.093-.093.187l2.518,2.238a.863.863,0,0,1,.186,1.119l-.933,1.585a1.01,1.01,0,0,1-1.119.466l-3.264-1.026c0,.093-.093.093-.093.187l1.026,3.264a.986.986,0,0,1-.466,1.119l-1.585.933a.863.863,0,0,1-1.119-.187l-2.238-2.518c-.093,0-.093,0-.187.093l-.746,3.357A.926.926,0,0,1,248.914,107.963Zm-1.119-1.865h.373l.653-3.171a1.012,1.012,0,0,1,.746-.746l1.119-.28a1.052,1.052,0,0,1,1.026.28l2.145,2.425.28-.187-1.026-3.077a1.052,1.052,0,0,1,.28-1.026l.839-.839a1.052,1.052,0,0,1,1.026-.28l3.077,1.026.187-.28L256.095,97.8a1.052,1.052,0,0,1-.28-1.026,4.916,4.916,0,0,0,.28-1.119,1.012,1.012,0,0,1,.746-.746l3.171-.653v-.373l-3.171-.653a1.012,1.012,0,0,1-.746-.746l-.28-1.119a1.052,1.052,0,0,1,.28-1.026l2.425-2.145-.187-.28-3.077,1.026a1.052,1.052,0,0,1-1.026-.28l-.839-.839a1.052,1.052,0,0,1-.28-1.026l1.026-3.077-.28-.187-2.145,2.425a1.052,1.052,0,0,1-1.026.28,4.918,4.918,0,0,0-1.119-.28,1.012,1.012,0,0,1-.746-.746l-.653-3.171h-.373l-.653,3.171a1.012,1.012,0,0,1-.746.746l-1.119.28a1.052,1.052,0,0,1-1.026-.28l-2.145-2.425-.28.187,1.026,3.077a1.052,1.052,0,0,1-.28,1.026l-.839.839a1.052,1.052,0,0,1-1.026.28l-3.077-1.026-.187.28,2.425,2.145a1.052,1.052,0,0,1,.28,1.026,4.919,4.919,0,0,0-.28,1.119,1.012,1.012,0,0,1-.746.746l-3.171.653v.373l3.171.653a1.012,1.012,0,0,1,.746.746l.28,1.119a1.052,1.052,0,0,1-.28,1.026l-2.425,2.145.187.28,3.077-1.026a1.052,1.052,0,0,1,1.026.28l.839.839a1.052,1.052,0,0,1,.28,1.026l-1.026,3.077.28.187,2.145-2.425a1.052,1.052,0,0,1,1.026-.28,4.918,4.918,0,0,0,1.119.28,1.012,1.012,0,0,1,.746.746Z" transform="translate(-233.9 -79.8)" fill="#1366ff"/><g transform="translate(9.419 9.512)"><path d="M252.46,94.73A3.73,3.73,0,1,1,248.73,91,3.741,3.741,0,0,1,252.46,94.73Z" transform="translate(-244.067 -90.067)" fill="#fff"/><path d="M248.663,99.325a4.663,4.663,0,1,1,4.663-4.663A4.617,4.617,0,0,1,248.663,99.325Zm0-7.46a2.8,2.8,0,1,0,2.8,2.8A2.748,2.748,0,0,0,248.663,91.865Z" transform="translate(-244 -90)" fill="#1366ff"/></g><path d="M248.933,125.865a.847.847,0,0,1-.653-.28,1.007,1.007,0,0,1-.28-.653.847.847,0,0,1,.28-.653.9.9,0,0,1,1.306,0,.933.933,0,0,1-.653,1.585Z" transform="translate(-234.851 -82.781)" fill="#1366ff"/><path d="M248,120.663a.881.881,0,0,1,.933-.933h0a.934.934,0,0,1,.933.933h0a1,1,0,0,1-.933.933h0A.934.934,0,0,1,248,120.663Zm0-3.73a.881.881,0,0,1,.933-.933h0a.934.934,0,0,1,.933.933h0a1,1,0,0,1-.933.933h0A.934.934,0,0,1,248,116.933Z" transform="translate(-234.851 -82.242)" fill="#1366ff"/><path d="M248.933,113.865a.847.847,0,0,1-.653-.28,1.007,1.007,0,0,1-.28-.653.847.847,0,0,1,.28-.653.9.9,0,0,1,1.306,0,.933.933,0,0,1-.653,1.585Z" transform="translate(-234.851 -81.972)" fill="#1366ff"/></g><g transform="translate(527.228 30.688)"><path d="M540,84.663a.935.935,0,0,1,.933-.933h0a.935.935,0,0,1,.933.933h0a1,1,0,0,1-.933.933h0A1,1,0,0,1,540,84.663Zm0-3.73a.935.935,0,0,1,.933-.933h0a.935.935,0,0,1,.933.933h0a1,1,0,0,1-.933.933h0A1,1,0,0,1,540,80.933Z" transform="translate(-540 -80)" fill="#1366ff"/></g><g transform="translate(626.501 20.657)"><g transform="translate(0.933 12.123)"><rect width="3.73" height="7.46" fill="#dbddf3"/></g><g transform="translate(8.393 6.528)"><rect width="3.73" height="13.056" fill="#f7b4d6"/></g><g transform="translate(15.853 0.933)"><rect width="3.73" height="18.651" fill="#bff6fa"/></g><g transform="translate(0 22.381)"><path d="M549.584,75.865H530.933a.933.933,0,1,1,0-1.865h18.651a.933.933,0,1,1,0,1.865Z" transform="translate(-530 -74)" fill="#1366ff"/></g><g transform="translate(0 11.191)"><path d="M534.663,71.326h-3.73a.881.881,0,0,1-.933-.933v-7.46a.881.881,0,0,1,.933-.933h3.73a.881.881,0,0,1,.932.933v7.46A.881.881,0,0,1,534.663,71.326Zm-2.8-1.865h1.865v-5.6h-1.865Z" transform="translate(-530 -62)" fill="#1366ff"/></g><g transform="translate(7.46 5.595)"><path d="M542.663,70.921h-3.73a.881.881,0,0,1-.933-.933V56.933a.881.881,0,0,1,.933-.933h3.73a.881.881,0,0,1,.932.933V69.988A.881.881,0,0,1,542.663,70.921Zm-2.8-1.865h1.865V57.865h-1.865Z" transform="translate(-538 -56)" fill="#1366ff"/></g><g transform="translate(14.921)"><path d="M550.663,70.516h-3.73a.881.881,0,0,1-.933-.933V50.933a.881.881,0,0,1,.933-.933h3.73a.881.881,0,0,1,.932.933V69.584A.881.881,0,0,1,550.663,70.516Zm-2.8-1.865h1.865V51.865h-1.865Z" transform="translate(-546 -50)" fill="#1366ff"/></g></g><g transform="translate(151.406 44.538)"><g transform="translate(0.933 0.933)"><path d="M218.572,61.516a1.871,1.871,0,0,1-1.865,1.865H186.865A1.871,1.871,0,0,1,185,61.516V42.865A1.871,1.871,0,0,1,186.865,41h29.842a1.871,1.871,0,0,1,1.865,1.865Z" transform="translate(-185 -41)" fill="#fff"/></g><g transform="translate(0.933 6.528)"><rect width="33.572" height="5.595" fill="#dbddf3"/></g><path d="M216.639,64.246H186.8a2.748,2.748,0,0,1-2.8-2.8V42.8a2.748,2.748,0,0,1,2.8-2.8h29.842a2.748,2.748,0,0,1,2.8,2.8V61.449A2.748,2.748,0,0,1,216.639,64.246ZM186.8,41.865a.881.881,0,0,0-.933.933V61.449a.881.881,0,0,0,.933.933h29.842a.881.881,0,0,0,.933-.933V42.8a.881.881,0,0,0-.933-.933Z" transform="translate(-184 -40)" fill="#1366ff"/><g transform="translate(0 5.595)"><g transform="translate(0 5.595)"><path d="M218.5,53.865H184.933a.933.933,0,0,1,0-1.865H218.5a.933.933,0,0,1,0,1.865Z" transform="translate(-184 -52)" fill="#1366ff"/></g><path d="M218.5,47.865H184.933a.933.933,0,0,1,0-1.865H218.5a.933.933,0,0,1,0,1.865Z" transform="translate(-184 -46)" fill="#1366ff"/><g transform="translate(3.73 11.191)"><path d="M203.853,59.865H188.933a.933.933,0,0,1,0-1.865h14.921a.933.933,0,1,1,0,1.865Z" transform="translate(-188 -58)" fill="#1366ff"/></g><g transform="translate(26.111 11.191)"><path d="M216.663,59.865h-3.73a.933.933,0,0,1,0-1.865h3.73a.933.933,0,0,1,0,1.865Z" transform="translate(-212 -58)" fill="#1366ff"/></g></g><path d="M202,76.393a.881.881,0,0,1,.933-.933h0a.934.934,0,0,1,.933.933h0a1,1,0,0,1-.933.933h0A.934.934,0,0,1,202,76.393Zm0-3.73a.881.881,0,0,1,.933-.933h0a.934.934,0,0,1,.933.933h0a1,1,0,0,1-.933.933h0A.935.935,0,0,1,202,72.663Zm0-3.73a.881.881,0,0,1,.933-.933h0a.934.934,0,0,1,.933.933h0a1,1,0,0,1-.933.933h0A.934.934,0,0,1,202,68.933Z" transform="translate(-185.214 -41.889)" fill="#1366ff"/><path d="M202,76.393a.881.881,0,0,1,.933-.933h0a.934.934,0,0,1,.933.933h0a1,1,0,0,1-.933.933h0A.934.934,0,0,1,202,76.393Zm0-3.73a.881.881,0,0,1,.933-.933h0a.934.934,0,0,1,.933.933h0a1,1,0,0,1-.933.933h0A.935.935,0,0,1,202,72.663Zm0-3.73a.881.881,0,0,1,.933-.933h0a.934.934,0,0,1,.933.933h0a1,1,0,0,1-.933.933h0A.934.934,0,0,1,202,68.933Z" transform="translate(-185.214 -31.121)" fill="#1366ff"/></g><g transform="translate(251.432 56.807)"><path d="M61,37V55.651H75.921l3.73,3.73v-3.73h7.46V37Z" transform="translate(-60.067 -36.067)" fill="#f7b4d6"/><path d="M80.123,45.865H68.933a.933.933,0,1,1,0-1.865H80.123a.933.933,0,1,1,0,1.865Z" transform="translate(-60.54 -36.54)" fill="#1366ff"/><path d="M80.123,49.865H68.933a.933.933,0,1,1,0-1.865H80.123a.933.933,0,1,1,0,1.865Z" transform="translate(-60.54 -36.809)" fill="#1366ff"/><path d="M79.584,60.246a.847.847,0,0,1-.653-.28l-3.45-3.45H60.933A.881.881,0,0,1,60,55.584V36.933A.881.881,0,0,1,60.933,36H87.044a.881.881,0,0,1,.933.933V55.584a.881.881,0,0,1-.933.933H80.516v2.8a.816.816,0,0,1-.56.839A.561.561,0,0,1,79.584,60.246Zm-17.718-5.6H75.853a.847.847,0,0,1,.653.28l2.145,2.145V55.584a.881.881,0,0,1,.933-.933h6.528V37.865H61.865Z" transform="translate(-60 -36)" fill="#1366ff"/><path d="M80,72.393a.881.881,0,0,1,.933-.933h0a.935.935,0,0,1,.933.933h0a1,1,0,0,1-.933.933h0A.935.935,0,0,1,80,72.393Zm0-3.73a.881.881,0,0,1,.933-.933h0a.935.935,0,0,1,.933.933h0a1,1,0,0,1-.933.933h0A.935.935,0,0,1,80,68.663Zm0-3.73A.881.881,0,0,1,80.933,64h0a.935.935,0,0,1,.933.933h0a1,1,0,0,1-.933.933h0A.934.934,0,0,1,80,64.933Z" transform="translate(-61.349 -37.889)" fill="#1366ff"/></g></g><g transform="translate(912.581 884.235)"><g transform="translate(0 85.689)"><g transform="translate(0 0)"><rect width="123.735" height="76.144" transform="translate(20.226 5.949)" fill="#bff6fa"/><path d="M369.518,301.518A9.512,9.512,0,0,1,360,292H521.807a9.512,9.512,0,0,1-9.518,9.518Z" transform="translate(-358.81 -209.907)" fill="#fff"/><path d="M500.493,224H376.759A4.756,4.756,0,0,0,372,228.759V304.9h4.759V228.759H500.493V304.9h4.759V228.759A4.756,4.756,0,0,0,500.493,224Z" transform="translate(-356.533 -222.811)" fill="#fff"/><path d="M10.708,92.8A10.72,10.72,0,0,1,0,82.093,1.189,1.189,0,0,1,1.19,80.9H14.277V5.948A5.955,5.955,0,0,1,20.226,0H143.961a5.955,5.955,0,0,1,5.948,5.948V80.9H163a1.19,1.19,0,0,1,1.19,1.19A10.72,10.72,0,0,1,153.478,92.8Zm142.77-2.38a8.341,8.341,0,0,0,8.243-7.139H97.56v3.569a1.19,1.19,0,0,1-1.19,1.19H67.815a1.19,1.19,0,0,1-1.189-1.19V83.282H2.464a8.341,8.341,0,0,0,8.244,7.139ZM69.006,85.662H95.18v-2.38H69.006ZM147.53,80.9V5.948a3.574,3.574,0,0,0-3.569-3.569H20.226a3.574,3.574,0,0,0-3.569,3.569V80.9h2.38V5.948a1.189,1.189,0,0,1,1.19-1.19H143.96a1.19,1.19,0,0,1,1.19,1.19V80.9Zm-4.76,0V7.139H21.415V80.9Z" fill="#1366ff" stroke="rgba(0,0,0,0)" stroke-width="1"/></g></g><g transform="translate(38.072 0)"><g transform="translate(30.934 105.889)"><path d="M425.328,240H418.19L417,244.759h9.518Z" transform="translate(-417 -240)" fill="#f7b4d6"/></g><g transform="translate(47.59 105.889)"><path d="M439.328,240H432.19L431,244.759h9.518Z" transform="translate(-431 -240)" fill="#f7b4d6"/></g><g transform="translate(1.19 34.504)"><path d="M420.554,251.385V180c0,38.072-28.554,38.072-28.554,71.385Z" transform="translate(-392 -180)" fill="#fff"/><g transform="translate(57.108)"><path d="M440,180v71.385h28.554C468.554,218.072,440,218.072,440,180Z" transform="translate(-440 -180)" fill="#fff"/></g></g><g transform="translate(10.708 101.13)"><rect width="9.518" height="4.759" fill="#f7b4d6"/></g><g transform="translate(67.816 101.13)"><rect width="9.518" height="4.759" fill="#f7b4d6"/></g><g transform="translate(0 33.314)"><path d="M420.744,252.765H392.19a1.189,1.189,0,0,1-1.19-1.19c0-16.519,7.028-25.285,13.824-33.76,7.242-9.033,14.73-18.371,14.73-37.625a1.19,1.19,0,1,1,2.379,0c0,20.089-7.755,29.761-15.253,39.113-6.666,8.313-12.971,16.176-13.288,31.082h27.351a1.19,1.19,0,1,1,0,2.38Z" transform="translate(-391 -179)" fill="#1366ff"/></g><g transform="translate(9.518 99.94)"><path d="M409.708,242.139H400.19a1.189,1.189,0,0,1-1.19-1.19V236.19a1.189,1.189,0,0,1,1.19-1.19h9.518a1.189,1.189,0,0,1,1.19,1.19v4.759A1.189,1.189,0,0,1,409.708,242.139Zm-8.328-2.38h7.139v-2.38h-7.139Z" transform="translate(-399 -235)" fill="#1366ff"/></g><g transform="translate(57.108 33.314)"><path d="M468.744,252.765H440.19a1.19,1.19,0,1,1,0-2.38h27.351c-.318-14.906-6.622-22.77-13.288-31.082C446.755,209.95,439,200.279,439,180.19a1.19,1.19,0,1,1,2.38,0c0,19.254,7.488,28.592,14.73,37.625,6.8,8.476,13.824,17.242,13.824,33.76A1.189,1.189,0,0,1,468.744,252.765Z" transform="translate(-439 -179)" fill="#1366ff"/></g><g transform="translate(66.626 99.94)"><path d="M457.708,242.139H448.19a1.189,1.189,0,0,1-1.19-1.19V236.19a1.189,1.189,0,0,1,1.19-1.19h9.518a1.189,1.189,0,0,1,1.19,1.19v4.759A1.189,1.189,0,0,1,457.708,242.139Zm-8.328-2.38h7.139v-2.38H449.38Z" transform="translate(-447 -235)" fill="#1366ff"/></g><g transform="translate(29.744 1.19)"><g transform="translate(0)"><g transform="translate(0 9.518)"><path d="M422.128,160A47.286,47.286,0,0,0,416,183.8V255.18h28.554V183.8a47.286,47.286,0,0,0-6.128-23.8Z" transform="translate(-416 -160)" fill="#fff"/></g><g transform="translate(6.128)"><path d="M429.3,152a33.373,33.373,0,0,0-8.149,9.518h16.3A33.392,33.392,0,0,0,429.3,152Z" transform="translate(-421.151 -152)" fill="#bff6fa"/></g></g><g transform="translate(4.936 8.328)"><path d="M437.641,161.38h-16.3a1.19,1.19,0,1,1,0-2.38h16.3a1.19,1.19,0,0,1,0,2.38Z" transform="translate(-420.149 -159)" fill="#1366ff"/></g><g transform="translate(5.948 22.617)"><path d="M436.466,175.757a1.188,1.188,0,0,1-.669-.206,10.756,10.756,0,0,0-12.939,0,1.19,1.19,0,0,1-1.339-1.968,13.131,13.131,0,0,1,15.616,0,1.189,1.189,0,0,1-.67,2.174Z" transform="translate(-420.999 -171.01)" fill="#1366ff"/></g></g><g transform="translate(28.554)"><path d="M444.744,258.078H416.19a1.189,1.189,0,0,1-1.19-1.19V185.5c0-14.04,5.647-27.166,14.735-34.252a1.19,1.19,0,0,1,1.463,0c9.089,7.086,14.735,20.212,14.735,34.252v71.385A1.189,1.189,0,0,1,444.744,258.078ZM417.38,255.7h26.175V185.5c0-12.937-4.993-25.01-13.087-31.783-8.094,6.773-13.087,18.846-13.087,31.783Z" transform="translate(-415 -151)" fill="#1366ff"/><path d="M444.744,237.38H416.19a1.19,1.19,0,1,1,0-2.38h28.554a1.19,1.19,0,0,1,0,2.38Z" transform="translate(-415 -135.06)" fill="#1366ff"/><path d="M428.19,248.416a1.189,1.189,0,0,1-1.19-1.19V228.19a1.19,1.19,0,1,1,2.38,0v19.036A1.189,1.189,0,0,1,428.19,248.416Z" transform="translate(-412.723 -136.578)" fill="#1366ff"/></g><g transform="translate(29.744 104.699)"><path d="M426.708,246.139H417.19a1.191,1.191,0,0,1-1.154-1.479l1.19-4.759a1.191,1.191,0,0,1,1.154-.9h7.139a1.191,1.191,0,0,1,1.154.9l1.19,4.759a1.19,1.19,0,0,1-1.154,1.479Zm-7.994-2.38h6.47l-.595-2.38h-5.28Z" transform="translate(-416 -239)" fill="#1366ff"/></g><g transform="translate(46.4 104.699)"><path d="M440.708,246.139H431.19a1.191,1.191,0,0,1-1.154-1.479l1.19-4.759a1.191,1.191,0,0,1,1.154-.9h7.138a1.191,1.191,0,0,1,1.154.9l1.19,4.759a1.191,1.191,0,0,1-1.154,1.479Zm-7.994-2.38h6.47l-.595-2.38h-5.28Z" transform="translate(-430 -239)" fill="#1366ff"/></g></g><g transform="translate(28.553 114.244)"><path d="M105.044,49.625a1.2,1.2,0,0,1,1.69-1.691,1.208,1.208,0,0,1,0,1.691,1.207,1.207,0,0,1-1.69,0Zm-5.1-.845a3.574,3.574,0,0,0-3.568-3.57,1.19,1.19,0,1,1,0-2.379,5.955,5.955,0,0,1,5.948,5.949,1.19,1.19,0,1,1-2.38,0Zm-9.519,0a8.337,8.337,0,0,0-8.328-8.328,1.19,1.19,0,0,1,0-2.379A10.719,10.719,0,0,1,92.8,48.779a1.189,1.189,0,1,1-2.379,0ZM53.54,46.4a3.57,3.57,0,1,1,3.57,3.57A3.574,3.574,0,0,1,53.54,46.4Zm2.38,0a1.189,1.189,0,1,0,1.19-1.191A1.19,1.19,0,0,0,55.92,46.4ZM38.072,48.779a1.191,1.191,0,0,1,1.191-1.191A13.1,13.1,0,0,0,52.352,34.5V24.984a1.189,1.189,0,1,1,2.379,0V34.5A15.486,15.486,0,0,1,39.263,49.97,1.191,1.191,0,0,1,38.072,48.779Zm-19.034,0a5.954,5.954,0,0,1,5.947-5.949,1.19,1.19,0,1,1,0,2.379,3.573,3.573,0,0,0-3.568,3.57,1.189,1.189,0,1,1-2.379,0Zm-4.761,0A10.72,10.72,0,0,1,24.986,38.072a1.19,1.19,0,1,1,0,2.379,8.337,8.337,0,0,0-8.329,8.328,1.19,1.19,0,1,1-2.38,0Zm-9.516,0a5.954,5.954,0,0,1,5.948-5.949,1.19,1.19,0,0,1,0,2.379,3.573,3.573,0,0,0-3.569,3.57,1.189,1.189,0,1,1-2.379,0Zm-4.415.845a1.206,1.206,0,0,1,0-1.691,1.245,1.245,0,0,1,1.689,0,1.208,1.208,0,0,1,0,1.691,1.255,1.255,0,0,1-.844.345A1.25,1.25,0,0,1,.346,49.625Zm80.9-4.76a1.19,1.19,0,1,1,1.689,0,1.23,1.23,0,0,1-.846.345A1.216,1.216,0,0,1,81.25,44.864ZM57.11,34.5V20.226a1.19,1.19,0,1,1,2.38,0V34.5a8.328,8.328,0,1,0,8.328-8.328,1.191,1.191,0,1,1,0-2.381A10.708,10.708,0,1,1,57.11,34.5Zm-28.553,0A10.72,10.72,0,0,1,39.263,23.793a1.19,1.19,0,1,1,0,2.379,8.329,8.329,0,1,0,8.328,8.33,1.19,1.19,0,1,1,2.38,0,10.707,10.707,0,0,1-21.414,0Zm39.261,5.949a5.957,5.957,0,0,1-5.95-5.949,1.19,1.19,0,1,1,2.38,0,3.569,3.569,0,1,0,7.139,0,1.192,1.192,0,0,1,.068-.4,1.186,1.186,0,0,1-.068-.4,2.778,2.778,0,0,0-2.774-2.777,1.19,1.19,0,1,1,0-2.379,5.161,5.161,0,0,1,5.154,5.156,1.209,1.209,0,0,1-.067.4,1.214,1.214,0,0,1,.067.4,5.956,5.956,0,0,1-5.949,5.949ZM38.072,39.261a1.189,1.189,0,0,1,1.191-1.189,3.57,3.57,0,1,0-3.57-3.57,1.189,1.189,0,0,1-2.379,0,5.949,5.949,0,1,1,5.949,5.949A1.191,1.191,0,0,1,38.072,39.261Zm52.694-3.915a1.189,1.189,0,1,1,1.689,0,1.223,1.223,0,0,1-.844.345A1.245,1.245,0,0,1,90.767,35.346Zm-74.953,0A1.194,1.194,0,0,1,17.5,33.657a1.205,1.205,0,0,1,0,1.689,1.23,1.23,0,0,1-.845.345A1.216,1.216,0,0,1,15.813,35.346Zm46.054-5.6V24.984a1.19,1.19,0,1,1,2.38,0v4.758a1.19,1.19,0,1,1-2.38,0Zm-14.277,0V15.465a1.19,1.19,0,0,1,2.38,0V29.742a1.19,1.19,0,1,1-2.38,0ZM77.336,22.6a3.568,3.568,0,1,1,3.57,3.57A3.574,3.574,0,0,1,77.336,22.6Zm2.379,0a1.189,1.189,0,1,0,1.191-1.191A1.19,1.19,0,0,0,79.715,22.6ZM42.831,24.984V20.226a1.19,1.19,0,1,1,2.381,0v4.758a1.19,1.19,0,1,1-2.381,0ZM23.8,20.226a3.57,3.57,0,1,1,3.57,3.568A3.574,3.574,0,0,1,23.8,20.226Zm2.38,0a1.19,1.19,0,1,0,1.19-1.191A1.189,1.189,0,0,0,26.176,20.226Zm35.692-4.76V1.189a1.19,1.19,0,0,1,2.38,0V15.465a3.569,3.569,0,1,0,3.57-3.57,1.19,1.19,0,0,1,0-2.379,5.949,5.949,0,1,1-5.95,5.949Zm-9.516,4.76V10.707a1.189,1.189,0,1,1,2.379,0v9.518a1.189,1.189,0,0,1-2.379,0Zm4.758-4.76V5.947a1.19,1.19,0,0,1,2.38,0v9.518a1.19,1.19,0,1,1-2.38,0Zm-23.8-4.758a5.955,5.955,0,0,1,5.949-5.949,1.19,1.19,0,0,1,0,2.379,3.57,3.57,0,1,0,3.568,3.57,1.176,1.176,0,0,1,.109-.5,1.176,1.176,0,0,1-.109-.5V1.189a1.19,1.19,0,0,1,2.381,0V9.714a1.176,1.176,0,0,1-.109.5,1.176,1.176,0,0,1,.109.5,5.949,5.949,0,1,1-11.9,0Zm14.277,0V5.949a1.19,1.19,0,1,1,2.38,0v4.758a1.19,1.19,0,1,1-2.38,0Zm28.9.845a1.2,1.2,0,1,1,2.035-.845,1.218,1.218,0,0,1-.357.845,1.185,1.185,0,0,1-.833.343A1.254,1.254,0,0,1,76.49,11.553ZM52.352,5.947V1.189a1.189,1.189,0,0,1,2.379,0V5.947a1.189,1.189,0,1,1-2.379,0ZM28.9,6.792a1.205,1.205,0,0,1,0-1.689,1.245,1.245,0,0,1,1.689,0,1.232,1.232,0,0,1,.345.843,1.255,1.255,0,0,1-.345.845,1.23,1.23,0,0,1-.846.345A1.213,1.213,0,0,1,28.9,6.792Z" transform="translate(0 0)" fill="#1366ff" stroke="rgba(0,0,0,0)" stroke-width="1"/></g></g></g></svg>