<svg xmlns="http://www.w3.org/2000/svg" width="43.361" height="15.545" viewBox="0 0 43.361 15.545"><g transform="translate(-605.349 -268.852)"><g transform="translate(605.349 268.852)"><g transform="translate(0 0.004)"><path d="M611.781,272.133l-3.626,9.82h1.63V284.4h-4.435v-1.857l5.059-13.684h2.736Z" transform="translate(-605.349 -268.858)" fill="#0045ab"/></g><path d="M613.866,268.861v-.009h-6.2v2.454h4.486l.346.825,3.715,9.82h-1.609V284.4h4.423v-1.859Z" transform="translate(-606.058 -268.852)"/></g><g transform="translate(619.781 268.853)"><path d="M630.165,280.97q.324-.544.555-.941l.533-.878q.241-.4.492-.795t.555-.868q.3-.471.743-1.118a6.226,6.226,0,0,0,1.213-3.117,3.745,3.745,0,0,0-.753-2.636,4.241,4.241,0,0,0-2.259-1.506,4.543,4.543,0,0,0-2.657.042,3.381,3.381,0,0,0-1.808,1.381,3.941,3.941,0,0,0-.639,2.2v1.151l2.426-1.151a1.194,1.194,0,0,1,.795-1.276,1.976,1.976,0,0,1,1.2,0,1.952,1.952,0,0,1,.993.628,1.329,1.329,0,0,1,.272.743,2.455,2.455,0,0,1-.094.805,3.823,3.823,0,0,1-.314.764,6.911,6.911,0,0,1-.387.638q-.439.649-.764,1.13t-.6.9q-.272.419-.512.825t-.533.889q-.377.628-.91,1.527t-1.37,2.245v1.875h8.116v-2.28h-5Q629.84,281.513,630.165,280.97Z" transform="translate(-626.138 -268.877)"/><path d="M647.522,275.591a5.44,5.44,0,0,0-1.872-1.163,7.239,7.239,0,0,0-2.6-.43l.251-2.907h4.476v-2.238h-6.506l-.627,7.426h2.844a5.209,5.209,0,0,1,.931.1,3.248,3.248,0,0,1,1.088.428,2.777,2.777,0,0,1,.909.931,2.979,2.979,0,0,1,.377,1.59,2.642,2.642,0,0,1-.534,1.631,2.85,2.85,0,0,1-1.38,1,3.327,3.327,0,0,1-1.893.042,4.534,4.534,0,0,1-2.071-1.254l-1.276,1.547a4.841,4.841,0,0,0,1.088,1.046,6.2,6.2,0,0,0,1.35.722,5.051,5.051,0,0,0,1.893.324,4.888,4.888,0,0,0,1.893-.378,5.181,5.181,0,0,0,2.751-2.662,4.861,4.861,0,0,0,.419-2.033,5.546,5.546,0,0,0-.376-2.033A4.776,4.776,0,0,0,647.522,275.591Z" transform="translate(-630.265 -268.853)"/><path d="M663.477,277.827a4.9,4.9,0,0,0-.91-1.569,4.418,4.418,0,0,0-1.485-1.109,4.685,4.685,0,0,0-2.019-.418l3.347-5.878h-2.656l-4.456,7.823a3.148,3.148,0,0,0-.314.753,6.532,6.532,0,0,0-.22.921,7.6,7.6,0,0,0-.094,1.276,5.08,5.08,0,0,0,.314,1.757,4.671,4.671,0,0,0,.9,1.516,4.536,4.536,0,0,0,1.422,1.067,4.235,4.235,0,0,0,1.882.408,4.449,4.449,0,0,0,1.872-.387,4.553,4.553,0,0,0,1.454-1.036,4.632,4.632,0,0,0,.941-1.516,4.99,4.99,0,0,0,.335-1.809A5.317,5.317,0,0,0,663.477,277.827Zm-2.176,2.709a2.32,2.32,0,0,1-.473.753,2.224,2.224,0,0,1-1.649.7,1.992,1.992,0,0,1-.862-.188,2.3,2.3,0,0,1-.7-.512,2.486,2.486,0,0,1-.484-.753,2.351,2.351,0,0,1-.178-.91,2.539,2.539,0,0,1,.178-.962,2.33,2.33,0,0,1,.484-.753,2.251,2.251,0,0,1,.7-.491,2.1,2.1,0,0,1,.862-.178,2.208,2.208,0,0,1,1.638.659,2.347,2.347,0,0,1,.651,1.726A2.465,2.465,0,0,1,661.3,280.536Z" transform="translate(-634.862 -268.853)"/></g></g></svg>