<svg xmlns="http://www.w3.org/2000/svg" viewBox="0 0 107.44 32.994"><defs><style>.a{fill:#222;}.b,.d,.e{fill:#003ced;}.c{fill:none;stroke:#000;stroke-miterlimit:10;}.d{opacity:0.7;}.e{opacity:0.4;}</style></defs><g transform="translate(0 0)"><g transform="translate(48.421 5.06)"><path class="a" d="M88.124,57.067V53.791a.814.814,0,0,0-1.051-1.051H85.281A2.458,2.458,0,0,1,82.5,49.96V45.881A2.458,2.458,0,0,1,85.281,43.1h2.41a2.458,2.458,0,0,1,2.781,2.781v1.73h-2.41v-1.36a1.6,1.6,0,0,0-.185-.927,1.467,1.467,0,0,0-.927-.185h-.989a1.467,1.467,0,0,0-.927.185,1.467,1.467,0,0,0-.185.927v3.337a1.368,1.368,0,0,0,.185.865,1.467,1.467,0,0,0,.927.185h1.792a2.458,2.458,0,0,1,2.781,2.781v3.955a2.458,2.458,0,0,1-2.781,2.781H85.4a2.458,2.458,0,0,1-2.781-2.781v-1.73h2.41v1.36a1.368,1.368,0,0,0,.185.865,1.467,1.467,0,0,0,.927.185h.927a1.368,1.368,0,0,0,.865-.185C88.062,57.808,88.124,57.5,88.124,57.067Z" transform="translate(-82.5 -36.549)"/><path class="a" d="M101.981,43h3.584a2.458,2.458,0,0,1,2.781,2.781V57.338a2.458,2.458,0,0,1-2.781,2.781h-3.584A2.458,2.458,0,0,1,99.2,57.338V45.781A2.458,2.458,0,0,1,101.981,43ZM106,56.967V46.152a1.368,1.368,0,0,0-.185-.865,1.368,1.368,0,0,0-.865-.185h-2.163a1.368,1.368,0,0,0-.865.185,1.368,1.368,0,0,0-.185.865V56.967a1.467,1.467,0,0,0,.185.927,1.368,1.368,0,0,0,.865.185h2.163a1.368,1.368,0,0,0,.865-.185A2.09,2.09,0,0,0,106,56.967Z" transform="translate(-88.879 -36.511)"/><path class="a" d="M120.779,43h3.584a2.458,2.458,0,0,1,2.781,2.781V57.338a2.458,2.458,0,0,1-2.781,2.781h-3.584A2.458,2.458,0,0,1,118,57.338V45.781Q117.906,43,120.779,43Zm3.955,13.967V46.152a1.368,1.368,0,0,0-.185-.865,1.368,1.368,0,0,0-.865-.185h-2.163a1.368,1.368,0,0,0-.865.185,1.368,1.368,0,0,0-.185.865V56.967a1.467,1.467,0,0,0,.185.927,1.368,1.368,0,0,0,.865.185h2.163a1.368,1.368,0,0,0,.865-.185A1.467,1.467,0,0,0,124.734,56.967Z" transform="translate(-96.059 -36.511)"/><path class="a" d="M141.311,38.989h1.421a2.458,2.458,0,0,1,2.781,2.781V56.108h-2.472V42.141a1.368,1.368,0,0,0-.185-.865,1.467,1.467,0,0,0-.927-.185h-1.421a1.279,1.279,0,0,0-.927.309,1.343,1.343,0,0,0-.309.989V56.169H136.8V32.5h2.472v7.663A1.923,1.923,0,0,1,141.311,38.989Z" transform="translate(-103.242 -32.5)"/><path class="a" d="M157.781,43h3.584a2.458,2.458,0,0,1,2.781,2.781V57.338a2.458,2.458,0,0,1-2.781,2.781h-3.584A2.458,2.458,0,0,1,155,57.338V45.781A2.458,2.458,0,0,1,157.781,43ZM161.8,56.967V46.152a1.368,1.368,0,0,0-.185-.865,1.368,1.368,0,0,0-.865-.185h-2.163a1.368,1.368,0,0,0-.865.185,1.368,1.368,0,0,0-.185.865V56.967a1.467,1.467,0,0,0,.185.927,1.368,1.368,0,0,0,.865.185h2.163a1.368,1.368,0,0,0,.865-.185A1.467,1.467,0,0,0,161.8,56.967Z" transform="translate(-110.195 -36.511)"/><path class="b" d="M173.3,68.355V64.4h2.9v3.955Z" transform="translate(-117.185 -44.686)"/></g><g transform="translate(0 0)"><path class="c" d="M65.2,77.7" transform="translate(-26.575 -44.707)"/><path class="d" d="M41.895,72.21l-2.41-2.41H10.5l2.472,2.41,2.41,2.472H44.3Z" transform="translate(-5.68 -41.689)"/><path class="c" d="M41.8,23" transform="translate(-17.636 -23)"/><path class="c" d="M49.6,23" transform="translate(-20.616 -23)"/><path class="b" d="M35.271,41.01l-2.41-2.41H18.4v4.82H37.682Z" transform="translate(-8.697 -29.229)"/><path class="d" d="M32.861,54.2H18.4l2.41,2.41,2.41,2.41H37.682V54.2Z" transform="translate(-8.697 -35.458)"/><path class="b" d="M14.813,56.61,12.4,54.2H2.7v4.82l2.41,2.41,2.41,2.41h9.7V59.02Z" transform="translate(-2.7 -35.73)"/><path class="b" d="M5.11,25.41,2.7,23V37.461l2.41,2.41,2.41-2.41V27.82Z" transform="translate(-2.7 -23)"/><path class="d" d="M34.095,25.41,31.684,23H2.7l2.41,2.41,2.41,2.41H36.5Z" transform="translate(-2.7 -23)"/><path class="e" d="M53.851,33.21l-2.41-2.41H41.8v4.82l2.41,2.41,2.41,2.41h9.641V35.62Z" transform="translate(-17.636 -25.98)"/><path class="e" d="M59.81,50.3,57.4,52.71v9.641l2.41,2.41,2.41,2.472V52.71Z" transform="translate(-23.595 -34.24)"/></g></g></svg>