<svg xmlns="http://www.w3.org/2000/svg" xmlns:xlink="http://www.w3.org/1999/xlink" viewBox="0 0 106.594 21.15"><defs><style>.a{fill:#153667;}.b{fill:url(#a);}</style><linearGradient id="a" x1="0.069" y1="0.25" x2="0.933" y2="0.751" gradientUnits="objectBoundingBox"><stop offset="0" stop-color="#00aed8"/><stop offset="0.014" stop-color="#00aed8"/><stop offset="0.377" stop-color="#00aed8"/><stop offset="0.915" stop-color="#0067b1"/><stop offset="1" stop-color="#005bab"/></linearGradient></defs><g transform="translate(0 0)"><g transform="translate(26.687 3.042)"><path class="a" d="M54.907,51.932l-5.129-4.573v4.573H47.8V37.1h1.978v8.343l4.7-4.264h2.781L51.508,46.37l6.18,5.562Z" transform="translate(-47.8 -37.038)"/><path class="a" d="M72.685,50.127H65.578v2.348h7.107v1.978H65.578a1.645,1.645,0,0,1-.742-.185,2.17,2.17,0,0,1-1.051-1.051,1.711,1.711,0,0,1-.185-.8V45.739a1.9,1.9,0,0,1,.185-.8,2.17,2.17,0,0,1,1.051-1.051,1.646,1.646,0,0,1,.742-.185h5.129a1.9,1.9,0,0,1,.8.185,2.17,2.17,0,0,1,1.051,1.051,1.711,1.711,0,0,1,.185.8v4.388Zm-7.107-4.388v2.41h5.129v-2.41Z" transform="translate(-53.836 -39.559)"/><path class="a" d="M96.9,37.1h2.163v2.039H96.9ZM99,41.179V51.932H97.024V41.179Z" transform="translate(-66.556 -37.038)"/><path class="a" d="M112.717,54.453H110.74V45.739h-5.562v8.776H103.2V43.7h1.978v1.916a1.645,1.645,0,0,1,.185-.742,2.17,2.17,0,0,1,1.051-1.051,1.568,1.568,0,0,1,.742-.124h3.523a1.9,1.9,0,0,1,.8.185,2.17,2.17,0,0,1,1.051,1.051,1.711,1.711,0,0,1,.185.8Z" transform="translate(-68.963 -39.559)"/><path class="a" d="M127.836,52.476V50h-4.7a1.9,1.9,0,0,1-.8-.185,2.17,2.17,0,0,1-1.051-1.051,1.711,1.711,0,0,1-.185-.8V45.739a1.9,1.9,0,0,1,.185-.8,2.17,2.17,0,0,1,1.051-1.051,1.711,1.711,0,0,1,.8-.185h6.3v2.039h-6.3v2.287h4.7a1.468,1.468,0,0,1,.742.185,2.17,2.17,0,0,1,1.051,1.051,1.711,1.711,0,0,1,.185.8v2.472a1.9,1.9,0,0,1-.185.8,2.17,2.17,0,0,1-1.051,1.051,1.645,1.645,0,0,1-.742.185h-6.674V52.6h6.674Z" transform="translate(-75.8 -39.559)"/><path class="a" d="M137.7,37.1h2.163v2.039H137.7Zm2.1,4.079V51.932h-1.978V41.179Z" transform="translate(-82.142 -37.038)"/><path class="a" d="M144.1,43.18a1.9,1.9,0,0,1,.185-.8,2.17,2.17,0,0,1,1.051-1.051,1.646,1.646,0,0,1,.742-.185h5.562V37h1.978V51.894H151.64V50.1a1.246,1.246,0,0,1-.185.68,1.346,1.346,0,0,1-.433.556,1.282,1.282,0,0,1-.618.371,1.568,1.568,0,0,1-.742.124h-3.584a1.646,1.646,0,0,1-.742-.185,2.17,2.17,0,0,1-1.051-1.051,1.711,1.711,0,0,1-.185-.8Zm1.978,6.736h5.562V43.18h-5.562Z" transform="translate(-84.586 -37)"/><path class="a" d="M171.385,50.127h-7.107v2.348h7.107v1.978h-7.107a1.646,1.646,0,0,1-.742-.185,2.17,2.17,0,0,1-1.051-1.051,1.711,1.711,0,0,1-.185-.8V45.739a1.9,1.9,0,0,1,.185-.8,2.17,2.17,0,0,1,1.051-1.051,1.646,1.646,0,0,1,.742-.185h5.129a1.9,1.9,0,0,1,.8.185,2.17,2.17,0,0,1,1.051,1.051,1.711,1.711,0,0,1,.185.8v4.388Zm-7.107-4.388v2.41h5.129v-2.41Z" transform="translate(-91.539 -39.559)"/><path class="a" d="M82.414,55.813h1.978L89.644,43.7h-2.1l-3.152,7.416L81.239,43.7H79.2l4.2,9.826Z" transform="translate(-59.795 -39.559)"/></g><path class="b" d="M13.239,31a10.592,10.592,0,0,0-1.112,21.15V46.218A4.734,4.734,0,0,1,8.356,41.6a4.819,4.819,0,0,1,4.882-4.733,4.723,4.723,0,0,1,1.112,9.347V52.15A10.592,10.592,0,0,0,13.239,31Z" transform="translate(-2.3 -31)"/></g></svg>