<svg xmlns="http://www.w3.org/2000/svg" viewBox="0 0 72.755 27.917"><defs><style>.a{fill:#323132;}</style></defs><g transform="translate(0)"><g transform="translate(0 0)"><path class="a" d="M14.206,64.918H9.437V51.288H5.769v13.63H1V41.663C1,38.913,3.629,37,7.6,37c4.585,0,6.6,2.391,6.6,4.663ZM9.376,48V41.663c0-.6-.55-1.255-1.773-1.255-1.1,0-1.773.538-1.773,1.255V47.94H9.376Zm9.171,16.918V37h4.769V64.918Zm9.171,0V37h4.769V64.918Zm13.94-24.689v7.831h3.607V40.228Zm0,11.059v10.4h3.607v-10.4Zm7.765-1.614c.428.179.673.6.673,1.315V61.331c0,2.63-1.406,3.587-5.2,3.587H36.888V37H44.9c3.791,0,5.136.956,5.136,3.587v7.831A1.112,1.112,0,0,1,49.422,49.674Zm5.013,15.244V37H59.2V64.918ZM70.27,40.228V64.918H65.5V40.228H61.955V37h11.8v3.228Z" transform="translate(-1 -37)"/></g></g></svg>