<svg xmlns="http://www.w3.org/2000/svg" viewBox="0 0 78.677 18.612"><defs><style>.a{fill:#2d2b6d;}</style></defs><g transform="translate(0)"><g transform="translate(0 0)"><path class="a" d="M46.611,37.209c-.676-.473-2.09-.709-4.18-.709h-.123L41.14,39.1a2.75,2.75,0,0,0-1.352-2.186,6.812,6.812,0,0,0-2.7-.414H35.977L34.5,39.1V36.5H29.4V55.112h5.1V40.4h1.475V55.112h5.1V40.4h1.537V55.112h5.1v-14C47.84,39.1,47.41,37.859,46.611,37.209Zm14.26,1.536a2.931,2.931,0,0,0-2.09-2.009,8.894,8.894,0,0,0-2.52-.236H53.925a7.283,7.283,0,0,0-2.274.236,2.67,2.67,0,0,0-1.783,1.713,9.276,9.276,0,0,0-.369,3.072v13.59h5.04V51.389h1.537v3.722h5.1V41.818h0A9.642,9.642,0,0,0,60.871,38.745ZM56.076,47.49H54.6V40.4h1.475ZM69.66,51.271h-1.6V40.341H74.27V36.5H67.509a9.469,9.469,0,0,0-2.213.177,2.8,2.8,0,0,0-2.028,1.713,7.648,7.648,0,0,0-.369,2.718v9.631a9.094,9.094,0,0,0,.184,2.127c.43,1.536,1.844,2.245,4.241,2.245h7.13V43.886H69.66ZM86.133,36.736A7.734,7.734,0,0,0,83.8,36.5H82.691l-1.475,2.6V36.5h-5.1V55.112h5.1V40.4h1.475V55.112h5.1V40.4a7.158,7.158,0,0,0-.184-1.95A2.249,2.249,0,0,0,86.133,36.736Zm3.381,18.375h5.1V36.5h-5.1Zm17.395-10.458a5.335,5.335,0,0,0-3.381-.827h-2.09V40.459h6.085V36.618h-6.946c-2.827,0-4.241,1.3-4.241,3.841v3.072c0,2.659,1.414,4.018,4.241,4.018h2.4v3.722H96.583v3.841h7.069c2.274,0,3.688-.768,4.18-2.245a6.379,6.379,0,0,0,.246-2.068V47.844C108.077,46.308,107.708,45.245,106.909,44.654Z" transform="translate(-29.4 -36.5)"/></g></g></svg>