<svg xmlns="http://www.w3.org/2000/svg" viewBox="0 0 108.286 21.996"><defs><style>.a{fill:#040000;}.b{fill:#fff;}</style></defs><g transform="translate(0)"><g transform="translate(29.306 4.447)"><path class="a" d="M51.3,40.5h5.995c2.225,0,4.079.989,4.079,3.152a2.929,2.929,0,0,1-2.41,3.152v.062c1.112.309,1.174,1.236,1.792,2.781l1.236,3.461H58.469l-.742-2.287c-.68-2.163-1.112-2.719-2.348-2.719H54.7v5.006H51.362V40.5Zm3.4,5.253h.865c1.112,0,2.472-.062,2.472-1.483,0-1.174-1.174-1.421-2.472-1.421H54.7Z" transform="translate(-51.3 -40.253)"/><path class="a" d="M69.4,50.244c0-3.152,2.348-4.944,5.5-4.944,3.09,0,5.5,1.792,5.5,4.944,0,3.09-2.348,4.944-5.5,4.944C71.81,55.188,69.4,53.334,69.4,50.244Zm7.6,0c0-1.421-.618-2.657-2.1-2.657s-2.1,1.236-2.1,2.657.618,2.657,2.1,2.657S77,51.665,77,50.244Z" transform="translate(-58.214 -42.086)"/><path class="a" d="M88.7,50.244c0-3.152,2.348-4.944,5.5-4.944,3.09,0,5.5,1.792,5.5,4.944,0,3.09-2.348,4.944-5.5,4.944S88.7,53.334,88.7,50.244Zm7.6,0c0-1.421-.618-2.657-2.1-2.657s-2.1,1.236-2.1,2.657.618,2.657,2.1,2.657S96.3,51.665,96.3,50.244Z" transform="translate(-65.587 -42.086)"/><path class="a" d="M106.9,43.79h1.916v-2.1l3.214-.989v3.09h2.287v2.287h-2.287v3.461c0,1.112.247,1.73,1.3,1.73a5.409,5.409,0,0,0,.989-.124l.124,2.1a17.784,17.784,0,0,1-2.039.185c-2.9,0-3.584-1.3-3.584-3.523V46.077h-1.854V43.79Z" transform="translate(-72.539 -40.329)"/><path class="a" d="M128.6,40.1c4.141,0,6.3,2.472,6.3,6.551,0,4.017-2.225,6.551-6.3,6.551-4.141,0-6.3-2.534-6.3-6.551C122.237,42.572,124.4,40.1,128.6,40.1Zm0,10.568c2.039,0,2.843-1.978,2.843-4.017,0-2.163-.8-4.017-2.843-4.017s-2.843,1.854-2.843,4.017C125.7,48.752,126.563,50.668,128.6,50.668Z" transform="translate(-78.421 -40.1)"/><path class="a" d="M144.9,45.547h2.966v1.73h.062a3.65,3.65,0,0,1,3.461-1.978c2.6,0,3.584,1.792,3.584,3.77v5.871H151.7V50.368c0-1.792-.618-2.348-1.483-2.348-1.36,0-2.039.927-2.039,2.966v3.955H144.9V45.547Z" transform="translate(-87.055 -42.086)"/><path class="a" d="M166.475,51.133c.185,1.3,1.174,1.792,2.781,1.792a5.965,5.965,0,0,0,2.9-.742V54.47a9.068,9.068,0,0,1-3.461.618c-3.09,0-5.5-1.854-5.5-4.944a4.7,4.7,0,0,1,5.068-4.944c3.461,0,4.759,2.472,4.759,5.253v.618h-6.551Zm3.584-1.854c0-1.112-.494-1.978-1.792-1.978-1.174,0-1.73.865-1.792,1.978Z" transform="translate(-94.046 -42.048)"/></g><g transform="translate(0 0)"><rect class="a" width="23.113" height="21.996"/><path class="b" d="M14.495,41.9l-2.781,7.91L9.983,48.2,8.5,49.749l4.141,3.893,3.4-9.579h5.995V41.9Z" transform="translate(-4.174 -36.383)"/></g></g></svg>