<svg xmlns="http://www.w3.org/2000/svg" width="686.748" height="227.18" viewBox="0 0 686.748 227.18"><g transform="translate(-708 -285.3)" opacity="0.7"><rect width="4.718" height="4.718" transform="translate(926.489 375.788)" fill="#4586ff"/><rect width="14.154" height="4.718" transform="translate(926.489 446.557)" fill="#4586ff"/><rect width="33.026" height="4.718" transform="translate(926.489 437.122)" fill="#4586ff"/><rect width="28.308" height="4.718" transform="translate(926.489 427.686)" fill="#4586ff"/><rect width="28.308" height="4.718" transform="translate(940.643 446.557)" fill="#4586ff"/><rect width="9.436" height="4.718" transform="translate(959.515 437.122)" fill="#4586ff"/><rect width="14.154" height="4.718" transform="translate(954.797 427.686)" fill="#4586ff"/><rect width="14.154" height="4.718" transform="translate(954.797 455.993)" fill="#4586ff"/><rect width="28.308" height="4.718" transform="translate(926.489 455.993)" fill="#4586ff"/><path d="M240.433,232.551l-4.718.885L231,228.718l-4.718,9.436-4.718-1.179-9.436,5.9v9.436h42.462V224l-9.436,11.795Z" transform="translate(714.511 170.66)" fill="#4586ff"/><path d="M212.125,216v28.308l9.436-5.9,4.718,1.179L231,230.154l4.718,4.718,4.718-.885,4.718,3.244,9.436-11.795V216Z" transform="translate(714.511 169.224)" fill="#4586ff"/><circle cx="2.359" cy="2.359" r="2.359" transform="translate(992.54 470.147)" fill="#4586ff"/><g transform="translate(0 -24)"><rect width="4.718" height="4.718" transform="translate(1360.543 420.839)" fill="#4586ff"/><path d="M608.308,285.691l-4.718-14.154-4.718,14.154-4.718-9.436-4.718,9.436-4.718-4.718L580,285.691Z" transform="translate(780.543 158.192)" fill="#4586ff"/><path d="M609.205,309.257H580.9a5.9,5.9,0,0,1-5.9-5.9V260.9a5.9,5.9,0,0,1,5.9-5.9h28.308a5.9,5.9,0,0,1,5.9,5.9v42.462A5.9,5.9,0,0,1,609.205,309.257Zm-28.308-51.9a3.543,3.543,0,0,0-3.539,3.539v42.462A3.543,3.543,0,0,0,580.9,306.9h28.308a3.543,3.543,0,0,0,3.539-3.538V260.9a3.543,3.543,0,0,0-3.539-3.539Z" transform="translate(779.645 155.224)" fill="#fff"/><path d="M613.923,261.359H576.18a1.18,1.18,0,1,1,0-2.359h37.744a1.18,1.18,0,1,1,0,2.359Z" transform="translate(779.645 155.942)" fill="#fff"/><path d="M613.923,297.359H576.18a1.179,1.179,0,1,1,0-2.359h37.744a1.179,1.179,0,1,1,0,2.359Z" transform="translate(779.645 162.404)" fill="#fff"/><path d="M608.487,289.359H580.18a1.18,1.18,0,0,1,0-2.359h28.308a1.18,1.18,0,0,1,0,2.359Z" transform="translate(780.363 160.968)" fill="#fff"/><path d="M608.487,287.051a1.178,1.178,0,0,1-1.118-.807l-3.6-10.8-3.6,10.8A1.179,1.179,0,0,1,598,286.4l-3.662-7.326L590.67,286.4a1.179,1.179,0,0,1-1.888.307L584.9,282.82l-3.884,3.884a1.179,1.179,0,0,1-1.668-1.668l4.718-4.718a1.18,1.18,0,0,1,1.668,0l3.561,3.561,3.986-7.972a1.228,1.228,0,0,1,2.11,0l3.444,6.889,3.819-11.453a1.178,1.178,0,0,1,2.236,0l4.718,14.154a1.181,1.181,0,0,1-1.118,1.553Z" transform="translate(780.363 158.013)" fill="#fff"/><path d="M584.9,270.077H580.18A1.179,1.179,0,0,1,579,268.9V264.18A1.179,1.179,0,0,1,580.18,263H584.9a1.179,1.179,0,0,1,1.18,1.179V268.9A1.179,1.179,0,0,1,584.9,270.077Zm-3.539-2.359h2.359v-2.359h-2.359Z" transform="translate(780.363 156.66)" fill="#fff"/><path d="M607.051,265.359H588.18a1.179,1.179,0,1,1,0-2.359h18.872a1.179,1.179,0,0,1,0,2.359Z" transform="translate(781.799 156.66)" fill="#fff"/><path d="M597.615,269.359H588.18a1.18,1.18,0,1,1,0-2.359h9.436a1.18,1.18,0,1,1,0,2.359Z" transform="translate(781.799 157.378)" fill="#fff"/><path d="M584.9,293.359H580.18a1.179,1.179,0,1,1,0-2.359H584.9a1.179,1.179,0,1,1,0,2.359Z" transform="translate(780.363 161.686)" fill="#fff"/><path d="M592.9,293.359H588.18a1.179,1.179,0,1,1,0-2.359H592.9a1.179,1.179,0,1,1,0,2.359Z" transform="translate(781.799 161.686)" fill="#fff"/><path d="M604.9,293.359H600.18a1.179,1.179,0,1,1,0-2.359H604.9a1.179,1.179,0,0,1,0,2.359Z" transform="translate(783.953 161.686)" fill="#fff"/><path d="M608.487,284.9H580.18a1.18,1.18,0,0,1,0-2.359h28.308a1.18,1.18,0,0,1,0,2.359Z" transform="translate(780.363 160.167)" fill="#fff"/></g><g transform="translate(-14 143)"><path d="M365.615,314.18a5.686,5.686,0,0,1-5.9-5.9V180.9a3.543,3.543,0,0,0-3.538-3.538,1.179,1.179,0,1,1,0-2.359h61.334a5.9,5.9,0,0,1,5.9,5.9v18.872a1.18,1.18,0,1,1-2.359,0V180.9a3.543,3.543,0,0,0-3.539-3.538H360.9a5.868,5.868,0,0,1,1.182,3.538V308.283a3.364,3.364,0,0,0,3.539,3.538,1.18,1.18,0,1,1,0,2.359Z" transform="translate(740.156 -9.136)" fill="#fff"/><path d="M425.513,310.591H364.18a1.18,1.18,0,0,1,0-2.359,3.543,3.543,0,0,0,3.538-3.539V196.18A1.179,1.179,0,0,1,368.9,195h61.334a1.179,1.179,0,0,1,1.18,1.179V304.693A5.9,5.9,0,0,1,425.513,310.591ZM368.9,308.232h56.618a3.543,3.543,0,0,0,3.538-3.539V197.359H370.077V304.693A5.869,5.869,0,0,1,368.9,308.232Z" transform="translate(741.592 -5.546)" fill="#fff"/><path d="M352,228" transform="translate(739.618 0.378)" fill="#fff"/><path d="M336.181,233.666a1.178,1.178,0,0,1-1.18-1.18V204.179a1.18,1.18,0,1,1,2.359,0v28.307A1.178,1.178,0,0,1,336.181,233.666Z" transform="translate(736.567 -4.11)" fill="#fff"/><path d="M355.051,205.359H336.181a1.18,1.18,0,1,1,0-2.359h18.871a1.18,1.18,0,0,1,0,2.359Z" transform="translate(736.567 -4.11)" fill="#fff"/><path d="M352.179,182.077A1.179,1.179,0,0,1,351,180.9a5.9,5.9,0,0,1,5.9-5.9,1.179,1.179,0,1,1,0,2.359,3.543,3.543,0,0,0-3.539,3.538A1.179,1.179,0,0,1,352.179,182.077Z" transform="translate(739.439 -9.136)" fill="#fff"/><path d="M352.179,237.975A1.179,1.179,0,0,1,351,236.8V180.18a1.18,1.18,0,0,1,2.359,0V236.8A1.179,1.179,0,0,1,352.179,237.975Z" transform="translate(739.439 -8.418)" fill="#fff"/><path d="M344.18,238.795a1.18,1.18,0,1,1,0-2.359,8.266,8.266,0,0,0,8.256-8.256,1.18,1.18,0,0,1,2.359,0A10.628,10.628,0,0,1,344.18,238.795Z" transform="translate(738.003 0.198)" fill="#fff"/><path d="M345.618,238.8A10.629,10.629,0,0,1,335,228.178a1.18,1.18,0,0,1,2.359,0,8.268,8.268,0,0,0,8.258,8.258,1.18,1.18,0,0,1,0,2.359Z" transform="translate(736.567 0.198)" fill="#fff"/><path d="M363.051,237.359h-18.87a1.179,1.179,0,1,1,0-2.359h18.87a1.179,1.179,0,1,1,0,2.359Z" transform="translate(738.003 1.634)" fill="#fff"/><rect width="9.436" height="9.436" transform="translate(1152.952 270.839)" fill="#4586ff"/><rect width="9.436" height="9.436" transform="translate(1119.926 200.07)" fill="#4586ff"/><rect width="9.436" height="9.436" transform="translate(1119.926 214.224)" fill="#4586ff"/><rect width="4.718" height="4.718" transform="translate(1152.952 237.814)" fill="#4586ff"/><rect width="4.718" height="4.718" transform="translate(1143.516 247.25)" fill="#4586ff"/><rect width="4.718" height="4.718" transform="translate(1134.08 242.532)" fill="#4586ff"/><rect width="4.718" height="4.718" transform="translate(1124.644 242.532)" fill="#4586ff"/><path d="M413.615,274.795H404.18a1.179,1.179,0,0,1-1.179-1.18V264.18A1.179,1.179,0,0,1,404.18,263h9.436a1.179,1.179,0,0,1,1.179,1.179v9.436A1.179,1.179,0,0,1,413.615,274.795Zm-8.256-2.359h7.077v-7.077h-7.077Z" transform="translate(748.772 6.66)" fill="#fff"/><path d="M404.487,265.359H376.18a1.179,1.179,0,1,1,0-2.359h28.308a1.179,1.179,0,0,1,0,2.359Z" transform="translate(743.746 6.66)" fill="#fff"/><path d="M401.616,269.359H392.18a1.18,1.18,0,0,1,0-2.359h9.436a1.18,1.18,0,1,1,0,2.359Z" transform="translate(746.618 7.378)" fill="#fff"/><path d="M390.4,269.359H380.18a1.18,1.18,0,0,1,0-2.359H390.4a1.18,1.18,0,0,1,0,2.359Z" transform="translate(744.464 7.378)" fill="#fff"/><path d="M404.487,273.359H376.18a1.18,1.18,0,0,1,0-2.359h28.308a1.18,1.18,0,0,1,0,2.359Z" transform="translate(743.746 8.096)" fill="#fff"/><path d="M385.615,214.795H376.18a1.179,1.179,0,0,1-1.18-1.18v-9.436a1.179,1.179,0,0,1,1.18-1.18h9.436a1.179,1.179,0,0,1,1.18,1.18v9.436A1.179,1.179,0,0,1,385.615,214.795Zm-8.256-2.359h7.077v-7.077h-7.077Z" transform="translate(743.746 -4.11)" fill="#fff"/><path d="M416.487,205.359H388.18a1.18,1.18,0,1,1,0-2.359h28.308a1.18,1.18,0,1,1,0,2.359Z" transform="translate(745.9 -4.11)" fill="#fff"/><path d="M397.615,209.359H388.18a1.179,1.179,0,1,1,0-2.359h9.436a1.179,1.179,0,1,1,0,2.359Z" transform="translate(745.9 -3.392)" fill="#fff"/><path d="M409.735,209.359H399.513a1.179,1.179,0,1,1,0-2.359h10.221a1.179,1.179,0,1,1,0,2.359Z" transform="translate(747.935 -3.392)" fill="#fff"/><path d="M416.487,213.359H388.18a1.18,1.18,0,0,1,0-2.359h28.308a1.18,1.18,0,0,1,0,2.359Z" transform="translate(745.9 -2.674)" fill="#fff"/><path d="M385.615,226.795H376.18a1.179,1.179,0,0,1-1.18-1.18V216.18a1.179,1.179,0,0,1,1.18-1.18h9.436a1.179,1.179,0,0,1,1.18,1.18v9.436A1.179,1.179,0,0,1,385.615,226.795Zm-8.256-2.359h7.077v-7.077h-7.077Z" transform="translate(743.746 -1.956)" fill="#fff"/><path d="M416.487,217.359H388.18a1.18,1.18,0,1,1,0-2.359h28.308a1.18,1.18,0,1,1,0,2.359Z" transform="translate(745.9 -1.956)" fill="#fff"/><path d="M397.615,221.359H388.18a1.18,1.18,0,0,1,0-2.359h9.436a1.18,1.18,0,0,1,0,2.359Z" transform="translate(745.9 -1.238)" fill="#fff"/><path d="M409.735,221.359H399.513a1.18,1.18,0,1,1,0-2.359h10.221a1.18,1.18,0,1,1,0,2.359Z" transform="translate(747.935 -1.238)" fill="#fff"/><path d="M416.487,225.359H388.18a1.179,1.179,0,1,1,0-2.359h28.308a1.179,1.179,0,1,1,0,2.359Z" transform="translate(745.9 -0.52)" fill="#fff"/><path d="M418.641,261.667H376.18a1.179,1.179,0,0,1-1.18-1.179V232.18a1.179,1.179,0,0,1,1.18-1.18h42.462a1.179,1.179,0,0,1,1.179,1.18v28.308A1.179,1.179,0,0,1,418.641,261.667Zm-41.282-2.359h40.1V233.359h-40.1Z" transform="translate(743.746 0.916)" fill="#fff"/><path d="M408.9,242.077H404.18A1.179,1.179,0,0,1,403,240.9v-4.718A1.179,1.179,0,0,1,404.18,235H408.9a1.179,1.179,0,0,1,1.18,1.179V240.9A1.179,1.179,0,0,1,408.9,242.077Zm-3.539-2.359h2.359v-2.359h-2.359Z" transform="translate(748.772 1.634)" fill="#fff"/><path d="M400.9,250.077H396.18A1.179,1.179,0,0,1,395,248.9v-4.718A1.179,1.179,0,0,1,396.18,243H400.9a1.179,1.179,0,0,1,1.18,1.179V248.9A1.179,1.179,0,0,1,400.9,250.077Zm-3.538-2.359h2.359v-2.359h-2.359Z" transform="translate(747.336 3.07)" fill="#fff"/><path d="M392.9,246.077H388.18A1.179,1.179,0,0,1,387,244.9V240.18a1.179,1.179,0,0,1,1.18-1.18H392.9a1.179,1.179,0,0,1,1.18,1.18V244.9A1.179,1.179,0,0,1,392.9,246.077Zm-3.538-2.359h2.359v-2.359h-2.359Z" transform="translate(745.9 2.352)" fill="#fff"/><path d="M384.9,246.077H380.18A1.179,1.179,0,0,1,379,244.9V240.18a1.179,1.179,0,0,1,1.18-1.18H384.9a1.179,1.179,0,0,1,1.18,1.18V244.9A1.179,1.179,0,0,1,384.9,246.077Zm-3.538-2.359h2.359v-2.359h-2.359Z" transform="translate(744.464 2.352)" fill="#fff"/><path d="M382.18,254.795a1.179,1.179,0,0,1-1.18-1.179v-9.436a1.179,1.179,0,0,1,2.359,0v9.436A1.179,1.179,0,0,1,382.18,254.795Z" transform="translate(744.823 3.07)" fill="#fff"/><path d="M382.18,242.077A1.179,1.179,0,0,1,381,240.9v-4.718a1.179,1.179,0,0,1,2.359,0V240.9A1.179,1.179,0,0,1,382.18,242.077Z" transform="translate(744.823 1.634)" fill="#fff"/><path d="M390.18,254.795a1.179,1.179,0,0,1-1.18-1.179v-9.436a1.18,1.18,0,0,1,2.359,0v9.436A1.179,1.179,0,0,1,390.18,254.795Z" transform="translate(746.259 3.07)" fill="#fff"/><path d="M390.18,242.077A1.179,1.179,0,0,1,389,240.9v-4.718a1.18,1.18,0,0,1,2.359,0V240.9A1.179,1.179,0,0,1,390.18,242.077Z" transform="translate(746.259 1.634)" fill="#fff"/><path d="M398.18,246.795A1.179,1.179,0,0,1,397,245.615v-9.436a1.179,1.179,0,1,1,2.359,0v9.436A1.179,1.179,0,0,1,398.18,246.795Z" transform="translate(747.695 1.634)" fill="#fff"/><path d="M398.18,254.077A1.179,1.179,0,0,1,397,252.9V248.18a1.179,1.179,0,1,1,2.359,0V252.9A1.179,1.179,0,0,1,398.18,254.077Z" transform="translate(747.695 3.788)" fill="#fff"/><path d="M406.179,255.48A1.179,1.179,0,0,1,405,254.3V240.36a1.18,1.18,0,1,1,2.359,0V254.3A1.179,1.179,0,0,1,406.179,255.48Z" transform="translate(749.131 2.385)" fill="#fff"/><path d="M418.643,229.359H376.18a1.179,1.179,0,1,1,0-2.359h42.463a1.179,1.179,0,1,1,0,2.359Z" transform="translate(743.746 0.198)" fill="#fff"/><path d="M418.643,261.359H376.18a1.18,1.18,0,0,1,0-2.359h42.463a1.18,1.18,0,0,1,0,2.359Z" transform="translate(743.746 5.942)" fill="#fff"/></g><rect width="4.718" height="56.616" transform="translate(1124.644 435.489)" fill="#4586ff"/><g transform="translate(0 27)"><rect width="80.206" height="56.616" transform="translate(1058.592 406.489)" fill="#4586ff"/><rect width="4.718" height="56.616" transform="translate(1068.028 406.489)" fill="#4586ff"/><path d="M404.385,309.975H324.179A1.179,1.179,0,0,1,323,308.8V252.179a1.179,1.179,0,0,1,1.18-1.179h80.206a1.179,1.179,0,0,1,1.18,1.179V308.8A1.179,1.179,0,0,1,404.385,309.975Zm-79.026-2.359h77.847V253.359H325.359Z" transform="translate(734.413 154.506)" fill="#fff"/><path d="M367.051,254.795H348.179a1.179,1.179,0,0,1-1.18-1.179v-9.436a1.179,1.179,0,0,1,1.18-1.179h18.872a1.179,1.179,0,0,1,1.179,1.179v9.436A1.179,1.179,0,0,1,367.051,254.795Zm-17.693-2.359h16.513v-7.077H349.359Z" transform="translate(738.721 153.07)" fill="#fff"/><path d="M384.18,309.975A1.179,1.179,0,0,1,383,308.8V252.179a1.179,1.179,0,0,1,2.359,0V308.8A1.179,1.179,0,0,1,384.18,309.975Z" transform="translate(745.182 154.506)" fill="#fff"/><path d="M380.18,309.975A1.179,1.179,0,0,1,379,308.8V252.179a1.18,1.18,0,0,1,2.359,0V308.8A1.179,1.179,0,0,1,380.18,309.975Z" transform="translate(744.464 154.506)" fill="#fff"/><path d="M336.18,309.975A1.179,1.179,0,0,1,335,308.8V252.179a1.18,1.18,0,0,1,2.359,0V308.8A1.179,1.179,0,0,1,336.18,309.975Z" transform="translate(736.566 154.506)" fill="#fff"/><path d="M332.18,309.975A1.179,1.179,0,0,1,331,308.8V252.179a1.18,1.18,0,0,1,2.359,0V308.8A1.179,1.179,0,0,1,332.18,309.975Z" transform="translate(735.849 154.506)" fill="#fff"/></g><rect width="4.718" height="4.718" transform="translate(997.258 455.993)" fill="#4586ff"/><rect width="4.718" height="9.436" transform="translate(1001.976 451.275)" fill="#4586ff"/><rect width="4.718" height="14.154" transform="translate(1006.694 446.557)" fill="#4586ff"/><rect width="4.718" height="9.829" transform="translate(1011.412 450.882)" fill="#4586ff"/><rect width="4.718" height="9.436" transform="translate(1020.848 460.711)" fill="#4586ff"/><rect width="4.718" height="14.154" transform="translate(1025.566 460.711)" fill="#4586ff"/><rect width="4.718" height="9.436" transform="translate(1030.284 460.711)" fill="#4586ff"/><rect width="4.718" height="4.718" transform="translate(1035.002 460.711)" fill="#4586ff"/><rect width="4.718" height="9.436" transform="translate(1016.13 455.993)" fill="#4586ff"/><path d="M326.052,302.462V264.718H264.718v37.744H260V264.718S260,260,264.718,260h61.334s4.718,0,4.718,4.718v37.744Z" transform="translate(723.104 177.122)" fill="#4586ff"/><path d="M341.642,296a4.715,4.715,0,0,1-4.718,4.718H256.718A4.715,4.715,0,0,1,252,296Z" transform="translate(721.668 183.583)" fill="#4586ff"/><path d="M337.1,302.077H256.9a5.9,5.9,0,0,1-5.9-5.9A1.18,1.18,0,0,1,252.179,295h89.642a1.179,1.179,0,0,1,1.18,1.179A5.9,5.9,0,0,1,337.1,302.077Zm-83.542-4.718a3.545,3.545,0,0,0,3.337,2.359H337.1a3.545,3.545,0,0,0,3.337-2.359Z" transform="translate(721.489 183.404)" fill="#fff"/><path d="M330.949,303.821a1.18,1.18,0,0,1-1.18-1.18V264.9a3.365,3.365,0,0,0-3.544-3.539H264.9a3.365,3.365,0,0,0-3.539,3.544v36.558h2.359V264.9a1.18,1.18,0,0,1,1.18-1.18h61.334a1.18,1.18,0,0,1,1.18,1.18v37.744a1.18,1.18,0,0,1-2.359,0V266.077H266.077v36.564a1.18,1.18,0,0,1-1.179,1.18H260.18a1.18,1.18,0,0,1-1.18-1.18V264.9a5.686,5.686,0,0,1,5.9-5.9h61.334a5.686,5.686,0,0,1,5.9,5.9v37.744A1.18,1.18,0,0,1,330.949,303.821Z" transform="translate(722.925 176.942)" fill="#fff"/><path d="M276.9,282.077h-4.718A1.18,1.18,0,0,1,271,280.9v-4.718a1.18,1.18,0,0,1,1.18-1.18H276.9a1.18,1.18,0,0,1,1.179,1.18V280.9A1.18,1.18,0,0,1,276.9,282.077Zm-3.538-2.359h2.359v-2.359h-2.359Z" transform="translate(725.079 179.814)" fill="#fff"/><path d="M280.9,282.795h-4.718a1.18,1.18,0,0,1-1.18-1.18v-9.436a1.18,1.18,0,0,1,1.18-1.18H280.9a1.18,1.18,0,0,1,1.18,1.18v9.436A1.18,1.18,0,0,1,280.9,282.795Zm-3.538-2.359h2.359v-7.077h-2.359Z" transform="translate(725.797 179.096)" fill="#fff"/><path d="M284.9,283.513H280.18a1.18,1.18,0,0,1-1.18-1.18V268.18a1.18,1.18,0,0,1,1.18-1.18H284.9a1.18,1.18,0,0,1,1.179,1.18v14.154A1.18,1.18,0,0,1,284.9,283.513Zm-3.539-2.359h2.359V269.359h-2.359Z" transform="translate(726.515 178.378)" fill="#fff"/><path d="M288.9,282.855H284.18a1.18,1.18,0,0,1-1.18-1.18v-9.829a1.179,1.179,0,0,1,1.18-1.18H288.9a1.179,1.179,0,0,1,1.179,1.18v9.829A1.18,1.18,0,0,1,288.9,282.855Zm-3.539-2.359h2.359v-7.47h-2.359Z" transform="translate(727.233 179.036)" fill="#fff"/><path d="M296.9,290.795H292.18a1.18,1.18,0,0,1-1.179-1.18V280.18A1.18,1.18,0,0,1,292.18,279H296.9a1.18,1.18,0,0,1,1.18,1.18v9.436A1.18,1.18,0,0,1,296.9,290.795Zm-3.538-2.359h2.359v-7.077h-2.359Z" transform="translate(728.669 180.532)" fill="#fff"/><path d="M300.9,295.513h-4.718a1.18,1.18,0,0,1-1.179-1.18V280.18a1.18,1.18,0,0,1,1.179-1.18H300.9a1.18,1.18,0,0,1,1.18,1.18v14.154A1.18,1.18,0,0,1,300.9,295.513Zm-3.539-2.359h2.359V281.359h-2.359Z" transform="translate(729.387 180.532)" fill="#fff"/><path d="M304.9,290.795H300.18a1.18,1.18,0,0,1-1.18-1.18V280.18a1.18,1.18,0,0,1,1.18-1.18H304.9a1.18,1.18,0,0,1,1.18,1.18v9.436A1.18,1.18,0,0,1,304.9,290.795Zm-3.538-2.359h2.359v-7.077h-2.359Z" transform="translate(730.105 180.532)" fill="#fff"/><path d="M308.9,286.077h-4.718A1.18,1.18,0,0,1,303,284.9V280.18a1.18,1.18,0,0,1,1.18-1.18H308.9a1.18,1.18,0,0,1,1.179,1.18V284.9A1.18,1.18,0,0,1,308.9,286.077Zm-3.538-2.359h2.359v-2.359h-2.359Z" transform="translate(730.823 180.532)" fill="#fff"/><path d="M292.9,286.795H288.18a1.18,1.18,0,0,1-1.18-1.18v-9.436a1.18,1.18,0,0,1,1.18-1.18H292.9a1.18,1.18,0,0,1,1.179,1.18v9.436A1.18,1.18,0,0,1,292.9,286.795Zm-3.538-2.359h2.359v-7.077h-2.359Z" transform="translate(727.951 179.814)" fill="#fff"/><path d="M312.9,281.359h-4.718a1.18,1.18,0,0,1,0-2.359H312.9a1.18,1.18,0,0,1,0,2.359Z" transform="translate(731.541 180.532)" fill="#fff"/><path d="M272.9,281.359H268.18a1.18,1.18,0,0,1,0-2.359H272.9a1.18,1.18,0,1,1,0,2.359Z" transform="translate(724.361 180.532)" fill="#fff"/><path d="M314.334,269.359H300.18a1.18,1.18,0,1,1,0-2.359h14.154a1.18,1.18,0,0,1,0,2.359Z" transform="translate(730.105 178.378)" fill="#fff"/><path d="M270.538,294.077a3.538,3.538,0,1,1,3.539-3.538A3.543,3.543,0,0,1,270.538,294.077Zm0-4.718a1.179,1.179,0,1,0,1.18,1.18A1.181,1.181,0,0,0,270.538,289.359Z" transform="translate(724.361 181.968)" fill="#fff"/><path d="M280.9,289.359h-4.718a1.18,1.18,0,0,1,0-2.359H280.9a1.18,1.18,0,0,1,0,2.359Z" transform="translate(725.797 181.968)" fill="#fff"/><path d="M278.538,293.359h-2.359a1.179,1.179,0,1,1,0-2.359h2.359a1.179,1.179,0,1,1,0,2.359Z" transform="translate(725.797 182.686)" fill="#fff"/><path d="M304.9,273.359H300.18a1.18,1.18,0,0,1,0-2.359H304.9a1.18,1.18,0,0,1,0,2.359Z" transform="translate(730.105 179.096)" fill="#fff"/><path d="M310.538,273.359h-2.359a1.18,1.18,0,0,1,0-2.359h2.359a1.18,1.18,0,0,1,0,2.359Z" transform="translate(731.541 179.096)" fill="#fff"/><path d="M265.513,309.873H204.179a1.18,1.18,0,0,1-1.18-1.18V200.179a1.18,1.18,0,0,1,2.359,0V307.514h58.975V200.179a1.179,1.179,0,1,1,2.359,0V308.693A1.18,1.18,0,0,1,265.513,309.873Z" transform="translate(712.873 166.172)" fill="#fff"/><path d="M256.179,202.795A1.18,1.18,0,0,1,255,201.615,10.628,10.628,0,0,1,265.615,191a1.18,1.18,0,1,1,0,2.359,8.266,8.266,0,0,0-8.256,8.256A1.18,1.18,0,0,1,256.179,202.795Z" transform="translate(722.207 164.736)" fill="#fff"/><path d="M273.615,202.795a1.18,1.18,0,0,1-1.18-1.179,8.266,8.266,0,0,0-8.256-8.256,1.18,1.18,0,0,1,0-2.359,10.628,10.628,0,0,1,10.615,10.615A1.18,1.18,0,0,1,273.615,202.795Z" transform="translate(723.643 164.736)" fill="#fff"/><path d="M204.179,202.795a1.18,1.18,0,0,1-1.18-1.179A10.628,10.628,0,0,1,213.615,191a1.18,1.18,0,1,1,0,2.359,8.266,8.266,0,0,0-8.256,8.256A1.18,1.18,0,0,1,204.179,202.795Z" transform="translate(712.873 164.736)" fill="#fff"/><path d="M273.513,193.359H212.18a1.18,1.18,0,1,1,0-2.359h61.334a1.18,1.18,0,1,1,0,2.359Z" transform="translate(714.309 164.736)" fill="#fff"/><path d="M272.179,257.975A1.18,1.18,0,0,1,271,256.8V200.179a1.18,1.18,0,0,1,2.359,0V256.8A1.18,1.18,0,0,1,272.179,257.975Z" transform="translate(725.079 166.172)" fill="#fff"/><path d="M280.18,251.513a1.18,1.18,0,0,1-1.18-1.18V236.179a1.18,1.18,0,0,1,2.359,0v14.154A1.18,1.18,0,0,1,280.18,251.513Z" transform="translate(726.515 172.634)" fill="#fff"/><path d="M276.9,254.077a5.9,5.9,0,0,1-5.9-5.9,1.18,1.18,0,0,1,2.359,0,3.538,3.538,0,1,0,7.077,0,1.18,1.18,0,0,1,2.359,0A5.9,5.9,0,0,1,276.9,254.077Z" transform="translate(725.079 174.788)" fill="#fff"/><path d="M279.769,253.359h-23.59a1.179,1.179,0,1,1,0-2.359h23.59a1.179,1.179,0,0,1,0,2.359Z" transform="translate(722.207 175.506)" fill="#fff"/><path d="M280.18,238.795a1.18,1.18,0,0,1-1.18-1.18A10.628,10.628,0,0,1,289.615,227a1.179,1.179,0,1,1,0,2.359,8.266,8.266,0,0,0-8.256,8.256A1.18,1.18,0,0,1,280.18,238.795Z" transform="translate(726.515 171.198)" fill="#fff"/><path d="M297.616,238.795a1.18,1.18,0,0,1-1.18-1.18,8.266,8.266,0,0,0-8.256-8.256,1.179,1.179,0,1,1,0-2.359,10.628,10.628,0,0,1,10.615,10.615A1.18,1.18,0,0,1,297.616,238.795Z" transform="translate(727.951 171.198)" fill="#fff"/><path d="M291.051,229.359H272.179a1.179,1.179,0,1,1,0-2.359h18.872a1.179,1.179,0,0,1,0,2.359Z" transform="translate(725.079 171.198)" fill="#fff"/><path d="M296.179,265.667a1.18,1.18,0,0,1-1.179-1.18V236.179a1.179,1.179,0,0,1,2.359,0v28.308A1.18,1.18,0,0,1,296.179,265.667Z" transform="translate(729.387 172.634)" fill="#fff"/><path d="M244.179,302.795a1.18,1.18,0,0,1-1.179-1.18V292.18a1.179,1.179,0,0,1,2.359,0v9.436A1.18,1.18,0,0,1,244.179,302.795Z" transform="translate(720.053 182.686)" fill="#fff"/><path d="M258.333,301.359H244.179a1.18,1.18,0,0,1,0-2.359h14.154a1.18,1.18,0,0,1,0,2.359Z" transform="translate(720.053 184.122)" fill="#fff"/><rect width="47.18" height="4.718" transform="translate(1200.131 458.583)" fill="#4586ff"/><g transform="translate(-6 -40)"><path d="M450.18,201.513a1.179,1.179,0,0,1-.834-2.013L463.5,185.346a1.179,1.179,0,0,1,1.668,1.668l-14.154,14.154A1.176,1.176,0,0,1,450.18,201.513Z" transform="translate(757.029 142.659)" fill="#fff"/><path d="M452.333,201.513a1.176,1.176,0,0,1-.834-.346l-14.154-14.154a1.179,1.179,0,0,1,1.668-1.668L453.167,199.5a1.179,1.179,0,0,1-.834,2.013Z" transform="translate(754.875 142.659)" fill="#fff"/><path d="M426.18,201.513a1.179,1.179,0,0,1-.834-2.013L439.5,185.346a1.179,1.179,0,0,1,1.668,1.668l-14.154,14.154A1.176,1.176,0,0,1,426.18,201.513Z" transform="translate(752.721 142.659)" fill="#fff"/><circle cx="2.359" cy="2.359" r="2.359" transform="translate(1176.542 340.634)" fill="#4586ff"/><circle cx="2.359" cy="2.359" r="2.359" transform="translate(1204.85 340.634)" fill="#4586ff"/><circle cx="2.359" cy="2.359" r="2.359" transform="translate(1190.696 326.48)" fill="#4586ff"/><circle cx="2.359" cy="2.359" r="2.359" transform="translate(1219.004 326.48)" fill="#4586ff"/><path d="M426.538,202.077a3.538,3.538,0,1,1,3.538-3.538A3.543,3.543,0,0,1,426.538,202.077Zm0-4.718a1.18,1.18,0,1,0,1.18,1.18A1.181,1.181,0,0,0,426.538,197.359Z" transform="translate(752.362 144.454)" fill="#fff"/><path d="M450.539,202.077a3.538,3.538,0,1,1,3.538-3.538A3.543,3.543,0,0,1,450.539,202.077Zm0-4.718a1.18,1.18,0,1,0,1.18,1.18A1.181,1.181,0,0,0,450.539,197.359Z" transform="translate(756.67 144.454)" fill="#fff"/><path d="M438.539,190.077a3.538,3.538,0,1,1,3.539-3.538A3.543,3.543,0,0,1,438.539,190.077Zm0-4.718a1.179,1.179,0,1,0,1.18,1.179A1.181,1.181,0,0,0,438.539,185.359Z" transform="translate(754.516 142.3)" fill="#fff"/><path d="M462.538,190.077a3.538,3.538,0,1,1,3.539-3.538A3.543,3.543,0,0,1,462.538,190.077Zm0-4.718a1.179,1.179,0,1,0,1.179,1.179A1.181,1.181,0,0,0,462.538,185.359Z" transform="translate(758.824 142.3)" fill="#fff"/></g><g transform="translate(-141.513 71)"><path d="M450.073,200.017a1.073,1.073,0,0,1-.758-1.831l12.872-12.872a1.073,1.073,0,0,1,1.517,1.517L450.831,199.7A1.07,1.07,0,0,1,450.073,200.017Z" transform="translate(754.251 142.446)" fill="#fff"/><path d="M450.945,200.017a1.07,1.07,0,0,1-.758-.314l-12.872-12.872a1.073,1.073,0,0,1,1.517-1.517L451.7,198.186a1.073,1.073,0,0,1-.758,1.831Z" transform="translate(753.379 142.446)" fill="#fff"/><path d="M426.073,200.017a1.073,1.073,0,0,1-.758-1.831l12.872-12.872a1.073,1.073,0,0,1,1.517,1.517L426.831,199.7A1.07,1.07,0,0,1,426.073,200.017Z" transform="translate(752.507 142.446)" fill="#fff"/><circle cx="2.145" cy="2.145" r="2.145" transform="translate(1176.435 339.245)" fill="#4586ff"/><circle cx="2.145" cy="2.145" r="2.145" transform="translate(1202.179 339.245)" fill="#4586ff"/><circle cx="2.145" cy="2.145" r="2.145" transform="translate(1189.307 326.373)" fill="#4586ff"/><circle cx="2.145" cy="2.145" r="2.145" transform="translate(1215.051 326.373)" fill="#4586ff"/><path d="M426.218,201.436a3.218,3.218,0,1,1,3.218-3.218A3.222,3.222,0,0,1,426.218,201.436Zm0-4.291a1.073,1.073,0,1,0,1.073,1.073A1.074,1.074,0,0,0,426.218,197.145Z" transform="translate(752.362 143.172)" fill="#fff"/><path d="M450.218,201.436a3.218,3.218,0,1,1,3.218-3.218A3.222,3.222,0,0,1,450.218,201.436Zm0-4.291a1.073,1.073,0,1,0,1.073,1.073A1.074,1.074,0,0,0,450.218,197.145Z" transform="translate(754.106 143.172)" fill="#fff"/><path d="M438.218,189.436a3.218,3.218,0,1,1,3.218-3.218A3.222,3.222,0,0,1,438.218,189.436Zm0-4.291a1.073,1.073,0,1,0,1.073,1.073A1.074,1.074,0,0,0,438.218,185.145Z" transform="translate(753.234 142.3)" fill="#fff"/><path d="M462.218,189.436a3.218,3.218,0,1,1,3.218-3.218A3.222,3.222,0,0,1,462.218,189.436Zm0-4.291a1.073,1.073,0,1,0,1.073,1.073A1.074,1.074,0,0,0,462.218,185.145Z" transform="translate(754.978 142.3)" fill="#fff"/></g><path d="M254.641,266.077H212.18A1.18,1.18,0,0,1,211,264.9V260.18a1.18,1.18,0,0,1,1.18-1.18h42.462a1.18,1.18,0,0,1,1.18,1.18V264.9A1.18,1.18,0,0,1,254.641,266.077Zm-41.282-2.359h40.1v-2.359h-40.1Z" transform="translate(714.309 176.942)" fill="#fff"/><path d="M254.641,274.077H212.18A1.18,1.18,0,0,1,211,272.9V268.18a1.18,1.18,0,0,1,1.18-1.18h42.462a1.18,1.18,0,0,1,1.18,1.18V272.9A1.18,1.18,0,0,1,254.641,274.077Zm-41.282-2.359h40.1v-2.359h-40.1Z" transform="translate(714.309 178.378)" fill="#fff"/><path d="M254.641,282.077H212.18A1.18,1.18,0,0,1,211,280.9v-4.718a1.18,1.18,0,0,1,1.18-1.18h42.462a1.18,1.18,0,0,1,1.18,1.18V280.9A1.18,1.18,0,0,1,254.641,282.077Zm-41.282-2.359h40.1v-2.359h-40.1Z" transform="translate(714.309 179.814)" fill="#fff"/><path d="M236.179,282.077A1.18,1.18,0,0,1,235,280.9v-4.718a1.179,1.179,0,1,1,2.359,0V280.9A1.18,1.18,0,0,1,236.179,282.077Z" transform="translate(718.617 179.814)" fill="#fff"/><path d="M254.641,258.077H212.18A1.18,1.18,0,0,1,211,256.9v-4.718A1.18,1.18,0,0,1,212.18,251h42.462a1.18,1.18,0,0,1,1.18,1.179V256.9A1.18,1.18,0,0,1,254.641,258.077Zm-41.282-2.359h40.1v-2.359h-40.1Z" transform="translate(714.309 175.506)" fill="#fff"/><path d="M236.179,258.077A1.18,1.18,0,0,1,235,256.9v-4.718a1.179,1.179,0,0,1,2.359,0V256.9A1.18,1.18,0,0,1,236.179,258.077Z" transform="translate(718.617 175.506)" fill="#fff"/><path d="M224.179,274.077A1.18,1.18,0,0,1,223,272.9V268.18a1.179,1.179,0,1,1,2.359,0V272.9A1.18,1.18,0,0,1,224.179,274.077Z" transform="translate(716.463 178.378)" fill="#fff"/><path d="M240.18,266.077A1.18,1.18,0,0,1,239,264.9V260.18a1.18,1.18,0,0,1,2.359,0V264.9A1.18,1.18,0,0,1,240.18,266.077Z" transform="translate(719.335 176.942)" fill="#fff"/><path d="M254.641,255.1H212.18a1.18,1.18,0,0,1-1.18-1.18V216.18a1.18,1.18,0,0,1,1.18-1.18h42.462a1.18,1.18,0,0,1,1.18,1.18v37.744A1.18,1.18,0,0,1,254.641,255.1Zm-41.282-2.359h40.1V217.359h-40.1Z" transform="translate(714.309 169.044)" fill="#fff"/><path d="M212.181,244.231a1.18,1.18,0,0,1-.626-2.18l9.436-5.9a1.173,1.173,0,0,1,.912-.144l3.8.95L230,228.37a1.18,1.18,0,0,1,1.89-.307l4.278,4.278,4.107-.77a1.178,1.178,0,0,1,.885.188l3.814,2.622,8.751-10.937a1.179,1.179,0,1,1,1.842,1.472l-9.436,11.795a1.177,1.177,0,0,1-1.589.236l-4.315-2.965-4.237.794a1.185,1.185,0,0,1-1.051-.326l-3.561-3.561-3.987,7.972a1.171,1.171,0,0,1-1.341.617l-4.231-1.058-9.011,5.632A1.174,1.174,0,0,1,212.181,244.231Z" transform="translate(714.309 170.48)" fill="#fff"/><path d="M244.179,219.718A1.18,1.18,0,0,1,243,218.538V216.18a1.179,1.179,0,1,1,2.359,0v2.359A1.18,1.18,0,0,1,244.179,219.718Z" transform="translate(720.053 169.044)" fill="#fff"/><path d="M240.18,219.718a1.18,1.18,0,0,1-1.18-1.179V216.18a1.18,1.18,0,1,1,2.359,0v2.359A1.18,1.18,0,0,1,240.18,219.718Z" transform="translate(719.335 169.044)" fill="#fff"/><path d="M236.179,219.718A1.18,1.18,0,0,1,235,218.538V216.18a1.179,1.179,0,1,1,2.359,0v2.359A1.18,1.18,0,0,1,236.179,219.718Z" transform="translate(718.617 169.044)" fill="#fff"/><path d="M232.18,219.718a1.18,1.18,0,0,1-1.18-1.179V216.18a1.18,1.18,0,1,1,2.359,0v2.359A1.18,1.18,0,0,1,232.18,219.718Z" transform="translate(717.899 169.044)" fill="#fff"/><path d="M228.18,219.718a1.18,1.18,0,0,1-1.18-1.179V216.18a1.179,1.179,0,1,1,2.359,0v2.359A1.18,1.18,0,0,1,228.18,219.718Z" transform="translate(717.181 169.044)" fill="#fff"/><path d="M224.179,219.718A1.18,1.18,0,0,1,223,218.538V216.18a1.179,1.179,0,1,1,2.359,0v2.359A1.18,1.18,0,0,1,224.179,219.718Z" transform="translate(716.463 169.044)" fill="#fff"/><path d="M220.179,219.718a1.18,1.18,0,0,1-1.18-1.179V216.18a1.18,1.18,0,1,1,2.359,0v2.359A1.18,1.18,0,0,1,220.179,219.718Z" transform="translate(715.745 169.044)" fill="#fff"/><path d="M216.18,219.718a1.18,1.18,0,0,1-1.18-1.179V216.18a1.18,1.18,0,1,1,2.359,0v2.359A1.18,1.18,0,0,1,216.18,219.718Z" transform="translate(715.027 169.044)" fill="#fff"/><path d="M244.179,249.718a1.18,1.18,0,0,1-1.179-1.18V246.18a1.179,1.179,0,1,1,2.359,0v2.359A1.18,1.18,0,0,1,244.179,249.718Z" transform="translate(720.053 174.429)" fill="#fff"/><path d="M240.18,249.718a1.18,1.18,0,0,1-1.18-1.18V246.18a1.18,1.18,0,0,1,2.359,0v2.359A1.18,1.18,0,0,1,240.18,249.718Z" transform="translate(719.335 174.429)" fill="#fff"/><path d="M236.179,249.718a1.18,1.18,0,0,1-1.179-1.18V246.18a1.179,1.179,0,1,1,2.359,0v2.359A1.18,1.18,0,0,1,236.179,249.718Z" transform="translate(718.617 174.429)" fill="#fff"/><path d="M232.18,249.718a1.18,1.18,0,0,1-1.18-1.18V246.18a1.18,1.18,0,1,1,2.359,0v2.359A1.18,1.18,0,0,1,232.18,249.718Z" transform="translate(717.899 174.429)" fill="#fff"/><path d="M228.18,249.718a1.18,1.18,0,0,1-1.18-1.18V246.18a1.179,1.179,0,1,1,2.359,0v2.359A1.18,1.18,0,0,1,228.18,249.718Z" transform="translate(717.181 174.429)" fill="#fff"/><path d="M224.179,249.718a1.18,1.18,0,0,1-1.179-1.18V246.18a1.179,1.179,0,1,1,2.359,0v2.359A1.18,1.18,0,0,1,224.179,249.718Z" transform="translate(716.463 174.429)" fill="#fff"/><path d="M220.179,249.718a1.18,1.18,0,0,1-1.18-1.18V246.18a1.18,1.18,0,1,1,2.359,0v2.359A1.18,1.18,0,0,1,220.179,249.718Z" transform="translate(715.745 174.429)" fill="#fff"/><path d="M216.18,249.718a1.18,1.18,0,0,1-1.18-1.18V246.18a1.18,1.18,0,1,1,2.359,0v2.359A1.18,1.18,0,0,1,216.18,249.718Z" transform="translate(715.027 174.429)" fill="#fff"/><path d="M216.9,214.077H212.18A1.18,1.18,0,0,1,211,212.9V208.18A1.18,1.18,0,0,1,212.18,207H216.9a1.18,1.18,0,0,1,1.18,1.179V212.9A1.18,1.18,0,0,1,216.9,214.077Zm-3.538-2.359h2.359v-2.359h-2.359Z" transform="translate(714.309 167.608)" fill="#fff"/><path d="M239.051,213.359H220.179a1.18,1.18,0,0,1,0-2.359h18.872a1.18,1.18,0,0,1,0,2.359Z" transform="translate(715.745 168.326)" fill="#fff"/><path d="M224.9,209.359h-4.718a1.179,1.179,0,1,1,0-2.359H224.9a1.179,1.179,0,0,1,0,2.359Z" transform="translate(715.745 167.608)" fill="#fff"/><path d="M251.769,209.359H228.18a1.179,1.179,0,1,1,0-2.359h23.59a1.179,1.179,0,1,1,0,2.359Z" transform="translate(717.181 167.608)" fill="#fff"/><g transform="translate(0 -22)"><rect width="42.462" height="33.026" transform="translate(1266.183 412.122)" fill="#4586ff"/><rect width="4.718" height="4.718" transform="translate(1299.209 435.711)" fill="#4586ff"/><rect width="4.718" height="4.718" transform="translate(1299.209 426.275)" fill="#4586ff"/><rect width="4.718" height="4.718" transform="translate(1299.209 416.839)" fill="#4586ff"/><path d="M542.641,294.385H500.18a1.179,1.179,0,0,1-1.18-1.18V260.18a1.179,1.179,0,0,1,1.18-1.18h42.462a1.179,1.179,0,0,1,1.18,1.18v33.026A1.179,1.179,0,0,1,542.641,294.385Zm-41.282-2.359h40.1V261.359h-40.1Z" transform="translate(766.004 162.942)" fill="#fff"/><path d="M492.18,334a1.274,1.274,0,0,1-1.18-1.351v-124.3a1.191,1.191,0,1,1,2.36,0v124.3A1.274,1.274,0,0,1,492.18,334Z" transform="translate(764.568 142.608)" fill="#fff"/><path d="M544.153,328.978a1.233,1.233,0,0,1-1.153-1.3V208.3a1.162,1.162,0,1,1,2.307,0V327.678A1.233,1.233,0,0,1,544.153,328.978Z" transform="translate(773.901 142.608)" fill="#fff"/><path d="M560.18,289.565a1.179,1.179,0,0,1-1.179-1.18V208.18a1.179,1.179,0,1,1,2.359,0v80.206A1.179,1.179,0,0,1,560.18,289.565Z" transform="translate(776.773 142.608)" fill="#fff"/><path d="M568.18,287.411a1.179,1.179,0,0,1-1.18-1.179V220.179a1.179,1.179,0,1,1,2.359,0v66.052A1.179,1.179,0,0,1,568.18,287.411Z" transform="translate(778.209 144.762)" fill="#fff"/><path d="M567.769,281.359H544.18a1.18,1.18,0,1,1,0-2.359h23.59a1.18,1.18,0,0,1,0,2.359Z" transform="translate(773.901 155.532)" fill="#fff"/><path d="M561.513,201.359H500.18a1.18,1.18,0,0,1,0-2.359h61.334a1.18,1.18,0,1,1,0,2.359Z" transform="translate(766.004 141.172)" fill="#fff"/><path d="M564.9,282.077a5.9,5.9,0,0,1-5.9-5.9,1.179,1.179,0,1,1,2.359,0,3.538,3.538,0,1,0,7.077,0,1.18,1.18,0,0,1,2.359,0A5.9,5.9,0,0,1,564.9,282.077Z" transform="translate(776.773 154.814)" fill="#fff"/><path d="M544.18,210.795a1.179,1.179,0,0,1-1.18-1.18A10.628,10.628,0,0,1,553.615,199a1.18,1.18,0,0,1,0,2.359,8.266,8.266,0,0,0-8.256,8.256A1.179,1.179,0,0,1,544.18,210.795Z" transform="translate(773.901 141.172)" fill="#fff"/><path d="M561.615,210.795a1.179,1.179,0,0,1-1.179-1.18,8.266,8.266,0,0,0-8.256-8.256,1.18,1.18,0,1,1,0-2.359A10.628,10.628,0,0,1,562.8,209.615,1.179,1.179,0,0,1,561.615,210.795Z" transform="translate(775.338 141.172)" fill="#fff"/><path d="M492.18,210.795a1.179,1.179,0,0,1-1.179-1.18A10.628,10.628,0,0,1,501.616,199a1.18,1.18,0,0,1,0,2.359,8.266,8.266,0,0,0-8.256,8.256A1.179,1.179,0,0,1,492.18,210.795Z" transform="translate(764.568 141.172)" fill="#fff"/><path d="M572.18,301.565a1.179,1.179,0,0,1-1.18-1.18V220.179a1.18,1.18,0,1,1,2.359,0v80.206A1.179,1.179,0,0,1,572.18,301.565Z" transform="translate(778.928 144.762)" fill="#fff"/><path d="M577.205,289.359H544.18a1.18,1.18,0,1,1,0-2.359h33.026a1.18,1.18,0,0,1,0,2.359Z" transform="translate(773.901 156.968)" fill="#fff"/><path d="M572.9,221.718a1.179,1.179,0,0,1-1.18-1.18,1.18,1.18,0,0,0-2.359,0,1.179,1.179,0,1,1-2.359,0,3.538,3.538,0,1,1,7.077,0A1.179,1.179,0,0,1,572.9,221.718Z" transform="translate(778.209 144.403)" fill="#fff"/><path d="M571.975,219.359h-11.8a1.18,1.18,0,0,1,0-2.359h11.8a1.18,1.18,0,0,1,0,2.359Z" transform="translate(776.773 144.403)" fill="#fff"/><rect width="4.718" height="51.898" transform="translate(1322.799 408.686)" fill="#4587ff"/><path d="M552.9,309.975H548.18A1.179,1.179,0,0,1,547,308.8V252.179A1.179,1.179,0,0,1,548.18,251H552.9a1.179,1.179,0,0,1,1.18,1.179V308.8A1.179,1.179,0,0,1,552.9,309.975Zm-3.539-2.359h2.359V253.359h-2.359Z" transform="translate(774.62 156.506)" fill="#fff"/><path d="M552.92,254.069a.069.069,0,0,1-.022,0H548.18a1.179,1.179,0,0,1-1.056-1.707l2.359-4.718a1.228,1.228,0,0,1,2.11,0l2.265,4.528a1.181,1.181,0,0,1-.938,1.9Zm-2.832-2.359h.9l-.451-.9Z" transform="translate(774.619 155.796)" fill="#fff"/><path d="M552.9,297.359H548.18a1.179,1.179,0,1,1,0-2.359H552.9a1.179,1.179,0,1,1,0,2.359Z" transform="translate(774.62 164.404)" fill="#fff"/><path d="M532.9,286.077H528.18A1.179,1.179,0,0,1,527,284.9V280.18a1.179,1.179,0,0,1,1.18-1.18H532.9a1.179,1.179,0,0,1,1.18,1.18V284.9A1.179,1.179,0,0,1,532.9,286.077Zm-3.539-2.359h2.359v-2.359h-2.359Z" transform="translate(771.03 166.532)" fill="#fff"/><path d="M532.9,278.077H528.18A1.179,1.179,0,0,1,527,276.9v-4.718a1.179,1.179,0,0,1,1.18-1.18H532.9a1.179,1.179,0,0,1,1.18,1.18V276.9A1.179,1.179,0,0,1,532.9,278.077Zm-3.539-2.359h2.359v-2.359h-2.359Z" transform="translate(771.03 165.096)" fill="#fff"/><path d="M532.9,270.077H528.18A1.179,1.179,0,0,1,527,268.9V264.18A1.179,1.179,0,0,1,528.18,263H532.9a1.179,1.179,0,0,1,1.18,1.179V268.9A1.179,1.179,0,0,1,532.9,270.077Zm-3.539-2.359h2.359v-2.359h-2.359Z" transform="translate(771.03 163.66)" fill="#fff"/><path d="M549.67,253.359H512.547a1.223,1.223,0,1,1,0-2.359H549.67a1.223,1.223,0,1,1,0,2.359Z" transform="translate(758.608 150.506)" fill="#fff"/><path d="M549.67,221.359H512.547a1.223,1.223,0,1,1,0-2.359H549.67a1.223,1.223,0,1,1,0,2.359Z" transform="translate(758.608 144.762)" fill="#fff"/><path d="M549.67,225.359H512.547a1.223,1.223,0,1,1,0-2.359H549.67a1.223,1.223,0,1,1,0,2.359Z" transform="translate(758.608 145.48)" fill="#fff"/><path d="M549.67,229.359H512.547a1.223,1.223,0,1,1,0-2.359H549.67a1.223,1.223,0,1,1,0,2.359Z" transform="translate(758.608 146.198)" fill="#fff"/><path d="M549.67,233.359H512.547a1.223,1.223,0,1,1,0-2.359H549.67a1.223,1.223,0,1,1,0,2.359Z" transform="translate(758.608 146.916)" fill="#fff"/><path d="M549.67,237.359H512.547a1.223,1.223,0,1,1,0-2.359H549.67a1.223,1.223,0,1,1,0,2.359Z" transform="translate(758.608 147.634)" fill="#fff"/><path d="M549.67,241.359H512.547a1.223,1.223,0,1,1,0-2.359H549.67a1.223,1.223,0,1,1,0,2.359Z" transform="translate(758.608 148.352)" fill="#fff"/><path d="M549.67,245.359H512.547a1.223,1.223,0,1,1,0-2.359H549.67a1.223,1.223,0,1,1,0,2.359Z" transform="translate(758.608 149.07)" fill="#fff"/><path d="M549.67,249.359H512.547a1.223,1.223,0,1,1,0-2.359H549.67a1.223,1.223,0,1,1,0,2.359Z" transform="translate(758.608 149.788)" fill="#fff"/></g><g transform="translate(-4 1)"><rect width="47.18" height="28.308" transform="translate(1105.49 441.993)" fill="#4586ff"/><path d="M415.359,305.667H368.18a1.179,1.179,0,0,1-1.18-1.18V276.179a1.179,1.179,0,0,1,1.18-1.18h47.18a1.179,1.179,0,0,1,1.18,1.18v28.308A1.179,1.179,0,0,1,415.359,305.667Zm-46-2.359H414.18V277.359H369.359Z" transform="translate(737.311 165.814)" fill="#fff"/><path d="M387.049,291.513a1.173,1.173,0,0,1-.707-.236l-18.871-14.154a1.18,1.18,0,1,1,1.415-1.887l18.871,14.154a1.179,1.179,0,0,1-.709,2.123Z" transform="translate(737.31 165.814)" fill="#fff"/><path d="M388.9,292.9a1.174,1.174,0,0,1-.708-.236l-4.719-3.538a1.179,1.179,0,0,1,1.415-1.887l4.011,3.008,4.01-3.008a1.179,1.179,0,1,1,1.415,1.887l-4.718,3.538A1.181,1.181,0,0,1,388.9,292.9Z" transform="translate(740.182 167.968)" fill="#fff"/><path d="M392.181,291.513a1.18,1.18,0,0,1-.709-2.123l18.872-14.154a1.179,1.179,0,1,1,1.415,1.887l-18.872,14.154A1.173,1.173,0,0,1,392.181,291.513Z" transform="translate(741.618 165.814)" fill="#fff"/><path d="M411.05,303.513a1.172,1.172,0,0,1-.707-.236l-18.872-14.154a1.179,1.179,0,1,1,1.415-1.887l18.872,14.154a1.179,1.179,0,0,1-.709,2.123Z" transform="translate(741.618 167.968)" fill="#fff"/><path d="M368.181,303.513a1.18,1.18,0,0,1-.709-2.123l18.871-14.154a1.179,1.179,0,1,1,1.415,1.887l-18.871,14.154A1.173,1.173,0,0,1,368.181,303.513Z" transform="translate(737.31 167.968)" fill="#fff"/></g><g transform="translate(-4 26)"><path d="M184.513,205.915a5.5,5.5,0,1,1,0-11V183.9a16.513,16.513,0,1,0,11.677,28.191l-7.786-7.786A5.488,5.488,0,0,1,184.513,205.915Z" transform="translate(706.591 142.462)" fill="#4586ff"/><path d="M185.891,196.522l7.786-7.787A16.475,16.475,0,0,0,182,183.9v11.011A5.484,5.484,0,0,1,185.891,196.522Z" transform="translate(709.104 142.462)" fill="#4586ff"/><path d="M193.085,188l-7.786,7.787a5.5,5.5,0,0,1,0,7.783l7.786,7.786a16.519,16.519,0,0,0,0-23.356Z" transform="translate(709.696 143.198)" fill="#4586ff"/><path d="M184.692,218.285a17.692,17.692,0,1,1,17.692-17.692A17.713,17.713,0,0,1,184.692,218.285Zm0-33.026a15.333,15.333,0,1,0,15.333,15.333A15.35,15.35,0,0,0,184.692,185.259Z" transform="translate(706.411 142.282)" fill="#fff"/><path d="M183.017,205.6a6.682,6.682,0,1,1,6.683-6.682A6.69,6.69,0,0,1,183.017,205.6Zm0-11a4.323,4.323,0,1,0,4.324,4.323A4.329,4.329,0,0,0,183.017,194.594Z" transform="translate(708.087 143.958)" fill="#fff"/><path d="M182.18,196.27A1.18,1.18,0,0,1,181,195.09V184.079a1.18,1.18,0,0,1,2.359,0V195.09A1.18,1.18,0,0,1,182.18,196.27Z" transform="translate(708.924 142.282)" fill="#fff"/><path d="M185.479,197.145a1.179,1.179,0,0,1-.834-2.013l7.786-7.787a1.18,1.18,0,0,1,1.668,1.669l-7.786,7.786A1.178,1.178,0,0,1,185.479,197.145Z" transform="translate(709.516 143.018)" fill="#fff"/><path d="M193.264,210.345a1.178,1.178,0,0,1-.834-.346l-7.786-7.786a1.179,1.179,0,1,1,1.668-1.668l7.786,7.786a1.18,1.18,0,0,1-.834,2.013Z" transform="translate(709.516 145.388)" fill="#fff"/></g><g transform="translate(-7 -27)"><rect width="51.898" height="4.718" transform="translate(1181.26 350.07)" fill="#4586ff"/><path d="M480.8,210.077H424.179A1.179,1.179,0,0,1,423,208.9v-4.718a1.179,1.179,0,0,1,1.18-1.18H480.8a1.179,1.179,0,0,1,1.179,1.18V208.9A1.179,1.179,0,0,1,480.8,210.077Zm-55.436-2.359h54.257v-2.359H425.359Z" transform="translate(752.362 145.89)" fill="#fff"/><path d="M472.179,210.077A1.18,1.18,0,0,1,471,208.9V204.18a1.18,1.18,0,0,1,1.707-1.056l4.718,2.359a1.18,1.18,0,0,1,0,2.111l-4.718,2.359A1.186,1.186,0,0,1,472.179,210.077Zm1.18-3.989v.9l.9-.451Z" transform="translate(760.978 145.89)" fill="#fff"/><path d="M428.18,210.077A1.179,1.179,0,0,1,427,208.9v-4.718a1.18,1.18,0,0,1,2.359,0V208.9A1.179,1.179,0,0,1,428.18,210.077Z" transform="translate(753.08 145.89)" fill="#fff"/></g><rect width="4.718" height="4.718" transform="translate(756.641 498.865)" fill="#4586ff"/><g transform="translate(-5 7)"><path d="M55.59,268.718V264H41.436v4.718H32v37.744H88.616V268.718Z" transform="translate(682.18 197.839)" fill="#4586ff"/><path d="M88.8,307.821H32.179a1.18,1.18,0,0,1-1.18-1.18V268.9a1.18,1.18,0,0,1,1.18-1.179h8.256V264.18A1.18,1.18,0,0,1,41.615,263H55.769a1.18,1.18,0,0,1,1.179,1.179v3.539H88.8a1.18,1.18,0,0,1,1.179,1.179v37.744A1.18,1.18,0,0,1,88.8,307.821Zm-55.436-2.359H87.616V270.077H55.769A1.18,1.18,0,0,1,54.59,268.9v-3.538H42.795V268.9a1.18,1.18,0,0,1-1.179,1.179H33.359Z" transform="translate(682 197.66)" fill="#fff"/><rect width="4.718" height="51.898" transform="translate(756.641 417.968)" fill="#4586ff"/><path d="M72.9,305.975H68.179A1.18,1.18,0,0,1,67,304.8V248.18A1.18,1.18,0,0,1,68.179,247H72.9a1.18,1.18,0,0,1,1.179,1.18V304.8A1.18,1.18,0,0,1,72.9,305.975Zm-3.538-2.359h2.359V249.359H69.359Z" transform="translate(688.462 198.788)" fill="#fff"/><path d="M72.921,250.069a.158.158,0,0,0-.024,0H68.179a1.179,1.179,0,0,1-1.056-1.707l2.359-4.718a1.229,1.229,0,0,1,2.111,0l2.263,4.528a1.18,1.18,0,0,1-.937,1.9Zm-2.833-2.359h.9l-.451-.9Z" transform="translate(688.462 198.078)" fill="#fff"/><path d="M72.9,293.359H68.179a1.179,1.179,0,1,1,0-2.359H72.9a1.179,1.179,0,1,1,0,2.359Z" transform="translate(688.462 206.686)" fill="#fff"/></g><g transform="translate(0 77)"><rect width="28.308" height="4.718" transform="translate(843.924 322.506)" fill="#4586ff"/><rect width="99.078" height="4.718" transform="translate(808.539 327.224)" fill="#4586ff"/><rect width="23.59" height="18.872" transform="translate(869.873 341.378)" fill="#4586ff"/><rect width="4.718" height="4.718" transform="translate(884.027 346.096)" fill="#4586ff"/><path d="M137.513,311.719H76.18a1.18,1.18,0,0,1-1.18-1.18V216.18a1.179,1.179,0,1,1,2.359,0v93.18h58.975V291.667a1.18,1.18,0,1,1,2.359,0v18.872A1.18,1.18,0,0,1,137.513,311.719Z" transform="translate(689.898 111.044)" fill="#fff"/><rect width="4.718" height="28.308" transform="translate(784.949 346.096)" fill="#4586ff"/><rect width="4.718" height="23.59" transform="translate(803.821 350.814)" fill="#4586ff"/><rect width="4.718" height="9.436" transform="translate(775.513 364.968)" fill="#4586ff"/><rect width="4.718" height="18.872" transform="translate(794.385 355.532)" fill="#4586ff"/><path d="M121.923,261.359H84.18a1.18,1.18,0,0,1,0-2.359h37.744a1.18,1.18,0,1,1,0,2.359Z" transform="translate(691.334 118.942)" fill="#fff"/><path d="M88.9,258.795H84.18a1.18,1.18,0,0,1-1.18-1.18V248.18A1.18,1.18,0,0,1,84.18,247H88.9a1.18,1.18,0,0,1,1.179,1.18v9.436A1.18,1.18,0,0,1,88.9,258.795Zm-3.538-2.359h2.359v-7.077H85.359Z" transform="translate(691.334 116.788)" fill="#fff"/><path d="M96.9,261.667H92.18A1.18,1.18,0,0,1,91,260.487V232.18A1.18,1.18,0,0,1,92.18,231H96.9a1.18,1.18,0,0,1,1.179,1.18v28.308A1.18,1.18,0,0,1,96.9,261.667Zm-3.538-2.359h2.359V233.359H93.359Z" transform="translate(692.77 113.916)" fill="#fff"/><path d="M104.9,260.231h-4.718A1.18,1.18,0,0,1,99,259.051V240.18a1.18,1.18,0,0,1,1.179-1.18H104.9a1.18,1.18,0,0,1,1.18,1.18v18.872A1.18,1.18,0,0,1,104.9,260.231Zm-3.538-2.359h2.359V241.359h-2.359Z" transform="translate(694.206 115.352)" fill="#fff"/><path d="M112.9,260.949H108.18a1.18,1.18,0,0,1-1.179-1.18v-23.59A1.18,1.18,0,0,1,108.18,235H112.9a1.18,1.18,0,0,1,1.179,1.179v23.59A1.18,1.18,0,0,1,112.9,260.949Zm-3.538-2.359h2.359V237.359h-2.359Z" transform="translate(695.642 114.634)" fill="#fff"/><path d="M140,258.154A14.146,14.146,0,0,0,154.154,244,14.155,14.155,0,0,1,140,258.154Z" transform="translate(701.565 116.25)" fill="#fff"/><path d="M128,244a14.146,14.146,0,0,0,14.154,14.154A14.155,14.155,0,0,1,128,244Z" transform="translate(699.411 116.25)" fill="#fff"/><path d="M140,253.436v4.718A14.155,14.155,0,0,0,154.154,244h-4.718A9.436,9.436,0,0,1,140,253.436Z" transform="translate(701.565 116.25)" fill="#4586ff"/><path d="M140,253.436A9.436,9.436,0,0,0,149.436,244H140Z" transform="translate(701.565 116.25)" fill="#4586ff"/><path d="M132,245.436h9.436V236A9.436,9.436,0,0,0,132,245.436Z" transform="translate(700.129 114.814)" fill="#4586ff"/><path d="M144.718,244.718A4.715,4.715,0,0,0,140,240v4.718Z" transform="translate(701.565 115.532)" fill="#4586ff"/><path d="M142.154,244H128a14.155,14.155,0,0,0,14.154,14.154V244Z" transform="translate(699.411 116.25)" fill="#4586ff"/><rect width="4.718" height="4.718" transform="translate(860.437 388.557)" fill="#4586ff"/><path d="M205.821,292.129H116.18a1.18,1.18,0,0,1-1.18-1.18v-70.77a1.18,1.18,0,0,1,1.18-1.18h89.642a1.18,1.18,0,0,1,1.18,1.18v70.77A1.18,1.18,0,0,1,205.821,292.129Zm-88.462-2.359h87.283V221.359H117.359Z" transform="translate(697.078 111.762)" fill="#fff"/><path d="M211.257,222.077H112.179A1.18,1.18,0,0,1,111,220.9V216.18a1.18,1.18,0,0,1,1.18-1.18h99.078a1.18,1.18,0,0,1,1.179,1.18V220.9A1.18,1.18,0,0,1,211.257,222.077Zm-97.9-2.359h96.719v-2.359H113.359Z" transform="translate(696.36 111.044)" fill="#fff"/><path d="M170.487,218.077H142.18A1.18,1.18,0,0,1,141,216.9V212.18a1.18,1.18,0,0,1,1.18-1.18h28.308a1.18,1.18,0,0,1,1.18,1.18V216.9A1.18,1.18,0,0,1,170.487,218.077Zm-27.128-2.359h25.949v-2.359H143.359Z" transform="translate(701.744 110.326)" fill="#fff"/><path d="M134.181,304.949a1.051,1.051,0,0,1-.147-.009,1.178,1.178,0,0,1-1.024-1.316l2.948-23.59a1.18,1.18,0,1,1,2.341.291l-2.949,23.591A1.179,1.179,0,0,1,134.181,304.949Z" transform="translate(700.308 122.532)" fill="#fff"/><path d="M174.626,304.949a1.179,1.179,0,0,1-1.168-1.033l-2.949-23.591a1.179,1.179,0,1,1,2.34-.291l2.949,23.59a1.179,1.179,0,0,1-1.024,1.316A1.057,1.057,0,0,1,174.626,304.949Z" transform="translate(707.04 122.532)" fill="#fff"/><path d="M179.321,289.359H135.679a1.18,1.18,0,0,1,0-2.359h43.641a1.18,1.18,0,0,1,0,2.359Z" transform="translate(700.578 123.968)" fill="#fff"/><path d="M154.538,234.077a3.538,3.538,0,1,1,3.538-3.538A3.543,3.543,0,0,1,154.538,234.077Zm0-4.718a1.18,1.18,0,1,0,1.18,1.18A1.181,1.181,0,0,0,154.538,229.359Z" transform="translate(703.539 113.198)" fill="#fff"/><path d="M124.179,234.077A1.18,1.18,0,0,1,123,232.9V228.18a1.179,1.179,0,1,1,2.359,0V232.9A1.18,1.18,0,0,1,124.179,234.077Z" transform="translate(698.514 113.198)" fill="#fff"/><path d="M128.179,233.718A1.18,1.18,0,0,1,127,232.538v-2.359a1.179,1.179,0,0,1,2.359,0v2.359A1.18,1.18,0,0,1,128.179,233.718Z" transform="translate(699.232 113.557)" fill="#fff"/><path d="M128.9,262.077h-4.718A1.18,1.18,0,0,1,123,260.9v-4.718A1.18,1.18,0,0,1,124.179,255H128.9a1.18,1.18,0,0,1,1.179,1.179V260.9A1.18,1.18,0,0,1,128.9,262.077Zm-3.538-2.359h2.359v-2.359h-2.359Z" transform="translate(698.514 118.224)" fill="#fff"/><rect width="4.718" height="4.718" transform="translate(888.745 388.557)" fill="#4586ff"/><rect width="4.718" height="4.718" transform="translate(841.565 388.557)" fill="#4586ff"/><rect width="4.718" height="4.718" transform="translate(879.309 388.557)" fill="#4586ff"/><rect width="4.718" height="4.718" transform="translate(832.129 388.557)" fill="#4586ff"/><rect width="4.718" height="4.718" transform="translate(869.873 388.557)" fill="#4586ff"/><rect width="4.718" height="4.718" transform="translate(851.001 388.557)" fill="#4586ff"/><rect width="4.718" height="4.718" transform="translate(822.693 388.557)" fill="#4586ff"/><path d="M184.9,274.077H180.18A1.18,1.18,0,0,1,179,272.9V268.18A1.18,1.18,0,0,1,180.18,267H184.9a1.18,1.18,0,0,1,1.18,1.18V272.9A1.18,1.18,0,0,1,184.9,274.077Zm-3.538-2.359h2.359v-2.359h-2.359Z" transform="translate(708.565 120.378)" fill="#fff"/><path d="M176.9,274.077H172.18A1.18,1.18,0,0,1,171,272.9V268.18A1.18,1.18,0,0,1,172.18,267H176.9a1.18,1.18,0,0,1,1.18,1.18V272.9A1.18,1.18,0,0,1,176.9,274.077Zm-3.538-2.359h2.359v-2.359h-2.359Z" transform="translate(707.129 120.378)" fill="#fff"/><path d="M168.9,274.077h-4.718A1.18,1.18,0,0,1,163,272.9V268.18a1.18,1.18,0,0,1,1.18-1.18H168.9a1.18,1.18,0,0,1,1.18,1.18V272.9A1.18,1.18,0,0,1,168.9,274.077Zm-3.538-2.359h2.359v-2.359h-2.359Z" transform="translate(705.693 120.378)" fill="#fff"/><path d="M160.9,274.077H156.18A1.18,1.18,0,0,1,155,272.9V268.18a1.18,1.18,0,0,1,1.18-1.18H160.9a1.18,1.18,0,0,1,1.179,1.18V272.9A1.18,1.18,0,0,1,160.9,274.077Zm-3.538-2.359h2.359v-2.359h-2.359Z" transform="translate(704.257 120.378)" fill="#fff"/><path d="M152.9,274.077h-4.718A1.18,1.18,0,0,1,147,272.9V268.18a1.18,1.18,0,0,1,1.179-1.18H152.9a1.18,1.18,0,0,1,1.179,1.18V272.9A1.18,1.18,0,0,1,152.9,274.077Zm-3.538-2.359h2.359v-2.359h-2.359Z" transform="translate(702.821 120.378)" fill="#fff"/><path d="M144.9,274.077H140.18A1.18,1.18,0,0,1,139,272.9V268.18a1.18,1.18,0,0,1,1.18-1.18H144.9a1.18,1.18,0,0,1,1.18,1.18V272.9A1.18,1.18,0,0,1,144.9,274.077Zm-3.539-2.359h2.359v-2.359h-2.359Z" transform="translate(701.385 120.378)" fill="#fff"/><path d="M136.9,274.077H132.18A1.18,1.18,0,0,1,131,272.9V268.18a1.18,1.18,0,0,1,1.18-1.18H136.9a1.18,1.18,0,0,1,1.18,1.18V272.9A1.18,1.18,0,0,1,136.9,274.077Zm-3.538-2.359h2.359v-2.359h-2.359Z" transform="translate(699.95 120.378)" fill="#fff"/><path d="M128.9,274.077h-4.718A1.18,1.18,0,0,1,123,272.9V268.18a1.18,1.18,0,0,1,1.179-1.18H128.9a1.18,1.18,0,0,1,1.179,1.18V272.9A1.18,1.18,0,0,1,128.9,274.077Zm-3.538-2.359h2.359v-2.359h-2.359Z" transform="translate(698.514 120.378)" fill="#fff"/><path d="M140.18,267.1a1.18,1.18,0,0,1-1.18-1.179V228.18a1.179,1.179,0,1,1,2.359,0v37.744A1.18,1.18,0,0,1,140.18,267.1Z" transform="translate(701.385 113.198)" fill="#fff"/><path d="M161.923,245.359H124.179a1.179,1.179,0,1,1,0-2.359h37.744a1.179,1.179,0,1,1,0,2.359Z" transform="translate(698.514 116.07)" fill="#fff"/><path d="M140.18,254.795a1.18,1.18,0,1,1,0-2.359,8.266,8.266,0,0,0,8.257-8.256,1.179,1.179,0,0,1,2.359,0A10.628,10.628,0,0,1,140.18,254.795Z" transform="translate(701.385 116.07)" fill="#fff"/><path d="M132.18,246.795a1.18,1.18,0,0,1-1.18-1.179A10.628,10.628,0,0,1,141.615,235a1.179,1.179,0,0,1,0,2.359,8.266,8.266,0,0,0-8.256,8.256A1.18,1.18,0,0,1,132.18,246.795Z" transform="translate(699.95 114.634)" fill="#fff"/><path d="M140.18,259.513a1.179,1.179,0,1,1,0-2.359,12.99,12.99,0,0,0,12.974-12.974,1.179,1.179,0,0,1,2.359,0A15.351,15.351,0,0,1,140.18,259.513Z" transform="translate(701.385 116.07)" fill="#fff"/><path d="M142.333,259.513A15.35,15.35,0,0,1,127,244.179a1.179,1.179,0,0,1,2.359,0,12.99,12.99,0,0,0,12.974,12.974,1.179,1.179,0,0,1,0,2.359Z" transform="translate(699.232 116.07)" fill="#fff"/><path d="M144.9,246.077a1.18,1.18,0,0,1-1.18-1.18,3.543,3.543,0,0,0-3.538-3.538,1.18,1.18,0,0,1,0-2.359,5.9,5.9,0,0,1,5.9,5.9A1.18,1.18,0,0,1,144.9,246.077Z" transform="translate(701.385 115.352)" fill="#fff"/><path d="M173.615,253.359h-9.436a1.179,1.179,0,1,1,0-2.359h9.436a1.179,1.179,0,1,1,0,2.359Z" transform="translate(705.693 117.506)" fill="#fff"/><path d="M180.9,253.359H176.18a1.179,1.179,0,1,1,0-2.359H180.9a1.179,1.179,0,1,1,0,2.359Z" transform="translate(707.847 117.506)" fill="#fff"/><path d="M186.333,257.359H172.18a1.179,1.179,0,0,1,0-2.359h14.154a1.179,1.179,0,1,1,0,2.359Z" transform="translate(707.129 118.224)" fill="#fff"/><path d="M168.9,257.359h-4.718a1.179,1.179,0,1,1,0-2.359H168.9a1.179,1.179,0,1,1,0,2.359Z" transform="translate(705.693 118.224)" fill="#fff"/><path d="M183.051,261.359H164.179a1.18,1.18,0,0,1,0-2.359h18.872a1.18,1.18,0,1,1,0,2.359Z" transform="translate(705.693 118.942)" fill="#fff"/><path d="M187.769,248.231h-23.59a1.18,1.18,0,0,1-1.18-1.18V228.18a1.18,1.18,0,0,1,1.18-1.18h23.59a1.18,1.18,0,0,1,1.18,1.18v18.872A1.18,1.18,0,0,1,187.769,248.231Zm-22.41-2.359H186.59V229.359H165.359Z" transform="translate(705.693 113.198)" fill="#fff"/><path d="M168.186,236.623h-1.754a.438.438,0,0,1-.439-.438v-1.754a.439.439,0,0,1,.439-.439h1.754a.438.438,0,0,1,.438.439v1.754A.437.437,0,0,1,168.186,236.623Zm-1.315-.876h.876v-.876h-.876Z" transform="translate(706.231 114.453)" fill="#fff"/><path d="M176.9,238.077H172.18A1.18,1.18,0,0,1,171,236.9V232.18A1.18,1.18,0,0,1,172.18,231H176.9a1.18,1.18,0,0,1,1.18,1.18V236.9A1.18,1.18,0,0,1,176.9,238.077Zm-3.538-2.359h2.359v-2.359h-2.359Z" transform="translate(707.129 113.916)" fill="#fff"/><path d="M180.9,238.077H176.18A1.18,1.18,0,0,1,175,236.9V232.18a1.18,1.18,0,0,1,1.18-1.18H180.9a1.18,1.18,0,0,1,1.18,1.18V236.9A1.18,1.18,0,0,1,180.9,238.077Zm-3.538-2.359h2.359v-2.359h-2.359Z" transform="translate(707.847 113.916)" fill="#fff"/><path d="M176.18,241.357a1.168,1.168,0,0,1-1.18-1.18,1.184,1.184,0,1,1,1.18,1.18Z" transform="translate(707.847 115.354)" fill="#fff"/><path d="M168.18,233.357a1.168,1.168,0,1,1,.837-.342A1.241,1.241,0,0,1,168.18,233.357Z" transform="translate(706.411 113.918)" fill="#fff"/><path d="M76.9,214.077a1.18,1.18,0,0,1-1.18-1.179,3.543,3.543,0,0,0-3.538-3.539,1.179,1.179,0,1,1,0-2.359,5.9,5.9,0,0,1,5.9,5.9A1.18,1.18,0,0,1,76.9,214.077Z" transform="translate(689.18 109.608)" fill="#fff"/><path d="M68.179,214.077A1.18,1.18,0,0,1,67,212.9a5.9,5.9,0,0,1,5.9-5.9,1.179,1.179,0,0,1,0,2.359,3.543,3.543,0,0,0-3.538,3.539A1.18,1.18,0,0,1,68.179,214.077Z" transform="translate(688.462 109.608)" fill="#fff"/><path d="M128.9,214.077a1.18,1.18,0,0,1-1.179-1.179,3.543,3.543,0,0,0-3.538-3.539,1.179,1.179,0,0,1,0-2.359,5.9,5.9,0,0,1,5.9,5.9A1.18,1.18,0,0,1,128.9,214.077Z" transform="translate(698.514 109.608)" fill="#fff"/><path d="M133.513,209.359H72.18a1.179,1.179,0,1,1,0-2.359h61.334a1.179,1.179,0,0,1,0,2.359Z" transform="translate(689.18 109.608)" fill="#fff"/><path d="M76.18,218.077A1.18,1.18,0,0,1,75,216.9V212.18a1.179,1.179,0,1,1,2.359,0V216.9A1.18,1.18,0,0,1,76.18,218.077Z" transform="translate(689.898 110.326)" fill="#fff"/><path d="M68.179,213.357a1.168,1.168,0,1,1,.837-.342A1.24,1.24,0,0,1,68.179,213.357Z" transform="translate(688.462 110.328)" fill="#fff"/><path d="M77.615,233.359H68.179a1.18,1.18,0,0,1,0-2.359h9.436a1.18,1.18,0,0,1,0,2.359Z" transform="translate(688.462 113.916)" fill="#fff"/><path d="M128.179,218.077A1.18,1.18,0,0,1,127,216.9V212.18a1.179,1.179,0,1,1,2.359,0V216.9A1.18,1.18,0,0,1,128.179,218.077Z" transform="translate(699.232 110.326)" fill="#fff"/><path d="M68.179,236.949A1.18,1.18,0,0,1,67,235.769V212.18a1.18,1.18,0,1,1,2.359,0v23.59A1.18,1.18,0,0,1,68.179,236.949Z" transform="translate(688.462 110.326)" fill="#fff"/><path d="M98.333,221.359H84.18a1.18,1.18,0,0,1,0-2.359H98.333a1.18,1.18,0,0,1,0,2.359Z" transform="translate(691.334 111.762)" fill="#fff"/><path d="M88.9,225.359H84.18a1.179,1.179,0,1,1,0-2.359H88.9a1.179,1.179,0,1,1,0,2.359Z" transform="translate(691.334 112.48)" fill="#fff"/><path d="M121.923,273.359H84.18a1.18,1.18,0,0,1,0-2.359h37.744a1.18,1.18,0,0,1,0,2.359Z" transform="translate(691.334 121.096)" fill="#fff"/><path d="M120.18,290.795a1.18,1.18,0,0,1-1.18-1.18V280.18a1.179,1.179,0,1,1,2.359,0v9.436A1.18,1.18,0,0,1,120.18,290.795Z" transform="translate(697.796 122.532)" fill="#fff"/><path d="M126.641,289.359H84.18a1.18,1.18,0,0,1,0-2.359h42.462a1.18,1.18,0,0,1,0,2.359Z" transform="translate(691.334 123.968)" fill="#fff"/><path d="M88.179,286.077A1.18,1.18,0,0,1,87,284.9V280.18a1.179,1.179,0,1,1,2.359,0V284.9A1.18,1.18,0,0,1,88.179,286.077Z" transform="translate(692.052 122.532)" fill="#fff"/><path d="M96.179,286.077A1.18,1.18,0,0,1,95,284.9V280.18a1.18,1.18,0,1,1,2.359,0V284.9A1.18,1.18,0,0,1,96.179,286.077Z" transform="translate(693.488 122.532)" fill="#fff"/><path d="M104.18,285.718a1.18,1.18,0,0,1-1.18-1.18v-2.359a1.179,1.179,0,1,1,2.359,0v2.359A1.18,1.18,0,0,1,104.18,285.718Z" transform="translate(694.924 122.891)" fill="#fff"/><path d="M112.179,286.077A1.18,1.18,0,0,1,111,284.9V280.18a1.18,1.18,0,0,1,2.359,0V284.9A1.18,1.18,0,0,1,112.179,286.077Z" transform="translate(696.36 122.532)" fill="#fff"/><path d="M116.18,285.538a1.18,1.18,0,0,1-1.18-1.179v-1.18a1.179,1.179,0,1,1,2.359,0v1.18A1.18,1.18,0,0,1,116.18,285.538Z" transform="translate(697.078 123.07)" fill="#fff"/><path d="M92.18,285.718A1.18,1.18,0,0,1,91,284.538v-2.359a1.179,1.179,0,1,1,2.359,0v2.359A1.18,1.18,0,0,1,92.18,285.718Z" transform="translate(692.77 122.891)" fill="#fff"/><path d="M100.179,286.795A1.18,1.18,0,0,1,99,285.615v-9.436a1.179,1.179,0,1,1,2.359,0v9.436A1.18,1.18,0,0,1,100.179,286.795Z" transform="translate(694.206 121.814)" fill="#fff"/><path d="M108.18,286.436A1.18,1.18,0,0,1,107,285.256v-7.077a1.179,1.179,0,1,1,2.359,0v7.077A1.18,1.18,0,0,1,108.18,286.436Z" transform="translate(695.642 122.173)" fill="#fff"/><path d="M103.051,265.359H84.18a1.179,1.179,0,1,1,0-2.359h18.872a1.179,1.179,0,1,1,0,2.359Z" transform="translate(691.334 119.66)" fill="#fff"/><path d="M113.615,265.359H104.18a1.179,1.179,0,1,1,0-2.359h9.436a1.179,1.179,0,1,1,0,2.359Z" transform="translate(694.924 119.66)" fill="#fff"/><path d="M84.18,292.231A1.18,1.18,0,0,1,83,291.051V272.179a1.18,1.18,0,1,1,2.359,0v18.872A1.18,1.18,0,0,1,84.18,292.231Z" transform="translate(691.334 121.096)" fill="#fff"/></g><g transform="translate(-20 -38)"><path d="M335.026,237.692v-2.359l-4.937-1.058a11.377,11.377,0,0,0-.436-1.61l3.751-3.387-1.18-2.043-4.811,1.555a11.9,11.9,0,0,0-1.176-1.176l1.555-4.811-2.043-1.18-3.388,3.75a11.713,11.713,0,0,0-1.611-.436L319.692,220h-2.359l-1.058,4.936a11.74,11.74,0,0,0-1.61.436l-3.388-3.75-2.043,1.18,1.555,4.811a11.9,11.9,0,0,0-1.176,1.176l-4.811-1.555-1.181,2.043,3.751,3.389a11.631,11.631,0,0,0-.436,1.609L302,235.332v2.36l4.936,1.057a11.648,11.648,0,0,0,.436,1.61l-3.751,3.389,1.181,2.043,4.811-1.555a12.023,12.023,0,0,0,1.175,1.176l-1.555,4.812,2.044,1.178,3.388-3.751a11.531,11.531,0,0,0,1.61.438l1.058,4.936h2.359l1.057-4.936a11.5,11.5,0,0,0,1.611-.438l3.388,3.751,2.043-1.18-1.555-4.811a11.916,11.916,0,0,0,1.177-1.176l4.81,1.553,1.18-2.042-3.751-3.388a11.347,11.347,0,0,0,.436-1.611Z" transform="translate(726.643 140.942)" fill="#4586ff"/><path d="M319.872,254.385h-2.359a1.18,1.18,0,0,1-1.154-.933l-.9-4.2c-.081-.021-.164-.044-.247-.067l-2.88,3.188a1.179,1.179,0,0,1-1.464.231l-2.045-1.178a1.18,1.18,0,0,1-.533-1.385l1.323-4.1c-.059-.058-.117-.117-.176-.176l-4.093,1.323a1.185,1.185,0,0,1-1.385-.532l-1.181-2.044a1.178,1.178,0,0,1,.231-1.465l3.189-2.883q-.035-.122-.067-.244l-4.2-.9a1.18,1.18,0,0,1-.932-1.154v-2.36a1.182,1.182,0,0,1,.932-1.154l4.2-.9c.021-.081.044-.163.067-.245l-3.189-2.882a1.178,1.178,0,0,1-.231-1.465l1.181-2.044a1.18,1.18,0,0,1,1.385-.532l4.094,1.323c.058-.06.117-.118.176-.177l-1.323-4.094a1.181,1.181,0,0,1,.533-1.385l2.043-1.18a1.185,1.185,0,0,1,1.465.231l2.88,3.189.247-.067.9-4.2a1.18,1.18,0,0,1,1.154-.933h2.359a1.18,1.18,0,0,1,1.154.933l.9,4.2.247.067,2.88-3.189a1.186,1.186,0,0,1,1.465-.231l2.043,1.181a1.179,1.179,0,0,1,.532,1.385l-1.322,4.093c.059.059.118.117.177.177l4.093-1.323a1.178,1.178,0,0,1,1.385.533l1.18,2.043a1.179,1.179,0,0,1-.231,1.465l-3.188,2.88c.022.083.046.165.066.246l4.2.9a1.179,1.179,0,0,1,.932,1.154v2.359a1.179,1.179,0,0,1-.933,1.154l-4.2.9c-.021.081-.045.164-.067.247l3.188,2.88a1.179,1.179,0,0,1,.231,1.465l-1.18,2.042a1.181,1.181,0,0,1-1.385.533l-4.092-1.322c-.059.06-.118.118-.178.177l1.322,4.093a1.179,1.179,0,0,1-.532,1.385l-2.043,1.18a1.179,1.179,0,0,1-1.465-.231l-2.88-3.188c-.083.024-.165.046-.247.067l-.9,4.2A1.18,1.18,0,0,1,319.872,254.385Zm-1.4-2.359h.451l.857-4a1.18,1.18,0,0,1,.932-.911,10.245,10.245,0,0,0,1.446-.394,1.184,1.184,0,0,1,1.262.324l2.748,3.043.392-.227-1.261-3.9a1.176,1.176,0,0,1,.35-1.254,10.551,10.551,0,0,0,1.058-1.058,1.18,1.18,0,0,1,1.253-.349l3.9,1.261.225-.39-3.042-2.748a1.183,1.183,0,0,1-.324-1.262,10.244,10.244,0,0,0,.393-1.446,1.183,1.183,0,0,1,.912-.932l4-.857v-.451l-4.006-.859a1.18,1.18,0,0,1-.911-.931,10.39,10.39,0,0,0-.393-1.447,1.182,1.182,0,0,1,.324-1.261l3.042-2.748-.225-.392-3.9,1.261a1.178,1.178,0,0,1-1.253-.349,10.691,10.691,0,0,0-1.059-1.059,1.176,1.176,0,0,1-.348-1.253l1.261-3.9-.392-.226-2.748,3.043a1.186,1.186,0,0,1-1.26.324,10.568,10.568,0,0,0-1.45-.394,1.182,1.182,0,0,1-.931-.911l-.857-4h-.451l-.859,4a1.179,1.179,0,0,1-.929.911,10.526,10.526,0,0,0-1.45.394,1.185,1.185,0,0,1-1.26-.324l-2.748-3.044-.392.226,1.262,3.9a1.179,1.179,0,0,1-.349,1.253,10.818,10.818,0,0,0-1.059,1.059,1.179,1.179,0,0,1-1.254.349l-3.9-1.261-.226.393,3.043,2.748a1.179,1.179,0,0,1,.324,1.26,10.476,10.476,0,0,0-.393,1.447,1.177,1.177,0,0,1-.911.931l-4,.857v.452l4,.857a1.18,1.18,0,0,1,.911.932,10.569,10.569,0,0,0,.393,1.447,1.18,1.18,0,0,1-.324,1.26l-3.043,2.748.226.393,3.9-1.262a1.179,1.179,0,0,1,1.254.349,10.673,10.673,0,0,0,1.058,1.059,1.179,1.179,0,0,1,.349,1.253l-1.262,3.905.392.225,2.749-3.043a1.184,1.184,0,0,1,1.262-.324,10.246,10.246,0,0,0,1.446.394,1.177,1.177,0,0,1,.931.911Z" transform="translate(726.464 140.762)" fill="#fff"/><path d="M321.436,234.718A4.718,4.718,0,1,1,316.718,230,4.717,4.717,0,0,1,321.436,234.718Z" transform="translate(728.438 142.736)" fill="#4586ff"/><path d="M316.9,240.8a5.9,5.9,0,1,1,5.9-5.9A5.9,5.9,0,0,1,316.9,240.8Zm0-9.437a3.539,3.539,0,1,0,3.538,3.54A3.544,3.544,0,0,0,316.9,231.358Z" transform="translate(728.259 142.557)" fill="#fff"/></g><rect width="4.718" height="4.718" transform="translate(912.335 444.429)" fill="#4586ff"/><g transform="translate(-4 22)"><rect width="23.59" height="42.462" rx="4" transform="translate(898.181 420.839)" fill="#4586ff"/><path d="M188,296h0Z" transform="translate(710.181 162.583)" fill="#4586ff"/><path d="M188,268h0Z" transform="translate(710.181 157.557)" fill="#4586ff"/><rect width="23.59" height="33.026" transform="translate(898.181 425.557)" fill="#4586ff"/><rect width="4.718" height="4.718" transform="translate(907.617 444.429)" fill="#4586ff"/><rect width="4.718" height="4.718" transform="translate(907.617 434.993)" fill="#4586ff"/><rect width="4.718" height="4.718" transform="translate(902.899 439.711)" fill="#4586ff"/><path d="M207.051,307.821H192.9a5.9,5.9,0,0,1-5.9-5.9V268.9a5.9,5.9,0,0,1,5.9-5.9h14.154a5.9,5.9,0,0,1,5.9,5.9v33.026A5.9,5.9,0,0,1,207.051,307.821ZM192.9,265.359a3.543,3.543,0,0,0-3.539,3.538v33.026a3.543,3.543,0,0,0,3.539,3.538h14.154a3.543,3.543,0,0,0,3.539-3.538V268.9a3.543,3.543,0,0,0-3.539-3.538Z" transform="translate(710.001 156.66)" fill="#fff"/><path d="M211.769,297.359h-23.59a1.179,1.179,0,1,1,0-2.359h23.59a1.179,1.179,0,1,1,0,2.359Z" transform="translate(710.001 162.404)" fill="#fff"/><path d="M211.769,269.359h-23.59a1.18,1.18,0,0,1,0-2.359h23.59a1.18,1.18,0,0,1,0,2.359Z" transform="translate(710.001 157.378)" fill="#fff"/><path d="M206.333,291.513H192.18a1.18,1.18,0,0,1-1.18-1.18V276.179a1.18,1.18,0,0,1,1.18-1.18h14.154a1.18,1.18,0,0,1,1.18,1.18v14.154A1.18,1.18,0,0,1,206.333,291.513Zm-12.974-2.359h11.795V277.359H193.359Z" transform="translate(710.719 158.814)" fill="#fff"/><path d="M196.18,291.513a1.18,1.18,0,0,1-1.179-1.18V276.179a1.179,1.179,0,1,1,2.359,0v14.154A1.18,1.18,0,0,1,196.18,291.513Z" transform="translate(711.437 158.814)" fill="#fff"/><path d="M200.179,291.513a1.18,1.18,0,0,1-1.18-1.18V276.179a1.18,1.18,0,1,1,2.359,0v14.154A1.18,1.18,0,0,1,200.179,291.513Z" transform="translate(712.155 158.814)" fill="#fff"/><path d="M206.333,281.359H192.18a1.18,1.18,0,1,1,0-2.359h14.154a1.18,1.18,0,1,1,0,2.359Z" transform="translate(710.719 159.532)" fill="#fff"/><path d="M206.333,285.359H192.18a1.179,1.179,0,1,1,0-2.359h14.154a1.179,1.179,0,1,1,0,2.359Z" transform="translate(710.719 160.25)" fill="#fff"/></g><g transform="translate(-18 -10)"><rect width="103.796" height="56.616" transform="translate(1171.824 360.224)" fill="#4586ff"/><rect width="4.718" height="4.718" transform="translate(1176.542 388.532)" fill="#4586ff"/><rect width="4.718" height="4.718" transform="translate(1185.978 388.532)" fill="#4586ff"/><rect width="4.718" height="4.718" transform="translate(1195.414 388.532)" fill="#4586ff"/><rect width="4.718" height="4.718" transform="translate(1204.849 388.532)" fill="#4586ff"/><rect width="4.718" height="4.718" transform="translate(1214.285 388.532)" fill="#4586ff"/><path d="M492.442,233.566A11.751,11.751,0,0,0,484,230v12.007Z" transform="translate(763.311 146.737)" fill="#4586ff"/><path d="M495.795,241.252a11.749,11.749,0,0,0-3.353-8.229L484,241.465l8.229,8.229A11.751,11.751,0,0,0,495.795,241.252Z" transform="translate(763.311 147.279)" fill="#4586ff"/><path d="M485.795,230a11.795,11.795,0,1,0,8.229,20.237l-8.229-8.229Z" transform="translate(761.516 146.737)" fill="#4586ff"/><path d="M524.514,212h-103.8A4.715,4.715,0,0,0,416,216.718v61.334H529.232V216.718A4.715,4.715,0,0,0,524.514,212Zm0,61.334h-103.8V216.718h103.8Z" transform="translate(751.106 143.506)" fill="#4586ff"/><path d="M529.232,268v9.436a4.715,4.715,0,0,1-4.718,4.718h-103.8A4.715,4.715,0,0,1,416,277.436V268Z" transform="translate(751.106 153.557)" fill="#4586ff"/><path d="M477.949,280h-23.59L452,298.872h28.308Z" transform="translate(757.568 155.711)" fill="#4586ff"/><path d="M529.411,269.359H416.18a1.18,1.18,0,1,1,0-2.359H529.411a1.18,1.18,0,1,1,0,2.359Z" transform="translate(750.926 153.378)" fill="#fff"/><path d="M524.693,283.513H420.9a5.9,5.9,0,0,1-5.9-5.9V268.18a1.18,1.18,0,1,1,2.359,0v9.436a3.543,3.543,0,0,0,3.539,3.539h103.8a3.543,3.543,0,0,0,3.539-3.539V268.18a1.179,1.179,0,1,1,2.359,0v9.436A5.9,5.9,0,0,1,524.693,283.513Z" transform="translate(750.926 153.378)" fill="#fff"/><path d="M480.487,300.231H452.18a1.178,1.178,0,0,1-1.17-1.326l2.359-18.872a1.18,1.18,0,0,1,1.17-1.033h23.59a1.179,1.179,0,0,1,1.17,1.033l2.359,18.872a1.178,1.178,0,0,1-1.17,1.326Zm-26.972-2.359h25.635l-2.064-16.513H455.58Z" transform="translate(757.388 155.532)" fill="#fff"/><path d="M491.359,302.077H444.18A1.179,1.179,0,0,1,443,300.9v-4.718A1.179,1.179,0,0,1,444.18,295h47.18a1.179,1.179,0,0,1,1.18,1.179V300.9A1.179,1.179,0,0,1,491.359,302.077Zm-46-2.359H490.18v-2.359H445.359Z" transform="translate(755.952 158.404)" fill="#fff"/><path d="M464.539,278.077a3.538,3.538,0,1,1,3.538-3.538A3.543,3.543,0,0,1,464.539,278.077Zm0-4.718a1.179,1.179,0,1,0,1.179,1.179A1.181,1.181,0,0,0,464.539,273.359Z" transform="translate(759.183 154.096)" fill="#fff"/><path d="M529.411,279.411H416.18a1.179,1.179,0,0,1-1.18-1.179V216.9a5.9,5.9,0,0,1,5.9-5.9h103.8a5.9,5.9,0,0,1,5.9,5.9v61.334A1.179,1.179,0,0,1,529.411,279.411Zm-112.052-2.359H528.232V216.9a3.543,3.543,0,0,0-3.539-3.538H420.9a3.543,3.543,0,0,0-3.539,3.538Zm107.334-2.359H420.9a1.179,1.179,0,0,1-1.18-1.18V216.9a1.179,1.179,0,0,1,1.18-1.18h103.8a1.179,1.179,0,0,1,1.18,1.18v56.616A1.179,1.179,0,0,1,524.693,274.693Zm-102.616-2.359H523.514V218.077H422.077Z" transform="translate(750.926 143.326)" fill="#fff"/><path d="M487.232,222.181a21.231,21.231,0,1,0,21.23,21.23A21.232,21.232,0,0,0,487.232,222.181Zm0,37.743a16.513,16.513,0,1,1,16.513-16.513A16.511,16.511,0,0,1,487.232,259.924Z" transform="translate(760.081 145.333)" fill="#4586ff"/><rect width="9.436" height="33.027" transform="matrix(0.707, -0.707, 0.707, 0.707, 1262.324, 411.43)" fill="#4586ff"/><path d="M487.411,266h0a22.41,22.41,0,0,1,0-44.821h0a22.41,22.41,0,0,1,0,44.821Zm0-42.462h0a20.051,20.051,0,1,0,14.178,5.873A20.074,20.074,0,0,0,487.411,223.54Z" transform="translate(759.901 145.154)" fill="#fff"/><path d="M486.693,260.565h0a17.692,17.692,0,1,1,17.695-17.692A17.71,17.71,0,0,1,486.691,260.565Zm0-33.026a15.333,15.333,0,1,0,15.333,15.333A15.353,15.353,0,0,0,486.693,227.539Z" transform="translate(760.619 145.871)" fill="#fff"/><path d="M520.26,284.294a1.178,1.178,0,0,1-.834-.346l-23.354-23.354a1.179,1.179,0,0,1,0-1.668l6.674-6.671a1.178,1.178,0,0,1,1.668,0l23.354,23.353a1.179,1.179,0,0,1,0,1.668l-6.673,6.672A1.176,1.176,0,0,1,520.26,284.294Zm-21.685-24.534,21.685,21.686,5-5L503.58,254.757Z" transform="translate(765.416 151.669)" fill="#fff"/><path d="M501.589,256.121a1.176,1.176,0,0,1-.834-.346l-2.879-2.879a1.179,1.179,0,0,1,1.668-1.668l2.879,2.879a1.179,1.179,0,0,1-.834,2.013Z" transform="translate(765.74 151.485)" fill="#fff"/><path d="M498.76,258.949a1.171,1.171,0,0,1-.834-.346l-2.878-2.878a1.179,1.179,0,0,1,1.668-1.668l2.878,2.878a1.179,1.179,0,0,1-.834,2.013Z" transform="translate(765.232 151.993)" fill="#fff"/><path d="M513.878,277.911a1.179,1.179,0,0,1-.834-2.013l6.672-6.672a1.179,1.179,0,0,1,1.668,1.668l-6.672,6.672A1.171,1.171,0,0,1,513.878,277.911Z" transform="translate(768.462 154.715)" fill="#fff"/><path d="M499.737,263.769a1.18,1.18,0,0,1-.834-2.013l6.672-6.672a1.179,1.179,0,0,1,1.668,1.668l-6.672,6.672A1.18,1.18,0,0,1,499.737,263.769Z" transform="translate(765.924 152.177)" fill="#fff"/><path d="M485.974,254.949a12.974,12.974,0,1,1,12.974-12.974A12.99,12.99,0,0,1,485.974,254.949Zm0-23.59a10.615,10.615,0,1,0,10.615,10.615A10.628,10.628,0,0,0,485.974,231.359Z" transform="translate(761.337 146.557)" fill="#fff"/><path d="M484.18,243.366a1.179,1.179,0,0,1-1.18-1.179V230.179a1.18,1.18,0,0,1,2.359,0v12.007A1.179,1.179,0,0,1,484.18,243.366Z" transform="translate(763.132 146.557)" fill="#fff"/><path d="M484.18,242.821a1.179,1.179,0,0,1-.834-2.013l8.423-8.422a1.179,1.179,0,0,1,1.668,1.668l-8.423,8.422A1.171,1.171,0,0,1,484.18,242.821Z" transform="translate(763.132 147.103)" fill="#fff"/><path d="M492.409,249.769a1.18,1.18,0,0,1-.834-.346l-8.229-8.231a1.179,1.179,0,0,1,1.668-1.668l8.23,8.23a1.18,1.18,0,0,1-.835,2.013Z" transform="translate(763.132 148.384)" fill="#fff"/><path d="M428.9,246.077h-4.718A1.179,1.179,0,0,1,423,244.9V240.18a1.179,1.179,0,0,1,1.18-1.18H428.9a1.179,1.179,0,0,1,1.18,1.18V244.9A1.179,1.179,0,0,1,428.9,246.077Zm-3.538-2.359h2.359v-2.359h-2.359Z" transform="translate(752.362 148.352)" fill="#fff"/><path d="M436.9,246.077H432.18A1.179,1.179,0,0,1,431,244.9V240.18a1.179,1.179,0,0,1,1.18-1.18H436.9a1.179,1.179,0,0,1,1.18,1.18V244.9A1.179,1.179,0,0,1,436.9,246.077Zm-3.539-2.359h2.359v-2.359h-2.359Z" transform="translate(753.798 148.352)" fill="#fff"/><path d="M444.9,246.077H440.18A1.179,1.179,0,0,1,439,244.9V240.18A1.179,1.179,0,0,1,440.18,239H444.9a1.179,1.179,0,0,1,1.18,1.18V244.9A1.179,1.179,0,0,1,444.9,246.077Zm-3.538-2.359h2.359v-2.359h-2.359Z" transform="translate(755.234 148.352)" fill="#fff"/><path d="M452.9,246.077H448.18A1.179,1.179,0,0,1,447,244.9V240.18a1.179,1.179,0,0,1,1.18-1.18H452.9a1.179,1.179,0,0,1,1.179,1.18V244.9A1.179,1.179,0,0,1,452.9,246.077Zm-3.539-2.359h2.359v-2.359h-2.359Z" transform="translate(756.67 148.352)" fill="#fff"/><path d="M460.9,246.077H456.18A1.179,1.179,0,0,1,455,244.9V240.18a1.179,1.179,0,0,1,1.18-1.18H460.9a1.179,1.179,0,0,1,1.179,1.18V244.9A1.179,1.179,0,0,1,460.9,246.077Zm-3.538-2.359h2.359v-2.359h-2.359Z" transform="translate(758.106 148.352)" fill="#fff"/><path d="M452.487,240.231H424.179a1.179,1.179,0,0,1-1.18-1.179V220.179a1.179,1.179,0,0,1,1.18-1.18h28.308a1.179,1.179,0,0,1,1.18,1.18v18.872A1.179,1.179,0,0,1,452.487,240.231Zm-27.128-2.359h25.949V221.359H425.359Z" transform="translate(752.362 144.762)" fill="#fff"/><path d="M424.179,234.077a1.179,1.179,0,1,1,0-2.359,3.543,3.543,0,0,0,3.539-3.538,1.179,1.179,0,1,1,2.359,0A5.9,5.9,0,0,1,424.179,234.077Z" transform="translate(752.362 146.198)" fill="#fff"/><path d="M428.18,230.077A1.179,1.179,0,0,1,427,228.9a5.9,5.9,0,0,1,5.9-5.9,1.179,1.179,0,0,1,0,2.359,3.543,3.543,0,0,0-3.539,3.539A1.179,1.179,0,0,1,428.18,230.077Z" transform="translate(753.08 145.48)" fill="#fff"/><path d="M436.9,230.077a1.179,1.179,0,0,1-1.18-1.179,3.543,3.543,0,0,0-3.538-3.539,1.179,1.179,0,1,1,0-2.359,5.9,5.9,0,0,1,5.9,5.9A1.179,1.179,0,0,1,436.9,230.077Z" transform="translate(753.798 145.48)" fill="#fff"/><path d="M440.9,234.077a5.9,5.9,0,0,1-5.9-5.9,1.18,1.18,0,1,1,2.359,0,3.543,3.543,0,0,0,3.538,3.538,1.179,1.179,0,1,1,0,2.359Z" transform="translate(754.516 146.198)" fill="#fff"/><path d="M440.18,234.077a1.179,1.179,0,0,1,0-2.359,3.543,3.543,0,0,0,3.539-3.538,1.18,1.18,0,1,1,2.359,0A5.9,5.9,0,0,1,440.18,234.077Z" transform="translate(755.234 146.198)" fill="#fff"/><path d="M444.18,230.077A1.179,1.179,0,0,1,443,228.9a5.9,5.9,0,0,1,5.9-5.9,1.179,1.179,0,1,1,0,2.359,3.543,3.543,0,0,0-3.538,3.539A1.179,1.179,0,0,1,444.18,230.077Z" transform="translate(755.952 145.48)" fill="#fff"/><path d="M461.616,237.359h-9.437a1.179,1.179,0,1,1,0-2.359h9.437a1.179,1.179,0,0,1,0,2.359Z" transform="translate(757.388 147.634)" fill="#fff"/><path d="M461.616,233.359h-9.437a1.18,1.18,0,0,1,0-2.359h9.437a1.18,1.18,0,0,1,0,2.359Z" transform="translate(757.388 146.916)" fill="#fff"/><path d="M461.616,229.359h-9.437a1.179,1.179,0,1,1,0-2.359h9.437a1.179,1.179,0,0,1,0,2.359Z" transform="translate(757.388 146.198)" fill="#fff"/><path d="M461.616,225.359h-9.437a1.179,1.179,0,1,1,0-2.359h9.437a1.179,1.179,0,0,1,0,2.359Z" transform="translate(757.388 145.48)" fill="#fff"/><path d="M461.616,221.359h-9.437a1.18,1.18,0,0,1,0-2.359h9.437a1.18,1.18,0,0,1,0,2.359Z" transform="translate(757.388 144.762)" fill="#fff"/><path d="M466.641,263.513H424.179a1.179,1.179,0,0,1-1.18-1.18V248.18a1.179,1.179,0,0,1,1.18-1.18h42.462a1.179,1.179,0,0,1,1.179,1.18v14.154A1.179,1.179,0,0,1,466.641,263.513Zm-41.282-2.359h40.1V249.359h-40.1Z" transform="translate(752.362 149.788)" fill="#fff"/><path d="M428.18,261.718a1.179,1.179,0,0,1-1.18-1.179V258.18a1.18,1.18,0,0,1,2.359,0v2.359A1.179,1.179,0,0,1,428.18,261.718Z" transform="translate(753.08 151.583)" fill="#fff"/><path d="M436.178,262.077A1.179,1.179,0,0,1,435,260.9v-4.718a1.179,1.179,0,1,1,2.359,0V260.9A1.179,1.179,0,0,1,436.178,262.077Z" transform="translate(754.516 151.224)" fill="#fff"/><path d="M432.18,262.795a1.179,1.179,0,0,1-1.18-1.18v-9.436a1.18,1.18,0,0,1,2.359,0v9.436A1.179,1.179,0,0,1,432.18,262.795Z" transform="translate(753.798 150.506)" fill="#fff"/><path d="M440.18,262.436a1.179,1.179,0,0,1-1.179-1.18v-7.077a1.179,1.179,0,1,1,2.359,0v7.077A1.179,1.179,0,0,1,440.18,262.436Z" transform="translate(755.234 150.865)" fill="#fff"/><path d="M456.18,262.436a1.179,1.179,0,0,1-1.18-1.18v-7.077a1.18,1.18,0,0,1,2.359,0v7.077A1.179,1.179,0,0,1,456.18,262.436Z" transform="translate(758.106 150.865)" fill="#fff"/><path d="M452.273,262.077a1.179,1.179,0,0,1-1.18-1.18v-4.718a1.179,1.179,0,1,1,2.359,0V260.9A1.18,1.18,0,0,1,452.273,262.077Z" transform="translate(757.405 151.224)" fill="#fff"/><path d="M448.18,262.795a1.179,1.179,0,0,1-1.18-1.18v-9.436a1.179,1.179,0,1,1,2.359,0v9.436A1.179,1.179,0,0,1,448.18,262.795Z" transform="translate(756.67 150.506)" fill="#fff"/><path d="M444.178,261.718a1.179,1.179,0,0,1-1.18-1.179V258.18a1.18,1.18,0,1,1,2.359,0v2.359A1.179,1.179,0,0,1,444.178,261.718Z" transform="translate(755.952 151.583)" fill="#fff"/></g></g></svg>