<svg xmlns="http://www.w3.org/2000/svg" width="100.961" height="83" viewBox="0 0 100.961 83"><g transform="translate(-57.445 -433.138)"><rect width="76.212" height="79.997" transform="translate(72.907 436.019)" fill="#fff"/><rect width="76.212" height="9.75" transform="translate(72.907 434.298)" fill="#dd8bb4"/><g transform="translate(72.896 433.138)"><path d="M140.268,445.211H64.1V433.138h76.169Zm-73.847-2.322h71.525V435.46H66.421Z" transform="translate(-64.099 -433.138)" fill="#1b2733"/></g><rect width="64.936" height="22.685" transform="translate(78.952 453.277)" fill="#bff6fa"/><rect width="16.636" height="16.636" transform="translate(79.203 478.551)" fill="#dd8bb4"/><path d="M68.512,436.391a1.151,1.151,0,1,1-1.149-1.149A1.151,1.151,0,0,1,68.512,436.391Z" transform="translate(11.59 2.782)" fill="#f1f2f2"/><path d="M70.605,436.391a1.151,1.151,0,1,1-1.149-1.149A1.151,1.151,0,0,1,70.605,436.391Z" transform="translate(14.357 2.782)" fill="#f1f2f2"/><path d="M72.7,436.391a1.151,1.151,0,1,1-1.152-1.149A1.152,1.152,0,0,1,72.7,436.391Z" transform="translate(17.124 2.782)" fill="#f1f2f2"/><g transform="translate(99.917 479.798)"><rect width="38.164" height="2.322" fill="#dd8bb4"/></g><g transform="translate(99.917 485.708)"><rect width="38.164" height="2.322" fill="#dd8bb4"/></g><g transform="translate(99.917 491.618)"><rect width="21.571" height="2.322" fill="#dd8bb4"/></g><path d="M86.4,483.067a8.351,8.351,0,0,1,16.7,0v.007H119.77v-1.493a2.621,2.621,0,0,0-2.617-2.622l-4.068-.016a18.8,18.8,0,0,0-2.436-5.868l2.879-2.882a2.624,2.624,0,0,0,.007-3.72l-2.155-2.157a2.634,2.634,0,0,0-3.72-.007l-2.884,2.882a18.654,18.654,0,0,0-5.859-2.434v-4.071a2.637,2.637,0,0,0-2.64-2.633H93.236a2.635,2.635,0,0,0-2.636,2.633v4.071a18.834,18.834,0,0,0-5.777,2.375l-2.863-2.889a2.622,2.622,0,0,0-3.722-.016l-2.169,2.141a2.636,2.636,0,0,0-.016,3.72l2.861,2.9a18.661,18.661,0,0,0-2.457,5.854l-4.068-.016a2.617,2.617,0,0,0-2.636,2.629l-.012,1.623H86.4Z" transform="translate(16.257 32.941)" fill="#dd8bb4"/><g transform="translate(84.837 489.834)"><path d="M71.563,483.745l-2.322-.019.012-1.623a3.753,3.753,0,0,1,1.124-2.689,3.674,3.674,0,0,1,2.684-1.091l3.156.012a19.72,19.72,0,0,1,1.895-4.514l-2.227-2.255a3.8,3.8,0,0,1,.03-5.362l2.169-2.141a3.882,3.882,0,0,1,5.362.023l2.229,2.25a19.847,19.847,0,0,1,4.428-1.823v-3.165a3.8,3.8,0,0,1,3.794-3.794h3.042a3.8,3.8,0,0,1,3.8,3.794v3.165a19.957,19.957,0,0,1,4.519,1.874l2.243-2.236a3.8,3.8,0,0,1,5.362,0l2.155,2.157a3.784,3.784,0,0,1-.012,5.366l-2.236,2.239a19.856,19.856,0,0,1,1.881,4.53l3.167.014a3.784,3.784,0,0,1,3.776,3.778v1.5h-2.322v-1.5a1.459,1.459,0,0,0-1.458-1.456l-5-.023-.2-.9a17.507,17.507,0,0,0-2.285-5.5l-.495-.785,3.534-3.539a1.463,1.463,0,0,0,.439-1.045,1.445,1.445,0,0,0-.43-1.036l-2.155-2.157a1.471,1.471,0,0,0-2.081,0l-3.541,3.534-.785-.5a17.457,17.457,0,0,0-5.494-2.283l-.9-.207v-4.995a1.477,1.477,0,0,0-1.479-1.472H93.9a1.473,1.473,0,0,0-1.472,1.472v5l-.908.2a17.664,17.664,0,0,0-5.422,2.232l-.785.488L81.8,465.721a1.5,1.5,0,0,0-2.076-.014l-2.176,2.148a1.472,1.472,0,0,0-.432,1.036,1.457,1.457,0,0,0,.425,1.04l3.513,3.56-.5.783a17.45,17.45,0,0,0-2.3,5.487l-.209.906-4.995-.021h-.014a1.43,1.43,0,0,0-1.022.418,1.463,1.463,0,0,0-.434,1.05Z" transform="translate(-69.241 -457.554)" fill="#1b2733"/></g><g transform="translate(72.895 475.017)"><path d="M73.639,492.294H64.1V451.173h2.322v38.8h7.218Z" transform="translate(-64.099 -451.173)" fill="#1b2733"/></g><g transform="translate(139.526 475.017)"><path d="M102.332,492.294H92.793v-2.322h7.217v-38.8h2.322Z" transform="translate(-92.793 -451.173)" fill="#1b2733"/></g><g transform="translate(79.264 480.782)"><path d="M69.163,485.406H66.841c0-.81.03-1.609.088-2.406l2.317.172Q69.163,484.28,69.163,485.406ZM128,484.512c-.023-.752-.074-1.493-.151-2.229l2.308-.244c.084.794.139,1.593.165,2.4ZM69.5,480.957l-2.294-.348c.121-.8.269-1.586.45-2.369l2.264.522C69.751,479.484,69.609,480.218,69.5,480.957Zm58.04-.887c-.137-.736-.3-1.463-.488-2.176l2.245-.594q.306,1.16.525,2.355ZM70.5,476.607l-2.218-.694q.362-1.156.808-2.271l2.157.861Q70.837,475.538,70.5,476.607Zm55.9-.85q-.366-1.055-.81-2.078l2.129-.924c.318.734.611,1.484.875,2.241Zm-54.246-3.3-2.083-1.024q.533-1.087,1.145-2.122l2,1.18Q72.647,471.457,72.154,472.462Zm52.47-.794q-.522-.986-1.117-1.93l1.962-1.238c.427.678.831,1.372,1.205,2.083Zm-50.2-3.053-1.9-1.331c.457-.657.94-1.3,1.449-1.923l1.8,1.47Q75.058,467.7,74.42,468.615Zm47.826-.72q-.669-.9-1.4-1.742l1.756-1.519q.787.912,1.5,1.876Zm-45.007-2.742-1.684-1.6q.829-.878,1.723-1.686l1.556,1.723C78.284,464.091,77.752,464.614,77.239,465.153Zm42.085-.629c-.532-.525-1.077-1.029-1.646-1.514l1.509-1.765q.916.78,1.769,1.628Zm-38.776-2.368-1.423-1.832q.951-.738,1.958-1.4l1.277,1.937Q81.429,461.473,80.548,462.155Zm35.382-.529q-.9-.658-1.855-1.249L115.3,458.4q1.024.634,2,1.34Zm-31.662-1.932-1.133-2.027q1.052-.589,2.15-1.094l.966,2.113C85.576,458.994,84.914,459.333,84.268,459.693Zm27.865-.423q-.993-.512-2.02-.952l.908-2.136q1.111.474,2.183,1.031Zm-23.82-1.449-.81-2.176c.75-.279,1.514-.534,2.292-.752l.636,2.229Q89.355,457.433,88.313,457.822Zm19.712-.3q-1.052-.352-2.143-.632l.576-2.25c.78.2,1.551.43,2.306.683ZM92.6,456.589l-.474-2.273c.783-.163,1.574-.293,2.378-.4l.3,2.3C94.06,456.317,93.327,456.438,92.6,456.589Zm11.1-.167c-.729-.128-1.465-.23-2.208-.3l.221-2.313c.808.079,1.6.186,2.392.325Zm-6.676-.4-.116-2.318q.836-.045,1.684-.044l.718.007-.044,2.322-.673-.007Q97.8,455.978,97.023,456.018Z" transform="translate(-66.841 -453.656)" fill="#414042"/></g><g transform="translate(57.445 453.846)"><rect width="27.678" height="2.322" fill="#1b2733"/></g><g transform="translate(66.264 460.138)"><rect width="18.698" height="2.322" fill="#1b2733"/></g><g transform="translate(120.827 467.912)"><rect width="18.699" height="2.322" fill="#1b2733"/></g><g transform="translate(141.601 467.912)"><rect width="16.804" height="2.322" fill="#1b2733"/></g><g transform="translate(130.177 461.136)"><rect width="23.4" height="2.322" fill="#1b2733"/></g><g transform="translate(87.521 460.138)"><rect width="12.396" height="2.322" fill="#1b2733"/></g></g></svg>