<svg xmlns="http://www.w3.org/2000/svg" width="91.696" height="105.293" viewBox="0 0 91.696 105.293"><g transform="translate(0.5 0.5)"><g transform="translate(0.145 18.686)"><path d="M.3,20.387v14.92l12.894,7.532,13.039-7.532V20.387L13.194,13Z" transform="translate(-0.01 -12.855)" fill="#a2dfff"/><path d="M26.469,20.287,13.574,12.9h-.29L.245,20.287c-.145,0-.145.145-.145.29V35.5c0,.145,0,.145.145.29l12.894,7.387h.29l12.894-7.387c.145,0,.145-.145.145-.29V20.432S26.469,20.287,26.469,20.287Zm-.435,14.92-12.6,7.243L.824,35.207V20.577l12.6-7.243,12.6,7.243Z" transform="translate(-0.1 -12.9)" fill="#1977cc"/></g><g transform="translate(0.145 18.686)"><path d="M.3,20.387,13.194,27.92l13.039-7.532L13.194,13Z" transform="translate(-0.01 -12.855)" fill="#fff"/><path d="M26.469,20.287,13.574,12.9h-.29L.245,20.287c-.145,0-.145.145-.145.29s0,.145.145.29l12.894,7.387h.29l12.894-7.387c.145,0,.145-.145.145-.29S26.469,20.287,26.469,20.287ZM13.284,27.675l-12.46-7.1,12.46-7.1,12.46,7.1Z" transform="translate(-0.1 -12.9)" fill="#1366ff"/></g><g transform="translate(32.164 0.29)"><path d="M22.3,7.832V22.607l13.039,7.532,12.895-7.532V7.832L35.339.3Z" transform="translate(-22.155 -0.155)" fill="#a2dfff"/><path d="M48.424,7.587,35.529.2h-.29L22.345,7.587c-.145,0-.145.145-.145.29V22.8c0,.145,0,.145.145.29l12.895,7.387h.29l12.894-7.387c.145,0,.145-.145.145-.29V7.877A.506.506,0,0,0,48.424,7.587Zm-.435,14.92-12.6,7.243-12.6-7.243V8.022L35.384.779l12.6,7.243Z" transform="translate(-22.2 -0.2)" fill="#1977cc"/><path d="M22.3,7.832,35.339,15.22,48.234,7.832,35.339.3Z" transform="translate(-22.155 -0.155)" fill="#fff"/><path d="M48.424,7.587,35.529.2h-.29L22.345,7.587c-.145,0-.145.145-.145.29s0,.145.145.29l12.895,7.387h.29L48.424,8.167c.145,0,.145-.145.145-.29A.506.506,0,0,0,48.424,7.587ZM35.384,14.975l-12.46-7.1,12.46-7.1,12.46,7.1Z" transform="translate(-22.2 -0.2)" fill="#1366ff"/></g><g transform="translate(32.019 73.729)"><path d="M22.3,58.487v14.92l13.039,7.387,12.895-7.387V58.487L35.339,51.1Z" transform="translate(-22.01 -50.81)" fill="#a2dfff"/><path d="M48.469,58.287,35.574,50.9h-.29L22.245,58.287c-.145,0-.145.145-.145.29V73.5c0,.145,0,.145.145.29l12.894,7.387h.29l12.895-7.387c.145,0,.145-.145.145-.29V58.577C48.613,58.432,48.469,58.432,48.469,58.287Zm-.435,15.065-12.6,7.243-12.6-7.243V58.722l12.6-7.243,12.6,7.243Z" transform="translate(-22.1 -50.9)" fill="#1977cc"/><path d="M22.3,58.487l13.039,7.387,12.895-7.387L35.339,51.1Z" transform="translate(-22.01 -50.81)" fill="#fff"/><path d="M48.469,58.287,35.574,50.9h-.29L22.245,58.287c-.145,0-.145.145-.145.29s0,.145.145.29l12.894,7.387h.29l12.895-7.387c.145,0,.145-.145.145-.29ZM35.429,65.675l-12.46-7.1,12.46-7.1,12.46,7.1Z" transform="translate(-22.1 -50.9)" fill="#1366ff"/></g><g transform="translate(32.164 37.082)"><path d="M22.3,33.087v14.92l13.039,7.532,12.895-7.532V33.087L35.339,25.7Z" transform="translate(-22.155 -25.555)" fill="#a2dfff"/><path d="M48.424,32.987,35.529,25.6h-.29L22.345,32.987c-.145,0-.145.145-.145.29V48.2c0,.145,0,.145.145.29l12.895,7.387h.29l12.894-7.387c.145,0,.145-.145.145-.29V33.132Zm-.435,14.92-12.6,7.243-12.6-7.243V33.277l12.6-7.243,12.6,7.243Z" transform="translate(-22.2 -25.6)" fill="#1977cc"/><path d="M22.3,33.087,35.339,40.62l12.895-7.532L35.339,25.7Z" transform="translate(-22.155 -25.555)" fill="#fff"/><path d="M48.424,32.987,35.529,25.6h-.29L22.345,32.987c-.145,0-.145.145-.145.29s0,.145.145.29l12.895,7.387h.29l12.894-7.387c.145,0,.145-.145.145-.29A.506.506,0,0,0,48.424,32.987ZM35.384,40.375l-12.46-7.1,12.46-7.1,12.46,7.1Z" transform="translate(-22.2 -25.6)" fill="#1366ff"/></g><g transform="translate(0.29 55.478)"><path d="M.3,45.787v14.92l12.894,7.387,13.039-7.387V45.787L13.194,38.4Z" transform="translate(-0.155 -38.255)" fill="#a2dfff"/><path d="M26.424,45.687,13.529,38.3h-.29L.345,45.687c-.145,0-.145.145-.145.29V60.9c0,.145,0,.145.145.29l12.894,7.387h.29l12.894-7.387c.145,0,.145-.145.145-.29V45.832Zm-.435,14.92-12.6,7.243L.78,60.607V45.977l12.6-7.243,12.6,7.243Z" transform="translate(-0.2 -38.3)" fill="#1977cc"/></g><g transform="translate(0.145 62.865)"><path d="M.3,58.42l12.894,7.387V51.032L.3,43.5Z" transform="translate(-0.01 -43.355)" fill="#6ebdff"/><path d="M13.429,50.787.535,43.4H.245C.1,43.4.1,43.545.1,43.69v14.92c0,.145,0,.145.145.29l12.894,7.387h.29c.145,0,.145-.145.145-.29V51.077C13.574,50.932,13.574,50.787,13.429,50.787Zm-.29,14.63L.68,58.32V43.979l12.46,7.1Z" transform="translate(-0.1 -43.4)" fill="#1977cc"/></g><g transform="translate(0.145 26.073)"><path d="M.3,33.02l12.894,7.532V25.632L.3,18.1Z" transform="translate(-0.01 -17.955)" fill="#6ebdff"/><path d="M13.429,25.387.535,18H.245C.1,18,.1,18.145.1,18.29v14.92c0,.145,0,.145.145.29l12.894,7.387h.29c.145,0,.145-.145.145-.29V25.677C13.574,25.532,13.574,25.532,13.429,25.387Zm-.29,14.775L.68,33.064V18.724l12.46,7.1Z" transform="translate(-0.1 -18)" fill="#1366ff"/></g><g transform="translate(32.164 44.614)"><g transform="translate(0 36.647)"><path d="M22.4,71.075l12.894,7.532V63.687L22.4,56.3Z" transform="translate(-22.11 -56.01)" fill="#6ebdff"/><path d="M35.529,63.487,22.635,56.1h-.29c-.145,0-.145.145-.145.29v14.92c0,.145,0,.145.145.29l12.895,7.387h.29c.145,0,.145-.145.145-.29V63.777C35.674,63.632,35.674,63.632,35.529,63.487Zm-.29,14.775-12.46-7.1V56.824l12.46,7.1Z" transform="translate(-22.2 -56.1)" fill="#1366ff"/></g><path d="M22.4,45.82l12.894,7.387V38.287L22.4,30.9Z" transform="translate(-22.11 -30.755)" fill="#6ebdff"/><path d="M35.529,38.187,22.635,30.8h-.29c-.145,0-.145.145-.145.29v14.92c0,.145,0,.145.145.29l12.895,7.387h.29c.145,0,.145-.145.145-.29V38.332A.142.142,0,0,0,35.529,38.187Zm-.29,14.63-12.46-7.1V31.379l12.46,7.1Z" transform="translate(-22.2 -30.8)" fill="#1366ff"/></g><g transform="translate(0.29 55.478)"><path d="M.3,45.787,13.194,53.32l13.039-7.532L13.194,38.4Z" transform="translate(-0.155 -38.255)" fill="#fff"/><path d="M26.424,45.687,13.529,38.3h-.29L.345,45.687c-.145,0-.145.145-.145.29s0,.145.145.29l12.894,7.387h.29l12.894-7.387c.145,0,.145-.145.145-.29A.506.506,0,0,0,26.424,45.687ZM13.239,52.93.78,45.832l12.46-7.1,12.46,7.1Z" transform="translate(-0.2 -38.3)" fill="#1366ff"/></g><g transform="translate(13.039 70.253)"><line y1="14.775" transform="translate(0.29 0.29)" fill="#a2dfff"/><path d="M9.29,48.5a.312.312,0,0,0-.29.29v14.92a.29.29,0,0,0,.58,0V48.79A.312.312,0,0,0,9.29,48.5Z" transform="translate(-9 -48.5)" fill="#1366ff"/></g><path d="M52.75,25.72l-12.6,7.243c-.145,0-.145.145-.145.29s.145.145.29.145h.145l12.6-7.243a.532.532,0,0,0,.145-.435C53.039,25.72,52.75,25.575,52.75,25.72Z" transform="translate(17.953 11.507)" fill="#1366ff"/><g transform="translate(63.893 18.686)"><path d="M44.3,20.387v14.92l13.039,7.532,12.895-7.532V20.387L57.339,13Z" transform="translate(-44.01 -12.855)" fill="#a2dfff"/><path d="M70.469,20.287,57.574,12.9h-.29L44.245,20.287c-.145,0-.145.145-.145.29V35.5c0,.145,0,.145.145.29l12.894,7.387h.29l12.895-7.387c.145,0,.145-.145.145-.29V20.432C70.613,20.432,70.469,20.287,70.469,20.287Zm-.435,14.92-12.6,7.243-12.6-7.243V20.577l12.6-7.243,12.6,7.243Z" transform="translate(-44.1 -12.9)" fill="#1977cc"/><path d="M44.3,20.387,57.339,27.92l12.895-7.532L57.339,13Z" transform="translate(-44.01 -12.855)" fill="#fff"/><path d="M70.469,20.287,57.574,12.9h-.29L44.245,20.287c-.145,0-.145.145-.145.29s0,.145.145.29l12.894,7.387h.29l12.895-7.387c.145,0,.145-.145.145-.29A.2.2,0,0,0,70.469,20.287ZM57.429,27.675l-12.46-7.1,12.46-7.1,12.46,7.1Z" transform="translate(-44.1 -12.9)" fill="#1366ff"/></g><g transform="translate(64.038 55.478)"><path d="M44.3,45.787v14.92l13.039,7.387,12.895-7.387V45.787L57.339,38.4Z" transform="translate(-44.155 -38.255)" fill="#a2dfff"/><path d="M70.424,45.687,57.529,38.3h-.29L44.345,45.687c-.145,0-.145.145-.145.29V60.9c0,.145,0,.145.145.29l12.894,7.387h.29l12.895-7.387c.145,0,.145-.145.145-.29V45.832A.142.142,0,0,0,70.424,45.687Zm-.435,14.92-12.6,7.243-12.6-7.243V45.977l12.6-7.243,12.6,7.243Z" transform="translate(-44.2 -38.3)" fill="#1977cc"/><path d="M44.3,45.787,57.339,53.32l12.895-7.532L57.339,38.4Z" transform="translate(-44.155 -38.255)" fill="#fff"/><path d="M70.424,45.687,57.529,38.3h-.29L44.345,45.687c-.145,0-.145.145-.145.29s0,.145.145.29l12.894,7.387h.29l12.895-7.387c.145,0,.145-.145.145-.29A.506.506,0,0,0,70.424,45.687ZM57.384,52.93l-12.46-7.1,12.46-7.1,12.46,7.1Z" transform="translate(-44.2 -38.3)" fill="#1366ff"/></g><g transform="translate(63.893 26.073)"><g transform="translate(0.145 36.792)"><path d="M44.3,58.42l13.039,7.387V51.032L44.3,43.5Z" transform="translate(-44.155 -43.355)" fill="#6ebdff"/><path d="M57.529,50.787,44.635,43.4h-.29c-.145,0-.145.145-.145.29v14.92c0,.145,0,.145.145.29l12.894,7.387h.29c.145,0,.145-.145.145-.29V51.077A.449.449,0,0,1,57.529,50.787Zm-.435,14.63-12.46-7.1V43.979l12.46,7.1Z" transform="translate(-44.2 -43.4)" fill="#1366ff"/></g><path d="M44.3,33.02l13.039,7.532V25.632L44.3,18.1Z" transform="translate(-44.01 -17.955)" fill="#6ebdff"/><path d="M57.574,25.387,44.535,18h-.29c-.145,0-.145.145-.145.29v14.92c0,.145,0,.145.145.29l12.894,7.387h.29c.145,0,.145-.145.145-.29V25.677C57.574,25.532,57.574,25.532,57.574,25.387Zm-.435,14.775-12.46-7.1V18.724l12.46,7.1Z" transform="translate(-44.1 -18)" fill="#1366ff"/></g><g transform="translate(32.019 7.677)"><path d="M22.3,20.275l13.039,7.532V12.887L22.3,5.5Z" transform="translate(-22.01 -5.21)" fill="#6ebdff"/><path d="M35.429,12.687,22.535,5.3h-.29c-.145,0-.145.145-.145.29v14.92c0,.145,0,.145.145.29l12.894,7.387h.29c.145,0,.145-.145.145-.29V12.977C35.574,12.832,35.574,12.832,35.429,12.687Zm-.29,14.775-12.46-7.1V6.024l12.46,7.1Z" transform="translate(-22.1 -5.3)" fill="#1366ff"/></g><g transform="translate(13.039 18.88)"><g transform="translate(38.189 36.682)"><path d="M48.458,45.661l-12.6-7.243c-.145-.145-.29,0-.435.145s0,.29.145.435l12.6,7.243h.145c.145,0,.145,0,.29-.145C48.6,45.806,48.6,45.661,48.458,45.661Z" transform="translate(-35.359 -38.359)" fill="#1b2733" stroke="#1b2733" stroke-linecap="round" stroke-linejoin="round" stroke-width="1"/></g><path d="M31.39,46h0a.312.312,0,0,0-.29.29v14.2a.312.312,0,0,0,.29.29h0a.312.312,0,0,0,.29-.29l.145-14.2C31.68,46.145,31.68,46,31.39,46Z" transform="translate(0.919 1.751)" fill="#1b2733" stroke="#1b2733" stroke-linecap="round" stroke-linejoin="round" stroke-width="1"/><path d="M26.558,58.406l-12.6-7.387c-.145-.145-.29,0-.435.145s0,.29.145.435l12.6,7.387h.145c.145,0,.145,0,.29-.145C26.7,58.7,26.7,58.406,26.558,58.406Z" transform="translate(-6.999 3.975)" fill="#1b2733" stroke="#1b2733" stroke-linecap="round" stroke-linejoin="round" stroke-width="1"/><g transform="translate(13.039 36.634)"><path d="M30.6,38.434,18,45.676v.29c0,.145.145.145.29.145h.145l12.6-7.243a.532.532,0,0,0,.145-.435C30.894,38.289,30.75,38.289,30.6,38.434Z" transform="translate(-18 -38.325)" fill="#1b2733" stroke="#1b2733" stroke-linecap="round" stroke-linejoin="round" stroke-width="1"/></g><g transform="translate(31.874 11.249)"><path d="M31.435,20.8a.312.312,0,0,0-.29.29L31,35.285a.312.312,0,0,0,.29.29h0a.312.312,0,0,0,.29-.29l.145-14.2C31.724,20.8,31.724,20.8,31.435,20.8Z" transform="translate(-31 -20.8)" fill="#1b2733" stroke="#1b2733" stroke-linecap="round" stroke-linejoin="round" stroke-width="1"/></g><g transform="translate(0 18.286)"><path d="M26.458,32.961l-12.6-7.243c-.145-.145-.29,0-.435.145s0,.29.145.435l12.6,7.243h.145c.145,0,.145,0,.29-.145C26.6,33.106,26.6,32.961,26.458,32.961Z" transform="translate(-7.044 -25.659)" fill="#1b2733" stroke="#1b2733" stroke-linecap="round" stroke-linejoin="round" stroke-width="1"/><path d="M9.29,33.4h0a.312.312,0,0,0-.29.29l.145,14.2a.312.312,0,0,0,.29.29h0a.312.312,0,0,0,.29-.29L9.58,33.69A.312.312,0,0,0,9.29,33.4Z" transform="translate(-9 -22.186)" fill="#1b2733" stroke="#1b2733" stroke-linecap="round" stroke-linejoin="round" stroke-width="1"/></g><path d="M30.75,13.129l-12.6,7.243a.532.532,0,0,0-.145.435c0,.145.145.145.29.145h.145l12.6-7.243a.532.532,0,0,0,.145-.435C31.039,12.985,30.894,12.985,30.75,13.129Z" transform="translate(-4.961 -13.034)" fill="#1b2733" stroke="#1b2733" stroke-linecap="round" stroke-linejoin="round" stroke-width="1"/><g transform="translate(38.189 0.035)"><path d="M53.435,33.4a.312.312,0,0,0-.29.29L53,47.74a.312.312,0,0,0,.29.29h0a.312.312,0,0,0,.29-.29l.145-14.2C53.58,33.545,53.58,33.4,53.435,33.4Z" transform="translate(-27.441 -3.935)" fill="#1b2733" stroke="#1b2733" stroke-linecap="round" stroke-linejoin="round" stroke-width="1"/><path d="M52.6,51.02l-12.46,7.243A.532.532,0,0,0,40,58.7c0,.145.145.145.29.145h.145l12.46-7.387a.532.532,0,0,0,.145-.435C52.895,51.02,52.6,50.875,52.6,51.02Z" transform="translate(-33.275 3.939)" fill="#1b2733" stroke="#1b2733" stroke-linecap="round" stroke-linejoin="round" stroke-width="1"/><path d="M48.458,20.361l-12.6-7.243c-.145-.145-.29,0-.435.145s0,.29.145.435l12.6,7.243h.145c.145,0,.145,0,.29-.145C48.6,20.506,48.6,20.361,48.458,20.361Z" transform="translate(-35.359 -13.059)" fill="#1b2733" stroke="#1b2733" stroke-linecap="round" stroke-linejoin="round" stroke-width="1"/></g></g><path d="M26.513,20.221,13.619,12.834a.272.272,0,0,0-.435,0L.29,20.221a.312.312,0,0,0-.29.29V35.43c0,.145.145.29.29.435l12.894,7.387h.58l12.894-7.387c.145-.145.29-.29.29-.435V20.511C26.8,20.366,26.658,20.221,26.513,20.221Zm-.58,15.064-12.46,7.243L1.014,35.286V20.945L13.474,13.7l12.46,7.243Z" transform="translate(0 5.707)" fill="#1b2733" stroke="#1b2733" stroke-linecap="round" stroke-linejoin="round" stroke-width="1"/><path d="M26.513,45.521,13.619,38.134a.272.272,0,0,0-.435,0L.29,45.521c-.145.145-.29.29-.29.435v14.92c0,.145.145.29.29.435L13.184,68.7h.58L26.658,61.31c.145-.145.29-.29.29-.435V45.956Zm-.58,15.064-12.46,7.243L1.014,60.586V46.245L13.474,39l12.46,7.243Z" transform="translate(0 17.055)" fill="#1b2733" stroke="#1b2733" stroke-linecap="round" stroke-linejoin="round" stroke-width="1"/><path d="M70.513,20.221,57.619,12.834a.272.272,0,0,0-.435,0L44.29,20.221a.312.312,0,0,0-.29.29V35.43c0,.145.145.29.29.435l12.894,7.387h.58l12.894-7.387c.145-.145.29-.29.29-.435V20.511C70.8,20.366,70.658,20.221,70.513,20.221Zm-.58,15.064-12.46,7.243-12.46-7.243V20.945L57.474,13.7l12.46,7.243Z" transform="translate(19.748 5.707)" fill="#1b2733" stroke="#1b2733" stroke-linecap="round" stroke-linejoin="round" stroke-width="1"/><path d="M70.513,45.521,57.619,38.134a.272.272,0,0,0-.435,0L44.29,45.521c-.145.145-.29.29-.29.435v14.92c0,.145.145.29.29.435L57.184,68.7h.58L70.658,61.31c.145-.145.29-.29.29-.435V45.956Zm-.58,15.064-12.46,7.243-12.46-7.243V46.245L57.474,39l12.46,7.243Z" transform="translate(19.748 17.055)" fill="#1b2733" stroke="#1b2733" stroke-linecap="round" stroke-linejoin="round" stroke-width="1"/><path d="M48.513,7.532,35.619,0h-.435L22.29,7.387a.753.753,0,0,0-.29.579v14.92c0,.145.145.29.29.435l12.894,7.387h.58l12.894-7.387c.145-.145.29-.29.29-.435V7.967Q48.731,7.532,48.513,7.532ZM47.934,22.6l-12.46,7.243L23.014,22.6V8.112L35.474.869l12.46,7.243Z" transform="translate(9.874)" fill="#1b2733" stroke="#1b2733" stroke-linecap="round" stroke-linejoin="round" stroke-width="1"/><path d="M48.513,32.921,35.619,25.534a.272.272,0,0,0-.435,0L22.29,32.921c-.145.145-.29.29-.29.435v14.92c0,.145.145.29.29.435L35.184,56.1h.58L48.658,48.71c.145-.145.29-.29.29-.435V33.211C48.8,33.066,48.658,32.921,48.513,32.921Zm-.58,14.92-12.46,7.243-12.46-7.243V33.5l12.46-7.243L47.934,33.5Z" transform="translate(9.874 11.403)" fill="#1b2733" stroke="#1b2733" stroke-linecap="round" stroke-linejoin="round" stroke-width="1"/><path d="M48.613,58.321,35.719,50.934a.272.272,0,0,0-.435,0L22.39,58.321c-.145.145-.29.29-.29.435v14.92c0,.145.145.29.29.435L35.284,81.5h.58L48.758,74.11c.145-.145.29-.29.29-.435V58.756Q48.831,58.321,48.613,58.321Zm-.58,15.064-12.46,7.243-12.46-7.243V59.045L35.574,51.8l12.46,7.243Z" transform="translate(9.919 22.795)" fill="#1b2733" stroke="#1b2733" stroke-linecap="round" stroke-linejoin="round" stroke-width="1"/></g></svg>