<svg xmlns="http://www.w3.org/2000/svg" width="102.197" height="90.5" viewBox="0 0 102.197 90.5"><g transform="translate(-318.346 -429.233)"><g transform="translate(349.224 464.514)"><path d="M332.073,497.132v-49.94a2.353,2.353,0,0,1,2.346-2.344h39.739a2.353,2.353,0,0,1,2.346,2.344v49.94Z" transform="translate(-330.908 -443.679)" fill="#fff"/><g transform="translate(0 36.549)"><rect width="2.334" height="17.503" fill="#1b2733"/></g><g transform="translate(21.518)"><path d="M366.038,498.494H363.7V447.26a.586.586,0,0,0-.579-.579H340.792v-2.334h22.332a2.917,2.917,0,0,1,2.913,2.913Z" transform="translate(-340.792 -444.347)" fill="#1b2733"/></g><g transform="translate(17.712 4.786)"><rect width="11.375" height="2.334" fill="#1b2733"/></g><rect width="37.61" height="43.33" transform="translate(4.576 9.915)" fill="#bff6fa"/></g><g transform="translate(345.809 433.25)"><path d="M333.409,437.548a3.3,3.3,0,1,1,3.3-3.3A3.3,3.3,0,0,1,333.409,437.548Zm0-4.26a.963.963,0,1,0,.962.962A.962.962,0,0,0,333.409,433.288Z" transform="translate(-330.111 -430.954)" fill="#1b2733"/></g><g transform="translate(384.729 429.233)"><path d="M351.023,437.714a4.24,4.24,0,1,1,4.241-4.241A4.244,4.244,0,0,1,351.023,437.714Zm0-6.146a1.906,1.906,0,1,0,1.907,1.9A1.907,1.907,0,0,0,351.023,431.567Z" transform="translate(-346.784 -429.233)" fill="#1b2733"/></g><g transform="translate(404.076 444.81)"><path d="M358.37,442.5a3.3,3.3,0,1,1,3.3-3.3A3.3,3.3,0,0,1,358.37,442.5Zm0-4.26a.963.963,0,1,0,.962.962A.962.962,0,0,0,358.37,438.24Z" transform="translate(-355.072 -435.906)" fill="#1b2733"/></g><g transform="translate(366.293 443.283)"><path d="M343.713,444.9a4.824,4.824,0,1,1,4.823-4.825A4.832,4.832,0,0,1,343.713,444.9Zm0-7.313a2.49,2.49,0,1,0,2.488,2.488A2.493,2.493,0,0,0,343.713,437.586Z" transform="translate(-338.886 -435.252)" fill="#1b2733"/></g><path d="M369.334,486.307l-2.472-13.376a25.446,25.446,0,1,0-9.7,11.142Z" transform="translate(0 10.668)" fill="#dd8bb4"/><g transform="translate(336.297 461.596)"><path d="M332.962,466.428v-2.054a12.217,12.217,0,0,1-6.926-3.07l2.056-2.449a9.717,9.717,0,0,0,4.869,2.449v-5.46a11.477,11.477,0,0,1-4.659-2,4.525,4.525,0,0,1-1.478-3.674,5.132,5.132,0,0,1,1.7-3.982,6.9,6.9,0,0,1,4.435-1.69V443.1h1.8v1.436a11.764,11.764,0,0,1,5.855,2.11l-1.83,2.589a9.079,9.079,0,0,0-4.024-1.632v5.29h.084a11.4,11.4,0,0,1,4.755,2.057,4.654,4.654,0,0,1,1.522,3.758,5.112,5.112,0,0,1-1.746,4.01,7.268,7.268,0,0,1-4.615,1.688v2.026Zm-1.986-18.168a2.02,2.02,0,0,0-.717,1.576,1.983,1.983,0,0,0,.563,1.491,5.687,5.687,0,0,0,2.141,1.057v-4.872A3.4,3.4,0,0,0,330.975,448.26ZM336.9,460.6a2.174,2.174,0,0,0,.17-3.2,6.2,6.2,0,0,0-2.309-1.083v5.068A3.911,3.911,0,0,0,336.9,460.6Z" transform="translate(-326.036 -443.097)" fill="#1b2733"/></g><g transform="translate(337.55 517.399)"><rect width="67.216" height="2.334" fill="#1b2733"/></g><g transform="translate(379.898 446.939)"><rect width="21.426" height="2.334" fill="#1b2733"/></g><g transform="translate(387.51 455.893)"><rect width="33.033" height="2.334" fill="#1b2733"/></g><g transform="translate(371.119 455.893)"><rect width="11.66" height="2.334" fill="#1b2733"/></g></g></svg>