<svg xmlns="http://www.w3.org/2000/svg" width="300" height="140.761" viewBox="0 0 300 140.761"><g transform="translate(-1034.541 -603.974)"><g transform="translate(1034.541 603.974)"><g transform="translate(0.935 21.974)"><path d="M1148.045,708.841a22.955,22.955,0,0,0,.166-2.66,22.425,22.425,0,0,0-28.549-21.628,32.981,32.981,0,0,0-65.65,4.516c0,.074.005.147.005.22a20.125,20.125,0,0,0,2.3,40.119h90.531a.225.225,0,0,1,.014-.046c.29.025.577.046.868.046a10.285,10.285,0,0,0,.316-20.566Z" transform="translate(-1036.194 -656.091)" fill="#3ddaff"/></g><g transform="translate(141.517 50.538)"><g transform="translate(28.832)"><path d="M1341.408,710.256a2.009,2.009,0,1,0-2.009,2.008A2.009,2.009,0,0,0,1341.408,710.256Z" transform="translate(-1336.456 -707.313)" fill="#fff"/><path d="M1338.681,712.482a2.944,2.944,0,1,1,2.943-2.943A2.946,2.946,0,0,1,1338.681,712.482Zm0-4.018a1.074,1.074,0,1,0,1.074,1.075A1.075,1.075,0,0,0,1338.681,708.464Z" transform="translate(-1335.738 -706.595)" fill="#282d33"/></g><g transform="translate(0 2.287)"><line x1="25.148" transform="translate(0 0.935)" fill="#fff"/><rect width="25.148" height="1.869" fill="#282d33"/></g></g><g transform="translate(124.561 70.194)"><rect width="4.596" height="4.596" transform="translate(1.322 4.572) rotate(-45)" fill="#fff"/><path d="M1259.352,750.494l-4.572-4.572,4.572-4.572,4.572,4.572Zm-1.928-4.572,1.928,1.928,1.928-1.928-1.928-1.929Z" transform="translate(-1254.78 -741.35)" fill="#282d33"/></g><g transform="translate(134.72 73.832)"><line x2="14.019" transform="translate(0 0.935)" fill="#fff"/><rect width="14.019" height="1.869" fill="#282d33"/></g><g transform="translate(103.799 55.903)"><rect width="17.701" height="1.869" fill="#282d33"/><g transform="translate(21.071)"><rect width="5.899" height="1.869" fill="#282d33"/></g></g><g transform="translate(118.152 60.342)"><rect width="14.511" height="1.869" fill="#282d33"/><g transform="translate(17.274)"><rect width="4.836" height="1.869" fill="#282d33"/></g></g><g transform="translate(108.018 80.07)"><g transform="translate(2.492)"><rect width="1.869" height="6.854" fill="#282d33"/></g><g transform="translate(0 2.492)"><rect width="6.853" height="1.869" fill="#282d33"/></g></g><g transform="translate(138.392 83.341)"><g transform="translate(2.492)"><rect width="1.869" height="6.854" fill="#282d33"/></g><g transform="translate(0 2.492)"><rect width="6.853" height="1.869" fill="#282d33"/></g></g><g transform="translate(160.831 36.036)"><g transform="translate(2.492)"><rect width="1.869" height="6.854" fill="#282d33"/></g><g transform="translate(0 2.492)"><rect width="6.853" height="1.869" fill="#282d33"/></g></g><g transform="translate(147.695 67.581)"><g transform="translate(0 0)"><rect width="0.935" height="1.869" fill="#282d33"/></g><g transform="translate(2.742)"><path d="M1324.021,738.6h-1.807v-1.869h1.807Zm-3.614,0H1318.6v-1.869h1.807Zm-3.613,0h-1.807v-1.869h1.807Zm-3.614,0h-1.807v-1.869h1.807Zm-3.614,0h-1.807v-1.869h1.807Zm-3.614,0h-1.807v-1.869h1.807Zm-3.613,0h-1.807v-1.869h1.807Z" transform="translate(-1300.532 -736.729)" fill="#282d33"/></g><g transform="translate(28.038 0)"><rect width="0.935" height="1.869" fill="#282d33"/></g></g><g transform="translate(110.674 46.552)"><g transform="translate(0 0)"><rect width="0.935" height="1.869" fill="#282d33"/></g><g transform="translate(2.72)"><path d="M1268.954,701.417h-1.785v-1.869h1.785Zm-3.571,0H1263.6v-1.869h1.785Zm-3.57,0h-1.785v-1.869h1.785Zm-3.57,0h-1.786v-1.869h1.786Zm-3.57,0h-1.786v-1.869h1.786Zm-3.571,0h-1.786v-1.869h1.786Zm-3.57,0h-1.785v-1.869h1.785Zm-3.571,0h-1.785v-1.869h1.785Zm-3.57,0h-1.785v-1.869h1.785Zm-3.57,0h-1.785v-1.869h1.785Z" transform="translate(-1235.035 -699.548)" fill="#282d33"/></g><g transform="translate(38.423 0)"><rect width="0.935" height="1.869" fill="#282d33"/></g></g><g transform="translate(167.393 29.49)"><g transform="translate(16.186)"><path d="M5.448,0H92.916a5.45,5.45,0,0,1,5.45,5.45V63.813a5.449,5.449,0,0,1-5.449,5.449H5.448A5.448,5.448,0,0,1,0,63.815V5.448A5.448,5.448,0,0,1,5.448,0Z" transform="translate(0.935 0.935)" fill="#b7bec0"/><path d="M1455.349,740.511h-92.2a4.021,4.021,0,0,1-4.017-4.016V673.4a4.021,4.021,0,0,1,4.017-4.017h92.2a4.021,4.021,0,0,1,4.016,4.017v63.1A4.02,4.02,0,0,1,1455.349,740.511Zm-92.2-69.263A2.15,2.15,0,0,0,1361,673.4v63.1a2.15,2.15,0,0,0,2.147,2.147h92.2a2.149,2.149,0,0,0,2.147-2.147V673.4a2.15,2.15,0,0,0-2.147-2.147Z" transform="translate(-1359.131 -669.379)" fill="#282d33"/><g transform="translate(4.824 4.422)"><rect width="88.72" height="56.629" transform="translate(0.934 0.934)" fill="#fff"/><path d="M1458.249,735.7H1367.66V677.2h90.589Zm-88.72-1.869h86.85V679.067h-86.85Z" transform="translate(-1367.66 -677.198)" fill="#282d33"/></g><g transform="translate(41.141 66.708)"><path d="M1431.874,787.327v.414a1.381,1.381,0,0,0,1.38,1.382h15.194a1.381,1.381,0,0,0,1.38-1.382v-.414Z" transform="translate(-1431.874 -787.327)" fill="#fff" stroke="#282d33" stroke-width="4"/></g></g><g transform="translate(0 65.773)"><path d="M1437.553,787.327H1332.165v3.456s3.841,2.62,6.5,2.62h117.743c2.657,0,6.5-2.621,6.5-2.621v-3.455Z" transform="translate(-1331.231 -786.392)" fill="#fff"/><path d="M1455.688,793.62H1337.945c-2.911,0-6.857-2.669-7.024-2.783l-.408-.279v-4.884H1463.12v4.884l-.408.278C1462.545,790.95,1458.6,793.62,1455.688,793.62Zm-123.305-4.061c1.259.792,3.842,2.192,5.562,2.192h117.743c1.721,0,4.3-1.4,5.562-2.193v-2.015H1332.382Z" transform="translate(-1330.513 -785.674)" fill="#282d33"/></g></g><g transform="translate(219.126 49.299)"><path d="M1439.376,714.5a7.3,7.3,0,1,1-7.3-7.3A7.3,7.3,0,0,1,1439.376,714.5Z" transform="translate(-1423.196 -705.62)" fill="#f8c44f"/><g transform="translate(7.825)"><rect width="1.869" height="2.92" fill="#282d33"/></g><g transform="translate(1.854 2.026)"><rect width="1.869" height="2.92" transform="translate(0 1.322) rotate(-45.006)" fill="#282d33"/></g><g transform="translate(0 8.068)"><rect width="2.92" height="1.869" fill="#282d33"/></g><g transform="translate(2.026 12.522)"><rect width="2.92" height="1.869" transform="translate(0 2.065) rotate(-44.999)" fill="#282d33"/></g><g transform="translate(8.068 14.843)"><rect width="1.869" height="2.92" fill="#282d33"/></g><g transform="translate(12.521 12.35)"><rect width="1.869" height="2.92" transform="translate(0 1.322) rotate(-44.994)" fill="#282d33"/></g><g transform="translate(14.842 7.825)"><rect width="2.92" height="1.869" fill="#282d33"/></g><g transform="translate(12.35 1.855)"><rect width="2.92" height="1.869" transform="translate(0 2.064) rotate(-45)" fill="#282d33"/></g><g transform="translate(1.81 6.004)"><path d="M1445.255,748.868v-1.83a5.4,5.4,0,0,0,2.177-4.332v-9.4l-.1-2.076a2.014,2.014,0,0,0-2.013-2.014c-1.111,0-2.013.4-2.013,1.51v-.5a2.013,2.013,0,0,0-4.026,0v-1.007a2.013,2.013,0,0,0-4.026,0v1.033c0-.486-.018-11.5-.018-11.5a2.083,2.083,0,1,0-4.166,0l-.012,20.348-.041-.992v-4.161a3.073,3.073,0,0,0-3.077-3.074h-1.023c-.045,0,.042,0,0,.007v3.849c.006,0-.008,0,0,0v5.108l5.829,6.929a11.371,11.371,0,0,0,2.442,1.185v.91" transform="translate(-1425.929 -715.739)" fill="#fff"/><path d="M1445.441,748.151h-1.869v-2.3l.375-.281a4.439,4.439,0,0,0,1.8-3.583v-9.4l-.1-2.03a1.093,1.093,0,0,0-1.08-1.124c-1.075,0-1.079.386-1.079.573v0h-1.869v-.5a1.078,1.078,0,0,0-2.157,0H1437.6V728.5a1.079,1.079,0,0,0-2.157,0v1.032h-1.869c0-.486-.019-11.5-.019-11.5a1.148,1.148,0,1,0-2.3,0l-.011,20.348-1.868.039-.042-.992v-4.2a2.143,2.143,0,0,0-2.142-2.139h-.088v2.853l.087.708-.087.03v4.1l5.514,6.554a9.594,9.594,0,0,0,2.044.991l.713.174v1.645H1433.5v-.243a14.911,14.911,0,0,1-2.007-1.062l-.122-.078-6.141-7.3v-5.391l-.045-.713.046-.015v-2.355l-.053-.007.053-1.079V729.3l.036,0,0-.072h1.918a3.989,3.989,0,0,1,2.188.65l.007-11.838a3.017,3.017,0,1,1,6.035,0h0s.007,4.369.012,7.724a4.626,4.626,0,0,0,5.11.8,2.947,2.947,0,0,1,2.446,1.3,3.819,3.819,0,0,1,1.58-.3,2.952,2.952,0,0,1,2.948,2.948l.1,2.031v9.44a6.281,6.281,0,0,1-2.177,4.778Z" transform="translate(-1425.181 -715.021)" fill="#282d33"/></g><g transform="translate(22.378 42.296)"><rect width="1.869" height="2.068" fill="#282d33"/></g></g><g transform="translate(48.184 88.425)"><path d="M1290.758,824.984H1145.437a25.73,25.73,0,0,1-25.7-25.7v-25.7h18.692v25.7a7.017,7.017,0,0,0,7.009,7.01h145.321a7.017,7.017,0,0,0,7.009-7.01v-25.7h18.692v25.7A25.73,25.73,0,0,1,1290.758,824.984Z" transform="translate(-1119.736 -773.584)" fill="#3ddaff"/></g><g transform="translate(184.039 88.425)"><path d="M1395.112,825.919h-35.167V824.05h35.167a24.8,24.8,0,0,0,24.766-24.767v-25.7h1.869v25.7A26.666,26.666,0,0,1,1395.112,825.919Z" transform="translate(-1359.945 -773.584)" fill="#282d33"/></g><g transform="translate(42.576 46.162)"><ellipse cx="7.3" cy="7.3" rx="7.3" ry="7.3" transform="translate(8.067 28.183)" fill="#f8c44f"/><g transform="translate(6.486 26.602)"><g transform="translate(8.068 14.842)"><rect width="1.869" height="2.92" fill="#282d33"/></g><g transform="translate(12.521 12.349)"><rect width="1.869" height="2.92" transform="translate(0 1.322) rotate(-45.006)" fill="#282d33"/></g><g transform="translate(14.842 7.825)"><rect width="2.92" height="1.869" fill="#282d33"/></g><g transform="translate(12.349 1.854)"><rect width="2.92" height="1.869" transform="matrix(0.707, -0.707, 0.707, 0.707, 0, 2.065)" fill="#282d33"/></g><g transform="translate(7.825)"><rect width="1.869" height="2.919" fill="#282d33"/></g><g transform="translate(1.854 2.026)"><rect width="1.869" height="2.92" transform="translate(0 1.322) rotate(-44.994)" fill="#282d33"/></g><g transform="translate(0 8.068)"><rect width="2.92" height="1.869" fill="#282d33"/></g><g transform="translate(2.026 12.521)"><rect width="2.92" height="1.869" transform="translate(0 2.065) rotate(-45)" fill="#282d33"/></g></g><g transform="translate(0.001 5.231)"><path d="M1113.651,708.107v1.831a5.4,5.4,0,0,0-2.177,4.332v9.395l.1,2.076a2.014,2.014,0,0,0,2.013,2.014c1.111,0,2.013-.4,2.013-1.51v.5a2.013,2.013,0,0,0,4.026,0v1.007a2.013,2.013,0,0,0,4.026,0v-1.033c0,.486.019,11.5.019,11.5a2.083,2.083,0,1,0,4.165,0l.011-20.348.041.992v4.161a3.073,3.073,0,0,0,3.077,3.074h1.023c.045,0-.042,0,0-.007v-3.849c-.005,0,.008,0,0,0v-5.108l-5.829-6.929a11.378,11.378,0,0,0-2.442-1.185v-.91" transform="translate(-1110.54 -708.107)" fill="#fff"/><path d="M1125.038,741.237a3.022,3.022,0,0,1-3.018-3.018h0s-.007-4.369-.012-7.724a4.626,4.626,0,0,0-5.11-.8,2.946,2.946,0,0,1-2.446-1.3,3.823,3.823,0,0,1-1.581.3,2.952,2.952,0,0,1-2.948-2.948l-.1-2.031v-9.44a6.282,6.282,0,0,1,2.177-4.778v-1.385h1.869v2.3l-.375.28a4.439,4.439,0,0,0-1.8,3.583v9.395l.1,2.031a1.093,1.093,0,0,0,1.08,1.124c1.079,0,1.079-.389,1.079-.575h1.869v.5a1.079,1.079,0,0,0,2.157,0h1.869v1.007a1.078,1.078,0,0,0,2.156,0v-1.033h1.869c0,.5.018,11.495.018,11.495a1.148,1.148,0,1,0,2.3,0l.011-20.348,1.869-.039.041.992v4.2a2.143,2.143,0,0,0,2.142,2.139h.089v-2.855l-.084-.717.084-.027v-4.093l-5.514-6.554a9.591,9.591,0,0,0-2.043-.991l-.713-.174v-1.644h1.869v.243a14.883,14.883,0,0,1,2.008,1.062l.122.077,6.141,7.3v5.384l.052.727-.052.017v2.347l.053.007-.053,1.078v.607l-.036,0,0,.072h-1.918a3.988,3.988,0,0,1-2.188-.65l-.007,11.838A3.02,3.02,0,0,1,1125.038,741.237Z" transform="translate(-1109.822 -708.107)" fill="#282d33"/></g><rect width="1.869" height="2.068" fill="#282d33"/></g><g transform="translate(41.042 0)"><path d="M1125.8,668.639h-18.692v-25.7a25.73,25.73,0,0,1,25.7-25.7H1278.13a25.731,25.731,0,0,1,25.7,25.7v7.007H1285.14V642.94a7.018,7.018,0,0,0-7.009-7.01H1132.809a7.018,7.018,0,0,0-7.01,7.01Z" transform="translate(-1107.108 -617.238)" fill="#ccdeff"/></g><g transform="translate(40.107 17.757)"><path d="M1126.016,683.214h-20.561V664.265h1.869v17.079h16.823V656.58a7.953,7.953,0,0,1,7.944-7.945h145.321a7.953,7.953,0,0,1,7.944,7.945v5.605h-1.869V656.58a6.082,6.082,0,0,0-6.075-6.075H1132.091a6.082,6.082,0,0,0-6.075,6.075Z" transform="translate(-1105.455 -648.635)" fill="#282d33"/></g><g transform="translate(0 21.04)"><path d="M1070.915,729.624H1055.6a21.061,21.061,0,0,1-3.234-41.872,33.955,33.955,0,0,1,33.915-33.313v1.869a32.082,32.082,0,0,0-32.05,32.042l0,.078c0,.048,0,.095,0,.142v.834l-.828.1a19.191,19.191,0,0,0,2.193,38.256h15.316Z" transform="translate(-1034.541 -654.439)" fill="#282d33"/></g><g transform="translate(72.074 69.105)"><path d="M1186.534,771.177v13.561a1.431,1.431,0,0,1-1.431,1.432H1165.06a1.431,1.431,0,0,1-1.431-1.432V742.508a1.431,1.431,0,0,1,1.431-1.432H1185.1a1.431,1.431,0,0,1,1.431,1.432v29.648" transform="translate(-1162.695 -740.142)" fill="#fff"/><path d="M1184.385,786.388h-20.042a2.369,2.369,0,0,1-2.366-2.366V741.79a2.368,2.368,0,0,1,2.366-2.366h20.042a2.368,2.368,0,0,1,2.366,2.366v42.231A2.369,2.369,0,0,1,1184.385,786.388Zm-20.042-45.094a.5.5,0,0,0-.5.5v42.231a.5.5,0,0,0,.5.5h20.042a.5.5,0,0,0,.5-.5V741.79a.5.5,0,0,0-.5-.5Z" transform="translate(-1161.977 -739.424)" fill="#282d33"/><rect width="17.954" height="32.568" transform="translate(3.41 7.019)" fill="#b7bec0"/><g transform="translate(8.561 3.198)"><rect width="7.652" height="1.869" fill="#282d33"/></g><g transform="translate(11.452 41.361)"><rect width="1.869" height="1.869" fill="#282d33"/></g></g><g transform="translate(94.563 35.179)"><path d="M1206.955,689.876l-5.216-5.22,5.216-5.219,1.322,1.322-3.9,3.9,3.9,3.9Z" transform="translate(-1201.739 -679.438)" fill="#282d33"/><g transform="translate(2.56 4.285)"><rect width="24.416" height="1.869" fill="#282d33"/></g></g><g transform="translate(148.876 77.234)"><g transform="translate(20.438)"><path d="M1335.229,764.236l-1.322-1.322,3.9-3.9-3.9-3.9,1.322-1.321,5.217,5.22Z" transform="translate(-1333.907 -753.797)" fill="#282d33"/></g><g transform="translate(0 4.284)"><rect width="24.416" height="1.869" fill="#282d33"/></g></g></g><g transform="translate(1055.2 665.338)"><path d="M1078.358,727.556a6.138,6.138,0,1,1,4.34,10.5,6.073,6.073,0,0,1-2.736-.684v2.052h-2.052v2.053h-2.052v2.052h-4.789v-5.045l.172-.257,5.387-5.345a8.841,8.841,0,0,1-.085-.983A5.923,5.923,0,0,1,1078.358,727.556Zm7.718.962a4.789,4.789,0,0,0-8.167,3.378,7.617,7.617,0,0,0,.128,1.112l.042.342-.256.257-5.388,5.43v3.121h2.052v-2.052h2.052v-2.052h2.052V736h1.625l.172.086a4.779,4.779,0,0,0,5.687-7.568Zm-2.972,1.047a1.341,1.341,0,1,1-.407.962A1.316,1.316,0,0,1,1083.1,729.565Z" transform="translate(-1071.068 -725.738)" fill="#231815" stroke="#231815" stroke-miterlimit="10" stroke-width="1"/></g><g transform="translate(1120.384 665.516)"><g transform="translate(0 0)"><g transform="translate(2.402)"><path d="M1196.6,742.978h-1.209c-3.019,0-4.821-1.453-4.821-3.887v-8.217a4.827,4.827,0,0,1,4.821-4.822h1.209a4.827,4.827,0,0,1,4.82,4.822v8.217C1201.419,741.526,1199.617,742.978,1196.6,742.978Zm-1.209-15.057a2.956,2.956,0,0,0-2.952,2.953v8.217c0,1.339.993,2.018,2.952,2.018h1.209c1.958,0,2.951-.679,2.951-2.018v-8.217a2.955,2.955,0,0,0-2.951-2.953Z" transform="translate(-1190.569 -726.052)" fill="#282d33"/></g><g transform="translate(0 5.541)"><rect width="13.786" height="11.054" transform="translate(0.934 0.935)" fill="#f8c44f"/><path d="M1200.108,737.719V746.9h-11.917v-9.185h11.917m1.869-1.869h-15.655v12.923h15.655V735.85Z" transform="translate(-1186.322 -735.85)" fill="#282d33"/></g><path d="M1199.318,742.595a1.1,1.1,0,0,0-.564,2.041l-.249,2.707h1.624l-.248-2.707a1.1,1.1,0,0,0-.563-2.041Z" transform="translate(-1191.49 -733.239)" fill="#282d33"/></g></g><g transform="translate(1283.857 651.377)"><g transform="translate(0 0)"><g transform="translate(2.403)"><path d="M1485.64,717.978h-1.21c-3.018,0-4.82-1.453-4.82-3.887v-8.217a4.827,4.827,0,0,1,4.82-4.822h1.21a4.827,4.827,0,0,1,4.82,4.822v8.217C1490.46,716.526,1488.658,717.978,1485.64,717.978Zm-1.21-15.057a2.956,2.956,0,0,0-2.951,2.953v8.217c0,1.339.993,2.018,2.951,2.018h1.21c1.958,0,2.951-.679,2.951-2.018v-8.217a2.955,2.955,0,0,0-2.951-2.953Z" transform="translate(-1479.61 -701.052)" fill="#282d33"/></g><g transform="translate(0 5.541)"><rect width="13.786" height="11.054" transform="translate(0.935 0.935)" fill="#f8c44f"/><path d="M1489.148,712.719V721.9h-11.917v-9.185h11.917m1.869-1.869h-15.656v12.923h15.656V710.85Z" transform="translate(-1475.362 -710.85)" fill="#282d33"/></g><path d="M1488.359,717.595a1.1,1.1,0,0,0-.564,2.041l-.25,2.707h1.625l-.248-2.707a1.1,1.1,0,0,0-.563-2.041Z" transform="translate(-1480.531 -708.239)" fill="#282d33"/></g></g></g></svg>