<svg xmlns="http://www.w3.org/2000/svg" xmlns:xlink="http://www.w3.org/1999/xlink" width="550" height="200" viewBox="0 0 550 200"><defs><clipPath id="a"><rect width="550" height="200" transform="translate(846 1172)" fill="#4586ff"/></clipPath></defs><g transform="translate(-846 -1172)" clip-path="url(#a)"><g transform="translate(879.302 1235.243)"><g transform="translate(414.186 15.622)"><path d="M512.135,20.676A3.687,3.687,0,0,0,508.46,17H460.676A3.686,3.686,0,0,0,457,20.676v91.892a3.686,3.686,0,0,0,3.676,3.676H508.46a3.687,3.687,0,0,0,3.676-3.676Z" transform="translate(-457 -17)" fill="#637282"/></g><g transform="translate(417.861 25.962)"><rect width="47.784" height="77.189" fill="#fff"/></g><g transform="translate(436.24 66.273)"><rect width="3.676" height="3.676" fill="#6d6d6d"/></g><g transform="translate(436.24 84.43)"><rect width="3.676" height="3.676" fill="#6d6d6d"/></g><g transform="translate(425.213 55.379)"><rect width="11.027" height="3.676" fill="#35c9cb"/></g><g transform="translate(417.861 26.289)"><rect width="47.784" height="18.378" fill="#ff4a63"/></g><g transform="translate(443.591 66.227)"><rect width="18.378" height="11.027" fill="#52c695"/></g><g transform="translate(443.591 84.372)"><rect width="18.378" height="11.027" fill="#ff4a63"/></g><g transform="translate(222.324 51.603)"><circle cx="14.703" cy="14.703" r="14.703" fill="#fff"/></g><g transform="translate(231.511 58.97)"><circle cx="5.514" cy="5.514" r="5.514" fill="#35c9cb"/></g><g transform="translate(226.826 69.856)"><path d="M260.1,77a11.046,11.046,0,0,0-10.2,6.892l4.319,2.849,5.881,1.286,5.514-1.1,4.686-3.216A11.119,11.119,0,0,0,260.1,77Z" transform="translate(-249.9 -77)" fill="#35c9cb"/></g><g transform="translate(279.956 58.97)"><rect width="80.865" height="11.027" fill="#d1d1d1"/></g><g transform="translate(279.956 15.622)"><rect width="80.865" height="44.108" fill="#35c9cb"/></g><g transform="translate(11.027 14.703)"><g transform="translate(8.27 8.27)"><path d="M160.676,25v88.216A3.686,3.686,0,0,1,157,116.892H24.676A3.686,3.686,0,0,1,21,113.216V25Z" transform="translate(-21 -25)" fill="#d1d1d1"/></g><g transform="translate(0.919 0.919)"><path d="M20.351,17A7.373,7.373,0,0,0,13,24.351H167.379A7.373,7.373,0,0,0,160.027,17Z" transform="translate(-13 -17)" fill="#d1d1d1"/></g><g transform="translate(59.73 63.405)"><path d="M113.757,110.73a3.686,3.686,0,0,1-3.676,3.676H80.676A3.686,3.686,0,0,1,77,110.73V88.676A3.686,3.686,0,0,1,80.676,85h29.405a3.686,3.686,0,0,1,3.676,3.676Z" transform="translate(-77 -85)" fill="#b5b5b5"/></g><g transform="translate(19.297 15.622)"><g transform="translate(110.27)"><rect width="7.351" height="7.351" fill="#637282"/></g><g transform="translate(99.243)"><rect width="7.351" height="7.351" fill="#637282"/></g><g transform="translate(88.216)"><rect width="7.351" height="7.351" fill="#637282"/></g><g transform="translate(77.189)"><rect width="7.351" height="7.351" fill="#637282"/></g><g transform="translate(66.162)"><rect width="7.351" height="7.351" fill="#637282"/></g><g transform="translate(55.135)"><rect width="7.351" height="7.351" fill="#637282"/></g><g transform="translate(44.108)"><rect width="7.351" height="7.351" fill="#637282"/></g><g transform="translate(33.081)"><rect width="7.351" height="7.351" fill="#637282"/></g><g transform="translate(22.054)"><rect width="7.351" height="7.351" fill="#637282"/></g><g transform="translate(11.027)"><rect width="7.351" height="7.351" fill="#637282"/></g><rect width="7.351" height="7.351" fill="#637282"/><g transform="translate(14.703 11.027)"><g transform="translate(77.189)"><rect width="7.351" height="7.351" fill="#637282"/></g><g transform="translate(66.162)"><rect width="7.351" height="7.351" fill="#637282"/></g><g transform="translate(55.135)"><rect width="7.351" height="7.351" fill="#637282"/></g><g transform="translate(44.108)"><rect width="7.351" height="7.351" fill="#637282"/></g><g transform="translate(33.081)"><rect width="7.351" height="7.351" fill="#637282"/></g><g transform="translate(22.054)"><rect width="7.351" height="7.351" fill="#637282"/></g><g transform="translate(11.027)"><rect width="7.351" height="7.351" fill="#637282"/></g><rect width="7.351" height="7.351" fill="#637282"/></g><g transform="translate(0 11.027)"><rect width="11.027" height="7.351" fill="#637282"/></g><g transform="translate(102.919 11.027)"><rect width="14.703" height="7.351" fill="#637282"/></g><g transform="translate(18.378 22.054)"><g transform="translate(77.189)"><rect width="7.351" height="7.351" fill="#637282"/></g><g transform="translate(66.162)"><rect width="7.351" height="7.351" fill="#637282"/></g><g transform="translate(55.135)"><rect width="7.351" height="7.351" fill="#637282"/></g><g transform="translate(44.108)"><rect width="7.351" height="7.351" fill="#637282"/></g><g transform="translate(33.081)"><rect width="7.351" height="7.351" fill="#637282"/></g><g transform="translate(22.054)"><rect width="7.351" height="7.351" fill="#637282"/></g><g transform="translate(11.027)"><rect width="7.351" height="7.351" fill="#637282"/></g><rect width="7.351" height="7.351" fill="#637282"/></g><g transform="translate(106.595 22.054)"><rect width="11.027" height="7.351" fill="#637282"/></g><g transform="translate(0 22.054)"><rect width="14.703" height="7.351" fill="#637282"/></g><g transform="translate(33.081 33.081)"><rect width="51.46" height="7.351" fill="#637282"/></g><g transform="translate(0 33.081)"><rect width="7.351" height="7.351" fill="#637282"/><g transform="translate(11.027)"><rect width="7.351" height="7.351" fill="#637282"/></g><g transform="translate(22.054)"><rect width="7.351" height="7.351" fill="#637282"/></g></g><g transform="translate(88.216 33.081)"><rect width="7.351" height="7.351" fill="#637282"/><g transform="translate(11.027)"><rect width="7.351" height="7.351" fill="#637282"/></g><g transform="translate(22.054)"><rect width="7.351" height="7.351" fill="#637282"/></g></g></g><g transform="translate(18.378 14.703)"><g transform="translate(110.27)"><path d="M160.27,41.189h-7.351A.868.868,0,0,1,152,40.27V32.919a.868.868,0,0,1,.919-.919h7.351a.868.868,0,0,1,.919.919V40.27A.868.868,0,0,1,160.27,41.189Zm-6.432-1.838h5.514V33.838h-5.514Z" transform="translate(-152 -32)"/></g><g transform="translate(99.243)"><path d="M148.27,41.189h-7.351A.868.868,0,0,1,140,40.27V32.919a.868.868,0,0,1,.919-.919h7.351a.868.868,0,0,1,.919.919V40.27A.868.868,0,0,1,148.27,41.189Zm-6.432-1.838h5.514V33.838h-5.514Z" transform="translate(-140 -32)"/></g><g transform="translate(88.216)"><path d="M136.27,41.189h-7.351A.868.868,0,0,1,128,40.27V32.919a.868.868,0,0,1,.919-.919h7.351a.868.868,0,0,1,.919.919V40.27A.868.868,0,0,1,136.27,41.189Zm-6.432-1.838h5.514V33.838h-5.514Z" transform="translate(-128 -32)"/></g><g transform="translate(77.189)"><path d="M124.27,41.189h-7.351A.868.868,0,0,1,116,40.27V32.919a.868.868,0,0,1,.919-.919h7.351a.868.868,0,0,1,.919.919V40.27A.868.868,0,0,1,124.27,41.189Zm-6.432-1.838h5.514V33.838h-5.514Z" transform="translate(-116 -32)"/></g><g transform="translate(66.162)"><path d="M112.27,41.189h-7.351A.868.868,0,0,1,104,40.27V32.919a.868.868,0,0,1,.919-.919h7.351a.868.868,0,0,1,.919.919V40.27A.868.868,0,0,1,112.27,41.189Zm-6.432-1.838h5.514V33.838h-5.514Z" transform="translate(-104 -32)"/></g><g transform="translate(55.135)"><path d="M100.27,41.189H92.919A.868.868,0,0,1,92,40.27V32.919A.868.868,0,0,1,92.919,32h7.351a.868.868,0,0,1,.919.919V40.27A.868.868,0,0,1,100.27,41.189Zm-6.432-1.838h5.514V33.838H93.838Z" transform="translate(-92 -32)"/></g><g transform="translate(44.108)"><path d="M88.27,41.189H80.919A.868.868,0,0,1,80,40.27V32.919A.868.868,0,0,1,80.919,32H88.27a.868.868,0,0,1,.919.919V40.27A.868.868,0,0,1,88.27,41.189Zm-6.432-1.838h5.514V33.838H81.838Z" transform="translate(-80 -32)"/></g><g transform="translate(33.081)"><path d="M76.27,41.189H68.919A.868.868,0,0,1,68,40.27V32.919A.868.868,0,0,1,68.919,32H76.27a.868.868,0,0,1,.919.919V40.27A.868.868,0,0,1,76.27,41.189Zm-6.432-1.838h5.514V33.838H69.838Z" transform="translate(-68 -32)"/></g><g transform="translate(22.054)"><path d="M64.27,41.189H56.919A.868.868,0,0,1,56,40.27V32.919A.868.868,0,0,1,56.919,32H64.27a.868.868,0,0,1,.919.919V40.27A.868.868,0,0,1,64.27,41.189Zm-6.432-1.838h5.514V33.838H57.838Z" transform="translate(-56 -32)"/></g><g transform="translate(11.027)"><path d="M52.27,41.189H44.919A.868.868,0,0,1,44,40.27V32.919A.868.868,0,0,1,44.919,32H52.27a.868.868,0,0,1,.919.919V40.27A.868.868,0,0,1,52.27,41.189Zm-6.432-1.838h5.514V33.838H45.838Z" transform="translate(-44 -32)"/></g><path d="M40.27,41.189H32.919A.868.868,0,0,1,32,40.27V32.919A.868.868,0,0,1,32.919,32H40.27a.868.868,0,0,1,.919.919V40.27A.868.868,0,0,1,40.27,41.189Zm-6.432-1.838h5.514V33.838H33.838Z" transform="translate(-32 -32)"/><g transform="translate(14.703 11.027)"><g transform="translate(77.189)"><path d="M140.27,53.189h-7.351A.868.868,0,0,1,132,52.27V44.919a.868.868,0,0,1,.919-.919h7.351a.868.868,0,0,1,.919.919V52.27A.868.868,0,0,1,140.27,53.189Zm-6.432-1.838h5.514V45.838h-5.514Z" transform="translate(-132 -44)"/></g><g transform="translate(66.162)"><path d="M128.27,53.189h-7.351A.868.868,0,0,1,120,52.27V44.919a.868.868,0,0,1,.919-.919h7.351a.868.868,0,0,1,.919.919V52.27A.868.868,0,0,1,128.27,53.189Zm-6.432-1.838h5.514V45.838h-5.514Z" transform="translate(-120 -44)"/></g><g transform="translate(55.135)"><path d="M116.27,53.189h-7.351A.868.868,0,0,1,108,52.27V44.919a.868.868,0,0,1,.919-.919h7.351a.868.868,0,0,1,.919.919V52.27A.868.868,0,0,1,116.27,53.189Zm-6.432-1.838h5.514V45.838h-5.514Z" transform="translate(-108 -44)"/></g><g transform="translate(44.108)"><path d="M104.27,53.189H96.919A.868.868,0,0,1,96,52.27V44.919A.868.868,0,0,1,96.919,44h7.351a.868.868,0,0,1,.919.919V52.27A.868.868,0,0,1,104.27,53.189Zm-6.432-1.838h5.514V45.838H97.838Z" transform="translate(-96 -44)"/></g><g transform="translate(33.081)"><path d="M92.27,53.189H84.919A.868.868,0,0,1,84,52.27V44.919A.868.868,0,0,1,84.919,44H92.27a.868.868,0,0,1,.919.919V52.27A.868.868,0,0,1,92.27,53.189Zm-6.432-1.838h5.514V45.838H85.838Z" transform="translate(-84 -44)"/></g><g transform="translate(22.054)"><path d="M80.27,53.189H72.919A.868.868,0,0,1,72,52.27V44.919A.868.868,0,0,1,72.919,44H80.27a.868.868,0,0,1,.919.919V52.27A.868.868,0,0,1,80.27,53.189Zm-6.432-1.838h5.514V45.838H73.838Z" transform="translate(-72 -44)"/></g><g transform="translate(11.027)"><path d="M68.27,53.189H60.919A.868.868,0,0,1,60,52.27V44.919A.868.868,0,0,1,60.919,44H68.27a.868.868,0,0,1,.919.919V52.27A.868.868,0,0,1,68.27,53.189Zm-6.432-1.838h5.514V45.838H61.838Z" transform="translate(-60 -44)"/></g><path d="M56.27,53.189H48.919A.868.868,0,0,1,48,52.27V44.919A.868.868,0,0,1,48.919,44H56.27a.868.868,0,0,1,.919.919V52.27A.868.868,0,0,1,56.27,53.189Zm-6.432-1.838h5.514V45.838H49.838Z" transform="translate(-48 -44)"/></g><g transform="translate(0 11.027)"><path d="M43.946,53.189H32.919A.868.868,0,0,1,32,52.27V44.919A.868.868,0,0,1,32.919,44H43.946a.868.868,0,0,1,.919.919V52.27A.868.868,0,0,1,43.946,53.189ZM33.838,51.351h9.189V45.838H33.838Z" transform="translate(-32 -44)"/></g><g transform="translate(102.919 11.027)"><path d="M159.622,53.189h-14.7A.868.868,0,0,1,144,52.27V44.919a.868.868,0,0,1,.919-.919h14.7a.868.868,0,0,1,.919.919V52.27A.868.868,0,0,1,159.622,53.189Zm-13.784-1.838H158.7V45.838H145.838Z" transform="translate(-144 -44)"/></g><g transform="translate(18.378 22.054)"><g transform="translate(77.189)"><path d="M144.27,65.189h-7.351A.868.868,0,0,1,136,64.27V56.919a.868.868,0,0,1,.919-.919h7.351a.868.868,0,0,1,.919.919V64.27A.868.868,0,0,1,144.27,65.189Zm-6.432-1.838h5.514V57.838h-5.514Z" transform="translate(-136 -56)"/></g><g transform="translate(66.162)"><path d="M132.27,65.189h-7.351A.868.868,0,0,1,124,64.27V56.919a.868.868,0,0,1,.919-.919h7.351a.868.868,0,0,1,.919.919V64.27A.868.868,0,0,1,132.27,65.189Zm-6.432-1.838h5.514V57.838h-5.514Z" transform="translate(-124 -56)"/></g><g transform="translate(55.135)"><path d="M120.27,65.189h-7.351A.868.868,0,0,1,112,64.27V56.919a.868.868,0,0,1,.919-.919h7.351a.868.868,0,0,1,.919.919V64.27A.868.868,0,0,1,120.27,65.189Zm-6.432-1.838h5.514V57.838h-5.514Z" transform="translate(-112 -56)"/></g><g transform="translate(44.108)"><path d="M108.27,65.189h-7.351A.868.868,0,0,1,100,64.27V56.919a.868.868,0,0,1,.919-.919h7.351a.868.868,0,0,1,.919.919V64.27A.868.868,0,0,1,108.27,65.189Zm-6.432-1.838h5.514V57.838h-5.514Z" transform="translate(-100 -56)"/></g><g transform="translate(33.081)"><path d="M96.27,65.189H88.919A.868.868,0,0,1,88,64.27V56.919A.868.868,0,0,1,88.919,56H96.27a.868.868,0,0,1,.919.919V64.27A.868.868,0,0,1,96.27,65.189Zm-6.432-1.838h5.514V57.838H89.838Z" transform="translate(-88 -56)"/></g><g transform="translate(22.054)"><path d="M84.27,65.189H76.919A.868.868,0,0,1,76,64.27V56.919A.868.868,0,0,1,76.919,56H84.27a.868.868,0,0,1,.919.919V64.27A.868.868,0,0,1,84.27,65.189Zm-6.432-1.838h5.514V57.838H77.838Z" transform="translate(-76 -56)"/></g><g transform="translate(11.027)"><path d="M72.27,65.189H64.919A.868.868,0,0,1,64,64.27V56.919A.868.868,0,0,1,64.919,56H72.27a.868.868,0,0,1,.919.919V64.27A.868.868,0,0,1,72.27,65.189Zm-6.432-1.838h5.514V57.838H65.838Z" transform="translate(-64 -56)"/></g><path d="M60.27,65.189H52.919A.868.868,0,0,1,52,64.27V56.919A.868.868,0,0,1,52.919,56H60.27a.868.868,0,0,1,.919.919V64.27A.868.868,0,0,1,60.27,65.189Zm-6.432-1.838h5.514V57.838H53.838Z" transform="translate(-52 -56)"/></g><g transform="translate(106.595 22.054)"><path d="M159.946,65.189H148.919A.868.868,0,0,1,148,64.27V56.919a.868.868,0,0,1,.919-.919h11.027a.868.868,0,0,1,.919.919V64.27A.868.868,0,0,1,159.946,65.189Zm-10.108-1.838h9.189V57.838h-9.189Z" transform="translate(-148 -56)"/></g><g transform="translate(0 22.054)"><path d="M47.622,65.189h-14.7A.868.868,0,0,1,32,64.27V56.919A.868.868,0,0,1,32.919,56h14.7a.868.868,0,0,1,.919.919V64.27A.868.868,0,0,1,47.622,65.189ZM33.838,63.351H46.7V57.838H33.838Z" transform="translate(-32 -56)"/></g><g transform="translate(33.081 33.081)"><path d="M120.378,77.189H68.919A.868.868,0,0,1,68,76.27V68.919A.868.868,0,0,1,68.919,68h51.46a.868.868,0,0,1,.919.919V76.27A.868.868,0,0,1,120.378,77.189ZM69.838,75.351H119.46V69.838H69.838Z" transform="translate(-68 -68)"/></g><g transform="translate(0 33.081)"><path d="M40.27,77.189H32.919A.868.868,0,0,1,32,76.27V68.919A.868.868,0,0,1,32.919,68H40.27a.868.868,0,0,1,.919.919V76.27A.868.868,0,0,1,40.27,77.189Zm-6.432-1.838h5.514V69.838H33.838Z" transform="translate(-32 -68)"/><g transform="translate(11.027)"><path d="M52.27,77.189H44.919A.868.868,0,0,1,44,76.27V68.919A.868.868,0,0,1,44.919,68H52.27a.868.868,0,0,1,.919.919V76.27A.868.868,0,0,1,52.27,77.189Zm-6.432-1.838h5.514V69.838H45.838Z" transform="translate(-44 -68)"/></g><g transform="translate(22.054)"><path d="M64.27,77.189H56.919A.868.868,0,0,1,56,76.27V68.919A.868.868,0,0,1,56.919,68H64.27a.868.868,0,0,1,.919.919V76.27A.868.868,0,0,1,64.27,77.189Zm-6.432-1.838h5.514V69.838H57.838Z" transform="translate(-56 -68)"/></g></g><g transform="translate(88.216 33.081)"><path d="M136.27,77.189h-7.351A.868.868,0,0,1,128,76.27V68.919a.868.868,0,0,1,.919-.919h7.351a.868.868,0,0,1,.919.919V76.27A.868.868,0,0,1,136.27,77.189Zm-6.432-1.838h5.514V69.838h-5.514Z" transform="translate(-128 -68)"/><g transform="translate(11.027)"><path d="M148.27,77.189h-7.351A.868.868,0,0,1,140,76.27V68.919a.868.868,0,0,1,.919-.919h7.351a.868.868,0,0,1,.919.919V76.27A.868.868,0,0,1,148.27,77.189Zm-6.432-1.838h5.514V69.838h-5.514Z" transform="translate(-140 -68)"/></g><g transform="translate(22.054)"><path d="M160.27,77.189h-7.351A.868.868,0,0,1,152,76.27V68.919a.868.868,0,0,1,.919-.919h7.351a.868.868,0,0,1,.919.919V76.27A.868.868,0,0,1,160.27,77.189Zm-6.432-1.838h5.514V69.838h-5.514Z" transform="translate(-152 -68)"/></g></g></g><g transform="translate(58.811 62.487)"><path d="M110,115.243H80.595A4.55,4.55,0,0,1,76,110.649V88.595A4.55,4.55,0,0,1,80.595,84H110a4.55,4.55,0,0,1,4.595,4.595v22.054A4.55,4.55,0,0,1,110,115.243ZM80.595,85.838a2.708,2.708,0,0,0-2.757,2.757v22.054a2.708,2.708,0,0,0,2.757,2.757H110a2.708,2.708,0,0,0,2.757-2.757V88.595A2.708,2.708,0,0,0,110,85.838Z" transform="translate(-76 -84)"/></g><g transform="translate(7.351)"><path d="M160.595,17.838H20.919a.919.919,0,0,1,0-1.838H160.595a.919.919,0,1,1,0,1.838Z" transform="translate(-20 -16)"/></g><path d="M167.3,25.189H12.919A.868.868,0,0,1,12,24.27,8.236,8.236,0,0,1,20.27,16a.919.919,0,0,1,0,1.838,6.429,6.429,0,0,0-6.341,5.514H166.379a6.429,6.429,0,0,0-6.341-5.514.919.919,0,1,1,0-1.838,8.236,8.236,0,0,1,8.27,8.27A1,1,0,0,1,167.3,25.189Z" transform="translate(-12 -16)"/><g transform="translate(7.351 7.351)"><path d="M160.595,25.838H20.919a.919.919,0,0,1,0-1.838H160.595a.919.919,0,1,1,0,1.838Z" transform="translate(-20 -24)"/></g><g transform="translate(25.73 11.027)"><path d="M143.838,29.838H40.919a.919.919,0,0,1,0-1.838H143.838a.919.919,0,0,1,0,1.838Z" transform="translate(-40 -28)"/></g><g transform="translate(7.351 7.351)"><path d="M156.919,117.73H24.595A4.55,4.55,0,0,1,20,113.135V24.919a.919.919,0,1,1,1.838,0v88.216a2.708,2.708,0,0,0,2.757,2.757H156.919a2.708,2.708,0,0,0,2.757-2.757V24.919a.919.919,0,0,1,1.838,0v88.216A4.55,4.55,0,0,1,156.919,117.73Z" transform="translate(-20 -24)"/></g></g><g transform="translate(101.586 64.498)"><g transform="translate(0.919 0.919)"><path d="M131.378,131.811v-3.676c-3.676,0-3.768-11.027-12.865-11.027H113a7.373,7.373,0,0,1,7.351-7.351H127.7V76.676a3.676,3.676,0,1,1,7.351,0V93.216a3.676,3.676,0,1,1,7.351,0v1.838a3.676,3.676,0,1,1,7.351,0v1.838a3.676,3.676,0,1,1,7.351,0v20.216c0,3.676-3.676,7.351-3.676,11.027v3.676Z" transform="translate(-113 -73)" fill="#fff"/></g><g transform="translate(14.703 66.162)"><path d="M158.324,149.514a.868.868,0,0,1-.919-.919v-2.757H129.838v2.757a.919.919,0,0,1-1.838,0v-3.676a.868.868,0,0,1,.919-.919h29.405a.868.868,0,0,1,.919.919v3.676A.868.868,0,0,1,158.324,149.514Z" transform="translate(-128 -144)"/></g><g transform="translate(14.703 58.811)"><path d="M158.324,145.189H128.919a.868.868,0,0,1-.919-.919v-7.351a.868.868,0,0,1,.919-.919h29.405a.868.868,0,0,1,.919.919v7.351A.868.868,0,0,1,158.324,145.189Zm-28.487-1.838h27.568v-5.514H129.838Z" transform="translate(-128 -136)"/></g><g transform="translate(22.054 58.811)"><path d="M136.919,145.189a.868.868,0,0,1-.919-.919v-7.351a.919.919,0,0,1,1.838,0v7.351A.868.868,0,0,1,136.919,145.189Z" transform="translate(-136 -136)"/></g><g transform="translate(25.73 62.487)"><path d="M144.595,141.838h-3.676a.919.919,0,1,1,0-1.838h3.676a.919.919,0,0,1,0,1.838Z" transform="translate(-140 -140)"/></g><path d="M153.351,132.649a.868.868,0,0,1-.919-.919v-3.676c0-2.022,1.011-4.043,1.93-5.881a11.834,11.834,0,0,0,1.746-5.146V96.811a2.757,2.757,0,0,0-5.514,0,.919.919,0,1,1-1.838,0V94.973a2.757,2.757,0,0,0-5.514,0,.919.919,0,0,1-1.838,0V93.135a2.757,2.757,0,0,0-5.514,0,.919.919,0,1,1-1.838,0V76.595a2.757,2.757,0,0,0-5.514,0v33.081a.868.868,0,0,1-.919.919H120.27a6.429,6.429,0,0,0-6.341,5.514h4.5c6.065,0,8.546,4.5,10.292,7.811.919,1.746,1.746,3.216,2.573,3.216a.868.868,0,0,1,.919.919v3.676a.919.919,0,1,1-1.838,0v-2.941c-1.378-.459-2.3-2.205-3.308-4.043-1.746-3.216-3.676-6.8-8.638-6.8h-5.514a.868.868,0,0,1-.919-.919,8.236,8.236,0,0,1,8.27-8.27H126.7V76.595a4.595,4.595,0,1,1,9.189,0V89.459a4.593,4.593,0,0,1,7.076,2.114A4.477,4.477,0,0,1,146,90.378a4.688,4.688,0,0,1,4.319,3.032,4.477,4.477,0,0,1,3.032-1.195,4.55,4.55,0,0,1,4.595,4.595v20.216c0,2.022-1.011,4.043-1.93,5.881a11.835,11.835,0,0,0-1.746,5.146v3.676A.868.868,0,0,1,153.351,132.649Z" transform="translate(-112 -72)"/></g><g transform="translate(29.405 60.822)"><g transform="translate(0.919 0.919)"><path d="M62.405,102.081V76.351a3.676,3.676,0,1,0-7.351,0V72.676a3.676,3.676,0,0,0-7.351,0v3.676a3.676,3.676,0,1,0-7.351,0v3.676a3.676,3.676,0,0,0-7.351,0v36.757c0,3.676,3.676,7.351,3.676,11.027v3.676H58.73v-3.676c0-7.351,11.027-7.351,11.027-18.378V94.73A7.373,7.373,0,0,0,62.405,102.081Z" transform="translate(-33 -69)" fill="#fff"/></g><g transform="translate(0 69.838)"><path d="M62.324,149.514a.868.868,0,0,1-.919-.919v-2.757H33.838v2.757a.919.919,0,0,1-1.838,0v-3.676a.868.868,0,0,1,.919-.919H62.324a.868.868,0,0,1,.919.919v3.676A.868.868,0,0,1,62.324,149.514Z" transform="translate(-32 -144)"/></g><g transform="translate(0 62.487)"><path d="M62.324,145.189H32.919A.868.868,0,0,1,32,144.27v-7.351a.868.868,0,0,1,.919-.919H62.324a.868.868,0,0,1,.919.919v7.351A.868.868,0,0,1,62.324,145.189Zm-28.487-1.838H61.405v-5.514H33.838Z" transform="translate(-32 -136)"/></g><g transform="translate(22.054 62.487)"><path d="M56.919,145.189A.868.868,0,0,1,56,144.27v-7.351a.919.919,0,0,1,1.838,0v7.351A.868.868,0,0,1,56.919,145.189Z" transform="translate(-56 -136)"/></g><g transform="translate(14.703 66.162)"><path d="M52.595,141.838H48.919a.919.919,0,0,1,0-1.838h3.676a.919.919,0,1,1,0,1.838Z" transform="translate(-48 -140)"/></g><g transform="translate(22.054 7.351)"><path d="M56.919,98.054A.868.868,0,0,1,56,97.135V76.919a.919.919,0,0,1,1.838,0V97.135A.868.868,0,0,1,56.919,98.054Z" transform="translate(-56 -76)"/></g><g transform="translate(14.703 7.351)"><path d="M48.919,98.054A.868.868,0,0,1,48,97.135V76.919a.919.919,0,0,1,1.838,0V97.135A.868.868,0,0,1,48.919,98.054Z" transform="translate(-48 -76)"/></g><g transform="translate(7.351 11.027)"><path d="M40.919,98.378A.868.868,0,0,1,40,97.459V80.919a.919.919,0,0,1,1.838,0V97.459A.868.868,0,0,1,40.919,98.378Z" transform="translate(-40 -80)"/></g><path d="M58.649,132.324a.868.868,0,0,1-.919-.919V127.73c0-3.768,2.573-5.789,5.054-7.811,2.941-2.389,5.973-4.87,5.973-10.568V95.66A6.429,6.429,0,0,0,63.243,102v7.351a.919.919,0,1,1-1.838,0V76.27a2.757,2.757,0,0,0-5.514,0,.919.919,0,1,1-1.838,0V72.595a2.757,2.757,0,0,0-5.514,0V76.27a.919.919,0,1,1-1.838,0,2.757,2.757,0,0,0-5.514,0v3.676a.919.919,0,1,1-1.838,0,2.757,2.757,0,0,0-5.514,0V116.7c0,1.654.827,3.308,1.746,5.146.919,1.93,1.93,3.859,1.93,5.881v3.676a.919.919,0,0,1-1.838,0V127.73c0-1.654-.827-3.308-1.746-5.146-.919-1.93-1.93-3.859-1.93-5.881V79.946a4.55,4.55,0,0,1,4.595-4.595,4.725,4.725,0,0,1,2.757.919h0a4.55,4.55,0,0,1,4.595-4.595,4.725,4.725,0,0,1,2.757.919h0a4.595,4.595,0,0,1,9.189,0h0a4.725,4.725,0,0,1,2.757-.919,4.55,4.55,0,0,1,4.595,4.595V96.762a8.444,8.444,0,0,1,6.432-3.032.868.868,0,0,1,.919.919v14.7c0,6.524-3.676,9.557-6.708,11.946-2.389,2.022-4.319,3.584-4.319,6.432v3.676A.868.868,0,0,1,58.649,132.324Z" transform="translate(-32 -68)"/></g><g transform="translate(279.032 14.703)"><path d="M389.784,72.973H308.919a.868.868,0,0,1-.919-.919V16.919a.868.868,0,0,1,.919-.919h80.865a.868.868,0,0,1,.919.919V72.054A.868.868,0,0,1,389.784,72.973Zm-79.946-1.838h79.027v-53.3H309.838Z" transform="translate(-308 -16)"/></g><g transform="translate(279.032 58.111)"><path d="M389.784,65.838H308.919a.919.919,0,1,1,0-1.838h80.865a.919.919,0,1,1,0,1.838Z" transform="translate(-308 -64)"/></g><g transform="translate(284.235 63.559)"><path d="M371.851,71.838H314.419a.919.919,0,0,1,0-1.838h57.433a.919.919,0,0,1,0,1.838Z" transform="translate(-313.5 -70)"/></g><g transform="translate(296.213 24.811)"><path d="M374.016,28.838H327.335a.942.942,0,0,1,0-1.838h46.681a.942.942,0,0,1,0,1.838Z" transform="translate(-326.6 -27)"/></g><g transform="translate(296.213 32.688)"><path d="M374.016,37.838H327.335a.942.942,0,0,1,0-1.838h46.681a.942.942,0,0,1,0,1.838Z" transform="translate(-326.6 -36)"/></g><g transform="translate(296.213 40.86)"><path d="M374.016,46.838H327.335a.942.942,0,0,1,0-1.838h46.681a.942.942,0,0,1,0,1.838Z" transform="translate(-326.6 -45)"/></g><g transform="translate(296.213 49.032)"><path d="M374.016,55.838H327.335a.942.942,0,0,1,0-1.838h46.681a.942.942,0,0,1,0,1.838Z" transform="translate(-326.6 -54)"/></g><g transform="translate(352.308 61.723)"><path d="M392.595,73.514h-3.676a.868.868,0,0,1-.919-.919V68.919a.868.868,0,0,1,.919-.919h3.676a.868.868,0,0,1,.919.919v3.676A.868.868,0,0,1,392.595,73.514Zm-2.757-1.838h1.838V69.838h-1.838Z" transform="translate(-388 -68)"/></g><g transform="translate(345.044 63.559)"><path d="M384.595,71.838h-3.676a.919.919,0,0,1,0-1.838h3.676a.919.919,0,0,1,0,1.838Z" transform="translate(-380 -70)"/></g><g transform="translate(156.073 43.584)"><path d="M202.324,49.838H172.919a.919.919,0,0,1,0-1.838h29.405a.919.919,0,0,1,0,1.838Z" transform="translate(-172 -48)"/></g><g transform="translate(156.104 54.479)"><path d="M194.973,61.838H172.919a.919.919,0,0,1,0-1.838h22.054a.919.919,0,0,1,0,1.838Z" transform="translate(-172 -60)"/></g><g transform="translate(203.413 18.378)"><path d="M224.919,82.487a.868.868,0,0,1-.919-.919V20.919a.919.919,0,0,1,1.838,0V81.568A.868.868,0,0,1,224.919,82.487Z" transform="translate(-224 -20)"/></g><g transform="translate(207.045 47.052)"><path d="M228.919,85.081a.868.868,0,0,1-.919-.919V52.919a.919.919,0,0,1,1.838,0V84.162A.868.868,0,0,1,228.919,85.081Z" transform="translate(-228 -52)"/></g><g transform="translate(214.31 47.149)"><path d="M236.919,68.541a.868.868,0,0,1-.919-.919v-14.7a.919.919,0,0,1,1.838,0v14.7A.868.868,0,0,1,236.919,68.541Z" transform="translate(-236 -52)"/></g><g transform="translate(236.104 39.91)"><path d="M260.919,56.865a.868.868,0,0,1-.919-.919V44.919a.919.919,0,1,1,1.838,0V55.946A.868.868,0,0,1,260.919,56.865Z" transform="translate(-260 -44)"/></g><g transform="translate(243.133 32.688)"><path d="M305.676,37.838H268.919a.919.919,0,1,1,0-1.838h36.757a.919.919,0,0,1,0,1.838Z" transform="translate(-268 -36)"/></g><g transform="translate(185.251 61.631)"><path d="M204.919,88.216A.868.868,0,0,1,204,87.3V68.919a.919.919,0,1,1,1.838,0V87.3A.868.868,0,0,1,204.919,88.216Z" transform="translate(-204 -68)"/></g><g transform="translate(192.388 87.167)"><path d="M238.649,97.838h-25.73a.919.919,0,1,1,0-1.838h25.73a.919.919,0,0,1,0,1.838Z" transform="translate(-212 -96)"/></g><g transform="translate(225.207 94.259)"><path d="M248.919,124.216A.868.868,0,0,1,248,123.3V104.919a.919.919,0,0,1,1.838,0V123.3A.868.868,0,0,1,248.919,124.216Z" transform="translate(-248 -104)"/></g><g transform="translate(239.736 105.257)"><path d="M264.919,125.189a.868.868,0,0,1-.919-.919v-7.351a.919.919,0,0,1,1.838,0v7.351A.868.868,0,0,1,264.919,125.189Z" transform="translate(-264 -116)"/></g><g transform="translate(250.634 104.931)"><path d="M276.919,136.216A.868.868,0,0,1,276,135.3V116.919a.919.919,0,0,1,1.838,0V135.3A.868.868,0,0,1,276.919,136.216Z" transform="translate(-276 -116)"/></g><g transform="translate(257.898 62.66)"><path d="M284.919,132.487a.868.868,0,0,1-.919-.919V70.919a.919.919,0,1,1,1.838,0v60.649A.868.868,0,0,1,284.919,132.487Z" transform="translate(-284 -70)"/></g><g transform="translate(268.795 63.151)"><path d="M296.919,120.541a.868.868,0,0,1-.919-.919v-48.7a.919.919,0,0,1,1.838,0v48.7A.868.868,0,0,1,296.919,120.541Z" transform="translate(-296 -70)"/></g><g transform="translate(177.954 54.443)"><path d="M204.27,69.189a.868.868,0,0,1-.919-.919,6.393,6.393,0,0,0-6.432-6.432.919.919,0,1,1,0-1.838,8.236,8.236,0,0,1,8.27,8.27A.868.868,0,0,1,204.27,69.189Z" transform="translate(-196 -60)"/></g><g transform="translate(185.217 79.85)"><path d="M212.27,97.189a8.236,8.236,0,0,1-8.27-8.27.919.919,0,1,1,1.838,0,6.393,6.393,0,0,0,6.432,6.432.919.919,0,0,1,0,1.838Z" transform="translate(-204 -88)"/></g><g transform="translate(203.394 78.075)"><path d="M226.757,89.676A2.708,2.708,0,0,1,224,86.919a.919.919,0,1,1,1.838,0,.919.919,0,0,0,1.838,0,.919.919,0,1,1,1.838,0A2.708,2.708,0,0,1,226.757,89.676Z" transform="translate(-224 -86)"/></g><g transform="translate(250.588 123.309)"><path d="M280.595,141.514A4.55,4.55,0,0,1,276,136.919a.919.919,0,0,1,1.838,0,2.757,2.757,0,1,0,5.514,0,.919.919,0,0,1,1.838,0A4.55,4.55,0,0,1,280.595,141.514Z" transform="translate(-276 -136)"/></g><g transform="translate(185.217 36.295)"><path d="M204.919,49.189a.919.919,0,1,1,0-1.838,6.393,6.393,0,0,0,6.432-6.432.919.919,0,0,1,1.838,0A8.236,8.236,0,0,1,204.919,49.189Z" transform="translate(-204 -40)"/></g><g transform="translate(192.463 12.865)"><path d="M223.946,21.351a.868.868,0,0,1-.919-.919,4.595,4.595,0,1,0-9.189,0,.919.919,0,0,1-1.838,0,6.432,6.432,0,1,1,12.865,0A.868.868,0,0,1,223.946,21.351Z" transform="translate(-212 -14)"/></g><g transform="translate(239.67 99.83)"><path d="M275.946,117.351a.868.868,0,0,1-.919-.919,4.595,4.595,0,1,0-9.189,0,.919.919,0,0,1-1.838,0,6.432,6.432,0,0,1,12.865,0A.868.868,0,0,1,275.946,117.351Z" transform="translate(-264 -110)"/></g><g transform="translate(257.827 58.083)"><path d="M295.946,71.351a.868.868,0,0,1-.919-.919,4.595,4.595,0,0,0-9.189,0,.919.919,0,1,1-1.838,0,6.432,6.432,0,0,1,12.865,0A.868.868,0,0,1,295.946,71.351Z" transform="translate(-284 -64)"/></g><g transform="translate(192.516 18.378)"><path d="M212.919,40.216A.868.868,0,0,1,212,39.3V20.919a.919.919,0,0,1,1.838,0V39.3A.868.868,0,0,1,212.919,40.216Z" transform="translate(-212 -20)"/></g><g transform="translate(207.007 43.569)"><path d="M236.27,53.514a.868.868,0,0,1-.919-.919,2.757,2.757,0,1,0-5.514,0,.919.919,0,0,1-1.838,0,4.595,4.595,0,0,1,9.189,0A.868.868,0,0,1,236.27,53.514Z" transform="translate(-228 -48)"/></g><g transform="translate(214.29 61.723)"><path d="M240.595,73.514A4.55,4.55,0,0,1,236,68.919a.919.919,0,1,1,1.838,0,2.708,2.708,0,0,0,2.757,2.757.919.919,0,0,1,0,1.838Z" transform="translate(-236 -68)"/></g><g transform="translate(236.061 32.666)"><path d="M260.919,45.189A.868.868,0,0,1,260,44.27,8.236,8.236,0,0,1,268.27,36a.919.919,0,0,1,0,1.838,6.393,6.393,0,0,0-6.432,6.432A.868.868,0,0,1,260.919,45.189Z" transform="translate(-260 -36)"/></g><g transform="translate(225.166 112.282)"><path d="M256.27,133.189a8.236,8.236,0,0,1-8.27-8.27.919.919,0,1,1,1.838,0,6.393,6.393,0,0,0,6.432,6.432.919.919,0,0,1,0,1.838Z" transform="translate(-248 -124)"/></g><g transform="translate(232.429 112.282)"><path d="M256.919,133.189a.919.919,0,0,1,0-1.838,6.393,6.393,0,0,0,6.432-6.432.919.919,0,1,1,1.838,0A8.236,8.236,0,0,1,256.919,133.189Z" transform="translate(-256 -124)"/></g><g transform="translate(268.74 111.363)"><path d="M305.189,133.108A9.216,9.216,0,0,1,296,123.919a.919.919,0,0,1,1.838,0,7.373,7.373,0,0,0,7.351,7.351.919.919,0,1,1,0,1.838Z" transform="translate(-296 -123)"/></g><g transform="translate(217.903 87.109)"><path d="M248.27,105.189a.868.868,0,0,1-.919-.919,6.393,6.393,0,0,0-6.432-6.432.919.919,0,1,1,0-1.838,8.236,8.236,0,0,1,8.27,8.27A.868.868,0,0,1,248.27,105.189Z" transform="translate(-240 -96)"/></g><g transform="translate(221.406 50.685)"><path d="M259.622,87.243a15.622,15.622,0,1,1,15.622-15.622A15.609,15.609,0,0,1,259.622,87.243Zm0-29.405a13.784,13.784,0,1,0,13.784,13.784A13.765,13.765,0,0,0,259.622,57.838Z" transform="translate(-244 -56)"/></g><g transform="translate(217.923 65.375)"><path d="M244.595,73.838h-3.676a.919.919,0,1,1,0-1.838h3.676a.919.919,0,0,1,0,1.838Z" transform="translate(-240 -72)"/></g><g transform="translate(244.998)"><g transform="translate(11.946 45.027)"><path d="M288.514,52.676h-3.676L283,49h7.351Z" transform="translate(-283 -49)" fill="#6d6d6d"/></g><g transform="translate(10.108 34)"><rect width="11.027" height="11.027" fill="#b5b5b5"/></g><g transform="translate(0.919 0.919)"><path d="M291.216,34.081c0-4.411,1.838-4.686,4.87-7.995a14.7,14.7,0,1,0-20.768,0c3.032,3.308,4.87,3.584,4.87,7.995Z" transform="translate(-271 -1)" fill="#f9e765"/></g><g transform="translate(9.189 33.081)"><path d="M291.946,48.865H280.919a.868.868,0,0,1-.919-.919V36.919a.868.868,0,0,1,.919-.919h11.027a.868.868,0,0,1,.919.919V47.946A.868.868,0,0,1,291.946,48.865Zm-10.108-1.838h9.189V37.838h-9.189Z" transform="translate(-280 -36)" fill="#020210"/></g><path d="M291.135,34.919a.868.868,0,0,1-.919-.919c0-3.768,1.286-4.962,3.216-6.708.551-.551,1.195-1.1,1.93-1.93a13.548,13.548,0,0,0,4.043-9.741,13.784,13.784,0,1,0-23.524,9.741c.735.827,1.378,1.378,1.93,1.93,1.93,1.746,3.216,2.941,3.216,6.708a.919.919,0,0,1-1.838,0c0-2.941-.827-3.676-2.573-5.33a20.9,20.9,0,0,1-2.022-2.022,15.622,15.622,0,1,1,22.054,0,20.893,20.893,0,0,1-2.022,2.022c-1.746,1.654-2.573,2.389-2.573,5.33A.868.868,0,0,1,291.135,34.919Z" transform="translate(-270)" fill="#020210"/><g transform="translate(11.027 11.027)"><path d="M290.27,13.838h-7.351a.919.919,0,0,1,0-1.838h7.351a.919.919,0,0,1,0,1.838Z" transform="translate(-282 -12)" fill="#020210"/></g><g transform="translate(14.689 11.013)"><path d="M286.918,35.891h-.184a.953.953,0,0,1-.735-1.1l3.676-22.054a.937.937,0,1,1,1.838.368l-3.676,22.054A.9.9,0,0,1,286.918,35.891Z" transform="translate(-285.985 -11.985)" fill="#020210"/></g><g transform="translate(11.013 11.013)"><path d="M286.593,35.891a.9.9,0,0,1-.919-.735L282,13.1a.937.937,0,1,1,1.838-.368l3.676,22.054a1.008,1.008,0,0,1-.735,1.1Z" transform="translate(-281.985 -11.985)" fill="#020210"/></g><g transform="translate(9.189 36.757)"><path d="M291.946,41.838H280.919a.919.919,0,0,1,0-1.838h11.027a.919.919,0,0,1,0,1.838Z" transform="translate(-280 -40)" fill="#020210"/></g><g transform="translate(9.189 40.432)"><path d="M281,45h0Z" transform="translate(-280.081 -44.081)" fill="#fff"/><path d="M291.946,45.838H280.919a.919.919,0,0,1,0-1.838h11.027a.919.919,0,0,1,0,1.838Z" transform="translate(-280 -44)" fill="#020210"/></g><g transform="translate(11.013 44.016)"><path d="M288.431,53.505h-3.676a.883.883,0,0,1-.827-.551l-1.838-3.676a1.073,1.073,0,0,1,0-.919.965.965,0,0,1,.827-.459h7.351a1.1,1.1,0,0,1,.827.459.835.835,0,0,1,0,.919l-1.838,3.676A.883.883,0,0,1,288.431,53.505Zm-3.124-1.838h2.573l.919-1.838h-4.411Z" transform="translate(-281.985 -47.9)" fill="#020210"/></g><g transform="translate(3.676 3.676)"><path d="M274.919,16.865a.868.868,0,0,1-.919-.919A11.922,11.922,0,0,1,285.946,4a.868.868,0,0,1,.919.919.868.868,0,0,1-.919.919,10.079,10.079,0,0,0-10.108,10.108A.868.868,0,0,1,274.919,16.865Z" transform="translate(-274 -4)" fill="#fff"/></g></g><g transform="translate(216.025 81.57)"><g transform="translate(0.919 0.919)"><circle cx="9.189" cy="9.189" r="9.189" fill="#f9e765"/></g><path d="M248.108,110.216a10.108,10.108,0,1,1,10.108-10.108A10.079,10.079,0,0,1,248.108,110.216Zm0-18.378a8.27,8.27,0,1,0,8.27,8.27A8.236,8.236,0,0,0,248.108,91.838Z" transform="translate(-238 -90)" fill="#020210"/><g transform="translate(7.351 4.595)"><g transform="translate(0 4.595)"><path d="M248.757,105.514A2.708,2.708,0,0,1,246,102.757a.919.919,0,0,1,1.838,0,.919.919,0,1,0,.919-.919.919.919,0,0,1,0-1.838,2.757,2.757,0,1,1,0,5.514Z" transform="translate(-246 -100)" fill="#020210"/></g><g transform="translate(0 0.919)"><path d="M248.757,101.514a2.757,2.757,0,1,1,2.757-2.757.919.919,0,1,1-1.838,0,.919.919,0,1,0-.919.919.919.919,0,1,1,0,1.838Z" transform="translate(-246 -96)" fill="#020210"/></g><g transform="translate(1.838)"><path d="M248.919,97.757a.868.868,0,0,1-.919-.919v-.919a.919.919,0,1,1,1.838,0v.919A.868.868,0,0,1,248.919,97.757Z" transform="translate(-248 -95)" fill="#020210"/></g><g transform="translate(1.838 8.27)"><path d="M248.919,106.757a.868.868,0,0,1-.919-.919v-.919a.919.919,0,0,1,1.838,0v.919A.868.868,0,0,1,248.919,106.757Z" transform="translate(-248 -104)" fill="#020210"/></g></g></g><g transform="translate(275.971 119.633)"><path d="M317.784,133.838H304.919a.919.919,0,0,1,0-1.838h12.865a.919.919,0,1,1,0,1.838Z" transform="translate(-304 -132)"/></g><g transform="translate(383.861 50.848)"><path d="M454.324,57.838H424.919a.919.919,0,0,1,0-1.838h29.405a.919.919,0,0,1,0,1.838Z" transform="translate(-424 -56)"/></g><g transform="translate(374.134 58.006)"><path d="M412.919,84.216A.868.868,0,0,1,412,83.3V64.919a.919.919,0,1,1,1.838,0V83.3A.868.868,0,0,1,412.919,84.216Z" transform="translate(-412 -64)"/></g><g transform="translate(374.066 50.814)"><path d="M412.919,65.189A.868.868,0,0,1,412,64.27,8.236,8.236,0,0,1,420.27,56a.919.919,0,0,1,0,1.838,6.393,6.393,0,0,0-6.432,6.432A.868.868,0,0,1,412.919,65.189Z" transform="translate(-412 -56)"/></g><g transform="translate(163.298 64.498)"><g transform="translate(15.622 41.351)"><rect width="7.351" height="29.405" fill="#637282"/></g><g transform="translate(17.459 37.676)"><rect width="3.676" height="3.676" fill="#637282"/></g><g transform="translate(0.919 0.919)"><path d="M18.378,0A18.378,18.378,0,1,1,0,18.378,18.378,18.378,0,0,1,18.378,0Z" fill="#637282"/></g><g transform="translate(4.595 4.595)"><circle cx="14.703" cy="14.703" r="14.703" fill="#35c9cb"/></g><path d="M199.3,110.595a19.3,19.3,0,1,1,19.3-19.3A19.295,19.295,0,0,1,199.3,110.595Zm0-36.757A17.459,17.459,0,1,0,216.757,91.3,17.452,17.452,0,0,0,199.3,73.838Z" transform="translate(-180 -72)" fill="#020210"/><g transform="translate(3.676 3.676)"><path d="M199.622,107.243a15.622,15.622,0,1,1,15.622-15.622A15.609,15.609,0,0,1,199.622,107.243Zm0-29.405a13.784,13.784,0,1,0,13.784,13.784A13.765,13.765,0,0,0,199.622,77.838Z" transform="translate(-184 -76)" fill="#020210"/></g><g transform="translate(14.703 40.432)"><path d="M204.27,147.243h-7.351a.868.868,0,0,1-.919-.919V116.919a.868.868,0,0,1,.919-.919h7.351a.868.868,0,0,1,.919.919v29.405A.868.868,0,0,1,204.27,147.243Zm-6.432-1.838h5.514V117.838h-5.514Z" transform="translate(-196 -116)" fill="#020210"/></g><g transform="translate(14.703 44.108)"><path d="M204.27,121.838h-7.351a.919.919,0,1,1,0-1.838h7.351a.919.919,0,0,1,0,1.838Z" transform="translate(-196 -120)" fill="#020210"/></g><g transform="translate(14.703 66.162)"><path d="M204.27,145.838h-7.351a.919.919,0,1,1,0-1.838h7.351a.919.919,0,0,1,0,1.838Z" transform="translate(-196 -144)" fill="#020210"/></g><g transform="translate(16.541 36.757)"><path d="M198.919,117.514a.868.868,0,0,1-.919-.919v-3.676a.919.919,0,1,1,1.838,0v3.676A.868.868,0,0,1,198.919,117.514Z" transform="translate(-198 -112)" fill="#020210"/></g><g transform="translate(20.216 36.757)"><path d="M202.919,117.514a.868.868,0,0,1-.919-.919v-3.676a.919.919,0,1,1,1.838,0v3.676A.868.868,0,0,1,202.919,117.514Z" transform="translate(-202 -112)" fill="#020210"/></g><g transform="translate(7.351 7.351)"><path d="M188.919,92.865a.868.868,0,0,1-.919-.919A11.922,11.922,0,0,1,199.946,80a.919.919,0,1,1,0,1.838,10.079,10.079,0,0,0-10.108,10.108A.868.868,0,0,1,188.919,92.865Z" transform="translate(-188 -80)" fill="#fff"/></g></g><g transform="translate(170.591 18.378)"><path d="M212.892,28.351a7.328,7.328,0,0,0-14.427-1.838h-.276a5.53,5.53,0,0,0-5.514,5.514,3.676,3.676,0,0,0,0,7.351h20.216a5.514,5.514,0,0,0,0-11.027Z" transform="translate(-188.081 -20.081)" fill="#fff"/><path d="M212.811,40.216H192.595A4.55,4.55,0,0,1,188,35.622a4.628,4.628,0,0,1,3.768-4.5,6.47,6.47,0,0,1,5.973-5.605A8.232,8.232,0,0,1,205.551,20a8.35,8.35,0,0,1,8.27,7.443,6.429,6.429,0,0,1,5.514,6.341A6.53,6.53,0,0,1,212.811,40.216ZM198.2,27.351a4.628,4.628,0,0,0-4.686,4.595.868.868,0,0,1-.919.919,2.757,2.757,0,0,0,0,5.514h20.216a4.595,4.595,0,1,0,0-9.189.868.868,0,0,1-.919-.919,6.393,6.393,0,0,0-6.432-6.432,6.483,6.483,0,0,0-6.249,4.87.9.9,0,0,1-.919.735A.09.09,0,0,0,198.2,27.351Z" transform="translate(-188 -20)"/></g><g transform="translate(230.592 58.052)"><path d="M260.432,76.865a6.432,6.432,0,1,1,6.432-6.432A6.393,6.393,0,0,1,260.432,76.865Zm0-11.027a4.595,4.595,0,1,0,4.595,4.595A4.55,4.55,0,0,0,260.432,65.838Z" transform="translate(-254 -64)"/></g><g transform="translate(225.85 68.964)"><path d="M249.814,84.73a.552.552,0,0,1-.368-.092.956.956,0,0,1-.551-1.195A11.918,11.918,0,0,1,260.014,76a12.05,12.05,0,0,1,11.027,7.259.905.905,0,1,1-1.654.735,10.086,10.086,0,0,0-18.654.184A1.119,1.119,0,0,1,249.814,84.73Z" transform="translate(-248.837 -76)"/></g><g transform="translate(359.572 32.688)"><path d="M400.595,37.838h-3.676a.919.919,0,0,1,0-1.838h3.676a.919.919,0,0,1,0,1.838Z" transform="translate(-396 -36)"/></g><g transform="translate(363.171 32.666)"><path d="M408.27,45.189a.868.868,0,0,1-.919-.919,6.393,6.393,0,0,0-6.432-6.432.919.919,0,1,1,0-1.838,8.236,8.236,0,0,1,8.27,8.27A.868.868,0,0,1,408.27,45.189Z" transform="translate(-400 -36)"/></g><g transform="translate(370.502 39.78)"><path d="M408.919,82.595a.868.868,0,0,1-.919-.919V44.919a.919.919,0,0,1,1.838,0V81.676A.868.868,0,0,1,408.919,82.595Z" transform="translate(-408 -44)"/></g><g transform="translate(413.267 14.703)"><path d="M508.378,117.081H460.595A4.55,4.55,0,0,1,456,112.487V20.595A4.55,4.55,0,0,1,460.595,16h47.784a4.55,4.55,0,0,1,4.595,4.595v91.892A4.55,4.55,0,0,1,508.378,117.081ZM460.595,17.838a2.708,2.708,0,0,0-2.757,2.757v91.892a2.708,2.708,0,0,0,2.757,2.757h47.784a2.708,2.708,0,0,0,2.757-2.757V20.595a2.708,2.708,0,0,0-2.757-2.757Z" transform="translate(-456 -16)"/></g><g transform="translate(416.942 25.047)"><path d="M508.7,107.027H460.919a.868.868,0,0,1-.919-.919V28.919a.868.868,0,0,1,.919-.919H508.7a.868.868,0,0,1,.919.919v77.189A.868.868,0,0,1,508.7,107.027Zm-46.865-1.838h45.946V29.838H461.838Z" transform="translate(-460 -28)"/></g><g transform="translate(438.996 105.293)"><path d="M486.757,121.514a2.757,2.757,0,1,1,2.757-2.757A2.708,2.708,0,0,1,486.757,121.514Zm0-3.676a.919.919,0,1,0,.919.919A.868.868,0,0,0,486.757,117.838Z" transform="translate(-484 -116)"/></g><g transform="translate(437.159 20.216)"><path d="M490.27,23.838h-7.351a.919.919,0,0,1,0-1.838h7.351a.919.919,0,0,1,0,1.838Z" transform="translate(-482 -22)"/></g><g transform="translate(377.766 86.552)"><path d="M416.919,136.432a.868.868,0,0,1-.919-.919V96.919a.919.919,0,1,1,1.838,0v38.595A.868.868,0,0,1,416.919,136.432Z" transform="translate(-416 -96)"/></g><g transform="translate(368.601 125.147)"><path d="M406.919,149.027a.919.919,0,0,1,0-1.838,8.236,8.236,0,0,0,8.27-8.27.919.919,0,1,1,1.838,0A10.079,10.079,0,0,1,406.919,149.027Z" transform="translate(-406 -138)"/></g><g transform="translate(359.523 125.147)"><path d="M406.108,149.027A10.079,10.079,0,0,1,396,138.919a.919.919,0,1,1,1.838,0,8.236,8.236,0,0,0,8.27,8.27.919.919,0,0,1,0,1.838Z" transform="translate(-396 -138)"/></g><g transform="translate(359.605 77.363)"><path d="M396.919,135.622A.868.868,0,0,1,396,134.7V86.919a.919.919,0,1,1,1.838,0V134.7A.868.868,0,0,1,396.919,135.622Z" transform="translate(-396 -86)"/></g><g transform="translate(355.94 76.259)"><path d="M396.595,87.676a.868.868,0,0,1-.919-.919.919.919,0,1,0-1.838,0,.919.919,0,0,1-1.838,0,2.757,2.757,0,0,1,5.514,0A.868.868,0,0,1,396.595,87.676Z" transform="translate(-392 -84)"/></g><g transform="translate(355.972 77.363)"><path d="M392.919,133.784a.868.868,0,0,1-.919-.919V86.919a.919.919,0,1,1,1.838,0v45.946A.868.868,0,0,1,392.919,133.784Z" transform="translate(-392 -86)"/></g><g transform="translate(402.24 68.174)"><path d="M444.919,134.811a.868.868,0,0,1-.919-.919V76.919a.919.919,0,0,1,1.838,0v56.973A.868.868,0,0,1,444.919,134.811Z" transform="translate(-444 -76)"/></g><g transform="translate(402.24 65.354)"><path d="M444.919,77.514a.868.868,0,0,1-.919-.919A4.55,4.55,0,0,1,448.595,72a.919.919,0,0,1,0,1.838,2.708,2.708,0,0,0-2.757,2.757A.868.868,0,0,1,444.919,77.514Z" transform="translate(-444 -72)"/></g><g transform="translate(405.915 65.375)"><path d="M456.27,73.838h-7.351a.919.919,0,1,1,0-1.838h7.351a.919.919,0,0,1,0,1.838Z" transform="translate(-448 -72)"/></g><g transform="translate(352.308 123.309)"><path d="M388.919,141.514a.919.919,0,0,1,0-1.838,2.708,2.708,0,0,0,2.757-2.757.919.919,0,0,1,1.838,0A4.55,4.55,0,0,1,388.919,141.514Z" transform="translate(-388 -136)"/></g><g transform="translate(348.676 123.309)"><path d="M388.595,141.514A4.55,4.55,0,0,1,384,136.919a.919.919,0,0,1,1.838,0,2.708,2.708,0,0,0,2.757,2.757.919.919,0,0,1,0,1.838Z" transform="translate(-384 -136)"/></g><g transform="translate(348.708 106.769)"><path d="M384.919,136.378a.868.868,0,0,1-.919-.919V118.919a.919.919,0,1,1,1.838,0v16.541A.868.868,0,0,1,384.919,136.378Z" transform="translate(-384 -118)"/></g><g transform="translate(337.717 101.645)"><path d="M383.946,119.351a.868.868,0,0,1-.919-.919,4.595,4.595,0,0,0-9.189,0,.919.919,0,1,1-1.838,0,6.432,6.432,0,1,1,12.865,0A.868.868,0,0,1,383.946,119.351Z" transform="translate(-372 -112)"/></g><g transform="translate(337.81 107.09)"><path d="M372.919,125.351a.868.868,0,0,1-.919-.919v-5.514a.919.919,0,1,1,1.838,0v5.514A.868.868,0,0,1,372.919,125.351Z" transform="translate(-372 -118)"/></g><g transform="translate(330.486 112.282)"><path d="M364.919,133.189a.919.919,0,1,1,0-1.838,6.393,6.393,0,0,0,6.432-6.432.919.919,0,1,1,1.838,0A8.236,8.236,0,0,1,364.919,133.189Z" transform="translate(-364 -124)"/></g><g transform="translate(323.222 119.633)"><path d="M364.27,133.838h-7.351a.919.919,0,0,1,0-1.838h7.351a.919.919,0,0,1,0,1.838Z" transform="translate(-356 -132)"/></g><g transform="translate(370.468 76.259)"><path d="M410.757,87.676A2.708,2.708,0,0,1,408,84.919a.919.919,0,0,1,1.838,0,.919.919,0,1,0,1.838,0,.919.919,0,1,1,1.838,0A2.708,2.708,0,0,1,410.757,87.676Z" transform="translate(-408 -84)"/></g><g transform="translate(337.717 79.758)"><path d="M384.027,94.514c0,3.032-5.514,12.865-5.514,12.865S373,97.546,373,94.514a5.514,5.514,0,0,1,11.027,0Z" transform="translate(-372.081 -88.081)" fill="#ff4a63"/><path d="M378.432,108.216a.965.965,0,0,1-.827-.459C377.054,106.746,372,97.649,372,94.432a6.432,6.432,0,1,1,12.865,0c0,3.216-5.054,12.314-5.605,13.324A.965.965,0,0,1,378.432,108.216Zm0-18.378a4.55,4.55,0,0,0-4.595,4.595c0,1.838,2.481,7.076,4.595,10.935,2.114-3.859,4.595-9.1,4.595-10.935A4.55,4.55,0,0,0,378.432,89.838Z" transform="translate(-372 -88)" fill="#020210"/></g><g transform="translate(341.412 83.508)"><circle cx="1.838" cy="1.838" r="1.838" transform="translate(0.919 0.919)" fill="#fff"/><path d="M378.757,97.514a2.757,2.757,0,1,1,2.757-2.757A2.708,2.708,0,0,1,378.757,97.514Zm0-3.676a.919.919,0,1,0,.919.919A.868.868,0,0,0,378.757,93.838Z" transform="translate(-376 -92)" fill="#020210"/></g><g transform="translate(385.741 44.437)"><rect width="22.054" height="14.703" fill="#f9e765"/></g><g transform="translate(384.764 43.522)"><g transform="translate(0.05)"><path d="M446.973,64.541H424.919a.868.868,0,0,1-.919-.919v-14.7a.868.868,0,0,1,.919-.919h22.054a.868.868,0,0,1,.919.919v14.7A.868.868,0,0,1,446.973,64.541ZM425.838,62.7h20.216V49.838H425.838Z" transform="translate(-424 -48)" fill="#020210"/></g><g transform="translate(0 0.042)"><g transform="translate(13.508 0)"><path d="M439.615,57.193a1.043,1.043,0,0,1-.735-.276.888.888,0,0,1,.092-1.286l8.546-7.351a.912.912,0,1,1,1.195,1.378l-8.546,7.351A1.306,1.306,0,0,1,439.615,57.193Z" transform="translate(-438.645 -48.045)" fill="#020210"/></g><g transform="translate(8.546 7.351)"><path d="M436.7,59.955a1.7,1.7,0,0,1-.643-.184l-2.481-2.114a.912.912,0,1,1,1.195-1.378l1.838,1.562,1.838-1.562a.912.912,0,0,1,1.195,1.378l-2.481,2.114C437.155,59.863,436.879,59.955,436.7,59.955Z" transform="translate(-433.245 -56.045)" fill="#020210"/></g><path d="M433.46,57.193a1.7,1.7,0,0,1-.643-.184l-8.546-7.351a.912.912,0,0,1,1.195-1.378l8.546,7.351a.893.893,0,0,1,.092,1.286A.715.715,0,0,1,433.46,57.193Z" transform="translate(-423.945 -48.045)" fill="#020210"/><g transform="translate(0 7.351)"><path d="M424.914,65.193a1.043,1.043,0,0,1-.735-.276.888.888,0,0,1,.092-1.286l8.546-7.351a.912.912,0,0,1,1.195,1.378l-8.546,7.351A.985.985,0,0,1,424.914,65.193Z" transform="translate(-423.945 -56.045)" fill="#020210"/></g><g transform="translate(13.508 7.351)"><path d="M448.16,65.193a1.7,1.7,0,0,1-.643-.184l-8.546-7.351a.912.912,0,0,1,1.195-1.378l8.546,7.351a.893.893,0,0,1,.092,1.286A.715.715,0,0,1,448.16,65.193Z" transform="translate(-438.645 -56.045)" fill="#020210"/></g></g></g><g transform="translate(364.719 97.396)"><g transform="translate(1.011 1.103)"><path d="M428.73,122.784v-1.838l-3.859-.827a6.769,6.769,0,0,0-.368-1.286l2.941-2.665-.919-1.562-3.768,1.195a4.356,4.356,0,0,0-.919-.919l1.195-3.768-1.562-.919-2.665,2.941a5.267,5.267,0,0,0-1.286-.368L416.784,109h-1.838l-.827,3.859a6.768,6.768,0,0,0-1.286.368l-2.665-2.941-1.562.919,1.195,3.768a4.356,4.356,0,0,0-.919.919l-3.768-1.195-.919,1.562,2.941,2.665a5.268,5.268,0,0,0-.368,1.286l-3.768.735v1.838l3.859.827a6.769,6.769,0,0,0,.368,1.286l-2.941,2.665.919,1.562,3.768-1.195a4.356,4.356,0,0,0,.919.919l-1.195,3.768,1.562.919,2.665-2.941a5.268,5.268,0,0,0,1.286.368l.827,3.859h1.838l.827-3.859a6.769,6.769,0,0,0,1.286-.368l2.665,2.941,1.562-.919-1.195-3.768a4.356,4.356,0,0,0,.919-.919l3.768,1.195.919-1.562-2.941-2.665a5.268,5.268,0,0,0,.368-1.286Z" transform="translate(-403 -109)" fill="#b5b5b5"/></g><path d="M416.695,135.551h-1.838a.9.9,0,0,1-.919-.735l-.735-3.308c-.092,0-.092,0-.184-.092l-2.205,2.481a.85.85,0,0,1-1.1.184l-1.562-.919a1,1,0,0,1-.459-1.1l1.011-3.216a.09.09,0,0,1-.092-.092l-3.216,1.011a.972.972,0,0,1-1.1-.459l-.919-1.562a.85.85,0,0,1,.184-1.1l2.481-2.205c0-.092,0-.092-.092-.184l-3.308-.735a.9.9,0,0,1-.735-.919v-1.838a.9.9,0,0,1,.735-.919l3.308-.735c0-.092,0-.092.092-.184l-2.481-2.205a.85.85,0,0,1-.184-1.1l.919-1.562a1,1,0,0,1,1.1-.459l3.216,1.011a.09.09,0,0,1,.092-.092l-1.011-3.216a.972.972,0,0,1,.459-1.1l1.562-.919a.85.85,0,0,1,1.1.184l2.205,2.481c.092,0,.092,0,.184-.092l.735-3.308a.9.9,0,0,1,.919-.735h1.838a.9.9,0,0,1,.919.735l.735,3.308c.092,0,.092,0,.184.092l2.205-2.481a.977.977,0,0,1,1.1-.184l1.562.919a1,1,0,0,1,.459,1.1l-1.011,3.216.092.092,3.216-1.011a.972.972,0,0,1,1.1.459l.919,1.562a.85.85,0,0,1-.184,1.1l-2.481,2.205c0,.092,0,.092.092.184l3.308.735a.9.9,0,0,1,.735.919v1.838a.9.9,0,0,1-.735.919l-3.308.735c0,.092,0,.092-.092.184L428,126.638a.85.85,0,0,1,.184,1.1l-.919,1.562a1,1,0,0,1-1.1.459l-3.216-1.011c0,.092-.092.092-.184.184l1.011,3.216a.972.972,0,0,1-.459,1.1l-1.562.919a.85.85,0,0,1-1.1-.184l-2.205-2.481c-.092,0-.092,0-.184.092l-.735,3.308A.742.742,0,0,1,416.695,135.551Zm-1.1-1.838h.368l.643-3.124a1,1,0,0,1,.735-.735l1.1-.276a1.037,1.037,0,0,1,1.011.276l2.113,2.389.276-.184-1.011-3.032a1.037,1.037,0,0,1,.276-1.011l.827-.827a1.037,1.037,0,0,1,1.011-.276l3.032,1.011.184-.276-2.389-2.114a1.037,1.037,0,0,1-.276-1.011,4.847,4.847,0,0,0,.276-1.1,1,1,0,0,1,.735-.735l3.124-.643v-.368l-3.124-.643a1,1,0,0,1-.735-.735l-.276-1.1a1.037,1.037,0,0,1,.276-1.011l2.389-2.114-.184-.276-3.032,1.011a1.037,1.037,0,0,1-1.011-.276l-.827-.827a1.037,1.037,0,0,1-.276-1.011l1.011-3.032-.276-.184-2.113,2.389a1.037,1.037,0,0,1-1.011.276,4.846,4.846,0,0,0-1.1-.276,1,1,0,0,1-.735-.735l-.643-3.124h-.368l-.643,3.124a1,1,0,0,1-.735.735l-1.1.276a1.037,1.037,0,0,1-1.011-.276l-2.113-2.389-.276.184,1.011,3.032a1.037,1.037,0,0,1-.276,1.011l-.827.827a1.037,1.037,0,0,1-1.011.276l-3.032-1.011-.184.276,2.389,2.114a1.037,1.037,0,0,1,.276,1.011,4.847,4.847,0,0,0-.276,1.1,1,1,0,0,1-.735.735l-3.124.643v.368l3.124.643a1,1,0,0,1,.735.735l.276,1.1a1.037,1.037,0,0,1-.276,1.011l-2.389,2.114.184.276,3.032-1.011a1.037,1.037,0,0,1,1.011.276l.827.827a1.037,1.037,0,0,1,.276,1.011l-1.011,3.032.276.184,2.113-2.389a1.037,1.037,0,0,1,1.011-.276,4.845,4.845,0,0,0,1.1.276,1,1,0,0,1,.735.735Z" transform="translate(-401.9 -107.8)" fill="#020210"/><g transform="translate(9.281 9.373)"><path d="M420.351,122.676A3.676,3.676,0,1,1,416.676,119,3.686,3.686,0,0,1,420.351,122.676Z" transform="translate(-412.081 -118.081)" fill="#fff"/><path d="M416.595,127.189a4.595,4.595,0,1,1,4.595-4.595A4.55,4.55,0,0,1,416.595,127.189Zm0-7.351a2.757,2.757,0,1,0,2.757,2.757A2.708,2.708,0,0,0,416.595,119.838Z" transform="translate(-412 -118)" fill="#020210"/></g></g><g transform="translate(377.732 83.508)"><path d="M416.919,97.514a.868.868,0,0,1-.919-.919A4.55,4.55,0,0,1,420.595,92a.919.919,0,0,1,0,1.838,2.708,2.708,0,0,0-2.757,2.757A.868.868,0,0,1,416.919,97.514Z" transform="translate(-416 -92)"/></g><g transform="translate(381.364 83.508)"><path d="M424.595,97.514a.868.868,0,0,1-.919-.919,2.708,2.708,0,0,0-2.757-2.757.919.919,0,1,1,0-1.838,4.55,4.55,0,0,1,4.595,4.595A.868.868,0,0,1,424.595,97.514Z" transform="translate(-420 -92)"/></g><g transform="translate(385.031 87.124)"><path d="M424.919,103.351a.868.868,0,0,1-.919-.919V96.919a.919.919,0,0,1,1.838,0v5.514A.868.868,0,0,1,424.919,103.351Z" transform="translate(-424 -96)"/></g><g transform="translate(387.537 79.806)"><path d="M428.919,102.7a.868.868,0,0,1-.919-.919V88.919a.919.919,0,1,1,1.838,0v12.865A.868.868,0,0,1,428.919,102.7Z" transform="translate(-428 -88)"/></g><g transform="translate(398.564 79.201)"><path d="M440.919,135.784a.868.868,0,0,1-.919-.919V88.919a.919.919,0,1,1,1.838,0v45.946A.868.868,0,0,1,440.919,135.784Z" transform="translate(-440 -88)"/></g><g transform="translate(387.537 74.419)"><path d="M439.946,89.351a.868.868,0,0,1-.919-.919,4.595,4.595,0,0,0-9.189,0,.919.919,0,1,1-1.838,0,6.432,6.432,0,1,1,12.865,0A.868.868,0,0,1,439.946,89.351Z" transform="translate(-428 -82)"/></g><g transform="translate(384.996 92.6)"><path d="M426.757,105.676A2.708,2.708,0,0,1,424,102.919a.919.919,0,0,1,1.838,0,.919.919,0,1,0,1.838,0,.919.919,0,1,1,1.838,0A2.708,2.708,0,0,1,426.757,105.676Z" transform="translate(-424 -102)"/></g><g transform="translate(398.564 125.147)"><path d="M442.757,141.676A2.708,2.708,0,0,1,440,138.919a.919.919,0,1,1,1.838,0,.919.919,0,0,0,1.838,0,.919.919,0,1,1,1.838,0A2.708,2.708,0,0,1,442.757,141.676Z" transform="translate(-440 -138)"/></g><g transform="translate(393.05 94.298)"><g transform="translate(0.919 0.919)"><circle cx="7.351" cy="7.351" r="7.351" fill="#35c9cb"/></g><path d="M442.27,120.541a8.27,8.27,0,1,1,8.27-8.27A8.236,8.236,0,0,1,442.27,120.541Zm0-14.7a6.432,6.432,0,1,0,6.432,6.432A6.393,6.393,0,0,0,442.27,105.838Z" transform="translate(-434 -104)"/><g transform="translate(4.595 5.514)"><path d="M441.757,115.514a.834.834,0,0,1-.643-.276l-1.838-1.838a.91.91,0,0,1,1.286-1.286l1.195,1.195,3.032-3.032a.91.91,0,0,1,1.286,1.286l-3.676,3.676A.834.834,0,0,1,441.757,115.514Z" transform="translate(-439 -110)"/></g></g><g transform="translate(210.579 21.752)"><g transform="translate(0.919 0.919)"><circle cx="9.189" cy="9.189" r="9.189" fill="#35c9cb"/></g><path d="M242.108,44.216a10.108,10.108,0,1,1,10.108-10.108A10.079,10.079,0,0,1,242.108,44.216Zm0-18.378a8.27,8.27,0,1,0,8.27,8.27A8.236,8.236,0,0,0,242.108,25.838Z" transform="translate(-232 -24)" fill="#020210"/><g transform="translate(9.189)"><path d="M242.919,44.216A.868.868,0,0,1,242,43.3V24.919a.919.919,0,0,1,1.838,0V43.3A.868.868,0,0,1,242.919,44.216Z" transform="translate(-242 -24)" fill="#020210"/></g><g transform="translate(4.595)"><path d="M242.514,44.216c-3.124,0-5.514-4.411-5.514-10.108S239.389,24,242.514,24s5.514,4.411,5.514,10.108S245.638,44.216,242.514,44.216Zm0-18.378c-1.746,0-3.676,3.4-3.676,8.27s1.93,8.27,3.676,8.27,3.676-3.4,3.676-8.27S244.259,25.838,242.514,25.838Z" transform="translate(-237 -24)" fill="#020210"/></g><g transform="translate(0 9.189)"><path d="M251.3,35.838H232.919a.919.919,0,1,1,0-1.838H251.3a.919.919,0,0,1,0,1.838Z" transform="translate(-232 -34)" fill="#020210"/></g></g><g transform="translate(378.395 14.703)"><g transform="translate(0.919 0.919)"><path d="M418,17V39.054h13.784l3.676,3.676V39.054h11.027V17Z" transform="translate(-418 -17)" fill="#ff4a63"/></g><g transform="translate(7.351 7.351)"><path d="M439.7,25.838H425.919a.919.919,0,1,1,0-1.838H439.7a.919.919,0,0,1,0,1.838Z" transform="translate(-425 -24)"/></g><g transform="translate(7.351 11.027)"><path d="M439.7,29.838H425.919a.919.919,0,1,1,0-1.838H439.7a.919.919,0,0,1,0,1.838Z" transform="translate(-425 -28)"/></g><g transform="translate(7.351 14.703)"><path d="M439.7,33.838H425.919a.919.919,0,1,1,0-1.838H439.7a.919.919,0,0,1,0,1.838Z" transform="translate(-425 -32)"/></g><path d="M435.378,43.568a.834.834,0,0,1-.643-.276l-3.4-3.4H417.919a.868.868,0,0,1-.919-.919V16.919a.868.868,0,0,1,.919-.919h28.487a.868.868,0,0,1,.919.919V38.973a.868.868,0,0,1-.919.919H436.3v2.757a.8.8,0,0,1-.551.827A.552.552,0,0,1,435.378,43.568Zm-16.541-5.514H431.7a.834.834,0,0,1,.643.276l2.113,2.114v-1.47a.868.868,0,0,1,.919-.919h10.108V17.838H418.838Z" transform="translate(-417 -16)"/></g><g transform="translate(381.364 50.848)"><path d="M424.595,57.838h-3.676a.919.919,0,1,1,0-1.838h3.676a.919.919,0,1,1,0,1.838Z" transform="translate(-420 -56)"/></g><g transform="translate(192.444 101.255)"><g transform="translate(6.432 13.784)"><circle cx="1.838" cy="1.838" r="1.838" fill="#b5b5b5"/></g><g transform="translate(0 7.351)"><path d="M220.351,121A7.373,7.373,0,0,0,213,128.351v11.027a7.351,7.351,0,1,0,14.7,0V128.351A7.314,7.314,0,0,0,220.351,121Z" transform="translate(-212.081 -120.081)" fill="#fff"/><path d="M220.27,147.568A8.236,8.236,0,0,1,212,139.3V128.27a8.27,8.27,0,1,1,16.541,0V139.3A8.236,8.236,0,0,1,220.27,147.568Zm0-25.73a6.393,6.393,0,0,0-6.432,6.432V139.3a6.432,6.432,0,0,0,12.865,0V128.27A6.393,6.393,0,0,0,220.27,121.838Z" transform="translate(-212 -120)" fill="#020210"/></g><g transform="translate(5.514 12.865)"><path d="M220.757,131.514a2.757,2.757,0,1,1,2.757-2.757A2.708,2.708,0,0,1,220.757,131.514Zm0-3.676a.919.919,0,1,0,.919.919A.868.868,0,0,0,220.757,127.838Z" transform="translate(-218 -126)" fill="#020210"/></g><g transform="translate(7.351)"><path d="M220.919,117.514a.868.868,0,0,1-.919-.919v-3.676a.919.919,0,1,1,1.838,0v3.676A.868.868,0,0,1,220.919,117.514Z" transform="translate(-220 -112)" fill="#020210"/></g><g transform="translate(10.969 1.78)"><path d="M224.914,117.671a.7.7,0,0,1-.368-.092.956.956,0,0,1-.551-1.195l.735-1.838a.93.93,0,0,1,1.746.643l-.735,1.838A.787.787,0,0,1,224.914,117.671Z" transform="translate(-223.937 -113.937)" fill="#020210"/></g><g transform="translate(2.975 1.872)"><path d="M216.857,117.679a.8.8,0,0,1-.827-.551l-.735-1.838a.93.93,0,0,1,1.746-.643l.735,1.838a.956.956,0,0,1-.551,1.195Z" transform="translate(-215.237 -114.037)" fill="#020210"/></g></g><g transform="translate(0 35.967)"><g transform="translate(4.595 4.595)"><path d="M8.676,103.811C5,91.589,4.081,70.73,5.919,45h5.514C13.27,70.73,12.351,91.589,8.676,103.811Z" transform="translate(-5 -45)" fill="#35c9cb"/></g><g transform="translate(0 7.351)"><path d="M.919,68.216A.868.868,0,0,1,0,67.3V48.919A.868.868,0,0,1,.919,48a.868.868,0,0,1,.919.919V67.3A.868.868,0,0,1,.919,68.216Z" transform="translate(0 -48)" fill="#020210"/></g><g transform="translate(0 7.351)"><path d="M4.595,49.838H.919A.919.919,0,0,1,.919,48H4.595a.919.919,0,0,1,0,1.838Z" transform="translate(0 -48)" fill="#020210"/></g><g transform="translate(3.696 3.676)"><path d="M8.6,104.649a1.106,1.106,0,0,1-.919-.643C4.094,91.784,3.083,70.832,4.921,44.827A.907.907,0,0,1,5.84,44h5.514a.907.907,0,0,1,.919.827c1.838,25.914.827,46.957-2.757,59.178A1.106,1.106,0,0,1,8.6,104.649ZM6.667,45.838C5.1,68.9,5.748,88.016,8.6,100.146c2.849-12.13,3.492-31.151,1.93-54.308Z" transform="translate(-4.022 -44)" fill="#020210"/></g><g transform="translate(7.351)"><path d="M8.919,45.514A.868.868,0,0,1,8,44.595V40.919A.868.868,0,0,1,8.919,40a.868.868,0,0,1,.919.919v3.676A.868.868,0,0,1,8.919,45.514Z" transform="translate(-8 -40)" fill="#020210"/></g><g transform="translate(3.676 29.405)"><path d="M11.351,73.838H4.919a.919.919,0,0,1,0-1.838h6.432a.919.919,0,0,1,0,1.838Z" transform="translate(-4 -72)" fill="#020210"/></g><g transform="translate(5.697 55.135)"><path d="M10.519,101.838h-3.4a.919.919,0,0,1,0-1.838h3.4a.868.868,0,0,1,.919.919A.921.921,0,0,1,10.519,101.838Z" transform="translate(-6.2 -100)" fill="#020210"/></g></g><g transform="translate(475.753 35.967)"><g transform="translate(0.919 4.595)"><rect width="7.351" height="47.784" fill="#52c695"/></g><path d="M532.27,93.3h-7.351a.868.868,0,0,1-.919-.919V40.919a.868.868,0,0,1,.919-.919h7.351a.868.868,0,0,1,.919.919v51.46A.868.868,0,0,1,532.27,93.3Zm-6.432-1.838h5.513V41.838h-5.513Z" transform="translate(-524 -40)" fill="#020210"/><g transform="translate(0.034 51.402)"><path d="M528.6,108.86a.883.883,0,0,1-.827-.643L524.095,97.19a.93.93,0,1,1,1.746-.643l3.676,11.027a.956.956,0,0,1-.551,1.195A.694.694,0,0,1,528.6,108.86Z" transform="translate(-524.037 -95.937)" fill="#020210"/></g><g transform="translate(3.71 51.402)"><path d="M528.922,108.86a.338.338,0,0,1-.276-.092.919.919,0,0,1-.551-1.195l3.676-11.027a.93.93,0,1,1,1.746.643l-3.676,11.027A1.106,1.106,0,0,1,528.922,108.86Z" transform="translate(-528.037 -95.937)" fill="#020210"/></g><g transform="translate(3.676 3.676)"><path d="M528.919,93.622A.868.868,0,0,1,528,92.7V44.919a.919.919,0,1,1,1.838,0V92.7A.868.868,0,0,1,528.919,93.622Z" transform="translate(-528 -44)" fill="#020210"/></g><g transform="translate(0 3.676)"><path d="M532.27,45.838h-7.351a.919.919,0,1,1,0-1.838h7.351a.919.919,0,0,1,0,1.838Z" transform="translate(-524 -44)" fill="#020210"/></g><g transform="translate(2.757 58.811)"><path d="M529.757,105.838h-1.838a.919.919,0,1,1,0-1.838h1.838a.919.919,0,0,1,0,1.838Z" transform="translate(-527 -104)" fill="#020210"/></g></g><g transform="translate(416.942 43.584)"><path d="M508.7,49.838H460.919a.919.919,0,0,1,0-1.838H508.7a.919.919,0,0,1,0,1.838Z" transform="translate(-460 -48)"/></g><g transform="translate(442.672 50.848)"><path d="M499.946,57.838H488.919a.919.919,0,0,1,0-1.838h11.027a.919.919,0,0,1,0,1.838Z" transform="translate(-488 -56)"/></g><g transform="translate(431.645 61.441)"><path d="M476.919,110.27a.868.868,0,0,1-.919-.919V68.919a.919.919,0,1,1,1.838,0v40.432A.868.868,0,0,1,476.919,110.27Z" transform="translate(-476 -68)"/></g><g transform="translate(416.942 61.743)"><path d="M508.7,69.838H460.919a.919.919,0,0,1,0-1.838H508.7a.919.919,0,0,1,0,1.838Z" transform="translate(-460 -68)"/></g><g transform="translate(442.672 58.111)"><path d="M492.595,65.838h-3.676a.919.919,0,0,1,0-1.838h3.676a.919.919,0,0,1,0,1.838Z" transform="translate(-488 -64)"/></g><g transform="translate(450.023 58.111)"><path d="M500.595,65.838h-3.676a.919.919,0,0,1,0-1.838h3.676a.919.919,0,0,1,0,1.838Z" transform="translate(-496 -64)"/></g><g transform="translate(457.375 58.111)"><path d="M508.595,65.838h-3.676a.919.919,0,0,1,0-1.838h3.676a.919.919,0,1,1,0,1.838Z" transform="translate(-504 -64)"/></g><g transform="translate(442.672 47.216)"><path d="M507.3,53.838H488.919a.919.919,0,0,1,0-1.838H507.3a.919.919,0,1,1,0,1.838Z" transform="translate(-488 -52)"/></g><g transform="translate(424.294 54.462)"><path d="M479.946,65.514H468.919a.868.868,0,0,1-.919-.919V60.919a.868.868,0,0,1,.919-.919h11.027a.868.868,0,0,1,.919.919v3.676A.868.868,0,0,1,479.946,65.514Zm-10.108-1.838h9.189V61.838h-9.189Z" transform="translate(-468 -60)"/></g><g transform="translate(435.321 65.354)"><path d="M484.595,77.514h-3.676a.868.868,0,0,1-.919-.919V72.919a.868.868,0,0,1,.919-.919h3.676a.868.868,0,0,1,.919.919v3.676A.868.868,0,0,1,484.595,77.514Zm-2.757-1.838h1.838V73.838h-1.838Z" transform="translate(-480 -72)"/></g><g transform="translate(442.672 65.308)"><path d="M507.3,84.865H488.919a.868.868,0,0,1-.919-.919V72.919a.868.868,0,0,1,.919-.919H507.3a.868.868,0,0,1,.919.919V83.946A.868.868,0,0,1,507.3,84.865Zm-17.459-1.838h16.541V73.838H489.838Z" transform="translate(-488 -72)"/></g><g transform="translate(442.672 79.903)"><path d="M492.595,89.838h-3.676a.919.919,0,0,1,0-1.838h3.676a.919.919,0,0,1,0,1.838Z" transform="translate(-488 -88)"/></g><g transform="translate(435.321 83.508)"><path d="M484.595,97.514h-3.676a.868.868,0,0,1-.919-.919V92.919a.868.868,0,0,1,.919-.919h3.676a.868.868,0,0,1,.919.919v3.676A.868.868,0,0,1,484.595,97.514Zm-2.757-1.838h1.838V93.838h-1.838Z" transform="translate(-480 -92)"/></g><g transform="translate(442.672 83.449)"><path d="M507.3,104.865H488.919a.868.868,0,0,1-.919-.919V92.919a.868.868,0,0,1,.919-.919H507.3a.868.868,0,0,1,.919.919v11.027A.868.868,0,0,1,507.3,104.865Zm-17.459-1.838h16.541V93.838H489.838Z" transform="translate(-488 -92)"/></g><g transform="translate(442.672 98.063)"><path d="M492.595,109.838h-3.676a.919.919,0,0,1,0-1.838h3.676a.919.919,0,0,1,0,1.838Z" transform="translate(-488 -108)"/></g><g transform="translate(420.618 65.132)"><g transform="translate(0 33.081)"><path d="M472.27,109.838h-7.351a.919.919,0,1,1,0-1.838h7.351a.919.919,0,0,1,0,1.838Z" transform="translate(-464 -108)"/></g><g transform="translate(0 29.405)"><path d="M472.27,105.838h-7.351a.919.919,0,1,1,0-1.838h7.351a.919.919,0,0,1,0,1.838Z" transform="translate(-464 -104)"/></g><g transform="translate(0 25.73)"><path d="M472.27,101.838h-7.351a.919.919,0,1,1,0-1.838h7.351a.919.919,0,0,1,0,1.838Z" transform="translate(-464 -100)"/></g><g transform="translate(0 22.054)"><path d="M472.27,97.838h-7.351a.919.919,0,1,1,0-1.838h7.351a.919.919,0,0,1,0,1.838Z" transform="translate(-464 -96)"/></g><g transform="translate(0 18.378)"><path d="M472.27,93.838h-7.351a.919.919,0,1,1,0-1.838h7.351a.919.919,0,0,1,0,1.838Z" transform="translate(-464 -92)"/></g><g transform="translate(0 14.703)"><path d="M472.27,89.838h-7.351a.919.919,0,1,1,0-1.838h7.351a.919.919,0,0,1,0,1.838Z" transform="translate(-464 -88)"/></g><g transform="translate(0 11.027)"><path d="M472.27,85.838h-7.351a.919.919,0,1,1,0-1.838h7.351a.919.919,0,0,1,0,1.838Z" transform="translate(-464 -84)"/></g><g transform="translate(0 7.351)"><path d="M472.27,81.838h-7.351a.919.919,0,1,1,0-1.838h7.351a.919.919,0,0,1,0,1.838Z" transform="translate(-464 -80)"/></g><g transform="translate(0 3.676)"><path d="M472.27,77.838h-7.351a.919.919,0,1,1,0-1.838h7.351a.919.919,0,0,1,0,1.838Z" transform="translate(-464 -76)"/></g><path d="M472.27,73.838h-7.351a.919.919,0,1,1,0-1.838h7.351a.919.919,0,0,1,0,1.838Z" transform="translate(-464 -72)"/></g><g transform="translate(425.213 37.182)"><rect width="14.703" height="14.703" fill="#fff"/></g><g transform="translate(424.294 36.268)"><path d="M483.622,56.541h-14.7a.868.868,0,0,1-.919-.919v-14.7a.868.868,0,0,1,.919-.919h14.7a.868.868,0,0,1,.919.919v14.7A.868.868,0,0,1,483.622,56.541ZM469.838,54.7H482.7V41.838H469.838Z" transform="translate(-468 -40)"/></g><g transform="translate(427.969 39.925)"><g transform="translate(0.919 4.595)"><path d="M473,52.676a3.676,3.676,0,1,1,7.351,0Z" transform="translate(-473 -49)" fill="#f9e765"/></g><g transform="translate(2.757 0.919)"><circle cx="1.838" cy="1.838" r="1.838" fill="#f9e765"/></g><g transform="translate(0.919 4.595)"><path d="M473,52.676a3.676,3.676,0,1,1,7.351,0Z" transform="translate(-473 -49)" fill="#35c9cb"/></g><g transform="translate(2.757 0.919)"><circle cx="1.838" cy="1.838" r="1.838" fill="#35c9cb"/></g><g transform="translate(0 3.676)"><path d="M480.27,53.514a.868.868,0,0,1-.919-.919,2.757,2.757,0,1,0-5.514,0,.919.919,0,1,1-1.838,0,4.595,4.595,0,0,1,9.189,0A.868.868,0,0,1,480.27,53.514Z" transform="translate(-472 -48)" fill="#020210"/></g><g transform="translate(1.838)"><path d="M476.757,49.514a2.757,2.757,0,1,1,2.757-2.757A2.708,2.708,0,0,1,476.757,49.514Zm0-3.676a.919.919,0,1,0,.919.919A.868.868,0,0,0,476.757,45.838Z" transform="translate(-474 -44)" fill="#020210"/></g></g><g transform="translate(424.294 47.216)"><path d="M483.622,53.838h-14.7a.919.919,0,0,1,0-1.838h14.7a.919.919,0,0,1,0,1.838Z" transform="translate(-468 -52)"/></g><g transform="translate(283.126 95.433)"><rect width="40.432" height="44.108" fill="#52c695"/></g><g transform="translate(282.567 94.147)"><path d="M352.851,146.946H312.419a.868.868,0,0,1-.919-.919V101.919a.868.868,0,0,1,.919-.919h40.432a.868.868,0,0,1,.919.919v44.108A.868.868,0,0,1,352.851,146.946Zm-39.514-1.838h38.595v-42.27H313.338Z" transform="translate(-311.5 -101)"/></g></g></g></svg>