<svg xmlns="http://www.w3.org/2000/svg" width="180" height="146.743" viewBox="0 0 180 146.743"><g transform="translate(-258.992 -270.194)"><g transform="translate(325.271 301.709)"><g transform="translate(0.605 0.605)"><rect width="97.309" height="114.018" fill="#fff"/></g><g transform="translate(0.605 0.605)"><rect width="97.309" height="10.192" fill="#d1d3d4"/></g><path d="M412.3,410.868h-1.21V297.455h-96.1V410.868h-1.21V296.245H412.3Z" transform="translate(-313.78 -296.245)" fill="#414042"/><g transform="translate(8.402 4.574)"><path d="M322.98,301.154a1.127,1.127,0,1,1-1.127-1.127A1.127,1.127,0,0,1,322.98,301.154Z" transform="translate(-320.725 -300.026)" fill="#e7643e"/></g><g transform="translate(12.683 4.574)"><path d="M326.519,301.154a1.127,1.127,0,1,1-1.127-1.127A1.127,1.127,0,0,1,326.519,301.154Z" transform="translate(-324.264 -300.026)" fill="#47cbd7"/></g><g transform="translate(16.965 4.574)"><path d="M330.058,301.154a1.127,1.127,0,1,1-1.127-1.127A1.127,1.127,0,0,1,330.058,301.154Z" transform="translate(-327.803 -300.026)" fill="#f5ab35"/></g><g transform="translate(26.548 4.519)"><rect width="58.96" height="2.548" fill="#fff"/></g><g transform="translate(1.268 10.192)"><rect width="96.647" height="1.21" fill="#414042"/></g><g transform="translate(18.319 20.998)"><rect width="61.882" height="23.895" fill="#47cbd7"/></g><g transform="translate(18.319 47.175)"><rect width="30.203" height="20.156" fill="#f5ab35"/></g><g transform="translate(50.66 47.175)"><rect width="29.54" height="20.156" fill="#e7643e"/></g><g transform="translate(31.218 71.978)"><rect width="36.192" height="2.39" fill="#e6e7e8"/></g><g transform="translate(19.451 79.671)"><rect width="61.957" height="1.718" fill="#f1f2f2"/></g><g transform="translate(19.451 82.791)"><rect width="61.957" height="1.718" fill="#f1f2f2"/></g><g transform="translate(29.707 85.91)"><rect width="41.444" height="1.718" fill="#f1f2f2"/></g><g transform="translate(19.144 96.147)"><rect width="61.056" height="15.592" fill="#e6e7e8"/></g></g><g transform="translate(271.531 350.978)"><g transform="translate(0.604 0.605)"><rect width="35.612" height="64.75" fill="#fff"/></g><path d="M306.178,402.931H269.357V336.972h36.821Zm-35.611-1.21h34.4V338.182h-34.4Z" transform="translate(-269.357 -336.972)" fill="#414042"/><g transform="translate(3.917 6.628)"><rect width="28.986" height="52.703" fill="#f7bc5d"/></g><g transform="translate(14.447 3.102)"><rect width="7.926" height="1.21" fill="#231f20"/></g><g transform="translate(23.265 3.102)"><rect width="0.632" height="1.21" fill="#231f20"/></g><g transform="translate(8.704 16.381)"><g transform="translate(1.637)"><path d="M294.043,358.582a8.069,8.069,0,1,1-8.069-8.069A8.069,8.069,0,0,1,294.043,358.582Z" transform="translate(-277.905 -350.513)" fill="#47cbd7"/></g><g transform="translate(0 18.067)"><rect width="19.411" height="3.43" rx="1.715" fill="#fffffe"/></g><g transform="translate(0 23.418)"><rect width="19.411" height="3.43" rx="1.715" fill="#fffffe"/></g><g transform="translate(4.67 28.94)"><rect width="10.071" height="4.257" fill="#e7643e"/></g><text transform="translate(3.463 11.311)" fill="#fff" font-size="12" font-family="LineAwesome"><tspan x="0" y="0"></tspan></text></g></g><g transform="translate(294.512 329.168)"><g transform="translate(0.605 0.608)"><path d="M327.065,405.779a1.313,1.313,0,0,1-1.446.013l-24.754-22.234a36.079,36.079,0,0,1-11.972-26.8l-.039-28.938a1.306,1.306,0,0,1,1.344-1.355c3.483.1,7.865.191,11.949.191a100.345,100.345,0,0,0,10.668-.4c6.063-.743,10.458-4.252,13.253-6.528a1.268,1.268,0,0,1,1.6-.007c2.857,2.284,7.248,5.724,13.4,6.621a73.548,73.548,0,0,0,9.551.443c4.111,0,8.579-.129,11.974-.258a1.3,1.3,0,0,1,1.348,1.348l-.035,29.205a36.082,36.082,0,0,1-12.243,27.044Z" transform="translate(-288.854 -319.446)" fill="#fff"/></g><g transform="translate(5.057 5.741)"><path d="M326.214,399.783a1.155,1.155,0,0,1-1.275.011l-21.818-19.6a31.805,31.805,0,0,1-10.551-23.619l-.035-25.5a1.154,1.154,0,0,1,1.186-1.2c3.07.087,6.931.169,10.532.169a88.464,88.464,0,0,0,9.4-.352c5.343-.656,9.217-3.748,11.681-5.753a1.113,1.113,0,0,1,1.406-.006c2.52,2.013,6.389,5.046,11.813,5.836a65.13,65.13,0,0,0,8.419.39c3.623,0,7.562-.114,10.554-.227a1.143,1.143,0,0,1,1.188,1.189l-.031,25.741a31.8,31.8,0,0,1-10.79,23.837Z" transform="translate(-292.534 -323.689)" fill="#47cbd7"/></g><path d="M326.437,406.711a1.932,1.932,0,0,1-1.04-.3l-24.831-22.293a36.741,36.741,0,0,1-12.171-27.246l-.039-28.938a1.9,1.9,0,0,1,.554-1.4,1.938,1.938,0,0,1,1.412-.565c11.027.311,18.819.244,22.528-.2,5.987-.736,10.342-4.28,12.943-6.4a1.861,1.861,0,0,1,2.355-.011c2.624,2.1,7.015,5.607,13.112,6.5a72.969,72.969,0,0,0,9.463.437c4.226,0,8.832-.139,11.952-.258a2.021,2.021,0,0,1,1.419.555,1.908,1.908,0,0,1,.555,1.421l-.034,29.182a36.7,36.7,0,0,1-12.447,27.5l-24.662,21.7A1.921,1.921,0,0,1,326.437,406.711Zm-36.17-79.533a.7.7,0,0,0-.7.731l.039,28.958a35.534,35.534,0,0,0,11.77,26.348l24.754,22.234a.7.7,0,0,0,.679-.048l24.564-21.619A35.5,35.5,0,0,0,363.4,357.189l.034-29.206a.707.707,0,0,0-.2-.541.648.648,0,0,0-.518-.2c-3.131.117-7.754.258-12,.258a74.194,74.194,0,0,1-9.637-.449c-6.421-.936-10.973-4.573-13.694-6.747a.66.66,0,0,0-.835,0c-2.7,2.2-7.227,5.882-13.562,6.66-3.779.454-11.611.521-22.707.21Z" transform="translate(-288.354 -318.943)" fill="#414042"/><g transform="translate(15.667 23.563)"><g transform="translate(0.668 3.341)"><path d="M775.345,294.673A2.673,2.673,0,1,1,772.673,292a2.673,2.673,0,0,1,2.673,2.673Z" transform="translate(-770 -292)" fill="#fff"/></g><g transform="translate(3.341 3.341)"><rect width="40.088" height="5.345" transform="translate(0 0)" fill="#fff"/></g><g transform="translate(0.668 6.013)"><path d="M770,296a2.673,2.673,0,0,0,2.673,2.673h40.088v24.053H772.673A2.671,2.671,0,0,1,770,320.053V296Z" transform="translate(-770 -296)" fill="#f9e765"/></g><g transform="translate(2.673 2.673)"><path d="M813.756,292.336H773.668a.668.668,0,0,1,0-1.336h40.088a.668.668,0,1,1,0,1.336Z" transform="translate(-773 -291)" fill="#414042"/></g><g transform="translate(0 5.345)"><path d="M812.429,323.062H772.341A3.344,3.344,0,0,1,769,319.721V295.668a.668.668,0,1,1,1.336,0,2.007,2.007,0,0,0,2,2h40.088a.668.668,0,0,1,.668.668v24.053A.668.668,0,0,1,812.429,323.062Zm-42.093-24.722v21.382a2.007,2.007,0,0,0,2,2h39.42V299.009h-39.42A3.323,3.323,0,0,1,770.336,298.339Z" transform="translate(-769 -295)" fill="#414042"/></g><g transform="translate(34.743 16.035)"><path d="M829.686,320.354h-8.018a.667.667,0,0,1-.668-.668v-8.018a.667.667,0,0,1,.668-.668h8.018a.668.668,0,0,1,.668.668v8.018A.668.668,0,0,1,829.686,320.354Zm-7.349-1.336h6.681v-6.681h-6.681Z" transform="translate(-821 -311)" fill="#414042"/></g><g transform="translate(37.416 18.708)"><path d="M827,319.009a2,2,0,1,1,2-2A2.007,2.007,0,0,1,827,319.009Zm0-2.673a.668.668,0,1,0,.668.668A.668.668,0,0,0,827,316.336Z" transform="translate(-825 -315)" fill="#414042"/></g><g transform="translate(40.088 10.699)"><path d="M829.668,304.34a.7.7,0,0,1-.474-.194.677.677,0,0,1,0-.949.671.671,0,1,1,.474,1.142Z" transform="translate(-829 -303.013)" fill="#020210"/></g><g transform="translate(5.345 10.69)"><path d="M809.07,303.668a.67.67,0,0,1,.668-.668h0a.67.67,0,0,1,.668.668h0a.67.67,0,0,1-.668.668h0A.67.67,0,0,1,809.07,303.668Zm-2.672,0a.67.67,0,0,1,.668-.668h0a.67.67,0,0,1,.668.668h0a.67.67,0,0,1-.668.668h0A.67.67,0,0,1,806.4,303.668Zm-2.673,0a.67.67,0,0,1,.668-.668h0a.67.67,0,0,1,.668.668h0a.67.67,0,0,1-.668.668h0A.67.67,0,0,1,803.725,303.668Zm-2.673,0a.67.67,0,0,1,.668-.668h0a.67.67,0,0,1,.668.668h0a.67.67,0,0,1-.668.668h0A.67.67,0,0,1,801.053,303.668Zm-2.672,0a.67.67,0,0,1,.668-.668h0a.67.67,0,0,1,.668.668h0a.67.67,0,0,1-.668.668h0A.67.67,0,0,1,798.38,303.668Zm-2.673,0a.67.67,0,0,1,.668-.668h0a.67.67,0,0,1,.668.668h0a.67.67,0,0,1-.668.668h0A.67.67,0,0,1,795.708,303.668Zm-2.673,0A.67.67,0,0,1,793.7,303h0a.67.67,0,0,1,.668.668h0a.67.67,0,0,1-.668.668h0A.67.67,0,0,1,793.035,303.668Zm-2.672,0a.67.67,0,0,1,.668-.668h0a.67.67,0,0,1,.668.668h0a.67.67,0,0,1-.668.668h0A.67.67,0,0,1,790.363,303.668Zm-2.673,0a.67.67,0,0,1,.668-.668h0a.67.67,0,0,1,.668.668h0a.67.67,0,0,1-.668.668h0A.67.67,0,0,1,787.69,303.668Zm-2.672,0a.67.67,0,0,1,.668-.668h0a.67.67,0,0,1,.668.668h0a.67.67,0,0,1-.668.668h0A.67.67,0,0,1,785.018,303.668Zm-2.673,0a.67.67,0,0,1,.668-.668h0a.67.67,0,0,1,.668.668h0a.67.67,0,0,1-.668.668h0A.67.67,0,0,1,782.345,303.668Zm-2.673,0a.67.67,0,0,1,.668-.668h0a.67.67,0,0,1,.668.668h0a.67.67,0,0,1-.668.668h0A.67.67,0,0,1,779.672,303.668Zm-2.672,0a.67.67,0,0,1,.668-.668h0a.67.67,0,0,1,.668.668h0a.67.67,0,0,1-.668.668h0A.67.67,0,0,1,777,303.668Z" transform="translate(-777 -303)" fill="#020210"/></g><g transform="translate(2.673 10.699)"><path d="M773.668,304.34a.662.662,0,1,1,.474-.194A.693.693,0,0,1,773.668,304.34Z" transform="translate(-773 -303.013)" fill="#020210"/></g><g transform="translate(2.673 29.406)"><path d="M773.668,332.34a.687.687,0,0,1-.474-.194.678.678,0,1,1,.474.194Z" transform="translate(-773 -331.013)" fill="#020210"/></g><g transform="translate(5.345 29.398)"><path d="M809.07,331.668a.67.67,0,0,1,.668-.668h0a.67.67,0,0,1,.668.668h0a.67.67,0,0,1-.668.668h0A.67.67,0,0,1,809.07,331.668Zm-2.672,0a.67.67,0,0,1,.668-.668h0a.67.67,0,0,1,.668.668h0a.67.67,0,0,1-.668.668h0A.67.67,0,0,1,806.4,331.668Zm-2.673,0a.67.67,0,0,1,.668-.668h0a.67.67,0,0,1,.668.668h0a.67.67,0,0,1-.668.668h0A.67.67,0,0,1,803.725,331.668Zm-2.673,0a.67.67,0,0,1,.668-.668h0a.67.67,0,0,1,.668.668h0a.67.67,0,0,1-.668.668h0A.67.67,0,0,1,801.053,331.668Zm-2.672,0a.67.67,0,0,1,.668-.668h0a.67.67,0,0,1,.668.668h0a.67.67,0,0,1-.668.668h0A.67.67,0,0,1,798.38,331.668Zm-2.673,0a.665.665,0,0,1,.668-.668h0a.67.67,0,0,1,.668.668h0a.67.67,0,0,1-.668.668h0A.665.665,0,0,1,795.708,331.668Zm-2.673,0A.67.67,0,0,1,793.7,331h0a.67.67,0,0,1,.668.668h0a.67.67,0,0,1-.668.668h0A.67.67,0,0,1,793.035,331.668Zm-2.672,0a.67.67,0,0,1,.668-.668h0a.67.67,0,0,1,.668.668h0a.67.67,0,0,1-.668.668h0A.67.67,0,0,1,790.363,331.668Zm-2.673,0a.67.67,0,0,1,.668-.668h0a.67.67,0,0,1,.668.668h0a.67.67,0,0,1-.668.668h0A.67.67,0,0,1,787.69,331.668Zm-2.672,0a.67.67,0,0,1,.668-.668h0a.67.67,0,0,1,.668.668h0a.67.67,0,0,1-.668.668h0A.67.67,0,0,1,785.018,331.668Zm-2.673,0a.67.67,0,0,1,.668-.668h0a.67.67,0,0,1,.668.668h0a.67.67,0,0,1-.668.668h0A.67.67,0,0,1,782.345,331.668Zm-2.673,0a.67.67,0,0,1,.668-.668h0a.67.67,0,0,1,.668.668h0a.67.67,0,0,1-.668.668h0A.67.67,0,0,1,779.672,331.668Zm-2.672,0a.67.67,0,0,1,.668-.668h0a.67.67,0,0,1,.668.668h0a.67.67,0,0,1-.668.668h0A.67.67,0,0,1,777,331.668Z" transform="translate(-777 -331)" fill="#020210"/></g><g transform="translate(40.088 29.406)"><path d="M829.668,332.34a.7.7,0,0,1-.474-.194.677.677,0,0,1,0-.949.671.671,0,1,1,.474,1.142Z" transform="translate(-829 -331.013)" fill="#020210"/></g><g transform="translate(6.013 0.668)"><path d="M794.035,293.345v-2.673A2.68,2.68,0,0,0,791.363,288h-10.69A2.68,2.68,0,0,0,778,290.673v2.673Z" transform="translate(-778 -288)" fill="#4482f5"/></g><g transform="translate(5.345 0)"><path d="M793.7,293.681a.668.668,0,0,1-.668-.668v-2.673a2.007,2.007,0,0,0-2-2h-10.69a2.007,2.007,0,0,0-2,2v2.673a.668.668,0,1,1-1.336,0v-2.673A3.344,3.344,0,0,1,780.341,287h10.69a3.344,3.344,0,0,1,3.341,3.341v2.673A.668.668,0,0,1,793.7,293.681Z" transform="translate(-777 -287)" fill="#414042"/></g><g transform="translate(2.673 5.345)"><path d="M813.756,296.336H773.668a.668.668,0,0,1,0-1.336h40.088a.668.668,0,1,1,0,1.336Z" transform="translate(-773 -295)" fill="#414042"/></g><g transform="translate(0 2.673)"><path d="M769.668,295.009a.668.668,0,0,1-.668-.668A3.344,3.344,0,0,1,772.341,291a.668.668,0,1,1,0,1.336,2.007,2.007,0,0,0-2,2A.668.668,0,0,1,769.668,295.009Z" transform="translate(-769 -291)" fill="#414042"/></g></g></g><g transform="translate(373.792 386.673)"><rect width="57.819" height="29.659" fill="#47cbd7"/><g transform="translate(17.025 3.479)"><circle cx="8.861" cy="8.861" r="8.861" transform="translate(0 6.402) rotate(-21.179)" fill="#3598a1"/></g><g transform="translate(4.456 3.332)"><path d="M370.006,392.454h-5.573A1.823,1.823,0,0,1,362.717,391a4.659,4.659,0,0,0-3.664-3.546,1.76,1.76,0,0,1-1.481-1.682v-9.659a1.76,1.76,0,0,1,1.481-1.683,4.7,4.7,0,0,0,3.718-3.717,1.76,1.76,0,0,1,1.683-1.481h5.818v1.21h-5.818a.566.566,0,0,0-.494.5,5.922,5.922,0,0,1-4.68,4.68.569.569,0,0,0-.5.495v9.659a.569.569,0,0,0,.5.494,5.869,5.869,0,0,1,4.616,4.463.632.632,0,0,0,.536.515h5.573Z" transform="translate(-357.572 -369.233)" fill="#414042"/></g><g transform="translate(40.665 3.332)"><path d="M392.887,392.454H387.5v-1.21h5.383a.632.632,0,0,0,.537-.517,5.866,5.866,0,0,1,4.616-4.462.57.57,0,0,0,.5-.494v-9.659a.568.568,0,0,0-.5-.494,5.922,5.922,0,0,1-4.682-4.68.57.57,0,0,0-.494-.5h-4.2v-1.21h4.2a1.759,1.759,0,0,1,1.682,1.481,4.706,4.706,0,0,0,3.718,3.719,1.756,1.756,0,0,1,1.482,1.682v9.659a1.76,1.76,0,0,1-1.481,1.682A4.662,4.662,0,0,0,394.6,391,1.822,1.822,0,0,1,392.887,392.454Z" transform="translate(-387.504 -369.233)" fill="#414042"/></g><g transform="translate(10.852 12.621)"><path d="M366.991,378.978a2.066,2.066,0,1,1-2.066-2.066A2.067,2.067,0,0,1,366.991,378.978Z" transform="translate(-362.859 -376.912)" fill="#3598a1"/></g><g transform="translate(41.993 12.621)"><path d="M392.733,378.978a2.066,2.066,0,1,1-2.066-2.066A2.067,2.067,0,0,1,392.733,378.978Z" transform="translate(-388.601 -376.912)" fill="#3598a1"/></g><g transform="translate(25.477 10.445)"><path d="M377.506,384.106v-.8a4.988,4.988,0,0,1-2.557-1.257l1.016-1.235a4.414,4.414,0,0,0,1.541.951v-1.628a3.889,3.889,0,0,1-1.683-.792,1.855,1.855,0,0,1-.536-1.431,2.074,2.074,0,0,1,.612-1.54,2.654,2.654,0,0,1,1.607-.727v-.536h1.158v.558a5.017,5.017,0,0,1,2.175.907l-.9,1.288a4.189,4.189,0,0,0-1.279-.656v1.574a4.1,4.1,0,0,1,1.743.82,1.867,1.867,0,0,1,.563,1.453,2.075,2.075,0,0,1-.628,1.552,2.781,2.781,0,0,1-1.678.732v.765Zm0-6.939a.607.607,0,0,0-.469.6.72.72,0,0,0,.469.667Zm1.715,3.978a.6.6,0,0,0-.12-.382,1.083,1.083,0,0,0-.438-.284v1.344A.68.68,0,0,0,379.222,381.145Z" transform="translate(-374.949 -375.113)" fill="#414042"/></g></g><g transform="translate(263.145 415.727)"><rect width="173.927" height="1.21" fill="#414042"/></g><g transform="translate(277.839 292.916)"><g transform="translate(1.515 0.972)"><circle cx="14.941" cy="14.941" r="14.941" transform="translate(0 29.074) rotate(-76.646)" fill="#e7643e"/></g><g transform="translate(12.812 13.399)"><path d="M290.4,311.846l-5.242-5.242,2.3-2.3,2.913,2.913,7-7.164,2.329,2.273Z" transform="translate(-285.162 -300.053)" fill="#fff"/></g><g transform="translate(19.476 0.845)"><rect width="1.21" height="2.247" fill="#414042"/></g><g transform="translate(24.897 0)"><rect width="4.236" height="1.209" transform="translate(0 3.981) rotate(-70.006)" fill="#414042"/></g><g transform="translate(29.739 5.175)"><rect width="2.14" height="1.211" transform="translate(0 1.436) rotate(-42.154)" fill="#414042"/></g><g transform="translate(33.258 8.835)"><rect width="4.022" height="1.21" transform="translate(0 2.003) rotate(-29.867)" fill="#414042"/></g><g transform="translate(35.19 15.673)"><rect width="1.778" height="1.209" transform="matrix(0.985, -0.172, 0.172, 0.985, 0, 0.306)" fill="#414042"/></g><g transform="translate(34.934 21.496)"><rect width="1.21" height="3.719" transform="translate(0 1.139) rotate(-70.282)" fill="#414042"/></g><g transform="translate(32.806 26.647)"><path d="M303.457,313.078l-1.767-1.028L302.3,311l1.767,1.028Z" transform="translate(-301.69 -311.003)" fill="#414042"/></g><g transform="translate(28.991 30.884)"><rect width="1.211" height="3.557" transform="translate(0 0.775) rotate(-39.773)" fill="#414042"/></g><g transform="translate(24.049 33.669)"><rect width="1.21" height="1.522" transform="matrix(0.941, -0.338, 0.338, 0.941, 0, 0.408)" fill="#414042"/></g><g transform="translate(18.579 34.661)"><rect width="1.21" height="3.557" fill="#414042"/></g><g transform="translate(12.505 33.329)"><rect width="2.112" height="1.21" transform="translate(0 1.98) rotate(-69.657)" fill="#414042"/></g><g transform="translate(5.788 30.284)"><rect width="4.827" height="1.21" transform="matrix(0.594, -0.805, 0.805, 0.594, 0, 3.884)" fill="#414042"/></g><g transform="translate(3.8 25.781)"><rect width="1.876" height="1.211" transform="matrix(0.892, -0.453, 0.453, 0.892, 0, 0.849)" fill="#414042"/></g><g transform="translate(0 20.514)"><rect width="4.011" height="1.21" transform="translate(0 0.964) rotate(-13.899)" fill="#414042"/></g><g transform="translate(2.188 14.661)"><rect width="1.211" height="1.958" transform="matrix(0.181, -0.983, 0.983, 0.181, 0, 1.191)" fill="#414042"/></g><g transform="translate(2.904 8.192)"><rect width="1.21" height="3.557" transform="matrix(0.507, -0.862, 0.862, 0.507, 0, 1.043)" fill="#414042"/></g><g transform="translate(8.593 4.745)"><rect width="1.209" height="1.611" transform="matrix(0.852, -0.523, 0.523, 0.852, 0, 0.632)" fill="#414042"/></g><g transform="translate(12.534 0.225)"><rect width="1.21" height="3.775" transform="translate(0 0.554) rotate(-27.271)" fill="#414042"/></g></g><g transform="translate(370 288.13)"><path d="M352.675,288.862a1.921,1.921,0,1,1,1.922-1.921A1.923,1.923,0,0,1,352.675,288.862Zm0-2.632a.711.711,0,1,0,.713.711A.712.712,0,0,0,352.675,286.23Z" transform="translate(-350.754 -285.02)" fill="#414042"/></g><g transform="translate(435.15 294.852)"><path d="M406.531,294.419a1.921,1.921,0,1,1,1.92-1.921A1.924,1.924,0,0,1,406.531,294.419Zm0-2.632a.711.711,0,1,0,.71.711A.713.713,0,0,0,406.531,291.787Z" transform="translate(-404.609 -290.577)" fill="#414042"/></g><g transform="translate(286.712 336.155)"><path d="M283.828,328.562a1.922,1.922,0,1,1,1.921-1.921A1.924,1.924,0,0,1,283.828,328.562Zm0-2.634a.712.712,0,1,0,.711.713A.715.715,0,0,0,283.828,325.929Z" transform="translate(-281.906 -324.719)" fill="#414042"/></g><g transform="translate(324.005 289.445)"><rect width="32.31" height="1.21" fill="#414042"/><g transform="translate(33.687)"><rect width="2.792" height="1.21" fill="#414042"/></g><g transform="translate(37.822)"><rect width="2.79" height="1.21" fill="#414042"/></g></g><g transform="translate(258.992 337.471)"><rect width="19.457" height="1.21" fill="#414042"/><g transform="translate(20.288)"><rect width="1.681" height="1.21" fill="#414042"/></g><g transform="translate(22.777)"><rect width="1.681" height="1.21" fill="#414042"/></g></g><g transform="translate(358.049 296.169)"><rect width="17.216" height="1.21" fill="#414042"/></g><g transform="translate(401.486 296.498)"><rect width="28.896" height="1.21" fill="#414042"/></g><g transform="translate(381.964 270.194)"><g transform="translate(0 0.054)"><path d="M373.137,295.207a12.59,12.59,0,0,1-2.522-.254l.241-1.186a11.351,11.351,0,0,0,2.282.23Zm-4.947-1.015a12.6,12.6,0,0,1-2.216-1.234l.694-.992a11.32,11.32,0,0,0,2,1.115Zm-4.137-2.89a12.6,12.6,0,0,1-1.551-2.008l1.028-.639a11.235,11.235,0,0,0,1.4,1.812Zm-2.663-4.29a12.371,12.371,0,0,1-.629-2.458l1.2-.18a11.274,11.274,0,0,0,.566,2.22Zm.461-4.93-1.207-.064a12.36,12.36,0,0,1,.391-2.507l1.17.307A11.283,11.283,0,0,0,361.851,282.082Zm1.159-4.408-1.085-.538a12.634,12.634,0,0,1,1.355-2.146l.953.746A11.247,11.247,0,0,0,363.01,277.674Zm2.811-3.593-.784-.921a12.546,12.546,0,0,1,2.089-1.44l.582,1.061A11.339,11.339,0,0,0,365.822,274.081Zm4-2.192-.354-1.158a12.538,12.538,0,0,1,2.488-.492l.114,1.2A11.09,11.09,0,0,0,369.819,271.889Z" transform="translate(-360.644 -270.239)" fill="#414042"/></g><g transform="translate(12.493)"><path d="M370.971,295.216v-1.21a11.3,11.3,0,0,0,0-22.6v-1.21a12.511,12.511,0,0,1,0,25.022Z" transform="translate(-370.971 -270.194)" fill="#414042"/></g><g transform="translate(6.099 6.118)"><path d="M372.416,288.039l-.708,0a1.214,1.214,0,0,1-1.21-1.218l0-.483a4.883,4.883,0,0,1-.65-.271l-.342.34a1.21,1.21,0,0,1-.855.353h0a1.2,1.2,0,0,1-.86-.361l-.494-.5a1.212,1.212,0,0,1,.006-1.717l.342-.341a4.97,4.97,0,0,1-.269-.648l-.481,0a1.214,1.214,0,0,1-1.208-1.222l0-.7a1.2,1.2,0,0,1,.358-.859,1.277,1.277,0,0,1,.861-.351l.48,0a4.617,4.617,0,0,1,.272-.648l-.341-.344a1.216,1.216,0,0,1,.01-1.717l.5-.495a1.2,1.2,0,0,1,.853-.353h0a1.211,1.211,0,0,1,.864.359l.34.345a4.649,4.649,0,0,1,.625-.257v-.485a1.216,1.216,0,0,1,1.215-1.213h.7a1.217,1.217,0,0,1,1.216,1.213v.485a5.034,5.034,0,0,1,.647.267l.342-.341a1.214,1.214,0,0,1,1.715,0l.5.5a1.211,1.211,0,0,1,0,1.717l-.339.34a5.072,5.072,0,0,1,.27.651l.485,0a1.214,1.214,0,0,1,1.209,1.212V282a1.221,1.221,0,0,1-1.216,1.213h-.483a4.855,4.855,0,0,1-.271.651l.34.344a1.209,1.209,0,0,1-.006,1.717l-.494.495a1.228,1.228,0,0,1-1.719,0l-.344-.346a4.941,4.941,0,0,1-.648.267l0,.486A1.213,1.213,0,0,1,372.416,288.039Zm-2.749-3.5.408.259a3.762,3.762,0,0,0,1.169.489l.472.108-.007,1.426.71,0,.008-1.427.471-.106a3.753,3.753,0,0,0,1.17-.483l.409-.257,1.005,1.014.5-.5-1-1.017.256-.408a3.717,3.717,0,0,0,.488-1.167l.105-.473,1.425,0,0-.709,0,0-1.423-.006-.105-.468a3.725,3.725,0,0,0-.485-1.167l-.26-.409,1.009-1.01-.5-.506-1.015,1.009-.409-.26a3.753,3.753,0,0,0-1.166-.483l-.469-.108v-1.425l-.71,0,0,1.431-.473.106a3.724,3.724,0,0,0-1.15.472l-.41.254-1-1.011-.508.5,1,1.019-.26.408a3.71,3.71,0,0,0-.489,1.164l-.109.472-1.424-.006-.007.711,1.424.01.105.468a3.752,3.752,0,0,0,.483,1.166l.26.41-1.014,1.01.495.5Zm2.413-.36a2.537,2.537,0,1,1,2.537-2.54A2.542,2.542,0,0,1,372.081,284.183Zm0-3.864a1.327,1.327,0,1,0,1.327,1.323A1.327,1.327,0,0,0,372.081,280.319Z" transform="translate(-365.686 -275.251)" fill="#414042"/></g></g><g transform="translate(260.768 317.214)"><g transform="translate(0 1.772)"><rect width="4.753" height="1.21" fill="#414042"/></g><g transform="translate(1.772)"><rect width="1.21" height="4.753" fill="#414042"/></g></g><g transform="translate(314.234 281.551)"><g transform="translate(0 1.771)"><rect width="4.754" height="1.21" fill="#414042"/></g><g transform="translate(1.772)"><rect width="1.21" height="4.753" fill="#414042"/></g></g><g transform="translate(428.897 324.875)"><g transform="translate(0 1.303)"><rect width="3.817" height="1.21" fill="#414042"/></g><g transform="translate(1.303)"><rect width="1.21" height="3.817" fill="#414042"/></g></g><g transform="translate(351.864 275.431)"><path d="M340.946,280.509l-5.184-2.994,5.184-2.992Zm-2.764-2.994,1.555.9v-1.8Z" transform="translate(-335.762 -274.523)" fill="#414042"/></g><g transform="translate(281.758 279.713)"><path d="M282.995,284.049l-5.184-2.994,5.184-2.992Zm-2.764-2.994,1.555.9v-1.8Z" transform="translate(-277.811 -278.063)" fill="#414042"/></g><g transform="translate(266.432 285.783)"><path d="M265.142,289.067V283.08l5.184,2.993Zm1.21-3.891v1.794l1.555-.9Z" transform="translate(-265.142 -283.08)" fill="#414042"/></g></g></svg>