<svg xmlns="http://www.w3.org/2000/svg" width="307.057" height="185.804" viewBox="0 0 307.057 185.804"><g transform="translate(-173.192 -541.804)"><g transform="translate(229.859 577.038)"><g transform="translate(198.501 148.082)"><path d="M773.652,963.617l-1.542-.737q.365-.763.718-1.534l1.554.711Q774.024,962.84,773.652,963.617Z" transform="translate(-772.11 -961.346)" fill="#282d33"/></g><g transform="translate(0 0)"><path d="M509.775,760.441l-1.577-.659c.437-1.045.862-2.112,1.265-3.174l1.6.606C510.651,758.293,510.219,759.378,509.775,760.441Zm-194.121-.107c-.444-1.065-.876-2.152-1.283-3.229l1.6-.6c.4,1.059.825,2.128,1.262,3.176Zm196.584-6.387-1.617-.553c.366-1.07.72-2.164,1.051-3.251l1.635.5C512.969,751.747,512.61,752.859,512.238,753.947ZM313.2,753.834c-.371-1.091-.73-2.2-1.065-3.307l1.635-.5c.33,1.086.682,2.181,1.047,3.253ZM514.264,747.3l-1.65-.444c.294-1.094.574-2.208.832-3.314l1.665.389C514.848,745.059,514.563,746.192,514.264,747.3Zm-203.087-.118c-.3-1.114-.582-2.248-.843-3.371l1.665-.387c.256,1.105.535,2.221.829,3.316Zm204.667-6.645-1.676-.333c.221-1.111.426-2.242.611-3.362l1.686.278C516.277,738.263,516.068,739.412,515.844,740.541ZM309.6,740.417c-.223-1.129-.431-2.28-.617-3.42l1.687-.276c.183,1.121.387,2.253.606,3.364Zm207.367-6.728-1.695-.221c.147-1.123.277-2.265.387-3.394l1.7.166C517.253,731.387,517.12,732.548,516.971,733.689Zm-208.487-.129c-.148-1.141-.279-2.3-.389-3.453l1.7-.164c.109,1.131.238,2.274.383,3.4Zm209.159-6.781-1.706-.11c.073-1.131.128-2.279.163-3.411l1.708.053C517.774,724.462,517.718,725.629,517.644,726.778Zm-209.824-.135c-.072-1.15-.127-2.318-.162-3.471l1.709-.052c.034,1.135.088,2.284.159,3.415Zm208.333-6.8c0-1.135-.021-2.284-.059-3.417l1.708-.057c.039,1.15.059,2.318.059,3.472ZM309.319,719.7l-1.709,0c0-1.154.024-2.322.064-3.471l1.708.059C309.343,717.417,309.322,718.566,309.319,719.7Zm206.605-6.691c-.075-1.13-.169-2.276-.281-3.4l1.7-.169c.114,1.147.21,2.312.286,3.461Zm-206.367-.138-1.706-.115c.077-1.15.175-2.315.291-3.46l1.7.171C309.729,710.6,309.633,711.741,309.557,712.873Zm205.693-6.661c-.15-1.125-.319-2.262-.506-3.379l1.686-.281c.189,1.135.362,2.291.514,3.435Zm-205.01-.137-1.694-.227c.153-1.142.327-2.3.518-3.434l1.686.283C310.563,703.816,310.391,704.953,310.24,706.076Zm203.888-6.6c-.224-1.113-.468-2.236-.728-3.338l1.664-.392c.264,1.12.513,2.262.74,3.393Zm-202.756-.135L309.7,699c.228-1.128.479-2.269.745-3.392L312.1,696C311.842,697.107,311.6,698.229,311.371,699.338Zm201.19-6.514c-.3-1.094-.615-2.2-.948-3.282l1.634-.5c.338,1.1.663,2.224.964,3.337Zm-199.614-.133-1.65-.449c.3-1.113.629-2.235.969-3.335l1.633.5C313.566,690.492,313.245,691.6,312.947,692.691Zm197.605-6.408c-.37-1.075-.763-2.159-1.169-3.221l1.6-.61c.412,1.081.812,2.182,1.188,3.275Zm-195.591-.12-1.616-.558c.376-1.09.776-2.188,1.188-3.264l1.6.612C315.725,684.012,315.331,685.091,314.961,686.163Zm193.148-6.281c-.442-1.05-.906-2.1-1.38-3.134l1.553-.715c.482,1.047.954,2.119,1.4,3.186ZM317.4,679.794l-1.575-.664c.447-1.059.917-2.125,1.4-3.168l1.552.716C318.3,677.7,317.84,678.752,317.4,679.794Zm187.845-6.131c-.509-1.015-1.042-2.036-1.585-3.034l1.5-.816c.551,1.014,1.093,2.052,1.611,3.084Zm-184.991-.056-1.528-.767c.516-1.028,1.056-2.062,1.606-3.071l1.5.817C321.294,671.579,320.762,672.6,320.255,673.607Zm181.723-5.957c-.576-.981-1.175-1.964-1.781-2.921l1.445-.914c.616.973,1.225,1.972,1.811,2.969Zm-178.464-.032-1.473-.866c.582-.991,1.19-1.987,1.806-2.96l1.444.914C324.684,665.663,324.087,666.643,323.513,667.618Zm174.807-5.749c-.638-.939-1.3-1.88-1.969-2.8l1.381-1.007c.68.932,1.353,1.888,2,2.842Zm-171.159-.015-1.413-.961c.648-.952,1.32-1.906,2-2.836l1.381,1.008C328.46,659.978,327.8,660.918,327.161,661.854Zm167.13-5.511c-.7-.893-1.42-1.788-2.148-2.659l1.312-1.1c.74.887,1.475,1.8,2.183,2.7Zm-163.108,0-1.347-1.052c.708-.907,1.442-1.815,2.181-2.7l1.312,1.1C332.6,654.554,331.881,655.448,331.184,656.34Zm4.377-5.241-1.275-1.139c.768-.86,1.56-1.718,2.354-2.551l1.237,1.179C337.1,649.408,336.317,650.253,335.561,651.1Zm154.348,0c-.754-.845-1.534-1.69-2.317-2.511l1.237-1.18c.8.835,1.588,1.694,2.355,2.553Zm-149.634-4.942-1.2-1.22c.823-.809,1.67-1.614,2.517-2.393l1.157,1.258C341.918,644.568,341.085,645.36,340.275,646.156Zm144.919,0c-.809-.794-1.642-1.586-2.476-2.353l1.157-1.258c.847.779,1.694,1.584,2.517,2.391ZM345.305,641.53l-1.115-1.3c.874-.752,1.772-1.5,2.67-2.223l1.072,1.331C347.048,640.055,346.164,640.791,345.305,641.53Zm134.861,0c-.857-.738-1.741-1.473-2.624-2.185l1.072-1.332c.9.723,1.8,1.47,2.667,2.221Zm-5.318-4.282c-.9-.68-1.833-1.356-2.761-2.006l.982-1.4c.943.662,1.887,1.348,2.806,2.04Zm-124.218,0-1.027-1.366c.923-.694,1.869-1.381,2.812-2.043l.982,1.4C352.469,635.884,351.538,636.561,350.63,637.243Zm118.633-3.917c-.947-.619-1.918-1.232-2.885-1.82l.888-1.461c.983.6,1.97,1.22,2.933,1.85Zm-113.035-.012-.935-1.431c.964-.63,1.954-1.254,2.942-1.854l.888,1.461C358.15,632.081,357.176,632.695,356.228,633.315Zm107.206-3.531c-.985-.555-1.993-1.1-3-1.625l.79-1.516c1.021.532,2.046,1.087,3.047,1.651Zm-101.359-.021-.839-1.489c1.008-.567,2.037-1.124,3.059-1.656l.789,1.517C364.079,628.657,363.066,629.2,362.075,629.763Zm95.313-3.127c-1.02-.489-2.062-.967-3.1-1.422l.688-1.565c1.052.462,2.111.948,3.147,1.446Zm-89.241-.031-.738-1.542c1.042-.5,2.106-.986,3.164-1.45l.686,1.565C370.22,625.634,369.173,626.114,368.148,626.6Zm83-2.709c-1.053-.421-2.127-.831-3.193-1.217l.582-1.607c1.083.393,2.175.809,3.245,1.237Zm-76.733-.04-.633-1.588c1.074-.429,2.17-.845,3.256-1.237l.58,1.608C376.554,623.025,375.477,623.434,374.42,623.856Zm70.309-2.287c-1.079-.35-2.177-.687-3.266-1l.474-1.642c1.107.32,2.224.662,3.32,1.018Zm-63.864-.039-.526-1.627c1.1-.355,2.214-.7,3.322-1.015l.471,1.643C383.043,620.845,381.943,621.18,380.865,621.53Zm57.3-1.855c-1.1-.278-2.218-.541-3.325-.782l.363-1.67c1.126.245,2.263.512,3.381.795Zm-50.734-.031-.417-1.658c1.116-.281,2.254-.547,3.382-.791l.361,1.671C389.648,619.105,388.529,619.367,387.431,619.643Zm44.059-1.422c-1.114-.2-2.247-.392-3.37-.56l.252-1.691c1.141.17,2.294.362,3.426.569Zm-37.381-.023-.306-1.682c1.133-.206,2.286-.4,3.426-.565l.25,1.691C396.357,617.809,395.223,618,394.108,618.2Zm30.625-.985c-1.126-.13-2.27-.243-3.4-.336l.14-1.7c1.148.094,2.311.209,3.456.341Zm-23.867-.015-.194-1.7c1.143-.13,2.306-.244,3.456-.338l.138,1.7C403.135,616.959,401.991,617.07,400.866,617.2Zm17.057-.546c-1.132-.056-2.282-.094-3.415-.113l.028-1.709c1.153.02,2.32.058,3.471.115Zm-10.248-.006-.082-1.707c1.149-.056,2.317-.093,3.47-.111l.027,1.709C409.955,616.556,408.806,616.593,407.676,616.647Z" transform="translate(-307.61 -614.829)" fill="#1366ff"/></g><g transform="translate(9.48 148.082)"><path d="M330.522,963.617q-.371-.776-.729-1.56l1.554-.711q.353.77.718,1.534Z" transform="translate(-329.793 -961.346)" fill="#282d33"/></g></g><g transform="translate(256.27 603.093)"><g transform="translate(142.413 122.744)"><path d="M703.258,964.7l-1.4-.984q.243-.345.481-.694l1.409.968Q703.506,964.348,703.258,964.7Z" transform="translate(-701.86 -963.024)" fill="#1366ff"/></g><g transform="translate(0 0)"><path d="M513.872,798.078l-1.431-.935q.462-.706.909-1.422l1.45.9Q514.344,797.357,513.872,798.078Zm-132.444-.055q-.471-.722-.928-1.455l1.452-.9q.446.717.907,1.423ZM515.7,795.152l-1.47-.873q.43-.725.845-1.46l1.488.84Q516.137,794.411,515.7,795.152ZM379.6,795.093q-.44-.742-.864-1.494l1.489-.839q.415.736.845,1.462Zm137.787-2.944-1.506-.808q.4-.743.781-1.5l1.523.774Q517.8,791.389,517.392,792.149Zm-139.481-.062q-.407-.76-.8-1.531l1.525-.773q.382.754.78,1.5Zm141.043-3.011-1.54-.741q.365-.76.714-1.528l1.556.707Q519.328,788.3,518.954,789.075Zm-142.6-.067q-.373-.777-.73-1.564l1.557-.706q.349.769.714,1.53Zm144.03-3.072-1.571-.673q.331-.775.647-1.558l1.586.638Q520.719,785.144,520.38,785.936Zm-145.455-.072q-.338-.793-.66-1.594l1.586-.637q.315.785.646,1.56Zm146.742-3.127-1.6-.6q.3-.789.578-1.584l1.612.568Q521.971,781.931,521.667,782.737Zm-148.028-.077q-.3-.807-.589-1.622l1.612-.566q.281.8.577,1.587Zm149.173-3.174-1.624-.532q.262-.8.507-1.608l1.636.5Q523.081,778.667,522.812,779.486ZM372.5,779.4q-.267-.819-.517-1.647l1.636-.495q.245.809.506,1.611Zm151.318-3.215-1.646-.461q.226-.81.436-1.629l1.656.424Q524.045,775.359,523.814,776.187ZM371.5,776.1q-.231-.831-.444-1.668l1.656-.422q.209.82.435,1.632Zm153.172-3.249L523,772.461q.191-.82.364-1.646l1.673.351Q524.864,772.01,524.669,772.848Zm-154.025-.1q-.194-.84-.371-1.686l1.673-.349q.172.829.363,1.65Zm154.733-3.275-1.68-.315q.155-.827.292-1.66l1.687.277Q525.534,768.63,525.377,769.476Zm-155.438-.106q-.157-.848-.3-1.7l1.687-.275q.137.835.29,1.664Zm156-3.294-1.693-.241q.119-.833.219-1.671l1.7.2Q526.057,765.224,525.936,766.076Zm-156.553-.115q-.12-.854-.222-1.713l1.7-.2q.1.84.217,1.676Zm156.963-3.305-1.7-.167q.082-.837.146-1.679l1.7.129Q526.43,761.8,526.346,762.656Zm-157.37-.125q-.083-.858-.147-1.721l1.7-.127q.063.844.144,1.684Zm157.631-3.309-1.707-.093q.046-.84.073-1.683l1.709.056Q526.655,758.364,526.608,759.222Zm-157.887-.136q-.045-.86-.072-1.726l1.708-.053q.026.847.071,1.689Zm158-3.306-1.709-.019q.005-.451.005-.9,0-.394,0-.785l1.709-.017q0,.4,0,.8Q526.726,755.319,526.721,755.779Zm-158.108-.147q0-.387,0-.774,0-.477.006-.953l1.709.021q-.006.466-.006.932,0,.38,0,.759Zm156.365-3.247q-.027-.845-.071-1.686l1.707-.09q.046.859.073,1.723Zm-154.616-.144-1.708-.057q.028-.864.076-1.723l1.707.094Q370.39,751.394,370.362,752.24ZM524.8,749.014q-.063-.844-.144-1.681l1.7-.164q.082.856.147,1.718Zm-154.253-.145-1.7-.13q.065-.861.15-1.718l1.7.168Q370.611,748.026,370.547,748.87Zm153.929-3.214q-.1-.84-.217-1.674l1.693-.238q.119.853.221,1.71Zm-153.6-.144-1.7-.2q.1-.858.225-1.71l1.692.241Q370.978,744.672,370.877,745.511Zm153.128-3.2q-.137-.835-.29-1.662l1.681-.312q.157.846.3,1.7Zm-152.651-.143-1.687-.279q.14-.852.3-1.7l1.68.315Q371.491,741.337,371.354,742.171ZM523.389,739q-.172-.827-.362-1.648l1.665-.385q.194.838.37,1.685Zm-151.414-.142L370.3,738.5q.178-.846.373-1.684l1.665.389Q372.15,738.027,371.976,738.854Zm150.653-3.146q-.208-.819-.434-1.63l1.647-.458q.231.829.444,1.666Zm-149.886-.14-1.656-.425q.215-.837.447-1.666l1.646.462Q372.953,734.75,372.743,735.568Zm148.981-3.111q-.245-.812-.508-1.616l1.625-.53q.268.823.519,1.652Zm-148.071-.138-1.635-.5q.251-.826.52-1.644l1.624.533Q373.9,731.511,373.653,732.319Zm147.02-3.082q-.28-.8-.578-1.591l1.6-.6q.3.809.591,1.627Zm-145.967-.124-1.612-.569q.287-.814.591-1.62l1.6.6Q374.987,728.317,374.706,729.113Zm144.776-3.044q-.315-.787-.647-1.564l1.572-.671q.339.795.661,1.6ZM375.9,725.957l-1.585-.639q.322-.8.66-1.587l1.571.674Q376.213,725.176,375.9,725.957Zm142.255-3q-.349-.771-.715-1.533l1.541-.74q.374.779.731,1.567Zm-140.93-.091-1.556-.708q.356-.783.729-1.557l1.54.741Q377.571,722.1,377.223,722.866Zm139.466-2.958q-.383-.754-.782-1.5l1.507-.807q.408.762.8,1.533Zm-138.007-.073-1.523-.775q.39-.767.8-1.524l1.507.808Q379.064,719.085,378.682,719.835Zm136.411-2.908q-.415-.737-.846-1.464l1.471-.871q.44.742.865,1.5Zm-134.82-.057-1.488-.841q.423-.749.862-1.489l1.47.873Q380.688,716.136,380.274,716.869Zm133.1-2.85q-.447-.717-.909-1.424l1.431-.935q.472.722.929,1.456Zm-131.376-.045-1.45-.9q.456-.731.927-1.45l1.43.936Q382.44,713.259,381.993,713.974Zm129.528-2.783q-.478-.7-.97-1.383l1.389-1q.5.7.991,1.414Zm-127.683-.035-1.41-.967q.487-.71.989-1.409l1.388,1Q384.315,710.46,383.839,711.155Zm125.713-2.709q-.508-.675-1.029-1.339l1.344-1.056q.533.678,1.051,1.368ZM385.8,708.419l-1.366-1.028q.518-.689,1.05-1.365l1.344,1.057Q386.312,707.744,385.8,708.419Zm121.66-2.628q-.536-.652-1.085-1.293l1.3-1.114q.562.655,1.11,1.321Zm-119.576-.023-1.32-1.085q.547-.665,1.109-1.319l1.3,1.114Q388.424,705.117,387.889,705.768Zm117.377-2.539q-.564-.628-1.14-1.244l1.247-1.169q.589.629,1.165,1.271Zm-115.179-.019-1.272-1.142q.576-.642,1.165-1.27l1.247,1.169Q390.65,702.583,390.086,703.21Zm112.872-2.444q-.59-.6-1.193-1.193l1.2-1.222q.616.6,1.219,1.219Zm-110.565-.017-1.221-1.2q.6-.616,1.219-1.219l1.2,1.222Q392.984,700.146,392.393,700.749Zm108.154-2.343q-.615-.576-1.244-1.14l1.142-1.272q.642.576,1.27,1.165Zm-105.741-.017-1.169-1.248q.63-.59,1.272-1.165l1.141,1.272Q395.422,697.813,394.806,698.39Zm103.23-2.236q-.64-.549-1.291-1.084l1.085-1.321q.666.547,1.32,1.108Zm-100.717-.018-1.113-1.3q.655-.562,1.321-1.109l1.085,1.321Q397.96,695.586,397.32,696.136Zm98.112-2.123q-.662-.521-1.336-1.027l1.027-1.367q.689.518,1.366,1.05Zm-95.5-.02-1.056-1.344q.678-.533,1.369-1.051l1.026,1.367Q400.593,693.472,399.929,693.993Zm92.807-2.005q-.683-.492-1.379-.968l.966-1.41q.71.487,1.41.99Zm-90.107-.023-1-1.389q.7-.5,1.414-.991l.966,1.411Q403.316,691.473,402.63,691.965Zm87.328-1.883q-.7-.461-1.42-.907l.9-1.45q.731.456,1.45.927Zm-84.54-.027-.936-1.431q.723-.472,1.456-.929l.9,1.451Q406.124,689.594,405.417,690.056ZM487.1,688.3q-.723-.429-1.457-.844l.841-1.488q.749.423,1.489.862Zm-78.813-.03-.872-1.47q.743-.44,1.5-.865l.839,1.489Q409.013,687.839,408.287,688.27Zm75.882-1.625q-.741-.4-1.491-.779l.775-1.523q.767.39,1.525.8Zm-72.937-.035-.806-1.508q.761-.407,1.533-.8l.773,1.524Q411.976,686.211,411.231,686.61Zm69.937-1.491q-.757-.365-1.523-.713l.707-1.556q.783.356,1.557.728Zm-66.921-.039-.74-1.541q.779-.374,1.568-.731l.705,1.557Q415.01,684.715,414.248,685.081Zm63.86-1.353q-.772-.331-1.553-.645l.639-1.586q.8.321,1.587.659Zm-60.778-.044-.671-1.572q.794-.339,1.6-.662l.636,1.587Q418.107,683.353,417.329,683.684Zm57.654-1.215q-.788-.3-1.585-.579l.569-1.612q.814.287,1.62.591Zm-54.512-.045-.6-1.6q.81-.3,1.627-.591l.566,1.613Q421.262,682.127,420.471,682.424Zm51.329-1.077q-.8-.263-1.609-.509l.5-1.635q.826.251,1.644.52Zm-48.134-.043-.53-1.625q.822-.268,1.652-.519l.494,1.637Q424.47,681.042,423.666,681.3Zm44.906-.938q-.811-.227-1.63-.437l.424-1.656q.837.214,1.666.447Zm-41.669-.039-.458-1.647q.83-.231,1.667-.444l.421,1.656Q427.715,680.1,426.9,680.327Zm38.4-.8q-.82-.192-1.647-.365l.352-1.673q.845.178,1.684.373Zm-35.131-.033-.385-1.665q.839-.194,1.685-.37l.349,1.674Q430.994,679.305,430.173,679.495ZM462,678.834q-.828-.155-1.662-.292l.278-1.687q.852.14,1.7.3Zm-28.525-.026-.311-1.681q.846-.157,1.7-.3l.275,1.687Q434.3,678.654,433.476,678.807Zm25.2-.522q-.834-.119-1.673-.219l.2-1.7q.858.1,1.71.224Zm-21.865-.021-.238-1.693q.852-.119,1.71-.221l.2,1.7Q437.641,678.147,436.807,678.264Zm18.514-.382q-.838-.083-1.681-.147l.13-1.7q.862.065,1.718.15Zm-15.163-.014-.164-1.7q.856-.083,1.718-.147l.127,1.7Q441,677.787,440.158,677.868Zm11.8-.243q-.84-.046-1.686-.074l.056-1.709q.863.029,1.723.076Zm-8.433-.008-.09-1.707q.859-.045,1.723-.072l.053,1.708Q444.364,677.573,443.524,677.617Zm5.061-.1c-.562-.006-1.126-.007-1.688,0l-.017-1.709c.574-.006,1.151-.005,1.724,0Z" transform="translate(-368.609 -675.799)" fill="#1366ff"/></g><g transform="translate(13.814 122.744)"><path d="M401.427,964.7q-.249-.353-.493-.71l1.41-.968q.238.348.481.694Z" transform="translate(-400.934 -963.024)" fill="#1366ff"/></g></g><circle cx="13.675" cy="13.675" r="13.675" transform="translate(219.902 649.952)" fill="#a1c5ff"/><circle cx="13.675" cy="13.675" r="13.675" transform="translate(424.538 653.068)" fill="#a1c5ff"/><path d="M302.175,743.344,298,745.753l-4.172,2.408v-9.633L298,740.935Z" transform="translate(-69.086 -108.472)" fill="#a1c5ff"/><rect width="5.605" height="5.605" transform="translate(214.762 621.705)" fill="#a1c5ff"/><g transform="translate(216.771 611.303)"><g transform="translate(11.715 11.715)"><rect width="1.709" height="1.709" fill="#282d33"/></g><g transform="translate(3.711 11.715)"><path d="M289.855,723.7h-2v-1.709h2Zm-4,0h-2v-1.709h2Z" transform="translate(-283.852 -721.989)" fill="#282d33"/></g><g transform="translate(0 11.715)"><rect width="1.709" height="1.709" fill="#282d33"/></g><g transform="translate(0 3.711)"><path d="M276.878,709.262h-1.709v-2h1.709Zm0-4h-1.709v-2h1.709Z" transform="translate(-275.169 -703.258)" fill="#282d33"/></g><g transform="translate(0 0)"><rect width="1.709" height="1.709" fill="#282d33"/></g><g transform="translate(3.71)"><path d="M289.855,696.284h-2v-1.709h2Zm-4,0h-2v-1.709h2Z" transform="translate(-283.851 -694.575)" fill="#282d33"/></g><g transform="translate(11.715 0)"><rect width="1.709" height="1.709" fill="#282d33"/></g><g transform="translate(11.715 3.711)"><path d="M304.292,709.261h-1.709v-2h1.709Zm0-4h-1.709v-2h1.709Z" transform="translate(-302.583 -703.258)" fill="#282d33"/></g></g><g transform="translate(228.534 656.51)"><g transform="translate(0)"><g transform="translate(0)"><g transform="translate(4.027)"><line y1="2.464" transform="translate(0.855)" fill="#fff"/><rect width="1.709" height="2.464" fill="#282d33"/></g><g transform="translate(0 1.999)"><line x1="2.134" y1="1.232" transform="translate(0.427 0.74)" fill="#fff"/><rect width="1.71" height="2.464" transform="matrix(0.5, -0.866, 0.866, 0.5, 0, 1.481)" fill="#282d33"/></g><g transform="translate(0.145 5.995)"><line x1="2.135" y2="1.232" transform="translate(0.427 0.74)" fill="#fff"/><rect width="2.465" height="1.709" transform="translate(0 1.231) rotate(-29.969)" fill="#282d33"/></g><g transform="translate(4.318 7.991)"><line y2="2.466" transform="translate(0.855)" fill="#fff"/><rect width="1.709" height="2.466" fill="#282d33"/></g><g transform="translate(7.065 5.744)"><line x2="2.135" y2="1.233" transform="translate(0.427 0.74)" fill="#fff"/><rect width="1.709" height="2.465" transform="translate(0 1.481) rotate(-60.007)" fill="#282d33"/></g><g transform="translate(6.92 1.748)"><line y1="1.233" x2="2.135" transform="translate(0.427 0.74)" fill="#fff"/><rect width="2.465" height="1.709" transform="translate(0 1.233) rotate(-30.002)" fill="#282d33"/></g></g><g transform="translate(0.996 6.032)"><path d="M311.429,818.672l1.252,2.213,1.251,2.214-2.542-.023-2.544-.023,1.292-2.191Z" transform="translate(-307.357 -816.963)" fill="#fff"/><path d="M313.409,821.678l-8.046-.073,4.087-6.932Zm-5.07-1.755,2.126.019-1.046-1.85Z" transform="translate(-305.363 -814.673)" fill="#282d33"/><g transform="translate(3.15 6.062)"><rect width="2.992" height="1.709" transform="matrix(0.009, -1, 1, 0.009, 0, 2.991)" fill="#282d33"/></g></g></g></g><g transform="translate(279.74 631.749)"><g transform="translate(0 0)"><g transform="translate(0.062)"><path d="M534.975,811.795V747.848a3,3,0,0,0-3-2.994H428.646a3,3,0,0,0-2.994,2.994v63.947Z" transform="translate(-424.797 -743.999)" fill="#a1c5ff"/><path d="M534.684,811.5H423.652V746.7a3.853,3.853,0,0,1,3.849-3.848H530.833a3.854,3.854,0,0,1,3.851,3.848Zm-109.323-1.709H532.975V746.7a2.143,2.143,0,0,0-2.142-2.139H427.5a2.142,2.142,0,0,0-2.139,2.139Z" transform="translate(-423.652 -742.854)" fill="#1366ff"/></g><g transform="translate(5.829 5.901)"><rect width="97.676" height="55.071" transform="translate(0.855 0.855)" fill="#fff"/><path d="M536.531,813.442H437.146v-56.78h99.385Zm-97.676-1.709h95.967V758.371H438.855Z" transform="translate(-437.146 -756.662)" fill="#1366ff"/></g><g transform="translate(0 66.876)"><path d="M425.506,901.347v9.222a4.041,4.041,0,0,0,3.579,3.737H532.168c1.77,0,2.826-1.817,2.826-3.586v-9.372Z" transform="translate(-424.651 -900.492)" fill="#fff"/><path d="M531.023,914.015H427.94a4.89,4.89,0,0,1-4.434-4.592V899.347H534.7v10.227C534.7,911.757,533.326,914.015,531.023,914.015ZM425.215,901.056v8.367a3.231,3.231,0,0,0,2.725,2.882H531.023c1.233,0,1.971-1.389,1.971-2.732v-8.518Z" transform="translate(-423.506 -899.347)" fill="#1366ff"/></g><g transform="translate(38.044 80.693)"><path d="M518.377,931.841c-.188,2.292.22,7.391-.274,9.884-.453,2.28-.767,2.357-1.977,3.029-.684.375-1.836.9-2.8,1.314h0" transform="translate(-512.985 -931.771)" fill="#fff"/><path d="M513.209,946.759l-.679-1.569c1.192-.515,2.187-.982,2.731-1.28l.156-.087c.94-.518,1.038-.572,1.394-2.359a35.829,35.829,0,0,0,.221-6.045c-.02-1.442-.038-2.8.039-3.742l1.7.139c-.07.858-.053,2.18-.034,3.579a36.526,36.526,0,0,1-.253,6.4c-.46,2.315-.861,2.761-2.245,3.524l-.156.086C515.277,945.851,513.936,946.444,513.209,946.759Z" transform="translate(-512.53 -931.678)" fill="#1366ff"/></g><g transform="translate(66.842 80.818)"><path d="M586.918,946.253c-.97-.423-2.143-.954-2.833-1.331-1.208-.672-1.446-.749-1.9-3.029-.494-2.492-.089-7.465-.276-9.758" transform="translate(-581.06 -932.065)" fill="#fff"/><path d="M585.435,946.943c-.913-.4-2.157-.957-2.9-1.364l-.1-.055c-1.409-.782-1.756-1.175-2.227-3.559a35.86,35.86,0,0,1-.255-6.316c.018-1.378.036-2.68-.035-3.538l1.7-.139c.077.938.059,2.28.04,3.7a35.069,35.069,0,0,0,.222,5.962c.362,1.831.4,1.853,1.38,2.4l.094.052c.683.373,1.878.91,2.759,1.294Z" transform="translate(-579.918 -931.972)" fill="#1366ff"/></g><g transform="translate(35.382 94.15)"><line x2="40.448" transform="translate(0 0.855)" fill="#fff"/><rect width="40.448" height="1.709" fill="#1366ff"/></g></g></g><g transform="translate(305.218 686.845)"><rect width="3.846" height="3.846" fill="#b7bec0"/><rect width="3.846" height="3.846" transform="translate(6.268)" fill="#b7bec0"/><rect width="3.846" height="3.846" transform="translate(12.536)" fill="#b7bec0"/><rect width="3.846" height="3.846" transform="translate(18.803)" fill="#b7bec0"/><rect width="3.846" height="3.846" transform="translate(25.071)" fill="#b7bec0"/><rect width="3.846" height="3.846" transform="translate(31.339)" fill="#b7bec0"/><rect width="3.846" height="3.846" transform="translate(37.607)" fill="#b7bec0"/><rect width="3.846" height="3.846" transform="translate(43.874)" fill="#b7bec0"/><rect width="3.846" height="3.846" transform="translate(50.142)" fill="#b7bec0"/><rect width="3.846" height="3.846" transform="translate(56.41)" fill="#b7bec0"/></g><g transform="translate(250.068 597.583)"><path d="M359.54,690.3h12.453a7.372,7.372,0,0,1,1.092-3.695,22.185,22.185,0,0,0,4.889-11.953,12.2,12.2,0,0,0-24.4,0,22.132,22.132,0,0,0,4.887,11.953A7.308,7.308,0,0,1,359.54,690.3Z" transform="translate(-353.579 -662.451)" fill="#a1c5ff"/><g transform="translate(2.38 2.381)"><path d="M360.858,677.794h-1.709a9.806,9.806,0,0,1,9.817-9.771v1.709A8.1,8.1,0,0,0,360.858,677.794Z" transform="translate(-359.149 -668.022)" fill="#fff"/></g><g transform="translate(5.698 14.255)"><g transform="translate(0)"><rect width="1.709" height="13.621" transform="matrix(0.984, -0.177, 0.177, 0.984, 0, 0.303)" fill="#282d33"/></g><g transform="translate(8.903 0)"><rect width="13.621" height="1.709" transform="translate(0 13.406) rotate(-79.79)" fill="#282d33"/></g></g><g transform="translate(6.258 14.519)"><path d="M378.24,698.835h-.713l-1.506-.691-1.505.691H373.8l-1.5-.691-1.5.691h-.714l-1.86-.855.714-1.553,1.5.691,1.5-.691h.714l1.5.691,1.5-.691h.713l1.506.691,1.506-.691.713,1.554Z" transform="translate(-368.223 -696.426)" fill="#282d33"/></g><g transform="translate(4.267 27.135)"><rect width="15.863" height="1.709" fill="#282d33"/><g transform="translate(0 3.081)"><rect width="15.863" height="1.709" fill="#282d33"/></g><g transform="translate(0 6.163)"><rect width="15.863" height="1.709" fill="#282d33"/></g><g transform="translate(2.157 9.244)"><rect width="11.548" height="1.709" fill="#282d33"/></g><g transform="translate(0.986 1.018)"><rect width="1.709" height="5.856" fill="#282d33"/></g></g></g><g transform="translate(393.647 596.927)"><circle cx="13.675" cy="13.675" r="13.675" transform="translate(1.138 0)" fill="#a1c5ff"/><g transform="translate(2.452 3.469)"><path d="M697.352,685.68l-1.08-1.325,9.051-7.378,10.219,3.366,12.023-11.332,1.172,1.244-12.763,12.03-10.3-3.391Z" transform="translate(-696.272 -669.012)" fill="#282d33"/></g><g transform="translate(8.688 9.401)"><path d="M717.139,687.031A2.137,2.137,0,1,1,715,684.894,2.137,2.137,0,0,1,717.139,687.031Z" transform="translate(-712.01 -684.039)" fill="#fff"/><path d="M713.856,688.877a2.991,2.991,0,1,1,2.992-2.991A2.995,2.995,0,0,1,713.856,688.877Zm0-4.273a1.282,1.282,0,1,0,1.283,1.282A1.284,1.284,0,0,0,713.856,684.6Z" transform="translate(-710.865 -682.894)" fill="#282d33"/></g><g transform="translate(18.945 12.78)"><path d="M741.142,694.937A2.137,2.137,0,1,1,739,692.8,2.137,2.137,0,0,1,741.142,694.937Z" transform="translate(-736.013 -691.945)" fill="#fff"/><path d="M737.859,696.783a2.991,2.991,0,1,1,2.992-2.991A2.995,2.995,0,0,1,737.859,696.783Zm0-4.273a1.282,1.282,0,1,0,1.282,1.282A1.284,1.284,0,0,0,737.859,692.509Z" transform="translate(-734.868 -690.8)" fill="#282d33"/></g><g transform="translate(0 16.484)"><path d="M696.809,703.6a2.137,2.137,0,1,1-2.137-2.137A2.137,2.137,0,0,1,696.809,703.6Z" transform="translate(-691.68 -700.612)" fill="#fff"/><path d="M693.526,705.45a2.991,2.991,0,1,1,2.992-2.991A2.995,2.995,0,0,1,693.526,705.45Zm0-4.273a1.282,1.282,0,1,0,1.282,1.282A1.283,1.283,0,0,0,693.526,701.176Z" transform="translate(-690.535 -699.467)" fill="#282d33"/></g><g transform="translate(29.914 3.094)"><path d="M765.663,673.262h-1.709v-3.419h-3.419v-1.709h5.128Z" transform="translate(-760.535 -668.134)" fill="#282d33"/></g></g><g transform="translate(224.156 725.898)"><line x2="87.177" transform="translate(0 0.855)" fill="#fff"/><rect width="87.177" height="1.709" fill="#282d33"/></g><g transform="translate(359.456 725.898)"><line x2="87.177" transform="translate(0 0.855)" fill="#fff"/><rect width="87.177" height="1.709" fill="#282d33"/></g><g transform="translate(326.151 623.63)"><g transform="translate(0 18.69)"><path d="M540.224,771.514l-4.772-4.771,1.209-1.209,3.564,3.563,3.565-3.563L545,766.744Z" transform="translate(-535.452 -765.534)" fill="#1366ff"/></g><g transform="translate(3.918 0)"><rect width="1.709" height="22.329" fill="#1366ff"/></g></g><g transform="translate(335.632 623.014)"><g transform="translate(0 0)"><path d="M550.41,705.95l-1.209-1.209,4.774-4.771,4.772,4.771-1.209,1.209-3.564-3.563Z" transform="translate(-549.202 -699.97)" fill="#1366ff"/></g><g transform="translate(3.918 2.341)"><rect width="1.709" height="22.329" fill="#1366ff"/></g></g><g transform="translate(461.492 640.856)"><g transform="translate(0 3.867)"><rect width="7.709" height="1.709" fill="#282d33"/><g transform="translate(9.177)"><rect width="2.57" height="1.709" fill="#282d33"/></g></g><g transform="translate(6.948 0)"><rect width="11.809" height="1.709" fill="#282d33"/></g></g><g transform="translate(233.569 590.825)"><g transform="translate(0 0)"><g transform="translate(4.89 3.867)"><rect width="9.337" height="1.709" fill="#282d33"/></g><g transform="translate(8.447)"><rect width="9.336" height="1.709" fill="#282d33"/></g><g transform="translate(3.557)"><rect width="3.111" height="1.709" fill="#282d33"/></g><g transform="translate(0 3.867)"><rect width="3.112" height="1.709" fill="#282d33"/></g></g></g><g transform="translate(458.188 600.216)"><path d="M853.725,676.253a.787.787,0,0,1-.788.787h-1.526v2.955l-3.738-2.955H842.7a.787.787,0,0,1-.788-.787v-6.883a.788.788,0,0,1,.788-.789h10.24a.789.789,0,0,1,.788.789Z" transform="translate(-841.909 -668.58)" fill="#a1c5ff"/></g><g transform="translate(450.781 603.77)"><g transform="translate(0)"><path d="M826.888,690.949v-3.865h-.671a1.644,1.644,0,0,1-1.642-1.642v-6.883a1.645,1.645,0,0,1,1.642-1.643h10.241a1.645,1.645,0,0,1,1.642,1.643v6.883a1.644,1.644,0,0,1-1.642,1.642h-4.68Zm-.6-5.574H828.6v2.044l2.587-2.044h5.207v-6.75H826.284Z" transform="translate(-824.575 -676.916)" fill="#282d33"/></g></g><g transform="translate(173.192 637.332)"><g transform="translate(0 6.519)"><path d="M176.242,776.961a3.049,3.049,0,1,1,3.049-3.05A3.053,3.053,0,0,1,176.242,776.961Zm0-4.389a1.34,1.34,0,1,0,1.34,1.339A1.341,1.341,0,0,0,176.242,772.572Z" transform="translate(-173.192 -770.863)" fill="#282d33"/></g><g transform="translate(12.149 0)"><path d="M204.67,761.706a3.049,3.049,0,1,1,3.049-3.049A3.052,3.052,0,0,1,204.67,761.706Zm0-4.389a1.34,1.34,0,1,0,1.34,1.34A1.341,1.341,0,0,0,204.67,757.317Z" transform="translate(-201.621 -755.608)" fill="#282d33"/><g transform="translate(0 13.039)"><path d="M204.67,792.218a3.049,3.049,0,1,1,3.049-3.05A3.053,3.053,0,0,1,204.67,792.218Zm0-4.389a1.34,1.34,0,1,0,1.34,1.339A1.34,1.34,0,0,0,204.67,787.829Z" transform="translate(-201.621 -786.12)" fill="#282d33"/></g></g><g transform="translate(4.722 3.467)"><g transform="translate(0 6.223)"><rect width="1.709" height="8.996" transform="translate(0 1.48) rotate(-59.996)" fill="#282d33"/></g><g transform="translate(0)"><rect width="8.996" height="1.709" transform="matrix(0.866, -0.5, 0.5, 0.866, 0, 4.498)" fill="#282d33"/></g></g></g><path d="M828.435,900.523h-.988a.614.614,0,0,1-.547-.394l-.185-.445a.623.623,0,0,1,.107-.667l.7-.7a.413.413,0,0,0,0-.587l-1.077-1.08a.419.419,0,0,0-.589,0l-.7.7a.619.619,0,0,1-.666.11l-.446-.185a.618.618,0,0,1-.394-.548v-.986a.418.418,0,0,0-.416-.417h-1.525a.418.418,0,0,0-.417.417v.986a.618.618,0,0,1-.394.548l-.447.185a.619.619,0,0,1-.666-.11l-.7-.7a.418.418,0,0,0-.588,0l-1.079,1.08a.413.413,0,0,0,0,.587l.7.7a.624.624,0,0,1,.107.667l-.183.445a.618.618,0,0,1-.547.394h-.988a.418.418,0,0,0-.416.417v1.526a.418.418,0,0,0,.416.415h.988a.618.618,0,0,1,.547.394l.183.447a.623.623,0,0,1-.107.666l-.7.7a.414.414,0,0,0,0,.588l1.079,1.08a.419.419,0,0,0,.588,0l.7-.7a.617.617,0,0,1,.666-.108l.447.183a.62.62,0,0,1,.394.548v.987a.417.417,0,0,0,.417.415h1.525a.417.417,0,0,0,.416-.415v-.987a.619.619,0,0,1,.394-.548l.446-.183a.618.618,0,0,1,.666.108l.7.7a.421.421,0,0,0,.589,0l1.077-1.08a.414.414,0,0,0,0-.588l-.7-.7a.622.622,0,0,1-.107-.666l.185-.447a.614.614,0,0,1,.547-.394h.988a.417.417,0,0,0,.415-.415V900.94A.417.417,0,0,0,828.435,900.523Zm-5.964,3.19a2.011,2.011,0,1,1,2.011-2.011A2.011,2.011,0,0,1,822.471,903.713Z" transform="translate(-368.937 -198.418)" fill="#a1c5ff"/><g transform="translate(287.416 594.792)"><g transform="translate(7.992 4.028)"><rect width="2.464" height="1.709" fill="#282d33"/></g><g transform="translate(5.744 0)"><rect width="2.464" height="1.71" transform="translate(0 2.134) rotate(-60.005)" fill="#282d33"/></g><g transform="translate(1.749 0.145)"><rect width="1.71" height="2.465" transform="matrix(0.866, -0.5, 0.5, 0.866, 0, 0.855)" fill="#282d33"/></g><g transform="translate(0 4.318)"><rect width="2.465" height="1.709" fill="#282d33"/></g><g transform="translate(2 7.066)"><rect width="2.465" height="1.709" transform="translate(0 2.134) rotate(-59.998)" fill="#282d33"/></g><g transform="translate(5.995 6.921)"><rect width="1.71" height="2.465" transform="matrix(0.866, -0.5, 0.5, 0.866, 0, 0.855)" fill="#282d33"/></g></g><g transform="translate(469.807 668.255)"><g transform="translate(3.973)"><rect width="1.709" height="2.699" fill="#282d33"/></g><g transform="translate(0 1.8)"><rect width="1.709" height="2.7" transform="translate(0 1.48) rotate(-59.987)" fill="#282d33"/></g><g transform="translate(0 5.532)"><rect width="2.699" height="1.709" transform="translate(0 1.35) rotate(-30.002)" fill="#282d33"/></g><g transform="translate(3.973 7.463)"><rect width="1.709" height="2.699" fill="#282d33"/></g><g transform="translate(6.463 5.532)"><rect width="1.71" height="2.7" transform="translate(0 1.481) rotate(-60.003)" fill="#282d33"/></g><g transform="translate(6.463 1.8)"><rect width="2.7" height="1.709" transform="matrix(0.866, -0.5, 0.5, 0.866, 0, 1.35)" fill="#282d33"/></g></g><g transform="translate(201.356 694.606)"><g transform="translate(4.338)"><rect width="8.284" height="1.709" fill="#282d33"/></g><rect width="2.761" height="1.709" fill="#282d33"/></g><g transform="translate(179.324 689.963)"><g transform="translate(0 0)"><rect width="0.855" height="1.709" fill="#282d33"/></g><g transform="translate(2.507)"><path d="M214.889,880.643h-1.652v-1.709h1.652Zm-3.3,0h-1.652v-1.709h1.652Zm-3.3,0h-1.653v-1.709h1.653Zm-3.305,0h-1.652v-1.709h1.652Zm-3.3,0h-1.652v-1.709h1.652Zm-3.3,0h-1.653v-1.709h1.653Zm-3.3,0h-1.653v-1.709h1.653Z" transform="translate(-193.408 -878.934)" fill="#282d33"/></g><g transform="translate(25.641 0)"><rect width="0.855" height="1.709" fill="#282d33"/></g></g><g transform="translate(433.019 623.413)"><g transform="translate(0 0)"><rect width="0.855" height="1.709" fill="#282d33"/></g><g transform="translate(2.542 0)"><path d="M810.889,724.651H809.2v-1.709h1.687Zm-3.374,0h-1.687v-1.709h1.687Zm-3.374,0h-1.687v-1.709h1.687Zm-3.374,0h-1.687v-1.709h1.687Zm-3.374,0h-1.687v-1.709h1.687Zm-3.374,0h-1.687v-1.709h1.687Zm-3.374,0h-1.687v-1.709h1.687Z" transform="translate(-788.959 -722.942)" fill="#282d33"/></g><g transform="translate(26.159 0)"><rect width="0.855" height="1.709" fill="#282d33"/></g></g><g transform="translate(399.37 585.616)"><g transform="translate(0 0)"><rect width="5.329" height="1.71" transform="translate(0 3.768) rotate(-44.995)" fill="#282d33"/></g><g transform="translate(0 0)"><rect width="1.709" height="5.329" transform="translate(0 1.209) rotate(-45.003)" fill="#282d33"/></g></g><g transform="translate(209.639 664.975)"><g transform="translate(0 0)"><rect width="5.33" height="1.709" transform="translate(0 3.769) rotate(-45)" fill="#282d33"/></g><g transform="translate(0 0)"><rect width="1.709" height="5.329" transform="translate(0 1.209) rotate(-45.003)" fill="#282d33"/></g></g><g transform="translate(435.509 585.572)"><rect width="1.734" height="1.709" transform="translate(0 0)" fill="#282d33"/></g><g transform="translate(199.269 676.887)"><rect width="1.734" height="1.709" fill="#282d33"/></g><g transform="translate(248.059 698.62)"><g transform="translate(0 0)"><line x1="4.488" y2="4.488" transform="translate(0.605 0.604)" fill="#fff"/><rect width="6.347" height="1.709" transform="translate(0 4.488) rotate(-44.999)" fill="#282d33"/></g><g transform="translate(0)"><line x1="4.488" y1="4.488" transform="translate(0.604 0.604)" fill="#fff"/><rect width="1.709" height="6.347" transform="translate(0 1.209) rotate(-45)" fill="#282d33"/></g></g><g transform="translate(434.239 664.418)"><path d="M788.986,824.714a.838.838,0,0,1-.595-.247l-2.525-2.524,1.19-1.19,1.93,1.929,3.613-3.613,1.19,1.19-4.208,4.208A.838.838,0,0,1,788.986,824.714Z" transform="translate(-785.866 -819.069)" fill="#222829"/></g><g transform="translate(430.626 659.121)"><path d="M784.985,821.825a7.574,7.574,0,1,1,7.574-7.574A7.583,7.583,0,0,1,784.985,821.825Zm0-13.465a5.891,5.891,0,1,0,5.891,5.891A5.9,5.9,0,0,0,784.985,808.36Z" transform="translate(-777.411 -806.677)" fill="#222829"/></g><path d="M36.711,0A36.711,36.711,0,1,1,0,36.711,36.711,36.711,0,0,1,36.711,0Z" transform="translate(298.66 541.804)" fill="#4482f5"/><g transform="translate(308.596 646.114)"><path d="M511.865,274.978a.8.8,0,0,1-.795-.795c0-14.833-11.267-26.9-25.116-26.9s-25.115,12.068-25.115,26.9a.795.795,0,0,1-1.59,0c0-15.709,11.98-28.49,26.705-28.49s26.705,12.781,26.705,28.49A.8.8,0,0,1,511.865,274.978Z" transform="translate(-459.25 -236.033)" fill="#1366ff"/><path d="M502.8,275.474h-3.259a.8.8,0,0,1-.795-.795V258.545a.795.795,0,1,1,1.59,0v15.339H502.8a.795.795,0,0,1,0,1.59Z" transform="translate(-473.635 -240.424)" fill="#1366ff"/><g transform="translate(12.069 25.394)"><path d="M480.895,275.763a2.663,2.663,0,1,1,2.662-2.663A2.666,2.666,0,0,1,480.895,275.763Zm0-3.736a1.073,1.073,0,1,0,1.073,1.073A1.074,1.074,0,0,0,480.895,272.028Z" transform="translate(-478.232 -270.438)" fill="#1366ff"/><path d="M516.041,275.763A2.663,2.663,0,1,1,518.7,273.1,2.666,2.666,0,0,1,516.041,275.763Zm0-3.736a1.073,1.073,0,1,0,1.073,1.073A1.074,1.074,0,0,0,516.041,272.028Z" transform="translate(-491.031 -270.438)" fill="#1366ff"/></g><g transform="translate(8.359)"><path d="M476,249.448a.794.794,0,0,1-.795-.795V236.92a.795.795,0,0,1,1.59,0v11.733A.8.8,0,0,1,476,249.448Z" transform="translate(-473.421 -232.548)" fill="#1366ff"/><path d="M474.98,235.666a2.583,2.583,0,1,1,2.583-2.583A2.586,2.586,0,0,1,474.98,235.666Zm0-3.577a.993.993,0,1,0,.993.994A1,1,0,0,0,474.98,232.09Z" transform="translate(-472.397 -230.5)" fill="#1366ff"/><path d="M525.586,249.448a.8.8,0,0,1-.795-.795V236.92a.795.795,0,0,1,1.59,0v11.733A.8.8,0,0,1,525.586,249.448Z" transform="translate(-491.477 -232.548)" fill="#1366ff"/><path d="M524.561,235.666a2.583,2.583,0,1,1,2.583-2.583A2.586,2.586,0,0,1,524.561,235.666Zm0-3.577a.993.993,0,1,0,.993.994A1,1,0,0,0,524.561,232.09Z" transform="translate(-490.453 -230.5)" fill="#1366ff"/></g></g><g transform="translate(312.76 558.201)"><g transform="translate(17.786 20.522)"><path d="M754.261,477.363a.683.683,0,0,1-.4-.127l-9.577-6.841a.684.684,0,0,1-.287-.557V450.684a.684.684,0,0,1,.925-.64l5.059,1.9,1.741-1.74a.681.681,0,0,1,.484-.2h4.1a.682.682,0,0,1,.484.2l1.741,1.74,5.059-1.9a.684.684,0,0,1,.925.64v19.154a.684.684,0,0,1-.287.557l-9.577,6.841A.683.683,0,0,1,754.261,477.363Zm-8.893-7.877,8.893,6.352,8.893-6.352V451.671l-4.548,1.705a.687.687,0,0,1-.724-.157l-1.852-1.852h-3.538l-1.852,1.852a.686.686,0,0,1-.724.157l-4.548-1.705Z" transform="translate(-744 -450)" fill="#fff"/><g transform="translate(5.473 2.736)"><rect width="1.368" height="2.736" fill="#fff"/></g><g transform="translate(13.681 2.736)"><rect width="1.368" height="2.736" fill="#fff"/></g><g transform="translate(7.041 11.146)"><path d="M756.829,470.881a.682.682,0,0,1-.484-.2l-2.052-2.052.967-.967,1.569,1.569,2.937-2.937.967.967-3.42,3.42A.682.682,0,0,1,756.829,470.881Z" transform="translate(-754.293 -466.293)" fill="#fff"/></g><g transform="translate(4.104 6.841)"><path d="M756.157,472.313a6.157,6.157,0,1,1,6.157-6.157A6.164,6.164,0,0,1,756.157,472.313Zm0-10.945a4.788,4.788,0,1,0,4.789,4.789A4.794,4.794,0,0,0,756.157,461.368Z" transform="translate(-750 -460)" fill="#fff"/></g></g><g transform="translate(2.736 35.572)"><rect width="13.681" height="1.368" fill="#fff"/></g><path d="M761.1,456.94h-3.42v-1.368h2.736V428.209h-36.94V454.1a2.806,2.806,0,0,1-2.164,2.785A2.741,2.741,0,0,1,718,454.2v-33.52a.684.684,0,0,1,.684-.684H731a.683.683,0,0,1,.484.2l2.536,2.536H758.36a.684.684,0,0,1,.684.684v2.052h-1.368V424.1H733.734a.683.683,0,0,1-.484-.2l-2.536-2.536H719.368v32.774a1.405,1.405,0,0,0,.918,1.357,1.373,1.373,0,0,0,1.818-1.3V427.525a.684.684,0,0,1,.684-.684H761.1a.684.684,0,0,1,.684.684v28.731A.684.684,0,0,1,761.1,456.94Z" transform="translate(-718 -420)" fill="#fff"/><g transform="translate(8.209 10.945)"><path d="M760.783,442.841h-30.1a.684.684,0,0,1-.684-.684v-5.473a.684.684,0,0,1,.684-.684h30.1a.684.684,0,0,1,.684.684v5.473A.684.684,0,0,1,760.783,442.841Zm-29.415-1.368H760.1v-4.1H731.368Z" transform="translate(-730 -436)" fill="#fff"/></g><g transform="translate(10.945 13.681)"><rect width="1.368" height="1.368" fill="#fff"/></g><g transform="translate(13.681 13.681)"><rect width="1.368" height="1.368" fill="#fff"/></g><g transform="translate(16.418 13.681)"><rect width="1.368" height="1.368" fill="#fff"/></g><g transform="translate(19.154 13.681)"><rect width="1.368" height="1.368" fill="#fff"/></g><g transform="translate(21.89 13.681)"><rect width="1.368" height="1.368" fill="#fff"/></g><g transform="translate(24.627 13.681)"><rect width="1.368" height="1.368" fill="#fff"/></g><g transform="translate(27.363 13.681)"><rect width="1.368" height="1.368" fill="#fff"/></g><g transform="translate(8.209 20.522)"><rect width="8.209" height="1.368" fill="#fff"/></g><g transform="translate(8.209 23.258)"><rect width="8.209" height="1.368" fill="#fff"/></g></g></g></svg>