<svg xmlns="http://www.w3.org/2000/svg" viewBox="0 0 140.402 156.998"><defs><style>.a{fill:#d0d4d9;}.b{fill:#1366ff;}.c{fill:none;stroke:#282d33;stroke-width:4px;}.d{fill:#fff;}</style></defs><g transform="translate(0 1.414)"><path class="a" d="M90.355,80.552H104.4a7.689,7.689,0,0,1,7.622,6.766V159a7.619,7.619,0,0,0-7.622-6.766H7.622A7.693,7.693,0,0,1,0,145.384V73.7a7.619,7.619,0,0,0,7.622,6.766H97.977" transform="translate(0 -11.983)"/><path class="b" d="M112.1,165.3h8.393a7.708,7.708,0,0,1,0,15.416H112.1V165.3Z" transform="translate(-16.759 -25.133)"/><path class="b" d="M11.476,136.684H7.622A7.689,7.689,0,0,0,0,143.45V71.766A7.619,7.619,0,0,1,7.622,65h3.854Z" transform="translate(0 -10.734)"/><g transform="translate(35.287 0)"><g transform="translate(0 32.545)"><line class="c" y1="3.426" x2="3.34" transform="translate(5.995 19.27)"/><line class="c" y1="1.285" x2="4.71" transform="translate(0 10.877)"/><line class="c" x2="4.625" y2="1.285" transform="translate(0.171)"/><line class="c" x1="1.199" y1="4.625" transform="translate(27.235 24.323)"/><line class="c" y1="4.625" x2="1.199" transform="translate(16.358 24.152)"/></g><g transform="translate(12.975 36.056)"><path class="d" d="M59.448,43.5a7.446,7.446,0,0,0,.171,10.534h0a7.523,7.523,0,0,0,10.534-.086" transform="translate(-57.349 -43.5)"/></g><line class="c" x1="7.965" y1="7.965" transform="translate(55.069)"/><line class="c" x1="11.733" y1="11.819" transform="translate(49.759 1.542)"/><path class="c" d="M80.9,15.306,91.691,4.6l15.073,15.073-4.025,3.94" transform="translate(-47.756 -1.859)"/><path class="c" d="M46.6,27.206,76.747,16.5,91.478,31.231,80.6,61.121Z" transform="translate(-42.832 -3.568)"/><g transform="translate(61.15 30.746)"><line class="c" x1="20.041" y2="25.693" transform="translate(10.791 31.603)"/><line class="c" x2="29.633" y2="22.61"/></g><path class="c" d="M144.283,139.209l-22.61-5.909H110.8l-22.7,6v4.454h56.183v-4.539Z" transform="translate(-48.789 -20.335)"/><g transform="translate(89.755 50.445)"><path class="c" d="M160.361,66.98a6.68,6.68,0,1,1-6.68-6.68A6.689,6.689,0,0,1,160.361,66.98Z" transform="translate(-147 -60.3)"/></g><g transform="translate(49.074 21.582)"><path class="c" d="M112.861,33.28a6.68,6.68,0,1,1-6.68-6.68A6.689,6.689,0,0,1,112.861,33.28Z" transform="translate(-99.5 -26.6)"/></g><path class="c" d="M111.5,131.678V122.6h15.673v9.078" transform="translate(-52.148 -18.799)"/><path class="c" d="M126.461,108.78a6.68,6.68,0,1,1-6.68-6.68A6.689,6.689,0,0,1,126.461,108.78Z" transform="translate(-52.378 -15.856)"/></g><g transform="translate(20.799 83.198)"><line class="c" x2="20.882" transform="translate(0.39)"/><line class="c" x2="49.634" transform="translate(0 9.039)"/><line class="c" x2="49.634" transform="translate(0 18.155)"/><line class="c" x2="49.634" transform="translate(0 27.194)"/><line class="c" x2="32.102" transform="translate(0 36.31)"/></g></g></svg>