<svg xmlns="http://www.w3.org/2000/svg" viewBox="0 0 137.231 137.231"><defs><style>.a{fill:#1366ff;}.b,.d{fill:none;stroke:#282d33;stroke-width:4px;}.b{stroke-miterlimit:10;}.c{fill:#fff;}</style></defs><g transform="translate(2 2)"><rect class="a" width="66.558" height="66.558" transform="translate(66.673 0)"/><g transform="translate(0 0)"><rect class="b" width="66.558" height="66.558"/><rect class="b" width="66.558" height="66.558" transform="translate(66.673)"/><g transform="translate(17.066 17.066)"><line class="b" y1="11.946" transform="translate(5.12 9.813)"/><line class="b" x1="11.093" transform="translate(10.666 27.306)"/><line class="b" y2="11.093" transform="translate(27.306 10.666)"/><line class="b" x2="11.946" transform="translate(9.813 5.12)"/><rect class="b" width="10.24" height="10.24"/><rect class="b" width="10.24" height="10.24" transform="translate(22.186)"/><rect class="b" width="10.24" height="10.24" transform="translate(0 22.186)"/><rect class="b" width="10.24" height="10.24" transform="translate(22.186 22.186)"/></g><g transform="translate(0 66.673)"><rect class="c" width="15.36" height="15.36" transform="translate(85.252 17.394)"/><rect class="b" width="66.558" height="66.558" transform="translate(66.673)"/><rect class="b" width="66.558" height="66.558"/><g transform="translate(84.166 16.64)"><rect class="b" width="31.572" height="32.426" transform="translate(0.427 0.427)"/><line class="b" y2="32.426" transform="translate(16.64)"/><line class="b" x1="32.426" transform="translate(0 16.64)"/></g><g transform="translate(13.456 14.08)"><path class="d" d="M14.49,113.294l-1.249,1.3L3,117.59l3-10.241L7.3,106.1" transform="translate(-3 -78.658)"/><path class="d" d="M34.766,43.954,10.6,68.116l7.194,7.244L41.745,51.415" transform="translate(-6.803 -40.224)"/><line class="d" x1="23.698" y2="23.739" transform="translate(7.743 7.4)"/><path class="d" d="M107.8,5.884l3.647-3.647a.816.816,0,0,1,1.2,0l6.095,6.095a.816.816,0,0,1,0,1.2l-3.647,3.647Z" transform="translate(-80.021 -1.975)"/><path class="d" d="M5,120.3a13.35,13.35,0,0,1,1.8,1.549,15.859,15.859,0,0,1,1.5,1.7" transform="translate(-4.001 -85.764)"/></g></g></g><path class="c" d="M41.526,24.01V18.2l-5.21-.453a16.036,16.036,0,0,0-2.039-5.285l3.473-4.077L33.6,4.228l-4,3.322a16.078,16.078,0,0,0-5.21-2.265L24.01,0H18.2l-.453,5.21a16.036,16.036,0,0,0-5.285,2.039L8.381,3.775,4.228,7.928l3.322,4a16.078,16.078,0,0,0-2.265,5.21L0,17.441v5.814l5.21.453a16.036,16.036,0,0,0,2.039,5.285L3.775,33.07l4.153,4.153L11.854,33.9a16.078,16.078,0,0,0,5.21,2.265l.453,5.361H23.33l.453-5.21a16.036,16.036,0,0,0,5.285-2.039l4.077,3.473L37.3,33.6l-3.322-4a16.078,16.078,0,0,0,2.265-5.21ZM20.763,28.464a7.7,7.7,0,1,1,7.7-7.7A7.734,7.734,0,0,1,20.763,28.464Z" transform="translate(80.567 12.943)"/></g></svg>