<svg xmlns="http://www.w3.org/2000/svg" width="200" height="143.959" viewBox="0 0 200 143.959"><g transform="translate(-569.048 -39.026)"><g transform="translate(676.961 136.169)"><path d="M819.872,252.159v-5.1h-4.041a15.2,15.2,0,0,0-2.617-6.312l2.859-2.858-3.607-3.607-2.859,2.858a15.213,15.213,0,0,0-6.312-2.617v-4.041h-5.1v4.041a15.213,15.213,0,0,0-6.312,2.617l-2.858-2.858-3.607,3.606,2.859,2.859a15.221,15.221,0,0,0-2.617,6.312h-4.041v5.1h4.041a15.215,15.215,0,0,0,2.617,6.312l-2.859,2.859,3.607,3.607,2.858-2.858a15.213,15.213,0,0,0,6.313,2.617v4.041h5.1v-4.041a15.213,15.213,0,0,0,6.313-2.617l2.859,2.858,3.607-3.607-2.859-2.859a15.2,15.2,0,0,0,2.617-6.312Zm-19.127,7.736a10.286,10.286,0,1,1,10.286-10.286A10.286,10.286,0,0,1,800.745,259.895Z" transform="translate(-781.108 -229.971)" fill="#d8d8d8"/><path d="M803.316,268.756h-6.121V264.63a15.861,15.861,0,0,1-5.743-2.38l-2.918,2.918-4.328-4.328,2.919-2.919a15.856,15.856,0,0,1-2.38-5.743h-4.126v-6.121h4.126a15.857,15.857,0,0,1,2.38-5.743l-2.919-2.919,4.328-4.327,2.918,2.918a15.854,15.854,0,0,1,5.743-2.38v-4.126h6.121v4.126a15.854,15.854,0,0,1,5.743,2.38l2.919-2.918L816.3,237.4l-2.919,2.919a15.848,15.848,0,0,1,2.381,5.742h4.126v6.121h-4.126a15.847,15.847,0,0,1-2.381,5.743l2.919,2.919-4.328,4.328-2.919-2.918a15.861,15.861,0,0,1-5.743,2.38Zm-5.1-1.02h4.08v-3.963l.426-.071a14.6,14.6,0,0,0,6.1-2.529l.351-.25,2.8,2.8,2.885-2.885-2.8-2.8.25-.351a14.606,14.606,0,0,0,2.529-6.1l.072-.426h3.962v-4.08H814.91l-.072-.425a14.611,14.611,0,0,0-2.529-6.1l-.25-.351,2.8-2.8-2.885-2.885-2.8,2.8-.351-.25a14.6,14.6,0,0,0-6.1-2.529l-.426-.071V230.5h-4.08v3.963l-.426.071a14.6,14.6,0,0,0-6.1,2.529l-.352.25-2.8-2.8-2.886,2.885,2.8,2.8-.251.351a14.616,14.616,0,0,0-2.529,6.1l-.071.425h-3.963v4.08H785.6l.071.426a14.608,14.608,0,0,0,2.529,6.1l.251.351-2.8,2.8,2.886,2.885,2.8-2.8.352.25a14.6,14.6,0,0,0,6.1,2.529l.426.071Zm2.04-7.821a10.8,10.8,0,1,1,10.8-10.8A10.808,10.808,0,0,1,800.255,259.915Zm0-20.572a9.776,9.776,0,1,0,9.776,9.776A9.787,9.787,0,0,0,800.255,239.342Z" transform="translate(-780.618 -229.481)" fill="none"/></g><g transform="translate(611.057 147.603)"><g transform="translate(4.392 12.027)"><path d="M668.417,284.671a4.58,4.58,0,0,0-2.82-8.194,4.536,4.536,0,0,0-2.81.967,4.58,4.58,0,0,0,2.819,8.193A4.537,4.537,0,0,0,668.417,284.671Z" transform="translate(-660.512 -275.967)" fill="#fae173"/><path d="M665.115,285.657a5.086,5.086,0,1,1,3.124-1.074A5.062,5.062,0,0,1,665.115,285.657Zm-.009-9.16a4.067,4.067,0,1,0,3.216,1.569A4.029,4.029,0,0,0,665.107,276.5Z" transform="translate(-660.022 -275.477)" fill="#fff"/></g><g transform="translate(110.236 5.728)"><path d="M883.033,270.458a7.28,7.28,0,1,0-7.229,8.232,7.444,7.444,0,0,0,.962-.063A7.289,7.289,0,0,0,883.033,270.458Z" transform="translate(-868.024 -263.618)" fill="#fae173"/><path d="M875.314,278.71a7.8,7.8,0,1,1,1.029-.068A7.9,7.9,0,0,1,875.314,278.71Zm.021-14.562a6.926,6.926,0,0,0-.9.059,6.771,6.771,0,0,0,.874,13.483,6.934,6.934,0,0,0,.9-.059,6.771,6.771,0,0,0-.874-13.483Z" transform="translate(-867.534 -263.128)" fill="#2d2d2d"/></g><g transform="translate(104.508)"><path d="M880.194,265.959l3.126-.412-.334-2.528-3.126.412a9.8,9.8,0,0,0-2.552-4.41l1.922-2.506-2.023-1.552-1.92,2.5a9.744,9.744,0,0,0-4.9-1.33h-.02l-.411-3.116-2.528.333.412,3.126a9.767,9.767,0,0,0-4.41,2.552l-2.5-1.922-1.552,2.023,2.5,1.922a9.772,9.772,0,0,0-1.323,4.921l-3.126.412.333,2.528,3.126-.412a9.812,9.812,0,0,0,2.552,4.41l-1.922,2.505,2.023,1.553,1.92-2.5a9.738,9.738,0,0,0,4.9,1.33h.02l.411,3.116,2.528-.334-.412-3.126a9.767,9.767,0,0,0,4.411-2.552l2.5,1.922,1.552-2.023-2.5-1.922A9.771,9.771,0,0,0,880.194,265.959Zm-8.87,7.225a7.426,7.426,0,0,1-.962.063,7.286,7.286,0,1,1,.962-.063Z" transform="translate(-856.853 -252.448)" fill="#fae173"/><path d="M869.8,278.936l-.42-3.188a10.284,10.284,0,0,1-4.337-1.171l-1.963,2.559-2.833-2.173,1.966-2.563a10.362,10.362,0,0,1-2.247-3.884l-3.2.421-.467-3.54,3.2-.421a10.312,10.312,0,0,1,1.166-4.334l-2.562-1.966,2.173-2.833,2.562,1.966a10.31,10.31,0,0,1,3.885-2.248l-.421-3.2,3.54-.467.42,3.188a10.306,10.306,0,0,1,4.338,1.171l1.963-2.559,2.833,2.173-1.966,2.563a10.359,10.359,0,0,1,2.247,3.884l3.2-.421.467,3.539-3.2.422a10.313,10.313,0,0,1-1.165,4.334l2.562,1.966-2.173,2.832-2.562-1.966a10.3,10.3,0,0,1-3.885,2.248l.421,3.2Zm-5.026-5.684.388.225a9.266,9.266,0,0,0,4.648,1.261h.447l.078.443.344,2.61,1.517-.2-.4-3.063.433-.116a9.287,9.287,0,0,0,4.18-2.419l.316-.317,2.456,1.884.931-1.214-2.455-1.884.224-.388a9.285,9.285,0,0,0,1.254-4.664v-.448l3.064-.4-.2-1.517-3.064.4-.116-.432a9.319,9.319,0,0,0-2.419-4.181l-.317-.316,1.884-2.456-1.213-.931-1.883,2.454-.388-.225a9.27,9.27,0,0,0-4.648-1.261h-.447l-.078-.443-.344-2.61-1.517.2.4,3.064-.433.116a9.283,9.283,0,0,0-4.18,2.419l-.316.318-2.456-1.884-.931,1.214,2.455,1.884-.224.388a9.285,9.285,0,0,0-1.254,4.664v.447l-3.064.4.2,1.517,3.064-.4.116.432A9.327,9.327,0,0,0,863.247,272l.317.316-1.884,2.455,1.214.932Zm5.035-.044a7.8,7.8,0,1,1,1.029-.068A7.9,7.9,0,0,1,869.812,273.208Zm.021-14.562a6.919,6.919,0,0,0-.9.059,6.771,6.771,0,0,0,.874,13.483,6.939,6.939,0,0,0,.9-.059,6.771,6.771,0,0,0-.874-13.483Z" transform="translate(-856.303 -251.898)" fill="#2d2d2d"/></g><g transform="translate(0 7.635)"><path d="M667.753,273.594l1.43-1.114-1.567-2.012-1.433,1.117a7.052,7.052,0,0,0-2.614-1.487l.223-1.8-2.53-.315-.223,1.8a7.022,7.022,0,0,0-2.9.8l-1.11-1.426-2.013,1.567,1.114,1.43a7.088,7.088,0,0,0-1.485,2.617l-1.8-.224-.315,2.531,1.8.224a7.078,7.078,0,0,0,.8,2.9l-1.43,1.114,1.568,2.012,1.433-1.117a7.051,7.051,0,0,0,2.614,1.487l-.223,1.8,2.53.315.224-1.8a7.036,7.036,0,0,0,2.9-.8l1.111,1.426,2.013-1.567-1.114-1.43a7.083,7.083,0,0,0,1.485-2.617l1.8.224.315-2.531-1.8-.224A7.087,7.087,0,0,0,667.753,273.594Zm-9.928,6.116a4.585,4.585,0,0,1,.8-6.428,4.581,4.581,0,0,1,6.429.8,4.585,4.585,0,0,1-.8,6.428,4.582,4.582,0,0,1-6.429-.8Z" transform="translate(-651.957 -267.414)" fill="#fae173"/><path d="M661.512,285.831l-3.543-.44.235-1.9a7.487,7.487,0,0,1-2.07-1.178l-1.508,1.175-2.194-2.817,1.506-1.173a7.53,7.53,0,0,1-.634-2.3l-1.894-.236.441-3.543,1.894.236a7.521,7.521,0,0,1,1.177-2.072l-1.173-1.506,2.818-2.194,1.169,1.5a7.5,7.5,0,0,1,2.3-.63l.235-1.893,3.542.441-.235,1.895a7.51,7.51,0,0,1,2.07,1.178l1.509-1.175,2.194,2.817-1.506,1.173a7.532,7.532,0,0,1,.633,2.3l1.895.236-.441,3.543-1.894-.235a7.526,7.526,0,0,1-1.177,2.072l1.173,1.506-2.818,2.194-1.17-1.5a7.48,7.48,0,0,1-2.3.631Zm-2.4-1.327,1.518.189.213-1.715.426-.023a6.507,6.507,0,0,0,2.695-.739l.377-.2,1.06,1.36,1.207-.94-1.062-1.364.284-.317a6.54,6.54,0,0,0,1.378-2.428l.127-.407,1.716.213.189-1.518-1.715-.213-.023-.425a6.542,6.542,0,0,0-.742-2.692l-.2-.377,1.364-1.062-.94-1.207-1.367,1.065-.318-.285a6.512,6.512,0,0,0-2.425-1.38l-.407-.127.214-1.717-1.518-.189-.213,1.715-.426.023a6.5,6.5,0,0,0-2.694.739l-.378.2-1.06-1.36-1.207.94,1.062,1.364-.284.317a6.547,6.547,0,0,0-1.378,2.429l-.127.407-1.715-.214-.189,1.518,1.716.214.023.426a6.537,6.537,0,0,0,.742,2.692l.2.377-1.363,1.062.939,1.207L656.171,281l.318.285a6.5,6.5,0,0,0,2.425,1.38l.407.127Zm1.789-3.064a5.086,5.086,0,1,1,3.124-1.074A5.062,5.062,0,0,1,660.9,281.439Zm-.009-9.16a4.067,4.067,0,1,0,3.216,1.57A4.03,4.03,0,0,0,660.887,272.279Z" transform="translate(-651.41 -266.867)" fill="none"/></g></g><g transform="translate(748.054 70.126)"><circle cx="5.101" cy="5.101" r="5.101" transform="translate(0)" fill="#d8d8d8"/></g><g transform="translate(629.282 142.555)"><g transform="translate(0)"><path d="M714.844,268.393l2.239-3.331-2.639-1.774a11.962,11.962,0,0,0,1.061-5.271l3.122-.613-.773-3.939-3.122.613a11.962,11.962,0,0,0-2.975-4.48l1.774-2.64-3.331-2.239-1.774,2.639a11.978,11.978,0,0,0-5.271-1.062l-.612-3.122-3.939.772.613,3.122a11.974,11.974,0,0,0-4.48,2.975l-2.64-1.774-2.239,3.332,2.64,1.773a11.964,11.964,0,0,0-1.062,5.271l-3.122.612.773,3.939,3.122-.613a11.975,11.975,0,0,0,2.975,4.48l-1.774,2.64,3.331,2.239,1.774-2.64a11.966,11.966,0,0,0,5.271,1.062l.613,3.122,3.939-.772-.612-3.122a11.964,11.964,0,0,0,4.479-2.974Zm-15.888-3.343a8.095,8.095,0,1,1,11.234-2.2A8.094,8.094,0,0,1,698.955,265.05Z" transform="translate(-687.716 -242.576)" fill="#78d2f9"/><path d="M703.421,273.511l-.629-3.206a12.38,12.38,0,0,1-4.666-.94l-1.823,2.71-4.178-2.808,1.822-2.711a12.589,12.589,0,0,1-2.632-3.965l-3.206.629-.969-4.94,3.207-.628a12.571,12.571,0,0,1,.939-4.666l-2.711-1.822,2.808-4.178,2.711,1.822a12.6,12.6,0,0,1,3.965-2.632l-.629-3.207,4.94-.969.628,3.207a12.391,12.391,0,0,1,4.666.939l1.822-2.71,4.178,2.808-1.822,2.711a12.577,12.577,0,0,1,2.632,3.965l3.207-.629.969,4.94-3.207.629a12.587,12.587,0,0,1-.939,4.666l2.71,1.822-2.807,4.178L711.7,266.7a12.575,12.575,0,0,1-3.964,2.632l.628,3.207Zm.208-4.242.6,3.045,2.937-.576-.6-3.045.4-.152a11.537,11.537,0,0,0,4.289-2.848l.3-.313,2.574,1.73,1.67-2.485-2.574-1.73.178-.393a11.372,11.372,0,0,0,1.016-5.047l-.011-.432,3.045-.6-.576-2.938-3.044.6-.152-.4a11.384,11.384,0,0,0-2.848-4.289l-.313-.3,1.73-2.574-2.484-1.67-1.731,2.575-.393-.179a11.4,11.4,0,0,0-5.047-1.017l-.431.012-.6-3.045-2.938.576.6,3.045-.4.152a11.373,11.373,0,0,0-4.289,2.848l-.3.313-2.574-1.73-1.671,2.485,2.574,1.73-.177.393a11.372,11.372,0,0,0-1.017,5.048l.012.431-3.045.6.576,2.937,3.045-.6.152.4a11.386,11.386,0,0,0,2.848,4.29l.313.3-1.731,2.575,2.484,1.669,1.731-2.574.393.178a11.421,11.421,0,0,0,5.047,1.017Zm-.74-2.907a8.606,8.606,0,1,1,7.149-3.806A8.563,8.563,0,0,1,702.889,266.362Zm.015-16.191a7.586,7.586,0,1,0,4.223,1.29A7.58,7.58,0,0,0,702.9,250.171Z" transform="translate(-687.141 -242.001)" fill="none"/></g></g><g transform="translate(753.128 47.147)"><path d="M935.075,65.2c-.13,0-.257,0-.383-.014a.509.509,0,0,1-.471-.546.5.5,0,0,1,.546-.471,4.069,4.069,0,0,0,.454.009.524.524,0,0,1,.528.491.51.51,0,0,1-.491.528C935.2,65.2,935.135,65.2,935.075,65.2Zm2.968-1.08a.51.51,0,0,1-.328-.9,4.317,4.317,0,0,0,.331-.311.51.51,0,1,1,.737.7,4.984,4.984,0,0,1-.412.387A.507.507,0,0,1,938.043,64.122ZM931.97,64a.509.509,0,0,1-.343-.133,5.146,5.146,0,0,1-.4-.4.51.51,0,0,1,.765-.675,4.042,4.042,0,0,0,.318.323.511.511,0,0,1-.343.888Zm7.7-2.958-.051,0a.51.51,0,0,1-.457-.557c.013-.136.02-.273.021-.412a4.163,4.163,0,0,0-.025-.452.51.51,0,0,1,1.014-.112,5.179,5.179,0,0,1,.031.565c0,.173-.009.343-.026.511A.51.51,0,0,1,939.67,61.045Zm-9.2-.182a.509.509,0,0,1-.508-.48c-.006-.1-.01-.205-.01-.309,0-.084,0-.171.006-.257a.51.51,0,1,1,1.019.053c0,.066-.006.134-.005.2,0,.087,0,.17.008.252a.509.509,0,0,1-.479.539Zm1.115-3.3a.51.51,0,0,1-.385-.844,5.182,5.182,0,0,1,.392-.408.51.51,0,0,1,.694.748,4.215,4.215,0,0,0-.315.326A.508.508,0,0,1,931.58,57.567Zm6.8-.206a.508.508,0,0,1-.365-.154,4.162,4.162,0,0,0-.335-.307.51.51,0,0,1,.648-.788,5.3,5.3,0,0,1,.417.383.51.51,0,0,1-.365.867Zm-3.7-1.377a.51.51,0,0,1-.042-1.019c.144-.012.29-.018.437-.018l.129,0a.51.51,0,1,1-.027,1.02h-.1c-.121,0-.239.005-.355.015Z" transform="translate(-929.947 -54.947)"/></g><g transform="translate(716.49 48.764)"><path d="M860.038,59.078a.96.96,0,1,1-.96-.96A.961.961,0,0,1,860.038,59.078Z" transform="translate(-858.117 -58.118)" fill="#7ad7ff"/></g><g transform="translate(574.125 176.594)"><path d="M763,315.127H584.882A5.888,5.888,0,0,1,579,309.245v-.51H768.878v.51A5.888,5.888,0,0,1,763,315.127Zm-182.949-5.371a4.869,4.869,0,0,0,4.835,4.351H763a4.869,4.869,0,0,0,4.835-4.351Z" transform="translate(-579.001 -308.735)"/></g><g transform="translate(579.225 74.581)"><path d="M768.258,211.767H589V118.879a10.156,10.156,0,0,1,10.145-10.145H758.113a10.156,10.156,0,0,1,10.145,10.145Zm-178.238-1.02H767.238V118.879a9.135,9.135,0,0,0-9.125-9.124H599.145a9.135,9.135,0,0,0-9.125,9.124Z" transform="translate(-589 -108.734)"/></g><g transform="translate(617.481 39.026)"><g transform="translate(41.907 127.157)"><path d="M746.958,289.774a.51.51,0,0,1-.44-.25l-.088-.151-.173-.248a.51.51,0,0,1,.835-.585h.031l.273.463a.51.51,0,0,1-.179.7A.5.5,0,0,1,746.958,289.774Z" transform="translate(-746.166 -288.325)"/></g><g transform="translate(44.078 129.915)"><path d="M757.768,297.438h0c-.174,0-.35-.007-.525-.017a.51.51,0,0,1,.058-1.019c.159.009.317.014.476.015a.51.51,0,0,1,0,1.02Zm2.967-.409a.51.51,0,0,1-.143-1q.228-.067.454-.144a.51.51,0,1,1,.332.964q-.249.086-.5.159A.5.5,0,0,1,760.735,297.029Zm-6.4-.21a.51.51,0,0,1-.174-.031q-.247-.09-.49-.192a.51.51,0,0,1,.4-.941q.22.093.443.174a.51.51,0,0,1-.174.99Zm9.536-1.323a.51.51,0,0,1-.3-.923q.192-.139.379-.289a.51.51,0,0,1,.638.8c-.137.11-.277.216-.418.318A.511.511,0,0,1,763.87,295.5Zm-12.563-.415a.507.507,0,0,1-.325-.118q-.2-.167-.4-.345a.51.51,0,0,1,.689-.753q.176.161.359.313a.51.51,0,0,1-.326.9Z" transform="translate(-750.42 -293.731)"/></g><g transform="translate(59.462 127.736)"><path d="M781.091,290.9a.5.5,0,0,1-.288-.09.51.51,0,0,1-.132-.71c.046-.067.091-.134.135-.2l.156-.223a.51.51,0,0,1,.837.584l-.287.419A.51.51,0,0,1,781.091,290.9Z" transform="translate(-780.582 -289.459)"/></g><path d="M726,165.277a.51.51,0,0,1-.419-.8l.29-.417a.51.51,0,1,1,.838.582l-.29.417A.51.51,0,0,1,726,165.277Zm-21.344-.6a.509.509,0,0,1-.419-.218l-.291-.418a.51.51,0,0,1,.838-.583l.29.417a.51.51,0,0,1-.418.8Zm23.375-2.318a.51.51,0,0,1-.418-.8l.29-.418a.51.51,0,0,1,.838.582l-.29.417A.509.509,0,0,1,728.035,162.354Zm-25.408-.6a.51.51,0,0,1-.419-.218l-.29-.418a.51.51,0,0,1,.838-.583l.291.417a.51.51,0,0,1-.419.8Zm27.439-2.32a.51.51,0,0,1-.418-.8l.29-.418a.51.51,0,0,1,.838.581l-.29.418A.51.51,0,0,1,730.066,159.432Zm-29.471-.6a.509.509,0,0,1-.419-.219l-.29-.417a.51.51,0,0,1,.838-.582l.29.417a.51.51,0,0,1-.418.8Zm31.5-2.321a.51.51,0,0,1-.418-.8l.29-.418a.51.51,0,1,1,.837.583l-.29.418A.51.51,0,0,1,732.1,156.509Zm-33.534-.6a.509.509,0,0,1-.419-.219l-.29-.417a.51.51,0,1,1,.837-.582l.29.417a.51.51,0,0,1-.418.8Zm35.565-2.323a.51.51,0,0,1-.418-.8l.29-.418a.51.51,0,0,1,.838.582l-.29.418A.511.511,0,0,1,734.127,153.586Zm-37.6-.6a.509.509,0,0,1-.419-.219l-.29-.417a.51.51,0,1,1,.836-.582l.291.417a.51.51,0,0,1-.418.8Zm39.63-2.324a.51.51,0,0,1-.419-.8l.29-.418a.51.51,0,0,1,.838.581l-.29.418A.51.51,0,0,1,736.158,150.664Zm-41.662-.6a.51.51,0,0,1-.419-.219l-.29-.418a.51.51,0,0,1,.838-.582l.29.417a.511.511,0,0,1-.418.8Zm43.693-2.326a.51.51,0,0,1-.418-.8l.29-.418a.51.51,0,0,1,.838.581l-.29.418A.509.509,0,0,1,738.189,147.741Zm-45.725-.595a.511.511,0,0,1-.42-.219l-.29-.418a.51.51,0,0,1,.838-.582l.29.417a.511.511,0,0,1-.418.8Zm47.757-2.328a.51.51,0,0,1-.419-.8l.29-.418a.51.51,0,1,1,.838.582l-.29.417A.509.509,0,0,1,740.22,144.818Zm-49.79-.594a.509.509,0,0,1-.419-.218l-.29-.418a.51.51,0,0,1,.837-.582l.291.417a.51.51,0,0,1-.419.8ZM742.25,141.9a.51.51,0,0,1-.418-.8l.29-.418a.51.51,0,0,1,.838.581l-.29.418A.508.508,0,0,1,742.25,141.9ZM688.4,141.3a.509.509,0,0,1-.419-.218l-.291-.417a.51.51,0,1,1,.837-.583l.29.417a.51.51,0,0,1-.418.8Zm55.884-2.331a.51.51,0,0,1-.419-.8l.291-.417a.51.51,0,1,1,.838.582l-.29.418A.51.51,0,0,1,744.281,138.973Zm-57.916-.59a.509.509,0,0,1-.419-.218l-.29-.417a.51.51,0,0,1,.837-.583l.29.417a.51.51,0,0,1-.418.8Zm59.947-2.332a.5.5,0,0,1-.291-.092.51.51,0,0,1-.128-.71l.29-.417a.51.51,0,0,1,.838.583l-.291.417A.51.51,0,0,1,746.311,136.051Zm-61.981-.589a.51.51,0,0,1-.419-.219l-.29-.417a.51.51,0,0,1,.838-.583l.291.418a.51.51,0,0,1-.419.8Zm64.011-2.334a.51.51,0,0,1-.418-.8l.29-.417a.51.51,0,1,1,.838.582l-.29.417A.51.51,0,0,1,748.342,133.128Zm-66.043-.587a.51.51,0,0,1-.419-.219l-.291-.417a.51.51,0,1,1,.838-.583l.29.417a.51.51,0,0,1-.418.8Zm68.075-2.336a.51.51,0,0,1-.418-.8l.29-.417a.51.51,0,0,1,.838.582l-.29.417A.509.509,0,0,1,750.373,130.205Zm-70.107-.586a.51.51,0,0,1-.419-.219l-.29-.417a.51.51,0,1,1,.837-.582l.29.417a.51.51,0,0,1-.127.71A.5.5,0,0,1,680.266,129.62Zm72.138-2.337a.51.51,0,0,1-.418-.8l.29-.417a.51.51,0,0,1,.838.582l-.29.417A.51.51,0,0,1,752.4,127.283Zm-74.171-.584a.509.509,0,0,1-.419-.219l-.29-.417a.51.51,0,0,1,.837-.583l.291.417a.51.51,0,0,1-.418.8Zm76.2-2.339a.5.5,0,0,1-.291-.092.51.51,0,0,1-.128-.71l.29-.417a.51.51,0,0,1,.838.583l-.29.417A.51.51,0,0,1,754.434,124.36Zm-78.234-.582a.509.509,0,0,1-.419-.219l-.291-.417a.51.51,0,0,1,.838-.583l.29.418a.51.51,0,0,1-.418.8Zm80.274-2.335a.51.51,0,0,1-.409-.815c.1-.135.2-.27.3-.405a.51.51,0,1,1,.826.6c-.1.139-.2.277-.306.415A.509.509,0,0,1,756.474,121.442Zm-82.33-.57a.509.509,0,0,1-.414-.211l-.3-.417a.51.51,0,0,1,.833-.589l.292.409a.509.509,0,0,1-.413.808Zm84.355-2.36a.509.509,0,0,1-.429-.785l.27-.426a.51.51,0,1,1,.864.542l-.275.434A.507.507,0,0,1,758.5,118.513Zm-86.336-.592a.51.51,0,0,1-.435-.242l-.267-.436a.51.51,0,1,1,.872-.529l.264.428a.511.511,0,0,1-.433.779Zm88.149-2.471a.51.51,0,0,1-.447-.754l.239-.444a.51.51,0,0,1,.9.48l-.244.452A.509.509,0,0,1,760.312,115.45Zm-89.918-.614a.511.511,0,0,1-.451-.271q-.12-.227-.237-.455a.51.51,0,0,1,.907-.466c.076.148.154.3.232.445a.51.51,0,0,1-.45.748Zm91.512-2.569a.51.51,0,0,1-.463-.723q.1-.229.207-.459a.51.51,0,1,1,.932.414q-.1.235-.212.469A.51.51,0,0,1,761.906,112.267Zm-93.061-.631a.51.51,0,0,1-.467-.3l-.2-.47a.51.51,0,0,1,.938-.4l.2.461a.51.51,0,0,1-.261.672A.5.5,0,0,1,668.845,111.636Zm94.428-2.656a.511.511,0,0,1-.477-.69c.059-.157.117-.314.174-.471a.51.51,0,0,1,.959.347c-.059.161-.118.322-.179.483A.51.51,0,0,1,763.273,108.98Zm-95.749-.647a.509.509,0,0,1-.479-.337l-.171-.484a.51.51,0,0,1,.964-.336l.167.474a.51.51,0,0,1-.48.683Zm96.881-2.727a.52.52,0,0,1-.146-.021.51.51,0,0,1-.343-.635l.141-.484a.51.51,0,0,1,.98.282l-.143.493A.512.512,0,0,1,764.406,105.606Zm-97.968-.66a.51.51,0,0,1-.491-.372l-.136-.494a.51.51,0,0,1,.985-.267l.134.486a.51.51,0,0,1-.353.629A.522.522,0,0,1,666.438,104.947Zm98.862-2.785a.511.511,0,0,1-.5-.621l.108-.492a.51.51,0,1,1,1,.213l-.109.5A.51.51,0,0,1,765.3,102.161Zm-99.709-.669a.51.51,0,0,1-.5-.407l-.1-.5a.51.51,0,0,1,1-.2l.1.494a.511.511,0,0,1-.5.614Zm100.361-2.83a.485.485,0,0,1-.077-.006.51.51,0,0,1-.428-.581c.024-.165.048-.332.072-.5a.51.51,0,0,1,1.01.141q-.035.255-.074.509A.509.509,0,0,1,765.951,98.662Zm-100.965-.676a.511.511,0,0,1-.505-.441l-.066-.509a.51.51,0,0,1,1.012-.129l.066.5a.51.51,0,0,1-.437.574A.448.448,0,0,1,664.986,97.986Zm101.372-2.859-.041,0a.51.51,0,0,1-.468-.549l.038-.5a.51.51,0,1,1,1.017.072l-.038.512A.511.511,0,0,1,766.359,95.127Zm-101.731-.68a.511.511,0,0,1-.509-.476c-.011-.171-.022-.342-.031-.513a.51.51,0,0,1,1.018-.057c.01.167.02.335.032.5a.51.51,0,0,1-.475.543Zm101.892-2.874h-.006a.509.509,0,0,1-.5-.516c0-.167,0-.335,0-.5a.51.51,0,0,1,1.02,0q0,.257,0,.514A.51.51,0,0,1,766.519,91.573Zm-102-.682h0a.51.51,0,0,1-.509-.512l0-.513a.51.51,0,0,1,.51-.5h.006a.511.511,0,0,1,.5.516l0,.5A.51.51,0,0,1,664.514,90.891Zm101.918-2.875a.51.51,0,0,1-.509-.48l-.032-.5a.51.51,0,0,1,1.018-.068l.032.512a.509.509,0,0,1-.479.539Zm-101.784-.681-.038,0a.51.51,0,0,1-.471-.546l.039-.512a.51.51,0,0,1,1.017.084l-.039.5A.51.51,0,0,1,664.648,87.335ZM766.1,84.474a.51.51,0,0,1-.505-.446q-.032-.249-.066-.5a.51.51,0,1,1,1.01-.141c.024.17.046.34.068.51a.511.511,0,0,1-.441.571A.474.474,0,0,1,766.1,84.474ZM665.028,83.8a.5.5,0,0,1-.072-.005.51.51,0,0,1-.434-.577l.075-.508a.51.51,0,1,1,1.009.153l-.074.5A.51.51,0,0,1,665.028,83.8Zm100.495-2.833a.509.509,0,0,1-.5-.41l-.1-.493a.51.51,0,1,1,1-.21l.1.5a.51.51,0,0,1-.4.6A.487.487,0,0,1,765.523,80.964Zm-99.871-.67a.518.518,0,0,1-.107-.011.509.509,0,0,1-.392-.6c.035-.168.072-.336.11-.5a.51.51,0,1,1,1,.224c-.037.164-.073.327-.108.491A.51.51,0,0,1,665.652,80.294ZM764.7,77.5a.51.51,0,0,1-.491-.375l-.136-.485a.51.51,0,0,1,.981-.279l.137.493a.51.51,0,0,1-.492.646Zm-98.184-.661a.511.511,0,0,1-.49-.651q.07-.247.145-.494a.51.51,0,0,1,.977.293q-.073.241-.142.483A.51.51,0,0,1,666.519,76.842Zm97.125-2.734a.511.511,0,0,1-.481-.342c-.055-.158-.111-.315-.168-.473a.51.51,0,0,1,.959-.348c.058.161.115.322.172.484a.51.51,0,0,1-.313.649A.5.5,0,0,1,763.644,74.108Zm-96.019-.648a.51.51,0,0,1-.479-.686l.18-.481a.51.51,0,1,1,.954.359l-.175.473A.51.51,0,0,1,667.624,73.46ZM762.349,70.8a.511.511,0,0,1-.468-.308l-.2-.461a.51.51,0,1,1,.932-.414l.206.469a.511.511,0,0,1-.468.713Zm-93.384-.634a.5.5,0,0,1-.208-.045.51.51,0,0,1-.258-.674c.07-.156.142-.313.213-.469a.51.51,0,0,1,.927.428q-.106.228-.209.458A.511.511,0,0,1,668.965,70.162Zm91.861-2.58a.51.51,0,0,1-.453-.275l-.234-.445a.51.51,0,1,1,.9-.477l.238.453a.51.51,0,0,1-.453.745Zm-90.291-.615a.505.505,0,0,1-.241-.061.511.511,0,0,1-.209-.691l.245-.452a.51.51,0,0,1,.895.491l-.24.444A.51.51,0,0,1,670.535,66.967Zm88.546-2.482a.509.509,0,0,1-.436-.244l-.264-.427a.51.51,0,1,1,.865-.54l.27.435a.51.51,0,0,1-.435.776Zm-86.757-.6a.51.51,0,0,1-.431-.781q.136-.218.276-.435a.51.51,0,1,1,.857.553q-.136.211-.27.424A.51.51,0,0,1,672.325,63.89Zm84.8-2.372a.508.508,0,0,1-.416-.215q-.145-.2-.292-.406a.51.51,0,1,1,.824-.6c.1.138.2.277.3.417a.51.51,0,0,1-.416.805Zm-82.8-.573a.51.51,0,0,1-.411-.811c.1-.138.2-.277.308-.415a.51.51,0,1,1,.816.612c-.1.135-.2.27-.3.405A.511.511,0,0,1,674.327,60.945Zm80.636-2.251a.509.509,0,0,1-.394-.186l-.321-.388a.51.51,0,1,1,.781-.655l.328.395a.51.51,0,0,1-.393.834Zm-78.432-.546a.51.51,0,0,1-.389-.839l.334-.392a.51.51,0,1,1,.773.665l-.328.385A.508.508,0,0,1,676.53,58.148Zm76.08-2.121a.508.508,0,0,1-.371-.16l-.347-.364a.51.51,0,0,1,.735-.708l.353.371a.51.51,0,0,1-.37.86Zm-73.687-.518a.51.51,0,0,1-.366-.866l.36-.366a.51.51,0,1,1,.724.718l-.352.36A.51.51,0,0,1,678.923,55.509Zm71.157-1.982a.508.508,0,0,1-.346-.136c-.123-.114-.246-.226-.371-.339a.51.51,0,0,1,.684-.757q.191.172.38.347a.51.51,0,0,1-.346.885Zm-68.592-.483a.51.51,0,0,1-.34-.89l.383-.341a.51.51,0,0,1,.674.766l-.377.335A.507.507,0,0,1,681.488,53.043ZM747.381,51.2a.506.506,0,0,1-.318-.112l-.4-.314a.51.51,0,0,1,.631-.8l.4.32a.51.51,0,0,1-.319.908Zm-63.165-.444a.51.51,0,0,1-.313-.914l.4-.311a.51.51,0,1,1,.62.81l-.4.307A.507.507,0,0,1,684.217,50.76Zm60.311-1.686a.508.508,0,0,1-.29-.091l-.417-.286a.51.51,0,0,1,.573-.844l.424.291a.51.51,0,0,1-.291.929Zm-57.433-.4a.51.51,0,0,1-.284-.933l.425-.283a.51.51,0,0,1,.561.852l-.418.278A.506.506,0,0,1,687.095,48.675Zm54.437-1.524a.507.507,0,0,1-.26-.071q-.217-.129-.435-.255a.51.51,0,1,1,.512-.883q.223.129.444.261a.51.51,0,0,1-.261.949ZM690.113,46.8a.51.51,0,0,1-.255-.952q.222-.128.446-.254a.51.51,0,1,1,.5.89c-.146.082-.291.164-.436.248A.51.51,0,0,1,690.113,46.8Zm48.3-1.354a.507.507,0,0,1-.228-.054l-.452-.224a.51.51,0,0,1,.448-.917l.461.229a.51.51,0,0,1-.229.966Zm-45.153-.309a.51.51,0,0,1-.223-.969c.153-.075.308-.148.463-.222a.51.51,0,0,1,.436.923q-.226.106-.452.216A.5.5,0,0,1,693.255,45.133Zm41.918-1.176a.511.511,0,0,1-.2-.039l-.467-.192a.51.51,0,1,1,.382-.945l.476.195a.51.51,0,0,1-.2.981Zm-38.667-.263a.51.51,0,0,1-.19-.983l.477-.189a.51.51,0,0,1,.37.951l-.467.185A.508.508,0,0,1,696.506,43.695Zm35.335-.991a.5.5,0,0,1-.163-.027l-.478-.159a.51.51,0,1,1,.316-.97q.245.08.488.162a.51.51,0,0,1-.163.994Zm-31.99-.216a.51.51,0,0,1-.156-1l.488-.155a.51.51,0,1,1,.3.974l-.48.152A.506.506,0,0,1,699.851,42.488Zm28.581-.8a.509.509,0,0,1-.129-.017l-.488-.124a.51.51,0,0,1,.247-.99q.25.062.5.127a.51.51,0,0,1-.128,1Zm-25.159-.169a.51.51,0,0,1-.122-1q.25-.062.5-.12a.51.51,0,1,1,.234.993c-.163.039-.326.078-.488.118A.512.512,0,0,1,703.272,41.517Zm21.686-.608a.5.5,0,0,1-.094-.009l-.5-.09a.51.51,0,0,1,.178-1l.505.092a.51.51,0,0,1-.093,1.011Zm-18.205-.121a.51.51,0,0,1-.087-1.013l.505-.085a.51.51,0,0,1,.165,1.007l-.5.084A.511.511,0,0,1,706.754,40.787Zm14.687-.412a.483.483,0,0,1-.06,0l-.5-.056a.51.51,0,0,1,.108-1.015c.17.018.34.037.511.057a.51.51,0,0,1-.059,1.017ZM710.277,40.3a.51.51,0,0,1-.052-1.017l.511-.05a.51.51,0,1,1,.094,1.016l-.5.049A.46.46,0,0,1,710.277,40.3Zm7.616-.213h-.024l-.5-.02a.51.51,0,0,1-.491-.528.5.5,0,0,1,.528-.491l.513.021a.51.51,0,0,1-.023,1.02Zm-4.066-.027a.51.51,0,0,1-.016-1.02l.513-.014h.012a.51.51,0,0,1,.012,1.02l-.5.014Z" transform="translate(-664.004 -39.026)"/></g><g transform="translate(661.412 154.286)"><g transform="translate(2.04 2.04)"><path d="M759.676,280.086a5.543,5.543,0,1,1,5.543-5.543A5.549,5.549,0,0,1,759.676,280.086Zm0-10.065a4.523,4.523,0,1,0,4.523,4.523A4.528,4.528,0,0,0,759.676,270.02Z" transform="translate(-754.133 -269)"/></g><g transform="translate(7.073)"><rect width="1.02" height="2.55"/></g><g transform="translate(7.073 12.616)"><rect width="1.02" height="2.55"/></g><g transform="translate(0 7.073)"><rect width="2.55" height="1.02"/></g><g transform="translate(12.616 7.073)"><rect width="2.55" height="1.02"/></g><g transform="translate(1.86 1.86)"><rect width="1.02" height="2.55" transform="matrix(0.707, -0.707, 0.707, 0.707, 0, 0.721)"/></g><g transform="translate(10.781 10.781)"><rect width="1.02" height="2.55" transform="matrix(0.707, -0.707, 0.707, 0.707, 0, 0.721)"/></g><g transform="translate(1.86 10.781)"><rect width="2.55" height="1.02" transform="translate(0 1.803) rotate(-45)"/></g><g transform="translate(10.781 1.861)"><rect width="2.55" height="1.02" transform="translate(0 1.803) rotate(-45)"/></g></g><g transform="translate(622.255 44.113)"><circle cx="45.905" cy="45.905" r="45.905" transform="translate(0.51 0.51)" fill="#78d2f9"/><path d="M719.778,141.831a46.415,46.415,0,1,1,46.416-46.415A46.468,46.468,0,0,1,719.778,141.831Zm0-91.811a45.4,45.4,0,1,0,45.4,45.4A45.447,45.447,0,0,0,719.778,50.02Z" transform="translate(-673.363 -49)" fill="#2d2d2d"/></g><g transform="translate(569.048 53.89)"><g transform="translate(0 59.08)"><path d="M617.14,203.858l-.02,0c.008-.131.02-.262.02-.4a6.677,6.677,0,0,0-9.382-6.109,12.561,12.561,0,0,0-24.73-2.908c-.135-.007-.269-.02-.407-.02a7.849,7.849,0,0,0-7.534,10.081,3.111,3.111,0,0,0-1.9-.651,3.143,3.143,0,1,0,0,6.286H617.14a3.143,3.143,0,1,0,0-6.286Z" transform="translate(-569.538 -184.487)" fill="#78d2f9"/><path d="M616.65,210.165H572.7a3.653,3.653,0,1,1,0-7.307,3.549,3.549,0,0,1,1.157.192,8.361,8.361,0,0,1,8.273-9.623h.023a13.071,13.071,0,0,1,25.592,2.708,7.125,7.125,0,0,1,2.223-.353,7.2,7.2,0,0,1,7.191,7.11,3.654,3.654,0,0,1-.509,7.271ZM572.7,203.878a2.633,2.633,0,1,0,0,5.266H616.65a2.633,2.633,0,0,0,.029-5.266l-.049,0h-.542l.04-.643c.006-.087.012-.174.012-.263a6.178,6.178,0,0,0-6.171-6.171,6.113,6.113,0,0,0-2.494.529l-.7.311-.013-.769a12.051,12.051,0,0,0-23.725-2.79l-.1.4-.559-.03c-.079-.005-.158-.011-.239-.011a7.34,7.34,0,0,0-7.045,9.427l.44,1.494-1.238-.945A2.6,2.6,0,0,0,572.7,203.878Z" transform="translate(-569.048 -183.997)" fill="none"/></g><g transform="translate(164.599 48.524)"><path d="M921.714,173.862c-.1,0-.2.01-.3.015a10.192,10.192,0,0,0-20.134-1.547A6.373,6.373,0,1,0,899.13,184.7h22.584a5.42,5.42,0,0,0,0-10.841Z" transform="translate(-892.244 -163.79)" fill="#78d2f9"/><path d="M921.224,184.723H898.64a6.886,6.886,0,0,1,0-13.772,6.8,6.8,0,0,1,1.783.24,10.7,10.7,0,0,1,20.968,1.673,5.93,5.93,0,0,1-.167,11.858ZM898.64,171.971a5.866,5.866,0,1,0,0,11.731h22.584a4.91,4.91,0,0,0,0-9.821c-.06,0-.119,0-.178.009l-.6.033-.031-.506a9.682,9.682,0,0,0-19.127-1.469l-.124.569-.547-.2A5.846,5.846,0,0,0,898.64,171.971Z" transform="translate(-891.754 -163.3)" fill="#2d2d2d"/></g><g transform="translate(33.452 0)"><path d="M638.4,74.047c.051,0,.1,0,.153.007a5.2,5.2,0,0,1,10.277-.789,3.253,3.253,0,1,1,1.1,6.315H638.4a2.767,2.767,0,0,1,0-5.533Z" transform="translate(-635.123 -68.657)" fill="#78d2f9"/><path d="M649.437,79.6H637.91a3.277,3.277,0,0,1-.307-6.539,5.712,5.712,0,0,1,11.1-.915,3.708,3.708,0,0,1,.738-.074,3.764,3.764,0,0,1,0,7.528ZM637.91,74.067a2.257,2.257,0,0,0,0,4.513h11.527a2.744,2.744,0,1,0-.925-5.324l-.548.2-.123-.568a4.692,4.692,0,0,0-9.269.712l-.031.506Z" transform="translate(-634.633 -68.167)" fill="#2d2d2d"/></g></g><g transform="translate(727.291 43.902)"><g transform="translate(0)"><path d="M884.394,52.218l-2.19-2.19-2.19,2.19-.721-.721,2.911-2.911,2.911,2.911Z" transform="translate(-879.293 -48.586)"/></g><g transform="translate(2.401 0.721)"><rect width="1.02" height="25.503"/></g></g><g transform="translate(737.493 49.003)"><g transform="translate(0 0)"><path d="M904.394,62.218l-2.19-2.19-2.19,2.19-.721-.721,2.911-2.911,2.911,2.911Z" transform="translate(-899.293 -58.586)"/></g><g transform="translate(2.401 0.721)"><rect width="1.02" height="20.402"/></g></g><g transform="translate(602.327 79.606)"><path d="M639.394,122.218l-2.19-2.19-2.19,2.19-.721-.721,2.911-2.911,2.911,2.911Z" transform="translate(-634.293 -118.586)"/><g transform="translate(2.401 0.721)"><rect width="1.02" height="25.503"/></g></g><g transform="translate(592.126 84.707)"><path d="M619.394,132.218l-2.19-2.19-2.19,2.19-.721-.721,2.911-2.911,2.911,2.911Z" transform="translate(-614.293 -128.586)"/><g transform="translate(2.401 0.721)"><rect width="1.02" height="20.402"/></g></g><g transform="translate(587.386 144.085)"><g transform="translate(2.04 2.04)"><path d="M614.611,260.221a5.611,5.611,0,1,1,5.611-5.611A5.617,5.617,0,0,1,614.611,260.221Zm0-10.2a4.591,4.591,0,1,0,4.59,4.591A4.6,4.6,0,0,0,614.611,250.02Z" transform="translate(-609 -249)"/></g><g transform="translate(7.141)"><rect width="1.02" height="5.101"/></g><g transform="translate(7.141 10.201)"><rect width="1.02" height="5.101"/></g><g transform="translate(0 7.141)"><rect width="5.101" height="1.02"/></g><g transform="translate(10.201 7.141)"><rect width="5.101" height="1.02"/></g></g><g transform="translate(722.041 130.872)"><g transform="translate(0 5.149)"><path d="M872.011,235.214a3.012,3.012,0,1,1,3.012-3.011A3.014,3.014,0,0,1,872.011,235.214Zm0-5A1.992,1.992,0,1,0,874,232.2,1.994,1.994,0,0,0,872.011,230.211Z" transform="translate(-869 -229.191)"/></g><g transform="translate(23.002)"><path d="M917.107,225.119a3.011,3.011,0,1,1,3.011-3.011A3.014,3.014,0,0,1,917.107,225.119Zm0-5a1.991,1.991,0,1,0,1.991,1.991A1.993,1.993,0,0,0,917.107,220.116Z" transform="translate(-914.096 -219.096)"/></g><g transform="translate(40.854 15.302)"><path d="M952.107,255.119a3.011,3.011,0,1,1,3.011-3.011A3.015,3.015,0,0,1,952.107,255.119Zm0-5a1.991,1.991,0,1,0,1.991,1.991A1.993,1.993,0,0,0,952.107,250.116Z" transform="translate(-949.096 -249.096)"/></g><g transform="translate(5.203 2.515)"><rect width="18.668" height="1.02" transform="matrix(0.975, -0.224, 0.224, 0.975, 0, 4.175)"/></g><g transform="translate(28 3.536)"><rect width="1.02" height="18.673" transform="matrix(0.677, -0.736, 0.736, 0.677, 0, 0.751)"/></g></g><g transform="translate(730.838 84.918)"><g transform="translate(0)"><path d="M894.407,135.121h-5.1a3.06,3.06,0,1,1,0-6.121h5.1a3.06,3.06,0,1,1,0,6.121Zm-5.1-5.1a2.04,2.04,0,0,0,0,4.08h5.1a2.04,2.04,0,0,0,0-4.08Z" transform="translate(-886.246 -129)"/></g><g transform="translate(6.505 2.55)"><path d="M907.161,140.121h-5.1a3.06,3.06,0,0,1,0-6.121h5.1a3.06,3.06,0,1,1,0,6.121Zm-5.1-5.1a2.04,2.04,0,0,0,0,4.081h5.1a2.04,2.04,0,0,0,0-4.081Z" transform="translate(-899 -134)"/></g></g><g transform="translate(574.634 59.925)"><circle cx="5.101" cy="5.101" r="5.101" transform="translate(0)" fill="#fadd61"/></g><g transform="translate(592.691 47.379)"><circle cx="2.345" cy="2.345" r="2.345" transform="translate(0)" fill="#7ad7ff"/></g><text transform="translate(654.852 124.015)" fill="#fff" font-size="25" font-family="LineAwesome"><tspan x="0" y="0"></tspan></text><g transform="translate(649.461 57.892)"><g transform="translate(0 0)"><g transform="translate(0 7.187)"><path d="M-49.626,403.578H-64V391h14.374Zm-12.578-1.8h10.781V392.8H-62.2Z" transform="translate(64 -391)" fill="#363f40"/></g><g transform="translate(1.797)"><path d="M-51.219,391.086h-1.8V385.7a.9.9,0,0,0-.9-.9H-59.3a.9.9,0,0,0-.9.9v5.39H-62V385.7a2.7,2.7,0,0,1,2.7-2.7h5.39a2.7,2.7,0,0,1,2.7,2.7Z" transform="translate(62 -383)" fill="#363f40"/></g></g><g transform="translate(14.374 0)"><path d="M-22.845,391.984H-46.2v-1.8h21.562V384.8H-48V383h25.155Z" transform="translate(48 -383)" fill="#363f40"/></g><g transform="translate(16.171 10.781)"><path d="M-22.642,403.984H-46v-1.8h21.562V396.8H-46V395h23.358Z" transform="translate(46 -395)" fill="#363f40"/></g><g transform="translate(17.968 3.594)"><rect width="1.797" height="1.797" fill="#363f40"/></g><g transform="translate(21.562 3.594)"><rect width="1.797" height="1.797" fill="#363f40"/></g><g transform="translate(25.155 3.594)"><rect width="1.797" height="1.797" fill="#363f40"/></g><g transform="translate(28.749 3.594)"><rect width="1.797" height="1.797" fill="#363f40"/></g><g transform="translate(32.342 3.594)"><g transform="translate(0)"><rect width="1.797" height="1.797" fill="#363f40"/></g></g><g transform="translate(17.968 14.374)"><rect width="1.797" height="1.797" fill="#363f40"/></g><g transform="translate(21.562 14.374)"><rect width="1.797" height="1.797" fill="#363f40"/></g><g transform="translate(25.155 14.374)"><rect width="1.797" height="1.797" fill="#363f40"/></g><g transform="translate(28.749 14.374)"><rect width="1.797" height="1.797" fill="#363f40"/></g><g transform="translate(32.342 14.374)"><g transform="translate(0)"><rect width="1.797" height="1.797" fill="#363f40"/></g></g><g transform="translate(6.289 10.781)"><rect width="1.797" height="1.797" fill="#363f40"/></g></g><g transform="translate(657.027 83.811)"><g transform="translate(0 9.803)"><path d="M541.358,772.935l-5.906-5.9,1.5-1.5,4.411,4.409,4.413-4.41,1.5,1.5Z" transform="translate(-535.452 -765.534)" fill="#fff"/></g><g transform="translate(4.85 0)"><rect width="2.116" height="14.307" fill="#fff"/></g></g><g transform="translate(668.789 83.047)"><g transform="translate(0 0)"><path d="M550.7,707.371l-1.5-1.5,5.908-5.9,5.906,5.9-1.5,1.5-4.411-4.41Z" transform="translate(-549.202 -699.97)" fill="#fff"/></g><g transform="translate(4.849 2.898)"><rect width="2.116" height="14.307" fill="#fff"/></g></g></g></svg>