<svg xmlns="http://www.w3.org/2000/svg" width="64" height="64" viewBox="0 0 64 64"><g transform="translate(-480 -250)"><circle cx="21" cy="21" r="21" transform="translate(480 250)" fill="#ffec40"/><path d="M500,289a.994.994,0,0,1-.485-.126l-9-5A1,1,0,0,1,490,283V273a1,1,0,0,1,1.485-.874l9,5A1,1,0,0,1,501,278v10a1,1,0,0,1-1,1Zm-8-6.588,7,3.888v-7.712l-7-3.888Z" fill="#363f40"/><path d="M500.485,288.874l-.97-1.748L508,282.412V274.7l-7.515,4.174-.97-1.748,9-5A1,1,0,0,1,510,273v10a1,1,0,0,1-.515.874Z" fill="#363f40"/><path d="M508.515,273.874,500,269.144l-8.515,4.73-.97-1.748,9-5a1,1,0,0,1,.97,0l9,5Z" fill="#363f40"/><rect width="20" height="2" transform="translate(514 271)" fill="#363f40"/><rect width="20" height="2" transform="translate(514 277)" fill="#363f40"/><rect width="20" height="2" transform="translate(514 283)" fill="#363f40"/><rect width="2" height="4" transform="translate(518 270)" fill="#363f40"/><rect width="2" height="4" transform="translate(528 276)" fill="#363f40"/><rect width="2" height="4" transform="translate(522 282)" fill="#363f40"/><path d="M540,304H484a4,4,0,0,1-4-4V260a4,4,0,0,1,4-4h56a4,4,0,0,1,4,4v40A4,4,0,0,1,540,304Zm-56-46a2,2,0,0,0-2,2v40a2,2,0,0,0,2,2h56a2,2,0,0,0,2-2V260a2,2,0,0,0-2-2Z" fill="#363f40"/><rect width="2" height="10.198" transform="translate(517.019 303.196) rotate(-11.31)" fill="#363f40"/><rect width="10.198" height="2" transform="translate(503.018 312.803) rotate(-78.679)" fill="#363f40"/><rect width="26" height="2" transform="translate(499 312)" fill="#363f40"/><rect width="2" height="2" transform="translate(511 298)" fill="#363f40"/><path d="M540,296H484V260h56Zm-54-2h52V262H486Z" fill="#363f40"/></g></svg>