<svg xmlns="http://www.w3.org/2000/svg" width="64" height="64" viewBox="0 0 64 64"><g transform="translate(-480 -462)"><circle cx="21" cy="21" r="21" transform="translate(491 484)" fill="#ffec40"/><path d="M512,522a1,1,0,0,1-.542-.16l-31-20a1,1,0,0,1,0-1.68l31-20a1,1,0,0,1,1.084,0l31,20a1,1,0,0,1,0,1.68l-31,20A1,1,0,0,1,512,522Zm-29.155-21L512,519.81,541.155,501,512,482.19Z" fill="#363f40"/><path d="M512,513a1,1,0,0,1-.542-.16l-31-20a1,1,0,0,1,0-1.68l31-20a1,1,0,0,1,1.084,0l31,20a1,1,0,0,1,0,1.68l-31,20A1,1,0,0,1,512,513Zm-29.155-21L512,510.81,541.155,492,512,473.19Z" fill="#363f40"/><path d="M512,504a1,1,0,0,1-.542-.16l-31-20a1,1,0,0,1,0-1.68l31-20a1,1,0,0,1,1.084,0l31,20a1,1,0,0,1,0,1.68l-31,20A1,1,0,0,1,512,504Zm-29.155-21L512,501.81,541.155,483,512,464.19Z" fill="#363f40"/><rect width="2" height="2" transform="translate(511 489)" fill="#363f40"/><rect width="2" height="2" transform="translate(511 485)" fill="#363f40"/><rect width="2" height="2" transform="translate(511 493)" fill="#363f40"/><rect width="2" height="2" transform="translate(515 489)" fill="#363f40"/><rect width="2" height="2" transform="translate(519 491)" fill="#363f40"/><rect width="2" height="2" transform="translate(503 491)" fill="#363f40"/><rect width="2" height="2" transform="translate(515 493)" fill="#363f40"/><rect width="2" height="2" transform="translate(507 489)" fill="#363f40"/><rect width="2" height="2" transform="translate(507 493)" fill="#363f40"/><rect width="2" height="2" transform="translate(511 497)" fill="#363f40"/><rect width="2" height="2" transform="translate(542 512)" fill="#363f40"/><rect width="2" height="2" transform="translate(542 508)" fill="#363f40"/><rect width="2" height="2" transform="translate(542 516)" fill="#363f40"/><rect width="2" height="2" transform="translate(542 520)" fill="#363f40"/><rect width="2" height="2" transform="translate(542 466)" fill="#363f40"/><rect width="2" height="2" transform="translate(542 462)" fill="#363f40"/><rect width="2" height="2" transform="translate(542 470)" fill="#363f40"/><rect width="2" height="2" transform="translate(542 474)" fill="#363f40"/><rect width="2" height="2" transform="translate(480 512)" fill="#363f40"/><rect width="2" height="2" transform="translate(480 508)" fill="#363f40"/><rect width="2" height="2" transform="translate(480 516)" fill="#363f40"/><rect width="2" height="2" transform="translate(480 520)" fill="#363f40"/><rect width="2" height="2" transform="translate(480 466)" fill="#363f40"/><rect width="2" height="2" transform="translate(480 462)" fill="#363f40"/><rect width="2" height="2" transform="translate(484 462)" fill="#363f40"/><rect width="2" height="2" transform="translate(488 462)" fill="#363f40"/><rect width="2" height="2" transform="translate(492 462)" fill="#363f40"/><rect width="2" height="2" transform="translate(496 462)" fill="#363f40"/><rect width="2" height="2" transform="translate(500 462)" fill="#363f40"/><rect width="2" height="2" transform="translate(522 462)" fill="#363f40"/><rect width="2" height="2" transform="translate(526 462)" fill="#363f40"/><rect width="2" height="2" transform="translate(530 462)" fill="#363f40"/><rect width="2" height="2" transform="translate(534 462)" fill="#363f40"/><rect width="2" height="2" transform="translate(538 462)" fill="#363f40"/><rect width="2" height="2" transform="translate(484 520)" fill="#363f40"/><rect width="2" height="2" transform="translate(488 520)" fill="#363f40"/><rect width="2" height="2" transform="translate(492 520)" fill="#363f40"/><rect width="2" height="2" transform="translate(496 520)" fill="#363f40"/><rect width="2" height="2" transform="translate(500 520)" fill="#363f40"/><rect width="2" height="2" transform="translate(522 520)" fill="#363f40"/><rect width="2" height="2" transform="translate(526 520)" fill="#363f40"/><rect width="2" height="2" transform="translate(530 520)" fill="#363f40"/><rect width="2" height="2" transform="translate(534 520)" fill="#363f40"/><rect width="2" height="2" transform="translate(538 520)" fill="#363f40"/><rect width="2" height="2" transform="translate(480 470)" fill="#363f40"/><rect width="2" height="2" transform="translate(480 474)" fill="#363f40"/></g></svg>