<svg xmlns="http://www.w3.org/2000/svg" xmlns:xlink="http://www.w3.org/1999/xlink" width="550" height="200" viewBox="0 0 550 200"><defs><clipPath id="a"><rect width="550" height="200" transform="translate(203 1603)" fill="#f8e5ef"/></clipPath><clipPath id="b"><circle cx="10" cy="10" r="10" transform="translate(42.6 25)"/></clipPath></defs><g transform="translate(-203 -1603)" clip-path="url(#a)"><g transform="translate(285 1667)"><g transform="translate(301 20.1)"><circle cx="10" cy="10" r="10" transform="translate(42.6 25)" fill="#ff4a63"/><g clip-path="url(#b)"><path d="M5.9,0A5.9,5.9,0,1,1,0,5.9,5.9,5.9,0,0,1,5.9,0Z" transform="translate(46.5 37.2)" fill="#fff"/></g><g clip-path="url(#b)"><path d="M52.4,50a6.9,6.9,0,1,1,6.9-6.9A6.914,6.914,0,0,1,52.4,50Zm0-11.8a4.9,4.9,0,1,0,4.9,4.9A4.908,4.908,0,0,0,52.4,38.2Z" fill="#020210"/></g><path d="M62.6,118a.945.945,0,0,1-1-1V93a1,1,0,0,1,2,0v24A1,1,0,0,1,62.6,118Z"/><path d="M54.6,86H1a1,1,0,0,1,0-2H54.6a.945.945,0,0,1,1,1A1,1,0,0,1,54.6,86Z"/><path d="M62.6,94a.945.945,0,0,1-1-1,6.957,6.957,0,0,0-7-7,1,1,0,0,1,0-2,8.963,8.963,0,0,1,9,9A1,1,0,0,1,62.6,94Z"/><path d="M46.6,118a.945.945,0,0,1-1-1V61a1,1,0,0,1,2,0v56A1,1,0,0,1,46.6,118Z"/><path d="M46.6,62a.945.945,0,0,1-1-1,8.963,8.963,0,0,1,9-9,1,1,0,1,1,0,2,6.957,6.957,0,0,0-7,7A1,1,0,0,1,46.6,62Z"/><path d="M78.1,54H54.6a1,1,0,0,1,0-2H78.1a.945.945,0,0,1,1,1A1,1,0,0,1,78.1,54Z"/><path d="M54.6,115a2.006,2.006,0,0,1-2,2h-32a2.006,2.006,0,0,1-2-2V95a2.006,2.006,0,0,1,2-2h32a2.006,2.006,0,0,1,2,2Z" fill="#52c695"/><rect width="36" height="6" transform="translate(18.6 99)" fill="#637282"/><path d="M52.6,118h-32a2.946,2.946,0,0,1-3-3V95a2.946,2.946,0,0,1,3-3h32a2.946,2.946,0,0,1,3,3v20A3.009,3.009,0,0,1,52.6,118Zm-32-24a.945.945,0,0,0-1,1v20a.945.945,0,0,0,1,1h32a.945.945,0,0,0,1-1V95a.945.945,0,0,0-1-1Z"/><path d="M54.6,106h-36a1,1,0,0,1,0-2h36a.945.945,0,0,1,1,1A1,1,0,0,1,54.6,106Z"/><path d="M54.6,100h-36a1,1,0,0,1,0-2h36a.945.945,0,0,1,1,1A1,1,0,0,1,54.6,100Z"/><path d="M38.6,112h-16a1,1,0,0,1,0-2h16a.945.945,0,0,1,1,1A1,1,0,0,1,38.6,112Z"/><path d="M50.6,112h-4a1,1,0,0,1,0-2h4a.945.945,0,0,1,1,1A1,1,0,0,1,50.6,112Z"/><path d="M22.6,77l8-56,8,56Z" fill="#ff4a63"/><path d="M38.6,78h-16a1.135,1.135,0,0,1-.8-.3.778.778,0,0,1-.2-.8l8-56a1.006,1.006,0,0,1,2,0l8,55.8c0,.1.1.2.1.3A1.164,1.164,0,0,1,38.6,78ZM23.7,76H37.4L30.6,28.1Z" fill="#020210"/><path d="M18.6,77l6-44,6,44Z" fill="#35c9cb"/><path d="M30.6,78h-12a1.135,1.135,0,0,1-.8-.3.778.778,0,0,1-.2-.8l6-44a1.006,1.006,0,0,1,2,0l6,43.8c0,.1.1.2.1.3A1.164,1.164,0,0,1,30.6,78ZM19.7,76h9.7L24.5,40.4Z" fill="#020210"/><rect width="8" height="88" transform="translate(70.6 17)" fill="#35c9cb"/><path d="M78.6,118h-8a.945.945,0,0,1-1-1V17a.945.945,0,0,1,1-1h8a.945.945,0,0,1,1,1V117A1,1,0,0,1,78.6,118Zm-7-2h6V18h-6Z"/><path d="M78.6,18h-8a.909.909,0,0,1-.8-.4.959.959,0,0,1-.2-.9l4-16a1.077,1.077,0,0,1,1-.8.974.974,0,0,1,1,.8l4,15.8a.6.6,0,0,1,.1.4A1.175,1.175,0,0,1,78.6,18Zm-6.8-2h5.4L74.6,5.1Z"/><path d="M78.6,110h-8a1,1,0,0,1,0-2h8a.945.945,0,0,1,1,1A1,1,0,0,1,78.6,110Z"/><path d="M78.6,106h-8a1,1,0,0,1,0-2h8a.945.945,0,0,1,1,1A1,1,0,0,1,78.6,106Z"/><path d="M74.6,106a.945.945,0,0,1-1-1V17a1,1,0,0,1,2,0v88A1,1,0,0,1,74.6,106Z"/><path d="M75.6,6h-2a.945.945,0,0,1-1-1,.945.945,0,0,1,1-1h2a.945.945,0,0,1,1,1A1,1,0,0,1,75.6,6Z"/><path d="M52.6,46a11,11,0,1,1,11-11A10.968,10.968,0,0,1,52.6,46Zm0-20a9,9,0,1,0,9,9A8.963,8.963,0,0,0,52.6,26Z" fill="#020210"/><circle cx="2" cy="2" r="2" transform="translate(50.6 31)" fill="#fff"/><path d="M52.6,36a3,3,0,1,1,3-3A3.009,3.009,0,0,1,52.6,36Zm0-4a1,1,0,1,0,1,1A1,1,0,0,0,52.6,32Z" fill="#020210"/></g><path d="M121,110H81a1,1,0,0,1,0-2h40a1,1,0,0,1,0,2Z"/><path d="M201,65V89h-8v4l-4-4H165V65Z" fill="#ff4a63"/><path d="M193,94a.908.908,0,0,1-.7-.3L188.6,90H165a.945.945,0,0,1-1-1V65a.945.945,0,0,1,1-1h36a.945.945,0,0,1,1,1V89a.945.945,0,0,1-1,1h-7v3a.875.875,0,0,1-.6.9A.6.6,0,0,1,193,94Zm-27-6h23a.908.908,0,0,1,.7.3l2.3,2.3V89a.945.945,0,0,1,1-1h7V66H166Z"/><path d="M149,57V81h8v4l4-4h24V57Z" fill="#52c695"/><rect width="32" height="12" transform="translate(69 109)" fill="#637282"/><path d="M119.5,26.5a3.984,3.984,0,0,0-5.7,0L102.5,37.8a4.031,4.031,0,1,0,5.7,5.7l11.3-11.3A4.173,4.173,0,0,0,119.5,26.5Z" fill="#fff"/><path d="M105.3,45.7h0a4.691,4.691,0,0,1-3.5-1.5,5.134,5.134,0,0,1,0-7.1l11.3-11.3a5.093,5.093,0,0,1,3.5-1.5,4.691,4.691,0,0,1,3.5,1.5,5.093,5.093,0,0,1,1.5,3.5,4.691,4.691,0,0,1-1.5,3.5L108.8,44.1A4.627,4.627,0,0,1,105.3,45.7Zm11.4-19.4a2.723,2.723,0,0,0-2.1.9L103.3,38.5a2.9,2.9,0,0,0,0,4.2,3.085,3.085,0,0,0,4.2,0l11.3-11.3a2.878,2.878,0,0,0,.9-2.1,2.723,2.723,0,0,0-.9-2.1A3.333,3.333,0,0,0,116.7,26.3Z"/><path d="M77,17a4.012,4.012,0,0,1,4-4h28a4.012,4.012,0,0,1,4,4V73a4.012,4.012,0,0,1-4,4H81a4.012,4.012,0,0,1-4-4Z" fill="#637282"/><rect width="28" height="48" transform="translate(81 21)" fill="#35c9cb"/><path d="M95,56.7a11,11,0,1,1,11-11A10.968,10.968,0,0,1,95,56.7Zm0-20a9,9,0,1,0,9,9A8.963,8.963,0,0,0,95,36.7Z" fill="#fff"/><path d="M95,56.7a.945.945,0,0,1-1-1v-20a1,1,0,0,1,2,0v20A1,1,0,0,1,95,56.7Z" fill="#fff"/><path d="M95,56.7c-3.4,0-6-4.8-6-11s2.6-11,6-11,6,4.8,6,11C101,51.8,98.4,56.7,95,56.7Zm0-20c-1.9,0-4,3.7-4,9s2.1,9,4,9,4-3.7,4-9S96.9,36.7,95,36.7Z" fill="#fff"/><path d="M105,46.7H85a1,1,0,0,1,0-2h20a.945.945,0,0,1,1,1A1,1,0,0,1,105,46.7Z" fill="#fff"/><path d="M109,70H81a.945.945,0,0,1-1-1V21a.945.945,0,0,1,1-1h28a.945.945,0,0,1,1,1V69A.945.945,0,0,1,109,70ZM82,68h26V22H82Z"/><path d="M109,78H81a4.951,4.951,0,0,1-5-5V17a4.951,4.951,0,0,1,5-5h28a4.951,4.951,0,0,1,5,5V73A4.951,4.951,0,0,1,109,78ZM81,14a2.946,2.946,0,0,0-3,3V73a2.946,2.946,0,0,0,3,3h28a2.946,2.946,0,0,0,3-3V17a2.946,2.946,0,0,0-3-3Z"/><path d="M99,18H91a1,1,0,0,1,0-2h8a1,1,0,0,1,0,2Z"/><path d="M118.7,43a4.022,4.022,0,0,0-5.1-2.5l-3.8,1.3a4.016,4.016,0,1,0,2.6,7.6l3.8-1.3A4.022,4.022,0,0,0,118.7,43Z" fill="#fff"/><path d="M111.1,50.7h0a5.042,5.042,0,0,1-1.6-9.8l3.8-1.3a4.529,4.529,0,0,1,1.6-.3,5.053,5.053,0,0,1,4.7,3.4,5,5,0,0,1-.2,3.8,4.8,4.8,0,0,1-2.9,2.5l-3.8,1.3A2.934,2.934,0,0,1,111.1,50.7Zm3.8-9.4a3.553,3.553,0,0,0-1,.2l-3.8,1.3a2.971,2.971,0,0,0,.9,5.8,3.553,3.553,0,0,0,1-.2l3.8-1.3a2.831,2.831,0,0,0,1.7-1.5,3.038,3.038,0,0,0,.1-2.3A2.819,2.819,0,0,0,114.9,41.3Z"/><path d="M118.7,52.3a4.022,4.022,0,0,0-5.1-2.5l-3.8,1.3a4.016,4.016,0,1,0,2.6,7.6l3.8-1.3A4.022,4.022,0,0,0,118.7,52.3Z" fill="#fff"/><path d="M111.1,60h0a5.042,5.042,0,0,1-1.6-9.8l3.8-1.3a4.529,4.529,0,0,1,1.6-.3,5.053,5.053,0,0,1,4.7,3.4,5,5,0,0,1-.2,3.8,4.8,4.8,0,0,1-2.9,2.5l-3.8,1.3A2.934,2.934,0,0,1,111.1,60Zm3.8-9.3a3.553,3.553,0,0,0-1,.2l-3.8,1.3A2.971,2.971,0,0,0,111,58a3.553,3.553,0,0,0,1-.2l3.8-1.3a2.831,2.831,0,0,0,1.7-1.5,3.038,3.038,0,0,0,.1-2.3A2.7,2.7,0,0,0,114.9,50.7Z"/><path d="M118.1,62.6a4.04,4.04,0,0,0-5.5-1.4l-3.4,2.1a4.013,4.013,0,1,0,4.1,6.9l3.4-2.1A3.893,3.893,0,0,0,118.1,62.6Z" fill="#fff"/><path d="M111.3,71.7h0a4.951,4.951,0,0,1-4.3-2.4,5.032,5.032,0,0,1-.6-3.8,4.8,4.8,0,0,1,2.3-3.1l3.4-2.1a4.845,4.845,0,0,1,2.6-.7A4.951,4.951,0,0,1,119,62a5.032,5.032,0,0,1,.6,3.8,4.8,4.8,0,0,1-2.3,3.1L113.9,71A5.939,5.939,0,0,1,111.3,71.7Zm3.4-10.1a2.6,2.6,0,0,0-1.5.4l-3.4,2.1a3.1,3.1,0,0,0-1.4,1.8,3.064,3.064,0,0,0,.3,2.3,2.984,2.984,0,0,0,2.6,1.5h0a2.6,2.6,0,0,0,1.5-.4l3.4-2.1a3.1,3.1,0,0,0,1.4-1.8,3.064,3.064,0,0,0-.3-2.3A3.11,3.11,0,0,0,114.7,61.6Z"/><path d="M97,101V93c0-6.2,8-8,8-16H93A12.035,12.035,0,0,0,81,65V57l2.8-2.8a7.85,7.85,0,0,0,0-11.3L73,53.7V101Z" fill="#fff"/><path d="M101,110H69a.945.945,0,0,1-1-1v-8a.945.945,0,0,1,1-1h32a.945.945,0,0,1,1,1v8A.945.945,0,0,1,101,110Zm-31-2h30v-6H70Z"/><path d="M81,110a.945.945,0,0,1-1-1v-8a1,1,0,0,1,2,0v8A.945.945,0,0,1,81,110Z"/><path d="M69,122a.945.945,0,0,1-1-1V109a1,1,0,0,1,2,0v12A.945.945,0,0,1,69,122Z"/><path d="M101,122a.945.945,0,0,1-1-1V109a1,1,0,0,1,2,0v12A.945.945,0,0,1,101,122Z"/><path d="M97,102a.945.945,0,0,1-1-1V93c0-3.3,2-5.5,3.9-7.6s3.8-4.1,4.1-7.4H93a.945.945,0,0,1-1-1A10.968,10.968,0,0,0,81,66a.945.945,0,0,1-1-1V57a.908.908,0,0,1,.3-.7l2.8-2.8a7,7,0,0,0,.7-9.2L74,54.1V101a1,1,0,0,1-2,0V53.7a.908.908,0,0,1,.3-.7L83.1,42.2a.967.967,0,0,1,1.4,0,9.177,9.177,0,0,1,0,12.8L82,57.4V64A13.07,13.07,0,0,1,94,76h11a.945.945,0,0,1,1,1c0,4.6-2.5,7.3-4.6,9.7-1.8,2-3.4,3.7-3.4,6.3v8A.945.945,0,0,1,97,102Z"/><path d="M289,5a4.012,4.012,0,0,0-4-4H221a4.012,4.012,0,0,0-4,4V89a4.012,4.012,0,0,0,4,4h64a4.012,4.012,0,0,0,4-4Z" fill="#637282"/><rect width="64" height="68" transform="translate(221 13)" fill="#fff"/><rect width="8" height="8" transform="translate(237 53)" fill="#52c695"/><rect width="8" height="8" transform="translate(261 53)" fill="#52c695"/><rect width="8" height="8" transform="translate(273 53)" fill="#ff4a63"/><rect width="8" height="8" transform="translate(225 53)" fill="#52c695"/><rect width="8" height="8" transform="translate(249 53)" fill="#35c9cb"/><rect width="64" height="4" transform="translate(221 13)" fill="#35c9cb"/><rect width="56" height="24" transform="translate(225 25)" fill="#ff4a63"/><rect width="32" height="8" transform="translate(205 129)" fill="#637282"/><rect width="32" height="8" transform="translate(273 129)" fill="#637282"/><path d="M281,62h-8a.945.945,0,0,1-1-1V53a.945.945,0,0,1,1-1h8a.945.945,0,0,1,1,1v8A.945.945,0,0,1,281,62Zm-7-2h6V54h-6Z"/><path d="M285,94H221a4.951,4.951,0,0,1-5-5V5a4.951,4.951,0,0,1,5-5h64a4.951,4.951,0,0,1,5,5V89A4.951,4.951,0,0,1,285,94ZM221,2a2.946,2.946,0,0,0-3,3V89a2.946,2.946,0,0,0,3,3h64a2.946,2.946,0,0,0,3-3V5a2.946,2.946,0,0,0-3-3Z"/><path d="M285,82H221a.945.945,0,0,1-1-1V13a.945.945,0,0,1,1-1h64a.945.945,0,0,1,1,1V81A.945.945,0,0,1,285,82Zm-63-2h62V14H222Z"/><path d="M257,8h-8a.945.945,0,0,1-1-1,.945.945,0,0,1,1-1h8a.945.945,0,0,1,1,1A.945.945,0,0,1,257,8Z"/><path d="M253,90a3,3,0,1,1,3-3A2.946,2.946,0,0,1,253,90Zm0-4a1,1,0,1,0,1,1A.945.945,0,0,0,253,86Z"/><path d="M277,121v-4c-4,0-4.1-12-14-12h-6a8.024,8.024,0,0,1,8-8h8V61a4,4,0,0,1,8,0V79a4,4,0,0,1,8,0v2a4,4,0,0,1,8,0v2a4,4,0,0,1,8,0v22c0,4-4,8-4,12v4Z" fill="#fff"/><path d="M305,138a.945.945,0,0,1-1-1v-7H274v7a1,1,0,0,1-2,0v-8a.945.945,0,0,1,1-1h32a.945.945,0,0,1,1,1v8A.945.945,0,0,1,305,138Z"/><path d="M305,130H273a.945.945,0,0,1-1-1v-8a.945.945,0,0,1,1-1h32a.945.945,0,0,1,1,1v8A.945.945,0,0,1,305,130Zm-31-2h30v-6H274Z"/><path d="M285,130a.945.945,0,0,1-1-1v-8a1,1,0,0,1,2,0v8A.945.945,0,0,1,285,130Z"/><path d="M301,122a.945.945,0,0,1-1-1v-4c0-2.2,1.1-4.4,2.1-6.4A12.879,12.879,0,0,0,304,105V83a3,3,0,0,0-6,0,1,1,0,0,1-2,0V81a3,3,0,0,0-6,0,1,1,0,0,1-2,0V79a3,3,0,0,0-6,0,1,1,0,0,1-2,0V61a3,3,0,0,0-6,0V97a.945.945,0,0,1-1,1h-8a7,7,0,0,0-6.9,6H263c6.6,0,9.3,4.9,11.2,8.5,1,1.9,1.9,3.5,2.8,3.5a.945.945,0,0,1,1,1v4a1,1,0,0,1-2,0v-3.2c-1.5-.5-2.5-2.4-3.6-4.4-1.9-3.5-4-7.4-9.4-7.4h-6a.945.945,0,0,1-1-1,8.963,8.963,0,0,1,9-9h7V61a5,5,0,0,1,10,0V75a5,5,0,0,1,7.7,2.3A4.872,4.872,0,0,1,293,76a5.1,5.1,0,0,1,4.7,3.3A4.872,4.872,0,0,1,301,78a4.951,4.951,0,0,1,5,5v22c0,2.2-1.1,4.4-2.1,6.4A12.879,12.879,0,0,0,302,117v4A.945.945,0,0,1,301,122Z"/><path d="M233,121V109c0-6.2,8-8,8-16H229a12.035,12.035,0,0,0-12-12V69a8.024,8.024,0,0,0-8-8v60Z" fill="#fff"/><path d="M233,122a.945.945,0,0,1-1-1V109c0-3.3,2-5.5,3.9-7.6s3.8-4.1,4.1-7.4H229a.945.945,0,0,1-1-1,10.968,10.968,0,0,0-11-11,.945.945,0,0,1-1-1V69a7,7,0,0,0-6-6.9V121a1,1,0,0,1-2,0V61a.945.945,0,0,1,1-1,8.963,8.963,0,0,1,9,9V80a13.07,13.07,0,0,1,12,12h11a.945.945,0,0,1,1,1c0,4.6-2.5,7.3-4.6,9.7-1.8,2-3.4,3.7-3.4,6.3v12A.945.945,0,0,1,233,122Z"/><path d="M237,138a.945.945,0,0,1-1-1v-7H206v7a1,1,0,0,1-2,0v-8a.945.945,0,0,1,1-1h32a.945.945,0,0,1,1,1v8A.945.945,0,0,1,237,138Z"/><path d="M237,130H205a.945.945,0,0,1-1-1v-8a.945.945,0,0,1,1-1h32a.945.945,0,0,1,1,1v8A.945.945,0,0,1,237,130Zm-31-2h30v-6H206Z"/><path d="M225,130a.945.945,0,0,1-1-1v-8a1,1,0,0,1,2,0v8A.945.945,0,0,1,225,130Z"/><path d="M281,50H225a.945.945,0,0,1-1-1V25a.945.945,0,0,1,1-1h56a.945.945,0,0,1,1,1V49A.945.945,0,0,1,281,50Zm-55-2h54V26H226Z"/><path d="M281,22H225a1,1,0,0,1,0-2h56a1,1,0,0,1,0,2Z"/><path d="M285,18H221a1,1,0,0,1,0-2h64a1,1,0,0,1,0,2Z"/><path d="M233,62h-8a.945.945,0,0,1-1-1V53a.945.945,0,0,1,1-1h8a.945.945,0,0,1,1,1v8A.945.945,0,0,1,233,62Zm-7-2h6V54h-6Z"/><path d="M245,62h-8a.945.945,0,0,1-1-1V53a.945.945,0,0,1,1-1h8a.945.945,0,0,1,1,1v8A.945.945,0,0,1,245,62Zm-7-2h6V54h-6Z"/><path d="M257,62h-8a.945.945,0,0,1-1-1V53a.945.945,0,0,1,1-1h8a.945.945,0,0,1,1,1v8A.945.945,0,0,1,257,62Zm-7-2h6V54h-6Z"/><path d="M269,62h-8a.945.945,0,0,1-1-1V53a.945.945,0,0,1,1-1h8a.945.945,0,0,1,1,1v8A.945.945,0,0,1,269,62Zm-7-2h6V54h-6Z"/><path d="M257,66H225a1,1,0,0,1,0-2h32a1,1,0,0,1,0,2Z"/><path d="M269,70H225a1,1,0,0,1,0-2h44a1,1,0,0,1,0,2Z"/><path d="M245,74H225a1,1,0,0,1,0-2h20a1,1,0,0,1,0,2Z"/><path d="M265,74H249a1,1,0,0,1,0-2h16a1,1,0,0,1,0,2Z"/><path d="M269,78H225a1,1,0,0,1,0-2h44a1,1,0,0,1,0,2Z"/><path d="M269,66h-8a1,1,0,0,1,0-2h8a1,1,0,0,1,0,2Z"/><path d="M121,110a1,1,0,0,1,0-2,2.946,2.946,0,0,0,3-3,1,1,0,0,1,2,0A4.951,4.951,0,0,1,121,110Z"/><path d="M125,106a.945.945,0,0,1-1-1V77a1,1,0,0,1,2,0v28A.945.945,0,0,1,125,106Z"/><path d="M125,78a.945.945,0,0,1-1-1V69a1,1,0,0,1,2,0v8A.945.945,0,0,1,125,78Z"/><path d="M141,70a.945.945,0,0,1-1-1,7,7,0,0,0-14,0,1,1,0,0,1-2,0,9,9,0,0,1,18,0A.945.945,0,0,1,141,70Z"/><path d="M141,134a.945.945,0,0,1-1-1V69a1,1,0,0,1,2,0v64A.945.945,0,0,1,141,134Z"/><path d="M149,134a.945.945,0,0,1-1-1V99a1,1,0,0,1,2,0v34A.945.945,0,0,1,149,134Z"/><path d="M161,100a.945.945,0,0,1-1-1,5,5,0,0,0-10,0,1,1,0,0,1-2,0,7,7,0,0,1,14,0A.945.945,0,0,1,161,100Z"/><path d="M161,110a.945.945,0,0,1-1-1V99a1,1,0,0,1,2,0v10A.945.945,0,0,1,161,110Z"/><path d="M165,114a4.951,4.951,0,0,1-5-5,1,1,0,0,1,2,0,2.946,2.946,0,0,0,3,3,1,1,0,0,1,0,2Z"/><path d="M209,114H165a1,1,0,0,1,0-2h44a1,1,0,0,1,0,2Z"/><path d="M139,39c0,3.3-6,14-6,14s-6-10.7-6-14a6,6,0,0,1,12,0Z" fill="#ff4a63"/><path d="M133,54a1.05,1.05,0,0,1-.9-.5c-.6-1.1-6.1-11-6.1-14.5a7,7,0,1,1,14,0c0,3.5-5.5,13.4-6.1,14.5A1.05,1.05,0,0,1,133,54Zm0-20a4.951,4.951,0,0,0-5,5c0,2,2.7,7.7,5,11.9,2.3-4.2,5-9.9,5-11.9A4.951,4.951,0,0,0,133,34Z"/><circle cx="2" cy="2" r="2" transform="translate(131 37)" fill="#fff"/><path d="M133,42a3,3,0,1,1,3-3A2.946,2.946,0,0,1,133,42Zm0-4a1,1,0,1,0,1,1A.945.945,0,0,0,133,38Z"/><circle cx="6" cy="6" r="6" transform="translate(107 103)" fill="#35c9cb"/><path d="M113,116a7,7,0,1,1,7-7A6.957,6.957,0,0,1,113,116Zm0-12a5,5,0,1,0,5,5A4.951,4.951,0,0,0,113,104Z"/><path d="M113,112a.945.945,0,0,1-1-1v-4a1,1,0,0,1,2,0v4A.945.945,0,0,1,113,112Z"/><path d="M115,110h-4a1,1,0,0,1,0-2h4a1,1,0,0,1,0,2Z"/><path d="M177,66H157a1,1,0,0,1,0-2h20a1,1,0,0,1,0,2Z"/><path d="M177,70H157a1,1,0,0,1,0-2h20a1,1,0,0,1,0,2Z"/><path d="M177,74H157a1,1,0,0,1,0-2h20a1,1,0,0,1,0,2Z"/><path d="M157,86a.6.6,0,0,1-.4-.1.961.961,0,0,1-.6-.9V82h-7a.945.945,0,0,1-1-1V57a.945.945,0,0,1,1-1h36a.945.945,0,0,1,1,1V81a.945.945,0,0,1-1,1H161.4l-3.7,3.7A.908.908,0,0,1,157,86Zm-7-6h7a.945.945,0,0,1,1,1v1.6l2.3-2.3a.908.908,0,0,1,.7-.3h23V58H150Z"/><rect width="12" height="8" transform="translate(149 41)" fill="#ff4a63"/><rect width="12" height="8" transform="translate(165 41)" fill="#35c9cb"/><rect width="12" height="8" transform="translate(181 41)" fill="#52c695"/><rect width="12" height="8" transform="translate(165 17)" fill="#637282"/><path d="M161,50H149a.945.945,0,0,1-1-1V41a.945.945,0,0,1,1-1h12a.945.945,0,0,1,1,1v8A.945.945,0,0,1,161,50Zm-11-2h10V42H150Z"/><path d="M177,50H165a.945.945,0,0,1-1-1V41a.945.945,0,0,1,1-1h12a.945.945,0,0,1,1,1v8A.945.945,0,0,1,177,50Zm-11-2h10V42H166Z"/><path d="M193,50H181a.945.945,0,0,1-1-1V41a.945.945,0,0,1,1-1h12a.945.945,0,0,1,1,1v8A.945.945,0,0,1,193,50Zm-11-2h10V42H182Z"/><path d="M177,26H165a.945.945,0,0,1-1-1V17a.945.945,0,0,1,1-1h12a.945.945,0,0,1,1,1v8A.945.945,0,0,1,177,26Zm-11-2h10V18H166Z"/><path d="M187,42a.945.945,0,0,1-1-1V34H156v7a1,1,0,0,1-2,0V33a.945.945,0,0,1,1-1h32a.945.945,0,0,1,1,1v8A.945.945,0,0,1,187,42Z"/><path d="M171,42a.945.945,0,0,1-1-1V25a1,1,0,0,1,2,0V41A.945.945,0,0,1,171,42Z"/><rect width="20" height="16" transform="translate(41 121)" fill="#ff4a63"/><path d="M61,138H41a.945.945,0,0,1-1-1V121a.945.945,0,0,1,1-1H61a.945.945,0,0,1,1,1v16A.945.945,0,0,1,61,138Zm-19-2H60V122H42Z" fill="#020210"/><path d="M45,114a.945.945,0,0,1-1-1,4.951,4.951,0,0,1,5-5,1,1,0,0,1,0,2,2.946,2.946,0,0,0-3,3A.945.945,0,0,1,45,114Z" fill="#020210"/><path d="M57,114a.945.945,0,0,1-1-1,2.946,2.946,0,0,0-3-3,1,1,0,0,1,0-2,4.951,4.951,0,0,1,5,5A.945.945,0,0,1,57,114Z" fill="#020210"/><path d="M53,110H49a1,1,0,0,1,0-2h4a1,1,0,0,1,0,2Z" fill="#020210"/><path d="M45,121a.945.945,0,0,1-1-1v-7a1,1,0,0,1,2,0v7A.945.945,0,0,1,45,121Z" fill="#020210"/><path d="M57,122a.945.945,0,0,1-1-1v-8a1,1,0,0,1,2,0v8A.945.945,0,0,1,57,122Z" fill="#020210"/><path d="M45,126H41a1,1,0,0,1,0-2h4a1,1,0,0,1,0,2Z" fill="#020210"/><path d="M45,130H41a1,1,0,0,1,0-2h4a1,1,0,0,1,0,2Z" fill="#020210"/><path d="M45,134H41a1,1,0,0,1,0-2h4a1,1,0,0,1,0,2Z" fill="#020210"/><path d="M61,126H57a1,1,0,0,1,0-2h4a1,1,0,0,1,0,2Z" fill="#020210"/><path d="M61,130H57a1,1,0,0,1,0-2h4a1,1,0,0,1,0,2Z" fill="#020210"/><path d="M61,134H57a1,1,0,0,1,0-2h4a1,1,0,0,1,0,2Z" fill="#020210"/><path d="M51,132a.945.945,0,0,1-1-1v-2a1,1,0,0,1,2,0v2A.945.945,0,0,1,51,132Z" fill="#020210"/><circle cx="2" cy="2" r="2" transform="translate(49 125)" fill="#020210"/><circle cx="16" cy="16" r="16" transform="translate(37 37.7)" fill="#51b8ba"/><circle cx="12" cy="12" r="12" transform="translate(41 41.7)" fill="#fff"/><path d="M53,66.7a13,13,0,1,1,13-13A12.974,12.974,0,0,1,53,66.7Zm0-24a11,11,0,1,0,11,11A10.968,10.968,0,0,0,53,42.7Z" fill="#020210"/><path d="M53,70.7a17,17,0,1,1,17-17A16.986,16.986,0,0,1,53,70.7Zm0-32a15,15,0,1,0,15,15A14.98,14.98,0,0,0,53,38.7Z" fill="#020210"/><path d="M53,54.7a.945.945,0,0,1-1-1v-4a1,1,0,0,1,2,0v4A1,1,0,0,1,53,54.7Z" fill="#020210"/><path d="M57,54.7H53a1,1,0,0,1,0-2h4a.945.945,0,0,1,1,1A1,1,0,0,1,57,54.7Z" fill="#020210"/><rect width="44" height="24" transform="translate(21 77)" fill="#f9e765"/><path d="M65,102H21a.945.945,0,0,1-1-1V77a.945.945,0,0,1,1-1H65a.945.945,0,0,1,1,1v24A.945.945,0,0,1,65,102Zm-43-2H64V78H22Z" fill="#020210"/><path d="M38.6,90a1.421,1.421,0,0,1-.6-.2l-17.6-12a1.012,1.012,0,0,1,1.1-1.7l17.6,12a.984.984,0,0,1,.3,1.4A1.02,1.02,0,0,1,38.6,90Z" fill="#020210"/><path d="M43,93a1.421,1.421,0,0,1-.6-.2l-4.4-3a1.012,1.012,0,0,1,1.1-1.7l3.8,2.6,3.8-2.6a1.012,1.012,0,0,1,1.1,1.7l-4.4,3C43.4,92.9,43.2,93,43,93Z" fill="#020210"/><path d="M47.4,90a1.234,1.234,0,0,1-.8-.4.984.984,0,0,1,.3-1.4l17.6-12a1.012,1.012,0,1,1,1.1,1.7L48,89.8A1.421,1.421,0,0,1,47.4,90Z" fill="#020210"/><path d="M65,102a1.421,1.421,0,0,1-.6-.2l-17.6-12a1.012,1.012,0,0,1,1.1-1.7l17.6,12a.984.984,0,0,1,.3,1.4A1.02,1.02,0,0,1,65,102Z" fill="#020210"/><path d="M21,102a1.234,1.234,0,0,1-.8-.4.984.984,0,0,1,.3-1.4l17.6-12a1.012,1.012,0,0,1,1.1,1.7l-17.6,12C21.4,101.9,21.2,102,21,102Z" fill="#020210"/><path d="M17,78H13a1,1,0,0,1,0-2h4a1,1,0,0,1,0,2Z"/><path d="M9,78H5a1,1,0,0,1,0-2H9a1,1,0,0,1,0,2Z"/><path d="M17,82H5a1,1,0,0,1,0-2H17a1,1,0,0,1,0,2Z"/><path d="M9,86H1a1,1,0,0,1,0-2H9a1,1,0,0,1,0,2Z"/><path d="M17,86H13a1,1,0,0,1,0-2h4a1,1,0,0,1,0,2Z"/><path d="M199,114v-2l-4.2-.9a7.367,7.367,0,0,0-.4-1.4l3.2-2.9-1-1.7-4.1,1.3a4.741,4.741,0,0,0-1-1l1.3-4.1-1.7-1-2.9,3.2a5.732,5.732,0,0,0-1.4-.4L186,99h-2l-.9,4.2a7.366,7.366,0,0,0-1.4.4l-2.9-3.2-1.7,1,1.3,4.1a4.741,4.741,0,0,0-1,1l-4.1-1.3-1,1.7,3.2,2.9a5.732,5.732,0,0,0-.4,1.4l-4.1.8v2l4.2.9a7.367,7.367,0,0,0,.4,1.4l-3.2,2.9,1,1.7,4.1-1.3a4.741,4.741,0,0,0,1,1l-1.3,4.1,1.7,1,2.9-3.2a5.732,5.732,0,0,0,1.4.4l.9,4.2h2l.9-4.2a7.366,7.366,0,0,0,1.4-.4l2.9,3.2,1.7-1-1.3-4.1a4.741,4.741,0,0,0,1-1l4.1,1.3,1-1.7-3.2-2.9a5.732,5.732,0,0,0,.4-1.4Z" fill="#b5b5b5"/><path d="M186,128h-2a.974.974,0,0,1-1-.8l-.8-3.6c-.1,0-.1,0-.2-.1l-2.4,2.7a1.063,1.063,0,0,1-1.2.2l-1.7-1a1.083,1.083,0,0,1-.5-1.2l1.1-3.5-.1-.1-3.5,1.1a1.057,1.057,0,0,1-1.2-.5l-1-1.7a.925.925,0,0,1,.2-1.2l2.7-2.4c0-.1,0-.1-.1-.2l-3.6-.8a.974.974,0,0,1-.8-1v-2a.974.974,0,0,1,.8-1l3.6-.8c0-.1,0-.1.1-.2l-2.7-2.4a.925.925,0,0,1-.2-1.2l1-1.7a1.083,1.083,0,0,1,1.2-.5l3.5,1.1c0-.1.1-.1.2-.1l-1.1-3.5a1.057,1.057,0,0,1,.5-1.2l1.7-1a.925.925,0,0,1,1.2.2l2.4,2.7c.1,0,.1,0,.2-.1l.8-3.6a.974.974,0,0,1,1-.8h2a.974.974,0,0,1,1,.8l.8,3.6c.1,0,.1,0,.2.1l2.4-2.7a1.063,1.063,0,0,1,1.2-.2l1.7,1a1.083,1.083,0,0,1,.5,1.2l-1.1,3.5a.1.1,0,0,1,.1.1l3.5-1.1a1.057,1.057,0,0,1,1.2.5l1,1.7a.925.925,0,0,1-.2,1.2l-2.7,2.4c0,.1,0,.1.1.2l3.6.8a.974.974,0,0,1,.8,1v2a.974.974,0,0,1-.8,1l-3.6.8c0,.1,0,.1-.1.2l2.7,2.4a.925.925,0,0,1,.2,1.2l-1,1.7a1.083,1.083,0,0,1-1.2.5l-3.5-1.1c0,.1-.1.1-.2.1l1.1,3.5a1.057,1.057,0,0,1-.5,1.2l-1.7,1a.925.925,0,0,1-1.2-.2l-2.4-2.7c-.1,0-.1,0-.2.1l-.8,3.6A.974.974,0,0,1,186,128Zm-1.2-2h.4l.7-3.4a1.085,1.085,0,0,1,.8-.8l1.2-.3a1.129,1.129,0,0,1,1.1.3l2.3,2.6.3-.2-1.1-3.3a1.128,1.128,0,0,1,.3-1.1l.9-.9a1.128,1.128,0,0,1,1.1-.3l3.3,1.1.2-.3-2.6-2.3a1.128,1.128,0,0,1-.3-1.1,5.274,5.274,0,0,0,.3-1.2,1.085,1.085,0,0,1,.8-.8l3.4-.7v-.4l-3.4-.7a1.085,1.085,0,0,1-.8-.8l-.3-1.2a1.128,1.128,0,0,1,.3-1.1l2.6-2.3-.2-.3-3.3,1.1a1.129,1.129,0,0,1-1.1-.3l-.9-.9a1.128,1.128,0,0,1-.3-1.1l1.1-3.3-.3-.2-2.3,2.6a1.128,1.128,0,0,1-1.1.3,5.274,5.274,0,0,0-1.2-.3,1.085,1.085,0,0,1-.8-.8l-.7-3.4h-.4l-.7,3.4a1.085,1.085,0,0,1-.8.8l-1.2.3a1.129,1.129,0,0,1-1.1-.3l-2.3-2.6-.3.2,1.1,3.3a1.128,1.128,0,0,1-.3,1.1l-.9.9a1.128,1.128,0,0,1-1.1.3l-3.3-1.1-.2.3,2.6,2.3a1.128,1.128,0,0,1,.3,1.1,5.274,5.274,0,0,0-.3,1.2,1.085,1.085,0,0,1-.8.8l-3.4.7v.4l3.4.7a1.085,1.085,0,0,1,.8.8l.3,1.2a1.128,1.128,0,0,1-.3,1.1l-2.6,2.3.2.3,3.3-1.1a1.129,1.129,0,0,1,1.1.3l.9.9a1.128,1.128,0,0,1,.3,1.1l-1.1,3.3.3.2,2.3-2.6a1.128,1.128,0,0,1,1.1-.3,5.274,5.274,0,0,0,1.2.3,1.085,1.085,0,0,1,.8.8Z" fill="#020210"/><path d="M189,113a4,4,0,1,1-4-4A4.012,4.012,0,0,1,189,113Z" fill="#fff"/><path d="M185,118a5,5,0,1,1,5-5A4.951,4.951,0,0,1,185,118Zm0-8a3,3,0,1,0,3,3A2.946,2.946,0,0,0,185,110Z" fill="#020210"/></g></g></svg>