<svg xmlns="http://www.w3.org/2000/svg" width="220" height="174.07" viewBox="0 0 220 174.07"><g transform="translate(-21.593 -263.134)"><g transform="translate(99.938 378.342)"><g transform="translate(36.786 0.003)"><g transform="translate(4.84 0.976)"><path d="M118,369.731l8.33-8.893c2-2.612,6.249.091,4,2.553l-6.638,9.213,3.222-.014,7.677-8.2s.734-5.137.925-5.857l.183-6.559a2.239,2.239,0,0,1,4.078-1.848l.052,7.4c.264.585.2,9.418.2,9.418L130.8,386.015H116.781l-.023-13.66A5.539,5.539,0,0,1,118,369.731Z" transform="translate(-116.758 -348.811)" fill="#fff"/></g><g transform="translate(4.162)"><path d="M131.4,386.948h-15.12l-.024-14.335a6.235,6.235,0,0,1,1.425-3.089l8.33-8.893a3.317,3.317,0,0,1,5.674.754,2.642,2.642,0,0,1-.682,2.722l-5.811,8.071,1.6-.007L134.44,364c.111-1.184.454-4.764.643-5.668l-.126-6.389c.033-.331.05-.563.066-.785.079-1.044.167-2.225,1.444-2.808a2.924,2.924,0,0,1,3.862,1.452l.061.255.289,7.658c.214,1.15.228,5.708.2,9.487l-.066.29Zm-13.767-1.356h12.917l8.972-18.551c.029-4.052-.023-8.5-.159-9.037l-.056-.121.016-.079-.286-7.548a1.564,1.564,0,0,0-2.011-.67c-.5.229-.575.618-.654,1.673-.018.243-.037.492-.068.753l.134,6.473-.024.092c-.127.484-.465,3.8-.648,5.78l-.022.232-8.364,8.935-4.845.023,7.416-10.294a1.386,1.386,0,0,0,.453-1.421,1.968,1.968,0,0,0-3.36-.325l-8.375,8.943a4.948,4.948,0,0,0-1.065,2.251Z" transform="translate(-116.258 -348.092)" fill="#414042"/></g><g transform="translate(0 39.011)"><rect width="22.006" height="19.17" fill="#47cbd7"/></g><g transform="translate(0 39.011)"><rect width="5.972" height="19.17" fill="#3598a1"/></g></g><g transform="translate(0.681 0.978)"><path d="M108.595,369.731l-8.33-8.893c-2-2.612-6.248.091-4,2.553l6.638,9.213-3.222-.014-7.678-8.2s-.734-5.137-.925-5.857l-.183-6.559a2.239,2.239,0,0,0-4.078-1.848l-.052,7.4c-.264.585-.2,9.418-.2,9.418L95.8,386.015h14.019l.023-13.66A5.554,5.554,0,0,0,108.595,369.731Z" transform="translate(-86.565 -348.811)" fill="#fff"/></g><path d="M110.671,386.949H95.549L86.073,367.2c-.028-3.779-.014-8.336.2-9.487l.349-7.913a2.918,2.918,0,0,1,3.862-1.452c1.279.583,1.367,1.764,1.446,2.809.016.222.033.454.061.692l-.121,6.482c.188.9.53,4.485.641,5.668l7.647,8.169,1.6.007-5.86-8.133a2.59,2.59,0,0,1-.633-2.661,3.208,3.208,0,0,1,2.551-1.992,3.257,3.257,0,0,1,3.166,1.29l8.287,8.84a6.252,6.252,0,0,1,1.421,3ZM96.4,385.593h12.918l.022-12.982a5,5,0,0,0-1.059-2.159h0l-8.33-8.892a1.95,1.95,0,0,0-1.92-.827,1.891,1.891,0,0,0-1.484,1.1,1.319,1.319,0,0,0,.4,1.36l7.465,10.355-4.845-.023L91.2,364.59l-.022-.232c-.183-1.979-.519-5.3-.648-5.78l-.024-.092.13-6.568c-.026-.165-.045-.415-.064-.658-.079-1.055-.151-1.444-.654-1.673a1.563,1.563,0,0,0-2.011.669l-.344,7.8c-.117.481-.167,4.929-.14,8.981Z" transform="translate(-86.062 -348.09)" fill="#414042"/><g transform="translate(6.789 39.014)"><rect width="22.006" height="19.17" fill="#47cbd7"/></g><g transform="translate(22.823 39.014)"><rect width="5.972" height="19.17" fill="#3598a1"/></g></g><g transform="translate(21.593 435.848)"><rect width="220" height="1.356" fill="#414042"/></g><g transform="translate(108.09 292.904)"><g transform="translate(0.689 0.68)"><path d="M142.332,309.934s-1.984-3.359-5.079-3.359a8.2,8.2,0,0,0-6.364,3c-1.066,1.181-3.485-2.107-6.549-3.3-2-.777-4.006,3.659-6.353,3.659-2.137,0-4.043-3.644-6.014-3.644-2.537,0-4.429,2.99-6.6,2.986-2.269,0-4.8-3-6.451-3-3.275,0-6.345,4.051-6.345,4.051,0-13.443,11.963-24.738,25.406-24.738A24.349,24.349,0,0,1,142.332,309.934Z" transform="translate(-92.581 -285.588)" fill="#e7643e"/></g><g transform="translate(13.286 0.68)"><path d="M139.024,309.934s-1.984-3.359-5.079-3.359c-2.155,0-3.808.82-6.364,3-1.212,1.031-2.693-2.95-6.549-3.3-2.136-.191-4.006,3.659-6.353,3.659-2.137,0-4.043-3.644-6.014-3.644-2.537,0-4.471,3.427-6.6,2.986-1.222-.25,3.192-23.814,12.61-23.688A24.468,24.468,0,0,1,139.024,309.934Z" transform="translate(-101.87 -285.588)" fill="#fff"/></g><g transform="translate(26.095 0.68)"><path d="M135.661,309.934s-1.984-3.359-5.079-3.359c-2.155,0-3.454.6-6.413,2.158-1.409.742-3.436-1.269-6.5-2.457-2-.777-4.006,3.659-6.353,3.659V285.588A24.468,24.468,0,0,1,135.661,309.934Z" transform="translate(-111.316 -285.588)" fill="#e7643e"/></g><g transform="translate(26.095 0.68)"><path d="M136.706,309.934s-5.987-8.184-11.768-.523c-1.2,1.6-1-7.339-6.951-17.983-1.543-2.76-6.671-5.839-6.671-5.839C124.759,285.774,136.706,296.491,136.706,309.934Z" transform="translate(-111.316 -285.588)" fill="#fff"/></g><g transform="translate(0 0.002)"><path d="M130.876,313.487a.677.677,0,0,1-.678-.678,5.677,5.677,0,1,0-11.353,0,.678.678,0,0,1-1.356,0,5.675,5.675,0,1,0-11.35,0,.678.678,0,0,1-1.356,0,5.676,5.676,0,0,0-11.342-.349v.014a.853.853,0,0,1-.005.085c0,.083-.005.165-.005.25a.678.678,0,0,1-1.356,0c0-.132,0-.262.011-.389.028-14.822,11.962-27.332,26.083-27.332a26.125,26.125,0,0,1,26.094,26.1.684.684,0,0,1-.071.3,7.012,7.012,0,0,1,.046.816.678.678,0,1,1-1.356,0c0-3-2.376-5.171-5.651-5.171a5.682,5.682,0,0,0-5.675,5.678A.678.678,0,0,1,130.876,313.487Zm-19.064-7.712a7.042,7.042,0,0,1,6.355,4.022,7.031,7.031,0,0,1,12.709,0,7.041,7.041,0,0,1,6.353-4.021,7.123,7.123,0,0,1,5.483,2.318,24.776,24.776,0,0,0-24.545-21.649c-12.029,0-22.382,9.6-24.38,21.768A7.028,7.028,0,0,1,105.46,309.8,7.039,7.039,0,0,1,111.812,305.775Z" transform="translate(-92.073 -285.088)" fill="#414042"/></g><g transform="translate(25.26 0.029)"><path d="M111.378,311.487a.678.678,0,0,1-.678-.678V285.786a.678.678,0,0,1,1.356,0v25.023A.678.678,0,0,1,111.378,311.487Z" transform="translate(-110.7 -285.108)" fill="#414042"/></g><g transform="translate(12.807)"><path d="M102.2,310.133h-.022a.679.679,0,0,1-.656-.7c.666-20.975,12.462-24.2,12.964-24.324a.678.678,0,0,1,.335,1.314c-.113.028-11.313,3.167-11.944,23.054A.677.677,0,0,1,102.2,310.133Z" transform="translate(-101.517 -285.087)" fill="#414042"/></g><g transform="translate(25.169 0.002)"><path d="M124.184,310.31a.678.678,0,0,1-.678-.678c0-14.322-12.458-23.223-12.583-23.313a.678.678,0,1,1,.777-1.111c.132.092,13.162,9.384,13.162,24.423A.677.677,0,0,1,124.184,310.31Z" transform="translate(-110.633 -285.088)" fill="#414042"/></g><g transform="translate(0 27.044)"><path d="M118.17,342.037a.681.681,0,0,1-.553-.285L92.2,306.1a.678.678,0,1,1,1.1-.787l25.417,35.65a.678.678,0,0,1-.551,1.071Z" transform="translate(-92.073 -305.029)" fill="#414042"/></g><g transform="translate(12.709 27.043)"><path d="M114.831,342.037a.68.68,0,0,1-.639-.45l-12.708-35.65a.678.678,0,1,1,1.277-.456l12.708,35.65a.677.677,0,0,1-.411.865A.637.637,0,0,1,114.831,342.037Z" transform="translate(-101.445 -305.028)" fill="#414042"/></g><g transform="translate(25.49 26.711)"><path d="M111.547,342.124a.654.654,0,0,1-.224-.039.675.675,0,0,1-.415-.862l12.623-35.984a.677.677,0,1,1,1.279.448L112.187,341.67A.678.678,0,0,1,111.547,342.124Z" transform="translate(-110.869 -304.783)" fill="#414042"/></g><g transform="translate(25.563 26.181)"><path d="M111.6,342.263a.679.679,0,0,1-.556-1.066l25.416-36.513a.677.677,0,1,1,1.112.773l-25.416,36.514A.675.675,0,0,1,111.6,342.263Z" transform="translate(-110.923 -304.393)" fill="#414042"/></g><g transform="translate(25.29 25.894)"><path d="M111.4,342.545h0a.677.677,0,0,1-.675-.681l.144-37.008a.679.679,0,0,1,.678-.675h0a.677.677,0,0,1,.675.681l-.144,37.008A.679.679,0,0,1,111.4,342.545Z" transform="translate(-110.722 -304.181)" fill="#414042"/></g><g transform="translate(7.023 54.351)"><rect width="37.648" height="37.648" fill="#f5ab35"/></g><g transform="translate(37.309 87.368)"><rect width="4.933" height="2.988" fill="#b88028"/></g><text transform="translate(21.808 85.15)" fill="#1b2733" font-size="20" font-family="LineAwesome"><tspan x="0" y="0"></tspan></text><g transform="translate(11.248 61.75)"><g transform="translate(0 5.114)"><path d="M-53.771,399.95H-64V391h10.229Zm-8.95-1.279h7.672v-6.393h-7.672Z" transform="translate(64 -391)" fill="#1b2733"/></g><g transform="translate(1.279)"><path d="M-54.328,388.754h-1.279v-3.836a.64.64,0,0,0-.639-.639h-3.836a.64.64,0,0,0-.639.639v3.836H-62v-3.836A1.92,1.92,0,0,1-60.082,383h3.836a1.92,1.92,0,0,1,1.918,1.918Z" transform="translate(62 -383)" fill="#1b2733"/></g><rect width="1.279" height="1.279" transform="translate(4.475 7.672)" fill="#1b2733"/></g><g transform="translate(24.448 59.11)"><g transform="translate(0 0)"><path d="M370.581,284.553l-.515,0a.883.883,0,0,1-.88-.886l0-.351a3.561,3.561,0,0,1-.473-.2l-.249.247a.881.881,0,0,1-.622.257h0a.876.876,0,0,1-.626-.262l-.359-.362a.882.882,0,0,1,0-1.249l.249-.248a3.618,3.618,0,0,1-.2-.472l-.35,0a.883.883,0,0,1-.879-.889l0-.511a.876.876,0,0,1,.26-.625.929.929,0,0,1,.627-.255l.349,0a3.362,3.362,0,0,1,.2-.472l-.248-.25a.885.885,0,0,1,.007-1.249l.364-.36a.872.872,0,0,1,.62-.257h0a.881.881,0,0,1,.628.261l.247.251a3.383,3.383,0,0,1,.455-.187v-.353a.884.884,0,0,1,.884-.883h.512a.885.885,0,0,1,.884.883v.353a3.66,3.66,0,0,1,.471.195l.249-.248a.883.883,0,0,1,1.248,0l.363.365a.881.881,0,0,1,0,1.249l-.246.247a3.691,3.691,0,0,1,.2.473l.353,0a.883.883,0,0,1,.879.882v.513a.888.888,0,0,1-.884.883h-.351a3.532,3.532,0,0,1-.2.473l.247.25a.88.88,0,0,1,0,1.249l-.359.36a.893.893,0,0,1-1.25,0l-.25-.252a3.6,3.6,0,0,1-.472.194l0,.354A.882.882,0,0,1,370.581,284.553Zm-2-2.543.3.188a2.737,2.737,0,0,0,.85.356l.343.078-.005,1.038.517,0,.006-1.038.342-.077a2.731,2.731,0,0,0,.851-.351l.3-.187.731.737.366-.363-.728-.74.187-.3a2.7,2.7,0,0,0,.355-.849l.077-.344,1.037,0,0-.516,0,0-1.035,0-.077-.341a2.707,2.707,0,0,0-.353-.849l-.189-.3.734-.735-.362-.368-.738.734-.3-.189a2.728,2.728,0,0,0-.848-.351l-.341-.078v-1.037l-.517,0,0,1.041-.344.078a2.709,2.709,0,0,0-.837.343l-.3.185-.728-.736-.37.362.73.741-.189.3a2.7,2.7,0,0,0-.355.847l-.079.343-1.036,0-.005.517,1.036.007.077.341a2.729,2.729,0,0,0,.351.848l.189.3-.737.735.36.366Zm1.756-.262a1.845,1.845,0,1,1,1.845-1.848A1.849,1.849,0,0,1,370.338,281.748Zm0-2.811a.965.965,0,1,0,.965.963A.965.965,0,0,0,370.338,278.937Z" transform="translate(-365.686 -275.251)" fill="#414042"/></g></g><g transform="translate(11.248 78.47)"><path d="M370.581,284.553l-.515,0a.883.883,0,0,1-.88-.886l0-.351a3.561,3.561,0,0,1-.473-.2l-.249.247a.881.881,0,0,1-.622.257h0a.876.876,0,0,1-.626-.262l-.359-.362a.882.882,0,0,1,0-1.249l.249-.248a3.618,3.618,0,0,1-.2-.472l-.35,0a.883.883,0,0,1-.879-.889l0-.511a.876.876,0,0,1,.26-.625.929.929,0,0,1,.627-.255l.349,0a3.362,3.362,0,0,1,.2-.472l-.248-.25a.885.885,0,0,1,.007-1.249l.364-.36a.872.872,0,0,1,.62-.257h0a.881.881,0,0,1,.628.261l.247.251a3.383,3.383,0,0,1,.455-.187v-.353a.884.884,0,0,1,.884-.883h.512a.885.885,0,0,1,.884.883v.353a3.66,3.66,0,0,1,.471.195l.249-.248a.883.883,0,0,1,1.248,0l.363.365a.881.881,0,0,1,0,1.249l-.246.247a3.691,3.691,0,0,1,.2.473l.353,0a.883.883,0,0,1,.879.882v.513a.888.888,0,0,1-.884.883h-.351a3.532,3.532,0,0,1-.2.473l.247.25a.88.88,0,0,1,0,1.249l-.359.36a.893.893,0,0,1-1.25,0l-.25-.252a3.6,3.6,0,0,1-.472.194l0,.354A.882.882,0,0,1,370.581,284.553Zm-2-2.543.3.188a2.737,2.737,0,0,0,.85.356l.343.078-.005,1.038.517,0,.006-1.038.342-.077a2.731,2.731,0,0,0,.851-.351l.3-.187.731.737.366-.363-.728-.74.187-.3a2.7,2.7,0,0,0,.355-.849l.077-.344,1.037,0,0-.516,0,0-1.035,0-.077-.341a2.707,2.707,0,0,0-.353-.849l-.189-.3.734-.735-.362-.368-.738.734-.3-.189a2.728,2.728,0,0,0-.848-.351l-.341-.078v-1.037l-.517,0,0,1.041-.344.078a2.709,2.709,0,0,0-.837.343l-.3.185-.728-.736-.37.362.73.741-.189.3a2.7,2.7,0,0,0-.355.847l-.079.343-1.036,0-.005.517,1.036.007.077.341a2.729,2.729,0,0,0,.351.848l.189.3-.737.735.36.366Zm1.756-.262a1.845,1.845,0,1,1,1.845-1.848A1.849,1.849,0,0,1,370.338,281.748Zm0-2.811a.965.965,0,1,0,.965.963A.965.965,0,0,0,370.338,278.937Z" transform="translate(-365.686 -275.251)" fill="#414042"/></g></g><g transform="translate(167.543 278.708)"><g transform="translate(23.207 22.792)"><path d="M157.426,294.03l-4.4-.37V291.8l4.4-.37Z" transform="translate(-153.028 -291.426)" fill="#d1d3d4"/></g><g transform="translate(23.207 4.919)"><path d="M157.426,280.85l-4.4-.37v-1.865l4.4-.37Z" transform="translate(-153.028 -278.246)" fill="#d1d3d4"/></g><g transform="translate(17.856 0.679)"><path d="M152.939,288.293l-3.857-13.174h2.829c1.565,0,1.93,1.4,2.833,3.289l3.857,9.886Z" transform="translate(-149.082 -275.119)" fill="#47cbd7"/></g><g transform="translate(17.856 0.679)"><path d="M150.811,275.119h-1.729l3.857,13.174h1.729Z" transform="translate(-149.082 -275.119)" fill="#91e0e7"/></g><g transform="translate(17.856 17.011)"><path d="M152.939,287.163l-3.857,13.173h2.829c1.565,0,1.93-1.4,2.833-3.289l3.857-9.885Z" transform="translate(-149.082 -287.163)" fill="#47cbd7"/></g><g transform="translate(17.856 17.011)"><path d="M154.749,287.163h-1.81l-3.857,13.173h1.809Z" transform="translate(-149.082 -287.163)" fill="#91e0e7"/></g><g transform="translate(2.594 9.637)"><path d="M175.291,286.722l-5.1-2.973H150.415l-9.277,1.82-.968-2.484c-.373-.78-.525-1.36-1.172-1.36h-1.17l1.555,5.313v.1l-1.557,5.316H139c.647,0,.8-.58,1.172-1.36l1.029-2.638,9.216,1.318,19,.445,5.88-2.921A.326.326,0,0,0,175.291,286.722Z" transform="translate(-137.828 -281.725)" fill="#e6e7e8"/></g><g transform="translate(0.95 14.322)"><rect width="5.47" height="1.356" fill="#414042"/></g><g transform="translate(31.243 12.756)"><path d="M161.345,287.86h-2.391a8.755,8.755,0,0,0,0-3.835h2.391A8.8,8.8,0,0,1,161.345,287.86Z" transform="translate(-158.954 -284.025)" fill="#414042"/></g><g transform="translate(27.134 16.754)"><path d="M156.865,287.444a.471.471,0,1,1-.471-.471A.47.47,0,0,1,156.865,287.444Z" transform="translate(-155.924 -286.973)" fill="#414042"/></g><g transform="translate(24.936 16.754)"><path d="M155.243,287.444a.47.47,0,1,1-.469-.471A.47.47,0,0,1,155.243,287.444Z" transform="translate(-154.303 -286.973)" fill="#414042"/></g><g transform="translate(22.737 16.541)"><path d="M153.622,287.287a.471.471,0,1,1-.471-.471A.471.471,0,0,1,153.622,287.287Z" transform="translate(-152.681 -286.816)" fill="#414042"/></g><g transform="translate(20.537 16.488)"><circle cx="0.47" cy="0.47" r="0.47" fill="#414042"/></g><g transform="translate(18.337 16.285)"><path d="M150.378,287.1a.471.471,0,1,1-.471-.469A.47.47,0,0,1,150.378,287.1Z" transform="translate(-149.437 -286.627)" fill="#414042"/></g><g transform="translate(16.139 16.083)"><path d="M148.756,286.949a.47.47,0,1,1-.471-.471A.471.471,0,0,1,148.756,286.949Z" transform="translate(-147.816 -286.478)" fill="#414042"/></g><g transform="translate(13.94 15.814)"><path d="M147.134,286.751a.47.47,0,1,1-.469-.471A.469.469,0,0,1,147.134,286.751Z" transform="translate(-146.194 -286.28)" fill="#414042"/></g><g transform="translate(11.74 15.548)"><path d="M145.513,286.553a.471.471,0,1,1-.471-.469A.471.471,0,0,1,145.513,286.553Z" transform="translate(-144.572 -286.084)" fill="#414042"/></g><g transform="translate(27.134 12.071)"><path d="M156.865,283.991a.471.471,0,1,0-.471.471A.47.47,0,0,0,156.865,283.991Z" transform="translate(-155.924 -283.52)" fill="#414042"/></g><g transform="translate(24.936 12.071)"><path d="M155.243,283.991a.47.47,0,1,0-.469.471A.47.47,0,0,0,155.243,283.991Z" transform="translate(-154.303 -283.52)" fill="#414042"/></g><g transform="translate(22.737 12.286)"><path d="M153.622,284.149a.471.471,0,1,0-.471.471A.471.471,0,0,0,153.622,284.149Z" transform="translate(-152.681 -283.678)" fill="#414042"/></g><g transform="translate(20.537 12.338)"><path d="M152,284.186a.471.471,0,1,0-.471.471A.47.47,0,0,0,152,284.186Z" transform="translate(-151.059 -283.717)" fill="#414042"/></g><g transform="translate(18.337 12.542)"><path d="M150.378,284.338a.471.471,0,1,0-.471.471A.47.47,0,0,0,150.378,284.338Z" transform="translate(-149.437 -283.867)" fill="#414042"/></g><g transform="translate(16.139 12.744)"><path d="M148.756,284.487a.47.47,0,1,0-.471.469A.47.47,0,0,0,148.756,284.487Z" transform="translate(-147.816 -284.016)" fill="#414042"/></g><g transform="translate(13.94 13.012)"><path d="M147.134,284.685a.47.47,0,1,0-.469.47A.47.47,0,0,0,147.134,284.685Z" transform="translate(-146.194 -284.214)" fill="#414042"/></g><g transform="translate(11.74 13.278)"><path d="M145.513,284.881a.471.471,0,1,0-.471.471A.471.471,0,0,0,145.513,284.881Z" transform="translate(-144.572 -284.41)" fill="#414042"/></g><rect width="15.187" height="1.356" fill="#414042"/><g transform="translate(4.046 2.746)"><rect width="12.241" height="1.356" fill="#414042"/></g><g transform="translate(8.552 5.493)"><rect width="8.552" height="1.356" fill="#414042"/></g><g transform="translate(0 29.231)"><rect width="15.187" height="1.356" fill="#414042"/></g><g transform="translate(4.046 26.485)"><rect width="12.241" height="1.356" fill="#414042"/></g><g transform="translate(8.552 23.738)"><rect width="8.552" height="1.356" fill="#414042"/></g></g><g transform="translate(51.046 328.785)"><g transform="translate(0 0.678)"><path d="M102.8,331.667a3.268,3.268,0,0,0-3.268-3.268,3.214,3.214,0,0,0-1.385.332,4.572,4.572,0,0,0-3.213-2.449,5.184,5.184,0,0,0,.2-.974,5.4,5.4,0,0,0-9.1-3.969,9.939,9.939,0,0,0-19.507-1.968,6.822,6.822,0,0,0-7.972,4.978,6.19,6.19,0,0,0-8.545,5.771,6.067,6.067,0,0,0,.966,3.131H102.33A3.178,3.178,0,0,0,102.8,331.667Z" transform="translate(-50.008 -312.046)" fill="#e6e7e8"/></g><g transform="translate(15.015 21.206)"><rect width="37.776" height="1.356" fill="#414042"/></g><g transform="translate(1.136 21.206)"><rect width="11.206" height="1.356" fill="#414042"/></g><g transform="translate(9.249 7.895)"><path d="M61.774,318.723a5.955,5.955,0,0,1,5.938,5.938,5.841,5.841,0,0,1-.346,1.915,5.9,5.9,0,0,0,.993-3.27,5.956,5.956,0,0,0-5.938-5.938h0a5.941,5.941,0,0,0-5.593,4.023A5.94,5.94,0,0,1,61.774,318.723Z" transform="translate(-56.828 -317.368)" fill="#bcbec0"/></g><g transform="translate(38.635 12.94)"><path d="M83.486,323.846A3.216,3.216,0,0,1,78.5,322.1a3.228,3.228,0,0,0,.59,1.776,3.264,3.264,0,0,0,4.536.78h0a3.256,3.256,0,0,0,1.231-3.569A3.255,3.255,0,0,1,83.486,323.846Z" transform="translate(-78.498 -321.088)" fill="#bcbec0"/></g><g transform="translate(15.864)"><path d="M91.643,325.487H90.287a4.72,4.72,0,0,0-7.962-3.47l-1.036.957-.1-1.408a9.261,9.261,0,0,0-18.177-1.836l-1.307-.362a10.614,10.614,0,0,1,20.684.906,5.962,5.962,0,0,1,3.137-.9A6.123,6.123,0,0,1,91.643,325.487Z" transform="translate(-61.706 -311.546)" fill="#414042"/></g></g><g transform="translate(83.342 277.137)"><g transform="translate(0 0.678)"><path d="M108.38,286.8a2.138,2.138,0,0,0-2.139-2.139,2.1,2.1,0,0,0-.907.217,2.99,2.99,0,0,0-2.1-1.6,3.36,3.36,0,0,0,.129-.637,3.532,3.532,0,0,0-5.955-2.6,6.507,6.507,0,0,0-12.77-1.288,4.463,4.463,0,0,0-5.218,3.259,4.05,4.05,0,0,0-5.593,3.778,3.973,3.973,0,0,0,.631,2.05h33.619A2.081,2.081,0,0,0,108.38,286.8Z" transform="translate(-73.824 -273.96)" fill="#e6e7e8"/></g><g transform="translate(9.827 13.882)"><rect width="24.729" height="1.356" fill="#414042"/></g><g transform="translate(0.743 13.882)"><rect width="7.335" height="1.356" fill="#414042"/></g><g transform="translate(6.054 5.401)"><path d="M81.525,278.33a3.9,3.9,0,0,1,3.888,3.888,3.814,3.814,0,0,1-.228,1.253,3.849,3.849,0,0,0,.651-2.14,3.9,3.9,0,0,0-3.888-3.888h0a3.888,3.888,0,0,0-3.66,2.635A3.886,3.886,0,0,1,81.525,278.33Z" transform="translate(-78.288 -277.443)" fill="#bcbec0"/></g><g transform="translate(25.29 8.705)"><path d="M95.737,281.684a2.135,2.135,0,0,1-2.968-.51,2.073,2.073,0,0,1-.3-.633,2.106,2.106,0,0,0,.386,1.164,2.135,2.135,0,0,0,2.968.511h0a2.129,2.129,0,0,0,.806-2.337A2.128,2.128,0,0,1,95.737,281.684Z" transform="translate(-92.473 -279.879)" fill="#bcbec0"/></g><g transform="translate(10.157)"><path d="M101.371,282.82h-1.356a2.855,2.855,0,0,0-4.817-2.1l-1.037.956-.1-1.406a5.828,5.828,0,0,0-11.44-1.155l-1.307-.362a7.181,7.181,0,0,1,13.93.293,4.125,4.125,0,0,1,1.89-.462A4.243,4.243,0,0,1,101.371,282.82Z" transform="translate(-81.314 -273.46)" fill="#414042"/></g></g><g transform="translate(164.966 327.775)"><g transform="translate(0 0.678)"><path d="M170.6,324.9a2.264,2.264,0,0,0-2.265-2.263,2.238,2.238,0,0,0-.959.229,3.168,3.168,0,0,0-2.227-1.7,3.611,3.611,0,0,0,.136-.675,3.768,3.768,0,0,0-3.767-3.769,3.728,3.728,0,0,0-2.537,1.018,6.889,6.889,0,0,0-13.52-1.364,4.733,4.733,0,0,0-5.525,3.45,4.289,4.289,0,0,0-5.922,4,4.2,4.2,0,0,0,.67,2.17h35.592A2.209,2.209,0,0,0,170.6,324.9Z" transform="translate(-134.014 -311.301)" fill="#e6e7e8"/></g><g transform="translate(10.406 14.697)"><rect width="26.18" height="1.356" fill="#414042"/></g><g transform="translate(0.788 14.697)"><rect width="7.766" height="1.356" fill="#414042"/></g><g transform="translate(6.41 5.679)"><path d="M142.168,315.929a4.127,4.127,0,0,1,4.116,4.116,4.032,4.032,0,0,1-.24,1.326,4.083,4.083,0,0,0,.689-2.266,4.128,4.128,0,0,0-4.116-4.116h0a4.118,4.118,0,0,0-3.876,2.789A4.117,4.117,0,0,1,142.168,315.929Z" transform="translate(-138.741 -314.989)" fill="#bcbec0"/></g><g transform="translate(26.776 9.177)"><path d="M157.216,319.48a2.228,2.228,0,0,1-3.457-1.211,2.239,2.239,0,0,0,.408,1.233,2.263,2.263,0,0,0,3.145.54h0a2.257,2.257,0,0,0,.853-2.474A2.259,2.259,0,0,1,157.216,319.48Z" transform="translate(-153.759 -317.568)" fill="#bcbec0"/></g><g transform="translate(10.793)"><path d="M163.129,320.669h-1.356a3.062,3.062,0,0,0-5.167-2.251l-1.037.957-.1-1.408a6.21,6.21,0,0,0-12.19-1.231l-1.307-.363a7.564,7.564,0,0,1,14.682.361,4.336,4.336,0,0,1,2.029-.51A4.451,4.451,0,0,1,163.129,320.669Z" transform="translate(-141.973 -310.801)" fill="#414042"/></g></g><g transform="translate(69.413 395.352)"><g transform="translate(0.678 0.678)"><path d="M78.763,368.49a7.355,7.355,0,1,1-7.355-7.357A7.356,7.356,0,0,1,78.763,368.49Z" transform="translate(-64.052 -361.133)" fill="#fff"/></g><g transform="translate(4.35 4.352)"><path d="M74.126,367.525a3.683,3.683,0,1,1-3.683-3.683A3.683,3.683,0,0,1,74.126,367.525Z" transform="translate(-66.76 -363.842)" fill="#e7643e"/></g><path d="M71.585,376.7a8.034,8.034,0,1,1,8.033-8.033A8.042,8.042,0,0,1,71.585,376.7Zm0-14.712a6.678,6.678,0,1,0,6.677,6.679A6.685,6.685,0,0,0,71.585,361.989Z" transform="translate(-63.552 -360.633)" fill="#414042"/><g transform="translate(7.355 8.035)"><rect width="1.356" height="33.139" fill="#414042"/></g><g transform="translate(3.403 21.525)"><rect width="1.356" height="5.864" transform="translate(0 0.959) rotate(-45)" fill="#414042"/></g><g transform="translate(7.568 27.08)"><rect width="5.864" height="1.356" transform="translate(0 4.146) rotate(-45)" fill="#414042"/></g></g><g transform="translate(51.36 405.461)"><g transform="translate(0.677 0.678)"><circle cx="5.52" cy="5.52" r="5.52" fill="#fff"/></g><g transform="translate(3.433 3.434)"><circle cx="2.764" cy="2.764" r="2.764" fill="#e7643e"/></g><path d="M56.437,380.484a6.2,6.2,0,1,1,6.2-6.2A6.2,6.2,0,0,1,56.437,380.484Zm0-11.04a4.842,4.842,0,1,0,4.841,4.841A4.847,4.847,0,0,0,56.437,369.444Z" transform="translate(-50.24 -368.088)" fill="#414042"/><g transform="translate(5.519 6.198)"><rect width="1.356" height="24.867" fill="#414042"/></g><g transform="translate(2.602 16.202)"><rect width="1.356" height="4.4" transform="matrix(0.707, -0.707, 0.707, 0.707, 0, 0.959)" fill="#414042"/></g><g transform="translate(5.728 20.369)"><rect width="4.4" height="1.356" transform="translate(0 3.111) rotate(-44.996)" fill="#414042"/></g></g><g transform="translate(199.945 405.461)"><g transform="translate(0.678 0.678)"><path d="M171.347,374.107a5.519,5.519,0,1,1-5.519-5.519A5.52,5.52,0,0,1,171.347,374.107Z" transform="translate(-160.308 -368.588)" fill="#fff"/></g><g transform="translate(3.434 3.435)"><path d="M167.867,373.383a2.764,2.764,0,1,1-2.764-2.762A2.764,2.764,0,0,1,167.867,373.383Z" transform="translate(-162.34 -370.621)" fill="#e7643e"/></g><path d="M166.005,380.484a6.2,6.2,0,1,1,6.2-6.2A6.2,6.2,0,0,1,166.005,380.484Zm0-11.04a4.842,4.842,0,1,0,4.843,4.841A4.848,4.848,0,0,0,166.005,369.444Z" transform="translate(-159.808 -368.088)" fill="#414042"/><g transform="translate(5.52 6.198)"><rect width="1.356" height="24.867" fill="#414042"/></g><g transform="translate(2.603 16.202)"><rect width="1.356" height="4.4" transform="matrix(0.707, -0.707, 0.707, 0.707, 0, 0.959)" fill="#414042"/></g><g transform="translate(5.73 20.369)"><rect width="4.4" height="1.356" transform="translate(0 3.111) rotate(-44.996)" fill="#414042"/></g></g><g transform="translate(177.726 395.352)"><g transform="translate(0.678 0.678)"><path d="M158.636,368.49a7.356,7.356,0,1,1-7.357-7.357A7.357,7.357,0,0,1,158.636,368.49Z" transform="translate(-143.924 -361.133)" fill="#fff"/></g><g transform="translate(4.351 4.351)"><circle cx="3.683" cy="3.683" r="3.683" fill="#e7643e"/></g><path d="M151.457,376.7a8.034,8.034,0,1,1,8.035-8.033A8.043,8.043,0,0,1,151.457,376.7Zm0-14.712a6.678,6.678,0,1,0,6.679,6.679A6.685,6.685,0,0,0,151.457,361.989Z" transform="translate(-143.424 -360.633)" fill="#414042"/><g transform="translate(7.356 8.035)"><rect width="1.356" height="33.139" fill="#414042"/></g><g transform="translate(3.403 21.525)"><rect width="1.356" height="5.864" transform="matrix(0.707, -0.707, 0.707, 0.707, 0, 0.959)" fill="#414042"/></g><g transform="translate(7.569 27.08)"><rect width="5.864" height="1.356" transform="translate(0 4.146) rotate(-45)" fill="#414042"/></g></g><g transform="translate(169.978 366.506)"><path d="M140.933,346.731h-1.356a3.2,3.2,0,0,0-.555-.311c-.523-.258-1.313-.645-1.313-1.526s.789-1.271,1.313-1.527a2.157,2.157,0,0,0,.564-.34l-.564-.275c-.522-.258-1.313-.646-1.313-1.526s.791-1.269,1.313-1.526a2.173,2.173,0,0,0,.564-.339l1.347.031c0,.88-.791,1.269-1.313,1.526a2.135,2.135,0,0,0-.564.339l.564.275c.522.258,1.313.646,1.313,1.526s-.789,1.271-1.313,1.527a2.159,2.159,0,0,0-.564.34c.056.029.374.185.564.277C140.143,345.462,140.933,345.85,140.933,346.731Z" transform="translate(-137.71 -339.362)" fill="#414042"/></g><g transform="translate(99.609 329.348)"><path d="M89.044,319.331H87.688a3.35,3.35,0,0,0-.556-.312c-.522-.256-1.313-.644-1.313-1.526s.791-1.269,1.313-1.527a2.064,2.064,0,0,0,.564-.34c-.056-.026-.373-.182-.564-.275-.522-.256-1.313-.644-1.313-1.526s.791-1.268,1.313-1.526a2.077,2.077,0,0,0,.564-.339l1.348.033c0,.88-.791,1.268-1.314,1.526a2.123,2.123,0,0,0-.564.339c.057.026.374.182.564.275.523.256,1.314.644,1.314,1.526s-.791,1.269-1.314,1.527a2.052,2.052,0,0,0-.563.34c.056.027.373.184.563.277C88.253,318.061,89.044,318.449,89.044,319.331Z" transform="translate(-85.819 -311.961)" fill="#414042"/></g><g transform="translate(124.135 272.841)"><path d="M107.13,277.662h-1.356a3.344,3.344,0,0,0-.556-.312c-.522-.256-1.313-.644-1.313-1.526s.791-1.269,1.313-1.527a2.062,2.062,0,0,0,.564-.34c-.056-.026-.373-.182-.564-.275-.522-.256-1.313-.644-1.313-1.526s.791-1.268,1.313-1.526a2.078,2.078,0,0,0,.564-.339l1.348.033c0,.88-.791,1.268-1.314,1.526a2.121,2.121,0,0,0-.564.339c.057.026.374.183.564.275.523.256,1.314.644,1.314,1.526s-.791,1.269-1.314,1.527a2.055,2.055,0,0,0-.563.34c.056.027.373.184.563.277C106.339,276.392,107.13,276.781,107.13,277.662Z" transform="translate(-103.905 -270.292)" fill="#414042"/></g><g transform="translate(218.994 354.608)"><path d="M175.933,334.743a2.078,2.078,0,1,1,2.078-2.079A2.081,2.081,0,0,1,175.933,334.743Zm0-2.8a.721.721,0,1,0,.721.72A.723.723,0,0,0,175.933,331.944Z" transform="translate(-173.855 -330.588)" fill="#414042"/></g><g transform="translate(60.999 295.725)"><path d="M59.426,291.322a2.078,2.078,0,1,1,2.078-2.076A2.079,2.079,0,0,1,59.426,291.322Zm0-2.8a.721.721,0,1,0,.721.723A.723.723,0,0,0,59.426,288.523Z" transform="translate(-57.348 -287.167)" fill="#414042"/></g><g transform="translate(136.69 272.945)"><path d="M113.163,277.563v-7.194l6.231,3.6Zm1.356-4.845v2.5l2.163-1.249Z" transform="translate(-113.163 -270.369)" fill="#414042"/></g><g transform="translate(76.759 366.609)"><path d="M68.969,346.632v-7.194l6.23,3.6Zm1.356-4.845v2.5l2.162-1.248Z" transform="translate(-68.969 -339.438)" fill="#414042"/></g><g transform="translate(145.776 263.134)"><path d="M128.3,272.875,119.863,268l8.435-4.87ZM122.575,268l4.367,2.521v-5.041Z" transform="translate(-119.863 -263.134)" fill="#414042"/></g><g transform="translate(173.562 356.007)"><rect width="34.347" height="1.356" fill="#414042"/><g transform="translate(35.811)"><rect width="2.967" height="1.356" fill="#414042"/></g><g transform="translate(40.207)"><rect width="2.967" height="1.356" fill="#414042"/></g></g><g transform="translate(53.781 310.195)"><rect width="34.347" height="1.356" fill="#414042"/><g transform="translate(35.811)"><rect width="2.967" height="1.356" fill="#414042"/></g><g transform="translate(40.207)"><rect width="2.967" height="1.356" fill="#414042"/></g></g><g transform="translate(98.694 308.347)"><g transform="translate(0 1.847)"><rect width="5.053" height="1.356" fill="#414042"/></g><g transform="translate(1.849)"><rect width="1.356" height="5.052" fill="#414042"/></g></g><g transform="translate(173.984 318.504)"><g transform="translate(0 1.273)"><rect width="3.901" height="1.356" fill="#414042"/></g><g transform="translate(1.273)"><rect width="1.356" height="3.9" fill="#414042"/></g></g><g transform="translate(188.208 370.679)"><g transform="translate(0 1.273)"><rect width="3.9" height="1.356" fill="#414042"/></g><g transform="translate(1.272)"><rect width="1.356" height="3.9" fill="#414042"/></g></g><g transform="translate(156.579 340.776)"><g transform="translate(0 1.271)"><rect width="3.901" height="1.356" fill="#414042"/></g><g transform="translate(1.273)"><rect width="1.356" height="3.9" fill="#414042"/></g></g><g transform="translate(73.418 277.437)"><g transform="translate(0 1.271)"><rect width="3.9" height="1.356" fill="#414042"/></g><g transform="translate(1.272)"><rect width="1.356" height="3.9" fill="#414042"/></g></g><g transform="translate(193.716 317.644)"><rect width="20.052" height="1.356" fill="#414042"/></g><g transform="translate(38.378 316.594)"><rect width="39.211" height="1.356" fill="#414042"/></g><g transform="translate(71.471 359.341)"><rect width="39.211" height="1.356" fill="#414042"/></g></g></svg>