<svg xmlns="http://www.w3.org/2000/svg" width="357.903" height="243.598" viewBox="0 0 357.903 243.598"><g transform="translate(-39 -31.053)"><g transform="translate(139.818 185.596)"><g transform="translate(0.84 0.84)"><rect width="23.524" height="47.048" fill="#d1d1d1"/></g><path d="M183.364,263.729H159.84a.84.84,0,0,1-.84-.84V215.84a.84.84,0,0,1,.84-.84h23.524a.84.84,0,0,1,.84.84v47.048A.84.84,0,0,1,183.364,263.729Zm-22.684-1.68h21.844V216.68H160.68Z" transform="translate(-159 -215)" fill="#020210"/><g transform="translate(0 6.721)"><path d="M183.364,224.68H159.84a.84.84,0,0,1,0-1.68h23.524a.84.84,0,0,1,0,1.68Z" transform="translate(-159 -223)" fill="#020210"/></g><g transform="translate(0 40.327)"><path d="M183.364,264.68H159.84a.84.84,0,1,1,0-1.68h23.524a.84.84,0,1,1,0,1.68Z" transform="translate(-159 -263)" fill="#020210"/></g><g transform="translate(0 10.082)"><path d="M183.364,228.68H159.84a.84.84,0,0,1,0-1.68h23.524a.84.84,0,0,1,0,1.68Z" transform="translate(-159 -227)" fill="#020210"/></g><g transform="translate(0 13.442)"><path d="M183.364,232.68H159.84a.84.84,0,0,1,0-1.68h23.524a.84.84,0,0,1,0,1.68Z" transform="translate(-159 -231)" fill="#020210"/></g><g transform="translate(0 16.803)"><path d="M183.364,236.68H159.84a.84.84,0,0,1,0-1.68h23.524a.84.84,0,0,1,0,1.68Z" transform="translate(-159 -235)" fill="#020210"/></g><g transform="translate(8.401 30.245)"><path d="M173.2,259.4a4.2,4.2,0,1,1,4.2-4.2A4.206,4.206,0,0,1,173.2,259.4Zm0-6.721a2.52,2.52,0,1,0,2.52,2.52A2.524,2.524,0,0,0,173.2,252.68Z" transform="translate(-169 -251)" fill="#020210"/></g><g transform="translate(0 26.885)"><path d="M183.364,248.68H159.84a.84.84,0,0,1,0-1.68h23.524a.84.84,0,0,1,0,1.68Z" transform="translate(-159 -247)" fill="#020210"/></g></g><g transform="translate(79.327 185.596)"><g transform="translate(14.283 44.528)"><rect width="26.885" height="3.361" fill="#d1d1d1"/></g><g transform="translate(21.004 37.807)"><rect width="13.442" height="6.721" fill="#d1d1d1"/></g><g transform="translate(0.84 0.84)"><rect width="53.77" height="36.967" fill="#d1d1d1"/></g><path d="M141.61,253.647H87.84a.84.84,0,0,1-.84-.84V215.84a.84.84,0,0,1,.84-.84h53.77a.84.84,0,0,1,.84.84v36.967A.84.84,0,0,1,141.61,253.647Zm-52.929-1.68H140.77V216.68H88.68Z" transform="translate(-87 -215)" fill="#020210"/><g transform="translate(3.361 3.361)"><rect width="47.048" height="30.245" transform="translate(0.84 0.84)" fill="#fff"/><path d="M138.888,250.926H91.84a.84.84,0,0,1-.84-.84V219.84a.84.84,0,0,1,.84-.84h47.048a.84.84,0,0,1,.84.84v30.245A.84.84,0,0,1,138.888,250.926Zm-46.208-1.68h45.368V220.68H92.68Z" transform="translate(-91 -219)" fill="#020210"/></g><g transform="translate(6.721 30.245)"><path d="M135.327,251.84a.843.843,0,0,1,.84-.84h0a.843.843,0,0,1,.84.84h0a.843.843,0,0,1-.84.84h0A.843.843,0,0,1,135.327,251.84Zm-3.361,0a.843.843,0,0,1,.84-.84h0a.843.843,0,0,1,.84.84h0a.843.843,0,0,1-.84.84h0A.843.843,0,0,1,131.967,251.84Zm-3.361,0a.843.843,0,0,1,.84-.84h0a.843.843,0,0,1,.84.84h0a.843.843,0,0,1-.84.84h0A.843.843,0,0,1,128.606,251.84Zm-3.361,0a.843.843,0,0,1,.84-.84h0a.843.843,0,0,1,.84.84h0a.843.843,0,0,1-.84.84h0A.843.843,0,0,1,125.245,251.84Zm-3.361,0a.843.843,0,0,1,.84-.84h0a.843.843,0,0,1,.84.84h0a.843.843,0,0,1-.84.84h0A.843.843,0,0,1,121.885,251.84Zm-3.361,0a.843.843,0,0,1,.84-.84h0a.843.843,0,0,1,.84.84h0a.843.843,0,0,1-.84.84h0A.843.843,0,0,1,118.524,251.84Zm-3.361,0A.843.843,0,0,1,116,251h0a.843.843,0,0,1,.84.84h0a.843.843,0,0,1-.84.84h0A.843.843,0,0,1,115.164,251.84Zm-3.361,0a.843.843,0,0,1,.84-.84h0a.843.843,0,0,1,.84.84h0a.843.843,0,0,1-.84.84h0A.843.843,0,0,1,111.8,251.84Zm-3.361,0a.843.843,0,0,1,.84-.84h0a.843.843,0,0,1,.84.84h0a.843.843,0,0,1-.84.84h0A.843.843,0,0,1,108.442,251.84Zm-3.361,0a.843.843,0,0,1,.84-.84h0a.843.843,0,0,1,.84.84h0a.843.843,0,0,1-.84.84h0A.843.843,0,0,1,105.082,251.84Zm-3.361,0a.843.843,0,0,1,.84-.84h0a.843.843,0,0,1,.84.84h0a.843.843,0,0,1-.84.84h0A.843.843,0,0,1,101.721,251.84Zm-3.361,0a.843.843,0,0,1,.84-.84h0a.843.843,0,0,1,.84.84h0a.843.843,0,0,1-.84.84h0A.843.843,0,0,1,98.361,251.84Zm-3.361,0a.843.843,0,0,1,.84-.84h0a.843.843,0,0,1,.84.84h0a.843.843,0,0,1-.84.84h0A.843.843,0,0,1,95,251.84Z" transform="translate(-95 -251)" fill="#020210"/></g><g transform="translate(7.561 7.561)"><rect width="3.361" height="3.361" fill="#50ba94"/><g transform="translate(0 6.721)"><rect width="3.361" height="3.361" fill="#d2e63e"/></g><g transform="translate(0 13.442)"><rect width="3.361" height="3.361" fill="#50ba94"/></g><g transform="translate(36.967)"><rect width="3.361" height="3.361" fill="#50ba94"/></g><g transform="translate(30.245)"><rect width="3.361" height="3.361" fill="#d2e63e"/></g></g><g transform="translate(13.442 43.688)"><path d="M130.725,272.041H103.84a.84.84,0,0,1-.84-.84V267.84a.84.84,0,0,1,.84-.84h26.885a.84.84,0,0,1,.84.84V271.2A.84.84,0,0,1,130.725,272.041Zm-26.045-1.68h25.2v-1.68h-25.2Z" transform="translate(-103 -267)" fill="#020210"/></g><g transform="translate(20.164 36.967)"><path d="M111.84,267.4a.84.84,0,0,1-.84-.84V259.84a.84.84,0,0,1,1.68,0v6.721A.84.84,0,0,1,111.84,267.4Z" transform="translate(-111 -259)" fill="#020210"/></g><g transform="translate(33.606 36.967)"><path d="M127.84,267.4a.84.84,0,0,1-.84-.84V259.84a.84.84,0,0,1,1.68,0v6.721A.84.84,0,0,1,127.84,267.4Z" transform="translate(-127 -259)" fill="#020210"/></g><g transform="translate(6.721 6.721)"><path d="M99.2,228.041H95.84a.84.84,0,0,1-.84-.84V223.84a.84.84,0,0,1,.84-.84H99.2a.84.84,0,0,1,.84.84V227.2A.84.84,0,0,1,99.2,228.041Zm-2.52-1.68h1.68v-1.68H96.68Z" transform="translate(-95 -223)" fill="#020210"/><g transform="translate(0 6.721)"><path d="M99.2,236.041H95.84a.84.84,0,0,1-.84-.84V231.84a.84.84,0,0,1,.84-.84H99.2a.84.84,0,0,1,.84.84V235.2A.84.84,0,0,1,99.2,236.041Zm-2.52-1.68h1.68v-1.68H96.68Z" transform="translate(-95 -231)" fill="#020210"/></g><g transform="translate(0 13.442)"><path d="M99.2,244.041H95.84a.84.84,0,0,1-.84-.84V239.84a.84.84,0,0,1,.84-.84H99.2a.84.84,0,0,1,.84.84V243.2A.84.84,0,0,1,99.2,244.041Zm-2.52-1.68h1.68v-1.68H96.68Z" transform="translate(-95 -239)" fill="#020210"/></g><g transform="translate(36.967)"><path d="M143.2,228.041H139.84a.84.84,0,0,1-.84-.84V223.84a.84.84,0,0,1,.84-.84H143.2a.84.84,0,0,1,.84.84V227.2A.84.84,0,0,1,143.2,228.041Zm-2.52-1.68h1.68v-1.68h-1.68Z" transform="translate(-139 -223)" fill="#020210"/></g><g transform="translate(30.245)"><path d="M135.2,228.041H131.84a.84.84,0,0,1-.84-.84V223.84a.84.84,0,0,1,.84-.84H135.2a.84.84,0,0,1,.84.84V227.2A.84.84,0,0,1,135.2,228.041Zm-2.52-1.68h1.68v-1.68h-1.68Z" transform="translate(-131 -223)" fill="#020210"/></g></g></g><g transform="translate(123.855 149.47)"><g transform="translate(0 20.164)"><rect width="3.361" height="6.721" fill="#d1d1d1"/></g><g transform="translate(6.721 3.361)"><rect width="3.361" height="23.524" fill="#d2e63e"/></g><g transform="translate(20.164)"><rect width="3.361" height="26.885" fill="#50ba94"/></g></g><g transform="translate(88.569 149.47)"><g transform="translate(8.401 0.605)"><path d="M115.508,176.763a8.417,8.417,0,0,0-4.391-4.043l-3.118,7.8Z" transform="translate(-108 -172.72)" fill="#d1d1d1"/></g><g transform="translate(8.401)"><path d="M111.118,172.6A8.363,8.363,0,0,0,108,172v8.4Z" transform="translate(-108 -172)" fill="#fff"/></g><g transform="translate(8.401 4.648)"><path d="M115.508,177.532,108,181.286l5.941,5.94a8.376,8.376,0,0,0,1.568-9.694Z" transform="translate(-108 -177.532)" fill="#d2e63e"/></g><path d="M106.4,172a8.4,8.4,0,1,0,5.941,14.341L106.4,180.4Z" transform="translate(-98 -172)" fill="#50ba94"/></g><g transform="translate(157.461 105.782)"><rect width="47.048" height="73.933" fill="#d1d1d1"/><g transform="translate(16.803 30.245)"><rect width="13.442" height="3.361" fill="#50ba94"/></g><g transform="translate(16.803 6.721)"><rect width="13.442" height="3.361" fill="#d2e63e"/></g><g transform="translate(16.803 53.77)"><rect width="13.442" height="3.361" fill="#fff"/></g></g><g transform="translate(211.23 172.994)"><rect width="53.77" height="6.721" fill="#d1d1d1"/></g><g transform="translate(219.632 149.47)"><rect width="10.082" height="6.721" fill="#d2e63e"/></g><g transform="translate(233.074 149.47)"><rect width="10.082" height="6.721" transform="translate(0)" fill="#d2e63e"/></g><g transform="translate(246.517 149.47)"><rect width="10.082" height="6.721" fill="#d2e63e"/></g><g transform="translate(211.23 99.061)"><path d="M297.77,112H244a3.359,3.359,0,0,0,3.361,3.361h47.048A3.359,3.359,0,0,0,297.77,112Z" transform="translate(-244 -112)" fill="#d1d1d1"/></g><g transform="translate(217.952 72.176)"><path d="M252,106.885V81.68A1.685,1.685,0,0,1,253.68,80h36.967a1.685,1.685,0,0,1,1.68,1.68v25.2h-3.361V83.361H255.361v23.524Z" transform="translate(-252 -80)" fill="#d1d1d1"/></g><g transform="translate(211.23 129.306)"><rect width="53.77" height="13.442" fill="#50ba94"/></g><g transform="translate(211.23 109.142)"><rect width="53.77" height="3.361" fill="#d1d1d1"/></g><g transform="translate(271.721 230.124)"><rect width="43.688" height="3.361" fill="#50ba94"/></g><g transform="translate(270.041 220.042)"><rect width="48.729" height="6.721" transform="translate(0)" fill="#d1d1d1"/></g><g transform="translate(271.721 179.715)"><path d="M336.164,211.361V208H322.721v3.361H316v33.606h47.048V211.361Z" transform="translate(-316 -208)" fill="#d2e63e"/></g><g transform="translate(325.491 129.306)"><path d="M413.606,148a3.359,3.359,0,0,1,3.361,3.361v36.967a3.359,3.359,0,0,1-3.361,3.361H380V148Z" transform="translate(-380 -148)" fill="#50ba94"/></g><g transform="translate(271.721 72.176)"><rect width="47.048" height="30.245" fill="#d1d1d1"/></g><g transform="translate(157.461 72.176)"><rect width="47.048" height="26.885" fill="#d2e63e"/></g><g transform="translate(274.241 155.35)"><path d="M319.84,194.123a.84.84,0,0,1-.594-1.434l13.442-13.442a.84.84,0,1,1,1.188,1.188l-13.442,13.442A.838.838,0,0,1,319.84,194.123Z" transform="translate(-319 -179)" fill="#020210"/><g transform="translate(13.442)"><path d="M349.283,194.123a.838.838,0,0,1-.594-.246l-13.442-13.442a.84.84,0,0,1,1.188-1.188l13.442,13.442a.84.84,0,0,1-.594,1.434Z" transform="translate(-335 -179)" fill="#020210"/></g><g transform="translate(26.885)"><path d="M351.84,194.123a.84.84,0,0,1-.594-1.434l13.442-13.442a.84.84,0,0,1,1.188,1.188l-13.442,13.442A.838.838,0,0,1,351.84,194.123Z" transform="translate(-351 -179)" fill="#020210"/></g></g><g transform="translate(210.39 98.221)"><path d="M294.249,116.041H247.2a4.206,4.206,0,0,1-4.2-4.2.84.84,0,0,1,.84-.84h53.77a.84.84,0,0,1,.84.84A4.206,4.206,0,0,1,294.249,116.041Zm-49.425-3.361a2.525,2.525,0,0,0,2.377,1.68h47.048a2.525,2.525,0,0,0,2.377-1.68Z" transform="translate(-243 -111)" fill="#020210"/></g><g transform="translate(217.112 71.336)"><path d="M292.167,107.565h-3.361a.84.84,0,0,1-.84-.84V84.041H256.041v22.684a.84.84,0,1,1-1.68,0V83.2a.84.84,0,0,1,.84-.84h33.606a.84.84,0,0,1,.84.84v22.684h1.68V81.52a.841.841,0,0,0-.84-.84H253.52a.842.842,0,0,0-.84.84v25.2a.84.84,0,1,1-1.68,0V81.52A2.524,2.524,0,0,1,253.52,79h36.967a2.524,2.524,0,0,1,2.52,2.52v25.2A.84.84,0,0,1,292.167,107.565Z" transform="translate(-251 -79)" fill="#020210"/></g><g transform="translate(79.327 135.187)"><path d="M121.446,200.368H87.84a.84.84,0,0,1-.84-.84V155.84a.84.84,0,0,1,.84-.84h26.885a.839.839,0,0,1,.594.246l6.721,6.721a.842.842,0,0,1,.246.594v36.967A.84.84,0,0,1,121.446,200.368Zm-32.766-1.68h31.926V162.909l-6.229-6.229H88.68Z" transform="translate(-87 -155)" fill="#020210"/></g><g transform="translate(106.212 135.187)"><path d="M119.84,163.4a.84.84,0,0,1-.84-.84V155.84a.84.84,0,0,1,1.68,0v6.721A.84.84,0,0,1,119.84,163.4Z" transform="translate(-119 -155)" fill="#020210"/></g><g transform="translate(106.212 141.908)"><path d="M126.561,164.68H119.84a.84.84,0,0,1,0-1.68h6.721a.84.84,0,0,1,0,1.68Z" transform="translate(-119 -163)" fill="#020210"/></g><g transform="translate(87.729 148.629)"><path d="M106.242,189.483a9.242,9.242,0,1,1,9.242-9.242A9.253,9.253,0,0,1,106.242,189.483Zm0-16.8a7.561,7.561,0,1,0,7.561,7.561A7.57,7.57,0,0,0,106.242,172.68Z" transform="translate(-97 -171)" fill="#020210"/><g transform="translate(8.401)"><path d="M107.84,181.082a.84.84,0,0,1-.84-.84v-8.4a.84.84,0,0,1,1.68,0v8.4A.84.84,0,0,1,107.84,181.082Z" transform="translate(-107 -171)" fill="#020210"/></g><g transform="translate(8.401 8.401)"><path d="M113.766,188.6a.838.838,0,0,1-.594-.246l-5.926-5.925a.84.84,0,1,1,1.188-1.188l5.926,5.925a.84.84,0,0,1-.594,1.434Z" transform="translate(-107 -181)" fill="#020210"/></g><g transform="translate(8.401 1.399)"><path d="M107.839,181.348a.827.827,0,0,1-.311-.06.84.84,0,0,1-.469-1.092l2.8-7a.84.84,0,0,1,1.561.623l-2.8,7A.841.841,0,0,1,107.839,181.348Z" transform="translate(-106.999 -172.666)" fill="#020210"/></g><g transform="translate(8.401 4.901)"><path d="M107.841,182.014a.84.84,0,0,1-.376-1.592l7-3.5a.84.84,0,0,1,.751,1.5l-7,3.5A.842.842,0,0,1,107.841,182.014Z" transform="translate(-106.999 -176.834)" fill="#020210"/></g></g><g transform="translate(79.327 111.663)"><g transform="translate(7.561 7.561)"><ellipse cx="1.68" cy="1.68" rx="1.68" ry="1.68" fill="#50ba94"/></g><g transform="translate(19.323 0.84)"><path d="M116.721,128H110a8.4,8.4,0,1,1,0,16.8h6.721a8.4,8.4,0,1,0,0-16.8Z" transform="translate(-110 -128)" fill="#d1d1d1"/></g><path d="M113.045,145.483h-16.8a9.242,9.242,0,0,1,0-18.483h16.8a9.242,9.242,0,0,1,0,18.483Zm-16.8-16.8a7.561,7.561,0,1,0,0,15.123h16.8a7.561,7.561,0,1,0,0-15.123Z" transform="translate(-87 -127)" fill="#020210"/><g transform="translate(18.483)"><path d="M109.84,145.483a.84.84,0,1,1,0-1.68,7.561,7.561,0,0,0,0-15.123.84.84,0,1,1,0-1.68,9.242,9.242,0,0,1,0,18.483Z" transform="translate(-109 -127)" fill="#020210"/></g><g transform="translate(6.721 6.721)"><path d="M97.52,140.041a2.52,2.52,0,1,1,2.52-2.52A2.524,2.524,0,0,1,97.52,140.041Zm0-3.361a.84.84,0,1,0,.84.84A.842.842,0,0,0,97.52,136.68Z" transform="translate(-95 -135)" fill="#020210"/></g></g><g transform="translate(79.327 71.336)"><g transform="translate(0.84 0.84)"><ellipse cx="16.803" cy="16.803" rx="16.803" ry="16.803" fill="#50ba94"/></g><path d="M104.643,114.286a17.643,17.643,0,1,1,17.643-17.643A17.663,17.663,0,0,1,104.643,114.286Zm0-33.606a15.963,15.963,0,1,0,15.963,15.963A15.981,15.981,0,0,0,104.643,80.68Z" transform="translate(-87 -79)" fill="#020210"/><g transform="translate(16.803)"><path d="M107.84,114.286a.84.84,0,0,1-.84-.84V79.84a.84.84,0,0,1,1.68,0v33.606A.84.84,0,0,1,107.84,114.286Z" transform="translate(-107 -79)" fill="#020210"/></g><g transform="translate(8.401)"><path d="M106.242,114.286c-5.183,0-9.242-7.75-9.242-17.643S101.059,79,106.242,79s9.242,7.75,9.242,17.643S111.424,114.286,106.242,114.286Zm0-33.606c-4.1,0-7.561,7.31-7.561,15.963s3.463,15.963,7.561,15.963,7.561-7.31,7.561-15.963S110.34,80.68,106.242,80.68Z" transform="translate(-97 -79)" fill="#020210"/></g><g transform="translate(0 16.803)"><path d="M121.446,100.68H87.84a.84.84,0,1,1,0-1.68h33.606a.84.84,0,0,1,0,1.68Z" transform="translate(-87 -99)" fill="#020210"/></g><g transform="translate(2.52 25.204)"><path d="M119.405,110.68H90.84a.84.84,0,1,1,0-1.68h28.565a.84.84,0,1,1,0,1.68Z" transform="translate(-90 -109)" fill="#020210"/></g><g transform="translate(2.52 8.401)"><path d="M119.405,90.68H90.84a.84.84,0,1,1,0-1.68h28.565a.84.84,0,1,1,0,1.68Z" transform="translate(-90 -89)" fill="#020210"/></g></g><g transform="translate(119.654 71.336)"><path d="M166.085,87.4a.84.84,0,0,1-.84-.84c0-2.84-5.739-5.881-14.283-5.881s-14.283,3.041-14.283,5.881a.84.84,0,1,1-1.68,0c0-4.24,7.012-7.561,15.963-7.561s15.963,3.321,15.963,7.561A.84.84,0,0,1,166.085,87.4Z" transform="translate(-135 -79)" fill="#020210"/><g transform="translate(0 6.721)"><path d="M150.963,102.123c-8.951,0-15.963-3.321-15.963-7.561V87.84a.84.84,0,1,1,1.68,0,3.751,3.751,0,0,0,1.711,2.694c2.562,1.965,7.379,3.187,12.571,3.187s10.01-1.222,12.571-3.187a3.751,3.751,0,0,0,1.711-2.694.84.84,0,1,1,1.68,0v6.721C166.926,98.8,159.914,102.123,150.963,102.123ZM136.68,91.281v3.281c0,2.84,5.739,5.881,14.283,5.881s14.283-3.041,14.283-5.881V91.281a8.3,8.3,0,0,1-.688.586c-2.884,2.213-7.966,3.535-13.594,3.535s-10.71-1.322-13.594-3.535A8.164,8.164,0,0,1,136.68,91.281Z" transform="translate(-135 -87)" fill="#020210"/></g><g transform="translate(0 20.164)"><path d="M150.963,118.123c-8.951,0-15.963-3.321-15.963-7.561V103.84a.84.84,0,1,1,1.68,0,3.751,3.751,0,0,0,1.711,2.694c2.562,1.965,7.379,3.187,12.571,3.187s10.01-1.222,12.571-3.187a3.751,3.751,0,0,0,1.711-2.694.84.84,0,1,1,1.68,0v6.721C166.926,114.8,159.914,118.123,150.963,118.123ZM136.68,107.281v3.281c0,2.84,5.739,5.881,14.283,5.881s14.283-3.041,14.283-5.881v-3.281a8.3,8.3,0,0,1-.688.586c-2.884,2.213-7.966,3.535-13.594,3.535s-10.71-1.322-13.594-3.535A8.164,8.164,0,0,1,136.68,107.281Z" transform="translate(-135 -103)" fill="#020210"/></g><g transform="translate(30.245 13.442)"><path d="M171.84,103.4a.84.84,0,0,1-.84-.84V95.84a.84.84,0,1,1,1.68,0v6.721A.84.84,0,0,1,171.84,103.4Z" transform="translate(-171 -95)" fill="#020210"/></g><g transform="translate(0 13.442)"><path d="M135.84,103.4a.84.84,0,0,1-.84-.84V95.84a.84.84,0,1,1,1.68,0v6.721A.84.84,0,0,1,135.84,103.4Z" transform="translate(-135 -95)" fill="#020210"/></g></g><g transform="translate(119.654 148.629)"><g transform="translate(0 30.245)"><g transform="translate(0 0.01)"><path d="M135.84,208.682a.883.883,0,0,1-.6-.244.852.852,0,0,1,0-1.193.88.88,0,0,1,1.193,0,.852.852,0,0,1,0,1.193A.883.883,0,0,1,135.84,208.682Z" transform="translate(-135 -207.012)" fill="#020210"/></g><g transform="translate(3.361)"><path d="M162.524,207.84a.843.843,0,0,1,.84-.84h0a.843.843,0,0,1,.84.84h0a.843.843,0,0,1-.84.84h0A.843.843,0,0,1,162.524,207.84Zm-3.361,0A.843.843,0,0,1,160,207h0a.843.843,0,0,1,.84.84h0a.843.843,0,0,1-.84.84h0A.843.843,0,0,1,159.164,207.84Zm-3.361,0a.843.843,0,0,1,.84-.84h0a.843.843,0,0,1,.84.84h0a.843.843,0,0,1-.84.84h0A.843.843,0,0,1,155.8,207.84Zm-3.361,0a.843.843,0,0,1,.84-.84h0a.843.843,0,0,1,.84.84h0a.843.843,0,0,1-.84.84h0A.843.843,0,0,1,152.442,207.84Zm-3.361,0a.843.843,0,0,1,.84-.84h0a.843.843,0,0,1,.84.84h0a.843.843,0,0,1-.84.84h0A.843.843,0,0,1,149.082,207.84Zm-3.361,0a.843.843,0,0,1,.84-.84h0a.843.843,0,0,1,.84.84h0a.843.843,0,0,1-.84.84h0A.843.843,0,0,1,145.721,207.84Zm-3.361,0a.843.843,0,0,1,.84-.84h0a.843.843,0,0,1,.84.84h0a.843.843,0,0,1-.84.84h0A.843.843,0,0,1,142.361,207.84Zm-3.361,0a.843.843,0,0,1,.84-.84h0a.843.843,0,0,1,.84.84h0a.843.843,0,0,1-.84.84h0A.843.843,0,0,1,139,207.84Z" transform="translate(-139 -207)" fill="#020210"/></g><g transform="translate(30.245 0.01)"><path d="M171.84,208.682a.832.832,0,1,1,.6-.244A.883.883,0,0,1,171.84,208.682Z" transform="translate(-171 -207.012)" fill="#020210"/></g></g><g transform="translate(3.361 20.164)"><path d="M143.2,203.4H139.84a.84.84,0,0,1-.84-.84V195.84a.84.84,0,0,1,.84-.84H143.2a.84.84,0,0,1,.84.84v6.721A.84.84,0,0,1,143.2,203.4Zm-2.52-1.68h1.68V196.68h-1.68Z" transform="translate(-139 -195)" fill="#020210"/></g><g transform="translate(16.803 6.721)"><path d="M159.2,200.844H155.84A.84.84,0,0,1,155,200V179.84a.84.84,0,0,1,.84-.84H159.2a.84.84,0,0,1,.84.84V200A.84.84,0,0,1,159.2,200.844Zm-2.52-1.68h1.68V180.68h-1.68Z" transform="translate(-155 -179)" fill="#020210"/></g><g transform="translate(23.524)"><path d="M167.2,199.565H163.84a.84.84,0,0,1-.84-.84V171.84a.84.84,0,0,1,.84-.84H167.2a.84.84,0,0,1,.84.84v26.885A.84.84,0,0,1,167.2,199.565Zm-2.52-1.68h1.68v-25.2h-1.68Z" transform="translate(-163 -171)" fill="#020210"/></g><g transform="translate(10.082 3.361)"><path d="M151.2,200.2H147.84a.84.84,0,0,1-.84-.84V175.84a.84.84,0,0,1,.84-.84H151.2a.84.84,0,0,1,.84.84v23.524A.84.84,0,0,1,151.2,200.2Zm-2.52-1.68h1.68V176.68h-1.68Z" transform="translate(-147 -175)" fill="#020210"/></g></g><g transform="translate(119.654 111.663)"><g transform="translate(0.84 0.84)"><path d="M162.885,128H136v30.245h30.245V131.361Z" transform="translate(-136 -128)" fill="#50ba94"/></g><g transform="translate(7.561 0.84)"><rect width="16.803" height="10.082" fill="#fff"/></g><path d="M166.085,158.926H135.84a.84.84,0,0,1-.84-.84V127.84a.84.84,0,0,1,.84-.84h26.885a.839.839,0,0,1,.594.246l3.361,3.361a.841.841,0,0,1,.246.594v26.885A.84.84,0,0,1,166.085,158.926Zm-29.405-1.68h28.565v-25.7l-2.868-2.868h-25.7Z" transform="translate(-135 -127)" fill="#020210"/><g transform="translate(6.721)"><path d="M143.84,138.762a.84.84,0,0,1-.84-.84V127.84a.84.84,0,1,1,1.68,0v10.082A.84.84,0,0,1,143.84,138.762Z" transform="translate(-143 -127)" fill="#020210"/></g><g transform="translate(6.721 10.082)"><path d="M160.643,140.68h-16.8a.84.84,0,0,1,0-1.68h16.8a.84.84,0,1,1,0,1.68Z" transform="translate(-143 -139)" fill="#020210"/></g><g transform="translate(23.524)"><path d="M163.84,138.762a.84.84,0,0,1-.84-.84V127.84a.84.84,0,0,1,1.68,0v10.082A.84.84,0,0,1,163.84,138.762Z" transform="translate(-163 -127)" fill="#020210"/></g><g transform="translate(10.082 3.361)"><path d="M147.84,136.041a.84.84,0,0,1-.84-.84V131.84a.84.84,0,1,1,1.68,0V135.2A.84.84,0,0,1,147.84,136.041Z" transform="translate(-147 -131)" fill="#020210"/></g><g transform="translate(11.762 13.442)"><path d="M153.2,151.4a4.2,4.2,0,1,1,4.2-4.2A4.206,4.206,0,0,1,153.2,151.4Zm0-6.721a2.52,2.52,0,1,0,2.52,2.52A2.524,2.524,0,0,0,153.2,144.68Z" transform="translate(-149 -143)" fill="#020210"/></g><g transform="translate(6.721 26.885)"><path d="M160.643,160.68h-16.8a.84.84,0,1,1,0-1.68h16.8a.84.84,0,1,1,0,1.68Z" transform="translate(-143 -159)" fill="#020210"/></g><g transform="translate(6.721 23.524)"><path d="M160.643,156.68h-16.8a.84.84,0,0,1,0-1.68h16.8a.84.84,0,1,1,0,1.68Z" transform="translate(-143 -155)" fill="#020210"/></g></g><g transform="translate(159.981 131.827)"><path d="M224.167,172.844H183.84A.84.84,0,0,1,183,172V151.84a.84.84,0,0,1,.84-.84h40.327a.84.84,0,0,1,.84.84V172A.84.84,0,0,1,224.167,172.844Zm-39.487-1.68h38.647V152.68H184.68Z" transform="translate(-183 -151)" fill="#020210"/></g><g transform="translate(173.424 135.187)"><path d="M213.283,160.041H199.84a.84.84,0,0,1-.84-.84V155.84a.84.84,0,0,1,.84-.84h13.442a.84.84,0,0,1,.84.84V159.2A.84.84,0,0,1,213.283,160.041Zm-12.6-1.68h11.762v-1.68H200.68Z" transform="translate(-199 -155)" fill="#020210"/></g><g transform="translate(173.424 141.908)"><path d="M213.283,164.68H199.84a.84.84,0,0,1,0-1.68h13.442a.84.84,0,0,1,0,1.68Z" transform="translate(-199 -163)" fill="#020210"/></g><g transform="translate(170.063 141.908)"><path d="M196.68,164.68h-.84a.84.84,0,1,1,0-1.68h.84a.84.84,0,0,1,0,1.68Z" transform="translate(-195 -163)" fill="#020210"/></g><g transform="translate(159.981 108.302)"><path d="M224.167,144.844H183.84A.84.84,0,0,1,183,144V123.84a.84.84,0,0,1,.84-.84h40.327a.84.84,0,0,1,.84.84V144A.84.84,0,0,1,224.167,144.844Zm-39.487-1.68h38.647V124.68H184.68Z" transform="translate(-183 -123)" fill="#020210"/></g><g transform="translate(173.424 111.663)"><path d="M213.283,132.041H199.84a.84.84,0,0,1-.84-.84V127.84a.84.84,0,0,1,.84-.84h13.442a.84.84,0,0,1,.84.84V131.2A.84.84,0,0,1,213.283,132.041Zm-12.6-1.68h11.762v-1.68H200.68Z" transform="translate(-199 -127)" fill="#020210"/></g><g transform="translate(173.424 118.384)"><path d="M213.283,136.68H199.84a.84.84,0,0,1,0-1.68h13.442a.84.84,0,0,1,0,1.68Z" transform="translate(-199 -135)" fill="#020210"/></g><g transform="translate(170.063 118.384)"><path d="M196.68,136.68h-.84a.84.84,0,1,1,0-1.68h.84a.84.84,0,0,1,0,1.68Z" transform="translate(-195 -135)" fill="#020210"/></g><g transform="translate(159.981 155.351)"><path d="M224.167,200.844H183.84A.84.84,0,0,1,183,200V179.84a.84.84,0,0,1,.84-.84h40.327a.84.84,0,0,1,.84.84V200A.84.84,0,0,1,224.167,200.844Zm-39.487-1.68h38.647V180.68H184.68Z" transform="translate(-183 -179)" fill="#020210"/></g><g transform="translate(173.424 158.711)"><path d="M213.283,188.041H199.84a.84.84,0,0,1-.84-.84V183.84a.84.84,0,0,1,.84-.84h13.442a.84.84,0,0,1,.84.84V187.2A.84.84,0,0,1,213.283,188.041Zm-12.6-1.68h11.762v-1.68H200.68Z" transform="translate(-199 -183)" fill="#020210"/></g><g transform="translate(173.424 165.432)"><path d="M213.283,192.68H199.84a.84.84,0,0,1,0-1.68h13.442a.84.84,0,0,1,0,1.68Z" transform="translate(-199 -191)" fill="#020210"/></g><g transform="translate(170.063 165.432)"><path d="M196.68,192.68h-.84a.84.84,0,1,1,0-1.68h.84a.84.84,0,0,1,0,1.68Z" transform="translate(-195 -191)" fill="#020210"/></g><g transform="translate(156.621 104.942)"><path d="M226.888,194.613H179.84a.84.84,0,0,1-.84-.84V119.84a.84.84,0,0,1,.84-.84h47.048a.84.84,0,0,1,.84.84v73.933A.84.84,0,0,1,226.888,194.613Zm-46.208-1.68h45.368V120.68H180.68Z" transform="translate(-179 -119)" fill="#020210"/></g><g transform="translate(156.621 71.336)"><path d="M226.888,107.565H179.84a.84.84,0,0,1-.84-.84V79.84a.84.84,0,0,1,.84-.84h47.048a.84.84,0,0,1,.84.84v26.885A.84.84,0,0,1,226.888,107.565Zm-46.208-1.68h45.368V80.68H180.68Z" transform="translate(-179 -79)" fill="#020210"/></g><g transform="translate(156.621 71.335)"><g transform="translate(18.819 13.443)"><path d="M206.945,100.041a.839.839,0,0,1-.488-.156l-4.7-3.361a.84.84,0,1,1,.976-1.368l4.217,3.012,4.217-3.012a.84.84,0,0,1,.976,1.368l-4.7,3.361A.839.839,0,0,1,206.945,100.041Z" transform="translate(-201.4 -95)" fill="#020210"/></g><g transform="translate(28.229)"><path d="M213.441,94.123a.84.84,0,0,1-.489-1.524l18.819-13.442a.84.84,0,0,1,.976,1.368L213.928,93.966A.834.834,0,0,1,213.441,94.123Z" transform="translate(-212.6 -78.999)" fill="#020210"/></g><path d="M198.659,94.123a.834.834,0,0,1-.487-.156L179.352,80.524a.84.84,0,0,1,.976-1.368L199.148,92.6a.84.84,0,0,1-.489,1.524Z" transform="translate(-179 -78.999)" fill="#020210"/><g transform="translate(0 13.443)"><path d="M179.841,110.123a.84.84,0,0,1-.489-1.524l18.819-13.442a.84.84,0,1,1,.976,1.368l-18.819,13.442A.834.834,0,0,1,179.841,110.123Z" transform="translate(-179 -95)" fill="#020210"/></g><g transform="translate(28.229 13.443)"><path d="M232.259,110.123a.834.834,0,0,1-.487-.156L212.952,96.524a.84.84,0,1,1,.976-1.368L232.748,108.6a.84.84,0,0,1-.489,1.524Z" transform="translate(-212.6 -95)" fill="#020210"/></g></g><g transform="translate(170.063 185.596)"><g transform="translate(0.84 0.84)"><rect width="33.606" height="3.361" fill="#d1d1d1"/></g><path d="M229.446,263.729H195.84a.84.84,0,0,1-.84-.84V215.84a.84.84,0,0,1,.84-.84h33.606a.84.84,0,0,1,.84.84v47.048A.84.84,0,0,1,229.446,263.729Zm-32.766-1.68h31.926V216.68H196.68Z" transform="translate(-195 -215)" fill="#020210"/><g transform="translate(0 3.361)"><path d="M229.446,220.68H195.84a.84.84,0,1,1,0-1.68h33.606a.84.84,0,1,1,0,1.68Z" transform="translate(-195 -219)" fill="#020210"/></g><g transform="translate(5.041 10.082)"><path d="M206.881,228.68H201.84a.84.84,0,0,1,0-1.68h5.041a.84.84,0,0,1,0,1.68Z" transform="translate(-201 -227)" fill="#020210"/><g transform="translate(3.361 3.361)"><g transform="translate(0 0.012)"><path d="M205.84,232.683a.84.84,0,1,1,.6-1.428.829.829,0,0,1,.244.588.883.883,0,0,1-.244.6A.868.868,0,0,1,205.84,232.683Z" transform="translate(-205 -231.014)" fill="#020210"/></g><g transform="translate(2.798)"><path d="M211.136,231.84a.837.837,0,0,1,.84-.84h0a.843.843,0,0,1,.84.84h0a.843.843,0,0,1-.84.84h0A.837.837,0,0,1,211.136,231.84Zm-2.806,0a.843.843,0,0,1,.84-.84h0a.837.837,0,0,1,.84.84h0a.837.837,0,0,1-.84.84h0A.843.843,0,0,1,208.33,231.84Z" transform="translate(-208.33 -231)" fill="#020210"/></g><g transform="translate(8.401 0.01)"><path d="M215.84,232.682a.868.868,0,0,1-.6-.244.852.852,0,1,1,.6.244Z" transform="translate(-215 -231.013)" fill="#020210"/></g></g><g transform="translate(6.721 6.721)"><path d="M218.242,236.68h-8.4a.84.84,0,1,1,0-1.68h8.4a.84.84,0,1,1,0,1.68Z" transform="translate(-209 -235)" fill="#020210"/></g><g transform="translate(15.123 3.361)"><path d="M224.881,232.68H219.84a.84.84,0,1,1,0-1.68h5.041a.84.84,0,0,1,0,1.68Z" transform="translate(-219 -231)" fill="#020210"/></g><g transform="translate(8.401)"><path d="M220.242,228.68h-8.4a.84.84,0,0,1,0-1.68h8.4a.84.84,0,0,1,0,1.68Z" transform="translate(-211 -227)" fill="#020210"/></g><g transform="translate(18.483 6.721)"><path d="M228.881,236.68H223.84a.84.84,0,1,1,0-1.68h5.041a.84.84,0,0,1,0,1.68Z" transform="translate(-223 -235)" fill="#020210"/></g></g><g transform="translate(5.041 33.606)"><path d="M206.881,256.68H201.84a.84.84,0,0,1,0-1.68h5.041a.84.84,0,1,1,0,1.68Z" transform="translate(-201 -255)" fill="#020210"/><g transform="translate(3.361 3.361)"><path d="M214.242,260.68h-8.4a.84.84,0,0,1,0-1.68h8.4a.84.84,0,0,1,0,1.68Z" transform="translate(-205 -259)" fill="#020210"/></g><g transform="translate(6.721 6.721)"><g transform="translate(0 0.011)"><path d="M209.84,264.682a.832.832,0,0,1-.84-.84.864.864,0,0,1,.244-.6.844.844,0,0,1,1.193,1.193A.868.868,0,0,1,209.84,264.682Z" transform="translate(-209 -263.013)" fill="#020210"/></g><g transform="translate(2.798)"><path d="M215.136,263.84a.837.837,0,0,1,.84-.84h0a.843.843,0,0,1,.84.84h0a.843.843,0,0,1-.84.84h0A.837.837,0,0,1,215.136,263.84Zm-2.806,0a.843.843,0,0,1,.84-.84h0a.837.837,0,0,1,.84.84h0a.837.837,0,0,1-.84.84h0A.843.843,0,0,1,212.33,263.84Z" transform="translate(-212.33 -263)" fill="#020210"/></g><g transform="translate(8.401 0.011)"><path d="M219.84,264.682a.842.842,0,1,1,.6-1.437.852.852,0,0,1,0,1.193A.883.883,0,0,1,219.84,264.682Z" transform="translate(-219 -263.013)" fill="#020210"/></g></g><g transform="translate(15.123 3.361)"><path d="M224.881,260.68H219.84a.84.84,0,1,1,0-1.68h5.041a.84.84,0,0,1,0,1.68Z" transform="translate(-219 -259)" fill="#020210"/></g><g transform="translate(8.401)"><path d="M220.242,256.68h-8.4a.84.84,0,1,1,0-1.68h8.4a.84.84,0,0,1,0,1.68Z" transform="translate(-211 -255)" fill="#020210"/></g><g transform="translate(18.483 6.721)"><path d="M228.881,264.68H223.84a.84.84,0,1,1,0-1.68h5.041a.84.84,0,0,1,0,1.68Z" transform="translate(-223 -263)" fill="#020210"/></g></g><g transform="translate(5.041 21.844)"><path d="M206.881,242.68H201.84a.84.84,0,0,1,0-1.68h5.041a.84.84,0,0,1,0,1.68Z" transform="translate(-201 -241)" fill="#020210"/><g transform="translate(3.361 3.361)"><path d="M214.242,246.68h-8.4a.84.84,0,0,1,0-1.68h8.4a.84.84,0,0,1,0,1.68Z" transform="translate(-205 -245)" fill="#020210"/></g><g transform="translate(6.721 6.721)"><path d="M218.242,250.68h-8.4a.84.84,0,1,1,0-1.68h8.4a.84.84,0,1,1,0,1.68Z" transform="translate(-209 -249)" fill="#020210"/></g><g transform="translate(15.123 3.361)"><path d="M224.881,246.68H219.84a.84.84,0,1,1,0-1.68h5.041a.84.84,0,0,1,0,1.68Z" transform="translate(-219 -245)" fill="#020210"/></g><g transform="translate(8.401)"><path d="M220.242,242.68h-8.4a.84.84,0,0,1,0-1.68h8.4a.84.84,0,0,1,0,1.68Z" transform="translate(-211 -241)" fill="#020210"/></g><g transform="translate(18.483 6.721)"><g transform="translate(0 0.01)"><path d="M223.84,250.682a.842.842,0,1,1,.6-1.437.865.865,0,0,1,.244.6.832.832,0,0,1-.84.84Z" transform="translate(-223 -249.013)" fill="#020210"/></g><g transform="translate(2.52)"><path d="M226,249.84a.843.843,0,0,1,.84-.84h0a.843.843,0,0,1,.84.84h0a.843.843,0,0,1-.84.84h0A.843.843,0,0,1,226,249.84Z" transform="translate(-226 -249)" fill="#020210"/></g><g transform="translate(5.041 0.01)"><path d="M229.84,250.682a.832.832,0,1,1,.6-.244A.883.883,0,0,1,229.84,250.682Z" transform="translate(-229 -249.013)" fill="#020210"/></g></g></g></g><g transform="translate(210.39 185.596)"><path d="M243.841,220.041a.84.84,0,0,1-.467-1.539l5.041-3.361a.84.84,0,0,1,.933,1.4l-5.041,3.361A.843.843,0,0,1,243.841,220.041Z" transform="translate(-243 -215)" fill="#020210"/><g transform="translate(0 3.361)"><path d="M248.88,224.041a.844.844,0,0,1-.465-.141l-5.041-3.361a.84.84,0,1,1,.932-1.4l5.041,3.361a.84.84,0,0,1-.467,1.539Z" transform="translate(-243 -219)" fill="#020210"/></g><g transform="translate(8.401 0)"><path d="M253.839,223.4a.84.84,0,0,1-.751-1.216l3.361-6.721a.84.84,0,1,1,1.5.751l-3.361,6.721A.839.839,0,0,1,253.839,223.4Z" transform="translate(-252.999 -215)" fill="#020210"/></g><g transform="translate(15.122)"><path d="M266.88,220.041a.843.843,0,0,1-.465-.141l-5.041-3.361a.84.84,0,0,1,.933-1.4l5.041,3.361a.84.84,0,0,1-.467,1.539Z" transform="translate(-260.999 -215)" fill="#020210"/></g><g transform="translate(15.122 3.361)"><path d="M261.841,224.041a.84.84,0,0,1-.467-1.539l5.041-3.361a.84.84,0,0,1,.933,1.4l-5.041,3.361A.843.843,0,0,1,261.841,224.041Z" transform="translate(-260.999 -219)" fill="#020210"/></g></g><g transform="translate(237.275 185.596)"><g transform="translate(0.84 0.84)"><ellipse cx="13.442" cy="13.442" rx="13.442" ry="13.442" fill="#50ba94"/></g><g transform="translate(4.201 4.201)"><ellipse cx="10.082" cy="10.082" rx="10.082" ry="10.082" fill="#d1d1d1"/></g><g transform="translate(10.922 31.086)"><rect width="6.721" height="16.803" fill="#50ba94"/></g><path d="M289.283,243.565a14.283,14.283,0,1,1,14.283-14.283A14.3,14.3,0,0,1,289.283,243.565Zm0-26.885a12.6,12.6,0,1,0,12.6,12.6A12.615,12.615,0,0,0,289.283,216.68Z" transform="translate(-275 -215)" fill="#020210"/><g transform="translate(10.082 30.245)"><path d="M294.561,269.483H287.84a.839.839,0,0,1-.84-.84v-16.8a.839.839,0,0,1,.84-.84h6.721a.839.839,0,0,1,.84.84v16.8A.839.839,0,0,1,294.561,269.483Zm-5.881-1.68h5.041V252.68H288.68Z" transform="translate(-287 -251)" fill="#020210"/></g><g transform="translate(13.442 26.885)"><path d="M291.84,252.041a.839.839,0,0,1-.84-.84V247.84a.84.84,0,1,1,1.68,0V251.2A.839.839,0,0,1,291.84,252.041Z" transform="translate(-291 -247)" fill="#020210"/></g><g transform="translate(3.361 3.361)"><path d="M289.922,240.844a10.922,10.922,0,1,1,10.922-10.922A10.935,10.935,0,0,1,289.922,240.844Zm0-20.164a9.242,9.242,0,1,0,9.242,9.242A9.253,9.253,0,0,0,289.922,220.68Z" transform="translate(-279 -219)" fill="#020210"/></g><g transform="translate(10.082 33.606)"><path d="M294.561,256.68H287.84a.84.84,0,0,1,0-1.68h6.721a.84.84,0,1,1,0,1.68Z" transform="translate(-287 -255)" fill="#020210"/></g><g transform="translate(10.082 43.688)"><path d="M294.561,268.68H287.84a.84.84,0,0,1,0-1.68h6.721a.84.84,0,1,1,0,1.68Z" transform="translate(-287 -267)" fill="#020210"/></g><g transform="translate(6.721 6.721)"><path d="M283.84,231.4a.839.839,0,0,1-.84-.84A7.569,7.569,0,0,1,290.561,223a.84.84,0,1,1,0,1.68,5.889,5.889,0,0,0-5.881,5.881A.839.839,0,0,1,283.84,231.4Z" transform="translate(-283 -223)" fill="#fff"/></g></g><g transform="translate(210.39 199.038)"><g transform="translate(0.84 0.84)"><rect width="20.164" height="33.606" rx="4" fill="#50ba94"/></g><g transform="translate(4.201 7.561)"><rect width="13.442" height="20.164" fill="#d1d1d1"/></g><g transform="translate(9.241 6.721)"><path d="M254.84,248.242a.84.84,0,0,1-.594-1.434l7.561-7.561A.84.84,0,0,1,263,240.434L255.434,248A.838.838,0,0,1,254.84,248.242Z" transform="translate(-254 -239)" fill="#fff"/></g><g transform="translate(10.082 11.762)"><path d="M255.84,253.4a.84.84,0,0,1-.594-1.434l6.721-6.721a.84.84,0,1,1,1.188,1.188l-6.721,6.721A.838.838,0,0,1,255.84,253.4Z" transform="translate(-255 -245)" fill="#fff"/></g><g transform="translate(3.36 17.538)"><path d="M247.84,257.651a.84.84,0,0,1-.594-1.434l4.1-4.1a.84.84,0,1,1,1.188,1.188l-4.1,4.1A.838.838,0,0,1,247.84,257.651Z" transform="translate(-247 -251.875)" fill="#fff"/></g><g transform="translate(3.36 6.721)"><path d="M247.84,247.4a.84.84,0,0,1-.594-1.434l6.721-6.721a.84.84,0,0,1,1.188,1.188l-6.721,6.721A.838.838,0,0,1,247.84,247.4Z" transform="translate(-247 -239)" fill="#fff"/></g><g transform="translate(7.456 17.538)"><path d="M252.715,262.9a.84.84,0,0,1-.594-1.434l9.347-9.347a.84.84,0,1,1,1.188,1.188l-9.347,9.347A.838.838,0,0,1,252.715,262.9Z" transform="translate(-251.875 -251.875)" fill="#fff"/></g><g transform="translate(11.762 25.204)"><path d="M257.84,264.361a.84.84,0,0,1-.594-1.434l1.68-1.68a.84.84,0,0,1,1.188,1.188l-1.68,1.68A.838.838,0,0,1,257.84,264.361Z" transform="translate(-257 -261)" fill="#fff"/></g><path d="M260.643,266.286H247.2a4.206,4.206,0,0,1-4.2-4.2V235.2a4.206,4.206,0,0,1,4.2-4.2h13.442a4.206,4.206,0,0,1,4.2,4.2v26.885A4.206,4.206,0,0,1,260.643,266.286ZM247.2,232.68a2.524,2.524,0,0,0-2.52,2.52v26.885a2.524,2.524,0,0,0,2.52,2.52h13.442a2.524,2.524,0,0,0,2.52-2.52V235.2a2.523,2.523,0,0,0-2.52-2.52Z" transform="translate(-243 -231)" fill="#020210"/><g transform="translate(3.361 6.721)"><path d="M261.283,260.844H247.84A.84.84,0,0,1,247,260V239.84a.84.84,0,0,1,.84-.84h13.442a.839.839,0,0,1,.84.84V260A.839.839,0,0,1,261.283,260.844Zm-12.6-1.68h11.762V240.68H248.68Z" transform="translate(-247 -239)" fill="#020210"/></g><g transform="translate(8.401 30.245)"><path d="M257.2,268.68H253.84a.84.84,0,1,1,0-1.68H257.2a.84.84,0,1,1,0,1.68Z" transform="translate(-253 -267)" fill="#020210"/></g></g><g transform="translate(210.39 108.302)"><path d="M297.61,195.253H243.84a.84.84,0,0,1-.84-.84V123.84a.84.84,0,0,1,.84-.84h53.77a.84.84,0,0,1,.84.84v70.573A.839.839,0,0,1,297.61,195.253Zm-52.929-1.68H296.77V124.68H244.68Z" transform="translate(-243 -123)" fill="#020210"/><g transform="translate(0 3.361)"><path d="M297.61,128.68H243.84a.84.84,0,0,1,0-1.68h53.77a.84.84,0,1,1,0,1.68Z" transform="translate(-243 -127)" fill="#020210"/></g><g transform="translate(0 20.164)"><path d="M297.61,148.68H243.84a.84.84,0,0,1,0-1.68h53.77a.84.84,0,1,1,0,1.68Z" transform="translate(-243 -147)" fill="#020210"/></g><g transform="translate(0 33.606)"><path d="M297.61,164.68H243.84a.84.84,0,0,1,0-1.68h53.77a.84.84,0,1,1,0,1.68Z" transform="translate(-243 -163)" fill="#020210"/></g><g transform="translate(13.442 13.442)"><g transform="translate(0 0.01)"><path d="M259.84,140.682a.832.832,0,1,1,.6-.244A.882.882,0,0,1,259.84,140.682Z" transform="translate(-259 -139.012)" fill="#020210"/></g><g transform="translate(3.361)"><path d="M283.164,139.84A.843.843,0,0,1,284,139h0a.843.843,0,0,1,.84.84h0a.843.843,0,0,1-.84.84h0A.843.843,0,0,1,283.164,139.84Zm-3.361,0a.843.843,0,0,1,.84-.84h0a.843.843,0,0,1,.84.84h0a.843.843,0,0,1-.84.84h0A.843.843,0,0,1,279.8,139.84Zm-3.361,0a.843.843,0,0,1,.84-.84h0a.843.843,0,0,1,.84.84h0a.843.843,0,0,1-.84.84h0A.843.843,0,0,1,276.442,139.84Zm-3.361,0a.843.843,0,0,1,.84-.84h0a.843.843,0,0,1,.84.84h0a.843.843,0,0,1-.84.84h0A.843.843,0,0,1,273.082,139.84Zm-3.361,0a.843.843,0,0,1,.84-.84h0a.843.843,0,0,1,.84.84h0a.843.843,0,0,1-.84.84h0A.843.843,0,0,1,269.721,139.84Zm-3.361,0a.843.843,0,0,1,.84-.84h0a.843.843,0,0,1,.84.84h0a.843.843,0,0,1-.84.84h0A.843.843,0,0,1,266.361,139.84Zm-3.361,0a.843.843,0,0,1,.84-.84h0a.843.843,0,0,1,.84.84h0a.843.843,0,0,1-.84.84h0A.843.843,0,0,1,263,139.84Z" transform="translate(-263 -139)" fill="#020210"/></g><g transform="translate(26.885 0.01)"><path d="M291.84,140.682a.842.842,0,1,1,.6-1.437.867.867,0,0,1,.244.6.832.832,0,0,1-.84.84Z" transform="translate(-291 -139.012)" fill="#020210"/></g></g><g transform="translate(23.524 10.082)"><path d="M278.561,136.68H271.84a.84.84,0,0,1,0-1.68h6.721a.84.84,0,1,1,0,1.68Z" transform="translate(-271 -135)" fill="#020210"/></g><g transform="translate(8.401 40.327)"><path d="M263.922,179.4H253.84a.84.84,0,0,1-.84-.84V171.84a.84.84,0,0,1,.84-.84h10.082a.84.84,0,0,1,.84.84v6.721A.839.839,0,0,1,263.922,179.4Zm-9.242-1.68h8.4V172.68h-8.4Z" transform="translate(-253 -171)" fill="#020210"/><g transform="translate(13.442)"><path d="M279.922,179.4H269.84a.839.839,0,0,1-.84-.84V171.84a.84.84,0,0,1,.84-.84h10.082a.84.84,0,0,1,.84.84v6.721A.839.839,0,0,1,279.922,179.4Zm-9.242-1.68h8.4V172.68h-8.4Z" transform="translate(-269 -171)" fill="#020210"/></g><g transform="translate(26.885)"><path d="M295.922,179.4H285.84a.839.839,0,0,1-.84-.84V171.84a.84.84,0,0,1,.84-.84h10.082a.84.84,0,0,1,.84.84v6.721A.839.839,0,0,1,295.922,179.4Zm-9.242-1.68h8.4V172.68h-8.4Z" transform="translate(-285 -171)" fill="#020210"/></g><g transform="translate(0 13.442)"><path d="M263.922,188.68H253.84a.84.84,0,1,1,0-1.68h10.082a.84.84,0,1,1,0,1.68Z" transform="translate(-253 -187)" fill="#020210"/></g><g transform="translate(0 16.803)"><path d="M263.922,192.68H253.84a.84.84,0,1,1,0-1.68h10.082a.84.84,0,1,1,0,1.68Z" transform="translate(-253 -191)" fill="#020210"/></g><g transform="translate(13.442 13.442)"><path d="M279.922,188.68H269.84a.84.84,0,1,1,0-1.68h10.082a.84.84,0,1,1,0,1.68Z" transform="translate(-269 -187)" fill="#020210"/></g><g transform="translate(13.442 16.803)"><path d="M279.922,192.68H269.84a.84.84,0,0,1,0-1.68h10.082a.84.84,0,0,1,0,1.68Z" transform="translate(-269 -191)" fill="#020210"/></g><g transform="translate(26.885 13.442)"><path d="M295.922,188.68H285.84a.84.84,0,1,1,0-1.68h10.082a.84.84,0,1,1,0,1.68Z" transform="translate(-285 -187)" fill="#020210"/></g><g transform="translate(26.885 16.803)"><path d="M295.922,192.68H285.84a.84.84,0,0,1,0-1.68h10.082a.84.84,0,1,1,0,1.68Z" transform="translate(-285 -191)" fill="#020210"/></g><g transform="translate(0 10.082)"><path d="M263.922,184.68H253.84a.84.84,0,1,1,0-1.68h10.082a.84.84,0,1,1,0,1.68Z" transform="translate(-253 -183)" fill="#020210"/></g><g transform="translate(13.442 10.082)"><path d="M279.922,184.68H269.84a.84.84,0,1,1,0-1.68h10.082a.84.84,0,1,1,0,1.68Z" transform="translate(-269 -183)" fill="#020210"/></g><g transform="translate(26.885 10.082)"><path d="M295.922,184.68H285.84a.84.84,0,1,1,0-1.68h10.082a.84.84,0,1,1,0,1.68Z" transform="translate(-285 -183)" fill="#020210"/></g></g><g transform="translate(0 63.851)"><path d="M297.61,200.68H243.84a.84.84,0,0,1,0-1.68h53.77a.84.84,0,1,1,0,1.68Z" transform="translate(-243 -199)" fill="#020210"/></g><g transform="translate(8.401 67.212)"><path d="M258.881,204.68H253.84a.84.84,0,1,1,0-1.68h5.041a.84.84,0,0,1,0,1.68Z" transform="translate(-253 -203)" fill="#020210"/></g><g transform="translate(40.327 67.212)"><path d="M296.881,204.68H291.84a.84.84,0,1,1,0-1.68h5.041a.84.84,0,1,1,0,1.68Z" transform="translate(-291 -203)" fill="#020210"/></g><g transform="translate(21.844 67.212)"><path d="M274.881,204.68H269.84a.84.84,0,1,1,0-1.68h5.041a.84.84,0,1,1,0,1.68Z" transform="translate(-269 -203)" fill="#020210"/></g></g><g transform="translate(324.651 128.466)"><path d="M413.446,192.368H379.84a.839.839,0,0,1-.84-.84V147.84a.84.84,0,0,1,.84-.84h33.606a.84.84,0,0,1,0,1.68H380.68v42.007h32.766a.84.84,0,0,1,0,1.68Z" transform="translate(-379 -147)" fill="#020210"/><g transform="translate(33.606)"><path d="M423.2,152.041a.84.84,0,0,1-.84-.84,2.524,2.524,0,0,0-2.52-2.52.84.84,0,1,1,0-1.68,4.206,4.206,0,0,1,4.2,4.2A.84.84,0,0,1,423.2,152.041Z" transform="translate(-419 -147)" fill="#020210"/></g><g transform="translate(33.606 40.327)"><path d="M419.84,200.041a.84.84,0,1,1,0-1.68,2.524,2.524,0,0,0,2.52-2.52.84.84,0,1,1,1.68,0A4.206,4.206,0,0,1,419.84,200.041Z" transform="translate(-419 -195)" fill="#020210"/></g><g transform="translate(36.967 3.361)"><path d="M423.84,189.647a.839.839,0,0,1-.84-.84V151.84a.84.84,0,1,1,1.68,0v36.967A.839.839,0,0,1,423.84,189.647Z" transform="translate(-423 -151)" fill="#020210"/></g><g transform="translate(30.245)"><path d="M415.84,192.368a.839.839,0,0,1-.84-.84V147.84a.84.84,0,0,1,1.68,0v43.688A.839.839,0,0,1,415.84,192.368Z" transform="translate(-415 -147)" fill="#020210"/></g><g transform="translate(26.885)"><path d="M411.84,192.368a.839.839,0,0,1-.84-.84V147.84a.84.84,0,0,1,1.68,0v43.688A.839.839,0,0,1,411.84,192.368Z" transform="translate(-411 -147)" fill="#020210"/></g></g><g transform="translate(324.651 71.336)"><g transform="translate(18.483)"><path d="M401.84,131.089a.84.84,0,0,1-.84-.84V79.84a.84.84,0,0,1,1.68,0v50.409A.84.84,0,0,1,401.84,131.089Z" transform="translate(-401 -79)" fill="#020210"/></g><g transform="translate(0.84 0.84)"><rect width="36.967" height="13.442" fill="#d1d1d1"/><g transform="translate(0 16.803)"><rect width="36.967" height="13.442" fill="#d1d1d1"/></g><g transform="translate(0 33.606)"><rect width="36.967" height="13.442" fill="#d1d1d1"/></g></g><path d="M416.807,94.123H379.84a.84.84,0,0,1-.84-.84V79.84a.84.84,0,0,1,.84-.84h36.967a.84.84,0,0,1,.84.84V93.283A.84.84,0,0,1,416.807,94.123Zm-36.126-1.68h35.286V80.68H380.68Z" transform="translate(-379 -79)" fill="#020210"/><g transform="translate(13.442 6.721)"><g transform="translate(0 0.01)"><path d="M395.84,88.682a.882.882,0,0,1-.6-.244.864.864,0,0,1-.244-.6.84.84,0,1,1,1.68,0,.832.832,0,0,1-.84.84Z" transform="translate(-395 -87.013)" fill="#020210"/></g><g transform="translate(3.083)"><path d="M410.987,87.84a.843.843,0,0,1,.84-.84h0a.837.837,0,0,1,.84.84h0a.837.837,0,0,1-.84.84h0A.843.843,0,0,1,410.987,87.84Zm-3.075,0a.837.837,0,0,1,.84-.84h0a.843.843,0,0,1,.84.84h0a.843.843,0,0,1-.84.84h0A.837.837,0,0,1,407.912,87.84Zm-3.083,0a.843.843,0,0,1,.84-.84h0a.843.843,0,0,1,.84.84h0a.843.843,0,0,1-.84.84h0A.843.843,0,0,1,404.828,87.84Zm-3.083,0a.843.843,0,0,1,.84-.84h0a.837.837,0,0,1,.84.84h0a.837.837,0,0,1-.84.84h0A.843.843,0,0,1,401.745,87.84Zm-3.075,0a.837.837,0,0,1,.84-.84h0a.843.843,0,0,1,.84.84h0a.843.843,0,0,1-.84.84h0A.837.837,0,0,1,398.67,87.84Z" transform="translate(-398.67 -87)" fill="#020210"/></g><g transform="translate(18.483 0.01)"><path d="M417.84,88.682a.865.865,0,0,1-.6-.244.852.852,0,1,1,.6.244Z" transform="translate(-417 -87.013)" fill="#020210"/></g></g><g transform="translate(5.041 5.041)"><ellipse cx="1.68" cy="1.68" rx="1.68" ry="1.68" transform="translate(0.84 0.84)" fill="#fff"/><path d="M387.521,90.041a2.52,2.52,0,1,1,2.52-2.52A2.524,2.524,0,0,1,387.521,90.041Zm0-3.361a.84.84,0,1,0,.84.84A.841.841,0,0,0,387.521,86.68Z" transform="translate(-385 -85)" fill="#020210"/></g><g transform="translate(0 16.803)"><path d="M416.807,114.123H379.84a.84.84,0,0,1-.84-.84V99.84a.84.84,0,0,1,.84-.84h36.967a.84.84,0,0,1,.84.84v13.442A.84.84,0,0,1,416.807,114.123Zm-36.126-1.68h35.286V100.68H380.68Z" transform="translate(-379 -99)" fill="#020210"/><g transform="translate(13.442 6.721)"><g transform="translate(0 0.01)"><path d="M395.84,108.682a.832.832,0,1,1,.6-.244A.871.871,0,0,1,395.84,108.682Z" transform="translate(-395 -107.013)" fill="#020210"/></g><g transform="translate(3.083)"><path d="M410.987,107.84a.843.843,0,0,1,.84-.84h0a.837.837,0,0,1,.84.84h0a.837.837,0,0,1-.84.84h0A.843.843,0,0,1,410.987,107.84Zm-3.075,0a.837.837,0,0,1,.84-.84h0a.843.843,0,0,1,.84.84h0a.843.843,0,0,1-.84.84h0A.837.837,0,0,1,407.912,107.84Zm-3.083,0a.843.843,0,0,1,.84-.84h0a.843.843,0,0,1,.84.84h0a.843.843,0,0,1-.84.84h0A.843.843,0,0,1,404.828,107.84Zm-3.083,0a.843.843,0,0,1,.84-.84h0a.837.837,0,0,1,.84.84h0a.837.837,0,0,1-.84.84h0A.843.843,0,0,1,401.745,107.84Zm-3.075,0a.837.837,0,0,1,.84-.84h0a.843.843,0,0,1,.84.84h0a.843.843,0,0,1-.84.84h0A.837.837,0,0,1,398.67,107.84Z" transform="translate(-398.67 -107)" fill="#020210"/></g><g transform="translate(18.483 0.01)"><path d="M417.84,108.682a.832.832,0,1,1,.6-.244A.882.882,0,0,1,417.84,108.682Z" transform="translate(-417 -107.013)" fill="#020210"/></g></g><g transform="translate(5.041 5.041)"><ellipse cx="1.68" cy="1.68" rx="1.68" ry="1.68" transform="translate(0.84 0.84)" fill="#fff"/><path d="M387.521,110.041a2.52,2.52,0,1,1,2.52-2.52A2.524,2.524,0,0,1,387.521,110.041Zm0-3.361a.84.84,0,1,0,.84.84A.841.841,0,0,0,387.521,106.68Z" transform="translate(-385 -105)" fill="#020210"/></g></g><g transform="translate(0 33.606)"><path d="M416.807,134.123H379.84a.84.84,0,0,1-.84-.84V119.84a.84.84,0,0,1,.84-.84h36.967a.84.84,0,0,1,.84.84v13.442A.84.84,0,0,1,416.807,134.123Zm-36.126-1.68h35.286V120.68H380.68Z" transform="translate(-379 -119)" fill="#020210"/><g transform="translate(13.442 6.721)"><g transform="translate(0 0.01)"><path d="M395.84,128.682a.832.832,0,0,1-.84-.84.864.864,0,0,1,.244-.6.88.88,0,0,1,1.193,0,.868.868,0,0,1,.244.6.884.884,0,0,1-.244.6A.871.871,0,0,1,395.84,128.682Z" transform="translate(-395 -127.013)" fill="#020210"/></g><g transform="translate(3.083)"><path d="M410.987,127.84a.843.843,0,0,1,.84-.84h0a.837.837,0,0,1,.84.84h0a.837.837,0,0,1-.84.84h0A.843.843,0,0,1,410.987,127.84Zm-3.075,0a.837.837,0,0,1,.84-.84h0a.843.843,0,0,1,.84.84h0a.843.843,0,0,1-.84.84h0A.837.837,0,0,1,407.912,127.84Zm-3.083,0a.843.843,0,0,1,.84-.84h0a.843.843,0,0,1,.84.84h0a.843.843,0,0,1-.84.84h0A.843.843,0,0,1,404.828,127.84Zm-3.083,0a.843.843,0,0,1,.84-.84h0a.837.837,0,0,1,.84.84h0a.837.837,0,0,1-.84.84h0A.843.843,0,0,1,401.745,127.84Zm-3.075,0a.837.837,0,0,1,.84-.84h0a.843.843,0,0,1,.84.84h0a.843.843,0,0,1-.84.84h0A.837.837,0,0,1,398.67,127.84Z" transform="translate(-398.67 -127)" fill="#020210"/></g><g transform="translate(18.483 0.01)"><path d="M417.84,128.682a.832.832,0,1,1,.6-.244A.882.882,0,0,1,417.84,128.682Z" transform="translate(-417 -127.013)" fill="#020210"/></g></g><g transform="translate(5.041 5.041)"><ellipse cx="1.68" cy="1.68" rx="1.68" ry="1.68" transform="translate(0.84 0.84)" fill="#fff"/><path d="M387.521,130.041a2.52,2.52,0,1,1,2.52-2.52A2.524,2.524,0,0,1,387.521,130.041Zm0-3.361a.84.84,0,1,0,.84.84A.841.841,0,0,0,387.521,126.68Z" transform="translate(-385 -125)" fill="#020210"/></g></g></g><g transform="translate(270.881 178.875)"><path d="M362.888,245.647H315.84a.839.839,0,0,1-.84-.84V211.2a.839.839,0,0,1,.84-.84h5.881v-2.52a.839.839,0,0,1,.84-.84H336a.839.839,0,0,1,.84.84v2.52h26.045a.839.839,0,0,1,.84.84v33.606A.839.839,0,0,1,362.888,245.647Zm-46.208-1.68h45.368V212.041H336a.839.839,0,0,1-.84-.84v-2.52H323.4v2.52a.839.839,0,0,1-.84.84H316.68Z" transform="translate(-315 -207)" fill="#020210"/></g><g transform="translate(284.323 190.637)"><g transform="translate(0)"><path d="M348.8,228.721a6.721,6.721,0,1,0-13.442,0,3.361,3.361,0,1,0,0,6.721H348.8a3.361,3.361,0,0,0,0-6.721Z" transform="translate(-331.16 -221.16)" fill="#fff"/><path d="M348.643,236.123H335.2a4.2,4.2,0,0,1-.8-8.324,7.561,7.561,0,0,1,15.045,0,4.2,4.2,0,0,1-.8,8.324Zm-6.721-13.442a5.889,5.889,0,0,0-5.881,5.881.839.839,0,0,1-.84.84,2.52,2.52,0,1,0,0,5.041h13.442a2.52,2.52,0,0,0,0-5.041.839.839,0,0,1-.84-.84A5.889,5.889,0,0,0,341.922,222.68Z" transform="translate(-331 -221)" fill="#020210"/></g><g transform="translate(0 16.803)"><g transform="translate(0 0.01)"><path d="M331.84,242.682a.832.832,0,1,1,.6-.244A.871.871,0,0,1,331.84,242.682Z" transform="translate(-331 -241.013)" fill="#020210"/></g><g transform="translate(3.361)"><path d="M348.442,241.84a.843.843,0,0,1,.84-.84h0a.843.843,0,0,1,.84.84h0a.843.843,0,0,1-.84.84h0A.843.843,0,0,1,348.442,241.84Zm-3.361,0a.843.843,0,0,1,.84-.84h0a.843.843,0,0,1,.84.84h0a.843.843,0,0,1-.84.84h0A.843.843,0,0,1,345.082,241.84Zm-3.361,0a.843.843,0,0,1,.84-.84h0a.843.843,0,0,1,.84.84h0a.843.843,0,0,1-.84.84h0A.843.843,0,0,1,341.721,241.84Zm-3.361,0a.843.843,0,0,1,.84-.84h0a.843.843,0,0,1,.84.84h0a.843.843,0,0,1-.84.84h0A.843.843,0,0,1,338.361,241.84Zm-3.361,0a.843.843,0,0,1,.84-.84h0a.843.843,0,0,1,.84.84h0a.843.843,0,0,1-.84.84h0A.843.843,0,0,1,335,241.84Z" transform="translate(-335 -241)" fill="#020210"/></g><g transform="translate(20.164 0.01)"><path d="M355.84,242.682a.832.832,0,0,1-.84-.84.861.861,0,0,1,.244-.6.88.88,0,0,1,1.193,0,.864.864,0,0,1,.244.6.832.832,0,0,1-.84.84Z" transform="translate(-355 -241.013)" fill="#020210"/></g></g></g><g transform="translate(324.651 178.875)"><g transform="translate(0.84 7.561)"><rect width="36.967" height="47.048" fill="#d1d1d1"/></g><g transform="translate(0 6.721)"><path d="M416.807,263.729H379.84a.839.839,0,0,1-.84-.84V215.84a.839.839,0,0,1,.84-.84h36.967a.839.839,0,0,1,.84.84v47.048A.839.839,0,0,1,416.807,263.729Zm-36.126-1.68h35.286V216.68H380.68Z" transform="translate(-379 -215)" fill="#020210"/></g><g transform="translate(10.922 0.84)"><path d="M408.8,218.082v-6.721h-5.041a3.361,3.361,0,1,0-6.721,0H392v6.721Z" transform="translate(-392 -208)" fill="#50ba94"/></g><g transform="translate(3.361 10.082)"><rect width="30.245" height="40.327" transform="translate(0.84 0.84)" fill="#fff"/><path d="M414.086,261.007H383.84a.839.839,0,0,1-.84-.84V219.84a.839.839,0,0,1,.84-.84h30.245a.839.839,0,0,1,.84.84v40.327A.839.839,0,0,1,414.086,261.007Zm-29.405-1.68h28.565V220.68H384.68Z" transform="translate(-383 -219)" fill="#020210"/></g><g transform="translate(10.082)"><path d="M408.643,218.762a.839.839,0,0,1-.84-.84v-5.881h-4.2a.839.839,0,0,1-.84-.84,2.52,2.52,0,0,0-5.041,0,.839.839,0,0,1-.84.84h-4.2v5.881a.84.84,0,1,1-1.68,0V211.2a.839.839,0,0,1,.84-.84h4.286a4.2,4.2,0,0,1,8.232,0h4.286a.839.839,0,0,1,.84.84v6.721A.839.839,0,0,1,408.643,218.762Z" transform="translate(-391 -207)" fill="#020210"/></g><g transform="translate(10.082 25.204)"><path d="M408.643,238.68h-16.8a.84.84,0,0,1,0-1.68h16.8a.84.84,0,0,1,0,1.68Z" transform="translate(-391 -237)" fill="#020210"/><g transform="translate(0 3.361)"><path d="M408.643,242.68h-16.8a.84.84,0,0,1,0-1.68h16.8a.84.84,0,0,1,0,1.68Z" transform="translate(-391 -241)" fill="#020210"/></g><g transform="translate(0 6.721)"><path d="M408.643,246.68h-16.8a.84.84,0,1,1,0-1.68h16.8a.84.84,0,1,1,0,1.68Z" transform="translate(-391 -245)" fill="#020210"/></g></g></g><g transform="translate(270.881 71.336)"><path d="M362.888,110.926H315.84a.84.84,0,0,1-.84-.84V79.84a.84.84,0,0,1,.84-.84h47.048a.84.84,0,0,1,.84.84v30.245A.84.84,0,0,1,362.888,110.926Zm-46.208-1.68h45.368V80.68H316.68Z" transform="translate(-315 -79)" fill="#020210"/></g><g transform="translate(277.602 71.336)"><path d="M323.84,110.926a.84.84,0,0,1-.84-.84V79.84a.84.84,0,0,1,1.68,0v30.245A.84.84,0,0,1,323.84,110.926Z" transform="translate(-323 -79)" fill="#020210"/></g><g transform="translate(280.963 71.336)"><path d="M327.84,110.926a.84.84,0,0,1-.84-.84V79.84a.84.84,0,1,1,1.68,0v30.245A.84.84,0,0,1,327.84,110.926Z" transform="translate(-327 -79)" fill="#020210"/></g><g transform="translate(307.848 71.336)"><path d="M359.84,110.926a.84.84,0,0,1-.84-.84V79.84a.84.84,0,0,1,1.68,0v30.245A.84.84,0,0,1,359.84,110.926Z" transform="translate(-359 -79)" fill="#020210"/></g><g transform="translate(311.208 71.336)"><path d="M363.84,110.926a.84.84,0,0,1-.84-.84V79.84a.84.84,0,0,1,1.68,0v30.245A.84.84,0,0,1,363.84,110.926Z" transform="translate(-363 -79)" fill="#020210"/></g><g transform="translate(287.684 64.615)"><path d="M349.283,79.4a.84.84,0,0,1-.84-.84V72.68H336.68v5.881a.84.84,0,1,1-1.68,0V71.84a.84.84,0,0,1,.84-.84h13.442a.84.84,0,0,1,.84.84v6.721A.84.84,0,0,1,349.283,79.4Z" transform="translate(-335 -71)" fill="#020210"/></g><g transform="translate(227.193 81.418)"><path d="M267.2,102.762a2.524,2.524,0,0,1-2.521-2.52v-1.68a.841.841,0,0,0-.84-.84.84.84,0,1,1,0-1.68.841.841,0,0,0,.84-.84V93.52A2.524,2.524,0,0,1,267.2,91a.84.84,0,0,1,0,1.68.841.841,0,0,0-.84.84V95.2a2.51,2.51,0,0,1-.644,1.68,2.51,2.51,0,0,1,.644,1.68v1.68a.841.841,0,0,0,.84.84.84.84,0,0,1,0,1.68Z" transform="translate(-263 -91)" fill="#020210"/></g><g transform="translate(243.996 81.418)"><path d="M283.84,102.762a.84.84,0,0,1,0-1.68.841.841,0,0,0,.84-.84v-1.68a2.51,2.51,0,0,1,.644-1.68,2.509,2.509,0,0,1-.644-1.68V93.52a.841.841,0,0,0-.84-.84.84.84,0,0,1,0-1.68,2.524,2.524,0,0,1,2.521,2.52V95.2a.841.841,0,0,0,.84.84.84.84,0,0,1,0,1.68.841.841,0,0,0-.84.84v1.68A2.524,2.524,0,0,1,283.84,102.762Z" transform="translate(-283 -91)" fill="#020210"/></g><g transform="translate(233.915 86.458)"><g transform="translate(0 0.01)"><path d="M271.84,98.682a.864.864,0,0,1-.6-.244.852.852,0,1,1,.6.244Z" transform="translate(-271 -97.012)" fill="#020210"/></g><g transform="translate(3.361)"><path d="M275,97.84a.843.843,0,0,1,.84-.84h0a.843.843,0,0,1,.84.84h0a.843.843,0,0,1-.84.84h0A.843.843,0,0,1,275,97.84Z" transform="translate(-275 -97)" fill="#020210"/></g><g transform="translate(6.721 0.01)"><path d="M279.84,98.682a.832.832,0,0,1-.84-.84.864.864,0,0,1,.244-.6.844.844,0,1,1,.6,1.437Z" transform="translate(-279 -97.012)" fill="#020210"/></g></g><g transform="translate(270.881 151.99)"><g transform="translate(0.84 0.84)"><g transform="translate(0 13.442)"><ellipse cx="3.361" cy="3.361" rx="3.361" ry="3.361" fill="#d2e63e"/></g><g transform="translate(13.442)"><ellipse cx="3.361" cy="3.361" rx="3.361" ry="3.361" fill="#fff"/></g><g transform="translate(26.885 13.442)"><ellipse cx="3.361" cy="3.361" rx="3.361" ry="3.361" fill="#50ba94"/></g><g transform="translate(40.327)"><ellipse cx="3.361" cy="3.361" rx="3.361" ry="3.361" fill="#d1d1d1"/></g></g><g transform="translate(0 13.442)"><path d="M319.2,199.4a4.2,4.2,0,1,1,4.2-4.2A4.206,4.206,0,0,1,319.2,199.4Zm0-6.721a2.52,2.52,0,1,0,2.52,2.52A2.524,2.524,0,0,0,319.2,192.68Z" transform="translate(-315 -191)" fill="#020210"/></g><g transform="translate(13.442)"><path d="M335.2,183.4a4.2,4.2,0,1,1,4.2-4.2A4.206,4.206,0,0,1,335.2,183.4Zm0-6.721a2.52,2.52,0,1,0,2.52,2.52A2.524,2.524,0,0,0,335.2,176.68Z" transform="translate(-331 -175)" fill="#020210"/></g><g transform="translate(26.885 13.442)"><path d="M351.2,199.4a4.2,4.2,0,1,1,4.2-4.2A4.206,4.206,0,0,1,351.2,199.4Zm0-6.721a2.52,2.52,0,1,0,2.52,2.52A2.524,2.524,0,0,0,351.2,192.68Z" transform="translate(-347 -191)" fill="#020210"/></g><g transform="translate(40.327)"><path d="M367.2,183.4a4.2,4.2,0,1,1,4.2-4.2A4.206,4.206,0,0,1,367.2,183.4Zm0-6.721a2.52,2.52,0,1,0,2.52,2.52A2.524,2.524,0,0,0,367.2,176.68Z" transform="translate(-363 -175)" fill="#020210"/></g></g><g transform="translate(270.881 108.302)"><g transform="translate(24.364 21.214)"><rect width="6.721" height="6.511" fill="#50ba94"/></g><g transform="translate(31.086 27.725)"><rect width="6.721" height="6.721" fill="#d2e63e"/></g><g transform="translate(10.922 21.004)"><rect width="6.721" height="6.721" fill="#d2e63e"/></g><g transform="translate(37.807 7.561)"><rect width="6.721" height="6.721" fill="#d2e63e"/></g><g transform="translate(0.84 0.84)"><rect width="47.048" height="3.361" fill="#d1d1d1"/></g><path d="M362.888,161.647H315.84a.84.84,0,0,1-.84-.84V123.84a.84.84,0,0,1,.84-.84h47.048a.84.84,0,0,1,.84.84v36.967A.84.84,0,0,1,362.888,161.647Zm-46.208-1.68h45.368V124.68H316.68Z" transform="translate(-315 -123)" fill="#020210"/><g transform="translate(0 3.361)"><path d="M362.888,128.68H315.84a.84.84,0,0,1,0-1.68h47.048a.84.84,0,0,1,0,1.68Z" transform="translate(-315 -127)" fill="#020210"/></g><g transform="translate(3.361 6.721)"><path d="M360.167,159.985H319.84a.84.84,0,0,1-.84-.84v-27.3a.84.84,0,0,1,.84-.84h40.327a.84.84,0,0,1,.84.84v27.3A.84.84,0,0,1,360.167,159.985ZM320.68,158.3h38.647V132.68H320.68Z" transform="translate(-319 -131)" fill="#020210"/></g><g transform="translate(10.082 6.721)"><path d="M327.84,159.565a.84.84,0,0,1-.84-.84V131.84a.84.84,0,1,1,1.68,0v26.885A.84.84,0,0,1,327.84,159.565Z" transform="translate(-327 -131)" fill="#020210"/></g><g transform="translate(16.803 6.721)"><path d="M335.84,159.565a.84.84,0,0,1-.84-.84V131.84a.84.84,0,1,1,1.68,0v26.885A.84.84,0,0,1,335.84,159.565Z" transform="translate(-335 -131)" fill="#020210"/></g><g transform="translate(23.524 6.721)"><path d="M343.84,159.565a.84.84,0,0,1-.84-.84V131.84a.84.84,0,1,1,1.68,0v26.885A.84.84,0,0,1,343.84,159.565Z" transform="translate(-343 -131)" fill="#020210"/></g><g transform="translate(30.245 6.721)"><path d="M351.84,159.565a.84.84,0,0,1-.84-.84V131.84a.84.84,0,1,1,1.68,0v26.885A.84.84,0,0,1,351.84,159.565Z" transform="translate(-351 -131)" fill="#020210"/></g><g transform="translate(36.967 6.721)"><path d="M359.84,159.565a.84.84,0,0,1-.84-.84V131.84a.84.84,0,1,1,1.68,0v26.885A.84.84,0,0,1,359.84,159.565Z" transform="translate(-359 -131)" fill="#020210"/></g><g transform="translate(3.361 13.442)"><path d="M360.167,140.68H319.84a.84.84,0,0,1,0-1.68h40.327a.84.84,0,0,1,0,1.68Z" transform="translate(-319 -139)" fill="#020210"/></g><g transform="translate(3.361 20.164)"><path d="M360.167,148.68H319.84a.84.84,0,0,1,0-1.68h40.327a.84.84,0,1,1,0,1.68Z" transform="translate(-319 -147)" fill="#020210"/></g><g transform="translate(3.361 26.885)"><path d="M360.167,156.68H319.84a.84.84,0,0,1,0-1.68h40.327a.84.84,0,0,1,0,1.68Z" transform="translate(-319 -155)" fill="#020210"/></g></g><g transform="translate(270.881 219.202)"><path d="M362.888,263.4H315.84a.839.839,0,0,1-.84-.84V255.84a.839.839,0,0,1,.84-.84h47.048a.839.839,0,0,1,.84.84v6.721A.839.839,0,0,1,362.888,263.4Zm-46.208-1.68h45.368V256.68H316.68Z" transform="translate(-315 -255)" fill="#020210"/></g><g transform="translate(270.881 229.284)"><path d="M359.528,272.041H315.84a.839.839,0,0,1-.84-.84V267.84a.839.839,0,0,1,.84-.84h43.688a.839.839,0,0,1,.84.84V271.2A.839.839,0,0,1,359.528,272.041Zm-42.848-1.68h42.007v-1.68H316.68Z" transform="translate(-315 -267)" fill="#020210"/></g><g transform="translate(314.569 229.283)"><path d="M367.84,272.041a.841.841,0,0,1-.84-.84V267.84a.841.841,0,0,1,1.216-.752l3.361,1.68a.841.841,0,0,1,0,1.5l-3.361,1.68A.843.843,0,0,1,367.84,272.041Zm.84-2.841v.642l.642-.321Z" transform="translate(-367 -267)" fill="#020210"/></g><g transform="translate(274.242 229.284)"><path d="M319.84,272.041a.839.839,0,0,1-.84-.84V267.84a.84.84,0,1,1,1.68,0V271.2A.839.839,0,0,1,319.84,272.041Z" transform="translate(-319 -267)" fill="#020210"/></g><g transform="translate(274.242 219.202)"><g transform="translate(40.327)"><path d="M367.84,258.361a.839.839,0,0,1-.84-.84v-1.68a.84.84,0,0,1,1.68,0v1.68A.839.839,0,0,1,367.84,258.361Z" transform="translate(-367 -255)" fill="#020210"/></g><g transform="translate(36.967)"><path d="M363.84,258.361a.839.839,0,0,1-.84-.84v-1.68a.84.84,0,1,1,1.68,0v1.68A.839.839,0,0,1,363.84,258.361Z" transform="translate(-363 -255)" fill="#020210"/></g><g transform="translate(33.606)"><path d="M359.84,258.361a.839.839,0,0,1-.84-.84v-1.68a.84.84,0,0,1,1.68,0v1.68A.839.839,0,0,1,359.84,258.361Z" transform="translate(-359 -255)" fill="#020210"/></g><g transform="translate(30.245)"><path d="M355.84,258.361a.839.839,0,0,1-.84-.84v-1.68a.84.84,0,1,1,1.68,0v1.68A.839.839,0,0,1,355.84,258.361Z" transform="translate(-355 -255)" fill="#020210"/></g><g transform="translate(26.885)"><path d="M351.84,258.361a.839.839,0,0,1-.84-.84v-1.68a.84.84,0,1,1,1.68,0v1.68A.839.839,0,0,1,351.84,258.361Z" transform="translate(-351 -255)" fill="#020210"/></g><g transform="translate(23.524)"><path d="M347.84,258.361a.839.839,0,0,1-.84-.84v-1.68a.84.84,0,1,1,1.68,0v1.68A.839.839,0,0,1,347.84,258.361Z" transform="translate(-347 -255)" fill="#020210"/></g><g transform="translate(20.164)"><path d="M343.84,258.361a.839.839,0,0,1-.84-.84v-1.68a.84.84,0,1,1,1.68,0v1.68A.839.839,0,0,1,343.84,258.361Z" transform="translate(-343 -255)" fill="#020210"/></g><g transform="translate(16.803)"><path d="M339.84,258.361a.839.839,0,0,1-.84-.84v-1.68a.84.84,0,0,1,1.68,0v1.68A.839.839,0,0,1,339.84,258.361Z" transform="translate(-339 -255)" fill="#020210"/></g><g transform="translate(13.442)"><path d="M335.84,258.361a.839.839,0,0,1-.84-.84v-1.68a.84.84,0,1,1,1.68,0v1.68A.839.839,0,0,1,335.84,258.361Z" transform="translate(-335 -255)" fill="#020210"/></g><g transform="translate(10.082)"><path d="M331.84,258.361a.839.839,0,0,1-.84-.84v-1.68a.84.84,0,0,1,1.68,0v1.68A.839.839,0,0,1,331.84,258.361Z" transform="translate(-331 -255)" fill="#020210"/></g><g transform="translate(6.721)"><path d="M327.84,258.361a.839.839,0,0,1-.84-.84v-1.68a.84.84,0,1,1,1.68,0v1.68A.839.839,0,0,1,327.84,258.361Z" transform="translate(-327 -255)" fill="#020210"/></g><g transform="translate(3.361)"><path d="M323.84,258.361a.839.839,0,0,1-.84-.84v-1.68a.84.84,0,1,1,1.68,0v1.68A.839.839,0,0,1,323.84,258.361Z" transform="translate(-323 -255)" fill="#020210"/></g><g transform="translate(0)"><path d="M319.84,258.361a.839.839,0,0,1-.84-.84v-1.68a.84.84,0,1,1,1.68,0v1.68A.839.839,0,0,1,319.84,258.361Z" transform="translate(-319 -255)" fill="#020210"/></g></g><g transform="translate(79.327 239.366)"><g transform="translate(0 0.011)"><path d="M87.84,280.682a.842.842,0,1,1,.6-1.437.865.865,0,0,1,.244.6.832.832,0,0,1-.84.84Z" transform="translate(-87 -279.013)" fill="#020210"/></g><g transform="translate(3.361)"><path d="M208.621,279.84a.843.843,0,0,1,.84-.84h0a.843.843,0,0,1,.84.84h0a.843.843,0,0,1-.84.84h0A.843.843,0,0,1,208.621,279.84Zm-3.361,0a.843.843,0,0,1,.84-.84h0a.843.843,0,0,1,.84.84h0a.843.843,0,0,1-.84.84h0A.843.843,0,0,1,205.26,279.84Zm-3.361,0a.843.843,0,0,1,.84-.84h0a.843.843,0,0,1,.84.84h0a.843.843,0,0,1-.84.84h0A.843.843,0,0,1,201.9,279.84Zm-3.361,0a.843.843,0,0,1,.84-.84h0a.843.843,0,0,1,.84.84h0a.843.843,0,0,1-.84.84h0A.843.843,0,0,1,198.539,279.84Zm-3.361,0a.843.843,0,0,1,.84-.84h0a.843.843,0,0,1,.84.84h0a.843.843,0,0,1-.84.84h0A.843.843,0,0,1,195.178,279.84Zm-3.361,0a.843.843,0,0,1,.84-.84h0a.843.843,0,0,1,.84.84h0a.843.843,0,0,1-.84.84h0A.843.843,0,0,1,191.818,279.84Zm-3.361,0a.843.843,0,0,1,.84-.84h0a.843.843,0,0,1,.84.84h0a.843.843,0,0,1-.84.84h0A.843.843,0,0,1,188.457,279.84Zm-3.361,0a.843.843,0,0,1,.84-.84h0a.843.843,0,0,1,.84.84h0a.843.843,0,0,1-.84.84h0A.843.843,0,0,1,185.1,279.84Zm-3.361,0a.843.843,0,0,1,.84-.84h0a.843.843,0,0,1,.84.84h0a.843.843,0,0,1-.84.84h0A.843.843,0,0,1,181.736,279.84Zm-3.361,0a.843.843,0,0,1,.84-.84h0a.843.843,0,0,1,.84.84h0a.843.843,0,0,1-.84.84h0A.843.843,0,0,1,178.375,279.84Zm-3.361,0a.843.843,0,0,1,.84-.84h0a.843.843,0,0,1,.84.84h0a.843.843,0,0,1-.84.84h0A.843.843,0,0,1,175.015,279.84Zm-3.361,0a.843.843,0,0,1,.84-.84h0a.843.843,0,0,1,.84.84h0a.843.843,0,0,1-.84.84h0A.843.843,0,0,1,171.654,279.84Zm-3.361,0a.843.843,0,0,1,.84-.84h0a.843.843,0,0,1,.84.84h0a.843.843,0,0,1-.84.84h0A.843.843,0,0,1,168.294,279.84Zm-3.361,0a.843.843,0,0,1,.84-.84h0a.843.843,0,0,1,.84.84h0a.843.843,0,0,1-.84.84h0A.843.843,0,0,1,164.933,279.84Zm-3.361,0a.843.843,0,0,1,.84-.84h0a.843.843,0,0,1,.84.84h0a.843.843,0,0,1-.84.84h0A.843.843,0,0,1,161.573,279.84Zm-3.361,0a.843.843,0,0,1,.84-.84h0a.843.843,0,0,1,.84.84h0a.843.843,0,0,1-.84.84h0A.843.843,0,0,1,158.212,279.84Zm-3.361,0a.843.843,0,0,1,.84-.84h0a.843.843,0,0,1,.84.84h0a.843.843,0,0,1-.84.84h0A.843.843,0,0,1,154.851,279.84Zm-3.361,0a.843.843,0,0,1,.84-.84h0a.843.843,0,0,1,.84.84h0a.843.843,0,0,1-.84.84h0A.843.843,0,0,1,151.491,279.84Zm-3.361,0a.843.843,0,0,1,.84-.84h0a.843.843,0,0,1,.84.84h0a.843.843,0,0,1-.84.84h0A.843.843,0,0,1,148.13,279.84Zm-3.361,0a.843.843,0,0,1,.84-.84h0a.843.843,0,0,1,.84.84h0a.843.843,0,0,1-.84.84h0A.843.843,0,0,1,144.77,279.84Zm-3.361,0a.843.843,0,0,1,.84-.84h0a.843.843,0,0,1,.84.84h0a.843.843,0,0,1-.84.84h0A.843.843,0,0,1,141.409,279.84Zm-3.361,0a.843.843,0,0,1,.84-.84h0a.843.843,0,0,1,.84.84h0a.843.843,0,0,1-.84.84h0A.843.843,0,0,1,138.048,279.84Zm-3.361,0a.843.843,0,0,1,.84-.84h0a.843.843,0,0,1,.84.84h0a.843.843,0,0,1-.84.84h0A.843.843,0,0,1,134.688,279.84Zm-3.361,0a.843.843,0,0,1,.84-.84h0a.843.843,0,0,1,.84.84h0a.843.843,0,0,1-.84.84h0A.843.843,0,0,1,131.327,279.84Zm-3.361,0a.843.843,0,0,1,.84-.84h0a.843.843,0,0,1,.84.84h0a.843.843,0,0,1-.84.84h0A.843.843,0,0,1,127.967,279.84Zm-3.361,0a.843.843,0,0,1,.84-.84h0a.843.843,0,0,1,.84.84h0a.843.843,0,0,1-.84.84h0A.843.843,0,0,1,124.606,279.84Zm-3.361,0a.843.843,0,0,1,.84-.84h0a.843.843,0,0,1,.84.84h0a.843.843,0,0,1-.84.84h0A.843.843,0,0,1,121.245,279.84Zm-3.361,0a.843.843,0,0,1,.84-.84h0a.843.843,0,0,1,.84.84h0a.843.843,0,0,1-.84.84h0A.843.843,0,0,1,117.885,279.84Zm-3.361,0a.843.843,0,0,1,.84-.84h0a.843.843,0,0,1,.84.84h0a.843.843,0,0,1-.84.84h0A.843.843,0,0,1,114.524,279.84Zm-3.361,0A.843.843,0,0,1,112,279h0a.843.843,0,0,1,.84.84h0a.843.843,0,0,1-.84.84h0A.843.843,0,0,1,111.164,279.84Zm-3.361,0a.843.843,0,0,1,.84-.84h0a.843.843,0,0,1,.84.84h0a.843.843,0,0,1-.84.84h0A.843.843,0,0,1,107.8,279.84Zm-3.361,0a.843.843,0,0,1,.84-.84h0a.843.843,0,0,1,.84.84h0a.843.843,0,0,1-.84.84h0A.843.843,0,0,1,104.442,279.84Zm-3.361,0a.843.843,0,0,1,.84-.84h0a.843.843,0,0,1,.84.84h0a.843.843,0,0,1-.84.84h0A.843.843,0,0,1,101.082,279.84Zm-3.361,0a.843.843,0,0,1,.84-.84h0a.843.843,0,0,1,.84.84h0a.843.843,0,0,1-.84.84h0A.843.843,0,0,1,97.721,279.84Zm-3.361,0a.843.843,0,0,1,.84-.84h0a.843.843,0,0,1,.84.84h0a.843.843,0,0,1-.84.84h0A.843.843,0,0,1,94.361,279.84Zm-3.361,0a.843.843,0,0,1,.84-.84h0a.843.843,0,0,1,.84.84h0a.843.843,0,0,1-.84.84h0A.843.843,0,0,1,91,279.84Z" transform="translate(-91 -279)" fill="#020210"/></g><g transform="translate(124.342 0.011)"><path d="M235.84,280.682a.832.832,0,0,1-.84-.84.865.865,0,0,1,.244-.6.88.88,0,0,1,1.193,0,.865.865,0,0,1,.244.6.832.832,0,0,1-.84.84Z" transform="translate(-235 -279.013)" fill="#020210"/></g></g><g transform="translate(217.112 64.615)"><g transform="translate(63.851 0.01)"><path d="M327.84,72.682a.832.832,0,0,1-.84-.84.84.84,0,0,1,1.437-.6.867.867,0,0,1,.244.6.846.846,0,0,1-.84.84Z" transform="translate(-327 -71.013)" fill="#020210"/></g><g transform="translate(3.361)"><path d="M312.13,71.84a.843.843,0,0,1,.84-.84h0a.843.843,0,0,1,.84.84h0a.843.843,0,0,1-.84.84h0A.843.843,0,0,1,312.13,71.84Zm-3.361,0a.843.843,0,0,1,.84-.84h0a.843.843,0,0,1,.84.84h0a.843.843,0,0,1-.84.84h0A.843.843,0,0,1,308.77,71.84Zm-3.361,0a.843.843,0,0,1,.84-.84h0a.843.843,0,0,1,.84.84h0a.843.843,0,0,1-.84.84h0A.843.843,0,0,1,305.409,71.84Zm-3.361,0a.843.843,0,0,1,.84-.84h0a.843.843,0,0,1,.84.84h0a.843.843,0,0,1-.84.84h0A.843.843,0,0,1,302.048,71.84Zm-3.361,0a.843.843,0,0,1,.84-.84h0a.843.843,0,0,1,.84.84h0a.843.843,0,0,1-.84.84h0A.843.843,0,0,1,298.688,71.84Zm-3.361,0a.843.843,0,0,1,.84-.84h0a.843.843,0,0,1,.84.84h0a.843.843,0,0,1-.84.84h0A.843.843,0,0,1,295.327,71.84Zm-3.361,0a.843.843,0,0,1,.84-.84h0a.843.843,0,0,1,.84.84h0a.843.843,0,0,1-.84.84h0A.843.843,0,0,1,291.967,71.84Zm-3.361,0a.843.843,0,0,1,.84-.84h0a.843.843,0,0,1,.84.84h0a.843.843,0,0,1-.84.84h0A.843.843,0,0,1,288.606,71.84Zm-3.361,0a.843.843,0,0,1,.84-.84h0a.843.843,0,0,1,.84.84h0a.843.843,0,0,1-.84.84h0A.843.843,0,0,1,285.245,71.84Zm-3.361,0a.843.843,0,0,1,.84-.84h0a.843.843,0,0,1,.84.84h0a.843.843,0,0,1-.84.84h0A.843.843,0,0,1,281.885,71.84Zm-3.361,0a.843.843,0,0,1,.84-.84h0a.843.843,0,0,1,.84.84h0a.843.843,0,0,1-.84.84h0A.843.843,0,0,1,278.524,71.84Zm-3.361,0A.843.843,0,0,1,276,71h0a.843.843,0,0,1,.84.84h0a.843.843,0,0,1-.84.84h0A.843.843,0,0,1,275.164,71.84Zm-3.361,0a.843.843,0,0,1,.84-.84h0a.843.843,0,0,1,.84.84h0a.843.843,0,0,1-.84.84h0A.843.843,0,0,1,271.8,71.84Zm-3.361,0a.843.843,0,0,1,.84-.84h0a.843.843,0,0,1,.84.84h0a.843.843,0,0,1-.84.84h0A.843.843,0,0,1,268.442,71.84Zm-3.361,0a.843.843,0,0,1,.84-.84h0a.843.843,0,0,1,.84.84h0a.843.843,0,0,1-.84.84h0A.843.843,0,0,1,265.082,71.84Zm-3.361,0a.843.843,0,0,1,.84-.84h0a.843.843,0,0,1,.84.84h0a.843.843,0,0,1-.84.84h0A.843.843,0,0,1,261.721,71.84Zm-3.361,0a.843.843,0,0,1,.84-.84h0a.843.843,0,0,1,.84.84h0a.843.843,0,0,1-.84.84h0A.843.843,0,0,1,258.361,71.84Zm-3.361,0a.843.843,0,0,1,.84-.84h0a.843.843,0,0,1,.84.84h0a.843.843,0,0,1-.84.84h0A.843.843,0,0,1,255,71.84Z" transform="translate(-255 -71)" fill="#020210"/></g><g transform="translate(0 0.01)"><path d="M251.84,72.682a.842.842,0,1,1,.6-1.437.868.868,0,0,1,.244.6.832.832,0,0,1-.84.84Z" transform="translate(-251 -71.013)" fill="#020210"/></g></g><g transform="translate(196.948 246.087)"><path d="M261.446,288.68H227.84a.84.84,0,0,1,0-1.68h33.606a.84.84,0,0,1,0,1.68Z" transform="translate(-227 -287)" fill="#020210"/></g><g transform="translate(227.193 249.447)"><path d="M270.561,292.68H263.84a.84.84,0,1,1,0-1.68h6.721a.84.84,0,1,1,0,1.68Z" transform="translate(-263 -291)" fill="#020210"/></g><g transform="translate(270.881 47.812)"><path d="M346.085,52.68H315.84a.84.84,0,0,1,0-1.68h30.245a.84.84,0,0,1,0,1.68Z" transform="translate(-315 -51)" fill="#020210"/></g><g transform="translate(264.16 44.451)"><path d="M317.922,48.68H307.84a.84.84,0,1,1,0-1.68h10.082a.84.84,0,1,1,0,1.68Z" transform="translate(-307 -47)" fill="#020210"/></g><g transform="translate(79.327 64.615)"><path d="M121.446,72.68H87.84a.84.84,0,1,1,0-1.68h33.606a.84.84,0,0,1,0,1.68Z" transform="translate(-87 -71)" fill="#020210"/></g><g transform="translate(106.212 256.169)"><path d="M126.561,300.68H119.84a.84.84,0,0,1,0-1.68h6.721a.84.84,0,0,1,0,1.68Z" transform="translate(-119 -299)" fill="#020210"/></g><g transform="translate(109.573 259.529)"><path d="M133.922,304.68H123.84a.84.84,0,0,1,0-1.68h10.082a.84.84,0,0,1,0,1.68Z" transform="translate(-123 -303)" fill="#020210"/></g><g transform="translate(348.175 64.615)"><path d="M421.283,72.68H407.84a.84.84,0,0,1,0-1.68h13.442a.84.84,0,0,1,0,1.68Z" transform="translate(-407 -71)" fill="#020210"/></g><g transform="translate(351.535 239.366)"><path d="M421.922,280.68H411.84a.84.84,0,0,1,0-1.68h10.082a.84.84,0,1,1,0,1.68Z" transform="translate(-411 -279)" fill="#020210"/></g><g transform="translate(106.212 54.533)"><path d="M126.561,60.68H119.84a.84.84,0,1,1,0-1.68h6.721a.84.84,0,1,1,0,1.68Z" transform="translate(-119 -59)" fill="#020210"/></g><g transform="translate(109.573 51.172)"><path d="M133.922,56.68H123.84a.84.84,0,1,1,0-1.68h10.082a.84.84,0,0,1,0,1.68Z" transform="translate(-123 -55)" fill="#020210"/></g><g transform="translate(368.338 94.971)"><path d="M441.821,132.1a.842.842,0,0,1-.714-.949h0a.835.835,0,0,1,.949-.714h0a.836.836,0,0,1,.714.949h0a.841.841,0,0,1-.833.723h0A.587.587,0,0,1,441.821,132.1Zm2.637-.714a.836.836,0,0,1,.706-.949h0a.845.845,0,0,1,.959.706h0a.858.858,0,0,1-.715.958h0c-.041,0-.083.008-.125.008h0A.833.833,0,0,1,444.458,131.385Zm-6.073-.286a.842.842,0,0,1-.42-1.117h0a.838.838,0,0,1,1.108-.42v.008a.828.828,0,0,1,.42,1.109h0a.841.841,0,0,1-.764.5h0A.821.821,0,0,1,438.385,131.1Zm9.351-.428a.845.845,0,0,1,.412-1.117h0a.849.849,0,0,1,1.117.42h0a.839.839,0,0,1-.42,1.109h0a.824.824,0,0,1-.344.076h0A.834.834,0,0,1,447.736,130.671Zm-12.376-1.512h0a.838.838,0,0,1-.083-1.185h0a.838.838,0,0,1,1.185-.084h0a.839.839,0,0,1,.084,1.185h0a.822.822,0,0,1-.63.286h0A.854.854,0,0,1,435.359,129.159Zm15.317-.1a.832.832,0,0,1,.083-1.185h0a.84.84,0,0,1,1.185.084h0a.838.838,0,0,1-.084,1.185h0a.817.817,0,0,1-.554.21h0A.816.816,0,0,1,450.676,129.058Zm-17.668-2.6a.841.841,0,0,1,.251-1.159h0a.834.834,0,0,1,1.159.252h0a.833.833,0,0,1-.252,1.159h0a.8.8,0,0,1-.454.134h0A.828.828,0,0,1,433.008,126.454Zm20.038.235a.843.843,0,0,1-.253-1.168h0a.842.842,0,0,1,1.159-.252h0a.842.842,0,0,1,.253,1.168h0a.842.842,0,0,1-.706.378h0A.9.9,0,0,1,453.046,126.689Zm-21.534-3.5h0a.847.847,0,0,1,.572-1.042h0a.839.839,0,0,1,1.042.571h0a.839.839,0,0,1-.571,1.042h0a.761.761,0,0,1-.236.034h0A.843.843,0,0,1,431.512,123.194Zm23.147.546a.829.829,0,0,1-.572-1.042h0a.843.843,0,0,1,1.043-.571h0a.844.844,0,0,1,.571,1.042h0a.841.841,0,0,1-.807.6h0A.757.757,0,0,1,454.659,123.74ZM431,119.648a.837.837,0,0,1,.84-.84h0a.837.837,0,0,1,.84.84h0a.837.837,0,0,1-.84.84h0A.843.843,0,0,1,431,119.648Zm23.524-.025V119.6h0v-.017h0a.842.842,0,0,1,.832-.849h0a.844.844,0,0,1,.849.84h0v.025h0v.025h0a.843.843,0,0,1-.84.84h0A.843.843,0,0,1,454.524,119.623Zm-22.449-2.487a.831.831,0,0,1-.58-1.033h.008a.82.82,0,0,1,1.033-.571h0a.827.827,0,0,1,.571,1.033h.008a.842.842,0,0,1-.814.6h0A.708.708,0,0,1,432.075,117.136Zm22-.63a.835.835,0,0,1,.571-1.042h0a.834.834,0,0,1,1.042.563h0a.841.841,0,0,1-.563,1.042h0a.82.82,0,0,1-.244.034h0A.844.844,0,0,1,454.07,116.506Zm-20.836-2.512a.843.843,0,0,1-.253-1.159h0a.835.835,0,0,1,1.16-.252h0a.831.831,0,0,1,.252,1.159h0a.829.829,0,0,1-.706.386h0A.835.835,0,0,1,433.235,113.994Zm19.534-.311a.833.833,0,0,1,.252-1.159h0a.839.839,0,0,1,1.159.244h0a.842.842,0,0,1-.252,1.168h0a.8.8,0,0,1-.454.134h0A.829.829,0,0,1,452.768,113.683Zm-17.526-2.378a.838.838,0,0,1,.083-1.185h0a.84.84,0,0,1,1.185.084h0a.84.84,0,0,1-.084,1.185h0a.847.847,0,0,1-.546.2h0A.838.838,0,0,1,435.243,111.306Zm15.483.042a.85.85,0,0,1-.092-1.193h0a.847.847,0,0,1,1.185-.084h0a.839.839,0,0,1,.092,1.185h0a.848.848,0,0,1-.639.294h0A.848.848,0,0,1,450.726,111.348Zm-12.8-2.058a.842.842,0,0,1,.411-1.117h0a.849.849,0,0,1,1.118.412h0a.846.846,0,0,1-.413,1.117h-.008a.823.823,0,0,1-.345.076h0A.847.847,0,0,1,437.923,109.289Zm10.182.378a.845.845,0,0,1-.42-1.109h0a.847.847,0,0,1,1.117-.42h0a.853.853,0,0,1,.42,1.117h0a.861.861,0,0,1-.773.487h0A.888.888,0,0,1,448.1,109.668Zm-7.04-1.563a.83.83,0,0,1,.706-.949h0a.845.845,0,0,1,.959.706h0a.857.857,0,0,1-.715.958h0c-.041,0-.083.008-.117.008h0A.841.841,0,0,1,441.064,108.1Zm4.059.7h0a.828.828,0,0,1-.714-.941h0a.844.844,0,0,1,.949-.723h0a.852.852,0,0,1,.713.949h0a.84.84,0,0,1-.831.723h0A.547.547,0,0,1,445.123,108.8Z" transform="translate(-431 -107.132)" fill="#020210"/></g><g transform="translate(136.644 31.054)"><path d="M162.588,45.342a.834.834,0,0,1,.731-.933h0a.839.839,0,0,1,.933.731h0a.829.829,0,0,1-.731.933h0a.409.409,0,0,1-.1.008h0A.836.836,0,0,1,162.588,45.342Zm-2.655.311v-.008h0a.837.837,0,0,1-.5-1.075h0a.85.85,0,0,1,1.084-.5h0a.846.846,0,0,1,.5,1.084h0a.859.859,0,0,1-.79.546h0A.866.866,0,0,1,159.934,45.652Zm5.8-1.075a.845.845,0,0,1,.21-1.168h0a.836.836,0,0,1,1.168.21h0a.83.83,0,0,1-.21,1.168h0a.83.83,0,0,1-.479.151h0A.838.838,0,0,1,165.731,44.577Zm-8.78-.975a.837.837,0,0,1,.067-1.185h0a.831.831,0,0,1,1.185.067h0a.838.838,0,0,1-.067,1.185h0a.833.833,0,0,1-.555.21h0A.842.842,0,0,1,156.951,43.6Zm11.208-1.168a.837.837,0,0,1-.353-1.134h0a.837.837,0,0,1,1.134-.353h0a.837.837,0,0,1,.353,1.134h0a.833.833,0,0,1-.748.445h0A.817.817,0,0,1,168.159,42.435Zm-12.9-2.033a.833.833,0,0,1,.613-1.017h0a.844.844,0,0,1,1.017.613h0a.842.842,0,0,1-.613,1.017h0a.829.829,0,0,1-.2.025h0A.834.834,0,0,1,155.262,40.4Zm13.216-1.832v-.025h0v-.017h0a.837.837,0,0,1,.832-.849h0a.843.843,0,0,1,.849.832h0v.034h0v.025h0a.843.843,0,0,1-.84.84h0A.843.843,0,0,1,168.478,38.57Zm-12.611-.765a.841.841,0,0,1-.622-1.017h0a.841.841,0,0,1,1.017-.622h0a.854.854,0,0,1,.622,1.017h0a.849.849,0,0,1-.815.647h0A.828.828,0,0,1,155.867,37.805ZM167.789,35.8a.836.836,0,0,1,.344-1.134h0a.836.836,0,0,1,1.134.344h0a.834.834,0,0,1-.344,1.134h0a.836.836,0,0,1-.395.1h0A.83.83,0,0,1,167.789,35.8Zm-10.8-1.033a.83.83,0,0,1-.076-1.185h0A.846.846,0,0,1,158.1,33.5h0a.847.847,0,0,1,.076,1.185h0a.834.834,0,0,1-.63.286h0A.817.817,0,0,1,156.993,34.764Zm8.914-1.059a.837.837,0,0,1-.218-1.168h0a.845.845,0,0,1,1.168-.218h0a.845.845,0,0,1,.218,1.168h0a.85.85,0,0,1-.7.37h0A.824.824,0,0,1,165.907,33.705ZM159.4,32.6a.838.838,0,0,1,.487-1.084h-.008a.847.847,0,0,1,1.092.479h0a.832.832,0,0,1-.487,1.084h0a.747.747,0,0,1-.3.059h0A.831.831,0,0,1,159.4,32.6Zm3.873.134a.84.84,0,0,1-.731-.933h0a.834.834,0,0,1,.924-.739h0a.841.841,0,0,1,.739.933h0a.836.836,0,0,1-.832.739h-.1Z" transform="translate(-155.222 -31.054)" fill="#020210"/></g><g transform="translate(247.357 242.726)"><path d="M302.139,314.086a.843.843,0,0,1,.84-.84h0a.837.837,0,0,1,.84.84h0a.843.843,0,0,1-.84.84h0A.843.843,0,0,1,302.139,314.086Zm-2.713.445a.836.836,0,0,1-.63-1h0a.846.846,0,0,1,1.008-.639h0a.848.848,0,0,1,.63,1.008h0a.851.851,0,0,1-.823.655h0A.748.748,0,0,1,299.426,314.531Zm6.1-.639a.839.839,0,0,1,.63-1.009h0a.851.851,0,0,1,1.008.639h0a.842.842,0,0,1-.639,1h0a.657.657,0,0,1-.186.025h0A.835.835,0,0,1,305.525,313.892Zm-9.478-.538h0a.84.84,0,0,1-.386-1.117h0a.834.834,0,0,1,1.117-.395h0a.835.835,0,0,1,.394,1.117h0a.836.836,0,0,1-.755.478h0A.85.85,0,0,1,296.048,313.355Zm12.729-.4a.843.843,0,0,1,.395-1.125h0a.836.836,0,0,1,1.117.395h0a.837.837,0,0,1-.386,1.117h0a.812.812,0,0,1-.371.085h0A.829.829,0,0,1,308.777,312.951Zm-15.744-1.495h-.008a.839.839,0,0,1-.134-1.176h0a.835.835,0,0,1,1.185-.134h0a.839.839,0,0,1,.134,1.176h0a.843.843,0,0,1-.664.319h0A.8.8,0,0,1,293.032,311.456Zm18.71-.151a.825.825,0,0,1,.134-1.176h-.008a.842.842,0,0,1,1.185.126h0a.843.843,0,0,1-.134,1.185h0a.807.807,0,0,1-.522.184h0A.836.836,0,0,1,311.742,311.3ZM290.5,308.935a.85.85,0,0,1,.134-1.185h0a.84.84,0,0,1,1.177.134h0a.831.831,0,0,1-.127,1.176h0a.827.827,0,0,1-.529.185h0A.828.828,0,0,1,290.5,308.935Zm23.768.109a.841.841,0,0,1-.126-1.185h-.008a.842.842,0,0,1,1.185-.126h0a.839.839,0,0,1,.134,1.176h0a.836.836,0,0,1-.654.319h0A.85.85,0,0,1,314.263,309.045Zm-25.675-3.125a.846.846,0,0,1,.387-1.126h0a.847.847,0,0,1,1.125.386h0a.84.84,0,0,1-.387,1.127h0a.816.816,0,0,1-.369.084h0A.845.845,0,0,1,288.588,305.919Zm27.641.361a.845.845,0,0,1-.4-1.126h0a.834.834,0,0,1,1.127-.386h0a.837.837,0,0,1,.386,1.117h0a.838.838,0,0,1-.756.479h0A.943.943,0,0,1,316.229,306.281ZM287.4,302.542a.848.848,0,0,1,.63-1.008h0a.846.846,0,0,1,1.009.638h0a.849.849,0,0,1-.63,1.009h0a1.511,1.511,0,0,1-.185.017h0A.838.838,0,0,1,287.4,302.542Zm30.12.6a.837.837,0,0,1-.63-1.007h0a.833.833,0,0,1,1.008-.63h0a.847.847,0,0,1,.63,1.007h0a.844.844,0,0,1-.823.648h0A.685.685,0,0,1,317.523,303.146ZM287,299a.837.837,0,0,1,.84-.84h0a.83.83,0,0,1,.84.832h0a.85.85,0,0,1-.84.849h0A.843.843,0,0,1,287,299Zm30.245-.034h0v-.008h0v-.05h0a.837.837,0,0,1,.832-.849h0a.85.85,0,0,1,.849.84h0v.034h0v.034h0a.843.843,0,0,1-.84.84h0A.843.843,0,0,1,317.245,298.963Zm1.68-.067Zm-30.9-2.445a.846.846,0,0,1-.639-1.008h0v.008h0a.846.846,0,0,1,1.008-.638h0a.832.832,0,0,1,.63,1h.008a.843.843,0,0,1-.824.655h0A.687.687,0,0,1,288.025,296.451Zm28.851-.723a.838.838,0,0,1,.63-1.007h0a.837.837,0,0,1,1.008.63h0a.837.837,0,0,1-.63,1.007h0a1.272,1.272,0,0,1-.185.018h0A.844.844,0,0,1,316.876,295.727Zm-27.918-2.536a.845.845,0,0,1-.4-1.126h0a.838.838,0,0,1,1.117-.387h0a.833.833,0,0,1,.4,1.117h0a.837.837,0,0,1-.756.478h0A.9.9,0,0,1,288.958,293.191Zm26.851-.479h0a.834.834,0,0,1,.386-1.118h0a.833.833,0,0,1,1.126.387h0a.84.84,0,0,1-.386,1.117h0a.83.83,0,0,1-.37.092h0A.836.836,0,0,1,315.809,292.712Zm-25.213-2.5a.824.824,0,0,1-.134-1.176h0a.831.831,0,0,1,1.175-.134h0a.84.84,0,0,1,.135,1.176h0a.842.842,0,0,1-.656.319h0A.807.807,0,0,1,290.6,290.217Zm23.5-.2h0a.839.839,0,0,1,.125-1.176h0a.842.842,0,0,1,1.185.126h0a.842.842,0,0,1-.126,1.185h0a.9.9,0,0,1-.529.184h0A.838.838,0,0,1,314.095,290.015Zm-21.247-2.327a.831.831,0,0,1,.125-1.176h0a.841.841,0,0,1,1.185.126h0a.829.829,0,0,1-.125,1.175v.009a.9.9,0,0,1-.529.185h0A.839.839,0,0,1,292.847,287.688Zm18.979.076h0a.839.839,0,0,1-.134-1.176h0a.833.833,0,0,1,1.176-.143h0a.844.844,0,0,1,.143,1.185h0a.843.843,0,0,1-.664.319h0A.855.855,0,0,1,311.826,287.764ZM295.6,285.722a.849.849,0,0,1,.387-1.127H296a.842.842,0,0,1,1.117.386h0a.849.849,0,0,1-.387,1.127h0a.823.823,0,0,1-.37.084h0A.853.853,0,0,1,295.6,285.722Zm13.509.344a.838.838,0,0,1-.394-1.117h0a.841.841,0,0,1,1.125-.394h0a.835.835,0,0,1,.4,1.117h0a.841.841,0,0,1-.765.479h0A.8.8,0,0,1,309.112,286.066Zm-10.375-1.654a.839.839,0,0,1,.63-1.009h0a.856.856,0,0,1,1.008.63h0a.847.847,0,0,1-.63,1.009h0a.817.817,0,0,1-.194.025h0A.826.826,0,0,1,298.737,284.411Zm7.359.613h0a.841.841,0,0,1-.638-1h0a.845.845,0,0,1,1.008-.639h0a.825.825,0,0,1,.63,1h0a.827.827,0,0,1-.815.656h0A.7.7,0,0,1,306.1,285.025Zm-4.024-1.185a.843.843,0,0,1,.84-.84h0a.837.837,0,0,1,.84.84h0a.835.835,0,0,1-.831.84h0A.85.85,0,0,1,302.071,283.84Z" transform="translate(-287 -283)" fill="#020210"/></g><g transform="translate(62.524 168.863)"><path d="M71.848,206.683a.838.838,0,0,1-.681-.975h0a.835.835,0,0,1,.975-.68h0a.851.851,0,0,1,.681.975h0a.846.846,0,0,1-.832.7h0A1.052,1.052,0,0,1,71.848,206.683Zm2.806-1a.839.839,0,0,1,.311-1.143h0a.841.841,0,0,1,1.151.311h0A.849.849,0,0,1,75.8,206h0a.848.848,0,0,1-.42.109h0A.846.846,0,0,1,74.654,205.683Zm-6.284-1.017a.841.841,0,0,1,.109-1.185h0a.83.83,0,0,1,1.176.109h0a.84.84,0,0,1-.1,1.185h0a.861.861,0,0,1-.538.193h0A.834.834,0,0,1,68.369,204.667Zm8.948-1.235a.837.837,0,0,1-.5-1.075h0a.847.847,0,0,1,1.084-.5h0a.853.853,0,0,1,.5,1.084h0a.85.85,0,0,1-.79.546h0A.9.9,0,0,1,77.317,203.432ZM67,200.894v-.025h0v-.042h0a.843.843,0,0,1,.849-.832h0a.843.843,0,0,1,.832.849h0v.025h0v.025h0a.843.843,0,0,1-.84.84h0A.843.843,0,0,1,67,200.894Zm1.68-.05Zm8.158-1.362a.849.849,0,0,1,.512-1.075h0a.83.83,0,0,1,1.067.512h0a.826.826,0,0,1-.5,1.068h0a.852.852,0,0,1-.286.05h0A.838.838,0,0,1,76.838,199.482ZM68.5,198.248a.847.847,0,0,1-.092-1.185h0a.838.838,0,0,1,1.185-.084h0a.839.839,0,0,1,.092,1.185h0a.85.85,0,0,1-.639.294h0A.812.812,0,0,1,68.5,198.248Zm6.5-.975h0a.849.849,0,0,1-.294-1.152h0a.839.839,0,0,1,1.151-.3h0a.845.845,0,0,1,.294,1.151h0a.844.844,0,0,1-.723.42h0A.89.89,0,0,1,75.007,197.273Zm-3.789-1.218a.843.843,0,0,1,.7-.966v.008a.831.831,0,0,1,.966.689h0a.842.842,0,0,1-.7.965h0a.659.659,0,0,1-.134.009h0A.853.853,0,0,1,71.218,196.055Z" transform="translate(-67 -195.084)" fill="#020210"/></g><g transform="translate(280.963 242.726)"><path d="M332.881,294.762a5.881,5.881,0,1,1,5.881-5.881A5.889,5.889,0,0,1,332.881,294.762Zm0-10.082a4.2,4.2,0,1,0,4.2,4.2A4.206,4.206,0,0,0,332.881,284.68Z" transform="translate(-327 -283)" fill="#020210"/></g><g transform="translate(213.751 49.492)"><path d="M251.2,61.4a4.2,4.2,0,1,1,4.2-4.2A4.205,4.205,0,0,1,251.2,61.4Zm0-6.721a2.52,2.52,0,1,0,2.52,2.521A2.524,2.524,0,0,0,251.2,54.68Z" transform="translate(-247 -53)" fill="#020210"/></g><g transform="translate(39 108.302)"><path d="M41.52,128.041a2.52,2.52,0,1,1,2.52-2.52A2.524,2.524,0,0,1,41.52,128.041Zm0-3.361a.84.84,0,1,0,.84.84A.842.842,0,0,0,41.52,124.68Z" transform="translate(-39 -123)" fill="#020210"/></g><g transform="translate(149.9 246.087)"><path d="M173.52,292.041a2.52,2.52,0,1,1,2.52-2.52A2.524,2.524,0,0,1,173.52,292.041Zm0-3.361a.84.84,0,1,0,.84.84A.841.841,0,0,0,173.52,288.68Z" transform="translate(-171 -287)" fill="#020210"/></g><g transform="translate(391.862 209.12)"><path d="M461.521,248.041a2.52,2.52,0,1,1,2.52-2.52A2.523,2.523,0,0,1,461.521,248.041Zm0-3.361a.84.84,0,1,0,.84.84A.841.841,0,0,0,461.521,244.68Z" transform="translate(-459 -243)" fill="#020210"/></g><g transform="translate(45.721 209.12)"><path d="M51.2,244.68H47.84a.84.84,0,0,1,0-1.68H51.2a.84.84,0,0,1,0,1.68Z" transform="translate(-47 -243)" fill="#020210"/></g><g transform="translate(324.651 128.466)"><path d="M413.446,192.368H379.84a.839.839,0,0,1-.84-.84V147.84a.84.84,0,0,1,.84-.84h33.606a4.206,4.206,0,0,1,4.2,4.2v36.967A4.206,4.206,0,0,1,413.446,192.368Zm-32.766-1.68h32.766a2.523,2.523,0,0,0,2.52-2.52V151.2a2.523,2.523,0,0,0-2.52-2.52H380.68Z" transform="translate(-379 -147)" fill="#020210"/></g><g transform="translate(368.338 182.235)"><path d="M438.561,212.68H431.84a.84.84,0,1,1,0-1.68h6.721a.84.84,0,1,1,0,1.68Z" transform="translate(-431 -211)" fill="#020210"/></g></g></svg>