<svg xmlns="http://www.w3.org/2000/svg" xmlns:xlink="http://www.w3.org/1999/xlink" width="550" height="200" viewBox="0 0 550 200"><defs><clipPath id="a"><rect width="550" height="200" transform="translate(846 1603)" fill="#faf5e2"/></clipPath></defs><g transform="translate(-846 -1603)" clip-path="url(#a)"><g transform="translate(974 1649)"><path d="M210,49.7H198a1,1,0,0,1,0-2h12a1,1,0,0,1,0,2Z"/><path d="M210,41.7H198a1,1,0,0,1,0-2h12a1,1,0,0,1,0,2Z"/><g transform="translate(20 17.247)"><path d="M118.459,54.876h0V53.371A19.537,19.537,0,0,0,98.882,33.794a22.117,22.117,0,0,0-3.84.376,31.613,31.613,0,0,0-61.591,0,20.753,20.753,0,0,0-3.84-.376A19.537,19.537,0,0,0,10.035,53.371a10.091,10.091,0,0,0,.075,1.506h-.075a9.035,9.035,0,0,0,0,18.071H118.459a9.035,9.035,0,0,0,0-18.071Z" transform="translate(-0.247 -0.247)" fill="#fff"/><path d="M118.212,73.453H9.788a9.8,9.8,0,0,1-.753-19.576v-.753A20.341,20.341,0,0,1,29.365,32.794a15.712,15.712,0,0,1,3.238.3,32.4,32.4,0,0,1,62.8,0,23.533,23.533,0,0,1,3.238-.3,20.341,20.341,0,0,1,20.329,20.329v.753a9.8,9.8,0,0,1-.753,19.576ZM9.788,55.382a8.282,8.282,0,0,0,0,16.565H118.212a8.282,8.282,0,0,0,0-16.565.777.777,0,0,1-.828-.828,10.115,10.115,0,0,0,.075-1.431A18.83,18.83,0,0,0,98.635,34.3a20.443,20.443,0,0,0-3.689.376.8.8,0,0,1-.9-.6,30.841,30.841,0,0,0-60.085,0,.781.781,0,0,1-.9.6,20.443,20.443,0,0,0-3.689-.376A18.83,18.83,0,0,0,10.541,53.124a9.6,9.6,0,0,0,.075,1.431.855.855,0,0,1-.226.6.813.813,0,0,1-.527.226Z"/></g><path d="M93,149.7v-64a4.012,4.012,0,0,1,4-4H209a4.012,4.012,0,0,1,4,4v64Z" fill="#637282"/><rect width="112" height="64" transform="translate(97 85.7)" fill="#fff"/><rect width="16" height="4" transform="translate(101 141.7)" fill="#ff4a63"/><rect width="8" height="4" transform="translate(161 141.7)" fill="#ff4a63"/><rect width="8" height="4" transform="translate(185 141.7)" fill="#ff4a63"/><rect width="8" height="4" transform="translate(161 109.7)" fill="#ff4a63"/><rect width="20" height="8" transform="translate(185 117.7)" fill="#52c695"/><rect width="20" height="8" transform="translate(161 117.7)" fill="#35c9cb"/><rect width="56" height="28" transform="translate(101 97.7)" fill="#ff4a63"/><rect width="112" height="4" transform="translate(97 85.7)" fill="#35c9cb"/><path d="M225,149.7h0Z" fill="#d1d1d1"/><path d="M81,149.7a8.024,8.024,0,0,0,8,8H217a8.024,8.024,0,0,0,8-8Z" fill="#d1d1d1"/><path d="M97,149.7h0Z" fill="#d1d1d1"/><path d="M213,150.7H93a1,1,0,0,1,0-2H213a1,1,0,0,1,0,2Z"/><path d="M213,150.7a.945.945,0,0,1-1-1v-64a2.946,2.946,0,0,0-3-3H97a2.946,2.946,0,0,0-3,3v64a1,1,0,0,1-2,0v-64a4.951,4.951,0,0,1,5-5H209a4.951,4.951,0,0,1,5,5v64A1,1,0,0,1,213,150.7Z"/><path d="M217,158.7H89a8.963,8.963,0,0,1-9-9,.945.945,0,0,1,1-1H97a1,1,0,0,1,0,2H82.1a7,7,0,0,0,6.9,6H217a7,7,0,0,0,6.9-6H209a1,1,0,0,1,0-2h16a.945.945,0,0,1,1,1A9.026,9.026,0,0,1,217,158.7Z"/><path d="M165,154.7H141a.945.945,0,0,1-1-1v-4a.945.945,0,0,1,1-1h24a.945.945,0,0,1,1,1v4A1,1,0,0,1,165,154.7Zm-23-2h22v-2H142Z"/><path d="M209,150.7H97a.945.945,0,0,1-1-1v-64a.945.945,0,0,1,1-1H209a.945.945,0,0,1,1,1v64A1,1,0,0,1,209,150.7Zm-111-2H208v-62H98Z"/><path d="M209,90.7H97a1,1,0,0,1,0-2H209a1,1,0,0,1,0,2Z"/><path d="M125,94.7H101a1,1,0,0,1,0-2h24a1,1,0,0,1,0,2Z"/><path d="M157,126.7H101a.945.945,0,0,1-1-1v-28a.945.945,0,0,1,1-1h56a.945.945,0,0,1,1,1v28A1,1,0,0,1,157,126.7Zm-55-2h54v-26H102Z"/><path d="M141,130.7H101a1,1,0,0,1,0-2h40a1,1,0,0,1,0,2Z"/><path d="M117,134.7H101a1,1,0,0,1,0-2h16a1,1,0,0,1,0,2Z"/><path d="M117,146.7H101a.945.945,0,0,1-1-1v-4a.945.945,0,0,1,1-1h16a.945.945,0,0,1,1,1v4A1,1,0,0,1,117,146.7Zm-15-2h14v-2H102Z"/><path d="M169,146.7h-8a.945.945,0,0,1-1-1v-4a.945.945,0,0,1,1-1h8a.945.945,0,0,1,1,1v4A1,1,0,0,1,169,146.7Zm-7-2h6v-2h-6Z"/><path d="M193,146.7h-8a.945.945,0,0,1-1-1v-4a.945.945,0,0,1,1-1h8a.945.945,0,0,1,1,1v4A1,1,0,0,1,193,146.7Zm-7-2h6v-2h-6Z"/><path d="M181,126.7H161a.945.945,0,0,1-1-1v-8a.945.945,0,0,1,1-1h20a.945.945,0,0,1,1,1v8A1,1,0,0,1,181,126.7Zm-19-2h18v-6H162Z"/><path d="M205,126.7H185a.945.945,0,0,1-1-1v-8a.945.945,0,0,1,1-1h20a.945.945,0,0,1,1,1v8A1,1,0,0,1,205,126.7Zm-19-2h18v-6H186Z"/><path d="M177,130.7H161a1,1,0,0,1,0-2h16a1,1,0,0,1,0,2Z"/><path d="M169,134.7h-8a1,1,0,0,1,0-2h8a1,1,0,0,1,0,2Z"/><path d="M205,130.7H185a1,1,0,0,1,0-2h20a1,1,0,0,1,0,2Z"/><path d="M193,134.7h-8a1,1,0,0,1,0-2h8a1,1,0,0,1,0,2Z"/><path d="M173,138.7H161a1,1,0,0,1,0-2h12a1,1,0,0,1,0,2Z"/><path d="M201,138.7H185a1,1,0,0,1,0-2h16a1,1,0,0,1,0,2Z"/><path d="M133,138.7H101a1,1,0,0,1,0-2h32a1,1,0,0,1,0,2Z"/><path d="M145,138.7h-8a1,1,0,0,1,0-2h8a1,1,0,0,1,0,2Z"/><path d="M173,98.7H161a1,1,0,0,1,0-2h12a1,1,0,0,1,0,2Z"/><path d="M197,98.7H177a1,1,0,0,1,0-2h20a1,1,0,0,1,0,2Z"/><path d="M205,98.7h-8a1,1,0,0,1,0-2h8a1,1,0,0,1,0,2Z"/><path d="M201,102.7H161a1,1,0,0,1,0-2h40a1,1,0,0,1,0,2Z"/><path d="M169,106.7h-8a1,1,0,0,1,0-2h8a1,1,0,0,1,0,2Z"/><path d="M197,106.7H169.7a1,1,0,0,1,0-2H197a1,1,0,0,1,0,2Z"/><path d="M169,114.7h-8a.945.945,0,0,1-1-1v-4a.945.945,0,0,1,1-1h8a.945.945,0,0,1,1,1v4A1,1,0,0,1,169,114.7Zm-7-2h6v-2h-6Z"/><path d="M161,5a4.012,4.012,0,0,1,4-4h28a4.012,4.012,0,0,1,4,4V61a4.012,4.012,0,0,1-4,4H165a4.012,4.012,0,0,1-4-4Z" fill="#637282"/><rect width="28" height="48" transform="translate(165 9)" fill="#35c9cb"/><path d="M179,44.7a11,11,0,1,1,11-11A10.968,10.968,0,0,1,179,44.7Zm0-20a9,9,0,1,0,9,9A8.963,8.963,0,0,0,179,24.7Z" fill="#fff"/><path d="M179,44.7a.945.945,0,0,1-1-1v-20a1,1,0,0,1,2,0v20A1,1,0,0,1,179,44.7Z" fill="#fff"/><path d="M179,44.7c-3.4,0-6-4.8-6-11s2.6-11,6-11,6,4.8,6,11C185,39.8,182.4,44.7,179,44.7Zm0-20c-1.9,0-4,3.7-4,9s2.1,9,4,9,4-3.7,4-9S180.9,24.7,179,24.7Z" fill="#fff"/><path d="M189,34.7H169a1,1,0,0,1,0-2h20a.945.945,0,0,1,1,1A1,1,0,0,1,189,34.7Z" fill="#fff"/><path d="M193,58H165a.945.945,0,0,1-1-1V9a.945.945,0,0,1,1-1h28a.945.945,0,0,1,1,1V57A.945.945,0,0,1,193,58Zm-27-2h26V10H166Z"/><path d="M193,66H165a4.951,4.951,0,0,1-5-5V5a4.951,4.951,0,0,1,5-5h28a4.951,4.951,0,0,1,5,5V61A4.951,4.951,0,0,1,193,66ZM165,2a2.946,2.946,0,0,0-3,3V61a2.946,2.946,0,0,0,3,3h28a2.946,2.946,0,0,0,3-3V5a2.946,2.946,0,0,0-3-3Z"/><path d="M183,6h-8a.945.945,0,0,1-1-1,.945.945,0,0,1,1-1h8a.945.945,0,0,1,1,1A.945.945,0,0,1,183,6Z"/><circle cx="6" cy="6" r="6" transform="translate(41 127.7)" fill="#35c9cb"/><path d="M47,140.7a7,7,0,1,1,7-7A6.957,6.957,0,0,1,47,140.7Zm0-12a5,5,0,1,0,5,5A4.951,4.951,0,0,0,47,128.7Z"/><path d="M46.5,135.7a.908.908,0,0,1-.7-.3l-1-1a.99.99,0,1,1,1.4-1.4l.3.3,1.3-1.3a.99.99,0,1,1,1.4,1.4l-2,2A.908.908,0,0,1,46.5,135.7Z"/><path d="M29,154.7a.945.945,0,0,1-1-1v-16a1,1,0,0,1,2,0v16A1,1,0,0,1,29,154.7Z"/><path d="M73,122.7a.945.945,0,0,1-1-1,3,3,0,1,0-6,0,1,1,0,0,1-2,0,5,5,0,1,1,10,0A1,1,0,0,1,73,122.7Z"/><path d="M73,130.7a.945.945,0,0,1-1-1v-8a1,1,0,1,1,2,0v8A1,1,0,0,1,73,130.7Z"/><path d="M77,134.7a4.951,4.951,0,0,1-5-5,1,1,0,0,1,2,0,2.946,2.946,0,0,0,3,3,1,1,0,0,1,0,2Z"/><path d="M93,134.7H77a1,1,0,0,1,0-2H93a1,1,0,0,1,0,2Z"/><path d="M29,138.7a.945.945,0,0,1-1-1,4.951,4.951,0,0,1,5-5,1,1,0,0,1,0,2,2.946,2.946,0,0,0-3,3A1,1,0,0,1,29,138.7Z"/><path d="M41,134.7H33a1,1,0,0,1,0-2h8a1,1,0,0,1,0,2Z"/><path d="M61,134.7H53a1,1,0,0,1,0-2h8a1,1,0,0,1,0,2Z"/><path d="M65,130.7a.945.945,0,0,1-1-1v-8a1,1,0,1,1,2,0v8A1,1,0,0,1,65,130.7Z"/><path d="M61,134.7a1,1,0,0,1,0-2,2.946,2.946,0,0,0,3-3,1,1,0,0,1,2,0A5.015,5.015,0,0,1,61,134.7Z"/><path d="M153,70.7a.945.945,0,0,1-1-1,2.946,2.946,0,0,0-3-3,1,1,0,0,1,0-2,4.951,4.951,0,0,1,5,5A1,1,0,0,1,153,70.7Z"/><path d="M161,50.7H133a1,1,0,0,1,0-2h28a1,1,0,0,1,0,2Z"/><path d="M153,38.7a.945.945,0,0,1-1-1,2.946,2.946,0,0,0-3-3,1,1,0,0,1,0-2,4.951,4.951,0,0,1,5,5A1,1,0,0,1,153,38.7Z"/><path d="M149,34.7h-2a1,1,0,0,1,0-2h2a1,1,0,0,1,0,2Z"/><path d="M146.7,34.7a7,7,0,1,1,0-14,1,1,0,0,1,0,2,5,5,0,1,0,0,10,.945.945,0,0,1,1,1A1,1,0,0,1,146.7,34.7Z"/><path d="M161,22.7H147a1,1,0,0,1,0-2h14a1,1,0,0,1,0,2Z"/><path d="M149,42.7a1,1,0,0,1,0-2,2.946,2.946,0,0,0,3-3,1,1,0,0,1,2,0A5.015,5.015,0,0,1,149,42.7Z"/><path d="M129,46.7a.945.945,0,0,1-1-1,4.951,4.951,0,0,1,5-5,1,1,0,0,1,0,2,2.946,2.946,0,0,0-3,3A1,1,0,0,1,129,46.7Z"/><path d="M133,50.7a4.951,4.951,0,0,1-5-5,1,1,0,0,1,2,0,2.946,2.946,0,0,0,3,3,1,1,0,0,1,0,2Z"/><path d="M149,42.7H133a1,1,0,0,1,0-2h16a1,1,0,0,1,0,2Z"/><path d="M153,82.7a.945.945,0,0,1-1-1v-12a1,1,0,0,1,2,0v12A1,1,0,0,1,153,82.7Z"/><path d="M225,134.7H213a1,1,0,0,1,0-2h12a1,1,0,0,1,0,2Z"/><path d="M225,134.7a1,1,0,0,1,0-2,2.946,2.946,0,0,0,3-3,1,1,0,0,1,2,0A5.015,5.015,0,0,1,225,134.7Z"/><path d="M229,130.7a.945.945,0,0,1-1-1v-16a1,1,0,1,1,2,0v16A1,1,0,0,1,229,130.7Z"/><path d="M233,138.7a.945.945,0,0,1-1-1v-24a1,1,0,1,1,2,0v24A1,1,0,0,1,233,138.7Z"/><path d="M241,146.7a8.963,8.963,0,0,1-9-9,1,1,0,0,1,2,0,6.957,6.957,0,0,0,7,7,1,1,0,0,1,0,2Z"/><path d="M241,146.7a1,1,0,0,1,0-2,6.957,6.957,0,0,0,7-7,1,1,0,0,1,2,0A9.026,9.026,0,0,1,241,146.7Z"/><path d="M249,138.7a.945.945,0,0,1-1-1v-4a1,1,0,0,1,2,0v4A1,1,0,0,1,249,138.7Z"/><path d="M249,134.7a.945.945,0,0,1-1-1,4.951,4.951,0,0,1,5-5,1,1,0,0,1,0,2,2.946,2.946,0,0,0-3,3A1,1,0,0,1,249,134.7Z"/><path d="M257,134.7a.945.945,0,0,1-1-1,2.946,2.946,0,0,0-3-3,1,1,0,0,1,0-2,4.951,4.951,0,0,1,5,5A1,1,0,0,1,257,134.7Z"/><path d="M257,154.7a.945.945,0,0,1-1-1v-20a1,1,0,0,1,2,0v20A1,1,0,0,1,257,154.7Z"/><path d="M265,154.7a.945.945,0,0,1-1-1v-16a1,1,0,0,1,2,0v16A1,1,0,0,1,265,154.7Z"/><path d="M265,138.7a.945.945,0,0,1-1-1,4.951,4.951,0,0,1,5-5,1,1,0,0,1,0,2,2.946,2.946,0,0,0-3,3A1,1,0,0,1,265,138.7Z"/><path d="M285,134.7H269a1,1,0,0,1,0-2h16a1,1,0,0,1,0,2Z"/><path d="M73,110.7a.945.945,0,0,1-1-1v-32a1,1,0,0,1,2,0v32A1,1,0,0,1,73,110.7Z"/><path d="M69,82.7a.908.908,0,0,1-.7-.3.967.967,0,0,1,0-1.4l4-4a.99.99,0,0,1,1.4,1.4l-4,4A.908.908,0,0,1,69,82.7Z"/><path d="M77,82.7a.908.908,0,0,1-.7-.3l-4-4A.99.99,0,0,1,73.7,77l4,4a.967.967,0,0,1,0,1.4A.908.908,0,0,1,77,82.7Z"/><path d="M81,110.7a.945.945,0,0,1-1-1v-32a1,1,0,0,1,2,0v32A1,1,0,0,1,81,110.7Z"/><path d="M81,110.7a.908.908,0,0,1-.7-.3l-4-4a.99.99,0,0,1,1.4-1.4l4,4a.967.967,0,0,1,0,1.4A.908.908,0,0,1,81,110.7Z"/><path d="M81,110.7a.908.908,0,0,1-.7-.3.967.967,0,0,1,0-1.4l4-4a.99.99,0,0,1,1.4,1.4l-4,4A.908.908,0,0,1,81,110.7Z"/><path d="M241,85.7v-4H229v4h-7.9v28H269v-28Z" fill="#52c695"/><path d="M269,114.7H221a.945.945,0,0,1-1-1v-28a.945.945,0,0,1,1-1h7v-3a.945.945,0,0,1,1-1h12a.945.945,0,0,1,1,1v3h27a.945.945,0,0,1,1,1v28A1,1,0,0,1,269,114.7Zm-47-2h46v-26H241a.945.945,0,0,1-1-1v-3H230v3a.945.945,0,0,1-1,1h-7Z" fill="#020210"/><path d="M237,98.7h-8a1,1,0,0,1,0-2h8a1,1,0,0,1,0,2Z" fill="#020210"/><path d="M241,94.7H229a1,1,0,0,1,0-2h12a1,1,0,0,1,0,2Z" fill="#020210"/><path d="M210,49.7a1,1,0,0,1,0-2,3,3,0,0,0,0-6,1,1,0,0,1,0-2,4.951,4.951,0,0,1,5,5A5.015,5.015,0,0,1,210,49.7Z"/><path d="M249.1,43.6l5.7-5.7a17.925,17.925,0,0,0-12.7-5.3v8A10.442,10.442,0,0,1,249.1,43.6Z" fill="#52c695"/><path d="M254.7,37.9,249,43.6a10.141,10.141,0,0,1,0,14.2l5.7,5.7A17.924,17.924,0,0,0,260,50.8,18.4,18.4,0,0,0,254.7,37.9Z" fill="#35c9cb"/><path d="M242,60.7a10,10,0,0,1,0-20v-8a18,18,0,1,0,0,36,17.579,17.579,0,0,0,12.7-5.3L249,57.7A9.273,9.273,0,0,1,242,60.7Z" fill="#ff4a63"/><path d="M242,69.7a19,19,0,1,1,19-19A18.992,18.992,0,0,1,242,69.7Zm0-36a17,17,0,1,0,17,17A16.986,16.986,0,0,0,242,33.7Z" fill="#020210"/><path d="M242,61.7a11,11,0,1,1,11-11A10.968,10.968,0,0,1,242,61.7Zm0-20a9,9,0,1,0,9,9A8.963,8.963,0,0,0,242,41.7Z" fill="#020210"/><path d="M242,41.7a.945.945,0,0,1-1-1v-8a1,1,0,0,1,2,0v8A1,1,0,0,1,242,41.7Z" fill="#020210"/><path d="M249.7,44a.908.908,0,0,1-.7-.3.967.967,0,0,1,0-1.4l5-5a.99.99,0,0,1,1.4,1.4l-5,5A.908.908,0,0,1,249.7,44Z" fill="#020210"/><path d="M254.7,64.4a.908.908,0,0,1-.7-.3l-5.7-5.7a.99.99,0,0,1,1.4-1.4l5.7,5.7a.967.967,0,0,1,0,1.4A.908.908,0,0,1,254.7,64.4Z" fill="#020210"/><circle cx="2" cy="2" r="2" transform="translate(283 123.7)" fill="#b5b5b5"/><path d="M285,117.7a8.024,8.024,0,0,0-8,8v12a8,8,0,0,0,16,0v-12A8.024,8.024,0,0,0,285,117.7Z" fill="#fff"/><path d="M285,146.7a8.963,8.963,0,0,1-9-9v-12a9,9,0,1,1,18,0v12A9.026,9.026,0,0,1,285,146.7Zm0-28a6.957,6.957,0,0,0-7,7v12a7,7,0,0,0,14,0v-12A6.957,6.957,0,0,0,285,118.7Z" fill="#020210"/><path d="M285,128.7a3,3,0,1,1,3-3A3.009,3.009,0,0,1,285,128.7Zm0-4a1,1,0,1,0,1,1A.945.945,0,0,0,285,124.7Z" fill="#020210"/><path d="M285,114.7a.945.945,0,0,1-1-1v-4a1,1,0,1,1,2,0v4A1,1,0,0,1,285,114.7Z" fill="#020210"/><path d="M289,114.7a.756.756,0,0,1-.4-.1,1.04,1.04,0,0,1-.6-1.3l.8-2a1.012,1.012,0,0,1,1.9.7l-.8,2A.961.961,0,0,1,289,114.7Z" fill="#020210"/><path d="M281,114.7a.875.875,0,0,1-.9-.6l-.8-2a1.012,1.012,0,0,1,1.9-.7l.8,2a1.04,1.04,0,0,1-.6,1.3Z" fill="#020210"/><path d="M161,58.7H145a1,1,0,0,1,0-2h16a1,1,0,0,1,0,2Z"/><path d="M149,66.7h-4a1,1,0,0,1,0-2h4a1,1,0,0,1,0,2Z"/><path d="M145,66.7a5,5,0,0,1,0-10,1,1,0,0,1,0,2,3,3,0,0,0,0,6,1,1,0,0,1,0,2Z"/></g></g></svg>