<svg xmlns="http://www.w3.org/2000/svg" xmlns:xlink="http://www.w3.org/1999/xlink" width="550" height="200" viewBox="0 0 550 200"><defs><clipPath id="a"><rect width="550" height="200" transform="translate(203 1172)" fill="#4586ff"/></clipPath></defs><g transform="translate(-203 -1172)" clip-path="url(#a)"><g transform="translate(203 1185.956)"><g transform="translate(18.614 87.469)"><g transform="translate(0.95 0.95)"><g transform="translate(0 18.14)"><path d="M32,117.518l-11.4,3.8L32.756,112.2Z" transform="translate(-20.6 -112.2)" fill="#b5b5b5"/></g><g transform="translate(15.385 15.765)"><path d="M41.834,109.7l9.022,7.883L36.8,111.694Z" transform="translate(-36.8 -109.7)" fill="#b5b5b5"/></g><g transform="translate(9.212)"><path d="M30.3,104.877,32.674,93.1l1.9,15.1Z" transform="translate(-30.3 -93.1)" fill="#b5b5b5"/></g></g><g transform="translate(13.676 18.899)"><path d="M34.95,193.676a.9.9,0,0,1-.95-.95V112.95a.95.95,0,0,1,1.9,0v79.776A.9.9,0,0,1,34.95,193.676Z" transform="translate(-34 -112)"/></g><g transform="translate(0 18.131)"><path d="M20.55,122.216a1,1,0,0,1-.855-.475,1.036,1.036,0,0,1,.285-1.235l12.156-9.117a1.04,1.04,0,0,1,1.045-.095,1.169,1.169,0,0,1,.475.95l-.76,5.318a.92.92,0,0,1-.665.76l-11.4,3.8A.349.349,0,0,1,20.55,122.216Zm10.922-7.883-5.6,4.274,5.318-1.8Z" transform="translate(-19.6 -111.191)"/></g><g transform="translate(15.48 15.803)"><path d="M50.811,118.484a.571.571,0,0,1-.38-.095L36.47,112.5a.913.913,0,0,1-.57-.855.831.831,0,0,1,.57-.855l4.939-1.994c.38-.095.76-.095.95.19l8.927,7.883a.968.968,0,0,1,.475.76.937.937,0,0,1-.95.855Zm-11.492-6.838,6.458,2.754L41.6,110.7Z" transform="translate(-35.9 -108.74)"/></g><g transform="translate(9.212)"><path d="M34.523,109.1a1.35,1.35,0,0,1-.57-.19l-4.274-3.324a1.1,1.1,0,0,1-.38-.95L31.674,92.86a.925.925,0,0,1,.95-.76,1.01,1.01,0,0,1,.95.855l1.8,14.911c0,.095.095.19.095.285,0,.57-.38,1.045-.95.95Zm-3.229-4.654,1.994,1.52-.855-7.028Z" transform="translate(-29.3 -92.1)"/></g><g transform="translate(11.753 15.195)"><path d="M34.848,113.7a4.767,4.767,0,0,1-1.14-.19,2.966,2.966,0,0,1-1.52-1.52,2.8,2.8,0,0,1,2.659-3.894,4.767,4.767,0,0,1,1.14.19,2.966,2.966,0,0,1,1.52,1.52,2.8,2.8,0,0,1-2.659,3.894Zm0-3.8a.831.831,0,0,0-.855.57,1.04,1.04,0,0,0,0,.76,1.144,1.144,0,0,0,.475.475.942.942,0,0,0,1.235-.475,1.04,1.04,0,0,0,0-.76,1.144,1.144,0,0,0-.475-.475A.571.571,0,0,0,34.848,109.9Z" transform="translate(-31.975 -108.1)"/></g></g><g transform="translate(235.53 106.368)"><g transform="translate(0 11.397)"><path d="M248.95,125.9a.862.862,0,0,1-.665-.285,1.026,1.026,0,0,1-.285-.665.862.862,0,0,1,.285-.665.918.918,0,0,1,1.33,0,.95.95,0,0,1-.665,1.615Z" transform="translate(-248 -124)"/></g><g transform="translate(0 3.799)"><path d="M248,120.749a.9.9,0,0,1,.95-.95h0a.952.952,0,0,1,.95.95h0a1.021,1.021,0,0,1-.95.95h0A.952.952,0,0,1,248,120.749Zm0-3.8a.9.9,0,0,1,.95-.95h0a.952.952,0,0,1,.95.95h0a1.021,1.021,0,0,1-.95.95h0A.952.952,0,0,1,248,116.95Z" transform="translate(-248 -116)"/></g><path d="M248.95,113.9a.862.862,0,0,1-.665-.285,1.026,1.026,0,0,1-.285-.665.862.862,0,0,1,.285-.665.918.918,0,0,1,1.33,0,.95.95,0,0,1-.665,1.615Z" transform="translate(-248 -112)"/></g><g transform="translate(187.094 160.502)"><rect width="30.391" height="7.598" fill="#fff"/></g><g transform="translate(421.675 15.195)"><g transform="translate(0.95 0.95)"><path d="M467.793,62.586V17L445,39.793V187.949h34.19V73.983Z" transform="translate(-445 -17)" fill="#b5b5b5"/><g transform="translate(22.793)"><path d="M484.2,62.586V17H469V62.586l11.4,11.4V187.949h15.2V73.983Z" transform="translate(-469 -17)" fill="#d1d1d1"/></g></g><path d="M494.335,188.849H444.95a.9.9,0,0,1-.95-.95V39.743a.862.862,0,0,1,.285-.665l22.793-22.793a.862.862,0,0,1,.665-.285h15.2a.9.9,0,0,1,.95.95V62.156L495,73.268a.862.862,0,0,1,.285.665V187.9A.9.9,0,0,1,494.335,188.849Zm-48.436-1.9h47.486V74.313L482.274,63.2a.862.862,0,0,1-.285-.665V17.9H468.123L445.9,40.123Z" transform="translate(-444 -16)" fill="#020210"/><g transform="translate(0 56.983)"><g transform="translate(0 102.57)"><path d="M479.14,185.9H444.95a.95.95,0,1,1,0-1.9h34.19a.95.95,0,0,1,0,1.9Z" transform="translate(-444 -184)" fill="#020210"/></g><g transform="translate(0 98.771)"><path d="M479.14,181.9H444.95a.95.95,0,1,1,0-1.9h34.19a.95.95,0,0,1,0,1.9Z" transform="translate(-444 -180)" fill="#020210"/></g><g transform="translate(0 94.972)"><path d="M479.14,177.9H444.95a.95.95,0,1,1,0-1.9h34.19a.95.95,0,0,1,0,1.9Z" transform="translate(-444 -176)" fill="#020210"/></g><g transform="translate(0 91.173)"><path d="M479.14,173.9H444.95a.95.95,0,1,1,0-1.9h34.19a.95.95,0,0,1,0,1.9Z" transform="translate(-444 -172)" fill="#020210"/></g><g transform="translate(0 87.374)"><path d="M479.14,169.9H444.95a.95.95,0,1,1,0-1.9h34.19a.95.95,0,0,1,0,1.9Z" transform="translate(-444 -168)" fill="#020210"/></g><g transform="translate(0 83.575)"><path d="M479.14,165.9H444.95a.95.95,0,1,1,0-1.9h34.19a.95.95,0,0,1,0,1.9Z" transform="translate(-444 -164)" fill="#020210"/></g><g transform="translate(0 79.776)"><path d="M479.14,161.9H444.95a.95.95,0,1,1,0-1.9h34.19a.95.95,0,0,1,0,1.9Z" transform="translate(-444 -160)" fill="#020210"/></g><g transform="translate(0 75.977)"><path d="M479.14,157.9H444.95a.95.95,0,1,1,0-1.9h34.19a.95.95,0,0,1,0,1.9Z" transform="translate(-444 -156)" fill="#020210"/></g><g transform="translate(0 72.179)"><path d="M479.14,153.9H444.95a.95.95,0,1,1,0-1.9h34.19a.95.95,0,0,1,0,1.9Z" transform="translate(-444 -152)" fill="#020210"/></g><g transform="translate(0 68.38)"><path d="M479.14,149.9H444.95a.95.95,0,1,1,0-1.9h34.19a.95.95,0,0,1,0,1.9Z" transform="translate(-444 -148)" fill="#020210"/></g><g transform="translate(0 64.581)"><path d="M479.14,145.9H444.95a.95.95,0,1,1,0-1.9h34.19a.95.95,0,0,1,0,1.9Z" transform="translate(-444 -144)" fill="#020210"/></g><g transform="translate(0 60.782)"><path d="M479.14,141.9H444.95a.95.95,0,1,1,0-1.9h34.19a.95.95,0,0,1,0,1.9Z" transform="translate(-444 -140)" fill="#020210"/></g><g transform="translate(0 56.983)"><path d="M479.14,137.9H444.95a.95.95,0,1,1,0-1.9h34.19a.95.95,0,0,1,0,1.9Z" transform="translate(-444 -136)" fill="#020210"/></g><g transform="translate(0 53.184)"><path d="M479.14,133.9H444.95a.95.95,0,1,1,0-1.9h34.19a.95.95,0,0,1,0,1.9Z" transform="translate(-444 -132)" fill="#020210"/></g><g transform="translate(0 49.385)"><path d="M479.14,129.9H444.95a.95.95,0,1,1,0-1.9h34.19a.95.95,0,0,1,0,1.9Z" transform="translate(-444 -128)" fill="#020210"/></g><g transform="translate(0 45.586)"><path d="M479.14,125.9H444.95a.95.95,0,1,1,0-1.9h34.19a.95.95,0,0,1,0,1.9Z" transform="translate(-444 -124)" fill="#020210"/></g><g transform="translate(0 41.788)"><path d="M479.14,121.9H444.95a.95.95,0,1,1,0-1.9h34.19a.95.95,0,0,1,0,1.9Z" transform="translate(-444 -120)" fill="#020210"/></g><g transform="translate(0 37.989)"><path d="M479.14,117.9H444.95a.95.95,0,1,1,0-1.9h34.19a.95.95,0,0,1,0,1.9Z" transform="translate(-444 -116)" fill="#020210"/></g><g transform="translate(0 34.19)"><path d="M479.14,113.9H444.95a.95.95,0,1,1,0-1.9h34.19a.95.95,0,0,1,0,1.9Z" transform="translate(-444 -112)" fill="#020210"/></g><g transform="translate(0 30.391)"><path d="M479.14,109.9H444.95a.95.95,0,1,1,0-1.9h34.19a.95.95,0,0,1,0,1.9Z" transform="translate(-444 -108)" fill="#020210"/></g><g transform="translate(0 26.592)"><path d="M479.14,105.9H444.95a.95.95,0,1,1,0-1.9h34.19a.95.95,0,0,1,0,1.9Z" transform="translate(-444 -104)" fill="#020210"/></g><g transform="translate(0 22.793)"><path d="M479.14,101.9H444.95a.95.95,0,1,1,0-1.9h34.19a.95.95,0,0,1,0,1.9Z" transform="translate(-444 -100)" fill="#020210"/></g><g transform="translate(0 18.994)"><path d="M479.14,97.9H444.95a.95.95,0,1,1,0-1.9h34.19a.95.95,0,0,1,0,1.9Z" transform="translate(-444 -96)" fill="#020210"/></g><g transform="translate(0 15.195)"><path d="M479.14,93.9H444.95a.95.95,0,1,1,0-1.9h34.19a.95.95,0,0,1,0,1.9Z" transform="translate(-444 -92)" fill="#020210"/></g><g transform="translate(0 11.397)"><path d="M479.14,89.9H444.95a.95.95,0,1,1,0-1.9h34.19a.95.95,0,0,1,0,1.9Z" transform="translate(-444 -88)" fill="#020210"/></g><g transform="translate(0 7.598)"><path d="M479.14,85.9H444.95a.95.95,0,1,1,0-1.9h34.19a.95.95,0,0,1,0,1.9Z" transform="translate(-444 -84)" fill="#020210"/></g><g transform="translate(0 3.799)"><path d="M479.14,81.9H444.95a.95.95,0,1,1,0-1.9h34.19a.95.95,0,0,1,0,1.9Z" transform="translate(-444 -80)" fill="#020210"/></g><path d="M479.14,77.9H444.95a.95.95,0,1,1,0-1.9h34.19a.95.95,0,0,1,0,1.9Z" transform="translate(-444 -76)" fill="#020210"/></g><g transform="translate(0 22.793)"><path d="M467.743,41.9H444.95a.95.95,0,1,1,0-1.9h22.793a.95.95,0,0,1,0,1.9Z" transform="translate(-444 -40)" fill="#020210"/></g><g transform="translate(0 26.592)"><path d="M467.743,45.9H444.95a.95.95,0,1,1,0-1.9h22.793a.95.95,0,0,1,0,1.9Z" transform="translate(-444 -44)" fill="#020210"/></g><g transform="translate(0 30.391)"><path d="M467.743,49.9H444.95a.95.95,0,1,1,0-1.9h22.793a.95.95,0,0,1,0,1.9Z" transform="translate(-444 -48)" fill="#020210"/></g><g transform="translate(0 34.19)"><path d="M467.743,53.9H444.95a.95.95,0,1,1,0-1.9h22.793a.95.95,0,0,1,0,1.9Z" transform="translate(-444 -52)" fill="#020210"/></g><g transform="translate(0 37.989)"><path d="M467.743,57.9H444.95a.95.95,0,1,1,0-1.9h22.793a.95.95,0,0,1,0,1.9Z" transform="translate(-444 -56)" fill="#020210"/></g><g transform="translate(0 41.788)"><path d="M467.743,61.9H444.95a.95.95,0,1,1,0-1.9h22.793a.95.95,0,0,1,0,1.9Z" transform="translate(-444 -60)" fill="#020210"/></g><g transform="translate(0 45.586)"><path d="M467.743,65.9H444.95a.95.95,0,1,1,0-1.9h22.793a.95.95,0,0,1,0,1.9Z" transform="translate(-444 -64)" fill="#020210"/></g><g transform="translate(22.793 0)"><path d="M480.346,188.849a.9.9,0,0,1-.95-.95V74.313L468.285,63.2a.862.862,0,0,1-.285-.665V16.95a.95.95,0,1,1,1.9,0V62.156l11.112,11.112a.862.862,0,0,1,.285.665V187.9A.9.9,0,0,1,480.346,188.849Z" transform="translate(-468 -16)" fill="#020210"/></g><g transform="translate(0 53.184)"><path d="M475.341,73.9H444.95a.95.95,0,1,1,0-1.9h30.391a.95.95,0,1,1,0,1.9Z" transform="translate(-444 -72)" fill="#020210"/></g><g transform="translate(0 49.385)"><path d="M471.257,69.9H444.95a.95.95,0,1,1,0-1.9h26.307a.95.95,0,0,1,0,1.9Z" transform="translate(-444 -68)" fill="#020210"/></g><g transform="translate(22.793 45.586)"><path d="M484.145,65.9h-15.2a.95.95,0,0,1,0-1.9h15.2a.95.95,0,0,1,0,1.9Z" transform="translate(-468 -64)" fill="#020210"/></g><g transform="translate(34.19 56.983)"><path d="M496.145,77.9h-15.2a.95.95,0,0,1,0-1.9h15.2a.95.95,0,1,1,0,1.9Z" transform="translate(-480 -76)" fill="#020210"/></g><g transform="translate(0 0)"><path d="M444.95,40.693a.862.862,0,0,1-.665-.285.918.918,0,0,1,0-1.33l22.793-22.793a.94.94,0,1,1,1.33,1.33L445.615,40.408A.862.862,0,0,1,444.95,40.693Z" transform="translate(-444 -16)" fill="#020210"/></g><g transform="translate(22.793 0)"><path d="M484.145,17.9h-15.2a.95.95,0,0,1,0-1.9h15.2a.95.95,0,0,1,0,1.9Z" transform="translate(-468 -16)" fill="#020210"/></g><g transform="translate(45.586 68.38)"><g transform="translate(0.95 0.95)"><rect width="45.586" height="102.57" fill="#d1d1d1"/></g><g transform="translate(19.944 4.749)"><rect width="22.793" height="98.771" fill="#7ee8e5"/></g><g transform="translate(15.195)"><path d="M539.341,192.469H508.95a.9.9,0,0,1-.95-.95V88.95a.9.9,0,0,1,.95-.95h30.391a.9.9,0,0,1,.95.95v102.57A.9.9,0,0,1,539.341,192.469Zm-29.441-1.9h28.492V89.9H509.9Z" transform="translate(-508 -88)" fill="#020210"/></g><g transform="translate(18.994 3.799)"><path d="M535.743,192.67H512.95a.9.9,0,0,1-.95-.95V92.95a.9.9,0,0,1,.95-.95h22.793a.9.9,0,0,1,.95.95V191.72A.9.9,0,0,1,535.743,192.67Zm-21.844-1.9h20.894V93.9H513.9Z" transform="translate(-512 -92)" fill="#020210"/></g><g transform="translate(34.19 3.799)"><path d="M528.95,192.67a.9.9,0,0,1-.95-.95V92.95a.95.95,0,1,1,1.9,0V191.72A.9.9,0,0,1,528.95,192.67Z" transform="translate(-528 -92)" fill="#020210"/></g><g transform="translate(26.592 3.799)"><path d="M520.95,192.67a.9.9,0,0,1-.95-.95V92.95a.95.95,0,1,1,1.9,0V191.72A.9.9,0,0,1,520.95,192.67Z" transform="translate(-520 -92)" fill="#020210"/></g><path d="M508.145,89.9h-15.2a.95.95,0,0,1,0-1.9h15.2a.95.95,0,1,1,0,1.9Z" transform="translate(-492 -88)" fill="#020210"/><g transform="translate(18.994 11.397)"><g transform="translate(15.195 7.598)"><path d="M536.547,109.9h-7.6a.95.95,0,0,1,0-1.9h7.6a.95.95,0,1,1,0,1.9Z" transform="translate(-528 -108)" fill="#020210"/></g><g transform="translate(7.598)"><path d="M528.547,101.9h-7.6a.95.95,0,0,1,0-1.9h7.6a.95.95,0,0,1,0,1.9Z" transform="translate(-520 -100)" fill="#020210"/></g><g transform="translate(0 7.598)"><path d="M520.548,109.9h-7.6a.95.95,0,1,1,0-1.9h7.6a.95.95,0,0,1,0,1.9Z" transform="translate(-512 -108)" fill="#020210"/></g></g><g transform="translate(18.994 26.592)"><g transform="translate(15.195 7.598)"><path d="M536.547,125.9h-7.6a.95.95,0,0,1,0-1.9h7.6a.95.95,0,1,1,0,1.9Z" transform="translate(-528 -124)" fill="#020210"/></g><g transform="translate(7.598)"><path d="M528.547,117.9h-7.6a.95.95,0,0,1,0-1.9h7.6a.95.95,0,0,1,0,1.9Z" transform="translate(-520 -116)" fill="#020210"/></g><g transform="translate(0 7.598)"><path d="M520.548,125.9h-7.6a.95.95,0,1,1,0-1.9h7.6a.95.95,0,0,1,0,1.9Z" transform="translate(-512 -124)" fill="#020210"/></g></g><g transform="translate(18.994 41.788)"><g transform="translate(15.195 7.598)"><path d="M536.547,141.9h-7.6a.95.95,0,0,1,0-1.9h7.6a.95.95,0,1,1,0,1.9Z" transform="translate(-528 -140)" fill="#020210"/></g><g transform="translate(7.598)"><path d="M528.547,133.9h-7.6a.95.95,0,0,1,0-1.9h7.6a.95.95,0,0,1,0,1.9Z" transform="translate(-520 -132)" fill="#020210"/></g><g transform="translate(0 7.598)"><path d="M520.548,141.9h-7.6a.95.95,0,1,1,0-1.9h7.6a.95.95,0,0,1,0,1.9Z" transform="translate(-512 -140)" fill="#020210"/></g></g><g transform="translate(18.994 56.983)"><g transform="translate(15.195 7.598)"><path d="M536.547,157.9h-7.6a.95.95,0,0,1,0-1.9h7.6a.95.95,0,1,1,0,1.9Z" transform="translate(-528 -156)" fill="#020210"/></g><g transform="translate(7.598)"><path d="M528.547,149.9h-7.6a.95.95,0,0,1,0-1.9h7.6a.95.95,0,0,1,0,1.9Z" transform="translate(-520 -148)" fill="#020210"/></g><g transform="translate(0 7.598)"><path d="M520.548,157.9h-7.6a.95.95,0,1,1,0-1.9h7.6a.95.95,0,0,1,0,1.9Z" transform="translate(-512 -156)" fill="#020210"/></g></g><g transform="translate(18.994 72.179)"><g transform="translate(15.195 7.598)"><path d="M536.547,173.9h-7.6a.95.95,0,0,1,0-1.9h7.6a.95.95,0,1,1,0,1.9Z" transform="translate(-528 -172)" fill="#020210"/></g><g transform="translate(7.598)"><path d="M528.547,165.9h-7.6a.95.95,0,0,1,0-1.9h7.6a.95.95,0,0,1,0,1.9Z" transform="translate(-520 -164)" fill="#020210"/></g><g transform="translate(0 7.598)"><path d="M520.548,173.9h-7.6a.95.95,0,1,1,0-1.9h7.6a.95.95,0,0,1,0,1.9Z" transform="translate(-512 -172)" fill="#020210"/></g></g><g transform="translate(18.994 87.374)"><g transform="translate(15.195 7.598)"><path d="M536.547,189.9h-7.6a.95.95,0,0,1,0-1.9h7.6a.95.95,0,1,1,0,1.9Z" transform="translate(-528 -188)" fill="#020210"/></g><g transform="translate(7.598)"><path d="M528.547,181.9h-7.6a.95.95,0,0,1,0-1.9h7.6a.95.95,0,0,1,0,1.9Z" transform="translate(-520 -180)" fill="#020210"/></g><g transform="translate(0 7.598)"><path d="M520.548,189.9h-7.6a.95.95,0,1,1,0-1.9h7.6a.95.95,0,0,1,0,1.9Z" transform="translate(-512 -188)" fill="#020210"/></g></g><path d="M492.95,192.469a.9.9,0,0,1-.95-.95V88.95a.95.95,0,0,1,1.9,0v102.57A.9.9,0,0,1,492.95,192.469Z" transform="translate(-492 -88)" fill="#020210"/></g><g transform="translate(30.391 140.558)"><g transform="translate(0.95 0.95)"><circle cx="11.397" cy="11.397" r="11.397" fill="#ff4a63"/></g><g transform="translate(11.397 15.195)"><path d="M488.95,197.095a.9.9,0,0,1-.95-.95v-15.2a.95.95,0,0,1,1.9,0v15.2A.9.9,0,0,1,488.95,197.095Z" transform="translate(-488 -180)" fill="#020210"/></g><path d="M488.346,188.693a12.346,12.346,0,1,1,12.346-12.346A12.322,12.322,0,0,1,488.346,188.693Zm0-22.793a10.447,10.447,0,1,0,10.447,10.447A10.417,10.417,0,0,0,488.346,165.9Z" transform="translate(-476 -164)" fill="#020210"/></g></g><g transform="translate(519.306 104.266)"><g transform="translate(12.536 13.499)"><path d="M560.95,194.279a.9.9,0,0,1-.95-.95V124.95a.95.95,0,1,1,1.9,0v68.38A.9.9,0,0,1,560.95,194.279Z" transform="translate(-560 -124)"/></g><g transform="translate(0.95 0.963)"><g transform="translate(14.341 6.268)"><path d="M565.369,117.4l12.061.19L562.9,122.149Z" transform="translate(-562.9 -117.4)" fill="#b5b5b5"/></g><path d="M553.593,121.342,547.8,110.8l11.112,10.257Z" transform="translate(-547.8 -110.8)" fill="#b5b5b5"/><g transform="translate(8.737 13.486)"><path d="M563.268,129.464,557,139.816,560.419,125Z" transform="translate(-557 -125)" fill="#b5b5b5"/></g></g><g transform="translate(14.303 6.281)"><path d="M562.848,123.048a.864.864,0,0,1-.76-.38.851.851,0,0,1-.095-1.045l2.469-4.749a1,1,0,0,1,.855-.475l11.966.19a1.01,1.01,0,0,1,.95.855.924.924,0,0,1-.665,1.045l-14.531,4.559Zm3.039-4.749-1.14,2.184,6.743-2.089Z" transform="translate(-561.861 -116.4)"/></g><path d="M553.543,122.241a1,1,0,0,1-.855-.475l-5.793-10.542a1.036,1.036,0,0,1,.285-1.235.9.9,0,0,1,1.235.095l11.207,10.257a1.072,1.072,0,0,1,.285,1.045,1.052,1.052,0,0,1-.855.665l-5.508.19Zm-2.184-6.838,2.659,4.844,2.469-.095Z" transform="translate(-546.8 -109.786)"/><g transform="translate(8.714 13.475)"><path d="M556.948,140.714a.571.571,0,0,1-.38-.095.906.906,0,0,1-.57-1.045l3.324-14.816a1.031,1.031,0,0,1,.76-.76.832.832,0,0,1,.95.475l2.849,4.559a1.025,1.025,0,0,1,0,1.045l-6.173,10.257A.849.849,0,0,1,556.948,140.714Zm3.8-13.391-1.52,6.838,2.849-4.749Z" transform="translate(-555.975 -123.975)"/></g><g transform="translate(10.637 9.637)"><path d="M560.849,125.695a2.652,2.652,0,0,1-1.9-.76,3.053,3.053,0,0,1-.95-1.994,2.855,2.855,0,0,1,4.749-2.279,3.053,3.053,0,0,1,.95,1.994,2.856,2.856,0,0,1-.76,2.089A3.05,3.05,0,0,1,560.849,125.695Zm0-3.8a.862.862,0,0,0-.665.285,1.026,1.026,0,0,0-.285.665.862.862,0,0,0,.285.665.918.918,0,0,0,1.33-.095,1.026,1.026,0,0,0,.285-.665.862.862,0,0,0-.285-.665A1.373,1.373,0,0,0,560.849,121.9Z" transform="translate(-558 -119.934)"/></g></g><g transform="translate(273.919 74.078)"><g transform="translate(21.728 15.195)"><g transform="translate(18.045 17.57)"><path d="M335.618,112.88l4.559,11.207L330.3,112.5Z" transform="translate(-330.3 -112.5)" fill="#b5b5b5"/></g><g transform="translate(15.101)"><path d="M327.2,103.5l7.408-9.5-5.033,14.341Z" transform="translate(-327.2 -94)" fill="#b5b5b5"/></g><g transform="translate(0 16.525)"><path d="M323.171,115.769,311.3,114.154l14.911-2.754Z" transform="translate(-311.3 -111.4)" fill="#b5b5b5"/></g></g><g transform="translate(37.588 32.29)"><path d="M328.95,193.676a.9.9,0,0,1-.95-.95V112.95a.95.95,0,1,1,1.9,0v79.776A.9.9,0,0,1,328.95,193.676Z" transform="translate(-328 -112)"/></g><g transform="translate(20.778 14.246)"><g transform="translate(18.007 17.736)"><path d="M340.125,124.995a1.078,1.078,0,0,1-.76-.285l-9.877-11.492a.851.851,0,0,1-.1-1.045.832.832,0,0,1,.95-.475l5.318.38a.827.827,0,0,1,.76.57l4.464,10.922c.095.19.19.285.19.475a.952.952,0,0,1-.95.95Zm-7.693-11.4,4.559,5.318-2.089-5.128Z" transform="translate(-329.261 -111.675)"/></g><g transform="translate(15.187)"><path d="M329.529,109.24a.913.913,0,0,1-.855-.57l-2.279-4.844a.874.874,0,0,1,.095-.95l7.408-9.5a1.006,1.006,0,0,1,1.235-.285,1.028,1.028,0,0,1,.475,1.14l-5.034,14.341a1.439,1.439,0,0,1-1.045.665Zm-1.235-5.7,1.045,2.279,2.374-6.648Z" transform="translate(-326.291 -93)"/></g><g transform="translate(0 16.5)"><path d="M323.121,116.667h-.095l-11.871-1.615a1.01,1.01,0,0,1-.855-.95.925.925,0,0,1,.76-.95L325.97,110.4a.9.9,0,0,1,.95.38,1.029,1.029,0,0,1,0,1.045l-3.039,4.464C323.786,116.572,323.5,116.667,323.121,116.667Zm-5.983-2.754,5.508.76,1.425-2.089Z" transform="translate(-310.3 -110.374)"/></g></g><g transform="translate(35.689 28.492)"><path d="M328.849,113.7a2.849,2.849,0,1,1,2.849-2.849A2.857,2.857,0,0,1,328.849,113.7Zm0-3.8a.95.95,0,1,0,.95.95A.9.9,0,0,0,328.849,109.9Z" transform="translate(-326 -108)"/></g><g transform="translate(0.929 0.95)"><g transform="translate(16.43 16.62)"><path d="M311.923,96.5l7.978,9.022-13.2-7.6Z" transform="translate(-306.7 -96.5)" fill="#b5b5b5"/></g><g transform="translate(11.017)"><path d="M301,90.4,304.8,79V94.2Z" transform="translate(-301 -79)" fill="#b5b5b5"/></g><g transform="translate(0 18.045)"><path d="M301.176,103.223,289.4,105.6,302.6,98Z" transform="translate(-289.4 -98)" fill="#b5b5b5"/></g></g><g transform="translate(14.795 18.994)"><path d="M304.95,192.972a.9.9,0,0,1-.95-.95V98.95a.95.95,0,0,1,1.9,0v93.072A.9.9,0,0,1,304.95,192.972Z" transform="translate(-304 -98)"/></g><g transform="translate(16.41 16.679)"><path d="M319.851,106.425a.856.856,0,0,1-.475-.095l-13.2-7.6a.964.964,0,0,1-.475-.95.92.92,0,0,1,.665-.76l5.223-1.425a.86.86,0,0,1,.95.285l7.883,8.832a1.172,1.172,0,0,1,.38.76.9.9,0,0,1-.95.95Zm-10.732-8.263,6.078,3.514-3.7-4.179Z" transform="translate(-305.7 -95.563)"/></g><g transform="translate(10.992)"><path d="M304.748,95.095a.862.862,0,0,1-.665-.285l-3.8-3.8a.756.756,0,0,1-.19-.95l3.8-11.4A1.027,1.027,0,0,1,304.938,78a.925.925,0,0,1,.76.95v15.2a.831.831,0,0,1-.57.855A.571.571,0,0,1,304.748,95.095Zm-2.754-5.034,1.8,1.8V84.838Z" transform="translate(-299.996 -78)"/></g><g transform="translate(0 18.102)"><path d="M289.351,106.5a.962.962,0,0,1-.855-.57.879.879,0,0,1,.38-1.14l13.2-7.6a.864.864,0,0,1,1.045.095,1.054,1.054,0,0,1,.38,1.045l-1.425,5.223a.92.92,0,0,1-.76.665L289.541,106.6C289.446,106.5,289.446,106.5,289.351,106.5Zm11.682-6.553-6.078,3.514,5.413-1.14Z" transform="translate(-288.422 -97.061)"/></g><g transform="translate(12.896 15.195)"><path d="M304.849,99.7a2.849,2.849,0,1,1,2.849-2.849A2.8,2.8,0,0,1,304.849,99.7Zm0-3.8a.95.95,0,1,0,.95.95A.9.9,0,0,0,304.849,95.9Z" transform="translate(-302 -94)"/></g></g><g transform="translate(284.915 163.352)"><g transform="translate(0.95 0.95)"><circle cx="7.598" cy="7.598" r="7.598" fill="#52c695"/></g><g transform="translate(7.598 11.397)"><path d="M308.95,197.3a.9.9,0,0,1-.95-.95v-11.4a.95.95,0,1,1,1.9,0v11.4A.9.9,0,0,1,308.95,197.3Z" transform="translate(-308 -184)" fill="#020210"/></g><path d="M308.547,189.095a8.547,8.547,0,1,1,8.547-8.547A8.512,8.512,0,0,1,308.547,189.095Zm0-15.2a6.648,6.648,0,1,0,6.648,6.648A6.607,6.607,0,0,0,308.547,173.9Z" transform="translate(-300 -172)" fill="#020210"/></g><g transform="translate(341.899 94.972)"><g transform="translate(31.341 0.95)"><rect width="18.994" height="91.173" fill="#d1d1d1"/></g><g transform="translate(0.95 0.95)"><rect width="30.391" height="91.173" fill="#7ee8e5"/></g><path d="M410.335,193.072H360.95a.9.9,0,0,1-.95-.95V100.95a.9.9,0,0,1,.95-.95h49.385a.9.9,0,0,1,.95.95v91.173A.9.9,0,0,1,410.335,193.072Zm-48.436-1.9h47.486V101.9H361.9Z" transform="translate(-360 -100)" fill="#020210"/><g transform="translate(30.391)"><path d="M392.95,193.072a.9.9,0,0,1-.95-.95V100.95a.95.95,0,0,1,1.9,0v91.173A.9.9,0,0,1,392.95,193.072Z" transform="translate(-392 -100)" fill="#020210"/></g><g transform="translate(22.793)"><path d="M384.95,193.072a.9.9,0,0,1-.95-.95V100.95a.95.95,0,0,1,1.9,0v91.173A.9.9,0,0,1,384.95,193.072Z" transform="translate(-384 -100)" fill="#020210"/></g><g transform="translate(7.598)"><path d="M368.95,193.072a.9.9,0,0,1-.95-.95V100.95a.95.95,0,0,1,1.9,0v91.173A.9.9,0,0,1,368.95,193.072Z" transform="translate(-368 -100)" fill="#020210"/></g><g transform="translate(15.195)"><path d="M376.95,193.072a.9.9,0,0,1-.95-.95V100.95a.95.95,0,1,1,1.9,0v91.173A.9.9,0,0,1,376.95,193.072Z" transform="translate(-376 -100)" fill="#020210"/></g><g transform="translate(0 11.397)"><g transform="translate(0 68.38)"><path d="M391.341,185.9H360.95a.95.95,0,0,1,0-1.9h30.391a.95.95,0,0,1,0,1.9Z" transform="translate(-360 -184)" fill="#020210"/></g><g transform="translate(0 56.983)"><path d="M391.341,173.9H360.95a.95.95,0,0,1,0-1.9h30.391a.95.95,0,0,1,0,1.9Z" transform="translate(-360 -172)" fill="#020210"/></g><g transform="translate(0 45.586)"><path d="M391.341,161.9H360.95a.95.95,0,0,1,0-1.9h30.391a.95.95,0,0,1,0,1.9Z" transform="translate(-360 -160)" fill="#020210"/></g><g transform="translate(0 34.19)"><path d="M391.341,149.9H360.95a.95.95,0,0,1,0-1.9h30.391a.95.95,0,0,1,0,1.9Z" transform="translate(-360 -148)" fill="#020210"/></g><g transform="translate(0 22.793)"><path d="M391.341,137.9H360.95a.95.95,0,0,1,0-1.9h30.391a.95.95,0,0,1,0,1.9Z" transform="translate(-360 -136)" fill="#020210"/></g><g transform="translate(0 11.397)"><path d="M391.341,125.9H360.95a.95.95,0,0,1,0-1.9h30.391a.95.95,0,0,1,0,1.9Z" transform="translate(-360 -124)" fill="#020210"/></g><path d="M391.341,113.9H360.95a.95.95,0,0,1,0-1.9h30.391a.95.95,0,0,1,0,1.9Z" transform="translate(-360 -112)" fill="#020210"/></g></g><g transform="translate(368.871 24.693)"><g transform="translate(19.564 90.223)"><rect width="18.994" height="7.598" fill="#fff"/></g><g transform="translate(19.564 97.821)"><rect width="30.391" height="64.581" fill="#637282"/></g><g transform="translate(38.559 90.223)"><rect width="11.397" height="7.598" fill="#fff"/></g><g transform="translate(1.121 31.721)"><g transform="translate(1.006 0.845)"><path d="M390.887,62.864a3.82,3.82,0,0,1,4.844-2.374l3.609,1.235a3.814,3.814,0,1,1-2.469,7.218l-3.609-1.235A3.675,3.675,0,0,1,390.887,62.864Z" transform="translate(-390.639 -60.29)" fill="#fff"/></g><path d="M397.957,70.132a3.937,3.937,0,0,1-1.52-.285l-3.609-1.235a4.555,4.555,0,0,1-2.754-2.374,4.368,4.368,0,0,1-.19-3.609,4.8,4.8,0,0,1,4.464-3.229,3.937,3.937,0,0,1,1.52.285l3.609,1.235A4.807,4.807,0,0,1,402.42,67,4.657,4.657,0,0,1,397.957,70.132ZM394.348,61.2a2.766,2.766,0,0,0-2.659,1.9,2.885,2.885,0,0,0,.095,2.184,2.658,2.658,0,0,0,1.615,1.425l3.609,1.235a2.871,2.871,0,0,0,3.609-1.8,2.833,2.833,0,0,0-1.8-3.609L395.2,61.3C395.012,61.3,394.727,61.2,394.348,61.2Z" transform="translate(-389.58 -59.4)"/></g><g transform="translate(1.121 40.553)"><g transform="translate(1.006 0.845)"><path d="M390.887,72.164a3.82,3.82,0,0,1,4.844-2.374l3.609,1.235a3.814,3.814,0,1,1-2.469,7.218l-3.609-1.235A3.675,3.675,0,0,1,390.887,72.164Z" transform="translate(-390.639 -69.59)" fill="#fff"/></g><path d="M397.957,79.432a3.937,3.937,0,0,1-1.52-.285l-3.609-1.235a4.555,4.555,0,0,1-2.754-2.374,4.368,4.368,0,0,1-.19-3.609,4.8,4.8,0,0,1,4.464-3.229,3.937,3.937,0,0,1,1.52.285l3.609,1.235A4.807,4.807,0,0,1,402.42,76.3,4.657,4.657,0,0,1,397.957,79.432ZM394.348,70.6a2.766,2.766,0,0,0-2.659,1.9,2.885,2.885,0,0,0,.095,2.184,2.658,2.658,0,0,0,1.615,1.425l3.609,1.235a2.871,2.871,0,0,0,3.609-1.8,2.833,2.833,0,0,0-1.8-3.609L395.2,70.694A2.108,2.108,0,0,0,394.348,70.6Z" transform="translate(-389.58 -68.7)"/></g><g transform="translate(1.121 49.385)"><g transform="translate(1.006 0.94)"><path d="M390.887,81.564a3.82,3.82,0,0,1,4.844-2.374l3.609,1.235a3.814,3.814,0,1,1-2.469,7.218l-3.609-1.235A3.708,3.708,0,0,1,390.887,81.564Z" transform="translate(-390.639 -78.99)" fill="#fff"/></g><path d="M397.957,88.732a3.937,3.937,0,0,1-1.52-.285l-3.609-1.235a4.555,4.555,0,0,1-2.754-2.374,4.368,4.368,0,0,1-.19-3.609A4.8,4.8,0,0,1,394.348,78a3.937,3.937,0,0,1,1.52.285l3.609,1.235A4.807,4.807,0,0,1,402.42,85.6,4.538,4.538,0,0,1,397.957,88.732ZM394.348,79.9a2.766,2.766,0,0,0-2.659,1.9,2.885,2.885,0,0,0,.095,2.184,2.658,2.658,0,0,0,1.615,1.425l3.609,1.235a2.871,2.871,0,0,0,3.609-1.8,2.833,2.833,0,0,0-1.8-3.609L395.2,79.994A2.108,2.108,0,0,0,394.348,79.9Z" transform="translate(-389.58 -78)"/></g><g transform="translate(0 17.475)"><g transform="translate(0.926 0.855)"><path d="M390.443,46.44a3.784,3.784,0,0,1,5.413,0l10.732,10.732a3.828,3.828,0,0,1-5.413,5.413L390.443,51.853A3.963,3.963,0,0,1,390.443,46.44Z" transform="translate(-389.375 -45.3)" fill="#fff"/></g><path d="M403.88,64.629a4.455,4.455,0,0,1-3.324-1.425L389.825,52.473a4.836,4.836,0,0,1-1.425-3.324,4.455,4.455,0,0,1,1.425-3.324,4.836,4.836,0,0,1,3.324-1.425,4.455,4.455,0,0,1,3.324,1.425L407.2,56.556a4.837,4.837,0,0,1,1.425,3.324A4.455,4.455,0,0,1,407.2,63.2,5.023,5.023,0,0,1,403.88,64.629ZM393.054,46.2a2.586,2.586,0,0,0-1.994.855,2.733,2.733,0,0,0-.855,1.994,2.587,2.587,0,0,0,.855,1.994L401.791,61.78a2.93,2.93,0,0,0,3.989,0,2.733,2.733,0,0,0,.855-1.994,2.586,2.586,0,0,0-.855-1.994L395.048,47.059A2.961,2.961,0,0,0,393.054,46.2Z" transform="translate(-388.4 -44.4)"/></g><g transform="translate(8.168 6.648)"><path d="M431.19,36.8a3.81,3.81,0,0,0-3.8-3.8H400.8a3.81,3.81,0,0,0-3.8,3.8V89.983a3.81,3.81,0,0,0,3.8,3.8h26.592a3.81,3.81,0,0,0,3.8-3.8Z" transform="translate(-397 -33)" fill="#637282"/></g><g transform="translate(11.966 14.246)"><rect width="26.592" height="45.586" fill="#35c9cb"/></g><g transform="translate(1.52)"><g transform="translate(5.698 5.698)"><path d="M427.341,94.681H400.749A4.7,4.7,0,0,1,396,89.933V36.749A4.7,4.7,0,0,1,400.749,32h26.592a4.7,4.7,0,0,1,4.749,4.749V89.933A4.7,4.7,0,0,1,427.341,94.681ZM400.749,33.9a2.8,2.8,0,0,0-2.849,2.849V89.933a2.8,2.8,0,0,0,2.849,2.849h26.592a2.8,2.8,0,0,0,2.849-2.849V36.749a2.8,2.8,0,0,0-2.849-2.849Z" transform="translate(-396 -32)"/></g><g transform="translate(14.246 37.039)"><path d="M412.6,118.184v-7.6c0-5.888-7.6-7.6-7.6-15.2h11.4a11.43,11.43,0,0,1,11.4-11.4V72.6a7.62,7.62,0,0,1,7.6-7.6v53.184Z" transform="translate(-405 -65)" fill="#fff"/></g><g transform="translate(36.089 43.687)"><path d="M428.95,85.3a.9.9,0,0,1-.95-.95V72.95a.95.95,0,0,1,1.9,0v11.4A.9.9,0,0,1,428.95,85.3Z" transform="translate(-428 -72)"/></g><g transform="translate(13.296 36.089)"><path d="M435.341,119.084a.9.9,0,0,1-.95-.95V65.994a6.645,6.645,0,0,0-5.7,6.553v11.4a.9.9,0,0,1-.95.95A10.417,10.417,0,0,0,417.3,95.341a.9.9,0,0,1-.95.95H405.9c.285,3.134,1.994,5.034,3.894,7.028,1.8,1.994,3.7,4.084,3.7,7.218v7.6a.95.95,0,1,1-1.9,0v-7.6c0-2.374-1.52-4.084-3.229-5.983-2.089-2.279-4.369-4.844-4.369-9.212a.9.9,0,0,1,.95-.95H415.4a12.413,12.413,0,0,1,11.4-11.4V72.547A8.512,8.512,0,0,1,435.341,64a.9.9,0,0,1,.95.95v53.184A.9.9,0,0,1,435.341,119.084Z" transform="translate(-404 -64)"/></g><g transform="translate(9.497 13.296)"><path d="M400.95,87.486a.9.9,0,0,1-.95-.95V40.95a.95.95,0,0,1,1.9,0V86.536A.9.9,0,0,1,400.95,87.486Z" transform="translate(-400 -40)"/></g><g transform="translate(9.497 13.296)"><path d="M427.542,41.9H400.95a.95.95,0,0,1,0-1.9h26.592a.95.95,0,0,1,0,1.9Z" transform="translate(-400 -40)"/></g><g transform="translate(9.497 58.883)"><path d="M419.089,89.9H400.95a.95.95,0,0,1,0-1.9h18.14a.9.9,0,0,1,.95.95A.952.952,0,0,1,419.089,89.9Z" transform="translate(-400 -88)"/></g><g transform="translate(36.089 13.296)"><path d="M428.95,70.391a.9.9,0,0,1-.95-.95V40.95a.95.95,0,0,1,1.9,0V69.441A.9.9,0,0,1,428.95,70.391Z" transform="translate(-428 -40)"/></g><g transform="translate(18.994 9.497)"><path d="M418.547,37.9h-7.6a.95.95,0,0,1,0-1.9h7.6a.95.95,0,0,1,0,1.9Z" transform="translate(-410 -36)"/></g><g transform="translate(0.95 0.95)"><circle cx="5.698" cy="5.698" r="5.698" fill="#ff4a63"/></g><path d="M396.648,39.3a6.648,6.648,0,1,1,6.648-6.648A6.607,6.607,0,0,1,396.648,39.3Zm0-11.4a4.749,4.749,0,1,0,4.749,4.749A4.7,4.7,0,0,0,396.648,27.9Z" transform="translate(-390 -26)"/></g><g transform="translate(18.614 89.274)"><path d="M439.341,129.5H408.95a.9.9,0,0,1-.95-.95v-7.6a.9.9,0,0,1,.95-.95h30.391a.9.9,0,0,1,.95.95v7.6A.9.9,0,0,1,439.341,129.5ZM409.9,127.6h28.492v-5.7H409.9Z" transform="translate(-408 -120)"/></g><g transform="translate(37.609 89.274)"><path d="M428.95,129.5a.9.9,0,0,1-.95-.95v-7.6a.95.95,0,0,1,1.9,0v7.6A.9.9,0,0,1,428.95,129.5Z" transform="translate(-428 -120)"/></g><g transform="translate(49.005 96.871)"><path d="M440.95,194.48a.9.9,0,0,1-.95-.95V128.95a.95.95,0,1,1,1.9,0v64.581A.9.9,0,0,1,440.95,194.48Z" transform="translate(-440 -128)"/></g><g transform="translate(18.614 96.871)"><path d="M408.95,194.48a.9.9,0,0,1-.95-.95V128.95a.95.95,0,1,1,1.9,0v64.581A.9.9,0,0,1,408.95,194.48Z" transform="translate(-408 -128)"/></g></g><g transform="translate(53.184 72.164)"><g transform="translate(0.95 0.964)"><path d="M91.19,152.977l-3.8-18.994,3.8-18.994-3.8-18.994L91.19,77H60.8L57,95.994l3.8,18.994L57,133.983l3.8,18.994L57,171.972l3.8,18.994H91.19l-3.8-18.994Z" transform="translate(-57 -77)" fill="#7ee8e5"/><g transform="translate(30.391)"><path d="M92.8,77,89,95.994l3.8,18.994L89,133.983l3.8,18.994L89,171.972l3.8,18.994h18.994V77Z" transform="translate(-89 -77)" fill="#d1d1d1"/></g></g><g transform="translate(0 0.015)"><path d="M60.749,191.866a.925.925,0,0,1-.95-.76L56,172.111v-.38l3.8-18.8-3.8-18.8v-.38l3.8-18.8L56,96.134v-.38L59.8,76.76a.925.925,0,0,1,.95-.76h49.385a.9.9,0,0,1,.95.95V190.916a.95.95,0,1,1-1.9,0V77.9H61.508L57.9,95.944l3.8,18.8v.38l-3.8,18.8,3.8,18.8v.38l-3.8,18.8,3.8,18.8a.961.961,0,0,1-.76,1.14Z" transform="translate(-56 -76)" fill="#020210"/></g><g transform="translate(7.598)"><g transform="translate(0 75.977)"><path d="M68.749,195.887a.925.925,0,0,1-.95-.76L64,176.133v-.38l3.8-18.994a.969.969,0,0,1,1.9.38l-3.8,18.8,3.8,18.8a.961.961,0,0,1-.76,1.14Z" transform="translate(-64 -155.985)" fill="#020210"/></g><g transform="translate(0 37.989)"><path d="M68.749,155.887a.925.925,0,0,1-.95-.76L64,136.133v-.38l3.8-18.994a.969.969,0,0,1,1.9.38l-3.8,18.8,3.8,18.8a.961.961,0,0,1-.76,1.14Z" transform="translate(-64 -115.985)" fill="#020210"/></g><path d="M68.749,115.887a.925.925,0,0,1-.95-.76L64,96.133v-.38l3.8-18.994a.969.969,0,0,1,1.9.38l-3.8,18.8,3.8,18.8a.961.961,0,0,1-.76,1.14Z" transform="translate(-64 -75.985)" fill="#020210"/></g><g transform="translate(15.195)"><g transform="translate(0 75.977)"><path d="M76.749,195.887a.925.925,0,0,1-.95-.76L72,176.133v-.38l3.8-18.994a.969.969,0,0,1,1.9.38l-3.8,18.8,3.8,18.8a.961.961,0,0,1-.76,1.14Z" transform="translate(-72 -155.985)" fill="#020210"/></g><g transform="translate(0 37.989)"><path d="M76.749,155.887a.925.925,0,0,1-.95-.76L72,136.133v-.38l3.8-18.994a.969.969,0,1,1,1.9.38l-3.8,18.8,3.8,18.8a.961.961,0,0,1-.76,1.14Z" transform="translate(-72 -115.985)" fill="#020210"/></g><path d="M76.749,115.887a.925.925,0,0,1-.95-.76L72,96.133v-.38l3.8-18.994a.969.969,0,0,1,1.9.38l-3.8,18.8,3.8,18.8a.961.961,0,0,1-.76,1.14Z" transform="translate(-72 -75.985)" fill="#020210"/></g><g transform="translate(22.793)"><g transform="translate(0 75.977)"><path d="M84.749,195.887a.925.925,0,0,1-.95-.76L80,176.133v-.38l3.8-18.994a.969.969,0,0,1,1.9.38l-3.8,18.8,3.8,18.8a.961.961,0,0,1-.76,1.14Z" transform="translate(-80 -155.985)" fill="#020210"/></g><g transform="translate(0 37.989)"><path d="M84.749,155.887a.925.925,0,0,1-.95-.76L80,136.133v-.38l3.8-18.994a.969.969,0,0,1,1.9.38l-3.8,18.8,3.8,18.8a.961.961,0,0,1-.76,1.14Z" transform="translate(-80 -115.985)" fill="#020210"/></g><path d="M84.749,115.887a.925.925,0,0,1-.95-.76L80,96.133v-.38l3.8-18.994a.969.969,0,0,1,1.9.38l-3.8,18.8,3.8,18.8a.961.961,0,0,1-.76,1.14Z" transform="translate(-80 -75.985)" fill="#020210"/></g><g transform="translate(30.391)"><g transform="translate(0 75.977)"><path d="M92.749,195.887a.925.925,0,0,1-.95-.76L88,176.133v-.38l3.8-18.994a.969.969,0,0,1,1.9.38l-3.8,18.8,3.8,18.8a.961.961,0,0,1-.76,1.14Z" transform="translate(-88 -155.985)" fill="#020210"/></g><g transform="translate(0 37.989)"><path d="M92.749,155.887a.925.925,0,0,1-.95-.76L88,136.133v-.38l3.8-18.994a.969.969,0,0,1,1.9.38l-3.8,18.8,3.8,18.8a.961.961,0,0,1-.76,1.14Z" transform="translate(-88 -115.985)" fill="#020210"/></g><path d="M92.749,115.887a.925.925,0,0,1-.95-.76L88,96.133v-.38l3.8-18.994a.969.969,0,0,1,1.9.38l-3.8,18.8,3.8,18.8a.961.961,0,0,1-.76,1.14Z" transform="translate(-88 -75.985)" fill="#020210"/></g><g transform="translate(3.799 113.981)"><path d="M110.335,197.9H60.95a.95.95,0,1,1,0-1.9h49.385a.95.95,0,1,1,0,1.9Z" transform="translate(-60 -196)" fill="#020210"/></g><g transform="translate(0 19.009)"><path d="M87.341,97.9H56.95a.95.95,0,0,1,0-1.9H87.341a.95.95,0,0,1,0,1.9Z" transform="translate(-56 -96)" fill="#020210"/></g><g transform="translate(3.799 38.003)"><path d="M91.341,117.9H60.95a.95.95,0,1,1,0-1.9H91.341a.95.95,0,1,1,0,1.9Z" transform="translate(-60 -116)" fill="#020210"/></g><g transform="translate(0 56.998)"><path d="M87.341,137.9H56.95a.95.95,0,0,1,0-1.9H87.341a.95.95,0,1,1,0,1.9Z" transform="translate(-56 -136)" fill="#020210"/></g><g transform="translate(3.799 75.992)"><path d="M91.341,157.9H60.95a.95.95,0,1,1,0-1.9H91.341a.95.95,0,1,1,0,1.9Z" transform="translate(-60 -156)" fill="#020210"/></g><g transform="translate(0 94.986)"><path d="M87.341,177.9H56.95a.95.95,0,1,1,0-1.9H87.341a.95.95,0,1,1,0,1.9Z" transform="translate(-56 -176)" fill="#020210"/></g><g transform="translate(3.799 113.981)"><path d="M91.341,197.9H60.95a.95.95,0,1,1,0-1.9H91.341a.95.95,0,1,1,0,1.9Z" transform="translate(-60 -196)" fill="#020210"/></g></g><g transform="translate(47.486 170.949)"><g transform="translate(0.95 0.95)"><circle cx="5.698" cy="5.698" r="5.698" fill="#ff4a63"/></g><g transform="translate(5.698 7.598)"><path d="M56.95,197.5a.9.9,0,0,1-.95-.95v-7.6a.95.95,0,0,1,1.9,0v7.6A.9.9,0,0,1,56.95,197.5Z" transform="translate(-56 -188)" fill="#020210"/></g><path d="M56.648,193.3a6.648,6.648,0,1,1,6.648-6.648A6.607,6.607,0,0,1,56.648,193.3Zm0-11.4a4.749,4.749,0,1,0,4.749,4.749A4.7,4.7,0,0,0,56.648,181.9Z" transform="translate(-50 -180)" fill="#020210"/></g><g transform="translate(117.765 91.173)"><g transform="translate(0.95 0.95)"><rect width="45.586" height="94.972" fill="#d1d1d1"/></g><g transform="translate(19.944 0.95)"><rect width="22.793" height="94.972" fill="#b5b5b5"/></g><path d="M170.536,192.871H124.95a.9.9,0,0,1-.95-.95V96.95a.9.9,0,0,1,.95-.95h45.586a.9.9,0,0,1,.95.95v94.972A.9.9,0,0,1,170.536,192.871Zm-44.637-1.9h43.687V97.9H125.9Z" transform="translate(-124 -96)" fill="#020210"/><g transform="translate(15.195)"><path d="M140.95,192.871a.9.9,0,0,1-.95-.95V96.95a.95.95,0,1,1,1.9,0v94.972A.9.9,0,0,1,140.95,192.871Z" transform="translate(-140 -96)" fill="#020210"/></g><g transform="translate(18.994)"><path d="M144.95,192.871a.9.9,0,0,1-.95-.95V96.95a.95.95,0,1,1,1.9,0v94.972A.9.9,0,0,1,144.95,192.871Z" transform="translate(-144 -96)" fill="#020210"/></g><g transform="translate(26.592)"><path d="M152.95,192.871a.9.9,0,0,1-.95-.95V96.95a.95.95,0,1,1,1.9,0v94.972A.9.9,0,0,1,152.95,192.871Z" transform="translate(-152 -96)" fill="#020210"/></g><g transform="translate(34.19)"><path d="M160.95,192.871a.9.9,0,0,1-.95-.95V96.95a.95.95,0,1,1,1.9,0v94.972A.9.9,0,0,1,160.95,192.871Z" transform="translate(-160 -96)" fill="#020210"/></g><g transform="translate(41.788)"><path d="M168.95,192.871a.9.9,0,0,1-.95-.95V96.95a.95.95,0,1,1,1.9,0v94.972A.9.9,0,0,1,168.95,192.871Z" transform="translate(-168 -96)" fill="#020210"/></g></g><g transform="translate(98.771 22.793)"><g transform="translate(12.346 84.525)"><rect width="18.994" height="7.598" fill="#fff"/></g><g transform="translate(0.95 92.123)"><rect width="30.391" height="72.179" fill="#637282"/></g><g transform="translate(0.95 84.525)"><rect width="11.397" height="7.598" fill="#fff"/></g><g transform="translate(36.685 25.927)"><g transform="translate(0.819 0.94)"><path d="M154.516,54.864a3.82,3.82,0,0,0-4.844-2.374l-3.609,1.235a3.814,3.814,0,1,0,2.469,7.218l3.609-1.235A3.675,3.675,0,0,0,154.516,54.864Z" transform="translate(-143.49 -52.29)" fill="#fff"/></g><path d="M147.35,62.127h0a4.789,4.789,0,0,1-1.52-9.307l3.609-1.235a4.3,4.3,0,0,1,1.52-.285,4.8,4.8,0,0,1,4.464,3.229,4.745,4.745,0,0,1-.19,3.609,4.555,4.555,0,0,1-2.754,2.374l-3.609,1.235A3.007,3.007,0,0,1,147.35,62.127Zm3.609-8.927a3.374,3.374,0,0,0-.95.19L146.4,54.624a2.822,2.822,0,0,0,.855,5.508,3.374,3.374,0,0,0,.95-.19l3.609-1.235a2.689,2.689,0,0,0,1.615-1.425,2.885,2.885,0,0,0,.095-2.184A2.77,2.77,0,0,0,150.959,53.2Z" transform="translate(-142.627 -51.3)"/></g><g transform="translate(36.685 34.76)"><g transform="translate(0.819 0.94)"><path d="M154.516,64.164a3.82,3.82,0,0,0-4.844-2.374l-3.609,1.235a3.814,3.814,0,1,0,2.469,7.218l3.609-1.235A3.675,3.675,0,0,0,154.516,64.164Z" transform="translate(-143.49 -61.59)" fill="#fff"/></g><path d="M147.35,71.427h0a4.789,4.789,0,0,1-1.52-9.307l3.609-1.235a4.3,4.3,0,0,1,1.52-.285,4.8,4.8,0,0,1,4.464,3.229,4.745,4.745,0,0,1-.19,3.609,4.555,4.555,0,0,1-2.754,2.374l-3.609,1.235A3.007,3.007,0,0,1,147.35,71.427Zm3.609-8.832a3.374,3.374,0,0,0-.95.19L146.4,64.019a2.822,2.822,0,0,0,.855,5.508,3.374,3.374,0,0,0,.95-.19l3.609-1.235a2.689,2.689,0,0,0,1.615-1.425,2.885,2.885,0,0,0,.095-2.184A2.65,2.65,0,0,0,150.959,62.594Z" transform="translate(-142.627 -60.6)"/></g><g transform="translate(36.685 43.592)"><g transform="translate(0.819 1.035)"><path d="M154.516,73.564a3.82,3.82,0,0,0-4.844-2.374l-3.609,1.235a3.814,3.814,0,1,0,2.469,7.218l3.609-1.235A3.708,3.708,0,0,0,154.516,73.564Z" transform="translate(-143.49 -70.99)" fill="#fff"/></g><path d="M147.35,80.727h0a4.789,4.789,0,0,1-1.52-9.307l3.609-1.235a4.3,4.3,0,0,1,1.52-.285,4.8,4.8,0,0,1,4.464,3.229,4.745,4.745,0,0,1-.19,3.609,4.555,4.555,0,0,1-2.754,2.374l-3.609,1.235A3.007,3.007,0,0,1,147.35,80.727Zm3.609-8.832a3.374,3.374,0,0,0-.95.19L146.4,73.319a2.822,2.822,0,0,0,.855,5.508,3.374,3.374,0,0,0,.95-.19l3.609-1.235a2.689,2.689,0,0,0,1.615-1.425,2.885,2.885,0,0,0,.095-2.184A2.65,2.65,0,0,0,150.959,71.894Z" transform="translate(-142.627 -69.9)"/></g><g transform="translate(3.799)"><g transform="translate(26.948 11.682)"><g transform="translate(0.878 0.95)"><path d="M154.585,38.44a3.784,3.784,0,0,0-5.413,0L138.44,49.171a3.828,3.828,0,0,0,5.413,5.413l10.732-10.732A3.963,3.963,0,0,0,154.585,38.44Z" transform="translate(-137.3 -37.3)" fill="#fff"/></g><path d="M141.052,56.624h0a4.455,4.455,0,0,1-3.324-1.425,4.876,4.876,0,0,1,0-6.743L148.46,37.725a4.837,4.837,0,0,1,3.324-1.425,4.455,4.455,0,0,1,3.324,1.425,4.837,4.837,0,0,1,1.425,3.324,4.455,4.455,0,0,1-1.425,3.324L144.376,55.1A4.395,4.395,0,0,1,141.052,56.624ZM151.879,38.2a2.587,2.587,0,0,0-1.994.855L139.153,49.786a2.754,2.754,0,0,0,0,3.989,2.93,2.93,0,0,0,3.989,0l10.732-10.732a2.733,2.733,0,0,0,.855-1.994,2.587,2.587,0,0,0-.855-1.994A3.165,3.165,0,0,0,151.879,38.2Z" transform="translate(-136.375 -36.3)"/></g><g transform="translate(4.749 0.95)"><path d="M113,28.8a3.81,3.81,0,0,1,3.8-3.8h26.592a3.81,3.81,0,0,1,3.8,3.8V81.983a3.81,3.81,0,0,1-3.8,3.8H116.8a3.81,3.81,0,0,1-3.8-3.8Z" transform="translate(-113 -25)" fill="#637282"/></g><g transform="translate(8.547 8.547)"><rect width="26.592" height="45.586" fill="#35c9cb"/></g><g transform="translate(3.799)"><path d="M143.341,86.681H116.749A4.7,4.7,0,0,1,112,81.933V28.749A4.7,4.7,0,0,1,116.749,24h26.592a4.7,4.7,0,0,1,4.749,4.749V81.933A4.7,4.7,0,0,1,143.341,86.681ZM116.749,25.9a2.8,2.8,0,0,0-2.849,2.849V81.933a2.8,2.8,0,0,0,2.849,2.849h26.592a2.8,2.8,0,0,0,2.849-2.849V28.749a2.8,2.8,0,0,0-2.849-2.849Z" transform="translate(-112 -24)"/></g><g transform="translate(0.95 31.341)"><path d="M131.793,110.184v-7.6c0-5.888,7.6-7.6,7.6-15.2h-11.4a11.43,11.43,0,0,0-11.4-11.4V64.6A7.62,7.62,0,0,0,109,57v53.184Z" transform="translate(-109 -57)" fill="#fff"/></g><g transform="translate(7.598 37.989)"><path d="M116.95,77.3a.9.9,0,0,1-.95-.95V64.95a.95.95,0,1,1,1.9,0v11.4A.9.9,0,0,1,116.95,77.3Z" transform="translate(-116 -64)"/></g><g transform="translate(0 30.391)"><path d="M131.743,111.084a.9.9,0,0,1-.95-.95v-7.6c0-3.134,1.9-5.223,3.7-7.218s3.609-3.894,3.894-7.028H127.944a.9.9,0,0,1-.95-.95,10.417,10.417,0,0,0-10.447-10.447.9.9,0,0,1-.95-.95v-11.4a6.645,6.645,0,0,0-5.7-6.553v52.14a.95.95,0,0,1-1.9,0V56.95a.9.9,0,0,1,.95-.95,8.512,8.512,0,0,1,8.547,8.547V74.994a12.413,12.413,0,0,1,11.4,11.4h10.447a.9.9,0,0,1,.95.95c0,4.369-2.374,6.933-4.369,9.212-1.71,1.9-3.229,3.514-3.229,5.983v7.6A.9.9,0,0,1,131.743,111.084Z" transform="translate(-108 -56)"/></g><g transform="translate(34.19 7.598)"><path d="M144.95,79.486a.9.9,0,0,1-.95-.95V32.95a.95.95,0,1,1,1.9,0V78.536A.9.9,0,0,1,144.95,79.486Z" transform="translate(-144 -32)"/></g><g transform="translate(7.598 7.598)"><path d="M143.542,33.9H116.95a.95.95,0,1,1,0-1.9h26.592a.95.95,0,1,1,0,1.9Z" transform="translate(-116 -32)"/></g><g transform="translate(16.05 53.184)"><path d="M143.989,81.9H125.85a.95.95,0,0,1,0-1.9h18.14a.95.95,0,1,1,0,1.9Z" transform="translate(-124.9 -80)"/></g><g transform="translate(7.598 7.598)"><path d="M116.95,62.391a.9.9,0,0,1-.95-.95V32.95a.95.95,0,1,1,1.9,0V61.441A.9.9,0,0,1,116.95,62.391Z" transform="translate(-116 -32)"/></g><g transform="translate(17.095 3.799)"><path d="M134.547,29.9h-7.6a.95.95,0,0,1,0-1.9h7.6a.95.95,0,0,1,0,1.9Z" transform="translate(-126 -28)"/></g></g><g transform="translate(0 83.575)"><path d="M135.341,121.5H104.95a.9.9,0,0,1-.95-.95v-7.6a.9.9,0,0,1,.95-.95h30.391a.9.9,0,0,1,.95.95v7.6A.9.9,0,0,1,135.341,121.5ZM105.9,119.6h28.492v-5.7H105.9Z" transform="translate(-104 -112)"/></g><g transform="translate(11.397 83.575)"><path d="M116.95,121.5a.9.9,0,0,1-.95-.95v-7.6a.95.95,0,0,1,1.9,0v7.6A.9.9,0,0,1,116.95,121.5Z" transform="translate(-116 -112)"/></g><g transform="translate(0 91.173)"><path d="M104.95,194.078a.9.9,0,0,1-.95-.95V120.95a.95.95,0,1,1,1.9,0v72.179A.9.9,0,0,1,104.95,194.078Z" transform="translate(-104 -120)"/></g><g transform="translate(30.391 91.173)"><path d="M136.95,194.078a.9.9,0,0,1-.95-.95V120.95a.95.95,0,0,1,1.9,0v72.179A.9.9,0,0,1,136.95,194.078Z" transform="translate(-136 -120)"/></g></g><g transform="translate(277.318 125.363)"><g transform="translate(0.95 0.95)"><path d="M315.793,148.2H296.8a3.81,3.81,0,0,1-3.8-3.8c0-4.179,10.162-11.4,22.793-11.4Z" transform="translate(-293 -133)" fill="#fff"/></g><g transform="translate(2.944 4.749)"><path d="M300.418,137H312.1l-3.8,3.8H295.1A20.17,20.17,0,0,1,300.418,137Z" transform="translate(-295.1 -137)" fill="#51b8ba"/></g><g transform="translate(91.173)"><rect width="34.19" height="15.195" transform="translate(0.95 0.95)" fill="#fff"/><path d="M423.14,149.095H388.95a.9.9,0,0,1-.95-.95v-15.2a.9.9,0,0,1,.95-.95h34.19a.9.9,0,0,1,.95.95v15.2A.9.9,0,0,1,423.14,149.095Zm-33.24-1.9h32.29V133.9H389.9Z" transform="translate(-388 -132)" fill="#020210"/></g><g transform="translate(95.922 4.749)"><path d="M396.8,137h22.793l-3.8,3.8H393Z" transform="translate(-393 -137)" fill="#51b8ba"/></g><g transform="translate(22.793)"><rect width="34.19" height="15.195" transform="translate(0.95 0.95)" fill="#fff"/><path d="M351.14,149.095H316.95a.9.9,0,0,1-.95-.95v-15.2a.9.9,0,0,1,.95-.95h34.19a.9.9,0,0,1,.95.95v15.2A.9.9,0,0,1,351.14,149.095Zm-33.24-1.9h32.29V133.9H317.9Z" transform="translate(-316 -132)" fill="#020210"/></g><g transform="translate(27.542 4.749)"><path d="M324.8,137h22.793l-3.8,3.8H321Z" transform="translate(-321 -137)" fill="#51b8ba"/></g><g transform="translate(56.983)"><rect width="34.19" height="15.195" transform="translate(0.95 0.95)" fill="#fff"/><path d="M387.14,149.095H352.95a.9.9,0,0,1-.95-.95v-15.2a.9.9,0,0,1,.95-.95h34.19a.9.9,0,0,1,.95.95v15.2A.9.9,0,0,1,387.14,149.095Zm-33.24-1.9h32.29V133.9H353.9Z" transform="translate(-352 -132)" fill="#020210"/><g transform="translate(0 3.799)"><path d="M387.19,137h0Z" transform="translate(-352.05 -136.05)" fill="#fff"/><path d="M387.14,137.9H352.95a.95.95,0,0,1,0-1.9h34.19a.95.95,0,0,1,0,1.9Z" transform="translate(-352 -136)" fill="#020210"/></g></g><path d="M315.743,149.095H296.749A4.7,4.7,0,0,1,292,144.346C292,139.5,302.637,132,315.743,132a.95.95,0,0,1,0,1.9c-12.441,0-21.844,6.933-21.844,10.447a2.8,2.8,0,0,0,2.849,2.849h18.994a.95.95,0,0,1,0,1.9Z" transform="translate(-292 -132)" fill="#020210"/><g transform="translate(7.598 3.799)"><path d="M350.335,137.9H300.95a.95.95,0,1,1,0-1.9h49.385a.95.95,0,1,1,0,1.9Z" transform="translate(-300 -136)" fill="#020210"/></g><g transform="translate(1.994 7.598)"><path d="M308.251,141.9h-13.2a.95.95,0,0,1,0-1.9h13.2a.95.95,0,1,1,0,1.9Z" transform="translate(-294.1 -140)" fill="#020210"/></g><g transform="translate(15.195 3.799)"><path d="M308.95,141.7a.862.862,0,0,1-.665-.285.918.918,0,0,1,0-1.33l3.8-3.8a.94.94,0,0,1,1.33,1.33l-3.8,3.8A.862.862,0,0,1,308.95,141.7Z" transform="translate(-308 -136)" fill="#020210"/></g><g transform="translate(26.592 3.799)"><g transform="translate(0 3.799)"><path d="M343.743,141.9H320.95a.95.95,0,1,1,0-1.9h22.793a.95.95,0,1,1,0,1.9Z" transform="translate(-320 -140)" fill="#020210"/></g><g transform="translate(22.793)"><path d="M344.95,141.7a.862.862,0,0,1-.665-.285.918.918,0,0,1,0-1.33l3.8-3.8a.94.94,0,0,1,1.33,1.33l-3.8,3.8A.862.862,0,0,1,344.95,141.7Z" transform="translate(-344 -136)" fill="#020210"/></g><path d="M320.95,141.7a.862.862,0,0,1-.665-.285.918.918,0,0,1,0-1.33l3.8-3.8a.94.94,0,0,1,1.33,1.33l-3.8,3.8A.862.862,0,0,1,320.95,141.7Z" transform="translate(-320 -136)" fill="#020210"/></g><g transform="translate(61.447 4.749)"><path d="M360.5,137h22.793l-3.8,3.8H356.7Z" transform="translate(-356.7 -137)" fill="#51b8ba"/></g><g transform="translate(60.493 3.799)"><path d="M379.443,141.7H356.65a.831.831,0,0,1-.855-.57.867.867,0,0,1,.19-1.045l3.8-3.8a.862.862,0,0,1,.665-.285h22.793a.831.831,0,0,1,.855.57.867.867,0,0,1-.19,1.045l-3.8,3.8A.862.862,0,0,1,379.443,141.7Zm-20.514-1.9h20.134l1.9-1.9H360.828Z" transform="translate(-355.696 -136)" fill="#020210"/></g><g transform="translate(94.687 3.799)"><g transform="translate(0 3.799)"><path d="M415.443,141.9H392.65a.95.95,0,0,1,0-1.9h22.793a.95.95,0,1,1,0,1.9Z" transform="translate(-391.7 -140)" fill="#020210"/></g><g transform="translate(22.793)"><path d="M416.65,141.7a.862.862,0,0,1-.665-.285.918.918,0,0,1,0-1.33l3.8-3.8a.94.94,0,0,1,1.33,1.33l-3.8,3.8A.862.862,0,0,1,416.65,141.7Z" transform="translate(-415.7 -136)" fill="#020210"/></g><path d="M392.65,141.7a.862.862,0,0,1-.665-.285.918.918,0,0,1,0-1.33l3.8-3.8a.94.94,0,0,1,1.33,1.33l-3.8,3.8A.862.862,0,0,1,392.65,141.7Z" transform="translate(-391.7 -136)" fill="#020210"/></g><g transform="translate(125.363)"><rect width="34.19" height="15.195" transform="translate(0.95 0.95)" fill="#fff"/><path d="M459.14,149.095H424.95a.9.9,0,0,1-.95-.95v-15.2a.9.9,0,0,1,.95-.95h34.19a.9.9,0,0,1,.95.95v15.2A.9.9,0,0,1,459.14,149.095Zm-33.24-1.9h32.29V133.9H425.9Z" transform="translate(-424 -132)" fill="#020210"/><g transform="translate(4.749 4.749)"><path d="M432.8,137h22.793l-3.8,3.8H429Z" transform="translate(-429 -137)" fill="#51b8ba"/></g><g transform="translate(0 3.799)"><path d="M459.19,137h0Z" transform="translate(-424.05 -136.05)" fill="#fff"/><path d="M459.14,137.9H424.95a.95.95,0,0,1,0-1.9h34.19a.95.95,0,0,1,0,1.9Z" transform="translate(-424 -136)" fill="#020210"/></g><g transform="translate(3.514 3.799)"><g transform="translate(0 3.799)"><path d="M451.443,141.9H428.65a.95.95,0,0,1,0-1.9h22.793a.95.95,0,1,1,0,1.9Z" transform="translate(-427.7 -140)" fill="#020210"/></g><g transform="translate(22.793)"><path d="M452.65,141.7a.862.862,0,0,1-.665-.285.918.918,0,0,1,0-1.33l3.8-3.8a.94.94,0,0,1,1.33,1.33l-3.8,3.8A.862.862,0,0,1,452.65,141.7Z" transform="translate(-451.7 -136)" fill="#020210"/></g><path d="M428.65,141.7a.862.862,0,0,1-.665-.285.918.918,0,0,1,0-1.33l3.8-3.8a.94.94,0,0,1,1.33,1.33l-3.8,3.8A.862.862,0,0,1,428.65,141.7Z" transform="translate(-427.7 -136)" fill="#020210"/></g></g><g transform="translate(159.553)"><rect width="34.19" height="15.195" transform="translate(0.95 0.95)" fill="#fff"/><path d="M495.14,149.095H460.95a.9.9,0,0,1-.95-.95v-15.2a.9.9,0,0,1,.95-.95h34.19a.9.9,0,0,1,.95.95v15.2A.9.9,0,0,1,495.14,149.095Zm-33.24-1.9h32.29V133.9H461.9Z" transform="translate(-460 -132)" fill="#020210"/><g transform="translate(4.749 4.749)"><path d="M468.8,137h22.793l-3.8,3.8H465Z" transform="translate(-465 -137)" fill="#51b8ba"/></g><g transform="translate(0 3.799)"><path d="M495.19,137h0Z" transform="translate(-460.05 -136.05)" fill="#fff"/><path d="M495.14,137.9H460.95a.95.95,0,1,1,0-1.9h34.19a.95.95,0,1,1,0,1.9Z" transform="translate(-460 -136)" fill="#020210"/></g><g transform="translate(3.514 3.799)"><g transform="translate(0 3.799)"><path d="M487.443,141.9H464.65a.95.95,0,1,1,0-1.9h22.793a.95.95,0,0,1,0,1.9Z" transform="translate(-463.7 -140)" fill="#020210"/></g><g transform="translate(22.793)"><path d="M488.65,141.7a.862.862,0,0,1-.665-.285.918.918,0,0,1,0-1.33l3.8-3.8a.94.94,0,0,1,1.33,1.33l-3.8,3.8A.862.862,0,0,1,488.65,141.7Z" transform="translate(-487.7 -136)" fill="#020210"/></g><path d="M464.65,141.7a.862.862,0,0,1-.665-.285.918.918,0,0,1,0-1.33l3.8-3.8a.94.94,0,0,1,1.33,1.33l-3.8,3.8A.862.862,0,0,1,464.65,141.7Z" transform="translate(-463.7 -136)" fill="#020210"/></g></g><g transform="translate(91.173 3.799)"><path d="M423.19,137h0Z" transform="translate(-388.05 -136.05)" fill="#fff"/><path d="M423.14,137.9H388.95a.95.95,0,1,1,0-1.9h34.19a.95.95,0,0,1,0,1.9Z" transform="translate(-388 -136)" fill="#020210"/></g></g><g transform="translate(0 121.564)"><g transform="translate(0.95 0.95)" opacity="0.2"><rect width="547.038" height="22.793" fill="#35c9cb"/></g><g transform="translate(23.743 31.341)"><g transform="translate(493.853)"><rect width="3.799" height="34.19" fill="#b5b5b5"/></g><g transform="translate(395.083)"><rect width="3.799" height="34.19" fill="#b5b5b5"/></g><g transform="translate(296.312)"><rect width="3.799" height="34.19" fill="#b5b5b5"/></g><g transform="translate(197.541)"><rect width="3.799" height="34.19" fill="#b5b5b5"/></g><g transform="translate(98.771)"><rect width="3.799" height="34.19" fill="#b5b5b5"/></g><rect width="3.799" height="34.19" fill="#b5b5b5"/></g><g transform="translate(0.95 23.743)"><rect width="547.038" height="7.598" fill="#b5b5b5"/></g><g transform="translate(0 30.391)"><path d="M547.987,161.9H.95a.95.95,0,0,1,0-1.9H547.987a.95.95,0,1,1,0,1.9Z" transform="translate(0 -160)" fill="#020210"/></g><path d="M547.987,129.9H.95a.95.95,0,0,1,0-1.9H547.987a.95.95,0,1,1,0,1.9Z" transform="translate(0 -128)" fill="#35c9cb"/><g transform="translate(516.647 30.391)"><path d="M544.95,196.089a.9.9,0,0,1-.95-.95V160.95a.95.95,0,0,1,1.9,0v34.19A.9.9,0,0,1,544.95,196.089Z" transform="translate(-544 -160)" fill="#020210"/></g><g transform="translate(520.446 30.391)"><path d="M548.95,196.089a.9.9,0,0,1-.95-.95V160.95a.95.95,0,0,1,1.9,0v34.19A.9.9,0,0,1,548.95,196.089Z" transform="translate(-548 -160)" fill="#020210"/></g><g transform="translate(417.876 30.391)"><path d="M440.95,196.089a.9.9,0,0,1-.95-.95V160.95a.95.95,0,1,1,1.9,0v34.19A.9.9,0,0,1,440.95,196.089Z" transform="translate(-440 -160)" fill="#020210"/></g><g transform="translate(421.675 30.391)"><path d="M444.95,196.089a.9.9,0,0,1-.95-.95V160.95a.95.95,0,1,1,1.9,0v34.19A.9.9,0,0,1,444.95,196.089Z" transform="translate(-444 -160)" fill="#020210"/></g><g transform="translate(319.105 30.391)"><path d="M336.95,196.089a.9.9,0,0,1-.95-.95V160.95a.95.95,0,0,1,1.9,0v34.19A.9.9,0,0,1,336.95,196.089Z" transform="translate(-336 -160)" fill="#020210"/></g><g transform="translate(322.904 30.391)"><path d="M340.95,196.089a.9.9,0,0,1-.95-.95V160.95a.95.95,0,1,1,1.9,0v34.19A.9.9,0,0,1,340.95,196.089Z" transform="translate(-340 -160)" fill="#020210"/></g><g transform="translate(220.335 30.391)"><path d="M232.95,196.089a.9.9,0,0,1-.95-.95V160.95a.95.95,0,1,1,1.9,0v34.19A.9.9,0,0,1,232.95,196.089Z" transform="translate(-232 -160)" fill="#020210"/></g><g transform="translate(224.133 30.391)"><path d="M236.95,196.089a.9.9,0,0,1-.95-.95V160.95a.95.95,0,1,1,1.9,0v34.19A.9.9,0,0,1,236.95,196.089Z" transform="translate(-236 -160)" fill="#020210"/></g><g transform="translate(121.564 30.391)"><path d="M128.95,196.089a.9.9,0,0,1-.95-.95V160.95a.95.95,0,1,1,1.9,0v34.19A.9.9,0,0,1,128.95,196.089Z" transform="translate(-128 -160)" fill="#020210"/></g><g transform="translate(125.363 30.391)"><path d="M132.95,196.089a.9.9,0,0,1-.95-.95V160.95a.95.95,0,1,1,1.9,0v34.19A.9.9,0,0,1,132.95,196.089Z" transform="translate(-132 -160)" fill="#020210"/></g><g transform="translate(22.793 30.391)"><path d="M24.95,196.089a.9.9,0,0,1-.95-.95V160.95a.95.95,0,1,1,1.9,0v34.19A.9.9,0,0,1,24.95,196.089Z" transform="translate(-24 -160)" fill="#020210"/></g><g transform="translate(26.592 30.391)"><path d="M28.95,196.089a.9.9,0,0,1-.95-.95V160.95a.95.95,0,1,1,1.9,0v34.19A.9.9,0,0,1,28.95,196.089Z" transform="translate(-28 -160)" fill="#020210"/></g><g transform="translate(24.693)"><g transform="translate(296.312)"><path d="M338.95,152.693a.9.9,0,0,1-.95-.95V128.95a.95.95,0,1,1,1.9,0v22.793A.9.9,0,0,1,338.95,152.693Z" transform="translate(-338 -128)" fill="#35c9cb"/></g><g transform="translate(197.541)"><path d="M234.95,152.693a.9.9,0,0,1-.95-.95V128.95a.95.95,0,1,1,1.9,0v22.793A.9.9,0,0,1,234.95,152.693Z" transform="translate(-234 -128)" fill="#35c9cb"/></g><g transform="translate(98.771)"><path d="M130.95,152.693a.9.9,0,0,1-.95-.95V128.95a.95.95,0,1,1,1.9,0v22.793A.9.9,0,0,1,130.95,152.693Z" transform="translate(-130 -128)" fill="#35c9cb"/></g><path d="M26.95,152.693a.9.9,0,0,1-.95-.95V128.95a.95.95,0,1,1,1.9,0v22.793A.9.9,0,0,1,26.95,152.693Z" transform="translate(-26 -128)" fill="#35c9cb"/><g transform="translate(395.083)"><path d="M442.95,152.693a.9.9,0,0,1-.95-.95V128.95a.95.95,0,1,1,1.9,0v22.793A.9.9,0,0,1,442.95,152.693Z" transform="translate(-442 -128)" fill="#35c9cb"/></g><g transform="translate(493.853)"><path d="M546.95,152.693a.9.9,0,0,1-.95-.95V128.95a.95.95,0,1,1,1.9,0v22.793A.9.9,0,0,1,546.95,152.693Z" transform="translate(-546 -128)" fill="#35c9cb"/></g></g><g transform="translate(0 22.793)"><path d="M547.987,153.9H.95a.95.95,0,1,1,0-1.9H547.987a.95.95,0,1,1,0,1.9Z" transform="translate(0 -152)" fill="#020210"/></g></g><g transform="translate(155.754 155.754)"><g transform="translate(0.95 0.95)"><circle cx="11.397" cy="11.397" r="11.397" fill="#ff4a63"/></g><g transform="translate(11.397 15.195)"><path d="M176.95,197.095a.9.9,0,0,1-.95-.95v-15.2a.95.95,0,0,1,1.9,0v15.2A.9.9,0,0,1,176.95,197.095Z" transform="translate(-176 -180)" fill="#020210"/></g><path d="M176.346,188.693a12.346,12.346,0,1,1,12.346-12.346A12.322,12.322,0,0,1,176.346,188.693Zm0-22.793a10.447,10.447,0,1,0,10.447,10.447A10.417,10.417,0,0,0,176.346,165.9Z" transform="translate(-164 -164)" fill="#020210"/></g><g transform="translate(254.524 155.754)"><g transform="translate(0.95 0.95)"><circle cx="11.397" cy="11.397" r="11.397" fill="#ff4a63"/></g><g transform="translate(11.397 15.195)"><path d="M280.95,197.095a.9.9,0,0,1-.95-.95v-15.2a.95.95,0,0,1,1.9,0v15.2A.9.9,0,0,1,280.95,197.095Z" transform="translate(-280 -180)" fill="#020210"/></g><path d="M280.346,188.693a12.346,12.346,0,1,1,12.346-12.346A12.322,12.322,0,0,1,280.346,188.693Zm0-22.793a10.447,10.447,0,1,0,10.447,10.447A10.417,10.417,0,0,0,280.346,165.9Z" transform="translate(-268 -164)" fill="#020210"/></g><g transform="translate(269.72 174.748)"><g transform="translate(0.95 0.95)"><circle cx="3.799" cy="3.799" r="3.799" fill="#52c695"/></g><path d="M288.749,193.5a4.749,4.749,0,1,1,4.749-4.749A4.7,4.7,0,0,1,288.749,193.5Zm0-7.6a2.849,2.849,0,1,0,2.849,2.849A2.8,2.8,0,0,0,288.749,185.9Z" transform="translate(-284 -184)" fill="#020210"/><g transform="translate(3.799 3.799)"><path d="M288.95,197.5a.9.9,0,0,1-.95-.95v-7.6a.95.95,0,0,1,1.9,0v7.6A.9.9,0,0,1,288.95,197.5Z" transform="translate(-288 -188)" fill="#020210"/></g></g><g transform="translate(535.641 174.748)"><g transform="translate(0.95 0.95)"><circle cx="3.799" cy="3.799" r="3.799" fill="#52c695"/></g><path d="M568.749,193.5a4.749,4.749,0,1,1,4.749-4.749A4.7,4.7,0,0,1,568.749,193.5Zm0-7.6a2.849,2.849,0,1,0,2.849,2.849A2.8,2.8,0,0,0,568.749,185.9Z" transform="translate(-564 -184)" fill="#020210"/><g transform="translate(3.799 3.799)"><path d="M568.95,197.5a.9.9,0,0,1-.95-.95v-7.6a.95.95,0,0,1,1.9,0v7.6A.9.9,0,0,1,568.95,197.5Z" transform="translate(-568 -188)" fill="#020210"/></g></g><g transform="translate(11.397 174.748)"><g transform="translate(0.95 0.95)"><circle cx="3.799" cy="3.799" r="3.799" fill="#ff4a63"/></g><path d="M16.749,193.5a4.749,4.749,0,1,1,4.749-4.749A4.7,4.7,0,0,1,16.749,193.5Zm0-7.6a2.849,2.849,0,1,0,2.849,2.849A2.8,2.8,0,0,0,16.749,185.9Z" transform="translate(-12 -184)" fill="#020210"/><g transform="translate(3.799 3.799)"><path d="M16.95,197.5a.9.9,0,0,1-.95-.95v-7.6a.95.95,0,0,1,1.9,0v7.6A.9.9,0,0,1,16.95,197.5Z" transform="translate(-16 -188)" fill="#020210"/></g></g><g transform="translate(229.832 170.949)"><g transform="translate(0.95 0.95)"><circle cx="5.698" cy="5.698" r="5.698" fill="#52c695"/></g><g transform="translate(5.698 7.598)"><path d="M248.95,197.5a.9.9,0,0,1-.95-.95v-7.6a.95.95,0,0,1,1.9,0v7.6A.9.9,0,0,1,248.95,197.5Z" transform="translate(-248 -188)" fill="#020210"/></g><path d="M248.648,193.3a6.648,6.648,0,1,1,6.648-6.648A6.607,6.607,0,0,1,248.648,193.3Zm0-11.4a4.749,4.749,0,1,0,4.749,4.749A4.7,4.7,0,0,0,248.648,181.9Z" transform="translate(-242 -180)" fill="#020210"/></g><g transform="translate(167.53 75.977)"><g transform="translate(19.564 92.123)"><rect width="30.391" height="18.994" fill="#637282"/></g><g transform="translate(0 11.776)"><g transform="translate(0.926 0.855)"><path d="M178.443,94.44a3.784,3.784,0,0,1,5.413,0l10.732,10.732a3.828,3.828,0,1,1-5.413,5.413L178.443,99.853A3.963,3.963,0,0,1,178.443,94.44Z" transform="translate(-177.375 -93.3)" fill="#fff"/></g><path d="M191.88,112.629a4.455,4.455,0,0,1-3.324-1.425l-10.732-10.732a4.837,4.837,0,0,1-1.425-3.324,4.455,4.455,0,0,1,1.425-3.324,4.836,4.836,0,0,1,3.324-1.425,4.455,4.455,0,0,1,3.324,1.425L195.2,104.556a4.837,4.837,0,0,1,1.425,3.324A4.455,4.455,0,0,1,195.2,111.2,5.023,5.023,0,0,1,191.88,112.629ZM181.054,94.2a2.587,2.587,0,0,0-1.994.855,2.733,2.733,0,0,0-.855,1.994,2.587,2.587,0,0,0,.855,1.994l10.732,10.732a2.93,2.93,0,0,0,3.989,0,2.733,2.733,0,0,0,.855-1.994,2.587,2.587,0,0,0-.855-1.994L183.048,95.059A2.961,2.961,0,0,0,181.054,94.2Z" transform="translate(-176.4 -92.4)"/></g><g transform="translate(7.218)"><g transform="translate(0.95 0.95)"><path d="M219.19,84.8a3.81,3.81,0,0,0-3.8-3.8H188.8a3.81,3.81,0,0,0-3.8,3.8v53.184a3.81,3.81,0,0,0,3.8,3.8h26.592a3.81,3.81,0,0,0,3.8-3.8Z" transform="translate(-185 -81)" fill="#637282"/></g><g transform="translate(4.749 8.547)"><rect width="26.592" height="45.586" fill="#35c9cb"/></g><g transform="translate(7.598 21.559)"><g transform="translate(0.95 0.95)"><circle cx="9.497" cy="9.497" r="9.497" fill="#fff"/></g><path d="M202.447,123.594a10.447,10.447,0,1,1,10.447-10.447A10.417,10.417,0,0,1,202.447,123.594Zm0-18.994a8.547,8.547,0,1,0,8.547,8.547A8.512,8.512,0,0,0,202.447,104.6Z" transform="translate(-192 -102.7)" fill="#020210"/><g transform="translate(9.497)"><path d="M202.95,123.594a.9.9,0,0,1-.95-.95V103.65a.95.95,0,1,1,1.9,0v18.994A.952.952,0,0,1,202.95,123.594Z" transform="translate(-202 -102.7)" fill="#020210"/></g><g transform="translate(4.749)"><path d="M202.7,123.594c-3.229,0-5.7-4.559-5.7-10.447s2.469-10.447,5.7-10.447,5.7,4.559,5.7,10.447C208.4,118.94,205.927,123.594,202.7,123.594Zm0-18.994c-1.8,0-3.8,3.514-3.8,8.547s1.994,8.547,3.8,8.547,3.8-3.514,3.8-8.547S204.5,104.6,202.7,104.6Z" transform="translate(-197 -102.7)" fill="#020210"/></g><g transform="translate(0 9.497)"><path d="M211.944,114.6H192.95a.95.95,0,1,1,0-1.9h18.994a.9.9,0,0,1,.95.95A.952.952,0,0,1,211.944,114.6Z" transform="translate(-192 -112.7)" fill="#020210"/></g></g><g transform="translate(3.799 7.598)"><path d="M215.542,135.486H188.95a.9.9,0,0,1-.95-.95V88.95a.9.9,0,0,1,.95-.95h26.592a.9.9,0,0,1,.95.95v45.586A.9.9,0,0,1,215.542,135.486Zm-25.642-1.9h24.693V89.9H189.9Z" transform="translate(-188 -88)"/></g><path d="M215.341,142.681H188.749A4.7,4.7,0,0,1,184,137.933V84.749A4.7,4.7,0,0,1,188.749,80h26.592a4.7,4.7,0,0,1,4.749,4.749v53.184A4.7,4.7,0,0,1,215.341,142.681ZM188.749,81.9a2.8,2.8,0,0,0-2.849,2.849v53.184a2.8,2.8,0,0,0,2.849,2.849h26.592a2.8,2.8,0,0,0,2.849-2.849V84.749a2.8,2.8,0,0,0-2.849-2.849Z" transform="translate(-184 -80)"/><g transform="translate(13.296 3.799)"><path d="M206.547,85.9h-7.6a.95.95,0,1,1,0-1.9h7.6a.95.95,0,0,1,0,1.9Z" transform="translate(-198 -84)"/></g></g><g transform="translate(1.595 26.022)"><g transform="translate(0.959 0.845)"><path d="M179.289,110.864a3.82,3.82,0,0,1,4.844-2.374l3.609,1.235a3.814,3.814,0,1,1-2.469,7.218l-3.609-1.235A3.82,3.82,0,0,1,179.289,110.864Z" transform="translate(-179.09 -108.29)" fill="#fff"/></g><path d="M186.456,118.132a3.937,3.937,0,0,1-1.52-.285l-3.609-1.235a4.555,4.555,0,0,1-2.754-2.374,4.368,4.368,0,0,1-.19-3.609,4.8,4.8,0,0,1,4.464-3.229,3.937,3.937,0,0,1,1.52.285l3.609,1.235a4.73,4.73,0,0,1-1.52,9.212Zm-3.609-8.927a2.766,2.766,0,0,0-2.659,1.9,2.885,2.885,0,0,0,.095,2.184,2.936,2.936,0,0,0,1.615,1.425l3.609,1.235a2.81,2.81,0,0,0,.95.19,2.766,2.766,0,0,0,2.659-1.9,2.833,2.833,0,0,0-1.8-3.609l-3.609-1.235A2.268,2.268,0,0,0,182.848,109.2Z" transform="translate(-178.08 -107.4)"/></g><g transform="translate(1.595 34.855)"><g transform="translate(0.959 0.845)"><path d="M179.289,120.164a3.82,3.82,0,0,1,4.844-2.374l3.609,1.235a3.814,3.814,0,1,1-2.469,7.218l-3.609-1.235A3.82,3.82,0,0,1,179.289,120.164Z" transform="translate(-179.09 -117.59)" fill="#fff"/></g><path d="M186.456,127.432a3.937,3.937,0,0,1-1.52-.285l-3.609-1.235a4.555,4.555,0,0,1-2.754-2.374,4.368,4.368,0,0,1-.19-3.609,4.8,4.8,0,0,1,4.464-3.229,3.937,3.937,0,0,1,1.52.285l3.609,1.235a4.73,4.73,0,0,1-1.52,9.212Zm-3.609-8.832a2.766,2.766,0,0,0-2.659,1.9,2.885,2.885,0,0,0,.095,2.184,2.937,2.937,0,0,0,1.615,1.425l3.609,1.235a2.81,2.81,0,0,0,.95.19,2.766,2.766,0,0,0,2.659-1.9,2.833,2.833,0,0,0-1.8-3.609l-3.609-1.235A1.277,1.277,0,0,0,182.848,118.6Z" transform="translate(-178.08 -116.7)"/></g><g transform="translate(1.771 45.207)"><g transform="translate(0.968 0.999)"><path d="M179.869,130.5a3.837,3.837,0,0,1,5.223-1.33l3.229,1.994a3.811,3.811,0,1,1-3.894,6.553l-3.229-1.994A3.7,3.7,0,0,1,179.869,130.5Z" transform="translate(-179.284 -128.652)" fill="#fff"/></g><path d="M186.276,139.092a4.6,4.6,0,0,1-2.469-.665l-3.229-1.994a4.727,4.727,0,0,1-1.615-6.553,4.7,4.7,0,0,1,4.084-2.279,4.6,4.6,0,0,1,2.469.665l3.229,1.994a4.727,4.727,0,0,1,1.615,6.553A4.7,4.7,0,0,1,186.276,139.092Zm-3.229-9.592a2.754,2.754,0,0,0-2.469,1.425,2.91,2.91,0,0,0-.285,2.184,2.685,2.685,0,0,0,1.33,1.71l3.229,1.994a2.68,2.68,0,0,0,1.425.38,2.754,2.754,0,0,0,2.469-1.425,2.91,2.91,0,0,0,.285-2.184,2.685,2.685,0,0,0-1.33-1.71l-3.229-1.994A3.521,3.521,0,0,0,183.047,129.5Z" transform="translate(-178.265 -127.6)"/></g><g transform="translate(15.765 29.346)"><path d="M200.6,166.079v-7.6c0-5.888-7.6-7.6-7.6-15.2h11.4a11.43,11.43,0,0,1,11.4-11.4v-7.6l-2.659-2.659a7.624,7.624,0,0,1,0-10.732l10.257,10.257v44.922Z" transform="translate(-193 -110.9)" fill="#fff"/></g><g transform="translate(18.614 83.575)"><path d="M227.341,177.5H196.95a.9.9,0,0,1-.95-.95v-7.6a.9.9,0,0,1,.95-.95h30.391a.9.9,0,0,1,.95.95v7.6A.9.9,0,0,1,227.341,177.5ZM197.9,175.6h28.492v-5.7H197.9Z" transform="translate(-196 -168)"/></g><g transform="translate(37.609 83.575)"><path d="M216.95,177.5a.9.9,0,0,1-.95-.95v-7.6a.95.95,0,1,1,1.9,0v7.6A.9.9,0,0,1,216.95,177.5Z" transform="translate(-216 -168)"/></g><g transform="translate(49.005 91.173)"><path d="M228.95,196.894a.9.9,0,0,1-.95-.95V176.95a.95.95,0,1,1,1.9,0v18.994A.9.9,0,0,1,228.95,196.894Z" transform="translate(-228 -176)"/></g><g transform="translate(18.614 91.173)"><path d="M196.95,196.894a.9.9,0,0,1-.95-.95V176.95a.95.95,0,1,1,1.9,0v18.994A.9.9,0,0,1,196.95,196.894Z" transform="translate(-196 -176)"/></g><g transform="translate(14.816 28.302)"><path d="M223.341,166.973a.9.9,0,0,1-.95-.95V121.482l-9.307-9.307a6.709,6.709,0,0,0-1.33,3.989,6.536,6.536,0,0,0,1.994,4.749l2.659,2.659a.862.862,0,0,1,.285.665v7.6a.9.9,0,0,1-.95.95A10.417,10.417,0,0,0,205.3,143.23a.9.9,0,0,1-.95.95H193.9c.285,3.134,1.994,5.034,3.894,7.028,1.8,1.994,3.7,4.084,3.7,7.218v7.6a.95.95,0,0,1-1.9,0v-7.6c0-2.374-1.52-4.084-3.229-5.983C194.279,150.163,192,147.6,192,143.23a.9.9,0,0,1,.95-.95H203.4a12.413,12.413,0,0,1,11.4-11.4v-6.268l-2.374-2.374a8.715,8.715,0,0,1,0-12.156.918.918,0,0,1,1.33,0l10.257,10.257a.862.862,0,0,1,.285.665v45.017A.9.9,0,0,1,223.341,166.973Z" transform="translate(-192 -109.8)"/></g></g><g transform="translate(37.989 163.352)"><g transform="translate(0.95 0.95)"><circle cx="7.598" cy="7.598" r="7.598" fill="#52c695"/></g><g transform="translate(7.598 11.397)"><path d="M48.95,197.3a.9.9,0,0,1-.95-.95v-11.4a.95.95,0,1,1,1.9,0v11.4A.9.9,0,0,1,48.95,197.3Z" transform="translate(-48 -184)" fill="#020210"/></g><path d="M48.547,189.095a8.547,8.547,0,1,1,8.547-8.547A8.512,8.512,0,0,1,48.547,189.095Zm0-15.2a6.648,6.648,0,1,0,6.648,6.648A6.607,6.607,0,0,0,48.547,173.9Z" transform="translate(-40 -172)" fill="#020210"/></g><g transform="translate(113.966 43.687)"><g transform="translate(0.95 0.95)"><g transform="translate(9.497)"><path d="M137.743,49.754A9.467,9.467,0,0,0,131,47v9.5Z" transform="translate(-131 -47)" fill="#ff4a63"/></g><path d="M130.5,47a9.5,9.5,0,1,0,6.743,16.24L130.5,56.5Z" transform="translate(-121 -47)" fill="#fff"/><g transform="translate(9.497 2.754)"><path d="M137.743,49.9,131,56.643l6.743,6.743a9.631,9.631,0,0,0,0-13.486Z" transform="translate(-131 -49.9)" fill="#52c695"/></g></g><path d="M130.447,66.894a10.447,10.447,0,1,1,10.447-10.447A10.417,10.417,0,0,1,130.447,66.894Zm0-18.994a8.547,8.547,0,1,0,8.547,8.547A8.512,8.512,0,0,0,130.447,47.9Z" transform="translate(-120 -46)"/><g transform="translate(9.497)"><path d="M130.95,57.4a.9.9,0,0,1-.95-.95v-9.5a.95.95,0,1,1,1.9,0v9.5A.9.9,0,0,1,130.95,57.4Z" transform="translate(-130 -46)"/></g><g transform="translate(9.497 2.754)"><path d="M130.95,57.542a.862.862,0,0,1-.665-.285.918.918,0,0,1,0-1.33l6.743-6.743a.94.94,0,1,1,1.33,1.33l-6.743,6.743A.862.862,0,0,1,130.95,57.542Z" transform="translate(-130 -48.9)"/></g><g transform="translate(9.497 9.497)"><path d="M137.693,64.642a.862.862,0,0,1-.665-.285l-6.743-6.743a.94.94,0,1,1,1.33-1.33l6.743,6.743a.918.918,0,0,1,0,1.33A1.026,1.026,0,0,1,137.693,64.642Z" transform="translate(-130 -56)"/></g></g><g transform="translate(383.682 54.794)"><g transform="translate(0.954 0.954)"><rect width="18.994" height="11.397" fill="#f9e765"/></g><g transform="translate(0.004 0.005)"><path d="M423.944,71H404.95a.9.9,0,0,1-.95-.95V58.65a.9.9,0,0,1,.95-.95h18.994a.9.9,0,0,1,.95.95v11.4A.952.952,0,0,1,423.944,71ZM405.9,69.1h17.095V59.6H405.9Z" transform="translate(-404 -57.7)"/></g><g transform="translate(0 5.698)"><path d="M404.949,71.3a.864.864,0,0,1-.76-.38.929.929,0,0,1,.19-1.33l7.123-5.7a.95.95,0,1,1,1.14,1.52l-7.123,5.7A1.35,1.35,0,0,1,404.949,71.3Z" transform="translate(-403.995 -63.695)"/></g><g transform="translate(11.9 5.727)"><path d="M424.574,71.3a1.35,1.35,0,0,1-.57-.19l-7.123-5.7a.95.95,0,0,1,1.14-1.52l7.123,5.7a1.021,1.021,0,0,1,.19,1.33A1.172,1.172,0,0,1,424.574,71.3Z" transform="translate(-416.526 -63.726)"/></g><g transform="translate(0.029 0.029)"><path d="M412.074,65.3a1.35,1.35,0,0,1-.57-.19l-7.123-5.7a.95.95,0,0,1,1.14-1.52l7.123,5.7a1.021,1.021,0,0,1,.19,1.33A1.172,1.172,0,0,1,412.074,65.3Z" transform="translate(-404.026 -57.726)"/></g><g transform="translate(11.871)"><path d="M417.449,65.3a.864.864,0,0,1-.76-.38.929.929,0,0,1,.19-1.33L424,57.89a.95.95,0,0,1,1.14,1.52l-7.123,5.7A1.35,1.35,0,0,1,417.449,65.3Z" transform="translate(-416.495 -57.695)"/></g><g transform="translate(7.152 5.698)"><path d="M414.825,67.5a1.35,1.35,0,0,1-.57-.19l-2.374-1.9a.95.95,0,1,1,1.14-1.52l1.8,1.425,1.8-1.425a.95.95,0,1,1,1.14,1.52l-2.374,1.9A1.349,1.349,0,0,1,414.825,67.5Z" transform="translate(-411.526 -63.695)"/></g></g><g transform="translate(334.301 87.374)"><path d="M352,123.341a.952.952,0,0,1,.95-.95h0a.952.952,0,0,1,.95.95h0a1.021,1.021,0,0,1-.95.95h0A1.021,1.021,0,0,1,352,123.341Zm0-3.8a.952.952,0,0,1,.95-.95h0a.952.952,0,0,1,.95.95h0a1.021,1.021,0,0,1-.95.95h0A1.021,1.021,0,0,1,352,119.542Zm0-3.8a.952.952,0,0,1,.95-.95h0a.952.952,0,0,1,.95.95h0a1.021,1.021,0,0,1-.95.95h0A1.021,1.021,0,0,1,352,115.743Zm0-3.8a.952.952,0,0,1,.95-.95h0a.952.952,0,0,1,.95.95h0a1.021,1.021,0,0,1-.95.95h0A1.021,1.021,0,0,1,352,111.944Zm0-3.8a.952.952,0,0,1,.95-.95h0a.952.952,0,0,1,.95.95h0a1.021,1.021,0,0,1-.95.95h0A1.021,1.021,0,0,1,352,108.145Zm0-3.8a.952.952,0,0,1,.95-.95h0a.952.952,0,0,1,.95.95h0a1.021,1.021,0,0,1-.95.95h0A1.021,1.021,0,0,1,352,104.346Zm0-3.8a.952.952,0,0,1,.95-.95h0a.952.952,0,0,1,.95.95h0a1.021,1.021,0,0,1-.95.95h0A1.021,1.021,0,0,1,352,100.547Zm0-3.8a.952.952,0,0,1,.95-.95h0a.952.952,0,0,1,.95.95h0a1.021,1.021,0,0,1-.95.95h0A1.021,1.021,0,0,1,352,96.749Zm0-3.8a.952.952,0,0,1,.95-.95h0a.952.952,0,0,1,.95.95h0a1.021,1.021,0,0,1-.95.95h0A1.021,1.021,0,0,1,352,92.95Z" transform="translate(-352 -92)"/></g><g transform="translate(493.853 53.184)"><path d="M520,83.542a.952.952,0,0,1,.95-.95h0a.952.952,0,0,1,.95.95h0a1.021,1.021,0,0,1-.95.95h0A1.021,1.021,0,0,1,520,83.542Zm0-3.8a.952.952,0,0,1,.95-.95h0a.952.952,0,0,1,.95.95h0a1.021,1.021,0,0,1-.95.95h0A1.021,1.021,0,0,1,520,79.743Zm0-3.8a.952.952,0,0,1,.95-.95h0a.952.952,0,0,1,.95.95h0a1.021,1.021,0,0,1-.95.95h0A1.021,1.021,0,0,1,520,75.944Zm0-3.8a.952.952,0,0,1,.95-.95h0a.952.952,0,0,1,.95.95h0a1.021,1.021,0,0,1-.95.95h0A1.021,1.021,0,0,1,520,72.145Zm0-3.8a.952.952,0,0,1,.95-.95h0a.952.952,0,0,1,.95.95h0a1.021,1.021,0,0,1-.95.95h0A1.021,1.021,0,0,1,520,68.346Zm0-3.8a.952.952,0,0,1,.95-.95h0a.952.952,0,0,1,.95.95h0a1.021,1.021,0,0,1-.95.95h0A1.021,1.021,0,0,1,520,64.547Zm0-3.8a.952.952,0,0,1,.95-.95h0a.952.952,0,0,1,.95.95h0a1.021,1.021,0,0,1-.95.95h0A1.021,1.021,0,0,1,520,60.749Zm0-3.8a.952.952,0,0,1,.95-.95h0a.952.952,0,0,1,.95.95h0a1.021,1.021,0,0,1-.95.95h0A1.021,1.021,0,0,1,520,56.95Z" transform="translate(-520 -56)"/></g><g transform="translate(512.848 75.977)"><path d="M540,84.749a.952.952,0,0,1,.95-.95h0a.952.952,0,0,1,.95.95h0a1.021,1.021,0,0,1-.95.95h0A1.021,1.021,0,0,1,540,84.749Zm0-3.8a.952.952,0,0,1,.95-.95h0a.952.952,0,0,1,.95.95h0a1.021,1.021,0,0,1-.95.95h0A1.021,1.021,0,0,1,540,80.95Z" transform="translate(-540 -80)"/></g><g transform="translate(326.703 56.983)"><g transform="translate(0.95 0.95)"><path d="M360.2,68.6c0,4.179-7.6,18.994-7.6,18.994S345,72.777,345,68.6a7.6,7.6,0,1,1,15.2,0Z" transform="translate(-345 -61)" fill="#ff4a63"/></g><path d="M352.547,88.492a1,1,0,0,1-.855-.475c-.76-1.52-7.693-15.1-7.693-19.469a8.547,8.547,0,0,1,17.095,0c0,4.274-6.933,17.855-7.693,19.469A1,1,0,0,1,352.547,88.492Zm0-26.592a6.607,6.607,0,0,0-6.648,6.648c0,2.849,4.274,11.966,6.648,16.9,2.374-4.844,6.648-13.961,6.648-16.9A6.607,6.607,0,0,0,352.547,61.9Z" transform="translate(-344 -60)" fill="#020210"/><g transform="translate(5.698 5.698)"><circle cx="1.899" cy="1.899" r="1.899" transform="translate(0.95 0.95)" fill="#fff"/><path d="M352.849,71.7a2.849,2.849,0,1,1,2.849-2.849A2.8,2.8,0,0,1,352.849,71.7Zm0-3.8a.95.95,0,1,0,.95.95A.9.9,0,0,0,352.849,67.9Z" transform="translate(-350 -66)" fill="#020210"/></g></g><g transform="translate(467.261)"><g transform="translate(0.95 0.95)"><path d="M508.2,8.6c0,4.179-7.6,18.994-7.6,18.994S493,12.777,493,8.6a7.6,7.6,0,0,1,15.2,0Z" transform="translate(-493 -1)" fill="#35c9cb"/></g><path d="M500.547,28.492a1,1,0,0,1-.855-.475C498.933,26.4,492,12.821,492,8.547a8.547,8.547,0,0,1,17.095,0c0,4.274-6.933,17.855-7.693,19.469A1,1,0,0,1,500.547,28.492Zm0-26.592A6.607,6.607,0,0,0,493.9,8.547c0,2.849,4.274,11.966,6.648,16.9,2.374-4.844,6.648-13.961,6.648-16.9A6.607,6.607,0,0,0,500.547,1.9Z" transform="translate(-492)" fill="#020210"/><g transform="translate(5.698 5.698)"><circle cx="1.899" cy="1.899" r="1.899" transform="translate(0.95 0.95)" fill="#fff"/><path d="M500.849,11.7A2.8,2.8,0,0,1,498,8.849a2.849,2.849,0,0,1,5.7,0A2.8,2.8,0,0,1,500.849,11.7Zm0-3.8a.9.9,0,0,0-.95.95.95.95,0,1,0,1.9,0A.9.9,0,0,0,500.849,7.9Z" transform="translate(-498 -6)" fill="#020210"/></g></g><g transform="translate(83.575)"><g transform="translate(0.95 0.95)"><path d="M104.2,8.6c0,4.179-7.6,18.994-7.6,18.994S89,12.777,89,8.6a7.6,7.6,0,1,1,15.2,0Z" transform="translate(-89 -1)" fill="#52c695"/></g><path d="M96.547,28.492a1,1,0,0,1-.855-.475C94.933,26.4,88,12.821,88,8.547a8.547,8.547,0,1,1,17.095,0c0,4.274-6.933,17.855-7.693,19.469A1,1,0,0,1,96.547,28.492Zm0-26.592A6.607,6.607,0,0,0,89.9,8.547c0,2.849,4.274,11.966,6.648,16.9,2.374-4.844,6.648-13.961,6.648-16.9A6.607,6.607,0,0,0,96.547,1.9Z" transform="translate(-88)" fill="#020210"/><g transform="translate(5.698 5.698)"><circle cx="1.899" cy="1.899" r="1.899" transform="translate(0.95 0.95)" fill="#fff"/><path d="M96.849,11.7A2.8,2.8,0,0,1,94,8.849a2.849,2.849,0,1,1,5.7,0A2.8,2.8,0,0,1,96.849,11.7Zm0-3.8a.9.9,0,0,0-.95.95.95.95,0,1,0,1.9,0A.9.9,0,0,0,96.849,7.9Z" transform="translate(-94 -6)" fill="#020210"/></g></g><g transform="translate(480.557 22.793)"><g transform="translate(0.95 0.95)"><path d="M520.3,42.76a4.464,4.464,0,1,1,0-8.927V25a13.3,13.3,0,1,0,9.4,22.7L523.43,41.43A4.528,4.528,0,0,1,520.3,42.76Z" transform="translate(-507 -25)" fill="#ff4a63"/><g transform="translate(13.296)"><path d="M524.134,35.162l6.268-6.268A13.274,13.274,0,0,0,521,25v8.832A4.528,4.528,0,0,1,524.134,35.162Z" transform="translate(-521 -25)" fill="#fff"/></g><g transform="translate(16.43 3.894)"><path d="M530.568,29.1,524.3,35.368a4.528,4.528,0,0,1,1.33,3.134,4.154,4.154,0,0,1-1.33,3.134l6.268,6.268a13.3,13.3,0,0,0,0-18.8Z" transform="translate(-524.3 -29.1)" fill="#52c695"/></g></g><path d="M520.246,52.492a14.246,14.246,0,1,1,14.246-14.246A14.227,14.227,0,0,1,520.246,52.492Zm0-26.592a12.346,12.346,0,1,0,12.346,12.346A12.322,12.322,0,0,0,520.246,25.9Z" transform="translate(-506 -24)" fill="#020210"/><g transform="translate(8.832 8.832)"><path d="M520.713,44.127a5.413,5.413,0,1,1,0-10.827,5.351,5.351,0,0,1,5.413,5.413A5.473,5.473,0,0,1,520.713,44.127Zm0-8.927a3.506,3.506,0,0,0-3.514,3.514,3.514,3.514,0,1,0,7.028,0A3.506,3.506,0,0,0,520.713,35.2Z" transform="translate(-515.3 -33.3)" fill="#020210"/></g><g transform="translate(13.296)"><path d="M520.95,34.732a.9.9,0,0,1-.95-.95V24.95a.95.95,0,1,1,1.9,0v8.832A.9.9,0,0,1,520.95,34.732Z" transform="translate(-520 -24)" fill="#020210"/></g><g transform="translate(16.43 3.894)"><path d="M524.25,36.268a.862.862,0,0,1-.665-.285.918.918,0,0,1,0-1.33l6.268-6.268a.94.94,0,0,1,1.33,1.33l-6.268,6.268A.862.862,0,0,1,524.25,36.268Z" transform="translate(-523.3 -28.1)" fill="#020210"/></g><g transform="translate(16.43 16.43)"><path d="M530.518,49.468a.862.862,0,0,1-.665-.285l-6.268-6.268a.94.94,0,1,1,1.33-1.33l6.268,6.268a.918.918,0,0,1,0,1.33A.862.862,0,0,1,530.518,49.468Z" transform="translate(-523.3 -41.3)" fill="#020210"/></g></g><g transform="translate(222.139 75.788)"><g transform="translate(1.045 1.14)"><path d="M261.592,95.246v-1.9l-3.989-.855a7,7,0,0,0-.38-1.33l3.039-2.754-.95-1.615-3.894,1.235a4.5,4.5,0,0,0-.95-.95l1.235-3.894-1.615-.95-2.754,3.039a5.444,5.444,0,0,0-1.33-.38L249.246,81h-1.9l-.855,3.989a6.994,6.994,0,0,0-1.33.38l-2.754-3.039-1.615.95,1.235,3.894a4.5,4.5,0,0,0-.95.95l-3.894-1.235-.95,1.615,3.039,2.754a5.444,5.444,0,0,0-.38,1.33l-3.894.76v1.9l3.989.855a7,7,0,0,0,.38,1.33l-3.039,2.754.95,1.615,3.894-1.235a4.5,4.5,0,0,0,.95.95l-1.235,3.894,1.615.95,2.754-3.039a5.444,5.444,0,0,0,1.33.38l.855,3.989h1.9l.855-3.989a7,7,0,0,0,1.33-.38l2.754,3.039,1.615-.95-1.235-3.894a4.5,4.5,0,0,0,.95-.95L259.5,101.8l.95-1.615-3.039-2.754a5.442,5.442,0,0,0,.38-1.33Z" transform="translate(-235 -81)" fill="#b5b5b5"/></g><path d="M249.19,108.481h-1.9a.925.925,0,0,1-.95-.76l-.76-3.419c-.095,0-.095,0-.19-.095l-2.279,2.564a1.01,1.01,0,0,1-1.14.19l-1.615-.95a1.028,1.028,0,0,1-.475-1.14l1.045-3.324a.093.093,0,0,1-.095-.095l-3.324,1.045a1,1,0,0,1-1.14-.475l-.95-1.615a.879.879,0,0,1,.19-1.14l2.564-2.279c0-.095,0-.095-.095-.19l-3.419-.76a.925.925,0,0,1-.76-.95v-1.9a.925.925,0,0,1,.76-.95l3.419-.76c0-.095,0-.095.095-.19l-2.564-2.279a.879.879,0,0,1-.19-1.14l.95-1.615a1.028,1.028,0,0,1,1.14-.475l3.324,1.045a.093.093,0,0,1,.095-.095l-1.045-3.324a1,1,0,0,1,.475-1.14l1.615-.95a.879.879,0,0,1,1.14.19l2.279,2.564c.095,0,.095,0,.19-.095l.76-3.419a.925.925,0,0,1,.95-.76h1.9a.925.925,0,0,1,.95.76l.76,3.419c.095,0,.095,0,.19.095l2.279-2.564a1.01,1.01,0,0,1,1.14-.19l1.615.95a1.028,1.028,0,0,1,.475,1.14l-1.045,3.324a.093.093,0,0,1,.095.095l3.324-1.045a1,1,0,0,1,1.14.475l.95,1.615a.879.879,0,0,1-.19,1.14l-2.564,2.279c0,.095,0,.095.095.19l3.419.76a.925.925,0,0,1,.76.95v1.9a.925.925,0,0,1-.76.95l-3.419.76c0,.095,0,.095-.095.19l2.564,2.279a.879.879,0,0,1,.19,1.14l-.95,1.615a1.028,1.028,0,0,1-1.14.475l-3.324-1.045c0,.095-.095.095-.095.19l1.045,3.324a1,1,0,0,1-.475,1.14l-1.615.95a.879.879,0,0,1-1.14-.19L251.09,104.3c-.1,0-.1,0-.19.095l-.76,3.419A.943.943,0,0,1,249.19,108.481Zm-1.14-1.9h.38l.665-3.229a1.031,1.031,0,0,1,.76-.76l1.14-.285a1.072,1.072,0,0,1,1.045.285l2.184,2.469.285-.19-1.045-3.134a1.072,1.072,0,0,1,.285-1.045l.855-.855a1.072,1.072,0,0,1,1.045-.285l3.134,1.045.19-.285L256.5,98.13a1.072,1.072,0,0,1-.285-1.045,5.007,5.007,0,0,0,.285-1.14,1.031,1.031,0,0,1,.76-.76l3.229-.665v-.38l-3.229-.665a1.031,1.031,0,0,1-.76-.76l-.285-1.14a1.072,1.072,0,0,1,.285-1.045l2.469-2.184-.19-.285-3.134,1.045a1.072,1.072,0,0,1-1.045-.285l-.855-.855a1.072,1.072,0,0,1-.285-1.045l1.045-3.134-.285-.19-2.184,2.469a1.072,1.072,0,0,1-1.045.285,5.009,5.009,0,0,0-1.14-.285,1.031,1.031,0,0,1-.76-.76l-.665-3.229h-.38l-.665,3.229a1.031,1.031,0,0,1-.76.76l-1.14.285a1.072,1.072,0,0,1-1.045-.285L242.257,83.6l-.285.19,1.045,3.134a1.072,1.072,0,0,1-.285,1.045l-.855.855a1.072,1.072,0,0,1-1.045.285L237.7,88.063l-.19.285,2.469,2.184a1.072,1.072,0,0,1,.285,1.045,5.009,5.009,0,0,0-.285,1.14,1.031,1.031,0,0,1-.76.76l-3.229.665v.38l3.229.665a1.031,1.031,0,0,1,.76.76l.285,1.14a1.072,1.072,0,0,1-.285,1.045l-2.469,2.184.19.285,3.134-1.045a1.072,1.072,0,0,1,1.045.285l.855.855a1.072,1.072,0,0,1,.285,1.045l-1.045,3.134.285.19,2.184-2.469a1.072,1.072,0,0,1,1.045-.285,5.009,5.009,0,0,0,1.14.285,1.031,1.031,0,0,1,.76.76Z" transform="translate(-233.9 -79.8)" fill="#020210"/><g transform="translate(9.592 9.687)"><path d="M252.6,94.8a3.8,3.8,0,1,1-3.8-3.8A3.81,3.81,0,0,1,252.6,94.8Z" transform="translate(-244.05 -90.05)" fill="#fff"/><path d="M248.749,99.5a4.749,4.749,0,1,1,4.749-4.749A4.7,4.7,0,0,1,248.749,99.5Zm0-7.6a2.849,2.849,0,1,0,2.849,2.849A2.8,2.8,0,0,0,248.749,91.9Z" transform="translate(-244 -90)" fill="#020210"/></g></g><g transform="translate(503.351 47.486)"><g transform="translate(0.95 12.346)"><rect width="3.799" height="7.598" fill="#b5b5b5"/></g><g transform="translate(8.547 6.648)"><rect width="3.799" height="13.296" fill="#ff4a63"/></g><g transform="translate(16.145 0.95)"><rect width="3.799" height="18.994" fill="#35c9cb"/></g><g transform="translate(0 22.793)"><path d="M549.944,75.9H530.95a.95.95,0,1,1,0-1.9h18.994a.95.95,0,0,1,0,1.9Z" transform="translate(-530 -74)" fill="#020210"/></g><g transform="translate(0 11.397)"><path d="M534.749,71.5h-3.8a.9.9,0,0,1-.95-.95v-7.6a.9.9,0,0,1,.95-.95h3.8a.9.9,0,0,1,.95.95v7.6A.9.9,0,0,1,534.749,71.5ZM531.9,69.6h1.9V63.9h-1.9Z" transform="translate(-530 -62)" fill="#020210"/></g><g transform="translate(7.598 5.698)"><path d="M542.749,71.2h-3.8a.9.9,0,0,1-.95-.95V56.95a.9.9,0,0,1,.95-.95h3.8a.9.9,0,0,1,.95.95v13.3A.9.9,0,0,1,542.749,71.2ZM539.9,69.3h1.9V57.9h-1.9Z" transform="translate(-538 -56)" fill="#020210"/></g><g transform="translate(15.195)"><path d="M550.749,70.894h-3.8a.9.9,0,0,1-.95-.95V50.95a.9.9,0,0,1,.95-.95h3.8a.9.9,0,0,1,.95.95V69.944A.9.9,0,0,1,550.749,70.894Zm-2.849-1.9h1.9V51.9h-1.9Z" transform="translate(-546 -50)" fill="#020210"/></g></g><g transform="translate(174.748 37.989)"><g transform="translate(0.95 0.95)"><path d="M219.19,61.894a1.905,1.905,0,0,1-1.9,1.9H186.9a1.905,1.905,0,0,1-1.9-1.9V42.9a1.905,1.905,0,0,1,1.9-1.9H217.29a1.905,1.905,0,0,1,1.9,1.9Z" transform="translate(-185 -41)" fill="#52c695"/></g><g transform="translate(0.95 6.648)"><rect width="34.19" height="5.698" fill="#4c4c4c"/></g><path d="M217.24,64.693H186.849A2.8,2.8,0,0,1,184,61.844V42.849A2.8,2.8,0,0,1,186.849,40H217.24a2.8,2.8,0,0,1,2.849,2.849V61.844A2.8,2.8,0,0,1,217.24,64.693ZM186.849,41.9a.9.9,0,0,0-.95.95V61.844a.9.9,0,0,0,.95.95H217.24a.9.9,0,0,0,.95-.95V42.849a.9.9,0,0,0-.95-.95Z" transform="translate(-184 -40)"/><g transform="translate(0 5.698)"><g transform="translate(0 5.698)"><path d="M219.14,53.9H184.95a.95.95,0,1,1,0-1.9h34.19a.95.95,0,0,1,0,1.9Z" transform="translate(-184 -52)"/></g><path d="M219.14,47.9H184.95a.95.95,0,1,1,0-1.9h34.19a.95.95,0,0,1,0,1.9Z" transform="translate(-184 -46)"/><g transform="translate(3.799 11.397)"><path d="M204.145,59.9h-15.2a.95.95,0,0,1,0-1.9h15.2a.95.95,0,1,1,0,1.9Z" transform="translate(-188 -58)"/></g><g transform="translate(26.592 11.397)"><path d="M216.749,59.9h-3.8a.95.95,0,0,1,0-1.9h3.8a.95.95,0,0,1,0,1.9Z" transform="translate(-212 -58)"/></g></g></g><g transform="translate(191.843 64.581)"><path d="M202,76.547a.9.9,0,0,1,.95-.95h0a.952.952,0,0,1,.95.95h0a1.021,1.021,0,0,1-.95.95h0A.952.952,0,0,1,202,76.547Zm0-3.8a.9.9,0,0,1,.95-.95h0a.952.952,0,0,1,.95.95h0a1.021,1.021,0,0,1-.95.95h0A.952.952,0,0,1,202,72.749Zm0-3.8a.9.9,0,0,1,.95-.95h0a.952.952,0,0,1,.95.95h0a1.021,1.021,0,0,1-.95.95h0A.952.952,0,0,1,202,68.95Z" transform="translate(-202 -68)"/></g><g transform="translate(56.983 34.19)"><g transform="translate(0.95 0.95)"><path d="M61,37V55.994H76.2l3.8,3.8v-3.8h7.6V37Z" transform="translate(-61 -37)" fill="#ff4a63"/></g><g transform="translate(7.598 7.598)"><path d="M80.346,45.9H68.95a.95.95,0,1,1,0-1.9h11.4a.95.95,0,1,1,0,1.9Z" transform="translate(-68 -44)"/></g><g transform="translate(7.598 11.397)"><path d="M80.346,49.9H68.95a.95.95,0,1,1,0-1.9h11.4a.95.95,0,1,1,0,1.9Z" transform="translate(-68 -48)"/></g><path d="M79.944,60.693a.862.862,0,0,1-.665-.285l-3.514-3.514H60.95a.9.9,0,0,1-.95-.95V36.95a.9.9,0,0,1,.95-.95H87.542a.9.9,0,0,1,.95.95V55.944a.9.9,0,0,1-.95.95H80.894v2.849a.831.831,0,0,1-.57.855A.571.571,0,0,1,79.944,60.693ZM61.9,54.994H76.145a.862.862,0,0,1,.665.285l2.184,2.184v-1.52a.9.9,0,0,1,.95-.95h6.648V37.9H61.9Z" transform="translate(-60 -36)"/></g><g transform="translate(75.977 60.782)"><path d="M80,72.547a.9.9,0,0,1,.95-.95h0a.952.952,0,0,1,.95.95h0a1.021,1.021,0,0,1-.95.95h0A.952.952,0,0,1,80,72.547Zm0-3.8a.9.9,0,0,1,.95-.95h0a.952.952,0,0,1,.95.95h0a1.021,1.021,0,0,1-.95.95h0A.952.952,0,0,1,80,68.749Zm0-3.8a.9.9,0,0,1,.95-.95h0a.952.952,0,0,1,.95.95h0a1.021,1.021,0,0,1-.95.95h0A.952.952,0,0,1,80,64.95Z" transform="translate(-80 -64)"/></g><g transform="translate(91.173 26.592)"><path d="M96,70.737a.9.9,0,0,1,.95-.95h0a.952.952,0,0,1,.95.95h0a1.021,1.021,0,0,1-.95.95h0A.952.952,0,0,1,96,70.737Zm0-3.8a.9.9,0,0,1,.95-.95h0a.952.952,0,0,1,.95.95h0a1.021,1.021,0,0,1-.95.95h0A.952.952,0,0,1,96,66.938Zm0-3.8a.9.9,0,0,1,.95-.95h0a.952.952,0,0,1,.95.95h0a1.021,1.021,0,0,1-.95.95h0A.952.952,0,0,1,96,63.14Zm0-3.8a.9.9,0,0,1,.95-.95h0a.952.952,0,0,1,.95.95h0a1.021,1.021,0,0,1-.95.95h0A.952.952,0,0,1,96,59.341Zm0-3.8a.9.9,0,0,1,.95-.95h0a.952.952,0,0,1,.95.95h0a1.021,1.021,0,0,1-.95.95h0A.952.952,0,0,1,96,55.542Zm0-3.8a.9.9,0,0,1,.95-.95h0a.952.952,0,0,1,.95.95h0a1.021,1.021,0,0,1-.95.95h0A.952.952,0,0,1,96,51.743Zm0-3.8a.9.9,0,0,1,.95-.95h0a.952.952,0,0,1,.95.95h0a1.021,1.021,0,0,1-.95.95h0A.952.952,0,0,1,96,47.944Zm0-3.8a.9.9,0,0,1,.95-.95h0a.952.952,0,0,1,.95.95h0a1.021,1.021,0,0,1-.95.95h0A.952.952,0,0,1,96,44.145Zm0-3.8a.9.9,0,0,1,.95-.95h0a.952.952,0,0,1,.95.95h0a1.021,1.021,0,0,1-.95.95h0A.952.952,0,0,1,96,40.346Zm0-3.8a.9.9,0,0,1,.95-.95h0a.952.952,0,0,1,.95.95h0a1.021,1.021,0,0,1-.95.95h0A.952.952,0,0,1,96,36.547Zm0-3.8a.9.9,0,0,1,.95-.95h0a.952.952,0,0,1,.95.95h0a1.021,1.021,0,0,1-.95.95h0A.952.952,0,0,1,96,32.749Zm0-3.8a.9.9,0,0,1,.95-.95h0a.952.952,0,0,1,.95.95h0a1.021,1.021,0,0,1-.95.95h0A.952.952,0,0,1,96,28.95Z" transform="translate(-96 -28)"/></g><g transform="translate(474.859 30.391)"><path d="M500,82.335a.952.952,0,0,1,.95-.95h0a.952.952,0,0,1,.95.95h0a1.021,1.021,0,0,1-.95.95h0A1.021,1.021,0,0,1,500,82.335Zm0-3.8a.952.952,0,0,1,.95-.95h0a.952.952,0,0,1,.95.95h0a1.021,1.021,0,0,1-.95.95h0A1.021,1.021,0,0,1,500,78.536Zm0-3.8a.952.952,0,0,1,.95-.95h0a.952.952,0,0,1,.95.95h0a1.021,1.021,0,0,1-.95.95h0A1.021,1.021,0,0,1,500,74.737Zm0-3.8a.952.952,0,0,1,.95-.95h0a.952.952,0,0,1,.95.95h0a1.021,1.021,0,0,1-.95.95h0A1.021,1.021,0,0,1,500,70.938Zm0-3.8a.952.952,0,0,1,.95-.95h0a.952.952,0,0,1,.95.95h0a1.021,1.021,0,0,1-.95.95h0A1.021,1.021,0,0,1,500,67.14Zm0-3.8a.952.952,0,0,1,.95-.95h0a.952.952,0,0,1,.95.95h0a1.021,1.021,0,0,1-.95.95h0A1.021,1.021,0,0,1,500,63.341Zm0-3.8a.952.952,0,0,1,.95-.95h0a.952.952,0,0,1,.95.95h0a1.021,1.021,0,0,1-.95.95h0A1.021,1.021,0,0,1,500,59.542Zm0-3.8a.952.952,0,0,1,.95-.95h0a.952.952,0,0,1,.95.95h0a1.021,1.021,0,0,1-.95.95h0A1.021,1.021,0,0,1,500,55.743Zm0-3.8a.952.952,0,0,1,.95-.95h0a.952.952,0,0,1,.95.95h0a1.021,1.021,0,0,1-.95.95h0A1.021,1.021,0,0,1,500,51.944Zm0-3.8a.952.952,0,0,1,.95-.95h0a.952.952,0,0,1,.95.95h0a1.021,1.021,0,0,1-.95.95h0A1.021,1.021,0,0,1,500,48.145Zm0-3.8a.952.952,0,0,1,.95-.95h0a.952.952,0,0,1,.95.95h0a1.021,1.021,0,0,1-.95.95h0A1.021,1.021,0,0,1,500,44.346Zm0-3.8a.952.952,0,0,1,.95-.95h0a.952.952,0,0,1,.95.95h0a1.021,1.021,0,0,1-.95.95h0A1.021,1.021,0,0,1,500,40.547Zm0-3.8a.952.952,0,0,1,.95-.95h0a.952.952,0,0,1,.95.95h0a1.021,1.021,0,0,1-.95.95h0A1.021,1.021,0,0,1,500,36.749Zm0-3.8a.952.952,0,0,1,.95-.95h0a.952.952,0,0,1,.95.95h0a1.021,1.021,0,0,1-.95.95h0A1.021,1.021,0,0,1,500,32.95Z" transform="translate(-500 -32)"/></g></g></g></svg>