<svg xmlns="http://www.w3.org/2000/svg" viewBox="0 0 152.372 167.102"><defs><style>.a,.b,.e{fill:none;stroke:#282d33;stroke-width:4px;}.a{stroke-dasharray:4;}.c{fill:#1366ff;}.d{fill:#fff;}.e{stroke-miterlimit:10;}</style></defs><g transform="translate(2 1.414)"><path class="a" d="M87.3,126.866h52.457a14.952,14.952,0,0,0,14.933-14.933h0A14.952,14.952,0,0,0,139.757,97H123.962" transform="translate(-6.317 -17.26)"/><path class="a" d="M40.915,128.6H17.654A14.421,14.421,0,0,0,3.2,142.959h0a14.36,14.36,0,0,0,14.454,14.359h6.509" transform="translate(-2.051 -18.716)"/><g transform="translate(24.845 125.111)"><path class="b" d="M28.2,181.837a1.309,1.309,0,0,0,1.34,1.34H104.2a1.309,1.309,0,0,0,1.34-1.34v-35.9a1.309,1.309,0,0,0-1.34-1.34H29.54a1.309,1.309,0,0,0-1.34,1.34v35.9Z" transform="translate(-28.2 -144.6)"/><g transform="translate(5.839 6.988)"><line class="b" x1="5.935" transform="translate(59.923)"/><line class="b" x1="5.935" transform="translate(51.308)"/><line class="b" x1="5.935" transform="translate(42.789)"/><line class="b" x1="5.935" transform="translate(34.173)"/><line class="b" x1="5.935" transform="translate(25.654)"/><line class="b" x1="5.839" transform="translate(17.135)"/><line class="b" x1="5.935" transform="translate(8.519)"/><line class="b" x1="5.839"/><g transform="translate(0 7.849)"><line class="b" x1="5.935" transform="translate(59.923)"/><line class="b" x1="5.935" transform="translate(51.308)"/><line class="b" x1="5.935" transform="translate(42.789)"/><line class="b" x1="5.935" transform="translate(34.173)"/><line class="b" x1="5.935" transform="translate(25.654)"/><line class="b" x1="5.839" transform="translate(17.135)"/><line class="b" x1="5.935" transform="translate(8.519)"/><line class="b" x1="5.839"/></g><g transform="translate(0 15.794)"><line class="b" x1="5.935" transform="translate(59.923)"/><line class="b" x1="5.935" transform="translate(51.308)"/><line class="b" x1="5.935" transform="translate(42.789)"/><line class="b" x1="5.935" transform="translate(34.173)"/><line class="b" x1="5.935" transform="translate(25.654)"/><line class="b" x1="5.839" transform="translate(17.135)"/><line class="b" x1="5.935" transform="translate(8.519)"/><line class="b" x1="5.839"/></g><g transform="translate(0 23.74)"><line class="b" x1="5.935" transform="translate(59.923)"/><line class="b" x1="5.935" transform="translate(51.308)"/><line class="b" x1="31.685" transform="translate(17.039)"/><line class="b" x1="5.935" transform="translate(8.519)"/><line class="b" x1="5.839"/></g></g></g><path class="b" d="M21.815,29.5H5.255A3.228,3.228,0,0,0,2,32.755v69.4H120.7v-69.4a3.228,3.228,0,0,0-3.255-3.255h-15.22" transform="translate(-2 -14.088)"/><rect class="c" width="103.765" height="57.53" transform="translate(7.658 22.974)"/><path class="b" d="M2,105.3v10.051a4.394,4.394,0,0,0,3.925,4.02h111.71c1.914,0,3.063-2.01,3.063-3.925V105.3" transform="translate(-2 -17.61)"/><g transform="translate(40.534 101.809)"><path class="b" d="M50.056,120.1c-.191,2.489.191,8.041-.287,10.721-.479,2.489-.862,2.585-2.106,3.255-.766.383-2.01.957-3.063,1.436h0" transform="translate(-44.6 -120.1)"/><path class="b" d="M83.156,135.516c-1.053-.479-2.3-1.053-3.063-1.436-1.34-.766-1.532-.766-2.106-3.255-.574-2.68-.1-8.137-.287-10.625" transform="translate(-46.015 -120.104)"/></g><line class="b" x2="43.842" transform="translate(37.19 117.016)"/><path class="d" d="M6,6.381l5.969,3.392,5.261-2.99,11.261,6.4V26.84l-11.261,6.4L5.968,26.84V19.977l11.262,6.4,5.3-3.011V16.571l-5.3,3.011L0,9.791v20.44l17.23,9.792,17.23-9.792V9.791L17.23,0Z" transform="translate(41.872 31.467)"/><path class="e" d="M-2.5,7.027,6.69,16.046,21.335,1.4" transform="translate(72.1 -1.4)"/><path class="e" d="M-.966,4.394,4.408,9.746,12.754,1.4" transform="translate(48.242 7.772)"/></g></svg>