<svg xmlns="http://www.w3.org/2000/svg" width="64" height="64" viewBox="0 0 64 64"><g transform="translate(-56 -462)"><circle cx="21" cy="21" r="21" transform="translate(78 462)" fill="#ffec40"/><rect width="2" height="2" transform="translate(68 478)" fill="#363f40"/><rect width="2" height="2" transform="translate(72 478)" fill="#363f40"/><rect width="2" height="2" transform="translate(76 478)" fill="#363f40"/><path d="M120,514H60a4,4,0,0,1-4-4V462H75.414l4,4H116v4h-2v-2H78.586l-4-4H58v46a2,2,0,0,0,4,0V472h58Zm-56.537-2H118V474H64v36A3.97,3.97,0,0,1,63.463,512Z" fill="#363f40"/><path d="M93.1,506.875l-.132-1.109a1.984,1.984,0,0,0-3.944,0l-.132,1.109-1.088-.254a13.87,13.87,0,0,1-4.155-1.719l-1.042-.644.84-.892a1.993,1.993,0,0,0-2.817-2.817l-.892.84-.644-1.041a13.875,13.875,0,0,1-1.719-4.156l-.255-1.089,1.111-.131a1.984,1.984,0,0,0,0-3.944l-1.111-.131.255-1.089a13.875,13.875,0,0,1,1.719-4.156l.644-1.041.892.84a1.993,1.993,0,0,0,2.817-2.817l-.84-.892,1.042-.644a13.87,13.87,0,0,1,4.155-1.719l1.088-.254.132,1.109a1.984,1.984,0,0,0,3.944,0l.132-1.109,1.088.254a13.87,13.87,0,0,1,4.155,1.719l1.042.644-.84.892a1.993,1.993,0,0,0,2.817,2.817l.892-.84.644,1.041a13.875,13.875,0,0,1,1.719,4.156l.254,1.089-1.11.131a1.984,1.984,0,0,0,0,3.944l1.11.131-.254,1.089a13.875,13.875,0,0,1-1.719,4.156l-.644,1.041-.892-.84a1.993,1.993,0,0,0-2.817,2.817l.84.892-1.042.644a13.87,13.87,0,0,1-4.155,1.719ZM91,502a3.989,3.989,0,0,1,3.661,2.418,11.978,11.978,0,0,0,1.727-.708A3.95,3.95,0,0,1,96,502a4,4,0,0,1,4-4,3.95,3.95,0,0,1,1.71.388,11.833,11.833,0,0,0,.708-1.728,3.979,3.979,0,0,1,0-7.32,11.833,11.833,0,0,0-.708-1.728A3.95,3.95,0,0,1,100,488a4,4,0,0,1-4-4,3.95,3.95,0,0,1,.388-1.71,11.978,11.978,0,0,0-1.727-.708,3.98,3.98,0,0,1-7.322,0,11.978,11.978,0,0,0-1.727.708A3.95,3.95,0,0,1,86,484a4,4,0,0,1-4,4,3.95,3.95,0,0,1-1.71-.388,11.723,11.723,0,0,0-.708,1.728,3.979,3.979,0,0,1,0,7.32,11.723,11.723,0,0,0,.708,1.728A3.95,3.95,0,0,1,82,498a4,4,0,0,1,4,4,3.95,3.95,0,0,1-.388,1.71,11.978,11.978,0,0,0,1.727.708A3.989,3.989,0,0,1,91,502Z" fill="#363f40"/><path d="M91,498a5,5,0,1,1,5-5A5.006,5.006,0,0,1,91,498Zm0-8a3,3,0,1,0,3,3A3,3,0,0,0,91,490Z" fill="#363f40"/><path d="M119,526H100a1,1,0,0,1-.555-.168l-2.318-1.545-1.42,1.42A1,1,0,0,1,95,526H92a1,1,0,0,1-1-1v-8a1,1,0,0,1,1-1h3a1,1,0,0,1,.707.293l1.42,1.42,2.318-1.545A1,1,0,0,1,100,516h19a1,1,0,0,1,1,1v8A1,1,0,0,1,119,526Zm-18.7-2H118v-6H100.3l-2.748,1.832a1,1,0,0,1-1.262-.125L94.586,518H93v6h1.586l1.707-1.707a1,1,0,0,1,1.262-.125Z" fill="#363f40"/><rect width="27" height="2" transform="translate(65 520)" fill="#363f40"/><rect width="2" height="8" transform="translate(114 517)" fill="#363f40"/><path d="M65,524H57a1,1,0,0,1-1-1v-4a1,1,0,0,1,1-1h8a1,1,0,0,1,1,1v4A1,1,0,0,1,65,524Zm-7-2h6v-2H58Z" fill="#363f40"/><rect width="2" height="2" transform="translate(102 520)" fill="#363f40"/><rect width="2" height="2" transform="translate(106 520)" fill="#363f40"/><rect width="2" height="2" transform="translate(110 520)" fill="#363f40"/></g></svg>