<svg xmlns="http://www.w3.org/2000/svg" xmlns:xlink="http://www.w3.org/1999/xlink" width="246.59" height="187.388" viewBox="0 0 246.59 187.388"><defs><linearGradient id="a" y1="0.5" x2="1" y2="0.5" gradientUnits="objectBoundingBox"><stop offset="0" stop-color="#99d9d4"/><stop offset="0.316" stop-color="#78d1d4"/><stop offset="0.767" stop-color="#4fc8d4"/><stop offset="1" stop-color="#40c5d4"/></linearGradient><linearGradient id="b" x1="14.901" y1="-0.18" x2="15.901" y2="-0.18" gradientUnits="objectBoundingBox"><stop offset="0" stop-color="#ffcb5d"/><stop offset="0.602" stop-color="#ffd47c"/><stop offset="1" stop-color="#ffda8c"/></linearGradient><linearGradient id="c" x1="0.5" y1="-0.002" x2="0.5" y2="1.077" xlink:href="#a"/><linearGradient id="d" x1="0.667" y1="-0.057" x2="0.242" y2="0.624" xlink:href="#a"/><linearGradient id="e" x1="0.5" y1="1.03" x2="0.5" y2="-0.039" xlink:href="#b"/><linearGradient id="f" x1="0.872" y1="-0.368" x2="0.18" y2="1.087" xlink:href="#a"/><linearGradient id="g" x1="0.67" y1="0.057" x2="-0.023" y2="1.512" xlink:href="#a"/></defs><g transform="translate(659.16 -30.861)"><path d="M-606.273,359.531l-6.116-10.594-6.116-10.593h24.463l-6.115,10.593Z" transform="translate(-5.463 -151.02)" fill="#ffbabb"/><path d="M-321.146,240.262l-11.333-19.633L-343.814,201h45.336l-11.332,19.631Z" transform="translate(-140.377 -83.563)" fill="url(#a)"/><path d="M-595.155,342.759l-11.333-19.634-11.335-19.631h45.336l-11.333,19.631Z" transform="translate(-5.798 -133.904)" fill="url(#b)"/><path d="M-485.345,253.858l27.87-27.87-27.87-27.87a39.413,39.413,0,0,0-55.74,0,39.413,39.413,0,0,0,0,55.739A39.413,39.413,0,0,0-485.345,253.858Z" transform="translate(-37.818 -76.478)" fill="url(#c)"/><path d="M-273.65,87.386l9.731,16.856,9.732-16.856v0a11.176,11.176,0,0,0,1.506-5.617A11.236,11.236,0,0,0-263.918,70.53h-19.464Z" transform="translate(-170.058 -19.483)" fill="url(#d)"/><path d="M-497.834,158.815l16.879,29.236,16.879-29.236,0-.005a19.374,19.374,0,0,0,2.612-9.742,19.487,19.487,0,0,0-19.487-19.487h-33.758Z" transform="translate(-56.44 -48.486)" fill="#c09fee"/><path d="M-395.808,110.075l-20.015-34.666-20.015,34.666,0,.007a22.989,22.989,0,0,0-3.1,11.552,23.11,23.11,0,0,0,23.109,23.109h40.031Z" transform="translate(-93.659 -21.88)" fill="url(#e)"/><g transform="translate(-576.582 84.285)"><path d="M-524.4,136.15a.981.981,0,0,0-.98.982.981.981,0,0,0,.983.977.977.977,0,0,0,.976-.981A.978.978,0,0,0-524.4,136.15Z" transform="translate(525.383 -135.998)" fill="#fff"/><path d="M-516.259,136.134a.982.982,0,0,0-.979.982.981.981,0,0,0,.983.976.978.978,0,0,0,.976-.98A.979.979,0,0,0-516.259,136.134Z" transform="translate(521.383 -135.99)" fill="#fff"/><path d="M-508.115,136.119a.981.981,0,0,0-.977.982.979.979,0,0,0,.982.976.978.978,0,0,0,.978-.98A.98.98,0,0,0-508.115,136.119Z" transform="translate(517.382 -135.983)" fill="#fff"/><path d="M-499.97,136.1a.978.978,0,0,0-.978.981.978.978,0,0,0,.982.977.979.979,0,0,0,.976-.981A.979.979,0,0,0-499.97,136.1Z" transform="translate(513.382 -135.975)" fill="#fff"/><path d="M-491.828,136.087a.978.978,0,0,0-.977.982.977.977,0,0,0,.98.977.979.979,0,0,0,.978-.981A.979.979,0,0,0-491.828,136.087Z" transform="translate(509.382 -135.967)" fill="#fff"/><path d="M-483.685,136.071a.979.979,0,0,0-.977.983.978.978,0,0,0,.981.976.98.98,0,0,0,.979-.98A.981.981,0,0,0-483.685,136.071Z" transform="translate(505.383 -135.959)" fill="#fff"/><path d="M-475.542,136.057a.979.979,0,0,0-.979.981.98.98,0,0,0,.982.977.981.981,0,0,0,.979-.981A.979.979,0,0,0-475.542,136.057Z" transform="translate(501.384 -135.952)" fill="#fff"/><path d="M-467.4,136.041a.98.98,0,0,0-.979.981.98.98,0,0,0,.983.977.978.978,0,0,0,.975-.981A.977.977,0,0,0-467.4,136.041Z" transform="translate(497.386 -135.944)" fill="#fff"/><path d="M-459.255,136.024a.979.979,0,0,0-.977.982.979.979,0,0,0,.981.977.977.977,0,0,0,.976-.981A.978.978,0,0,0-459.255,136.024Z" transform="translate(493.384 -135.936)" fill="#fff"/><path d="M-451.113,136.009a.979.979,0,0,0-.975.982.978.978,0,0,0,.98.976.977.977,0,0,0,.978-.98A.977.977,0,0,0-451.113,136.009Z" transform="translate(489.385 -135.929)" fill="#fff"/><path d="M-442.971,135.993a.979.979,0,0,0-.978.982.979.979,0,0,0,.982.976.977.977,0,0,0,.976-.98A.977.977,0,0,0-442.971,135.993Z" transform="translate(485.387 -135.921)" fill="#fff"/><path d="M-434.829,135.977a.981.981,0,0,0-.977.982.981.981,0,0,0,.981.977.98.98,0,0,0,.978-.981A.98.98,0,0,0-434.829,135.977Z" transform="translate(481.387 -135.913)" fill="#fff"/><path d="M-426.683,135.962a.978.978,0,0,0-.977.982.979.979,0,0,0,.981.976.977.977,0,0,0,.977-.981A.977.977,0,0,0-426.683,135.962Z" transform="translate(477.386 -135.906)" fill="#fff"/><path d="M-418.538,135.946a.976.976,0,0,0-.973.981.976.976,0,0,0,.978.977.977.977,0,0,0,.977-.98A.978.978,0,0,0-418.538,135.946Z" transform="translate(473.384 -135.898)" fill="#fff"/><path d="M-410.395,135.93a.977.977,0,0,0-.975.982.977.977,0,0,0,.979.976.976.976,0,0,0,.974-.98A.976.976,0,0,0-410.395,135.93Z" transform="translate(469.386 -135.89)" fill="#fff"/><path d="M-402.253,135.914a.981.981,0,0,0-.977.982.98.98,0,0,0,.982.976.978.978,0,0,0,.976-.981A.979.979,0,0,0-402.253,135.914Z" transform="translate(465.388 -135.882)" fill="#fff"/><path d="M-394.112,135.9a.978.978,0,0,0-.977.981.978.978,0,0,0,.981.977.978.978,0,0,0,.979-.981A.978.978,0,0,0-394.112,135.9Z" transform="translate(461.389 -135.875)" fill="#fff"/><path d="M-385.967,135.883a.979.979,0,0,0-.978.982.979.979,0,0,0,.982.976.978.978,0,0,0,.977-.981A.978.978,0,0,0-385.967,135.883Z" transform="translate(457.389 -135.867)" fill="#fff"/><path d="M-377.823,135.867a.978.978,0,0,0-.977.982.979.979,0,0,0,.98.977.98.98,0,0,0,.979-.981A.981.981,0,0,0-377.823,135.867Z" transform="translate(453.389 -135.859)" fill="#fff"/><path d="M-369.675,137.81a.979.979,0,0,0,.976-.981.979.979,0,0,0-.979-.978.978.978,0,0,0-.978.982A.978.978,0,0,0-369.675,137.81Z" transform="translate(449.389 -135.851)" fill="#fff"/><path d="M-522.909,144.268a.977.977,0,0,0-.979-.977.977.977,0,0,0-.461.117l.982,1.691A.973.973,0,0,0-522.909,144.268Z" transform="translate(524.876 -139.505)" fill="#fff"/><path d="M-516.245,143.275a.981.981,0,0,0-.979.981.98.98,0,0,0,.983.977.978.978,0,0,0,.976-.981A.979.979,0,0,0-516.245,143.275Z" transform="translate(521.376 -139.497)" fill="#fff"/><path d="M-508.1,143.259a.981.981,0,0,0-.979.981.98.98,0,0,0,.982.977.979.979,0,0,0,.978-.981A.98.98,0,0,0-508.1,143.259Z" transform="translate(517.376 -139.489)" fill="#fff"/><path d="M-499.956,143.243a.979.979,0,0,0-.978.981.978.978,0,0,0,.982.977.979.979,0,0,0,.977-.981A.981.981,0,0,0-499.956,143.243Z" transform="translate(513.375 -139.482)" fill="#fff"/><path d="M-491.814,143.227a.979.979,0,0,0-.976.982.977.977,0,0,0,.98.977.979.979,0,0,0,.978-.981A.98.98,0,0,0-491.814,143.227Z" transform="translate(509.375 -139.474)" fill="#fff"/><path d="M-483.671,143.212a.979.979,0,0,0-.978.981.978.978,0,0,0,.982.977.98.98,0,0,0,.978-.981A.979.979,0,0,0-483.671,143.212Z" transform="translate(505.377 -139.466)" fill="#fff"/><path d="M-475.529,143.2a.98.98,0,0,0-.979.981.981.981,0,0,0,.983.978.981.981,0,0,0,.979-.981A.981.981,0,0,0-475.529,143.2Z" transform="translate(501.378 -139.458)" fill="#fff"/><path d="M-467.387,143.181a.979.979,0,0,0-.979.981.98.98,0,0,0,.983.978.978.978,0,0,0,.976-.981A.977.977,0,0,0-467.387,143.181Z" transform="translate(497.379 -139.451)" fill="#fff"/><path d="M-459.241,143.165a.979.979,0,0,0-.976.981.979.979,0,0,0,.98.978.977.977,0,0,0,.976-.982A.977.977,0,0,0-459.241,143.165Z" transform="translate(493.377 -139.443)" fill="#fff"/><path d="M-451.1,143.148a.979.979,0,0,0-.975.982.978.978,0,0,0,.98.977.978.978,0,0,0,.978-.981A.978.978,0,0,0-451.1,143.148Z" transform="translate(489.378 -139.435)" fill="#fff"/><path d="M-442.957,143.133a.979.979,0,0,0-.977.981.979.979,0,0,0,.982.977.977.977,0,0,0,.977-.981A.978.978,0,0,0-442.957,143.133Z" transform="translate(485.38 -139.428)" fill="#fff"/><path d="M-434.815,143.117a.981.981,0,0,0-.977.981.981.981,0,0,0,.981.977.98.98,0,0,0,.979-.981A.981.981,0,0,0-434.815,143.117Z" transform="translate(481.38 -139.42)" fill="#fff"/><path d="M-426.669,143.1a.979.979,0,0,0-.977.981.978.978,0,0,0,.98.978.978.978,0,0,0,.977-.981A.978.978,0,0,0-426.669,143.1Z" transform="translate(477.38 -139.412)" fill="#fff"/><path d="M-418.524,143.085a.976.976,0,0,0-.973.982.976.976,0,0,0,.978.977.978.978,0,0,0,.976-.981A.978.978,0,0,0-418.524,143.085Z" transform="translate(473.377 -139.404)" fill="#fff"/><path d="M-410.38,143.07a.978.978,0,0,0-.975.981.977.977,0,0,0,.979.977.976.976,0,0,0,.974-.981A.976.976,0,0,0-410.38,143.07Z" transform="translate(469.379 -139.397)" fill="#fff"/><path d="M-402.239,143.054a.981.981,0,0,0-.978.981.98.98,0,0,0,.982.977.978.978,0,0,0,.976-.981A.979.979,0,0,0-402.239,143.054Z" transform="translate(465.381 -139.389)" fill="#fff"/><path d="M-394.1,143.039a.978.978,0,0,0-.977.981.979.979,0,0,0,.981.977.978.978,0,0,0,.979-.981A.979.979,0,0,0-394.1,143.039Z" transform="translate(461.382 -139.381)" fill="#fff"/><path d="M-385.953,143.023a.979.979,0,0,0-.978.981.979.979,0,0,0,.982.977.978.978,0,0,0,.976-.981A.978.978,0,0,0-385.953,143.023Z" transform="translate(457.382 -139.374)" fill="#fff"/><path d="M-377.81,143.007a.979.979,0,0,0-.976.981.978.978,0,0,0,.98.977.98.98,0,0,0,.979-.981A.981.981,0,0,0-377.81,143.007Z" transform="translate(453.382 -139.366)" fill="#fff"/><path d="M-369.665,142.992a.978.978,0,0,0-.978.981.974.974,0,0,0,.463.828l.975-1.7A.98.98,0,0,0-369.665,142.992Z" transform="translate(449.383 -139.358)" fill="#fff"/><path d="M-516.231,150.414a.981.981,0,0,0-.979.98.982.982,0,0,0,.983.979.979.979,0,0,0,.976-.982A.978.978,0,0,0-516.231,150.414Z" transform="translate(521.369 -143.004)" fill="#fff"/><path d="M-508.088,150.4a.981.981,0,0,0-.978.98.982.982,0,0,0,.982.979.98.98,0,0,0,.978-.982A.979.979,0,0,0-508.088,150.4Z" transform="translate(517.369 -142.996)" fill="#fff"/><path d="M-499.943,150.382a.978.978,0,0,0-.978.98.979.979,0,0,0,.982.978.98.98,0,0,0,.976-.982A.979.979,0,0,0-499.943,150.382Z" transform="translate(513.368 -142.988)" fill="#fff"/><path d="M-491.8,150.367a.977.977,0,0,0-.976.98.979.979,0,0,0,.98.979.98.98,0,0,0,.978-.982A.978.978,0,0,0-491.8,150.367Z" transform="translate(509.369 -142.981)" fill="#fff"/><path d="M-483.657,150.351a.979.979,0,0,0-.978.98.98.98,0,0,0,.982.979.981.981,0,0,0,.978-.982A.98.98,0,0,0-483.657,150.351Z" transform="translate(505.37 -142.973)" fill="#fff"/><path d="M-475.515,150.335a.98.98,0,0,0-.979.98.981.981,0,0,0,.983.979.981.981,0,0,0,.978-.982A.98.98,0,0,0-475.515,150.335Z" transform="translate(501.371 -142.965)" fill="#fff"/><path d="M-467.373,150.319a.981.981,0,0,0-.98.98.981.981,0,0,0,.984.979.978.978,0,0,0,.975-.982A.978.978,0,0,0-467.373,150.319Z" transform="translate(497.373 -142.957)" fill="#fff"/><path d="M-459.228,150.3a.979.979,0,0,0-.976.981.979.979,0,0,0,.98.978.978.978,0,0,0,.977-.982A.978.978,0,0,0-459.228,150.3Z" transform="translate(493.37 -142.949)" fill="#fff"/><path d="M-451.086,150.288a.978.978,0,0,0-.975.98.979.979,0,0,0,.979.979.979.979,0,0,0,.978-.982A.977.977,0,0,0-451.086,150.288Z" transform="translate(489.371 -142.942)" fill="#fff"/><path d="M-442.943,150.272a.98.98,0,0,0-.979.98.981.981,0,0,0,.982.979.978.978,0,0,0,.977-.982A.978.978,0,0,0-442.943,150.272Z" transform="translate(485.373 -142.934)" fill="#fff"/><path d="M-434.8,150.256a.981.981,0,0,0-.977.98.981.981,0,0,0,.981.978.982.982,0,0,0,.979-.982A.981.981,0,0,0-434.8,150.256Z" transform="translate(481.374 -142.926)" fill="#fff"/><path d="M-426.655,150.24a.979.979,0,0,0-.977.98.979.979,0,0,0,.98.978.979.979,0,0,0,.977-.982A.978.978,0,0,0-426.655,150.24Z" transform="translate(477.373 -142.918)" fill="#fff"/><path d="M-418.51,150.224a.976.976,0,0,0-.973.98.976.976,0,0,0,.977.978.979.979,0,0,0,.977-.982A.979.979,0,0,0-418.51,150.224Z" transform="translate(473.37 -142.91)" fill="#fff"/><path d="M-410.367,150.209a.977.977,0,0,0-.975.98.978.978,0,0,0,.979.978.978.978,0,0,0,.974-.982A.977.977,0,0,0-410.367,150.209Z" transform="translate(469.372 -142.903)" fill="#fff"/><path d="M-402.225,150.193a.98.98,0,0,0-.978.98.98.98,0,0,0,.982.978.979.979,0,0,0,.977-.982A.979.979,0,0,0-402.225,150.193Z" transform="translate(465.374 -142.895)" fill="#fff"/><path d="M-394.084,150.177a.978.978,0,0,0-.977.98.978.978,0,0,0,.981.979.979.979,0,0,0,.979-.982A.979.979,0,0,0-394.084,150.177Z" transform="translate(461.375 -142.887)" fill="#fff"/><path d="M-385.939,150.162a.978.978,0,0,0-.978.98.98.98,0,0,0,.982.979.979.979,0,0,0,.976-.982A.978.978,0,0,0-385.939,150.162Z" transform="translate(457.375 -142.88)" fill="#fff"/><path d="M-377.8,150.146a.978.978,0,0,0-.976.98.98.98,0,0,0,.98.979.982.982,0,0,0,.979-.983A.98.98,0,0,0-377.8,150.146Z" transform="translate(453.375 -142.872)" fill="#fff"/><path d="M-514.7,158.528a.979.979,0,0,0-.98-.978.966.966,0,0,0-.421.1l.98,1.687A.975.975,0,0,0-514.7,158.528Z" transform="translate(520.824 -146.508)" fill="#fff"/><path d="M-508.074,157.534a.982.982,0,0,0-.978.982.981.981,0,0,0,.982.977.98.98,0,0,0,.978-.981A.98.98,0,0,0-508.074,157.534Z" transform="translate(517.362 -146.501)" fill="#fff"/><path d="M-499.929,157.518a.981.981,0,0,0-.979.983.98.98,0,0,0,.983.978.98.98,0,0,0,.975-.982A.98.98,0,0,0-499.929,157.518Z" transform="translate(513.362 -146.493)" fill="#fff"/><path d="M-491.787,157.5a.978.978,0,0,0-.976.982.978.978,0,0,0,.98.977.98.98,0,0,0,.979-.981A.98.98,0,0,0-491.787,157.5Z" transform="translate(509.362 -146.485)" fill="#fff"/><path d="M-483.643,157.487a.979.979,0,0,0-.978.982.978.978,0,0,0,.982.977.98.98,0,0,0,.978-.981A.982.982,0,0,0-483.643,157.487Z" transform="translate(505.363 -146.477)" fill="#fff"/><path d="M-475.5,157.471a.981.981,0,0,0-.978.982.979.979,0,0,0,.982.978.981.981,0,0,0,.979-.981A.982.982,0,0,0-475.5,157.471Z" transform="translate(501.364 -146.47)" fill="#fff"/><path d="M-467.359,157.456a.981.981,0,0,0-.98.982.98.98,0,0,0,.983.977.978.978,0,0,0,.976-.981A.979.979,0,0,0-467.359,157.456Z" transform="translate(497.366 -146.462)" fill="#fff"/><path d="M-459.213,157.44a.979.979,0,0,0-.977.982.979.979,0,0,0,.98.978.979.979,0,0,0,.976-.982A.978.978,0,0,0-459.213,157.44Z" transform="translate(493.363 -146.454)" fill="#fff"/><path d="M-451.072,157.424a.979.979,0,0,0-.975.982.978.978,0,0,0,.979.977.978.978,0,0,0,.978-.981A.979.979,0,0,0-451.072,157.424Z" transform="translate(489.364 -146.447)" fill="#fff"/><path d="M-442.93,157.408a.981.981,0,0,0-.978.982.98.98,0,0,0,.982.978.977.977,0,0,0,.976-.981A.978.978,0,0,0-442.93,157.408Z" transform="translate(485.367 -146.439)" fill="#fff"/><path d="M-434.787,157.392a.983.983,0,0,0-.977.982.981.981,0,0,0,.981.977.98.98,0,0,0,.978-.981A.982.982,0,0,0-434.787,157.392Z" transform="translate(481.367 -146.431)" fill="#fff"/><path d="M-426.642,157.377a.979.979,0,0,0-.976.982.978.978,0,0,0,.98.977.978.978,0,0,0,.977-.981A.979.979,0,0,0-426.642,157.377Z" transform="translate(477.366 -146.423)" fill="#fff"/><path d="M-418.5,157.36a.978.978,0,0,0-.974.983.977.977,0,0,0,.977.978.979.979,0,0,0,.977-.981A.98.98,0,0,0-418.5,157.36Z" transform="translate(473.364 -146.415)" fill="#fff"/><path d="M-410.353,157.346a.978.978,0,0,0-.975.982.977.977,0,0,0,.979.978.977.977,0,0,0,.974-.981A.977.977,0,0,0-410.353,157.346Z" transform="translate(469.365 -146.408)" fill="#fff"/><path d="M-402.212,157.33a.981.981,0,0,0-.978.982.981.981,0,0,0,.982.977.98.98,0,0,0,.977-.981A.981.981,0,0,0-402.212,157.33Z" transform="translate(465.368 -146.4)" fill="#fff"/><path d="M-394.07,157.314a.979.979,0,0,0-.977.982.978.978,0,0,0,.981.978.979.979,0,0,0,.979-.981A.979.979,0,0,0-394.07,157.314Z" transform="translate(461.369 -146.393)" fill="#fff"/><path d="M-385.926,157.3a.98.98,0,0,0-.978.982.978.978,0,0,0,.981.977.978.978,0,0,0,.977-.981A.978.978,0,0,0-385.926,157.3Z" transform="translate(457.369 -146.385)" fill="#fff"/><path d="M-378.759,158.265a.982.982,0,0,0,.424.806l.975-1.692a.977.977,0,0,0-.423-.1A.979.979,0,0,0-378.759,158.265Z" transform="translate(453.369 -146.377)" fill="#fff"/><path d="M-508.06,164.673a.982.982,0,0,0-.978.982.98.98,0,0,0,.982.977.98.98,0,0,0,.978-.981A.981.981,0,0,0-508.06,164.673Z" transform="translate(517.355 -150.007)" fill="#fff"/><path d="M-499.915,164.658a.979.979,0,0,0-.978.982.978.978,0,0,0,.982.977.98.98,0,0,0,.976-.981A.981.981,0,0,0-499.915,164.658Z" transform="translate(513.355 -150)" fill="#fff"/><path d="M-491.773,164.642a.979.979,0,0,0-.976.982.978.978,0,0,0,.98.978.98.98,0,0,0,.979-.981A.98.98,0,0,0-491.773,164.642Z" transform="translate(509.355 -149.992)" fill="#fff"/><path d="M-483.629,164.626a.98.98,0,0,0-.977.982.978.978,0,0,0,.981.977.981.981,0,0,0,.978-.981A.982.982,0,0,0-483.629,164.626Z" transform="translate(505.356 -149.984)" fill="#fff"/><path d="M-475.487,164.61a.981.981,0,0,0-.978.982.979.979,0,0,0,.982.977.981.981,0,0,0,.979-.981A.982.982,0,0,0-475.487,164.61Z" transform="translate(501.357 -149.976)" fill="#fff"/><path d="M-467.345,164.594a.982.982,0,0,0-.98.982.981.981,0,0,0,.983.977.979.979,0,0,0,.976-.981A.98.98,0,0,0-467.345,164.594Z" transform="translate(497.359 -149.968)" fill="#fff"/><path d="M-459.2,164.579a.981.981,0,0,0-.977.982.979.979,0,0,0,.981.977.977.977,0,0,0,.976-.981A.978.978,0,0,0-459.2,164.579Z" transform="translate(493.357 -149.961)" fill="#fff"/><path d="M-451.058,164.563a.98.98,0,0,0-.976.982.98.98,0,0,0,.98.978.978.978,0,0,0,.977-.982A.979.979,0,0,0-451.058,164.563Z" transform="translate(489.358 -149.953)" fill="#fff"/><path d="M-442.916,164.547a.981.981,0,0,0-.978.982.98.98,0,0,0,.982.977.978.978,0,0,0,.976-.981A.979.979,0,0,0-442.916,164.547Z" transform="translate(485.36 -149.945)" fill="#fff"/><path d="M-434.773,164.531a.982.982,0,0,0-.977.982.98.98,0,0,0,.981.977.98.98,0,0,0,.978-.981A.982.982,0,0,0-434.773,164.531Z" transform="translate(481.36 -149.937)" fill="#fff"/><path d="M-426.628,164.516a.979.979,0,0,0-.976.982.978.978,0,0,0,.98.977.978.978,0,0,0,.976-.981A.979.979,0,0,0-426.628,164.516Z" transform="translate(477.359 -149.93)" fill="#fff"/><path d="M-418.483,164.5a.978.978,0,0,0-.973.982.976.976,0,0,0,.978.977.977.977,0,0,0,.976-.981A.979.979,0,0,0-418.483,164.5Z" transform="translate(473.357 -149.922)" fill="#fff"/><path d="M-410.339,164.484a.979.979,0,0,0-.975.982.977.977,0,0,0,.979.977.976.976,0,0,0,.974-.981A.978.978,0,0,0-410.339,164.484Z" transform="translate(469.358 -149.914)" fill="#fff"/><path d="M-402.2,164.468a.982.982,0,0,0-.978.982.981.981,0,0,0,.982.978.98.98,0,0,0,.977-.981A.981.981,0,0,0-402.2,164.468Z" transform="translate(465.361 -149.906)" fill="#fff"/><path d="M-394.056,164.452a.98.98,0,0,0-.978.983.979.979,0,0,0,.981.977.978.978,0,0,0,.978-.981A.98.98,0,0,0-394.056,164.452Z" transform="translate(461.362 -149.898)" fill="#fff"/><path d="M-385.911,164.437a.98.98,0,0,0-.978.982.979.979,0,0,0,.982.977.979.979,0,0,0,.976-.982A.98.98,0,0,0-385.911,164.437Z" transform="translate(457.362 -149.891)" fill="#fff"/><path d="M-506.49,172.792a.979.979,0,0,0-.982-.976,1.008,1.008,0,0,0-.383.076l.976,1.68A.975.975,0,0,0-506.49,172.792Z" transform="translate(516.774 -153.515)" fill="#fff"/><path d="M-499.9,171.8a.979.979,0,0,0-.979.98.978.978,0,0,0,.982.977.978.978,0,0,0,.976-.981A.979.979,0,0,0-499.9,171.8Z" transform="translate(513.348 -153.507)" fill="#fff"/><path d="M-491.759,171.785a.976.976,0,0,0-.975.98.976.976,0,0,0,.98.977.979.979,0,0,0,.978-.981A.979.979,0,0,0-491.759,171.785Z" transform="translate(509.348 -153.5)" fill="#fff"/><path d="M-483.615,171.769a.978.978,0,0,0-.978.98.977.977,0,0,0,.981.976.98.98,0,0,0,.979-.98A.98.98,0,0,0-483.615,171.769Z" transform="translate(505.349 -153.492)" fill="#fff"/><path d="M-475.473,171.753a.979.979,0,0,0-.979.98.979.979,0,0,0,.982.977.979.979,0,0,0,.979-.981A.979.979,0,0,0-475.473,171.753Z" transform="translate(501.351 -153.484)" fill="#fff"/><path d="M-467.332,171.738a.979.979,0,0,0-.979.98.98.98,0,0,0,.983.977.976.976,0,0,0,.975-.981A.976.976,0,0,0-467.332,171.738Z" transform="translate(497.352 -153.477)" fill="#fff"/><path d="M-459.187,171.722a.978.978,0,0,0-.976.98.978.978,0,0,0,.981.976.977.977,0,0,0,.976-.981A.976.976,0,0,0-459.187,171.722Z" transform="translate(493.35 -153.469)" fill="#fff"/><path d="M-451.045,171.706a.978.978,0,0,0-.975.98.977.977,0,0,0,.979.976.977.977,0,0,0,.978-.981A.977.977,0,0,0-451.045,171.706Z" transform="translate(489.351 -153.461)" fill="#fff"/><path d="M-442.9,171.69a.979.979,0,0,0-.978.98.978.978,0,0,0,.982.976.976.976,0,0,0,.976-.98A.976.976,0,0,0-442.9,171.69Z" transform="translate(485.353 -153.453)" fill="#fff"/><path d="M-434.76,171.674a.981.981,0,0,0-.977.981.98.98,0,0,0,.981.977.98.98,0,0,0,.978-.981A.98.98,0,0,0-434.76,171.674Z" transform="translate(481.353 -153.445)" fill="#fff"/><path d="M-426.615,171.659a.979.979,0,0,0-.977.98.978.978,0,0,0,.981.976.977.977,0,0,0,.977-.98A.977.977,0,0,0-426.615,171.659Z" transform="translate(477.353 -153.438)" fill="#fff"/><path d="M-418.469,171.643a.976.976,0,0,0-.973.98.975.975,0,0,0,.977.977.977.977,0,0,0,.977-.981A.977.977,0,0,0-418.469,171.643Z" transform="translate(473.35 -153.43)" fill="#fff"/><path d="M-410.325,171.627a.976.976,0,0,0-.975.98.977.977,0,0,0,.979.977.976.976,0,0,0,.974-.981A.976.976,0,0,0-410.325,171.627Z" transform="translate(469.351 -153.422)" fill="#fff"/><path d="M-402.184,171.612a.979.979,0,0,0-.978.98.979.979,0,0,0,.982.977.979.979,0,0,0,.977-.981A.978.978,0,0,0-402.184,171.612Z" transform="translate(465.354 -153.415)" fill="#fff"/><path d="M-394.043,171.6a.977.977,0,0,0-.977.98.978.978,0,0,0,.981.977.978.978,0,0,0,.98-.981A.978.978,0,0,0-394.043,171.6Z" transform="translate(461.355 -153.407)" fill="#fff"/><path d="M-386.875,172.56a.974.974,0,0,0,.391.779l.966-1.684a.975.975,0,0,0-.38-.075A.977.977,0,0,0-386.875,172.56Z" transform="translate(457.355 -153.399)" fill="#fff"/><path d="M-499.887,178.936a.979.979,0,0,0-.979.983.978.978,0,0,0,.982.975.978.978,0,0,0,.976-.979A.98.98,0,0,0-499.887,178.936Z" transform="translate(513.341 -157.012)" fill="#fff"/><path d="M-491.746,178.921a.978.978,0,0,0-.976.982.977.977,0,0,0,.98.975.977.977,0,0,0,.978-.979A.979.979,0,0,0-491.746,178.921Z" transform="translate(509.342 -157.005)" fill="#fff"/><path d="M-483.6,178.9a.979.979,0,0,0-.978.982.978.978,0,0,0,.982.975.98.98,0,0,0,.978-.979A.98.98,0,0,0-483.6,178.9Z" transform="translate(505.343 -156.997)" fill="#fff"/><path d="M-475.46,178.89a.979.979,0,0,0-.978.982.979.979,0,0,0,.982.975.98.98,0,0,0,.979-.979A.981.981,0,0,0-475.46,178.89Z" transform="translate(501.344 -156.99)" fill="#fff"/><path d="M-467.318,178.873a.981.981,0,0,0-.979.983.979.979,0,0,0,.983.975.977.977,0,0,0,.976-.979A.979.979,0,0,0-467.318,178.873Z" transform="translate(497.345 -156.981)" fill="#fff"/><path d="M-459.172,178.858a.978.978,0,0,0-.976.982.977.977,0,0,0,.98.975.977.977,0,0,0,.977-.979A.978.978,0,0,0-459.172,178.858Z" transform="translate(493.343 -156.974)" fill="#fff"/><path d="M-451.03,178.842a.979.979,0,0,0-.976.983.978.978,0,0,0,.98.974.976.976,0,0,0,.978-.979A.978.978,0,0,0-451.03,178.842Z" transform="translate(489.344 -156.966)" fill="#fff"/><path d="M-442.888,178.826a.98.98,0,0,0-.978.982.978.978,0,0,0,.982.975.976.976,0,0,0,.976-.979A.978.978,0,0,0-442.888,178.826Z" transform="translate(485.346 -156.958)" fill="#fff"/><path d="M-434.746,178.81a.982.982,0,0,0-.977.983.98.98,0,0,0,.981.975.979.979,0,0,0,.978-.979A.98.98,0,0,0-434.746,178.81Z" transform="translate(481.347 -156.95)" fill="#fff"/><path d="M-426.6,178.794a.98.98,0,0,0-.976.983.978.978,0,0,0,.981.975.977.977,0,0,0,.977-.979A.979.979,0,0,0-426.6,178.794Z" transform="translate(477.346 -156.942)" fill="#fff"/><path d="M-418.455,178.779a.976.976,0,0,0-.973.982.975.975,0,0,0,.977.975.977.977,0,0,0,.977-.979A.978.978,0,0,0-418.455,178.779Z" transform="translate(473.343 -156.935)" fill="#fff"/><path d="M-410.312,178.763a.978.978,0,0,0-.975.983.977.977,0,0,0,.979.974.975.975,0,0,0,.974-.979A.977.977,0,0,0-410.312,178.763Z" transform="translate(469.345 -156.927)" fill="#fff"/><path d="M-402.17,178.748a.98.98,0,0,0-.978.982.979.979,0,0,0,.982.974.978.978,0,0,0,.977-.979A.98.98,0,0,0-402.17,178.748Z" transform="translate(465.347 -156.92)" fill="#fff"/><path d="M-394.028,178.732a.979.979,0,0,0-.978.982.978.978,0,0,0,.981.975.978.978,0,0,0,.98-.979A.979.979,0,0,0-394.028,178.732Z" transform="translate(461.348 -156.912)" fill="#fff"/><path d="M-498.28,187.054a.979.979,0,0,0-.98-.976.978.978,0,0,0-.342.061l.969,1.67A.973.973,0,0,0-498.28,187.054Z" transform="translate(512.72 -160.52)" fill="#fff"/><path d="M-491.732,186.061a.977.977,0,0,0-.975.981.977.977,0,0,0,.979.978.98.98,0,0,0,.979-.982A.979.979,0,0,0-491.732,186.061Z" transform="translate(509.334 -160.512)" fill="#fff"/><path d="M-483.588,186.046a.978.978,0,0,0-.978.98.979.979,0,0,0,.982.979.981.981,0,0,0,.979-.983A.98.98,0,0,0-483.588,186.046Z" transform="translate(505.336 -160.504)" fill="#fff"/><path d="M-475.446,186.03a.978.978,0,0,0-.978.98.98.98,0,0,0,.982.979.981.981,0,0,0,.979-.982A.981.981,0,0,0-475.446,186.03Z" transform="translate(501.337 -160.496)" fill="#fff"/><path d="M-467.3,186.015a.979.979,0,0,0-.979.98.98.98,0,0,0,.983.979.979.979,0,0,0,.976-.982A.977.977,0,0,0-467.3,186.015Z" transform="translate(497.338 -160.489)" fill="#fff"/><path d="M-459.159,186a.978.978,0,0,0-.976.98.979.979,0,0,0,.98.979.978.978,0,0,0,.976-.982A.978.978,0,0,0-459.159,186Z" transform="translate(493.336 -160.481)" fill="#fff"/><path d="M-451.017,185.983a.977.977,0,0,0-.975.98.979.979,0,0,0,.98.979.979.979,0,0,0,.977-.983A.976.976,0,0,0-451.017,185.983Z" transform="translate(489.337 -160.473)" fill="#fff"/><path d="M-442.874,185.967a.98.98,0,0,0-.979.98.98.98,0,0,0,.982.978.977.977,0,0,0,.976-.982A.976.976,0,0,0-442.874,185.967Z" transform="translate(485.34 -160.465)" fill="#fff"/><path d="M-434.732,185.951a.981.981,0,0,0-.977.98.982.982,0,0,0,.981.979.98.98,0,0,0,.978-.982A.979.979,0,0,0-434.732,185.951Z" transform="translate(481.34 -160.458)" fill="#fff"/><path d="M-426.586,185.935a.978.978,0,0,0-.977.98.98.98,0,0,0,.98.979.978.978,0,0,0,.977-.982A.978.978,0,0,0-426.586,185.935Z" transform="translate(477.339 -160.45)" fill="#fff"/><path d="M-418.441,185.919a.976.976,0,0,0-.973.981.976.976,0,0,0,.977.978.978.978,0,0,0,.977-.982A.978.978,0,0,0-418.441,185.919Z" transform="translate(473.336 -160.442)" fill="#fff"/><path d="M-410.3,185.9a.977.977,0,0,0-.975.98.978.978,0,0,0,.979.979.977.977,0,0,0,.974-.983A.975.975,0,0,0-410.3,185.9Z" transform="translate(469.338 -160.434)" fill="#fff"/><path d="M-402.156,185.888a.98.98,0,0,0-.978.981.98.98,0,0,0,.982.978.98.98,0,0,0,.976-.982A.979.979,0,0,0-402.156,185.888Z" transform="translate(465.34 -160.427)" fill="#fff"/><path d="M-394.993,186.853a.98.98,0,0,0,.356.754l.961-1.673a.965.965,0,0,0-.34-.06A.978.978,0,0,0-394.993,186.853Z" transform="translate(461.342 -160.419)" fill="#fff"/><path d="M-491.717,193.2a.978.978,0,0,0-.977.981.978.978,0,0,0,.98.977.979.979,0,0,0,.979-.981A.98.98,0,0,0-491.717,193.2Z" transform="translate(509.328 -164.017)" fill="#fff"/><path d="M-483.574,193.183a.979.979,0,0,0-.978.981.979.979,0,0,0,.981.978.98.98,0,0,0,.979-.981A.981.981,0,0,0-483.574,193.183Z" transform="translate(505.329 -164.01)" fill="#fff"/><path d="M-475.432,193.167a.981.981,0,0,0-.979.981.981.981,0,0,0,.983.978.98.98,0,0,0,.979-.981A.981.981,0,0,0-475.432,193.167Z" transform="translate(501.33 -164.002)" fill="#fff"/><path d="M-467.291,193.151a.981.981,0,0,0-.979.981.98.98,0,0,0,.983.977.977.977,0,0,0,.976-.981A.979.979,0,0,0-467.291,193.151Z" transform="translate(497.332 -163.994)" fill="#fff"/><path d="M-459.145,193.135a.98.98,0,0,0-.976.982.979.979,0,0,0,.98.977.978.978,0,0,0,.977-.981A.979.979,0,0,0-459.145,193.135Z" transform="translate(493.33 -163.986)" fill="#fff"/><path d="M-451,193.12a.979.979,0,0,0-.975.981.978.978,0,0,0,.979.977.978.978,0,0,0,.978-.981A.979.979,0,0,0-451,193.12Z" transform="translate(489.33 -163.979)" fill="#fff"/><path d="M-442.861,193.1a.981.981,0,0,0-.978.981.98.98,0,0,0,.982.977.977.977,0,0,0,.975-.981A.978.978,0,0,0-442.861,193.1Z" transform="translate(485.333 -163.971)" fill="#fff"/><path d="M-434.719,193.088a.982.982,0,0,0-.977.981.98.98,0,0,0,.981.977.979.979,0,0,0,.978-.981A.981.981,0,0,0-434.719,193.088Z" transform="translate(481.333 -163.963)" fill="#fff"/><path d="M-426.573,193.072a.98.98,0,0,0-.976.982.978.978,0,0,0,.98.977.978.978,0,0,0,.977-.981A.979.979,0,0,0-426.573,193.072Z" transform="translate(477.332 -163.955)" fill="#fff"/><path d="M-418.427,193.057a.977.977,0,0,0-.973.981.976.976,0,0,0,.977.977.977.977,0,0,0,.976-.981A.978.978,0,0,0-418.427,193.057Z" transform="translate(473.329 -163.948)" fill="#fff"/><path d="M-410.284,193.041a.978.978,0,0,0-.975.981.978.978,0,0,0,.979.978.977.977,0,0,0,.974-.982A.977.977,0,0,0-410.284,193.041Z" transform="translate(469.331 -163.94)" fill="#fff"/><path d="M-402.143,193.025a.981.981,0,0,0-.978.981.98.98,0,0,0,.982.977.979.979,0,0,0,.976-.981A.98.98,0,0,0-402.143,193.025Z" transform="translate(465.334 -163.932)" fill="#fff"/><path d="M-490.068,201.316a.979.979,0,0,0-.982-.978,1.037,1.037,0,0,0-.3.046l.962,1.656A.977.977,0,0,0-490.068,201.316Z" transform="translate(508.667 -167.524)" fill="#fff"/><path d="M-483.56,200.323a.979.979,0,0,0-.978.982.978.978,0,0,0,.982.977.981.981,0,0,0,.978-.981A.98.98,0,0,0-483.56,200.323Z" transform="translate(505.322 -167.516)" fill="#fff"/><path d="M-475.418,200.308a.979.979,0,0,0-.978.981.98.98,0,0,0,.982.978.981.981,0,0,0,.979-.981A.98.98,0,0,0-475.418,200.308Z" transform="translate(501.323 -167.509)" fill="#fff"/><path d="M-467.276,200.292a.98.98,0,0,0-.98.981.981.981,0,0,0,.983.978.979.979,0,0,0,.976-.982A.978.978,0,0,0-467.276,200.292Z" transform="translate(497.325 -167.501)" fill="#fff"/><path d="M-459.13,200.276a.978.978,0,0,0-.977.982.979.979,0,0,0,.98.977.978.978,0,0,0,.976-.981A.978.978,0,0,0-459.13,200.276Z" transform="translate(493.323 -167.493)" fill="#fff"/><path d="M-450.989,200.261a.978.978,0,0,0-.976.981.979.979,0,0,0,.98.977.978.978,0,0,0,.978-.981A.977.977,0,0,0-450.989,200.261Z" transform="translate(489.324 -167.486)" fill="#fff"/><path d="M-442.847,200.245a.979.979,0,0,0-.978.981.98.98,0,0,0,.982.977.977.977,0,0,0,.975-.981A.976.976,0,0,0-442.847,200.245Z" transform="translate(485.326 -167.478)" fill="#fff"/><path d="M-434.7,200.229a.981.981,0,0,0-.977.981.982.982,0,0,0,.982.978.981.981,0,0,0,.978-.982A.98.98,0,0,0-434.7,200.229Z" transform="translate(481.326 -167.47)" fill="#fff"/><path d="M-426.559,200.213a.979.979,0,0,0-.977.981.979.979,0,0,0,.981.978.978.978,0,0,0,.976-.981A.978.978,0,0,0-426.559,200.213Z" transform="translate(477.326 -167.462)" fill="#fff"/><path d="M-418.413,200.2a.976.976,0,0,0-.974.981.976.976,0,0,0,.977.977.979.979,0,0,0,.977-.981A.978.978,0,0,0-418.413,200.2Z" transform="translate(473.323 -167.455)" fill="#fff"/><path d="M-410.27,200.182a.976.976,0,0,0-.975.981.978.978,0,0,0,.979.978.977.977,0,0,0,.974-.982A.976.976,0,0,0-410.27,200.182Z" transform="translate(469.324 -167.447)" fill="#fff"/><path d="M-403.106,201.147a.98.98,0,0,0,.321.723l.954-1.659a1.011,1.011,0,0,0-.3-.045A.979.979,0,0,0-403.106,201.147Z" transform="translate(465.327 -167.439)" fill="#fff"/><path d="M-483.547,207.462a.979.979,0,0,0-.977.981.979.979,0,0,0,.982.978.982.982,0,0,0,.978-.981A.981.981,0,0,0-483.547,207.462Z" transform="translate(505.315 -171.023)" fill="#fff"/><path d="M-475.4,207.448a.979.979,0,0,0-.979.981.981.981,0,0,0,.982.977.982.982,0,0,0,.979-.982A.98.98,0,0,0-475.4,207.448Z" transform="translate(501.317 -171.016)" fill="#fff"/><path d="M-467.262,207.432a.98.98,0,0,0-.98.981.981.981,0,0,0,.983.978.979.979,0,0,0,.976-.981A.977.977,0,0,0-467.262,207.432Z" transform="translate(497.318 -171.008)" fill="#fff"/><path d="M-459.117,207.416a.978.978,0,0,0-.977.981.98.98,0,0,0,.98.977.979.979,0,0,0,.976-.981A.977.977,0,0,0-459.117,207.416Z" transform="translate(493.316 -171)" fill="#fff"/><path d="M-450.976,207.4a.978.978,0,0,0-.975.981.98.98,0,0,0,.98.978.98.98,0,0,0,.978-.981A.978.978,0,0,0-450.976,207.4Z" transform="translate(489.317 -170.992)" fill="#fff"/><path d="M-442.833,207.384a.98.98,0,0,0-.978.981.981.981,0,0,0,.982.977.978.978,0,0,0,.977-.981A.978.978,0,0,0-442.833,207.384Z" transform="translate(485.319 -170.984)" fill="#fff"/><path d="M-434.69,207.368a.981.981,0,0,0-.977.981.982.982,0,0,0,.981.977.982.982,0,0,0,.978-.982A.981.981,0,0,0-434.69,207.368Z" transform="translate(481.319 -170.977)" fill="#fff"/><path d="M-426.546,207.352a.979.979,0,0,0-.976.981.98.98,0,0,0,.981.978.978.978,0,0,0,.976-.981A.978.978,0,0,0-426.546,207.352Z" transform="translate(477.319 -170.969)" fill="#fff"/><path d="M-418.4,207.336a.977.977,0,0,0-.974.982.977.977,0,0,0,.978.977.979.979,0,0,0,.977-.981A.979.979,0,0,0-418.4,207.336Z" transform="translate(473.316 -170.961)" fill="#fff"/><path d="M-410.256,207.321a.977.977,0,0,0-.975.981.978.978,0,0,0,.979.978.977.977,0,0,0,.974-.981A.976.976,0,0,0-410.256,207.321Z" transform="translate(469.317 -170.953)" fill="#fff"/><path d="M-481.852,215.577a.981.981,0,0,0-.982-.978.927.927,0,0,0-.253.037l.948,1.634A.97.97,0,0,0-481.852,215.577Z" transform="translate(504.609 -174.528)" fill="#fff"/><path d="M-475.391,214.584a.98.98,0,0,0-.978.982.98.98,0,0,0,.982.977.98.98,0,0,0,.979-.981A.981.981,0,0,0-475.391,214.584Z" transform="translate(501.31 -174.521)" fill="#fff"/><path d="M-467.249,214.568a.981.981,0,0,0-.979.982.98.98,0,0,0,.983.976.977.977,0,0,0,.975-.98A.979.979,0,0,0-467.249,214.568Z" transform="translate(497.311 -174.513)" fill="#fff"/><path d="M-459.1,214.552a.98.98,0,0,0-.976.982.979.979,0,0,0,.98.976.978.978,0,0,0,.977-.98A.98.98,0,0,0-459.1,214.552Z" transform="translate(493.309 -174.505)" fill="#fff"/><path d="M-450.961,214.536a.98.98,0,0,0-.976.983.978.978,0,0,0,.98.976.977.977,0,0,0,.978-.98A.979.979,0,0,0-450.961,214.536Z" transform="translate(489.31 -174.497)" fill="#fff"/><path d="M-442.819,214.52a.981.981,0,0,0-.978.982.979.979,0,0,0,.982.977.976.976,0,0,0,.976-.98A.979.979,0,0,0-442.819,214.52Z" transform="translate(485.312 -174.489)" fill="#fff"/><path d="M-434.677,214.505a.982.982,0,0,0-.977.982.981.981,0,0,0,.981.976.979.979,0,0,0,.978-.981A.981.981,0,0,0-434.677,214.505Z" transform="translate(481.313 -174.482)" fill="#fff"/><path d="M-426.531,214.489a.98.98,0,0,0-.977.982.978.978,0,0,0,.981.976.976.976,0,0,0,.977-.98A.979.979,0,0,0-426.531,214.489Z" transform="translate(477.312 -174.474)" fill="#fff"/><path d="M-418.386,214.473a.977.977,0,0,0-.973.982.976.976,0,0,0,.978.976.977.977,0,0,0,.976-.98A.979.979,0,0,0-418.386,214.473Z" transform="translate(473.309 -174.466)" fill="#fff"/><path d="M-411.218,215.44a.969.969,0,0,0,.288.691l.939-1.638a.927.927,0,0,0-.252-.035A.979.979,0,0,0-411.218,215.44Z" transform="translate(469.311 -174.459)" fill="#fff"/><path d="M-475.377,221.722a.981.981,0,0,0-.978.981.981.981,0,0,0,.982.979.982.982,0,0,0,.979-.982A.983.983,0,0,0-475.377,221.722Z" transform="translate(501.303 -178.026)" fill="#fff"/><path d="M-467.235,221.707a.98.98,0,0,0-.979.981.981.981,0,0,0,.983.979.979.979,0,0,0,.975-.982A.978.978,0,0,0-467.235,221.707Z" transform="translate(497.304 -178.019)" fill="#fff"/><path d="M-459.089,221.69a.98.98,0,0,0-.977.981.98.98,0,0,0,.98.979.979.979,0,0,0,.976-.982A.979.979,0,0,0-459.089,221.69Z" transform="translate(493.303 -178.011)" fill="#fff"/><path d="M-450.947,221.675a.979.979,0,0,0-.976.981.979.979,0,0,0,.979.978.979.979,0,0,0,.978-.982A.978.978,0,0,0-450.947,221.675Z" transform="translate(489.303 -178.003)" fill="#fff"/><path d="M-442.806,221.659a.981.981,0,0,0-.978.981.981.981,0,0,0,.982.979.979.979,0,0,0,.976-.983A.979.979,0,0,0-442.806,221.659Z" transform="translate(485.306 -177.996)" fill="#fff"/><path d="M-434.663,221.644a.981.981,0,0,0-.977.981.982.982,0,0,0,.981.979.982.982,0,0,0,.979-.982A.982.982,0,0,0-434.663,221.644Z" transform="translate(481.306 -177.988)" fill="#fff"/><path d="M-426.518,221.628a.98.98,0,0,0-.976.981.98.98,0,0,0,.981.979.979.979,0,0,0,.976-.982A.978.978,0,0,0-426.518,221.628Z" transform="translate(477.305 -177.98)" fill="#fff"/><path d="M-418.372,221.612a.977.977,0,0,0-.973.981.977.977,0,0,0,.977.978.979.979,0,0,0,.977-.982A.979.979,0,0,0-418.372,221.612Z" transform="translate(473.302 -177.972)" fill="#fff"/><path d="M-474.62,228.862a.926.926,0,0,0-.209.024l.936,1.612a.979.979,0,0,0,.255-.66A.979.979,0,0,0-474.62,228.862Z" transform="translate(500.553 -181.533)" fill="#fff"/><path d="M-467.221,228.846a.979.979,0,0,0-.98.981.981.981,0,0,0,.983.977.978.978,0,0,0,.976-.981A.977.977,0,0,0-467.221,228.846Z" transform="translate(497.298 -181.525)" fill="#fff"/><path d="M-459.076,228.83a.978.978,0,0,0-.977.981.98.98,0,0,0,.981.977.978.978,0,0,0,.976-.982A.977.977,0,0,0-459.076,228.83Z" transform="translate(493.296 -181.518)" fill="#fff"/><path d="M-450.934,228.815a.977.977,0,0,0-.975.981.979.979,0,0,0,.98.977.98.98,0,0,0,.978-.982A.977.977,0,0,0-450.934,228.815Z" transform="translate(489.296 -181.51)" fill="#fff"/><path d="M-442.792,228.8a.979.979,0,0,0-.978.981.98.98,0,0,0,.982.977.977.977,0,0,0,.976-.981A.977.977,0,0,0-442.792,228.8Z" transform="translate(485.299 -181.502)" fill="#fff"/><path d="M-434.649,228.782a.98.98,0,0,0-.977.981.981.981,0,0,0,.981.977.98.98,0,0,0,.978-.981A.98.98,0,0,0-434.649,228.782Z" transform="translate(481.299 -181.494)" fill="#fff"/><path d="M-426.5,228.767a.978.978,0,0,0-.977.981.979.979,0,0,0,.98.977.978.978,0,0,0,.977-.981A.977.977,0,0,0-426.5,228.767Z" transform="translate(477.298 -181.487)" fill="#fff"/><path d="M-419.332,229.732a.985.985,0,0,0,.253.658l.93-1.616a.93.93,0,0,0-.209-.024A.976.976,0,0,0-419.332,229.732Z" transform="translate(473.296 -181.479)" fill="#fff"/><path d="M-467.207,235.986a.98.98,0,0,0-.979.981.98.98,0,0,0,.983.979.979.979,0,0,0,.976-.982A.978.978,0,0,0-467.207,235.986Z" transform="translate(497.291 -185.032)" fill="#fff"/><path d="M-459.062,235.971a.979.979,0,0,0-.977.981.979.979,0,0,0,.981.979.978.978,0,0,0,.976-.982A.978.978,0,0,0-459.062,235.971Z" transform="translate(493.289 -185.025)" fill="#fff"/><path d="M-450.92,235.955a.979.979,0,0,0-.976.981.98.98,0,0,0,.98.978.977.977,0,0,0,.978-.982A.978.978,0,0,0-450.92,235.955Z" transform="translate(489.29 -185.017)" fill="#fff"/><path d="M-442.778,235.939a.98.98,0,0,0-.978.981.98.98,0,0,0,.982.978.978.978,0,0,0,.976-.982A.978.978,0,0,0-442.778,235.939Z" transform="translate(485.292 -185.009)" fill="#fff"/><path d="M-434.635,235.923a.981.981,0,0,0-.977.981.98.98,0,0,0,.98.978.98.98,0,0,0,.978-.982A.98.98,0,0,0-434.635,235.923Z" transform="translate(481.292 -185.001)" fill="#fff"/><path d="M-426.49,235.907a.98.98,0,0,0-.977.981.98.98,0,0,0,.981.979.978.978,0,0,0,.977-.982A.979.979,0,0,0-426.49,235.907Z" transform="translate(477.292 -184.993)" fill="#fff"/><path d="M-466.406,243.127a.945.945,0,0,0-.162.014l.922,1.588a1,1,0,0,0,.22-.627A.976.976,0,0,0-466.406,243.127Z" transform="translate(496.496 -188.54)" fill="#fff"/><path d="M-459.047,243.111a.978.978,0,0,0-.976.979.978.978,0,0,0,.98.979.978.978,0,0,0,.976-.982A.977.977,0,0,0-459.047,243.111Z" transform="translate(493.282 -188.532)" fill="#fff"/><path d="M-450.906,243.1a.977.977,0,0,0-.976.979.979.979,0,0,0,.98.978.977.977,0,0,0,.977-.982A.976.976,0,0,0-450.906,243.1Z" transform="translate(489.283 -188.524)" fill="#fff"/><path d="M-442.764,243.08a.978.978,0,0,0-.978.979.979.979,0,0,0,.982.979.977.977,0,0,0,.976-.982A.976.976,0,0,0-442.764,243.08Z" transform="translate(485.285 -188.516)" fill="#fff"/><path d="M-434.622,243.065a.98.98,0,0,0-.977.979.981.981,0,0,0,.981.978.98.98,0,0,0,.978-.982A.978.978,0,0,0-434.622,243.065Z" transform="translate(481.286 -188.509)" fill="#fff"/><path d="M-427.453,244.027a.977.977,0,0,0,.226.626l.913-1.592a1,1,0,0,0-.162-.013A.979.979,0,0,0-427.453,244.027Z" transform="translate(477.285 -188.501)" fill="#fff"/><path d="M-459.034,250.248a.979.979,0,0,0-.976.982.978.978,0,0,0,.98.976.977.977,0,0,0,.976-.98A.978.978,0,0,0-459.034,250.248Z" transform="translate(493.275 -192.037)" fill="#fff"/><path d="M-450.892,250.232a.979.979,0,0,0-.976.982.978.978,0,0,0,.98.976.978.978,0,0,0,.978-.98A.978.978,0,0,0-450.892,250.232Z" transform="translate(489.276 -192.029)" fill="#fff"/><path d="M-442.75,250.216a.981.981,0,0,0-.978.982.979.979,0,0,0,.982.976.976.976,0,0,0,.976-.98A.978.978,0,0,0-442.75,250.216Z" transform="translate(485.278 -192.021)" fill="#fff"/><path d="M-434.608,250.2a.981.981,0,0,0-.977.981.981.981,0,0,0,.981.976.979.979,0,0,0,.978-.98A.98.98,0,0,0-434.608,250.2Z" transform="translate(481.279 -192.014)" fill="#fff"/><path d="M-458.19,257.39a1.129,1.129,0,0,0-.116.005l.9,1.557a.958.958,0,0,0,.2-.584A.978.978,0,0,0-458.19,257.39Z" transform="translate(492.438 -195.545)" fill="#fff"/><path d="M-450.879,257.374a.978.978,0,0,0-.975.982.98.98,0,0,0,.98.978.979.979,0,0,0,.978-.982A.978.978,0,0,0-450.879,257.374Z" transform="translate(489.269 -195.537)" fill="#fff"/><path d="M-442.737,257.358a.979.979,0,0,0-.977.982.98.98,0,0,0,.982.978.978.978,0,0,0,.976-.981A.978.978,0,0,0-442.737,257.358Z" transform="translate(485.271 -195.529)" fill="#fff"/><path d="M-435.571,258.324a.983.983,0,0,0,.2.584l.9-1.56c-.036,0-.075-.005-.116-.005A.981.981,0,0,0-435.571,258.324Z" transform="translate(481.272 -195.521)" fill="#fff"/><path d="M-450.865,264.51a.978.978,0,0,0-.975.983.979.979,0,0,0,.98.976.979.979,0,0,0,.978-.98A.977.977,0,0,0-450.865,264.51Z" transform="translate(489.262 -199.042)" fill="#fff"/><path d="M-442.723,264.494a.98.98,0,0,0-.978.983.98.98,0,0,0,.982.976.978.978,0,0,0,.976-.98A.977.977,0,0,0-442.723,264.494Z" transform="translate(485.265 -199.034)" fill="#fff"/><path d="M-449.975,271.65c-.023,0-.045,0-.068,0l.885,1.519a.967.967,0,0,0,.165-.546A.978.978,0,0,0-449.975,271.65Z" transform="translate(488.38 -202.549)" fill="#fff"/><path d="M-443.687,272.616a.979.979,0,0,0,.169.545l.875-1.523c-.023,0-.043,0-.067,0A.981.981,0,0,0-443.687,272.616Z" transform="translate(485.258 -202.541)" fill="#fff"/></g><path d="M-442.24,187.114h-28.534v28.534a28.534,28.534,0,0,0,28.534,28.534,28.533,28.533,0,0,0,28.534-28.534A28.534,28.534,0,0,0-442.24,187.114Z" transform="translate(-78.02 -76.743)" fill="#4586ff"/><g transform="translate(-498.988 122.969)"><path d="M-372.894,211.872l5.539,9.592a54.068,54.068,0,0,1,6.158-9.592Z" transform="translate(372.894 -211.872)" fill="#78afff"/><path d="M-286.283,239.311a19.753,19.753,0,0,0-19.73,19.731,19.752,19.752,0,0,0,19.73,19.73,19.753,19.753,0,0,0,19.731-19.73A19.753,19.753,0,0,0-286.283,239.311Zm-.137,33.142a13.464,13.464,0,0,1-13.449-13.448,13.463,13.463,0,0,1,13.449-13.448,13.462,13.462,0,0,1,13.449,13.448A13.463,13.463,0,0,1-286.42,272.453Z" transform="translate(340.045 -225.349)" fill="#78afff"/><path d="M-273.883,265.039a6.611,6.611,0,0,0-6.6,6.6,6.612,6.612,0,0,0,6.6,6.6,6.61,6.61,0,0,0,6.6-6.6A6.609,6.609,0,0,0-273.883,265.039Z" transform="translate(327.508 -237.985)" fill="#78afff"/><path d="M-266.1,246.567a32.694,32.694,0,0,0-32.657-32.655,32.691,32.691,0,0,0-32.654,32.655c0,1.057.055,2.1.153,3.133l6.244,10.815,7.272,12.6a32.467,32.467,0,0,0,18.985,6.111,32.571,32.571,0,0,0,24.09-10.635l4.662-8.072-.005-.008a31.573,31.573,0,0,0,3.582-9.374A32.558,32.558,0,0,0-266.1,246.567Zm-32.657,26.575a26.6,26.6,0,0,1-26.574-26.575,26.6,26.6,0,0,1,26.574-26.575,26.6,26.6,0,0,1,26.576,26.575A26.6,26.6,0,0,1-298.758,273.142Z" transform="translate(352.52 -212.874)" fill="#78afff"/><path d="M-292.248,350.341l5.256,9.1a47.131,47.131,0,0,0,7.469.6,47.043,47.043,0,0,0,10.28-1.144l5.668-9.816a39.274,39.274,0,0,1-15.948,3.374A39.338,39.338,0,0,1-292.248,350.341Z" transform="translate(333.285 -279.263)" fill="#78afff"/><path d="M-330.29,211.872h-12.252A47.222,47.222,0,0,0-353.688,228.8l5.245,9.085A39.608,39.608,0,0,1-330.29,211.872Z" transform="translate(363.461 -211.872)" fill="#78afff"/><path d="M-273.594,383.656l4.48,7.761,4.608-7.979a54.3,54.3,0,0,1-5.855.323C-271.447,383.761-272.523,383.719-273.594,383.656Z" transform="translate(324.123 -296.137)" fill="#78afff"/></g><g transform="translate(-629.627 30.861)"><g transform="translate(0 6.333)"><g transform="translate(0 8.32)"><path d="M-627.568,61.716a7.025,7.025,0,0,0,0,9.936c1.465,1.466,4.968,4.968,4.968,4.968l4.968-4.968a7.026,7.026,0,0,0,0-9.936A7.024,7.024,0,0,0-627.568,61.716Zm8.091,1.884a4.417,4.417,0,0,1,0,6.248l-3.123,3.123-3.123-3.123a4.417,4.417,0,0,1,0-6.248A4.417,4.417,0,0,1-619.477,63.6Z" transform="translate(629.627 -59.657)" fill="url(#f)"/></g><path d="M-627.568,45.364a7.025,7.025,0,0,0,0,9.936c1.465,1.466,4.968,4.968,4.968,4.968l4.968-4.968a7.026,7.026,0,0,0,0-9.936A7.025,7.025,0,0,0-627.568,45.364Zm8.091,1.885a4.417,4.417,0,0,1,0,6.247L-622.6,56.62l-3.123-3.123a4.417,4.417,0,0,1,0-6.247A4.416,4.416,0,0,1-619.477,47.249Z" transform="translate(629.627 -43.306)" fill="url(#g)"/></g><g transform="translate(2.689)"><path d="M-595.424,30.861l-28.918,16.7.494.285,28.423-16.411Z" transform="translate(624.342 -30.861)" fill="#295dab"/><path d="M-594.153,33.85l-27.6,15.935.495.285,27.106-15.649Z" transform="translate(623.07 -32.329)" fill="#295dab"/><path d="M-592.881,36.839l-26.283,15.175.494.285,25.788-14.889Z" transform="translate(621.799 -33.797)" fill="#295dab"/><path d="M-591.61,39.828l-24.965,14.414.495.286L-591.61,40.4Z" transform="translate(620.527 -35.265)" fill="#295dab"/><path d="M-590.338,42.816-613.985,56.47l.494.286,23.154-13.368Z" transform="translate(619.255 -36.733)" fill="#295dab"/><path d="M-589.066,45.808-611.4,58.7l.494.285,21.836-12.607Z" transform="translate(617.984 -38.202)" fill="#295dab"/><path d="M-587.8,48.8-608.808,60.93l.494.285L-587.8,49.368Z" transform="translate(616.713 -39.671)" fill="#295dab"/><path d="M-586.524,51.787l-19.7,11.371.5.285,19.2-11.086Z" transform="translate(615.442 -41.139)" fill="#295dab"/><path d="M-585.253,54.776l-18.379,10.611.5.285,17.884-10.325Z" transform="translate(614.17 -42.607)" fill="#295dab"/><path d="M-583.981,57.765l-17.062,9.85.495.286,16.568-9.565Z" transform="translate(612.899 -44.075)" fill="#295dab"/><path d="M-582.709,60.753l-15.744,9.09.495.286,15.249-8.8Z" transform="translate(611.627 -45.543)" fill="#295dab"/><path d="M-581.437,63.743l-14.426,8.329.494.285,13.932-8.043Z" transform="translate(610.355 -47.011)" fill="#295dab"/><path d="M-580.166,66.731l-13.11,7.57.494.285,12.615-7.283Z" transform="translate(609.084 -48.479)" fill="#295dab"/><path d="M-578.895,69.722l-11.792,6.808.5.285,11.3-6.521Z" transform="translate(607.813 -49.948)" fill="#295dab"/><path d="M-577.623,72.711-588.1,78.759l.495.285,9.98-5.762Z" transform="translate(606.541 -51.416)" fill="#295dab"/><path d="M-576.352,75.7l-9.158,5.287.5.286,8.663-5Z" transform="translate(605.27 -52.884)" fill="#295dab"/><path d="M-575.079,78.688l-7.839,4.527.494.285,7.345-4.241Z" transform="translate(603.997 -54.352)" fill="#295dab"/><path d="M-573.808,81.679l-6.522,3.766.495.285,6.028-3.48Z" transform="translate(602.726 -55.82)" fill="#295dab"/><path d="M-572.537,84.669l-5.206,3,.5.285,4.71-2.719Z" transform="translate(601.455 -57.289)" fill="#295dab"/><path d="M-571.266,87.659l-3.888,2.243.5.286,3.393-1.959Z" transform="translate(600.183 -58.758)" fill="#295dab"/><path d="M-569.994,90.646l-2.571,1.485.495.285,2.076-1.2Z" transform="translate(598.912 -60.225)" fill="#295dab"/><path d="M-569.481,94.646l.758-.439v-.57l-1.254.723Z" transform="translate(597.64 -61.693)" fill="#295dab"/></g></g><g transform="translate(-621.878 159.546)"><g transform="translate(16.785)"><path d="M-581.28,340.119a.452.452,0,0,1,0-.642l15.384-15.384a.451.451,0,0,1,.642,0h0a.454.454,0,0,1,0,.643l-15.383,15.383a.453.453,0,0,1-.642,0Z" transform="translate(581.413 -303.501)" fill="#4d4d4d"/><path d="M-545.879,313.305a.451.451,0,0,1,0-.642l6.486-6.487a.454.454,0,0,1,.642,0h0a.455.455,0,0,1,0,.642l-6.486,6.487a.455.455,0,0,1-.642,0Z" transform="translate(564.027 -294.701)" fill="#4d4d4d"/><path d="M-527.172,298.93a.454.454,0,0,1,0-.642l2-2a.457.457,0,0,1,.643,0h0a.455.455,0,0,1,0,.643l-2,2a.454.454,0,0,1-.642,0Z" transform="translate(554.838 -289.845)" fill="#4d4d4d"/><path d="M-518.894,291.855a.455.455,0,0,1,0-.644l.752-.753a.453.453,0,0,1,.643,0h0a.454.454,0,0,1,0,.642l-.753.754a.455.455,0,0,1-.643,0Z" transform="translate(550.773 -286.981)" fill="#4d4d4d"/><path d="M-512.322,285.282a.455.455,0,0,1,0-.643l.753-.753a.454.454,0,0,1,.642,0h0a.454.454,0,0,1,0,.643l-.754.753a.452.452,0,0,1-.642,0Z" transform="translate(547.545 -283.754)" fill="#4d4d4d"/></g><g transform="translate(0 3.115)"><path d="M-558.033,290.008a.455.455,0,0,1,0,.643l-15.384,15.384a.453.453,0,0,1-.642,0h0a.453.453,0,0,1,0-.642l15.383-15.384a.455.455,0,0,1,.643,0Z" transform="translate(594.651 -289.875)" fill="#4d4d4d"/><path d="M-584.848,325.409a.453.453,0,0,1,0,.642l-6.487,6.487a.456.456,0,0,1-.643,0h0a.453.453,0,0,1,0-.642l6.487-6.488a.454.454,0,0,1,.643,0Z" transform="translate(603.452 -307.262)" fill="#4d4d4d"/><path d="M-599.223,344.118a.453.453,0,0,1,0,.643l-2,2a.455.455,0,0,1-.642,0h0a.455.455,0,0,1,0-.643l2-2a.452.452,0,0,1,.642,0Z" transform="translate(608.307 -316.451)" fill="#4d4d4d"/><path d="M-606.3,352.395a.451.451,0,0,1,0,.642l-.751.754a.456.456,0,0,1-.643,0h0a.454.454,0,0,1,0-.643l.753-.753a.451.451,0,0,1,.642,0Z" transform="translate(611.172 -320.516)" fill="#4d4d4d"/><path d="M-612.869,358.966a.456.456,0,0,1,0,.643l-.754.754a.455.455,0,0,1-.642,0h0a.452.452,0,0,1,0-.643l.753-.754a.457.457,0,0,1,.643,0Z" transform="translate(614.399 -323.744)" fill="#4d4d4d"/></g><g transform="translate(7.415 2.103)"><path d="M-543.462,288.02a.455.455,0,0,1,0,.643l-15.383,15.384a.454.454,0,0,1-.643,0h0a.454.454,0,0,1,0-.643L-544.1,288.02a.454.454,0,0,1,.642,0Z" transform="translate(580.08 -287.887)" fill="#4d4d4d"/><path d="M-570.276,323.422a.453.453,0,0,1,0,.643l-6.487,6.487a.453.453,0,0,1-.642,0h0a.453.453,0,0,1,0-.643l6.486-6.487a.455.455,0,0,1,.642,0Z" transform="translate(588.88 -305.275)" fill="#4d4d4d"/><path d="M-584.651,342.13a.455.455,0,0,1,0,.643l-2,2a.454.454,0,0,1-.642,0h0a.454.454,0,0,1,0-.644l2-2a.454.454,0,0,1,.643,0Z" transform="translate(593.736 -314.463)" fill="#4d4d4d"/><path d="M-591.727,350.408a.454.454,0,0,1,0,.643l-.754.753a.455.455,0,0,1-.643,0h0a.455.455,0,0,1,0-.643l.754-.753a.453.453,0,0,1,.643,0Z" transform="translate(596.6 -318.529)" fill="#4d4d4d"/><path d="M-598.3,356.978a.457.457,0,0,1,0,.644l-.753.753a.452.452,0,0,1-.643,0h0a.453.453,0,0,1,0-.642l.754-.755a.456.456,0,0,1,.642,0Z" transform="translate(599.827 -321.756)" fill="#4d4d4d"/></g></g><g transform="translate(-526.969 55.533)"><g transform="translate(16.784)"><path d="M-394.763,135.711a.452.452,0,0,1,0-.642l15.384-15.384a.452.452,0,0,1,.642,0h0a.453.453,0,0,1,0,.643l-15.383,15.383a.454.454,0,0,1-.642,0Z" transform="translate(394.897 -99.093)" fill="#4d4d4d"/><path d="M-359.361,108.9a.452.452,0,0,1,0-.642l6.486-6.487a.455.455,0,0,1,.643,0h0a.455.455,0,0,1,0,.642l-6.487,6.487a.454.454,0,0,1-.642,0Z" transform="translate(377.509 -90.293)" fill="#4d4d4d"/><path d="M-340.654,94.522a.455.455,0,0,1,0-.643l2-2a.458.458,0,0,1,.643,0h0a.454.454,0,0,1,0,.643l-2,2a.455.455,0,0,1-.642,0Z" transform="translate(368.321 -85.437)" fill="#4d4d4d"/><path d="M-332.377,87.446a.454.454,0,0,1,0-.643l.753-.753a.454.454,0,0,1,.643,0h0a.455.455,0,0,1,0,.642l-.753.754a.456.456,0,0,1-.643,0Z" transform="translate(364.256 -82.573)" fill="#4d4d4d"/><path d="M-325.8,80.874a.454.454,0,0,1,0-.643l.753-.753a.456.456,0,0,1,.642,0h0a.454.454,0,0,1,0,.643l-.753.753a.452.452,0,0,1-.642,0Z" transform="translate(361.028 -79.346)" fill="#4d4d4d"/></g><g transform="translate(0 3.114)"><path d="M-371.514,85.6a.458.458,0,0,1,0,.643L-386.9,101.626a.454.454,0,0,1-.643,0h0a.455.455,0,0,1,0-.642L-372.158,85.6a.456.456,0,0,1,.643,0Z" transform="translate(408.134 -85.466)" fill="#4d4d4d"/><path d="M-398.33,121a.453.453,0,0,1,0,.643l-6.487,6.487a.457.457,0,0,1-.643,0h0a.455.455,0,0,1,0-.642l6.487-6.488a.454.454,0,0,1,.643,0Z" transform="translate(416.934 -102.853)" fill="#4d4d4d"/><path d="M-412.7,139.709a.454.454,0,0,1,0,.643l-2,2a.456.456,0,0,1-.642,0h0a.455.455,0,0,1,0-.643l2-2a.454.454,0,0,1,.642,0Z" transform="translate(421.789 -112.042)" fill="#4d4d4d"/><path d="M-419.782,147.987a.451.451,0,0,1,0,.642l-.751.754a.455.455,0,0,1-.644,0h0a.455.455,0,0,1,0-.643l.753-.753a.451.451,0,0,1,.642,0Z" transform="translate(424.654 -116.107)" fill="#4d4d4d"/><path d="M-426.352,154.558a.457.457,0,0,1,0,.643l-.754.754a.456.456,0,0,1-.643,0h0a.453.453,0,0,1,0-.643l.753-.754a.458.458,0,0,1,.644,0Z" transform="translate(427.882 -119.335)" fill="#4d4d4d"/></g><g transform="translate(7.415 2.103)"><path d="M-356.944,83.612a.454.454,0,0,1,0,.643l-15.383,15.384a.455.455,0,0,1-.643,0h0a.455.455,0,0,1,0-.643l15.385-15.384a.454.454,0,0,1,.642,0Z" transform="translate(393.562 -83.479)" fill="#4d4d4d"/><path d="M-383.759,119.013a.453.453,0,0,1,0,.643l-6.487,6.487a.454.454,0,0,1-.642,0h0a.454.454,0,0,1,0-.643l6.486-6.487a.454.454,0,0,1,.643,0Z" transform="translate(402.362 -100.866)" fill="#4d4d4d"/><path d="M-398.134,137.721a.455.455,0,0,1,0,.643l-2,2a.454.454,0,0,1-.642,0h0a.452.452,0,0,1,0-.643l2-2a.455.455,0,0,1,.643,0Z" transform="translate(407.218 -110.055)" fill="#4d4d4d"/><path d="M-405.209,146a.455.455,0,0,1,0,.643l-.754.753a.455.455,0,0,1-.643,0h0a.456.456,0,0,1,0-.643l.753-.753a.455.455,0,0,1,.643,0Z" transform="translate(410.082 -114.12)" fill="#4d4d4d"/><path d="M-411.78,152.57a.457.457,0,0,1,0,.643l-.754.753a.453.453,0,0,1-.643,0h0a.454.454,0,0,1,0-.642l.754-.755a.456.456,0,0,1,.642,0Z" transform="translate(413.309 -117.348)" fill="#4d4d4d"/></g></g><g transform="translate(-603.189 99.776)"><g transform="translate(0)"><path d="M-507.349,236.614a.566.566,0,0,1-.8,0l-19.193-19.193a.565.565,0,0,1,0-.8h0a.567.567,0,0,1,.8,0l19.192,19.191a.567.567,0,0,1,0,.8Z" transform="translate(553.035 -190.929)" fill="#fff"/><path d="M-540.8,203.16a.565.565,0,0,1-.8,0l-8.093-8.092a.568.568,0,0,1,0-.8h0a.567.567,0,0,1,.8,0l8.093,8.092a.568.568,0,0,1,0,.8Z" transform="translate(564.013 -179.95)" fill="#fff"/><path d="M-558.737,185.225a.567.567,0,0,1-.8,0l-2.494-2.494a.569.569,0,0,1,0-.8h0a.566.566,0,0,1,.8,0l2.494,2.492a.567.567,0,0,1,0,.8Z" transform="translate(570.072 -173.892)" fill="#fff"/><path d="M-567.565,176.4a.567.567,0,0,1-.8,0l-.939-.938a.567.567,0,0,1,0-.8h0a.567.567,0,0,1,.8,0l.94.939a.568.568,0,0,1,0,.8Z" transform="translate(573.645 -170.319)" fill="#fff"/><path d="M-575.765,168.2a.567.567,0,0,1-.8,0l-.939-.939a.568.568,0,0,1,0-.8h0a.568.568,0,0,1,.8,0l.939.94a.564.564,0,0,1,0,.8Z" transform="translate(577.671 -166.293)" fill="#fff"/></g><g transform="translate(3.886 20.94)"><path d="M-569.869,207.61a.568.568,0,0,1,.8,0l19.193,19.193a.566.566,0,0,1,0,.8h0a.566.566,0,0,1-.8,0l-19.193-19.192a.568.568,0,0,1,0-.8Z" transform="translate(570.034 -207.444)" fill="#fff"/><path d="M-525.7,251.777a.566.566,0,0,1,.8,0l8.093,8.093a.568.568,0,0,1,0,.8h0a.565.565,0,0,1-.8,0l-8.094-8.093a.566.566,0,0,1,0-.8Z" transform="translate(548.343 -229.137)" fill="#fff"/><path d="M-502.361,275.117a.567.567,0,0,1,.8,0l2.492,2.493a.569.569,0,0,1,0,.8h0a.566.566,0,0,1-.8,0l-2.493-2.493a.565.565,0,0,1,0-.8Z" transform="translate(536.878 -240.6)" fill="#fff"/><path d="M-492.034,285.446a.564.564,0,0,1,.8,0l.94.938a.569.569,0,0,1,0,.8h0a.567.567,0,0,1-.8,0l-.939-.939a.562.562,0,0,1,0-.8Z" transform="translate(531.807 -245.673)" fill="#fff"/><path d="M-483.836,293.642a.568.568,0,0,1,.8,0l.94.94a.569.569,0,0,1,0,.8h0a.567.567,0,0,1-.8,0l-.94-.939a.57.57,0,0,1,0-.8Z" transform="translate(527.779 -249.699)" fill="#fff"/></g><g transform="translate(2.624 11.689)"><path d="M-572.349,189.43a.565.565,0,0,1,.8,0l19.194,19.192a.567.567,0,0,1,0,.8h0a.568.568,0,0,1-.8,0l-19.192-19.194a.566.566,0,0,1,0-.8Z" transform="translate(572.515 -189.263)" fill="#fff"/><path d="M-528.181,233.6a.566.566,0,0,1,.8,0l8.094,8.093a.566.566,0,0,1,0,.8h0a.567.567,0,0,1-.8,0l-8.094-8.092a.567.567,0,0,1,0-.8Z" transform="translate(550.822 -210.957)" fill="#fff"/><path d="M-504.841,256.938a.568.568,0,0,1,.8,0l2.493,2.492a.569.569,0,0,1,0,.8h0a.567.567,0,0,1-.8,0l-2.492-2.492a.566.566,0,0,1,0-.8Z" transform="translate(539.359 -222.42)" fill="#fff"/><path d="M-494.514,267.265a.568.568,0,0,1,.8,0l.939.94a.568.568,0,0,1,0,.8h0a.567.567,0,0,1-.8,0l-.939-.94a.566.566,0,0,1,0-.8Z" transform="translate(534.286 -227.492)" fill="#fff"/><path d="M-486.316,275.463a.57.57,0,0,1,.8,0l.939.94a.566.566,0,0,1,0,.8h0a.567.567,0,0,1-.8,0l-.941-.94a.57.57,0,0,1,0-.8Z" transform="translate(530.26 -231.519)" fill="#fff"/></g></g><g transform="translate(-498.631 93.966)"><g transform="translate(0)"><path d="M-333.87,162.862l-8.038-7.987-8.2,8.159-7.422-7.389-7.6,7.552-7.058-7.019,0,2.377,7.061,7.026,7.6-7.557,7.417,7.385,8.205-8.156,8.035,7.989,6.786-6.751v-2.375Z" transform="translate(372.193 -154.875)" fill="#fff"/><g transform="translate(0 6.351)"><path d="M-333.87,175.345l-8.038-7.989-8.2,8.159-7.422-7.388-7.6,7.552-7.058-7.019,0,2.377,7.061,7.028,7.6-7.558,7.417,7.386,8.205-8.156,8.035,7.987,6.786-6.751V168.6Z" transform="translate(372.193 -167.357)" fill="#fff"/></g></g></g><g transform="translate(-1006.16 -395.139)"><rect width="21" height="14" transform="translate(381 510)" fill="#27dee1"/><path d="M349,513h-2V495a3,3,0,0,1,3-3h54a3,3,0,0,1,3,3v9h-2v-9a1,1,0,0,0-1-1H350a1,1,0,0,0-1,1Z" fill="#231f20"/><path d="M406,552H348a1,1,0,0,1-1-1v-9h2v8h56V532h2v19A1,1,0,0,1,406,552Z" fill="#231f20"/><rect width="4" height="2" transform="translate(352 496)" fill="#231f20"/><rect width="4" height="2" transform="translate(359 496)" fill="#231f20"/><rect width="58" height="2" transform="translate(348 500)" fill="#231f20"/><path d="M391,537a1.03,1.03,0,0,1-.356-.065A1,1,0,0,1,390,536v-8h-8v-2h9a1,1,0,0,1,1,1v6.37l6.253-7.034A1,1,0,0,1,399,526h6V508H378v5h-2v-6a1,1,0,0,1,1-1h29a1,1,0,0,1,1,1v20a1,1,0,0,1-1,1h-6.551l-7.7,8.664A1,1,0,0,1,391,537Z" fill="#231f20"/><rect width="8" height="2" transform="translate(382 511)" fill="#231f20"/><rect width="19" height="2" transform="translate(382 516)" fill="#231f20"/><rect width="19" height="2" transform="translate(382 521)" fill="#231f20"/><rect width="8" height="2" transform="translate(393 511)" fill="#231f20"/><path d="M377,517v20H363v9l-8-9h-7V517Z" fill="#27dee1"/><rect width="8" height="2" transform="translate(364 521)" fill="#231f20"/><rect width="19" height="2" transform="translate(353 526)" fill="#231f20"/><rect width="19" height="2" transform="translate(353 531)" fill="#231f20"/><rect width="8" height="2" transform="translate(353 521)" fill="#231f20"/><rect width="5" height="2" transform="translate(372 541)" fill="#231f20"/><rect width="5" height="2" transform="translate(380 541)" fill="#231f20"/><rect width="5" height="2" transform="translate(388 541)" fill="#231f20"/><rect width="5" height="2" transform="translate(396 541)" fill="#231f20"/><rect width="5" height="2" transform="translate(372 545)" fill="#231f20"/><rect width="5" height="2" transform="translate(380 545)" fill="#231f20"/><rect width="5" height="2" transform="translate(388 545)" fill="#231f20"/><rect width="5" height="2" transform="translate(396 545)" fill="#231f20"/><rect width="5" height="2" transform="translate(352 505)" fill="#231f20"/><rect width="5" height="2" transform="translate(360 505)" fill="#231f20"/><rect width="5" height="2" transform="translate(368 505)" fill="#231f20"/><rect width="5" height="2" transform="translate(352 509)" fill="#231f20"/><rect width="5" height="2" transform="translate(360 509)" fill="#231f20"/><rect width="5" height="2" transform="translate(368 509)" fill="#231f20"/><rect width="2" height="20" transform="translate(347 517)" fill="#231f20"/></g></g></svg>