<svg xmlns="http://www.w3.org/2000/svg" width="64" height="64" viewBox="0 0 64 64"><g transform="translate(-161 -462)"><circle cx="21" cy="21" r="21" transform="translate(161 462)" fill="#ffec40"/><path d="M215,488c-4.094,0-6.287-2.289-8.222-4.309-1.9-1.98-3.537-3.691-6.778-3.691-3.2,0-4.6,1.686-6.232,3.64-1.7,2.044-3.632,4.36-7.768,4.36-4.092,0-6.286-2.289-8.222-4.308-1.9-1.981-3.54-3.692-6.778-3.692v-2c4.092,0,6.286,2.289,8.222,4.308,1.9,1.981,3.54,3.692,6.778,3.692,3.2,0,4.6-1.686,6.232-3.64,1.7-2.044,3.632-4.36,7.768-4.36,4.094,0,6.287,2.289,8.222,4.309,1.9,1.98,3.537,3.691,6.778,3.691Z" fill="#363f40"/><rect width="2" height="11" transform="translate(177 490)" fill="#363f40"/><rect width="2" height="7" transform="translate(183 494)" fill="#363f40"/><rect width="2" height="8" transform="translate(189 493)" fill="#363f40"/><rect width="2" height="13" transform="translate(195 488)" fill="#363f40"/><rect width="2" height="15" transform="translate(201 486)" fill="#363f40"/><rect width="2" height="10" transform="translate(207 491)" fill="#363f40"/><path d="M214,502H172a1,1,0,0,1-1-1V486h2v14h40v-6h2v7A1,1,0,0,1,214,502Z" fill="#363f40"/><path d="M221,516H165a4,4,0,0,1-4-4V472a4,4,0,0,1,4-4h56a4,4,0,0,1,4,4v40A4,4,0,0,1,221,516Zm-56-46a2,2,0,0,0-2,2v40a2,2,0,0,0,2,2h56a2,2,0,0,0,2-2V472a2,2,0,0,0-2-2Z" fill="#363f40"/><rect width="2" height="10.198" transform="translate(198.019 515.196) rotate(-11.31)" fill="#363f40"/><rect width="10.198" height="2" transform="translate(184.019 524.804) rotate(-78.679)" fill="#363f40"/><rect width="26" height="2" transform="translate(180 524)" fill="#363f40"/><rect width="2" height="2" transform="translate(192 510)" fill="#363f40"/><path d="M221,508H165V472h56Zm-54-2h52V474H167Z" fill="#363f40"/></g></svg>