<svg xmlns="http://www.w3.org/2000/svg" width="782.165" height="168.242" viewBox="0 0 782.165 168.242"><g transform="translate(-208.835 -4848.758)"><g transform="translate(409.871 4848.758)"><g transform="translate(309.675 92.716)"><path d="M138.047,309.973v-9.518H27.164a13.367,13.367,0,1,0,0,26.735h3.721v-9.518H27.164a3.849,3.849,0,1,1,0-7.7Z" transform="translate(-13.791 -300.455)" fill="#f8c44f"/></g><g transform="translate(269.662 109.93)"><path d="M212.672,357.626a21.033,21.033,0,0,0-21.018-21H136.693v9.518h54.961a11.488,11.488,0,1,1,0,22.977H79.831v9.518H191.654A21.039,21.039,0,0,0,212.672,357.626Z" transform="translate(-79.831 -336.626)" fill="#f8c44f"/></g><g transform="translate(272.517 113.737)"><path d="M87.851,379.025h1.8v-1.9h-1.8Zm5.608,0h3.807v-1.9H93.459Zm7.614,0h3.807v-1.9h-3.807Zm7.614,0H112.5v-1.9h-3.807Zm7.614,0h3.807v-1.9H116.3Zm7.614,0h3.807v-1.9h-3.807Zm7.614,0h3.807v-1.9h-3.807Zm7.614,0h3.807v-1.9h-3.807Zm7.614,0h3.807v-1.9H146.76Zm7.614,0h3.807v-1.9h-3.807Zm7.614,0H165.8v-1.9h-3.807Zm7.614,0h3.807v-1.9H169.6Zm7.614,0h3.807v-1.9h-3.807Zm7.614,0h3.807v-1.9h-3.807Zm7.614,0h3.807v-1.9h-3.807Zm7.78-.338a17.09,17.09,0,0,0,3.821-1.252l-.8-1.727a15.218,15.218,0,0,1-3.4,1.112Zm7.244-3.357a17.347,17.347,0,0,0,2.844-2.839l-1.491-1.182a15.455,15.455,0,0,1-2.532,2.526Zm4.957-6.259a17.083,17.083,0,0,0,1.259-3.82l-1.865-.379a15.228,15.228,0,0,1-1.118,3.4Zm-.31-7.763,1.9-.062a17.176,17.176,0,0,0-.6-3.975l-1.836.5A15.281,15.281,0,0,1,212.118,361.307Zm-1.877-6.845,1.667-.918a17.252,17.252,0,0,0-2.337-3.27l-1.41,1.28A15.326,15.326,0,0,1,210.24,354.462Zm-4.775-5.26,1.076-1.571a17.2,17.2,0,0,0-3.56-1.87l-.681,1.777A15.293,15.293,0,0,1,205.466,349.2Zm-6.631-2.542.248-1.887a17.428,17.428,0,0,0-2.264-.148h-1.66v1.9h1.66A15.547,15.547,0,0,1,198.835,346.661Zm-56.977-.131h3.807v-1.9h-3.807Zm7.614,0h3.807v-1.9h-3.807Zm7.614,0h3.807v-1.9h-3.807Zm7.614,0h3.807v-1.9H164.7Zm7.614,0h3.807v-1.9h-3.807Zm7.614,0h3.807v-1.9H179.93Zm7.614,0h3.807v-1.9h-3.807Z" transform="translate(-87.851 -344.626)" fill="#282d33"/></g><g transform="translate(313.483 96.523)"><path d="M114.535,327.575h3.721v-1.9h-3.721a7.657,7.657,0,1,1,0-15.313h67.491v-1.9H114.535a9.56,9.56,0,1,0,0,19.12Z" transform="translate(-104.969 -308.455)" fill="#282d33"/></g><g transform="translate(250.911 51.556)"><path d="M376.892,234.552h1.9V219.076a3.207,3.207,0,0,1,6.414,0v15.477h1.9V219.076a5.111,5.111,0,1,0-10.221,0Z" transform="translate(-376.892 -213.965)" fill="#282d33"/></g><rect width="14.594" height="8.09" transform="translate(248.724 68.212)" fill="#f8c44f"/><g transform="translate(248.724 67.26)"><rect width="14.594" height="1.904" transform="translate(0)" fill="#282d33"/></g><g transform="translate(255.07 58.853)"><rect width="1.904" height="8.883" transform="translate(0)" fill="#282d33"/></g><g transform="translate(247.455 46.797)"><g transform="translate(15.177 7.498)"><path d="M369.682,220.788h1.9a8.683,8.683,0,0,0-.066-1.068l-1.889.236A6.817,6.817,0,0,1,369.682,220.788Z" transform="translate(-369.631 -219.72)" fill="#282d33"/></g><g transform="translate(0.638 0)"><path d="M385.064,210.01l1.762-.721a8.561,8.561,0,0,0-1.116-1.947l-1.514,1.154A6.67,6.67,0,0,1,385.064,210.01ZM372.727,210a6.647,6.647,0,0,1,.869-1.513l-1.512-1.156a8.572,8.572,0,0,0-1.118,1.946Zm10.237-2.748,1.164-1.506a8.56,8.56,0,0,0-1.94-1.128l-.732,1.757A6.683,6.683,0,0,1,382.964,207.256Zm-8.135,0a6.66,6.66,0,0,1,1.509-.876l-.73-1.758a8.54,8.54,0,0,0-1.942,1.127Zm4.943-1.326.248-1.887a8.686,8.686,0,0,0-2.242,0l.246,1.887A6.8,6.8,0,0,1,379.772,205.926Z" transform="translate(-370.966 -203.965)" fill="#282d33"/></g><g transform="translate(0 7.498)"><path d="M401.523,220.788h1.9a6.739,6.739,0,0,1,.051-.833l-1.889-.236A8.683,8.683,0,0,0,401.523,220.788Z" transform="translate(-401.523 -219.72)" fill="#282d33"/></g></g><g transform="translate(231.24 51.556)"><path d="M418.226,234.552h1.9V219.076a3.207,3.207,0,1,1,6.414,0v15.477h1.9V219.076a5.111,5.111,0,1,0-10.221,0Z" transform="translate(-418.226 -213.965)" fill="#282d33"/></g><rect width="14.594" height="8.09" transform="translate(229.054 68.212)" fill="#f8c44f"/><g transform="translate(229.054 67.26)"><rect width="14.594" height="1.904" transform="translate(0)" fill="#282d33"/></g><g transform="translate(235.399 58.853)"><rect width="1.904" height="8.883" transform="translate(0)" fill="#282d33"/></g><g transform="translate(227.785 46.797)"><g transform="translate(15.177 7.497)"><path d="M411.016,220.788h1.9a8.773,8.773,0,0,0-.066-1.068l-1.889.236A6.733,6.733,0,0,1,411.016,220.788Z" transform="translate(-410.965 -219.72)" fill="#282d33"/></g><g transform="translate(0.638)"><path d="M426.4,210.01l1.762-.721a8.561,8.561,0,0,0-1.116-1.947l-1.514,1.154A6.646,6.646,0,0,1,426.4,210.01ZM414.061,210a6.66,6.66,0,0,1,.868-1.513l-1.512-1.156a8.552,8.552,0,0,0-1.117,1.946Zm10.237-2.748,1.164-1.506a8.563,8.563,0,0,0-1.94-1.128l-.732,1.757A6.645,6.645,0,0,1,424.3,207.256Zm-8.135,0a6.638,6.638,0,0,1,1.51-.876l-.731-1.758A8.561,8.561,0,0,0,415,205.745Zm4.943-1.326.247-1.887a8.707,8.707,0,0,0-2.242,0l.246,1.887A6.827,6.827,0,0,1,421.106,205.926Z" transform="translate(-412.3 -203.966)" fill="#282d33"/></g><g transform="translate(0 7.497)"><path d="M442.856,220.788h1.9a6.645,6.645,0,0,1,.052-.833l-1.889-.236A8.677,8.677,0,0,0,442.856,220.788Z" transform="translate(-442.856 -219.72)" fill="#282d33"/></g></g><g transform="translate(211.57 51.556)"><path d="M459.559,234.552h1.9V219.076a3.207,3.207,0,1,1,6.414,0v15.477h1.9V219.076a5.111,5.111,0,0,0-10.221,0Z" transform="translate(-459.559 -213.965)" fill="#282d33"/></g><rect width="14.594" height="8.09" transform="translate(209.383 68.212)" fill="#f8c44f"/><g transform="translate(209.383 67.26)"><rect width="14.594" height="1.904" transform="translate(0)" fill="#282d33"/></g><g transform="translate(215.729 58.853)"><rect width="1.904" height="8.883" transform="translate(0)" fill="#282d33"/></g><g transform="translate(208.114 46.797)"><g transform="translate(15.177 7.498)"><path d="M452.35,220.788h1.9a8.588,8.588,0,0,0-.067-1.068l-1.888.236A6.811,6.811,0,0,1,452.35,220.788Z" transform="translate(-452.298 -219.72)" fill="#282d33"/></g><g transform="translate(0.638 0)"><path d="M467.73,210.01l1.762-.721a8.563,8.563,0,0,0-1.116-1.947l-1.514,1.154A6.667,6.667,0,0,1,467.73,210.01ZM455.394,210a6.648,6.648,0,0,1,.869-1.513l-1.512-1.156a8.551,8.551,0,0,0-1.117,1.946Zm10.237-2.748,1.164-1.506a8.562,8.562,0,0,0-1.94-1.128l-.732,1.757A6.686,6.686,0,0,1,465.631,207.256Zm-8.135,0a6.659,6.659,0,0,1,1.51-.876l-.731-1.758a8.541,8.541,0,0,0-1.942,1.127Zm4.943-1.326.248-1.887a8.686,8.686,0,0,0-2.242,0l.246,1.887A6.8,6.8,0,0,1,462.438,205.926Z" transform="translate(-453.633 -203.965)" fill="#282d33"/></g><g transform="translate(0 7.498)"><path d="M484.19,220.788h1.9a6.733,6.733,0,0,1,.051-.833l-1.889-.236A8.677,8.677,0,0,0,484.19,220.788Z" transform="translate(-484.19 -219.72)" fill="#282d33"/></g></g><g transform="translate(21.882 0.952)"><path d="M743.371,166.871h19.036V131.9a24.3,24.3,0,0,0-24.271-24.271h-57.9A24.3,24.3,0,0,0,655.969,131.9v6.663h19.036V131.9a5.241,5.241,0,0,1,5.235-5.235h57.9a5.241,5.241,0,0,1,5.235,5.235Z" transform="translate(-655.969 -107.632)" fill="#b7bec0"/></g><g transform="translate(109.21 46.519)"><path d="M648.74,262.621h9.83V243.586h-9.83a5.241,5.241,0,0,1-5.235-5.235V203.382H624.469v34.969A24.3,24.3,0,0,0,648.74,262.621Z" transform="translate(-624.469 -203.382)" fill="#b7bec0"/></g><g transform="translate(20.931 0)"><g transform="translate(19.036 19.036)"><path d="M762.335,186.787h1.9V151.819a6.194,6.194,0,0,0-6.187-6.187h-57.9a6.194,6.194,0,0,0-6.187,6.187h1.9a4.288,4.288,0,0,1,4.283-4.283h57.9a4.288,4.288,0,0,1,4.283,4.283Z" transform="translate(-693.969 -145.632)" fill="#282d33"/></g><path d="M653.969,137.517h1.9v-6.663a23.346,23.346,0,0,1,23.319-23.319h57.9a23.346,23.346,0,0,1,23.319,23.319h1.9a25.251,25.251,0,0,0-25.223-25.223h-57.9a25.251,25.251,0,0,0-25.223,25.223Z" transform="translate(-653.969 -105.632)" fill="#282d33"/></g><g transform="translate(127.294 46.519)"><g transform="translate(0 0)"><path d="M630.656,244.537h9.83v-1.9h-9.83a4.288,4.288,0,0,1-4.283-4.283V203.382h-1.9v34.969A6.194,6.194,0,0,0,630.656,244.537Z" transform="translate(-624.469 -203.382)" fill="#282d33"/></g></g><g transform="translate(274.582 80.445)"><g transform="translate(7.806 4.306)"><g transform="translate(4.497)"><rect width="8.585" height="1.904" fill="#282d33"/></g><g transform="translate(0)"><rect width="2.862" height="1.904" fill="#282d33"/></g></g><g transform="translate(0)"><rect width="13.15" height="1.904" fill="#282d33"/></g></g><g transform="translate(342.109 68.327)"><g transform="translate(0 4.486)"><rect width="2.744" height="1.904" fill="#282d33"/></g><g transform="translate(2.227 0)"><rect width="2.744" height="1.903" transform="translate(1.372 3.328) rotate(-120.001)" fill="#282d33"/></g><g transform="translate(6.676 0.162)"><rect width="1.903" height="2.744" transform="translate(1.648 3.328) rotate(-150.005)" fill="#282d33"/></g><g transform="translate(8.899 4.809)"><rect width="2.745" height="1.904" fill="#282d33"/></g><g transform="translate(6.397 7.869)"><rect width="2.744" height="1.904" transform="translate(1.372 3.328) rotate(-120.001)" fill="#282d33"/></g><g transform="translate(1.947 7.707)"><rect width="1.903" height="2.746" transform="translate(1.648 3.329) rotate(-150.006)" fill="#282d33"/></g></g><g transform="translate(272.824 157.276)"><rect width="30.083" height="1.904" transform="translate(0 0)" fill="#282d33"/></g><g transform="translate(117.681 157.276)"><rect width="30.083" height="1.904" transform="translate(0 0)" fill="#282d33"/></g><g transform="translate(274.533 118.526)"><g transform="translate(0 4.451)"><rect width="10.807" height="1.904" fill="#282d33"/></g><g transform="translate(4.451 0)"><rect width="1.904" height="10.805" transform="translate(0)" fill="#282d33"/></g></g><g transform="translate(308.378 128.1)"><g transform="translate(0 2.016)"><rect width="5.935" height="1.904" fill="#282d33"/></g><g transform="translate(2.016)"><rect width="1.904" height="5.935" fill="#282d33"/></g></g><g transform="translate(327.414 156.178)"><g transform="translate(0 2.016)"><rect width="5.935" height="1.904" fill="#282d33"/></g><g transform="translate(2.016 0)"><rect width="1.904" height="5.935" fill="#282d33"/></g></g><g transform="translate(0 38.777)"><path d="M797.131,303.849a3.762,3.762,0,0,0,3.761,3.763H853.56a3.762,3.762,0,0,0,3.76-3.763V192.874a3.759,3.759,0,0,0-3.76-3.761H800.892a3.76,3.76,0,0,0-3.761,3.761Z" transform="translate(-796.179 -188.161)" fill="#fff"/><path d="M799.843,307.516h52.668a4.719,4.719,0,0,0,4.712-4.715V191.826a4.718,4.718,0,0,0-4.712-4.713H799.843a4.718,4.718,0,0,0-4.712,4.713V302.8A4.719,4.719,0,0,0,799.843,307.516Zm52.668-118.5a2.812,2.812,0,0,1,2.809,2.809V302.8a2.813,2.813,0,0,1-2.809,2.811H799.843a2.813,2.813,0,0,1-2.809-2.811V191.826a2.812,2.812,0,0,1,2.809-2.809Z" transform="translate(-795.131 -187.113)" fill="#282d33"/></g><g transform="translate(20.992 44.8)"><g transform="translate(0)"><rect width="20.108" height="1.904" fill="#282d33"/></g></g><g transform="translate(29.659 148.693)"><rect width="2.774" height="1.904" transform="translate(0)" fill="#282d33"/></g><g transform="translate(4.395 51.378)"><path d="M804.369,305.441h53.3V213.592h-53.3Zm51.4-1.9H806.273V215.5h49.494Z" transform="translate(-804.369 -213.592)" fill="#282d33"/></g><g transform="translate(9.196 130.272)"><rect width="7.815" height="7.815" transform="translate(35.967 0)" fill="#5eb4e7"/><rect width="7.815" height="7.815" transform="translate(23.978 0)" fill="#5eb4e7"/><rect width="7.815" height="7.815" transform="translate(11.989 0)" fill="#5eb4e7"/><rect width="7.815" height="7.815" transform="translate(0 0)" fill="#5eb4e7"/></g><g transform="translate(9.196 56.723)"><rect width="7.815" height="7.815" transform="translate(35.967)" fill="#5eb4e7"/><rect width="7.815" height="7.815" transform="translate(23.978)" fill="#5eb4e7"/><rect width="7.815" height="7.815" transform="translate(11.989)" fill="#5eb4e7"/><rect width="7.815" height="7.815" transform="translate(0)" fill="#5eb4e7"/></g><g transform="translate(9.196 68.556)"><rect width="7.815" height="7.816" transform="translate(35.967 0)" fill="#5eb4e7"/><rect width="7.815" height="7.816" transform="translate(23.978 0)" fill="#5eb4e7"/><rect width="7.815" height="7.816" transform="translate(11.989 0)" fill="#5eb4e7"/><rect width="7.815" height="7.816" transform="translate(0 0)" fill="#5eb4e7"/></g><rect width="7.815" height="7.815" transform="translate(45.163 80.39)" fill="#5eb4e7"/><rect width="7.815" height="7.815" transform="translate(33.174 80.39)" fill="#5eb4e7"/><rect width="22.843" height="8.09" transform="translate(19.625 30.458)" fill="#f8c44f"/><g transform="translate(19.625 29.506)"><rect width="22.843" height="1.904" transform="translate(0 0)" fill="#282d33"/></g><rect width="8.09" height="22.843" transform="translate(143.379 84.948)" fill="#f8c44f"/><g transform="translate(150.519 74.709)"><rect width="117.715" height="82.567" transform="translate(0.952 0.952)" fill="#fff"/><path d="M357.97,347.087H477.589V262.616H357.97Zm117.715-1.9H359.874V264.52H475.685Z" transform="translate(-357.97 -262.616)" fill="#282d33"/></g><g transform="translate(142.427 84.948)"><rect width="1.904" height="22.843" transform="translate(0 0)" fill="#282d33"/></g><g transform="translate(224.439 83.621)"><path d="M407.5,313.158l-3.232-3.633-.856-.962a12.478,12.478,0,1,0-18.011.01l-.848.953-3.237,3.638c-.032-.032-.067-.062-.1-.095a18.6,18.6,0,1,1,26.283.09Z" transform="translate(-375.787 -281.343)" fill="#5eb4e7"/><path d="M443.408,319.076l-.848.953-3.236,3.638c-.033-.033-.067-.062-.1-.095a18.559,18.559,0,0,1-3.063-22.186l3.723,2.1,1.616.914a12.432,12.432,0,0,0,1.907,14.672Z" transform="translate(-433.795 -291.848)" fill="#b7bec0"/><g transform="translate(4.545 32.678)"><g transform="translate(0)"><path d="M444.444,350.009" transform="translate(-444.444 -350.009)" fill="#fff" stroke="#282d33" stroke-width="4"/></g></g><g transform="translate(1.513 1.169)"><g transform="translate(15.793)"><line y2="3.18" transform="translate(0.952)" fill="#fff"/><rect width="1.904" height="3.18" transform="translate(0)" fill="#282d33"/></g><g transform="translate(22.974 1.613)"><line x1="1.589" y2="2.755" transform="translate(0.824 0.476)" fill="#fff"/><rect width="1.904" height="3.181" transform="translate(1.649 3.706) rotate(-150.022)" fill="#282d33"/></g><g transform="translate(28.597 7.395)"><line x1="2.753" y2="1.588" transform="translate(0.476 0.825)" fill="#fff"/><rect width="1.904" height="3.179" transform="matrix(-0.5, -0.866, 0.866, -0.5, 0.951, 3.237)" fill="#282d33"/></g><g transform="translate(31.16 15.796)"><line x1="3.179" transform="translate(0 0.952)" fill="#fff"/><rect width="3.179" height="1.904" transform="translate(0)" fill="#282d33"/></g><g transform="translate(29.021 22.973)"><line x1="2.755" y1="1.59" transform="translate(0.476 0.824)" fill="#fff"/><rect width="3.181" height="1.904" transform="matrix(-0.866, -0.5, 0.5, -0.866, 2.755, 3.238)" fill="#282d33"/></g><g transform="translate(2.036 23.708)"><line y1="1.589" x2="2.755" transform="translate(0.476 0.824)" fill="#fff"/><rect width="1.904" height="3.181" transform="matrix(-0.5, -0.866, 0.866, -0.5, 0.951, 3.238)" fill="#282d33"/></g><g transform="translate(0 16.641)"><line x2="3.179" transform="translate(0 0.952)" fill="#fff"/><rect width="3.179" height="1.904" fill="#282d33"/></g><g transform="translate(1.612 8.127)"><line x2="2.753" y2="1.591" transform="translate(0.476 0.824)" fill="#fff"/><rect width="3.18" height="1.904" transform="translate(2.753 3.24) rotate(-149.967)" fill="#282d33"/></g><g transform="translate(7.987 11.395)"><line x2="6.291" y2="3.633" transform="translate(0.476 0.824)" fill="#fff"/><rect width="7.265" height="1.904" transform="translate(6.292 5.281) rotate(-149.999)" fill="#282d33"/></g><g transform="translate(7.393 2.035)"><line x2="1.59" y2="2.755" transform="translate(0.825 0.476)" fill="#fff"/><rect width="3.181" height="1.904" transform="translate(1.59 3.707) rotate(-119.994)" fill="#282d33"/></g></g><g transform="translate(15.096 15.093)"><path d="M410.255,319.424a2.556,2.556,0,1,0-.747-1.806A2.549,2.549,0,0,0,410.255,319.424Z" transform="translate(-408.556 -314.105)" fill="#fff"/><path d="M411.02,320.084h0a3.516,3.516,0,0,0,3.511-3.514,3.511,3.511,0,1,0-3.514,3.514Zm0-5.124a1.617,1.617,0,0,1,1.609,1.61,1.61,1.61,0,0,1-1.608,1.61v0a1.61,1.61,0,0,1,0-3.22Z" transform="translate(-407.508 -313.057)" fill="#282d33"/></g></g><rect width="44.734" height="3.807" transform="translate(215.409 125.756)" fill="#b7bec0"/><rect width="32.361" height="3.807" transform="translate(227.783 125.756)" fill="#5eb4e7"/><g transform="translate(226.831 124.091)"><line y2="7.138" transform="translate(0.952 0)" fill="#fff"/><rect width="1.904" height="7.138" transform="translate(0 0)" fill="#282d33"/></g><rect width="44.734" height="3.807" transform="translate(215.409 138.13)" fill="#b7bec0"/><rect width="12.849" height="3.807" transform="translate(247.294 138.13)" fill="#5eb4e7"/><g transform="translate(245.867 136.464)"><line y2="7.138" transform="translate(0.952 0)" fill="#fff"/><rect width="1.904" height="7.138" transform="translate(0 0)" fill="#282d33"/></g><g transform="translate(159.888 83.282)"><g transform="translate(0)"><rect width="40.769" height="27.919" transform="translate(0.952 0.952)" fill="#fff"/><path d="M499.969,310.455h42.672V280.632H499.969Zm40.769-1.9H501.873V282.536h38.865Z" transform="translate(-499.969 -280.632)" fill="#282d33"/></g><g transform="translate(34.027 6.187)"><rect width="1.904" height="18.56" transform="translate(0)" fill="#282d33"/></g><path d="M510.8,317.5a2.538,2.538,0,1,0,2.538-2.538A2.538,2.538,0,0,0,510.8,317.5Z" transform="translate(-478.363 -298.626)" fill="#f8c44f"/><g transform="translate(25.143 6.187)"><rect width="1.904" height="18.56" transform="translate(0)" fill="#282d33"/></g><path d="M529.47,301.5a2.538,2.538,0,1,0,2.538-2.538A2.538,2.538,0,0,0,529.47,301.5Z" transform="translate(-505.914 -290.24)" fill="#f8c44f"/><g transform="translate(16.259 6.187)"><rect width="1.904" height="18.56" transform="translate(0)" fill="#282d33"/></g><path d="M548.137,317.5a2.538,2.538,0,1,0,2.538-2.538A2.538,2.538,0,0,0,548.137,317.5Z" transform="translate(-533.464 -298.626)" fill="#f8c44f"/><g transform="translate(7.376 6.187)"><rect width="1.904" height="18.56" transform="translate(0)" fill="#282d33"/></g><path d="M566.8,308.5a2.538,2.538,0,1,0,2.538-2.538A2.538,2.538,0,0,0,566.8,308.5Z" transform="translate(-561.015 -293.909)" fill="#f8c44f"/></g><g transform="translate(208.27 83.599)"><path d="M474.636,285.995a2.7,2.7,0,1,0,2.7-2.7A2.7,2.7,0,0,0,474.636,285.995Z" transform="translate(-473.684 -282.346)" fill="#fff"/><path d="M476.285,288.6a3.649,3.649,0,1,0-3.649-3.649A3.653,3.653,0,0,0,476.285,288.6Zm0-5.394a1.745,1.745,0,1,1-1.745,1.745A1.747,1.747,0,0,1,476.285,283.2Z" transform="translate(-472.636 -281.298)" fill="#282d33"/></g><path d="M474.636,307.662a2.7,2.7,0,1,0,2.7-2.7A2.7,2.7,0,0,0,474.636,307.662Z" transform="translate(-265.414 -210.103)" fill="#f8c44f"/><path d="M474.636,329.329a2.7,2.7,0,1,0,2.7-2.7A2.7,2.7,0,0,0,474.636,329.329Z" transform="translate(-265.414 -221.458)" fill="#5eb4e7"/><g transform="translate(169.186 121.642)"><line x1="28.078" y1="9.28" transform="translate(0.299 0.902)" fill="#fff"/><rect width="29.572" height="1.903" transform="matrix(-0.95, -0.314, 0.314, -0.95, 28.079, 11.085)" fill="#282d33"/></g><g transform="translate(163.456 128.911)"><rect width="32.225" height="1.904" transform="translate(26.176 20.342) rotate(-144.319)" fill="#282d33"/></g><g transform="translate(180.351 127.064)"><path d="M495.3,386.368a11.739,11.739,0,1,0,11.739-11.739A11.739,11.739,0,0,0,495.3,386.368Z" transform="translate(-494.35 -373.677)" fill="#fff"/><path d="M505.993,398.011A12.691,12.691,0,1,0,493.3,385.32,12.705,12.705,0,0,0,505.993,398.011Zm0-23.478a10.787,10.787,0,1,1-10.787,10.787A10.8,10.8,0,0,1,505.993,374.533Z" transform="translate(-493.302 -372.629)" fill="#282d33"/></g><path d="M505.3,391.609a6.98,6.98,0,1,0,6.98-6.98A6.98,6.98,0,0,0,505.3,391.609Z" transform="translate(-319.24 -251.855)" fill="#b7bec0"/><g transform="translate(158.936 118.18)"><path d="M560.3,362.942a6.98,6.98,0,1,0,6.98-6.98A6.98,6.98,0,0,0,560.3,362.942Z" transform="translate(-559.35 -355.01)" fill="#fff"/><path d="M566.234,369.826a7.932,7.932,0,1,0-7.932-7.932A7.941,7.941,0,0,0,566.234,369.826Zm0-13.96a6.028,6.028,0,1,1-6.028,6.028A6.035,6.035,0,0,1,566.234,355.866Z" transform="translate(-558.302 -353.962)" fill="#282d33"/></g><path d="M568.582,367.281a3.04,3.04,0,1,0,3.04-3.04A3.04,3.04,0,0,0,568.582,367.281Z" transform="translate(-404.754 -241.169)" fill="#b7bec0"/><g transform="translate(160.046 136.583)"><g transform="translate(0)"><line x2="5.711" transform="translate(0 0.952)" fill="#fff"/><rect width="5.711" height="1.904" fill="#282d33"/></g><g transform="translate(0 4.23)"><line x2="5.711" transform="translate(0 0.952)" fill="#fff"/><rect width="5.711" height="1.904" fill="#282d33"/></g><g transform="translate(0 8.46)"><line x2="5.711" transform="translate(0 0.952)" fill="#fff"/><rect width="5.711" height="1.904" fill="#282d33"/></g><g transform="translate(0 12.691)"><line x2="5.711" transform="translate(0 0.952)" fill="#fff"/><rect width="5.711" height="1.904" fill="#282d33"/></g></g><g transform="translate(100.717 0.793)"><rect width="1.904" height="5.076" transform="translate(0 0)" fill="#282d33"/></g><g transform="translate(95.007 0.793)"><rect width="1.904" height="8.566" transform="translate(0 0)" fill="#282d33"/></g><g transform="translate(89.296 0.793)"><rect width="1.904" height="8.566" transform="translate(0 0)" fill="#282d33"/></g><g transform="translate(83.585 0.793)"><rect width="1.904" height="8.566" transform="translate(0 0)" fill="#282d33"/></g><g transform="translate(122.767 67.261)"><rect width="5.076" height="1.904" transform="translate(0)" fill="#282d33"/></g><g transform="translate(119.277 61.55)"><rect width="8.566" height="1.904" transform="translate(0 0)" fill="#282d33"/></g><g transform="translate(119.277 55.839)"><rect width="8.566" height="1.904" transform="translate(0 0)" fill="#282d33"/></g><g transform="translate(120.705 38.389)"><rect width="8.566" height="1.904" transform="translate(0)" fill="#282d33"/></g><g transform="translate(123.878 33.313)"><rect width="5.393" height="1.904" transform="translate(0)" fill="#282d33"/></g><g transform="translate(77.874 0.793)"><rect width="1.904" height="2.855" transform="translate(0 0)" fill="#282d33"/></g><g transform="translate(72.164 0.793)"><rect width="1.904" height="8.566" transform="translate(0 0)" fill="#282d33"/></g><g transform="translate(66.453 0.793)"><rect width="1.904" height="5.394" transform="translate(0 0)" fill="#282d33"/></g><path d="M108.6,374.14v-3.023l2.51-.209a5.988,5.988,0,0,1,.437-1.132l-1.683-1.988,2.138-2.138,1.923,1.628a5.968,5.968,0,0,1,1.109-.493l.217-2.595h3.022l.209,2.51a5.889,5.889,0,0,1,1.132.437l1.988-1.682,2.138,2.137-1.628,1.924a5.994,5.994,0,0,1,.493,1.109l2.594.216v3.023l-2.509.209a6,6,0,0,1-.437,1.132l1.682,1.987-2.137,2.138-1.923-1.627a5.952,5.952,0,0,1-1.109.492l-.217,2.6H115.53l-.209-2.509a5.969,5.969,0,0,1-1.131-.437l-1.988,1.681-2.137-2.137,1.627-1.923a6.019,6.019,0,0,1-.492-1.109Zm8.3,1.241a2.89,2.89,0,1,0-2.89-2.89A2.891,2.891,0,0,0,116.9,375.381Z" transform="translate(263.607 -241.142)" fill="#b7bec0"/><g transform="translate(396.099 83.411)"><path d="M34.8,295.341a13.883,13.883,0,1,0,13.882-13.884A13.883,13.883,0,0,0,34.8,295.341Z" transform="translate(-34.727 -281.194)" fill="#f8c44f"/><g transform="translate(4.45 4.65)"><path d="M58.844,301.839,65.7,294.9l-1.354-1.339-5.5,5.567-8.353-8.456-1.354,1.338Z" transform="translate(-49.136 -290.675)" fill="#282d33"/></g><g transform="translate(9.982 10.177)"><path d="M57.625,307.307a3.019,3.019,0,1,0,3.018-3.019A3.018,3.018,0,0,0,57.625,307.307Z" transform="translate(-56.673 -303.336)" fill="#fff"/><path d="M59.595,310.229a3.97,3.97,0,1,0-3.97-3.97A3.976,3.976,0,0,0,59.595,310.229Zm0-6.037a2.067,2.067,0,1,1-2.066,2.067A2.07,2.07,0,0,1,59.595,304.192Z" transform="translate(-55.625 -302.288)" fill="#282d33"/></g><g transform="translate(0)"><g transform="translate(13.495)"><rect width="1.904" height="2.312" transform="translate(0)" fill="#282d33"/></g><g transform="translate(26.004 13.495)"><rect width="2.312" height="1.904" transform="translate(0)" fill="#282d33"/></g><g transform="translate(12.917 26.005)"><rect width="1.904" height="2.311" transform="translate(0)" fill="#282d33"/></g><g transform="translate(0 12.917)"><rect width="2.312" height="1.904" fill="#282d33"/></g></g></g><g transform="translate(379.667 72.997)"><path d="M89.2,269.66v-2.58l2.293-.191a6.958,6.958,0,0,1,.9-2.342l-1.531-1.81,1.824-1.825,1.756,1.487a7.006,7.006,0,0,1,2.3-1.017l.2-2.362h2.58l.19,2.292a6.976,6.976,0,0,1,2.343.9l1.809-1.531,1.825,1.823-1.486,1.756a6.985,6.985,0,0,1,1.016,2.3l2.363.2v2.579l-2.293.191a6.986,6.986,0,0,1-.9,2.342l1.53,1.809-1.823,1.824-1.756-1.486a7,7,0,0,1-2.3,1.016l-.2,2.364h-2.58l-.192-2.293a6.98,6.98,0,0,1-2.341-.9l-1.81,1.531-1.824-1.824,1.486-1.755a6.984,6.984,0,0,1-1.016-2.3Z" transform="translate(-89.2 -259.02)" fill="#f8c44f"/><g transform="translate(4.83 4.829)"><path d="M101.35,274.574a3.407,3.407,0,1,0,3.407-3.407A3.407,3.407,0,0,0,101.35,274.574Z" transform="translate(-100.398 -270.215)" fill="#fff"/><path d="M103.709,277.886a4.359,4.359,0,1,0-4.359-4.359A4.364,4.364,0,0,0,103.709,277.886Zm0-6.815a2.456,2.456,0,1,1-2.455,2.456A2.458,2.458,0,0,1,103.709,271.071Z" transform="translate(-99.35 -269.167)" fill="#282d33"/></g></g><g transform="translate(353.848 70.758)"><g transform="translate(0)"><path d="M160.78,280.109l-2.416-4.9c-.514-1.044-1.357-2.752-1.872-3.8l-1.524-3.09v-8.006h.532v-4h-6.319v4h.532v8.007l-1.523,3.09-1.874,3.8-2.415,4.9c-.515,1.043-.093,1.9.937,1.9h15.005C160.874,282.007,161.295,281.153,160.78,280.109Z" transform="translate(-142.731 -255.362)" fill="#fff"/><path d="M143.79,281.911H158.8a2.06,2.06,0,0,0,1.811-.927,2.387,2.387,0,0,0-.021-2.344l-5.713-11.587V260.22h.532v-5.906h-8.223v5.906h.532v6.833L142,278.641a2.389,2.389,0,0,0-.021,2.343A2.061,2.061,0,0,0,143.79,281.911Zm9.711-23.594h-.532v9.18l5.909,11.986a.723.723,0,0,1,.111.5.583.583,0,0,1-.194.027H143.79a.4.4,0,0,1-.2-.036.8.8,0,0,1,.118-.488l5.91-11.986v-9.181h-.532v-2.1H153.5Z" transform="translate(-141.683 -254.314)" fill="#282d33"/></g><path d="M161.392,293.619l-4.784-9.7-4.783,9.7Z" transform="translate(-146.999 -269.829)" fill="#f8c44f"/></g><g transform="translate(334.003 126.676)"><g transform="translate(0)"><path d="M139.154,396.576v-5.518l4.905-.408a14.939,14.939,0,0,1,1.935-5.011l-3.277-3.871,3.9-3.9,3.756,3.178a14.97,14.97,0,0,1,4.911-2.172l.423-5.056h5.518l.408,4.9a14.943,14.943,0,0,1,5.012,1.935l3.87-3.276,3.9,3.9-3.179,3.757a14.94,14.94,0,0,1,2.172,4.912l5.055.422v5.517l-4.905.409a14.94,14.94,0,0,1-1.934,5.01l3.276,3.872-3.9,3.9-3.756-3.178a14.947,14.947,0,0,1-4.912,2.173l-.421,5.055H156.4l-.409-4.906a14.92,14.92,0,0,1-5.01-1.934l-3.872,3.277-3.9-3.9,3.178-3.756A14.948,14.948,0,0,1,144.21,397Z" transform="translate(-138.201 -372.862)" fill="#fff"/><path d="M154.472,413.035h7.27l.438-5.258a15.818,15.818,0,0,0,3.944-1.739l3.886,3.288,5.14-5.141-3.407-4.028a15.807,15.807,0,0,0,1.556-4.018l5.075-.424v-7.268l-5.258-.439a15.816,15.816,0,0,0-1.739-3.943l3.288-3.886-5.142-5.14-4.026,3.408a15.814,15.814,0,0,0-4.02-1.557l-.423-5.074h-7.269l-.439,5.259a15.863,15.863,0,0,0-3.943,1.739l-3.886-3.288-5.14,5.142,3.408,4.027a15.836,15.836,0,0,0-1.557,4.02l-5.074.423v7.27l5.259.438a15.837,15.837,0,0,0,1.739,3.943l-3.288,3.886,5.141,5.14,4.028-3.408a15.815,15.815,0,0,0,4.019,1.557Zm5.518-1.9h-3.766l-.4-4.754-.711-.135a13.944,13.944,0,0,1-4.691-1.811l-.587-.359-3.728,3.155-2.664-2.663,3.08-3.64-.407-.6a13.954,13.954,0,0,1-2.034-4.6l-.161-.669-4.869-.406v-3.766l4.753-.4.136-.711a13.957,13.957,0,0,1,1.812-4.692l.359-.587-3.155-3.727,2.663-2.664,3.64,3.079.6-.406a13.969,13.969,0,0,1,4.6-2.034l.668-.161.407-4.868H159.3l.4,4.753.711.135a13.945,13.945,0,0,1,4.692,1.811l.587.359,3.728-3.155,2.664,2.663-3.08,3.64.407.6a13.947,13.947,0,0,1,2.034,4.6l.161.669,4.869.406v3.766l-4.753.4-.135.711a13.941,13.941,0,0,1-1.811,4.69l-.359.587,3.155,3.729-2.664,2.664-3.639-3.079-.6.406a13.97,13.97,0,0,1-4.6,2.034l-.669.161Z" transform="translate(-137.152 -371.814)" fill="#282d33"/></g><g transform="translate(8.231 9.664)"><g transform="translate(0)"><ellipse cx="10.946" cy="10.946" rx="10.946" ry="10.946" transform="translate(1.434)" fill="#f8c44f"/><g transform="translate(0 3.546)"><g transform="translate(16.776 2.129)"><path d="M155.628,414.832l6.8-5.392-6.8-5.392-1.183,1.492,4.92,3.9-4.92,3.9Z" transform="translate(-154.445 -404.048)" fill="#282d33"/></g><g transform="translate(0 2.13)"><path d="M196.5,414.833l1.182-1.492-4.92-3.9,4.92-3.9L196.5,404.05l-6.8,5.391Z" transform="translate(-189.696 -404.05)" fill="#282d33"/></g><g transform="translate(9.165 0)"><rect width="15.114" height="1.904" transform="translate(4.224 15.044) rotate(-106.23)" fill="#282d33"/></g></g></g></g></g><g transform="translate(365.317 53.063)"><path d="M139.675,228.554h0a5.666,5.666,0,0,0,2.179-.431l-.727-1.759a3.782,3.782,0,0,1-1.452.287Zm-2.185-.435.73-1.758a3.791,3.791,0,0,1-1.234-.827l-1.347,1.345A5.687,5.687,0,0,0,137.49,228.118Zm6.222-1.231a5.686,5.686,0,0,0,1.241-1.848l-1.757-.733a3.788,3.788,0,0,1-.828,1.233Zm-9.31-1.859,1.758-.73a3.779,3.779,0,0,1-.288-1.456l-1.394-.014-.509.006A5.692,5.692,0,0,0,134.4,225.028Zm10.989-2.175v-.01a5.677,5.677,0,0,0-.429-2.174l-1.76.725a3.793,3.793,0,0,1,.285,1.449Zm-9.224-1.48a3.788,3.788,0,0,1,.831-1.231l-1.342-1.351a5.688,5.688,0,0,0-1.245,1.846Zm6.212-1.215,1.349-1.342a5.686,5.686,0,0,0-1.847-1.243l-.735,1.756A3.808,3.808,0,0,1,142.379,220.158Zm-4.144-.839a3.79,3.79,0,0,1,1.445-.284l.015-1.9h-.015a5.684,5.684,0,0,0-2.169.426Z" transform="translate(-133.969 -217.132)" fill="#282d33"/></g><g transform="translate(322.248 82.925)"><g transform="translate(0)"><g transform="translate(0.031)"><path d="M221.477,281.882l-7.713,4.476,7.822,4.447,7.712-4.476Z" transform="translate(-212.813 -280.93)" fill="#f8c44f"/><path d="M220.539,290.709a.951.951,0,0,0,.478-.129l7.711-4.476a.952.952,0,0,0-.007-1.65l-7.821-4.447a.951.951,0,0,0-.948,0l-7.713,4.476a.951.951,0,0,0,.008,1.65l7.822,4.447A.951.951,0,0,0,220.539,290.709Zm5.8-5.42-5.806,3.37-5.907-3.358,5.807-3.37Z" transform="translate(-211.765 -279.882)" fill="#282d33"/></g><g transform="translate(0 4.476)"><g transform="translate(1.038 0.865)"><path d="M229.818,291.106l-.031,8.992,7.823,4.449.03-8.994Z" transform="translate(-229.788 -291.106)" fill="#b7bec0"/></g><path d="M236.744,304.632a.952.952,0,0,0,.952-.948l.03-8.994a.951.951,0,0,0-.482-.83l-7.822-4.447a.952.952,0,0,0-1.422.824l-.031,8.992a.952.952,0,0,0,.482.83l7.822,4.449A.954.954,0,0,0,236.744,304.632Zm-.923-9.393-.023,6.808-5.923-3.368.023-6.806Z" transform="translate(-227.969 -289.288)" fill="#282d33"/></g><g transform="translate(7.813 4.447)"><g transform="translate(0.961 0.952)"><path d="M213.8,295.7l-.03,8.994,7.713-4.477.029-8.993Z" transform="translate(-213.765 -291.227)" fill="#fff"/></g><path d="M212.717,304.6h.01a.957.957,0,0,0,.478-.128l7.713-4.477a.952.952,0,0,0,.474-.82l.029-8.993a.951.951,0,0,0-1.429-.826l-7.712,4.476a.951.951,0,0,0-.474.82l-.03,8.859a.952.952,0,0,0,.942,1.09Zm6.773-5.978-5.805,3.37.023-6.789,5.8-3.369Z" transform="translate(-211.765 -289.226)" fill="#282d33"/></g></g></g><g transform="translate(25.448 92.661)"><g transform="translate(0 0)"><g transform="translate(0)"><g transform="translate(4.809)"><line y1="2.744" transform="translate(0.952)" fill="#fff"/><rect width="1.904" height="2.744" transform="translate(0)" fill="#282d33"/></g><g transform="translate(7.869 2.226)"><line y1="1.372" x2="2.377" transform="translate(0.476 0.824)" fill="#fff"/><rect width="1.903" height="2.744" transform="matrix(-0.5, -0.866, 0.866, -0.5, 0.952, 3.021)" fill="#282d33"/></g><g transform="translate(7.708 6.676)"><line x2="2.377" y2="1.371" transform="translate(0.476 0.825)" fill="#fff"/><rect width="2.745" height="1.904" transform="translate(2.377 3.021) rotate(-150.017)" fill="#282d33"/></g><g transform="translate(4.486 8.898)"><line y2="2.746" transform="translate(0.952)" fill="#fff"/><rect width="1.904" height="2.746" transform="translate(0)" fill="#282d33"/></g><g transform="translate(0 6.396)"><line x1="2.378" y2="1.372" transform="translate(0.476 0.824)" fill="#fff"/><rect width="1.904" height="2.745" transform="translate(0.952 3.021) rotate(-119.994)" fill="#282d33"/></g><g transform="translate(0.162 1.947)"><line x1="2.378" y1="1.372" transform="translate(0.476 0.824)" fill="#fff"/><rect width="2.745" height="1.903" transform="matrix(-0.866, -0.5, 0.5, -0.866, 2.378, 3.021)" fill="#282d33"/></g></g><g transform="translate(1.127 6.717)"><path d="M857.2,318.452l-1.394,2.465-1.393,2.466,2.831-.026,2.833-.026-1.439-2.439Z" transform="translate(-852.777 -316.549)" fill="#fff"/><path d="M850.934,322.254l8.961-.082-4.551-7.72Zm5.647-1.956-2.368.021,1.165-2.061Z" transform="translate(-850.934 -314.453)" fill="#282d33"/><g transform="translate(3.519 6.751)"><rect width="3.331" height="1.904" transform="translate(0.031 3.349) rotate(-90.531)" fill="#282d33"/></g></g></g></g><g transform="translate(286.344 128.659)"><g transform="translate(0 2.958)"><path d="M290.771,391.451l11.952-.079,2.466-9.174-17,.112Zm10.489-1.973-9.052.06L290.7,384.2l12-.079Z" transform="translate(-288.184 -382.197)" fill="#282d33"/></g><g transform="translate(12.887)"><path d="M284.692,387.412,287.2,378l2.3-.115-.1-1.9-3.687.184-2.871,10.756Z" transform="translate(-282.853 -375.98)" fill="#282d33"/></g><g transform="translate(9.645 12.161)"><path d="M296.22,406.173h.016a2.327,2.327,0,1,0-.016,0Zm0-2.735a.416.416,0,1,1,.005.831l0,.952v-.952a.416.416,0,0,1,0-.831Z" transform="translate(-293.901 -401.534)" fill="#282d33"/></g><g transform="translate(3.132 12.204)"><path d="M309.9,406.263h.017a2.327,2.327,0,1,0-.017,0Zm0-2.735a.415.415,0,1,1,.006.831l0,.952v-.952a.415.415,0,0,1,0-.831Z" transform="translate(-307.585 -401.625)" fill="#282d33"/></g></g><g transform="translate(69.627 79.513)"><g transform="translate(2.823 19.474)"><rect width="15.705" height="1.904" transform="translate(0)" fill="#282d33"/></g><g transform="translate(0 33.692)"><rect width="15.705" height="1.904" transform="matrix(-0.94, -0.342, 0.342, -0.94, 14.758, 7.161)" fill="#282d33"/></g><g transform="translate(0 0)"><rect width="1.904" height="15.705" transform="translate(0.651 7.16) rotate(-109.999)" fill="#282d33"/></g></g><g transform="translate(21.326 80.39)"><rect width="7.815" height="7.815" transform="translate(0)" fill="#f8c44f"/><g transform="translate(0.94 0.94)"><g transform="translate(0 2.016)"><rect width="5.935" height="1.904" fill="#282d33"/></g><g transform="translate(2.016)"><rect width="1.904" height="5.934" fill="#282d33"/></g></g></g></g><g transform="translate(208.835 4873.477)"><g transform="translate(0 11.587)"><rect width="48.191" height="9.429" transform="translate(1.034 1.034)" fill="#fff"/><path d="M129.338,658.131H79.078v-11.5h50.26Zm-48.191-2.069h46.122V648.7H81.147Z" transform="translate(-79.078 -646.633)" fill="#282d33"/></g><g transform="translate(0 25.73)"><rect width="48.191" height="9.429" transform="translate(1.034 1.034)" fill="#fff"/><path d="M129.338,685.477H79.078v-11.5h50.26Zm-48.191-2.069h46.122v-7.36H81.147Z" transform="translate(-79.078 -673.979)" fill="#282d33"/></g><g transform="translate(168.602 104.394)"><g transform="translate(0 2.855)"><line x1="7.78" y2="0.001" transform="translate(0 1.034)" fill="#fff"/><rect width="7.78" height="2.069" fill="#282d33"/></g><g transform="translate(2.856 0)"><line y1="7.781" transform="translate(1.034)" fill="#fff"/><rect width="2.069" height="7.781" fill="#282d33"/></g></g><rect width="19.381" height="19.381" transform="translate(134.644 100.448)" fill="#b7bec0"/><g transform="translate(141.065 107.27)"><g transform="translate(19.381 19.381)"><rect width="2.069" height="2.069" fill="#282d33"/></g><g transform="translate(3.992 19.382)"><path d="M373.016,871.184h-1.923v-2.069h1.923Zm-3.847,0h-1.923v-2.069h1.923Zm-3.847,0H363.4v-2.069h1.923Zm-3.847,0h-1.923v-2.069h1.923Z" transform="translate(-359.551 -869.115)" fill="#282d33"/></g><g transform="translate(0 19.381)"><rect width="2.069" height="2.069" fill="#282d33"/></g><g transform="translate(0 3.992)"><path d="M353.9,852.824h-2.069V850.9H353.9Zm0-3.847h-2.069v-1.923H353.9Zm0-3.847h-2.069v-1.924H353.9Zm0-3.847h-2.069v-1.924H353.9Z" transform="translate(-351.832 -839.359)" fill="#282d33"/></g><g transform="translate(0 0)"><rect width="2.069" height="2.069" fill="#282d33"/></g><g transform="translate(3.992)"><path d="M373.016,833.709h-1.923V831.64h1.923Zm-3.847,0h-1.923V831.64h1.923Zm-3.847,0H363.4V831.64h1.923Zm-3.847,0h-1.923V831.64h1.923Z" transform="translate(-359.551 -831.64)" fill="#282d33"/></g><g transform="translate(19.381 0)"><rect width="2.069" height="2.069" fill="#282d33"/></g><g transform="translate(19.381 3.992)"><path d="M391.375,852.824h-2.069V850.9h2.069Zm0-3.847h-2.069v-1.923h2.069Zm0-3.847h-2.069v-1.924h2.069Zm0-3.847h-2.069v-1.924h2.069Z" transform="translate(-389.306 -839.359)" fill="#282d33"/></g></g><g transform="translate(28.355 47.143)"><g transform="translate(0 0)"><path d="M150.6,813.192a1.61,1.61,0,0,0-1.61-1.61h-1.372a2.059,2.059,0,0,0,.166-.813v-4.023h-11v4.023a2.05,2.05,0,0,0,.167.813h-1.374a1.61,1.61,0,0,0-1.609,1.61V853.23a1.61,1.61,0,0,0,1.611,1.609h13.409a1.609,1.609,0,0,0,1.609-1.609Z" transform="translate(-133.936 -759.493)" fill="#b7bec0"/><g transform="translate(7.314 10.253)"><line x1="0.001" y1="36.967" transform="translate(1.034)" fill="#fff"/><rect width="2.069" height="36.967" fill="#282d33"/></g><g transform="translate(3.552)"><path d="M146.093,729.58l-3.159-3.88,1.839-8.319h3.677l1.84,8.319-3.16,3.882Z" transform="translate(-141.817 -716.347)" fill="#fff"/><path d="M146.578,729.651l-2.021,0L140.773,725l2.127-9.619h5.338L150.366,725Zm-1.036-2.07h.054l2.533-3.112-1.553-7.019h-2.016l-1.552,7.019Z" transform="translate(-140.773 -715.381)" fill="#282d33"/></g><g transform="translate(4.095 56.621)"><line y2="34.193" transform="translate(1.034)" fill="#fff"/><rect width="2.069" height="34.193" fill="#282d33"/></g><g transform="translate(10.532 56.621)"><line y2="34.193" transform="translate(1.034)" fill="#fff"/><rect width="2.069" height="34.193" fill="#282d33"/></g><g transform="translate(0 51.247)"><line x2="16.662" transform="translate(0 1.034)" fill="#fff"/><rect width="16.662" height="2.069" fill="#282d33"/></g></g></g><path d="M391.982,734.814a20.028,20.028,0,1,1-20.028-20.028A20.028,20.028,0,0,1,391.982,734.814Z" transform="translate(-210.812 -667.951)" fill="#cdd5d7"/><g transform="translate(124.976 0.215)"><path d="M322.793,698h-2.069V643.424a18.767,18.767,0,1,1,37.535,0v20.167H356.19V643.424a16.7,16.7,0,1,0-33.4,0Z" transform="translate(-320.724 -624.644)" fill="#282d33"/></g><g transform="translate(99.377 51.471)"><path d="M271.227,815.8v-2.069a25.578,25.578,0,0,0,25.545-25.554V723.749h2.069v64.429A27.65,27.65,0,0,1,271.227,815.8Z" transform="translate(-271.227 -723.749)" fill="#282d33"/></g><g transform="translate(71.773 91.804)"><path d="M245.468,853.455a27.65,27.65,0,0,1-27.614-27.623v-24.1h2.069v24.1a25.579,25.579,0,0,0,25.545,25.555Z" transform="translate(-217.854 -801.736)" fill="#282d33"/></g><g transform="translate(133.349 38.764)"><g transform="translate(0 0.348)"><g transform="translate(26.988)"><rect width="2.069" height="4.736" fill="#282d33"/></g><g transform="translate(17.408 1.319)"><rect width="2.069" height="4.736" transform="matrix(0.94, -0.342, 0.342, 0.94, 0, 0.707)" fill="#282d33"/></g><g transform="translate(9.098 5.877)"><rect width="2.069" height="4.736" transform="matrix(0.766, -0.643, 0.643, 0.766, 0, 1.33)" fill="#282d33"/></g><g transform="translate(3.063 13.126)"><rect width="2.069" height="4.736" transform="translate(0 1.792) rotate(-60.001)" fill="#282d33"/></g><g transform="translate(0.027 22.19)"><rect width="2.069" height="4.736" transform="translate(0 2.037) rotate(-80.001)" fill="#282d33"/></g><g transform="translate(0 31.154)"><rect width="4.736" height="2.069" transform="matrix(0.985, -0.173, 0.173, 0.985, 0, 0.821)" fill="#282d33"/></g><g transform="translate(2.984 38.936)"><rect width="4.735" height="2.069" transform="matrix(0.866, -0.5, 0.5, 0.866, 0, 2.368)" fill="#282d33"/></g><g transform="translate(47.688 39.073)"><rect width="2.069" height="4.736" transform="matrix(0.5, -0.866, 0.866, 0.5, 0, 1.792)" fill="#282d33"/></g><g transform="translate(50.836 31.309)"><rect width="2.069" height="4.736" transform="translate(0 2.037) rotate(-79.984)" fill="#282d33"/></g><g transform="translate(50.863 22.347)"><rect width="4.736" height="2.069" transform="matrix(0.985, -0.173, 0.173, 0.985, 0, 0.821)" fill="#282d33"/></g><g transform="translate(47.767 13.264)"><rect width="4.736" height="2.069" transform="matrix(0.866, -0.5, 0.5, 0.866, 0, 2.367)" fill="#282d33"/></g><g transform="translate(42.279 5.98)"><rect width="4.736" height="2.069" transform="translate(0 3.627) rotate(-49.982)" fill="#282d33"/></g><g transform="translate(35.062 1.374)"><rect width="4.736" height="2.069" transform="translate(0 4.45) rotate(-69.967)" fill="#282d33"/></g></g><g transform="translate(11.895)"><g transform="translate(3.744)"><g transform="translate(9.573)"><rect width="3.329" height="7.491" transform="translate(1.034 1.034)" fill="#fff"/><path d="M391.057,708.739h-5.4V699.18h5.4Zm-3.329-2.069h1.26v-5.422h-1.26Z" transform="translate(-385.66 -699.18)" fill="#282d33"/></g><g transform="translate(8.74 9.432)"><path d="M387.581,724.48a3.535,3.535,0,0,1-3.531-3.531,1.034,1.034,0,1,1,2.069,0,1.463,1.463,0,1,0,1.463-1.463,1.034,1.034,0,1,1,0-2.069,3.531,3.531,0,1,1,0,7.062Z" transform="translate(-384.05 -717.418)" fill="#282d33"/></g><g transform="translate(0 12.06)"><path d="M368.78,738.817l-1.629-1.274L378.608,722.9a1.034,1.034,0,0,1,.815-.4h0a1.034,1.034,0,0,1,.815.4l11.456,14.647-1.63,1.274-10.642-13.605Z" transform="translate(-367.151 -722.499)" fill="#282d33"/></g></g><g transform="translate(0 22.438)"><path d="M12.281,0h4.988A12.282,12.282,0,0,1,29.55,12.282v4.986A12.282,12.282,0,0,1,17.268,29.55H12.281A12.281,12.281,0,0,1,0,17.27V12.281A12.281,12.281,0,0,1,12.281,0Z" transform="translate(1.034 1.035)" fill="#5eb4e7"/><path d="M384.144,774.183H367.3a7.394,7.394,0,0,1-7.386-7.387V749.951a7.4,7.4,0,0,1,7.386-7.387h16.847a7.4,7.4,0,0,1,7.386,7.387V766.8A7.394,7.394,0,0,1,384.144,774.183ZM367.3,744.633a5.324,5.324,0,0,0-5.317,5.318V766.8a5.323,5.323,0,0,0,5.317,5.318h16.847a5.323,5.323,0,0,0,5.317-5.318V749.951a5.324,5.324,0,0,0-5.317-5.318Z" transform="translate(-359.911 -742.564)" fill="#282d33"/></g></g><g transform="translate(17.566 24.589)"><path d="M386.771,746.724l-5.991,9.443h8.8l-12.058,15.489,3.258-8.874h-9.9l5.753-16.058Z" transform="translate(-370.877 -746.724)" fill="#fff"/></g></g><g transform="translate(47.176 26.251)"><path d="M193.594,732.837h19.54a11.582,11.582,0,0,1,1.714-5.8c7.21-9.286,7.672-18.131,7.672-18.755a19.14,19.14,0,1,0-38.28,0c0,.625.449,9.465,7.668,18.755A11.48,11.48,0,0,1,193.594,732.837Z" transform="translate(-177.028 -681.822)" fill="#f8c44f"/><g transform="translate(11.255 11.364)"><path d="M194.125,711.986h-2.069a15.081,15.081,0,0,1,15.1-15.026v2.069A13.009,13.009,0,0,0,194.125,711.986Z" transform="translate(-192.056 -696.96)" fill="#fff"/></g><g transform="translate(16.456 29.744)"><g transform="translate(0 0)"><rect width="2.069" height="21.375" transform="matrix(0.984, -0.177, 0.177, 0.984, 0, 0.367)" fill="#282d33"/></g><g transform="translate(13.97 0)"><rect width="21.375" height="2.069" transform="translate(0 21.036) rotate(-79.79)" fill="#282d33"/></g></g><g transform="translate(17.247 30.502)"><path d="M218.241,736.948l-2.577-.912-2.575.912H212.4l-2.572-.912-2.574.912h-.691l-2.918-1.034.691-1.95,2.573.912,2.575-.912h.691l2.572.912,2.575-.912h.691l2.577.912,2.577-.912.69,1.95-2.922,1.034Z" transform="translate(-203.643 -733.964)" fill="#282d33"/></g><g transform="translate(13.908 50.207)"><rect width="24.891" height="2.069" fill="#282d33"/><g transform="translate(0 4.835)"><rect width="24.891" height="2.069" fill="#282d33"/></g><g transform="translate(0 9.671)"><rect width="24.891" height="2.069" fill="#282d33"/></g><g transform="translate(3.385 14.506)"><rect width="18.121" height="2.069" fill="#282d33"/></g><g transform="translate(1.854 1.292)"><rect width="2.069" height="9.188" fill="#282d33"/></g></g><g transform="translate(0 0)"><g transform="translate(25.319)"><rect width="2.069" height="3.795" fill="#282d33"/></g><g transform="translate(18.534 0.63)"><rect width="2.069" height="3.795" transform="translate(0 0.535) rotate(-14.997)" fill="#282d33"/></g><g transform="translate(12.281 3.013)"><rect width="2.069" height="3.795" transform="matrix(0.866, -0.5, 0.5, 0.866, 0, 1.034)" fill="#282d33"/></g><g transform="translate(6.988 6.987)"><rect width="2.069" height="3.795" transform="translate(0 1.463) rotate(-44.995)" fill="#282d33"/></g><g transform="translate(3.014 12.28)"><rect width="2.069" height="3.795" transform="translate(0 1.792) rotate(-60.001)" fill="#282d33"/></g><g transform="translate(0.63 18.532)"><rect width="2.069" height="3.796" transform="translate(0 1.999) rotate(-74.993)" fill="#282d33"/></g><g transform="translate(0 25.318)"><rect width="3.795" height="2.069" fill="#282d33"/></g><g transform="translate(0.63 31.192)"><rect width="3.795" height="2.069" transform="translate(0 0.982) rotate(-14.996)" fill="#282d33"/></g><g transform="translate(3.013 36.736)"><rect width="3.795" height="2.069" transform="matrix(0.866, -0.5, 0.5, 0.866, 0, 1.897)" fill="#282d33"/></g><g transform="translate(6.986 41.572)"><rect width="3.795" height="2.069" transform="matrix(0.707, -0.707, 0.707, 0.707, 0, 2.683)" fill="#282d33"/></g><g transform="translate(41.572 41.573)"><rect width="2.069" height="3.795" transform="matrix(0.707, -0.707, 0.707, 0.707, 0, 1.463)" fill="#282d33"/></g><g transform="translate(45.371 36.737)"><rect width="2.069" height="3.795" transform="translate(0 1.791) rotate(-59.992)" fill="#282d33"/></g><g transform="translate(47.874 31.193)"><rect width="2.069" height="3.795" transform="matrix(0.259, -0.966, 0.966, 0.259, 0, 1.998)" fill="#282d33"/></g><g transform="translate(48.912 25.319)"><rect width="3.795" height="2.069" fill="#282d33"/></g><g transform="translate(47.875 18.535)"><rect width="3.795" height="2.069" transform="matrix(0.966, -0.259, 0.259, 0.966, 0, 0.982)" fill="#282d33"/></g><g transform="translate(45.372 12.281)"><rect width="3.795" height="2.069" transform="matrix(0.866, -0.5, 0.5, 0.866, 0, 1.898)" fill="#282d33"/></g><g transform="translate(41.574 6.988)"><rect width="3.794" height="2.069" transform="translate(0 2.683) rotate(-45)" fill="#282d33"/></g><g transform="translate(36.737 3.014)"><rect width="3.795" height="2.069" transform="translate(0 3.286) rotate(-60.005)" fill="#282d33"/></g><g transform="translate(31.194 0.631)"><rect width="3.795" height="2.069" transform="translate(0 3.665) rotate(-74.999)" fill="#282d33"/></g></g></g><g transform="translate(77.727 92.208)"><path d="M254.177,845.24h-7.61l-.455-5.449a16.416,16.416,0,0,1-4.026-1.775l-4.026,3.407-5.38-5.382,3.531-4.173a16.385,16.385,0,0,1-1.589-4.1l-5.257-.439,0-7.608,5.449-.456a16.429,16.429,0,0,1,1.775-4.025l-3.406-4.026,5.382-5.381,4.173,3.532a16.4,16.4,0,0,1,4.1-1.589l.439-5.256h7.608l.456,5.45a16.426,16.426,0,0,1,4.026,1.774l4.026-3.406,5.38,5.382-3.531,4.173a16.433,16.433,0,0,1,1.589,4.1l5.256.438v7.61l-5.45.454a16.421,16.421,0,0,1-1.774,4.026l3.406,4.025-5.381,5.381-4.173-3.531a16.422,16.422,0,0,1-4.1,1.589Zm-5.706-2.069h3.8l.409-4.906.772-.147a14.385,14.385,0,0,0,4.835-1.867l.637-.391,3.848,3.256,2.689-2.688-3.179-3.757.442-.65a14.391,14.391,0,0,0,2.1-4.74l.175-.727,5.025-.419v-3.8l-4.907-.409-.147-.772a14.387,14.387,0,0,0-1.866-4.835l-.39-.637,3.256-3.847-2.689-2.689-3.757,3.179-.65-.442a14.376,14.376,0,0,0-4.74-2.1l-.727-.175-.419-5.025h-3.8l-.409,4.906-.772.147a14.386,14.386,0,0,0-4.835,1.867l-.638.39-3.847-3.256-2.689,2.689,3.18,3.758-.442.65a14.368,14.368,0,0,0-2.1,4.738l-.175.727-5.024.419v3.8l4.907.409.147.772a14.359,14.359,0,0,0,1.866,4.834l.39.638-3.256,3.848,2.689,2.689,3.757-3.179.65.442a14.365,14.365,0,0,0,4.739,2.1l.727.175Z" transform="translate(-229.366 -802.516)" fill="#282d33"/></g><path d="M271.348,834.331a10.164,10.164,0,1,1-10.164-10.164A10.165,10.165,0,0,1,271.348,834.331Z" transform="translate(-162.093 -720.762)" fill="#f8c44f"/><g transform="translate(91.727 106.207)"><path d="M271.092,837.912a6.329,6.329,0,1,1-6.328-6.329A6.329,6.329,0,0,1,271.092,837.912Z" transform="translate(-257.401 -830.549)" fill="#fff"/><path d="M263.8,844.309a7.363,7.363,0,1,1,7.363-7.363A7.372,7.372,0,0,1,263.8,844.309Zm0-12.658a5.294,5.294,0,1,0,5.294,5.294A5.3,5.3,0,0,0,263.8,831.652Z" transform="translate(-256.435 -829.583)" fill="#282d33"/></g><path d="M357.2,655.751v-4.378l-3.634-.3a8.6,8.6,0,0,0-.632-1.638l2.435-2.879-3.095-3.095-2.785,2.356a8.664,8.664,0,0,0-1.605-.713l-.314-3.757H343.2l-.3,3.634a8.611,8.611,0,0,0-1.639.633l-2.879-2.436-3.1,3.1,2.356,2.784a8.739,8.739,0,0,0-.713,1.6l-3.756.314v4.377l3.634.3a8.585,8.585,0,0,0,.632,1.639L335,660.171l3.094,3.095,2.785-2.357a8.521,8.521,0,0,0,1.606.714l.313,3.756h4.377l.3-3.634a8.459,8.459,0,0,0,1.638-.633L352,663.548l3.1-3.094-2.356-2.784a8.649,8.649,0,0,0,.712-1.606Zm-12.016,1.8a4.184,4.184,0,1,1,4.184-4.185A4.185,4.185,0,0,1,345.187,657.546Z" transform="translate(-201.757 -632.493)" fill="#b7bec0"/><g transform="translate(5.225 16.301)"><rect width="1.034" height="2.069" fill="#282d33"/><g transform="translate(3.159 0)"><path d="M118.653,657.817h-2.124v-2.069h2.124Zm-4.248,0h-2.124v-2.069h2.124Zm-4.248,0h-2.124v-2.069h2.124Zm-4.249,0h-2.124v-2.069h2.124Zm-4.248,0H99.536v-2.069h2.124Zm-4.249,0H95.288v-2.069h2.124Z" transform="translate(-95.288 -655.748)" fill="#282d33"/></g><g transform="translate(28.649)"><rect width="1.034" height="2.069" fill="#282d33"/></g></g><g transform="translate(5.225 30.445)"><rect width="1.034" height="2.069" fill="#282d33"/><g transform="translate(3.159 0)"><path d="M118.653,685.164h-2.124v-2.069h2.124Zm-4.248,0h-2.124v-2.069h2.124Zm-4.248,0h-2.124v-2.069h2.124Zm-4.249,0h-2.124v-2.069h2.124Zm-4.248,0H99.536v-2.069h2.124Zm-4.249,0H95.288v-2.069h2.124Z" transform="translate(-95.288 -683.095)" fill="#282d33"/></g><g transform="translate(28.649)"><rect width="1.034" height="2.069" fill="#282d33"/></g></g><g transform="translate(42.328 0)"><g transform="translate(1.484)"><path d="M174.178,637.807h-2.069v-8.515a2.808,2.808,0,0,0-2.565-2.994h-1.121a2.808,2.808,0,0,0-2.566,2.994v8.515h-2.069v-8.515a4.868,4.868,0,0,1,4.635-5.063h1.121a4.868,4.868,0,0,1,4.634,5.063Z" transform="translate(-163.789 -624.229)" fill="#282d33"/></g><rect width="13.358" height="11.516" transform="translate(0 7.405)" fill="#f8c44f"/><path d="M172.684,644.935a1.312,1.312,0,0,0-1.232,1.38,1.415,1.415,0,0,0,.6,1.18l-.279,2.347h1.821l-.278-2.347a1.416,1.416,0,0,0,.6-1.18,1.312,1.312,0,0,0-1.232-1.38Z" transform="translate(-166.005 -634.226)" fill="#282d33"/></g><g transform="translate(166.563 29.234)"><g transform="translate(0 0)"><rect width="10.153" height="2.069" fill="#282d33"/></g><g transform="translate(12.086 0)"><rect width="3.384" height="2.069" fill="#282d33"/></g></g><g transform="translate(175.728 24.782)"><g transform="translate(0)"><rect width="10.153" height="2.069" fill="#282d33"/></g><g transform="translate(12.087)"><rect width="3.384" height="2.069" fill="#282d33"/></g></g><g transform="translate(1.533 64.393)"><path d="M105.925,753.907c-1.464,0-2.127-1.207-2.611-2.088-.316-.575-.576-1.015-.8-1.015s-.482.44-.8,1.015c-.484.881-1.147,2.088-2.612,2.088s-2.128-1.207-2.612-2.088c-.316-.575-.576-1.015-.8-1.015s-.482.44-.8,1.015c-.484.881-1.147,2.088-2.611,2.088s-2.128-1.207-2.612-2.088c-.316-.575-.576-1.015-.8-1.015s-.485.44-.8,1.016c-.485.881-1.149,2.087-2.614,2.087s-2.129-1.207-2.613-2.087c-.317-.576-.577-1.016-.8-1.016v-2.069c1.466,0,2.13,1.206,2.614,2.087.317.576.577,1.016.8,1.016s.485-.44.8-1.016c.485-.881,1.149-2.087,2.614-2.087s2.128,1.207,2.612,2.087c.316.576.576,1.016.8,1.016s.482-.44.8-1.016c.484-.881,1.147-2.087,2.611-2.087s2.128,1.207,2.612,2.087c.317.576.576,1.016.8,1.016s.483-.44.8-1.016c.484-.881,1.147-2.087,2.611-2.087s2.128,1.207,2.612,2.087c.316.576.575,1.016.8,1.016Z" transform="translate(-82.043 -748.735)" fill="#282d33"/></g></g><g transform="translate(249.996 4234.21)"><g transform="translate(620.653 644.351)"><g transform="translate(0)"><rect width="44.798" height="30.332" transform="translate(0.921 0.921)" fill="#fff"/><path d="M698.484,677.479H651.843V645.3h46.641Zm-44.8-1.843h42.955V647.147H653.686Z" transform="translate(-651.843 -645.304)" fill="#282d33"/></g><rect width="39.198" height="24.732" transform="translate(3.721 3.721)" fill="#b7bec0"/><path d="M701.965,676.32l-2.885,1.665-2.887,1.667v-6.666l2.887,1.666Z" transform="translate(-675.759 -660.232)" fill="#fff"/><g transform="translate(7.221 34.879)"><rect width="34.007" height="1.843" fill="#282d33"/></g><g transform="translate(44.008 34.879)"><rect width="2.645" height="1.843" fill="#282d33"/></g><g transform="translate(0 34.109)"><rect width="1.843" height="3.383" fill="#282d33"/></g><g transform="translate(2.8 34.109)"><rect width="1.843" height="3.383" fill="#282d33"/></g><path d="M681.1,720.662a2,2,0,1,1-2-2A2,2,0,0,1,681.1,720.662Z" transform="translate(-665.46 -684.861)" fill="#f8c44f"/></g><g transform="translate(675.882 646.912)"><g transform="translate(0 2.544)"><line x1="6.931" y2="0.001" transform="translate(0 0.921)" fill="#fff"/><rect width="6.931" height="1.843" fill="#282d33"/></g><g transform="translate(2.544 0)"><line y1="6.931" transform="translate(0.921)" fill="#fff"/><rect width="1.843" height="6.931" fill="#282d33"/></g></g><path d="M630.355,693.286l-4.555,2.63-4.555,2.63V688.027l4.555,2.629Z" transform="translate(-14.69 -23.991)" fill="#5eb4e7"/><rect width="6.121" height="6.12" transform="translate(595.652 654.898)" fill="#b7bec0"/><g transform="translate(597.857 643.538)"><g transform="translate(12.793 12.793)"><rect width="1.843" height="1.843" fill="#282d33"/></g><g transform="translate(3.407 12.793)"><path d="M617.584,673.146H616.02V671.3h1.564Zm-3.128,0h-1.564V671.3h1.564Zm-3.128,0h-1.564V671.3h1.564Z" transform="translate(-609.763 -671.303)" fill="#282d33"/></g><g transform="translate(0 12.793)"><rect width="1.843" height="1.843" fill="#282d33"/></g><g transform="translate(0 3.407)"><path d="M604.211,658.753h-1.843v-1.564h1.843Zm0-3.128h-1.843V654.06h1.843Zm0-3.128h-1.843v-1.564h1.843Z" transform="translate(-602.368 -650.932)" fill="#282d33"/></g><g transform="translate(0)"><rect width="1.843" height="1.843" fill="#282d33"/></g><g transform="translate(3.407 0)"><path d="M617.584,645.381H616.02v-1.843h1.564Zm-3.128,0h-1.564v-1.843h1.564Zm-3.128,0h-1.564v-1.843h1.564Z" transform="translate(-609.763 -643.538)" fill="#282d33"/></g><g transform="translate(12.793)"><rect width="1.843" height="1.843" fill="#282d33"/></g><g transform="translate(12.793 3.407)"><path d="M631.976,658.753h-1.843v-1.564h1.843Zm0-3.128h-1.843V654.06h1.843Zm0-3.128h-1.843v-1.564h1.843Z" transform="translate(-630.133 -650.932)" fill="#282d33"/></g></g><g transform="translate(682.036 665.553)"><g transform="translate(0)"><rect width="21.127" height="21.126" transform="translate(0.921 0.921)" fill="#fff"/><path d="M808.039,714.29h-22.97V691.321h22.97Zm-21.127-1.843H806.2V693.164H786.912Z" transform="translate(-785.069 -691.321)" fill="#282d33"/></g><g transform="translate(0.27 0.27)"><line y1="21.126" x2="21.127" transform="translate(0.651 0.652)" fill="#fff"/><rect width="29.878" height="1.843" transform="translate(0 21.127) rotate(-45)" fill="#282d33"/></g><g transform="translate(0.27 0.27)"><line x2="21.127" y2="21.126" transform="translate(0.652 0.652)" fill="#fff"/><rect width="1.843" height="29.878" transform="matrix(0.707, -0.707, 0.707, 0.707, 0, 1.303)" fill="#282d33"/></g></g><g transform="translate(717.472 703.217)"><path d="M880,783.5v-2.53l-2.248-.187a6.817,6.817,0,0,0-.886-2.3l1.5-1.775-1.789-1.788-1.721,1.457a6.863,6.863,0,0,0-2.251-1l-.193-2.317h-2.529l-.187,2.247a6.849,6.849,0,0,0-2.3.886l-1.775-1.5-1.789,1.788,1.457,1.721a6.856,6.856,0,0,0-1,2.252l-2.318.194v2.529l2.249.187a6.839,6.839,0,0,0,.886,2.3l-1.5,1.775,1.788,1.789,1.722-1.457a6.845,6.845,0,0,0,2.252,1l.192,2.318H872.1l.188-2.248a6.854,6.854,0,0,0,2.3-.886l1.775,1.5,1.789-1.788-1.457-1.721a6.852,6.852,0,0,0,1-2.252Z" transform="translate(-861.981 -773.066)" fill="#f8c44f"/><g transform="translate(4.748 4.747)"><path d="M880.968,788.71a3.341,3.341,0,1,1-3.341-3.341A3.341,3.341,0,0,1,880.968,788.71Z" transform="translate(-873.365 -784.448)" fill="#fff"/><path d="M876.549,791.895a4.263,4.263,0,1,1,4.262-4.263A4.267,4.267,0,0,1,876.549,791.895Zm0-6.683a2.42,2.42,0,1,0,2.419,2.42A2.422,2.422,0,0,0,876.549,785.212Z" transform="translate(-872.287 -783.369)" fill="#282d33"/></g></g><g transform="translate(707.436 644.469)"><g transform="translate(0 0)"><g transform="translate(2.27 2.438)"><g transform="translate(21.827 21.828)"><rect width="1.843" height="1.843" fill="#282d33"/></g><g transform="translate(3.66 21.828)"><path d="M869.42,700.069H867.6v-1.843h1.817Zm-3.633,0H863.97v-1.843h1.817Zm-3.633,0h-1.817v-1.843h1.817Zm-3.633,0H856.7v-1.843h1.817Zm-3.633,0H853.07v-1.843h1.817Z" transform="translate(-853.07 -698.226)" fill="#282d33"/></g><g transform="translate(0 21.828)"><rect width="1.843" height="1.843" fill="#282d33"/></g><g transform="translate(0 3.66)"><path d="M846.969,675.146h-1.843V673.33h1.843Zm0-3.634h-1.843V669.7h1.843Zm0-3.633h-1.843v-1.817h1.843Zm0-3.634h-1.843v-1.817h1.843Zm0-3.633h-1.843v-1.817h1.843Z" transform="translate(-845.126 -658.795)" fill="#282d33"/></g><g transform="translate(0 0)"><rect width="1.843" height="1.843" fill="#282d33"/></g><g transform="translate(3.66)"><path d="M869.42,652.694H867.6v-1.843h1.817Zm-3.633,0H863.97v-1.843h1.817Zm-3.633,0h-1.817v-1.843h1.817Zm-3.634,0H856.7v-1.843h1.817Zm-3.633,0h-1.817v-1.843h1.817Z" transform="translate(-853.069 -650.851)" fill="#282d33"/></g><g transform="translate(21.827 0)"><rect width="1.843" height="1.843" fill="#282d33"/></g><g transform="translate(21.827 3.66)"><path d="M894.343,675.146H892.5V673.33h1.843Zm0-3.634H892.5V669.7h1.843Zm0-3.633H892.5v-1.817h1.843Zm0-3.633H892.5v-1.817h1.843Zm0-3.634H892.5v-1.817h1.843Z" transform="translate(-892.5 -658.795)" fill="#282d33"/></g></g><rect width="5.549" height="5.548" transform="translate(0.921 0.922)" fill="#fff"/><path d="M847.591,652.95H840.2v-7.391h7.392Zm-5.549-1.843h3.706v-3.7h-3.706Z" transform="translate(-840.199 -645.559)" fill="#282d33"/><g transform="translate(20.82)"><rect width="5.549" height="5.548" transform="translate(0.921 0.922)" fill="#fff"/><path d="M892.779,652.95h-7.392v-7.391h7.392Zm-5.549-1.843h3.706v-3.7H887.23Z" transform="translate(-885.387 -645.559)" fill="#282d33"/></g><g transform="translate(20.82 21.157)"><rect width="5.549" height="5.548" transform="translate(0.921 0.921)" fill="#fff"/><path d="M892.779,698.869h-7.392v-7.39h7.392Zm-5.549-1.843h3.706v-3.7H887.23Z" transform="translate(-885.387 -691.479)" fill="#282d33"/></g><g transform="translate(0 21.158)"><rect width="5.549" height="5.547" transform="translate(0.921 0.921)" fill="#fff"/><path d="M847.591,698.87H840.2v-7.39h7.392Zm-5.549-1.843h3.706v-3.7h-3.706Z" transform="translate(-840.199 -691.48)" fill="#282d33"/></g></g></g><g transform="translate(594.004 674.599)"><path d="M594,798.761h87.807L594,710.954Zm16.182-16.181V750.02l32.56,32.56Z" transform="translate(-594.004 -710.954)" fill="#cdd5d7"/><g transform="translate(0 81.509)"><line x2="7.168" transform="translate(0 0.921)" fill="#fff"/><rect width="7.168" height="1.843" fill="#282d33"/></g><g transform="translate(0 74.52)"><line x2="4.123" transform="translate(0 0.921)" fill="#fff"/><rect width="4.123" height="1.843" fill="#282d33"/></g><g transform="translate(0 67.532)"><line x2="7.168" transform="translate(0 0.921)" fill="#fff"/><rect width="7.168" height="1.843" fill="#282d33"/></g><g transform="translate(0 60.542)"><line x2="4.123" transform="translate(0 0.921)" fill="#fff"/><rect width="4.123" height="1.843" fill="#282d33"/></g><g transform="translate(0 53.554)"><line x2="7.168" transform="translate(0 0.921)" fill="#fff"/><rect width="7.168" height="1.843" fill="#282d33"/></g><g transform="translate(0 46.565)"><line x2="4.123" transform="translate(0 0.921)" fill="#fff"/><rect width="4.123" height="1.843" fill="#282d33"/></g><g transform="translate(0 39.577)"><line x2="7.168" transform="translate(0 0.921)" fill="#fff"/><rect width="7.168" height="1.843" fill="#282d33"/></g><g transform="translate(0 32.587)"><line x2="4.123" transform="translate(0 0.921)" fill="#fff"/><rect width="4.123" height="1.843" fill="#282d33"/></g><g transform="translate(0 25.599)"><line x2="7.168" transform="translate(0 0.921)" fill="#fff"/><rect width="7.168" height="1.843" fill="#282d33"/></g><g transform="translate(0 18.611)"><line x2="4.123" transform="translate(0 0.921)" fill="#fff"/><rect width="4.123" height="1.843" fill="#282d33"/></g><g transform="translate(0 11.622)"><line x2="7.168" transform="translate(0 0.921)" fill="#fff"/><rect width="7.168" height="1.843" fill="#282d33"/></g></g><g transform="translate(603.04 695.476)"><g transform="translate(0 0.269)"><path d="M626.377,766.686h-1.372l-7.2-3.917,7.2-3.919h1.372" transform="translate(-615.874 -757.928)" fill="#fff"/><path d="M624.12,766.529h-1.606l-8.9-4.839,8.9-4.84h1.606v1.843h-1.137l-5.509,3,5.509,3h1.137Z" transform="translate(-613.617 -756.85)" fill="#282d33"/></g><g transform="translate(9.419)"><rect width="83.715" height="8.374" transform="translate(0.922 0.922)" fill="#f8c44f"/><path d="M717.775,758.109v6.531H635.9v-6.531h81.873m1.843-1.843H634.059v10.217h85.559V756.266Z" transform="translate(-634.059 -756.266)" fill="#282d33"/></g><g transform="translate(11.578 4.187)"><rect width="82.657" height="1.843" fill="#282d33"/></g><g transform="translate(102.033 0.061)"><path d="M835.07,766.651h3.323a.834.834,0,0,0,.741-.906v-6.437a.837.837,0,0,0-.74-.91H835.07" transform="translate(-835.07 -757.477)" fill="#fff"/><path d="M838.393,766.494H835.07v-1.843h3.143v-6.41H835.07V756.4h3.324a1.755,1.755,0,0,1,1.662,1.832v6.437A1.753,1.753,0,0,1,838.393,766.494Z" transform="translate(-835.07 -756.398)" fill="#282d33"/></g><rect width="6.047" height="10.217" transform="translate(96.023 0)" fill="#b7bec0"/></g><g transform="translate(688.596 698.848)"><path d="M838.161,790.676H799.308v-1.843h38.853a11.7,11.7,0,1,0,0-23.407H823.8v-1.843h14.358a13.547,13.547,0,1,1,0,27.093Z" transform="translate(-799.308 -763.583)" fill="#282d33"/></g><g transform="translate(623.831 724.135)"><path d="M660.585,838.312h-1.843a19.87,19.87,0,0,1,19.85-19.844h45.869v1.843H678.592A18.024,18.024,0,0,0,660.585,838.312Z" transform="translate(-658.742 -818.468)" fill="#282d33"/></g><g transform="translate(623.831 743.972)"><path d="M695.746,881.366H678.592a19.87,19.87,0,0,1-19.851-19.844h1.843a18.025,18.025,0,0,0,18.008,18h17.154Z" transform="translate(-658.741 -861.522)" fill="#282d33"/></g><g transform="translate(660.647 736.101)"><g transform="translate(5.21 0)"><rect width="26.581" height="1.843" fill="#282d33"/></g><g transform="translate(5.21 3.468)"><rect width="26.581" height="1.843" fill="#282d33"/></g><rect width="3.363" height="3.363" transform="translate(0 0)" fill="#f8c44f"/><rect width="31.265" height="10.733" transform="translate(0.272 20.69)" fill="#5eb4e7"/><g transform="translate(7.971 25.135)"><rect width="15.866" height="1.843" fill="#282d33"/></g><g transform="translate(5.21 11.2)"><rect width="26.581" height="1.843" fill="#282d33"/></g><g transform="translate(5.21 14.668)"><rect width="26.581" height="1.843" fill="#282d33"/></g><rect width="3.363" height="3.363" transform="translate(0 11.2)" fill="#f8c44f"/><g transform="translate(10.42 29.998)"><g transform="translate(4.404)"><line y1="2.691" transform="translate(0.921)" fill="#fff"/><rect width="1.843" height="2.691" fill="#282d33"/></g><g transform="translate(0 2.194)"><line x1="2.331" y1="1.345" transform="translate(0.461 0.798)" fill="#fff"/><rect width="1.843" height="2.691" transform="translate(0 1.596) rotate(-60.004)" fill="#282d33"/></g><g transform="translate(0.158 6.557)"><line x1="2.332" y2="1.345" transform="translate(0.46 0.798)" fill="#fff"/><rect width="2.692" height="1.843" transform="matrix(0.866, -0.5, 0.5, 0.866, 0, 1.345)" fill="#282d33"/></g><g transform="translate(4.721 8.726)"><line y2="2.693" transform="translate(0.921)" fill="#fff"/><rect width="1.843" height="2.693" fill="#282d33"/></g><g transform="translate(7.715 6.282)"><line x2="2.331" y2="1.346" transform="translate(0.461 0.798)" fill="#fff"/><rect width="1.843" height="2.692" transform="translate(0 1.596) rotate(-59.997)" fill="#282d33"/></g><g transform="translate(7.557 1.919)"><line y1="1.346" x2="2.331" transform="translate(0.461 0.798)" fill="#fff"/><rect width="2.692" height="1.843" transform="matrix(0.866, -0.5, 0.5, 0.866, 0, 1.345)" fill="#282d33"/></g><g transform="translate(1.102 6.61)"><path d="M769.958,927.893l1.367,2.417,1.366,2.418-2.776-.025-2.778-.025,1.411-2.393Z" transform="translate(-765.532 -926.05)" fill="#fff"/><path d="M772.4,931.507l-8.746-.078,4.442-7.535Zm-5.537-1.893,2.362.021-1.162-2.056Z" transform="translate(-763.654 -923.893)" fill="#282d33"/><g transform="translate(3.431 6.597)"><rect width="3.267" height="1.843" transform="matrix(0.009, -1, 1, 0.009, 0, 3.267)" fill="#282d33"/></g></g></g></g><g transform="translate(643.243 712.072)"><path d="M722.148,796.893c-1.3,0-1.9-1.075-2.327-1.86-.282-.512-.513-.9-.711-.9s-.43.392-.711.9c-.431.785-1.022,1.86-2.327,1.86s-1.9-1.075-2.328-1.86c-.282-.512-.513-.9-.711-.9s-.429.392-.71.9c-.431.785-1.022,1.86-2.326,1.86s-1.9-1.075-2.327-1.86c-.282-.513-.514-.9-.713-.9s-.431.393-.713.9c-.432.785-1.023,1.86-2.328,1.86s-1.9-1.075-2.329-1.86c-.282-.512-.513-.9-.713-.9v-1.843c1.305,0,1.9,1.075,2.328,1.86.282.512.514.9.714.9s.431-.393.713-.9c.432-.785,1.023-1.86,2.328-1.86s1.9,1.075,2.327,1.86c.282.513.514.9.713.9s.429-.392.711-.9c.431-.785,1.021-1.86,2.326-1.86s1.9,1.075,2.327,1.86c.282.513.513.9.712.9s.43-.392.711-.9c.432-.785,1.022-1.86,2.327-1.86s1.9,1.075,2.326,1.86c.281.512.513.9.712.9Z" transform="translate(-700.873 -792.286)" fill="#282d33"/></g></g></g></svg>