<svg xmlns="http://www.w3.org/2000/svg" xmlns:xlink="http://www.w3.org/1999/xlink" width="300" height="139.761" viewBox="0 0 300 139.761"><defs><linearGradient id="a" x1="-0.322" y1="8.088" x2="-0.326" y2="13.364" gradientUnits="objectBoundingBox"><stop offset="0" stop-color="#3912c8"/><stop offset="0.1" stop-color="#521dd0"/><stop offset="0.237" stop-color="#6e28d8"/><stop offset="0.385" stop-color="#8432df"/><stop offset="0.547" stop-color="#9438e4"/><stop offset="0.733" stop-color="#9d3ce7"/><stop offset="1" stop-color="#a03ee8"/></linearGradient><linearGradient id="b" x1="4.036" y1="4.161" x2="4.032" y2="7.067" gradientUnits="objectBoundingBox"><stop offset="0" stop-color="#bd64ff"/><stop offset="0.266" stop-color="#ba62fe"/><stop offset="0.452" stop-color="#b15efb"/><stop offset="0.613" stop-color="#a156f6"/><stop offset="0.76" stop-color="#8b4bef"/><stop offset="0.897" stop-color="#6f3de7"/><stop offset="1" stop-color="#5530df"/></linearGradient><linearGradient id="c" x1="4.734" y1="6.596" x2="4.731" y2="8.874" gradientUnits="objectBoundingBox"><stop offset="0" stop-color="#745fdf"/><stop offset="0.058" stop-color="#8167e3"/><stop offset="0.202" stop-color="#9d79ed"/><stop offset="0.356" stop-color="#b387f5"/><stop offset="0.526" stop-color="#c391fa"/><stop offset="0.721" stop-color="#cc97fe"/><stop offset="1" stop-color="#cf99ff"/></linearGradient><linearGradient id="d" x1="5.797" y1="4.449" x2="5.793" y2="6.123" gradientUnits="objectBoundingBox"><stop offset="0" stop-color="#e0c1ff"/><stop offset="0.292" stop-color="#ddbefd"/><stop offset="0.495" stop-color="#d4b7fa"/><stop offset="0.672" stop-color="#c4acf4"/><stop offset="0.833" stop-color="#ae9beb"/><stop offset="0.983" stop-color="#9285e0"/><stop offset="1" stop-color="#8f83df"/></linearGradient><linearGradient id="e" x1="-1.707" y1="6.014" x2="-1.71" y2="7.214" gradientUnits="objectBoundingBox"><stop offset="0" stop-color="#f4abef"/><stop offset="0.462" stop-color="#d4abf6"/><stop offset="0.996" stop-color="#b5adff"/></linearGradient><linearGradient id="f" x1="10.37" y1="5.283" x2="10.367" y2="5.983" gradientUnits="objectBoundingBox"><stop offset="0" stop-color="#e0c1ff"/><stop offset="0.389" stop-color="#e2bffc"/><stop offset="0.66" stop-color="#e8b9f3"/><stop offset="0.895" stop-color="#f3afe3"/><stop offset="1" stop-color="#fba9da"/></linearGradient><linearGradient id="g" x1="-12.431" y1="88.807" x2="-12.434" y2="82.549" xlink:href="#a"/><linearGradient id="h" x1="-7.646" y1="156.071" x2="-7.65" y2="147.575" xlink:href="#a"/><linearGradient id="i" x1="-6.018" y1="74.908" x2="-6.021" y2="69.261" xlink:href="#e"/><linearGradient id="j" x1="-13.235" y1="43.1" x2="-13.239" y2="39.252" xlink:href="#c"/><linearGradient id="k" x1="-6.53" y1="88.071" x2="-6.534" y2="84.83" xlink:href="#a"/><linearGradient id="l" x1="-19.024" y1="104.472" x2="-19.027" y2="101.023" xlink:href="#c"/><linearGradient id="m" x1="-10.302" y1="68.762" x2="-10.298" y2="73.603" xlink:href="#e"/><linearGradient id="n" x1="-20.267" y1="79.921" x2="-20.263" y2="86.068" xlink:href="#b"/><linearGradient id="o" x1="-3.94" y1="111.651" x2="-3.936" y2="118.281" gradientUnits="objectBoundingBox"><stop offset="0" stop-color="#a03ee8"/><stop offset="0.267" stop-color="#9d3ce7"/><stop offset="0.453" stop-color="#9438e4"/><stop offset="0.615" stop-color="#8432df"/><stop offset="0.763" stop-color="#6e28d8"/><stop offset="0.9" stop-color="#521dd0"/><stop offset="1" stop-color="#3912c8"/></linearGradient><linearGradient id="p" x1="-10.533" y1="85.586" x2="-10.529" y2="82.199" xlink:href="#c"/><linearGradient id="q" x1="-14.337" y1="58.113" x2="-14.334" y2="54.792" xlink:href="#c"/><linearGradient id="r" x1="-5.272" y1="124.996" x2="-5.269" y2="119.994" xlink:href="#c"/><linearGradient id="s" x1="-14.944" y1="93.133" x2="-14.94" y2="90.114" xlink:href="#c"/><linearGradient id="t" x1="-19.23" y1="43.004" x2="-19.226" y2="45.979" xlink:href="#d"/><linearGradient id="u" x1="-12.939" y1="68.289" x2="-12.935" y2="71.771" xlink:href="#d"/><linearGradient id="v" x1="-8.984" y1="72.691" x2="-8.981" y2="78.952" xlink:href="#d"/><linearGradient id="w" x1="-4.511" y1="150.277" x2="-4.508" y2="157.947" xlink:href="#c"/><linearGradient id="x" x1="-15.533" y1="61.852" x2="-15.529" y2="57.933" xlink:href="#f"/><linearGradient id="y" x1="-2.805" y1="170.624" x2="-2.802" y2="160.527" xlink:href="#f"/><linearGradient id="z" x1="-11.516" y1="48.017" x2="-11.513" y2="41.276" xlink:href="#f"/><linearGradient id="aa" x1="-7.044" y1="48.278" x2="-7.04" y2="44.504" xlink:href="#e"/><linearGradient id="ab" x1="-11.441" y1="70.375" x2="-11.437" y2="67.13" xlink:href="#f"/><linearGradient id="ac" x1="-10.079" y1="82.226" x2="-10.075" y2="79.719" xlink:href="#f"/><linearGradient id="ad" x1="-6.19" y1="42.984" x2="-6.186" y2="38.124" xlink:href="#f"/><linearGradient id="ae" x1="-8.418" y1="82.302" x2="-8.415" y2="79.705" xlink:href="#f"/><linearGradient id="af" x1="-43.496" y1="181.021" x2="-43.492" y2="176.707" xlink:href="#f"/><linearGradient id="ag" x1="-44.265" y1="143.869" x2="-44.261" y2="139.558" xlink:href="#f"/><linearGradient id="ah" x1="-45.785" y1="99.329" x2="-45.781" y2="95.017" xlink:href="#f"/><linearGradient id="ai" x1="-14.148" y1="199.054" x2="-14.144" y2="194.74" xlink:href="#f"/><linearGradient id="aj" x1="-10.588" y1="263.406" x2="-10.584" y2="259.093" xlink:href="#f"/><linearGradient id="ak" x1="-5.652" y1="78.433" x2="-5.648" y2="71.242" xlink:href="#f"/><linearGradient id="al" x1="-9.244" y1="72.149" x2="-9.24" y2="67.416" xlink:href="#f"/></defs><g transform="translate(-151.078 -56.905)"><g transform="translate(241.123 76.427)"><g transform="translate(15.783 9.126)"><g transform="translate(62.504 83.101)"><path d="M430.152,242.738q-.69.343-1.393.663Q429.463,243.082,430.152,242.738Z" transform="translate(-428.759 -242.738)" fill="#f9b584"/></g><g transform="translate(4.999 23.106)"><path d="M325.8,135.044q.13-.248.263-.494Q325.927,134.8,325.8,135.044Z" transform="translate(-325.797 -134.55)" fill="#f9b584"/></g><g transform="translate(64.369 82.388)"><path d="M433,241.452c-.3.161-.6.317-.9.471C432.4,241.769,432.7,241.613,433,241.452Z" transform="translate(-432.098 -241.452)" fill="#f9b584"/></g><g transform="translate(65.802 81.622)"><path d="M435.488,240.071q-.41.24-.825.472Q435.079,240.311,435.488,240.071Z" transform="translate(-434.663 -240.071)" fill="#f9b584"/></g><g transform="translate(6.344 21.035)"><path d="M328.2,130.992c.036-.06.075-.118.112-.177C328.279,130.874,328.24,130.933,328.2,130.992Z" transform="translate(-328.204 -130.815)" fill="#f9b584"/></g><g transform="translate(10.566 14.993)"><path d="M335.765,120.336c.12-.139.238-.278.359-.416C336,120.058,335.885,120.2,335.765,120.336Z" transform="translate(-335.765 -119.92)" fill="#f9b584"/></g><g transform="translate(9.147 16.898)"><path d="M333.223,123.6c.064-.082.13-.161.194-.242C333.353,123.436,333.287,123.515,333.223,123.6Z" transform="translate(-333.223 -123.355)" fill="#f9b584"/></g><g transform="translate(7.552 18.879)"><path d="M330.368,127.394q.158-.234.319-.466C330.58,127.083,330.474,127.239,330.368,127.394Z" transform="translate(-330.368 -126.928)" fill="#f9b584"/></g><g transform="translate(69.724 77.737)"><path d="M444.177,233.065q-1.21.989-2.491,1.892Q442.966,234.055,444.177,233.065Z" transform="translate(-441.686 -233.065)" fill="#f9b584"/></g><g transform="translate(75.937 73.207)"><path d="M453.861,224.9q-.516.568-1.052,1.117Q453.344,225.463,453.861,224.9Z" transform="translate(-452.809 -224.895)" fill="#f9b584"/></g><g transform="translate(76.992 69.411)"><path d="M457.775,218.051a44.108,44.108,0,0,1-3.076,3.791A44.03,44.03,0,0,0,457.775,218.051Z" transform="translate(-454.699 -218.051)" fill="#f9b584"/></g><g transform="translate(80.097 68.092)"><path d="M461.146,215.672q-.432.647-.887,1.278Q460.714,216.319,461.146,215.672Z" transform="translate(-460.259 -215.672)" fill="#f9b584"/></g><g transform="translate(81.039 66.685)"><path d="M462.8,213.135q-.413.671-.85,1.326Q462.381,213.806,462.8,213.135Z" transform="translate(-461.945 -213.135)" fill="#f9b584"/></g><g transform="translate(74.833 74.51)"><path d="M451.753,227.246q-.452.46-.919.907Q451.3,227.706,451.753,227.246Z" transform="translate(-450.834 -227.246)" fill="#f9b584"/></g><g transform="translate(68.458 79.877)"><path d="M440.324,236.923c-.3.207-.6.412-.906.612C439.723,237.335,440.025,237.13,440.324,236.923Z" transform="translate(-439.418 -236.923)" fill="#f9b584"/></g><g transform="translate(12.382 13.138)"><path d="M339.015,116.851c.091-.094.185-.184.277-.276C339.2,116.668,339.106,116.757,339.015,116.851Z" transform="translate(-339.015 -116.575)" fill="#f9b584"/></g><g transform="translate(72.408 76.725)"><path d="M447.491,231.24q-.493.433-1,.851Q447,231.672,447.491,231.24Z" transform="translate(-446.491 -231.24)" fill="#f9b584"/></g><g transform="translate(73.671 75.658)"><path d="M449.662,229.315q-.448.423-.91.833Q449.213,229.738,449.662,229.315Z" transform="translate(-448.752 -229.315)" fill="#f9b584"/></g><g transform="translate(67.153 80.796)"><path d="M437.907,238.58q-.41.261-.824.513Q437.5,238.842,437.907,238.58Z" transform="translate(-437.083 -238.58)" fill="#f9b584"/></g><g transform="translate(19.953 6.799)"><path d="M352.571,105.526c.2-.13.4-.255.6-.382C352.974,105.272,352.77,105.4,352.571,105.526Z" transform="translate(-352.571 -105.144)" fill="#f9b584"/></g><g transform="translate(14.724 1.155)"><path d="M343.209,123.052a43.927,43.927,0,0,0,.24,4.527c3.2,2.839,6.874,5.232,13.064,5.232,15.225,0,15.225-14.474,30.449-14.474,14.938,0,15.225,13.918,29.6,14.459a43.418,43.418,0,0,0-9.674-22.851,35.915,35.915,0,0,1-44.35-14.978,44.021,44.021,0,0,0-12.869,5.266,42.039,42.039,0,0,0-2.445,4.544A43.371,43.371,0,0,0,343.209,123.052Zm12.455-15.673a8.9,8.9,0,1,1-8.965,8.9A8.933,8.933,0,0,1,355.664,107.378Z" transform="translate(-343.209 -94.967)" fill="#f9b584"/></g><g transform="translate(20.192 48.721)"><path d="M391.328,195.207c-15.232,0-15.232-14.466-30.464-14.466A17.984,17.984,0,0,0,353,182.389a44.359,44.359,0,0,0,57.037,18.775,43.589,43.589,0,0,0,4.667-2.471,43.347,43.347,0,0,0,6.177-17.939C406.546,181.318,406.252,195.207,391.328,195.207Z" transform="translate(-352.999 -180.741)" fill="#f9b584"/></g><g transform="translate(17.771 8.333)"><path d="M348.664,108.282c.167-.124.333-.25.5-.372C349,108.032,348.831,108.158,348.664,108.282Z" transform="translate(-348.664 -107.91)" fill="#f9b584"/></g><g transform="translate(13.994 11.468)"><path d="M341.9,113.939c.135-.125.269-.252.4-.375C342.171,113.688,342.037,113.814,341.9,113.939Z" transform="translate(-341.902 -113.564)" fill="#f9b584"/></g><g transform="translate(16.001 9.762)"><path d="M345.5,110.806c.131-.108.266-.212.4-.318C345.762,110.594,345.627,110.7,345.5,110.806Z" transform="translate(-345.496 -110.488)" fill="#f9b584"/></g><g transform="translate(34.049)"><path d="M408.673,111.634a35.789,35.789,0,0,0,13.487-2.617,44.2,44.2,0,0,0-34.227-16.133,44.843,44.843,0,0,0-10.123,1.155A35.755,35.755,0,0,0,408.673,111.634Z" transform="translate(-377.811 -92.884)" fill="#da6666"/></g><g transform="translate(14.964 24.525)"><path d="M356.7,151.583c-6.189,0-9.861-2.393-13.064-5.232a43.265,43.265,0,0,0,3.772,13.755c.449.97.939,1.917,1.455,2.847a17.984,17.984,0,0,1,7.865-1.648c15.232,0,15.232,14.466,30.464,14.466,14.923,0,15.218-13.889,29.552-14.452a43.75,43.75,0,0,0,0-9.752c-14.371-.541-14.658-14.459-29.6-14.459C371.927,137.109,371.927,151.583,356.7,151.583Zm42.9,4.857c0,5.356-5.511,9.7-12.309,9.7s-12.31-4.342-12.31-9.7,5.511-9.7,12.31-9.7S399.606,151.084,399.606,156.44Z" transform="translate(-343.639 -137.109)" fill="#da6666"/></g><g transform="translate(16.395 11.76)"><path d="M8.961.014A8.9,8.9,0,1,1,8.99,17.823,8.9,8.9,0,1,1,8.961.014Z" transform="matrix(0.973, -0.23, 0.23, 0.973, 0, 4.09)" fill="#da6666"/></g><g transform="translate(46.312 34.158)"><ellipse cx="12.309" cy="9.698" rx="12.309" ry="9.698" fill="#f9b584"/></g><g transform="translate(75.752 74.324)"><path d="M452.663,226.91c-.061.063-.123.124-.184.186C452.54,227.034,452.6,226.973,452.663,226.91Z" transform="translate(-452.479 -226.91)" fill="#f9b584"/></g><g transform="translate(69.364 79.629)"><path d="M441.4,236.477c-.119.084-.24.164-.36.247C441.161,236.641,441.282,236.561,441.4,236.477Z" transform="translate(-441.041 -236.477)" fill="#f9b584"/></g><g transform="translate(80.985 68.011)"><path d="M461.9,215.526l-.054.081Z" transform="translate(-461.848 -215.526)" fill="#f9b584"/></g><g transform="translate(81.889 66.674)"><path d="M463.474,213.115h0l-.007.011Z" transform="translate(-463.467 -213.115)" fill="#f9b584"/></g><g transform="translate(72.215 77.576)"><path d="M446.339,232.774c-.064.054-.128.109-.193.161C446.211,232.883,446.274,232.828,446.339,232.774Z" transform="translate(-446.146 -232.774)" fill="#f9b584"/></g><g transform="translate(12.659 11.843)"><path d="M339.511,115.535q.653-.661,1.335-1.294Q340.165,114.875,339.511,115.535Z" transform="translate(-339.511 -114.241)" fill="#f9b584"/></g><g transform="translate(76.989 73.203)"><path d="M454.7,224.888l0,0Z" transform="translate(-454.693 -224.888)" fill="#f9b584"/></g><g transform="translate(73.408 76.491)"><path d="M448.544,230.818c-.088.078-.174.157-.262.234C448.37,230.975,448.457,230.9,448.544,230.818Z" transform="translate(-448.282 -230.818)" fill="#f9b584"/></g><g transform="translate(80.068 69.37)"><path d="M460.236,217.976l-.03.042Z" transform="translate(-460.206 -217.976)" fill="#f9b584"/></g><g transform="translate(74.58 75.417)"><path d="M450.634,228.881l-.253.241Z" transform="translate(-450.381 -228.881)" fill="#f9b584"/></g><g transform="translate(6.456 19.345)"><path d="M328.4,129.458q.528-.858,1.1-1.689Q328.935,128.6,328.4,129.458Z" transform="translate(-328.405 -127.769)" fill="#f9b584"/></g><g transform="translate(16.4 8.704)"><path d="M346.21,109.638q.674-.542,1.371-1.058Q346.884,109.1,346.21,109.638Z" transform="translate(-346.21 -108.58)" fill="#f9b584"/></g><g transform="translate(7.872 17.139)"><path d="M330.94,125.531c.412-.589.835-1.172,1.275-1.74C331.775,124.359,331.352,124.941,330.94,125.531Z" transform="translate(-330.94 -123.791)" fill="#f9b584"/></g><g transform="translate(10.926 13.414)"><path d="M336.408,118.652q.71-.806,1.456-1.579Q337.116,117.844,336.408,118.652Z" transform="translate(-336.408 -117.073)" fill="#f9b584"/></g><g transform="translate(5.262 21.212)"><path d="M326.268,133.029c.347-.64.7-1.274,1.081-1.894C326.972,131.755,326.615,132.389,326.268,133.029Z" transform="translate(-326.268 -131.135)" fill="#f9b584"/></g><g transform="translate(14.399 10.081)"><path d="M342.627,112.449q.785-.712,1.6-1.387Q343.411,111.737,342.627,112.449Z" transform="translate(-342.627 -111.062)" fill="#f9b584"/></g><g transform="translate(9.341 15.409)"><path d="M333.57,122.159q.6-.759,1.226-1.489Q334.168,121.4,333.57,122.159Z" transform="translate(-333.57 -120.67)" fill="#f9b584"/></g><g transform="translate(4.012 23.6)"><path d="M324.03,137.426c.311-.672.643-1.331.987-1.985C324.673,136.094,324.341,136.754,324.03,137.426Z" transform="translate(-324.03 -135.441)" fill="#f9b584"/></g><g transform="translate(20.558 6.396)"><path d="M354.292,104.418c-.215.13-.425.269-.638.4.206-.129.416-.252.623-.378Z" transform="translate(-353.654 -104.418)" fill="#f9b584"/></g><g transform="translate(66.627 81.308)"><path d="M436.667,239.505q-.262.159-.526.314Q436.4,239.664,436.667,239.505Z" transform="translate(-436.141 -239.505)" fill="#f9b584"/></g><g transform="translate(65.271 82.094)"><path d="M434.244,240.922c-.176.1-.352.2-.531.294C433.891,241.119,434.067,241.02,434.244,240.922Z" transform="translate(-433.713 -240.922)" fill="#f9b584"/></g><g transform="translate(63.897 82.86)"><path d="M431.725,242.3c-.157.08-.313.163-.472.242C431.412,242.465,431.568,242.382,431.725,242.3Z" transform="translate(-431.253 -242.302)" fill="#f9b584"/></g><g transform="translate(67.978 80.488)"><path d="M439.039,238.026c-.159.1-.32.205-.48.307C438.719,238.231,438.88,238.13,439.039,238.026Z" transform="translate(-438.559 -238.026)" fill="#f9b584"/></g><g transform="translate(18.272 7.181)"><path d="M349.562,106.985q.826-.595,1.681-1.152Q350.388,106.389,349.562,106.985Z" transform="translate(-349.562 -105.833)" fill="#f9b584"/></g><g transform="translate(4.012 50.369)"><path d="M378.915,206.443a44.155,44.155,0,0,1-38.705-22.73c-6.362,3-9.275,9.283-16.179,11.773a44.233,44.233,0,0,0,20,20.753c3.74-5.38,10.829-9.013,18.957-9.013,8.562,0,15.968,4.028,19.539,9.883q.7-.319,1.393-.663c.159-.079.315-.161.472-.242.3-.155.6-.311.9-.471.178-.1.354-.2.531-.294q.416-.232.825-.472.264-.155.526-.314.416-.252.824-.513c.16-.1.321-.2.48-.307.3-.2.607-.4.906-.612.12-.083.241-.164.36-.247q1.28-.9,2.491-1.892c.065-.053.128-.108.193-.161q.507-.418,1-.851c.088-.077.175-.156.262-.234q.461-.411.91-.833l.253-.241q.466-.447.919-.907c.061-.062.123-.124.184-.186q.535-.55,1.052-1.117l0,0a44.106,44.106,0,0,0,3.076-3.791l.03-.042q.455-.631.887-1.278l.054-.081q.436-.655.85-1.326l.007-.011a43.59,43.59,0,0,1-4.667,2.471A44.1,44.1,0,0,1,378.915,206.443Z" transform="translate(-324.03 -183.713)" fill="#da6666"/></g><g transform="translate(4.012 6.421)"><path d="M334.742,127.282a43.371,43.371,0,0,1,4.012-18.275,42.046,42.046,0,0,1,2.445-4.544c-.208.126-.418.248-.623.378s-.405.252-.6.382q-.855.557-1.681,1.152c-.169.122-.335.248-.5.372q-.7.517-1.371,1.058c-.132.106-.268.21-.4.318q-.818.675-1.6,1.387c-.136.124-.27.25-.4.375q-.681.634-1.335,1.294c-.092.093-.186.182-.277.276q-.748.771-1.456,1.579c-.121.138-.24.277-.359.416q-.628.731-1.226,1.489c-.064.081-.13.16-.194.242-.44.568-.863,1.15-1.275,1.74q-.162.232-.319.466-.566.832-1.1,1.689c-.037.059-.076.118-.112.177-.378.62-.734,1.254-1.081,1.894q-.133.246-.263.494c-.344.653-.676,1.313-.987,1.985,4.724,1.71,7.578,5.193,10.952,8.182A43.928,43.928,0,0,1,334.742,127.282Z" transform="translate(-324.03 -104.463)" fill="#da6666"/></g><g transform="translate(0 25.585)"><path d="M335.582,160.957A43.263,43.263,0,0,1,331.81,147.2c-3.373-2.989-6.228-6.473-10.952-8.182a43.641,43.641,0,0,0,0,36.557c6.9-2.489,9.818-8.77,16.179-11.773C336.521,162.874,336.031,161.927,335.582,160.957Z" transform="translate(-316.846 -139.02)" fill="#853854"/></g><g transform="translate(24.008 73.881)"><path d="M378.789,226.112c-8.128,0-15.218,3.633-18.957,9.013a44.512,44.512,0,0,0,38.5.87C394.758,230.14,387.351,226.112,378.789,226.112Z" transform="translate(-359.832 -226.112)" fill="#853854"/></g></g><g transform="translate(6.591)"><path d="M353.66,182.427a52.994,52.994,0,1,1,40.99-18.941h0A53.16,53.16,0,0,1,358.4,182.22Q356.025,182.427,353.66,182.427Zm.134-105.244a52.69,52.69,0,0,0-40.357,18.642,52.67,52.67,0,1,0,74.143-6.441A52.624,52.624,0,0,0,353.794,77.183Z" transform="translate(-300.387 -76.427)" fill="#f9b584"/><g transform="translate(82.941 8.204)"><path d="M456.832,98.554a4.518,4.518,0,0,1-6.335.55,4.442,4.442,0,0,1-.554-6.289,4.519,4.519,0,0,1,6.335-.55A4.442,4.442,0,0,1,456.832,98.554Z" transform="translate(-448.891 -91.22)" fill="#853854"/></g><g transform="translate(95.475 8.351)"><path d="M475.2,95.054a2.2,2.2,0,0,1-3.082.268,2.161,2.161,0,0,1-.27-3.061,2.2,2.2,0,0,1,3.082-.268A2.161,2.161,0,0,1,475.2,95.054Z" transform="translate(-471.333 -91.485)" fill="#f9b584"/></g><g transform="translate(10.019 84.096)"><path d="M6.609.023A6.657,6.657,0,0,1,13.24,6.641a6.548,6.548,0,0,1-6.586,6.573A6.657,6.657,0,0,1,.023,6.6,6.548,6.548,0,0,1,6.609.023Z" transform="matrix(0.801, -0.599, 0.599, 0.801, 0, 7.876)" fill="#da6666"/></g></g><g transform="translate(111.759 17.567)"><path d="M497.709,119.631h0l-1.737-5.763,1.737-5.763h0l1.737,5.763Z" transform="translate(-491.904 -108.104)" fill="#da6666"/><path d="M500.3,117.112h0l-5.8,1.724-5.8-1.724h0l5.8-1.724Z" transform="translate(-488.689 -111.348)" fill="#da6666"/></g><g transform="translate(95.794 94.793)"><path d="M467.591,256.931h0l-1.441-4.784,1.441-4.784h0l1.441,4.784Z" transform="translate(-462.773 -247.363)" fill="#853854"/><path d="M469.74,254.84h0l-4.818,1.431L460.1,254.84h0l4.818-1.431Z" transform="translate(-460.104 -250.056)" fill="#853854"/></g><g transform="translate(0 13.576)"><path d="M296.074,110.475h0l-1.441-4.784,1.441-4.784h0l1.441,4.784Z" transform="translate(-291.256 -100.908)" fill="#853854"/><path d="M298.223,108.384h0l-4.818,1.431-4.818-1.431h0l4.818-1.431Z" transform="translate(-288.587 -103.601)" fill="#853854"/></g></g><g transform="translate(167.861 -753.403)"><g transform="translate(-16.782 810.308)"><g transform="translate(29.213 21.111)"><path d="M259.2,987.766c19.312-.272,32.331,1.037,32.279-2.97-.064-5.01-3.449-3.9-19.083-3.589-7.273.143-9.878-.682-9.822-3.469.074-3.653,13.739-2.866,20.044-2.994,15.614-.317,22.3-1.252,22.255-4.626-.071-5.622-15.032-3.652-26.654-3.241-18.779.666-22.469-.73-22.5-2.937-.053-4.166,8.714-3.256,18.065-3.271,6.041-.01,11.624-.438,11.576-4.252s-5.959-3.523-18.439-3.4c-6.489.064-19.308.648-19.354-2.98s6.825-2.759,16.693-2.9,10.638-.32,10.691-3.754c.047-3.034-4.915-2.3-16.347-2.142l-149.82,2.1S85.407,941.523,85.6,946.1c.174,4.226,4.635,4.238,14.148,4.105s14.4-.346,14.44,2.856-7.621,3.889-20.66,4.191c-14.883.343-20.4-.538-20.508,4.108-.1,4.487,3.939,3.553,17.456,3.489,8.334-.04,17.031-1.021,17.079,2.7.054,4.226-4.611,3.329-16.71,3.5-19.683.276-28.735-1.085-28.669,4.178.057,4.524,13.644,3.214,25.8,3.042s15.915-1.019,15.95,1.68-1.486,1.659-9.611,2.784c-13.736,1.9-14.6.513-14.643,3.656-.057,4.027,10.042,3.759,29.713,3.483Z" transform="translate(-62.172 -916.414)" fill="url(#a)"/><path d="M167.46,904.551c-14.745.21-24.7-1.795-24.625,3.975.091,7.212,2.667,5.644,14.6,5.346,5.554-.139,7.549,1.074,7.53,5.087-.026,5.257-10.468,4-15.28,4.122-11.92.31-17.016,1.594-16.955,6.451.1,8.1,11.509,5.4,20.379,4.916,14.335-.782,17.163,1.262,17.2,4.439.074,6-6.627,4.606-13.768,4.54-4.613-.042-8.873.522-8.8,6.015s4.579,5.129,14.109,5.069c4.955-.032,14.738-.753,14.8,4.472s-5.189,3.908-12.722,4.016-8.121.361-8.133,5.3c-.01,4.369,3.773,3.362,12.5,3.238l114.384-1.631s17.867,2.844,17.685-3.751c-.169-6.085-3.574-6.145-10.838-6.041s-10.992.363-11.05-4.249,5.786-5.527,15.74-5.84c11.362-.356,15.582.965,15.626-5.725.041-6.459-3.037-5.15-13.358-5.185-6.364-.021-13,1.309-13.064-4.043-.076-6.086,3.493-4.749,12.73-4.881,15.028-.215,21.952,1.83,21.857-5.749-.081-6.516-10.444-4.754-19.723-4.621s-12.145,1.318-12.194-2.567,1.121-2.374,7.315-3.918c10.474-2.611,11.144-.6,11.151-5.128.011-5.8-7.7-5.506-22.717-5.292Z" transform="translate(-106.623 -892.338)" fill="url(#b)"/><path d="M327.7,924.319c13.861-.185,24.2-1.745,24.273,3.571s-4.747,4.867-20.75,5.081-22.632-.817-22.116,4.924c.49,5.445,14.3,3.709,18.824,3.7,11.21-.015,15.512,1.872,15.447,5.379-.069,3.717-4.8,5.39-15.3,5.531-23.343.312-31.527-1.162-31.823,5.245-.332,7.177,9.95,3.758,31.94,3.465,10.369-.139,19.07.234,19.14,5.485s-9.943,5.191-25.281,5.4-22.9.3-22.829,5.3,22.14,2.81,29.223,2.715,11.405-.543,11.771,4.234c.4,5.217-11.66,4.011-11.66,4.011l-107.536,1.438s-16.739,1.9-16.729-4.4c.008-5.82,10.731-4.665,17.559-4.756s10.86-.347,10.8-4.756-6.431-4.524-15.793-4.724c-16.657-.356-21.789,1.271-21.994-5.12-.2-6.171,16.067-5.014,25.768-5.265,16.68-.431,21.936-.184,22.707-4.735.579-3.411-4.437-3.917-22.614-3.8-14.129.09-31.343,2.249-31.44-5-.083-6.228,22.378-4.65,31.1-4.767s15.166.488,15.116-3.228-5.478-3.067-15.2-2.9c-17.3.3-21.242-.614-21.36-4.938-.151-5.538,7.1-5.462,21.219-5.651Z" transform="translate(-148.548 -905.651)" fill="url(#c)"/><path d="M251.283,903.792c-11.12.148-19.452-1.328-19.372,4.609s3.931,5.312,16.77,5.141,18.128-1.492,17.861,4.931c-.253,6.092-11.371,4.508-15,4.616-8.99.27-12.392,2.488-12.249,6.4.151,4.149,3.987,5.9,12.412,5.783,18.727-.25,25.251-2.105,25.654,5.039.45,8.006-7.883,4.451-25.524,4.687-8.318.111-15.286.751-15.208,6.616s8.106,5.542,20.411,5.377,18.368-.248,18.442,5.331-17.682,3.706-23.364,3.782-9.159-.316-9.33,5.029c-.185,5.835,9.454,4.179,9.454,4.179l86.271-1.152s13.473,1.7,13.3-5.343c-.156-6.5-8.725-4.934-14.2-4.861s-8.718-.108-8.783-5.033,5.041-5.217,12.543-5.68c13.348-.823,17.505.861,17.506-6.281,0-6.9-13.015-5.186-20.8-5.218-13.387-.053-17.6.358-18.331-4.706-.552-3.793,3.458-4.487,18.037-4.823,11.331-.261,25.192,1.708,25.085-6.384-.094-6.957-18.066-4.619-25.064-4.525s-12.15.932-12.2-3.216,4.314-3.565,12.112-3.628c13.881-.112,17.02-1.231,17-6.061-.021-6.188-5.834-5.917-17.161-5.766Z" transform="translate(-175.365 -892.181)" fill="url(#d)"/><path d="M345.633,972.643c7.76-.1,18.71,1.462,18.623-4.938s-7.9-5.679-16.856-5.559-17.4,1.775-17.494-5.164c-.077-5.706,12.915-5.259,15.449-5.142,4.733.217,10.945-1.071,10.827-5.291-.127-4.474-5.094-5.737-10.974-5.658s-22.813.457-22.723-7.254c.084-7.1,16.725-7.165,22.53-7.243s14.883,1.036,14.8-5.288-6.344-4.7-14.932-4.582-15.874-.1-15.955-6.111,11.825-6.173,15.79-6.227,8.83.191,8.95-4.129c.146-5.242-9.065-4.52-9.065-4.52s-49.685.141-60.2.8-19.094-.55-19.208,5.824c-.1,5.709,6.9,5.575,17.12,5.259,4.58-.142,8.656,1.108,8.443,6.04-.178,4.156.88,5.849-8.45,5.973s-16.173-.318-16.1,5.079c.08,6.014,13.208,5.018,18.638,4.947s14.466-1.07,14.572,6.794-6.481,6.657-14.389,6.762-27.646-.8-27.556,5.984,22.81,4.381,27.693,4.316,13.223-1.007,13.282,3.465-3.5,3.782-13.184,3.913-15.883,1.947-16.076,7.4c-.186,5.243,8.342,5.46,16.246,5.354Z" transform="translate(-191.238 -887.721)" fill="url(#e)"/><path d="M365.512,874.471c4.11-.055,9.909.682,9.973,5.518s-4.049,7.025-8.794,7.088-9.253-1.735-9.141,6.628c.092,6.876,6.609,5.859,12.229,5.784s15.126-.452,15.209,5.756c.105,7.88-9.669,7.366-15.033,7.439s-16.018.03-15.791,9.318c.209,8.547,9.019,8.244,12.093,8.2s7.9,1.477,7.951,5.564-3.408,6.27-7.955,6.331-11.98,2.453-11.909,7.78,7.714,7.146,9.814,7.118,7.227-.078,7.3,5.2-7.158,5.226-7.158,5.226l-29.425.394s-12.334,1.624-12.541-6.052c-.186-6.876,10.622-7.193,12.646-7.22s6.551-3.062,6.628-7.468c.066-3.785-2.152-6.281-7.094-6.224-7.383.086-17.849,1.4-17.951-6.312-.1-7.231,11.07-6.444,17.778-6.638,2.875-.082,12.082.388,12.174-8.107.073-6.788-8.2-8.286-12.393-8.231s-13.675,1.6-13.784-6.582c-.09-6.76,11.031-5.795,13.619-5.83s7.964.9,7.891-4.495-2.882-4.311-8.011-4.4c-8.452-.139-13.726-2.3-13.8-7.5-.084-6.318,5.388-7.753,13.591-7.864Z" transform="translate(-228.672 -874.469)" fill="url(#f)"/></g><path d="M490.985,876.84a1.894,1.894,0,1,1-.05-3.788l21.394-.286a1.894,1.894,0,0,1,.051,3.789Z" transform="translate(-309.96 -849.655)" fill="url(#g)"/><path d="M177.853,890.182a1.362,1.362,0,0,1-.036-2.723l22.667-.3a1.362,1.362,0,1,1,.036,2.723Z" transform="translate(-108.05 -859.872)" fill="url(#h)"/><path d="M314.715,1153.9a2.042,2.042,0,1,1-.055-4.083l20.2-.271a2.042,2.042,0,0,1,.055,4.084Z" transform="translate(-195.988 -1029.792)" fill="url(#i)"/><path d="M614.7,1093.5a2.655,2.655,0,1,1-.071-5.309l15.665-.209a2.655,2.655,0,1,1,.071,5.309Z" transform="translate(-389.227 -989.47)" fill="url(#j)"/><path d="M46.91,966.436a2.723,2.723,0,1,1-.074-5.446l12.523-.167a2.723,2.723,0,1,1,.074,5.445Z" transform="translate(-21.605 -907.425)" fill="url(#k)"/><path d="M339.472,857.768a2.107,2.107,0,0,1-2.135-2.078c-.016-1.164.915-2.12-1.041-1.8l8.647-.116c4.282-.345,5.237.585,5.253,1.749a2.1,2.1,0,0,1-2.078,2.134Z" transform="translate(-211.069 -837.642)" fill="url(#l)"/><path d="M370.741,843.182a2.708,2.708,0,1,1-.072-5.416l21.876-.293a2.709,2.709,0,0,1,.073,5.417Z" transform="translate(-231.803 -827.422)" fill="url(#m)"/><path d="M704.182,962.262a1.362,1.362,0,1,1-.037-2.723l15.027-.2a1.362,1.362,0,0,1,.036,2.723Z" transform="translate(-448.92 -906.424)" fill="url(#n)"/><path d="M107.464,1095.023a1.659,1.659,0,1,1-.044-3.318l20.176-.27a1.659,1.659,0,1,1,.044,3.319Z" transform="translate(-60.433 -991.639)" fill="url(#o)"/><path d="M279.655,1126.184a1.975,1.975,0,1,1-.053-3.949l9.7-.13a1.975,1.975,0,0,1,.052,3.949Z" transform="translate(-173.221 -1011.438)" fill="url(#p)"/><path d="M488.123,1116.182a2.3,2.3,0,1,1-.062-4.6l10.974-.146a2.3,2.3,0,0,1,.062,4.6Z" transform="translate(-307.585 -1004.575)" fill="url(#q)"/><path d="M40.323,1008.055a1.82,1.82,0,1,1-.049-3.639l15.358-.206a1.82,1.82,0,0,1,.049,3.64Z" transform="translate(-18.032 -935.383)" fill="url(#r)"/><path d="M232.9,874.8a2.4,2.4,0,0,1-.064-4.793l9.889-.132a2.4,2.4,0,1,1,.064,4.792Z" transform="translate(-142.787 -847.835)" fill="url(#s)"/><path d="M650.649,921.094a3.054,3.054,0,0,1-.081-6.108l12.32-.165a3.054,3.054,0,1,1,.082,6.107Z" transform="translate(-412.089 -877.751)" fill="url(#t)"/><path d="M410.639,1160.952a1.943,1.943,0,0,1-.052-3.885l9.928-.132a1.942,1.942,0,1,1,.052,3.884Z" transform="translate(-257.772 -1034.443)" fill="url(#u)"/><path d="M394.557,849.469a2.408,2.408,0,1,1-.064-4.815l27.206-.364a2.408,2.408,0,1,1,.064,4.815Z" transform="translate(-247.497 -831.716)" fill="url(#v)"/><path d="M16.848,959.545a1.462,1.462,0,1,1-.039-2.924l21.4-.287a1.463,1.463,0,0,1,.039,2.925Z" transform="translate(-3.471 -904.491)" fill="url(#w)"/><path d="M549.494,1122.626a1.947,1.947,0,1,1-.053-3.894l11.788-.157a1.947,1.947,0,1,1,.052,3.894Z" transform="translate(-347.43 -1009.16)" fill="url(#x)"/><path d="M-13.853,1003.717a1.291,1.291,0,0,1-1.309-1.275,1.292,1.292,0,0,1,1.275-1.308l26.733-.357a1.291,1.291,0,1,1,.035,2.583Z" transform="translate(15.762 -933.15)" fill="url(#y)"/><path d="M755.2,1048.1a2.029,2.029,0,1,0-.055-4.057l-25.187.337a2.029,2.029,0,1,0,.054,4.057Z" transform="translate(-464.765 -961.093)" fill="url(#z)"/><path d="M363.308,1124.555a3.194,3.194,0,1,1-.085-6.387l18.323-.244a3.193,3.193,0,1,1,.087,6.386Z" transform="translate(-226.629 -1008.827)" fill="url(#aa)"/><path d="M261.256,848.959a3.16,3.16,0,0,1-.085-6.319l14.554-.195a3.16,3.16,0,1,1,.085,6.319Z" transform="translate(-160.677 -830.554)" fill="url(#ab)"/><path d="M95.183,928.743A2.923,2.923,0,1,1,95.1,922.9l8.923-.119a2.923,2.923,0,1,1,.078,5.846Z" transform="translate(-51.889 -882.881)" fill="url(#ac)"/><path d="M394.617,872.768a4.434,4.434,0,1,1-.118-8.867l36-.481a4.434,4.434,0,1,1,.118,8.867Z" transform="translate(-246.528 -843.768)" fill="url(#ad)"/><path d="M160.2,1095.749a2.414,2.414,0,1,1,.065,4.828l-7.82.1a2.415,2.415,0,1,1-.065-4.829Z" transform="translate(-90.836 -994.463)" fill="url(#ae)"/><path d="M565.8,835.674a.919.919,0,0,1-.025-1.839l6.356-.085a.92.92,0,0,1,.025,1.839Z" transform="translate(-358.406 -825.077)" fill="url(#af)"/><path d="M671.932,923.317a.92.92,0,0,1-.024-1.839l6.355-.086a.919.919,0,1,1,.025,1.839Z" transform="translate(-428.885 -881.94)" fill="url(#ag)"/><path d="M806.229,1022.168a.92.92,0,0,1-.024-1.839l6.355-.085a.92.92,0,1,1,.025,1.839Z" transform="translate(-513.492 -945.683)" fill="url(#ah)"/><path d="M193.33,1118.139a.919.919,0,1,1-.024-1.838l6.354-.085a.92.92,0,0,1,.024,1.839Z" transform="translate(-118.148 -1007.57)" fill="url(#ai)"/><path d="M-15.85,990.565a.92.92,0,0,1-.932-.907.92.92,0,0,1,.908-.932l6.354-.085a.921.921,0,0,1,.932.907.919.919,0,0,1-.907.932Z" transform="translate(16.782 -925.305)" fill="url(#aj)"/><path d="M388.568,1193.579a1.7,1.7,0,0,1,.045,3.4l-22.948.307a1.7,1.7,0,1,1-.046-3.4Z" transform="translate(-229.163 -1057.529)" fill="url(#ak)"/><path d="M313.433,816.556a2.968,2.968,0,0,1-.08-5.936l23.263-.311a2.969,2.969,0,0,1,.08,5.937Z" transform="translate(-194.645 -810.308)" fill="url(#al)"/></g></g></g></svg>