<svg xmlns="http://www.w3.org/2000/svg" width="343.021" height="312.65" viewBox="0 0 343.021 312.65"><g transform="translate(-68.88 -77.69)"><g transform="translate(68.88 77.69)"><g transform="translate(184.052 161.604)"><path d="M573.9,548.5a.73.73,0,0,1-.73-.73V519.8l-2.431,2.588a.73.73,0,0,1-1.064-1l3.69-3.927a.8.8,0,0,1,.115-.1h0a.746.746,0,0,1,.2-.1h0a.737.737,0,0,1,.221-.034h0a.723.723,0,0,1,.213.032h0a.75.75,0,0,1,.216.108h0a.7.7,0,0,1,.1.093l3.69,3.927a.73.73,0,1,1-1.064,1l-2.431-2.588v27.962A.73.73,0,0,1,573.9,548.5Z" transform="translate(-569.479 -517.232)" fill="#1c3e58"/></g><g transform="translate(140.42 169.115)"><rect width="27.127" height="112.136" fill="#25ce9e"/></g><g transform="translate(112.333 133.267)"><path d="M402.024,550.116h-.015a.73.73,0,0,1-.714-.745c.563-27.354,1.293-80.229.029-84.563-1.787-6.127-15.227-12.683-20.966-15.483-.8-.392-1.493-.728-2.033-1a6.473,6.473,0,0,1-3.688-7.658.73.73,0,0,1,1.388.451c-.053.169-1.143,3.816,2.962,5.906.534.271,1.217.6,2.011.992,6.414,3.129,19.76,9.639,21.728,16.387,1.641,5.629.1,81.763.029,85A.73.73,0,0,1,402.024,550.116Z" transform="translate(-374.411 -440.159)" fill="#1c3e58"/></g><g transform="translate(64.415 133.267)"><path d="M245.875,517.427a.731.731,0,0,1-.728-.687c-.111-1.885-2.688-46.244.594-52.808,3.549-7.1,15.638-12.069,22.861-15.038,1.81-.744,3.373-1.387,4.329-1.873,4.147-2.111,3.014-5.751,2.963-5.9a.73.73,0,1,1,1.388-.453,6.473,6.473,0,0,1-3.689,7.658c-1.008.513-2.52,1.135-4.436,1.923-7.033,2.892-18.805,7.731-22.11,14.34-2.488,4.977-1.378,36.237-.443,52.07a.73.73,0,0,1-.686.772Z" transform="translate(-244.08 -440.159)" fill="#1c3e58"/></g><g transform="translate(80.403 169.681)"><path d="M288.3,580.056a.73.73,0,0,1-.73-.73V539.932a.73.73,0,0,1,1.46,0v39.394A.73.73,0,0,1,288.3,580.056Z" transform="translate(-287.567 -539.202)" fill="#1c3e58"/></g><g transform="translate(123.6 169.681)"><path d="M405.786,564.636a.73.73,0,0,1-.73-.73V539.932a.73.73,0,0,1,1.46,0v23.974A.73.73,0,0,1,405.786,564.636Z" transform="translate(-405.056 -539.202)" fill="#1c3e58"/></g><g transform="translate(113.294 192.441)"><path d="M377.024,601.105v15.68h7.6l11.145,16.069v57.062h21.943v-88.81Z" transform="translate(-377.024 -601.105)" fill="#fabf62"/></g><g transform="translate(255.624 215.489)"><path d="M771.568,683.924a.722.722,0,0,1-.352-.091l-6.692-3.7a.729.729,0,0,1-.286-.992l8.274-14.974a.728.728,0,0,1,.491-.362.739.739,0,0,1,.595.138,16.152,16.152,0,0,0,6.466,3.009.744.744,0,0,1,.2.075l.181.1a.728.728,0,0,1,.287.992l-8.524,15.426A.728.728,0,0,1,771.568,683.924Zm-5.7-4.713,5.415,2.992,7.733-14a17.661,17.661,0,0,1-5.628-2.6Z" transform="translate(-764.146 -663.793)" fill="#1c3e58"/></g><g transform="translate(170.435 88.858)"><path d="M537.661,337.631c2.75-2.785,4.456-4.479,4.456-4.479l4.267,4.571a9.672,9.672,0,1,0-8.723-.092Z" transform="translate(-532.442 -319.372)" fill="#fabf62"/></g><g transform="translate(230.41 43.807)"><g transform="translate(2.297 70.352)"><path d="M702.542,390.144a.73.73,0,0,1-.341-1.377q.451-.237.894-.485a.73.73,0,0,1,.714,1.274q-.461.258-.928.5A.727.727,0,0,1,702.542,390.144Z" transform="translate(-701.811 -388.189)" fill="#1c3e58"/></g><g transform="translate(5.864 3.239)"><path d="M714.584,270.9a.73.73,0,0,1-.45-1.306c.582-.454,1.155-.929,1.7-1.411a.73.73,0,1,1,.964,1.1c-.571.5-1.166.994-1.77,1.466A.729.729,0,0,1,714.584,270.9ZM721,264.588a.73.73,0,0,1-.568-1.189c.464-.574.916-1.167,1.343-1.761a.73.73,0,0,1,1.186.852c-.443.617-.911,1.231-1.393,1.827A.73.73,0,0,1,721,264.588Zm4.824-7.6a.731.731,0,0,1-.656-1.048c.318-.657.623-1.336.907-2.02a.73.73,0,0,1,1.348.561c-.3.709-.612,1.413-.942,2.094A.73.73,0,0,1,725.826,256.989Zm2.965-8.5a.731.731,0,0,1-.713-.89c.16-.715.3-1.446.421-2.172a.73.73,0,0,1,1.441.236c-.123.753-.27,1.512-.437,2.256A.73.73,0,0,1,728.791,248.489Zm.949-8.951a.73.73,0,0,1-.73-.725c-.006-.733-.033-1.477-.079-2.212a.73.73,0,0,1,1.457-.093c.049.763.077,1.535.083,2.295a.73.73,0,0,1-.724.735Zm-1.092-8.937a.73.73,0,0,1-.709-.56c-.172-.715-.368-1.434-.581-2.137a.73.73,0,1,1,1.4-.423c.221.729.424,1.476.6,2.218a.73.73,0,0,1-.538.881A.749.749,0,0,1,728.648,230.6Zm-3.1-8.452a.73.73,0,0,1-.653-.4c-.328-.651-.682-1.306-1.053-1.948a.73.73,0,1,1,1.264-.73c.385.665.752,1.345,1.093,2.02a.73.73,0,0,1-.651,1.059Zm-4.947-7.522a.73.73,0,0,1-.561-.262c-.468-.561-.961-1.119-1.466-1.658a.73.73,0,1,1,1.065-1c.524.559,1.036,1.138,1.522,1.72a.731.731,0,0,1-.56,1.2Zm-6.519-6.208a.727.727,0,0,1-.44-.147c-.585-.442-1.192-.874-1.8-1.284a.73.73,0,0,1,.813-1.213c.633.425,1.263.873,1.87,1.331a.73.73,0,0,1-.441,1.313Z" transform="translate(-711.514 -205.651)" fill="#1c3e58"/></g><path d="M697.236,198.735a.727.727,0,0,1-.314-.072q-.458-.219-.923-.426a.73.73,0,0,1,.594-1.334q.484.215.959.443a.73.73,0,0,1-.315,1.389Z" transform="translate(-695.565 -196.84)" fill="#1c3e58"/></g><g transform="translate(228.496 25.935)"><g transform="translate(21.616 97.628)"><path d="M749.882,415.821a.73.73,0,0,1-.414-1.332q.421-.29.838-.587a.73.73,0,1,1,.849,1.187q-.427.306-.859.6A.726.726,0,0,1,749.882,415.821Z" transform="translate(-749.151 -413.766)" fill="#1c3e58"/></g><g transform="translate(10.3 2.842)"><path d="M735.959,248.439a.73.73,0,0,1-.488-1.273c.553-.5,1.1-1.01,1.627-1.525a.73.73,0,0,1,1.021,1.044c-.541.529-1.1,1.056-1.673,1.567A.726.726,0,0,1,735.959,248.439Zm6.192-6.578a.73.73,0,0,1-.571-1.184c.464-.583.918-1.18,1.35-1.774a.73.73,0,0,1,1.181.859c-.444.61-.911,1.224-1.388,1.823A.728.728,0,0,1,742.151,241.862Zm5.009-7.517a.73.73,0,0,1-.639-1.082c.353-.642.7-1.306,1.035-1.975a.73.73,0,0,1,1.307.65c-.342.687-.7,1.37-1.064,2.029A.73.73,0,0,1,747.16,234.345Zm3.68-8.248a.731.731,0,0,1-.69-.971c.242-.693.474-1.406.69-2.12a.73.73,0,1,1,1.4.422c-.221.734-.46,1.467-.708,2.178A.731.731,0,0,1,750.84,226.1Zm2.247-8.745a.73.73,0,0,1-.721-.852c.124-.73.234-1.471.327-2.2a.73.73,0,0,1,1.449.184c-.1.753-.209,1.514-.336,2.264A.73.73,0,0,1,753.086,217.352Zm.772-9h-.005a.73.73,0,0,1-.725-.735v-.24q0-1-.036-1.989a.73.73,0,1,1,1.458-.054q.038,1.017.038,2.042v.25A.73.73,0,0,1,753.858,208.354Zm-.7-9a.731.731,0,0,1-.719-.614c-.118-.729-.253-1.467-.4-2.193a.73.73,0,1,1,1.43-.294c.153.745.293,1.5.414,2.253a.73.73,0,0,1-.6.837A.756.756,0,0,1,753.155,199.349Zm-2.187-8.768a.731.731,0,0,1-.691-.495c-.241-.707-.5-1.414-.765-2.1a.73.73,0,0,1,1.361-.529c.274.705.538,1.431.786,2.157a.73.73,0,0,1-.456.926A.721.721,0,0,1,750.968,190.581Zm-3.621-8.283a.73.73,0,0,1-.643-.382c-.351-.649-.722-1.3-1.1-1.941a.73.73,0,1,1,1.254-.747c.392.656.773,1.327,1.133,1.994a.73.73,0,0,1-.642,1.077Zm-4.947-7.562a.731.731,0,0,1-.576-.281c-.452-.58-.926-1.162-1.408-1.731a.73.73,0,0,1,1.113-.945c.5.584.982,1.182,1.447,1.778a.73.73,0,0,1-.575,1.179Zm-6.127-6.64a.728.728,0,0,1-.494-.192c-.546-.5-1.109-1-1.673-1.474a.73.73,0,0,1,.942-1.115c.579.49,1.157,1,1.719,1.514a.73.73,0,0,1-.494,1.268Zm-7.135-5.538a.725.725,0,0,1-.4-.118c-.622-.4-1.258-.8-1.892-1.177a.73.73,0,1,1,.745-1.256c.65.386,1.3.793,1.944,1.209a.73.73,0,0,1-.4,1.342Zm-7.949-4.279a.73.73,0,0,1-.291-.061c-.679-.3-1.372-.58-2.059-.845a.73.73,0,0,1,.526-1.362c.705.272,1.417.564,2.116.868a.73.73,0,0,1-.292,1.4Z" transform="translate(-718.373 -155.961)" fill="#1c3e58"/></g><path d="M692.11,149.876a.731.731,0,0,1-.137-.013q-.5-.1-1.007-.183a.73.73,0,0,1,.247-1.439q.518.089,1.033.188a.73.73,0,0,1-.136,1.447Z" transform="translate(-690.359 -148.231)" fill="#1c3e58"/></g><g transform="translate(230.917 9.489)"><g transform="translate(61.147 81.234)"><path d="M863.988,326.929a.73.73,0,0,1-.72-.854q.087-.5.167-1.011a.73.73,0,0,1,1.443.226q-.082.518-.171,1.034A.729.729,0,0,1,863.988,326.929Z" transform="translate(-863.257 -324.446)" fill="#1c3e58"/></g><g transform="translate(4.063 0.604)"><path d="M766.675,181.133h-.052a.731.731,0,0,1-.677-.779q.079-1.135.122-2.28a.73.73,0,0,1,1.459.056q-.044,1.168-.125,2.326A.73.73,0,0,1,766.675,181.133Zm.05-9.218a.73.73,0,0,1-.728-.687q-.067-1.143-.171-2.275a.73.73,0,1,1,1.454-.133q.106,1.156.175,2.323a.731.731,0,0,1-.686.772Zm-1.138-9.146a.73.73,0,0,1-.716-.593q-.215-1.123-.466-2.233a.73.73,0,1,1,1.424-.322c.169.746.329,1.514.476,2.281a.73.73,0,0,1-.579.854A.743.743,0,0,1,765.587,162.769Zm-2.324-8.921a.731.731,0,0,1-.693-.5q-.361-1.088-.757-2.159a.73.73,0,0,1,1.37-.506q.4,1.094.773,2.2a.732.732,0,0,1-.693.961Zm-3.477-8.545a.729.729,0,0,1-.657-.411q-.5-1.029-1.033-2.039a.73.73,0,1,1,1.291-.681q.544,1.031,1.054,2.082a.731.731,0,0,1-.656,1.049Zm-4.564-8.014a.728.728,0,0,1-.61-.328q-.629-.954-1.288-1.885a.73.73,0,1,1,1.191-.844c.444.626.887,1.274,1.317,1.926a.73.73,0,0,1-.609,1.132Zm-5.567-7.35a.729.729,0,0,1-.553-.252q-.747-.863-1.521-1.7a.73.73,0,1,1,1.072-.99q.791.856,1.553,1.737a.73.73,0,0,1-.552,1.207Zm-6.471-6.565a.728.728,0,0,1-.485-.185q-.852-.759-1.728-1.49a.73.73,0,1,1,.935-1.121q.894.746,1.763,1.52a.73.73,0,0,1-.485,1.275Zm-7.266-5.67a.725.725,0,0,1-.41-.127q-.942-.64-1.905-1.251a.73.73,0,0,1,.781-1.234q.984.624,1.945,1.278a.73.73,0,0,1-.411,1.334Zm-7.938-4.677a.729.729,0,0,1-.328-.078q-1.016-.512-2.05-.992a.73.73,0,0,1,.614-1.325q1.057.49,2.094,1.013a.73.73,0,0,1-.329,1.382Zm-8.479-3.6a.736.736,0,0,1-.241-.041q-1.075-.376-2.166-.716a.73.73,0,0,1,.436-1.394q1.113.349,2.212.732a.73.73,0,0,1-.24,1.419Zm-8.881-2.458a.736.736,0,0,1-.149-.015q-.931-.193-1.871-.361a.73.73,0,0,1,.257-1.437q.961.172,1.911.368a.73.73,0,0,1-.148,1.445Z" transform="translate(-707.998 -105.144)" fill="#1c3e58"/></g><path d="M698.705,105.091a.738.738,0,0,1-.1-.007q-.508-.068-1.018-.129a.73.73,0,1,1,.174-1.45q.52.063,1.038.132a.73.73,0,0,1-.1,1.453Z" transform="translate(-696.946 -103.5)" fill="#1c3e58"/></g><g transform="translate(263.1 101.907)"><g transform="translate(0 34.886)"><path d="M785.21,451.813a.73.73,0,0,1-.421-1.327q.42-.3.835-.6a.73.73,0,1,1,.858,1.181q-.424.308-.852.61A.727.727,0,0,1,785.21,451.813Z" transform="translate(-784.479 -449.75)" fill="#1c3e58"/></g><g transform="translate(6.127 4.15)"><path d="M801.875,394.108a.73.73,0,0,1-.483-1.277c.63-.557,1.254-1.129,1.856-1.7a.73.73,0,0,1,1.006,1.058c-.614.584-1.252,1.169-1.9,1.738A.727.727,0,0,1,801.875,394.108Zm7.118-7.263a.73.73,0,0,1-.556-1.2c.542-.638,1.078-1.294,1.595-1.948a.73.73,0,1,1,1.146.9c-.527.668-1.075,1.338-1.628,1.989A.729.729,0,0,1,808.993,386.845ZM815,378.64a.73.73,0,0,1-.618-1.117c.443-.706.88-1.432,1.3-2.157a.73.73,0,1,1,1.264.731c-.428.74-.874,1.481-1.325,2.2A.73.73,0,0,1,815,378.64Zm4.767-8.982a.73.73,0,0,1-.667-1.025q.443-1.005.856-2.027a.73.73,0,1,1,1.354.546q-.421,1.043-.874,2.069A.73.73,0,0,1,819.768,369.658Z" transform="translate(-801.145 -366.15)" fill="#1c3e58"/></g><g transform="translate(26.077)"><path d="M856.135,357.306a.731.731,0,0,1-.689-.972q.169-.483.33-.97a.73.73,0,0,1,1.386.46q-.165.5-.338.993A.73.73,0,0,1,856.135,357.306Z" transform="translate(-855.405 -354.864)" fill="#1c3e58"/></g></g><g transform="translate(117.095 14.475)"><circle cx="9.676" cy="9.676" r="9.676" fill="#4088da"/></g><g transform="translate(303.478 156.07)"><circle cx="9.676" cy="9.676" r="9.676" fill="#25ce9e"/></g><g transform="translate(20.475 163.542)"><circle cx="9.676" cy="9.676" r="9.676" transform="translate(0 13.684) rotate(-45)" fill="#2b71b5"/></g><g transform="translate(103.79 39.355)"><circle cx="6.652" cy="6.652" r="6.652" fill="#fabf62"/></g><g transform="translate(274.188 31.377)"><circle cx="6.652" cy="6.652" r="6.652" transform="translate(0 12.292) rotate(-67.5)" fill="#fabf62"/></g><g transform="translate(285.14 62.532)"><circle cx="6.652" cy="6.652" r="6.652" transform="translate(0 5.091) rotate(-22.5)" fill="#25ce9e"/></g><g transform="translate(259.885 95.304)"><circle cx="6.652" cy="6.652" r="6.652" transform="matrix(0.973, -0.23, 0.23, 0.973, 0, 3.057)" fill="#4088da"/></g><g transform="translate(248.881 33.07)"><circle cx="5.356" cy="5.356" r="5.356" transform="matrix(0.383, -0.924, 0.924, 0.383, 0, 9.897)" fill="#25ce9e"/></g><g transform="translate(256.728 184.69)"><circle cx="12.872" cy="12.872" r="12.872" transform="translate(0 18.204) rotate(-45)" fill="#fabf62"/></g><g transform="translate(177.692 177.582)"><circle cx="29.027" cy="29.027" r="29.027" fill="#2b71b5"/></g><g transform="translate(186.52 185.764)"><ellipse cx="20.2" cy="20.845" rx="20.2" ry="20.845" fill="#fff"/></g><g transform="translate(195.279 194.803)"><ellipse cx="11.441" cy="11.806" rx="11.441" ry="11.806" fill="#2b71b5"/></g><g transform="translate(202.925 202.693)"><ellipse cx="3.795" cy="3.916" rx="3.795" ry="3.916" fill="#fff"/></g><g transform="translate(190.873 241.684)"><rect width="41.641" height="55.982" rx="14.5" fill="#25ce9e"/></g><g transform="translate(158.671 235.637)"><path d="M518.7,732.574a8.488,8.488,0,1,0-12.926,0,11.792,11.792,0,1,0,12.926,0Z" transform="translate(-500.444 -718.592)" fill="#fabf62"/></g><g transform="translate(133.466 247.213)"><path d="M443.6,761.8a6.566,6.566,0,1,0-8.126,0,7.646,7.646,0,1,0,8.126,0Z" transform="translate(-431.891 -750.078)" fill="#2b71b5"/></g><g transform="translate(111.695 243.585)"><path d="M386.289,750.17a5.961,5.961,0,1,0-8.823,0,9.2,9.2,0,1,0,8.823,0Z" transform="translate(-372.677 -740.21)" fill="#25ce9e"/></g><g transform="translate(45.995 208.121)"><path d="M257.348,659.822H193.98l13.477-16.069h61.424Z" transform="translate(-193.98 -643.753)" fill="#2b71b5"/></g><g transform="translate(143.492 42.599)"><path d="M459.889,255.834a.73.73,0,0,1-.73-.73V194.285a.73.73,0,1,1,1.46,0V255.1A.73.73,0,0,1,459.889,255.834Z" transform="translate(-459.159 -193.555)" fill="#1c3e58"/></g><g transform="translate(156.739 29.641)"><path d="M495.919,220.589a.73.73,0,0,1-.73-.73V159.039a.73.73,0,1,1,1.46,0v60.819A.73.73,0,0,1,495.919,220.589Z" transform="translate(-495.189 -158.309)" fill="#1c3e58"/></g><g transform="translate(169.985 28.604)"><path d="M531.948,205.848a.73.73,0,0,1-.73-.73v-48.9a.73.73,0,0,1,1.46,0v48.9A.73.73,0,0,1,531.948,205.848Z" transform="translate(-531.218 -155.49)" fill="#1c3e58"/></g><g transform="translate(183.232 14.09)"><path d="M567.978,178.293a.73.73,0,0,1-.73-.73v-60.82a.73.73,0,0,1,1.46,0v60.82A.73.73,0,0,1,567.978,178.293Z" transform="translate(-567.248 -116.014)" fill="#1c3e58"/></g><g transform="translate(196.479 16.682)"><path d="M604.007,187.417a.73.73,0,0,1-.73-.73V123.794a.73.73,0,0,1,1.46,0v62.893A.73.73,0,0,1,604.007,187.417Z" transform="translate(-603.277 -123.064)" fill="#1c3e58"/></g><g transform="translate(209.725 9.771)"><path d="M640.036,180.2a.73.73,0,0,1-.73-.73V105a.73.73,0,0,1,1.46,0v74.469A.73.73,0,0,1,640.036,180.2Z" transform="translate(-639.306 -104.266)" fill="#1c3e58"/></g><g transform="translate(222.972 85.191)"><path d="M676.065,332.145a.73.73,0,0,1-.73-.73V310.128a.73.73,0,0,1,1.46,0v21.287A.73.73,0,0,1,676.065,332.145Z" transform="translate(-675.335 -309.398)" fill="#1c3e58"/></g><g transform="translate(222.972 25.062)"><path d="M676.065,174.183a.73.73,0,0,1-.73-.73V146.586a.73.73,0,0,1,1.46,0v26.867A.73.73,0,0,1,676.065,174.183Z" transform="translate(-675.335 -145.856)" fill="#1c3e58"/></g><g transform="translate(135.717 14.609)"><path d="M438.742,180.568a.73.73,0,0,1-.48-1.28l21.022-18.315a.73.73,0,0,1,.817-.1l12.6,6.573L485.61,142.7a.73.73,0,0,1,1.011-.3l12.684,7.279,23.688-31.961a.73.73,0,1,1,1.172.869L500.09,151.072a.73.73,0,0,1-.95.2l-12.587-7.224-12.9,24.725a.73.73,0,0,1-.985.31l-12.8-6.681-20.646,17.988A.726.726,0,0,1,438.742,180.568Z" transform="translate(-438.012 -117.424)" fill="#1c3e58"/></g><g transform="translate(187.465 51.93)"><path d="M609.641,220.393H579.49a.73.73,0,0,1,0-1.46h30.151a.73.73,0,1,1,0,1.46Z" transform="translate(-578.76 -218.933)" fill="#1c3e58"/></g><g transform="translate(135.717 47.005)"><path d="M468.892,207H438.742a.73.73,0,0,1,0-1.46h30.151a.73.73,0,0,1,0,1.46Z" transform="translate(-438.012 -205.539)" fill="#1c3e58"/></g><g transform="translate(175.024 63.506)"><path d="M573.9,251.879h-28.25a.73.73,0,1,1,0-1.46H573.9a.73.73,0,0,1,0,1.46Z" transform="translate(-544.924 -250.419)" fill="#1c3e58"/></g><g transform="translate(149.712 75.082)"><path d="M530.371,283.365H476.808a.73.73,0,0,1,0-1.46h53.563a.73.73,0,0,1,0,1.46Z" transform="translate(-476.078 -281.905)" fill="#1c3e58"/></g><g transform="translate(217.345)"><path d="M667.472,95.833a.734.734,0,0,1-.453-.157l-6.711-5.3a.73.73,0,0,1,0-1.146l14.443-11.38a.73.73,0,0,1,1.114.881L668.135,95.41a.729.729,0,0,1-.493.4A.719.719,0,0,1,667.472,95.833ZM661.94,89.8l5.259,4.156,6.06-13.073Z" transform="translate(-660.032 -77.69)" fill="#1c3e58"/></g><g transform="translate(161.029 14.609)"><path d="M512.426,128.56a5.568,5.568,0,1,1,5.568-5.568A5.575,5.575,0,0,1,512.426,128.56Zm0-9.676a4.108,4.108,0,1,0,4.108,4.108A4.113,4.113,0,0,0,512.426,118.884Z" transform="translate(-506.858 -117.424)" fill="#1c3e58"/></g><g transform="translate(124.421 51.028)"><path d="M412.857,227.616a5.568,5.568,0,1,1,5.568-5.568A5.574,5.574,0,0,1,412.857,227.616Zm0-9.676a4.108,4.108,0,1,0,4.108,4.108A4.112,4.112,0,0,0,412.857,217.94Z" transform="translate(-407.289 -216.48)" fill="#1c3e58"/></g><g transform="translate(220.078 117.845)"><path d="M746.248,456a.727.727,0,0,1-.526-.225l-53.528-55.75-23.45,27a.73.73,0,0,1-1.1-.957l23.974-27.6a.728.728,0,0,1,.533-.251.7.7,0,0,1,.545.224l54.081,56.327a.73.73,0,0,1-.526,1.235Z" transform="translate(-667.463 -398.214)" fill="#1c3e58"/></g><g transform="translate(256.232 140.394)"><path d="M792.016,502.819a.729.729,0,0,1-.624-.35l-1.171-1.922a.73.73,0,0,1,1.247-.76l1.171,1.922a.73.73,0,0,1-.623,1.11Zm-4.818-7.905a.728.728,0,0,1-.624-.35l-1.216-1.995a.73.73,0,1,1,1.247-.76l1.216,1.995a.73.73,0,0,1-.623,1.11Zm-4.863-7.978a.728.728,0,0,1-.624-.35l-1.216-1.995a.73.73,0,1,1,1.247-.76l1.215,1.995a.73.73,0,0,1-.622,1.11Zm-4.863-7.979a.73.73,0,0,1-.624-.35l-1.216-1.994a.73.73,0,1,1,1.247-.76l1.216,1.994a.73.73,0,0,1-.623,1.11Zm-4.863-7.978a.73.73,0,0,1-.624-.35l-1.216-1.995a.73.73,0,0,1,1.247-.76l1.216,1.995a.73.73,0,0,1-.623,1.11ZM767.746,463a.729.729,0,0,1-.624-.35l-1.216-1.995a.73.73,0,0,1,1.247-.76l1.216,1.995a.73.73,0,0,1-.623,1.11Z" transform="translate(-765.799 -459.546)" fill="#1c3e58"/></g><g transform="translate(136.235 101.907)"><path d="M543.172,420.47a.729.729,0,0,1-.534-.232l-59.361-63.594c-4.312,4.308-33.428,33.564-42.522,47.047a.73.73,0,1,1-1.21-.817c9.861-14.62,42.9-47.468,43.237-47.8a.725.725,0,0,1,.528-.212.732.732,0,0,1,.52.232l59.876,64.146a.73.73,0,0,1-.534,1.228Z" transform="translate(-439.421 -354.864)" fill="#1c3e58"/></g><g transform="translate(179.381 91.735)"><path d="M557.5,338.829a.73.73,0,0,1-.73-.73V327.927a.73.73,0,0,1,1.1-.628l4.881,2.887a.73.73,0,0,1-.033,1.275l-4.49,2.351V338.1A.73.73,0,0,1,557.5,338.829Zm.73-9.623v2.957l2.652-1.389Z" transform="translate(-556.773 -327.197)" fill="#1c3e58"/></g><g transform="translate(165.4 115.6)"><path d="M533.458,421.3a.73.73,0,0,1-.7-.536L527.4,401.31l-5.908,2.148a.73.73,0,0,1-.949-.893l2.622-8.869-3.6.437a.73.73,0,0,1-.177-1.449l4.7-.571a.73.73,0,0,1,.788.932l-2.527,8.547,5.292-1.925a.73.73,0,0,1,.953.492l4.751,17.255,3.765-18.76a.73.73,0,0,1,1.037-.512l4.666,2.283,2.313-4.468a.731.731,0,0,1,.744-.388l4.211.557a.73.73,0,0,1-.192,1.447l-3.7-.49-2.4,4.647a.729.729,0,0,1-.969.32l-4.457-2.181-4.183,20.842a.73.73,0,0,1-.69.586Z" transform="translate(-518.747 -392.107)" fill="#1c3e58"/></g><g transform="translate(179.381 107.804)"><path d="M565.631,380.636a.727.727,0,0,1-.521-.218l-8.128-8.274a.73.73,0,0,1,1.042-1.023l8.128,8.274a.73.73,0,0,1-.521,1.241Z" transform="translate(-556.773 -370.903)" fill="#1c3e58"/></g><g transform="translate(230.039 132.274)"><path d="M709.99,452.654a.729.729,0,0,1-.728-.677l-.794-11.035-3.709,1.386a.731.731,0,0,1-.905-.351l-1.3-2.546c-2.51,2.007-7.17,1.221-7.389,1.183a.73.73,0,0,1,.252-1.438c1.417.247,5.39.474,6.726-1.41a.73.73,0,0,1,1.244.09l1.474,2.877,4.014-1.5a.73.73,0,0,1,.984.631l.7,9.693,5.092-8.545a.73.73,0,0,1,.845-.323l3.9,1.22.375-2.14a.731.731,0,0,1,.774-.6l3.562.264a.729.729,0,0,1,.674.782.717.717,0,0,1-.782.674l-2.9-.215-.4,2.308a.73.73,0,0,1-.937.571l-4.141-1.3L710.618,452.3A.731.731,0,0,1,709.99,452.654Z" transform="translate(-694.557 -437.458)" fill="#1c3e58"/></g><g transform="translate(136.559 121.215)"><path d="M459.6,415.58H444.4a4.1,4.1,0,0,1,0-8.2h20.672a.73.73,0,0,1,0,1.46H444.4a2.639,2.639,0,0,0,0,5.279H459.6a.73.73,0,1,1,0,1.46Z" transform="translate(-440.303 -407.381)" fill="#1c3e58"/></g><g transform="translate(132.12 127.954)"><path d="M451.962,435.269h-23a.73.73,0,0,1,0-1.46h23a3.319,3.319,0,1,0,0-6.639.73.73,0,0,1,0-1.46,4.779,4.779,0,1,1,0,9.559Z" transform="translate(-428.231 -425.71)" fill="#1c3e58"/></g><g transform="translate(139.215 141.258)"><path d="M448.257,473.981a.73.73,0,0,1-.589-1.161l7.775-10.626a.73.73,0,0,1,1.178.863l-7.775,10.626A.73.73,0,0,1,448.257,473.981Z" transform="translate(-447.528 -461.895)" fill="#1c3e58"/></g><g transform="translate(162.7 129.466)"><path d="M512.134,460.377a.731.731,0,0,1-.7-.939l.669-2.238a.73.73,0,0,1,1.4.418l-.669,2.239A.731.731,0,0,1,512.134,460.377Zm2.675-8.953a.73.73,0,0,1-.7-.939l.669-2.238a.73.73,0,0,1,1.4.418l-.669,2.238A.73.73,0,0,1,514.809,451.424Zm2.676-8.952a.731.731,0,0,1-.7-.939l.669-2.238a.73.73,0,1,1,1.4.418l-.669,2.238A.731.731,0,0,1,517.485,442.472Zm2.676-8.952a.731.731,0,0,1-.7-.939l.669-2.238a.73.73,0,1,1,1.4.418L520.86,433A.731.731,0,0,1,520.161,433.52Z" transform="translate(-511.403 -429.821)" fill="#1c3e58"/></g><g transform="translate(186.428 126.917)"><path d="M592.293,470.849a.73.73,0,0,1-.692-.5l-.744-2.214a.73.73,0,0,1,1.383-.465l.744,2.214a.73.73,0,0,1-.692.963Zm-2.976-8.857a.729.729,0,0,1-.692-.5l-.744-2.214a.73.73,0,1,1,1.384-.466l.744,2.214a.73.73,0,0,1-.692.963Zm-2.975-8.857a.729.729,0,0,1-.692-.5l-.745-2.214a.73.73,0,1,1,1.383-.465l.745,2.214a.731.731,0,0,1-.692.963Zm-2.976-8.857a.73.73,0,0,1-.692-.5l-.744-2.214a.73.73,0,1,1,1.384-.465l.744,2.214a.73.73,0,0,1-.46.924A.722.722,0,0,1,583.366,444.278Zm-2.975-8.857a.73.73,0,0,1-.692-.5l-.744-2.214a.73.73,0,1,1,1.384-.465l.744,2.214a.73.73,0,0,1-.692.963Zm-2.976-8.857a.73.73,0,0,1-.692-.5l-.744-2.214a.73.73,0,0,1,1.384-.465l.743,2.214a.73.73,0,0,1-.692.963Z" transform="translate(-575.942 -422.889)" fill="#1c3e58"/></g><g transform="translate(199.666 111.194)"><path d="M632.829,389.1h-12.1a.73.73,0,1,1,0-1.46h12.1a3.028,3.028,0,0,0,0-6.056H612.677a.73.73,0,1,1,0-1.46h20.152a4.488,4.488,0,0,1,0,8.976Z" transform="translate(-611.947 -380.124)" fill="#1c3e58"/></g><g transform="translate(205.78 118.71)"><path d="M651.572,405.915H631.249a2.674,2.674,0,0,1,0-5.348.73.73,0,0,1,0,1.46,1.214,1.214,0,0,0,0,2.428h20.324a.73.73,0,0,1,0,1.46Z" transform="translate(-628.575 -400.567)" fill="#1c3e58"/></g><g transform="translate(193.706 122.598)"><path d="M630.808,419.469H596.467a.73.73,0,0,1,0-1.46h34.341a2.7,2.7,0,0,0,0-5.408.73.73,0,0,1,0-1.46,4.164,4.164,0,0,1,0,8.328Z" transform="translate(-595.737 -411.141)" fill="#1c3e58"/></g><g transform="translate(228.047 85.191)"><path d="M689.87,340.62a.73.73,0,0,1-.73-.73V310.128a.73.73,0,1,1,1.46,0V339.89A.73.73,0,0,1,689.87,340.62Z" transform="translate(-689.14 -309.398)" fill="#1c3e58"/></g><g transform="translate(204.074 147.738)"><path d="M628.358,510.783a.73.73,0,0,1-.73-.73V482.091l-2.431,2.587a.73.73,0,0,1-1.064-1l3.69-3.928a.739.739,0,0,1,.139-.116s0,0,0,0a.738.738,0,0,1,.161-.078.728.728,0,0,1,.236-.039h0a.733.733,0,0,1,.412.127h0a.753.753,0,0,1,.123.106l3.69,3.928a.73.73,0,0,1-1.064,1l-2.431-2.587v27.962A.73.73,0,0,1,628.358,510.783Z" transform="translate(-623.934 -479.518)" fill="#1c3e58"/></g><g transform="translate(272.563 111.352)"><path d="M814.641,421.646a.73.73,0,0,1-.73-.73V383.127l-2.431,2.588a.73.73,0,0,1-1.064-1l3.69-3.927a.7.7,0,0,1,.132-.112h0a.73.73,0,0,1,.4-.121h0a.721.721,0,0,1,.414.13h0a.719.719,0,0,1,.118.1l3.69,3.927a.73.73,0,0,1-1.064,1l-2.431-2.588v37.789A.73.73,0,0,1,814.641,421.646Z" transform="translate(-810.217 -380.554)" fill="#1c3e58"/></g><g transform="translate(83.104 74.91)"><path d="M309.249,341.253H295.643a.73.73,0,0,1-.525-1.237c.028-.031,3.424-3.912,3.424-19.19,0-1.273-.01-2.526-.02-3.754-.074-9.35-.138-17.424,4.36-21.959,2.528-2.548,6.306-3.786,11.551-3.786,16.135,0,22.5-9.465,22.559-9.561a.73.73,0,0,1,.611-.331h0a.73.73,0,0,1,.611.334c.122.189,2.994,4.752,2.994,15.342,0,11.071-5.737,13.452-10.052,14.28l-.338.064c-3.168.6-4.124.782-4.425,7.631a.731.731,0,0,1-.729.7h-1.556a1.561,1.561,0,0,0-1.559,1.56V326.7a1.561,1.561,0,0,0,1.559,1.559h1.259a.731.731,0,0,1,.727.8C325.2,338.176,320.951,341.253,309.249,341.253Zm-12.27-1.46h12.27c10.621,0,14.333-2.377,15.3-10.074h-.443a3.022,3.022,0,0,1-3.019-3.019v-5.356a3.023,3.023,0,0,1,3.019-3.02h.862c.4-7.035,1.952-7.615,5.577-8.3l.334-.064c4.129-.792,8.868-2.969,8.868-12.847,0-7.47-1.476-11.8-2.27-13.581-2.138,2.56-9.066,9.257-23.047,9.257-4.836,0-8.275,1.1-10.514,3.354-4.07,4.1-4.009,11.9-3.937,20.919.01,1.232.02,2.489.02,3.766C300,332.346,298.106,337.655,296.979,339.793Z" transform="translate(-294.913 -281.435)" fill="#1c3e58"/></g><g transform="translate(88.72 88.96)"><path d="M310.916,361.228a.73.73,0,0,1-.516-1.246c2.079-2.079,2.024-11.685,1.967-21.855-.01-1.831-.021-3.712-.021-5.619,0-4.219,1.241-7.487,3.689-9.714,3.98-3.622,9.657-3.131,9.9-3.107a.73.73,0,0,1-.137,1.453c-.052-.005-5.291-.446-8.785,2.742-2.125,1.939-3.2,4.841-3.2,8.626,0,1.9.011,3.783.021,5.611.065,11.39.115,20.386-2.395,22.9A.727.727,0,0,1,310.916,361.228Z" transform="translate(-310.186 -319.651)" fill="#1c3e58"/></g><g transform="translate(115.674 86.919)"><path d="M384.227,328.517a.73.73,0,0,1-.094-1.454,7.158,7.158,0,0,0,5-2.748c2.7-3.568,1.9-9.324,1.893-9.382a.73.73,0,0,1,1.444-.212c.038.26.9,6.409-2.17,10.469a8.567,8.567,0,0,1-5.974,3.32A.754.754,0,0,1,384.227,328.517Z" transform="translate(-383.498 -314.099)" fill="#1c3e58"/></g><g transform="translate(108.386 102.82)"><path d="M369.224,388.1a11.671,11.671,0,0,1-5.136-1.175.73.73,0,1,1,.636-1.314,11.077,11.077,0,0,0,8.9.167,2.012,2.012,0,0,0,1.262-1.728l.7-10.478a.729.729,0,0,1,.3-.542l2.655-1.926a10.106,10.106,0,0,1-2.478-5.971v-7.057a.73.73,0,0,1,1.46,0v7.057c0,2.892,2.589,5.551,2.616,5.577a.731.731,0,0,1-.09,1.1l-3.027,2.2-.673,10.137a3.48,3.48,0,0,1-2.181,2.989A13.614,13.614,0,0,1,369.224,388.1Z" transform="translate(-363.676 -357.348)" fill="#1c3e58"/></g><g transform="translate(94.634 138.83)"><path d="M336.725,459.74c-6.483,0-10.052-3.04-10.2-3.17a.73.73,0,0,1,.957-1.1,15,15,0,0,0,9.244,2.812.73.73,0,1,1,0,1.46Z" transform="translate(-326.273 -455.29)" fill="#1c3e58"/></g><g transform="translate(87.691 142.273)"><path d="M324.784,473.134c-12.8,0-17.116-7.078-17.293-7.379a.73.73,0,0,1,1.256-.743c.043.072,4.131,6.662,16.037,6.662a.73.73,0,1,1,0,1.46Z" transform="translate(-307.389 -464.654)" fill="#1c3e58"/></g><g transform="translate(104.356 138.83)"><path d="M353.446,459.74a.73.73,0,1,1,0-1.46,14.871,14.871,0,0,0,9.243-2.811.73.73,0,1,1,.958,1.1C363.5,456.7,359.93,459.74,353.446,459.74Z" transform="translate(-352.716 -455.29)" fill="#1c3e58"/></g><g transform="translate(104.356 142.522)"><path d="M353.446,473.563a.73.73,0,0,1,0-1.46c11.906,0,15.835-6.351,15.873-6.415a.73.73,0,0,1,1.258.741C370.406,466.72,366.244,473.563,353.446,473.563Z" transform="translate(-352.716 -465.331)" fill="#1c3e58"/></g><g transform="translate(40.988 58.496)"><path d="M217.175,269.366a.73.73,0,0,1,0-1.46,2.6,2.6,0,0,0,0-5.207H186.838a6.475,6.475,0,0,1,0-12.95h52.569a2.121,2.121,0,1,0,0-4.242H227.615a4.358,4.358,0,1,1,0-8.717H254.7a.73.73,0,0,1,0,1.46H227.615a2.9,2.9,0,1,0,0,5.8h11.792a3.581,3.581,0,1,1,0,7.161H186.838a5.015,5.015,0,0,0,0,10.03h30.337a4.063,4.063,0,1,1,0,8.126Z" transform="translate(-180.363 -236.791)" fill="#1c3e58"/></g><g transform="translate(57.446 89.611)"><path d="M246.078,350.274a.73.73,0,0,1-.73-.73V335.39a5.792,5.792,0,0,0-5.785-5.786H229.218a4.092,4.092,0,0,1,0-8.184h16.861a.73.73,0,1,1,0,1.46H229.218a2.632,2.632,0,0,0,0,5.264h10.346a7.253,7.253,0,0,1,7.245,7.246v14.154A.73.73,0,0,1,246.078,350.274Z" transform="translate(-225.126 -321.421)" fill="#1c3e58"/></g><g transform="translate(124.054 150.243)"><path d="M417.322,506.087a.73.73,0,0,1-.73-.73v-8.963c0-2.146-6.1-6.474-9.938-8.7a.73.73,0,0,1,.731-1.264c1.781,1.031,10.667,6.355,10.667,9.962v8.963A.73.73,0,0,1,417.322,506.087Z" transform="translate(-406.29 -486.334)" fill="#1c3e58"/></g><g transform="translate(68.579 151.107)"><path d="M256.406,525.3a.73.73,0,0,1-.729-.695c-.125-2.572-1.138-25.25,1.773-29.4,2.961-4.217,10-6.407,10.3-6.5a.73.73,0,0,1,.427,1.4c-.068.021-6.858,2.137-9.529,5.942-2.22,3.162-1.843,21.635-1.51,28.487a.729.729,0,0,1-.694.764Z" transform="translate(-255.407 -488.682)" fill="#1c3e58"/></g><g transform="translate(84.529 179.53)"><path d="M299.519,592.719a.73.73,0,0,1-.73-.73V566.719a.73.73,0,1,1,1.46,0v25.269A.73.73,0,0,1,299.519,592.719Z" transform="translate(-298.789 -565.989)" fill="#1c3e58"/></g><g transform="translate(6.523 132.12)"><path d="M133.263,457.488H87.351a.73.73,0,1,1,0-1.46h45.912a2.553,2.553,0,1,0,0-5.106h-31.11a6.94,6.94,0,1,1,0-13.881h53.918a.73.73,0,0,1,0,1.46H102.153a5.481,5.481,0,1,0,0,10.961h31.11a4.013,4.013,0,1,1,0,8.026Z" transform="translate(-86.621 -437.041)" fill="#1c3e58"/></g><g transform="translate(0 151.107)"><path d="M123.255,503.187H76.133a7.253,7.253,0,1,1,0-14.505.73.73,0,0,1,0,1.46,5.793,5.793,0,1,0,0,11.585h47.122a.73.73,0,1,1,0,1.46Z" transform="translate(-68.88 -488.682)" fill="#1c3e58"/></g><g transform="translate(48.375 166.819)"><path d="M201.183,576.3a.73.73,0,0,1-.73-.73V532.148a.73.73,0,1,1,1.46,0V575.57A.73.73,0,0,1,201.183,576.3Z" transform="translate(-200.453 -531.418)" fill="#1c3e58"/></g><g transform="translate(56.539 166.819)"><path d="M223.388,566.063a.73.73,0,0,1-.73-.73V532.148a.73.73,0,1,1,1.46,0v33.185A.73.73,0,0,1,223.388,566.063Z" transform="translate(-222.658 -531.418)" fill="#1c3e58"/></g><g transform="translate(293.102 144.541)"><path d="M866.809,496.674a.73.73,0,0,1-.73-.73v-24.39a.73.73,0,1,1,1.46,0v24.39A.73.73,0,0,1,866.809,496.674Z" transform="translate(-866.079 -470.824)" fill="#1c3e58"/></g><g transform="translate(305.249 141.518)"><path d="M904.341,473.046a5.222,5.222,0,1,1,5.223-5.223A5.229,5.229,0,0,1,904.341,473.046Zm0-8.985a3.762,3.762,0,1,0,3.763,3.762A3.766,3.766,0,0,0,904.341,464.061Z" transform="translate(-899.119 -462.601)" fill="#1c3e58"/></g><g transform="translate(289.876 132.447)"><path d="M861.154,451.4a.726.726,0,0,1-.464-.167c-2.205-1.819-3.344-3.881-3.384-6.128-.07-3.9,3.223-6.866,3.363-6.99a.73.73,0,0,1,.969,1.092c-.029.026-2.935,2.656-2.873,5.88a6.75,6.75,0,0,0,2.852,5.02.73.73,0,0,1-.465,1.293Z" transform="translate(-857.306 -437.929)" fill="#1c3e58"/></g><g transform="translate(288.177 142.136)"><path d="M853.848,471.17l-.064,0a.731.731,0,0,1-.655-.594,28.361,28.361,0,0,1-.444-4.366,1.774,1.774,0,0,1,.716-1.52c1.044-.756,2.772-.245,3.106-.136a.731.731,0,0,1,.353,1.138,2.055,2.055,0,0,1,.354-.031.73.73,0,0,1,0,1.46c-.92,0-2.144,2.135-2.683,3.577A.73.73,0,0,1,853.848,471.17Zm1-5.427a1.071,1.071,0,0,0-.593.126c-.033.025-.113.082-.113.338,0,.567.041,1.179.1,1.754a5.639,5.639,0,0,1,1.879-2l-.066-.018h0A4.291,4.291,0,0,0,854.851,465.743Z" transform="translate(-852.685 -464.281)" fill="#1c3e58"/></g><g transform="translate(293.208 132.447)"><path d="M867.1,451.4a.73.73,0,0,1-.465-1.293,6.752,6.752,0,0,0,2.852-5.02c.062-3.224-2.844-5.854-2.873-5.88a.73.73,0,0,1,.969-1.092c.14.124,3.433,3.089,3.364,6.99-.04,2.248-1.178,4.309-3.384,6.128A.727.727,0,0,1,867.1,451.4Z" transform="translate(-866.369 -437.929)" fill="#1c3e58"/></g><g transform="translate(294.227 142.135)"><path d="M873.236,471.17a.731.731,0,0,1-.684-.475c-.539-1.443-1.764-3.577-2.683-3.577a.73.73,0,1,1,0-1.46,2.02,2.02,0,0,1,.354.032.732.732,0,0,1,.352-1.138c.335-.11,2.064-.621,3.106.136a1.774,1.774,0,0,1,.716,1.52,28.34,28.34,0,0,1-.444,4.366.731.731,0,0,1-.655.594Zm-2.273-5.213a5.637,5.637,0,0,1,1.879,2c.056-.574.1-1.186.1-1.754,0-.256-.079-.313-.113-.338a2.745,2.745,0,0,0-1.8.07C871.006,465.946,870.985,465.952,870.962,465.957Z" transform="translate(-869.139 -464.281)" fill="#1c3e58"/></g><g transform="translate(216.516 59.051)"><path d="M661.431,267.509a.728.728,0,0,1-.332-.08,5.253,5.253,0,0,1-2.756-6.326,11.972,11.972,0,0,1,1.539-3.215,9.29,9.29,0,0,1-1.689-.53.73.73,0,0,1,.622-1.321,9.352,9.352,0,0,0,1.63.48,25.283,25.283,0,0,1-.683-5.887c0-7.45,7.293-12.029,7.6-12.22a.728.728,0,0,1,.382-.108h0a.727.727,0,0,1,.382.108c.311.192,7.6,4.77,7.6,12.22a25.3,25.3,0,0,1-.682,5.887,9.365,9.365,0,0,0,1.63-.48.73.73,0,0,1,.622,1.321,9.323,9.323,0,0,1-1.689.53,11.958,11.958,0,0,1,1.539,3.216,5.254,5.254,0,0,1-2.757,6.326.73.73,0,0,1-1.063-.65,7.067,7.067,0,0,0-1.7-4.018.609.609,0,0,1-.236-.292h0c-.01,0-.726-.743-3.648-.743-2.87,0-3.612.717-3.674.783l-.006.008a.551.551,0,0,1-.238.284,7.02,7.02,0,0,0-1.671,3.977.73.73,0,0,1-.73.73Zm11.492-5.474a9.265,9.265,0,0,1,1.72,3.446,3.508,3.508,0,0,0,1.129-3.91,10.3,10.3,0,0,0-1.36-2.851A18.993,18.993,0,0,1,672.923,262.034Zm-11.837-3.316a10.307,10.307,0,0,0-1.36,2.851,3.51,3.51,0,0,0,1.128,3.911,9.265,9.265,0,0,1,1.721-3.446A18.993,18.993,0,0,1,661.086,258.719Zm6.663,1.547a8.639,8.639,0,0,1,4.067.75,18.662,18.662,0,0,0,1.168-2.67,47.321,47.321,0,0,1-10.47,0,18.666,18.666,0,0,0,1.168,2.67A8.635,8.635,0,0,1,667.749,260.266Zm-5.714-3.459a44.273,44.273,0,0,0,11.427,0,23.563,23.563,0,0,0,.813-6.178,11.491,11.491,0,0,0-2.615-6.983h-7.823a11.491,11.491,0,0,0-2.615,6.983A23.549,23.549,0,0,0,662.035,256.807Zm5.714-14.621h2.645a19.133,19.133,0,0,0-2.645-2.276,19.144,19.144,0,0,0-2.645,2.276Z" transform="translate(-657.775 -238.301)" fill="#1c3e58"/></g><g transform="translate(223.005 67.565)"><path d="M678.91,268.428a3.484,3.484,0,1,1,3.484-3.484A3.488,3.488,0,0,1,678.91,268.428Zm0-5.508a2.024,2.024,0,1,0,2.024,2.024A2.026,2.026,0,0,0,678.91,262.92Z" transform="translate(-675.426 -261.46)" fill="#1c3e58"/></g><g transform="translate(243.683 189.292)"><path d="M735.417,604.432a.729.729,0,0,1-.721-.622,40.188,40.188,0,0,0-2.967-10.246.73.73,0,0,1,1.336-.589,41.642,41.642,0,0,1,3.075,10.618.73.73,0,0,1-.614.83A.781.781,0,0,1,735.417,604.432Z" transform="translate(-731.668 -592.54)" fill="#1c3e58"/></g><g transform="translate(230.04 209.065)"><path d="M695.289,678.016a.73.73,0,0,1-.428-1.322,40.355,40.355,0,0,0,16.7-29.7.714.714,0,0,1,.783-.672.729.729,0,0,1,.672.784,41.81,41.81,0,0,1-17.3,30.771A.726.726,0,0,1,695.289,678.016Z" transform="translate(-694.559 -646.321)" fill="#1c3e58"/></g><g transform="translate(171.394 228.209)"><path d="M550.174,713.405a.732.732,0,0,1-.358-.094,42.234,42.234,0,0,1-14.65-13.794.73.73,0,0,1,1.226-.793,40.758,40.758,0,0,0,14.141,13.315.73.73,0,0,1-.359,1.366Z" transform="translate(-535.049 -698.391)" fill="#1c3e58"/></g><g transform="translate(257.355 185.318)"><path d="M786.43,616.884a17.576,17.576,0,1,1,17.576-17.576A17.6,17.6,0,0,1,786.43,616.884Zm0-33.693a16.116,16.116,0,1,0,16.116,16.117A16.134,16.134,0,0,0,786.43,583.191Z" transform="translate(-768.854 -581.731)" fill="#1c3e58"/></g><g transform="translate(265.443 193.406)"><path d="M791.582,613.948a.73.73,0,0,1-.73-.73,9.488,9.488,0,0,1,16.2-6.709.73.73,0,1,1-1.032,1.032,8.029,8.029,0,0,0-13.705,5.677A.73.73,0,0,1,791.582,613.948Z" transform="translate(-790.852 -603.729)" fill="#1c3e58"/></g><g transform="translate(238.204 157.848)"><path d="M727.3,534.578a.725.725,0,0,1-.237-.04l-9.132-3.144-.042-.016h0a.733.733,0,0,1-.141-.077h0s0,0,0,0h0a.707.707,0,0,1-.144-.134h0a.725.725,0,0,1-.125-.225h0v0h0a.766.766,0,0,1-.034-.15c0-.012,0-.024,0-.036l-.67-9.636a.729.729,0,0,1,.282-.628l4.349-3.359-.243-3.491a.73.73,0,0,1,1.456-.1l.175,2.52,2.415-1.865-.241-3.472a.73.73,0,0,1,1.456-.1l.174,2.5L729,511.254l-.24-3.454a.73.73,0,1,1,1.457-.1l.173,2.483,3.091-2.386a.73.73,0,0,1,1.174.527l.642,9.237,8.755,3.014a.73.73,0,0,1,.2,1.271l-3.106,2.367,2.353.81a.73.73,0,0,1-.476,1.38l-3.273-1.127-2.427,1.849,2.371.817a.73.73,0,1,1-.476,1.38l-3.291-1.133-2.426,1.849,2.388.822a.73.73,0,1,1-.476,1.38l-3.308-1.139-4.371,3.331A.73.73,0,0,1,727.3,534.578Zm-7.613-4.124,7.482,2.577,3.286-2.5-7.5-2.581Zm4.66-3.574,7.5,2.583,2.427-1.849-7.515-2.588Zm-6.1-5.477.549,7.893,3.27-2.509-.55-7.909Zm9.9,2.558,7.52,2.59L738.1,524.7l-7.532-2.593Zm-5.244-6.156.55,7.917,2.415-1.853-.551-7.928Zm9.048,3.238,7.539,2.6,2.8-2.13-7.552-2.6Zm-5.245-6.175.552,7.935,2.415-1.853L729.127,513Zm3.8-2.937.553,7.953,2.782-2.134-.554-7.967Z" transform="translate(-716.764 -507.018)" fill="#1c3e58"/></g><g transform="translate(205.99 180.803)"><path d="M629.876,596.136a.73.73,0,0,1-.445-1.309L662.316,569.6a.73.73,0,1,1,.889,1.159L630.32,595.985A.727.727,0,0,1,629.876,596.136Z" transform="translate(-629.146 -569.451)" fill="#1c3e58"/></g><g transform="translate(287.851 183.948)"><path d="M899.025,615.187h-46.5a.73.73,0,1,1,0-1.46h46.5a6.484,6.484,0,0,0,0-12.967H870.489a6.314,6.314,0,1,1,0-12.628H885.7a4.333,4.333,0,1,0,0-8.665H853.952a.73.73,0,0,1,0-1.46H885.7a5.792,5.792,0,1,1,0,11.585H870.489a4.854,4.854,0,1,0,0,9.708h28.536a7.944,7.944,0,0,1,0,15.888Z" transform="translate(-851.799 -578.007)" fill="#1c3e58"/></g><g transform="translate(276.059 226.181)"><path d="M863.608,694.334H820.456a.73.73,0,0,1,0-1.46h43.152a.73.73,0,0,1,0,1.46Z" transform="translate(-819.726 -692.874)" fill="#1c3e58"/></g><g transform="translate(244.886 228.597)"><rect width="9.935" height="23.974" transform="translate(11.595 0) rotate(28.924)" fill="#fabf62"/></g><g transform="translate(254.968 232.732)"><path d="M768.865,715.344a.723.723,0,0,1-.353-.091l-5.776-3.192a.73.73,0,0,1,.706-1.277l5.776,3.192a.73.73,0,0,1-.353,1.369Z" transform="translate(-762.359 -710.692)" fill="#fff"/></g><g transform="translate(253.209 235.914)"><path d="M764.083,724a.722.722,0,0,1-.353-.091l-5.776-3.192a.73.73,0,1,1,.706-1.277l5.776,3.192a.73.73,0,0,1-.353,1.369Z" transform="translate(-757.577 -719.347)" fill="#fff"/></g><g transform="translate(251.451 239.096)"><path d="M759.3,732.653a.722.722,0,0,1-.352-.091l-5.776-3.192a.73.73,0,0,1,.706-1.277l5.776,3.192a.73.73,0,0,1-.354,1.369Z" transform="translate(-752.795 -728.001)" fill="#fff"/></g><g transform="translate(249.693 242.278)"><path d="M754.519,741.308a.723.723,0,0,1-.352-.091l-5.776-3.191a.73.73,0,0,1,.706-1.277l5.776,3.191a.73.73,0,0,1-.354,1.369Z" transform="translate(-748.013 -736.657)" fill="#fff"/></g><g transform="translate(247.935 245.46)"><path d="M749.737,749.962a.723.723,0,0,1-.352-.091l-5.776-3.192a.73.73,0,1,1,.706-1.278l5.776,3.192a.73.73,0,0,1-.354,1.368Z" transform="translate(-743.231 -745.309)" fill="#fff"/></g><g transform="translate(195.24 245.705)"><rect width="31.446" height="35.766" rx="11" transform="translate(0.73 0.73)" fill="#fff"/><path d="M625.661,783.2h-18.6a7.161,7.161,0,0,1-7.154-7.154V753.132a7.162,7.162,0,0,1,7.154-7.154h18.6a7.162,7.162,0,0,1,7.154,7.154V776.05A7.162,7.162,0,0,1,625.661,783.2Zm-18.6-35.766a5.7,5.7,0,0,0-5.694,5.694V776.05a5.7,5.7,0,0,0,5.694,5.694h18.6a5.7,5.7,0,0,0,5.694-5.694V753.132a5.7,5.7,0,0,0-5.694-5.694Z" transform="translate(-599.908 -745.978)" fill="#1c3e58"/></g><g transform="translate(199.732 252.185)"><path d="M634.628,765.062H612.857a.73.73,0,1,1,0-1.46h21.771a.73.73,0,0,1,0,1.46Z" transform="translate(-612.127 -763.602)" fill="#1c3e58"/></g><g transform="translate(199.732 255.857)"><path d="M626.2,775.048H612.857a.73.73,0,1,1,0-1.46H626.2a.73.73,0,1,1,0,1.46Z" transform="translate(-612.127 -773.588)" fill="#1c3e58"/></g><g transform="translate(199.732 259.528)"><path d="M631.258,785.034h-18.4a.73.73,0,1,1,0-1.46h18.4a.73.73,0,1,1,0,1.46Z" transform="translate(-612.127 -783.574)" fill="#1c3e58"/></g><g transform="translate(199.732 263.2)"><path d="M626.2,795.021H612.857a.73.73,0,1,1,0-1.46H626.2a.73.73,0,1,1,0,1.46Z" transform="translate(-612.127 -793.561)" fill="#1c3e58"/></g><g transform="translate(199.732 266.871)"><path d="M626.2,805.007H612.857a.73.73,0,1,1,0-1.46H626.2a.73.73,0,1,1,0,1.46Z" transform="translate(-612.127 -803.547)" fill="#1c3e58"/></g><g transform="translate(199.732 270.543)"><path d="M631.258,814.993h-18.4a.73.73,0,1,1,0-1.46h18.4a.73.73,0,1,1,0,1.46Z" transform="translate(-612.127 -813.533)" fill="#1c3e58"/></g><g transform="translate(199.732 274.214)"><path d="M634.628,824.979H612.857a.73.73,0,1,1,0-1.46h21.771a.73.73,0,0,1,0,1.46Z" transform="translate(-612.127 -823.519)" fill="#1c3e58"/></g><g transform="translate(200.834 287.54)"><path d="M617.108,863.92a2.171,2.171,0,1,0,2.171-2.17A2.171,2.171,0,0,0,617.108,863.92Z" transform="translate(-616.378 -861.02)" fill="#fff"/><path d="M618.023,865.565a2.9,2.9,0,1,1,2.9-2.9A2.9,2.9,0,0,1,618.023,865.565Zm0-4.341a1.441,1.441,0,1,0,1.441,1.441A1.442,1.442,0,0,0,618.023,861.224Z" transform="translate(-615.123 -859.764)" fill="#1c3e58"/></g><g transform="translate(208.793 287.54)"><path d="M638.755,863.92a2.171,2.171,0,1,0,2.171-2.17A2.171,2.171,0,0,0,638.755,863.92Z" transform="translate(-638.025 -861.02)" fill="#fff"/><path d="M639.671,865.565a2.9,2.9,0,1,1,2.9-2.9A2.9,2.9,0,0,1,639.671,865.565Zm0-4.341a1.441,1.441,0,1,0,1.441,1.441A1.442,1.442,0,0,0,639.671,861.224Z" transform="translate(-636.77 -859.764)" fill="#1c3e58"/></g><g transform="translate(216.752 287.54)"><path d="M660.4,863.92a2.171,2.171,0,1,0,2.171-2.17A2.171,2.171,0,0,0,660.4,863.92Z" transform="translate(-659.672 -861.02)" fill="#fff"/><path d="M661.318,865.565a2.9,2.9,0,1,1,2.9-2.9A2.9,2.9,0,0,1,661.318,865.565Zm0-4.341a1.441,1.441,0,1,0,1.44,1.441A1.442,1.442,0,0,0,661.318,861.224Z" transform="translate(-658.417 -859.764)" fill="#1c3e58"/></g><g transform="translate(288.147 93.931)"><path d="M856.21,340.383a3.605,3.605,0,1,1,3.606-3.606A3.61,3.61,0,0,1,856.21,340.383Zm0-5.751a2.146,2.146,0,1,0,2.146,2.145A2.148,2.148,0,0,0,856.21,334.632Z" transform="translate(-852.604 -333.172)" fill="#1c3e58"/></g><g transform="translate(124.658 296.071)"><path d="M470.781,884.427H408.665a.73.73,0,1,1,0-1.46h62.115a.73.73,0,0,1,0,1.46Z" transform="translate(-407.935 -882.967)" fill="#1c3e58"/></g><g transform="translate(242.02 239.417)"><path d="M727.874,785.56a.73.73,0,0,1-.147-1.445,68.005,68.005,0,0,0,53.382-54.642.73.73,0,0,1,1.436.262,69.772,69.772,0,0,1-54.523,55.81A.741.741,0,0,1,727.874,785.56Z" transform="translate(-727.144 -728.875)" fill="#1c3e58"/></g><g transform="translate(242.193 236.628)"><path d="M728.343,764.737a.73.73,0,0,1-.193-1.434,53.052,53.052,0,0,0,37.958-41.416.73.73,0,0,1,1.436.263,54.518,54.518,0,0,1-39.007,42.561A.741.741,0,0,1,728.343,764.737Z" transform="translate(-727.613 -721.289)" fill="#1c3e58"/></g><g transform="translate(86.668 280.521)"><path d="M405.441,842.133H305.335a.73.73,0,1,1,0-1.46H405.441a.73.73,0,0,1,0,1.46Z" transform="translate(-304.605 -840.673)" fill="#1c3e58"/></g><g transform="translate(270.099 243.37)"><path d="M848.044,741.085h-43.8a.73.73,0,0,1,0-1.46h43.8a.73.73,0,0,1,0,1.46Z" transform="translate(-803.514 -739.625)" fill="#1c3e58"/></g><g transform="translate(313.898 237.949)"><path d="M928.8,737.183a6.151,6.151,0,1,1,6.151-6.151A6.158,6.158,0,0,1,928.8,737.183Zm0-10.842a4.691,4.691,0,1,0,4.691,4.691A4.7,4.7,0,0,0,928.8,726.342Z" transform="translate(-922.644 -724.882)" fill="#1c3e58"/></g><g transform="translate(264.447 253.655)"><path d="M815.473,794.717a.728.728,0,0,1-.507-.2l-26.6-25.657a.73.73,0,1,1,1.014-1.05l26.6,25.657a.73.73,0,0,1-.507,1.255Z" transform="translate(-788.142 -767.601)" fill="#1c3e58"/></g><g transform="translate(289.995 277.303)"><path d="M863.479,843.617a5.849,5.849,0,1,1,5.848-5.848A5.855,5.855,0,0,1,863.479,843.617Zm0-10.237a4.389,4.389,0,1,0,4.388,4.389A4.393,4.393,0,0,0,863.479,833.38Z" transform="translate(-857.63 -831.92)" fill="#1c3e58"/></g><g transform="translate(249.514 264.107)"><path d="M763.19,823.664a.729.729,0,0,1-.635-.368l-14.933-26.177a.73.73,0,1,1,1.268-.723l14.933,26.177a.73.73,0,0,1-.633,1.092Z" transform="translate(-747.526 -796.027)" fill="#1c3e58"/></g><g transform="translate(262.928 289.765)"><path d="M788.325,874.446a4.315,4.315,0,1,1,4.315-4.315A4.32,4.32,0,0,1,788.325,874.446Zm0-7.171a2.855,2.855,0,1,0,2.856,2.855A2.859,2.859,0,0,0,788.325,867.275Z" transform="translate(-784.01 -865.815)" fill="#1c3e58"/></g><g transform="translate(77.834 289.031)"><path d="M333.921,865.277H281.309a.73.73,0,1,1,0-1.46h52.612a.73.73,0,1,1,0,1.46Z" transform="translate(-280.579 -863.817)" fill="#1c3e58"/></g><g transform="translate(145.306 289.031)"><path d="M506.292,865.277H464.824a.73.73,0,0,1,0-1.46h41.468a.73.73,0,0,1,0,1.46Z" transform="translate(-464.094 -863.817)" fill="#1c3e58"/></g><g transform="translate(68.59 272.819)"><path d="M265.411,837.4a9.973,9.973,0,0,1-6.555-17.491.73.73,0,1,1,.96,1.1,8.514,8.514,0,0,0,5.6,14.931.73.73,0,0,1,0,1.46Z" transform="translate(-255.437 -819.725)" fill="#1c3e58"/></g><g transform="translate(153.254 304.581)"><path d="M574.518,907.573H486.442a.73.73,0,0,1,0-1.46h88.076a.73.73,0,1,1,0,1.46Z" transform="translate(-485.712 -906.113)" fill="#1c3e58"/></g><g transform="translate(188.329 311.19)"><path d="M609.7,925.548H581.84a.73.73,0,0,1,0-1.46H609.7a.73.73,0,0,1,0,1.46Z" transform="translate(-581.11 -924.088)" fill="#1c3e58"/></g><g transform="translate(169.733 245.705)"><path d="M531.262,782.254a.73.73,0,0,1-.73-.73V746.708a.73.73,0,0,1,1.46,0v34.816A.73.73,0,0,1,531.262,782.254Z" transform="translate(-530.532 -745.978)" fill="#1c3e58"/></g><g transform="translate(140.382 265.316)"><path d="M451.43,815.982a.73.73,0,0,1-.73-.73v-15.2a.73.73,0,1,1,1.46,0v15.2A.73.73,0,0,1,451.43,815.982Z" transform="translate(-450.7 -799.317)" fill="#1c3e58"/></g><g transform="translate(120.166 258.146)"><path d="M396.446,803.65a.73.73,0,0,1-.73-.73V780.544a.73.73,0,0,1,1.46,0v22.376A.73.73,0,0,1,396.446,803.65Z" transform="translate(-395.716 -779.814)" fill="#1c3e58"/></g><g transform="translate(37.101 254.82)"><path d="M222.591,797.93h-5.509a3.991,3.991,0,0,1,0-7.983h9.742a4.13,4.13,0,1,0,0-8.259H175.249a5.46,5.46,0,1,1,0-10.92h40.3a.73.73,0,0,1,0,1.46h-40.3a4,4,0,1,0,0,8h51.575a5.589,5.589,0,1,1,0,11.178h-9.742a2.532,2.532,0,0,0,0,5.063h5.509a.73.73,0,0,1,0,1.46Z" transform="translate(-169.789 -770.768)" fill="#1c3e58"/></g><g transform="translate(45.265 223.459)"><path d="M256.092,730.257a.729.729,0,0,1-.73-.73v-42.6H193.454v30.63a.73.73,0,1,1-1.46,0V686.2a.73.73,0,0,1,.73-.73h63.368a.73.73,0,0,1,.73.73v43.325A.729.729,0,0,1,256.092,730.257Z" transform="translate(-191.994 -685.472)" fill="#1c3e58"/></g><g transform="translate(51.485 229.247)"><path d="M258.28,702.672H209.642a.73.73,0,1,1,0-1.46H258.28a.73.73,0,1,1,0,1.46Z" transform="translate(-208.912 -701.212)" fill="#1c3e58"/></g><g transform="translate(51.485 235.123)"><path d="M258.28,718.654H209.642a.73.73,0,1,1,0-1.46H258.28a.73.73,0,1,1,0,1.46Z" transform="translate(-208.912 -717.194)" fill="#1c3e58"/></g><g transform="translate(51.485 240.999)"><path d="M258.28,734.637H209.642a.73.73,0,1,1,0-1.46H258.28a.73.73,0,1,1,0,1.46Z" transform="translate(-208.912 -733.177)" fill="#1c3e58"/></g><g transform="translate(51.485 246.875)"><path d="M258.28,750.619H209.642a.73.73,0,1,1,0-1.46H258.28a.73.73,0,1,1,0,1.46Z" transform="translate(-208.912 -749.159)" fill="#1c3e58"/></g><g transform="translate(18.052 250.803)"><path d="M151.191,783.418H129.766a11.788,11.788,0,0,1,0-23.576.73.73,0,1,1,0,1.46,10.328,10.328,0,0,0,0,20.656h21.425a.73.73,0,1,1,0,1.46Z" transform="translate(-117.978 -759.842)" fill="#1c3e58"/></g><g transform="translate(108.633 207.391)"><path d="M387.756,687.416a.73.73,0,0,1-.73-.73V658.794L376.6,643.763l-10.93,15.228a.73.73,0,1,1-1.186-.851l11.533-16.069a.746.746,0,0,1,.6-.3.729.729,0,0,1,.594.314l11.145,16.069a.727.727,0,0,1,.13.416v28.12A.73.73,0,0,1,387.756,687.416Z" transform="translate(-364.348 -641.767)" fill="#1c3e58"/></g><g transform="translate(143.751 175.167)"><path d="M479.255,555.582H460.594a.73.73,0,0,1,0-1.46h18.661a.73.73,0,0,1,0,1.46Z" transform="translate(-459.864 -554.122)" fill="#1c3e58"/></g><g transform="translate(143.751 180.955)"><path d="M479.255,571.326H460.594a.73.73,0,1,1,0-1.46h18.661a.73.73,0,0,1,0,1.46Z" transform="translate(-459.864 -569.866)" fill="#1c3e58"/></g><g transform="translate(143.751 186.743)"><path d="M479.255,587.069H460.594a.73.73,0,0,1,0-1.46h18.661a.73.73,0,0,1,0,1.46Z" transform="translate(-459.864 -585.609)" fill="#1c3e58"/></g><g transform="translate(156.171 192.532)"><path d="M500.616,602.812h-6.24a.73.73,0,1,1,0-1.46h6.24a.73.73,0,1,1,0,1.46Z" transform="translate(-493.646 -601.352)" fill="#1c3e58"/></g><g transform="translate(156.171 198.32)"><path d="M500.616,618.555h-6.24a.73.73,0,1,1,0-1.46h6.24a.73.73,0,0,1,0,1.46Z" transform="translate(-493.646 -617.095)" fill="#1c3e58"/></g><g transform="translate(156.171 204.108)"><path d="M500.616,634.3h-6.24a.73.73,0,1,1,0-1.46h6.24a.73.73,0,0,1,0,1.46Z" transform="translate(-493.646 -632.839)" fill="#1c3e58"/></g><g transform="translate(156.171 209.896)"><path d="M500.616,650.041h-6.24a.73.73,0,1,1,0-1.46h6.24a.73.73,0,0,1,0,1.46Z" transform="translate(-493.646 -648.581)" fill="#1c3e58"/></g><g transform="translate(156.171 215.684)"><path d="M500.616,665.785h-6.24a.73.73,0,1,1,0-1.46h6.24a.73.73,0,0,1,0,1.46Z" transform="translate(-493.646 -664.325)" fill="#1c3e58"/></g><g transform="translate(156.171 221.473)"><path d="M500.616,681.529h-6.24a.73.73,0,1,1,0-1.46h6.24a.73.73,0,1,1,0,1.46Z" transform="translate(-493.646 -680.069)" fill="#1c3e58"/></g><g transform="translate(156.171 227.261)"><path d="M500.616,697.272h-6.24a.73.73,0,1,1,0-1.46h6.24a.73.73,0,0,1,0,1.46Z" transform="translate(-493.646 -695.812)" fill="#1c3e58"/></g><g transform="translate(156.171 233.049)"><path d="M500.616,713.014h-6.24a.73.73,0,1,1,0-1.46h6.24a.73.73,0,0,1,0,1.46Z" transform="translate(-493.646 -711.554)" fill="#1c3e58"/></g><g transform="translate(156.171 238.837)"><path d="M498.876,728.758h-4.5a.73.73,0,1,1,0-1.46h4.5a.73.73,0,1,1,0,1.46Z" transform="translate(-493.646 -727.298)" fill="#1c3e58"/></g><g transform="translate(156.171 244.626)"><path d="M498.2,744.5h-3.82a.73.73,0,1,1,0-1.46h3.82a.73.73,0,0,1,0,1.46Z" transform="translate(-493.646 -743.042)" fill="#1c3e58"/></g><g transform="translate(116.084 221.473)"><path d="M393.832,681.529h-8.488a.73.73,0,0,1,0-1.46h8.488a.73.73,0,0,1,0,1.46Z" transform="translate(-384.614 -680.069)" fill="#1c3e58"/></g><g transform="translate(112.32 226.8)"><path d="M391.122,696.019H375.106a.73.73,0,1,1,0-1.46h16.016a.73.73,0,0,1,0,1.46Z" transform="translate(-374.376 -694.559)" fill="#1c3e58"/></g><g transform="translate(112.32 232.128)"><path d="M391.122,710.508H375.106a.73.73,0,1,1,0-1.46h16.016a.73.73,0,0,1,0,1.46Z" transform="translate(-374.376 -709.048)" fill="#1c3e58"/></g><g transform="translate(112.32 237.455)"><path d="M391.122,725H375.106a.73.73,0,1,1,0-1.46h16.016a.73.73,0,0,1,0,1.46Z" transform="translate(-374.376 -723.538)" fill="#1c3e58"/></g><g transform="translate(117.315 196.376)"><path d="M388.692,622.34a.73.73,0,0,1-.73-.73v-9.071a.73.73,0,0,1,1.46,0v9.071A.73.73,0,0,1,388.692,622.34Z" transform="translate(-387.962 -611.809)" fill="#1c3e58"/></g><g transform="translate(122.909 196.376)"><path d="M403.906,623.182a.73.73,0,0,1-.73-.73v-9.913a.73.73,0,0,1,1.46,0v9.913A.73.73,0,0,1,403.906,623.182Z" transform="translate(-403.176 -611.809)" fill="#1c3e58"/></g><g transform="translate(128.503 196.376)"><path d="M419.121,630.461a.73.73,0,0,1-.73-.73V612.539a.73.73,0,0,1,1.46,0v17.192A.73.73,0,0,1,419.121,630.461Z" transform="translate(-418.391 -611.809)" fill="#1c3e58"/></g><g transform="translate(134.097 196.376)"><path d="M434.336,636.335a.73.73,0,0,1-.73-.73V612.539a.73.73,0,0,1,1.46,0v23.067A.73.73,0,0,1,434.336,636.335Z" transform="translate(-433.606 -611.809)" fill="#1c3e58"/></g><g transform="translate(139.69 196.376)"><path d="M449.55,658.656a.73.73,0,0,1-.73-.73V612.539a.73.73,0,0,1,1.46,0v45.387A.73.73,0,0,1,449.55,658.656Z" transform="translate(-448.82 -611.809)" fill="#1c3e58"/></g><g transform="translate(145.565 196.376)"><path d="M465.529,658.656a.73.73,0,0,1-.73-.73V612.539a.73.73,0,0,1,1.46,0v45.387A.73.73,0,0,1,465.529,658.656Z" transform="translate(-464.799 -611.809)" fill="#1c3e58"/></g><g transform="translate(105.652 209.076)"><path d="M356.97,658.479a.731.731,0,0,1-.608-1.134l7.084-10.67a.73.73,0,0,1,1.216.808l-7.084,10.669A.729.729,0,0,1,356.97,658.479Z" transform="translate(-356.24 -646.349)" fill="#ebf0f6"/></g><g transform="translate(99.107 209.076)"><path d="M339.168,658.479a.731.731,0,0,1-.608-1.134l7.084-10.67a.73.73,0,0,1,1.216.808l-7.084,10.669A.729.729,0,0,1,339.168,658.479Z" transform="translate(-338.438 -646.349)" fill="#ebf0f6"/></g><g transform="translate(92.562 209.075)"><path d="M321.367,658.478a.731.731,0,0,1-.607-1.134l7.084-10.67a.73.73,0,0,1,1.216.808l-7.084,10.669A.729.729,0,0,1,321.367,658.478Z" transform="translate(-320.637 -646.348)" fill="#ebf0f6"/></g><g transform="translate(86.017 209.076)"><path d="M303.565,658.479a.731.731,0,0,1-.607-1.134l7.084-10.67a.73.73,0,0,1,1.217.808l-7.084,10.669A.729.729,0,0,1,303.565,658.479Z" transform="translate(-302.835 -646.349)" fill="#ebf0f6"/></g><g transform="translate(79.472 209.076)"><path d="M285.763,658.479a.731.731,0,0,1-.607-1.134l7.084-10.67a.73.73,0,0,1,1.217.808l-7.084,10.669A.729.729,0,0,1,285.763,658.479Z" transform="translate(-285.033 -646.349)" fill="#ebf0f6"/></g><g transform="translate(72.927 209.075)"><path d="M267.961,658.478a.731.731,0,0,1-.608-1.134l7.084-10.67a.73.73,0,0,1,1.217.808l-7.084,10.669A.73.73,0,0,1,267.961,658.478Z" transform="translate(-267.232 -646.348)" fill="#ebf0f6"/></g><g transform="translate(66.382 209.076)"><path d="M250.159,658.479a.731.731,0,0,1-.608-1.134l7.084-10.67a.73.73,0,0,1,1.217.808l-7.084,10.669A.73.73,0,0,1,250.159,658.479Z" transform="translate(-249.43 -646.349)" fill="#ebf0f6"/></g><g transform="translate(59.837 209.076)"><path d="M232.357,658.479a.731.731,0,0,1-.608-1.134l7.084-10.67a.73.73,0,0,1,1.217.808l-7.084,10.669A.73.73,0,0,1,232.357,658.479Z" transform="translate(-231.628 -646.349)" fill="#ebf0f6"/></g><g transform="translate(53.291 209.076)"><path d="M214.555,658.479a.731.731,0,0,1-.608-1.134l7.084-10.67a.73.73,0,0,1,1.216.808l-7.084,10.669A.729.729,0,0,1,214.555,658.479Z" transform="translate(-213.826 -646.349)" fill="#ebf0f6"/></g><g transform="translate(161.13 79.575)"><path d="M544.365,313.835h-4.017a.73.73,0,0,1,0-1.46h4.017a.73.73,0,0,1,0,1.46Zm-32.485,0h-4.017a.73.73,0,1,1,0-1.46h4.017a.73.73,0,1,1,0,1.46ZM526.113,299.6a.73.73,0,0,1-.73-.73v-4.017a.73.73,0,1,1,1.46,0v4.017A.73.73,0,0,1,526.113,299.6Z" transform="translate(-507.132 -294.124)" fill="#1c3e58"/></g><g transform="translate(166.475 84.921)"><path d="M548.213,335.935a.728.728,0,0,1-.516-.214l-2.841-2.841a.73.73,0,1,1,1.032-1.032l2.841,2.84a.73.73,0,0,1-.516,1.246Zm-25.811,0a.73.73,0,0,1-.516-1.246l2.841-2.84a.73.73,0,0,1,1.032,1.032l-2.841,2.841A.727.727,0,0,1,522.4,335.935Zm22.97-22.971a.73.73,0,0,1-.516-1.246l2.841-2.841a.73.73,0,1,1,1.032,1.032l-2.841,2.841A.728.728,0,0,1,545.372,312.964Zm-20.13,0a.729.729,0,0,1-.516-.214l-2.841-2.841a.73.73,0,1,1,1.032-1.032l2.841,2.841a.73.73,0,0,1-.516,1.246Z" transform="translate(-521.672 -308.664)" fill="#1c3e58"/></g><g transform="translate(162.519 80.964)"><path d="M511.642,323.209a.73.73,0,0,1-.28-1.4l3.711-1.537a.73.73,0,1,1,.559,1.349l-3.711,1.537A.73.73,0,0,1,511.642,323.209Zm30.012-12.432a.73.73,0,0,1-.28-1.4l3.711-1.537a.73.73,0,1,1,.559,1.349l-3.712,1.537A.727.727,0,0,1,541.654,310.777Zm-18.6-7.7a.731.731,0,0,1-.675-.451l-1.537-3.712a.73.73,0,0,1,1.349-.559l1.538,3.712a.731.731,0,0,1-.674,1.01Z" transform="translate(-510.911 -297.901)" fill="#1c3e58"/></g><g transform="translate(162.519 80.964)"><path d="M545.365,323.21a.729.729,0,0,1-.279-.056l-3.711-1.537a.73.73,0,1,1,.559-1.349l3.712,1.537a.73.73,0,0,1-.28,1.4Zm-30.012-12.432a.73.73,0,0,1-.279-.056l-3.711-1.537a.73.73,0,1,1,.559-1.349l3.711,1.537a.73.73,0,0,1-.279,1.4Zm18.6-7.7a.731.731,0,0,1-.674-1.01l1.537-3.712a.73.73,0,0,1,1.349.559l-1.537,3.712A.732.732,0,0,1,533.95,303.074Z" transform="translate(-510.911 -297.903)" fill="#1c3e58"/></g><g transform="translate(278.437 35.829)"><path d="M826.922,180.11a.73.73,0,0,1-.73-.73,4.243,4.243,0,0,1,4.239-4.239.73.73,0,1,1,0,1.46,2.782,2.782,0,0,0-2.779,2.779A.73.73,0,0,1,826.922,180.11Z" transform="translate(-826.192 -175.141)" fill="#1c3e58"/></g><g transform="translate(288.834 66.789)"><path d="M858.907,268.216a4.434,4.434,0,0,1,0-8.868.73.73,0,1,1,0,1.46,2.974,2.974,0,0,0,0,5.948.73.73,0,1,1,0,1.46Z" transform="translate(-854.473 -259.348)" fill="#1c3e58"/></g><g transform="translate(267.906 98.736)"><path d="M798.281,355.381a.73.73,0,0,1,0-1.46,3.111,3.111,0,1,0,0-6.221.73.73,0,0,1,0-1.46,4.57,4.57,0,1,1,0,9.14Z" transform="translate(-797.551 -346.241)" fill="#1c3e58"/></g><g transform="translate(125.619 135.96)"><path d="M411.372,449.131a.823.823,0,1,1,.823-.823A.824.824,0,0,1,411.372,449.131Z" transform="translate(-410.549 -447.485)" fill="#1c3e58"/></g><g transform="translate(134.263 172.569)"><path d="M434.88,548.7a.823.823,0,1,1,.823-.823A.824.824,0,0,1,434.88,548.7Z" transform="translate(-434.057 -547.055)" fill="#1c3e58"/></g><g transform="translate(83.659 150.15)"><path d="M297.245,487.726a.823.823,0,1,1,.823-.823A.824.824,0,0,1,297.245,487.726Z" transform="translate(-296.422 -486.08)" fill="#1c3e58"/></g><g transform="translate(57.698 164.059)"><path d="M226.635,525.556a.823.823,0,1,1,.823-.823A.824.824,0,0,1,226.635,525.556Z" transform="translate(-225.812 -523.909)" fill="#1c3e58"/></g><g transform="translate(84.436 175.074)"><path d="M299.359,555.515a.823.823,0,1,1,.823-.823A.824.824,0,0,1,299.359,555.515Z" transform="translate(-298.536 -553.869)" fill="#1c3e58"/></g><g transform="translate(122.406 83.499)"><path d="M402.631,306.443a.823.823,0,1,1,.823-.823A.824.824,0,0,1,402.631,306.443Z" transform="translate(-401.808 -304.797)" fill="#1c3e58"/></g><g transform="translate(107.373 88.87)"><path d="M361.745,321.052a.823.823,0,1,1,.823-.823A.824.824,0,0,1,361.745,321.052Z" transform="translate(-360.922 -319.406)" fill="#1c3e58"/></g><g transform="translate(77.576 121.77)"><path d="M280.7,410.536a.823.823,0,1,1,.823-.823A.824.824,0,0,1,280.7,410.536Z" transform="translate(-279.876 -408.89)" fill="#1c3e58"/></g><g transform="translate(227.954 118.617)"><path d="M689.71,401.96a.823.823,0,1,1,.823-.823A.824.824,0,0,1,689.71,401.96Z" transform="translate(-688.887 -400.314)" fill="#1c3e58"/></g><g transform="translate(246.946 205.138)"><path d="M741.367,637.286a.823.823,0,1,1,.823-.823A.824.824,0,0,1,741.367,637.286Z" transform="translate(-740.543 -635.64)" fill="#1c3e58"/></g><g transform="translate(247.246 304.488)"><path d="M742.182,907.506a.823.823,0,1,1,.823-.823A.824.824,0,0,1,742.182,907.506Z" transform="translate(-741.359 -905.86)" fill="#1c3e58"/></g><g transform="translate(136.628 288.938)"><path d="M441.313,865.21a.823.823,0,1,1,.823-.824A.824.824,0,0,1,441.313,865.21Z" transform="translate(-440.49 -863.564)" fill="#1c3e58"/></g><g transform="translate(119.424 295.978)"><path d="M394.52,884.36a.823.823,0,1,1,.823-.823A.824.824,0,0,1,394.52,884.36Z" transform="translate(-393.697 -882.714)" fill="#1c3e58"/></g><g transform="translate(54.311 272.826)"><path d="M217.422,821.388a.823.823,0,1,1,.823-.823A.824.824,0,0,1,217.422,821.388Z" transform="translate(-216.599 -819.742)" fill="#1c3e58"/></g><g transform="translate(324 226.088)"><path d="M950.942,694.268a.823.823,0,1,1,.823-.823A.824.824,0,0,1,950.942,694.268Z" transform="translate(-950.118 -692.622)" fill="#1c3e58"/></g><g transform="translate(282.1 199.393)"><path d="M836.98,621.66a.823.823,0,1,1,.823-.823A.824.824,0,0,1,836.98,621.66Z" transform="translate(-836.157 -620.014)" fill="#1c3e58"/></g><g transform="translate(293.114 137.303)"><path d="M866.938,452.784a.823.823,0,1,1,.823-.823A.824.824,0,0,1,866.938,452.784Z" transform="translate(-866.114 -451.138)" fill="#1c3e58"/></g><g transform="translate(265.136 106.324)"><path d="M790.838,368.524a.823.823,0,1,1,.824-.823A.824.824,0,0,1,790.838,368.524Z" transform="translate(-790.015 -366.878)" fill="#1c3e58"/></g><g transform="translate(295.187 73.738)"><path d="M872.574,279.894a.823.823,0,1,1,.823-.823A.823.823,0,0,1,872.574,279.894Z" transform="translate(-871.751 -278.248)" fill="#1c3e58"/></g><g transform="translate(284.908 36.384)"><path d="M844.616,178.3a.823.823,0,1,1,.823-.823A.824.824,0,0,1,844.616,178.3Z" transform="translate(-843.793 -176.65)" fill="#1c3e58"/></g></g></g></svg>