<svg xmlns="http://www.w3.org/2000/svg" width="148.521" height="96.472" viewBox="0 0 148.521 96.472"><g transform="translate(0 1.28)"><g transform="translate(81.457 0)"><path d="M121.046,57.571A32.838,32.838,0,0,1,125.424,13l5.742,7.536a23.372,23.372,0,0,0,28.35,36.891l5.742,7.536a32.912,32.912,0,0,1-44.212-7.393Z" transform="translate(-114.297 -4.759)" fill="#b5ddff"/><path d="M134.2,7.247a32.575,32.575,0,0,1,20.527-5.67l-1.292,9.4a23.544,23.544,0,0,0-13.493,3.732Z" transform="translate(-119.915 -1.518)" fill="#4586ff"/><path d="M177.438,51.938a23.481,23.481,0,0,0,2.943-31.652A23.056,23.056,0,0,0,166.6,11.6l1.22-9.4a32.873,32.873,0,0,1,15.359,57.274Z" transform="translate(-129.061 -1.711)" fill="none" stroke="#1b2733" stroke-width="3"/></g><g transform="translate(0 6.447)"><path d="M73.782,46.982,72.131,36.935l-9.115.713A26.941,26.941,0,0,0,57.992,29.1l4.881-7.98-8.254-5.985-5.957,6.912a27.79,27.79,0,0,0-9.618-2.494l-2.3-9.049-10.12,1.639.718,9.049a27.227,27.227,0,0,0-8.613,4.988l-8.039-4.845L4.737,29.525,11.7,35.439a27.274,27.274,0,0,0-2.512,9.548L0,47.267,1.651,57.314l9.115-.713a26.941,26.941,0,0,0,5.024,8.551l-4.881,7.98,8.326,5.914,5.885-6.912a27.79,27.79,0,0,0,9.618,2.494l2.3,9.049,10.12-1.639-.718-9.049A27.227,27.227,0,0,0,55.049,68l8.039,4.845,5.957-8.266-6.962-5.914A27.274,27.274,0,0,0,64.6,49.12Z" transform="translate(0 -10.5)" fill="#4586ff"/></g><g transform="translate(17.871 23.305)"><line y2="4.019" transform="translate(19.163)" fill="none" stroke="#fff" stroke-width="3"/><line x1="2.01" y2="3.445" transform="translate(26.771 2.584)" fill="none" stroke="#fff" stroke-width="3"/><line x1="3.445" y2="2.01" transform="translate(32.298 9.618)" fill="none" stroke="#fff" stroke-width="3"/><line x1="3.947" transform="translate(34.379 19.163)" fill="none" stroke="#fff" stroke-width="3"/><line x1="3.445" y1="2.01" transform="translate(32.298 26.771)" fill="none" stroke="#fff" stroke-width="3"/><line x1="2.01" y1="3.445" transform="translate(26.771 32.298)" fill="none" stroke="#fff" stroke-width="3"/><line y1="3.947" transform="translate(19.163 34.379)" fill="none" stroke="#fff" stroke-width="3"/><line y1="3.445" x2="1.938" transform="translate(9.618 32.298)" fill="none" stroke="#fff" stroke-width="3"/><line y1="2.01" x2="3.445" transform="translate(2.584 26.771)" fill="none" stroke="#fff" stroke-width="3"/><line x2="4.019" transform="translate(0 19.163)" fill="none" stroke="#fff" stroke-width="3"/><line x2="3.445" y2="2.01" transform="translate(2.584 9.618)" fill="none" stroke="#fff" stroke-width="3"/><line x2="1.938" y2="3.445" transform="translate(9.618 2.584)" fill="none" stroke="#fff" stroke-width="3"/><g transform="translate(12.13 11.842)"><path d="M57.949,46.8l-9.043,9.33L41.8,51.609" transform="translate(-41.8 -46.8)" fill="none" stroke="#fff" stroke-width="3"/></g></g><g transform="translate(69.589 27.662)"><path d="M111.9,117.685c.359-5.1,3.517-9.761,8.541-12.56l.144-.072a13.9,13.9,0,0,0,2.727-2.153,14.435,14.435,0,0,0,2.8,2.153l.144.072a16.135,16.135,0,0,1,8.613,12.56" transform="translate(-101.565 -58.329)" fill="none" stroke="#1b2733" stroke-width="3"/><path d="M136.96,68.644a73.772,73.772,0,0,1-7.751,2.153l-.359.072a52.564,52.564,0,0,0-6.89,2.153,52.563,52.563,0,0,0-6.89-2.153l-.359-.072a68.8,68.8,0,0,1-8.11-2.3" transform="translate(-100.069 -48.619)" fill="none" stroke="#1b2733" stroke-width="3"/><rect width="43.781" height="6.89" fill="none" stroke="#1b2733" stroke-width="3"/><rect width="43.781" height="6.89" transform="translate(0 59.14)" fill="none" stroke="#1b2733" stroke-width="3"/><g transform="translate(0 10.622)"><line y2="44.355" transform="translate(0 0.215)" fill="none" stroke="#1b2733" stroke-width="3"/><line y2="44.427" transform="translate(43.709)" fill="none" stroke="#1b2733" stroke-width="3"/></g><g transform="translate(6.675 10.622)"><path d="M143.834,104.477V84.955L130.7,77.921l13.134-7.034V55.6" transform="translate(-113.546 -55.6)" fill="none" stroke="#1b2733" stroke-width="3"/><path d="M106.8,55.6V70.888l13.206,7.034L106.8,84.955v19.522" transform="translate(-106.8 -55.6)" fill="none" stroke="#1b2733" stroke-width="3"/></g><line y1="8.613" transform="translate(21.819 36.102)" fill="none" stroke="#1b2733" stroke-width="3" stroke-dasharray="4"/></g><g transform="translate(65.6 1.423)"><path d="M104.882,14.091A4.091,4.091,0,1,1,100.791,10,4.136,4.136,0,0,1,104.882,14.091Z" transform="translate(-93.183 -5.335)" fill="none" stroke="#282d33" stroke-width="3"/><g transform="translate(7.68)"><line y1="3.804" fill="none" stroke="#282d33" stroke-width="3"/><line y1="3.876" transform="translate(0 13.709)" fill="none" stroke="#282d33" stroke-width="3"/></g><g transform="translate(0 4.378)"><line x1="3.373" y1="1.938" fill="none" stroke="#282d33" stroke-width="3"/><line x1="3.373" y1="1.938" transform="translate(11.914 6.89)" fill="none" stroke="#282d33" stroke-width="3"/></g><g transform="translate(0 4.378)"><line x1="3.373" y2="1.938" transform="translate(0 6.89)" fill="none" stroke="#282d33" stroke-width="3"/><line x1="3.373" y2="1.938" transform="translate(11.914)" fill="none" stroke="#282d33" stroke-width="3"/></g></g><g transform="translate(43.653 93.262)"><line x2="13.924" transform="translate(7.249)" fill="none" stroke="#1b2733" stroke-width="3"/><line x2="4.593" fill="none" stroke="#1b2733" stroke-width="3"/></g><g transform="translate(117.561 93.262)"><line x1="13.852" fill="none" stroke="#1b2733" stroke-width="3"/><line x1="4.665" transform="translate(16.508)" fill="none" stroke="#1b2733" stroke-width="3"/></g></g></svg>