<svg xmlns="http://www.w3.org/2000/svg" width="129" height="105.912" viewBox="0 0 129 105.912"><g transform="translate(1.5 1.58)"><g transform="translate(6.775 14.62)"><path d="M29.828,30.743l-8.986,8.922,7.274,8.568a34.174,34.174,0,0,0-4.992,11.187L11.5,60.411v12.6l11.268.85a35.436,35.436,0,0,0,4.422,11.4L19.7,94.114l8.986,8.922,8.629-7.222a34.666,34.666,0,0,0,11.268,4.956l1,11.541H62.276l.927-11.187a36,36,0,0,0,11.482-4.39L83.6,104.24l8.986-8.922-7.274-8.568A34.174,34.174,0,0,0,90.3,75.563l11.624-.991v-12.6l-11.268-.92a35.436,35.436,0,0,0-4.422-11.4L93.8,40.8l-8.986-8.922L76.04,39.1a34.666,34.666,0,0,0-11.268-4.956l-1-11.541H51.08l-.927,11.187a36,36,0,0,0-11.482,4.39Zm36.8,26.836a13.9,13.9,0,0,1,0,19.755,14.147,14.147,0,0,1-19.9,0,13.9,13.9,0,0,1,0-19.755A14.147,14.147,0,0,1,66.627,57.578Z" transform="translate(-11.5 -22.6)" fill="#4586ff"/></g><g transform="translate(91.056 72.097)"><path d="M143.63,114.765a4.065,4.065,0,1,1-4.065-4.065A4.063,4.063,0,0,1,143.63,114.765Z" transform="translate(-132.006 -105.993)" fill="none" stroke="#000" stroke-width="3"/><g transform="translate(7.559)"><line y1="3.851" fill="none" stroke="#000" stroke-width="3"/><line y1="3.78" transform="translate(0 13.693)" fill="none" stroke="#000" stroke-width="3"/></g><g transform="translate(0 4.35)"><line x1="3.281" y1="1.926" fill="none" stroke="#000" stroke-width="3"/><line x1="3.281" y1="1.926" transform="translate(11.838 6.846)" fill="none" stroke="#000" stroke-width="3"/></g><g transform="translate(0 4.35)"><line x1="3.281" y2="1.926" transform="translate(0 6.846)" fill="none" stroke="#000" stroke-width="3"/><line x1="3.281" y2="1.926" transform="translate(11.838)" fill="none" stroke="#000" stroke-width="3"/></g></g><path d="M102.4,53.115l4.136-4.136,9.842,9.842L157.6,17.6" transform="translate(-31.598 -6.546)" fill="none" stroke="#1b2733" stroke-width="3"/><line y1="18.399" x2="18.399" transform="translate(46.297 52.734)" fill="none" stroke="#1b2733" stroke-width="3"/><path d="M174.751,30.151V17.6H162.2" transform="translate(-48.751 -6.546)" fill="none" stroke="#1b2733" stroke-width="3"/><path d="M159.351,72.023V59.4H146.8" transform="translate(-44.334 -18.822)" fill="none" stroke="#1b2733" stroke-width="3"/><path d="M56.5,80.224l20.539-20.61,28.1,28.1L133.449,59.4" transform="translate(-18.432 -18.88)" fill="none" stroke="#1b2733" stroke-width="3"/><g transform="translate(0 0)"><path d="M24.444,24.016V7.4A18.159,18.159,0,0,0,7.4,24.016Z" transform="translate(-3.549 -3.62)" fill="#b5ddff"/><path d="M23.109,2.1A22.131,22.131,0,0,0,9.274,40.61" transform="translate(-2 -2.1)" fill="none" stroke="#1b2733" stroke-width="3"/><path d="M31.52,24.978V2.3a22.179,22.179,0,0,1-3.067,44.144,21.377,21.377,0,0,1-11.054-3Z" transform="translate(-6.417 -2.157)" fill="none" stroke="#1b2733" stroke-linecap="square" stroke-width="3"/><path d="M22.561,34.6c-2.211,2.853-5.919,7.631-9.485,12.266-.143-.143-.285-.214-.428-.357A18.392,18.392,0,0,1,7.3,34.6Z" transform="translate(-3.52 -11.423)" fill="#b5ddff"/></g><path d="M79.14,91.9A14.069,14.069,0,0,1,59.243,72" transform="translate(-17.533 -22.548)" fill="none" stroke="#1b2733" stroke-width="3"/><path d="M66.266,107.366A21.488,21.488,0,0,1,44.8,85.9" transform="translate(-14.508 -26.599)" fill="none" stroke="#fff" stroke-width="3"/></g></svg>