<svg xmlns="http://www.w3.org/2000/svg" width="131.114" height="112.47" viewBox="0 0 131.114 112.47"><g transform="translate(3.262 1.58)"><g transform="translate(32.643 0)"><path d="M61.214,87.275A46.946,46.946,0,0,1,59.029,23.3l9.57,9.57a33.407,33.407,0,0,0,47.02,47.02l9.57,9.57a46.946,46.946,0,0,1-63.975-2.185Z" transform="translate(-47.5 -7.8)" fill="#4586ff"/><path d="M68.2,14.03A46.081,46.081,0,0,1,96.156,2.2V15.764A33.348,33.348,0,0,0,77.694,23.6Z" transform="translate(-52.602 -2.125)" fill="#b5ddff"/><path d="M135.832,70.6A33.538,33.538,0,0,0,134.1,25.233,32.71,32.71,0,0,0,113,15.588V2.1a46.829,46.829,0,0,1,32.4,78.066Z" transform="translate(-63.644 -2.1)" fill="none" stroke="#1b2733" stroke-width="3"/></g><g transform="translate(0 38.159)"><path d="M31.533,64.2l-4.3,8.515H3.2L7.5,64.2Z" transform="translate(-3.2 -55.76)" fill="none"/><path d="M31.533,61.44,27.238,53H3.2l4.3,8.44Z" transform="translate(-3.2 -53)" fill="none"/><path d="M31.533,64.2l-4.3,8.515H3.2L7.5,64.2Z" transform="translate(-3.2 -55.76)" fill="none" stroke="#1b2733" stroke-linecap="round" stroke-miterlimit="10" stroke-width="4"/><path d="M31.533,61.44,27.238,53H3.2l4.3,8.44Z" transform="translate(-3.2 -53)" fill="none" stroke="#1b2733" stroke-linecap="round" stroke-miterlimit="10" stroke-width="4"/><line x1="81.381" transform="translate(0.678 8.44)" fill="none" stroke="#1b2733" stroke-linecap="round" stroke-miterlimit="10" stroke-width="4"/></g><g transform="translate(26.471 53.328)"><g transform="translate(14.92 25.846)"><line x2="11.604" fill="none" stroke="#000" stroke-width="3"/><line x2="11.604" transform="translate(0 6.48)" fill="none" stroke="#000" stroke-width="3"/><line x2="10.022" transform="translate(1.582 12.961)" fill="none" stroke="#000" stroke-width="3"/><line x2="3.617" transform="translate(7.987 19.441)" fill="none" stroke="#000" stroke-width="3"/></g><g transform="translate(29.614 19.366)"><line x2="11.604" fill="none" stroke="#000" stroke-width="3"/><line x2="11.604" transform="translate(0 6.48)" fill="none" stroke="#000" stroke-width="3"/><line x2="11.604" transform="translate(0 12.961)" fill="none" stroke="#000" stroke-width="3"/><line x2="11.604" transform="translate(0 19.441)" fill="none" stroke="#000" stroke-width="3"/><line x2="11.604" transform="translate(0 25.921)" fill="none" stroke="#000" stroke-width="3"/></g><g transform="translate(29.614 13.036)"><line x2="11.604" fill="none" stroke="#000" stroke-width="3"/></g><g transform="translate(44.76 19.366)"><line x2="11.604" fill="none" stroke="#000" stroke-width="3"/><line x2="11.604" transform="translate(0 6.48)" fill="none" stroke="#000" stroke-width="3"/><line x2="11.604" transform="translate(0 12.961)" fill="none" stroke="#000" stroke-width="3"/><line x2="11.604" transform="translate(0 19.441)" fill="none" stroke="#000" stroke-width="3"/><line x2="11.604" transform="translate(0 25.921)" fill="none" stroke="#000" stroke-width="3"/></g><g transform="translate(44.76)"><line x2="11.604" fill="none" stroke="#000" stroke-width="3"/><line x2="11.604" transform="translate(0 6.48)" fill="none" stroke="#000" stroke-width="3"/><line x2="11.604" transform="translate(0 13.036)" fill="none" stroke="#000" stroke-width="3"/></g><g transform="translate(0 38.807)"><line x2="10.775" fill="none" stroke="#000" stroke-width="3"/><line x2="5.576" transform="translate(0 6.48)" fill="none" stroke="#000" stroke-width="3"/></g><g transform="translate(4.672 38.43)"><path d="M62.533,133.316a8.816,8.816,0,1,1-8.816-8.816A8.828,8.828,0,0,1,62.533,133.316Z" transform="translate(-44.9 -124.5)" fill="none" stroke="#000" stroke-width="3"/><g transform="translate(8.892 4.747)"><line y1="8.138" fill="none" stroke="#000" stroke-width="3"/></g></g></g></g></svg>