<svg xmlns="http://www.w3.org/2000/svg" width="167" height="117.027" viewBox="0 0 167 117.027"><g transform="translate(1.5)"><rect width="70.721" height="47.898" transform="translate(48.452 58.702)" fill="#b5ddff"/><path d="M55.1,123.351V70.795A2.783,2.783,0,0,1,57.895,68h77.165a2.783,2.783,0,0,1,2.795,2.795v52.478" transform="translate(-12.627 -15.354)" fill="none" stroke="#282d33" stroke-width="3"/><path d="M39.2,138.9v5.046s3.706,2.795,6.409,2.795h93.969c2.7,0,6.409-2.795,6.409-2.795V138.9Z" transform="translate(-10.321 -31.214)" fill="none" stroke="#282d33" stroke-width="3"/><line x2="104.335" y2="19.563" transform="translate(32.37 65.346)" fill="none" stroke="#282d33" stroke-width="3" stroke-dasharray="4"/><g transform="translate(0 41.46)"><path d="M19,87.5a17,17,0,1,1,17-17A17,17,0,0,1,19,87.5Z" transform="translate(-2 -53.5)" fill="none" stroke="#282d33" stroke-width="3"/><g transform="translate(8.617 7.53)"><path d="M27.205,74.5A4.5,4.5,0,1,1,22.7,70,4.409,4.409,0,0,1,27.205,74.5Z" transform="translate(-14.241 -64.721)" fill="none" stroke="#282d33" stroke-width="3"/><g transform="translate(8.384)"><line y1="4.27" fill="none" stroke="#282d33" stroke-width="3"/><line y1="4.27" transform="translate(0 15.216)" fill="none" stroke="#282d33" stroke-width="3"/></g><g transform="translate(0 4.891)"><line x1="3.649" y1="2.096" fill="none" stroke="#282d33" stroke-width="3"/><line x1="3.649" y1="2.096" transform="translate(13.197 7.608)" fill="none" stroke="#282d33" stroke-width="3"/></g><g transform="translate(0 4.891)"><line x1="3.649" y2="2.096" transform="translate(0 7.608)" fill="none" stroke="#282d33" stroke-width="3"/><line x1="3.649" y2="2.096" transform="translate(13.197)" fill="none" stroke="#282d33" stroke-width="3"/></g></g></g><g transform="translate(63.522 42.213)"><path d="M93.438,97.74h19.33A11.537,11.537,0,0,1,114.476,92c7.142-9.16,7.608-17.933,7.608-18.554a18.942,18.942,0,1,0-37.884,0c0,.621.466,9.393,7.608,18.554A12.565,12.565,0,0,1,93.438,97.74Z" transform="translate(-84.2 -54.5)" fill="#4586ff"/><g transform="translate(10.092 22.358)"><line x1="3.804" y1="20.805" fill="none" stroke="#fff" stroke-linejoin="bevel" stroke-width="3"/><line y1="20.805" x2="3.804" transform="translate(13.818)" fill="none" stroke="#fff" stroke-linejoin="bevel" stroke-width="3"/></g><path d="M97.4,85l2.872,1.553L103.145,85l2.872,1.553L108.967,85l2.872,1.553L114.712,85" transform="translate(-87.153 -61.323)" fill="none" stroke="#fff" stroke-linejoin="bevel" stroke-width="3"/><g transform="translate(6.599 43.473)"><line x2="24.609" fill="none" stroke="#282d33" stroke-linejoin="bevel" stroke-width="3"/><line x2="24.609" transform="translate(0 4.813)" fill="none" stroke="#282d33" stroke-linejoin="bevel" stroke-width="3"/><line x2="16.07" transform="translate(4.27 9.549)" fill="none" stroke="#282d33" stroke-linejoin="bevel" stroke-width="3"/><line y1="5.046" transform="translate(2.872 0.233)" fill="none" stroke="#282d33" stroke-linejoin="bevel" stroke-width="3"/></g></g><line y1="27.404" x2="85.394" transform="translate(29.362 16.302)" fill="none" stroke="#282d33" stroke-width="3" stroke-dasharray="4"/><line x1="28.956" y1="58.456" transform="translate(116.956 16.302)" fill="none" stroke="#1b2733" stroke-width="3" stroke-dasharray="4"/><g transform="translate(97.839)"><path d="M164.621,18.01A18.01,18.01,0,1,1,146.61,0,18.023,18.023,0,0,1,164.621,18.01Z" transform="translate(-128.6)" fill="#4586ff"/><g transform="translate(6.521 4.658)"><path d="M156.266,21.432a6.133,6.133,0,1,1-6.133-6.133A6.146,6.146,0,0,1,156.266,21.432Z" transform="translate(-138.566 -8.08)" fill="none" stroke="#fff" stroke-width="3"/><g transform="translate(11.489)"><line y1="5.822" fill="none" stroke="#fff" stroke-width="3"/><line y1="5.822" transform="translate(0 20.805)" fill="none" stroke="#fff" stroke-width="3"/></g><g transform="translate(0 6.676)"><line x1="5.046" y1="2.872" fill="none" stroke="#fff" stroke-width="3"/><line x1="5.046" y1="2.95" transform="translate(18.01 10.402)" fill="none" stroke="#fff" stroke-width="3"/></g><g transform="translate(0 6.676)"><line x1="5.046" y2="2.95" transform="translate(0 10.402)" fill="none" stroke="#fff" stroke-width="3"/><line x1="5.046" y2="2.872" transform="translate(18.01)" fill="none" stroke="#fff" stroke-width="3"/></g></g></g><g transform="translate(136.208 74.693)"><path d="M205.992,110.3a13.9,13.9,0,1,1-13.9-13.9A13.882,13.882,0,0,1,205.992,110.3Z" transform="translate(-178.2 -96.4)" fill="none" stroke="#282d33" stroke-linejoin="bevel" stroke-width="3"/><g transform="translate(7.763 6.055)"><path d="M199.187,113.093a3.493,3.493,0,1,1-3.493-3.493A3.385,3.385,0,0,1,199.187,113.093Z" transform="translate(-189.095 -105.407)" fill="none" stroke="#282d33" stroke-width="3"/><g transform="translate(6.599)"><line y1="3.338" fill="none" stroke="#282d33" stroke-width="3"/><line y1="3.338" transform="translate(0 11.955)" fill="none" stroke="#282d33" stroke-width="3"/></g><g transform="translate(0 3.804)"><line x1="2.872" y1="1.708" fill="none" stroke="#282d33" stroke-width="3"/><line x1="2.95" y1="1.708" transform="translate(10.247 5.978)" fill="none" stroke="#282d33" stroke-width="3"/></g><g transform="translate(0 3.804)"><line x1="2.872" y2="1.708" transform="translate(0 5.978)" fill="none" stroke="#282d33" stroke-width="3"/><line x1="2.95" y2="1.708" transform="translate(10.247)" fill="none" stroke="#282d33" stroke-width="3"/></g></g></g></g></svg>