<svg xmlns="http://www.w3.org/2000/svg" width="111" height="129.372" viewBox="0 0 111 129.372"><g transform="translate(-2.383 -8)"><path d="M13.4,137.5a27.765,27.765,0,0,0,54.842,0Z" transform="translate(-4.12 -36.853)" fill="#4586ff"/><g transform="translate(3.883 37.491)"><path d="M67.844,97.647A24.308,24.308,0,0,0,66.02,94,32.333,32.333,0,0,0,45.309,78.613V62.2h2.115V50.9h-18.6V62.2h2.115V78.613a32.091,32.091,0,0,0,7.147,63.375,29.633,29.633,0,0,0,8.46-1.167" transform="translate(-6 -50.9)" fill="none" stroke="#1b2733" stroke-width="3"/></g><line x2="9.262" transform="translate(28.386 48.846)" fill="none" stroke="#1b2733" stroke-width="3"/><g transform="translate(31.198 72.926)"><g transform="translate(9.116)"><line y2="3.719" fill="none" stroke="#282d33" stroke-width="4"/></g><g transform="translate(0.146 5.032)"><line x2="3.209" y2="1.823" fill="none" stroke="#282d33" stroke-width="4"/></g><g transform="translate(0 13.419)"><line y1="1.823" x2="3.136" fill="none" stroke="#282d33" stroke-width="4"/></g><g transform="translate(8.751 16.774)"><line y1="3.719" fill="none" stroke="#282d33" stroke-width="4"/></g><g transform="translate(14.513 13.638)"><line x1="3.209" y1="1.823" fill="none" stroke="#282d33" stroke-width="4"/></g><g transform="translate(14.659 5.251)"><line x1="3.209" y2="1.823" fill="none" stroke="#282d33" stroke-width="4"/></g></g><line y2="3.428" transform="translate(63.359 49.492)" fill="none" stroke="#1366ff" stroke-width="3"/><line y1="3.428" transform="translate(63.359 60.876)" fill="none" stroke="#1366ff" stroke-width="3"/><line x2="2.917" y2="1.75" transform="translate(56.968 53.194)" fill="none" stroke="#1366ff" stroke-width="3"/><line x1="2.99" y1="1.677" transform="translate(66.831 58.923)" fill="none" stroke="#1366ff" stroke-width="3"/><line y1="1.677" x2="2.917" transform="translate(56.968 58.923)" fill="none" stroke="#1366ff" stroke-width="3"/><line x1="2.99" y2="1.75" transform="translate(66.831 53.194)" fill="none" stroke="#1366ff" stroke-width="3"/><g transform="translate(47.268 84.384)"><g transform="translate(13.711 23.702)"><line x2="10.648" fill="none" stroke="#1b2733" stroke-width="3"/><line x2="10.648" transform="translate(0 5.98)" fill="none" stroke="#1b2733" stroke-width="3"/><line x2="9.189" transform="translate(1.459 11.96)" fill="none" stroke="#1b2733" stroke-width="3"/><line x2="3.355" transform="translate(7.293 17.868)" fill="none" stroke="#1b2733" stroke-width="3"/></g><g transform="translate(27.202 17.722)"><line x2="10.648" fill="none" stroke="#1b2733" stroke-width="3"/><line x2="10.648" transform="translate(0 5.98)" fill="none" stroke="#1b2733" stroke-width="3"/><line x2="10.648" transform="translate(0 11.96)" fill="none" stroke="#1b2733" stroke-width="3"/><line x2="10.648" transform="translate(0 17.94)" fill="none" stroke="#1b2733" stroke-width="3"/><line x2="10.648" transform="translate(0 23.848)" fill="none" stroke="#1b2733" stroke-width="3"/></g><g transform="translate(27.202 11.96)"><line x2="10.648" fill="none" stroke="#1b2733" stroke-width="3"/></g><g transform="translate(41.059 17.722)"><line x2="10.648" fill="none" stroke="#1b2733" stroke-width="3"/><line x2="10.648" transform="translate(0 5.98)" fill="none" stroke="#1b2733" stroke-width="3"/><line x2="10.648" transform="translate(0 11.96)" fill="none" stroke="#1b2733" stroke-width="3"/><line x2="10.648" transform="translate(0 17.94)" fill="none" stroke="#1b2733" stroke-width="3"/><line x2="10.648" transform="translate(0 23.848)" fill="none" stroke="#1b2733" stroke-width="3"/></g><g transform="translate(41.059)"><line x2="10.648" fill="none" stroke="#1b2733" stroke-width="3"/><line x2="10.648" transform="translate(0 5.98)" fill="none" stroke="#1b2733" stroke-width="3"/><line x2="10.648" transform="translate(0 11.96)" fill="none" stroke="#1b2733" stroke-width="3"/></g><g transform="translate(0 35.662)"><line x2="9.918" fill="none" stroke="#1b2733" stroke-width="3"/><line x2="5.105" transform="translate(0 5.907)" fill="none" stroke="#1b2733" stroke-width="3"/></g><g transform="translate(4.303 35.298)"><path d="M88.39,171.7a8.1,8.1,0,1,1-8.1-8.1A8.124,8.124,0,0,1,88.39,171.7Z" transform="translate(-72.2 -163.6)" fill="none" stroke="#1b2733" stroke-width="3"/><g transform="translate(8.095 4.376)"><line y1="7.439" fill="none" stroke="#1b2733" stroke-width="3"/></g></g></g><g transform="translate(17.52 104.22)"><line y2="10.137" transform="translate(5.032)" fill="none" stroke="#fff" stroke-width="3"/><line x1="10.064" transform="translate(0 5.105)" fill="none" stroke="#fff" stroke-width="3"/></g><g transform="translate(10.228 52.813)"><line y2="10.137" transform="translate(5.032)" fill="none" stroke="#1366ff" stroke-width="3"/><line x1="10.064" transform="translate(0 5.105)" fill="none" stroke="#1366ff" stroke-width="3"/></g><g transform="translate(71.991 53.166)"><path d="M132.726,144.962h4.595a2.77,2.77,0,0,0,2.771-2.771v-.219a2.806,2.806,0,0,0-2.188-2.7V115.134a15.242,15.242,0,0,0,.073-1.823c0-9.554-6.709-24.285-17.138-28.661.948-3.355,1.823-6.709,2.771-10.064.219-.8-.583-1.677-1.823-1.823a2.1,2.1,0,0,0-2.48,1.313c.146-.8-.8-1.6-2.042-1.677S115,73.054,115,73.857c0-.8-1.021-1.532-2.261-1.459s-2.188.8-2.042,1.677c-.073-.8-1.24-1.459-2.48-1.313s-2.042.948-1.823,1.823c.948,3.355,1.823,6.709,2.771,10.064a24.473,24.473,0,0,0-8.97,7.074" transform="translate(-100.2 -72.393)" fill="none" stroke="#1b2733" stroke-width="3"/><line x2="16.19" transform="translate(6.491 11.747)" fill="none" stroke="#1b2733" stroke-width="3"/></g><line y1="10.429" transform="translate(34.781 53.9)" fill="none" stroke="#b5ddff" stroke-width="3"/><line x2="10.502" transform="translate(29.906 43.189)" fill="none" stroke="#b5ddff" stroke-width="3"/><path d="M29.988,99.3A25.142,25.142,0,0,0,14.6,122.491" transform="translate(-4.445 -26.24)" fill="none" stroke="#1b2733" stroke-width="3"/><path d="M26.893,42.746A3.646,3.646,0,1,1,23.246,39.1,3.657,3.657,0,0,1,26.893,42.746Z" transform="translate(-5.799 -9.625)" fill="#b5ddff"/><path d="M65.861,9.481A9.481,9.481,0,1,1,56.381,0,9.462,9.462,0,0,1,65.861,9.481Z" transform="translate(-13.386 8)" fill="#4586ff"/><g transform="translate(63.19 19.724)"><path d="M112.7,34.4A12.4,12.4,0,1,1,100.3,22,12.387,12.387,0,0,1,112.7,34.4Z" transform="translate(-87.9 -22)" fill="#4586ff"/><line y1="13.209" transform="translate(12.729 5.926)" fill="none" stroke="#fff" stroke-linejoin="bevel" stroke-width="3"/></g><line y1="8.702" transform="translate(43.293 13.554)" fill="none" stroke="#fff" stroke-linejoin="bevel" stroke-width="3"/></g></svg>